G04 #@! TF.GenerationSoftware,KiCad,Pcbnew,(5.1.7)-1*
G04 #@! TF.CreationDate,2021-11-03T15:22:26-05:00*
G04 #@! TF.ProjectId,battery_pack,62617474-6572-4795-9f70-61636b2e6b69,1.0*
G04 #@! TF.SameCoordinates,Original*
G04 #@! TF.FileFunction,Legend,Bot*
G04 #@! TF.FilePolarity,Positive*
%FSLAX46Y46*%
G04 Gerber Fmt 4.6, Leading zero omitted, Abs format (unit mm)*
G04 Created by KiCad (PCBNEW (5.1.7)-1) date 2021-11-03 15:22:26*
%MOMM*%
%LPD*%
G01*
G04 APERTURE LIST*
%ADD10C,0.150000*%
G04 APERTURE END LIST*
D10*
X198271380Y-106966285D02*
X198271380Y-107585333D01*
X198652333Y-107252000D01*
X198652333Y-107394857D01*
X198699952Y-107490095D01*
X198747571Y-107537714D01*
X198842809Y-107585333D01*
X199080904Y-107585333D01*
X199176142Y-107537714D01*
X199223761Y-107490095D01*
X199271380Y-107394857D01*
X199271380Y-107109142D01*
X199223761Y-107013904D01*
X199176142Y-106966285D01*
X198890428Y-108013904D02*
X198890428Y-108775809D01*
X198271380Y-109442476D02*
X198271380Y-109537714D01*
X198319000Y-109632952D01*
X198366619Y-109680571D01*
X198461857Y-109728190D01*
X198652333Y-109775809D01*
X198890428Y-109775809D01*
X199080904Y-109728190D01*
X199176142Y-109680571D01*
X199223761Y-109632952D01*
X199271380Y-109537714D01*
X199271380Y-109442476D01*
X199223761Y-109347238D01*
X199176142Y-109299619D01*
X199080904Y-109252000D01*
X198890428Y-109204380D01*
X198652333Y-109204380D01*
X198461857Y-109252000D01*
X198366619Y-109299619D01*
X198319000Y-109347238D01*
X198271380Y-109442476D01*
X198271380Y-110394857D02*
X198271380Y-110490095D01*
X198319000Y-110585333D01*
X198366619Y-110632952D01*
X198461857Y-110680571D01*
X198652333Y-110728190D01*
X198890428Y-110728190D01*
X199080904Y-110680571D01*
X199176142Y-110632952D01*
X199223761Y-110585333D01*
X199271380Y-110490095D01*
X199271380Y-110394857D01*
X199223761Y-110299619D01*
X199176142Y-110252000D01*
X199080904Y-110204380D01*
X198890428Y-110156761D01*
X198652333Y-110156761D01*
X198461857Y-110204380D01*
X198366619Y-110252000D01*
X198319000Y-110299619D01*
X198271380Y-110394857D01*
X198271380Y-111347238D02*
X198271380Y-111442476D01*
X198319000Y-111537714D01*
X198366619Y-111585333D01*
X198461857Y-111632952D01*
X198652333Y-111680571D01*
X198890428Y-111680571D01*
X199080904Y-111632952D01*
X199176142Y-111585333D01*
X199223761Y-111537714D01*
X199271380Y-111442476D01*
X199271380Y-111347238D01*
X199223761Y-111252000D01*
X199176142Y-111204380D01*
X199080904Y-111156761D01*
X198890428Y-111109142D01*
X198652333Y-111109142D01*
X198461857Y-111156761D01*
X198366619Y-111204380D01*
X198319000Y-111252000D01*
X198271380Y-111347238D01*
X198271380Y-112299619D02*
X198271380Y-112394857D01*
X198319000Y-112490095D01*
X198366619Y-112537714D01*
X198461857Y-112585333D01*
X198652333Y-112632952D01*
X198890428Y-112632952D01*
X199080904Y-112585333D01*
X199176142Y-112537714D01*
X199223761Y-112490095D01*
X199271380Y-112394857D01*
X199271380Y-112299619D01*
X199223761Y-112204380D01*
X199176142Y-112156761D01*
X199080904Y-112109142D01*
X198890428Y-112061523D01*
X198652333Y-112061523D01*
X198461857Y-112109142D01*
X198366619Y-112156761D01*
X198319000Y-112204380D01*
X198271380Y-112299619D01*
X199271380Y-113585333D02*
X199271380Y-113013904D01*
X199271380Y-113299619D02*
X198271380Y-113299619D01*
X198414238Y-113204380D01*
X198509476Y-113109142D01*
X198557095Y-113013904D01*
X198271380Y-114204380D02*
X198271380Y-114299619D01*
X198319000Y-114394857D01*
X198366619Y-114442476D01*
X198461857Y-114490095D01*
X198652333Y-114537714D01*
X198890428Y-114537714D01*
X199080904Y-114490095D01*
X199176142Y-114442476D01*
X199223761Y-114394857D01*
X199271380Y-114299619D01*
X199271380Y-114204380D01*
X199223761Y-114109142D01*
X199176142Y-114061523D01*
X199080904Y-114013904D01*
X198890428Y-113966285D01*
X198652333Y-113966285D01*
X198461857Y-114013904D01*
X198366619Y-114061523D01*
X198319000Y-114109142D01*
X198271380Y-114204380D01*
X198271380Y-115442476D02*
X198271380Y-114966285D01*
X198747571Y-114918666D01*
X198699952Y-114966285D01*
X198652333Y-115061523D01*
X198652333Y-115299619D01*
X198699952Y-115394857D01*
X198747571Y-115442476D01*
X198842809Y-115490095D01*
X199080904Y-115490095D01*
X199176142Y-115442476D01*
X199223761Y-115394857D01*
X199271380Y-115299619D01*
X199271380Y-115061523D01*
X199223761Y-114966285D01*
X199176142Y-114918666D01*
X199921380Y-106966285D02*
X199921380Y-107632952D01*
X200921380Y-107204380D01*
X200540428Y-108013904D02*
X200540428Y-108775809D01*
X199921380Y-109442476D02*
X199921380Y-109537714D01*
X199969000Y-109632952D01*
X200016619Y-109680571D01*
X200111857Y-109728190D01*
X200302333Y-109775809D01*
X200540428Y-109775809D01*
X200730904Y-109728190D01*
X200826142Y-109680571D01*
X200873761Y-109632952D01*
X200921380Y-109537714D01*
X200921380Y-109442476D01*
X200873761Y-109347238D01*
X200826142Y-109299619D01*
X200730904Y-109252000D01*
X200540428Y-109204380D01*
X200302333Y-109204380D01*
X200111857Y-109252000D01*
X200016619Y-109299619D01*
X199969000Y-109347238D01*
X199921380Y-109442476D01*
X199921380Y-110394857D02*
X199921380Y-110490095D01*
X199969000Y-110585333D01*
X200016619Y-110632952D01*
X200111857Y-110680571D01*
X200302333Y-110728190D01*
X200540428Y-110728190D01*
X200730904Y-110680571D01*
X200826142Y-110632952D01*
X200873761Y-110585333D01*
X200921380Y-110490095D01*
X200921380Y-110394857D01*
X200873761Y-110299619D01*
X200826142Y-110252000D01*
X200730904Y-110204380D01*
X200540428Y-110156761D01*
X200302333Y-110156761D01*
X200111857Y-110204380D01*
X200016619Y-110252000D01*
X199969000Y-110299619D01*
X199921380Y-110394857D01*
X199921380Y-111347238D02*
X199921380Y-111442476D01*
X199969000Y-111537714D01*
X200016619Y-111585333D01*
X200111857Y-111632952D01*
X200302333Y-111680571D01*
X200540428Y-111680571D01*
X200730904Y-111632952D01*
X200826142Y-111585333D01*
X200873761Y-111537714D01*
X200921380Y-111442476D01*
X200921380Y-111347238D01*
X200873761Y-111252000D01*
X200826142Y-111204380D01*
X200730904Y-111156761D01*
X200540428Y-111109142D01*
X200302333Y-111109142D01*
X200111857Y-111156761D01*
X200016619Y-111204380D01*
X199969000Y-111252000D01*
X199921380Y-111347238D01*
X199921380Y-112299619D02*
X199921380Y-112394857D01*
X199969000Y-112490095D01*
X200016619Y-112537714D01*
X200111857Y-112585333D01*
X200302333Y-112632952D01*
X200540428Y-112632952D01*
X200730904Y-112585333D01*
X200826142Y-112537714D01*
X200873761Y-112490095D01*
X200921380Y-112394857D01*
X200921380Y-112299619D01*
X200873761Y-112204380D01*
X200826142Y-112156761D01*
X200730904Y-112109142D01*
X200540428Y-112061523D01*
X200302333Y-112061523D01*
X200111857Y-112109142D01*
X200016619Y-112156761D01*
X199969000Y-112204380D01*
X199921380Y-112299619D01*
X199921380Y-113252000D02*
X199921380Y-113347238D01*
X199969000Y-113442476D01*
X200016619Y-113490095D01*
X200111857Y-113537714D01*
X200302333Y-113585333D01*
X200540428Y-113585333D01*
X200730904Y-113537714D01*
X200826142Y-113490095D01*
X200873761Y-113442476D01*
X200921380Y-113347238D01*
X200921380Y-113252000D01*
X200873761Y-113156761D01*
X200826142Y-113109142D01*
X200730904Y-113061523D01*
X200540428Y-113013904D01*
X200302333Y-113013904D01*
X200111857Y-113061523D01*
X200016619Y-113109142D01*
X199969000Y-113156761D01*
X199921380Y-113252000D01*
X199921380Y-114442476D02*
X199921380Y-114252000D01*
X199969000Y-114156761D01*
X200016619Y-114109142D01*
X200159476Y-114013904D01*
X200349952Y-113966285D01*
X200730904Y-113966285D01*
X200826142Y-114013904D01*
X200873761Y-114061523D01*
X200921380Y-114156761D01*
X200921380Y-114347238D01*
X200873761Y-114442476D01*
X200826142Y-114490095D01*
X200730904Y-114537714D01*
X200492809Y-114537714D01*
X200397571Y-114490095D01*
X200349952Y-114442476D01*
X200302333Y-114347238D01*
X200302333Y-114156761D01*
X200349952Y-114061523D01*
X200397571Y-114013904D01*
X200492809Y-113966285D01*
X200921380Y-115490095D02*
X200921380Y-114918666D01*
X200921380Y-115204380D02*
X199921380Y-115204380D01*
X200064238Y-115109142D01*
X200159476Y-115013904D01*
X200207095Y-114918666D01*
X103305619Y-106940857D02*
X103305619Y-107417047D01*
X104305619Y-107417047D01*
X103353238Y-106226571D02*
X103305619Y-106321809D01*
X103305619Y-106512285D01*
X103353238Y-106607523D01*
X103448476Y-106655142D01*
X103829428Y-106655142D01*
X103924666Y-106607523D01*
X103972285Y-106512285D01*
X103972285Y-106321809D01*
X103924666Y-106226571D01*
X103829428Y-106178952D01*
X103734190Y-106178952D01*
X103638952Y-106655142D01*
X103353238Y-105369428D02*
X103305619Y-105464666D01*
X103305619Y-105655142D01*
X103353238Y-105750380D01*
X103448476Y-105798000D01*
X103829428Y-105798000D01*
X103924666Y-105750380D01*
X103972285Y-105655142D01*
X103972285Y-105464666D01*
X103924666Y-105369428D01*
X103829428Y-105321809D01*
X103734190Y-105321809D01*
X103638952Y-105798000D01*
X103305619Y-104893238D02*
X103972285Y-104893238D01*
X103877047Y-104893238D02*
X103924666Y-104845619D01*
X103972285Y-104750380D01*
X103972285Y-104607523D01*
X103924666Y-104512285D01*
X103829428Y-104464666D01*
X103305619Y-104464666D01*
X103829428Y-104464666D02*
X103924666Y-104417047D01*
X103972285Y-104321809D01*
X103972285Y-104178952D01*
X103924666Y-104083714D01*
X103829428Y-104036095D01*
X103305619Y-104036095D01*
X103305619Y-103131333D02*
X103829428Y-103131333D01*
X103924666Y-103178952D01*
X103972285Y-103274190D01*
X103972285Y-103464666D01*
X103924666Y-103559904D01*
X103353238Y-103131333D02*
X103305619Y-103226571D01*
X103305619Y-103464666D01*
X103353238Y-103559904D01*
X103448476Y-103607523D01*
X103543714Y-103607523D01*
X103638952Y-103559904D01*
X103686571Y-103464666D01*
X103686571Y-103226571D01*
X103734190Y-103131333D01*
X103972285Y-102655142D02*
X103305619Y-102655142D01*
X103877047Y-102655142D02*
X103924666Y-102607523D01*
X103972285Y-102512285D01*
X103972285Y-102369428D01*
X103924666Y-102274190D01*
X103829428Y-102226571D01*
X103305619Y-102226571D01*
X104258000Y-100464666D02*
X104305619Y-100559904D01*
X104305619Y-100702761D01*
X104258000Y-100845619D01*
X104162761Y-100940857D01*
X104067523Y-100988476D01*
X103877047Y-101036095D01*
X103734190Y-101036095D01*
X103543714Y-100988476D01*
X103448476Y-100940857D01*
X103353238Y-100845619D01*
X103305619Y-100702761D01*
X103305619Y-100607523D01*
X103353238Y-100464666D01*
X103400857Y-100417047D01*
X103734190Y-100417047D01*
X103734190Y-100607523D01*
X103353238Y-99607523D02*
X103305619Y-99702761D01*
X103305619Y-99893238D01*
X103353238Y-99988476D01*
X103448476Y-100036095D01*
X103829428Y-100036095D01*
X103924666Y-99988476D01*
X103972285Y-99893238D01*
X103972285Y-99702761D01*
X103924666Y-99607523D01*
X103829428Y-99559904D01*
X103734190Y-99559904D01*
X103638952Y-100036095D01*
X103305619Y-98988476D02*
X103353238Y-99083714D01*
X103400857Y-99131333D01*
X103496095Y-99178952D01*
X103781809Y-99178952D01*
X103877047Y-99131333D01*
X103924666Y-99083714D01*
X103972285Y-98988476D01*
X103972285Y-98845619D01*
X103924666Y-98750380D01*
X103877047Y-98702761D01*
X103781809Y-98655142D01*
X103496095Y-98655142D01*
X103400857Y-98702761D01*
X103353238Y-98750380D01*
X103305619Y-98845619D01*
X103305619Y-98988476D01*
X103972285Y-98226571D02*
X102972285Y-98226571D01*
X103924666Y-98226571D02*
X103972285Y-98131333D01*
X103972285Y-97940857D01*
X103924666Y-97845619D01*
X103877047Y-97798000D01*
X103781809Y-97750380D01*
X103496095Y-97750380D01*
X103400857Y-97798000D01*
X103353238Y-97845619D01*
X103305619Y-97940857D01*
X103305619Y-98131333D01*
X103353238Y-98226571D01*
X103305619Y-97321809D02*
X104305619Y-97321809D01*
X103305619Y-96893238D02*
X103829428Y-96893238D01*
X103924666Y-96940857D01*
X103972285Y-97036095D01*
X103972285Y-97178952D01*
X103924666Y-97274190D01*
X103877047Y-97321809D01*
X103972285Y-96512285D02*
X103305619Y-96274190D01*
X103972285Y-96036095D02*
X103305619Y-96274190D01*
X103067523Y-96369428D01*
X103019904Y-96417047D01*
X102972285Y-96512285D01*
X103353238Y-95702761D02*
X103305619Y-95607523D01*
X103305619Y-95417047D01*
X103353238Y-95321809D01*
X103448476Y-95274190D01*
X103496095Y-95274190D01*
X103591333Y-95321809D01*
X103638952Y-95417047D01*
X103638952Y-95559904D01*
X103686571Y-95655142D01*
X103781809Y-95702761D01*
X103829428Y-95702761D01*
X103924666Y-95655142D01*
X103972285Y-95559904D01*
X103972285Y-95417047D01*
X103924666Y-95321809D01*
X103305619Y-94845619D02*
X103972285Y-94845619D01*
X104305619Y-94845619D02*
X104258000Y-94893238D01*
X104210380Y-94845619D01*
X104258000Y-94798000D01*
X104305619Y-94845619D01*
X104210380Y-94845619D01*
X103353238Y-93940857D02*
X103305619Y-94036095D01*
X103305619Y-94226571D01*
X103353238Y-94321809D01*
X103400857Y-94369428D01*
X103496095Y-94417047D01*
X103781809Y-94417047D01*
X103877047Y-94369428D01*
X103924666Y-94321809D01*
X103972285Y-94226571D01*
X103972285Y-94036095D01*
X103924666Y-93940857D01*
X103305619Y-93083714D02*
X103829428Y-93083714D01*
X103924666Y-93131333D01*
X103972285Y-93226571D01*
X103972285Y-93417047D01*
X103924666Y-93512285D01*
X103353238Y-93083714D02*
X103305619Y-93178952D01*
X103305619Y-93417047D01*
X103353238Y-93512285D01*
X103448476Y-93559904D01*
X103543714Y-93559904D01*
X103638952Y-93512285D01*
X103686571Y-93417047D01*
X103686571Y-93178952D01*
X103734190Y-93083714D01*
X103305619Y-92464666D02*
X103353238Y-92559904D01*
X103448476Y-92607523D01*
X104305619Y-92607523D01*
X103305619Y-90845619D02*
X103305619Y-91321809D01*
X104305619Y-91321809D01*
X103305619Y-90036095D02*
X103305619Y-90512285D01*
X104305619Y-90512285D01*
X103400857Y-89131333D02*
X103353238Y-89178952D01*
X103305619Y-89321809D01*
X103305619Y-89417047D01*
X103353238Y-89559904D01*
X103448476Y-89655142D01*
X103543714Y-89702761D01*
X103734190Y-89750380D01*
X103877047Y-89750380D01*
X104067523Y-89702761D01*
X104162761Y-89655142D01*
X104258000Y-89559904D01*
X104305619Y-89417047D01*
X104305619Y-89321809D01*
X104258000Y-89178952D01*
X104210380Y-89131333D01*
X101750857Y-105869428D02*
X101703238Y-105917047D01*
X101655619Y-106059904D01*
X101655619Y-106155142D01*
X101703238Y-106298000D01*
X101798476Y-106393238D01*
X101893714Y-106440857D01*
X102084190Y-106488476D01*
X102227047Y-106488476D01*
X102417523Y-106440857D01*
X102512761Y-106393238D01*
X102608000Y-106298000D01*
X102655619Y-106155142D01*
X102655619Y-106059904D01*
X102608000Y-105917047D01*
X102560380Y-105869428D01*
X101655619Y-104869428D02*
X102131809Y-105202761D01*
X101655619Y-105440857D02*
X102655619Y-105440857D01*
X102655619Y-105059904D01*
X102608000Y-104964666D01*
X102560380Y-104917047D01*
X102465142Y-104869428D01*
X102322285Y-104869428D01*
X102227047Y-104917047D01*
X102179428Y-104964666D01*
X102131809Y-105059904D01*
X102131809Y-105440857D01*
X101655619Y-103917047D02*
X101655619Y-104488476D01*
X101655619Y-104202761D02*
X102655619Y-104202761D01*
X102512761Y-104298000D01*
X102417523Y-104393238D01*
X102369904Y-104488476D01*
X102560380Y-103536095D02*
X102608000Y-103488476D01*
X102655619Y-103393238D01*
X102655619Y-103155142D01*
X102608000Y-103059904D01*
X102560380Y-103012285D01*
X102465142Y-102964666D01*
X102369904Y-102964666D01*
X102227047Y-103012285D01*
X101655619Y-103583714D01*
X101655619Y-102964666D01*
X102655619Y-102631333D02*
X102655619Y-102012285D01*
X102274666Y-102345619D01*
X102274666Y-102202761D01*
X102227047Y-102107523D01*
X102179428Y-102059904D01*
X102084190Y-102012285D01*
X101846095Y-102012285D01*
X101750857Y-102059904D01*
X101703238Y-102107523D01*
X101655619Y-102202761D01*
X101655619Y-102488476D01*
X101703238Y-102583714D01*
X101750857Y-102631333D01*
X102179428Y-100488476D02*
X102131809Y-100345619D01*
X102084190Y-100298000D01*
X101988952Y-100250380D01*
X101846095Y-100250380D01*
X101750857Y-100298000D01*
X101703238Y-100345619D01*
X101655619Y-100440857D01*
X101655619Y-100821809D01*
X102655619Y-100821809D01*
X102655619Y-100488476D01*
X102608000Y-100393238D01*
X102560380Y-100345619D01*
X102465142Y-100298000D01*
X102369904Y-100298000D01*
X102274666Y-100345619D01*
X102227047Y-100393238D01*
X102179428Y-100488476D01*
X102179428Y-100821809D01*
X101655619Y-99393238D02*
X102179428Y-99393238D01*
X102274666Y-99440857D01*
X102322285Y-99536095D01*
X102322285Y-99726571D01*
X102274666Y-99821809D01*
X101703238Y-99393238D02*
X101655619Y-99488476D01*
X101655619Y-99726571D01*
X101703238Y-99821809D01*
X101798476Y-99869428D01*
X101893714Y-99869428D01*
X101988952Y-99821809D01*
X102036571Y-99726571D01*
X102036571Y-99488476D01*
X102084190Y-99393238D01*
X102322285Y-99059904D02*
X102322285Y-98678952D01*
X102655619Y-98917047D02*
X101798476Y-98917047D01*
X101703238Y-98869428D01*
X101655619Y-98774190D01*
X101655619Y-98678952D01*
X102322285Y-98488476D02*
X102322285Y-98107523D01*
X102655619Y-98345619D02*
X101798476Y-98345619D01*
X101703238Y-98298000D01*
X101655619Y-98202761D01*
X101655619Y-98107523D01*
X101703238Y-97393238D02*
X101655619Y-97488476D01*
X101655619Y-97678952D01*
X101703238Y-97774190D01*
X101798476Y-97821809D01*
X102179428Y-97821809D01*
X102274666Y-97774190D01*
X102322285Y-97678952D01*
X102322285Y-97488476D01*
X102274666Y-97393238D01*
X102179428Y-97345619D01*
X102084190Y-97345619D01*
X101988952Y-97821809D01*
X101655619Y-96917047D02*
X102322285Y-96917047D01*
X102131809Y-96917047D02*
X102227047Y-96869428D01*
X102274666Y-96821809D01*
X102322285Y-96726571D01*
X102322285Y-96631333D01*
X102322285Y-96393238D02*
X101655619Y-96155142D01*
X102322285Y-95917047D02*
X101655619Y-96155142D01*
X101417523Y-96250380D01*
X101369904Y-96298000D01*
X101322285Y-96393238D01*
X101750857Y-94202761D02*
X101703238Y-94250380D01*
X101655619Y-94393238D01*
X101655619Y-94488476D01*
X101703238Y-94631333D01*
X101798476Y-94726571D01*
X101893714Y-94774190D01*
X102084190Y-94821809D01*
X102227047Y-94821809D01*
X102417523Y-94774190D01*
X102512761Y-94726571D01*
X102608000Y-94631333D01*
X102655619Y-94488476D01*
X102655619Y-94393238D01*
X102608000Y-94250380D01*
X102560380Y-94202761D01*
X101655619Y-93345619D02*
X102179428Y-93345619D01*
X102274666Y-93393238D01*
X102322285Y-93488476D01*
X102322285Y-93678952D01*
X102274666Y-93774190D01*
X101703238Y-93345619D02*
X101655619Y-93440857D01*
X101655619Y-93678952D01*
X101703238Y-93774190D01*
X101798476Y-93821809D01*
X101893714Y-93821809D01*
X101988952Y-93774190D01*
X102036571Y-93678952D01*
X102036571Y-93440857D01*
X102084190Y-93345619D01*
X101655619Y-92869428D02*
X102322285Y-92869428D01*
X102131809Y-92869428D02*
X102227047Y-92821809D01*
X102274666Y-92774190D01*
X102322285Y-92678952D01*
X102322285Y-92583714D01*
X101655619Y-92250380D02*
X102322285Y-92250380D01*
X102131809Y-92250380D02*
X102227047Y-92202761D01*
X102274666Y-92155142D01*
X102322285Y-92059904D01*
X102322285Y-91964666D01*
X101655619Y-91631333D02*
X102322285Y-91631333D01*
X102655619Y-91631333D02*
X102608000Y-91678952D01*
X102560380Y-91631333D01*
X102608000Y-91583714D01*
X102655619Y-91631333D01*
X102560380Y-91631333D01*
X101703238Y-90774190D02*
X101655619Y-90869428D01*
X101655619Y-91059904D01*
X101703238Y-91155142D01*
X101798476Y-91202761D01*
X102179428Y-91202761D01*
X102274666Y-91155142D01*
X102322285Y-91059904D01*
X102322285Y-90869428D01*
X102274666Y-90774190D01*
X102179428Y-90726571D01*
X102084190Y-90726571D01*
X101988952Y-91202761D01*
X101655619Y-90298000D02*
X102322285Y-90298000D01*
X102131809Y-90298000D02*
X102227047Y-90250380D01*
X102274666Y-90202761D01*
X102322285Y-90107523D01*
X102322285Y-90012285D01*
X100005619Y-100369428D02*
X100481809Y-100702761D01*
X100005619Y-100940857D02*
X101005619Y-100940857D01*
X101005619Y-100559904D01*
X100958000Y-100464666D01*
X100910380Y-100417047D01*
X100815142Y-100369428D01*
X100672285Y-100369428D01*
X100577047Y-100417047D01*
X100529428Y-100464666D01*
X100481809Y-100559904D01*
X100481809Y-100940857D01*
X100053238Y-99559904D02*
X100005619Y-99655142D01*
X100005619Y-99845619D01*
X100053238Y-99940857D01*
X100148476Y-99988476D01*
X100529428Y-99988476D01*
X100624666Y-99940857D01*
X100672285Y-99845619D01*
X100672285Y-99655142D01*
X100624666Y-99559904D01*
X100529428Y-99512285D01*
X100434190Y-99512285D01*
X100338952Y-99988476D01*
X100672285Y-99178952D02*
X100005619Y-98940857D01*
X100672285Y-98702761D01*
X100005619Y-97036095D02*
X100005619Y-97607523D01*
X100005619Y-97321809D02*
X101005619Y-97321809D01*
X100862761Y-97417047D01*
X100767523Y-97512285D01*
X100719904Y-97607523D01*
X100100857Y-96607523D02*
X100053238Y-96559904D01*
X100005619Y-96607523D01*
X100053238Y-96655142D01*
X100100857Y-96607523D01*
X100005619Y-96607523D01*
X101005619Y-95940857D02*
X101005619Y-95845619D01*
X100958000Y-95750380D01*
X100910380Y-95702761D01*
X100815142Y-95655142D01*
X100624666Y-95607523D01*
X100386571Y-95607523D01*
X100196095Y-95655142D01*
X100100857Y-95702761D01*
X100053238Y-95750380D01*
X100005619Y-95845619D01*
X100005619Y-95940857D01*
X100053238Y-96036095D01*
X100100857Y-96083714D01*
X100196095Y-96131333D01*
X100386571Y-96178952D01*
X100624666Y-96178952D01*
X100815142Y-96131333D01*
X100910380Y-96083714D01*
X100958000Y-96036095D01*
X101005619Y-95940857D01*
M02*
