%TF.GenerationSoftware,KiCad,Pcbnew,(5.1.7)-1*%
%TF.CreationDate,2020-12-22T10:31:33-06:00*%
%TF.ProjectId,tracker,74726163-6b65-4722-9e6b-696361645f70,1.0*%
%TF.SameCoordinates,Original*%
%TF.FileFunction,Copper,L1,Top*%
%TF.FilePolarity,Positive*%
%FSLAX46Y46*%
G04 Gerber Fmt 4.6, Leading zero omitted, Abs format (unit mm)*
G04 Created by KiCad (PCBNEW (5.1.7)-1) date 2020-12-22 10:31:33*
%MOMM*%
%LPD*%
G01*
G04 APERTURE LIST*
%TA.AperFunction,SMDPad,CuDef*%
%ADD10R,2.300000X4.500000*%
%TD*%
%TA.AperFunction,SMDPad,CuDef*%
%ADD11C,1.000000*%
%TD*%
%TA.AperFunction,ComponentPad*%
%ADD12R,1.700000X1.700000*%
%TD*%
%TA.AperFunction,ComponentPad*%
%ADD13O,1.700000X1.700000*%
%TD*%
%TA.AperFunction,SMDPad,CuDef*%
%ADD14R,0.900000X0.800000*%
%TD*%
%TA.AperFunction,ComponentPad*%
%ADD15R,2.625000X2.625000*%
%TD*%
%TA.AperFunction,ComponentPad*%
%ADD16C,2.625000*%
%TD*%
%TA.AperFunction,ComponentPad*%
%ADD17R,1.350000X1.350000*%
%TD*%
%TA.AperFunction,ComponentPad*%
%ADD18O,1.350000X1.350000*%
%TD*%
%TA.AperFunction,SMDPad,CuDef*%
%ADD19R,0.550000X1.600000*%
%TD*%
%TA.AperFunction,SMDPad,CuDef*%
%ADD20R,1.600000X0.550000*%
%TD*%
%TA.AperFunction,ComponentPad*%
%ADD21C,1.219200*%
%TD*%
%TA.AperFunction,SMDPad,CuDef*%
%ADD22R,1.500000X1.800000*%
%TD*%
%TA.AperFunction,SMDPad,CuDef*%
%ADD23R,1.800000X1.500000*%
%TD*%
%TA.AperFunction,SMDPad,CuDef*%
%ADD24R,0.650000X1.060000*%
%TD*%
%TA.AperFunction,SMDPad,CuDef*%
%ADD25R,1.900000X0.400000*%
%TD*%
%TA.AperFunction,ViaPad*%
%ADD26C,0.508000*%
%TD*%
%TA.AperFunction,Conductor*%
%ADD27C,0.304800*%
%TD*%
%TA.AperFunction,Conductor*%
%ADD28C,0.508000*%
%TD*%
%TA.AperFunction,Conductor*%
%ADD29C,0.152400*%
%TD*%
%TA.AperFunction,Conductor*%
%ADD30C,1.270000*%
%TD*%
%TA.AperFunction,Conductor*%
%ADD31C,0.635000*%
%TD*%
G04 APERTURE END LIST*
D10*
%TO.P,BT1,1*%
%TO.N,Net-(BT1-Pad1)*%
X149860000Y-141071000D03*
%TO.P,BT1,2*%
%TO.N,RB_GND*%
X149860000Y-124671000D03*
%TD*%
%TO.P,C1,2*%
%TO.N,RB_GND*%
%TA.AperFunction,SMDPad,CuDef*%
G36*
G01*
X149100250Y-101504000D02*
X148587750Y-101504000D01*
G75*
G02*
X148369000Y-101285250I0J218750D01*
G01*
X148369000Y-100847750D01*
G75*
G02*
X148587750Y-100629000I218750J0D01*
G01*
X149100250Y-100629000D01*
G75*
G02*
X149319000Y-100847750I0J-218750D01*
G01*
X149319000Y-101285250D01*
G75*
G02*
X149100250Y-101504000I-218750J0D01*
G01*
G37*
%TD.AperFunction*%
%TO.P,C1,1*%
%TO.N,+3V3*%
%TA.AperFunction,SMDPad,CuDef*%
G36*
G01*
X149100250Y-103079000D02*
X148587750Y-103079000D01*
G75*
G02*
X148369000Y-102860250I0J218750D01*
G01*
X148369000Y-102422750D01*
G75*
G02*
X148587750Y-102204000I218750J0D01*
G01*
X149100250Y-102204000D01*
G75*
G02*
X149319000Y-102422750I0J-218750D01*
G01*
X149319000Y-102860250D01*
G75*
G02*
X149100250Y-103079000I-218750J0D01*
G01*
G37*
%TD.AperFunction*%
%TD*%
%TO.P,C2,1*%
%TO.N,+3V3*%
%TA.AperFunction,SMDPad,CuDef*%
G36*
G01*
X147825750Y-115361000D02*
X148338250Y-115361000D01*
G75*
G02*
X148557000Y-115579750I0J-218750D01*
G01*
X148557000Y-116017250D01*
G75*
G02*
X148338250Y-116236000I-218750J0D01*
G01*
X147825750Y-116236000D01*
G75*
G02*
X147607000Y-116017250I0J218750D01*
G01*
X147607000Y-115579750D01*
G75*
G02*
X147825750Y-115361000I218750J0D01*
G01*
G37*
%TD.AperFunction*%
%TO.P,C2,2*%
%TO.N,RB_GND*%
%TA.AperFunction,SMDPad,CuDef*%
G36*
G01*
X147825750Y-116936000D02*
X148338250Y-116936000D01*
G75*
G02*
X148557000Y-117154750I0J-218750D01*
G01*
X148557000Y-117592250D01*
G75*
G02*
X148338250Y-117811000I-218750J0D01*
G01*
X147825750Y-117811000D01*
G75*
G02*
X147607000Y-117592250I0J218750D01*
G01*
X147607000Y-117154750D01*
G75*
G02*
X147825750Y-116936000I218750J0D01*
G01*
G37*
%TD.AperFunction*%
%TD*%
%TO.P,C3,2*%
%TO.N,RB_GND*%
%TA.AperFunction,SMDPad,CuDef*%
G36*
G01*
X146047750Y-116936000D02*
X146560250Y-116936000D01*
G75*
G02*
X146779000Y-117154750I0J-218750D01*
G01*
X146779000Y-117592250D01*
G75*
G02*
X146560250Y-117811000I-218750J0D01*
G01*
X146047750Y-117811000D01*
G75*
G02*
X145829000Y-117592250I0J218750D01*
G01*
X145829000Y-117154750D01*
G75*
G02*
X146047750Y-116936000I218750J0D01*
G01*
G37*
%TD.AperFunction*%
%TO.P,C3,1*%
%TO.N,+3V3*%
%TA.AperFunction,SMDPad,CuDef*%
G36*
G01*
X146047750Y-115361000D02*
X146560250Y-115361000D01*
G75*
G02*
X146779000Y-115579750I0J-218750D01*
G01*
X146779000Y-116017250D01*
G75*
G02*
X146560250Y-116236000I-218750J0D01*
G01*
X146047750Y-116236000D01*
G75*
G02*
X145829000Y-116017250I0J218750D01*
G01*
X145829000Y-115579750D01*
G75*
G02*
X146047750Y-115361000I218750J0D01*
G01*
G37*
%TD.AperFunction*%
%TD*%
%TO.P,C4,1*%
%TO.N,+3V3*%
%TA.AperFunction,SMDPad,CuDef*%
G36*
G01*
X164183000Y-138886250D02*
X164183000Y-137973750D01*
G75*
G02*
X164426750Y-137730000I243750J0D01*
G01*
X164914250Y-137730000D01*
G75*
G02*
X165158000Y-137973750I0J-243750D01*
G01*
X165158000Y-138886250D01*
G75*
G02*
X164914250Y-139130000I-243750J0D01*
G01*
X164426750Y-139130000D01*
G75*
G02*
X164183000Y-138886250I0J243750D01*
G01*
G37*
%TD.AperFunction*%
%TO.P,C4,2*%
%TO.N,RB_GND*%
%TA.AperFunction,SMDPad,CuDef*%
G36*
G01*
X166058000Y-138886250D02*
X166058000Y-137973750D01*
G75*
G02*
X166301750Y-137730000I243750J0D01*
G01*
X166789250Y-137730000D01*
G75*
G02*
X167033000Y-137973750I0J-243750D01*
G01*
X167033000Y-138886250D01*
G75*
G02*
X166789250Y-139130000I-243750J0D01*
G01*
X166301750Y-139130000D01*
G75*
G02*
X166058000Y-138886250I0J243750D01*
G01*
G37*
%TD.AperFunction*%
%TD*%
%TO.P,C5,1*%
%TO.N,+3V3*%
%TA.AperFunction,SMDPad,CuDef*%
G36*
G01*
X164383000Y-140718250D02*
X164383000Y-140205750D01*
G75*
G02*
X164601750Y-139987000I218750J0D01*
G01*
X165039250Y-139987000D01*
G75*
G02*
X165258000Y-140205750I0J-218750D01*
G01*
X165258000Y-140718250D01*
G75*
G02*
X165039250Y-140937000I-218750J0D01*
G01*
X164601750Y-140937000D01*
G75*
G02*
X164383000Y-140718250I0J218750D01*
G01*
G37*
%TD.AperFunction*%
%TO.P,C5,2*%
%TO.N,RB_GND*%
%TA.AperFunction,SMDPad,CuDef*%
G36*
G01*
X165958000Y-140718250D02*
X165958000Y-140205750D01*
G75*
G02*
X166176750Y-139987000I218750J0D01*
G01*
X166614250Y-139987000D01*
G75*
G02*
X166833000Y-140205750I0J-218750D01*
G01*
X166833000Y-140718250D01*
G75*
G02*
X166614250Y-140937000I-218750J0D01*
G01*
X166176750Y-140937000D01*
G75*
G02*
X165958000Y-140718250I0J218750D01*
G01*
G37*
%TD.AperFunction*%
%TD*%
%TO.P,C6,1*%
%TO.N,Net-(C6-Pad1)*%
%TA.AperFunction,SMDPad,CuDef*%
G36*
G01*
X147068250Y-103079000D02*
X146555750Y-103079000D01*
G75*
G02*
X146337000Y-102860250I0J218750D01*
G01*
X146337000Y-102422750D01*
G75*
G02*
X146555750Y-102204000I218750J0D01*
G01*
X147068250Y-102204000D01*
G75*
G02*
X147287000Y-102422750I0J-218750D01*
G01*
X147287000Y-102860250D01*
G75*
G02*
X147068250Y-103079000I-218750J0D01*
G01*
G37*
%TD.AperFunction*%
%TO.P,C6,2*%
%TO.N,RB_GND*%
%TA.AperFunction,SMDPad,CuDef*%
G36*
G01*
X147068250Y-101504000D02*
X146555750Y-101504000D01*
G75*
G02*
X146337000Y-101285250I0J218750D01*
G01*
X146337000Y-100847750D01*
G75*
G02*
X146555750Y-100629000I218750J0D01*
G01*
X147068250Y-100629000D01*
G75*
G02*
X147287000Y-100847750I0J-218750D01*
G01*
X147287000Y-101285250D01*
G75*
G02*
X147068250Y-101504000I-218750J0D01*
G01*
G37*
%TD.AperFunction*%
%TD*%
%TO.P,C7,1*%
%TO.N,+3V3*%
%TA.AperFunction,SMDPad,CuDef*%
G36*
G01*
X164383000Y-142496250D02*
X164383000Y-141983750D01*
G75*
G02*
X164601750Y-141765000I218750J0D01*
G01*
X165039250Y-141765000D01*
G75*
G02*
X165258000Y-141983750I0J-218750D01*
G01*
X165258000Y-142496250D01*
G75*
G02*
X165039250Y-142715000I-218750J0D01*
G01*
X164601750Y-142715000D01*
G75*
G02*
X164383000Y-142496250I0J218750D01*
G01*
G37*
%TD.AperFunction*%
%TO.P,C7,2*%
%TO.N,RB_GND*%
%TA.AperFunction,SMDPad,CuDef*%
G36*
G01*
X165958000Y-142496250D02*
X165958000Y-141983750D01*
G75*
G02*
X166176750Y-141765000I218750J0D01*
G01*
X166614250Y-141765000D01*
G75*
G02*
X166833000Y-141983750I0J-218750D01*
G01*
X166833000Y-142496250D01*
G75*
G02*
X166614250Y-142715000I-218750J0D01*
G01*
X166176750Y-142715000D01*
G75*
G02*
X165958000Y-142496250I0J218750D01*
G01*
G37*
%TD.AperFunction*%
%TD*%
%TO.P,C8,2*%
%TO.N,Net-(C8-Pad2)*%
%TA.AperFunction,SMDPad,CuDef*%
G36*
G01*
X182784000Y-132077750D02*
X182784000Y-132590250D01*
G75*
G02*
X182565250Y-132809000I-218750J0D01*
G01*
X182127750Y-132809000D01*
G75*
G02*
X181909000Y-132590250I0J218750D01*
G01*
X181909000Y-132077750D01*
G75*
G02*
X182127750Y-131859000I218750J0D01*
G01*
X182565250Y-131859000D01*
G75*
G02*
X182784000Y-132077750I0J-218750D01*
G01*
G37*
%TD.AperFunction*%
%TO.P,C8,1*%
%TO.N,RESET*%
%TA.AperFunction,SMDPad,CuDef*%
G36*
G01*
X184359000Y-132077750D02*
X184359000Y-132590250D01*
G75*
G02*
X184140250Y-132809000I-218750J0D01*
G01*
X183702750Y-132809000D01*
G75*
G02*
X183484000Y-132590250I0J218750D01*
G01*
X183484000Y-132077750D01*
G75*
G02*
X183702750Y-131859000I218750J0D01*
G01*
X184140250Y-131859000D01*
G75*
G02*
X184359000Y-132077750I0J-218750D01*
G01*
G37*
%TD.AperFunction*%
%TD*%
%TO.P,C9,2*%
%TO.N,RB_GND*%
%TA.AperFunction,SMDPad,CuDef*%
G36*
G01*
X123856000Y-142999750D02*
X123856000Y-143512250D01*
G75*
G02*
X123637250Y-143731000I-218750J0D01*
G01*
X123199750Y-143731000D01*
G75*
G02*
X122981000Y-143512250I0J218750D01*
G01*
X122981000Y-142999750D01*
G75*
G02*
X123199750Y-142781000I218750J0D01*
G01*
X123637250Y-142781000D01*
G75*
G02*
X123856000Y-142999750I0J-218750D01*
G01*
G37*
%TD.AperFunction*%
%TO.P,C9,1*%
%TO.N,+3V3*%
%TA.AperFunction,SMDPad,CuDef*%
G36*
G01*
X125431000Y-142999750D02*
X125431000Y-143512250D01*
G75*
G02*
X125212250Y-143731000I-218750J0D01*
G01*
X124774750Y-143731000D01*
G75*
G02*
X124556000Y-143512250I0J218750D01*
G01*
X124556000Y-142999750D01*
G75*
G02*
X124774750Y-142781000I218750J0D01*
G01*
X125212250Y-142781000D01*
G75*
G02*
X125431000Y-142999750I0J-218750D01*
G01*
G37*
%TD.AperFunction*%
%TD*%
%TO.P,C10,2*%
%TO.N,RB_GND*%
%TA.AperFunction,SMDPad,CuDef*%
G36*
G01*
X136302000Y-89913750D02*
X136302000Y-90426250D01*
G75*
G02*
X136083250Y-90645000I-218750J0D01*
G01*
X135645750Y-90645000D01*
G75*
G02*
X135427000Y-90426250I0J218750D01*
G01*
X135427000Y-89913750D01*
G75*
G02*
X135645750Y-89695000I218750J0D01*
G01*
X136083250Y-89695000D01*
G75*
G02*
X136302000Y-89913750I0J-218750D01*
G01*
G37*
%TD.AperFunction*%
%TO.P,C10,1*%
%TO.N,Net-(C10-Pad1)*%
%TA.AperFunction,SMDPad,CuDef*%
G36*
G01*
X137877000Y-89913750D02*
X137877000Y-90426250D01*
G75*
G02*
X137658250Y-90645000I-218750J0D01*
G01*
X137220750Y-90645000D01*
G75*
G02*
X137002000Y-90426250I0J218750D01*
G01*
X137002000Y-89913750D01*
G75*
G02*
X137220750Y-89695000I218750J0D01*
G01*
X137658250Y-89695000D01*
G75*
G02*
X137877000Y-89913750I0J-218750D01*
G01*
G37*
%TD.AperFunction*%
%TD*%
%TO.P,C11,1*%
%TO.N,+3V3*%
%TA.AperFunction,SMDPad,CuDef*%
G36*
G01*
X133305000Y-142999750D02*
X133305000Y-143512250D01*
G75*
G02*
X133086250Y-143731000I-218750J0D01*
G01*
X132648750Y-143731000D01*
G75*
G02*
X132430000Y-143512250I0J218750D01*
G01*
X132430000Y-142999750D01*
G75*
G02*
X132648750Y-142781000I218750J0D01*
G01*
X133086250Y-142781000D01*
G75*
G02*
X133305000Y-142999750I0J-218750D01*
G01*
G37*
%TD.AperFunction*%
%TO.P,C11,2*%
%TO.N,RB_GND*%
%TA.AperFunction,SMDPad,CuDef*%
G36*
G01*
X131730000Y-142999750D02*
X131730000Y-143512250D01*
G75*
G02*
X131511250Y-143731000I-218750J0D01*
G01*
X131073750Y-143731000D01*
G75*
G02*
X130855000Y-143512250I0J218750D01*
G01*
X130855000Y-142999750D01*
G75*
G02*
X131073750Y-142781000I218750J0D01*
G01*
X131511250Y-142781000D01*
G75*
G02*
X131730000Y-142999750I0J-218750D01*
G01*
G37*
%TD.AperFunction*%
%TD*%
%TO.P,C12,2*%
%TO.N,RB_GND*%
%TA.AperFunction,SMDPad,CuDef*%
G36*
G01*
X137616250Y-120708000D02*
X136703750Y-120708000D01*
G75*
G02*
X136460000Y-120464250I0J243750D01*
G01*
X136460000Y-119976750D01*
G75*
G02*
X136703750Y-119733000I243750J0D01*
G01*
X137616250Y-119733000D01*
G75*
G02*
X137860000Y-119976750I0J-243750D01*
G01*
X137860000Y-120464250D01*
G75*
G02*
X137616250Y-120708000I-243750J0D01*
G01*
G37*
%TD.AperFunction*%
%TO.P,C12,1*%
%TO.N,RB_5V*%
%TA.AperFunction,SMDPad,CuDef*%
G36*
G01*
X137616250Y-122583000D02*
X136703750Y-122583000D01*
G75*
G02*
X136460000Y-122339250I0J243750D01*
G01*
X136460000Y-121851750D01*
G75*
G02*
X136703750Y-121608000I243750J0D01*
G01*
X137616250Y-121608000D01*
G75*
G02*
X137860000Y-121851750I0J-243750D01*
G01*
X137860000Y-122339250D01*
G75*
G02*
X137616250Y-122583000I-243750J0D01*
G01*
G37*
%TD.AperFunction*%
%TD*%
%TO.P,C13,1*%
%TO.N,+3V3*%
%TA.AperFunction,SMDPad,CuDef*%
G36*
G01*
X132687000Y-118312250D02*
X132687000Y-117399750D01*
G75*
G02*
X132930750Y-117156000I243750J0D01*
G01*
X133418250Y-117156000D01*
G75*
G02*
X133662000Y-117399750I0J-243750D01*
G01*
X133662000Y-118312250D01*
G75*
G02*
X133418250Y-118556000I-243750J0D01*
G01*
X132930750Y-118556000D01*
G75*
G02*
X132687000Y-118312250I0J243750D01*
G01*
G37*
%TD.AperFunction*%
%TO.P,C13,2*%
%TO.N,RB_GND*%
%TA.AperFunction,SMDPad,CuDef*%
G36*
G01*
X134562000Y-118312250D02*
X134562000Y-117399750D01*
G75*
G02*
X134805750Y-117156000I243750J0D01*
G01*
X135293250Y-117156000D01*
G75*
G02*
X135537000Y-117399750I0J-243750D01*
G01*
X135537000Y-118312250D01*
G75*
G02*
X135293250Y-118556000I-243750J0D01*
G01*
X134805750Y-118556000D01*
G75*
G02*
X134562000Y-118312250I0J243750D01*
G01*
G37*
%TD.AperFunction*%
%TD*%
%TO.P,C14,1*%
%TO.N,+3V3*%
%TA.AperFunction,SMDPad,CuDef*%
G36*
G01*
X132887000Y-116080250D02*
X132887000Y-115567750D01*
G75*
G02*
X133105750Y-115349000I218750J0D01*
G01*
X133543250Y-115349000D01*
G75*
G02*
X133762000Y-115567750I0J-218750D01*
G01*
X133762000Y-116080250D01*
G75*
G02*
X133543250Y-116299000I-218750J0D01*
G01*
X133105750Y-116299000D01*
G75*
G02*
X132887000Y-116080250I0J218750D01*
G01*
G37*
%TD.AperFunction*%
%TO.P,C14,2*%
%TO.N,RB_GND*%
%TA.AperFunction,SMDPad,CuDef*%
G36*
G01*
X134462000Y-116080250D02*
X134462000Y-115567750D01*
G75*
G02*
X134680750Y-115349000I218750J0D01*
G01*
X135118250Y-115349000D01*
G75*
G02*
X135337000Y-115567750I0J-218750D01*
G01*
X135337000Y-116080250D01*
G75*
G02*
X135118250Y-116299000I-218750J0D01*
G01*
X134680750Y-116299000D01*
G75*
G02*
X134462000Y-116080250I0J218750D01*
G01*
G37*
%TD.AperFunction*%
%TD*%
%TO.P,D1,2*%
%TO.N,Net-(D1-Pad2)*%
%TA.AperFunction,SMDPad,CuDef*%
G36*
G01*
X153872250Y-101404000D02*
X152959750Y-101404000D01*
G75*
G02*
X152716000Y-101160250I0J243750D01*
G01*
X152716000Y-100672750D01*
G75*
G02*
X152959750Y-100429000I243750J0D01*
G01*
X153872250Y-100429000D01*
G75*
G02*
X154116000Y-100672750I0J-243750D01*
G01*
X154116000Y-101160250D01*
G75*
G02*
X153872250Y-101404000I-243750J0D01*
G01*
G37*
%TD.AperFunction*%
%TO.P,D1,1*%
%TO.N,RB_GND*%
%TA.AperFunction,SMDPad,CuDef*%
G36*
G01*
X153872250Y-103279000D02*
X152959750Y-103279000D01*
G75*
G02*
X152716000Y-103035250I0J243750D01*
G01*
X152716000Y-102547750D01*
G75*
G02*
X152959750Y-102304000I243750J0D01*
G01*
X153872250Y-102304000D01*
G75*
G02*
X154116000Y-102547750I0J-243750D01*
G01*
X154116000Y-103035250D01*
G75*
G02*
X153872250Y-103279000I-243750J0D01*
G01*
G37*
%TD.AperFunction*%
%TD*%
%TO.P,D2,1*%
%TO.N,RB_GND*%
%TA.AperFunction,SMDPad,CuDef*%
G36*
G01*
X174399000Y-124511750D02*
X174399000Y-125424250D01*
G75*
G02*
X174155250Y-125668000I-243750J0D01*
G01*
X173667750Y-125668000D01*
G75*
G02*
X173424000Y-125424250I0J243750D01*
G01*
X173424000Y-124511750D01*
G75*
G02*
X173667750Y-124268000I243750J0D01*
G01*
X174155250Y-124268000D01*
G75*
G02*
X174399000Y-124511750I0J-243750D01*
G01*
G37*
%TD.AperFunction*%
%TO.P,D2,2*%
%TO.N,Net-(D2-Pad2)*%
%TA.AperFunction,SMDPad,CuDef*%
G36*
G01*
X172524000Y-124511750D02*
X172524000Y-125424250D01*
G75*
G02*
X172280250Y-125668000I-243750J0D01*
G01*
X171792750Y-125668000D01*
G75*
G02*
X171549000Y-125424250I0J243750D01*
G01*
X171549000Y-124511750D01*
G75*
G02*
X171792750Y-124268000I243750J0D01*
G01*
X172280250Y-124268000D01*
G75*
G02*
X172524000Y-124511750I0J-243750D01*
G01*
G37*
%TD.AperFunction*%
%TD*%
%TO.P,D3,2*%
%TO.N,Net-(D3-Pad2)*%
%TA.AperFunction,SMDPad,CuDef*%
G36*
G01*
X172524000Y-126797750D02*
X172524000Y-127710250D01*
G75*
G02*
X172280250Y-127954000I-243750J0D01*
G01*
X171792750Y-127954000D01*
G75*
G02*
X171549000Y-127710250I0J243750D01*
G01*
X171549000Y-126797750D01*
G75*
G02*
X171792750Y-126554000I243750J0D01*
G01*
X172280250Y-126554000D01*
G75*
G02*
X172524000Y-126797750I0J-243750D01*
G01*
G37*
%TD.AperFunction*%
%TO.P,D3,1*%
%TO.N,RB_GND*%
%TA.AperFunction,SMDPad,CuDef*%
G36*
G01*
X174399000Y-126797750D02*
X174399000Y-127710250D01*
G75*
G02*
X174155250Y-127954000I-243750J0D01*
G01*
X173667750Y-127954000D01*
G75*
G02*
X173424000Y-127710250I0J243750D01*
G01*
X173424000Y-126797750D01*
G75*
G02*
X173667750Y-126554000I243750J0D01*
G01*
X174155250Y-126554000D01*
G75*
G02*
X174399000Y-126797750I0J-243750D01*
G01*
G37*
%TD.AperFunction*%
%TD*%
%TO.P,D4,1*%
%TO.N,RB_GND*%
%TA.AperFunction,SMDPad,CuDef*%
G36*
G01*
X132687000Y-113486250D02*
X132687000Y-112573750D01*
G75*
G02*
X132930750Y-112330000I243750J0D01*
G01*
X133418250Y-112330000D01*
G75*
G02*
X133662000Y-112573750I0J-243750D01*
G01*
X133662000Y-113486250D01*
G75*
G02*
X133418250Y-113730000I-243750J0D01*
G01*
X132930750Y-113730000D01*
G75*
G02*
X132687000Y-113486250I0J243750D01*
G01*
G37*
%TD.AperFunction*%
%TO.P,D4,2*%
%TO.N,Net-(D4-Pad2)*%
%TA.AperFunction,SMDPad,CuDef*%
G36*
G01*
X134562000Y-113486250D02*
X134562000Y-112573750D01*
G75*
G02*
X134805750Y-112330000I243750J0D01*
G01*
X135293250Y-112330000D01*
G75*
G02*
X135537000Y-112573750I0J-243750D01*
G01*
X135537000Y-113486250D01*
G75*
G02*
X135293250Y-113730000I-243750J0D01*
G01*
X134805750Y-113730000D01*
G75*
G02*
X134562000Y-113486250I0J243750D01*
G01*
G37*
%TD.AperFunction*%
%TD*%
%TO.P,F1,1*%
%TO.N,Net-(F1-Pad1)*%
%TA.AperFunction,SMDPad,CuDef*%
G36*
G01*
X138102001Y-96934000D02*
X135201999Y-96934000D01*
G75*
G02*
X134952000Y-96684001I0J249999D01*
G01*
X134952000Y-96058999D01*
G75*
G02*
X135201999Y-95809000I249999J0D01*
G01*
X138102001Y-95809000D01*
G75*
G02*
X138352000Y-96058999I0J-249999D01*
G01*
X138352000Y-96684001D01*
G75*
G02*
X138102001Y-96934000I-249999J0D01*
G01*
G37*
%TD.AperFunction*%
%TO.P,F1,2*%
%TO.N,Net-(C10-Pad1)*%
%TA.AperFunction,SMDPad,CuDef*%
G36*
G01*
X138102001Y-92659000D02*
X135201999Y-92659000D01*
G75*
G02*
X134952000Y-92409001I0J249999D01*
G01*
X134952000Y-91783999D01*
G75*
G02*
X135201999Y-91534000I249999J0D01*
G01*
X138102001Y-91534000D01*
G75*
G02*
X138352000Y-91783999I0J-249999D01*
G01*
X138352000Y-92409001D01*
G75*
G02*
X138102001Y-92659000I-249999J0D01*
G01*
G37*
%TD.AperFunction*%
%TD*%
D11*
%TO.P,FID1,*%
%TO.N,*%
X187198000Y-97028000D03*
%TD*%
%TO.P,FID2,*%
%TO.N,*%
X113538000Y-136906000D03*
%TD*%
D12*
%TO.P,J2,1*%
%TO.N,MISO*%
X157226000Y-106934000D03*
D13*
%TO.P,J2,2*%
%TO.N,SCK*%
X159766000Y-106934000D03*
%TO.P,J2,3*%
%TO.N,RESET*%
X157226000Y-109474000D03*
%TO.P,J2,4*%
%TO.N,RB_GND*%
X159766000Y-109474000D03*
%TO.P,J2,5*%
%TO.N,MOSI*%
X157226000Y-112014000D03*
%TO.P,J2,6*%
%TO.N,+3V3*%
X159766000Y-112014000D03*
%TD*%
%TO.P,J4,2*%
%TO.N,Net-(J3-Pad1)*%
X124714000Y-89408000D03*
D12*
%TO.P,J4,1*%
%TO.N,RB_GND*%
X122174000Y-89408000D03*
%TD*%
D14*
%TO.P,Q1,1*%
%TO.N,+3V3*%
X166640000Y-92268000D03*
%TO.P,Q1,2*%
%TO.N,RB_TXO_3V3*%
X166640000Y-94168000D03*
%TO.P,Q1,3*%
%TO.N,RB_TXO*%
X168640000Y-93218000D03*
%TD*%
%TO.P,Q2,3*%
%TO.N,RB_RXI*%
X168640000Y-101854000D03*
%TO.P,Q2,2*%
%TO.N,RB_RXI_3V3*%
X166640000Y-102804000D03*
%TO.P,Q2,1*%
%TO.N,+3V3*%
X166640000Y-100904000D03*
%TD*%
%TO.P,R1,2*%
%TO.N,RB_TXO_3V3*%
%TA.AperFunction,SMDPad,CuDef*%
G36*
G01*
X164589750Y-93568000D02*
X165102250Y-93568000D01*
G75*
G02*
X165321000Y-93786750I0J-218750D01*
G01*
X165321000Y-94224250D01*
G75*
G02*
X165102250Y-94443000I-218750J0D01*
G01*
X164589750Y-94443000D01*
G75*
G02*
X164371000Y-94224250I0J218750D01*
G01*
X164371000Y-93786750D01*
G75*
G02*
X164589750Y-93568000I218750J0D01*
G01*
G37*
%TD.AperFunction*%
%TO.P,R1,1*%
%TO.N,+3V3*%
%TA.AperFunction,SMDPad,CuDef*%
G36*
G01*
X164589750Y-91993000D02*
X165102250Y-91993000D01*
G75*
G02*
X165321000Y-92211750I0J-218750D01*
G01*
X165321000Y-92649250D01*
G75*
G02*
X165102250Y-92868000I-218750J0D01*
G01*
X164589750Y-92868000D01*
G75*
G02*
X164371000Y-92649250I0J218750D01*
G01*
X164371000Y-92211750D01*
G75*
G02*
X164589750Y-91993000I218750J0D01*
G01*
G37*
%TD.AperFunction*%
%TD*%
%TO.P,R2,1*%
%TO.N,RB_5V*%
%TA.AperFunction,SMDPad,CuDef*%
G36*
G01*
X170690250Y-94443000D02*
X170177750Y-94443000D01*
G75*
G02*
X169959000Y-94224250I0J218750D01*
G01*
X169959000Y-93786750D01*
G75*
G02*
X170177750Y-93568000I218750J0D01*
G01*
X170690250Y-93568000D01*
G75*
G02*
X170909000Y-93786750I0J-218750D01*
G01*
X170909000Y-94224250D01*
G75*
G02*
X170690250Y-94443000I-218750J0D01*
G01*
G37*
%TD.AperFunction*%
%TO.P,R2,2*%
%TO.N,RB_TXO*%
%TA.AperFunction,SMDPad,CuDef*%
G36*
G01*
X170690250Y-92868000D02*
X170177750Y-92868000D01*
G75*
G02*
X169959000Y-92649250I0J218750D01*
G01*
X169959000Y-92211750D01*
G75*
G02*
X170177750Y-91993000I218750J0D01*
G01*
X170690250Y-91993000D01*
G75*
G02*
X170909000Y-92211750I0J-218750D01*
G01*
X170909000Y-92649250D01*
G75*
G02*
X170690250Y-92868000I-218750J0D01*
G01*
G37*
%TD.AperFunction*%
%TD*%
%TO.P,R3,2*%
%TO.N,RB_RXI_3V3*%
%TA.AperFunction,SMDPad,CuDef*%
G36*
G01*
X164589750Y-102204000D02*
X165102250Y-102204000D01*
G75*
G02*
X165321000Y-102422750I0J-218750D01*
G01*
X165321000Y-102860250D01*
G75*
G02*
X165102250Y-103079000I-218750J0D01*
G01*
X164589750Y-103079000D01*
G75*
G02*
X164371000Y-102860250I0J218750D01*
G01*
X164371000Y-102422750D01*
G75*
G02*
X164589750Y-102204000I218750J0D01*
G01*
G37*
%TD.AperFunction*%
%TO.P,R3,1*%
%TO.N,+3V3*%
%TA.AperFunction,SMDPad,CuDef*%
G36*
G01*
X164589750Y-100629000D02*
X165102250Y-100629000D01*
G75*
G02*
X165321000Y-100847750I0J-218750D01*
G01*
X165321000Y-101285250D01*
G75*
G02*
X165102250Y-101504000I-218750J0D01*
G01*
X164589750Y-101504000D01*
G75*
G02*
X164371000Y-101285250I0J218750D01*
G01*
X164371000Y-100847750D01*
G75*
G02*
X164589750Y-100629000I218750J0D01*
G01*
G37*
%TD.AperFunction*%
%TD*%
%TO.P,R4,1*%
%TO.N,RB_5V*%
%TA.AperFunction,SMDPad,CuDef*%
G36*
G01*
X170690250Y-103079000D02*
X170177750Y-103079000D01*
G75*
G02*
X169959000Y-102860250I0J218750D01*
G01*
X169959000Y-102422750D01*
G75*
G02*
X170177750Y-102204000I218750J0D01*
G01*
X170690250Y-102204000D01*
G75*
G02*
X170909000Y-102422750I0J-218750D01*
G01*
X170909000Y-102860250D01*
G75*
G02*
X170690250Y-103079000I-218750J0D01*
G01*
G37*
%TD.AperFunction*%
%TO.P,R4,2*%
%TO.N,RB_RXI*%
%TA.AperFunction,SMDPad,CuDef*%
G36*
G01*
X170690250Y-101504000D02*
X170177750Y-101504000D01*
G75*
G02*
X169959000Y-101285250I0J218750D01*
G01*
X169959000Y-100847750D01*
G75*
G02*
X170177750Y-100629000I218750J0D01*
G01*
X170690250Y-100629000D01*
G75*
G02*
X170909000Y-100847750I0J-218750D01*
G01*
X170909000Y-101285250D01*
G75*
G02*
X170690250Y-101504000I-218750J0D01*
G01*
G37*
%TD.AperFunction*%
%TD*%
%TO.P,R5,1*%
%TO.N,+3V3*%
%TA.AperFunction,SMDPad,CuDef*%
G36*
G01*
X137967000Y-109730250D02*
X137967000Y-109217750D01*
G75*
G02*
X138185750Y-108999000I218750J0D01*
G01*
X138623250Y-108999000D01*
G75*
G02*
X138842000Y-109217750I0J-218750D01*
G01*
X138842000Y-109730250D01*
G75*
G02*
X138623250Y-109949000I-218750J0D01*
G01*
X138185750Y-109949000D01*
G75*
G02*
X137967000Y-109730250I0J218750D01*
G01*
G37*
%TD.AperFunction*%
%TO.P,R5,2*%
%TO.N,RESET*%
%TA.AperFunction,SMDPad,CuDef*%
G36*
G01*
X139542000Y-109730250D02*
X139542000Y-109217750D01*
G75*
G02*
X139760750Y-108999000I218750J0D01*
G01*
X140198250Y-108999000D01*
G75*
G02*
X140417000Y-109217750I0J-218750D01*
G01*
X140417000Y-109730250D01*
G75*
G02*
X140198250Y-109949000I-218750J0D01*
G01*
X139760750Y-109949000D01*
G75*
G02*
X139542000Y-109730250I0J218750D01*
G01*
G37*
%TD.AperFunction*%
%TD*%
%TO.P,R6,2*%
%TO.N,Net-(D1-Pad2)*%
%TA.AperFunction,SMDPad,CuDef*%
G36*
G01*
X151132250Y-101504000D02*
X150619750Y-101504000D01*
G75*
G02*
X150401000Y-101285250I0J218750D01*
G01*
X150401000Y-100847750D01*
G75*
G02*
X150619750Y-100629000I218750J0D01*
G01*
X151132250Y-100629000D01*
G75*
G02*
X151351000Y-100847750I0J-218750D01*
G01*
X151351000Y-101285250D01*
G75*
G02*
X151132250Y-101504000I-218750J0D01*
G01*
G37*
%TD.AperFunction*%
%TO.P,R6,1*%
%TO.N,SCK*%
%TA.AperFunction,SMDPad,CuDef*%
G36*
G01*
X151132250Y-103079000D02*
X150619750Y-103079000D01*
G75*
G02*
X150401000Y-102860250I0J218750D01*
G01*
X150401000Y-102422750D01*
G75*
G02*
X150619750Y-102204000I218750J0D01*
G01*
X151132250Y-102204000D01*
G75*
G02*
X151351000Y-102422750I0J-218750D01*
G01*
X151351000Y-102860250D01*
G75*
G02*
X151132250Y-103079000I-218750J0D01*
G01*
G37*
%TD.AperFunction*%
%TD*%
%TO.P,R7,1*%
%TO.N,Net-(C8-Pad2)*%
%TA.AperFunction,SMDPad,CuDef*%
G36*
G01*
X181909000Y-130812250D02*
X181909000Y-130299750D01*
G75*
G02*
X182127750Y-130081000I218750J0D01*
G01*
X182565250Y-130081000D01*
G75*
G02*
X182784000Y-130299750I0J-218750D01*
G01*
X182784000Y-130812250D01*
G75*
G02*
X182565250Y-131031000I-218750J0D01*
G01*
X182127750Y-131031000D01*
G75*
G02*
X181909000Y-130812250I0J218750D01*
G01*
G37*
%TD.AperFunction*%
%TO.P,R7,2*%
%TO.N,Net-(R7-Pad2)*%
%TA.AperFunction,SMDPad,CuDef*%
G36*
G01*
X183484000Y-130812250D02*
X183484000Y-130299750D01*
G75*
G02*
X183702750Y-130081000I218750J0D01*
G01*
X184140250Y-130081000D01*
G75*
G02*
X184359000Y-130299750I0J-218750D01*
G01*
X184359000Y-130812250D01*
G75*
G02*
X184140250Y-131031000I-218750J0D01*
G01*
X183702750Y-131031000D01*
G75*
G02*
X183484000Y-130812250I0J218750D01*
G01*
G37*
%TD.AperFunction*%
%TD*%
%TO.P,R8,2*%
%TO.N,Net-(D2-Pad2)*%
%TA.AperFunction,SMDPad,CuDef*%
G36*
G01*
X169260000Y-125224250D02*
X169260000Y-124711750D01*
G75*
G02*
X169478750Y-124493000I218750J0D01*
G01*
X169916250Y-124493000D01*
G75*
G02*
X170135000Y-124711750I0J-218750D01*
G01*
X170135000Y-125224250D01*
G75*
G02*
X169916250Y-125443000I-218750J0D01*
G01*
X169478750Y-125443000D01*
G75*
G02*
X169260000Y-125224250I0J218750D01*
G01*
G37*
%TD.AperFunction*%
%TO.P,R8,1*%
%TO.N,Net-(R8-Pad1)*%
%TA.AperFunction,SMDPad,CuDef*%
G36*
G01*
X167685000Y-125224250D02*
X167685000Y-124711750D01*
G75*
G02*
X167903750Y-124493000I218750J0D01*
G01*
X168341250Y-124493000D01*
G75*
G02*
X168560000Y-124711750I0J-218750D01*
G01*
X168560000Y-125224250D01*
G75*
G02*
X168341250Y-125443000I-218750J0D01*
G01*
X167903750Y-125443000D01*
G75*
G02*
X167685000Y-125224250I0J218750D01*
G01*
G37*
%TD.AperFunction*%
%TD*%
%TO.P,R9,1*%
%TO.N,Net-(R9-Pad1)*%
%TA.AperFunction,SMDPad,CuDef*%
G36*
G01*
X167685000Y-127510250D02*
X167685000Y-126997750D01*
G75*
G02*
X167903750Y-126779000I218750J0D01*
G01*
X168341250Y-126779000D01*
G75*
G02*
X168560000Y-126997750I0J-218750D01*
G01*
X168560000Y-127510250D01*
G75*
G02*
X168341250Y-127729000I-218750J0D01*
G01*
X167903750Y-127729000D01*
G75*
G02*
X167685000Y-127510250I0J218750D01*
G01*
G37*
%TD.AperFunction*%
%TO.P,R9,2*%
%TO.N,Net-(D3-Pad2)*%
%TA.AperFunction,SMDPad,CuDef*%
G36*
G01*
X169260000Y-127510250D02*
X169260000Y-126997750D01*
G75*
G02*
X169478750Y-126779000I218750J0D01*
G01*
X169916250Y-126779000D01*
G75*
G02*
X170135000Y-126997750I0J-218750D01*
G01*
X170135000Y-127510250D01*
G75*
G02*
X169916250Y-127729000I-218750J0D01*
G01*
X169478750Y-127729000D01*
G75*
G02*
X169260000Y-127510250I0J218750D01*
G01*
G37*
%TD.AperFunction*%
%TD*%
%TO.P,R10,2*%
%TO.N,Net-(R10-Pad2)*%
%TA.AperFunction,SMDPad,CuDef*%
G36*
G01*
X139542000Y-111508250D02*
X139542000Y-110995750D01*
G75*
G02*
X139760750Y-110777000I218750J0D01*
G01*
X140198250Y-110777000D01*
G75*
G02*
X140417000Y-110995750I0J-218750D01*
G01*
X140417000Y-111508250D01*
G75*
G02*
X140198250Y-111727000I-218750J0D01*
G01*
X139760750Y-111727000D01*
G75*
G02*
X139542000Y-111508250I0J218750D01*
G01*
G37*
%TD.AperFunction*%
%TO.P,R10,1*%
%TO.N,RB_TXO_3V3*%
%TA.AperFunction,SMDPad,CuDef*%
G36*
G01*
X137967000Y-111508250D02*
X137967000Y-110995750D01*
G75*
G02*
X138185750Y-110777000I218750J0D01*
G01*
X138623250Y-110777000D01*
G75*
G02*
X138842000Y-110995750I0J-218750D01*
G01*
X138842000Y-111508250D01*
G75*
G02*
X138623250Y-111727000I-218750J0D01*
G01*
X138185750Y-111727000D01*
G75*
G02*
X137967000Y-111508250I0J218750D01*
G01*
G37*
%TD.AperFunction*%
%TD*%
%TO.P,R11,2*%
%TO.N,Net-(R11-Pad2)*%
%TA.AperFunction,SMDPad,CuDef*%
G36*
G01*
X139542000Y-113286250D02*
X139542000Y-112773750D01*
G75*
G02*
X139760750Y-112555000I218750J0D01*
G01*
X140198250Y-112555000D01*
G75*
G02*
X140417000Y-112773750I0J-218750D01*
G01*
X140417000Y-113286250D01*
G75*
G02*
X140198250Y-113505000I-218750J0D01*
G01*
X139760750Y-113505000D01*
G75*
G02*
X139542000Y-113286250I0J218750D01*
G01*
G37*
%TD.AperFunction*%
%TO.P,R11,1*%
%TO.N,RB_RXI_3V3*%
%TA.AperFunction,SMDPad,CuDef*%
G36*
G01*
X137967000Y-113286250D02*
X137967000Y-112773750D01*
G75*
G02*
X138185750Y-112555000I218750J0D01*
G01*
X138623250Y-112555000D01*
G75*
G02*
X138842000Y-112773750I0J-218750D01*
G01*
X138842000Y-113286250D01*
G75*
G02*
X138623250Y-113505000I-218750J0D01*
G01*
X138185750Y-113505000D01*
G75*
G02*
X137967000Y-113286250I0J218750D01*
G01*
G37*
%TD.AperFunction*%
%TD*%
%TO.P,R12,1*%
%TO.N,GPS_RX*%
%TA.AperFunction,SMDPad,CuDef*%
G36*
G01*
X120652250Y-125177000D02*
X120139750Y-125177000D01*
G75*
G02*
X119921000Y-124958250I0J218750D01*
G01*
X119921000Y-124520750D01*
G75*
G02*
X120139750Y-124302000I218750J0D01*
G01*
X120652250Y-124302000D01*
G75*
G02*
X120871000Y-124520750I0J-218750D01*
G01*
X120871000Y-124958250D01*
G75*
G02*
X120652250Y-125177000I-218750J0D01*
G01*
G37*
%TD.AperFunction*%
%TO.P,R12,2*%
%TO.N,Net-(R12-Pad2)*%
%TA.AperFunction,SMDPad,CuDef*%
G36*
G01*
X120652250Y-123602000D02*
X120139750Y-123602000D01*
G75*
G02*
X119921000Y-123383250I0J218750D01*
G01*
X119921000Y-122945750D01*
G75*
G02*
X120139750Y-122727000I218750J0D01*
G01*
X120652250Y-122727000D01*
G75*
G02*
X120871000Y-122945750I0J-218750D01*
G01*
X120871000Y-123383250D01*
G75*
G02*
X120652250Y-123602000I-218750J0D01*
G01*
G37*
%TD.AperFunction*%
%TD*%
%TO.P,R13,2*%
%TO.N,Net-(R13-Pad2)*%
%TA.AperFunction,SMDPad,CuDef*%
G36*
G01*
X122430250Y-123602000D02*
X121917750Y-123602000D01*
G75*
G02*
X121699000Y-123383250I0J218750D01*
G01*
X121699000Y-122945750D01*
G75*
G02*
X121917750Y-122727000I218750J0D01*
G01*
X122430250Y-122727000D01*
G75*
G02*
X122649000Y-122945750I0J-218750D01*
G01*
X122649000Y-123383250D01*
G75*
G02*
X122430250Y-123602000I-218750J0D01*
G01*
G37*
%TD.AperFunction*%
%TO.P,R13,1*%
%TO.N,GPS_TX*%
%TA.AperFunction,SMDPad,CuDef*%
G36*
G01*
X122430250Y-125177000D02*
X121917750Y-125177000D01*
G75*
G02*
X121699000Y-124958250I0J218750D01*
G01*
X121699000Y-124520750D01*
G75*
G02*
X121917750Y-124302000I218750J0D01*
G01*
X122430250Y-124302000D01*
G75*
G02*
X122649000Y-124520750I0J-218750D01*
G01*
X122649000Y-124958250D01*
G75*
G02*
X122430250Y-125177000I-218750J0D01*
G01*
G37*
%TD.AperFunction*%
%TD*%
%TO.P,R14,1*%
%TO.N,XBee_to_Uc*%
%TA.AperFunction,SMDPad,CuDef*%
G36*
G01*
X167685000Y-133098250D02*
X167685000Y-132585750D01*
G75*
G02*
X167903750Y-132367000I218750J0D01*
G01*
X168341250Y-132367000D01*
G75*
G02*
X168560000Y-132585750I0J-218750D01*
G01*
X168560000Y-133098250D01*
G75*
G02*
X168341250Y-133317000I-218750J0D01*
G01*
X167903750Y-133317000D01*
G75*
G02*
X167685000Y-133098250I0J218750D01*
G01*
G37*
%TD.AperFunction*%
%TO.P,R14,2*%
%TO.N,Net-(R14-Pad2)*%
%TA.AperFunction,SMDPad,CuDef*%
G36*
G01*
X169260000Y-133098250D02*
X169260000Y-132585750D01*
G75*
G02*
X169478750Y-132367000I218750J0D01*
G01*
X169916250Y-132367000D01*
G75*
G02*
X170135000Y-132585750I0J-218750D01*
G01*
X170135000Y-133098250D01*
G75*
G02*
X169916250Y-133317000I-218750J0D01*
G01*
X169478750Y-133317000D01*
G75*
G02*
X169260000Y-133098250I0J218750D01*
G01*
G37*
%TD.AperFunction*%
%TD*%
%TO.P,R15,1*%
%TO.N,XBee_from_Uc*%
%TA.AperFunction,SMDPad,CuDef*%
G36*
G01*
X167685000Y-131066250D02*
X167685000Y-130553750D01*
G75*
G02*
X167903750Y-130335000I218750J0D01*
G01*
X168341250Y-130335000D01*
G75*
G02*
X168560000Y-130553750I0J-218750D01*
G01*
X168560000Y-131066250D01*
G75*
G02*
X168341250Y-131285000I-218750J0D01*
G01*
X167903750Y-131285000D01*
G75*
G02*
X167685000Y-131066250I0J218750D01*
G01*
G37*
%TD.AperFunction*%
%TO.P,R15,2*%
%TO.N,Net-(R15-Pad2)*%
%TA.AperFunction,SMDPad,CuDef*%
G36*
G01*
X169260000Y-131066250D02*
X169260000Y-130553750D01*
G75*
G02*
X169478750Y-130335000I218750J0D01*
G01*
X169916250Y-130335000D01*
G75*
G02*
X170135000Y-130553750I0J-218750D01*
G01*
X170135000Y-131066250D01*
G75*
G02*
X169916250Y-131285000I-218750J0D01*
G01*
X169478750Y-131285000D01*
G75*
G02*
X169260000Y-131066250I0J218750D01*
G01*
G37*
%TD.AperFunction*%
%TD*%
%TO.P,R16,1*%
%TO.N,+3V3*%
%TA.AperFunction,SMDPad,CuDef*%
G36*
G01*
X138131000Y-135633750D02*
X138131000Y-136146250D01*
G75*
G02*
X137912250Y-136365000I-218750J0D01*
G01*
X137474750Y-136365000D01*
G75*
G02*
X137256000Y-136146250I0J218750D01*
G01*
X137256000Y-135633750D01*
G75*
G02*
X137474750Y-135415000I218750J0D01*
G01*
X137912250Y-135415000D01*
G75*
G02*
X138131000Y-135633750I0J-218750D01*
G01*
G37*
%TD.AperFunction*%
%TO.P,R16,2*%
%TO.N,GPS_PPS*%
%TA.AperFunction,SMDPad,CuDef*%
G36*
G01*
X136556000Y-135633750D02*
X136556000Y-136146250D01*
G75*
G02*
X136337250Y-136365000I-218750J0D01*
G01*
X135899750Y-136365000D01*
G75*
G02*
X135681000Y-136146250I0J218750D01*
G01*
X135681000Y-135633750D01*
G75*
G02*
X135899750Y-135415000I218750J0D01*
G01*
X136337250Y-135415000D01*
G75*
G02*
X136556000Y-135633750I0J-218750D01*
G01*
G37*
%TD.AperFunction*%
%TD*%
%TO.P,R17,1*%
%TO.N,+3V3*%
%TA.AperFunction,SMDPad,CuDef*%
G36*
G01*
X132887000Y-111000250D02*
X132887000Y-110487750D01*
G75*
G02*
X133105750Y-110269000I218750J0D01*
G01*
X133543250Y-110269000D01*
G75*
G02*
X133762000Y-110487750I0J-218750D01*
G01*
X133762000Y-111000250D01*
G75*
G02*
X133543250Y-111219000I-218750J0D01*
G01*
X133105750Y-111219000D01*
G75*
G02*
X132887000Y-111000250I0J218750D01*
G01*
G37*
%TD.AperFunction*%
%TO.P,R17,2*%
%TO.N,Net-(D4-Pad2)*%
%TA.AperFunction,SMDPad,CuDef*%
G36*
G01*
X134462000Y-111000250D02*
X134462000Y-110487750D01*
G75*
G02*
X134680750Y-110269000I218750J0D01*
G01*
X135118250Y-110269000D01*
G75*
G02*
X135337000Y-110487750I0J-218750D01*
G01*
X135337000Y-111000250D01*
G75*
G02*
X135118250Y-111219000I-218750J0D01*
G01*
X134680750Y-111219000D01*
G75*
G02*
X134462000Y-111000250I0J218750D01*
G01*
G37*
%TD.AperFunction*%
%TD*%
%TO.P,R18,2*%
%TO.N,RB_NetAv*%
%TA.AperFunction,SMDPad,CuDef*%
G36*
G01*
X169260000Y-98046250D02*
X169260000Y-97533750D01*
G75*
G02*
X169478750Y-97315000I218750J0D01*
G01*
X169916250Y-97315000D01*
G75*
G02*
X170135000Y-97533750I0J-218750D01*
G01*
X170135000Y-98046250D01*
G75*
G02*
X169916250Y-98265000I-218750J0D01*
G01*
X169478750Y-98265000D01*
G75*
G02*
X169260000Y-98046250I0J218750D01*
G01*
G37*
%TD.AperFunction*%
%TO.P,R18,1*%
%TO.N,+3V3*%
%TA.AperFunction,SMDPad,CuDef*%
G36*
G01*
X167685000Y-98046250D02*
X167685000Y-97533750D01*
G75*
G02*
X167903750Y-97315000I218750J0D01*
G01*
X168341250Y-97315000D01*
G75*
G02*
X168560000Y-97533750I0J-218750D01*
G01*
X168560000Y-98046250D01*
G75*
G02*
X168341250Y-98265000I-218750J0D01*
G01*
X167903750Y-98265000D01*
G75*
G02*
X167685000Y-98046250I0J218750D01*
G01*
G37*
%TD.AperFunction*%
%TD*%
D15*
%TO.P,SW1,1*%
%TO.N,Net-(J3-Pad1)*%
X127688000Y-104422000D03*
D16*
%TO.P,SW1,2*%
%TO.N,Net-(C10-Pad1)*%
X127688000Y-99822000D03*
%TD*%
D17*
%TO.P,U1,1*%
%TO.N,+3V3*%
X164768000Y-134874000D03*
D18*
%TO.P,U1,20*%
%TO.N,N/C*%
X186768000Y-134874000D03*
%TO.P,U1,2*%
%TO.N,XBee_to_Uc*%
X164768000Y-132874000D03*
%TO.P,U1,19*%
%TO.N,N/C*%
X186768000Y-132874000D03*
%TO.P,U1,3*%
%TO.N,XBee_from_Uc*%
X164768000Y-130874000D03*
%TO.P,U1,18*%
%TO.N,N/C*%
X186768000Y-130874000D03*
%TO.P,U1,4*%
X164768000Y-128874000D03*
%TO.P,U1,17*%
%TO.N,Net-(R7-Pad2)*%
X186768000Y-128874000D03*
%TO.P,U1,5*%
%TO.N,N/C*%
X164768000Y-126874000D03*
%TO.P,U1,16*%
X186768000Y-126874000D03*
%TO.P,U1,6*%
%TO.N,Net-(R8-Pad1)*%
X164768000Y-124874000D03*
%TO.P,U1,15*%
%TO.N,Net-(R9-Pad1)*%
X186768000Y-124874000D03*
%TO.P,U1,7*%
%TO.N,N/C*%
X164768000Y-122874000D03*
%TO.P,U1,14*%
X186768000Y-122874000D03*
%TO.P,U1,8*%
X164768000Y-120874000D03*
%TO.P,U1,13*%
X186768000Y-120874000D03*
%TO.P,U1,9*%
X164768000Y-118874000D03*
%TO.P,U1,12*%
X186768000Y-118874000D03*
%TO.P,U1,10*%
%TO.N,RB_GND*%
X164768000Y-116874000D03*
%TO.P,U1,11*%
%TO.N,N/C*%
X186768000Y-116874000D03*
%TD*%
D19*
%TO.P,U2,1*%
%TO.N,Net-(R13-Pad2)*%
X144012000Y-113470000D03*
%TO.P,U2,2*%
%TO.N,Net-(R14-Pad2)*%
X144812000Y-113470000D03*
%TO.P,U2,3*%
%TO.N,RB_GND*%
X145612000Y-113470000D03*
%TO.P,U2,4*%
%TO.N,+3V3*%
X146412000Y-113470000D03*
%TO.P,U2,5*%
%TO.N,RB_GND*%
X147212000Y-113470000D03*
%TO.P,U2,6*%
%TO.N,+3V3*%
X148012000Y-113470000D03*
%TO.P,U2,7*%
%TO.N,Net-(U2-Pad7)*%
X148812000Y-113470000D03*
%TO.P,U2,8*%
%TO.N,Net-(U2-Pad8)*%
X149612000Y-113470000D03*
D20*
%TO.P,U2,9*%
%TO.N,Net-(R15-Pad2)*%
X151062000Y-112020000D03*
%TO.P,U2,10*%
%TO.N,GPS_PPS*%
X151062000Y-111220000D03*
%TO.P,U2,11*%
%TO.N,RB_NetAv*%
X151062000Y-110420000D03*
%TO.P,U2,12*%
%TO.N,N/C*%
X151062000Y-109620000D03*
%TO.P,U2,13*%
X151062000Y-108820000D03*
%TO.P,U2,14*%
X151062000Y-108020000D03*
%TO.P,U2,15*%
%TO.N,MOSI*%
X151062000Y-107220000D03*
%TO.P,U2,16*%
%TO.N,MISO*%
X151062000Y-106420000D03*
D19*
%TO.P,U2,17*%
%TO.N,SCK*%
X149612000Y-104970000D03*
%TO.P,U2,18*%
%TO.N,+3V3*%
X148812000Y-104970000D03*
%TO.P,U2,19*%
%TO.N,N/C*%
X148012000Y-104970000D03*
%TO.P,U2,20*%
%TO.N,Net-(C6-Pad1)*%
X147212000Y-104970000D03*
%TO.P,U2,21*%
%TO.N,RB_GND*%
X146412000Y-104970000D03*
%TO.P,U2,22*%
%TO.N,N/C*%
X145612000Y-104970000D03*
%TO.P,U2,23*%
X144812000Y-104970000D03*
%TO.P,U2,24*%
X144012000Y-104970000D03*
D20*
%TO.P,U2,25*%
X142562000Y-106420000D03*
%TO.P,U2,26*%
X142562000Y-107220000D03*
%TO.P,U2,27*%
X142562000Y-108020000D03*
%TO.P,U2,28*%
X142562000Y-108820000D03*
%TO.P,U2,29*%
%TO.N,RESET*%
X142562000Y-109620000D03*
%TO.P,U2,30*%
%TO.N,Net-(R10-Pad2)*%
X142562000Y-110420000D03*
%TO.P,U2,31*%
%TO.N,Net-(R11-Pad2)*%
X142562000Y-111220000D03*
%TO.P,U2,32*%
%TO.N,Net-(R12-Pad2)*%
X142562000Y-112020000D03*
%TD*%
D21*
%TO.P,U3,3*%
%TO.N,RB_5V*%
X127762000Y-118364000D03*
%TO.P,U3,2*%
%TO.N,RB_GND*%
X127762000Y-115824000D03*
%TO.P,U3,1*%
%TO.N,Net-(F1-Pad1)*%
X127762000Y-113284000D03*
%TD*%
D22*
%TO.P,U5,1*%
%TO.N,RB_GND*%
X123200000Y-140712000D03*
%TO.P,U5,2*%
%TO.N,+3V3*%
X125100000Y-140712000D03*
%TO.P,U5,3*%
%TO.N,Net-(BT1-Pad1)*%
X127000000Y-140712000D03*
%TO.P,U5,4*%
%TO.N,RB_GND*%
X128900000Y-140712000D03*
%TO.P,U5,5*%
X130800000Y-140712000D03*
D23*
%TO.P,U5,6*%
X133600000Y-137912000D03*
%TO.P,U5,7*%
%TO.N,GPS_PPS*%
X133600000Y-136012000D03*
%TO.P,U5,8*%
%TO.N,N/C*%
X133600000Y-134112000D03*
%TO.P,U5,9*%
X133600000Y-132212000D03*
%TO.P,U5,10*%
%TO.N,RB_GND*%
X133600000Y-130312000D03*
D22*
%TO.P,U5,11*%
X130800000Y-127512000D03*
%TO.P,U5,12*%
%TO.N,N/C*%
X128900000Y-127512000D03*
%TO.P,U5,13*%
%TO.N,GPS_TX*%
X127000000Y-127512000D03*
%TO.P,U5,14*%
%TO.N,GPS_RX*%
X125100000Y-127512000D03*
%TO.P,U5,15*%
%TO.N,RB_GND*%
X123200000Y-127512000D03*
D23*
%TO.P,U5,16*%
X120400000Y-130312000D03*
%TO.P,U5,17*%
%TO.N,+3V3*%
X120400000Y-132212000D03*
%TO.P,U5,18*%
%TO.N,N/C*%
X120400000Y-134112000D03*
%TO.P,U5,19*%
X120400000Y-136012000D03*
%TO.P,U5,20*%
%TO.N,RB_GND*%
X120400000Y-137912000D03*
%TD*%
D24*
%TO.P,U6,1*%
%TO.N,RB_5V*%
X133162000Y-122258000D03*
%TO.P,U6,2*%
%TO.N,RB_GND*%
X134112000Y-122258000D03*
%TO.P,U6,3*%
%TO.N,RB_5V*%
X135062000Y-122258000D03*
%TO.P,U6,4*%
%TO.N,N/C*%
X135062000Y-120058000D03*
%TO.P,U6,5*%
%TO.N,+3V3*%
X133162000Y-120058000D03*
%TD*%
D25*
%TO.P,Y1,1*%
%TO.N,Net-(U2-Pad7)*%
X150876000Y-118294000D03*
%TO.P,Y1,2*%
%TO.N,RB_GND*%
X150876000Y-117094000D03*
%TO.P,Y1,3*%
%TO.N,Net-(U2-Pad8)*%
X150876000Y-115894000D03*
%TD*%
D26*
%TO.N,RB_GND*%
X146812000Y-99822000D03*
X148844000Y-99822000D03*
X153416000Y-104140000D03*
X132080000Y-113030000D03*
X137160000Y-118872000D03*
X136144000Y-117856000D03*
X136144000Y-115824000D03*
X130810000Y-125476000D03*
X135636000Y-130302000D03*
X118618000Y-130302000D03*
X118618000Y-137668000D03*
X122174000Y-143256000D03*
X130048000Y-143256000D03*
X135636000Y-137922000D03*
X175260000Y-124968000D03*
X167640000Y-142240000D03*
X173228000Y-104394000D03*
X145034000Y-117348000D03*
X152654000Y-117094000D03*
X146304000Y-106680000D03*
X147574000Y-124206000D03*
X145542000Y-111760000D03*
X147066000Y-111760000D03*
X134112000Y-123698000D03*
X134620000Y-90170000D03*
X129032000Y-142748000D03*
X120623118Y-125756882D03*
%TO.N,+3V3*%
X137160000Y-109474000D03*
X132334000Y-110744000D03*
X118618000Y-132080000D03*
X134112000Y-143256000D03*
X126238000Y-143256000D03*
X137668000Y-134620000D03*
X164846000Y-91186000D03*
X166878000Y-97790000D03*
X164846000Y-99822000D03*
X145034000Y-115824000D03*
X149098000Y-115824000D03*
X132080000Y-115824000D03*
X132080000Y-117856000D03*
X147828000Y-102870000D03*
%TO.N,RESET*%
X152400000Y-109474000D03*
X139954000Y-108204000D03*
X183896000Y-110744000D03*
X183896000Y-133858000D03*
%TO.N,RB_5V*%
X171704000Y-101854000D03*
X137160000Y-123444000D03*
X162052000Y-121666000D03*
X162052000Y-104394000D03*
%TO.N,RB_RXI*%
X171704000Y-99314000D03*
%TO.N,RB_NetAv*%
X171450000Y-97790000D03*
X152654000Y-110490000D03*
X152908000Y-99314000D03*
%TO.N,RB_TXO*%
X171704000Y-92710000D03*
%TO.N,MOSI*%
X153670000Y-107188000D03*
X153670000Y-112014000D03*
%TO.N,RB_TXO_3V3*%
X139446000Y-94234000D03*
X137160000Y-111252000D03*
%TO.N,RB_RXI_3V3*%
X163576000Y-102616000D03*
X163576000Y-98806000D03*
X136398000Y-98552000D03*
X136398000Y-113030000D03*
%TO.N,Net-(R12-Pad2)*%
X120396000Y-121920000D03*
X120396000Y-114300000D03*
%TO.N,Net-(R13-Pad2)*%
X122174000Y-121920000D03*
X122174000Y-114858800D03*
%TO.N,Net-(R14-Pad2)*%
X144780000Y-134112000D03*
X144272000Y-115570000D03*
%TO.N,Net-(R15-Pad2)*%
X153466800Y-113030000D03*
X153924000Y-131826000D03*
%TO.N,GPS_PPS*%
X152908000Y-133350000D03*
X152908000Y-111252000D03*
%TD*%
D27*
%TO.N,Net-(BT1-Pad1)*%
X127000000Y-141916800D02*
X127000000Y-140712000D01*
X129119010Y-144035810D02*
X127000000Y-141916800D01*
X149860000Y-143625800D02*
X149449990Y-144035810D01*
X149860000Y-141071000D02*
X149860000Y-143625800D01*
X149449990Y-144035810D02*
X129119010Y-144035810D01*
%TO.N,RB_GND*%
X146812000Y-101066500D02*
X146812000Y-99822000D01*
X148844000Y-101066500D02*
X148844000Y-99822000D01*
X153416000Y-102791500D02*
X153416000Y-104140000D01*
X133174500Y-113030000D02*
X132080000Y-113030000D01*
X137160000Y-120220500D02*
X137160000Y-118872000D01*
X135049500Y-117856000D02*
X136144000Y-117856000D01*
X134899500Y-115824000D02*
X136144000Y-115824000D01*
X130800000Y-125486000D02*
X130810000Y-125476000D01*
X130800000Y-127512000D02*
X130800000Y-125486000D01*
X135626000Y-130312000D02*
X135636000Y-130302000D01*
X133600000Y-130312000D02*
X135626000Y-130312000D01*
X118628000Y-130312000D02*
X118618000Y-130302000D01*
X120400000Y-130312000D02*
X118628000Y-130312000D01*
X118862000Y-137912000D02*
X118618000Y-137668000D01*
X120400000Y-137912000D02*
X118862000Y-137912000D01*
X123200000Y-143037500D02*
X123418500Y-143256000D01*
X123200000Y-140712000D02*
X123200000Y-143037500D01*
X123418500Y-143256000D02*
X122174000Y-143256000D01*
X130800000Y-142763500D02*
X131292500Y-143256000D01*
X130800000Y-140712000D02*
X130800000Y-142763500D01*
X131292500Y-143256000D02*
X130048000Y-143256000D01*
X135626000Y-137912000D02*
X135636000Y-137922000D01*
X133600000Y-137912000D02*
X135626000Y-137912000D01*
X173911500Y-127254000D02*
X173911500Y-124968000D01*
X173911500Y-124968000D02*
X175260000Y-124968000D01*
D28*
X166545500Y-140312000D02*
X166395500Y-140462000D01*
X166545500Y-138430000D02*
X166545500Y-140312000D01*
X166395500Y-140462000D02*
X166395500Y-142240000D01*
X166395500Y-142240000D02*
X167640000Y-142240000D01*
D27*
X148082000Y-117373500D02*
X146304000Y-117373500D01*
X145059500Y-117373500D02*
X145034000Y-117348000D01*
X146304000Y-117373500D02*
X145059500Y-117373500D01*
D29*
X150876000Y-117094000D02*
X152654000Y-117094000D01*
X146412000Y-106572000D02*
X146304000Y-106680000D01*
X146412000Y-104970000D02*
X146412000Y-106572000D01*
D27*
X148039000Y-124671000D02*
X147574000Y-124206000D01*
X149860000Y-124671000D02*
X148039000Y-124671000D01*
D29*
X145612000Y-111830000D02*
X145542000Y-111760000D01*
X145612000Y-113470000D02*
X145612000Y-111830000D01*
X147212000Y-111906000D02*
X147066000Y-111760000D01*
X147212000Y-113470000D02*
X147212000Y-111906000D01*
D28*
X134112000Y-122258000D02*
X134112000Y-123698000D01*
D27*
X135864500Y-90170000D02*
X134620000Y-90170000D01*
X128900000Y-142616000D02*
X129032000Y-142748000D01*
X128900000Y-140712000D02*
X128900000Y-142616000D01*
X122378236Y-127512000D02*
X120623118Y-125756882D01*
X123200000Y-127512000D02*
X122378236Y-127512000D01*
%TO.N,+3V3*%
X138404500Y-109474000D02*
X137160000Y-109474000D01*
X133324500Y-110744000D02*
X132334000Y-110744000D01*
X118750000Y-132212000D02*
X118618000Y-132080000D01*
X120400000Y-132212000D02*
X118750000Y-132212000D01*
X132867500Y-143256000D02*
X134112000Y-143256000D01*
X124993500Y-143256000D02*
X126238000Y-143256000D01*
X124993500Y-140818500D02*
X125100000Y-140712000D01*
X124993500Y-143256000D02*
X124993500Y-140818500D01*
X137693500Y-134645500D02*
X137668000Y-134620000D01*
X137693500Y-135890000D02*
X137693500Y-134645500D01*
D28*
X164768000Y-134874000D02*
X164768000Y-139270000D01*
X164820500Y-139322500D02*
X164820500Y-140462000D01*
X164768000Y-139270000D02*
X164820500Y-139322500D01*
X164820500Y-142240000D02*
X164820500Y-140462000D01*
D27*
X165008500Y-92268000D02*
X164846000Y-92430500D01*
X166640000Y-92268000D02*
X165008500Y-92268000D01*
X164846000Y-92430500D02*
X164846000Y-91186000D01*
X168122500Y-97790000D02*
X166878000Y-97790000D01*
X165008500Y-100904000D02*
X164846000Y-101066500D01*
X166640000Y-100904000D02*
X165008500Y-100904000D01*
X164846000Y-101066500D02*
X164846000Y-99822000D01*
X148082000Y-115798500D02*
X146304000Y-115798500D01*
X145059500Y-115798500D02*
X145034000Y-115824000D01*
X146304000Y-115798500D02*
X145059500Y-115798500D01*
X149072500Y-115798500D02*
X149098000Y-115824000D01*
X148082000Y-115798500D02*
X149072500Y-115798500D01*
D29*
X146412000Y-115690500D02*
X146304000Y-115798500D01*
X146412000Y-113470000D02*
X146412000Y-115690500D01*
X148012000Y-115728500D02*
X148082000Y-115798500D01*
X148012000Y-113470000D02*
X148012000Y-115728500D01*
X148812000Y-102673500D02*
X148844000Y-102641500D01*
X148812000Y-104970000D02*
X148812000Y-102673500D01*
D28*
X133162000Y-117868500D02*
X133174500Y-117856000D01*
X133162000Y-120058000D02*
X133162000Y-117868500D01*
X133174500Y-115974000D02*
X133324500Y-115824000D01*
X133174500Y-117856000D02*
X133174500Y-115974000D01*
X133324500Y-115824000D02*
X132080000Y-115824000D01*
X133174500Y-117856000D02*
X132080000Y-117856000D01*
D27*
X148056500Y-102641500D02*
X147828000Y-102870000D01*
X148844000Y-102641500D02*
X148056500Y-102641500D01*
D29*
%TO.N,Net-(C6-Pad1)*%
X147212000Y-103041500D02*
X146812000Y-102641500D01*
X147212000Y-104970000D02*
X147212000Y-103041500D01*
D27*
%TO.N,Net-(C8-Pad2)*%
X182346500Y-132334000D02*
X182346500Y-130556000D01*
D29*
%TO.N,RESET*%
X140125500Y-109620000D02*
X139979500Y-109474000D01*
X142562000Y-109620000D02*
X140125500Y-109620000D01*
X157226000Y-109474000D02*
X152400000Y-109474000D01*
X139954000Y-109448500D02*
X139979500Y-109474000D01*
X139954000Y-108204000D02*
X139954000Y-109448500D01*
X157226000Y-109474000D02*
X158496000Y-110744000D01*
X158496000Y-110744000D02*
X183896000Y-110744000D01*
X183896000Y-132359500D02*
X183921500Y-132334000D01*
X183896000Y-133858000D02*
X183896000Y-132359500D01*
D30*
%TO.N,Net-(C10-Pad1)*%
X135413500Y-92096500D02*
X127688000Y-99822000D01*
X136652000Y-92096500D02*
X135413500Y-92096500D01*
X137439500Y-91309000D02*
X136652000Y-92096500D01*
X137439500Y-90170000D02*
X137439500Y-91309000D01*
D27*
%TO.N,RB_5V*%
X170916500Y-102641500D02*
X171704000Y-101854000D01*
X170434000Y-102641500D02*
X170916500Y-102641500D01*
X172262801Y-101295199D02*
X171704000Y-101854000D01*
X172262801Y-95834301D02*
X172262801Y-101295199D01*
X170434000Y-94005500D02*
X172262801Y-95834301D01*
D28*
X133162000Y-122258000D02*
X133162000Y-123378000D01*
X133162000Y-123378000D02*
X132842000Y-123698000D01*
X132842000Y-123698000D02*
X128270000Y-123698000D01*
X127762000Y-123190000D02*
X127762000Y-118364000D01*
X128270000Y-123698000D02*
X127762000Y-123190000D01*
X136997500Y-122258000D02*
X137160000Y-122095500D01*
X135062000Y-122258000D02*
X136997500Y-122258000D01*
X137160000Y-122095500D02*
X137160000Y-123444000D01*
D31*
X137160000Y-123444000D02*
X136144000Y-124460000D01*
X133604000Y-124460000D02*
X132842000Y-123698000D01*
X136144000Y-124460000D02*
X133604000Y-124460000D01*
X137589500Y-121666000D02*
X162052000Y-121666000D01*
X137160000Y-122095500D02*
X137589500Y-121666000D01*
X168681500Y-104394000D02*
X170434000Y-102641500D01*
X162052000Y-104394000D02*
X168681500Y-104394000D01*
D27*
%TO.N,Net-(D1-Pad2)*%
X153266000Y-101066500D02*
X153416000Y-100916500D01*
X150876000Y-101066500D02*
X153266000Y-101066500D01*
%TO.N,Net-(D2-Pad2)*%
X169697500Y-124968000D02*
X172036500Y-124968000D01*
%TO.N,Net-(D3-Pad2)*%
X169697500Y-127254000D02*
X172036500Y-127254000D01*
%TO.N,Net-(D4-Pad2)*%
X135049500Y-110894000D02*
X134899500Y-110744000D01*
X135049500Y-113030000D02*
X135049500Y-110894000D01*
D30*
%TO.N,Net-(F1-Pad1)*%
X136652000Y-96371500D02*
X134768500Y-96371500D01*
X134768500Y-96371500D02*
X130810000Y-100330000D01*
X130810000Y-110236000D02*
X127762000Y-113284000D01*
X130810000Y-100330000D02*
X130810000Y-110236000D01*
D27*
%TO.N,RB_RXI*%
X169646500Y-101854000D02*
X170434000Y-101066500D01*
X168640000Y-101854000D02*
X169646500Y-101854000D01*
X171704000Y-99796500D02*
X170434000Y-101066500D01*
X171704000Y-99314000D02*
X171704000Y-99796500D01*
%TO.N,RB_NetAv*%
X169697500Y-97790000D02*
X171450000Y-97790000D01*
D29*
X152584000Y-110420000D02*
X152654000Y-110490000D01*
X151062000Y-110420000D02*
X152584000Y-110420000D01*
X168173500Y-99314000D02*
X169697500Y-97790000D01*
X152908000Y-99314000D02*
X168173500Y-99314000D01*
D27*
%TO.N,RB_TXO*%
X170713500Y-92710000D02*
X170434000Y-92430500D01*
X171704000Y-92710000D02*
X170713500Y-92710000D01*
X169646500Y-93218000D02*
X170434000Y-92430500D01*
X168640000Y-93218000D02*
X169646500Y-93218000D01*
D29*
%TO.N,MISO*%
X156712000Y-106420000D02*
X157226000Y-106934000D01*
X151062000Y-106420000D02*
X156712000Y-106420000D01*
%TO.N,SCK*%
X149612000Y-103905500D02*
X150876000Y-102641500D01*
X149612000Y-104970000D02*
X149612000Y-103905500D01*
X150876000Y-102641500D02*
X150876000Y-103886000D01*
X150876000Y-103886000D02*
X151892000Y-104902000D01*
X157734000Y-104902000D02*
X159766000Y-106934000D01*
X151892000Y-104902000D02*
X157734000Y-104902000D01*
%TO.N,MOSI*%
X153638000Y-107220000D02*
X153670000Y-107188000D01*
X151062000Y-107220000D02*
X153638000Y-107220000D01*
X153670000Y-112014000D02*
X157226000Y-112014000D01*
D27*
%TO.N,RB_TXO_3V3*%
X165008500Y-94168000D02*
X164846000Y-94005500D01*
X166640000Y-94168000D02*
X165008500Y-94168000D01*
X139674500Y-94005500D02*
X139446000Y-94234000D01*
X164846000Y-94005500D02*
X139674500Y-94005500D01*
X137160000Y-111252000D02*
X138404500Y-111252000D01*
%TO.N,RB_RXI_3V3*%
X166477500Y-102641500D02*
X166640000Y-102804000D01*
X164846000Y-102641500D02*
X166477500Y-102641500D01*
X163601500Y-102641500D02*
X163576000Y-102616000D01*
X164846000Y-102641500D02*
X163601500Y-102641500D01*
X163322000Y-98552000D02*
X136398000Y-98552000D01*
X163576000Y-98806000D02*
X163322000Y-98552000D01*
X136398000Y-113030000D02*
X138404500Y-113030000D01*
%TO.N,Net-(R7-Pad2)*%
X185086000Y-130556000D02*
X186768000Y-128874000D01*
X183921500Y-130556000D02*
X185086000Y-130556000D01*
%TO.N,Net-(R8-Pad1)*%
X168028500Y-124874000D02*
X168122500Y-124968000D01*
X164768000Y-124874000D02*
X168028500Y-124874000D01*
%TO.N,Net-(R9-Pad1)*%
X183383190Y-128258810D02*
X186768000Y-124874000D01*
X169127310Y-128258810D02*
X183383190Y-128258810D01*
X168122500Y-127254000D02*
X169127310Y-128258810D01*
D29*
%TO.N,Net-(R10-Pad2)*%
X141609600Y-110420000D02*
X140777600Y-111252000D01*
X140777600Y-111252000D02*
X139979500Y-111252000D01*
X142562000Y-110420000D02*
X141609600Y-110420000D01*
%TO.N,Net-(R11-Pad2)*%
X139979500Y-112850100D02*
X139979500Y-113030000D01*
X141609600Y-111220000D02*
X139979500Y-112850100D01*
X142562000Y-111220000D02*
X141609600Y-111220000D01*
D27*
%TO.N,GPS_RX*%
X125100000Y-127213358D02*
X123616642Y-125730000D01*
X125100000Y-127512000D02*
X125100000Y-127213358D01*
X121386500Y-125730000D02*
X120396000Y-124739500D01*
X123616642Y-125730000D02*
X121386500Y-125730000D01*
%TO.N,Net-(R12-Pad2)*%
X120396000Y-123164500D02*
X120396000Y-121920000D01*
X120396000Y-114300000D02*
X140716000Y-114300000D01*
D29*
X142562000Y-112020000D02*
X141726000Y-112020000D01*
X141726000Y-112020000D02*
X140970000Y-112776000D01*
X140969999Y-114046001D02*
X140716000Y-114300000D01*
X140970000Y-112776000D02*
X140969999Y-114046001D01*
%TO.N,Net-(R13-Pad2)*%
X144012000Y-113470000D02*
X144012000Y-114306000D01*
X144012000Y-114306000D02*
X143459200Y-114858800D01*
D27*
X133574728Y-114858800D02*
X141020800Y-114858800D01*
X122174000Y-114858800D02*
X133574728Y-114858800D01*
D29*
X143459200Y-114858800D02*
X141020800Y-114858800D01*
D27*
X122174000Y-123164500D02*
X122174000Y-121920000D01*
%TO.N,GPS_TX*%
X127000000Y-127512000D02*
X127000000Y-127213358D01*
X125432300Y-124739500D02*
X122174000Y-124739500D01*
X127000000Y-126307200D02*
X125432300Y-124739500D01*
X127000000Y-127512000D02*
X127000000Y-126307200D01*
%TO.N,XBee_to_Uc*%
X164800000Y-132842000D02*
X164768000Y-132874000D01*
X168122500Y-132842000D02*
X164800000Y-132842000D01*
%TO.N,Net-(R14-Pad2)*%
X163020504Y-134112000D02*
X144780000Y-134112000D01*
X163278703Y-133853801D02*
X163020504Y-134112000D01*
X168685699Y-133853801D02*
X163278703Y-133853801D01*
X169697500Y-132842000D02*
X168685699Y-133853801D01*
D29*
X144812000Y-115030000D02*
X144272000Y-115570000D01*
X144812000Y-113470000D02*
X144812000Y-115030000D01*
D27*
%TO.N,XBee_from_Uc*%
X164832000Y-130810000D02*
X164768000Y-130874000D01*
X168122500Y-130810000D02*
X164832000Y-130810000D01*
D29*
%TO.N,Net-(R15-Pad2)*%
X152456800Y-112020000D02*
X153466800Y-113030000D01*
X151062000Y-112020000D02*
X152456800Y-112020000D01*
D27*
X169189500Y-131318000D02*
X169697500Y-130810000D01*
X168294127Y-131853801D02*
X168829928Y-131318000D01*
X168829928Y-131318000D02*
X169189500Y-131318000D01*
X164297695Y-131853801D02*
X168294127Y-131853801D01*
X164269894Y-131826000D02*
X164297695Y-131853801D01*
X153924000Y-131826000D02*
X164269894Y-131826000D01*
%TO.N,GPS_PPS*%
X135996500Y-136012000D02*
X136118500Y-135890000D01*
X133600000Y-136012000D02*
X135996500Y-136012000D01*
D29*
X152876000Y-111220000D02*
X152908000Y-111252000D01*
X151062000Y-111220000D02*
X152876000Y-111220000D01*
D27*
X136118500Y-133883500D02*
X136118500Y-135890000D01*
X136652000Y-133350000D02*
X136118500Y-133883500D01*
X152908000Y-133350000D02*
X136652000Y-133350000D01*
D29*
%TO.N,Net-(U2-Pad7)*%
X148812000Y-114823750D02*
X149606000Y-115617750D01*
X148812000Y-113470000D02*
X148812000Y-114823750D01*
X149773600Y-118294000D02*
X150876000Y-118294000D01*
X149606000Y-118126400D02*
X149773600Y-118294000D01*
X149606000Y-115617750D02*
X149606000Y-118126400D01*
%TO.N,Net-(U2-Pad8)*%
X149612000Y-114630000D02*
X150876000Y-115894000D01*
X149612000Y-113470000D02*
X149612000Y-114630000D01*
%TD*%
M02*
