%TF.GenerationSoftware,KiCad,Pcbnew,(5.1.7)-1*%
%TF.CreationDate,2020-12-22T10:31:33-06:00*%
%TF.ProjectId,tracker,74726163-6b65-4722-9e6b-696361645f70,1.0*%
%TF.SameCoordinates,Original*%
%TF.FileFunction,Legend,Bot*%
%TF.FilePolarity,Positive*%
%FSLAX46Y46*%
G04 Gerber Fmt 4.6, Leading zero omitted, Abs format (unit mm)*
G04 Created by KiCad (PCBNEW (5.1.7)-1) date 2020-12-22 10:31:33*
%MOMM*%
%LPD*%
G01*
G04 APERTURE LIST*
%ADD10C,0.120000*%
%ADD11C,0.150000*%
%ADD12C,0.152400*%
G04 APERTURE END LIST*
D10*
%TO.C,J1*%
X174752000Y-92052000D02*
X174752000Y-91552000D01*
X175252000Y-92052000D02*
X174252000Y-92052000D01*
X175252000Y-105052000D02*
X174252000Y-105052000D01*
X178252000Y-104552000D02*
X178252000Y-92552000D01*
D11*
%TO.C,U1*%
X188268000Y-109674000D02*
X163268000Y-109674000D01*
X163268000Y-115570000D02*
X163268000Y-135763000D01*
X180768000Y-142614000D02*
X170768000Y-142614000D01*
X188268000Y-115570000D02*
X188268000Y-135763000D01*
X180797200Y-142595600D02*
X188264800Y-135788400D01*
X170738800Y-142595600D02*
X163271200Y-135788400D01*
X163271200Y-115570000D02*
X163271200Y-109677200D01*
X188264800Y-115570000D02*
X188264800Y-109677200D01*
D12*
%TO.C,U3*%
X128143000Y-107061000D02*
G75*
G03*
X128143000Y-107061000I-381000J0D01*
G01*
D10*
%TO.C,U4*%
X162454000Y-93324000D02*
X117454000Y-93324000D01*
X162454000Y-138324000D02*
X162454000Y-93324000D01*
X117454000Y-138324000D02*
X162454000Y-138324000D01*
X117454000Y-93324000D02*
X117454000Y-138324000D01*
%TO.C,J1*%
D11*
X179704380Y-100718666D02*
X180418666Y-100718666D01*
X180561523Y-100671047D01*
X180656761Y-100575809D01*
X180704380Y-100432952D01*
X180704380Y-100337714D01*
X180704380Y-101718666D02*
X180704380Y-101147238D01*
X180704380Y-101432952D02*
X179704380Y-101432952D01*
X179847238Y-101337714D01*
X179942476Y-101242476D01*
X179990095Y-101147238D01*
%TO.C,U1*%
X176529904Y-143216380D02*
X176529904Y-144025904D01*
X176482285Y-144121142D01*
X176434666Y-144168761D01*
X176339428Y-144216380D01*
X176148952Y-144216380D01*
X176053714Y-144168761D01*
X176006095Y-144121142D01*
X175958476Y-144025904D01*
X175958476Y-143216380D01*
X174958476Y-144216380D02*
X175529904Y-144216380D01*
X175244190Y-144216380D02*
X175244190Y-143216380D01*
X175339428Y-143359238D01*
X175434666Y-143454476D01*
X175529904Y-143502095D01*
%TO.C,U4*%
X162305904Y-139406380D02*
X162305904Y-140215904D01*
X162258285Y-140311142D01*
X162210666Y-140358761D01*
X162115428Y-140406380D01*
X161924952Y-140406380D01*
X161829714Y-140358761D01*
X161782095Y-140311142D01*
X161734476Y-140215904D01*
X161734476Y-139406380D01*
X160829714Y-139739714D02*
X160829714Y-140406380D01*
X161067809Y-139358761D02*
X161305904Y-140073047D01*
X160686857Y-140073047D01*
%TD*%
M02*
