%TF.GenerationSoftware,KiCad,Pcbnew,(5.1.7)-1*%
%TF.CreationDate,2020-12-22T10:31:33-06:00*%
%TF.ProjectId,tracker,74726163-6b65-4722-9e6b-696361645f70,1.0*%
%TF.SameCoordinates,Original*%
%TF.FileFunction,Legend,Top*%
%TF.FilePolarity,Positive*%
%FSLAX46Y46*%
G04 Gerber Fmt 4.6, Leading zero omitted, Abs format (unit mm)*
G04 Created by KiCad (PCBNEW (5.1.7)-1) date 2020-12-22 10:31:33*
%MOMM*%
%LPD*%
G01*
G04 APERTURE LIST*
%ADD10C,0.508000*%
%ADD11C,0.150000*%
%ADD12C,0.120000*%
%ADD13C,0.127000*%
%ADD14C,0.200000*%
%ADD15C,0.152400*%
%ADD16C,0.149860*%
G04 APERTURE END LIST*
D10*
X121968380Y-103003047D02*
X121484571Y-103003047D01*
X121242666Y-103124000D01*
X121000761Y-103365904D01*
X120879809Y-103849714D01*
X120879809Y-104696380D01*
X121000761Y-105180190D01*
X121242666Y-105422095D01*
X121484571Y-105543047D01*
X121968380Y-105543047D01*
X122210285Y-105422095D01*
X122452190Y-105180190D01*
X122573142Y-104696380D01*
X122573142Y-103849714D01*
X122452190Y-103365904D01*
X122210285Y-103124000D01*
X121968380Y-103003047D01*
X119791238Y-105543047D02*
X119791238Y-103003047D01*
X118339809Y-105543047D01*
X118339809Y-103003047D01*
D11*
%TO.C,BT1*%
X148444730Y-140374531D02*
G75*
G02*
X148560000Y-125796000I1415270J7278531D01*
G01*
X151160001Y-125796001D02*
G75*
G02*
X151159999Y-140395999I-1300001J-7299999D01*
G01*
D12*
%TO.C,C1*%
X148334000Y-102016779D02*
X148334000Y-101691221D01*
X149354000Y-102016779D02*
X149354000Y-101691221D01*
%TO.C,C2*%
X147572000Y-116423221D02*
X147572000Y-116748779D01*
X148592000Y-116423221D02*
X148592000Y-116748779D01*
%TO.C,C3*%
X146814000Y-116423221D02*
X146814000Y-116748779D01*
X145794000Y-116423221D02*
X145794000Y-116748779D01*
%TO.C,C4*%
X165349422Y-139140000D02*
X165866578Y-139140000D01*
X165349422Y-137720000D02*
X165866578Y-137720000D01*
%TO.C,C5*%
X165445221Y-140972000D02*
X165770779Y-140972000D01*
X165445221Y-139952000D02*
X165770779Y-139952000D01*
%TO.C,C6*%
X147322000Y-102016779D02*
X147322000Y-101691221D01*
X146302000Y-102016779D02*
X146302000Y-101691221D01*
%TO.C,C7*%
X165445221Y-142750000D02*
X165770779Y-142750000D01*
X165445221Y-141730000D02*
X165770779Y-141730000D01*
%TO.C,C8*%
X183296779Y-132844000D02*
X182971221Y-132844000D01*
X183296779Y-131824000D02*
X182971221Y-131824000D01*
%TO.C,C9*%
X124368779Y-143766000D02*
X124043221Y-143766000D01*
X124368779Y-142746000D02*
X124043221Y-142746000D01*
%TO.C,C10*%
X136814779Y-90680000D02*
X136489221Y-90680000D01*
X136814779Y-89660000D02*
X136489221Y-89660000D01*
%TO.C,C11*%
X132242779Y-142746000D02*
X131917221Y-142746000D01*
X132242779Y-143766000D02*
X131917221Y-143766000D01*
%TO.C,C12*%
X136450000Y-121416578D02*
X136450000Y-120899422D01*
X137870000Y-121416578D02*
X137870000Y-120899422D01*
%TO.C,C13*%
X133853422Y-118566000D02*
X134370578Y-118566000D01*
X133853422Y-117146000D02*
X134370578Y-117146000D01*
%TO.C,C14*%
X133949221Y-116334000D02*
X134274779Y-116334000D01*
X133949221Y-115314000D02*
X134274779Y-115314000D01*
%TO.C,D1*%
X152456000Y-100854000D02*
X152456000Y-103539000D01*
X152456000Y-103539000D02*
X154376000Y-103539000D01*
X154376000Y-103539000D02*
X154376000Y-100854000D01*
%TO.C,D2*%
X174659000Y-124008000D02*
X171974000Y-124008000D01*
X174659000Y-125928000D02*
X174659000Y-124008000D01*
X171974000Y-125928000D02*
X174659000Y-125928000D01*
%TO.C,D3*%
X171974000Y-128214000D02*
X174659000Y-128214000D01*
X174659000Y-128214000D02*
X174659000Y-126294000D01*
X174659000Y-126294000D02*
X171974000Y-126294000D01*
%TO.C,D4*%
X132427000Y-113990000D02*
X135112000Y-113990000D01*
X132427000Y-112070000D02*
X132427000Y-113990000D01*
X135112000Y-112070000D02*
X132427000Y-112070000D01*
%TO.C,F1*%
X138362000Y-95620252D02*
X138362000Y-92847748D01*
X134942000Y-95620252D02*
X134942000Y-92847748D01*
%TO.C,J2*%
X155896000Y-105604000D02*
X157226000Y-105604000D01*
X155896000Y-106934000D02*
X155896000Y-105604000D01*
X158496000Y-105604000D02*
X161096000Y-105604000D01*
X158496000Y-108204000D02*
X158496000Y-105604000D01*
X155896000Y-108204000D02*
X158496000Y-108204000D01*
X161096000Y-105604000D02*
X161096000Y-113344000D01*
X155896000Y-108204000D02*
X155896000Y-113344000D01*
X155896000Y-113344000D02*
X161096000Y-113344000D01*
%TO.C,J4*%
X126044000Y-90738000D02*
X126044000Y-88078000D01*
X123444000Y-90738000D02*
X126044000Y-90738000D01*
X123444000Y-88078000D02*
X126044000Y-88078000D01*
X123444000Y-90738000D02*
X123444000Y-88078000D01*
X122174000Y-90738000D02*
X120844000Y-90738000D01*
X120844000Y-90738000D02*
X120844000Y-89408000D01*
%TO.C,Q1*%
X168400000Y-94798000D02*
X166940000Y-94798000D01*
X168400000Y-91638000D02*
X166240000Y-91638000D01*
X168400000Y-91638000D02*
X168400000Y-92568000D01*
X168400000Y-94798000D02*
X168400000Y-93868000D01*
%TO.C,Q2*%
X168400000Y-103434000D02*
X168400000Y-102504000D01*
X168400000Y-100274000D02*
X168400000Y-101204000D01*
X168400000Y-100274000D02*
X166240000Y-100274000D01*
X168400000Y-103434000D02*
X166940000Y-103434000D01*
%TO.C,R1*%
X165356000Y-93055221D02*
X165356000Y-93380779D01*
X164336000Y-93055221D02*
X164336000Y-93380779D01*
%TO.C,R2*%
X170944000Y-93380779D02*
X170944000Y-93055221D01*
X169924000Y-93380779D02*
X169924000Y-93055221D01*
%TO.C,R3*%
X165356000Y-101691221D02*
X165356000Y-102016779D01*
X164336000Y-101691221D02*
X164336000Y-102016779D01*
%TO.C,R4*%
X170944000Y-102016779D02*
X170944000Y-101691221D01*
X169924000Y-102016779D02*
X169924000Y-101691221D01*
%TO.C,R5*%
X139029221Y-109984000D02*
X139354779Y-109984000D01*
X139029221Y-108964000D02*
X139354779Y-108964000D01*
%TO.C,R6*%
X150366000Y-102016779D02*
X150366000Y-101691221D01*
X151386000Y-102016779D02*
X151386000Y-101691221D01*
%TO.C,R7*%
X182971221Y-131066000D02*
X183296779Y-131066000D01*
X182971221Y-130046000D02*
X183296779Y-130046000D01*
%TO.C,R8*%
X168747221Y-124458000D02*
X169072779Y-124458000D01*
X168747221Y-125478000D02*
X169072779Y-125478000D01*
%TO.C,R9*%
X168747221Y-127764000D02*
X169072779Y-127764000D01*
X168747221Y-126744000D02*
X169072779Y-126744000D01*
%TO.C,R10*%
X139029221Y-110742000D02*
X139354779Y-110742000D01*
X139029221Y-111762000D02*
X139354779Y-111762000D01*
%TO.C,R11*%
X139029221Y-112520000D02*
X139354779Y-112520000D01*
X139029221Y-113540000D02*
X139354779Y-113540000D01*
%TO.C,R12*%
X120906000Y-124114779D02*
X120906000Y-123789221D01*
X119886000Y-124114779D02*
X119886000Y-123789221D01*
%TO.C,R13*%
X121664000Y-124114779D02*
X121664000Y-123789221D01*
X122684000Y-124114779D02*
X122684000Y-123789221D01*
%TO.C,R14*%
X168747221Y-133352000D02*
X169072779Y-133352000D01*
X168747221Y-132332000D02*
X169072779Y-132332000D01*
%TO.C,R15*%
X168747221Y-131320000D02*
X169072779Y-131320000D01*
X168747221Y-130300000D02*
X169072779Y-130300000D01*
%TO.C,R16*%
X137068779Y-135380000D02*
X136743221Y-135380000D01*
X137068779Y-136400000D02*
X136743221Y-136400000D01*
%TO.C,R17*%
X133949221Y-111254000D02*
X134274779Y-111254000D01*
X133949221Y-110234000D02*
X134274779Y-110234000D01*
%TO.C,R18*%
X168747221Y-97280000D02*
X169072779Y-97280000D01*
X168747221Y-98300000D02*
X169072779Y-98300000D01*
D13*
%TO.C,SW1*%
X123698000Y-91592000D02*
X123698000Y-108052000D01*
D14*
X127308000Y-107322000D02*
G75*
G03*
X127308000Y-107322000I-100000J0D01*
G01*
D13*
X123698000Y-91592000D02*
X133858000Y-91592000D01*
X125478000Y-91592000D02*
X127028000Y-91592000D01*
X133858000Y-108052000D02*
X123698000Y-108052000D01*
X133858000Y-91592000D02*
X133858000Y-108052000D01*
D11*
%TO.C,U2*%
X143412000Y-112845000D02*
X143412000Y-114270000D01*
X143187000Y-105595000D02*
X143187000Y-105920000D01*
X150437000Y-105595000D02*
X150437000Y-105920000D01*
X150437000Y-112845000D02*
X150437000Y-112520000D01*
X143187000Y-112845000D02*
X143187000Y-112520000D01*
X150437000Y-112845000D02*
X150112000Y-112845000D01*
X150437000Y-105595000D02*
X150112000Y-105595000D01*
X143187000Y-105595000D02*
X143512000Y-105595000D01*
X143187000Y-112845000D02*
X143412000Y-112845000D01*
D15*
%TO.C,U3*%
X128143000Y-107061000D02*
G75*
G03*
X128143000Y-107061000I-381000J0D01*
G01*
X131445000Y-108839000D02*
X123571000Y-108839000D01*
X131445000Y-123063000D02*
X131445000Y-108839000D01*
X123571000Y-123063000D02*
X131445000Y-123063000D01*
X123571000Y-108839000D02*
X123571000Y-123063000D01*
D12*
%TO.C,U5*%
X119140000Y-141862000D02*
X119140000Y-126252000D01*
X119140000Y-126252000D02*
X134860000Y-126252000D01*
X134860000Y-141972000D02*
X134860000Y-126252000D01*
X124200000Y-141972000D02*
X134860000Y-141972000D01*
%TO.C,U6*%
X132502000Y-120258000D02*
X132502000Y-122708000D01*
X135722000Y-122058000D02*
X135722000Y-120258000D01*
%TO.C,Y1*%
X151976000Y-118894000D02*
X151976000Y-118694000D01*
X149776000Y-118894000D02*
X151976000Y-118894000D01*
X149776000Y-118694000D02*
X149776000Y-118894000D01*
X151976000Y-118694000D02*
X149776000Y-118694000D01*
X151976000Y-115494000D02*
X151976000Y-118694000D01*
X149776000Y-115494000D02*
X151976000Y-115494000D01*
X149776000Y-118694000D02*
X149776000Y-115494000D01*
%TO.C,BT1*%
D11*
X153574285Y-124524571D02*
X153717142Y-124572190D01*
X153764761Y-124619809D01*
X153812380Y-124715047D01*
X153812380Y-124857904D01*
X153764761Y-124953142D01*
X153717142Y-125000761D01*
X153621904Y-125048380D01*
X153240952Y-125048380D01*
X153240952Y-124048380D01*
X153574285Y-124048380D01*
X153669523Y-124096000D01*
X153717142Y-124143619D01*
X153764761Y-124238857D01*
X153764761Y-124334095D01*
X153717142Y-124429333D01*
X153669523Y-124476952D01*
X153574285Y-124524571D01*
X153240952Y-124524571D01*
X154098095Y-124048380D02*
X154669523Y-124048380D01*
X154383809Y-125048380D02*
X154383809Y-124048380D01*
X155526666Y-125048380D02*
X154955238Y-125048380D01*
X155240952Y-125048380D02*
X155240952Y-124048380D01*
X155145714Y-124191238D01*
X155050476Y-124286476D01*
X154955238Y-124334095D01*
X151479047Y-142167428D02*
X152240952Y-142167428D01*
X151860000Y-142548380D02*
X151860000Y-141786476D01*
%TO.C,C1*%
X149201142Y-99480666D02*
X149248761Y-99528285D01*
X149296380Y-99671142D01*
X149296380Y-99766380D01*
X149248761Y-99909238D01*
X149153523Y-100004476D01*
X149058285Y-100052095D01*
X148867809Y-100099714D01*
X148724952Y-100099714D01*
X148534476Y-100052095D01*
X148439238Y-100004476D01*
X148344000Y-99909238D01*
X148296380Y-99766380D01*
X148296380Y-99671142D01*
X148344000Y-99528285D01*
X148391619Y-99480666D01*
X149296380Y-98528285D02*
X149296380Y-99099714D01*
X149296380Y-98814000D02*
X148296380Y-98814000D01*
X148439238Y-98909238D01*
X148534476Y-99004476D01*
X148582095Y-99099714D01*
%TO.C,C2*%
X148439142Y-119546666D02*
X148486761Y-119594285D01*
X148534380Y-119737142D01*
X148534380Y-119832380D01*
X148486761Y-119975238D01*
X148391523Y-120070476D01*
X148296285Y-120118095D01*
X148105809Y-120165714D01*
X147962952Y-120165714D01*
X147772476Y-120118095D01*
X147677238Y-120070476D01*
X147582000Y-119975238D01*
X147534380Y-119832380D01*
X147534380Y-119737142D01*
X147582000Y-119594285D01*
X147629619Y-119546666D01*
X147629619Y-119165714D02*
X147582000Y-119118095D01*
X147534380Y-119022857D01*
X147534380Y-118784761D01*
X147582000Y-118689523D01*
X147629619Y-118641904D01*
X147724857Y-118594285D01*
X147820095Y-118594285D01*
X147962952Y-118641904D01*
X148534380Y-119213333D01*
X148534380Y-118594285D01*
%TO.C,C3*%
X146661142Y-119546666D02*
X146708761Y-119594285D01*
X146756380Y-119737142D01*
X146756380Y-119832380D01*
X146708761Y-119975238D01*
X146613523Y-120070476D01*
X146518285Y-120118095D01*
X146327809Y-120165714D01*
X146184952Y-120165714D01*
X145994476Y-120118095D01*
X145899238Y-120070476D01*
X145804000Y-119975238D01*
X145756380Y-119832380D01*
X145756380Y-119737142D01*
X145804000Y-119594285D01*
X145851619Y-119546666D01*
X145756380Y-119213333D02*
X145756380Y-118594285D01*
X146137333Y-118927619D01*
X146137333Y-118784761D01*
X146184952Y-118689523D01*
X146232571Y-118641904D01*
X146327809Y-118594285D01*
X146565904Y-118594285D01*
X146661142Y-118641904D01*
X146708761Y-118689523D01*
X146756380Y-118784761D01*
X146756380Y-119070476D01*
X146708761Y-119165714D01*
X146661142Y-119213333D01*
%TO.C,C4*%
X162647333Y-138787142D02*
X162599714Y-138834761D01*
X162456857Y-138882380D01*
X162361619Y-138882380D01*
X162218761Y-138834761D01*
X162123523Y-138739523D01*
X162075904Y-138644285D01*
X162028285Y-138453809D01*
X162028285Y-138310952D01*
X162075904Y-138120476D01*
X162123523Y-138025238D01*
X162218761Y-137930000D01*
X162361619Y-137882380D01*
X162456857Y-137882380D01*
X162599714Y-137930000D01*
X162647333Y-137977619D01*
X163504476Y-138215714D02*
X163504476Y-138882380D01*
X163266380Y-137834761D02*
X163028285Y-138549047D01*
X163647333Y-138549047D01*
%TO.C,C5*%
X162647333Y-140819142D02*
X162599714Y-140866761D01*
X162456857Y-140914380D01*
X162361619Y-140914380D01*
X162218761Y-140866761D01*
X162123523Y-140771523D01*
X162075904Y-140676285D01*
X162028285Y-140485809D01*
X162028285Y-140342952D01*
X162075904Y-140152476D01*
X162123523Y-140057238D01*
X162218761Y-139962000D01*
X162361619Y-139914380D01*
X162456857Y-139914380D01*
X162599714Y-139962000D01*
X162647333Y-140009619D01*
X163552095Y-139914380D02*
X163075904Y-139914380D01*
X163028285Y-140390571D01*
X163075904Y-140342952D01*
X163171142Y-140295333D01*
X163409238Y-140295333D01*
X163504476Y-140342952D01*
X163552095Y-140390571D01*
X163599714Y-140485809D01*
X163599714Y-140723904D01*
X163552095Y-140819142D01*
X163504476Y-140866761D01*
X163409238Y-140914380D01*
X163171142Y-140914380D01*
X163075904Y-140866761D01*
X163028285Y-140819142D01*
%TO.C,C6*%
X147169142Y-99480666D02*
X147216761Y-99528285D01*
X147264380Y-99671142D01*
X147264380Y-99766380D01*
X147216761Y-99909238D01*
X147121523Y-100004476D01*
X147026285Y-100052095D01*
X146835809Y-100099714D01*
X146692952Y-100099714D01*
X146502476Y-100052095D01*
X146407238Y-100004476D01*
X146312000Y-99909238D01*
X146264380Y-99766380D01*
X146264380Y-99671142D01*
X146312000Y-99528285D01*
X146359619Y-99480666D01*
X146264380Y-98623523D02*
X146264380Y-98814000D01*
X146312000Y-98909238D01*
X146359619Y-98956857D01*
X146502476Y-99052095D01*
X146692952Y-99099714D01*
X147073904Y-99099714D01*
X147169142Y-99052095D01*
X147216761Y-99004476D01*
X147264380Y-98909238D01*
X147264380Y-98718761D01*
X147216761Y-98623523D01*
X147169142Y-98575904D01*
X147073904Y-98528285D01*
X146835809Y-98528285D01*
X146740571Y-98575904D01*
X146692952Y-98623523D01*
X146645333Y-98718761D01*
X146645333Y-98909238D01*
X146692952Y-99004476D01*
X146740571Y-99052095D01*
X146835809Y-99099714D01*
%TO.C,C7*%
X162647333Y-142597142D02*
X162599714Y-142644761D01*
X162456857Y-142692380D01*
X162361619Y-142692380D01*
X162218761Y-142644761D01*
X162123523Y-142549523D01*
X162075904Y-142454285D01*
X162028285Y-142263809D01*
X162028285Y-142120952D01*
X162075904Y-141930476D01*
X162123523Y-141835238D01*
X162218761Y-141740000D01*
X162361619Y-141692380D01*
X162456857Y-141692380D01*
X162599714Y-141740000D01*
X162647333Y-141787619D01*
X162980666Y-141692380D02*
X163647333Y-141692380D01*
X163218761Y-142692380D01*
%TO.C,C8*%
X180173333Y-132691142D02*
X180125714Y-132738761D01*
X179982857Y-132786380D01*
X179887619Y-132786380D01*
X179744761Y-132738761D01*
X179649523Y-132643523D01*
X179601904Y-132548285D01*
X179554285Y-132357809D01*
X179554285Y-132214952D01*
X179601904Y-132024476D01*
X179649523Y-131929238D01*
X179744761Y-131834000D01*
X179887619Y-131786380D01*
X179982857Y-131786380D01*
X180125714Y-131834000D01*
X180173333Y-131881619D01*
X180744761Y-132214952D02*
X180649523Y-132167333D01*
X180601904Y-132119714D01*
X180554285Y-132024476D01*
X180554285Y-131976857D01*
X180601904Y-131881619D01*
X180649523Y-131834000D01*
X180744761Y-131786380D01*
X180935238Y-131786380D01*
X181030476Y-131834000D01*
X181078095Y-131881619D01*
X181125714Y-131976857D01*
X181125714Y-132024476D01*
X181078095Y-132119714D01*
X181030476Y-132167333D01*
X180935238Y-132214952D01*
X180744761Y-132214952D01*
X180649523Y-132262571D01*
X180601904Y-132310190D01*
X180554285Y-132405428D01*
X180554285Y-132595904D01*
X180601904Y-132691142D01*
X180649523Y-132738761D01*
X180744761Y-132786380D01*
X180935238Y-132786380D01*
X181030476Y-132738761D01*
X181078095Y-132691142D01*
X181125714Y-132595904D01*
X181125714Y-132405428D01*
X181078095Y-132310190D01*
X181030476Y-132262571D01*
X180935238Y-132214952D01*
%TO.C,C9*%
X121499333Y-143613142D02*
X121451714Y-143660761D01*
X121308857Y-143708380D01*
X121213619Y-143708380D01*
X121070761Y-143660761D01*
X120975523Y-143565523D01*
X120927904Y-143470285D01*
X120880285Y-143279809D01*
X120880285Y-143136952D01*
X120927904Y-142946476D01*
X120975523Y-142851238D01*
X121070761Y-142756000D01*
X121213619Y-142708380D01*
X121308857Y-142708380D01*
X121451714Y-142756000D01*
X121499333Y-142803619D01*
X121975523Y-143708380D02*
X122166000Y-143708380D01*
X122261238Y-143660761D01*
X122308857Y-143613142D01*
X122404095Y-143470285D01*
X122451714Y-143279809D01*
X122451714Y-142898857D01*
X122404095Y-142803619D01*
X122356476Y-142756000D01*
X122261238Y-142708380D01*
X122070761Y-142708380D01*
X121975523Y-142756000D01*
X121927904Y-142803619D01*
X121880285Y-142898857D01*
X121880285Y-143136952D01*
X121927904Y-143232190D01*
X121975523Y-143279809D01*
X122070761Y-143327428D01*
X122261238Y-143327428D01*
X122356476Y-143279809D01*
X122404095Y-143232190D01*
X122451714Y-143136952D01*
%TO.C,C10*%
X139057142Y-90527142D02*
X139009523Y-90574761D01*
X138866666Y-90622380D01*
X138771428Y-90622380D01*
X138628571Y-90574761D01*
X138533333Y-90479523D01*
X138485714Y-90384285D01*
X138438095Y-90193809D01*
X138438095Y-90050952D01*
X138485714Y-89860476D01*
X138533333Y-89765238D01*
X138628571Y-89670000D01*
X138771428Y-89622380D01*
X138866666Y-89622380D01*
X139009523Y-89670000D01*
X139057142Y-89717619D01*
X140009523Y-90622380D02*
X139438095Y-90622380D01*
X139723809Y-90622380D02*
X139723809Y-89622380D01*
X139628571Y-89765238D01*
X139533333Y-89860476D01*
X139438095Y-89908095D01*
X140628571Y-89622380D02*
X140723809Y-89622380D01*
X140819047Y-89670000D01*
X140866666Y-89717619D01*
X140914285Y-89812857D01*
X140961904Y-90003333D01*
X140961904Y-90241428D01*
X140914285Y-90431904D01*
X140866666Y-90527142D01*
X140819047Y-90574761D01*
X140723809Y-90622380D01*
X140628571Y-90622380D01*
X140533333Y-90574761D01*
X140485714Y-90527142D01*
X140438095Y-90431904D01*
X140390476Y-90241428D01*
X140390476Y-90003333D01*
X140438095Y-89812857D01*
X140485714Y-89717619D01*
X140533333Y-89670000D01*
X140628571Y-89622380D01*
%TO.C,C11*%
X134485142Y-143613142D02*
X134437523Y-143660761D01*
X134294666Y-143708380D01*
X134199428Y-143708380D01*
X134056571Y-143660761D01*
X133961333Y-143565523D01*
X133913714Y-143470285D01*
X133866095Y-143279809D01*
X133866095Y-143136952D01*
X133913714Y-142946476D01*
X133961333Y-142851238D01*
X134056571Y-142756000D01*
X134199428Y-142708380D01*
X134294666Y-142708380D01*
X134437523Y-142756000D01*
X134485142Y-142803619D01*
X135437523Y-143708380D02*
X134866095Y-143708380D01*
X135151809Y-143708380D02*
X135151809Y-142708380D01*
X135056571Y-142851238D01*
X134961333Y-142946476D01*
X134866095Y-142994095D01*
X136389904Y-143708380D02*
X135818476Y-143708380D01*
X136104190Y-143708380D02*
X136104190Y-142708380D01*
X136008952Y-142851238D01*
X135913714Y-142946476D01*
X135818476Y-142994095D01*
%TO.C,C12*%
X139295142Y-121800857D02*
X139342761Y-121848476D01*
X139390380Y-121991333D01*
X139390380Y-122086571D01*
X139342761Y-122229428D01*
X139247523Y-122324666D01*
X139152285Y-122372285D01*
X138961809Y-122419904D01*
X138818952Y-122419904D01*
X138628476Y-122372285D01*
X138533238Y-122324666D01*
X138438000Y-122229428D01*
X138390380Y-122086571D01*
X138390380Y-121991333D01*
X138438000Y-121848476D01*
X138485619Y-121800857D01*
X139390380Y-120848476D02*
X139390380Y-121419904D01*
X139390380Y-121134190D02*
X138390380Y-121134190D01*
X138533238Y-121229428D01*
X138628476Y-121324666D01*
X138676095Y-121419904D01*
X138485619Y-120467523D02*
X138438000Y-120419904D01*
X138390380Y-120324666D01*
X138390380Y-120086571D01*
X138438000Y-119991333D01*
X138485619Y-119943714D01*
X138580857Y-119896095D01*
X138676095Y-119896095D01*
X138818952Y-119943714D01*
X139390380Y-120515142D01*
X139390380Y-119896095D01*
%TO.C,C13*%
X136771142Y-118213142D02*
X136723523Y-118260761D01*
X136580666Y-118308380D01*
X136485428Y-118308380D01*
X136342571Y-118260761D01*
X136247333Y-118165523D01*
X136199714Y-118070285D01*
X136152095Y-117879809D01*
X136152095Y-117736952D01*
X136199714Y-117546476D01*
X136247333Y-117451238D01*
X136342571Y-117356000D01*
X136485428Y-117308380D01*
X136580666Y-117308380D01*
X136723523Y-117356000D01*
X136771142Y-117403619D01*
X137723523Y-118308380D02*
X137152095Y-118308380D01*
X137437809Y-118308380D02*
X137437809Y-117308380D01*
X137342571Y-117451238D01*
X137247333Y-117546476D01*
X137152095Y-117594095D01*
X138056857Y-117308380D02*
X138675904Y-117308380D01*
X138342571Y-117689333D01*
X138485428Y-117689333D01*
X138580666Y-117736952D01*
X138628285Y-117784571D01*
X138675904Y-117879809D01*
X138675904Y-118117904D01*
X138628285Y-118213142D01*
X138580666Y-118260761D01*
X138485428Y-118308380D01*
X138199714Y-118308380D01*
X138104476Y-118260761D01*
X138056857Y-118213142D01*
%TO.C,C14*%
X136771142Y-116181142D02*
X136723523Y-116228761D01*
X136580666Y-116276380D01*
X136485428Y-116276380D01*
X136342571Y-116228761D01*
X136247333Y-116133523D01*
X136199714Y-116038285D01*
X136152095Y-115847809D01*
X136152095Y-115704952D01*
X136199714Y-115514476D01*
X136247333Y-115419238D01*
X136342571Y-115324000D01*
X136485428Y-115276380D01*
X136580666Y-115276380D01*
X136723523Y-115324000D01*
X136771142Y-115371619D01*
X137723523Y-116276380D02*
X137152095Y-116276380D01*
X137437809Y-116276380D02*
X137437809Y-115276380D01*
X137342571Y-115419238D01*
X137247333Y-115514476D01*
X137152095Y-115562095D01*
X138580666Y-115609714D02*
X138580666Y-116276380D01*
X138342571Y-115228761D02*
X138104476Y-115943047D01*
X138723523Y-115943047D01*
%TO.C,D1*%
X153868380Y-99798095D02*
X152868380Y-99798095D01*
X152868380Y-99560000D01*
X152916000Y-99417142D01*
X153011238Y-99321904D01*
X153106476Y-99274285D01*
X153296952Y-99226666D01*
X153439809Y-99226666D01*
X153630285Y-99274285D01*
X153725523Y-99321904D01*
X153820761Y-99417142D01*
X153868380Y-99560000D01*
X153868380Y-99798095D01*
X153868380Y-98274285D02*
X153868380Y-98845714D01*
X153868380Y-98560000D02*
X152868380Y-98560000D01*
X153011238Y-98655238D01*
X153106476Y-98750476D01*
X153154095Y-98845714D01*
%TO.C,D2*%
X172235904Y-123642380D02*
X172235904Y-122642380D01*
X172474000Y-122642380D01*
X172616857Y-122690000D01*
X172712095Y-122785238D01*
X172759714Y-122880476D01*
X172807333Y-123070952D01*
X172807333Y-123213809D01*
X172759714Y-123404285D01*
X172712095Y-123499523D01*
X172616857Y-123594761D01*
X172474000Y-123642380D01*
X172235904Y-123642380D01*
X173188285Y-122737619D02*
X173235904Y-122690000D01*
X173331142Y-122642380D01*
X173569238Y-122642380D01*
X173664476Y-122690000D01*
X173712095Y-122737619D01*
X173759714Y-122832857D01*
X173759714Y-122928095D01*
X173712095Y-123070952D01*
X173140666Y-123642380D01*
X173759714Y-123642380D01*
%TO.C,D3*%
X172235904Y-129484380D02*
X172235904Y-128484380D01*
X172474000Y-128484380D01*
X172616857Y-128532000D01*
X172712095Y-128627238D01*
X172759714Y-128722476D01*
X172807333Y-128912952D01*
X172807333Y-129055809D01*
X172759714Y-129246285D01*
X172712095Y-129341523D01*
X172616857Y-129436761D01*
X172474000Y-129484380D01*
X172235904Y-129484380D01*
X173140666Y-128484380D02*
X173759714Y-128484380D01*
X173426380Y-128865333D01*
X173569238Y-128865333D01*
X173664476Y-128912952D01*
X173712095Y-128960571D01*
X173759714Y-129055809D01*
X173759714Y-129293904D01*
X173712095Y-129389142D01*
X173664476Y-129436761D01*
X173569238Y-129484380D01*
X173283523Y-129484380D01*
X173188285Y-129436761D01*
X173140666Y-129389142D01*
%TO.C,D4*%
X135913904Y-113482380D02*
X135913904Y-112482380D01*
X136152000Y-112482380D01*
X136294857Y-112530000D01*
X136390095Y-112625238D01*
X136437714Y-112720476D01*
X136485333Y-112910952D01*
X136485333Y-113053809D01*
X136437714Y-113244285D01*
X136390095Y-113339523D01*
X136294857Y-113434761D01*
X136152000Y-113482380D01*
X135913904Y-113482380D01*
X137342476Y-112815714D02*
X137342476Y-113482380D01*
X137104380Y-112434761D02*
X136866285Y-113149047D01*
X137485333Y-113149047D01*
%TO.C,F1*%
X139628571Y-94567333D02*
X139628571Y-94900666D01*
X140152380Y-94900666D02*
X139152380Y-94900666D01*
X139152380Y-94424476D01*
X140152380Y-93519714D02*
X140152380Y-94091142D01*
X140152380Y-93805428D02*
X139152380Y-93805428D01*
X139295238Y-93900666D01*
X139390476Y-93995904D01*
X139438095Y-94091142D01*
%TO.C,J2*%
X158162666Y-104056380D02*
X158162666Y-104770666D01*
X158115047Y-104913523D01*
X158019809Y-105008761D01*
X157876952Y-105056380D01*
X157781714Y-105056380D01*
X158591238Y-104151619D02*
X158638857Y-104104000D01*
X158734095Y-104056380D01*
X158972190Y-104056380D01*
X159067428Y-104104000D01*
X159115047Y-104151619D01*
X159162666Y-104246857D01*
X159162666Y-104342095D01*
X159115047Y-104484952D01*
X158543619Y-105056380D01*
X159162666Y-105056380D01*
%TO.C,J4*%
X119296380Y-89741333D02*
X120010666Y-89741333D01*
X120153523Y-89788952D01*
X120248761Y-89884190D01*
X120296380Y-90027047D01*
X120296380Y-90122285D01*
X119629714Y-88836571D02*
X120296380Y-88836571D01*
X119248761Y-89074666D02*
X119963047Y-89312761D01*
X119963047Y-88693714D01*
%TO.C,Q1*%
X167544761Y-91265619D02*
X167449523Y-91218000D01*
X167354285Y-91122761D01*
X167211428Y-90979904D01*
X167116190Y-90932285D01*
X167020952Y-90932285D01*
X167068571Y-91170380D02*
X166973333Y-91122761D01*
X166878095Y-91027523D01*
X166830476Y-90837047D01*
X166830476Y-90503714D01*
X166878095Y-90313238D01*
X166973333Y-90218000D01*
X167068571Y-90170380D01*
X167259047Y-90170380D01*
X167354285Y-90218000D01*
X167449523Y-90313238D01*
X167497142Y-90503714D01*
X167497142Y-90837047D01*
X167449523Y-91027523D01*
X167354285Y-91122761D01*
X167259047Y-91170380D01*
X167068571Y-91170380D01*
X168449523Y-91170380D02*
X167878095Y-91170380D01*
X168163809Y-91170380D02*
X168163809Y-90170380D01*
X168068571Y-90313238D01*
X167973333Y-90408476D01*
X167878095Y-90456095D01*
%TO.C,Q2*%
X167544761Y-99901619D02*
X167449523Y-99854000D01*
X167354285Y-99758761D01*
X167211428Y-99615904D01*
X167116190Y-99568285D01*
X167020952Y-99568285D01*
X167068571Y-99806380D02*
X166973333Y-99758761D01*
X166878095Y-99663523D01*
X166830476Y-99473047D01*
X166830476Y-99139714D01*
X166878095Y-98949238D01*
X166973333Y-98854000D01*
X167068571Y-98806380D01*
X167259047Y-98806380D01*
X167354285Y-98854000D01*
X167449523Y-98949238D01*
X167497142Y-99139714D01*
X167497142Y-99473047D01*
X167449523Y-99663523D01*
X167354285Y-99758761D01*
X167259047Y-99806380D01*
X167068571Y-99806380D01*
X167878095Y-98901619D02*
X167925714Y-98854000D01*
X168020952Y-98806380D01*
X168259047Y-98806380D01*
X168354285Y-98854000D01*
X168401904Y-98901619D01*
X168449523Y-98996857D01*
X168449523Y-99092095D01*
X168401904Y-99234952D01*
X167830476Y-99806380D01*
X168449523Y-99806380D01*
%TO.C,R1*%
X165298380Y-90844666D02*
X164822190Y-91178000D01*
X165298380Y-91416095D02*
X164298380Y-91416095D01*
X164298380Y-91035142D01*
X164346000Y-90939904D01*
X164393619Y-90892285D01*
X164488857Y-90844666D01*
X164631714Y-90844666D01*
X164726952Y-90892285D01*
X164774571Y-90939904D01*
X164822190Y-91035142D01*
X164822190Y-91416095D01*
X165298380Y-89892285D02*
X165298380Y-90463714D01*
X165298380Y-90178000D02*
X164298380Y-90178000D01*
X164441238Y-90273238D01*
X164536476Y-90368476D01*
X164584095Y-90463714D01*
%TO.C,R2*%
X170886380Y-90844666D02*
X170410190Y-91178000D01*
X170886380Y-91416095D02*
X169886380Y-91416095D01*
X169886380Y-91035142D01*
X169934000Y-90939904D01*
X169981619Y-90892285D01*
X170076857Y-90844666D01*
X170219714Y-90844666D01*
X170314952Y-90892285D01*
X170362571Y-90939904D01*
X170410190Y-91035142D01*
X170410190Y-91416095D01*
X169981619Y-90463714D02*
X169934000Y-90416095D01*
X169886380Y-90320857D01*
X169886380Y-90082761D01*
X169934000Y-89987523D01*
X169981619Y-89939904D01*
X170076857Y-89892285D01*
X170172095Y-89892285D01*
X170314952Y-89939904D01*
X170886380Y-90511333D01*
X170886380Y-89892285D01*
%TO.C,R3*%
X165298380Y-104560666D02*
X164822190Y-104894000D01*
X165298380Y-105132095D02*
X164298380Y-105132095D01*
X164298380Y-104751142D01*
X164346000Y-104655904D01*
X164393619Y-104608285D01*
X164488857Y-104560666D01*
X164631714Y-104560666D01*
X164726952Y-104608285D01*
X164774571Y-104655904D01*
X164822190Y-104751142D01*
X164822190Y-105132095D01*
X164298380Y-104227333D02*
X164298380Y-103608285D01*
X164679333Y-103941619D01*
X164679333Y-103798761D01*
X164726952Y-103703523D01*
X164774571Y-103655904D01*
X164869809Y-103608285D01*
X165107904Y-103608285D01*
X165203142Y-103655904D01*
X165250761Y-103703523D01*
X165298380Y-103798761D01*
X165298380Y-104084476D01*
X165250761Y-104179714D01*
X165203142Y-104227333D01*
%TO.C,R4*%
X170886380Y-104560666D02*
X170410190Y-104894000D01*
X170886380Y-105132095D02*
X169886380Y-105132095D01*
X169886380Y-104751142D01*
X169934000Y-104655904D01*
X169981619Y-104608285D01*
X170076857Y-104560666D01*
X170219714Y-104560666D01*
X170314952Y-104608285D01*
X170362571Y-104655904D01*
X170410190Y-104751142D01*
X170410190Y-105132095D01*
X170219714Y-103703523D02*
X170886380Y-103703523D01*
X169838761Y-103941619D02*
X170553047Y-104179714D01*
X170553047Y-103560666D01*
%TO.C,R5*%
X139025333Y-107132380D02*
X138692000Y-106656190D01*
X138453904Y-107132380D02*
X138453904Y-106132380D01*
X138834857Y-106132380D01*
X138930095Y-106180000D01*
X138977714Y-106227619D01*
X139025333Y-106322857D01*
X139025333Y-106465714D01*
X138977714Y-106560952D01*
X138930095Y-106608571D01*
X138834857Y-106656190D01*
X138453904Y-106656190D01*
X139930095Y-106132380D02*
X139453904Y-106132380D01*
X139406285Y-106608571D01*
X139453904Y-106560952D01*
X139549142Y-106513333D01*
X139787238Y-106513333D01*
X139882476Y-106560952D01*
X139930095Y-106608571D01*
X139977714Y-106703809D01*
X139977714Y-106941904D01*
X139930095Y-107037142D01*
X139882476Y-107084761D01*
X139787238Y-107132380D01*
X139549142Y-107132380D01*
X139453904Y-107084761D01*
X139406285Y-107037142D01*
%TO.C,R6*%
X151328380Y-99480666D02*
X150852190Y-99814000D01*
X151328380Y-100052095D02*
X150328380Y-100052095D01*
X150328380Y-99671142D01*
X150376000Y-99575904D01*
X150423619Y-99528285D01*
X150518857Y-99480666D01*
X150661714Y-99480666D01*
X150756952Y-99528285D01*
X150804571Y-99575904D01*
X150852190Y-99671142D01*
X150852190Y-100052095D01*
X150328380Y-98623523D02*
X150328380Y-98814000D01*
X150376000Y-98909238D01*
X150423619Y-98956857D01*
X150566476Y-99052095D01*
X150756952Y-99099714D01*
X151137904Y-99099714D01*
X151233142Y-99052095D01*
X151280761Y-99004476D01*
X151328380Y-98909238D01*
X151328380Y-98718761D01*
X151280761Y-98623523D01*
X151233142Y-98575904D01*
X151137904Y-98528285D01*
X150899809Y-98528285D01*
X150804571Y-98575904D01*
X150756952Y-98623523D01*
X150709333Y-98718761D01*
X150709333Y-98909238D01*
X150756952Y-99004476D01*
X150804571Y-99052095D01*
X150899809Y-99099714D01*
%TO.C,R7*%
X180173333Y-131008380D02*
X179840000Y-130532190D01*
X179601904Y-131008380D02*
X179601904Y-130008380D01*
X179982857Y-130008380D01*
X180078095Y-130056000D01*
X180125714Y-130103619D01*
X180173333Y-130198857D01*
X180173333Y-130341714D01*
X180125714Y-130436952D01*
X180078095Y-130484571D01*
X179982857Y-130532190D01*
X179601904Y-130532190D01*
X180506666Y-130008380D02*
X181173333Y-130008380D01*
X180744761Y-131008380D01*
%TO.C,R8*%
X168743333Y-122626380D02*
X168410000Y-122150190D01*
X168171904Y-122626380D02*
X168171904Y-121626380D01*
X168552857Y-121626380D01*
X168648095Y-121674000D01*
X168695714Y-121721619D01*
X168743333Y-121816857D01*
X168743333Y-121959714D01*
X168695714Y-122054952D01*
X168648095Y-122102571D01*
X168552857Y-122150190D01*
X168171904Y-122150190D01*
X169314761Y-122054952D02*
X169219523Y-122007333D01*
X169171904Y-121959714D01*
X169124285Y-121864476D01*
X169124285Y-121816857D01*
X169171904Y-121721619D01*
X169219523Y-121674000D01*
X169314761Y-121626380D01*
X169505238Y-121626380D01*
X169600476Y-121674000D01*
X169648095Y-121721619D01*
X169695714Y-121816857D01*
X169695714Y-121864476D01*
X169648095Y-121959714D01*
X169600476Y-122007333D01*
X169505238Y-122054952D01*
X169314761Y-122054952D01*
X169219523Y-122102571D01*
X169171904Y-122150190D01*
X169124285Y-122245428D01*
X169124285Y-122435904D01*
X169171904Y-122531142D01*
X169219523Y-122578761D01*
X169314761Y-122626380D01*
X169505238Y-122626380D01*
X169600476Y-122578761D01*
X169648095Y-122531142D01*
X169695714Y-122435904D01*
X169695714Y-122245428D01*
X169648095Y-122150190D01*
X169600476Y-122102571D01*
X169505238Y-122054952D01*
%TO.C,R9*%
X168743333Y-123896380D02*
X168410000Y-123420190D01*
X168171904Y-123896380D02*
X168171904Y-122896380D01*
X168552857Y-122896380D01*
X168648095Y-122944000D01*
X168695714Y-122991619D01*
X168743333Y-123086857D01*
X168743333Y-123229714D01*
X168695714Y-123324952D01*
X168648095Y-123372571D01*
X168552857Y-123420190D01*
X168171904Y-123420190D01*
X169219523Y-123896380D02*
X169410000Y-123896380D01*
X169505238Y-123848761D01*
X169552857Y-123801142D01*
X169648095Y-123658285D01*
X169695714Y-123467809D01*
X169695714Y-123086857D01*
X169648095Y-122991619D01*
X169600476Y-122944000D01*
X169505238Y-122896380D01*
X169314761Y-122896380D01*
X169219523Y-122944000D01*
X169171904Y-122991619D01*
X169124285Y-123086857D01*
X169124285Y-123324952D01*
X169171904Y-123420190D01*
X169219523Y-123467809D01*
X169314761Y-123515428D01*
X169505238Y-123515428D01*
X169600476Y-123467809D01*
X169648095Y-123420190D01*
X169695714Y-123324952D01*
%TO.C,R10*%
X138549142Y-108402380D02*
X138215809Y-107926190D01*
X137977714Y-108402380D02*
X137977714Y-107402380D01*
X138358666Y-107402380D01*
X138453904Y-107450000D01*
X138501523Y-107497619D01*
X138549142Y-107592857D01*
X138549142Y-107735714D01*
X138501523Y-107830952D01*
X138453904Y-107878571D01*
X138358666Y-107926190D01*
X137977714Y-107926190D01*
X139501523Y-108402380D02*
X138930095Y-108402380D01*
X139215809Y-108402380D02*
X139215809Y-107402380D01*
X139120571Y-107545238D01*
X139025333Y-107640476D01*
X138930095Y-107688095D01*
X140120571Y-107402380D02*
X140215809Y-107402380D01*
X140311047Y-107450000D01*
X140358666Y-107497619D01*
X140406285Y-107592857D01*
X140453904Y-107783333D01*
X140453904Y-108021428D01*
X140406285Y-108211904D01*
X140358666Y-108307142D01*
X140311047Y-108354761D01*
X140215809Y-108402380D01*
X140120571Y-108402380D01*
X140025333Y-108354761D01*
X139977714Y-108307142D01*
X139930095Y-108211904D01*
X139882476Y-108021428D01*
X139882476Y-107783333D01*
X139930095Y-107592857D01*
X139977714Y-107497619D01*
X140025333Y-107450000D01*
X140120571Y-107402380D01*
%TO.C,R11*%
X138549142Y-115006380D02*
X138215809Y-114530190D01*
X137977714Y-115006380D02*
X137977714Y-114006380D01*
X138358666Y-114006380D01*
X138453904Y-114054000D01*
X138501523Y-114101619D01*
X138549142Y-114196857D01*
X138549142Y-114339714D01*
X138501523Y-114434952D01*
X138453904Y-114482571D01*
X138358666Y-114530190D01*
X137977714Y-114530190D01*
X139501523Y-115006380D02*
X138930095Y-115006380D01*
X139215809Y-115006380D02*
X139215809Y-114006380D01*
X139120571Y-114149238D01*
X139025333Y-114244476D01*
X138930095Y-114292095D01*
X140453904Y-115006380D02*
X139882476Y-115006380D01*
X140168190Y-115006380D02*
X140168190Y-114006380D01*
X140072952Y-114149238D01*
X139977714Y-114244476D01*
X139882476Y-114292095D01*
%TO.C,R12*%
X120848380Y-121546857D02*
X120372190Y-121880190D01*
X120848380Y-122118285D02*
X119848380Y-122118285D01*
X119848380Y-121737333D01*
X119896000Y-121642095D01*
X119943619Y-121594476D01*
X120038857Y-121546857D01*
X120181714Y-121546857D01*
X120276952Y-121594476D01*
X120324571Y-121642095D01*
X120372190Y-121737333D01*
X120372190Y-122118285D01*
X120848380Y-120594476D02*
X120848380Y-121165904D01*
X120848380Y-120880190D02*
X119848380Y-120880190D01*
X119991238Y-120975428D01*
X120086476Y-121070666D01*
X120134095Y-121165904D01*
X119943619Y-120213523D02*
X119896000Y-120165904D01*
X119848380Y-120070666D01*
X119848380Y-119832571D01*
X119896000Y-119737333D01*
X119943619Y-119689714D01*
X120038857Y-119642095D01*
X120134095Y-119642095D01*
X120276952Y-119689714D01*
X120848380Y-120261142D01*
X120848380Y-119642095D01*
%TO.C,R13*%
X122626380Y-121546857D02*
X122150190Y-121880190D01*
X122626380Y-122118285D02*
X121626380Y-122118285D01*
X121626380Y-121737333D01*
X121674000Y-121642095D01*
X121721619Y-121594476D01*
X121816857Y-121546857D01*
X121959714Y-121546857D01*
X122054952Y-121594476D01*
X122102571Y-121642095D01*
X122150190Y-121737333D01*
X122150190Y-122118285D01*
X122626380Y-120594476D02*
X122626380Y-121165904D01*
X122626380Y-120880190D02*
X121626380Y-120880190D01*
X121769238Y-120975428D01*
X121864476Y-121070666D01*
X121912095Y-121165904D01*
X121626380Y-120261142D02*
X121626380Y-119642095D01*
X122007333Y-119975428D01*
X122007333Y-119832571D01*
X122054952Y-119737333D01*
X122102571Y-119689714D01*
X122197809Y-119642095D01*
X122435904Y-119642095D01*
X122531142Y-119689714D01*
X122578761Y-119737333D01*
X122626380Y-119832571D01*
X122626380Y-120118285D01*
X122578761Y-120213523D01*
X122531142Y-120261142D01*
%TO.C,R14*%
X171315142Y-133294380D02*
X170981809Y-132818190D01*
X170743714Y-133294380D02*
X170743714Y-132294380D01*
X171124666Y-132294380D01*
X171219904Y-132342000D01*
X171267523Y-132389619D01*
X171315142Y-132484857D01*
X171315142Y-132627714D01*
X171267523Y-132722952D01*
X171219904Y-132770571D01*
X171124666Y-132818190D01*
X170743714Y-132818190D01*
X172267523Y-133294380D02*
X171696095Y-133294380D01*
X171981809Y-133294380D02*
X171981809Y-132294380D01*
X171886571Y-132437238D01*
X171791333Y-132532476D01*
X171696095Y-132580095D01*
X173124666Y-132627714D02*
X173124666Y-133294380D01*
X172886571Y-132246761D02*
X172648476Y-132961047D01*
X173267523Y-132961047D01*
%TO.C,R15*%
X171315142Y-131262380D02*
X170981809Y-130786190D01*
X170743714Y-131262380D02*
X170743714Y-130262380D01*
X171124666Y-130262380D01*
X171219904Y-130310000D01*
X171267523Y-130357619D01*
X171315142Y-130452857D01*
X171315142Y-130595714D01*
X171267523Y-130690952D01*
X171219904Y-130738571D01*
X171124666Y-130786190D01*
X170743714Y-130786190D01*
X172267523Y-131262380D02*
X171696095Y-131262380D01*
X171981809Y-131262380D02*
X171981809Y-130262380D01*
X171886571Y-130405238D01*
X171791333Y-130500476D01*
X171696095Y-130548095D01*
X173172285Y-130262380D02*
X172696095Y-130262380D01*
X172648476Y-130738571D01*
X172696095Y-130690952D01*
X172791333Y-130643333D01*
X173029428Y-130643333D01*
X173124666Y-130690952D01*
X173172285Y-130738571D01*
X173219904Y-130833809D01*
X173219904Y-131071904D01*
X173172285Y-131167142D01*
X173124666Y-131214761D01*
X173029428Y-131262380D01*
X172791333Y-131262380D01*
X172696095Y-131214761D01*
X172648476Y-131167142D01*
%TO.C,R16*%
X136263142Y-137772380D02*
X135929809Y-137296190D01*
X135691714Y-137772380D02*
X135691714Y-136772380D01*
X136072666Y-136772380D01*
X136167904Y-136820000D01*
X136215523Y-136867619D01*
X136263142Y-136962857D01*
X136263142Y-137105714D01*
X136215523Y-137200952D01*
X136167904Y-137248571D01*
X136072666Y-137296190D01*
X135691714Y-137296190D01*
X137215523Y-137772380D02*
X136644095Y-137772380D01*
X136929809Y-137772380D02*
X136929809Y-136772380D01*
X136834571Y-136915238D01*
X136739333Y-137010476D01*
X136644095Y-137058095D01*
X138072666Y-136772380D02*
X137882190Y-136772380D01*
X137786952Y-136820000D01*
X137739333Y-136867619D01*
X137644095Y-137010476D01*
X137596476Y-137200952D01*
X137596476Y-137581904D01*
X137644095Y-137677142D01*
X137691714Y-137724761D01*
X137786952Y-137772380D01*
X137977428Y-137772380D01*
X138072666Y-137724761D01*
X138120285Y-137677142D01*
X138167904Y-137581904D01*
X138167904Y-137343809D01*
X138120285Y-137248571D01*
X138072666Y-137200952D01*
X137977428Y-137153333D01*
X137786952Y-137153333D01*
X137691714Y-137200952D01*
X137644095Y-137248571D01*
X137596476Y-137343809D01*
%TO.C,R17*%
X133469142Y-109766380D02*
X133135809Y-109290190D01*
X132897714Y-109766380D02*
X132897714Y-108766380D01*
X133278666Y-108766380D01*
X133373904Y-108814000D01*
X133421523Y-108861619D01*
X133469142Y-108956857D01*
X133469142Y-109099714D01*
X133421523Y-109194952D01*
X133373904Y-109242571D01*
X133278666Y-109290190D01*
X132897714Y-109290190D01*
X134421523Y-109766380D02*
X133850095Y-109766380D01*
X134135809Y-109766380D02*
X134135809Y-108766380D01*
X134040571Y-108909238D01*
X133945333Y-109004476D01*
X133850095Y-109052095D01*
X134754857Y-108766380D02*
X135421523Y-108766380D01*
X134992952Y-109766380D01*
%TO.C,R18*%
X168267142Y-96812380D02*
X167933809Y-96336190D01*
X167695714Y-96812380D02*
X167695714Y-95812380D01*
X168076666Y-95812380D01*
X168171904Y-95860000D01*
X168219523Y-95907619D01*
X168267142Y-96002857D01*
X168267142Y-96145714D01*
X168219523Y-96240952D01*
X168171904Y-96288571D01*
X168076666Y-96336190D01*
X167695714Y-96336190D01*
X169219523Y-96812380D02*
X168648095Y-96812380D01*
X168933809Y-96812380D02*
X168933809Y-95812380D01*
X168838571Y-95955238D01*
X168743333Y-96050476D01*
X168648095Y-96098095D01*
X169790952Y-96240952D02*
X169695714Y-96193333D01*
X169648095Y-96145714D01*
X169600476Y-96050476D01*
X169600476Y-96002857D01*
X169648095Y-95907619D01*
X169695714Y-95860000D01*
X169790952Y-95812380D01*
X169981428Y-95812380D01*
X170076666Y-95860000D01*
X170124285Y-95907619D01*
X170171904Y-96002857D01*
X170171904Y-96050476D01*
X170124285Y-96145714D01*
X170076666Y-96193333D01*
X169981428Y-96240952D01*
X169790952Y-96240952D01*
X169695714Y-96288571D01*
X169648095Y-96336190D01*
X169600476Y-96431428D01*
X169600476Y-96621904D01*
X169648095Y-96717142D01*
X169695714Y-96764761D01*
X169790952Y-96812380D01*
X169981428Y-96812380D01*
X170076666Y-96764761D01*
X170124285Y-96717142D01*
X170171904Y-96621904D01*
X170171904Y-96431428D01*
X170124285Y-96336190D01*
X170076666Y-96288571D01*
X169981428Y-96240952D01*
%TO.C,SW1*%
D16*
X130746666Y-90828761D02*
X130889523Y-90876380D01*
X131127619Y-90876380D01*
X131222857Y-90828761D01*
X131270476Y-90781142D01*
X131318095Y-90685904D01*
X131318095Y-90590666D01*
X131270476Y-90495428D01*
X131222857Y-90447809D01*
X131127619Y-90400190D01*
X130937142Y-90352571D01*
X130841904Y-90304952D01*
X130794285Y-90257333D01*
X130746666Y-90162095D01*
X130746666Y-90066857D01*
X130794285Y-89971619D01*
X130841904Y-89924000D01*
X130937142Y-89876380D01*
X131175238Y-89876380D01*
X131318095Y-89924000D01*
X131651428Y-89876380D02*
X131889523Y-90876380D01*
X132080000Y-90162095D01*
X132270476Y-90876380D01*
X132508571Y-89876380D01*
X133413333Y-90876380D02*
X132841904Y-90876380D01*
X133127619Y-90876380D02*
X133127619Y-89876380D01*
X133032380Y-90019238D01*
X132937142Y-90114476D01*
X132841904Y-90162095D01*
%TO.C,U2*%
D11*
X141478095Y-102576380D02*
X141478095Y-103385904D01*
X141525714Y-103481142D01*
X141573333Y-103528761D01*
X141668571Y-103576380D01*
X141859047Y-103576380D01*
X141954285Y-103528761D01*
X142001904Y-103481142D01*
X142049523Y-103385904D01*
X142049523Y-102576380D01*
X142478095Y-102671619D02*
X142525714Y-102624000D01*
X142620952Y-102576380D01*
X142859047Y-102576380D01*
X142954285Y-102624000D01*
X143001904Y-102671619D01*
X143049523Y-102766857D01*
X143049523Y-102862095D01*
X143001904Y-103004952D01*
X142430476Y-103576380D01*
X143049523Y-103576380D01*
%TO.C,U3*%
X122134380Y-110489904D02*
X122943904Y-110489904D01*
X123039142Y-110442285D01*
X123086761Y-110394666D01*
X123134380Y-110299428D01*
X123134380Y-110108952D01*
X123086761Y-110013714D01*
X123039142Y-109966095D01*
X122943904Y-109918476D01*
X122134380Y-109918476D01*
X122134380Y-109537523D02*
X122134380Y-108918476D01*
X122515333Y-109251809D01*
X122515333Y-109108952D01*
X122562952Y-109013714D01*
X122610571Y-108966095D01*
X122705809Y-108918476D01*
X122943904Y-108918476D01*
X123039142Y-108966095D01*
X123086761Y-109013714D01*
X123134380Y-109108952D01*
X123134380Y-109394666D01*
X123086761Y-109489904D01*
X123039142Y-109537523D01*
X125214380Y-117689095D02*
X125214380Y-117117666D01*
X126214380Y-117403380D02*
X125214380Y-117403380D01*
X126166761Y-116831952D02*
X126214380Y-116689095D01*
X126214380Y-116451000D01*
X126166761Y-116355761D01*
X126119142Y-116308142D01*
X126023904Y-116260523D01*
X125928666Y-116260523D01*
X125833428Y-116308142D01*
X125785809Y-116355761D01*
X125738190Y-116451000D01*
X125690571Y-116641476D01*
X125642952Y-116736714D01*
X125595333Y-116784333D01*
X125500095Y-116831952D01*
X125404857Y-116831952D01*
X125309619Y-116784333D01*
X125262000Y-116736714D01*
X125214380Y-116641476D01*
X125214380Y-116403380D01*
X125262000Y-116260523D01*
X126214380Y-115260523D02*
X125738190Y-115593857D01*
X126214380Y-115831952D02*
X125214380Y-115831952D01*
X125214380Y-115451000D01*
X125262000Y-115355761D01*
X125309619Y-115308142D01*
X125404857Y-115260523D01*
X125547714Y-115260523D01*
X125642952Y-115308142D01*
X125690571Y-115355761D01*
X125738190Y-115451000D01*
X125738190Y-115831952D01*
X125309619Y-114879571D02*
X125262000Y-114831952D01*
X125214380Y-114736714D01*
X125214380Y-114498619D01*
X125262000Y-114403380D01*
X125309619Y-114355761D01*
X125404857Y-114308142D01*
X125500095Y-114308142D01*
X125642952Y-114355761D01*
X126214380Y-114927190D01*
X126214380Y-114308142D01*
X128714380Y-110784000D02*
X128952476Y-110784000D01*
X128857238Y-111022095D02*
X128952476Y-110784000D01*
X128857238Y-110545904D01*
X129142952Y-110926857D02*
X128952476Y-110784000D01*
X129142952Y-110641142D01*
%TO.C,U5*%
X117702380Y-134873904D02*
X118511904Y-134873904D01*
X118607142Y-134826285D01*
X118654761Y-134778666D01*
X118702380Y-134683428D01*
X118702380Y-134492952D01*
X118654761Y-134397714D01*
X118607142Y-134350095D01*
X118511904Y-134302476D01*
X117702380Y-134302476D01*
X117702380Y-133350095D02*
X117702380Y-133826285D01*
X118178571Y-133873904D01*
X118130952Y-133826285D01*
X118083333Y-133731047D01*
X118083333Y-133492952D01*
X118130952Y-133397714D01*
X118178571Y-133350095D01*
X118273809Y-133302476D01*
X118511904Y-133302476D01*
X118607142Y-133350095D01*
X118654761Y-133397714D01*
X118702380Y-133492952D01*
X118702380Y-133731047D01*
X118654761Y-133826285D01*
X118607142Y-133873904D01*
%TO.C,U6*%
X133350095Y-123404380D02*
X133350095Y-124213904D01*
X133397714Y-124309142D01*
X133445333Y-124356761D01*
X133540571Y-124404380D01*
X133731047Y-124404380D01*
X133826285Y-124356761D01*
X133873904Y-124309142D01*
X133921523Y-124213904D01*
X133921523Y-123404380D01*
X134826285Y-123404380D02*
X134635809Y-123404380D01*
X134540571Y-123452000D01*
X134492952Y-123499619D01*
X134397714Y-123642476D01*
X134350095Y-123832952D01*
X134350095Y-124213904D01*
X134397714Y-124309142D01*
X134445333Y-124356761D01*
X134540571Y-124404380D01*
X134731047Y-124404380D01*
X134826285Y-124356761D01*
X134873904Y-124309142D01*
X134921523Y-124213904D01*
X134921523Y-123975809D01*
X134873904Y-123880571D01*
X134826285Y-123832952D01*
X134731047Y-123785333D01*
X134540571Y-123785333D01*
X134445333Y-123832952D01*
X134397714Y-123880571D01*
X134350095Y-123975809D01*
%TO.C,Y1*%
X150852190Y-120618190D02*
X151328380Y-120618190D01*
X150328380Y-120951523D02*
X150852190Y-120618190D01*
X150328380Y-120284857D01*
X151328380Y-119427714D02*
X151328380Y-119999142D01*
X151328380Y-119713428D02*
X150328380Y-119713428D01*
X150471238Y-119808666D01*
X150566476Y-119903904D01*
X150614095Y-119999142D01*
%TD*%
M02*
