M48
; DRILL file {KiCad (5.1.7)-1} date 12/22/20 10:31:35
; FORMAT={-:-/ absolute / inch / decimal}
; #@! TF.CreationDate,2020-12-22T10:31:35-06:00
; #@! TF.GenerationSoftware,Kicad,Pcbnew,(5.1.7)-1
; #@! TF.FileFunction,Plated,1,4,PTH
FMAT,2
INCH
T1C0.0100
T2C0.0280
T3C0.0315
T4C0.0394
T5C0.0689
%
G90
G05
T1
X4.67Y-5.13
X4.67Y-5.2
X4.67Y-5.42
X4.74Y-4.5
X4.74Y-4.8
X4.7489Y-4.9511
X4.81Y-4.522
X4.81Y-4.8
X4.81Y-5.64
X4.97Y-5.64
X5.08Y-5.62
X5.12Y-5.64
X5.15Y-4.94
X5.2Y-4.45
X5.2Y-4.56
X5.2Y-4.64
X5.21Y-4.36
X5.28Y-4.87
X5.28Y-5.64
X5.3Y-3.55
X5.34Y-5.13
X5.34Y-5.43
X5.36Y-4.56
X5.36Y-4.64
X5.37Y-3.88
X5.37Y-4.45
X5.4Y-4.31
X5.4Y-4.38
X5.4Y-4.68
X5.4Y-4.86
X5.42Y-5.3
X5.49Y-3.71
X5.51Y-4.26
X5.68Y-4.55
X5.7Y-5.28
X5.71Y-4.56
X5.71Y-4.62
X5.73Y-4.4
X5.76Y-4.2
X5.78Y-3.93
X5.79Y-4.4
X5.81Y-4.89
X5.82Y-4.05
X5.86Y-3.93
X5.87Y-4.56
X6.0Y-4.31
X6.01Y-4.35
X6.01Y-4.61
X6.02Y-3.91
X6.02Y-4.38
X6.02Y-5.25
X6.04Y-4.1
X6.042Y-4.45
X6.05Y-4.22
X6.05Y-4.41
X6.06Y-5.19
X6.38Y-4.11
X6.38Y-4.79
X6.44Y-3.89
X6.44Y-4.04
X6.49Y-3.59
X6.49Y-3.93
X6.57Y-3.85
X6.6Y-5.6
X6.75Y-3.85
X6.76Y-3.65
X6.76Y-3.91
X6.76Y-4.01
X6.82Y-4.11
X6.9Y-4.92
X7.24Y-4.36
X7.24Y-5.27
T2
X5.03Y-4.46
X5.03Y-4.56
X5.03Y-4.66
T3
X6.4869Y-4.6013
X6.4869Y-4.6801
X6.4869Y-4.7588
X6.4869Y-4.8376
X6.4869Y-4.9163
X6.4869Y-4.995
X6.4869Y-5.0738
X6.4869Y-5.1525
X6.4869Y-5.2313
X6.4869Y-5.31
X7.3531Y-4.6013
X7.3531Y-4.6801
X7.3531Y-4.7588
X7.3531Y-4.8376
X7.3531Y-4.9163
X7.3531Y-4.995
X7.3531Y-5.0738
X7.3531Y-5.1525
X7.3531Y-5.2313
X7.3531Y-5.31
T4
X4.81Y-3.52
X4.91Y-3.52
X6.19Y-4.21
X6.19Y-4.31
X6.19Y-4.41
X6.29Y-4.21
X6.29Y-4.31
X6.29Y-4.41
T5
X5.0271Y-3.93
X5.0271Y-4.1111
T0
M30
