%TF.GenerationSoftware,KiCad,Pcbnew,(5.1.7)-1*%
%TF.CreationDate,2020-12-22T10:31:33-06:00*%
%TF.ProjectId,tracker,74726163-6b65-4722-9e6b-696361645f70,1.0*%
%TF.SameCoordinates,Original*%
%TF.FileFunction,Copper,L4,Bot*%
%TF.FilePolarity,Positive*%
%FSLAX46Y46*%
G04 Gerber Fmt 4.6, Leading zero omitted, Abs format (unit mm)*
G04 Created by KiCad (PCBNEW (5.1.7)-1) date 2020-12-22 10:31:33*
%MOMM*%
%LPD*%
G01*
G04 APERTURE LIST*
%TA.AperFunction,SMDPad,CuDef*%
%ADD10R,3.000000X2.100000*%
%TD*%
%TA.AperFunction,SMDPad,CuDef*%
%ADD11R,1.300000X0.800000*%
%TD*%
%TA.AperFunction,ComponentPad*%
%ADD12R,1.700000X1.700000*%
%TD*%
%TA.AperFunction,ComponentPad*%
%ADD13O,1.700000X1.700000*%
%TD*%
%TA.AperFunction,ComponentPad*%
%ADD14R,2.625000X2.625000*%
%TD*%
%TA.AperFunction,ComponentPad*%
%ADD15C,2.625000*%
%TD*%
%TA.AperFunction,ComponentPad*%
%ADD16R,1.350000X1.350000*%
%TD*%
%TA.AperFunction,ComponentPad*%
%ADD17O,1.350000X1.350000*%
%TD*%
%TA.AperFunction,ComponentPad*%
%ADD18C,1.219200*%
%TD*%
%TA.AperFunction,ViaPad*%
%ADD19C,0.508000*%
%TD*%
%TA.AperFunction,Conductor*%
%ADD20C,0.304800*%
%TD*%
%TA.AperFunction,Conductor*%
%ADD21C,0.152400*%
%TD*%
%TA.AperFunction,Conductor*%
%ADD22C,0.635000*%
%TD*%
%TA.AperFunction,Conductor*%
%ADD23C,2.540000*%
%TD*%
G04 APERTURE END LIST*
D10*
%TO.P,J1,*%
%TO.N,*%
X177202000Y-105977000D03*
X177202000Y-91127000D03*
D11*
%TO.P,J1,10*%
%TO.N,RB_GND*%
X174752000Y-104267000D03*
%TO.P,J1,9*%
%TO.N,N/C*%
X174752000Y-102997000D03*
%TO.P,J1,8*%
%TO.N,RB_5V*%
X174752000Y-101727000D03*
%TO.P,J1,7*%
%TO.N,N/C*%
X174752000Y-100457000D03*
%TO.P,J1,6*%
%TO.N,RB_RXI*%
X174752000Y-99187000D03*
%TO.P,J1,5*%
%TO.N,N/C*%
X174752000Y-97917000D03*
%TO.P,J1,4*%
%TO.N,RB_NetAv*%
X174752000Y-96647000D03*
%TO.P,J1,3*%
%TO.N,N/C*%
X174752000Y-95377000D03*
%TO.P,J1,2*%
X174752000Y-94107000D03*
%TO.P,J1,1*%
%TO.N,RB_TXO*%
X174752000Y-92837000D03*
%TD*%
D12*
%TO.P,J2,1*%
%TO.N,MISO*%
X157226000Y-106934000D03*
D13*
%TO.P,J2,2*%
%TO.N,SCK*%
X159766000Y-106934000D03*
%TO.P,J2,3*%
%TO.N,RESET*%
X157226000Y-109474000D03*
%TO.P,J2,4*%
%TO.N,RB_GND*%
X159766000Y-109474000D03*
%TO.P,J2,5*%
%TO.N,MOSI*%
X157226000Y-112014000D03*
%TO.P,J2,6*%
%TO.N,+3V3*%
X159766000Y-112014000D03*
%TD*%
%TO.P,J4,2*%
%TO.N,Net-(J3-Pad1)*%
X124714000Y-89408000D03*
D12*
%TO.P,J4,1*%
%TO.N,RB_GND*%
X122174000Y-89408000D03*
%TD*%
D14*
%TO.P,SW1,1*%
%TO.N,Net-(J3-Pad1)*%
X127688000Y-104422000D03*
D15*
%TO.P,SW1,2*%
%TO.N,Net-(C10-Pad1)*%
X127688000Y-99822000D03*
%TD*%
D16*
%TO.P,U1,1*%
%TO.N,+3V3*%
X164768000Y-134874000D03*
D17*
%TO.P,U1,20*%
%TO.N,N/C*%
X186768000Y-134874000D03*
%TO.P,U1,2*%
%TO.N,XBee_to_Uc*%
X164768000Y-132874000D03*
%TO.P,U1,19*%
%TO.N,N/C*%
X186768000Y-132874000D03*
%TO.P,U1,3*%
%TO.N,XBee_from_Uc*%
X164768000Y-130874000D03*
%TO.P,U1,18*%
%TO.N,N/C*%
X186768000Y-130874000D03*
%TO.P,U1,4*%
X164768000Y-128874000D03*
%TO.P,U1,17*%
%TO.N,Net-(R7-Pad2)*%
X186768000Y-128874000D03*
%TO.P,U1,5*%
%TO.N,N/C*%
X164768000Y-126874000D03*
%TO.P,U1,16*%
X186768000Y-126874000D03*
%TO.P,U1,6*%
%TO.N,Net-(R8-Pad1)*%
X164768000Y-124874000D03*
%TO.P,U1,15*%
%TO.N,Net-(R9-Pad1)*%
X186768000Y-124874000D03*
%TO.P,U1,7*%
%TO.N,N/C*%
X164768000Y-122874000D03*
%TO.P,U1,14*%
X186768000Y-122874000D03*
%TO.P,U1,8*%
X164768000Y-120874000D03*
%TO.P,U1,13*%
X186768000Y-120874000D03*
%TO.P,U1,9*%
X164768000Y-118874000D03*
%TO.P,U1,12*%
X186768000Y-118874000D03*
%TO.P,U1,10*%
%TO.N,RB_GND*%
X164768000Y-116874000D03*
%TO.P,U1,11*%
%TO.N,N/C*%
X186768000Y-116874000D03*
%TD*%
D18*
%TO.P,U3,3*%
%TO.N,RB_5V*%
X127762000Y-118364000D03*
%TO.P,U3,2*%
%TO.N,RB_GND*%
X127762000Y-115824000D03*
%TO.P,U3,1*%
%TO.N,Net-(F1-Pad1)*%
X127762000Y-113284000D03*
%TD*%
D19*
%TO.N,RB_GND*%
X146812000Y-99822000D03*
X148844000Y-99822000D03*
X153416000Y-104140000D03*
X132080000Y-113030000D03*
X137160000Y-118872000D03*
X136144000Y-117856000D03*
X136144000Y-115824000D03*
X130810000Y-125476000D03*
X135636000Y-130302000D03*
X118618000Y-130302000D03*
X118618000Y-137668000D03*
X122174000Y-143256000D03*
X130048000Y-143256000D03*
X135636000Y-137922000D03*
X175260000Y-124968000D03*
X167640000Y-142240000D03*
X173228000Y-104394000D03*
X145034000Y-117348000D03*
X152654000Y-117094000D03*
X146304000Y-106680000D03*
X147574000Y-124206000D03*
X145542000Y-111760000D03*
X147066000Y-111760000D03*
X134112000Y-123698000D03*
X134620000Y-90170000D03*
X129032000Y-142748000D03*
X120623118Y-125756882D03*
%TO.N,+3V3*%
X137160000Y-109474000D03*
X132334000Y-110744000D03*
X118618000Y-132080000D03*
X134112000Y-143256000D03*
X126238000Y-143256000D03*
X137668000Y-134620000D03*
X164846000Y-91186000D03*
X166878000Y-97790000D03*
X164846000Y-99822000D03*
X145034000Y-115824000D03*
X149098000Y-115824000D03*
X132080000Y-115824000D03*
X132080000Y-117856000D03*
X147828000Y-102870000D03*
%TO.N,RESET*%
X152400000Y-109474000D03*
X139954000Y-108204000D03*
X183896000Y-110744000D03*
X183896000Y-133858000D03*
%TO.N,RB_5V*%
X171704000Y-101854000D03*
X137160000Y-123444000D03*
X162052000Y-121666000D03*
X162052000Y-104394000D03*
%TO.N,RB_RXI*%
X171704000Y-99314000D03*
%TO.N,RB_NetAv*%
X171450000Y-97790000D03*
X152654000Y-110490000D03*
X152908000Y-99314000D03*
%TO.N,RB_TXO*%
X171704000Y-92710000D03*
%TO.N,MOSI*%
X153670000Y-107188000D03*
X153670000Y-112014000D03*
%TO.N,RB_TXO_3V3*%
X139446000Y-94234000D03*
X137160000Y-111252000D03*
%TO.N,RB_RXI_3V3*%
X163576000Y-102616000D03*
X163576000Y-98806000D03*
X136398000Y-98552000D03*
X136398000Y-113030000D03*
%TO.N,Net-(R12-Pad2)*%
X120396000Y-121920000D03*
X120396000Y-114300000D03*
%TO.N,Net-(R13-Pad2)*%
X122174000Y-121920000D03*
X122174000Y-114858800D03*
%TO.N,Net-(R14-Pad2)*%
X144780000Y-134112000D03*
X144272000Y-115570000D03*
%TO.N,Net-(R15-Pad2)*%
X153466800Y-113030000D03*
X153924000Y-131826000D03*
%TO.N,GPS_PPS*%
X152908000Y-133350000D03*
X152908000Y-111252000D03*
%TD*%
D20*
%TO.N,RB_GND*%
X173355000Y-104267000D02*
X173228000Y-104394000D01*
X174752000Y-104267000D02*
X173355000Y-104267000D01*
D21*
%TO.N,RESET*%
X141224000Y-109474000D02*
X139954000Y-108204000D01*
X152400000Y-109474000D02*
X141224000Y-109474000D01*
X183896000Y-110744000D02*
X183896000Y-133858000D01*
D20*
%TO.N,RB_5V*%
X174625000Y-101854000D02*
X174752000Y-101727000D01*
X171704000Y-101854000D02*
X174625000Y-101854000D01*
D22*
X162052000Y-121666000D02*
X162052000Y-104394000D01*
D20*
%TO.N,RB_RXI*%
X171831000Y-99187000D02*
X171704000Y-99314000D01*
X174752000Y-99187000D02*
X171831000Y-99187000D01*
%TO.N,RB_NetAv*%
X172593000Y-96647000D02*
X174752000Y-96647000D01*
X171450000Y-97790000D02*
X172593000Y-96647000D01*
D21*
X152908000Y-110236000D02*
X152908000Y-99314000D01*
X152654000Y-110490000D02*
X152908000Y-110236000D01*
D20*
%TO.N,RB_TXO*%
X171831000Y-92837000D02*
X171704000Y-92710000D01*
X174752000Y-92837000D02*
X171831000Y-92837000D01*
D21*
%TO.N,MOSI*%
X153670000Y-107188000D02*
X153670000Y-112014000D01*
D23*
%TO.N,Net-(J3-Pad1)*%
X124714000Y-101448000D02*
X127688000Y-104422000D01*
X124714000Y-89408000D02*
X124714000Y-101448000D01*
D20*
%TO.N,RB_TXO_3V3*%
X139446000Y-94234000D02*
X138938000Y-94742000D01*
X138938000Y-94742000D02*
X138938000Y-110490000D01*
X138176000Y-111252000D02*
X137160000Y-111252000D01*
X138938000Y-110490000D02*
X138176000Y-111252000D01*
%TO.N,RB_RXI_3V3*%
X163576000Y-102616000D02*
X163576000Y-98806000D01*
X136398000Y-98552000D02*
X136398000Y-113030000D01*
%TO.N,Net-(R12-Pad2)*%
X120396000Y-121920000D02*
X120396000Y-114300000D01*
%TO.N,Net-(R13-Pad2)*%
X122174000Y-121920000D02*
X122174000Y-114858800D01*
%TO.N,Net-(R14-Pad2)*%
X144272000Y-133604000D02*
X144272000Y-115570000D01*
X144780000Y-134112000D02*
X144272000Y-133604000D01*
%TO.N,Net-(R15-Pad2)*%
X153466800Y-113030000D02*
X153670011Y-113233211D01*
X153670011Y-131572011D02*
X153924000Y-131826000D01*
X153670011Y-113233211D02*
X153670011Y-131572011D01*
%TO.N,GPS_PPS*%
X153212801Y-116840000D02*
X152908000Y-116535199D01*
X153212801Y-133045199D02*
X153212801Y-116840000D01*
X152908000Y-116535199D02*
X152908000Y-111252000D01*
X152908000Y-133350000D02*
X153212801Y-133045199D01*
%TD*%
M02*
