%TF.GenerationSoftware,KiCad,Pcbnew,(5.1.7)-1*%
%TF.CreationDate,2020-12-22T10:31:33-06:00*%
%TF.ProjectId,tracker,74726163-6b65-4722-9e6b-696361645f70,1.0*%
%TF.SameCoordinates,Original*%
%TF.FileFunction,Copper,L3,Inr*%
%TF.FilePolarity,Positive*%
%FSLAX46Y46*%
G04 Gerber Fmt 4.6, Leading zero omitted, Abs format (unit mm)*
G04 Created by KiCad (PCBNEW (5.1.7)-1) date 2020-12-22 10:31:33*
%MOMM*%
%LPD*%
G01*
G04 APERTURE LIST*
%TA.AperFunction,ComponentPad*%
%ADD10R,1.700000X1.700000*%
%TD*%
%TA.AperFunction,ComponentPad*%
%ADD11O,1.700000X1.700000*%
%TD*%
%TA.AperFunction,ComponentPad*%
%ADD12R,2.625000X2.625000*%
%TD*%
%TA.AperFunction,ComponentPad*%
%ADD13C,2.625000*%
%TD*%
%TA.AperFunction,ComponentPad*%
%ADD14R,1.350000X1.350000*%
%TD*%
%TA.AperFunction,ComponentPad*%
%ADD15O,1.350000X1.350000*%
%TD*%
%TA.AperFunction,ComponentPad*%
%ADD16C,1.219200*%
%TD*%
%TA.AperFunction,ViaPad*%
%ADD17C,0.508000*%
%TD*%
%TA.AperFunction,Conductor*%
%ADD18C,0.254000*%
%TD*%
%TA.AperFunction,Conductor*%
%ADD19C,0.100000*%
%TD*%
G04 APERTURE END LIST*
D10*
%TO.N,MISO*%
%TO.C,J2*%
X157226000Y-106934000D03*
D11*
%TO.N,SCK*%
X159766000Y-106934000D03*
%TO.N,RESET*%
X157226000Y-109474000D03*
%TO.N,RB_GND*%
X159766000Y-109474000D03*
%TO.N,MOSI*%
X157226000Y-112014000D03*
%TO.N,+3V3*%
X159766000Y-112014000D03*
%TD*%
%TO.N,Net-(J3-Pad1)*%
%TO.C,J4*%
X124714000Y-89408000D03*
D10*
%TO.N,RB_GND*%
X122174000Y-89408000D03*
%TD*%
D12*
%TO.N,Net-(J3-Pad1)*%
%TO.C,SW1*%
X127688000Y-104422000D03*
D13*
%TO.N,Net-(C10-Pad1)*%
X127688000Y-99822000D03*
%TD*%
D14*
%TO.N,+3V3*%
%TO.C,U1*%
X164768000Y-134874000D03*
D15*
%TO.N,N/C*%
X186768000Y-134874000D03*
%TO.N,XBee_to_Uc*%
X164768000Y-132874000D03*
%TO.N,N/C*%
X186768000Y-132874000D03*
%TO.N,XBee_from_Uc*%
X164768000Y-130874000D03*
%TO.N,N/C*%
X186768000Y-130874000D03*
X164768000Y-128874000D03*
%TO.N,Net-(R7-Pad2)*%
X186768000Y-128874000D03*
%TO.N,N/C*%
X164768000Y-126874000D03*
X186768000Y-126874000D03*
%TO.N,Net-(R8-Pad1)*%
X164768000Y-124874000D03*
%TO.N,Net-(R9-Pad1)*%
X186768000Y-124874000D03*
%TO.N,N/C*%
X164768000Y-122874000D03*
X186768000Y-122874000D03*
X164768000Y-120874000D03*
X186768000Y-120874000D03*
X164768000Y-118874000D03*
X186768000Y-118874000D03*
%TO.N,RB_GND*%
X164768000Y-116874000D03*
%TO.N,N/C*%
X186768000Y-116874000D03*
%TD*%
D16*
%TO.N,RB_5V*%
%TO.C,U3*%
X127762000Y-118364000D03*
%TO.N,RB_GND*%
X127762000Y-115824000D03*
%TO.N,Net-(F1-Pad1)*%
X127762000Y-113284000D03*
%TD*%
D17*
%TO.N,RB_GND*%
X146812000Y-99822000D03*
X148844000Y-99822000D03*
X153416000Y-104140000D03*
X132080000Y-113030000D03*
X137160000Y-118872000D03*
X136144000Y-117856000D03*
X136144000Y-115824000D03*
X130810000Y-125476000D03*
X135636000Y-130302000D03*
X118618000Y-130302000D03*
X118618000Y-137668000D03*
X122174000Y-143256000D03*
X130048000Y-143256000D03*
X135636000Y-137922000D03*
X175260000Y-124968000D03*
X167640000Y-142240000D03*
X173228000Y-104394000D03*
X145034000Y-117348000D03*
X152654000Y-117094000D03*
X146304000Y-106680000D03*
X147574000Y-124206000D03*
X145542000Y-111760000D03*
X147066000Y-111760000D03*
X134112000Y-123698000D03*
X134620000Y-90170000D03*
X129032000Y-142748000D03*
X120623118Y-125756882D03*
%TO.N,+3V3*%
X137160000Y-109474000D03*
X132334000Y-110744000D03*
X118618000Y-132080000D03*
X134112000Y-143256000D03*
X126238000Y-143256000D03*
X137668000Y-134620000D03*
X164846000Y-91186000D03*
X166878000Y-97790000D03*
X164846000Y-99822000D03*
X145034000Y-115824000D03*
X149098000Y-115824000D03*
X132080000Y-115824000D03*
X132080000Y-117856000D03*
X147828000Y-102870000D03*
%TO.N,RESET*%
X152400000Y-109474000D03*
X139954000Y-108204000D03*
X183896000Y-110744000D03*
X183896000Y-133858000D03*
%TO.N,RB_5V*%
X171704000Y-101854000D03*
X137160000Y-123444000D03*
X162052000Y-121666000D03*
X162052000Y-104394000D03*
%TO.N,RB_RXI*%
X171704000Y-99314000D03*
%TO.N,RB_NetAv*%
X171450000Y-97790000D03*
X152654000Y-110490000D03*
X152908000Y-99314000D03*
%TO.N,RB_TXO*%
X171704000Y-92710000D03*
%TO.N,MOSI*%
X153670000Y-107188000D03*
X153670000Y-112014000D03*
%TO.N,RB_TXO_3V3*%
X139446000Y-94234000D03*
X137160000Y-111252000D03*
%TO.N,RB_RXI_3V3*%
X163576000Y-102616000D03*
X163576000Y-98806000D03*
X136398000Y-98552000D03*
X136398000Y-113030000D03*
%TO.N,Net-(R12-Pad2)*%
X120396000Y-121920000D03*
X120396000Y-114300000D03*
%TO.N,Net-(R13-Pad2)*%
X122174000Y-121920000D03*
X122174000Y-114858800D03*
%TO.N,Net-(R14-Pad2)*%
X144780000Y-134112000D03*
X144272000Y-115570000D03*
%TO.N,Net-(R15-Pad2)*%
X153466800Y-113030000D03*
X153924000Y-131826000D03*
%TO.N,GPS_PPS*%
X152908000Y-133350000D03*
X152908000Y-111252000D03*
%TD*%
D18*
%TO.N,RB_GND*%
X120734498Y-88313820D02*
X120698188Y-88433518D01*
X120685928Y-88558000D01*
X120689000Y-89122250D01*
X120847750Y-89281000D01*
X122047000Y-89281000D01*
X122047000Y-89261000D01*
X122301000Y-89261000D01*
X122301000Y-89281000D01*
X122321000Y-89281000D01*
X122321000Y-89535000D01*
X122301000Y-89535000D01*
X122301000Y-90734250D01*
X122459750Y-90893000D01*
X123024000Y-90896072D01*
X123148482Y-90883812D01*
X123268180Y-90847502D01*
X123378494Y-90788537D01*
X123475185Y-90709185D01*
X123554537Y-90612494D01*
X123613502Y-90502180D01*
X123635513Y-90429620D01*
X123767368Y-90561475D01*
X124010589Y-90723990D01*
X124280842Y-90835932D01*
X124567740Y-90893000D01*
X124860260Y-90893000D01*
X125147158Y-90835932D01*
X125417411Y-90723990D01*
X125660632Y-90561475D01*
X125867475Y-90354632D01*
X126029990Y-90111411D01*
X126141932Y-89841158D01*
X126199000Y-89554260D01*
X126199000Y-89261740D01*
X126141932Y-88974842D01*
X126029990Y-88704589D01*
X125867475Y-88461368D01*
X125696107Y-88290000D01*
X189840001Y-88290000D01*
X189840000Y-144120000D01*
X134325242Y-144120000D01*
X134371312Y-144110836D01*
X134533099Y-144043821D01*
X134678704Y-143946531D01*
X134802531Y-143822704D01*
X134899821Y-143677099D01*
X134966836Y-143515312D01*
X135001000Y-143343559D01*
X135001000Y-143168441D01*
X134966836Y-142996688D01*
X134899821Y-142834901D01*
X134802531Y-142689296D01*
X134678704Y-142565469D01*
X134533099Y-142468179D01*
X134371312Y-142401164D01*
X134199559Y-142367000D01*
X134024441Y-142367000D01*
X133852688Y-142401164D01*
X133690901Y-142468179D01*
X133545296Y-142565469D01*
X133421469Y-142689296D01*
X133324179Y-142834901D01*
X133257164Y-142996688D01*
X133223000Y-143168441D01*
X133223000Y-143343559D01*
X133257164Y-143515312D01*
X133324179Y-143677099D01*
X133421469Y-143822704D01*
X133545296Y-143946531D01*
X133690901Y-144043821D01*
X133852688Y-144110836D01*
X133898758Y-144120000D01*
X126451242Y-144120000D01*
X126497312Y-144110836D01*
X126659099Y-144043821D01*
X126804704Y-143946531D01*
X126928531Y-143822704D01*
X127025821Y-143677099D01*
X127092836Y-143515312D01*
X127127000Y-143343559D01*
X127127000Y-143168441D01*
X127092836Y-142996688D01*
X127025821Y-142834901D01*
X126928531Y-142689296D01*
X126804704Y-142565469D01*
X126659099Y-142468179D01*
X126497312Y-142401164D01*
X126325559Y-142367000D01*
X126150441Y-142367000D01*
X125978688Y-142401164D01*
X125816901Y-142468179D01*
X125671296Y-142565469D01*
X125547469Y-142689296D01*
X125450179Y-142834901D01*
X125383164Y-142996688D01*
X125349000Y-143168441D01*
X125349000Y-143343559D01*
X125383164Y-143515312D01*
X125450179Y-143677099D01*
X125547469Y-143822704D01*
X125671296Y-143946531D01*
X125816901Y-144043821D01*
X125978688Y-144110836D01*
X126024758Y-144120000D01*
X112420000Y-144120000D01*
X112420000Y-141257872D01*
X112827000Y-141257872D01*
X112827000Y-141698128D01*
X112912890Y-142129925D01*
X113081369Y-142536669D01*
X113325962Y-142902729D01*
X113637271Y-143214038D01*
X114003331Y-143458631D01*
X114410075Y-143627110D01*
X114841872Y-143713000D01*
X115282128Y-143713000D01*
X115713925Y-143627110D01*
X116120669Y-143458631D01*
X116486729Y-143214038D01*
X116798038Y-142902729D01*
X117042631Y-142536669D01*
X117211110Y-142129925D01*
X117297000Y-141698128D01*
X117297000Y-141257872D01*
X184963000Y-141257872D01*
X184963000Y-141698128D01*
X185048890Y-142129925D01*
X185217369Y-142536669D01*
X185461962Y-142902729D01*
X185773271Y-143214038D01*
X186139331Y-143458631D01*
X186546075Y-143627110D01*
X186977872Y-143713000D01*
X187418128Y-143713000D01*
X187849925Y-143627110D01*
X188256669Y-143458631D01*
X188622729Y-143214038D01*
X188934038Y-142902729D01*
X189178631Y-142536669D01*
X189347110Y-142129925D01*
X189433000Y-141698128D01*
X189433000Y-141257872D01*
X189347110Y-140826075D01*
X189178631Y-140419331D01*
X188934038Y-140053271D01*
X188622729Y-139741962D01*
X188256669Y-139497369D01*
X187849925Y-139328890D01*
X187418128Y-139243000D01*
X186977872Y-139243000D01*
X186546075Y-139328890D01*
X186139331Y-139497369D01*
X185773271Y-139741962D01*
X185461962Y-140053271D01*
X185217369Y-140419331D01*
X185048890Y-140826075D01*
X184963000Y-141257872D01*
X117297000Y-141257872D01*
X117211110Y-140826075D01*
X117042631Y-140419331D01*
X116798038Y-140053271D01*
X116486729Y-139741962D01*
X116120669Y-139497369D01*
X115713925Y-139328890D01*
X115282128Y-139243000D01*
X114841872Y-139243000D01*
X114410075Y-139328890D01*
X114003331Y-139497369D01*
X113637271Y-139741962D01*
X113325962Y-140053271D01*
X113081369Y-140419331D01*
X112912890Y-140826075D01*
X112827000Y-141257872D01*
X112420000Y-141257872D01*
X112420000Y-136694439D01*
X148575000Y-136694439D01*
X148575000Y-136947561D01*
X148624381Y-137195821D01*
X148721247Y-137429676D01*
X148861875Y-137640140D01*
X149040860Y-137819125D01*
X149251324Y-137959753D01*
X149485179Y-138056619D01*
X149733439Y-138106000D01*
X149986561Y-138106000D01*
X150234821Y-138056619D01*
X150468676Y-137959753D01*
X150679140Y-137819125D01*
X150858125Y-137640140D01*
X150998753Y-137429676D01*
X151095619Y-137195821D01*
X151145000Y-136947561D01*
X151145000Y-136694439D01*
X151095619Y-136446179D01*
X150998753Y-136212324D01*
X150858125Y-136001860D01*
X150679140Y-135822875D01*
X150468676Y-135682247D01*
X150234821Y-135585381D01*
X149986561Y-135536000D01*
X149733439Y-135536000D01*
X149485179Y-135585381D01*
X149251324Y-135682247D01*
X149040860Y-135822875D01*
X148861875Y-136001860D01*
X148721247Y-136212324D01*
X148624381Y-136446179D01*
X148575000Y-136694439D01*
X112420000Y-136694439D01*
X112420000Y-134532441D01*
X136779000Y-134532441D01*
X136779000Y-134707559D01*
X136813164Y-134879312D01*
X136880179Y-135041099D01*
X136977469Y-135186704D01*
X137101296Y-135310531D01*
X137246901Y-135407821D01*
X137408688Y-135474836D01*
X137580441Y-135509000D01*
X137755559Y-135509000D01*
X137927312Y-135474836D01*
X138089099Y-135407821D01*
X138234704Y-135310531D01*
X138358531Y-135186704D01*
X138455821Y-135041099D01*
X138522836Y-134879312D01*
X138557000Y-134707559D01*
X138557000Y-134532441D01*
X138522836Y-134360688D01*
X138455821Y-134198901D01*
X138358531Y-134053296D01*
X138329676Y-134024441D01*
X143891000Y-134024441D01*
X143891000Y-134199559D01*
X143925164Y-134371312D01*
X143992179Y-134533099D01*
X144089469Y-134678704D01*
X144213296Y-134802531D01*
X144358901Y-134899821D01*
X144520688Y-134966836D01*
X144692441Y-135001000D01*
X144867559Y-135001000D01*
X145039312Y-134966836D01*
X145201099Y-134899821D01*
X145346704Y-134802531D01*
X145470531Y-134678704D01*
X145567821Y-134533099D01*
X145634836Y-134371312D01*
X145669000Y-134199559D01*
X145669000Y-134024441D01*
X145634836Y-133852688D01*
X145567821Y-133690901D01*
X145470531Y-133545296D01*
X145346704Y-133421469D01*
X145201099Y-133324179D01*
X145052052Y-133262441D01*
X152019000Y-133262441D01*
X152019000Y-133437559D01*
X152053164Y-133609312D01*
X152120179Y-133771099D01*
X152217469Y-133916704D01*
X152341296Y-134040531D01*
X152486901Y-134137821D01*
X152648688Y-134204836D01*
X152820441Y-134239000D01*
X152995559Y-134239000D01*
X153167312Y-134204836D01*
X153181401Y-134199000D01*
X163454928Y-134199000D01*
X163454928Y-135549000D01*
X163467188Y-135673482D01*
X163503498Y-135793180D01*
X163562463Y-135903494D01*
X163641815Y-136000185D01*
X163738506Y-136079537D01*
X163848820Y-136138502D01*
X163968518Y-136174812D01*
X164093000Y-136187072D01*
X165443000Y-136187072D01*
X165567482Y-136174812D01*
X165687180Y-136138502D01*
X165797494Y-136079537D01*
X165894185Y-136000185D01*
X165973537Y-135903494D01*
X166032502Y-135793180D01*
X166068812Y-135673482D01*
X166081072Y-135549000D01*
X166081072Y-134199000D01*
X166068812Y-134074518D01*
X166032502Y-133954820D01*
X165973537Y-133844506D01*
X165912754Y-133770441D01*
X183007000Y-133770441D01*
X183007000Y-133945559D01*
X183041164Y-134117312D01*
X183108179Y-134279099D01*
X183205469Y-134424704D01*
X183329296Y-134548531D01*
X183474901Y-134645821D01*
X183636688Y-134712836D01*
X183808441Y-134747000D01*
X183983559Y-134747000D01*
X184155312Y-134712836D01*
X184317099Y-134645821D01*
X184462704Y-134548531D01*
X184586531Y-134424704D01*
X184683821Y-134279099D01*
X184750836Y-134117312D01*
X184785000Y-133945559D01*
X184785000Y-133770441D01*
X184750836Y-133598688D01*
X184683821Y-133436901D01*
X184586531Y-133291296D01*
X184462704Y-133167469D01*
X184317099Y-133070179D01*
X184155312Y-133003164D01*
X183983559Y-132969000D01*
X183808441Y-132969000D01*
X183636688Y-133003164D01*
X183474901Y-133070179D01*
X183329296Y-133167469D01*
X183205469Y-133291296D01*
X183108179Y-133436901D01*
X183041164Y-133598688D01*
X183007000Y-133770441D01*
X165912754Y-133770441D01*
X165894185Y-133747815D01*
X165807303Y-133676513D01*
X165928907Y-133494518D01*
X166027658Y-133256113D01*
X166078000Y-133003024D01*
X166078000Y-132744976D01*
X166027658Y-132491887D01*
X165928907Y-132253482D01*
X165785544Y-132038923D01*
X165620621Y-131874000D01*
X165785544Y-131709077D01*
X165928907Y-131494518D01*
X166027658Y-131256113D01*
X166078000Y-131003024D01*
X166078000Y-130744976D01*
X166027658Y-130491887D01*
X165928907Y-130253482D01*
X165785544Y-130038923D01*
X165620621Y-129874000D01*
X165785544Y-129709077D01*
X165928907Y-129494518D01*
X166027658Y-129256113D01*
X166078000Y-129003024D01*
X166078000Y-128744976D01*
X166027658Y-128491887D01*
X165928907Y-128253482D01*
X165785544Y-128038923D01*
X165620621Y-127874000D01*
X165785544Y-127709077D01*
X165928907Y-127494518D01*
X166027658Y-127256113D01*
X166078000Y-127003024D01*
X166078000Y-126744976D01*
X166027658Y-126491887D01*
X165928907Y-126253482D01*
X165785544Y-126038923D01*
X165620621Y-125874000D01*
X165785544Y-125709077D01*
X165928907Y-125494518D01*
X166027658Y-125256113D01*
X166078000Y-125003024D01*
X166078000Y-124744976D01*
X166027658Y-124491887D01*
X165928907Y-124253482D01*
X165785544Y-124038923D01*
X165620621Y-123874000D01*
X165785544Y-123709077D01*
X165928907Y-123494518D01*
X166027658Y-123256113D01*
X166078000Y-123003024D01*
X166078000Y-122744976D01*
X166027658Y-122491887D01*
X165928907Y-122253482D01*
X165785544Y-122038923D01*
X165620621Y-121874000D01*
X165785544Y-121709077D01*
X165928907Y-121494518D01*
X166027658Y-121256113D01*
X166078000Y-121003024D01*
X166078000Y-120744976D01*
X166027658Y-120491887D01*
X165928907Y-120253482D01*
X165785544Y-120038923D01*
X165620621Y-119874000D01*
X165785544Y-119709077D01*
X165928907Y-119494518D01*
X166027658Y-119256113D01*
X166078000Y-119003024D01*
X166078000Y-118744976D01*
X166027658Y-118491887D01*
X165928907Y-118253482D01*
X165785544Y-118038923D01*
X165613940Y-117867319D01*
X165746303Y-117745227D01*
X165897473Y-117537629D01*
X166005238Y-117304528D01*
X166035910Y-117203400D01*
X165912224Y-117001000D01*
X164895000Y-117001000D01*
X164895000Y-117021000D01*
X164641000Y-117021000D01*
X164641000Y-117001000D01*
X163623776Y-117001000D01*
X163500090Y-117203400D01*
X163530762Y-117304528D01*
X163638527Y-117537629D01*
X163789697Y-117745227D01*
X163922060Y-117867319D01*
X163750456Y-118038923D01*
X163607093Y-118253482D01*
X163508342Y-118491887D01*
X163458000Y-118744976D01*
X163458000Y-119003024D01*
X163508342Y-119256113D01*
X163607093Y-119494518D01*
X163750456Y-119709077D01*
X163915379Y-119874000D01*
X163750456Y-120038923D01*
X163607093Y-120253482D01*
X163508342Y-120491887D01*
X163458000Y-120744976D01*
X163458000Y-121003024D01*
X163508342Y-121256113D01*
X163607093Y-121494518D01*
X163750456Y-121709077D01*
X163915379Y-121874000D01*
X163750456Y-122038923D01*
X163607093Y-122253482D01*
X163508342Y-122491887D01*
X163458000Y-122744976D01*
X163458000Y-123003024D01*
X163508342Y-123256113D01*
X163607093Y-123494518D01*
X163750456Y-123709077D01*
X163915379Y-123874000D01*
X163750456Y-124038923D01*
X163607093Y-124253482D01*
X163508342Y-124491887D01*
X163458000Y-124744976D01*
X163458000Y-125003024D01*
X163508342Y-125256113D01*
X163607093Y-125494518D01*
X163750456Y-125709077D01*
X163915379Y-125874000D01*
X163750456Y-126038923D01*
X163607093Y-126253482D01*
X163508342Y-126491887D01*
X163458000Y-126744976D01*
X163458000Y-127003024D01*
X163508342Y-127256113D01*
X163607093Y-127494518D01*
X163750456Y-127709077D01*
X163915379Y-127874000D01*
X163750456Y-128038923D01*
X163607093Y-128253482D01*
X163508342Y-128491887D01*
X163458000Y-128744976D01*
X163458000Y-129003024D01*
X163508342Y-129256113D01*
X163607093Y-129494518D01*
X163750456Y-129709077D01*
X163915379Y-129874000D01*
X163750456Y-130038923D01*
X163607093Y-130253482D01*
X163508342Y-130491887D01*
X163458000Y-130744976D01*
X163458000Y-131003024D01*
X163508342Y-131256113D01*
X163607093Y-131494518D01*
X163750456Y-131709077D01*
X163915379Y-131874000D01*
X163750456Y-132038923D01*
X163607093Y-132253482D01*
X163508342Y-132491887D01*
X163458000Y-132744976D01*
X163458000Y-133003024D01*
X163508342Y-133256113D01*
X163607093Y-133494518D01*
X163728697Y-133676513D01*
X163641815Y-133747815D01*
X163562463Y-133844506D01*
X163503498Y-133954820D01*
X163467188Y-134074518D01*
X163454928Y-134199000D01*
X153181401Y-134199000D01*
X153329099Y-134137821D01*
X153474704Y-134040531D01*
X153598531Y-133916704D01*
X153695821Y-133771099D01*
X153762836Y-133609312D01*
X153797000Y-133437559D01*
X153797000Y-133262441D01*
X153762836Y-133090688D01*
X153695821Y-132928901D01*
X153598531Y-132783296D01*
X153474704Y-132659469D01*
X153329099Y-132562179D01*
X153167312Y-132495164D01*
X152995559Y-132461000D01*
X152820441Y-132461000D01*
X152648688Y-132495164D01*
X152486901Y-132562179D01*
X152341296Y-132659469D01*
X152217469Y-132783296D01*
X152120179Y-132928901D01*
X152053164Y-133090688D01*
X152019000Y-133262441D01*
X145052052Y-133262441D01*
X145039312Y-133257164D01*
X144867559Y-133223000D01*
X144692441Y-133223000D01*
X144520688Y-133257164D01*
X144358901Y-133324179D01*
X144213296Y-133421469D01*
X144089469Y-133545296D01*
X143992179Y-133690901D01*
X143925164Y-133852688D01*
X143891000Y-134024441D01*
X138329676Y-134024441D01*
X138234704Y-133929469D01*
X138089099Y-133832179D01*
X137927312Y-133765164D01*
X137755559Y-133731000D01*
X137580441Y-133731000D01*
X137408688Y-133765164D01*
X137246901Y-133832179D01*
X137101296Y-133929469D01*
X136977469Y-134053296D01*
X136880179Y-134198901D01*
X136813164Y-134360688D01*
X136779000Y-134532441D01*
X112420000Y-134532441D01*
X112420000Y-131992441D01*
X117729000Y-131992441D01*
X117729000Y-132167559D01*
X117763164Y-132339312D01*
X117830179Y-132501099D01*
X117927469Y-132646704D01*
X118051296Y-132770531D01*
X118196901Y-132867821D01*
X118358688Y-132934836D01*
X118530441Y-132969000D01*
X118705559Y-132969000D01*
X118877312Y-132934836D01*
X119039099Y-132867821D01*
X119184704Y-132770531D01*
X119308531Y-132646704D01*
X119405821Y-132501099D01*
X119472836Y-132339312D01*
X119507000Y-132167559D01*
X119507000Y-131992441D01*
X119472836Y-131820688D01*
X119438768Y-131738441D01*
X153035000Y-131738441D01*
X153035000Y-131913559D01*
X153069164Y-132085312D01*
X153136179Y-132247099D01*
X153233469Y-132392704D01*
X153357296Y-132516531D01*
X153502901Y-132613821D01*
X153664688Y-132680836D01*
X153836441Y-132715000D01*
X154011559Y-132715000D01*
X154183312Y-132680836D01*
X154345099Y-132613821D01*
X154490704Y-132516531D01*
X154614531Y-132392704D01*
X154711821Y-132247099D01*
X154778836Y-132085312D01*
X154813000Y-131913559D01*
X154813000Y-131738441D01*
X154778836Y-131566688D01*
X154711821Y-131404901D01*
X154614531Y-131259296D01*
X154490704Y-131135469D01*
X154345099Y-131038179D01*
X154183312Y-130971164D01*
X154011559Y-130937000D01*
X153836441Y-130937000D01*
X153664688Y-130971164D01*
X153502901Y-131038179D01*
X153357296Y-131135469D01*
X153233469Y-131259296D01*
X153136179Y-131404901D01*
X153069164Y-131566688D01*
X153035000Y-131738441D01*
X119438768Y-131738441D01*
X119405821Y-131658901D01*
X119308531Y-131513296D01*
X119184704Y-131389469D01*
X119039099Y-131292179D01*
X118877312Y-131225164D01*
X118705559Y-131191000D01*
X118530441Y-131191000D01*
X118358688Y-131225164D01*
X118196901Y-131292179D01*
X118051296Y-131389469D01*
X117927469Y-131513296D01*
X117830179Y-131658901D01*
X117763164Y-131820688D01*
X117729000Y-131992441D01*
X112420000Y-131992441D01*
X112420000Y-129256750D01*
X148700000Y-129256750D01*
X148700000Y-129485250D01*
X148744578Y-129709360D01*
X148832021Y-129920466D01*
X148958969Y-130110457D01*
X149120543Y-130272031D01*
X149310534Y-130398979D01*
X149521640Y-130486422D01*
X149745750Y-130531000D01*
X149974250Y-130531000D01*
X150198360Y-130486422D01*
X150409466Y-130398979D01*
X150599457Y-130272031D01*
X150761031Y-130110457D01*
X150887979Y-129920466D01*
X150975422Y-129709360D01*
X151020000Y-129485250D01*
X151020000Y-129256750D01*
X150975422Y-129032640D01*
X150887979Y-128821534D01*
X150761031Y-128631543D01*
X150599457Y-128469969D01*
X150409466Y-128343021D01*
X150198360Y-128255578D01*
X149974250Y-128211000D01*
X149745750Y-128211000D01*
X149521640Y-128255578D01*
X149310534Y-128343021D01*
X149120543Y-128469969D01*
X148958969Y-128631543D01*
X148832021Y-128821534D01*
X148744578Y-129032640D01*
X148700000Y-129256750D01*
X112420000Y-129256750D01*
X112420000Y-123356441D01*
X136271000Y-123356441D01*
X136271000Y-123531559D01*
X136305164Y-123703312D01*
X136372179Y-123865099D01*
X136469469Y-124010704D01*
X136593296Y-124134531D01*
X136738901Y-124231821D01*
X136900688Y-124298836D01*
X137072441Y-124333000D01*
X137247559Y-124333000D01*
X137419312Y-124298836D01*
X137581099Y-124231821D01*
X137726704Y-124134531D01*
X137850531Y-124010704D01*
X137947821Y-123865099D01*
X138014836Y-123703312D01*
X138049000Y-123531559D01*
X138049000Y-123356441D01*
X138014836Y-123184688D01*
X137947821Y-123022901D01*
X137850531Y-122877296D01*
X137726704Y-122753469D01*
X137581099Y-122656179D01*
X137419312Y-122589164D01*
X137247559Y-122555000D01*
X137072441Y-122555000D01*
X136900688Y-122589164D01*
X136738901Y-122656179D01*
X136593296Y-122753469D01*
X136469469Y-122877296D01*
X136372179Y-123022901D01*
X136305164Y-123184688D01*
X136271000Y-123356441D01*
X112420000Y-123356441D01*
X112420000Y-121832441D01*
X119507000Y-121832441D01*
X119507000Y-122007559D01*
X119541164Y-122179312D01*
X119608179Y-122341099D01*
X119705469Y-122486704D01*
X119829296Y-122610531D01*
X119974901Y-122707821D01*
X120136688Y-122774836D01*
X120308441Y-122809000D01*
X120483559Y-122809000D01*
X120655312Y-122774836D01*
X120817099Y-122707821D01*
X120962704Y-122610531D01*
X121086531Y-122486704D01*
X121183821Y-122341099D01*
X121250836Y-122179312D01*
X121285000Y-122007559D01*
X121319164Y-122179312D01*
X121386179Y-122341099D01*
X121483469Y-122486704D01*
X121607296Y-122610531D01*
X121752901Y-122707821D01*
X121914688Y-122774836D01*
X122086441Y-122809000D01*
X122261559Y-122809000D01*
X122433312Y-122774836D01*
X122595099Y-122707821D01*
X122740704Y-122610531D01*
X122864531Y-122486704D01*
X122961821Y-122341099D01*
X123028836Y-122179312D01*
X123063000Y-122007559D01*
X123063000Y-121832441D01*
X123028836Y-121660688D01*
X122994768Y-121578441D01*
X161163000Y-121578441D01*
X161163000Y-121753559D01*
X161197164Y-121925312D01*
X161264179Y-122087099D01*
X161361469Y-122232704D01*
X161485296Y-122356531D01*
X161630901Y-122453821D01*
X161792688Y-122520836D01*
X161964441Y-122555000D01*
X162139559Y-122555000D01*
X162311312Y-122520836D01*
X162473099Y-122453821D01*
X162618704Y-122356531D01*
X162742531Y-122232704D01*
X162839821Y-122087099D01*
X162906836Y-121925312D01*
X162941000Y-121753559D01*
X162941000Y-121578441D01*
X162906836Y-121406688D01*
X162839821Y-121244901D01*
X162742531Y-121099296D01*
X162618704Y-120975469D01*
X162473099Y-120878179D01*
X162311312Y-120811164D01*
X162139559Y-120777000D01*
X161964441Y-120777000D01*
X161792688Y-120811164D01*
X161630901Y-120878179D01*
X161485296Y-120975469D01*
X161361469Y-121099296D01*
X161264179Y-121244901D01*
X161197164Y-121406688D01*
X161163000Y-121578441D01*
X122994768Y-121578441D01*
X122961821Y-121498901D01*
X122864531Y-121353296D01*
X122740704Y-121229469D01*
X122595099Y-121132179D01*
X122433312Y-121065164D01*
X122261559Y-121031000D01*
X122086441Y-121031000D01*
X121914688Y-121065164D01*
X121752901Y-121132179D01*
X121607296Y-121229469D01*
X121483469Y-121353296D01*
X121386179Y-121498901D01*
X121319164Y-121660688D01*
X121285000Y-121832441D01*
X121250836Y-121660688D01*
X121183821Y-121498901D01*
X121086531Y-121353296D01*
X120962704Y-121229469D01*
X120817099Y-121132179D01*
X120655312Y-121065164D01*
X120483559Y-121031000D01*
X120308441Y-121031000D01*
X120136688Y-121065164D01*
X119974901Y-121132179D01*
X119829296Y-121229469D01*
X119705469Y-121353296D01*
X119608179Y-121498901D01*
X119541164Y-121660688D01*
X119507000Y-121832441D01*
X112420000Y-121832441D01*
X112420000Y-118241418D01*
X126517400Y-118241418D01*
X126517400Y-118486582D01*
X126565229Y-118727036D01*
X126659050Y-118953539D01*
X126795256Y-119157386D01*
X126968614Y-119330744D01*
X127172461Y-119466950D01*
X127398964Y-119560771D01*
X127639418Y-119608600D01*
X127884582Y-119608600D01*
X128125036Y-119560771D01*
X128351539Y-119466950D01*
X128555386Y-119330744D01*
X128728744Y-119157386D01*
X128864950Y-118953539D01*
X128958771Y-118727036D01*
X129006600Y-118486582D01*
X129006600Y-118241418D01*
X128958771Y-118000964D01*
X128864950Y-117774461D01*
X128860928Y-117768441D01*
X131191000Y-117768441D01*
X131191000Y-117943559D01*
X131225164Y-118115312D01*
X131292179Y-118277099D01*
X131389469Y-118422704D01*
X131513296Y-118546531D01*
X131658901Y-118643821D01*
X131820688Y-118710836D01*
X131992441Y-118745000D01*
X132167559Y-118745000D01*
X132339312Y-118710836D01*
X132501099Y-118643821D01*
X132646704Y-118546531D01*
X132770531Y-118422704D01*
X132867821Y-118277099D01*
X132934836Y-118115312D01*
X132969000Y-117943559D01*
X132969000Y-117768441D01*
X132934836Y-117596688D01*
X132867821Y-117434901D01*
X132770531Y-117289296D01*
X132646704Y-117165469D01*
X132501099Y-117068179D01*
X132339312Y-117001164D01*
X132167559Y-116967000D01*
X131992441Y-116967000D01*
X131820688Y-117001164D01*
X131658901Y-117068179D01*
X131513296Y-117165469D01*
X131389469Y-117289296D01*
X131292179Y-117434901D01*
X131225164Y-117596688D01*
X131191000Y-117768441D01*
X128860928Y-117768441D01*
X128728744Y-117570614D01*
X128555386Y-117397256D01*
X128351539Y-117261050D01*
X128125036Y-117167229D01*
X127884582Y-117119400D01*
X127639418Y-117119400D01*
X127398964Y-117167229D01*
X127172461Y-117261050D01*
X126968614Y-117397256D01*
X126795256Y-117570614D01*
X126659050Y-117774461D01*
X126565229Y-118000964D01*
X126517400Y-118241418D01*
X112420000Y-118241418D01*
X112420000Y-116680632D01*
X127084973Y-116680632D01*
X127133448Y-116905192D01*
X127356456Y-117007042D01*
X127595048Y-117063428D01*
X127840056Y-117072183D01*
X128082065Y-117032972D01*
X128311774Y-116947300D01*
X128390552Y-116905192D01*
X128439027Y-116680632D01*
X127762000Y-116003605D01*
X127084973Y-116680632D01*
X112420000Y-116680632D01*
X112420000Y-115902056D01*
X126513817Y-115902056D01*
X126553028Y-116144065D01*
X126638700Y-116373774D01*
X126680808Y-116452552D01*
X126905368Y-116501027D01*
X127582395Y-115824000D01*
X127941605Y-115824000D01*
X128618632Y-116501027D01*
X128843192Y-116452552D01*
X128945042Y-116229544D01*
X129001428Y-115990952D01*
X129010183Y-115745944D01*
X129008644Y-115736441D01*
X131191000Y-115736441D01*
X131191000Y-115911559D01*
X131225164Y-116083312D01*
X131292179Y-116245099D01*
X131389469Y-116390704D01*
X131513296Y-116514531D01*
X131658901Y-116611821D01*
X131820688Y-116678836D01*
X131992441Y-116713000D01*
X132167559Y-116713000D01*
X132339312Y-116678836D01*
X132501099Y-116611821D01*
X132646704Y-116514531D01*
X132770531Y-116390704D01*
X132867821Y-116245099D01*
X132934836Y-116083312D01*
X132969000Y-115911559D01*
X132969000Y-115736441D01*
X132934836Y-115564688D01*
X132900768Y-115482441D01*
X143383000Y-115482441D01*
X143383000Y-115657559D01*
X143417164Y-115829312D01*
X143484179Y-115991099D01*
X143581469Y-116136704D01*
X143705296Y-116260531D01*
X143850901Y-116357821D01*
X144012688Y-116424836D01*
X144184441Y-116459000D01*
X144359559Y-116459000D01*
X144403103Y-116450338D01*
X144467296Y-116514531D01*
X144612901Y-116611821D01*
X144774688Y-116678836D01*
X144946441Y-116713000D01*
X145121559Y-116713000D01*
X145293312Y-116678836D01*
X145455099Y-116611821D01*
X145600704Y-116514531D01*
X145724531Y-116390704D01*
X145821821Y-116245099D01*
X145888836Y-116083312D01*
X145923000Y-115911559D01*
X145923000Y-115736441D01*
X148209000Y-115736441D01*
X148209000Y-115911559D01*
X148243164Y-116083312D01*
X148310179Y-116245099D01*
X148407469Y-116390704D01*
X148531296Y-116514531D01*
X148676901Y-116611821D01*
X148838688Y-116678836D01*
X149010441Y-116713000D01*
X149185559Y-116713000D01*
X149357312Y-116678836D01*
X149519099Y-116611821D01*
X149619702Y-116544600D01*
X163500090Y-116544600D01*
X163623776Y-116747000D01*
X164641000Y-116747000D01*
X164641000Y-115728915D01*
X164895000Y-115728915D01*
X164895000Y-116747000D01*
X165912224Y-116747000D01*
X165913460Y-116744976D01*
X185458000Y-116744976D01*
X185458000Y-117003024D01*
X185508342Y-117256113D01*
X185607093Y-117494518D01*
X185750456Y-117709077D01*
X185915379Y-117874000D01*
X185750456Y-118038923D01*
X185607093Y-118253482D01*
X185508342Y-118491887D01*
X185458000Y-118744976D01*
X185458000Y-119003024D01*
X185508342Y-119256113D01*
X185607093Y-119494518D01*
X185750456Y-119709077D01*
X185915379Y-119874000D01*
X185750456Y-120038923D01*
X185607093Y-120253482D01*
X185508342Y-120491887D01*
X185458000Y-120744976D01*
X185458000Y-121003024D01*
X185508342Y-121256113D01*
X185607093Y-121494518D01*
X185750456Y-121709077D01*
X185915379Y-121874000D01*
X185750456Y-122038923D01*
X185607093Y-122253482D01*
X185508342Y-122491887D01*
X185458000Y-122744976D01*
X185458000Y-123003024D01*
X185508342Y-123256113D01*
X185607093Y-123494518D01*
X185750456Y-123709077D01*
X185915379Y-123874000D01*
X185750456Y-124038923D01*
X185607093Y-124253482D01*
X185508342Y-124491887D01*
X185458000Y-124744976D01*
X185458000Y-125003024D01*
X185508342Y-125256113D01*
X185607093Y-125494518D01*
X185750456Y-125709077D01*
X185915379Y-125874000D01*
X185750456Y-126038923D01*
X185607093Y-126253482D01*
X185508342Y-126491887D01*
X185458000Y-126744976D01*
X185458000Y-127003024D01*
X185508342Y-127256113D01*
X185607093Y-127494518D01*
X185750456Y-127709077D01*
X185915379Y-127874000D01*
X185750456Y-128038923D01*
X185607093Y-128253482D01*
X185508342Y-128491887D01*
X185458000Y-128744976D01*
X185458000Y-129003024D01*
X185508342Y-129256113D01*
X185607093Y-129494518D01*
X185750456Y-129709077D01*
X185915379Y-129874000D01*
X185750456Y-130038923D01*
X185607093Y-130253482D01*
X185508342Y-130491887D01*
X185458000Y-130744976D01*
X185458000Y-131003024D01*
X185508342Y-131256113D01*
X185607093Y-131494518D01*
X185750456Y-131709077D01*
X185915379Y-131874000D01*
X185750456Y-132038923D01*
X185607093Y-132253482D01*
X185508342Y-132491887D01*
X185458000Y-132744976D01*
X185458000Y-133003024D01*
X185508342Y-133256113D01*
X185607093Y-133494518D01*
X185750456Y-133709077D01*
X185915379Y-133874000D01*
X185750456Y-134038923D01*
X185607093Y-134253482D01*
X185508342Y-134491887D01*
X185458000Y-134744976D01*
X185458000Y-135003024D01*
X185508342Y-135256113D01*
X185607093Y-135494518D01*
X185750456Y-135709077D01*
X185932923Y-135891544D01*
X186147482Y-136034907D01*
X186385887Y-136133658D01*
X186638976Y-136184000D01*
X186897024Y-136184000D01*
X187150113Y-136133658D01*
X187388518Y-136034907D01*
X187603077Y-135891544D01*
X187785544Y-135709077D01*
X187928907Y-135494518D01*
X188027658Y-135256113D01*
X188078000Y-135003024D01*
X188078000Y-134744976D01*
X188027658Y-134491887D01*
X187928907Y-134253482D01*
X187785544Y-134038923D01*
X187620621Y-133874000D01*
X187785544Y-133709077D01*
X187928907Y-133494518D01*
X188027658Y-133256113D01*
X188078000Y-133003024D01*
X188078000Y-132744976D01*
X188027658Y-132491887D01*
X187928907Y-132253482D01*
X187785544Y-132038923D01*
X187620621Y-131874000D01*
X187785544Y-131709077D01*
X187928907Y-131494518D01*
X188027658Y-131256113D01*
X188078000Y-131003024D01*
X188078000Y-130744976D01*
X188027658Y-130491887D01*
X187928907Y-130253482D01*
X187785544Y-130038923D01*
X187620621Y-129874000D01*
X187785544Y-129709077D01*
X187928907Y-129494518D01*
X188027658Y-129256113D01*
X188078000Y-129003024D01*
X188078000Y-128744976D01*
X188027658Y-128491887D01*
X187928907Y-128253482D01*
X187785544Y-128038923D01*
X187620621Y-127874000D01*
X187785544Y-127709077D01*
X187928907Y-127494518D01*
X188027658Y-127256113D01*
X188078000Y-127003024D01*
X188078000Y-126744976D01*
X188027658Y-126491887D01*
X187928907Y-126253482D01*
X187785544Y-126038923D01*
X187620621Y-125874000D01*
X187785544Y-125709077D01*
X187928907Y-125494518D01*
X188027658Y-125256113D01*
X188078000Y-125003024D01*
X188078000Y-124744976D01*
X188027658Y-124491887D01*
X187928907Y-124253482D01*
X187785544Y-124038923D01*
X187620621Y-123874000D01*
X187785544Y-123709077D01*
X187928907Y-123494518D01*
X188027658Y-123256113D01*
X188078000Y-123003024D01*
X188078000Y-122744976D01*
X188027658Y-122491887D01*
X187928907Y-122253482D01*
X187785544Y-122038923D01*
X187620621Y-121874000D01*
X187785544Y-121709077D01*
X187928907Y-121494518D01*
X188027658Y-121256113D01*
X188078000Y-121003024D01*
X188078000Y-120744976D01*
X188027658Y-120491887D01*
X187928907Y-120253482D01*
X187785544Y-120038923D01*
X187620621Y-119874000D01*
X187785544Y-119709077D01*
X187928907Y-119494518D01*
X188027658Y-119256113D01*
X188078000Y-119003024D01*
X188078000Y-118744976D01*
X188027658Y-118491887D01*
X187928907Y-118253482D01*
X187785544Y-118038923D01*
X187620621Y-117874000D01*
X187785544Y-117709077D01*
X187928907Y-117494518D01*
X188027658Y-117256113D01*
X188078000Y-117003024D01*
X188078000Y-116744976D01*
X188027658Y-116491887D01*
X187928907Y-116253482D01*
X187785544Y-116038923D01*
X187603077Y-115856456D01*
X187388518Y-115713093D01*
X187150113Y-115614342D01*
X186897024Y-115564000D01*
X186638976Y-115564000D01*
X186385887Y-115614342D01*
X186147482Y-115713093D01*
X185932923Y-115856456D01*
X185750456Y-116038923D01*
X185607093Y-116253482D01*
X185508342Y-116491887D01*
X185458000Y-116744976D01*
X165913460Y-116744976D01*
X166035910Y-116544600D01*
X166005238Y-116443472D01*
X165897473Y-116210371D01*
X165746303Y-116002773D01*
X165557537Y-115828656D01*
X165338430Y-115694711D01*
X165097401Y-115606085D01*
X164895000Y-115728915D01*
X164641000Y-115728915D01*
X164438599Y-115606085D01*
X164197570Y-115694711D01*
X163978463Y-115828656D01*
X163789697Y-116002773D01*
X163638527Y-116210371D01*
X163530762Y-116443472D01*
X163500090Y-116544600D01*
X149619702Y-116544600D01*
X149664704Y-116514531D01*
X149788531Y-116390704D01*
X149885821Y-116245099D01*
X149952836Y-116083312D01*
X149987000Y-115911559D01*
X149987000Y-115736441D01*
X149952836Y-115564688D01*
X149885821Y-115402901D01*
X149788531Y-115257296D01*
X149664704Y-115133469D01*
X149519099Y-115036179D01*
X149357312Y-114969164D01*
X149185559Y-114935000D01*
X149010441Y-114935000D01*
X148838688Y-114969164D01*
X148676901Y-115036179D01*
X148531296Y-115133469D01*
X148407469Y-115257296D01*
X148310179Y-115402901D01*
X148243164Y-115564688D01*
X148209000Y-115736441D01*
X145923000Y-115736441D01*
X145888836Y-115564688D01*
X145821821Y-115402901D01*
X145724531Y-115257296D01*
X145600704Y-115133469D01*
X145455099Y-115036179D01*
X145293312Y-114969164D01*
X145121559Y-114935000D01*
X144946441Y-114935000D01*
X144902897Y-114943662D01*
X144838704Y-114879469D01*
X144693099Y-114782179D01*
X144531312Y-114715164D01*
X144359559Y-114681000D01*
X144184441Y-114681000D01*
X144012688Y-114715164D01*
X143850901Y-114782179D01*
X143705296Y-114879469D01*
X143581469Y-115003296D01*
X143484179Y-115148901D01*
X143417164Y-115310688D01*
X143383000Y-115482441D01*
X132900768Y-115482441D01*
X132867821Y-115402901D01*
X132770531Y-115257296D01*
X132646704Y-115133469D01*
X132501099Y-115036179D01*
X132339312Y-114969164D01*
X132167559Y-114935000D01*
X131992441Y-114935000D01*
X131820688Y-114969164D01*
X131658901Y-115036179D01*
X131513296Y-115133469D01*
X131389469Y-115257296D01*
X131292179Y-115402901D01*
X131225164Y-115564688D01*
X131191000Y-115736441D01*
X129008644Y-115736441D01*
X128970972Y-115503935D01*
X128885300Y-115274226D01*
X128843192Y-115195448D01*
X128618632Y-115146973D01*
X127941605Y-115824000D01*
X127582395Y-115824000D01*
X126905368Y-115146973D01*
X126680808Y-115195448D01*
X126578958Y-115418456D01*
X126522572Y-115657048D01*
X126513817Y-115902056D01*
X112420000Y-115902056D01*
X112420000Y-114212441D01*
X119507000Y-114212441D01*
X119507000Y-114387559D01*
X119541164Y-114559312D01*
X119608179Y-114721099D01*
X119705469Y-114866704D01*
X119829296Y-114990531D01*
X119974901Y-115087821D01*
X120136688Y-115154836D01*
X120308441Y-115189000D01*
X120483559Y-115189000D01*
X120655312Y-115154836D01*
X120817099Y-115087821D01*
X120962704Y-114990531D01*
X121086531Y-114866704D01*
X121150317Y-114771241D01*
X121285000Y-114771241D01*
X121285000Y-114946359D01*
X121319164Y-115118112D01*
X121386179Y-115279899D01*
X121483469Y-115425504D01*
X121607296Y-115549331D01*
X121752901Y-115646621D01*
X121914688Y-115713636D01*
X122086441Y-115747800D01*
X122261559Y-115747800D01*
X122433312Y-115713636D01*
X122595099Y-115646621D01*
X122740704Y-115549331D01*
X122864531Y-115425504D01*
X122961821Y-115279899D01*
X123028836Y-115118112D01*
X123058821Y-114967368D01*
X127084973Y-114967368D01*
X127762000Y-115644395D01*
X128439027Y-114967368D01*
X128390552Y-114742808D01*
X128167544Y-114640958D01*
X127928952Y-114584572D01*
X127683944Y-114575817D01*
X127441935Y-114615028D01*
X127212226Y-114700700D01*
X127133448Y-114742808D01*
X127084973Y-114967368D01*
X123058821Y-114967368D01*
X123063000Y-114946359D01*
X123063000Y-114771241D01*
X123028836Y-114599488D01*
X122961821Y-114437701D01*
X122864531Y-114292096D01*
X122740704Y-114168269D01*
X122595099Y-114070979D01*
X122433312Y-114003964D01*
X122261559Y-113969800D01*
X122086441Y-113969800D01*
X121914688Y-114003964D01*
X121752901Y-114070979D01*
X121607296Y-114168269D01*
X121483469Y-114292096D01*
X121386179Y-114437701D01*
X121319164Y-114599488D01*
X121285000Y-114771241D01*
X121150317Y-114771241D01*
X121183821Y-114721099D01*
X121250836Y-114559312D01*
X121285000Y-114387559D01*
X121285000Y-114212441D01*
X121250836Y-114040688D01*
X121183821Y-113878901D01*
X121086531Y-113733296D01*
X120962704Y-113609469D01*
X120817099Y-113512179D01*
X120655312Y-113445164D01*
X120483559Y-113411000D01*
X120308441Y-113411000D01*
X120136688Y-113445164D01*
X119974901Y-113512179D01*
X119829296Y-113609469D01*
X119705469Y-113733296D01*
X119608179Y-113878901D01*
X119541164Y-114040688D01*
X119507000Y-114212441D01*
X112420000Y-114212441D01*
X112420000Y-113161418D01*
X126517400Y-113161418D01*
X126517400Y-113406582D01*
X126565229Y-113647036D01*
X126659050Y-113873539D01*
X126795256Y-114077386D01*
X126968614Y-114250744D01*
X127172461Y-114386950D01*
X127398964Y-114480771D01*
X127639418Y-114528600D01*
X127884582Y-114528600D01*
X128125036Y-114480771D01*
X128351539Y-114386950D01*
X128555386Y-114250744D01*
X128728744Y-114077386D01*
X128864950Y-113873539D01*
X128958771Y-113647036D01*
X129006600Y-113406582D01*
X129006600Y-113161418D01*
X128963044Y-112942441D01*
X135509000Y-112942441D01*
X135509000Y-113117559D01*
X135543164Y-113289312D01*
X135610179Y-113451099D01*
X135707469Y-113596704D01*
X135831296Y-113720531D01*
X135976901Y-113817821D01*
X136138688Y-113884836D01*
X136310441Y-113919000D01*
X136485559Y-113919000D01*
X136657312Y-113884836D01*
X136819099Y-113817821D01*
X136964704Y-113720531D01*
X137088531Y-113596704D01*
X137185821Y-113451099D01*
X137252836Y-113289312D01*
X137287000Y-113117559D01*
X137287000Y-112942441D01*
X137252836Y-112770688D01*
X137185821Y-112608901D01*
X137088531Y-112463296D01*
X136964704Y-112339469D01*
X136819099Y-112242179D01*
X136657312Y-112175164D01*
X136485559Y-112141000D01*
X136310441Y-112141000D01*
X136138688Y-112175164D01*
X135976901Y-112242179D01*
X135831296Y-112339469D01*
X135707469Y-112463296D01*
X135610179Y-112608901D01*
X135543164Y-112770688D01*
X135509000Y-112942441D01*
X128963044Y-112942441D01*
X128958771Y-112920964D01*
X128864950Y-112694461D01*
X128728744Y-112490614D01*
X128555386Y-112317256D01*
X128351539Y-112181050D01*
X128125036Y-112087229D01*
X127884582Y-112039400D01*
X127639418Y-112039400D01*
X127398964Y-112087229D01*
X127172461Y-112181050D01*
X126968614Y-112317256D01*
X126795256Y-112490614D01*
X126659050Y-112694461D01*
X126565229Y-112920964D01*
X126517400Y-113161418D01*
X112420000Y-113161418D01*
X112420000Y-110656441D01*
X131445000Y-110656441D01*
X131445000Y-110831559D01*
X131479164Y-111003312D01*
X131546179Y-111165099D01*
X131643469Y-111310704D01*
X131767296Y-111434531D01*
X131912901Y-111531821D01*
X132074688Y-111598836D01*
X132246441Y-111633000D01*
X132421559Y-111633000D01*
X132593312Y-111598836D01*
X132755099Y-111531821D01*
X132900704Y-111434531D01*
X133024531Y-111310704D01*
X133121821Y-111165099D01*
X133188836Y-111003312D01*
X133223000Y-110831559D01*
X133223000Y-110656441D01*
X133188836Y-110484688D01*
X133121821Y-110322901D01*
X133024531Y-110177296D01*
X132900704Y-110053469D01*
X132755099Y-109956179D01*
X132593312Y-109889164D01*
X132421559Y-109855000D01*
X132246441Y-109855000D01*
X132074688Y-109889164D01*
X131912901Y-109956179D01*
X131767296Y-110053469D01*
X131643469Y-110177296D01*
X131546179Y-110322901D01*
X131479164Y-110484688D01*
X131445000Y-110656441D01*
X112420000Y-110656441D01*
X112420000Y-109386441D01*
X136271000Y-109386441D01*
X136271000Y-109561559D01*
X136305164Y-109733312D01*
X136372179Y-109895099D01*
X136469469Y-110040704D01*
X136593296Y-110164531D01*
X136738901Y-110261821D01*
X136900688Y-110328836D01*
X137072441Y-110363000D01*
X136900688Y-110397164D01*
X136738901Y-110464179D01*
X136593296Y-110561469D01*
X136469469Y-110685296D01*
X136372179Y-110830901D01*
X136305164Y-110992688D01*
X136271000Y-111164441D01*
X136271000Y-111339559D01*
X136305164Y-111511312D01*
X136372179Y-111673099D01*
X136469469Y-111818704D01*
X136593296Y-111942531D01*
X136738901Y-112039821D01*
X136900688Y-112106836D01*
X137072441Y-112141000D01*
X137247559Y-112141000D01*
X137419312Y-112106836D01*
X137581099Y-112039821D01*
X137726704Y-111942531D01*
X137850531Y-111818704D01*
X137947821Y-111673099D01*
X138014836Y-111511312D01*
X138049000Y-111339559D01*
X138049000Y-111164441D01*
X138014836Y-110992688D01*
X137947821Y-110830901D01*
X137850531Y-110685296D01*
X137726704Y-110561469D01*
X137581099Y-110464179D01*
X137419312Y-110397164D01*
X137247559Y-110363000D01*
X137419312Y-110328836D01*
X137581099Y-110261821D01*
X137726704Y-110164531D01*
X137850531Y-110040704D01*
X137947821Y-109895099D01*
X138014836Y-109733312D01*
X138049000Y-109561559D01*
X138049000Y-109386441D01*
X151511000Y-109386441D01*
X151511000Y-109561559D01*
X151545164Y-109733312D01*
X151612179Y-109895099D01*
X151709469Y-110040704D01*
X151828538Y-110159773D01*
X151799164Y-110230688D01*
X151765000Y-110402441D01*
X151765000Y-110577559D01*
X151799164Y-110749312D01*
X151866179Y-110911099D01*
X151963469Y-111056704D01*
X152027662Y-111120897D01*
X152019000Y-111164441D01*
X152019000Y-111339559D01*
X152053164Y-111511312D01*
X152120179Y-111673099D01*
X152217469Y-111818704D01*
X152341296Y-111942531D01*
X152486901Y-112039821D01*
X152648688Y-112106836D01*
X152787544Y-112134456D01*
X152815164Y-112273312D01*
X152859417Y-112380148D01*
X152776269Y-112463296D01*
X152678979Y-112608901D01*
X152611964Y-112770688D01*
X152577800Y-112942441D01*
X152577800Y-113117559D01*
X152611964Y-113289312D01*
X152678979Y-113451099D01*
X152776269Y-113596704D01*
X152900096Y-113720531D01*
X153045701Y-113817821D01*
X153207488Y-113884836D01*
X153379241Y-113919000D01*
X153554359Y-113919000D01*
X153726112Y-113884836D01*
X153887899Y-113817821D01*
X154033504Y-113720531D01*
X154157331Y-113596704D01*
X154254621Y-113451099D01*
X154321636Y-113289312D01*
X154355800Y-113117559D01*
X154355800Y-112942441D01*
X154321636Y-112770688D01*
X154277383Y-112663852D01*
X154360531Y-112580704D01*
X154457821Y-112435099D01*
X154524836Y-112273312D01*
X154559000Y-112101559D01*
X154559000Y-111926441D01*
X154524836Y-111754688D01*
X154457821Y-111592901D01*
X154360531Y-111447296D01*
X154236704Y-111323469D01*
X154091099Y-111226179D01*
X153929312Y-111159164D01*
X153790456Y-111131544D01*
X153762836Y-110992688D01*
X153695821Y-110830901D01*
X153598531Y-110685296D01*
X153534338Y-110621103D01*
X153543000Y-110577559D01*
X153543000Y-110402441D01*
X153508836Y-110230688D01*
X153441821Y-110068901D01*
X153344531Y-109923296D01*
X153225462Y-109804227D01*
X153254836Y-109733312D01*
X153289000Y-109561559D01*
X153289000Y-109386441D01*
X153254836Y-109214688D01*
X153187821Y-109052901D01*
X153090531Y-108907296D01*
X152966704Y-108783469D01*
X152821099Y-108686179D01*
X152659312Y-108619164D01*
X152487559Y-108585000D01*
X152312441Y-108585000D01*
X152140688Y-108619164D01*
X151978901Y-108686179D01*
X151833296Y-108783469D01*
X151709469Y-108907296D01*
X151612179Y-109052901D01*
X151545164Y-109214688D01*
X151511000Y-109386441D01*
X138049000Y-109386441D01*
X138014836Y-109214688D01*
X137947821Y-109052901D01*
X137850531Y-108907296D01*
X137726704Y-108783469D01*
X137581099Y-108686179D01*
X137419312Y-108619164D01*
X137247559Y-108585000D01*
X137072441Y-108585000D01*
X136900688Y-108619164D01*
X136738901Y-108686179D01*
X136593296Y-108783469D01*
X136469469Y-108907296D01*
X136372179Y-109052901D01*
X136305164Y-109214688D01*
X136271000Y-109386441D01*
X112420000Y-109386441D01*
X112420000Y-108116441D01*
X139065000Y-108116441D01*
X139065000Y-108291559D01*
X139099164Y-108463312D01*
X139166179Y-108625099D01*
X139263469Y-108770704D01*
X139387296Y-108894531D01*
X139532901Y-108991821D01*
X139694688Y-109058836D01*
X139866441Y-109093000D01*
X140041559Y-109093000D01*
X140213312Y-109058836D01*
X140375099Y-108991821D01*
X140520704Y-108894531D01*
X140644531Y-108770704D01*
X140741821Y-108625099D01*
X140808836Y-108463312D01*
X140843000Y-108291559D01*
X140843000Y-108116441D01*
X140808836Y-107944688D01*
X140741821Y-107782901D01*
X140644531Y-107637296D01*
X140520704Y-107513469D01*
X140375099Y-107416179D01*
X140213312Y-107349164D01*
X140041559Y-107315000D01*
X139866441Y-107315000D01*
X139694688Y-107349164D01*
X139532901Y-107416179D01*
X139387296Y-107513469D01*
X139263469Y-107637296D01*
X139166179Y-107782901D01*
X139099164Y-107944688D01*
X139065000Y-108116441D01*
X112420000Y-108116441D01*
X112420000Y-107100441D01*
X152781000Y-107100441D01*
X152781000Y-107275559D01*
X152815164Y-107447312D01*
X152882179Y-107609099D01*
X152979469Y-107754704D01*
X153103296Y-107878531D01*
X153248901Y-107975821D01*
X153410688Y-108042836D01*
X153582441Y-108077000D01*
X153757559Y-108077000D01*
X153929312Y-108042836D01*
X154091099Y-107975821D01*
X154236704Y-107878531D01*
X154360531Y-107754704D01*
X154457821Y-107609099D01*
X154524836Y-107447312D01*
X154559000Y-107275559D01*
X154559000Y-107100441D01*
X154524836Y-106928688D01*
X154457821Y-106766901D01*
X154360531Y-106621296D01*
X154236704Y-106497469D01*
X154091099Y-106400179D01*
X153929312Y-106333164D01*
X153757559Y-106299000D01*
X153582441Y-106299000D01*
X153410688Y-106333164D01*
X153248901Y-106400179D01*
X153103296Y-106497469D01*
X152979469Y-106621296D01*
X152882179Y-106766901D01*
X152815164Y-106928688D01*
X152781000Y-107100441D01*
X112420000Y-107100441D01*
X112420000Y-103109500D01*
X125737428Y-103109500D01*
X125737428Y-105734500D01*
X125749688Y-105858982D01*
X125785998Y-105978680D01*
X125844963Y-106088994D01*
X125924315Y-106185685D01*
X126021006Y-106265037D01*
X126131320Y-106324002D01*
X126251018Y-106360312D01*
X126375500Y-106372572D01*
X129000500Y-106372572D01*
X129124982Y-106360312D01*
X129244680Y-106324002D01*
X129354994Y-106265037D01*
X129451685Y-106185685D01*
X129531037Y-106088994D01*
X129533706Y-106084000D01*
X155737928Y-106084000D01*
X155737928Y-107784000D01*
X155750188Y-107908482D01*
X155786498Y-108028180D01*
X155845463Y-108138494D01*
X155924815Y-108235185D01*
X156021506Y-108314537D01*
X156131820Y-108373502D01*
X156204380Y-108395513D01*
X156072525Y-108527368D01*
X155910010Y-108770589D01*
X155798068Y-109040842D01*
X155741000Y-109327740D01*
X155741000Y-109620260D01*
X155798068Y-109907158D01*
X155910010Y-110177411D01*
X156072525Y-110420632D01*
X156279368Y-110627475D01*
X156453760Y-110744000D01*
X156279368Y-110860525D01*
X156072525Y-111067368D01*
X155910010Y-111310589D01*
X155798068Y-111580842D01*
X155741000Y-111867740D01*
X155741000Y-112160260D01*
X155798068Y-112447158D01*
X155910010Y-112717411D01*
X156072525Y-112960632D01*
X156279368Y-113167475D01*
X156522589Y-113329990D01*
X156792842Y-113441932D01*
X157079740Y-113499000D01*
X157372260Y-113499000D01*
X157659158Y-113441932D01*
X157929411Y-113329990D01*
X158172632Y-113167475D01*
X158379475Y-112960632D01*
X158496000Y-112786240D01*
X158612525Y-112960632D01*
X158819368Y-113167475D01*
X159062589Y-113329990D01*
X159332842Y-113441932D01*
X159619740Y-113499000D01*
X159912260Y-113499000D01*
X160199158Y-113441932D01*
X160469411Y-113329990D01*
X160712632Y-113167475D01*
X160919475Y-112960632D01*
X161081990Y-112717411D01*
X161193932Y-112447158D01*
X161251000Y-112160260D01*
X161251000Y-111867740D01*
X161193932Y-111580842D01*
X161081990Y-111310589D01*
X160919475Y-111067368D01*
X160712632Y-110860525D01*
X160530466Y-110738805D01*
X160647355Y-110669178D01*
X160661485Y-110656441D01*
X183007000Y-110656441D01*
X183007000Y-110831559D01*
X183041164Y-111003312D01*
X183108179Y-111165099D01*
X183205469Y-111310704D01*
X183329296Y-111434531D01*
X183474901Y-111531821D01*
X183636688Y-111598836D01*
X183808441Y-111633000D01*
X183983559Y-111633000D01*
X184155312Y-111598836D01*
X184317099Y-111531821D01*
X184462704Y-111434531D01*
X184586531Y-111310704D01*
X184683821Y-111165099D01*
X184750836Y-111003312D01*
X184785000Y-110831559D01*
X184785000Y-110656441D01*
X184750836Y-110484688D01*
X184683821Y-110322901D01*
X184586531Y-110177296D01*
X184462704Y-110053469D01*
X184317099Y-109956179D01*
X184155312Y-109889164D01*
X183983559Y-109855000D01*
X183808441Y-109855000D01*
X183636688Y-109889164D01*
X183474901Y-109956179D01*
X183329296Y-110053469D01*
X183205469Y-110177296D01*
X183108179Y-110322901D01*
X183041164Y-110484688D01*
X183007000Y-110656441D01*
X160661485Y-110656441D01*
X160863588Y-110474269D01*
X161037641Y-110240920D01*
X161162825Y-109978099D01*
X161207476Y-109830890D01*
X161086155Y-109601000D01*
X159893000Y-109601000D01*
X159893000Y-109621000D01*
X159639000Y-109621000D01*
X159639000Y-109601000D01*
X159619000Y-109601000D01*
X159619000Y-109347000D01*
X159639000Y-109347000D01*
X159639000Y-109327000D01*
X159893000Y-109327000D01*
X159893000Y-109347000D01*
X161086155Y-109347000D01*
X161207476Y-109117110D01*
X161162825Y-108969901D01*
X161037641Y-108707080D01*
X160863588Y-108473731D01*
X160647355Y-108278822D01*
X160530466Y-108209195D01*
X160712632Y-108087475D01*
X160919475Y-107880632D01*
X161081990Y-107637411D01*
X161193932Y-107367158D01*
X161251000Y-107080260D01*
X161251000Y-106787740D01*
X161193932Y-106500842D01*
X161081990Y-106230589D01*
X160919475Y-105987368D01*
X160712632Y-105780525D01*
X160469411Y-105618010D01*
X160199158Y-105506068D01*
X159912260Y-105449000D01*
X159619740Y-105449000D01*
X159332842Y-105506068D01*
X159062589Y-105618010D01*
X158819368Y-105780525D01*
X158687513Y-105912380D01*
X158665502Y-105839820D01*
X158606537Y-105729506D01*
X158527185Y-105632815D01*
X158430494Y-105553463D01*
X158320180Y-105494498D01*
X158200482Y-105458188D01*
X158076000Y-105445928D01*
X156376000Y-105445928D01*
X156251518Y-105458188D01*
X156131820Y-105494498D01*
X156021506Y-105553463D01*
X155924815Y-105632815D01*
X155845463Y-105729506D01*
X155786498Y-105839820D01*
X155750188Y-105959518D01*
X155737928Y-106084000D01*
X129533706Y-106084000D01*
X129590002Y-105978680D01*
X129626312Y-105858982D01*
X129638572Y-105734500D01*
X129638572Y-104306441D01*
X161163000Y-104306441D01*
X161163000Y-104481559D01*
X161197164Y-104653312D01*
X161264179Y-104815099D01*
X161361469Y-104960704D01*
X161485296Y-105084531D01*
X161630901Y-105181821D01*
X161792688Y-105248836D01*
X161964441Y-105283000D01*
X162139559Y-105283000D01*
X162311312Y-105248836D01*
X162473099Y-105181821D01*
X162618704Y-105084531D01*
X162742531Y-104960704D01*
X162839821Y-104815099D01*
X162906836Y-104653312D01*
X162941000Y-104481559D01*
X162941000Y-104306441D01*
X162906836Y-104134688D01*
X162839821Y-103972901D01*
X162742531Y-103827296D01*
X162618704Y-103703469D01*
X162473099Y-103606179D01*
X162311312Y-103539164D01*
X162139559Y-103505000D01*
X161964441Y-103505000D01*
X161792688Y-103539164D01*
X161630901Y-103606179D01*
X161485296Y-103703469D01*
X161361469Y-103827296D01*
X161264179Y-103972901D01*
X161197164Y-104134688D01*
X161163000Y-104306441D01*
X129638572Y-104306441D01*
X129638572Y-103109500D01*
X129626312Y-102985018D01*
X129590002Y-102865320D01*
X129545702Y-102782441D01*
X146939000Y-102782441D01*
X146939000Y-102957559D01*
X146973164Y-103129312D01*
X147040179Y-103291099D01*
X147137469Y-103436704D01*
X147261296Y-103560531D01*
X147406901Y-103657821D01*
X147568688Y-103724836D01*
X147740441Y-103759000D01*
X147915559Y-103759000D01*
X148087312Y-103724836D01*
X148249099Y-103657821D01*
X148394704Y-103560531D01*
X148518531Y-103436704D01*
X148615821Y-103291099D01*
X148682836Y-103129312D01*
X148717000Y-102957559D01*
X148717000Y-102782441D01*
X148682836Y-102610688D01*
X148648768Y-102528441D01*
X162687000Y-102528441D01*
X162687000Y-102703559D01*
X162721164Y-102875312D01*
X162788179Y-103037099D01*
X162885469Y-103182704D01*
X163009296Y-103306531D01*
X163154901Y-103403821D01*
X163316688Y-103470836D01*
X163488441Y-103505000D01*
X163663559Y-103505000D01*
X163835312Y-103470836D01*
X163997099Y-103403821D01*
X164142704Y-103306531D01*
X164266531Y-103182704D01*
X164363821Y-103037099D01*
X164430836Y-102875312D01*
X164465000Y-102703559D01*
X164465000Y-102528441D01*
X164430836Y-102356688D01*
X164363821Y-102194901D01*
X164266531Y-102049296D01*
X164142704Y-101925469D01*
X163997099Y-101828179D01*
X163848052Y-101766441D01*
X170815000Y-101766441D01*
X170815000Y-101941559D01*
X170849164Y-102113312D01*
X170916179Y-102275099D01*
X171013469Y-102420704D01*
X171137296Y-102544531D01*
X171282901Y-102641821D01*
X171444688Y-102708836D01*
X171616441Y-102743000D01*
X171791559Y-102743000D01*
X171963312Y-102708836D01*
X172125099Y-102641821D01*
X172270704Y-102544531D01*
X172394531Y-102420704D01*
X172491821Y-102275099D01*
X172558836Y-102113312D01*
X172593000Y-101941559D01*
X172593000Y-101766441D01*
X172558836Y-101594688D01*
X172491821Y-101432901D01*
X172394531Y-101287296D01*
X172270704Y-101163469D01*
X172125099Y-101066179D01*
X171963312Y-100999164D01*
X171791559Y-100965000D01*
X171616441Y-100965000D01*
X171444688Y-100999164D01*
X171282901Y-101066179D01*
X171137296Y-101163469D01*
X171013469Y-101287296D01*
X170916179Y-101432901D01*
X170849164Y-101594688D01*
X170815000Y-101766441D01*
X163848052Y-101766441D01*
X163835312Y-101761164D01*
X163663559Y-101727000D01*
X163488441Y-101727000D01*
X163316688Y-101761164D01*
X163154901Y-101828179D01*
X163009296Y-101925469D01*
X162885469Y-102049296D01*
X162788179Y-102194901D01*
X162721164Y-102356688D01*
X162687000Y-102528441D01*
X148648768Y-102528441D01*
X148615821Y-102448901D01*
X148518531Y-102303296D01*
X148394704Y-102179469D01*
X148249099Y-102082179D01*
X148087312Y-102015164D01*
X147915559Y-101981000D01*
X147740441Y-101981000D01*
X147568688Y-102015164D01*
X147406901Y-102082179D01*
X147261296Y-102179469D01*
X147137469Y-102303296D01*
X147040179Y-102448901D01*
X146973164Y-102610688D01*
X146939000Y-102782441D01*
X129545702Y-102782441D01*
X129531037Y-102755006D01*
X129451685Y-102658315D01*
X129354994Y-102578963D01*
X129244680Y-102519998D01*
X129124982Y-102483688D01*
X129000500Y-102471428D01*
X126375500Y-102471428D01*
X126251018Y-102483688D01*
X126131320Y-102519998D01*
X126021006Y-102578963D01*
X125924315Y-102658315D01*
X125844963Y-102755006D01*
X125785998Y-102865320D01*
X125749688Y-102985018D01*
X125737428Y-103109500D01*
X112420000Y-103109500D01*
X112420000Y-99630188D01*
X125740500Y-99630188D01*
X125740500Y-100013812D01*
X125815341Y-100390065D01*
X125962148Y-100744487D01*
X126175278Y-101063459D01*
X126446541Y-101334722D01*
X126765513Y-101547852D01*
X127119935Y-101694659D01*
X127496188Y-101769500D01*
X127879812Y-101769500D01*
X128256065Y-101694659D01*
X128610487Y-101547852D01*
X128929459Y-101334722D01*
X129200722Y-101063459D01*
X129413852Y-100744487D01*
X129560659Y-100390065D01*
X129635500Y-100013812D01*
X129635500Y-99630188D01*
X129560659Y-99253935D01*
X129413852Y-98899513D01*
X129200722Y-98580541D01*
X129084622Y-98464441D01*
X135509000Y-98464441D01*
X135509000Y-98639559D01*
X135543164Y-98811312D01*
X135610179Y-98973099D01*
X135707469Y-99118704D01*
X135831296Y-99242531D01*
X135976901Y-99339821D01*
X136138688Y-99406836D01*
X136310441Y-99441000D01*
X136485559Y-99441000D01*
X136657312Y-99406836D01*
X136819099Y-99339821D01*
X136964704Y-99242531D01*
X136980794Y-99226441D01*
X152019000Y-99226441D01*
X152019000Y-99401559D01*
X152053164Y-99573312D01*
X152120179Y-99735099D01*
X152217469Y-99880704D01*
X152341296Y-100004531D01*
X152486901Y-100101821D01*
X152648688Y-100168836D01*
X152820441Y-100203000D01*
X152995559Y-100203000D01*
X153167312Y-100168836D01*
X153329099Y-100101821D01*
X153474704Y-100004531D01*
X153598531Y-99880704D01*
X153695821Y-99735099D01*
X153762836Y-99573312D01*
X153797000Y-99401559D01*
X153797000Y-99226441D01*
X153762836Y-99054688D01*
X153695821Y-98892901D01*
X153598531Y-98747296D01*
X153569676Y-98718441D01*
X162687000Y-98718441D01*
X162687000Y-98893559D01*
X162721164Y-99065312D01*
X162788179Y-99227099D01*
X162885469Y-99372704D01*
X163009296Y-99496531D01*
X163154901Y-99593821D01*
X163316688Y-99660836D01*
X163488441Y-99695000D01*
X163663559Y-99695000D01*
X163835312Y-99660836D01*
X163983882Y-99599296D01*
X163957000Y-99734441D01*
X163957000Y-99909559D01*
X163991164Y-100081312D01*
X164058179Y-100243099D01*
X164155469Y-100388704D01*
X164279296Y-100512531D01*
X164424901Y-100609821D01*
X164586688Y-100676836D01*
X164758441Y-100711000D01*
X164933559Y-100711000D01*
X165105312Y-100676836D01*
X165267099Y-100609821D01*
X165412704Y-100512531D01*
X165536531Y-100388704D01*
X165633821Y-100243099D01*
X165700836Y-100081312D01*
X165735000Y-99909559D01*
X165735000Y-99734441D01*
X165700836Y-99562688D01*
X165633821Y-99400901D01*
X165536531Y-99255296D01*
X165412704Y-99131469D01*
X165267099Y-99034179D01*
X165105312Y-98967164D01*
X164933559Y-98933000D01*
X164758441Y-98933000D01*
X164586688Y-98967164D01*
X164438118Y-99028704D01*
X164465000Y-98893559D01*
X164465000Y-98718441D01*
X164430836Y-98546688D01*
X164363821Y-98384901D01*
X164266531Y-98239296D01*
X164142704Y-98115469D01*
X163997099Y-98018179D01*
X163835312Y-97951164D01*
X163663559Y-97917000D01*
X163488441Y-97917000D01*
X163316688Y-97951164D01*
X163154901Y-98018179D01*
X163009296Y-98115469D01*
X162885469Y-98239296D01*
X162788179Y-98384901D01*
X162721164Y-98546688D01*
X162687000Y-98718441D01*
X153569676Y-98718441D01*
X153474704Y-98623469D01*
X153329099Y-98526179D01*
X153167312Y-98459164D01*
X152995559Y-98425000D01*
X152820441Y-98425000D01*
X152648688Y-98459164D01*
X152486901Y-98526179D01*
X152341296Y-98623469D01*
X152217469Y-98747296D01*
X152120179Y-98892901D01*
X152053164Y-99054688D01*
X152019000Y-99226441D01*
X136980794Y-99226441D01*
X137088531Y-99118704D01*
X137185821Y-98973099D01*
X137252836Y-98811312D01*
X137287000Y-98639559D01*
X137287000Y-98464441D01*
X137252836Y-98292688D01*
X137185821Y-98130901D01*
X137088531Y-97985296D01*
X136964704Y-97861469D01*
X136819099Y-97764179D01*
X136657312Y-97697164D01*
X136485559Y-97663000D01*
X136310441Y-97663000D01*
X136138688Y-97697164D01*
X135976901Y-97764179D01*
X135831296Y-97861469D01*
X135707469Y-97985296D01*
X135610179Y-98130901D01*
X135543164Y-98292688D01*
X135509000Y-98464441D01*
X129084622Y-98464441D01*
X128929459Y-98309278D01*
X128610487Y-98096148D01*
X128256065Y-97949341D01*
X127879812Y-97874500D01*
X127496188Y-97874500D01*
X127119935Y-97949341D01*
X126765513Y-98096148D01*
X126446541Y-98309278D01*
X126175278Y-98580541D01*
X125962148Y-98899513D01*
X125815341Y-99253935D01*
X125740500Y-99630188D01*
X112420000Y-99630188D01*
X112420000Y-96288344D01*
X118719000Y-96288344D01*
X118719000Y-96659656D01*
X118791439Y-97023834D01*
X118933534Y-97366882D01*
X119139825Y-97675618D01*
X119402382Y-97938175D01*
X119711118Y-98144466D01*
X120054166Y-98286561D01*
X120418344Y-98359000D01*
X120789656Y-98359000D01*
X121153834Y-98286561D01*
X121496882Y-98144466D01*
X121805618Y-97938175D01*
X122068175Y-97675618D01*
X122274466Y-97366882D01*
X122416561Y-97023834D01*
X122489000Y-96659656D01*
X122489000Y-96288344D01*
X157419000Y-96288344D01*
X157419000Y-96659656D01*
X157491439Y-97023834D01*
X157633534Y-97366882D01*
X157839825Y-97675618D01*
X158102382Y-97938175D01*
X158411118Y-98144466D01*
X158754166Y-98286561D01*
X159118344Y-98359000D01*
X159489656Y-98359000D01*
X159853834Y-98286561D01*
X160196882Y-98144466D01*
X160505618Y-97938175D01*
X160741352Y-97702441D01*
X165989000Y-97702441D01*
X165989000Y-97877559D01*
X166023164Y-98049312D01*
X166090179Y-98211099D01*
X166187469Y-98356704D01*
X166311296Y-98480531D01*
X166456901Y-98577821D01*
X166618688Y-98644836D01*
X166790441Y-98679000D01*
X166965559Y-98679000D01*
X167137312Y-98644836D01*
X167299099Y-98577821D01*
X167444704Y-98480531D01*
X167568531Y-98356704D01*
X167665821Y-98211099D01*
X167732836Y-98049312D01*
X167767000Y-97877559D01*
X167767000Y-97702441D01*
X170561000Y-97702441D01*
X170561000Y-97877559D01*
X170595164Y-98049312D01*
X170662179Y-98211099D01*
X170759469Y-98356704D01*
X170883296Y-98480531D01*
X171028901Y-98577821D01*
X171137988Y-98623007D01*
X171137296Y-98623469D01*
X171013469Y-98747296D01*
X170916179Y-98892901D01*
X170849164Y-99054688D01*
X170815000Y-99226441D01*
X170815000Y-99401559D01*
X170849164Y-99573312D01*
X170916179Y-99735099D01*
X171013469Y-99880704D01*
X171137296Y-100004531D01*
X171282901Y-100101821D01*
X171444688Y-100168836D01*
X171616441Y-100203000D01*
X171791559Y-100203000D01*
X171963312Y-100168836D01*
X172125099Y-100101821D01*
X172270704Y-100004531D01*
X172394531Y-99880704D01*
X172491821Y-99735099D01*
X172558836Y-99573312D01*
X172593000Y-99401559D01*
X172593000Y-99226441D01*
X172558836Y-99054688D01*
X172491821Y-98892901D01*
X172394531Y-98747296D01*
X172270704Y-98623469D01*
X172125099Y-98526179D01*
X172016012Y-98480993D01*
X172016704Y-98480531D01*
X172140531Y-98356704D01*
X172237821Y-98211099D01*
X172304836Y-98049312D01*
X172339000Y-97877559D01*
X172339000Y-97702441D01*
X172304836Y-97530688D01*
X172237821Y-97368901D01*
X172140531Y-97223296D01*
X172016704Y-97099469D01*
X171871099Y-97002179D01*
X171709312Y-96935164D01*
X171537559Y-96901000D01*
X171362441Y-96901000D01*
X171190688Y-96935164D01*
X171028901Y-97002179D01*
X170883296Y-97099469D01*
X170759469Y-97223296D01*
X170662179Y-97368901D01*
X170595164Y-97530688D01*
X170561000Y-97702441D01*
X167767000Y-97702441D01*
X167732836Y-97530688D01*
X167665821Y-97368901D01*
X167568531Y-97223296D01*
X167444704Y-97099469D01*
X167299099Y-97002179D01*
X167137312Y-96935164D01*
X166965559Y-96901000D01*
X166790441Y-96901000D01*
X166618688Y-96935164D01*
X166456901Y-97002179D01*
X166311296Y-97099469D01*
X166187469Y-97223296D01*
X166090179Y-97368901D01*
X166023164Y-97530688D01*
X165989000Y-97702441D01*
X160741352Y-97702441D01*
X160768175Y-97675618D01*
X160974466Y-97366882D01*
X161116561Y-97023834D01*
X161189000Y-96659656D01*
X161189000Y-96288344D01*
X161116561Y-95924166D01*
X160974466Y-95581118D01*
X160768175Y-95272382D01*
X160505618Y-95009825D01*
X160196882Y-94803534D01*
X159853834Y-94661439D01*
X159489656Y-94589000D01*
X159118344Y-94589000D01*
X158754166Y-94661439D01*
X158411118Y-94803534D01*
X158102382Y-95009825D01*
X157839825Y-95272382D01*
X157633534Y-95581118D01*
X157491439Y-95924166D01*
X157419000Y-96288344D01*
X122489000Y-96288344D01*
X122416561Y-95924166D01*
X122274466Y-95581118D01*
X122068175Y-95272382D01*
X121805618Y-95009825D01*
X121496882Y-94803534D01*
X121153834Y-94661439D01*
X120789656Y-94589000D01*
X120418344Y-94589000D01*
X120054166Y-94661439D01*
X119711118Y-94803534D01*
X119402382Y-95009825D01*
X119139825Y-95272382D01*
X118933534Y-95581118D01*
X118791439Y-95924166D01*
X118719000Y-96288344D01*
X112420000Y-96288344D01*
X112420000Y-94146441D01*
X138557000Y-94146441D01*
X138557000Y-94321559D01*
X138591164Y-94493312D01*
X138658179Y-94655099D01*
X138755469Y-94800704D01*
X138879296Y-94924531D01*
X139024901Y-95021821D01*
X139186688Y-95088836D01*
X139358441Y-95123000D01*
X139533559Y-95123000D01*
X139705312Y-95088836D01*
X139867099Y-95021821D01*
X140012704Y-94924531D01*
X140136531Y-94800704D01*
X140233821Y-94655099D01*
X140300836Y-94493312D01*
X140335000Y-94321559D01*
X140335000Y-94146441D01*
X140300836Y-93974688D01*
X140233821Y-93812901D01*
X140136531Y-93667296D01*
X140012704Y-93543469D01*
X139867099Y-93446179D01*
X139705312Y-93379164D01*
X139533559Y-93345000D01*
X139358441Y-93345000D01*
X139186688Y-93379164D01*
X139024901Y-93446179D01*
X138879296Y-93543469D01*
X138755469Y-93667296D01*
X138658179Y-93812901D01*
X138591164Y-93974688D01*
X138557000Y-94146441D01*
X112420000Y-94146441D01*
X112420000Y-90711872D01*
X112827000Y-90711872D01*
X112827000Y-91152128D01*
X112912890Y-91583925D01*
X113081369Y-91990669D01*
X113325962Y-92356729D01*
X113637271Y-92668038D01*
X114003331Y-92912631D01*
X114410075Y-93081110D01*
X114841872Y-93167000D01*
X115282128Y-93167000D01*
X115713925Y-93081110D01*
X116120669Y-92912631D01*
X116486729Y-92668038D01*
X116532326Y-92622441D01*
X170815000Y-92622441D01*
X170815000Y-92797559D01*
X170849164Y-92969312D01*
X170916179Y-93131099D01*
X171013469Y-93276704D01*
X171137296Y-93400531D01*
X171282901Y-93497821D01*
X171444688Y-93564836D01*
X171616441Y-93599000D01*
X171791559Y-93599000D01*
X171963312Y-93564836D01*
X172125099Y-93497821D01*
X172270704Y-93400531D01*
X172394531Y-93276704D01*
X172491821Y-93131099D01*
X172558836Y-92969312D01*
X172593000Y-92797559D01*
X172593000Y-92622441D01*
X172558836Y-92450688D01*
X172491821Y-92288901D01*
X172394531Y-92143296D01*
X172270704Y-92019469D01*
X172125099Y-91922179D01*
X171963312Y-91855164D01*
X171791559Y-91821000D01*
X171616441Y-91821000D01*
X171444688Y-91855164D01*
X171282901Y-91922179D01*
X171137296Y-92019469D01*
X171013469Y-92143296D01*
X170916179Y-92288901D01*
X170849164Y-92450688D01*
X170815000Y-92622441D01*
X116532326Y-92622441D01*
X116798038Y-92356729D01*
X117042631Y-91990669D01*
X117211110Y-91583925D01*
X117297000Y-91152128D01*
X117297000Y-91098441D01*
X163957000Y-91098441D01*
X163957000Y-91273559D01*
X163991164Y-91445312D01*
X164058179Y-91607099D01*
X164155469Y-91752704D01*
X164279296Y-91876531D01*
X164424901Y-91973821D01*
X164586688Y-92040836D01*
X164758441Y-92075000D01*
X164933559Y-92075000D01*
X165105312Y-92040836D01*
X165267099Y-91973821D01*
X165412704Y-91876531D01*
X165536531Y-91752704D01*
X165633821Y-91607099D01*
X165700836Y-91445312D01*
X165735000Y-91273559D01*
X165735000Y-91098441D01*
X165700836Y-90926688D01*
X165633821Y-90764901D01*
X165598389Y-90711872D01*
X184963000Y-90711872D01*
X184963000Y-91152128D01*
X185048890Y-91583925D01*
X185217369Y-91990669D01*
X185461962Y-92356729D01*
X185773271Y-92668038D01*
X186139331Y-92912631D01*
X186546075Y-93081110D01*
X186977872Y-93167000D01*
X187418128Y-93167000D01*
X187849925Y-93081110D01*
X188256669Y-92912631D01*
X188622729Y-92668038D01*
X188934038Y-92356729D01*
X189178631Y-91990669D01*
X189347110Y-91583925D01*
X189433000Y-91152128D01*
X189433000Y-90711872D01*
X189347110Y-90280075D01*
X189178631Y-89873331D01*
X188934038Y-89507271D01*
X188622729Y-89195962D01*
X188256669Y-88951369D01*
X187849925Y-88782890D01*
X187418128Y-88697000D01*
X186977872Y-88697000D01*
X186546075Y-88782890D01*
X186139331Y-88951369D01*
X185773271Y-89195962D01*
X185461962Y-89507271D01*
X185217369Y-89873331D01*
X185048890Y-90280075D01*
X184963000Y-90711872D01*
X165598389Y-90711872D01*
X165536531Y-90619296D01*
X165412704Y-90495469D01*
X165267099Y-90398179D01*
X165105312Y-90331164D01*
X164933559Y-90297000D01*
X164758441Y-90297000D01*
X164586688Y-90331164D01*
X164424901Y-90398179D01*
X164279296Y-90495469D01*
X164155469Y-90619296D01*
X164058179Y-90764901D01*
X163991164Y-90926688D01*
X163957000Y-91098441D01*
X117297000Y-91098441D01*
X117297000Y-90711872D01*
X117211110Y-90280075D01*
X117201967Y-90258000D01*
X120685928Y-90258000D01*
X120698188Y-90382482D01*
X120734498Y-90502180D01*
X120793463Y-90612494D01*
X120872815Y-90709185D01*
X120969506Y-90788537D01*
X121079820Y-90847502D01*
X121199518Y-90883812D01*
X121324000Y-90896072D01*
X121888250Y-90893000D01*
X122047000Y-90734250D01*
X122047000Y-89535000D01*
X120847750Y-89535000D01*
X120689000Y-89693750D01*
X120685928Y-90258000D01*
X117201967Y-90258000D01*
X117042631Y-89873331D01*
X116798038Y-89507271D01*
X116486729Y-89195962D01*
X116120669Y-88951369D01*
X115713925Y-88782890D01*
X115282128Y-88697000D01*
X114841872Y-88697000D01*
X114410075Y-88782890D01*
X114003331Y-88951369D01*
X113637271Y-89195962D01*
X113325962Y-89507271D01*
X113081369Y-89873331D01*
X112912890Y-90280075D01*
X112827000Y-90711872D01*
X112420000Y-90711872D01*
X112420000Y-88290000D01*
X120747230Y-88290000D01*
X120734498Y-88313820D01*
%TA.AperFunction,Conductor*%
D19*
G36*
X120734498Y-88313820D02*
G01*
X120698188Y-88433518D01*
X120685928Y-88558000D01*
X120689000Y-89122250D01*
X120847750Y-89281000D01*
X122047000Y-89281000D01*
X122047000Y-89261000D01*
X122301000Y-89261000D01*
X122301000Y-89281000D01*
X122321000Y-89281000D01*
X122321000Y-89535000D01*
X122301000Y-89535000D01*
X122301000Y-90734250D01*
X122459750Y-90893000D01*
X123024000Y-90896072D01*
X123148482Y-90883812D01*
X123268180Y-90847502D01*
X123378494Y-90788537D01*
X123475185Y-90709185D01*
X123554537Y-90612494D01*
X123613502Y-90502180D01*
X123635513Y-90429620D01*
X123767368Y-90561475D01*
X124010589Y-90723990D01*
X124280842Y-90835932D01*
X124567740Y-90893000D01*
X124860260Y-90893000D01*
X125147158Y-90835932D01*
X125417411Y-90723990D01*
X125660632Y-90561475D01*
X125867475Y-90354632D01*
X126029990Y-90111411D01*
X126141932Y-89841158D01*
X126199000Y-89554260D01*
X126199000Y-89261740D01*
X126141932Y-88974842D01*
X126029990Y-88704589D01*
X125867475Y-88461368D01*
X125696107Y-88290000D01*
X189840001Y-88290000D01*
X189840000Y-144120000D01*
X134325242Y-144120000D01*
X134371312Y-144110836D01*
X134533099Y-144043821D01*
X134678704Y-143946531D01*
X134802531Y-143822704D01*
X134899821Y-143677099D01*
X134966836Y-143515312D01*
X135001000Y-143343559D01*
X135001000Y-143168441D01*
X134966836Y-142996688D01*
X134899821Y-142834901D01*
X134802531Y-142689296D01*
X134678704Y-142565469D01*
X134533099Y-142468179D01*
X134371312Y-142401164D01*
X134199559Y-142367000D01*
X134024441Y-142367000D01*
X133852688Y-142401164D01*
X133690901Y-142468179D01*
X133545296Y-142565469D01*
X133421469Y-142689296D01*
X133324179Y-142834901D01*
X133257164Y-142996688D01*
X133223000Y-143168441D01*
X133223000Y-143343559D01*
X133257164Y-143515312D01*
X133324179Y-143677099D01*
X133421469Y-143822704D01*
X133545296Y-143946531D01*
X133690901Y-144043821D01*
X133852688Y-144110836D01*
X133898758Y-144120000D01*
X126451242Y-144120000D01*
X126497312Y-144110836D01*
X126659099Y-144043821D01*
X126804704Y-143946531D01*
X126928531Y-143822704D01*
X127025821Y-143677099D01*
X127092836Y-143515312D01*
X127127000Y-143343559D01*
X127127000Y-143168441D01*
X127092836Y-142996688D01*
X127025821Y-142834901D01*
X126928531Y-142689296D01*
X126804704Y-142565469D01*
X126659099Y-142468179D01*
X126497312Y-142401164D01*
X126325559Y-142367000D01*
X126150441Y-142367000D01*
X125978688Y-142401164D01*
X125816901Y-142468179D01*
X125671296Y-142565469D01*
X125547469Y-142689296D01*
X125450179Y-142834901D01*
X125383164Y-142996688D01*
X125349000Y-143168441D01*
X125349000Y-143343559D01*
X125383164Y-143515312D01*
X125450179Y-143677099D01*
X125547469Y-143822704D01*
X125671296Y-143946531D01*
X125816901Y-144043821D01*
X125978688Y-144110836D01*
X126024758Y-144120000D01*
X112420000Y-144120000D01*
X112420000Y-141257872D01*
X112827000Y-141257872D01*
X112827000Y-141698128D01*
X112912890Y-142129925D01*
X113081369Y-142536669D01*
X113325962Y-142902729D01*
X113637271Y-143214038D01*
X114003331Y-143458631D01*
X114410075Y-143627110D01*
X114841872Y-143713000D01*
X115282128Y-143713000D01*
X115713925Y-143627110D01*
X116120669Y-143458631D01*
X116486729Y-143214038D01*
X116798038Y-142902729D01*
X117042631Y-142536669D01*
X117211110Y-142129925D01*
X117297000Y-141698128D01*
X117297000Y-141257872D01*
X184963000Y-141257872D01*
X184963000Y-141698128D01*
X185048890Y-142129925D01*
X185217369Y-142536669D01*
X185461962Y-142902729D01*
X185773271Y-143214038D01*
X186139331Y-143458631D01*
X186546075Y-143627110D01*
X186977872Y-143713000D01*
X187418128Y-143713000D01*
X187849925Y-143627110D01*
X188256669Y-143458631D01*
X188622729Y-143214038D01*
X188934038Y-142902729D01*
X189178631Y-142536669D01*
X189347110Y-142129925D01*
X189433000Y-141698128D01*
X189433000Y-141257872D01*
X189347110Y-140826075D01*
X189178631Y-140419331D01*
X188934038Y-140053271D01*
X188622729Y-139741962D01*
X188256669Y-139497369D01*
X187849925Y-139328890D01*
X187418128Y-139243000D01*
X186977872Y-139243000D01*
X186546075Y-139328890D01*
X186139331Y-139497369D01*
X185773271Y-139741962D01*
X185461962Y-140053271D01*
X185217369Y-140419331D01*
X185048890Y-140826075D01*
X184963000Y-141257872D01*
X117297000Y-141257872D01*
X117211110Y-140826075D01*
X117042631Y-140419331D01*
X116798038Y-140053271D01*
X116486729Y-139741962D01*
X116120669Y-139497369D01*
X115713925Y-139328890D01*
X115282128Y-139243000D01*
X114841872Y-139243000D01*
X114410075Y-139328890D01*
X114003331Y-139497369D01*
X113637271Y-139741962D01*
X113325962Y-140053271D01*
X113081369Y-140419331D01*
X112912890Y-140826075D01*
X112827000Y-141257872D01*
X112420000Y-141257872D01*
X112420000Y-136694439D01*
X148575000Y-136694439D01*
X148575000Y-136947561D01*
X148624381Y-137195821D01*
X148721247Y-137429676D01*
X148861875Y-137640140D01*
X149040860Y-137819125D01*
X149251324Y-137959753D01*
X149485179Y-138056619D01*
X149733439Y-138106000D01*
X149986561Y-138106000D01*
X150234821Y-138056619D01*
X150468676Y-137959753D01*
X150679140Y-137819125D01*
X150858125Y-137640140D01*
X150998753Y-137429676D01*
X151095619Y-137195821D01*
X151145000Y-136947561D01*
X151145000Y-136694439D01*
X151095619Y-136446179D01*
X150998753Y-136212324D01*
X150858125Y-136001860D01*
X150679140Y-135822875D01*
X150468676Y-135682247D01*
X150234821Y-135585381D01*
X149986561Y-135536000D01*
X149733439Y-135536000D01*
X149485179Y-135585381D01*
X149251324Y-135682247D01*
X149040860Y-135822875D01*
X148861875Y-136001860D01*
X148721247Y-136212324D01*
X148624381Y-136446179D01*
X148575000Y-136694439D01*
X112420000Y-136694439D01*
X112420000Y-134532441D01*
X136779000Y-134532441D01*
X136779000Y-134707559D01*
X136813164Y-134879312D01*
X136880179Y-135041099D01*
X136977469Y-135186704D01*
X137101296Y-135310531D01*
X137246901Y-135407821D01*
X137408688Y-135474836D01*
X137580441Y-135509000D01*
X137755559Y-135509000D01*
X137927312Y-135474836D01*
X138089099Y-135407821D01*
X138234704Y-135310531D01*
X138358531Y-135186704D01*
X138455821Y-135041099D01*
X138522836Y-134879312D01*
X138557000Y-134707559D01*
X138557000Y-134532441D01*
X138522836Y-134360688D01*
X138455821Y-134198901D01*
X138358531Y-134053296D01*
X138329676Y-134024441D01*
X143891000Y-134024441D01*
X143891000Y-134199559D01*
X143925164Y-134371312D01*
X143992179Y-134533099D01*
X144089469Y-134678704D01*
X144213296Y-134802531D01*
X144358901Y-134899821D01*
X144520688Y-134966836D01*
X144692441Y-135001000D01*
X144867559Y-135001000D01*
X145039312Y-134966836D01*
X145201099Y-134899821D01*
X145346704Y-134802531D01*
X145470531Y-134678704D01*
X145567821Y-134533099D01*
X145634836Y-134371312D01*
X145669000Y-134199559D01*
X145669000Y-134024441D01*
X145634836Y-133852688D01*
X145567821Y-133690901D01*
X145470531Y-133545296D01*
X145346704Y-133421469D01*
X145201099Y-133324179D01*
X145052052Y-133262441D01*
X152019000Y-133262441D01*
X152019000Y-133437559D01*
X152053164Y-133609312D01*
X152120179Y-133771099D01*
X152217469Y-133916704D01*
X152341296Y-134040531D01*
X152486901Y-134137821D01*
X152648688Y-134204836D01*
X152820441Y-134239000D01*
X152995559Y-134239000D01*
X153167312Y-134204836D01*
X153181401Y-134199000D01*
X163454928Y-134199000D01*
X163454928Y-135549000D01*
X163467188Y-135673482D01*
X163503498Y-135793180D01*
X163562463Y-135903494D01*
X163641815Y-136000185D01*
X163738506Y-136079537D01*
X163848820Y-136138502D01*
X163968518Y-136174812D01*
X164093000Y-136187072D01*
X165443000Y-136187072D01*
X165567482Y-136174812D01*
X165687180Y-136138502D01*
X165797494Y-136079537D01*
X165894185Y-136000185D01*
X165973537Y-135903494D01*
X166032502Y-135793180D01*
X166068812Y-135673482D01*
X166081072Y-135549000D01*
X166081072Y-134199000D01*
X166068812Y-134074518D01*
X166032502Y-133954820D01*
X165973537Y-133844506D01*
X165912754Y-133770441D01*
X183007000Y-133770441D01*
X183007000Y-133945559D01*
X183041164Y-134117312D01*
X183108179Y-134279099D01*
X183205469Y-134424704D01*
X183329296Y-134548531D01*
X183474901Y-134645821D01*
X183636688Y-134712836D01*
X183808441Y-134747000D01*
X183983559Y-134747000D01*
X184155312Y-134712836D01*
X184317099Y-134645821D01*
X184462704Y-134548531D01*
X184586531Y-134424704D01*
X184683821Y-134279099D01*
X184750836Y-134117312D01*
X184785000Y-133945559D01*
X184785000Y-133770441D01*
X184750836Y-133598688D01*
X184683821Y-133436901D01*
X184586531Y-133291296D01*
X184462704Y-133167469D01*
X184317099Y-133070179D01*
X184155312Y-133003164D01*
X183983559Y-132969000D01*
X183808441Y-132969000D01*
X183636688Y-133003164D01*
X183474901Y-133070179D01*
X183329296Y-133167469D01*
X183205469Y-133291296D01*
X183108179Y-133436901D01*
X183041164Y-133598688D01*
X183007000Y-133770441D01*
X165912754Y-133770441D01*
X165894185Y-133747815D01*
X165807303Y-133676513D01*
X165928907Y-133494518D01*
X166027658Y-133256113D01*
X166078000Y-133003024D01*
X166078000Y-132744976D01*
X166027658Y-132491887D01*
X165928907Y-132253482D01*
X165785544Y-132038923D01*
X165620621Y-131874000D01*
X165785544Y-131709077D01*
X165928907Y-131494518D01*
X166027658Y-131256113D01*
X166078000Y-131003024D01*
X166078000Y-130744976D01*
X166027658Y-130491887D01*
X165928907Y-130253482D01*
X165785544Y-130038923D01*
X165620621Y-129874000D01*
X165785544Y-129709077D01*
X165928907Y-129494518D01*
X166027658Y-129256113D01*
X166078000Y-129003024D01*
X166078000Y-128744976D01*
X166027658Y-128491887D01*
X165928907Y-128253482D01*
X165785544Y-128038923D01*
X165620621Y-127874000D01*
X165785544Y-127709077D01*
X165928907Y-127494518D01*
X166027658Y-127256113D01*
X166078000Y-127003024D01*
X166078000Y-126744976D01*
X166027658Y-126491887D01*
X165928907Y-126253482D01*
X165785544Y-126038923D01*
X165620621Y-125874000D01*
X165785544Y-125709077D01*
X165928907Y-125494518D01*
X166027658Y-125256113D01*
X166078000Y-125003024D01*
X166078000Y-124744976D01*
X166027658Y-124491887D01*
X165928907Y-124253482D01*
X165785544Y-124038923D01*
X165620621Y-123874000D01*
X165785544Y-123709077D01*
X165928907Y-123494518D01*
X166027658Y-123256113D01*
X166078000Y-123003024D01*
X166078000Y-122744976D01*
X166027658Y-122491887D01*
X165928907Y-122253482D01*
X165785544Y-122038923D01*
X165620621Y-121874000D01*
X165785544Y-121709077D01*
X165928907Y-121494518D01*
X166027658Y-121256113D01*
X166078000Y-121003024D01*
X166078000Y-120744976D01*
X166027658Y-120491887D01*
X165928907Y-120253482D01*
X165785544Y-120038923D01*
X165620621Y-119874000D01*
X165785544Y-119709077D01*
X165928907Y-119494518D01*
X166027658Y-119256113D01*
X166078000Y-119003024D01*
X166078000Y-118744976D01*
X166027658Y-118491887D01*
X165928907Y-118253482D01*
X165785544Y-118038923D01*
X165613940Y-117867319D01*
X165746303Y-117745227D01*
X165897473Y-117537629D01*
X166005238Y-117304528D01*
X166035910Y-117203400D01*
X165912224Y-117001000D01*
X164895000Y-117001000D01*
X164895000Y-117021000D01*
X164641000Y-117021000D01*
X164641000Y-117001000D01*
X163623776Y-117001000D01*
X163500090Y-117203400D01*
X163530762Y-117304528D01*
X163638527Y-117537629D01*
X163789697Y-117745227D01*
X163922060Y-117867319D01*
X163750456Y-118038923D01*
X163607093Y-118253482D01*
X163508342Y-118491887D01*
X163458000Y-118744976D01*
X163458000Y-119003024D01*
X163508342Y-119256113D01*
X163607093Y-119494518D01*
X163750456Y-119709077D01*
X163915379Y-119874000D01*
X163750456Y-120038923D01*
X163607093Y-120253482D01*
X163508342Y-120491887D01*
X163458000Y-120744976D01*
X163458000Y-121003024D01*
X163508342Y-121256113D01*
X163607093Y-121494518D01*
X163750456Y-121709077D01*
X163915379Y-121874000D01*
X163750456Y-122038923D01*
X163607093Y-122253482D01*
X163508342Y-122491887D01*
X163458000Y-122744976D01*
X163458000Y-123003024D01*
X163508342Y-123256113D01*
X163607093Y-123494518D01*
X163750456Y-123709077D01*
X163915379Y-123874000D01*
X163750456Y-124038923D01*
X163607093Y-124253482D01*
X163508342Y-124491887D01*
X163458000Y-124744976D01*
X163458000Y-125003024D01*
X163508342Y-125256113D01*
X163607093Y-125494518D01*
X163750456Y-125709077D01*
X163915379Y-125874000D01*
X163750456Y-126038923D01*
X163607093Y-126253482D01*
X163508342Y-126491887D01*
X163458000Y-126744976D01*
X163458000Y-127003024D01*
X163508342Y-127256113D01*
X163607093Y-127494518D01*
X163750456Y-127709077D01*
X163915379Y-127874000D01*
X163750456Y-128038923D01*
X163607093Y-128253482D01*
X163508342Y-128491887D01*
X163458000Y-128744976D01*
X163458000Y-129003024D01*
X163508342Y-129256113D01*
X163607093Y-129494518D01*
X163750456Y-129709077D01*
X163915379Y-129874000D01*
X163750456Y-130038923D01*
X163607093Y-130253482D01*
X163508342Y-130491887D01*
X163458000Y-130744976D01*
X163458000Y-131003024D01*
X163508342Y-131256113D01*
X163607093Y-131494518D01*
X163750456Y-131709077D01*
X163915379Y-131874000D01*
X163750456Y-132038923D01*
X163607093Y-132253482D01*
X163508342Y-132491887D01*
X163458000Y-132744976D01*
X163458000Y-133003024D01*
X163508342Y-133256113D01*
X163607093Y-133494518D01*
X163728697Y-133676513D01*
X163641815Y-133747815D01*
X163562463Y-133844506D01*
X163503498Y-133954820D01*
X163467188Y-134074518D01*
X163454928Y-134199000D01*
X153181401Y-134199000D01*
X153329099Y-134137821D01*
X153474704Y-134040531D01*
X153598531Y-133916704D01*
X153695821Y-133771099D01*
X153762836Y-133609312D01*
X153797000Y-133437559D01*
X153797000Y-133262441D01*
X153762836Y-133090688D01*
X153695821Y-132928901D01*
X153598531Y-132783296D01*
X153474704Y-132659469D01*
X153329099Y-132562179D01*
X153167312Y-132495164D01*
X152995559Y-132461000D01*
X152820441Y-132461000D01*
X152648688Y-132495164D01*
X152486901Y-132562179D01*
X152341296Y-132659469D01*
X152217469Y-132783296D01*
X152120179Y-132928901D01*
X152053164Y-133090688D01*
X152019000Y-133262441D01*
X145052052Y-133262441D01*
X145039312Y-133257164D01*
X144867559Y-133223000D01*
X144692441Y-133223000D01*
X144520688Y-133257164D01*
X144358901Y-133324179D01*
X144213296Y-133421469D01*
X144089469Y-133545296D01*
X143992179Y-133690901D01*
X143925164Y-133852688D01*
X143891000Y-134024441D01*
X138329676Y-134024441D01*
X138234704Y-133929469D01*
X138089099Y-133832179D01*
X137927312Y-133765164D01*
X137755559Y-133731000D01*
X137580441Y-133731000D01*
X137408688Y-133765164D01*
X137246901Y-133832179D01*
X137101296Y-133929469D01*
X136977469Y-134053296D01*
X136880179Y-134198901D01*
X136813164Y-134360688D01*
X136779000Y-134532441D01*
X112420000Y-134532441D01*
X112420000Y-131992441D01*
X117729000Y-131992441D01*
X117729000Y-132167559D01*
X117763164Y-132339312D01*
X117830179Y-132501099D01*
X117927469Y-132646704D01*
X118051296Y-132770531D01*
X118196901Y-132867821D01*
X118358688Y-132934836D01*
X118530441Y-132969000D01*
X118705559Y-132969000D01*
X118877312Y-132934836D01*
X119039099Y-132867821D01*
X119184704Y-132770531D01*
X119308531Y-132646704D01*
X119405821Y-132501099D01*
X119472836Y-132339312D01*
X119507000Y-132167559D01*
X119507000Y-131992441D01*
X119472836Y-131820688D01*
X119438768Y-131738441D01*
X153035000Y-131738441D01*
X153035000Y-131913559D01*
X153069164Y-132085312D01*
X153136179Y-132247099D01*
X153233469Y-132392704D01*
X153357296Y-132516531D01*
X153502901Y-132613821D01*
X153664688Y-132680836D01*
X153836441Y-132715000D01*
X154011559Y-132715000D01*
X154183312Y-132680836D01*
X154345099Y-132613821D01*
X154490704Y-132516531D01*
X154614531Y-132392704D01*
X154711821Y-132247099D01*
X154778836Y-132085312D01*
X154813000Y-131913559D01*
X154813000Y-131738441D01*
X154778836Y-131566688D01*
X154711821Y-131404901D01*
X154614531Y-131259296D01*
X154490704Y-131135469D01*
X154345099Y-131038179D01*
X154183312Y-130971164D01*
X154011559Y-130937000D01*
X153836441Y-130937000D01*
X153664688Y-130971164D01*
X153502901Y-131038179D01*
X153357296Y-131135469D01*
X153233469Y-131259296D01*
X153136179Y-131404901D01*
X153069164Y-131566688D01*
X153035000Y-131738441D01*
X119438768Y-131738441D01*
X119405821Y-131658901D01*
X119308531Y-131513296D01*
X119184704Y-131389469D01*
X119039099Y-131292179D01*
X118877312Y-131225164D01*
X118705559Y-131191000D01*
X118530441Y-131191000D01*
X118358688Y-131225164D01*
X118196901Y-131292179D01*
X118051296Y-131389469D01*
X117927469Y-131513296D01*
X117830179Y-131658901D01*
X117763164Y-131820688D01*
X117729000Y-131992441D01*
X112420000Y-131992441D01*
X112420000Y-129256750D01*
X148700000Y-129256750D01*
X148700000Y-129485250D01*
X148744578Y-129709360D01*
X148832021Y-129920466D01*
X148958969Y-130110457D01*
X149120543Y-130272031D01*
X149310534Y-130398979D01*
X149521640Y-130486422D01*
X149745750Y-130531000D01*
X149974250Y-130531000D01*
X150198360Y-130486422D01*
X150409466Y-130398979D01*
X150599457Y-130272031D01*
X150761031Y-130110457D01*
X150887979Y-129920466D01*
X150975422Y-129709360D01*
X151020000Y-129485250D01*
X151020000Y-129256750D01*
X150975422Y-129032640D01*
X150887979Y-128821534D01*
X150761031Y-128631543D01*
X150599457Y-128469969D01*
X150409466Y-128343021D01*
X150198360Y-128255578D01*
X149974250Y-128211000D01*
X149745750Y-128211000D01*
X149521640Y-128255578D01*
X149310534Y-128343021D01*
X149120543Y-128469969D01*
X148958969Y-128631543D01*
X148832021Y-128821534D01*
X148744578Y-129032640D01*
X148700000Y-129256750D01*
X112420000Y-129256750D01*
X112420000Y-123356441D01*
X136271000Y-123356441D01*
X136271000Y-123531559D01*
X136305164Y-123703312D01*
X136372179Y-123865099D01*
X136469469Y-124010704D01*
X136593296Y-124134531D01*
X136738901Y-124231821D01*
X136900688Y-124298836D01*
X137072441Y-124333000D01*
X137247559Y-124333000D01*
X137419312Y-124298836D01*
X137581099Y-124231821D01*
X137726704Y-124134531D01*
X137850531Y-124010704D01*
X137947821Y-123865099D01*
X138014836Y-123703312D01*
X138049000Y-123531559D01*
X138049000Y-123356441D01*
X138014836Y-123184688D01*
X137947821Y-123022901D01*
X137850531Y-122877296D01*
X137726704Y-122753469D01*
X137581099Y-122656179D01*
X137419312Y-122589164D01*
X137247559Y-122555000D01*
X137072441Y-122555000D01*
X136900688Y-122589164D01*
X136738901Y-122656179D01*
X136593296Y-122753469D01*
X136469469Y-122877296D01*
X136372179Y-123022901D01*
X136305164Y-123184688D01*
X136271000Y-123356441D01*
X112420000Y-123356441D01*
X112420000Y-121832441D01*
X119507000Y-121832441D01*
X119507000Y-122007559D01*
X119541164Y-122179312D01*
X119608179Y-122341099D01*
X119705469Y-122486704D01*
X119829296Y-122610531D01*
X119974901Y-122707821D01*
X120136688Y-122774836D01*
X120308441Y-122809000D01*
X120483559Y-122809000D01*
X120655312Y-122774836D01*
X120817099Y-122707821D01*
X120962704Y-122610531D01*
X121086531Y-122486704D01*
X121183821Y-122341099D01*
X121250836Y-122179312D01*
X121285000Y-122007559D01*
X121319164Y-122179312D01*
X121386179Y-122341099D01*
X121483469Y-122486704D01*
X121607296Y-122610531D01*
X121752901Y-122707821D01*
X121914688Y-122774836D01*
X122086441Y-122809000D01*
X122261559Y-122809000D01*
X122433312Y-122774836D01*
X122595099Y-122707821D01*
X122740704Y-122610531D01*
X122864531Y-122486704D01*
X122961821Y-122341099D01*
X123028836Y-122179312D01*
X123063000Y-122007559D01*
X123063000Y-121832441D01*
X123028836Y-121660688D01*
X122994768Y-121578441D01*
X161163000Y-121578441D01*
X161163000Y-121753559D01*
X161197164Y-121925312D01*
X161264179Y-122087099D01*
X161361469Y-122232704D01*
X161485296Y-122356531D01*
X161630901Y-122453821D01*
X161792688Y-122520836D01*
X161964441Y-122555000D01*
X162139559Y-122555000D01*
X162311312Y-122520836D01*
X162473099Y-122453821D01*
X162618704Y-122356531D01*
X162742531Y-122232704D01*
X162839821Y-122087099D01*
X162906836Y-121925312D01*
X162941000Y-121753559D01*
X162941000Y-121578441D01*
X162906836Y-121406688D01*
X162839821Y-121244901D01*
X162742531Y-121099296D01*
X162618704Y-120975469D01*
X162473099Y-120878179D01*
X162311312Y-120811164D01*
X162139559Y-120777000D01*
X161964441Y-120777000D01*
X161792688Y-120811164D01*
X161630901Y-120878179D01*
X161485296Y-120975469D01*
X161361469Y-121099296D01*
X161264179Y-121244901D01*
X161197164Y-121406688D01*
X161163000Y-121578441D01*
X122994768Y-121578441D01*
X122961821Y-121498901D01*
X122864531Y-121353296D01*
X122740704Y-121229469D01*
X122595099Y-121132179D01*
X122433312Y-121065164D01*
X122261559Y-121031000D01*
X122086441Y-121031000D01*
X121914688Y-121065164D01*
X121752901Y-121132179D01*
X121607296Y-121229469D01*
X121483469Y-121353296D01*
X121386179Y-121498901D01*
X121319164Y-121660688D01*
X121285000Y-121832441D01*
X121250836Y-121660688D01*
X121183821Y-121498901D01*
X121086531Y-121353296D01*
X120962704Y-121229469D01*
X120817099Y-121132179D01*
X120655312Y-121065164D01*
X120483559Y-121031000D01*
X120308441Y-121031000D01*
X120136688Y-121065164D01*
X119974901Y-121132179D01*
X119829296Y-121229469D01*
X119705469Y-121353296D01*
X119608179Y-121498901D01*
X119541164Y-121660688D01*
X119507000Y-121832441D01*
X112420000Y-121832441D01*
X112420000Y-118241418D01*
X126517400Y-118241418D01*
X126517400Y-118486582D01*
X126565229Y-118727036D01*
X126659050Y-118953539D01*
X126795256Y-119157386D01*
X126968614Y-119330744D01*
X127172461Y-119466950D01*
X127398964Y-119560771D01*
X127639418Y-119608600D01*
X127884582Y-119608600D01*
X128125036Y-119560771D01*
X128351539Y-119466950D01*
X128555386Y-119330744D01*
X128728744Y-119157386D01*
X128864950Y-118953539D01*
X128958771Y-118727036D01*
X129006600Y-118486582D01*
X129006600Y-118241418D01*
X128958771Y-118000964D01*
X128864950Y-117774461D01*
X128860928Y-117768441D01*
X131191000Y-117768441D01*
X131191000Y-117943559D01*
X131225164Y-118115312D01*
X131292179Y-118277099D01*
X131389469Y-118422704D01*
X131513296Y-118546531D01*
X131658901Y-118643821D01*
X131820688Y-118710836D01*
X131992441Y-118745000D01*
X132167559Y-118745000D01*
X132339312Y-118710836D01*
X132501099Y-118643821D01*
X132646704Y-118546531D01*
X132770531Y-118422704D01*
X132867821Y-118277099D01*
X132934836Y-118115312D01*
X132969000Y-117943559D01*
X132969000Y-117768441D01*
X132934836Y-117596688D01*
X132867821Y-117434901D01*
X132770531Y-117289296D01*
X132646704Y-117165469D01*
X132501099Y-117068179D01*
X132339312Y-117001164D01*
X132167559Y-116967000D01*
X131992441Y-116967000D01*
X131820688Y-117001164D01*
X131658901Y-117068179D01*
X131513296Y-117165469D01*
X131389469Y-117289296D01*
X131292179Y-117434901D01*
X131225164Y-117596688D01*
X131191000Y-117768441D01*
X128860928Y-117768441D01*
X128728744Y-117570614D01*
X128555386Y-117397256D01*
X128351539Y-117261050D01*
X128125036Y-117167229D01*
X127884582Y-117119400D01*
X127639418Y-117119400D01*
X127398964Y-117167229D01*
X127172461Y-117261050D01*
X126968614Y-117397256D01*
X126795256Y-117570614D01*
X126659050Y-117774461D01*
X126565229Y-118000964D01*
X126517400Y-118241418D01*
X112420000Y-118241418D01*
X112420000Y-116680632D01*
X127084973Y-116680632D01*
X127133448Y-116905192D01*
X127356456Y-117007042D01*
X127595048Y-117063428D01*
X127840056Y-117072183D01*
X128082065Y-117032972D01*
X128311774Y-116947300D01*
X128390552Y-116905192D01*
X128439027Y-116680632D01*
X127762000Y-116003605D01*
X127084973Y-116680632D01*
X112420000Y-116680632D01*
X112420000Y-115902056D01*
X126513817Y-115902056D01*
X126553028Y-116144065D01*
X126638700Y-116373774D01*
X126680808Y-116452552D01*
X126905368Y-116501027D01*
X127582395Y-115824000D01*
X127941605Y-115824000D01*
X128618632Y-116501027D01*
X128843192Y-116452552D01*
X128945042Y-116229544D01*
X129001428Y-115990952D01*
X129010183Y-115745944D01*
X129008644Y-115736441D01*
X131191000Y-115736441D01*
X131191000Y-115911559D01*
X131225164Y-116083312D01*
X131292179Y-116245099D01*
X131389469Y-116390704D01*
X131513296Y-116514531D01*
X131658901Y-116611821D01*
X131820688Y-116678836D01*
X131992441Y-116713000D01*
X132167559Y-116713000D01*
X132339312Y-116678836D01*
X132501099Y-116611821D01*
X132646704Y-116514531D01*
X132770531Y-116390704D01*
X132867821Y-116245099D01*
X132934836Y-116083312D01*
X132969000Y-115911559D01*
X132969000Y-115736441D01*
X132934836Y-115564688D01*
X132900768Y-115482441D01*
X143383000Y-115482441D01*
X143383000Y-115657559D01*
X143417164Y-115829312D01*
X143484179Y-115991099D01*
X143581469Y-116136704D01*
X143705296Y-116260531D01*
X143850901Y-116357821D01*
X144012688Y-116424836D01*
X144184441Y-116459000D01*
X144359559Y-116459000D01*
X144403103Y-116450338D01*
X144467296Y-116514531D01*
X144612901Y-116611821D01*
X144774688Y-116678836D01*
X144946441Y-116713000D01*
X145121559Y-116713000D01*
X145293312Y-116678836D01*
X145455099Y-116611821D01*
X145600704Y-116514531D01*
X145724531Y-116390704D01*
X145821821Y-116245099D01*
X145888836Y-116083312D01*
X145923000Y-115911559D01*
X145923000Y-115736441D01*
X148209000Y-115736441D01*
X148209000Y-115911559D01*
X148243164Y-116083312D01*
X148310179Y-116245099D01*
X148407469Y-116390704D01*
X148531296Y-116514531D01*
X148676901Y-116611821D01*
X148838688Y-116678836D01*
X149010441Y-116713000D01*
X149185559Y-116713000D01*
X149357312Y-116678836D01*
X149519099Y-116611821D01*
X149619702Y-116544600D01*
X163500090Y-116544600D01*
X163623776Y-116747000D01*
X164641000Y-116747000D01*
X164641000Y-115728915D01*
X164895000Y-115728915D01*
X164895000Y-116747000D01*
X165912224Y-116747000D01*
X165913460Y-116744976D01*
X185458000Y-116744976D01*
X185458000Y-117003024D01*
X185508342Y-117256113D01*
X185607093Y-117494518D01*
X185750456Y-117709077D01*
X185915379Y-117874000D01*
X185750456Y-118038923D01*
X185607093Y-118253482D01*
X185508342Y-118491887D01*
X185458000Y-118744976D01*
X185458000Y-119003024D01*
X185508342Y-119256113D01*
X185607093Y-119494518D01*
X185750456Y-119709077D01*
X185915379Y-119874000D01*
X185750456Y-120038923D01*
X185607093Y-120253482D01*
X185508342Y-120491887D01*
X185458000Y-120744976D01*
X185458000Y-121003024D01*
X185508342Y-121256113D01*
X185607093Y-121494518D01*
X185750456Y-121709077D01*
X185915379Y-121874000D01*
X185750456Y-122038923D01*
X185607093Y-122253482D01*
X185508342Y-122491887D01*
X185458000Y-122744976D01*
X185458000Y-123003024D01*
X185508342Y-123256113D01*
X185607093Y-123494518D01*
X185750456Y-123709077D01*
X185915379Y-123874000D01*
X185750456Y-124038923D01*
X185607093Y-124253482D01*
X185508342Y-124491887D01*
X185458000Y-124744976D01*
X185458000Y-125003024D01*
X185508342Y-125256113D01*
X185607093Y-125494518D01*
X185750456Y-125709077D01*
X185915379Y-125874000D01*
X185750456Y-126038923D01*
X185607093Y-126253482D01*
X185508342Y-126491887D01*
X185458000Y-126744976D01*
X185458000Y-127003024D01*
X185508342Y-127256113D01*
X185607093Y-127494518D01*
X185750456Y-127709077D01*
X185915379Y-127874000D01*
X185750456Y-128038923D01*
X185607093Y-128253482D01*
X185508342Y-128491887D01*
X185458000Y-128744976D01*
X185458000Y-129003024D01*
X185508342Y-129256113D01*
X185607093Y-129494518D01*
X185750456Y-129709077D01*
X185915379Y-129874000D01*
X185750456Y-130038923D01*
X185607093Y-130253482D01*
X185508342Y-130491887D01*
X185458000Y-130744976D01*
X185458000Y-131003024D01*
X185508342Y-131256113D01*
X185607093Y-131494518D01*
X185750456Y-131709077D01*
X185915379Y-131874000D01*
X185750456Y-132038923D01*
X185607093Y-132253482D01*
X185508342Y-132491887D01*
X185458000Y-132744976D01*
X185458000Y-133003024D01*
X185508342Y-133256113D01*
X185607093Y-133494518D01*
X185750456Y-133709077D01*
X185915379Y-133874000D01*
X185750456Y-134038923D01*
X185607093Y-134253482D01*
X185508342Y-134491887D01*
X185458000Y-134744976D01*
X185458000Y-135003024D01*
X185508342Y-135256113D01*
X185607093Y-135494518D01*
X185750456Y-135709077D01*
X185932923Y-135891544D01*
X186147482Y-136034907D01*
X186385887Y-136133658D01*
X186638976Y-136184000D01*
X186897024Y-136184000D01*
X187150113Y-136133658D01*
X187388518Y-136034907D01*
X187603077Y-135891544D01*
X187785544Y-135709077D01*
X187928907Y-135494518D01*
X188027658Y-135256113D01*
X188078000Y-135003024D01*
X188078000Y-134744976D01*
X188027658Y-134491887D01*
X187928907Y-134253482D01*
X187785544Y-134038923D01*
X187620621Y-133874000D01*
X187785544Y-133709077D01*
X187928907Y-133494518D01*
X188027658Y-133256113D01*
X188078000Y-133003024D01*
X188078000Y-132744976D01*
X188027658Y-132491887D01*
X187928907Y-132253482D01*
X187785544Y-132038923D01*
X187620621Y-131874000D01*
X187785544Y-131709077D01*
X187928907Y-131494518D01*
X188027658Y-131256113D01*
X188078000Y-131003024D01*
X188078000Y-130744976D01*
X188027658Y-130491887D01*
X187928907Y-130253482D01*
X187785544Y-130038923D01*
X187620621Y-129874000D01*
X187785544Y-129709077D01*
X187928907Y-129494518D01*
X188027658Y-129256113D01*
X188078000Y-129003024D01*
X188078000Y-128744976D01*
X188027658Y-128491887D01*
X187928907Y-128253482D01*
X187785544Y-128038923D01*
X187620621Y-127874000D01*
X187785544Y-127709077D01*
X187928907Y-127494518D01*
X188027658Y-127256113D01*
X188078000Y-127003024D01*
X188078000Y-126744976D01*
X188027658Y-126491887D01*
X187928907Y-126253482D01*
X187785544Y-126038923D01*
X187620621Y-125874000D01*
X187785544Y-125709077D01*
X187928907Y-125494518D01*
X188027658Y-125256113D01*
X188078000Y-125003024D01*
X188078000Y-124744976D01*
X188027658Y-124491887D01*
X187928907Y-124253482D01*
X187785544Y-124038923D01*
X187620621Y-123874000D01*
X187785544Y-123709077D01*
X187928907Y-123494518D01*
X188027658Y-123256113D01*
X188078000Y-123003024D01*
X188078000Y-122744976D01*
X188027658Y-122491887D01*
X187928907Y-122253482D01*
X187785544Y-122038923D01*
X187620621Y-121874000D01*
X187785544Y-121709077D01*
X187928907Y-121494518D01*
X188027658Y-121256113D01*
X188078000Y-121003024D01*
X188078000Y-120744976D01*
X188027658Y-120491887D01*
X187928907Y-120253482D01*
X187785544Y-120038923D01*
X187620621Y-119874000D01*
X187785544Y-119709077D01*
X187928907Y-119494518D01*
X188027658Y-119256113D01*
X188078000Y-119003024D01*
X188078000Y-118744976D01*
X188027658Y-118491887D01*
X187928907Y-118253482D01*
X187785544Y-118038923D01*
X187620621Y-117874000D01*
X187785544Y-117709077D01*
X187928907Y-117494518D01*
X188027658Y-117256113D01*
X188078000Y-117003024D01*
X188078000Y-116744976D01*
X188027658Y-116491887D01*
X187928907Y-116253482D01*
X187785544Y-116038923D01*
X187603077Y-115856456D01*
X187388518Y-115713093D01*
X187150113Y-115614342D01*
X186897024Y-115564000D01*
X186638976Y-115564000D01*
X186385887Y-115614342D01*
X186147482Y-115713093D01*
X185932923Y-115856456D01*
X185750456Y-116038923D01*
X185607093Y-116253482D01*
X185508342Y-116491887D01*
X185458000Y-116744976D01*
X165913460Y-116744976D01*
X166035910Y-116544600D01*
X166005238Y-116443472D01*
X165897473Y-116210371D01*
X165746303Y-116002773D01*
X165557537Y-115828656D01*
X165338430Y-115694711D01*
X165097401Y-115606085D01*
X164895000Y-115728915D01*
X164641000Y-115728915D01*
X164438599Y-115606085D01*
X164197570Y-115694711D01*
X163978463Y-115828656D01*
X163789697Y-116002773D01*
X163638527Y-116210371D01*
X163530762Y-116443472D01*
X163500090Y-116544600D01*
X149619702Y-116544600D01*
X149664704Y-116514531D01*
X149788531Y-116390704D01*
X149885821Y-116245099D01*
X149952836Y-116083312D01*
X149987000Y-115911559D01*
X149987000Y-115736441D01*
X149952836Y-115564688D01*
X149885821Y-115402901D01*
X149788531Y-115257296D01*
X149664704Y-115133469D01*
X149519099Y-115036179D01*
X149357312Y-114969164D01*
X149185559Y-114935000D01*
X149010441Y-114935000D01*
X148838688Y-114969164D01*
X148676901Y-115036179D01*
X148531296Y-115133469D01*
X148407469Y-115257296D01*
X148310179Y-115402901D01*
X148243164Y-115564688D01*
X148209000Y-115736441D01*
X145923000Y-115736441D01*
X145888836Y-115564688D01*
X145821821Y-115402901D01*
X145724531Y-115257296D01*
X145600704Y-115133469D01*
X145455099Y-115036179D01*
X145293312Y-114969164D01*
X145121559Y-114935000D01*
X144946441Y-114935000D01*
X144902897Y-114943662D01*
X144838704Y-114879469D01*
X144693099Y-114782179D01*
X144531312Y-114715164D01*
X144359559Y-114681000D01*
X144184441Y-114681000D01*
X144012688Y-114715164D01*
X143850901Y-114782179D01*
X143705296Y-114879469D01*
X143581469Y-115003296D01*
X143484179Y-115148901D01*
X143417164Y-115310688D01*
X143383000Y-115482441D01*
X132900768Y-115482441D01*
X132867821Y-115402901D01*
X132770531Y-115257296D01*
X132646704Y-115133469D01*
X132501099Y-115036179D01*
X132339312Y-114969164D01*
X132167559Y-114935000D01*
X131992441Y-114935000D01*
X131820688Y-114969164D01*
X131658901Y-115036179D01*
X131513296Y-115133469D01*
X131389469Y-115257296D01*
X131292179Y-115402901D01*
X131225164Y-115564688D01*
X131191000Y-115736441D01*
X129008644Y-115736441D01*
X128970972Y-115503935D01*
X128885300Y-115274226D01*
X128843192Y-115195448D01*
X128618632Y-115146973D01*
X127941605Y-115824000D01*
X127582395Y-115824000D01*
X126905368Y-115146973D01*
X126680808Y-115195448D01*
X126578958Y-115418456D01*
X126522572Y-115657048D01*
X126513817Y-115902056D01*
X112420000Y-115902056D01*
X112420000Y-114212441D01*
X119507000Y-114212441D01*
X119507000Y-114387559D01*
X119541164Y-114559312D01*
X119608179Y-114721099D01*
X119705469Y-114866704D01*
X119829296Y-114990531D01*
X119974901Y-115087821D01*
X120136688Y-115154836D01*
X120308441Y-115189000D01*
X120483559Y-115189000D01*
X120655312Y-115154836D01*
X120817099Y-115087821D01*
X120962704Y-114990531D01*
X121086531Y-114866704D01*
X121150317Y-114771241D01*
X121285000Y-114771241D01*
X121285000Y-114946359D01*
X121319164Y-115118112D01*
X121386179Y-115279899D01*
X121483469Y-115425504D01*
X121607296Y-115549331D01*
X121752901Y-115646621D01*
X121914688Y-115713636D01*
X122086441Y-115747800D01*
X122261559Y-115747800D01*
X122433312Y-115713636D01*
X122595099Y-115646621D01*
X122740704Y-115549331D01*
X122864531Y-115425504D01*
X122961821Y-115279899D01*
X123028836Y-115118112D01*
X123058821Y-114967368D01*
X127084973Y-114967368D01*
X127762000Y-115644395D01*
X128439027Y-114967368D01*
X128390552Y-114742808D01*
X128167544Y-114640958D01*
X127928952Y-114584572D01*
X127683944Y-114575817D01*
X127441935Y-114615028D01*
X127212226Y-114700700D01*
X127133448Y-114742808D01*
X127084973Y-114967368D01*
X123058821Y-114967368D01*
X123063000Y-114946359D01*
X123063000Y-114771241D01*
X123028836Y-114599488D01*
X122961821Y-114437701D01*
X122864531Y-114292096D01*
X122740704Y-114168269D01*
X122595099Y-114070979D01*
X122433312Y-114003964D01*
X122261559Y-113969800D01*
X122086441Y-113969800D01*
X121914688Y-114003964D01*
X121752901Y-114070979D01*
X121607296Y-114168269D01*
X121483469Y-114292096D01*
X121386179Y-114437701D01*
X121319164Y-114599488D01*
X121285000Y-114771241D01*
X121150317Y-114771241D01*
X121183821Y-114721099D01*
X121250836Y-114559312D01*
X121285000Y-114387559D01*
X121285000Y-114212441D01*
X121250836Y-114040688D01*
X121183821Y-113878901D01*
X121086531Y-113733296D01*
X120962704Y-113609469D01*
X120817099Y-113512179D01*
X120655312Y-113445164D01*
X120483559Y-113411000D01*
X120308441Y-113411000D01*
X120136688Y-113445164D01*
X119974901Y-113512179D01*
X119829296Y-113609469D01*
X119705469Y-113733296D01*
X119608179Y-113878901D01*
X119541164Y-114040688D01*
X119507000Y-114212441D01*
X112420000Y-114212441D01*
X112420000Y-113161418D01*
X126517400Y-113161418D01*
X126517400Y-113406582D01*
X126565229Y-113647036D01*
X126659050Y-113873539D01*
X126795256Y-114077386D01*
X126968614Y-114250744D01*
X127172461Y-114386950D01*
X127398964Y-114480771D01*
X127639418Y-114528600D01*
X127884582Y-114528600D01*
X128125036Y-114480771D01*
X128351539Y-114386950D01*
X128555386Y-114250744D01*
X128728744Y-114077386D01*
X128864950Y-113873539D01*
X128958771Y-113647036D01*
X129006600Y-113406582D01*
X129006600Y-113161418D01*
X128963044Y-112942441D01*
X135509000Y-112942441D01*
X135509000Y-113117559D01*
X135543164Y-113289312D01*
X135610179Y-113451099D01*
X135707469Y-113596704D01*
X135831296Y-113720531D01*
X135976901Y-113817821D01*
X136138688Y-113884836D01*
X136310441Y-113919000D01*
X136485559Y-113919000D01*
X136657312Y-113884836D01*
X136819099Y-113817821D01*
X136964704Y-113720531D01*
X137088531Y-113596704D01*
X137185821Y-113451099D01*
X137252836Y-113289312D01*
X137287000Y-113117559D01*
X137287000Y-112942441D01*
X137252836Y-112770688D01*
X137185821Y-112608901D01*
X137088531Y-112463296D01*
X136964704Y-112339469D01*
X136819099Y-112242179D01*
X136657312Y-112175164D01*
X136485559Y-112141000D01*
X136310441Y-112141000D01*
X136138688Y-112175164D01*
X135976901Y-112242179D01*
X135831296Y-112339469D01*
X135707469Y-112463296D01*
X135610179Y-112608901D01*
X135543164Y-112770688D01*
X135509000Y-112942441D01*
X128963044Y-112942441D01*
X128958771Y-112920964D01*
X128864950Y-112694461D01*
X128728744Y-112490614D01*
X128555386Y-112317256D01*
X128351539Y-112181050D01*
X128125036Y-112087229D01*
X127884582Y-112039400D01*
X127639418Y-112039400D01*
X127398964Y-112087229D01*
X127172461Y-112181050D01*
X126968614Y-112317256D01*
X126795256Y-112490614D01*
X126659050Y-112694461D01*
X126565229Y-112920964D01*
X126517400Y-113161418D01*
X112420000Y-113161418D01*
X112420000Y-110656441D01*
X131445000Y-110656441D01*
X131445000Y-110831559D01*
X131479164Y-111003312D01*
X131546179Y-111165099D01*
X131643469Y-111310704D01*
X131767296Y-111434531D01*
X131912901Y-111531821D01*
X132074688Y-111598836D01*
X132246441Y-111633000D01*
X132421559Y-111633000D01*
X132593312Y-111598836D01*
X132755099Y-111531821D01*
X132900704Y-111434531D01*
X133024531Y-111310704D01*
X133121821Y-111165099D01*
X133188836Y-111003312D01*
X133223000Y-110831559D01*
X133223000Y-110656441D01*
X133188836Y-110484688D01*
X133121821Y-110322901D01*
X133024531Y-110177296D01*
X132900704Y-110053469D01*
X132755099Y-109956179D01*
X132593312Y-109889164D01*
X132421559Y-109855000D01*
X132246441Y-109855000D01*
X132074688Y-109889164D01*
X131912901Y-109956179D01*
X131767296Y-110053469D01*
X131643469Y-110177296D01*
X131546179Y-110322901D01*
X131479164Y-110484688D01*
X131445000Y-110656441D01*
X112420000Y-110656441D01*
X112420000Y-109386441D01*
X136271000Y-109386441D01*
X136271000Y-109561559D01*
X136305164Y-109733312D01*
X136372179Y-109895099D01*
X136469469Y-110040704D01*
X136593296Y-110164531D01*
X136738901Y-110261821D01*
X136900688Y-110328836D01*
X137072441Y-110363000D01*
X136900688Y-110397164D01*
X136738901Y-110464179D01*
X136593296Y-110561469D01*
X136469469Y-110685296D01*
X136372179Y-110830901D01*
X136305164Y-110992688D01*
X136271000Y-111164441D01*
X136271000Y-111339559D01*
X136305164Y-111511312D01*
X136372179Y-111673099D01*
X136469469Y-111818704D01*
X136593296Y-111942531D01*
X136738901Y-112039821D01*
X136900688Y-112106836D01*
X137072441Y-112141000D01*
X137247559Y-112141000D01*
X137419312Y-112106836D01*
X137581099Y-112039821D01*
X137726704Y-111942531D01*
X137850531Y-111818704D01*
X137947821Y-111673099D01*
X138014836Y-111511312D01*
X138049000Y-111339559D01*
X138049000Y-111164441D01*
X138014836Y-110992688D01*
X137947821Y-110830901D01*
X137850531Y-110685296D01*
X137726704Y-110561469D01*
X137581099Y-110464179D01*
X137419312Y-110397164D01*
X137247559Y-110363000D01*
X137419312Y-110328836D01*
X137581099Y-110261821D01*
X137726704Y-110164531D01*
X137850531Y-110040704D01*
X137947821Y-109895099D01*
X138014836Y-109733312D01*
X138049000Y-109561559D01*
X138049000Y-109386441D01*
X151511000Y-109386441D01*
X151511000Y-109561559D01*
X151545164Y-109733312D01*
X151612179Y-109895099D01*
X151709469Y-110040704D01*
X151828538Y-110159773D01*
X151799164Y-110230688D01*
X151765000Y-110402441D01*
X151765000Y-110577559D01*
X151799164Y-110749312D01*
X151866179Y-110911099D01*
X151963469Y-111056704D01*
X152027662Y-111120897D01*
X152019000Y-111164441D01*
X152019000Y-111339559D01*
X152053164Y-111511312D01*
X152120179Y-111673099D01*
X152217469Y-111818704D01*
X152341296Y-111942531D01*
X152486901Y-112039821D01*
X152648688Y-112106836D01*
X152787544Y-112134456D01*
X152815164Y-112273312D01*
X152859417Y-112380148D01*
X152776269Y-112463296D01*
X152678979Y-112608901D01*
X152611964Y-112770688D01*
X152577800Y-112942441D01*
X152577800Y-113117559D01*
X152611964Y-113289312D01*
X152678979Y-113451099D01*
X152776269Y-113596704D01*
X152900096Y-113720531D01*
X153045701Y-113817821D01*
X153207488Y-113884836D01*
X153379241Y-113919000D01*
X153554359Y-113919000D01*
X153726112Y-113884836D01*
X153887899Y-113817821D01*
X154033504Y-113720531D01*
X154157331Y-113596704D01*
X154254621Y-113451099D01*
X154321636Y-113289312D01*
X154355800Y-113117559D01*
X154355800Y-112942441D01*
X154321636Y-112770688D01*
X154277383Y-112663852D01*
X154360531Y-112580704D01*
X154457821Y-112435099D01*
X154524836Y-112273312D01*
X154559000Y-112101559D01*
X154559000Y-111926441D01*
X154524836Y-111754688D01*
X154457821Y-111592901D01*
X154360531Y-111447296D01*
X154236704Y-111323469D01*
X154091099Y-111226179D01*
X153929312Y-111159164D01*
X153790456Y-111131544D01*
X153762836Y-110992688D01*
X153695821Y-110830901D01*
X153598531Y-110685296D01*
X153534338Y-110621103D01*
X153543000Y-110577559D01*
X153543000Y-110402441D01*
X153508836Y-110230688D01*
X153441821Y-110068901D01*
X153344531Y-109923296D01*
X153225462Y-109804227D01*
X153254836Y-109733312D01*
X153289000Y-109561559D01*
X153289000Y-109386441D01*
X153254836Y-109214688D01*
X153187821Y-109052901D01*
X153090531Y-108907296D01*
X152966704Y-108783469D01*
X152821099Y-108686179D01*
X152659312Y-108619164D01*
X152487559Y-108585000D01*
X152312441Y-108585000D01*
X152140688Y-108619164D01*
X151978901Y-108686179D01*
X151833296Y-108783469D01*
X151709469Y-108907296D01*
X151612179Y-109052901D01*
X151545164Y-109214688D01*
X151511000Y-109386441D01*
X138049000Y-109386441D01*
X138014836Y-109214688D01*
X137947821Y-109052901D01*
X137850531Y-108907296D01*
X137726704Y-108783469D01*
X137581099Y-108686179D01*
X137419312Y-108619164D01*
X137247559Y-108585000D01*
X137072441Y-108585000D01*
X136900688Y-108619164D01*
X136738901Y-108686179D01*
X136593296Y-108783469D01*
X136469469Y-108907296D01*
X136372179Y-109052901D01*
X136305164Y-109214688D01*
X136271000Y-109386441D01*
X112420000Y-109386441D01*
X112420000Y-108116441D01*
X139065000Y-108116441D01*
X139065000Y-108291559D01*
X139099164Y-108463312D01*
X139166179Y-108625099D01*
X139263469Y-108770704D01*
X139387296Y-108894531D01*
X139532901Y-108991821D01*
X139694688Y-109058836D01*
X139866441Y-109093000D01*
X140041559Y-109093000D01*
X140213312Y-109058836D01*
X140375099Y-108991821D01*
X140520704Y-108894531D01*
X140644531Y-108770704D01*
X140741821Y-108625099D01*
X140808836Y-108463312D01*
X140843000Y-108291559D01*
X140843000Y-108116441D01*
X140808836Y-107944688D01*
X140741821Y-107782901D01*
X140644531Y-107637296D01*
X140520704Y-107513469D01*
X140375099Y-107416179D01*
X140213312Y-107349164D01*
X140041559Y-107315000D01*
X139866441Y-107315000D01*
X139694688Y-107349164D01*
X139532901Y-107416179D01*
X139387296Y-107513469D01*
X139263469Y-107637296D01*
X139166179Y-107782901D01*
X139099164Y-107944688D01*
X139065000Y-108116441D01*
X112420000Y-108116441D01*
X112420000Y-107100441D01*
X152781000Y-107100441D01*
X152781000Y-107275559D01*
X152815164Y-107447312D01*
X152882179Y-107609099D01*
X152979469Y-107754704D01*
X153103296Y-107878531D01*
X153248901Y-107975821D01*
X153410688Y-108042836D01*
X153582441Y-108077000D01*
X153757559Y-108077000D01*
X153929312Y-108042836D01*
X154091099Y-107975821D01*
X154236704Y-107878531D01*
X154360531Y-107754704D01*
X154457821Y-107609099D01*
X154524836Y-107447312D01*
X154559000Y-107275559D01*
X154559000Y-107100441D01*
X154524836Y-106928688D01*
X154457821Y-106766901D01*
X154360531Y-106621296D01*
X154236704Y-106497469D01*
X154091099Y-106400179D01*
X153929312Y-106333164D01*
X153757559Y-106299000D01*
X153582441Y-106299000D01*
X153410688Y-106333164D01*
X153248901Y-106400179D01*
X153103296Y-106497469D01*
X152979469Y-106621296D01*
X152882179Y-106766901D01*
X152815164Y-106928688D01*
X152781000Y-107100441D01*
X112420000Y-107100441D01*
X112420000Y-103109500D01*
X125737428Y-103109500D01*
X125737428Y-105734500D01*
X125749688Y-105858982D01*
X125785998Y-105978680D01*
X125844963Y-106088994D01*
X125924315Y-106185685D01*
X126021006Y-106265037D01*
X126131320Y-106324002D01*
X126251018Y-106360312D01*
X126375500Y-106372572D01*
X129000500Y-106372572D01*
X129124982Y-106360312D01*
X129244680Y-106324002D01*
X129354994Y-106265037D01*
X129451685Y-106185685D01*
X129531037Y-106088994D01*
X129533706Y-106084000D01*
X155737928Y-106084000D01*
X155737928Y-107784000D01*
X155750188Y-107908482D01*
X155786498Y-108028180D01*
X155845463Y-108138494D01*
X155924815Y-108235185D01*
X156021506Y-108314537D01*
X156131820Y-108373502D01*
X156204380Y-108395513D01*
X156072525Y-108527368D01*
X155910010Y-108770589D01*
X155798068Y-109040842D01*
X155741000Y-109327740D01*
X155741000Y-109620260D01*
X155798068Y-109907158D01*
X155910010Y-110177411D01*
X156072525Y-110420632D01*
X156279368Y-110627475D01*
X156453760Y-110744000D01*
X156279368Y-110860525D01*
X156072525Y-111067368D01*
X155910010Y-111310589D01*
X155798068Y-111580842D01*
X155741000Y-111867740D01*
X155741000Y-112160260D01*
X155798068Y-112447158D01*
X155910010Y-112717411D01*
X156072525Y-112960632D01*
X156279368Y-113167475D01*
X156522589Y-113329990D01*
X156792842Y-113441932D01*
X157079740Y-113499000D01*
X157372260Y-113499000D01*
X157659158Y-113441932D01*
X157929411Y-113329990D01*
X158172632Y-113167475D01*
X158379475Y-112960632D01*
X158496000Y-112786240D01*
X158612525Y-112960632D01*
X158819368Y-113167475D01*
X159062589Y-113329990D01*
X159332842Y-113441932D01*
X159619740Y-113499000D01*
X159912260Y-113499000D01*
X160199158Y-113441932D01*
X160469411Y-113329990D01*
X160712632Y-113167475D01*
X160919475Y-112960632D01*
X161081990Y-112717411D01*
X161193932Y-112447158D01*
X161251000Y-112160260D01*
X161251000Y-111867740D01*
X161193932Y-111580842D01*
X161081990Y-111310589D01*
X160919475Y-111067368D01*
X160712632Y-110860525D01*
X160530466Y-110738805D01*
X160647355Y-110669178D01*
X160661485Y-110656441D01*
X183007000Y-110656441D01*
X183007000Y-110831559D01*
X183041164Y-111003312D01*
X183108179Y-111165099D01*
X183205469Y-111310704D01*
X183329296Y-111434531D01*
X183474901Y-111531821D01*
X183636688Y-111598836D01*
X183808441Y-111633000D01*
X183983559Y-111633000D01*
X184155312Y-111598836D01*
X184317099Y-111531821D01*
X184462704Y-111434531D01*
X184586531Y-111310704D01*
X184683821Y-111165099D01*
X184750836Y-111003312D01*
X184785000Y-110831559D01*
X184785000Y-110656441D01*
X184750836Y-110484688D01*
X184683821Y-110322901D01*
X184586531Y-110177296D01*
X184462704Y-110053469D01*
X184317099Y-109956179D01*
X184155312Y-109889164D01*
X183983559Y-109855000D01*
X183808441Y-109855000D01*
X183636688Y-109889164D01*
X183474901Y-109956179D01*
X183329296Y-110053469D01*
X183205469Y-110177296D01*
X183108179Y-110322901D01*
X183041164Y-110484688D01*
X183007000Y-110656441D01*
X160661485Y-110656441D01*
X160863588Y-110474269D01*
X161037641Y-110240920D01*
X161162825Y-109978099D01*
X161207476Y-109830890D01*
X161086155Y-109601000D01*
X159893000Y-109601000D01*
X159893000Y-109621000D01*
X159639000Y-109621000D01*
X159639000Y-109601000D01*
X159619000Y-109601000D01*
X159619000Y-109347000D01*
X159639000Y-109347000D01*
X159639000Y-109327000D01*
X159893000Y-109327000D01*
X159893000Y-109347000D01*
X161086155Y-109347000D01*
X161207476Y-109117110D01*
X161162825Y-108969901D01*
X161037641Y-108707080D01*
X160863588Y-108473731D01*
X160647355Y-108278822D01*
X160530466Y-108209195D01*
X160712632Y-108087475D01*
X160919475Y-107880632D01*
X161081990Y-107637411D01*
X161193932Y-107367158D01*
X161251000Y-107080260D01*
X161251000Y-106787740D01*
X161193932Y-106500842D01*
X161081990Y-106230589D01*
X160919475Y-105987368D01*
X160712632Y-105780525D01*
X160469411Y-105618010D01*
X160199158Y-105506068D01*
X159912260Y-105449000D01*
X159619740Y-105449000D01*
X159332842Y-105506068D01*
X159062589Y-105618010D01*
X158819368Y-105780525D01*
X158687513Y-105912380D01*
X158665502Y-105839820D01*
X158606537Y-105729506D01*
X158527185Y-105632815D01*
X158430494Y-105553463D01*
X158320180Y-105494498D01*
X158200482Y-105458188D01*
X158076000Y-105445928D01*
X156376000Y-105445928D01*
X156251518Y-105458188D01*
X156131820Y-105494498D01*
X156021506Y-105553463D01*
X155924815Y-105632815D01*
X155845463Y-105729506D01*
X155786498Y-105839820D01*
X155750188Y-105959518D01*
X155737928Y-106084000D01*
X129533706Y-106084000D01*
X129590002Y-105978680D01*
X129626312Y-105858982D01*
X129638572Y-105734500D01*
X129638572Y-104306441D01*
X161163000Y-104306441D01*
X161163000Y-104481559D01*
X161197164Y-104653312D01*
X161264179Y-104815099D01*
X161361469Y-104960704D01*
X161485296Y-105084531D01*
X161630901Y-105181821D01*
X161792688Y-105248836D01*
X161964441Y-105283000D01*
X162139559Y-105283000D01*
X162311312Y-105248836D01*
X162473099Y-105181821D01*
X162618704Y-105084531D01*
X162742531Y-104960704D01*
X162839821Y-104815099D01*
X162906836Y-104653312D01*
X162941000Y-104481559D01*
X162941000Y-104306441D01*
X162906836Y-104134688D01*
X162839821Y-103972901D01*
X162742531Y-103827296D01*
X162618704Y-103703469D01*
X162473099Y-103606179D01*
X162311312Y-103539164D01*
X162139559Y-103505000D01*
X161964441Y-103505000D01*
X161792688Y-103539164D01*
X161630901Y-103606179D01*
X161485296Y-103703469D01*
X161361469Y-103827296D01*
X161264179Y-103972901D01*
X161197164Y-104134688D01*
X161163000Y-104306441D01*
X129638572Y-104306441D01*
X129638572Y-103109500D01*
X129626312Y-102985018D01*
X129590002Y-102865320D01*
X129545702Y-102782441D01*
X146939000Y-102782441D01*
X146939000Y-102957559D01*
X146973164Y-103129312D01*
X147040179Y-103291099D01*
X147137469Y-103436704D01*
X147261296Y-103560531D01*
X147406901Y-103657821D01*
X147568688Y-103724836D01*
X147740441Y-103759000D01*
X147915559Y-103759000D01*
X148087312Y-103724836D01*
X148249099Y-103657821D01*
X148394704Y-103560531D01*
X148518531Y-103436704D01*
X148615821Y-103291099D01*
X148682836Y-103129312D01*
X148717000Y-102957559D01*
X148717000Y-102782441D01*
X148682836Y-102610688D01*
X148648768Y-102528441D01*
X162687000Y-102528441D01*
X162687000Y-102703559D01*
X162721164Y-102875312D01*
X162788179Y-103037099D01*
X162885469Y-103182704D01*
X163009296Y-103306531D01*
X163154901Y-103403821D01*
X163316688Y-103470836D01*
X163488441Y-103505000D01*
X163663559Y-103505000D01*
X163835312Y-103470836D01*
X163997099Y-103403821D01*
X164142704Y-103306531D01*
X164266531Y-103182704D01*
X164363821Y-103037099D01*
X164430836Y-102875312D01*
X164465000Y-102703559D01*
X164465000Y-102528441D01*
X164430836Y-102356688D01*
X164363821Y-102194901D01*
X164266531Y-102049296D01*
X164142704Y-101925469D01*
X163997099Y-101828179D01*
X163848052Y-101766441D01*
X170815000Y-101766441D01*
X170815000Y-101941559D01*
X170849164Y-102113312D01*
X170916179Y-102275099D01*
X171013469Y-102420704D01*
X171137296Y-102544531D01*
X171282901Y-102641821D01*
X171444688Y-102708836D01*
X171616441Y-102743000D01*
X171791559Y-102743000D01*
X171963312Y-102708836D01*
X172125099Y-102641821D01*
X172270704Y-102544531D01*
X172394531Y-102420704D01*
X172491821Y-102275099D01*
X172558836Y-102113312D01*
X172593000Y-101941559D01*
X172593000Y-101766441D01*
X172558836Y-101594688D01*
X172491821Y-101432901D01*
X172394531Y-101287296D01*
X172270704Y-101163469D01*
X172125099Y-101066179D01*
X171963312Y-100999164D01*
X171791559Y-100965000D01*
X171616441Y-100965000D01*
X171444688Y-100999164D01*
X171282901Y-101066179D01*
X171137296Y-101163469D01*
X171013469Y-101287296D01*
X170916179Y-101432901D01*
X170849164Y-101594688D01*
X170815000Y-101766441D01*
X163848052Y-101766441D01*
X163835312Y-101761164D01*
X163663559Y-101727000D01*
X163488441Y-101727000D01*
X163316688Y-101761164D01*
X163154901Y-101828179D01*
X163009296Y-101925469D01*
X162885469Y-102049296D01*
X162788179Y-102194901D01*
X162721164Y-102356688D01*
X162687000Y-102528441D01*
X148648768Y-102528441D01*
X148615821Y-102448901D01*
X148518531Y-102303296D01*
X148394704Y-102179469D01*
X148249099Y-102082179D01*
X148087312Y-102015164D01*
X147915559Y-101981000D01*
X147740441Y-101981000D01*
X147568688Y-102015164D01*
X147406901Y-102082179D01*
X147261296Y-102179469D01*
X147137469Y-102303296D01*
X147040179Y-102448901D01*
X146973164Y-102610688D01*
X146939000Y-102782441D01*
X129545702Y-102782441D01*
X129531037Y-102755006D01*
X129451685Y-102658315D01*
X129354994Y-102578963D01*
X129244680Y-102519998D01*
X129124982Y-102483688D01*
X129000500Y-102471428D01*
X126375500Y-102471428D01*
X126251018Y-102483688D01*
X126131320Y-102519998D01*
X126021006Y-102578963D01*
X125924315Y-102658315D01*
X125844963Y-102755006D01*
X125785998Y-102865320D01*
X125749688Y-102985018D01*
X125737428Y-103109500D01*
X112420000Y-103109500D01*
X112420000Y-99630188D01*
X125740500Y-99630188D01*
X125740500Y-100013812D01*
X125815341Y-100390065D01*
X125962148Y-100744487D01*
X126175278Y-101063459D01*
X126446541Y-101334722D01*
X126765513Y-101547852D01*
X127119935Y-101694659D01*
X127496188Y-101769500D01*
X127879812Y-101769500D01*
X128256065Y-101694659D01*
X128610487Y-101547852D01*
X128929459Y-101334722D01*
X129200722Y-101063459D01*
X129413852Y-100744487D01*
X129560659Y-100390065D01*
X129635500Y-100013812D01*
X129635500Y-99630188D01*
X129560659Y-99253935D01*
X129413852Y-98899513D01*
X129200722Y-98580541D01*
X129084622Y-98464441D01*
X135509000Y-98464441D01*
X135509000Y-98639559D01*
X135543164Y-98811312D01*
X135610179Y-98973099D01*
X135707469Y-99118704D01*
X135831296Y-99242531D01*
X135976901Y-99339821D01*
X136138688Y-99406836D01*
X136310441Y-99441000D01*
X136485559Y-99441000D01*
X136657312Y-99406836D01*
X136819099Y-99339821D01*
X136964704Y-99242531D01*
X136980794Y-99226441D01*
X152019000Y-99226441D01*
X152019000Y-99401559D01*
X152053164Y-99573312D01*
X152120179Y-99735099D01*
X152217469Y-99880704D01*
X152341296Y-100004531D01*
X152486901Y-100101821D01*
X152648688Y-100168836D01*
X152820441Y-100203000D01*
X152995559Y-100203000D01*
X153167312Y-100168836D01*
X153329099Y-100101821D01*
X153474704Y-100004531D01*
X153598531Y-99880704D01*
X153695821Y-99735099D01*
X153762836Y-99573312D01*
X153797000Y-99401559D01*
X153797000Y-99226441D01*
X153762836Y-99054688D01*
X153695821Y-98892901D01*
X153598531Y-98747296D01*
X153569676Y-98718441D01*
X162687000Y-98718441D01*
X162687000Y-98893559D01*
X162721164Y-99065312D01*
X162788179Y-99227099D01*
X162885469Y-99372704D01*
X163009296Y-99496531D01*
X163154901Y-99593821D01*
X163316688Y-99660836D01*
X163488441Y-99695000D01*
X163663559Y-99695000D01*
X163835312Y-99660836D01*
X163983882Y-99599296D01*
X163957000Y-99734441D01*
X163957000Y-99909559D01*
X163991164Y-100081312D01*
X164058179Y-100243099D01*
X164155469Y-100388704D01*
X164279296Y-100512531D01*
X164424901Y-100609821D01*
X164586688Y-100676836D01*
X164758441Y-100711000D01*
X164933559Y-100711000D01*
X165105312Y-100676836D01*
X165267099Y-100609821D01*
X165412704Y-100512531D01*
X165536531Y-100388704D01*
X165633821Y-100243099D01*
X165700836Y-100081312D01*
X165735000Y-99909559D01*
X165735000Y-99734441D01*
X165700836Y-99562688D01*
X165633821Y-99400901D01*
X165536531Y-99255296D01*
X165412704Y-99131469D01*
X165267099Y-99034179D01*
X165105312Y-98967164D01*
X164933559Y-98933000D01*
X164758441Y-98933000D01*
X164586688Y-98967164D01*
X164438118Y-99028704D01*
X164465000Y-98893559D01*
X164465000Y-98718441D01*
X164430836Y-98546688D01*
X164363821Y-98384901D01*
X164266531Y-98239296D01*
X164142704Y-98115469D01*
X163997099Y-98018179D01*
X163835312Y-97951164D01*
X163663559Y-97917000D01*
X163488441Y-97917000D01*
X163316688Y-97951164D01*
X163154901Y-98018179D01*
X163009296Y-98115469D01*
X162885469Y-98239296D01*
X162788179Y-98384901D01*
X162721164Y-98546688D01*
X162687000Y-98718441D01*
X153569676Y-98718441D01*
X153474704Y-98623469D01*
X153329099Y-98526179D01*
X153167312Y-98459164D01*
X152995559Y-98425000D01*
X152820441Y-98425000D01*
X152648688Y-98459164D01*
X152486901Y-98526179D01*
X152341296Y-98623469D01*
X152217469Y-98747296D01*
X152120179Y-98892901D01*
X152053164Y-99054688D01*
X152019000Y-99226441D01*
X136980794Y-99226441D01*
X137088531Y-99118704D01*
X137185821Y-98973099D01*
X137252836Y-98811312D01*
X137287000Y-98639559D01*
X137287000Y-98464441D01*
X137252836Y-98292688D01*
X137185821Y-98130901D01*
X137088531Y-97985296D01*
X136964704Y-97861469D01*
X136819099Y-97764179D01*
X136657312Y-97697164D01*
X136485559Y-97663000D01*
X136310441Y-97663000D01*
X136138688Y-97697164D01*
X135976901Y-97764179D01*
X135831296Y-97861469D01*
X135707469Y-97985296D01*
X135610179Y-98130901D01*
X135543164Y-98292688D01*
X135509000Y-98464441D01*
X129084622Y-98464441D01*
X128929459Y-98309278D01*
X128610487Y-98096148D01*
X128256065Y-97949341D01*
X127879812Y-97874500D01*
X127496188Y-97874500D01*
X127119935Y-97949341D01*
X126765513Y-98096148D01*
X126446541Y-98309278D01*
X126175278Y-98580541D01*
X125962148Y-98899513D01*
X125815341Y-99253935D01*
X125740500Y-99630188D01*
X112420000Y-99630188D01*
X112420000Y-96288344D01*
X118719000Y-96288344D01*
X118719000Y-96659656D01*
X118791439Y-97023834D01*
X118933534Y-97366882D01*
X119139825Y-97675618D01*
X119402382Y-97938175D01*
X119711118Y-98144466D01*
X120054166Y-98286561D01*
X120418344Y-98359000D01*
X120789656Y-98359000D01*
X121153834Y-98286561D01*
X121496882Y-98144466D01*
X121805618Y-97938175D01*
X122068175Y-97675618D01*
X122274466Y-97366882D01*
X122416561Y-97023834D01*
X122489000Y-96659656D01*
X122489000Y-96288344D01*
X157419000Y-96288344D01*
X157419000Y-96659656D01*
X157491439Y-97023834D01*
X157633534Y-97366882D01*
X157839825Y-97675618D01*
X158102382Y-97938175D01*
X158411118Y-98144466D01*
X158754166Y-98286561D01*
X159118344Y-98359000D01*
X159489656Y-98359000D01*
X159853834Y-98286561D01*
X160196882Y-98144466D01*
X160505618Y-97938175D01*
X160741352Y-97702441D01*
X165989000Y-97702441D01*
X165989000Y-97877559D01*
X166023164Y-98049312D01*
X166090179Y-98211099D01*
X166187469Y-98356704D01*
X166311296Y-98480531D01*
X166456901Y-98577821D01*
X166618688Y-98644836D01*
X166790441Y-98679000D01*
X166965559Y-98679000D01*
X167137312Y-98644836D01*
X167299099Y-98577821D01*
X167444704Y-98480531D01*
X167568531Y-98356704D01*
X167665821Y-98211099D01*
X167732836Y-98049312D01*
X167767000Y-97877559D01*
X167767000Y-97702441D01*
X170561000Y-97702441D01*
X170561000Y-97877559D01*
X170595164Y-98049312D01*
X170662179Y-98211099D01*
X170759469Y-98356704D01*
X170883296Y-98480531D01*
X171028901Y-98577821D01*
X171137988Y-98623007D01*
X171137296Y-98623469D01*
X171013469Y-98747296D01*
X170916179Y-98892901D01*
X170849164Y-99054688D01*
X170815000Y-99226441D01*
X170815000Y-99401559D01*
X170849164Y-99573312D01*
X170916179Y-99735099D01*
X171013469Y-99880704D01*
X171137296Y-100004531D01*
X171282901Y-100101821D01*
X171444688Y-100168836D01*
X171616441Y-100203000D01*
X171791559Y-100203000D01*
X171963312Y-100168836D01*
X172125099Y-100101821D01*
X172270704Y-100004531D01*
X172394531Y-99880704D01*
X172491821Y-99735099D01*
X172558836Y-99573312D01*
X172593000Y-99401559D01*
X172593000Y-99226441D01*
X172558836Y-99054688D01*
X172491821Y-98892901D01*
X172394531Y-98747296D01*
X172270704Y-98623469D01*
X172125099Y-98526179D01*
X172016012Y-98480993D01*
X172016704Y-98480531D01*
X172140531Y-98356704D01*
X172237821Y-98211099D01*
X172304836Y-98049312D01*
X172339000Y-97877559D01*
X172339000Y-97702441D01*
X172304836Y-97530688D01*
X172237821Y-97368901D01*
X172140531Y-97223296D01*
X172016704Y-97099469D01*
X171871099Y-97002179D01*
X171709312Y-96935164D01*
X171537559Y-96901000D01*
X171362441Y-96901000D01*
X171190688Y-96935164D01*
X171028901Y-97002179D01*
X170883296Y-97099469D01*
X170759469Y-97223296D01*
X170662179Y-97368901D01*
X170595164Y-97530688D01*
X170561000Y-97702441D01*
X167767000Y-97702441D01*
X167732836Y-97530688D01*
X167665821Y-97368901D01*
X167568531Y-97223296D01*
X167444704Y-97099469D01*
X167299099Y-97002179D01*
X167137312Y-96935164D01*
X166965559Y-96901000D01*
X166790441Y-96901000D01*
X166618688Y-96935164D01*
X166456901Y-97002179D01*
X166311296Y-97099469D01*
X166187469Y-97223296D01*
X166090179Y-97368901D01*
X166023164Y-97530688D01*
X165989000Y-97702441D01*
X160741352Y-97702441D01*
X160768175Y-97675618D01*
X160974466Y-97366882D01*
X161116561Y-97023834D01*
X161189000Y-96659656D01*
X161189000Y-96288344D01*
X161116561Y-95924166D01*
X160974466Y-95581118D01*
X160768175Y-95272382D01*
X160505618Y-95009825D01*
X160196882Y-94803534D01*
X159853834Y-94661439D01*
X159489656Y-94589000D01*
X159118344Y-94589000D01*
X158754166Y-94661439D01*
X158411118Y-94803534D01*
X158102382Y-95009825D01*
X157839825Y-95272382D01*
X157633534Y-95581118D01*
X157491439Y-95924166D01*
X157419000Y-96288344D01*
X122489000Y-96288344D01*
X122416561Y-95924166D01*
X122274466Y-95581118D01*
X122068175Y-95272382D01*
X121805618Y-95009825D01*
X121496882Y-94803534D01*
X121153834Y-94661439D01*
X120789656Y-94589000D01*
X120418344Y-94589000D01*
X120054166Y-94661439D01*
X119711118Y-94803534D01*
X119402382Y-95009825D01*
X119139825Y-95272382D01*
X118933534Y-95581118D01*
X118791439Y-95924166D01*
X118719000Y-96288344D01*
X112420000Y-96288344D01*
X112420000Y-94146441D01*
X138557000Y-94146441D01*
X138557000Y-94321559D01*
X138591164Y-94493312D01*
X138658179Y-94655099D01*
X138755469Y-94800704D01*
X138879296Y-94924531D01*
X139024901Y-95021821D01*
X139186688Y-95088836D01*
X139358441Y-95123000D01*
X139533559Y-95123000D01*
X139705312Y-95088836D01*
X139867099Y-95021821D01*
X140012704Y-94924531D01*
X140136531Y-94800704D01*
X140233821Y-94655099D01*
X140300836Y-94493312D01*
X140335000Y-94321559D01*
X140335000Y-94146441D01*
X140300836Y-93974688D01*
X140233821Y-93812901D01*
X140136531Y-93667296D01*
X140012704Y-93543469D01*
X139867099Y-93446179D01*
X139705312Y-93379164D01*
X139533559Y-93345000D01*
X139358441Y-93345000D01*
X139186688Y-93379164D01*
X139024901Y-93446179D01*
X138879296Y-93543469D01*
X138755469Y-93667296D01*
X138658179Y-93812901D01*
X138591164Y-93974688D01*
X138557000Y-94146441D01*
X112420000Y-94146441D01*
X112420000Y-90711872D01*
X112827000Y-90711872D01*
X112827000Y-91152128D01*
X112912890Y-91583925D01*
X113081369Y-91990669D01*
X113325962Y-92356729D01*
X113637271Y-92668038D01*
X114003331Y-92912631D01*
X114410075Y-93081110D01*
X114841872Y-93167000D01*
X115282128Y-93167000D01*
X115713925Y-93081110D01*
X116120669Y-92912631D01*
X116486729Y-92668038D01*
X116532326Y-92622441D01*
X170815000Y-92622441D01*
X170815000Y-92797559D01*
X170849164Y-92969312D01*
X170916179Y-93131099D01*
X171013469Y-93276704D01*
X171137296Y-93400531D01*
X171282901Y-93497821D01*
X171444688Y-93564836D01*
X171616441Y-93599000D01*
X171791559Y-93599000D01*
X171963312Y-93564836D01*
X172125099Y-93497821D01*
X172270704Y-93400531D01*
X172394531Y-93276704D01*
X172491821Y-93131099D01*
X172558836Y-92969312D01*
X172593000Y-92797559D01*
X172593000Y-92622441D01*
X172558836Y-92450688D01*
X172491821Y-92288901D01*
X172394531Y-92143296D01*
X172270704Y-92019469D01*
X172125099Y-91922179D01*
X171963312Y-91855164D01*
X171791559Y-91821000D01*
X171616441Y-91821000D01*
X171444688Y-91855164D01*
X171282901Y-91922179D01*
X171137296Y-92019469D01*
X171013469Y-92143296D01*
X170916179Y-92288901D01*
X170849164Y-92450688D01*
X170815000Y-92622441D01*
X116532326Y-92622441D01*
X116798038Y-92356729D01*
X117042631Y-91990669D01*
X117211110Y-91583925D01*
X117297000Y-91152128D01*
X117297000Y-91098441D01*
X163957000Y-91098441D01*
X163957000Y-91273559D01*
X163991164Y-91445312D01*
X164058179Y-91607099D01*
X164155469Y-91752704D01*
X164279296Y-91876531D01*
X164424901Y-91973821D01*
X164586688Y-92040836D01*
X164758441Y-92075000D01*
X164933559Y-92075000D01*
X165105312Y-92040836D01*
X165267099Y-91973821D01*
X165412704Y-91876531D01*
X165536531Y-91752704D01*
X165633821Y-91607099D01*
X165700836Y-91445312D01*
X165735000Y-91273559D01*
X165735000Y-91098441D01*
X165700836Y-90926688D01*
X165633821Y-90764901D01*
X165598389Y-90711872D01*
X184963000Y-90711872D01*
X184963000Y-91152128D01*
X185048890Y-91583925D01*
X185217369Y-91990669D01*
X185461962Y-92356729D01*
X185773271Y-92668038D01*
X186139331Y-92912631D01*
X186546075Y-93081110D01*
X186977872Y-93167000D01*
X187418128Y-93167000D01*
X187849925Y-93081110D01*
X188256669Y-92912631D01*
X188622729Y-92668038D01*
X188934038Y-92356729D01*
X189178631Y-91990669D01*
X189347110Y-91583925D01*
X189433000Y-91152128D01*
X189433000Y-90711872D01*
X189347110Y-90280075D01*
X189178631Y-89873331D01*
X188934038Y-89507271D01*
X188622729Y-89195962D01*
X188256669Y-88951369D01*
X187849925Y-88782890D01*
X187418128Y-88697000D01*
X186977872Y-88697000D01*
X186546075Y-88782890D01*
X186139331Y-88951369D01*
X185773271Y-89195962D01*
X185461962Y-89507271D01*
X185217369Y-89873331D01*
X185048890Y-90280075D01*
X184963000Y-90711872D01*
X165598389Y-90711872D01*
X165536531Y-90619296D01*
X165412704Y-90495469D01*
X165267099Y-90398179D01*
X165105312Y-90331164D01*
X164933559Y-90297000D01*
X164758441Y-90297000D01*
X164586688Y-90331164D01*
X164424901Y-90398179D01*
X164279296Y-90495469D01*
X164155469Y-90619296D01*
X164058179Y-90764901D01*
X163991164Y-90926688D01*
X163957000Y-91098441D01*
X117297000Y-91098441D01*
X117297000Y-90711872D01*
X117211110Y-90280075D01*
X117201967Y-90258000D01*
X120685928Y-90258000D01*
X120698188Y-90382482D01*
X120734498Y-90502180D01*
X120793463Y-90612494D01*
X120872815Y-90709185D01*
X120969506Y-90788537D01*
X121079820Y-90847502D01*
X121199518Y-90883812D01*
X121324000Y-90896072D01*
X121888250Y-90893000D01*
X122047000Y-90734250D01*
X122047000Y-89535000D01*
X120847750Y-89535000D01*
X120689000Y-89693750D01*
X120685928Y-90258000D01*
X117201967Y-90258000D01*
X117042631Y-89873331D01*
X116798038Y-89507271D01*
X116486729Y-89195962D01*
X116120669Y-88951369D01*
X115713925Y-88782890D01*
X115282128Y-88697000D01*
X114841872Y-88697000D01*
X114410075Y-88782890D01*
X114003331Y-88951369D01*
X113637271Y-89195962D01*
X113325962Y-89507271D01*
X113081369Y-89873331D01*
X112912890Y-90280075D01*
X112827000Y-90711872D01*
X112420000Y-90711872D01*
X112420000Y-88290000D01*
X120747230Y-88290000D01*
X120734498Y-88313820D01*
G37*
%TD.AperFunction*%
%TD*%
M02*
