G04 #@! TF.GenerationSoftware,KiCad,Pcbnew,(5.1.4)-1*
G04 #@! TF.CreationDate,2019-12-04T08:55:51-06:00*
G04 #@! TF.ProjectId,motor_control,6d6f746f-725f-4636-9f6e-74726f6c2e6b,rev?*
G04 #@! TF.SameCoordinates,Original*
G04 #@! TF.FileFunction,Copper,L3,Inr*
G04 #@! TF.FilePolarity,Positive*
%FSLAX46Y46*%
G04 Gerber Fmt 4.6, Leading zero omitted, Abs format (unit mm)*
G04 Created by KiCad (PCBNEW (5.1.4)-1) date 2019-12-04 08:55:51*
%MOMM*%
%LPD*%
G04 APERTURE LIST*
%ADD10C,1.600000*%
%ADD11C,1.500000*%
%ADD12O,1.700000X1.700000*%
%ADD13R,1.700000X1.700000*%
%ADD14O,2.800000X2.800000*%
%ADD15C,2.800000*%
%ADD16C,0.508000*%
%ADD17C,1.016000*%
%ADD18C,0.254000*%
G04 APERTURE END LIST*
D10*
X143423000Y-87630000D03*
X148423000Y-87630000D03*
D11*
X136866000Y-83464400D03*
X131866000Y-83464400D03*
D12*
X126796800Y-109677200D03*
X126796800Y-107137200D03*
X126796800Y-104597200D03*
X126796800Y-102057200D03*
D13*
X126796800Y-99517200D03*
D12*
X167640000Y-83693000D03*
D13*
X165100000Y-83693000D03*
D12*
X170180000Y-75946000D03*
X167640000Y-75946000D03*
X165100000Y-75946000D03*
D13*
X162560000Y-75946000D03*
X180594000Y-99060000D03*
D12*
X180594000Y-101600000D03*
X180594000Y-104140000D03*
X180594000Y-106680000D03*
X170180000Y-117094000D03*
X167640000Y-117094000D03*
X165100000Y-117094000D03*
D13*
X162560000Y-117094000D03*
X180594000Y-86360000D03*
D12*
X180594000Y-88900000D03*
X180594000Y-91440000D03*
X180594000Y-93980000D03*
D13*
X126796800Y-91897200D03*
D12*
X126796800Y-94437200D03*
X126796800Y-86817200D03*
D13*
X126796800Y-84277200D03*
D14*
X151333200Y-102412800D03*
D15*
X131013200Y-102412800D03*
D16*
X176530000Y-103022400D03*
X177647600Y-92710000D03*
X166217600Y-90119200D03*
X172110400Y-90576400D03*
X166522400Y-92710000D03*
D17*
X135280400Y-96266000D03*
X133705600Y-96266000D03*
X146761200Y-103784400D03*
D16*
X134467600Y-110744000D03*
X168960800Y-100431600D03*
X169672000Y-98145600D03*
X132384800Y-100076000D03*
X177698400Y-103022400D03*
X174904400Y-100228400D03*
X169672000Y-96570800D03*
X174955200Y-90830400D03*
X165354000Y-90830400D03*
X169113200Y-94335600D03*
X156311600Y-90424000D03*
X156311600Y-104190800D03*
X147015200Y-89916000D03*
D17*
X133705600Y-93980000D03*
X135280400Y-93980000D03*
X138836400Y-84582000D03*
X139598400Y-98602800D03*
X135483600Y-102616000D03*
D16*
X175006000Y-95097600D03*
X165709600Y-100685600D03*
D17*
X131876800Y-85648800D03*
D16*
X141732000Y-104546400D03*
X163880800Y-100076000D03*
X156311600Y-92354400D03*
X163830000Y-96215200D03*
X156311600Y-102260400D03*
X166166800Y-97100200D03*
X159766000Y-114300000D03*
X147066000Y-101904800D03*
X137464800Y-107188000D03*
X173329600Y-89712800D03*
X135737600Y-107188000D03*
X172770800Y-89103200D03*
X173532800Y-95453200D03*
X161137600Y-84531200D03*
X160883601Y-99415601D03*
X166370000Y-99568000D03*
X171837124Y-89975192D03*
X172161200Y-99720400D03*
D18*
G36*
X182220001Y-118720000D02*
G01*
X125120000Y-118720000D01*
X125120000Y-115349872D01*
X126035000Y-115349872D01*
X126035000Y-115790128D01*
X126120890Y-116221925D01*
X126289369Y-116628669D01*
X126533962Y-116994729D01*
X126845271Y-117306038D01*
X127211331Y-117550631D01*
X127618075Y-117719110D01*
X128049872Y-117805000D01*
X128490128Y-117805000D01*
X128921925Y-117719110D01*
X129328669Y-117550631D01*
X129694729Y-117306038D01*
X130006038Y-116994729D01*
X130250631Y-116628669D01*
X130409966Y-116244000D01*
X161071928Y-116244000D01*
X161071928Y-117944000D01*
X161084188Y-118068482D01*
X161120498Y-118188180D01*
X161179463Y-118298494D01*
X161258815Y-118395185D01*
X161355506Y-118474537D01*
X161465820Y-118533502D01*
X161585518Y-118569812D01*
X161710000Y-118582072D01*
X163410000Y-118582072D01*
X163534482Y-118569812D01*
X163654180Y-118533502D01*
X163764494Y-118474537D01*
X163861185Y-118395185D01*
X163940537Y-118298494D01*
X163999502Y-118188180D01*
X164020393Y-118119313D01*
X164044866Y-118149134D01*
X164270986Y-118334706D01*
X164528966Y-118472599D01*
X164808889Y-118557513D01*
X165027050Y-118579000D01*
X165172950Y-118579000D01*
X165391111Y-118557513D01*
X165671034Y-118472599D01*
X165929014Y-118334706D01*
X166155134Y-118149134D01*
X166340706Y-117923014D01*
X166370000Y-117868209D01*
X166399294Y-117923014D01*
X166584866Y-118149134D01*
X166810986Y-118334706D01*
X167068966Y-118472599D01*
X167348889Y-118557513D01*
X167567050Y-118579000D01*
X167712950Y-118579000D01*
X167931111Y-118557513D01*
X168211034Y-118472599D01*
X168469014Y-118334706D01*
X168695134Y-118149134D01*
X168880706Y-117923014D01*
X168910000Y-117868209D01*
X168939294Y-117923014D01*
X169124866Y-118149134D01*
X169350986Y-118334706D01*
X169608966Y-118472599D01*
X169888889Y-118557513D01*
X170107050Y-118579000D01*
X170252950Y-118579000D01*
X170471111Y-118557513D01*
X170751034Y-118472599D01*
X171009014Y-118334706D01*
X171235134Y-118149134D01*
X171420706Y-117923014D01*
X171558599Y-117665034D01*
X171643513Y-117385111D01*
X171672185Y-117094000D01*
X171643513Y-116802889D01*
X171558599Y-116522966D01*
X171420706Y-116264986D01*
X171235134Y-116038866D01*
X171009014Y-115853294D01*
X170751034Y-115715401D01*
X170471111Y-115630487D01*
X170252950Y-115609000D01*
X170107050Y-115609000D01*
X169888889Y-115630487D01*
X169608966Y-115715401D01*
X169350986Y-115853294D01*
X169124866Y-116038866D01*
X168939294Y-116264986D01*
X168910000Y-116319791D01*
X168880706Y-116264986D01*
X168695134Y-116038866D01*
X168469014Y-115853294D01*
X168211034Y-115715401D01*
X167931111Y-115630487D01*
X167712950Y-115609000D01*
X167567050Y-115609000D01*
X167348889Y-115630487D01*
X167068966Y-115715401D01*
X166810986Y-115853294D01*
X166584866Y-116038866D01*
X166399294Y-116264986D01*
X166370000Y-116319791D01*
X166340706Y-116264986D01*
X166155134Y-116038866D01*
X165929014Y-115853294D01*
X165671034Y-115715401D01*
X165391111Y-115630487D01*
X165172950Y-115609000D01*
X165027050Y-115609000D01*
X164808889Y-115630487D01*
X164528966Y-115715401D01*
X164270986Y-115853294D01*
X164044866Y-116038866D01*
X164020393Y-116068687D01*
X163999502Y-115999820D01*
X163940537Y-115889506D01*
X163861185Y-115792815D01*
X163764494Y-115713463D01*
X163654180Y-115654498D01*
X163534482Y-115618188D01*
X163410000Y-115605928D01*
X161710000Y-115605928D01*
X161585518Y-115618188D01*
X161465820Y-115654498D01*
X161355506Y-115713463D01*
X161258815Y-115792815D01*
X161179463Y-115889506D01*
X161120498Y-115999820D01*
X161084188Y-116119518D01*
X161071928Y-116244000D01*
X130409966Y-116244000D01*
X130419110Y-116221925D01*
X130505000Y-115790128D01*
X130505000Y-115349872D01*
X176835000Y-115349872D01*
X176835000Y-115790128D01*
X176920890Y-116221925D01*
X177089369Y-116628669D01*
X177333962Y-116994729D01*
X177645271Y-117306038D01*
X178011331Y-117550631D01*
X178418075Y-117719110D01*
X178849872Y-117805000D01*
X179290128Y-117805000D01*
X179721925Y-117719110D01*
X180128669Y-117550631D01*
X180494729Y-117306038D01*
X180806038Y-116994729D01*
X181050631Y-116628669D01*
X181219110Y-116221925D01*
X181305000Y-115790128D01*
X181305000Y-115349872D01*
X181219110Y-114918075D01*
X181050631Y-114511331D01*
X180806038Y-114145271D01*
X180494729Y-113833962D01*
X180128669Y-113589369D01*
X179721925Y-113420890D01*
X179290128Y-113335000D01*
X178849872Y-113335000D01*
X178418075Y-113420890D01*
X178011331Y-113589369D01*
X177645271Y-113833962D01*
X177333962Y-114145271D01*
X177089369Y-114511331D01*
X176920890Y-114918075D01*
X176835000Y-115349872D01*
X130505000Y-115349872D01*
X130419110Y-114918075D01*
X130250631Y-114511331D01*
X130050920Y-114212441D01*
X158877000Y-114212441D01*
X158877000Y-114387559D01*
X158911164Y-114559312D01*
X158978179Y-114721099D01*
X159075469Y-114866704D01*
X159199296Y-114990531D01*
X159344901Y-115087821D01*
X159506688Y-115154836D01*
X159678441Y-115189000D01*
X159853559Y-115189000D01*
X160025312Y-115154836D01*
X160187099Y-115087821D01*
X160332704Y-114990531D01*
X160456531Y-114866704D01*
X160553821Y-114721099D01*
X160620836Y-114559312D01*
X160655000Y-114387559D01*
X160655000Y-114212441D01*
X160620836Y-114040688D01*
X160553821Y-113878901D01*
X160456531Y-113733296D01*
X160332704Y-113609469D01*
X160187099Y-113512179D01*
X160025312Y-113445164D01*
X159853559Y-113411000D01*
X159678441Y-113411000D01*
X159506688Y-113445164D01*
X159344901Y-113512179D01*
X159199296Y-113609469D01*
X159075469Y-113733296D01*
X158978179Y-113878901D01*
X158911164Y-114040688D01*
X158877000Y-114212441D01*
X130050920Y-114212441D01*
X130006038Y-114145271D01*
X129694729Y-113833962D01*
X129328669Y-113589369D01*
X128921925Y-113420890D01*
X128490128Y-113335000D01*
X128049872Y-113335000D01*
X127618075Y-113420890D01*
X127211331Y-113589369D01*
X126845271Y-113833962D01*
X126533962Y-114145271D01*
X126289369Y-114511331D01*
X126120890Y-114918075D01*
X126035000Y-115349872D01*
X125120000Y-115349872D01*
X125120000Y-102057200D01*
X125304615Y-102057200D01*
X125333287Y-102348311D01*
X125418201Y-102628234D01*
X125556094Y-102886214D01*
X125741666Y-103112334D01*
X125967786Y-103297906D01*
X126022591Y-103327200D01*
X125967786Y-103356494D01*
X125741666Y-103542066D01*
X125556094Y-103768186D01*
X125418201Y-104026166D01*
X125333287Y-104306089D01*
X125304615Y-104597200D01*
X125333287Y-104888311D01*
X125418201Y-105168234D01*
X125556094Y-105426214D01*
X125741666Y-105652334D01*
X125967786Y-105837906D01*
X126022591Y-105867200D01*
X125967786Y-105896494D01*
X125741666Y-106082066D01*
X125556094Y-106308186D01*
X125418201Y-106566166D01*
X125333287Y-106846089D01*
X125304615Y-107137200D01*
X125333287Y-107428311D01*
X125418201Y-107708234D01*
X125556094Y-107966214D01*
X125741666Y-108192334D01*
X125967786Y-108377906D01*
X126022591Y-108407200D01*
X125967786Y-108436494D01*
X125741666Y-108622066D01*
X125556094Y-108848186D01*
X125418201Y-109106166D01*
X125333287Y-109386089D01*
X125304615Y-109677200D01*
X125333287Y-109968311D01*
X125418201Y-110248234D01*
X125556094Y-110506214D01*
X125741666Y-110732334D01*
X125967786Y-110917906D01*
X126225766Y-111055799D01*
X126505689Y-111140713D01*
X126723850Y-111162200D01*
X126869750Y-111162200D01*
X127087911Y-111140713D01*
X127367834Y-111055799D01*
X127625814Y-110917906D01*
X127851934Y-110732334D01*
X128037506Y-110506214D01*
X128175399Y-110248234D01*
X128260313Y-109968311D01*
X128288985Y-109677200D01*
X128260313Y-109386089D01*
X128175399Y-109106166D01*
X128037506Y-108848186D01*
X127851934Y-108622066D01*
X127625814Y-108436494D01*
X127571009Y-108407200D01*
X127625814Y-108377906D01*
X127851934Y-108192334D01*
X128037506Y-107966214D01*
X128175399Y-107708234D01*
X128260313Y-107428311D01*
X128288985Y-107137200D01*
X128285365Y-107100441D01*
X134848600Y-107100441D01*
X134848600Y-107275559D01*
X134882764Y-107447312D01*
X134949779Y-107609099D01*
X135047069Y-107754704D01*
X135170896Y-107878531D01*
X135316501Y-107975821D01*
X135478288Y-108042836D01*
X135650041Y-108077000D01*
X135825159Y-108077000D01*
X135996912Y-108042836D01*
X136158699Y-107975821D01*
X136304304Y-107878531D01*
X136428131Y-107754704D01*
X136525421Y-107609099D01*
X136592436Y-107447312D01*
X136601200Y-107403253D01*
X136609964Y-107447312D01*
X136676979Y-107609099D01*
X136774269Y-107754704D01*
X136898096Y-107878531D01*
X137043701Y-107975821D01*
X137205488Y-108042836D01*
X137377241Y-108077000D01*
X137552359Y-108077000D01*
X137724112Y-108042836D01*
X137885899Y-107975821D01*
X138031504Y-107878531D01*
X138155331Y-107754704D01*
X138252621Y-107609099D01*
X138319636Y-107447312D01*
X138353800Y-107275559D01*
X138353800Y-107100441D01*
X138319636Y-106928688D01*
X138252621Y-106766901D01*
X138155331Y-106621296D01*
X138031504Y-106497469D01*
X137885899Y-106400179D01*
X137724112Y-106333164D01*
X137552359Y-106299000D01*
X137377241Y-106299000D01*
X137205488Y-106333164D01*
X137043701Y-106400179D01*
X136898096Y-106497469D01*
X136774269Y-106621296D01*
X136676979Y-106766901D01*
X136609964Y-106928688D01*
X136601200Y-106972747D01*
X136592436Y-106928688D01*
X136525421Y-106766901D01*
X136428131Y-106621296D01*
X136304304Y-106497469D01*
X136158699Y-106400179D01*
X135996912Y-106333164D01*
X135825159Y-106299000D01*
X135650041Y-106299000D01*
X135478288Y-106333164D01*
X135316501Y-106400179D01*
X135170896Y-106497469D01*
X135047069Y-106621296D01*
X134949779Y-106766901D01*
X134882764Y-106928688D01*
X134848600Y-107100441D01*
X128285365Y-107100441D01*
X128260313Y-106846089D01*
X128175399Y-106566166D01*
X128037506Y-106308186D01*
X127851934Y-106082066D01*
X127625814Y-105896494D01*
X127571009Y-105867200D01*
X127625814Y-105837906D01*
X127851934Y-105652334D01*
X128037506Y-105426214D01*
X128175399Y-105168234D01*
X128260313Y-104888311D01*
X128288985Y-104597200D01*
X128275358Y-104458841D01*
X140843000Y-104458841D01*
X140843000Y-104633959D01*
X140877164Y-104805712D01*
X140944179Y-104967499D01*
X141041469Y-105113104D01*
X141165296Y-105236931D01*
X141310901Y-105334221D01*
X141472688Y-105401236D01*
X141644441Y-105435400D01*
X141819559Y-105435400D01*
X141991312Y-105401236D01*
X142153099Y-105334221D01*
X142298704Y-105236931D01*
X142422531Y-105113104D01*
X142519821Y-104967499D01*
X142586836Y-104805712D01*
X142621000Y-104633959D01*
X142621000Y-104458841D01*
X142586836Y-104287088D01*
X142519821Y-104125301D01*
X142422531Y-103979696D01*
X142298704Y-103855869D01*
X142153099Y-103758579D01*
X141991312Y-103691564D01*
X141819559Y-103657400D01*
X141644441Y-103657400D01*
X141472688Y-103691564D01*
X141310901Y-103758579D01*
X141165296Y-103855869D01*
X141041469Y-103979696D01*
X140944179Y-104125301D01*
X140877164Y-104287088D01*
X140843000Y-104458841D01*
X128275358Y-104458841D01*
X128260313Y-104306089D01*
X128175399Y-104026166D01*
X128037506Y-103768186D01*
X127851934Y-103542066D01*
X127625814Y-103356494D01*
X127571009Y-103327200D01*
X127625814Y-103297906D01*
X127851934Y-103112334D01*
X128037506Y-102886214D01*
X128175399Y-102628234D01*
X128260313Y-102348311D01*
X128273702Y-102212370D01*
X128978200Y-102212370D01*
X128978200Y-102613230D01*
X129056404Y-103006387D01*
X129209807Y-103376734D01*
X129432513Y-103710037D01*
X129715963Y-103993487D01*
X130049266Y-104216193D01*
X130419613Y-104369596D01*
X130812770Y-104447800D01*
X131213630Y-104447800D01*
X131606787Y-104369596D01*
X131977134Y-104216193D01*
X132310437Y-103993487D01*
X132593887Y-103710037D01*
X132816593Y-103376734D01*
X132969996Y-103006387D01*
X133048200Y-102613230D01*
X133048200Y-102503424D01*
X134340600Y-102503424D01*
X134340600Y-102728576D01*
X134384525Y-102949401D01*
X134470687Y-103157413D01*
X134595774Y-103344620D01*
X134754980Y-103503826D01*
X134942187Y-103628913D01*
X135150199Y-103715075D01*
X135371024Y-103759000D01*
X135596176Y-103759000D01*
X135817001Y-103715075D01*
X136025013Y-103628913D01*
X136212220Y-103503826D01*
X136371426Y-103344620D01*
X136496513Y-103157413D01*
X136582675Y-102949401D01*
X136626600Y-102728576D01*
X136626600Y-102503424D01*
X136582675Y-102282599D01*
X136496513Y-102074587D01*
X136371426Y-101887380D01*
X136301287Y-101817241D01*
X146177000Y-101817241D01*
X146177000Y-101992359D01*
X146211164Y-102164112D01*
X146278179Y-102325899D01*
X146375469Y-102471504D01*
X146499296Y-102595331D01*
X146644901Y-102692621D01*
X146806688Y-102759636D01*
X146978441Y-102793800D01*
X147153559Y-102793800D01*
X147325312Y-102759636D01*
X147487099Y-102692621D01*
X147632704Y-102595331D01*
X147756531Y-102471504D01*
X147795755Y-102412800D01*
X149288354Y-102412800D01*
X149327645Y-102811730D01*
X149444009Y-103195329D01*
X149632973Y-103548856D01*
X149887276Y-103858724D01*
X150197144Y-104113027D01*
X150550671Y-104301991D01*
X150934270Y-104418355D01*
X151233231Y-104447800D01*
X151433169Y-104447800D01*
X151732130Y-104418355D01*
X152115729Y-104301991D01*
X152469256Y-104113027D01*
X152481180Y-104103241D01*
X155422600Y-104103241D01*
X155422600Y-104278359D01*
X155456764Y-104450112D01*
X155523779Y-104611899D01*
X155621069Y-104757504D01*
X155744896Y-104881331D01*
X155890501Y-104978621D01*
X156052288Y-105045636D01*
X156224041Y-105079800D01*
X156399159Y-105079800D01*
X156570912Y-105045636D01*
X156732699Y-104978621D01*
X156878304Y-104881331D01*
X157002131Y-104757504D01*
X157099421Y-104611899D01*
X157166436Y-104450112D01*
X157200600Y-104278359D01*
X157200600Y-104103241D01*
X157166436Y-103931488D01*
X157099421Y-103769701D01*
X157002131Y-103624096D01*
X156878304Y-103500269D01*
X156732699Y-103402979D01*
X156570912Y-103335964D01*
X156399159Y-103301800D01*
X156224041Y-103301800D01*
X156052288Y-103335964D01*
X155890501Y-103402979D01*
X155744896Y-103500269D01*
X155621069Y-103624096D01*
X155523779Y-103769701D01*
X155456764Y-103931488D01*
X155422600Y-104103241D01*
X152481180Y-104103241D01*
X152779124Y-103858724D01*
X153033427Y-103548856D01*
X153222391Y-103195329D01*
X153338755Y-102811730D01*
X153378046Y-102412800D01*
X153354413Y-102172841D01*
X155422600Y-102172841D01*
X155422600Y-102347959D01*
X155456764Y-102519712D01*
X155523779Y-102681499D01*
X155621069Y-102827104D01*
X155744896Y-102950931D01*
X155890501Y-103048221D01*
X156052288Y-103115236D01*
X156224041Y-103149400D01*
X156399159Y-103149400D01*
X156570912Y-103115236D01*
X156732699Y-103048221D01*
X156878304Y-102950931D01*
X156894394Y-102934841D01*
X176809400Y-102934841D01*
X176809400Y-103109959D01*
X176843564Y-103281712D01*
X176910579Y-103443499D01*
X177007869Y-103589104D01*
X177131696Y-103712931D01*
X177277301Y-103810221D01*
X177439088Y-103877236D01*
X177610841Y-103911400D01*
X177785959Y-103911400D01*
X177957712Y-103877236D01*
X178119499Y-103810221D01*
X178265104Y-103712931D01*
X178388931Y-103589104D01*
X178486221Y-103443499D01*
X178553236Y-103281712D01*
X178587400Y-103109959D01*
X178587400Y-102934841D01*
X178553236Y-102763088D01*
X178486221Y-102601301D01*
X178388931Y-102455696D01*
X178265104Y-102331869D01*
X178119499Y-102234579D01*
X177957712Y-102167564D01*
X177785959Y-102133400D01*
X177610841Y-102133400D01*
X177439088Y-102167564D01*
X177277301Y-102234579D01*
X177131696Y-102331869D01*
X177007869Y-102455696D01*
X176910579Y-102601301D01*
X176843564Y-102763088D01*
X176809400Y-102934841D01*
X156894394Y-102934841D01*
X157002131Y-102827104D01*
X157099421Y-102681499D01*
X157166436Y-102519712D01*
X157200600Y-102347959D01*
X157200600Y-102172841D01*
X157166436Y-102001088D01*
X157099421Y-101839301D01*
X157002131Y-101693696D01*
X156908435Y-101600000D01*
X179101815Y-101600000D01*
X179130487Y-101891111D01*
X179215401Y-102171034D01*
X179353294Y-102429014D01*
X179538866Y-102655134D01*
X179764986Y-102840706D01*
X179819791Y-102870000D01*
X179764986Y-102899294D01*
X179538866Y-103084866D01*
X179353294Y-103310986D01*
X179215401Y-103568966D01*
X179130487Y-103848889D01*
X179101815Y-104140000D01*
X179130487Y-104431111D01*
X179215401Y-104711034D01*
X179353294Y-104969014D01*
X179538866Y-105195134D01*
X179764986Y-105380706D01*
X179819791Y-105410000D01*
X179764986Y-105439294D01*
X179538866Y-105624866D01*
X179353294Y-105850986D01*
X179215401Y-106108966D01*
X179130487Y-106388889D01*
X179101815Y-106680000D01*
X179130487Y-106971111D01*
X179215401Y-107251034D01*
X179353294Y-107509014D01*
X179538866Y-107735134D01*
X179764986Y-107920706D01*
X180022966Y-108058599D01*
X180302889Y-108143513D01*
X180521050Y-108165000D01*
X180666950Y-108165000D01*
X180885111Y-108143513D01*
X181165034Y-108058599D01*
X181423014Y-107920706D01*
X181649134Y-107735134D01*
X181834706Y-107509014D01*
X181972599Y-107251034D01*
X182057513Y-106971111D01*
X182086185Y-106680000D01*
X182057513Y-106388889D01*
X181972599Y-106108966D01*
X181834706Y-105850986D01*
X181649134Y-105624866D01*
X181423014Y-105439294D01*
X181368209Y-105410000D01*
X181423014Y-105380706D01*
X181649134Y-105195134D01*
X181834706Y-104969014D01*
X181972599Y-104711034D01*
X182057513Y-104431111D01*
X182086185Y-104140000D01*
X182057513Y-103848889D01*
X181972599Y-103568966D01*
X181834706Y-103310986D01*
X181649134Y-103084866D01*
X181423014Y-102899294D01*
X181368209Y-102870000D01*
X181423014Y-102840706D01*
X181649134Y-102655134D01*
X181834706Y-102429014D01*
X181972599Y-102171034D01*
X182057513Y-101891111D01*
X182086185Y-101600000D01*
X182057513Y-101308889D01*
X181972599Y-101028966D01*
X181834706Y-100770986D01*
X181649134Y-100544866D01*
X181619313Y-100520393D01*
X181688180Y-100499502D01*
X181798494Y-100440537D01*
X181895185Y-100361185D01*
X181974537Y-100264494D01*
X182033502Y-100154180D01*
X182069812Y-100034482D01*
X182082072Y-99910000D01*
X182082072Y-98210000D01*
X182069812Y-98085518D01*
X182033502Y-97965820D01*
X181974537Y-97855506D01*
X181895185Y-97758815D01*
X181798494Y-97679463D01*
X181688180Y-97620498D01*
X181568482Y-97584188D01*
X181444000Y-97571928D01*
X179744000Y-97571928D01*
X179619518Y-97584188D01*
X179499820Y-97620498D01*
X179389506Y-97679463D01*
X179292815Y-97758815D01*
X179213463Y-97855506D01*
X179154498Y-97965820D01*
X179118188Y-98085518D01*
X179105928Y-98210000D01*
X179105928Y-99910000D01*
X179118188Y-100034482D01*
X179154498Y-100154180D01*
X179213463Y-100264494D01*
X179292815Y-100361185D01*
X179389506Y-100440537D01*
X179499820Y-100499502D01*
X179568687Y-100520393D01*
X179538866Y-100544866D01*
X179353294Y-100770986D01*
X179215401Y-101028966D01*
X179130487Y-101308889D01*
X179101815Y-101600000D01*
X156908435Y-101600000D01*
X156878304Y-101569869D01*
X156732699Y-101472579D01*
X156570912Y-101405564D01*
X156399159Y-101371400D01*
X156224041Y-101371400D01*
X156052288Y-101405564D01*
X155890501Y-101472579D01*
X155744896Y-101569869D01*
X155621069Y-101693696D01*
X155523779Y-101839301D01*
X155456764Y-102001088D01*
X155422600Y-102172841D01*
X153354413Y-102172841D01*
X153338755Y-102013870D01*
X153222391Y-101630271D01*
X153033427Y-101276744D01*
X152779124Y-100966876D01*
X152469256Y-100712573D01*
X152115729Y-100523609D01*
X151732130Y-100407245D01*
X151433169Y-100377800D01*
X151233231Y-100377800D01*
X150934270Y-100407245D01*
X150550671Y-100523609D01*
X150197144Y-100712573D01*
X149887276Y-100966876D01*
X149632973Y-101276744D01*
X149444009Y-101630271D01*
X149327645Y-102013870D01*
X149288354Y-102412800D01*
X147795755Y-102412800D01*
X147853821Y-102325899D01*
X147920836Y-102164112D01*
X147955000Y-101992359D01*
X147955000Y-101817241D01*
X147920836Y-101645488D01*
X147853821Y-101483701D01*
X147756531Y-101338096D01*
X147632704Y-101214269D01*
X147487099Y-101116979D01*
X147325312Y-101049964D01*
X147153559Y-101015800D01*
X146978441Y-101015800D01*
X146806688Y-101049964D01*
X146644901Y-101116979D01*
X146499296Y-101214269D01*
X146375469Y-101338096D01*
X146278179Y-101483701D01*
X146211164Y-101645488D01*
X146177000Y-101817241D01*
X136301287Y-101817241D01*
X136212220Y-101728174D01*
X136025013Y-101603087D01*
X135817001Y-101516925D01*
X135596176Y-101473000D01*
X135371024Y-101473000D01*
X135150199Y-101516925D01*
X134942187Y-101603087D01*
X134754980Y-101728174D01*
X134595774Y-101887380D01*
X134470687Y-102074587D01*
X134384525Y-102282599D01*
X134340600Y-102503424D01*
X133048200Y-102503424D01*
X133048200Y-102212370D01*
X132969996Y-101819213D01*
X132816593Y-101448866D01*
X132593887Y-101115563D01*
X132310437Y-100832113D01*
X131977134Y-100609407D01*
X131606787Y-100456004D01*
X131213630Y-100377800D01*
X130812770Y-100377800D01*
X130419613Y-100456004D01*
X130049266Y-100609407D01*
X129715963Y-100832113D01*
X129432513Y-101115563D01*
X129209807Y-101448866D01*
X129056404Y-101819213D01*
X128978200Y-102212370D01*
X128273702Y-102212370D01*
X128288985Y-102057200D01*
X128260313Y-101766089D01*
X128175399Y-101486166D01*
X128037506Y-101228186D01*
X127851934Y-101002066D01*
X127822113Y-100977593D01*
X127890980Y-100956702D01*
X128001294Y-100897737D01*
X128097985Y-100818385D01*
X128177337Y-100721694D01*
X128236302Y-100611380D01*
X128272612Y-100491682D01*
X128284872Y-100367200D01*
X128284872Y-98667200D01*
X128272612Y-98542718D01*
X128256689Y-98490224D01*
X138455400Y-98490224D01*
X138455400Y-98715376D01*
X138499325Y-98936201D01*
X138585487Y-99144213D01*
X138710574Y-99331420D01*
X138869780Y-99490626D01*
X139056987Y-99615713D01*
X139264999Y-99701875D01*
X139485824Y-99745800D01*
X139710976Y-99745800D01*
X139931801Y-99701875D01*
X140139813Y-99615713D01*
X140327020Y-99490626D01*
X140486226Y-99331420D01*
X140488483Y-99328042D01*
X159994601Y-99328042D01*
X159994601Y-99503160D01*
X160028765Y-99674913D01*
X160095780Y-99836700D01*
X160193070Y-99982305D01*
X160316897Y-100106132D01*
X160462502Y-100203422D01*
X160624289Y-100270437D01*
X160796042Y-100304601D01*
X160971160Y-100304601D01*
X161142913Y-100270437D01*
X161304700Y-100203422D01*
X161450305Y-100106132D01*
X161567996Y-99988441D01*
X162991800Y-99988441D01*
X162991800Y-100163559D01*
X163025964Y-100335312D01*
X163092979Y-100497099D01*
X163190269Y-100642704D01*
X163314096Y-100766531D01*
X163459701Y-100863821D01*
X163621488Y-100930836D01*
X163793241Y-100965000D01*
X163968359Y-100965000D01*
X164140112Y-100930836D01*
X164301899Y-100863821D01*
X164447504Y-100766531D01*
X164571331Y-100642704D01*
X164601173Y-100598041D01*
X164820600Y-100598041D01*
X164820600Y-100773159D01*
X164854764Y-100944912D01*
X164921779Y-101106699D01*
X165019069Y-101252304D01*
X165142896Y-101376131D01*
X165288501Y-101473421D01*
X165450288Y-101540436D01*
X165622041Y-101574600D01*
X165797159Y-101574600D01*
X165968912Y-101540436D01*
X166130699Y-101473421D01*
X166276304Y-101376131D01*
X166400131Y-101252304D01*
X166497421Y-101106699D01*
X166564436Y-100944912D01*
X166598600Y-100773159D01*
X166598600Y-100598041D01*
X166566245Y-100435381D01*
X166629312Y-100422836D01*
X166791099Y-100355821D01*
X166936704Y-100258531D01*
X167060531Y-100134704D01*
X167157821Y-99989099D01*
X167224836Y-99827312D01*
X167259000Y-99655559D01*
X167259000Y-99632841D01*
X171272200Y-99632841D01*
X171272200Y-99807959D01*
X171306364Y-99979712D01*
X171373379Y-100141499D01*
X171470669Y-100287104D01*
X171594496Y-100410931D01*
X171740101Y-100508221D01*
X171901888Y-100575236D01*
X172073641Y-100609400D01*
X172248759Y-100609400D01*
X172420512Y-100575236D01*
X172582299Y-100508221D01*
X172727904Y-100410931D01*
X172851731Y-100287104D01*
X172949021Y-100141499D01*
X172949293Y-100140841D01*
X174015400Y-100140841D01*
X174015400Y-100315959D01*
X174049564Y-100487712D01*
X174116579Y-100649499D01*
X174213869Y-100795104D01*
X174337696Y-100918931D01*
X174483301Y-101016221D01*
X174645088Y-101083236D01*
X174816841Y-101117400D01*
X174991959Y-101117400D01*
X175163712Y-101083236D01*
X175325499Y-101016221D01*
X175471104Y-100918931D01*
X175594931Y-100795104D01*
X175692221Y-100649499D01*
X175759236Y-100487712D01*
X175793400Y-100315959D01*
X175793400Y-100140841D01*
X175759236Y-99969088D01*
X175692221Y-99807301D01*
X175594931Y-99661696D01*
X175471104Y-99537869D01*
X175325499Y-99440579D01*
X175163712Y-99373564D01*
X174991959Y-99339400D01*
X174816841Y-99339400D01*
X174645088Y-99373564D01*
X174483301Y-99440579D01*
X174337696Y-99537869D01*
X174213869Y-99661696D01*
X174116579Y-99807301D01*
X174049564Y-99969088D01*
X174015400Y-100140841D01*
X172949293Y-100140841D01*
X173016036Y-99979712D01*
X173050200Y-99807959D01*
X173050200Y-99632841D01*
X173016036Y-99461088D01*
X172949021Y-99299301D01*
X172851731Y-99153696D01*
X172727904Y-99029869D01*
X172582299Y-98932579D01*
X172420512Y-98865564D01*
X172248759Y-98831400D01*
X172073641Y-98831400D01*
X171901888Y-98865564D01*
X171740101Y-98932579D01*
X171594496Y-99029869D01*
X171470669Y-99153696D01*
X171373379Y-99299301D01*
X171306364Y-99461088D01*
X171272200Y-99632841D01*
X167259000Y-99632841D01*
X167259000Y-99480441D01*
X167224836Y-99308688D01*
X167157821Y-99146901D01*
X167060531Y-99001296D01*
X166936704Y-98877469D01*
X166791099Y-98780179D01*
X166629312Y-98713164D01*
X166457559Y-98679000D01*
X166282441Y-98679000D01*
X166110688Y-98713164D01*
X165948901Y-98780179D01*
X165803296Y-98877469D01*
X165679469Y-99001296D01*
X165582179Y-99146901D01*
X165515164Y-99308688D01*
X165481000Y-99480441D01*
X165481000Y-99655559D01*
X165513355Y-99818219D01*
X165450288Y-99830764D01*
X165288501Y-99897779D01*
X165142896Y-99995069D01*
X165019069Y-100118896D01*
X164921779Y-100264501D01*
X164854764Y-100426288D01*
X164820600Y-100598041D01*
X164601173Y-100598041D01*
X164668621Y-100497099D01*
X164735636Y-100335312D01*
X164769800Y-100163559D01*
X164769800Y-99988441D01*
X164735636Y-99816688D01*
X164668621Y-99654901D01*
X164571331Y-99509296D01*
X164447504Y-99385469D01*
X164301899Y-99288179D01*
X164140112Y-99221164D01*
X163968359Y-99187000D01*
X163793241Y-99187000D01*
X163621488Y-99221164D01*
X163459701Y-99288179D01*
X163314096Y-99385469D01*
X163190269Y-99509296D01*
X163092979Y-99654901D01*
X163025964Y-99816688D01*
X162991800Y-99988441D01*
X161567996Y-99988441D01*
X161574132Y-99982305D01*
X161671422Y-99836700D01*
X161738437Y-99674913D01*
X161772601Y-99503160D01*
X161772601Y-99328042D01*
X161738437Y-99156289D01*
X161671422Y-98994502D01*
X161574132Y-98848897D01*
X161450305Y-98725070D01*
X161304700Y-98627780D01*
X161142913Y-98560765D01*
X160971160Y-98526601D01*
X160796042Y-98526601D01*
X160624289Y-98560765D01*
X160462502Y-98627780D01*
X160316897Y-98725070D01*
X160193070Y-98848897D01*
X160095780Y-98994502D01*
X160028765Y-99156289D01*
X159994601Y-99328042D01*
X140488483Y-99328042D01*
X140611313Y-99144213D01*
X140697475Y-98936201D01*
X140741400Y-98715376D01*
X140741400Y-98490224D01*
X140697475Y-98269399D01*
X140611313Y-98061387D01*
X140486226Y-97874180D01*
X140327020Y-97714974D01*
X140139813Y-97589887D01*
X139931801Y-97503725D01*
X139710976Y-97459800D01*
X139485824Y-97459800D01*
X139264999Y-97503725D01*
X139056987Y-97589887D01*
X138869780Y-97714974D01*
X138710574Y-97874180D01*
X138585487Y-98061387D01*
X138499325Y-98269399D01*
X138455400Y-98490224D01*
X128256689Y-98490224D01*
X128236302Y-98423020D01*
X128177337Y-98312706D01*
X128097985Y-98216015D01*
X128001294Y-98136663D01*
X127890980Y-98077698D01*
X127771282Y-98041388D01*
X127646800Y-98029128D01*
X125946800Y-98029128D01*
X125822318Y-98041388D01*
X125702620Y-98077698D01*
X125592306Y-98136663D01*
X125495615Y-98216015D01*
X125416263Y-98312706D01*
X125357298Y-98423020D01*
X125320988Y-98542718D01*
X125308728Y-98667200D01*
X125308728Y-100367200D01*
X125320988Y-100491682D01*
X125357298Y-100611380D01*
X125416263Y-100721694D01*
X125495615Y-100818385D01*
X125592306Y-100897737D01*
X125702620Y-100956702D01*
X125771487Y-100977593D01*
X125741666Y-101002066D01*
X125556094Y-101228186D01*
X125418201Y-101486166D01*
X125333287Y-101766089D01*
X125304615Y-102057200D01*
X125120000Y-102057200D01*
X125120000Y-96127641D01*
X162941000Y-96127641D01*
X162941000Y-96302759D01*
X162975164Y-96474512D01*
X163042179Y-96636299D01*
X163139469Y-96781904D01*
X163263296Y-96905731D01*
X163408901Y-97003021D01*
X163570688Y-97070036D01*
X163742441Y-97104200D01*
X163917559Y-97104200D01*
X164089312Y-97070036D01*
X164227874Y-97012641D01*
X165277800Y-97012641D01*
X165277800Y-97187759D01*
X165311964Y-97359512D01*
X165378979Y-97521299D01*
X165476269Y-97666904D01*
X165600096Y-97790731D01*
X165745701Y-97888021D01*
X165907488Y-97955036D01*
X166079241Y-97989200D01*
X166254359Y-97989200D01*
X166426112Y-97955036D01*
X166587899Y-97888021D01*
X166733504Y-97790731D01*
X166857331Y-97666904D01*
X166954621Y-97521299D01*
X167021636Y-97359512D01*
X167055800Y-97187759D01*
X167055800Y-97012641D01*
X167021636Y-96840888D01*
X166954621Y-96679101D01*
X166857331Y-96533496D01*
X166807076Y-96483241D01*
X168783000Y-96483241D01*
X168783000Y-96658359D01*
X168817164Y-96830112D01*
X168884179Y-96991899D01*
X168981469Y-97137504D01*
X169105296Y-97261331D01*
X169250901Y-97358621D01*
X169412688Y-97425636D01*
X169584441Y-97459800D01*
X169759559Y-97459800D01*
X169931312Y-97425636D01*
X170093099Y-97358621D01*
X170238704Y-97261331D01*
X170362531Y-97137504D01*
X170459821Y-96991899D01*
X170526836Y-96830112D01*
X170561000Y-96658359D01*
X170561000Y-96483241D01*
X170526836Y-96311488D01*
X170459821Y-96149701D01*
X170362531Y-96004096D01*
X170238704Y-95880269D01*
X170093099Y-95782979D01*
X169931312Y-95715964D01*
X169759559Y-95681800D01*
X169584441Y-95681800D01*
X169412688Y-95715964D01*
X169250901Y-95782979D01*
X169105296Y-95880269D01*
X168981469Y-96004096D01*
X168884179Y-96149701D01*
X168817164Y-96311488D01*
X168783000Y-96483241D01*
X166807076Y-96483241D01*
X166733504Y-96409669D01*
X166587899Y-96312379D01*
X166426112Y-96245364D01*
X166254359Y-96211200D01*
X166079241Y-96211200D01*
X165907488Y-96245364D01*
X165745701Y-96312379D01*
X165600096Y-96409669D01*
X165476269Y-96533496D01*
X165378979Y-96679101D01*
X165311964Y-96840888D01*
X165277800Y-97012641D01*
X164227874Y-97012641D01*
X164251099Y-97003021D01*
X164396704Y-96905731D01*
X164520531Y-96781904D01*
X164617821Y-96636299D01*
X164684836Y-96474512D01*
X164719000Y-96302759D01*
X164719000Y-96127641D01*
X164684836Y-95955888D01*
X164617821Y-95794101D01*
X164520531Y-95648496D01*
X164396704Y-95524669D01*
X164251099Y-95427379D01*
X164102052Y-95365641D01*
X172643800Y-95365641D01*
X172643800Y-95540759D01*
X172677964Y-95712512D01*
X172744979Y-95874299D01*
X172842269Y-96019904D01*
X172966096Y-96143731D01*
X173111701Y-96241021D01*
X173273488Y-96308036D01*
X173445241Y-96342200D01*
X173620359Y-96342200D01*
X173792112Y-96308036D01*
X173953899Y-96241021D01*
X174099504Y-96143731D01*
X174223331Y-96019904D01*
X174320621Y-95874299D01*
X174380619Y-95729454D01*
X174439296Y-95788131D01*
X174584901Y-95885421D01*
X174746688Y-95952436D01*
X174918441Y-95986600D01*
X175093559Y-95986600D01*
X175265312Y-95952436D01*
X175427099Y-95885421D01*
X175572704Y-95788131D01*
X175696531Y-95664304D01*
X175793821Y-95518699D01*
X175860836Y-95356912D01*
X175895000Y-95185159D01*
X175895000Y-95010041D01*
X175860836Y-94838288D01*
X175793821Y-94676501D01*
X175696531Y-94530896D01*
X175572704Y-94407069D01*
X175427099Y-94309779D01*
X175265312Y-94242764D01*
X175093559Y-94208600D01*
X174918441Y-94208600D01*
X174746688Y-94242764D01*
X174584901Y-94309779D01*
X174439296Y-94407069D01*
X174315469Y-94530896D01*
X174218179Y-94676501D01*
X174158181Y-94821346D01*
X174099504Y-94762669D01*
X173953899Y-94665379D01*
X173792112Y-94598364D01*
X173620359Y-94564200D01*
X173445241Y-94564200D01*
X173273488Y-94598364D01*
X173111701Y-94665379D01*
X172966096Y-94762669D01*
X172842269Y-94886496D01*
X172744979Y-95032101D01*
X172677964Y-95193888D01*
X172643800Y-95365641D01*
X164102052Y-95365641D01*
X164089312Y-95360364D01*
X163917559Y-95326200D01*
X163742441Y-95326200D01*
X163570688Y-95360364D01*
X163408901Y-95427379D01*
X163263296Y-95524669D01*
X163139469Y-95648496D01*
X163042179Y-95794101D01*
X162975164Y-95955888D01*
X162941000Y-96127641D01*
X125120000Y-96127641D01*
X125120000Y-94437200D01*
X125304615Y-94437200D01*
X125333287Y-94728311D01*
X125418201Y-95008234D01*
X125556094Y-95266214D01*
X125741666Y-95492334D01*
X125967786Y-95677906D01*
X126225766Y-95815799D01*
X126505689Y-95900713D01*
X126723850Y-95922200D01*
X126869750Y-95922200D01*
X127087911Y-95900713D01*
X127367834Y-95815799D01*
X127625814Y-95677906D01*
X127851934Y-95492334D01*
X128037506Y-95266214D01*
X128175399Y-95008234D01*
X128260313Y-94728311D01*
X128288985Y-94437200D01*
X128260313Y-94146089D01*
X128175781Y-93867424D01*
X132562600Y-93867424D01*
X132562600Y-94092576D01*
X132606525Y-94313401D01*
X132692687Y-94521413D01*
X132817774Y-94708620D01*
X132976980Y-94867826D01*
X133164187Y-94992913D01*
X133372199Y-95079075D01*
X133593024Y-95123000D01*
X133818176Y-95123000D01*
X134039001Y-95079075D01*
X134247013Y-94992913D01*
X134434220Y-94867826D01*
X134493000Y-94809046D01*
X134551780Y-94867826D01*
X134738987Y-94992913D01*
X134946999Y-95079075D01*
X135167824Y-95123000D01*
X135392976Y-95123000D01*
X135613801Y-95079075D01*
X135821813Y-94992913D01*
X136009020Y-94867826D01*
X136168226Y-94708620D01*
X136293313Y-94521413D01*
X136379475Y-94313401D01*
X136392475Y-94248041D01*
X168224200Y-94248041D01*
X168224200Y-94423159D01*
X168258364Y-94594912D01*
X168325379Y-94756699D01*
X168422669Y-94902304D01*
X168546496Y-95026131D01*
X168692101Y-95123421D01*
X168853888Y-95190436D01*
X169025641Y-95224600D01*
X169200759Y-95224600D01*
X169372512Y-95190436D01*
X169534299Y-95123421D01*
X169679904Y-95026131D01*
X169803731Y-94902304D01*
X169901021Y-94756699D01*
X169968036Y-94594912D01*
X170002200Y-94423159D01*
X170002200Y-94248041D01*
X169968036Y-94076288D01*
X169901021Y-93914501D01*
X169803731Y-93768896D01*
X169679904Y-93645069D01*
X169534299Y-93547779D01*
X169372512Y-93480764D01*
X169200759Y-93446600D01*
X169025641Y-93446600D01*
X168853888Y-93480764D01*
X168692101Y-93547779D01*
X168546496Y-93645069D01*
X168422669Y-93768896D01*
X168325379Y-93914501D01*
X168258364Y-94076288D01*
X168224200Y-94248041D01*
X136392475Y-94248041D01*
X136423400Y-94092576D01*
X136423400Y-93867424D01*
X136379475Y-93646599D01*
X136293313Y-93438587D01*
X136168226Y-93251380D01*
X136009020Y-93092174D01*
X135821813Y-92967087D01*
X135613801Y-92880925D01*
X135392976Y-92837000D01*
X135167824Y-92837000D01*
X134946999Y-92880925D01*
X134738987Y-92967087D01*
X134551780Y-93092174D01*
X134493000Y-93150954D01*
X134434220Y-93092174D01*
X134247013Y-92967087D01*
X134039001Y-92880925D01*
X133818176Y-92837000D01*
X133593024Y-92837000D01*
X133372199Y-92880925D01*
X133164187Y-92967087D01*
X132976980Y-93092174D01*
X132817774Y-93251380D01*
X132692687Y-93438587D01*
X132606525Y-93646599D01*
X132562600Y-93867424D01*
X128175781Y-93867424D01*
X128175399Y-93866166D01*
X128037506Y-93608186D01*
X127851934Y-93382066D01*
X127822113Y-93357593D01*
X127890980Y-93336702D01*
X128001294Y-93277737D01*
X128097985Y-93198385D01*
X128177337Y-93101694D01*
X128236302Y-92991380D01*
X128272612Y-92871682D01*
X128284872Y-92747200D01*
X128284872Y-92266841D01*
X155422600Y-92266841D01*
X155422600Y-92441959D01*
X155456764Y-92613712D01*
X155523779Y-92775499D01*
X155621069Y-92921104D01*
X155744896Y-93044931D01*
X155890501Y-93142221D01*
X156052288Y-93209236D01*
X156224041Y-93243400D01*
X156399159Y-93243400D01*
X156570912Y-93209236D01*
X156732699Y-93142221D01*
X156878304Y-93044931D01*
X157002131Y-92921104D01*
X157099421Y-92775499D01*
X157166436Y-92613712D01*
X157200600Y-92441959D01*
X157200600Y-92266841D01*
X157166436Y-92095088D01*
X157099421Y-91933301D01*
X157002131Y-91787696D01*
X156878304Y-91663869D01*
X156732699Y-91566579D01*
X156570912Y-91499564D01*
X156399159Y-91465400D01*
X156224041Y-91465400D01*
X156052288Y-91499564D01*
X155890501Y-91566579D01*
X155744896Y-91663869D01*
X155621069Y-91787696D01*
X155523779Y-91933301D01*
X155456764Y-92095088D01*
X155422600Y-92266841D01*
X128284872Y-92266841D01*
X128284872Y-91047200D01*
X128272612Y-90922718D01*
X128236302Y-90803020D01*
X128177337Y-90692706D01*
X128097985Y-90596015D01*
X128001294Y-90516663D01*
X127890980Y-90457698D01*
X127771282Y-90421388D01*
X127646800Y-90409128D01*
X125946800Y-90409128D01*
X125822318Y-90421388D01*
X125702620Y-90457698D01*
X125592306Y-90516663D01*
X125495615Y-90596015D01*
X125416263Y-90692706D01*
X125357298Y-90803020D01*
X125320988Y-90922718D01*
X125308728Y-91047200D01*
X125308728Y-92747200D01*
X125320988Y-92871682D01*
X125357298Y-92991380D01*
X125416263Y-93101694D01*
X125495615Y-93198385D01*
X125592306Y-93277737D01*
X125702620Y-93336702D01*
X125771487Y-93357593D01*
X125741666Y-93382066D01*
X125556094Y-93608186D01*
X125418201Y-93866166D01*
X125333287Y-94146089D01*
X125304615Y-94437200D01*
X125120000Y-94437200D01*
X125120000Y-89828441D01*
X146126200Y-89828441D01*
X146126200Y-90003559D01*
X146160364Y-90175312D01*
X146227379Y-90337099D01*
X146324669Y-90482704D01*
X146448496Y-90606531D01*
X146594101Y-90703821D01*
X146755888Y-90770836D01*
X146927641Y-90805000D01*
X147102759Y-90805000D01*
X147274512Y-90770836D01*
X147436299Y-90703821D01*
X147581904Y-90606531D01*
X147705731Y-90482704D01*
X147803021Y-90337099D01*
X147803293Y-90336441D01*
X155422600Y-90336441D01*
X155422600Y-90511559D01*
X155456764Y-90683312D01*
X155523779Y-90845099D01*
X155621069Y-90990704D01*
X155744896Y-91114531D01*
X155890501Y-91211821D01*
X156052288Y-91278836D01*
X156224041Y-91313000D01*
X156399159Y-91313000D01*
X156570912Y-91278836D01*
X156732699Y-91211821D01*
X156878304Y-91114531D01*
X157002131Y-90990704D01*
X157099421Y-90845099D01*
X157141778Y-90742841D01*
X164465000Y-90742841D01*
X164465000Y-90917959D01*
X164499164Y-91089712D01*
X164566179Y-91251499D01*
X164663469Y-91397104D01*
X164787296Y-91520931D01*
X164932901Y-91618221D01*
X165094688Y-91685236D01*
X165266441Y-91719400D01*
X165441559Y-91719400D01*
X165613312Y-91685236D01*
X165775099Y-91618221D01*
X165920704Y-91520931D01*
X166044531Y-91397104D01*
X166141821Y-91251499D01*
X166208836Y-91089712D01*
X166243000Y-90917959D01*
X166243000Y-90742841D01*
X166208836Y-90571088D01*
X166141821Y-90409301D01*
X166044531Y-90263696D01*
X165920704Y-90139869D01*
X165775099Y-90042579D01*
X165613312Y-89975564D01*
X165441559Y-89941400D01*
X165266441Y-89941400D01*
X165094688Y-89975564D01*
X164932901Y-90042579D01*
X164787296Y-90139869D01*
X164663469Y-90263696D01*
X164566179Y-90409301D01*
X164499164Y-90571088D01*
X164465000Y-90742841D01*
X157141778Y-90742841D01*
X157166436Y-90683312D01*
X157200600Y-90511559D01*
X157200600Y-90336441D01*
X157166436Y-90164688D01*
X157099421Y-90002901D01*
X157022402Y-89887633D01*
X170948124Y-89887633D01*
X170948124Y-90062751D01*
X170982288Y-90234504D01*
X171049303Y-90396291D01*
X171146593Y-90541896D01*
X171270420Y-90665723D01*
X171416025Y-90763013D01*
X171577812Y-90830028D01*
X171749565Y-90864192D01*
X171924683Y-90864192D01*
X172096436Y-90830028D01*
X172258223Y-90763013D01*
X172288412Y-90742841D01*
X174066200Y-90742841D01*
X174066200Y-90917959D01*
X174100364Y-91089712D01*
X174167379Y-91251499D01*
X174264669Y-91397104D01*
X174388496Y-91520931D01*
X174534101Y-91618221D01*
X174695888Y-91685236D01*
X174867641Y-91719400D01*
X175042759Y-91719400D01*
X175214512Y-91685236D01*
X175376299Y-91618221D01*
X175521904Y-91520931D01*
X175645731Y-91397104D01*
X175743021Y-91251499D01*
X175810036Y-91089712D01*
X175844200Y-90917959D01*
X175844200Y-90742841D01*
X175810036Y-90571088D01*
X175743021Y-90409301D01*
X175645731Y-90263696D01*
X175521904Y-90139869D01*
X175376299Y-90042579D01*
X175214512Y-89975564D01*
X175042759Y-89941400D01*
X174867641Y-89941400D01*
X174695888Y-89975564D01*
X174534101Y-90042579D01*
X174388496Y-90139869D01*
X174264669Y-90263696D01*
X174167379Y-90409301D01*
X174100364Y-90571088D01*
X174066200Y-90742841D01*
X172288412Y-90742841D01*
X172403828Y-90665723D01*
X172527655Y-90541896D01*
X172624945Y-90396291D01*
X172663288Y-90303723D01*
X172762896Y-90403331D01*
X172908501Y-90500621D01*
X173070288Y-90567636D01*
X173242041Y-90601800D01*
X173417159Y-90601800D01*
X173588912Y-90567636D01*
X173750699Y-90500621D01*
X173896304Y-90403331D01*
X174020131Y-90279504D01*
X174117421Y-90133899D01*
X174184436Y-89972112D01*
X174218600Y-89800359D01*
X174218600Y-89625241D01*
X174184436Y-89453488D01*
X174117421Y-89291701D01*
X174020131Y-89146096D01*
X173896304Y-89022269D01*
X173750699Y-88924979D01*
X173690395Y-88900000D01*
X179101815Y-88900000D01*
X179130487Y-89191111D01*
X179215401Y-89471034D01*
X179353294Y-89729014D01*
X179538866Y-89955134D01*
X179764986Y-90140706D01*
X179819791Y-90170000D01*
X179764986Y-90199294D01*
X179538866Y-90384866D01*
X179353294Y-90610986D01*
X179215401Y-90868966D01*
X179130487Y-91148889D01*
X179101815Y-91440000D01*
X179130487Y-91731111D01*
X179215401Y-92011034D01*
X179353294Y-92269014D01*
X179538866Y-92495134D01*
X179764986Y-92680706D01*
X179819791Y-92710000D01*
X179764986Y-92739294D01*
X179538866Y-92924866D01*
X179353294Y-93150986D01*
X179215401Y-93408966D01*
X179130487Y-93688889D01*
X179101815Y-93980000D01*
X179130487Y-94271111D01*
X179215401Y-94551034D01*
X179353294Y-94809014D01*
X179538866Y-95035134D01*
X179764986Y-95220706D01*
X180022966Y-95358599D01*
X180302889Y-95443513D01*
X180521050Y-95465000D01*
X180666950Y-95465000D01*
X180885111Y-95443513D01*
X181165034Y-95358599D01*
X181423014Y-95220706D01*
X181649134Y-95035134D01*
X181834706Y-94809014D01*
X181972599Y-94551034D01*
X182057513Y-94271111D01*
X182086185Y-93980000D01*
X182057513Y-93688889D01*
X181972599Y-93408966D01*
X181834706Y-93150986D01*
X181649134Y-92924866D01*
X181423014Y-92739294D01*
X181368209Y-92710000D01*
X181423014Y-92680706D01*
X181649134Y-92495134D01*
X181834706Y-92269014D01*
X181972599Y-92011034D01*
X182057513Y-91731111D01*
X182086185Y-91440000D01*
X182057513Y-91148889D01*
X181972599Y-90868966D01*
X181834706Y-90610986D01*
X181649134Y-90384866D01*
X181423014Y-90199294D01*
X181368209Y-90170000D01*
X181423014Y-90140706D01*
X181649134Y-89955134D01*
X181834706Y-89729014D01*
X181972599Y-89471034D01*
X182057513Y-89191111D01*
X182086185Y-88900000D01*
X182057513Y-88608889D01*
X181972599Y-88328966D01*
X181834706Y-88070986D01*
X181649134Y-87844866D01*
X181619313Y-87820393D01*
X181688180Y-87799502D01*
X181798494Y-87740537D01*
X181895185Y-87661185D01*
X181974537Y-87564494D01*
X182033502Y-87454180D01*
X182069812Y-87334482D01*
X182082072Y-87210000D01*
X182082072Y-85510000D01*
X182069812Y-85385518D01*
X182033502Y-85265820D01*
X181974537Y-85155506D01*
X181895185Y-85058815D01*
X181798494Y-84979463D01*
X181688180Y-84920498D01*
X181568482Y-84884188D01*
X181444000Y-84871928D01*
X179744000Y-84871928D01*
X179619518Y-84884188D01*
X179499820Y-84920498D01*
X179389506Y-84979463D01*
X179292815Y-85058815D01*
X179213463Y-85155506D01*
X179154498Y-85265820D01*
X179118188Y-85385518D01*
X179105928Y-85510000D01*
X179105928Y-87210000D01*
X179118188Y-87334482D01*
X179154498Y-87454180D01*
X179213463Y-87564494D01*
X179292815Y-87661185D01*
X179389506Y-87740537D01*
X179499820Y-87799502D01*
X179568687Y-87820393D01*
X179538866Y-87844866D01*
X179353294Y-88070986D01*
X179215401Y-88328966D01*
X179130487Y-88608889D01*
X179101815Y-88900000D01*
X173690395Y-88900000D01*
X173631985Y-88875806D01*
X173625636Y-88843888D01*
X173558621Y-88682101D01*
X173461331Y-88536496D01*
X173337504Y-88412669D01*
X173191899Y-88315379D01*
X173030112Y-88248364D01*
X172858359Y-88214200D01*
X172683241Y-88214200D01*
X172511488Y-88248364D01*
X172349701Y-88315379D01*
X172204096Y-88412669D01*
X172080269Y-88536496D01*
X171982979Y-88682101D01*
X171915964Y-88843888D01*
X171881800Y-89015641D01*
X171881800Y-89086192D01*
X171749565Y-89086192D01*
X171577812Y-89120356D01*
X171416025Y-89187371D01*
X171270420Y-89284661D01*
X171146593Y-89408488D01*
X171049303Y-89554093D01*
X170982288Y-89715880D01*
X170948124Y-89887633D01*
X157022402Y-89887633D01*
X157002131Y-89857296D01*
X156878304Y-89733469D01*
X156732699Y-89636179D01*
X156570912Y-89569164D01*
X156399159Y-89535000D01*
X156224041Y-89535000D01*
X156052288Y-89569164D01*
X155890501Y-89636179D01*
X155744896Y-89733469D01*
X155621069Y-89857296D01*
X155523779Y-90002901D01*
X155456764Y-90164688D01*
X155422600Y-90336441D01*
X147803293Y-90336441D01*
X147870036Y-90175312D01*
X147904200Y-90003559D01*
X147904200Y-89828441D01*
X147870036Y-89656688D01*
X147803021Y-89494901D01*
X147705731Y-89349296D01*
X147581904Y-89225469D01*
X147436299Y-89128179D01*
X147274512Y-89061164D01*
X147102759Y-89027000D01*
X146927641Y-89027000D01*
X146755888Y-89061164D01*
X146594101Y-89128179D01*
X146448496Y-89225469D01*
X146324669Y-89349296D01*
X146227379Y-89494901D01*
X146160364Y-89656688D01*
X146126200Y-89828441D01*
X125120000Y-89828441D01*
X125120000Y-88622702D01*
X142609903Y-88622702D01*
X142681486Y-88866671D01*
X142936996Y-88987571D01*
X143211184Y-89056300D01*
X143493512Y-89070217D01*
X143773130Y-89028787D01*
X144039292Y-88933603D01*
X144164514Y-88866671D01*
X144236097Y-88622702D01*
X143423000Y-87809605D01*
X142609903Y-88622702D01*
X125120000Y-88622702D01*
X125120000Y-86817200D01*
X125304615Y-86817200D01*
X125333287Y-87108311D01*
X125418201Y-87388234D01*
X125556094Y-87646214D01*
X125741666Y-87872334D01*
X125967786Y-88057906D01*
X126225766Y-88195799D01*
X126505689Y-88280713D01*
X126723850Y-88302200D01*
X126869750Y-88302200D01*
X127087911Y-88280713D01*
X127367834Y-88195799D01*
X127625814Y-88057906D01*
X127851934Y-87872334D01*
X127992944Y-87700512D01*
X141982783Y-87700512D01*
X142024213Y-87980130D01*
X142119397Y-88246292D01*
X142186329Y-88371514D01*
X142430298Y-88443097D01*
X143243395Y-87630000D01*
X143602605Y-87630000D01*
X144415702Y-88443097D01*
X144659671Y-88371514D01*
X144780571Y-88116004D01*
X144849300Y-87841816D01*
X144863217Y-87559488D01*
X144852724Y-87488665D01*
X146988000Y-87488665D01*
X146988000Y-87771335D01*
X147043147Y-88048574D01*
X147151320Y-88309727D01*
X147308363Y-88544759D01*
X147508241Y-88744637D01*
X147743273Y-88901680D01*
X148004426Y-89009853D01*
X148281665Y-89065000D01*
X148564335Y-89065000D01*
X148841574Y-89009853D01*
X149102727Y-88901680D01*
X149337759Y-88744637D01*
X149537637Y-88544759D01*
X149694680Y-88309727D01*
X149802853Y-88048574D01*
X149858000Y-87771335D01*
X149858000Y-87488665D01*
X149802853Y-87211426D01*
X149694680Y-86950273D01*
X149537637Y-86715241D01*
X149337759Y-86515363D01*
X149102727Y-86358320D01*
X148841574Y-86250147D01*
X148564335Y-86195000D01*
X148281665Y-86195000D01*
X148004426Y-86250147D01*
X147743273Y-86358320D01*
X147508241Y-86515363D01*
X147308363Y-86715241D01*
X147151320Y-86950273D01*
X147043147Y-87211426D01*
X146988000Y-87488665D01*
X144852724Y-87488665D01*
X144821787Y-87279870D01*
X144726603Y-87013708D01*
X144659671Y-86888486D01*
X144415702Y-86816903D01*
X143602605Y-87630000D01*
X143243395Y-87630000D01*
X142430298Y-86816903D01*
X142186329Y-86888486D01*
X142065429Y-87143996D01*
X141996700Y-87418184D01*
X141982783Y-87700512D01*
X127992944Y-87700512D01*
X128037506Y-87646214D01*
X128175399Y-87388234D01*
X128260313Y-87108311D01*
X128288985Y-86817200D01*
X128260313Y-86526089D01*
X128175399Y-86246166D01*
X128037506Y-85988186D01*
X127851934Y-85762066D01*
X127822113Y-85737593D01*
X127890980Y-85716702D01*
X128001294Y-85657737D01*
X128097985Y-85578385D01*
X128177337Y-85481694D01*
X128236302Y-85371380D01*
X128272612Y-85251682D01*
X128284872Y-85127200D01*
X128284872Y-83427200D01*
X128275101Y-83327989D01*
X130481000Y-83327989D01*
X130481000Y-83600811D01*
X130534225Y-83868389D01*
X130638629Y-84120443D01*
X130790201Y-84347286D01*
X130983114Y-84540199D01*
X131209957Y-84691771D01*
X131235757Y-84702458D01*
X131148180Y-84760974D01*
X130988974Y-84920180D01*
X130863887Y-85107387D01*
X130777725Y-85315399D01*
X130733800Y-85536224D01*
X130733800Y-85761376D01*
X130777725Y-85982201D01*
X130863887Y-86190213D01*
X130988974Y-86377420D01*
X131148180Y-86536626D01*
X131335387Y-86661713D01*
X131543399Y-86747875D01*
X131764224Y-86791800D01*
X131989376Y-86791800D01*
X132210201Y-86747875D01*
X132418213Y-86661713D01*
X132454752Y-86637298D01*
X142609903Y-86637298D01*
X143423000Y-87450395D01*
X144236097Y-86637298D01*
X144164514Y-86393329D01*
X143909004Y-86272429D01*
X143634816Y-86203700D01*
X143352488Y-86189783D01*
X143072870Y-86231213D01*
X142806708Y-86326397D01*
X142681486Y-86393329D01*
X142609903Y-86637298D01*
X132454752Y-86637298D01*
X132605420Y-86536626D01*
X132764626Y-86377420D01*
X132889713Y-86190213D01*
X132975875Y-85982201D01*
X133019800Y-85761376D01*
X133019800Y-85536224D01*
X132975875Y-85315399D01*
X132889713Y-85107387D01*
X132764626Y-84920180D01*
X132605420Y-84760974D01*
X132509577Y-84696934D01*
X132522043Y-84691771D01*
X132748886Y-84540199D01*
X132941799Y-84347286D01*
X133093371Y-84120443D01*
X133197775Y-83868389D01*
X133251000Y-83600811D01*
X133251000Y-83327989D01*
X135481000Y-83327989D01*
X135481000Y-83600811D01*
X135534225Y-83868389D01*
X135638629Y-84120443D01*
X135790201Y-84347286D01*
X135983114Y-84540199D01*
X136209957Y-84691771D01*
X136462011Y-84796175D01*
X136729589Y-84849400D01*
X137002411Y-84849400D01*
X137269989Y-84796175D01*
X137522043Y-84691771D01*
X137693400Y-84577274D01*
X137693400Y-84694576D01*
X137737325Y-84915401D01*
X137823487Y-85123413D01*
X137948574Y-85310620D01*
X138107780Y-85469826D01*
X138294987Y-85594913D01*
X138502999Y-85681075D01*
X138723824Y-85725000D01*
X138948976Y-85725000D01*
X139169801Y-85681075D01*
X139377813Y-85594913D01*
X139565020Y-85469826D01*
X139724226Y-85310620D01*
X139849313Y-85123413D01*
X139935475Y-84915401D01*
X139979400Y-84694576D01*
X139979400Y-84469424D01*
X139974272Y-84443641D01*
X160248600Y-84443641D01*
X160248600Y-84618759D01*
X160282764Y-84790512D01*
X160349779Y-84952299D01*
X160447069Y-85097904D01*
X160570896Y-85221731D01*
X160716501Y-85319021D01*
X160878288Y-85386036D01*
X161050041Y-85420200D01*
X161225159Y-85420200D01*
X161396912Y-85386036D01*
X161558699Y-85319021D01*
X161704304Y-85221731D01*
X161828131Y-85097904D01*
X161925421Y-84952299D01*
X161992436Y-84790512D01*
X162026600Y-84618759D01*
X162026600Y-84443641D01*
X161992436Y-84271888D01*
X161925421Y-84110101D01*
X161828131Y-83964496D01*
X161704304Y-83840669D01*
X161558699Y-83743379D01*
X161396912Y-83676364D01*
X161225159Y-83642200D01*
X161050041Y-83642200D01*
X160878288Y-83676364D01*
X160716501Y-83743379D01*
X160570896Y-83840669D01*
X160447069Y-83964496D01*
X160349779Y-84110101D01*
X160282764Y-84271888D01*
X160248600Y-84443641D01*
X139974272Y-84443641D01*
X139935475Y-84248599D01*
X139849313Y-84040587D01*
X139724226Y-83853380D01*
X139565020Y-83694174D01*
X139377813Y-83569087D01*
X139169801Y-83482925D01*
X138948976Y-83439000D01*
X138723824Y-83439000D01*
X138502999Y-83482925D01*
X138294987Y-83569087D01*
X138251000Y-83598478D01*
X138251000Y-83327989D01*
X138197775Y-83060411D01*
X138107721Y-82843000D01*
X163611928Y-82843000D01*
X163611928Y-84543000D01*
X163624188Y-84667482D01*
X163660498Y-84787180D01*
X163719463Y-84897494D01*
X163798815Y-84994185D01*
X163895506Y-85073537D01*
X164005820Y-85132502D01*
X164125518Y-85168812D01*
X164250000Y-85181072D01*
X165950000Y-85181072D01*
X166074482Y-85168812D01*
X166194180Y-85132502D01*
X166304494Y-85073537D01*
X166401185Y-84994185D01*
X166480537Y-84897494D01*
X166539502Y-84787180D01*
X166560393Y-84718313D01*
X166584866Y-84748134D01*
X166810986Y-84933706D01*
X167068966Y-85071599D01*
X167348889Y-85156513D01*
X167567050Y-85178000D01*
X167712950Y-85178000D01*
X167931111Y-85156513D01*
X168211034Y-85071599D01*
X168469014Y-84933706D01*
X168695134Y-84748134D01*
X168880706Y-84522014D01*
X169018599Y-84264034D01*
X169103513Y-83984111D01*
X169132185Y-83693000D01*
X169103513Y-83401889D01*
X169018599Y-83121966D01*
X168880706Y-82863986D01*
X168695134Y-82637866D01*
X168469014Y-82452294D01*
X168211034Y-82314401D01*
X167931111Y-82229487D01*
X167712950Y-82208000D01*
X167567050Y-82208000D01*
X167348889Y-82229487D01*
X167068966Y-82314401D01*
X166810986Y-82452294D01*
X166584866Y-82637866D01*
X166560393Y-82667687D01*
X166539502Y-82598820D01*
X166480537Y-82488506D01*
X166401185Y-82391815D01*
X166304494Y-82312463D01*
X166194180Y-82253498D01*
X166074482Y-82217188D01*
X165950000Y-82204928D01*
X164250000Y-82204928D01*
X164125518Y-82217188D01*
X164005820Y-82253498D01*
X163895506Y-82312463D01*
X163798815Y-82391815D01*
X163719463Y-82488506D01*
X163660498Y-82598820D01*
X163624188Y-82718518D01*
X163611928Y-82843000D01*
X138107721Y-82843000D01*
X138093371Y-82808357D01*
X137941799Y-82581514D01*
X137748886Y-82388601D01*
X137522043Y-82237029D01*
X137269989Y-82132625D01*
X137002411Y-82079400D01*
X136729589Y-82079400D01*
X136462011Y-82132625D01*
X136209957Y-82237029D01*
X135983114Y-82388601D01*
X135790201Y-82581514D01*
X135638629Y-82808357D01*
X135534225Y-83060411D01*
X135481000Y-83327989D01*
X133251000Y-83327989D01*
X133197775Y-83060411D01*
X133093371Y-82808357D01*
X132941799Y-82581514D01*
X132748886Y-82388601D01*
X132522043Y-82237029D01*
X132269989Y-82132625D01*
X132002411Y-82079400D01*
X131729589Y-82079400D01*
X131462011Y-82132625D01*
X131209957Y-82237029D01*
X130983114Y-82388601D01*
X130790201Y-82581514D01*
X130638629Y-82808357D01*
X130534225Y-83060411D01*
X130481000Y-83327989D01*
X128275101Y-83327989D01*
X128272612Y-83302718D01*
X128236302Y-83183020D01*
X128177337Y-83072706D01*
X128097985Y-82976015D01*
X128001294Y-82896663D01*
X127890980Y-82837698D01*
X127771282Y-82801388D01*
X127646800Y-82789128D01*
X125946800Y-82789128D01*
X125822318Y-82801388D01*
X125702620Y-82837698D01*
X125592306Y-82896663D01*
X125495615Y-82976015D01*
X125416263Y-83072706D01*
X125357298Y-83183020D01*
X125320988Y-83302718D01*
X125308728Y-83427200D01*
X125308728Y-85127200D01*
X125320988Y-85251682D01*
X125357298Y-85371380D01*
X125416263Y-85481694D01*
X125495615Y-85578385D01*
X125592306Y-85657737D01*
X125702620Y-85716702D01*
X125771487Y-85737593D01*
X125741666Y-85762066D01*
X125556094Y-85988186D01*
X125418201Y-86246166D01*
X125333287Y-86526089D01*
X125304615Y-86817200D01*
X125120000Y-86817200D01*
X125120000Y-77249872D01*
X126035000Y-77249872D01*
X126035000Y-77690128D01*
X126120890Y-78121925D01*
X126289369Y-78528669D01*
X126533962Y-78894729D01*
X126845271Y-79206038D01*
X127211331Y-79450631D01*
X127618075Y-79619110D01*
X128049872Y-79705000D01*
X128490128Y-79705000D01*
X128921925Y-79619110D01*
X129328669Y-79450631D01*
X129694729Y-79206038D01*
X130006038Y-78894729D01*
X130250631Y-78528669D01*
X130419110Y-78121925D01*
X130505000Y-77690128D01*
X130505000Y-77249872D01*
X130419110Y-76818075D01*
X130409967Y-76796000D01*
X161071928Y-76796000D01*
X161084188Y-76920482D01*
X161120498Y-77040180D01*
X161179463Y-77150494D01*
X161258815Y-77247185D01*
X161355506Y-77326537D01*
X161465820Y-77385502D01*
X161585518Y-77421812D01*
X161710000Y-77434072D01*
X162274250Y-77431000D01*
X162433000Y-77272250D01*
X162433000Y-76073000D01*
X161233750Y-76073000D01*
X161075000Y-76231750D01*
X161071928Y-76796000D01*
X130409967Y-76796000D01*
X130250631Y-76411331D01*
X130006038Y-76045271D01*
X129694729Y-75733962D01*
X129328669Y-75489369D01*
X128921925Y-75320890D01*
X128490128Y-75235000D01*
X128049872Y-75235000D01*
X127618075Y-75320890D01*
X127211331Y-75489369D01*
X126845271Y-75733962D01*
X126533962Y-76045271D01*
X126289369Y-76411331D01*
X126120890Y-76818075D01*
X126035000Y-77249872D01*
X125120000Y-77249872D01*
X125120000Y-75096000D01*
X161071928Y-75096000D01*
X161075000Y-75660250D01*
X161233750Y-75819000D01*
X162433000Y-75819000D01*
X162433000Y-74619750D01*
X162687000Y-74619750D01*
X162687000Y-75819000D01*
X162707000Y-75819000D01*
X162707000Y-76073000D01*
X162687000Y-76073000D01*
X162687000Y-77272250D01*
X162845750Y-77431000D01*
X163410000Y-77434072D01*
X163534482Y-77421812D01*
X163654180Y-77385502D01*
X163764494Y-77326537D01*
X163861185Y-77247185D01*
X163940537Y-77150494D01*
X163999502Y-77040180D01*
X164020393Y-76971313D01*
X164044866Y-77001134D01*
X164270986Y-77186706D01*
X164528966Y-77324599D01*
X164808889Y-77409513D01*
X165027050Y-77431000D01*
X165172950Y-77431000D01*
X165391111Y-77409513D01*
X165671034Y-77324599D01*
X165929014Y-77186706D01*
X166155134Y-77001134D01*
X166340706Y-76775014D01*
X166370000Y-76720209D01*
X166399294Y-76775014D01*
X166584866Y-77001134D01*
X166810986Y-77186706D01*
X167068966Y-77324599D01*
X167348889Y-77409513D01*
X167567050Y-77431000D01*
X167712950Y-77431000D01*
X167931111Y-77409513D01*
X168211034Y-77324599D01*
X168469014Y-77186706D01*
X168695134Y-77001134D01*
X168880706Y-76775014D01*
X168910000Y-76720209D01*
X168939294Y-76775014D01*
X169124866Y-77001134D01*
X169350986Y-77186706D01*
X169608966Y-77324599D01*
X169888889Y-77409513D01*
X170107050Y-77431000D01*
X170252950Y-77431000D01*
X170471111Y-77409513D01*
X170751034Y-77324599D01*
X170890838Y-77249872D01*
X176835000Y-77249872D01*
X176835000Y-77690128D01*
X176920890Y-78121925D01*
X177089369Y-78528669D01*
X177333962Y-78894729D01*
X177645271Y-79206038D01*
X178011331Y-79450631D01*
X178418075Y-79619110D01*
X178849872Y-79705000D01*
X179290128Y-79705000D01*
X179721925Y-79619110D01*
X180128669Y-79450631D01*
X180494729Y-79206038D01*
X180806038Y-78894729D01*
X181050631Y-78528669D01*
X181219110Y-78121925D01*
X181305000Y-77690128D01*
X181305000Y-77249872D01*
X181219110Y-76818075D01*
X181050631Y-76411331D01*
X180806038Y-76045271D01*
X180494729Y-75733962D01*
X180128669Y-75489369D01*
X179721925Y-75320890D01*
X179290128Y-75235000D01*
X178849872Y-75235000D01*
X178418075Y-75320890D01*
X178011331Y-75489369D01*
X177645271Y-75733962D01*
X177333962Y-76045271D01*
X177089369Y-76411331D01*
X176920890Y-76818075D01*
X176835000Y-77249872D01*
X170890838Y-77249872D01*
X171009014Y-77186706D01*
X171235134Y-77001134D01*
X171420706Y-76775014D01*
X171558599Y-76517034D01*
X171643513Y-76237111D01*
X171672185Y-75946000D01*
X171643513Y-75654889D01*
X171558599Y-75374966D01*
X171420706Y-75116986D01*
X171235134Y-74890866D01*
X171009014Y-74705294D01*
X170751034Y-74567401D01*
X170471111Y-74482487D01*
X170252950Y-74461000D01*
X170107050Y-74461000D01*
X169888889Y-74482487D01*
X169608966Y-74567401D01*
X169350986Y-74705294D01*
X169124866Y-74890866D01*
X168939294Y-75116986D01*
X168910000Y-75171791D01*
X168880706Y-75116986D01*
X168695134Y-74890866D01*
X168469014Y-74705294D01*
X168211034Y-74567401D01*
X167931111Y-74482487D01*
X167712950Y-74461000D01*
X167567050Y-74461000D01*
X167348889Y-74482487D01*
X167068966Y-74567401D01*
X166810986Y-74705294D01*
X166584866Y-74890866D01*
X166399294Y-75116986D01*
X166370000Y-75171791D01*
X166340706Y-75116986D01*
X166155134Y-74890866D01*
X165929014Y-74705294D01*
X165671034Y-74567401D01*
X165391111Y-74482487D01*
X165172950Y-74461000D01*
X165027050Y-74461000D01*
X164808889Y-74482487D01*
X164528966Y-74567401D01*
X164270986Y-74705294D01*
X164044866Y-74890866D01*
X164020393Y-74920687D01*
X163999502Y-74851820D01*
X163940537Y-74741506D01*
X163861185Y-74644815D01*
X163764494Y-74565463D01*
X163654180Y-74506498D01*
X163534482Y-74470188D01*
X163410000Y-74457928D01*
X162845750Y-74461000D01*
X162687000Y-74619750D01*
X162433000Y-74619750D01*
X162274250Y-74461000D01*
X161710000Y-74457928D01*
X161585518Y-74470188D01*
X161465820Y-74506498D01*
X161355506Y-74565463D01*
X161258815Y-74644815D01*
X161179463Y-74741506D01*
X161120498Y-74851820D01*
X161084188Y-74971518D01*
X161071928Y-75096000D01*
X125120000Y-75096000D01*
X125120000Y-74320000D01*
X182220000Y-74320000D01*
X182220001Y-118720000D01*
X182220001Y-118720000D01*
G37*
X182220001Y-118720000D02*
X125120000Y-118720000D01*
X125120000Y-115349872D01*
X126035000Y-115349872D01*
X126035000Y-115790128D01*
X126120890Y-116221925D01*
X126289369Y-116628669D01*
X126533962Y-116994729D01*
X126845271Y-117306038D01*
X127211331Y-117550631D01*
X127618075Y-117719110D01*
X128049872Y-117805000D01*
X128490128Y-117805000D01*
X128921925Y-117719110D01*
X129328669Y-117550631D01*
X129694729Y-117306038D01*
X130006038Y-116994729D01*
X130250631Y-116628669D01*
X130409966Y-116244000D01*
X161071928Y-116244000D01*
X161071928Y-117944000D01*
X161084188Y-118068482D01*
X161120498Y-118188180D01*
X161179463Y-118298494D01*
X161258815Y-118395185D01*
X161355506Y-118474537D01*
X161465820Y-118533502D01*
X161585518Y-118569812D01*
X161710000Y-118582072D01*
X163410000Y-118582072D01*
X163534482Y-118569812D01*
X163654180Y-118533502D01*
X163764494Y-118474537D01*
X163861185Y-118395185D01*
X163940537Y-118298494D01*
X163999502Y-118188180D01*
X164020393Y-118119313D01*
X164044866Y-118149134D01*
X164270986Y-118334706D01*
X164528966Y-118472599D01*
X164808889Y-118557513D01*
X165027050Y-118579000D01*
X165172950Y-118579000D01*
X165391111Y-118557513D01*
X165671034Y-118472599D01*
X165929014Y-118334706D01*
X166155134Y-118149134D01*
X166340706Y-117923014D01*
X166370000Y-117868209D01*
X166399294Y-117923014D01*
X166584866Y-118149134D01*
X166810986Y-118334706D01*
X167068966Y-118472599D01*
X167348889Y-118557513D01*
X167567050Y-118579000D01*
X167712950Y-118579000D01*
X167931111Y-118557513D01*
X168211034Y-118472599D01*
X168469014Y-118334706D01*
X168695134Y-118149134D01*
X168880706Y-117923014D01*
X168910000Y-117868209D01*
X168939294Y-117923014D01*
X169124866Y-118149134D01*
X169350986Y-118334706D01*
X169608966Y-118472599D01*
X169888889Y-118557513D01*
X170107050Y-118579000D01*
X170252950Y-118579000D01*
X170471111Y-118557513D01*
X170751034Y-118472599D01*
X171009014Y-118334706D01*
X171235134Y-118149134D01*
X171420706Y-117923014D01*
X171558599Y-117665034D01*
X171643513Y-117385111D01*
X171672185Y-117094000D01*
X171643513Y-116802889D01*
X171558599Y-116522966D01*
X171420706Y-116264986D01*
X171235134Y-116038866D01*
X171009014Y-115853294D01*
X170751034Y-115715401D01*
X170471111Y-115630487D01*
X170252950Y-115609000D01*
X170107050Y-115609000D01*
X169888889Y-115630487D01*
X169608966Y-115715401D01*
X169350986Y-115853294D01*
X169124866Y-116038866D01*
X168939294Y-116264986D01*
X168910000Y-116319791D01*
X168880706Y-116264986D01*
X168695134Y-116038866D01*
X168469014Y-115853294D01*
X168211034Y-115715401D01*
X167931111Y-115630487D01*
X167712950Y-115609000D01*
X167567050Y-115609000D01*
X167348889Y-115630487D01*
X167068966Y-115715401D01*
X166810986Y-115853294D01*
X166584866Y-116038866D01*
X166399294Y-116264986D01*
X166370000Y-116319791D01*
X166340706Y-116264986D01*
X166155134Y-116038866D01*
X165929014Y-115853294D01*
X165671034Y-115715401D01*
X165391111Y-115630487D01*
X165172950Y-115609000D01*
X165027050Y-115609000D01*
X164808889Y-115630487D01*
X164528966Y-115715401D01*
X164270986Y-115853294D01*
X164044866Y-116038866D01*
X164020393Y-116068687D01*
X163999502Y-115999820D01*
X163940537Y-115889506D01*
X163861185Y-115792815D01*
X163764494Y-115713463D01*
X163654180Y-115654498D01*
X163534482Y-115618188D01*
X163410000Y-115605928D01*
X161710000Y-115605928D01*
X161585518Y-115618188D01*
X161465820Y-115654498D01*
X161355506Y-115713463D01*
X161258815Y-115792815D01*
X161179463Y-115889506D01*
X161120498Y-115999820D01*
X161084188Y-116119518D01*
X161071928Y-116244000D01*
X130409966Y-116244000D01*
X130419110Y-116221925D01*
X130505000Y-115790128D01*
X130505000Y-115349872D01*
X176835000Y-115349872D01*
X176835000Y-115790128D01*
X176920890Y-116221925D01*
X177089369Y-116628669D01*
X177333962Y-116994729D01*
X177645271Y-117306038D01*
X178011331Y-117550631D01*
X178418075Y-117719110D01*
X178849872Y-117805000D01*
X179290128Y-117805000D01*
X179721925Y-117719110D01*
X180128669Y-117550631D01*
X180494729Y-117306038D01*
X180806038Y-116994729D01*
X181050631Y-116628669D01*
X181219110Y-116221925D01*
X181305000Y-115790128D01*
X181305000Y-115349872D01*
X181219110Y-114918075D01*
X181050631Y-114511331D01*
X180806038Y-114145271D01*
X180494729Y-113833962D01*
X180128669Y-113589369D01*
X179721925Y-113420890D01*
X179290128Y-113335000D01*
X178849872Y-113335000D01*
X178418075Y-113420890D01*
X178011331Y-113589369D01*
X177645271Y-113833962D01*
X177333962Y-114145271D01*
X177089369Y-114511331D01*
X176920890Y-114918075D01*
X176835000Y-115349872D01*
X130505000Y-115349872D01*
X130419110Y-114918075D01*
X130250631Y-114511331D01*
X130050920Y-114212441D01*
X158877000Y-114212441D01*
X158877000Y-114387559D01*
X158911164Y-114559312D01*
X158978179Y-114721099D01*
X159075469Y-114866704D01*
X159199296Y-114990531D01*
X159344901Y-115087821D01*
X159506688Y-115154836D01*
X159678441Y-115189000D01*
X159853559Y-115189000D01*
X160025312Y-115154836D01*
X160187099Y-115087821D01*
X160332704Y-114990531D01*
X160456531Y-114866704D01*
X160553821Y-114721099D01*
X160620836Y-114559312D01*
X160655000Y-114387559D01*
X160655000Y-114212441D01*
X160620836Y-114040688D01*
X160553821Y-113878901D01*
X160456531Y-113733296D01*
X160332704Y-113609469D01*
X160187099Y-113512179D01*
X160025312Y-113445164D01*
X159853559Y-113411000D01*
X159678441Y-113411000D01*
X159506688Y-113445164D01*
X159344901Y-113512179D01*
X159199296Y-113609469D01*
X159075469Y-113733296D01*
X158978179Y-113878901D01*
X158911164Y-114040688D01*
X158877000Y-114212441D01*
X130050920Y-114212441D01*
X130006038Y-114145271D01*
X129694729Y-113833962D01*
X129328669Y-113589369D01*
X128921925Y-113420890D01*
X128490128Y-113335000D01*
X128049872Y-113335000D01*
X127618075Y-113420890D01*
X127211331Y-113589369D01*
X126845271Y-113833962D01*
X126533962Y-114145271D01*
X126289369Y-114511331D01*
X126120890Y-114918075D01*
X126035000Y-115349872D01*
X125120000Y-115349872D01*
X125120000Y-102057200D01*
X125304615Y-102057200D01*
X125333287Y-102348311D01*
X125418201Y-102628234D01*
X125556094Y-102886214D01*
X125741666Y-103112334D01*
X125967786Y-103297906D01*
X126022591Y-103327200D01*
X125967786Y-103356494D01*
X125741666Y-103542066D01*
X125556094Y-103768186D01*
X125418201Y-104026166D01*
X125333287Y-104306089D01*
X125304615Y-104597200D01*
X125333287Y-104888311D01*
X125418201Y-105168234D01*
X125556094Y-105426214D01*
X125741666Y-105652334D01*
X125967786Y-105837906D01*
X126022591Y-105867200D01*
X125967786Y-105896494D01*
X125741666Y-106082066D01*
X125556094Y-106308186D01*
X125418201Y-106566166D01*
X125333287Y-106846089D01*
X125304615Y-107137200D01*
X125333287Y-107428311D01*
X125418201Y-107708234D01*
X125556094Y-107966214D01*
X125741666Y-108192334D01*
X125967786Y-108377906D01*
X126022591Y-108407200D01*
X125967786Y-108436494D01*
X125741666Y-108622066D01*
X125556094Y-108848186D01*
X125418201Y-109106166D01*
X125333287Y-109386089D01*
X125304615Y-109677200D01*
X125333287Y-109968311D01*
X125418201Y-110248234D01*
X125556094Y-110506214D01*
X125741666Y-110732334D01*
X125967786Y-110917906D01*
X126225766Y-111055799D01*
X126505689Y-111140713D01*
X126723850Y-111162200D01*
X126869750Y-111162200D01*
X127087911Y-111140713D01*
X127367834Y-111055799D01*
X127625814Y-110917906D01*
X127851934Y-110732334D01*
X128037506Y-110506214D01*
X128175399Y-110248234D01*
X128260313Y-109968311D01*
X128288985Y-109677200D01*
X128260313Y-109386089D01*
X128175399Y-109106166D01*
X128037506Y-108848186D01*
X127851934Y-108622066D01*
X127625814Y-108436494D01*
X127571009Y-108407200D01*
X127625814Y-108377906D01*
X127851934Y-108192334D01*
X128037506Y-107966214D01*
X128175399Y-107708234D01*
X128260313Y-107428311D01*
X128288985Y-107137200D01*
X128285365Y-107100441D01*
X134848600Y-107100441D01*
X134848600Y-107275559D01*
X134882764Y-107447312D01*
X134949779Y-107609099D01*
X135047069Y-107754704D01*
X135170896Y-107878531D01*
X135316501Y-107975821D01*
X135478288Y-108042836D01*
X135650041Y-108077000D01*
X135825159Y-108077000D01*
X135996912Y-108042836D01*
X136158699Y-107975821D01*
X136304304Y-107878531D01*
X136428131Y-107754704D01*
X136525421Y-107609099D01*
X136592436Y-107447312D01*
X136601200Y-107403253D01*
X136609964Y-107447312D01*
X136676979Y-107609099D01*
X136774269Y-107754704D01*
X136898096Y-107878531D01*
X137043701Y-107975821D01*
X137205488Y-108042836D01*
X137377241Y-108077000D01*
X137552359Y-108077000D01*
X137724112Y-108042836D01*
X137885899Y-107975821D01*
X138031504Y-107878531D01*
X138155331Y-107754704D01*
X138252621Y-107609099D01*
X138319636Y-107447312D01*
X138353800Y-107275559D01*
X138353800Y-107100441D01*
X138319636Y-106928688D01*
X138252621Y-106766901D01*
X138155331Y-106621296D01*
X138031504Y-106497469D01*
X137885899Y-106400179D01*
X137724112Y-106333164D01*
X137552359Y-106299000D01*
X137377241Y-106299000D01*
X137205488Y-106333164D01*
X137043701Y-106400179D01*
X136898096Y-106497469D01*
X136774269Y-106621296D01*
X136676979Y-106766901D01*
X136609964Y-106928688D01*
X136601200Y-106972747D01*
X136592436Y-106928688D01*
X136525421Y-106766901D01*
X136428131Y-106621296D01*
X136304304Y-106497469D01*
X136158699Y-106400179D01*
X135996912Y-106333164D01*
X135825159Y-106299000D01*
X135650041Y-106299000D01*
X135478288Y-106333164D01*
X135316501Y-106400179D01*
X135170896Y-106497469D01*
X135047069Y-106621296D01*
X134949779Y-106766901D01*
X134882764Y-106928688D01*
X134848600Y-107100441D01*
X128285365Y-107100441D01*
X128260313Y-106846089D01*
X128175399Y-106566166D01*
X128037506Y-106308186D01*
X127851934Y-106082066D01*
X127625814Y-105896494D01*
X127571009Y-105867200D01*
X127625814Y-105837906D01*
X127851934Y-105652334D01*
X128037506Y-105426214D01*
X128175399Y-105168234D01*
X128260313Y-104888311D01*
X128288985Y-104597200D01*
X128275358Y-104458841D01*
X140843000Y-104458841D01*
X140843000Y-104633959D01*
X140877164Y-104805712D01*
X140944179Y-104967499D01*
X141041469Y-105113104D01*
X141165296Y-105236931D01*
X141310901Y-105334221D01*
X141472688Y-105401236D01*
X141644441Y-105435400D01*
X141819559Y-105435400D01*
X141991312Y-105401236D01*
X142153099Y-105334221D01*
X142298704Y-105236931D01*
X142422531Y-105113104D01*
X142519821Y-104967499D01*
X142586836Y-104805712D01*
X142621000Y-104633959D01*
X142621000Y-104458841D01*
X142586836Y-104287088D01*
X142519821Y-104125301D01*
X142422531Y-103979696D01*
X142298704Y-103855869D01*
X142153099Y-103758579D01*
X141991312Y-103691564D01*
X141819559Y-103657400D01*
X141644441Y-103657400D01*
X141472688Y-103691564D01*
X141310901Y-103758579D01*
X141165296Y-103855869D01*
X141041469Y-103979696D01*
X140944179Y-104125301D01*
X140877164Y-104287088D01*
X140843000Y-104458841D01*
X128275358Y-104458841D01*
X128260313Y-104306089D01*
X128175399Y-104026166D01*
X128037506Y-103768186D01*
X127851934Y-103542066D01*
X127625814Y-103356494D01*
X127571009Y-103327200D01*
X127625814Y-103297906D01*
X127851934Y-103112334D01*
X128037506Y-102886214D01*
X128175399Y-102628234D01*
X128260313Y-102348311D01*
X128273702Y-102212370D01*
X128978200Y-102212370D01*
X128978200Y-102613230D01*
X129056404Y-103006387D01*
X129209807Y-103376734D01*
X129432513Y-103710037D01*
X129715963Y-103993487D01*
X130049266Y-104216193D01*
X130419613Y-104369596D01*
X130812770Y-104447800D01*
X131213630Y-104447800D01*
X131606787Y-104369596D01*
X131977134Y-104216193D01*
X132310437Y-103993487D01*
X132593887Y-103710037D01*
X132816593Y-103376734D01*
X132969996Y-103006387D01*
X133048200Y-102613230D01*
X133048200Y-102503424D01*
X134340600Y-102503424D01*
X134340600Y-102728576D01*
X134384525Y-102949401D01*
X134470687Y-103157413D01*
X134595774Y-103344620D01*
X134754980Y-103503826D01*
X134942187Y-103628913D01*
X135150199Y-103715075D01*
X135371024Y-103759000D01*
X135596176Y-103759000D01*
X135817001Y-103715075D01*
X136025013Y-103628913D01*
X136212220Y-103503826D01*
X136371426Y-103344620D01*
X136496513Y-103157413D01*
X136582675Y-102949401D01*
X136626600Y-102728576D01*
X136626600Y-102503424D01*
X136582675Y-102282599D01*
X136496513Y-102074587D01*
X136371426Y-101887380D01*
X136301287Y-101817241D01*
X146177000Y-101817241D01*
X146177000Y-101992359D01*
X146211164Y-102164112D01*
X146278179Y-102325899D01*
X146375469Y-102471504D01*
X146499296Y-102595331D01*
X146644901Y-102692621D01*
X146806688Y-102759636D01*
X146978441Y-102793800D01*
X147153559Y-102793800D01*
X147325312Y-102759636D01*
X147487099Y-102692621D01*
X147632704Y-102595331D01*
X147756531Y-102471504D01*
X147795755Y-102412800D01*
X149288354Y-102412800D01*
X149327645Y-102811730D01*
X149444009Y-103195329D01*
X149632973Y-103548856D01*
X149887276Y-103858724D01*
X150197144Y-104113027D01*
X150550671Y-104301991D01*
X150934270Y-104418355D01*
X151233231Y-104447800D01*
X151433169Y-104447800D01*
X151732130Y-104418355D01*
X152115729Y-104301991D01*
X152469256Y-104113027D01*
X152481180Y-104103241D01*
X155422600Y-104103241D01*
X155422600Y-104278359D01*
X155456764Y-104450112D01*
X155523779Y-104611899D01*
X155621069Y-104757504D01*
X155744896Y-104881331D01*
X155890501Y-104978621D01*
X156052288Y-105045636D01*
X156224041Y-105079800D01*
X156399159Y-105079800D01*
X156570912Y-105045636D01*
X156732699Y-104978621D01*
X156878304Y-104881331D01*
X157002131Y-104757504D01*
X157099421Y-104611899D01*
X157166436Y-104450112D01*
X157200600Y-104278359D01*
X157200600Y-104103241D01*
X157166436Y-103931488D01*
X157099421Y-103769701D01*
X157002131Y-103624096D01*
X156878304Y-103500269D01*
X156732699Y-103402979D01*
X156570912Y-103335964D01*
X156399159Y-103301800D01*
X156224041Y-103301800D01*
X156052288Y-103335964D01*
X155890501Y-103402979D01*
X155744896Y-103500269D01*
X155621069Y-103624096D01*
X155523779Y-103769701D01*
X155456764Y-103931488D01*
X155422600Y-104103241D01*
X152481180Y-104103241D01*
X152779124Y-103858724D01*
X153033427Y-103548856D01*
X153222391Y-103195329D01*
X153338755Y-102811730D01*
X153378046Y-102412800D01*
X153354413Y-102172841D01*
X155422600Y-102172841D01*
X155422600Y-102347959D01*
X155456764Y-102519712D01*
X155523779Y-102681499D01*
X155621069Y-102827104D01*
X155744896Y-102950931D01*
X155890501Y-103048221D01*
X156052288Y-103115236D01*
X156224041Y-103149400D01*
X156399159Y-103149400D01*
X156570912Y-103115236D01*
X156732699Y-103048221D01*
X156878304Y-102950931D01*
X156894394Y-102934841D01*
X176809400Y-102934841D01*
X176809400Y-103109959D01*
X176843564Y-103281712D01*
X176910579Y-103443499D01*
X177007869Y-103589104D01*
X177131696Y-103712931D01*
X177277301Y-103810221D01*
X177439088Y-103877236D01*
X177610841Y-103911400D01*
X177785959Y-103911400D01*
X177957712Y-103877236D01*
X178119499Y-103810221D01*
X178265104Y-103712931D01*
X178388931Y-103589104D01*
X178486221Y-103443499D01*
X178553236Y-103281712D01*
X178587400Y-103109959D01*
X178587400Y-102934841D01*
X178553236Y-102763088D01*
X178486221Y-102601301D01*
X178388931Y-102455696D01*
X178265104Y-102331869D01*
X178119499Y-102234579D01*
X177957712Y-102167564D01*
X177785959Y-102133400D01*
X177610841Y-102133400D01*
X177439088Y-102167564D01*
X177277301Y-102234579D01*
X177131696Y-102331869D01*
X177007869Y-102455696D01*
X176910579Y-102601301D01*
X176843564Y-102763088D01*
X176809400Y-102934841D01*
X156894394Y-102934841D01*
X157002131Y-102827104D01*
X157099421Y-102681499D01*
X157166436Y-102519712D01*
X157200600Y-102347959D01*
X157200600Y-102172841D01*
X157166436Y-102001088D01*
X157099421Y-101839301D01*
X157002131Y-101693696D01*
X156908435Y-101600000D01*
X179101815Y-101600000D01*
X179130487Y-101891111D01*
X179215401Y-102171034D01*
X179353294Y-102429014D01*
X179538866Y-102655134D01*
X179764986Y-102840706D01*
X179819791Y-102870000D01*
X179764986Y-102899294D01*
X179538866Y-103084866D01*
X179353294Y-103310986D01*
X179215401Y-103568966D01*
X179130487Y-103848889D01*
X179101815Y-104140000D01*
X179130487Y-104431111D01*
X179215401Y-104711034D01*
X179353294Y-104969014D01*
X179538866Y-105195134D01*
X179764986Y-105380706D01*
X179819791Y-105410000D01*
X179764986Y-105439294D01*
X179538866Y-105624866D01*
X179353294Y-105850986D01*
X179215401Y-106108966D01*
X179130487Y-106388889D01*
X179101815Y-106680000D01*
X179130487Y-106971111D01*
X179215401Y-107251034D01*
X179353294Y-107509014D01*
X179538866Y-107735134D01*
X179764986Y-107920706D01*
X180022966Y-108058599D01*
X180302889Y-108143513D01*
X180521050Y-108165000D01*
X180666950Y-108165000D01*
X180885111Y-108143513D01*
X181165034Y-108058599D01*
X181423014Y-107920706D01*
X181649134Y-107735134D01*
X181834706Y-107509014D01*
X181972599Y-107251034D01*
X182057513Y-106971111D01*
X182086185Y-106680000D01*
X182057513Y-106388889D01*
X181972599Y-106108966D01*
X181834706Y-105850986D01*
X181649134Y-105624866D01*
X181423014Y-105439294D01*
X181368209Y-105410000D01*
X181423014Y-105380706D01*
X181649134Y-105195134D01*
X181834706Y-104969014D01*
X181972599Y-104711034D01*
X182057513Y-104431111D01*
X182086185Y-104140000D01*
X182057513Y-103848889D01*
X181972599Y-103568966D01*
X181834706Y-103310986D01*
X181649134Y-103084866D01*
X181423014Y-102899294D01*
X181368209Y-102870000D01*
X181423014Y-102840706D01*
X181649134Y-102655134D01*
X181834706Y-102429014D01*
X181972599Y-102171034D01*
X182057513Y-101891111D01*
X182086185Y-101600000D01*
X182057513Y-101308889D01*
X181972599Y-101028966D01*
X181834706Y-100770986D01*
X181649134Y-100544866D01*
X181619313Y-100520393D01*
X181688180Y-100499502D01*
X181798494Y-100440537D01*
X181895185Y-100361185D01*
X181974537Y-100264494D01*
X182033502Y-100154180D01*
X182069812Y-100034482D01*
X182082072Y-99910000D01*
X182082072Y-98210000D01*
X182069812Y-98085518D01*
X182033502Y-97965820D01*
X181974537Y-97855506D01*
X181895185Y-97758815D01*
X181798494Y-97679463D01*
X181688180Y-97620498D01*
X181568482Y-97584188D01*
X181444000Y-97571928D01*
X179744000Y-97571928D01*
X179619518Y-97584188D01*
X179499820Y-97620498D01*
X179389506Y-97679463D01*
X179292815Y-97758815D01*
X179213463Y-97855506D01*
X179154498Y-97965820D01*
X179118188Y-98085518D01*
X179105928Y-98210000D01*
X179105928Y-99910000D01*
X179118188Y-100034482D01*
X179154498Y-100154180D01*
X179213463Y-100264494D01*
X179292815Y-100361185D01*
X179389506Y-100440537D01*
X179499820Y-100499502D01*
X179568687Y-100520393D01*
X179538866Y-100544866D01*
X179353294Y-100770986D01*
X179215401Y-101028966D01*
X179130487Y-101308889D01*
X179101815Y-101600000D01*
X156908435Y-101600000D01*
X156878304Y-101569869D01*
X156732699Y-101472579D01*
X156570912Y-101405564D01*
X156399159Y-101371400D01*
X156224041Y-101371400D01*
X156052288Y-101405564D01*
X155890501Y-101472579D01*
X155744896Y-101569869D01*
X155621069Y-101693696D01*
X155523779Y-101839301D01*
X155456764Y-102001088D01*
X155422600Y-102172841D01*
X153354413Y-102172841D01*
X153338755Y-102013870D01*
X153222391Y-101630271D01*
X153033427Y-101276744D01*
X152779124Y-100966876D01*
X152469256Y-100712573D01*
X152115729Y-100523609D01*
X151732130Y-100407245D01*
X151433169Y-100377800D01*
X151233231Y-100377800D01*
X150934270Y-100407245D01*
X150550671Y-100523609D01*
X150197144Y-100712573D01*
X149887276Y-100966876D01*
X149632973Y-101276744D01*
X149444009Y-101630271D01*
X149327645Y-102013870D01*
X149288354Y-102412800D01*
X147795755Y-102412800D01*
X147853821Y-102325899D01*
X147920836Y-102164112D01*
X147955000Y-101992359D01*
X147955000Y-101817241D01*
X147920836Y-101645488D01*
X147853821Y-101483701D01*
X147756531Y-101338096D01*
X147632704Y-101214269D01*
X147487099Y-101116979D01*
X147325312Y-101049964D01*
X147153559Y-101015800D01*
X146978441Y-101015800D01*
X146806688Y-101049964D01*
X146644901Y-101116979D01*
X146499296Y-101214269D01*
X146375469Y-101338096D01*
X146278179Y-101483701D01*
X146211164Y-101645488D01*
X146177000Y-101817241D01*
X136301287Y-101817241D01*
X136212220Y-101728174D01*
X136025013Y-101603087D01*
X135817001Y-101516925D01*
X135596176Y-101473000D01*
X135371024Y-101473000D01*
X135150199Y-101516925D01*
X134942187Y-101603087D01*
X134754980Y-101728174D01*
X134595774Y-101887380D01*
X134470687Y-102074587D01*
X134384525Y-102282599D01*
X134340600Y-102503424D01*
X133048200Y-102503424D01*
X133048200Y-102212370D01*
X132969996Y-101819213D01*
X132816593Y-101448866D01*
X132593887Y-101115563D01*
X132310437Y-100832113D01*
X131977134Y-100609407D01*
X131606787Y-100456004D01*
X131213630Y-100377800D01*
X130812770Y-100377800D01*
X130419613Y-100456004D01*
X130049266Y-100609407D01*
X129715963Y-100832113D01*
X129432513Y-101115563D01*
X129209807Y-101448866D01*
X129056404Y-101819213D01*
X128978200Y-102212370D01*
X128273702Y-102212370D01*
X128288985Y-102057200D01*
X128260313Y-101766089D01*
X128175399Y-101486166D01*
X128037506Y-101228186D01*
X127851934Y-101002066D01*
X127822113Y-100977593D01*
X127890980Y-100956702D01*
X128001294Y-100897737D01*
X128097985Y-100818385D01*
X128177337Y-100721694D01*
X128236302Y-100611380D01*
X128272612Y-100491682D01*
X128284872Y-100367200D01*
X128284872Y-98667200D01*
X128272612Y-98542718D01*
X128256689Y-98490224D01*
X138455400Y-98490224D01*
X138455400Y-98715376D01*
X138499325Y-98936201D01*
X138585487Y-99144213D01*
X138710574Y-99331420D01*
X138869780Y-99490626D01*
X139056987Y-99615713D01*
X139264999Y-99701875D01*
X139485824Y-99745800D01*
X139710976Y-99745800D01*
X139931801Y-99701875D01*
X140139813Y-99615713D01*
X140327020Y-99490626D01*
X140486226Y-99331420D01*
X140488483Y-99328042D01*
X159994601Y-99328042D01*
X159994601Y-99503160D01*
X160028765Y-99674913D01*
X160095780Y-99836700D01*
X160193070Y-99982305D01*
X160316897Y-100106132D01*
X160462502Y-100203422D01*
X160624289Y-100270437D01*
X160796042Y-100304601D01*
X160971160Y-100304601D01*
X161142913Y-100270437D01*
X161304700Y-100203422D01*
X161450305Y-100106132D01*
X161567996Y-99988441D01*
X162991800Y-99988441D01*
X162991800Y-100163559D01*
X163025964Y-100335312D01*
X163092979Y-100497099D01*
X163190269Y-100642704D01*
X163314096Y-100766531D01*
X163459701Y-100863821D01*
X163621488Y-100930836D01*
X163793241Y-100965000D01*
X163968359Y-100965000D01*
X164140112Y-100930836D01*
X164301899Y-100863821D01*
X164447504Y-100766531D01*
X164571331Y-100642704D01*
X164601173Y-100598041D01*
X164820600Y-100598041D01*
X164820600Y-100773159D01*
X164854764Y-100944912D01*
X164921779Y-101106699D01*
X165019069Y-101252304D01*
X165142896Y-101376131D01*
X165288501Y-101473421D01*
X165450288Y-101540436D01*
X165622041Y-101574600D01*
X165797159Y-101574600D01*
X165968912Y-101540436D01*
X166130699Y-101473421D01*
X166276304Y-101376131D01*
X166400131Y-101252304D01*
X166497421Y-101106699D01*
X166564436Y-100944912D01*
X166598600Y-100773159D01*
X166598600Y-100598041D01*
X166566245Y-100435381D01*
X166629312Y-100422836D01*
X166791099Y-100355821D01*
X166936704Y-100258531D01*
X167060531Y-100134704D01*
X167157821Y-99989099D01*
X167224836Y-99827312D01*
X167259000Y-99655559D01*
X167259000Y-99632841D01*
X171272200Y-99632841D01*
X171272200Y-99807959D01*
X171306364Y-99979712D01*
X171373379Y-100141499D01*
X171470669Y-100287104D01*
X171594496Y-100410931D01*
X171740101Y-100508221D01*
X171901888Y-100575236D01*
X172073641Y-100609400D01*
X172248759Y-100609400D01*
X172420512Y-100575236D01*
X172582299Y-100508221D01*
X172727904Y-100410931D01*
X172851731Y-100287104D01*
X172949021Y-100141499D01*
X172949293Y-100140841D01*
X174015400Y-100140841D01*
X174015400Y-100315959D01*
X174049564Y-100487712D01*
X174116579Y-100649499D01*
X174213869Y-100795104D01*
X174337696Y-100918931D01*
X174483301Y-101016221D01*
X174645088Y-101083236D01*
X174816841Y-101117400D01*
X174991959Y-101117400D01*
X175163712Y-101083236D01*
X175325499Y-101016221D01*
X175471104Y-100918931D01*
X175594931Y-100795104D01*
X175692221Y-100649499D01*
X175759236Y-100487712D01*
X175793400Y-100315959D01*
X175793400Y-100140841D01*
X175759236Y-99969088D01*
X175692221Y-99807301D01*
X175594931Y-99661696D01*
X175471104Y-99537869D01*
X175325499Y-99440579D01*
X175163712Y-99373564D01*
X174991959Y-99339400D01*
X174816841Y-99339400D01*
X174645088Y-99373564D01*
X174483301Y-99440579D01*
X174337696Y-99537869D01*
X174213869Y-99661696D01*
X174116579Y-99807301D01*
X174049564Y-99969088D01*
X174015400Y-100140841D01*
X172949293Y-100140841D01*
X173016036Y-99979712D01*
X173050200Y-99807959D01*
X173050200Y-99632841D01*
X173016036Y-99461088D01*
X172949021Y-99299301D01*
X172851731Y-99153696D01*
X172727904Y-99029869D01*
X172582299Y-98932579D01*
X172420512Y-98865564D01*
X172248759Y-98831400D01*
X172073641Y-98831400D01*
X171901888Y-98865564D01*
X171740101Y-98932579D01*
X171594496Y-99029869D01*
X171470669Y-99153696D01*
X171373379Y-99299301D01*
X171306364Y-99461088D01*
X171272200Y-99632841D01*
X167259000Y-99632841D01*
X167259000Y-99480441D01*
X167224836Y-99308688D01*
X167157821Y-99146901D01*
X167060531Y-99001296D01*
X166936704Y-98877469D01*
X166791099Y-98780179D01*
X166629312Y-98713164D01*
X166457559Y-98679000D01*
X166282441Y-98679000D01*
X166110688Y-98713164D01*
X165948901Y-98780179D01*
X165803296Y-98877469D01*
X165679469Y-99001296D01*
X165582179Y-99146901D01*
X165515164Y-99308688D01*
X165481000Y-99480441D01*
X165481000Y-99655559D01*
X165513355Y-99818219D01*
X165450288Y-99830764D01*
X165288501Y-99897779D01*
X165142896Y-99995069D01*
X165019069Y-100118896D01*
X164921779Y-100264501D01*
X164854764Y-100426288D01*
X164820600Y-100598041D01*
X164601173Y-100598041D01*
X164668621Y-100497099D01*
X164735636Y-100335312D01*
X164769800Y-100163559D01*
X164769800Y-99988441D01*
X164735636Y-99816688D01*
X164668621Y-99654901D01*
X164571331Y-99509296D01*
X164447504Y-99385469D01*
X164301899Y-99288179D01*
X164140112Y-99221164D01*
X163968359Y-99187000D01*
X163793241Y-99187000D01*
X163621488Y-99221164D01*
X163459701Y-99288179D01*
X163314096Y-99385469D01*
X163190269Y-99509296D01*
X163092979Y-99654901D01*
X163025964Y-99816688D01*
X162991800Y-99988441D01*
X161567996Y-99988441D01*
X161574132Y-99982305D01*
X161671422Y-99836700D01*
X161738437Y-99674913D01*
X161772601Y-99503160D01*
X161772601Y-99328042D01*
X161738437Y-99156289D01*
X161671422Y-98994502D01*
X161574132Y-98848897D01*
X161450305Y-98725070D01*
X161304700Y-98627780D01*
X161142913Y-98560765D01*
X160971160Y-98526601D01*
X160796042Y-98526601D01*
X160624289Y-98560765D01*
X160462502Y-98627780D01*
X160316897Y-98725070D01*
X160193070Y-98848897D01*
X160095780Y-98994502D01*
X160028765Y-99156289D01*
X159994601Y-99328042D01*
X140488483Y-99328042D01*
X140611313Y-99144213D01*
X140697475Y-98936201D01*
X140741400Y-98715376D01*
X140741400Y-98490224D01*
X140697475Y-98269399D01*
X140611313Y-98061387D01*
X140486226Y-97874180D01*
X140327020Y-97714974D01*
X140139813Y-97589887D01*
X139931801Y-97503725D01*
X139710976Y-97459800D01*
X139485824Y-97459800D01*
X139264999Y-97503725D01*
X139056987Y-97589887D01*
X138869780Y-97714974D01*
X138710574Y-97874180D01*
X138585487Y-98061387D01*
X138499325Y-98269399D01*
X138455400Y-98490224D01*
X128256689Y-98490224D01*
X128236302Y-98423020D01*
X128177337Y-98312706D01*
X128097985Y-98216015D01*
X128001294Y-98136663D01*
X127890980Y-98077698D01*
X127771282Y-98041388D01*
X127646800Y-98029128D01*
X125946800Y-98029128D01*
X125822318Y-98041388D01*
X125702620Y-98077698D01*
X125592306Y-98136663D01*
X125495615Y-98216015D01*
X125416263Y-98312706D01*
X125357298Y-98423020D01*
X125320988Y-98542718D01*
X125308728Y-98667200D01*
X125308728Y-100367200D01*
X125320988Y-100491682D01*
X125357298Y-100611380D01*
X125416263Y-100721694D01*
X125495615Y-100818385D01*
X125592306Y-100897737D01*
X125702620Y-100956702D01*
X125771487Y-100977593D01*
X125741666Y-101002066D01*
X125556094Y-101228186D01*
X125418201Y-101486166D01*
X125333287Y-101766089D01*
X125304615Y-102057200D01*
X125120000Y-102057200D01*
X125120000Y-96127641D01*
X162941000Y-96127641D01*
X162941000Y-96302759D01*
X162975164Y-96474512D01*
X163042179Y-96636299D01*
X163139469Y-96781904D01*
X163263296Y-96905731D01*
X163408901Y-97003021D01*
X163570688Y-97070036D01*
X163742441Y-97104200D01*
X163917559Y-97104200D01*
X164089312Y-97070036D01*
X164227874Y-97012641D01*
X165277800Y-97012641D01*
X165277800Y-97187759D01*
X165311964Y-97359512D01*
X165378979Y-97521299D01*
X165476269Y-97666904D01*
X165600096Y-97790731D01*
X165745701Y-97888021D01*
X165907488Y-97955036D01*
X166079241Y-97989200D01*
X166254359Y-97989200D01*
X166426112Y-97955036D01*
X166587899Y-97888021D01*
X166733504Y-97790731D01*
X166857331Y-97666904D01*
X166954621Y-97521299D01*
X167021636Y-97359512D01*
X167055800Y-97187759D01*
X167055800Y-97012641D01*
X167021636Y-96840888D01*
X166954621Y-96679101D01*
X166857331Y-96533496D01*
X166807076Y-96483241D01*
X168783000Y-96483241D01*
X168783000Y-96658359D01*
X168817164Y-96830112D01*
X168884179Y-96991899D01*
X168981469Y-97137504D01*
X169105296Y-97261331D01*
X169250901Y-97358621D01*
X169412688Y-97425636D01*
X169584441Y-97459800D01*
X169759559Y-97459800D01*
X169931312Y-97425636D01*
X170093099Y-97358621D01*
X170238704Y-97261331D01*
X170362531Y-97137504D01*
X170459821Y-96991899D01*
X170526836Y-96830112D01*
X170561000Y-96658359D01*
X170561000Y-96483241D01*
X170526836Y-96311488D01*
X170459821Y-96149701D01*
X170362531Y-96004096D01*
X170238704Y-95880269D01*
X170093099Y-95782979D01*
X169931312Y-95715964D01*
X169759559Y-95681800D01*
X169584441Y-95681800D01*
X169412688Y-95715964D01*
X169250901Y-95782979D01*
X169105296Y-95880269D01*
X168981469Y-96004096D01*
X168884179Y-96149701D01*
X168817164Y-96311488D01*
X168783000Y-96483241D01*
X166807076Y-96483241D01*
X166733504Y-96409669D01*
X166587899Y-96312379D01*
X166426112Y-96245364D01*
X166254359Y-96211200D01*
X166079241Y-96211200D01*
X165907488Y-96245364D01*
X165745701Y-96312379D01*
X165600096Y-96409669D01*
X165476269Y-96533496D01*
X165378979Y-96679101D01*
X165311964Y-96840888D01*
X165277800Y-97012641D01*
X164227874Y-97012641D01*
X164251099Y-97003021D01*
X164396704Y-96905731D01*
X164520531Y-96781904D01*
X164617821Y-96636299D01*
X164684836Y-96474512D01*
X164719000Y-96302759D01*
X164719000Y-96127641D01*
X164684836Y-95955888D01*
X164617821Y-95794101D01*
X164520531Y-95648496D01*
X164396704Y-95524669D01*
X164251099Y-95427379D01*
X164102052Y-95365641D01*
X172643800Y-95365641D01*
X172643800Y-95540759D01*
X172677964Y-95712512D01*
X172744979Y-95874299D01*
X172842269Y-96019904D01*
X172966096Y-96143731D01*
X173111701Y-96241021D01*
X173273488Y-96308036D01*
X173445241Y-96342200D01*
X173620359Y-96342200D01*
X173792112Y-96308036D01*
X173953899Y-96241021D01*
X174099504Y-96143731D01*
X174223331Y-96019904D01*
X174320621Y-95874299D01*
X174380619Y-95729454D01*
X174439296Y-95788131D01*
X174584901Y-95885421D01*
X174746688Y-95952436D01*
X174918441Y-95986600D01*
X175093559Y-95986600D01*
X175265312Y-95952436D01*
X175427099Y-95885421D01*
X175572704Y-95788131D01*
X175696531Y-95664304D01*
X175793821Y-95518699D01*
X175860836Y-95356912D01*
X175895000Y-95185159D01*
X175895000Y-95010041D01*
X175860836Y-94838288D01*
X175793821Y-94676501D01*
X175696531Y-94530896D01*
X175572704Y-94407069D01*
X175427099Y-94309779D01*
X175265312Y-94242764D01*
X175093559Y-94208600D01*
X174918441Y-94208600D01*
X174746688Y-94242764D01*
X174584901Y-94309779D01*
X174439296Y-94407069D01*
X174315469Y-94530896D01*
X174218179Y-94676501D01*
X174158181Y-94821346D01*
X174099504Y-94762669D01*
X173953899Y-94665379D01*
X173792112Y-94598364D01*
X173620359Y-94564200D01*
X173445241Y-94564200D01*
X173273488Y-94598364D01*
X173111701Y-94665379D01*
X172966096Y-94762669D01*
X172842269Y-94886496D01*
X172744979Y-95032101D01*
X172677964Y-95193888D01*
X172643800Y-95365641D01*
X164102052Y-95365641D01*
X164089312Y-95360364D01*
X163917559Y-95326200D01*
X163742441Y-95326200D01*
X163570688Y-95360364D01*
X163408901Y-95427379D01*
X163263296Y-95524669D01*
X163139469Y-95648496D01*
X163042179Y-95794101D01*
X162975164Y-95955888D01*
X162941000Y-96127641D01*
X125120000Y-96127641D01*
X125120000Y-94437200D01*
X125304615Y-94437200D01*
X125333287Y-94728311D01*
X125418201Y-95008234D01*
X125556094Y-95266214D01*
X125741666Y-95492334D01*
X125967786Y-95677906D01*
X126225766Y-95815799D01*
X126505689Y-95900713D01*
X126723850Y-95922200D01*
X126869750Y-95922200D01*
X127087911Y-95900713D01*
X127367834Y-95815799D01*
X127625814Y-95677906D01*
X127851934Y-95492334D01*
X128037506Y-95266214D01*
X128175399Y-95008234D01*
X128260313Y-94728311D01*
X128288985Y-94437200D01*
X128260313Y-94146089D01*
X128175781Y-93867424D01*
X132562600Y-93867424D01*
X132562600Y-94092576D01*
X132606525Y-94313401D01*
X132692687Y-94521413D01*
X132817774Y-94708620D01*
X132976980Y-94867826D01*
X133164187Y-94992913D01*
X133372199Y-95079075D01*
X133593024Y-95123000D01*
X133818176Y-95123000D01*
X134039001Y-95079075D01*
X134247013Y-94992913D01*
X134434220Y-94867826D01*
X134493000Y-94809046D01*
X134551780Y-94867826D01*
X134738987Y-94992913D01*
X134946999Y-95079075D01*
X135167824Y-95123000D01*
X135392976Y-95123000D01*
X135613801Y-95079075D01*
X135821813Y-94992913D01*
X136009020Y-94867826D01*
X136168226Y-94708620D01*
X136293313Y-94521413D01*
X136379475Y-94313401D01*
X136392475Y-94248041D01*
X168224200Y-94248041D01*
X168224200Y-94423159D01*
X168258364Y-94594912D01*
X168325379Y-94756699D01*
X168422669Y-94902304D01*
X168546496Y-95026131D01*
X168692101Y-95123421D01*
X168853888Y-95190436D01*
X169025641Y-95224600D01*
X169200759Y-95224600D01*
X169372512Y-95190436D01*
X169534299Y-95123421D01*
X169679904Y-95026131D01*
X169803731Y-94902304D01*
X169901021Y-94756699D01*
X169968036Y-94594912D01*
X170002200Y-94423159D01*
X170002200Y-94248041D01*
X169968036Y-94076288D01*
X169901021Y-93914501D01*
X169803731Y-93768896D01*
X169679904Y-93645069D01*
X169534299Y-93547779D01*
X169372512Y-93480764D01*
X169200759Y-93446600D01*
X169025641Y-93446600D01*
X168853888Y-93480764D01*
X168692101Y-93547779D01*
X168546496Y-93645069D01*
X168422669Y-93768896D01*
X168325379Y-93914501D01*
X168258364Y-94076288D01*
X168224200Y-94248041D01*
X136392475Y-94248041D01*
X136423400Y-94092576D01*
X136423400Y-93867424D01*
X136379475Y-93646599D01*
X136293313Y-93438587D01*
X136168226Y-93251380D01*
X136009020Y-93092174D01*
X135821813Y-92967087D01*
X135613801Y-92880925D01*
X135392976Y-92837000D01*
X135167824Y-92837000D01*
X134946999Y-92880925D01*
X134738987Y-92967087D01*
X134551780Y-93092174D01*
X134493000Y-93150954D01*
X134434220Y-93092174D01*
X134247013Y-92967087D01*
X134039001Y-92880925D01*
X133818176Y-92837000D01*
X133593024Y-92837000D01*
X133372199Y-92880925D01*
X133164187Y-92967087D01*
X132976980Y-93092174D01*
X132817774Y-93251380D01*
X132692687Y-93438587D01*
X132606525Y-93646599D01*
X132562600Y-93867424D01*
X128175781Y-93867424D01*
X128175399Y-93866166D01*
X128037506Y-93608186D01*
X127851934Y-93382066D01*
X127822113Y-93357593D01*
X127890980Y-93336702D01*
X128001294Y-93277737D01*
X128097985Y-93198385D01*
X128177337Y-93101694D01*
X128236302Y-92991380D01*
X128272612Y-92871682D01*
X128284872Y-92747200D01*
X128284872Y-92266841D01*
X155422600Y-92266841D01*
X155422600Y-92441959D01*
X155456764Y-92613712D01*
X155523779Y-92775499D01*
X155621069Y-92921104D01*
X155744896Y-93044931D01*
X155890501Y-93142221D01*
X156052288Y-93209236D01*
X156224041Y-93243400D01*
X156399159Y-93243400D01*
X156570912Y-93209236D01*
X156732699Y-93142221D01*
X156878304Y-93044931D01*
X157002131Y-92921104D01*
X157099421Y-92775499D01*
X157166436Y-92613712D01*
X157200600Y-92441959D01*
X157200600Y-92266841D01*
X157166436Y-92095088D01*
X157099421Y-91933301D01*
X157002131Y-91787696D01*
X156878304Y-91663869D01*
X156732699Y-91566579D01*
X156570912Y-91499564D01*
X156399159Y-91465400D01*
X156224041Y-91465400D01*
X156052288Y-91499564D01*
X155890501Y-91566579D01*
X155744896Y-91663869D01*
X155621069Y-91787696D01*
X155523779Y-91933301D01*
X155456764Y-92095088D01*
X155422600Y-92266841D01*
X128284872Y-92266841D01*
X128284872Y-91047200D01*
X128272612Y-90922718D01*
X128236302Y-90803020D01*
X128177337Y-90692706D01*
X128097985Y-90596015D01*
X128001294Y-90516663D01*
X127890980Y-90457698D01*
X127771282Y-90421388D01*
X127646800Y-90409128D01*
X125946800Y-90409128D01*
X125822318Y-90421388D01*
X125702620Y-90457698D01*
X125592306Y-90516663D01*
X125495615Y-90596015D01*
X125416263Y-90692706D01*
X125357298Y-90803020D01*
X125320988Y-90922718D01*
X125308728Y-91047200D01*
X125308728Y-92747200D01*
X125320988Y-92871682D01*
X125357298Y-92991380D01*
X125416263Y-93101694D01*
X125495615Y-93198385D01*
X125592306Y-93277737D01*
X125702620Y-93336702D01*
X125771487Y-93357593D01*
X125741666Y-93382066D01*
X125556094Y-93608186D01*
X125418201Y-93866166D01*
X125333287Y-94146089D01*
X125304615Y-94437200D01*
X125120000Y-94437200D01*
X125120000Y-89828441D01*
X146126200Y-89828441D01*
X146126200Y-90003559D01*
X146160364Y-90175312D01*
X146227379Y-90337099D01*
X146324669Y-90482704D01*
X146448496Y-90606531D01*
X146594101Y-90703821D01*
X146755888Y-90770836D01*
X146927641Y-90805000D01*
X147102759Y-90805000D01*
X147274512Y-90770836D01*
X147436299Y-90703821D01*
X147581904Y-90606531D01*
X147705731Y-90482704D01*
X147803021Y-90337099D01*
X147803293Y-90336441D01*
X155422600Y-90336441D01*
X155422600Y-90511559D01*
X155456764Y-90683312D01*
X155523779Y-90845099D01*
X155621069Y-90990704D01*
X155744896Y-91114531D01*
X155890501Y-91211821D01*
X156052288Y-91278836D01*
X156224041Y-91313000D01*
X156399159Y-91313000D01*
X156570912Y-91278836D01*
X156732699Y-91211821D01*
X156878304Y-91114531D01*
X157002131Y-90990704D01*
X157099421Y-90845099D01*
X157141778Y-90742841D01*
X164465000Y-90742841D01*
X164465000Y-90917959D01*
X164499164Y-91089712D01*
X164566179Y-91251499D01*
X164663469Y-91397104D01*
X164787296Y-91520931D01*
X164932901Y-91618221D01*
X165094688Y-91685236D01*
X165266441Y-91719400D01*
X165441559Y-91719400D01*
X165613312Y-91685236D01*
X165775099Y-91618221D01*
X165920704Y-91520931D01*
X166044531Y-91397104D01*
X166141821Y-91251499D01*
X166208836Y-91089712D01*
X166243000Y-90917959D01*
X166243000Y-90742841D01*
X166208836Y-90571088D01*
X166141821Y-90409301D01*
X166044531Y-90263696D01*
X165920704Y-90139869D01*
X165775099Y-90042579D01*
X165613312Y-89975564D01*
X165441559Y-89941400D01*
X165266441Y-89941400D01*
X165094688Y-89975564D01*
X164932901Y-90042579D01*
X164787296Y-90139869D01*
X164663469Y-90263696D01*
X164566179Y-90409301D01*
X164499164Y-90571088D01*
X164465000Y-90742841D01*
X157141778Y-90742841D01*
X157166436Y-90683312D01*
X157200600Y-90511559D01*
X157200600Y-90336441D01*
X157166436Y-90164688D01*
X157099421Y-90002901D01*
X157022402Y-89887633D01*
X170948124Y-89887633D01*
X170948124Y-90062751D01*
X170982288Y-90234504D01*
X171049303Y-90396291D01*
X171146593Y-90541896D01*
X171270420Y-90665723D01*
X171416025Y-90763013D01*
X171577812Y-90830028D01*
X171749565Y-90864192D01*
X171924683Y-90864192D01*
X172096436Y-90830028D01*
X172258223Y-90763013D01*
X172288412Y-90742841D01*
X174066200Y-90742841D01*
X174066200Y-90917959D01*
X174100364Y-91089712D01*
X174167379Y-91251499D01*
X174264669Y-91397104D01*
X174388496Y-91520931D01*
X174534101Y-91618221D01*
X174695888Y-91685236D01*
X174867641Y-91719400D01*
X175042759Y-91719400D01*
X175214512Y-91685236D01*
X175376299Y-91618221D01*
X175521904Y-91520931D01*
X175645731Y-91397104D01*
X175743021Y-91251499D01*
X175810036Y-91089712D01*
X175844200Y-90917959D01*
X175844200Y-90742841D01*
X175810036Y-90571088D01*
X175743021Y-90409301D01*
X175645731Y-90263696D01*
X175521904Y-90139869D01*
X175376299Y-90042579D01*
X175214512Y-89975564D01*
X175042759Y-89941400D01*
X174867641Y-89941400D01*
X174695888Y-89975564D01*
X174534101Y-90042579D01*
X174388496Y-90139869D01*
X174264669Y-90263696D01*
X174167379Y-90409301D01*
X174100364Y-90571088D01*
X174066200Y-90742841D01*
X172288412Y-90742841D01*
X172403828Y-90665723D01*
X172527655Y-90541896D01*
X172624945Y-90396291D01*
X172663288Y-90303723D01*
X172762896Y-90403331D01*
X172908501Y-90500621D01*
X173070288Y-90567636D01*
X173242041Y-90601800D01*
X173417159Y-90601800D01*
X173588912Y-90567636D01*
X173750699Y-90500621D01*
X173896304Y-90403331D01*
X174020131Y-90279504D01*
X174117421Y-90133899D01*
X174184436Y-89972112D01*
X174218600Y-89800359D01*
X174218600Y-89625241D01*
X174184436Y-89453488D01*
X174117421Y-89291701D01*
X174020131Y-89146096D01*
X173896304Y-89022269D01*
X173750699Y-88924979D01*
X173690395Y-88900000D01*
X179101815Y-88900000D01*
X179130487Y-89191111D01*
X179215401Y-89471034D01*
X179353294Y-89729014D01*
X179538866Y-89955134D01*
X179764986Y-90140706D01*
X179819791Y-90170000D01*
X179764986Y-90199294D01*
X179538866Y-90384866D01*
X179353294Y-90610986D01*
X179215401Y-90868966D01*
X179130487Y-91148889D01*
X179101815Y-91440000D01*
X179130487Y-91731111D01*
X179215401Y-92011034D01*
X179353294Y-92269014D01*
X179538866Y-92495134D01*
X179764986Y-92680706D01*
X179819791Y-92710000D01*
X179764986Y-92739294D01*
X179538866Y-92924866D01*
X179353294Y-93150986D01*
X179215401Y-93408966D01*
X179130487Y-93688889D01*
X179101815Y-93980000D01*
X179130487Y-94271111D01*
X179215401Y-94551034D01*
X179353294Y-94809014D01*
X179538866Y-95035134D01*
X179764986Y-95220706D01*
X180022966Y-95358599D01*
X180302889Y-95443513D01*
X180521050Y-95465000D01*
X180666950Y-95465000D01*
X180885111Y-95443513D01*
X181165034Y-95358599D01*
X181423014Y-95220706D01*
X181649134Y-95035134D01*
X181834706Y-94809014D01*
X181972599Y-94551034D01*
X182057513Y-94271111D01*
X182086185Y-93980000D01*
X182057513Y-93688889D01*
X181972599Y-93408966D01*
X181834706Y-93150986D01*
X181649134Y-92924866D01*
X181423014Y-92739294D01*
X181368209Y-92710000D01*
X181423014Y-92680706D01*
X181649134Y-92495134D01*
X181834706Y-92269014D01*
X181972599Y-92011034D01*
X182057513Y-91731111D01*
X182086185Y-91440000D01*
X182057513Y-91148889D01*
X181972599Y-90868966D01*
X181834706Y-90610986D01*
X181649134Y-90384866D01*
X181423014Y-90199294D01*
X181368209Y-90170000D01*
X181423014Y-90140706D01*
X181649134Y-89955134D01*
X181834706Y-89729014D01*
X181972599Y-89471034D01*
X182057513Y-89191111D01*
X182086185Y-88900000D01*
X182057513Y-88608889D01*
X181972599Y-88328966D01*
X181834706Y-88070986D01*
X181649134Y-87844866D01*
X181619313Y-87820393D01*
X181688180Y-87799502D01*
X181798494Y-87740537D01*
X181895185Y-87661185D01*
X181974537Y-87564494D01*
X182033502Y-87454180D01*
X182069812Y-87334482D01*
X182082072Y-87210000D01*
X182082072Y-85510000D01*
X182069812Y-85385518D01*
X182033502Y-85265820D01*
X181974537Y-85155506D01*
X181895185Y-85058815D01*
X181798494Y-84979463D01*
X181688180Y-84920498D01*
X181568482Y-84884188D01*
X181444000Y-84871928D01*
X179744000Y-84871928D01*
X179619518Y-84884188D01*
X179499820Y-84920498D01*
X179389506Y-84979463D01*
X179292815Y-85058815D01*
X179213463Y-85155506D01*
X179154498Y-85265820D01*
X179118188Y-85385518D01*
X179105928Y-85510000D01*
X179105928Y-87210000D01*
X179118188Y-87334482D01*
X179154498Y-87454180D01*
X179213463Y-87564494D01*
X179292815Y-87661185D01*
X179389506Y-87740537D01*
X179499820Y-87799502D01*
X179568687Y-87820393D01*
X179538866Y-87844866D01*
X179353294Y-88070986D01*
X179215401Y-88328966D01*
X179130487Y-88608889D01*
X179101815Y-88900000D01*
X173690395Y-88900000D01*
X173631985Y-88875806D01*
X173625636Y-88843888D01*
X173558621Y-88682101D01*
X173461331Y-88536496D01*
X173337504Y-88412669D01*
X173191899Y-88315379D01*
X173030112Y-88248364D01*
X172858359Y-88214200D01*
X172683241Y-88214200D01*
X172511488Y-88248364D01*
X172349701Y-88315379D01*
X172204096Y-88412669D01*
X172080269Y-88536496D01*
X171982979Y-88682101D01*
X171915964Y-88843888D01*
X171881800Y-89015641D01*
X171881800Y-89086192D01*
X171749565Y-89086192D01*
X171577812Y-89120356D01*
X171416025Y-89187371D01*
X171270420Y-89284661D01*
X171146593Y-89408488D01*
X171049303Y-89554093D01*
X170982288Y-89715880D01*
X170948124Y-89887633D01*
X157022402Y-89887633D01*
X157002131Y-89857296D01*
X156878304Y-89733469D01*
X156732699Y-89636179D01*
X156570912Y-89569164D01*
X156399159Y-89535000D01*
X156224041Y-89535000D01*
X156052288Y-89569164D01*
X155890501Y-89636179D01*
X155744896Y-89733469D01*
X155621069Y-89857296D01*
X155523779Y-90002901D01*
X155456764Y-90164688D01*
X155422600Y-90336441D01*
X147803293Y-90336441D01*
X147870036Y-90175312D01*
X147904200Y-90003559D01*
X147904200Y-89828441D01*
X147870036Y-89656688D01*
X147803021Y-89494901D01*
X147705731Y-89349296D01*
X147581904Y-89225469D01*
X147436299Y-89128179D01*
X147274512Y-89061164D01*
X147102759Y-89027000D01*
X146927641Y-89027000D01*
X146755888Y-89061164D01*
X146594101Y-89128179D01*
X146448496Y-89225469D01*
X146324669Y-89349296D01*
X146227379Y-89494901D01*
X146160364Y-89656688D01*
X146126200Y-89828441D01*
X125120000Y-89828441D01*
X125120000Y-88622702D01*
X142609903Y-88622702D01*
X142681486Y-88866671D01*
X142936996Y-88987571D01*
X143211184Y-89056300D01*
X143493512Y-89070217D01*
X143773130Y-89028787D01*
X144039292Y-88933603D01*
X144164514Y-88866671D01*
X144236097Y-88622702D01*
X143423000Y-87809605D01*
X142609903Y-88622702D01*
X125120000Y-88622702D01*
X125120000Y-86817200D01*
X125304615Y-86817200D01*
X125333287Y-87108311D01*
X125418201Y-87388234D01*
X125556094Y-87646214D01*
X125741666Y-87872334D01*
X125967786Y-88057906D01*
X126225766Y-88195799D01*
X126505689Y-88280713D01*
X126723850Y-88302200D01*
X126869750Y-88302200D01*
X127087911Y-88280713D01*
X127367834Y-88195799D01*
X127625814Y-88057906D01*
X127851934Y-87872334D01*
X127992944Y-87700512D01*
X141982783Y-87700512D01*
X142024213Y-87980130D01*
X142119397Y-88246292D01*
X142186329Y-88371514D01*
X142430298Y-88443097D01*
X143243395Y-87630000D01*
X143602605Y-87630000D01*
X144415702Y-88443097D01*
X144659671Y-88371514D01*
X144780571Y-88116004D01*
X144849300Y-87841816D01*
X144863217Y-87559488D01*
X144852724Y-87488665D01*
X146988000Y-87488665D01*
X146988000Y-87771335D01*
X147043147Y-88048574D01*
X147151320Y-88309727D01*
X147308363Y-88544759D01*
X147508241Y-88744637D01*
X147743273Y-88901680D01*
X148004426Y-89009853D01*
X148281665Y-89065000D01*
X148564335Y-89065000D01*
X148841574Y-89009853D01*
X149102727Y-88901680D01*
X149337759Y-88744637D01*
X149537637Y-88544759D01*
X149694680Y-88309727D01*
X149802853Y-88048574D01*
X149858000Y-87771335D01*
X149858000Y-87488665D01*
X149802853Y-87211426D01*
X149694680Y-86950273D01*
X149537637Y-86715241D01*
X149337759Y-86515363D01*
X149102727Y-86358320D01*
X148841574Y-86250147D01*
X148564335Y-86195000D01*
X148281665Y-86195000D01*
X148004426Y-86250147D01*
X147743273Y-86358320D01*
X147508241Y-86515363D01*
X147308363Y-86715241D01*
X147151320Y-86950273D01*
X147043147Y-87211426D01*
X146988000Y-87488665D01*
X144852724Y-87488665D01*
X144821787Y-87279870D01*
X144726603Y-87013708D01*
X144659671Y-86888486D01*
X144415702Y-86816903D01*
X143602605Y-87630000D01*
X143243395Y-87630000D01*
X142430298Y-86816903D01*
X142186329Y-86888486D01*
X142065429Y-87143996D01*
X141996700Y-87418184D01*
X141982783Y-87700512D01*
X127992944Y-87700512D01*
X128037506Y-87646214D01*
X128175399Y-87388234D01*
X128260313Y-87108311D01*
X128288985Y-86817200D01*
X128260313Y-86526089D01*
X128175399Y-86246166D01*
X128037506Y-85988186D01*
X127851934Y-85762066D01*
X127822113Y-85737593D01*
X127890980Y-85716702D01*
X128001294Y-85657737D01*
X128097985Y-85578385D01*
X128177337Y-85481694D01*
X128236302Y-85371380D01*
X128272612Y-85251682D01*
X128284872Y-85127200D01*
X128284872Y-83427200D01*
X128275101Y-83327989D01*
X130481000Y-83327989D01*
X130481000Y-83600811D01*
X130534225Y-83868389D01*
X130638629Y-84120443D01*
X130790201Y-84347286D01*
X130983114Y-84540199D01*
X131209957Y-84691771D01*
X131235757Y-84702458D01*
X131148180Y-84760974D01*
X130988974Y-84920180D01*
X130863887Y-85107387D01*
X130777725Y-85315399D01*
X130733800Y-85536224D01*
X130733800Y-85761376D01*
X130777725Y-85982201D01*
X130863887Y-86190213D01*
X130988974Y-86377420D01*
X131148180Y-86536626D01*
X131335387Y-86661713D01*
X131543399Y-86747875D01*
X131764224Y-86791800D01*
X131989376Y-86791800D01*
X132210201Y-86747875D01*
X132418213Y-86661713D01*
X132454752Y-86637298D01*
X142609903Y-86637298D01*
X143423000Y-87450395D01*
X144236097Y-86637298D01*
X144164514Y-86393329D01*
X143909004Y-86272429D01*
X143634816Y-86203700D01*
X143352488Y-86189783D01*
X143072870Y-86231213D01*
X142806708Y-86326397D01*
X142681486Y-86393329D01*
X142609903Y-86637298D01*
X132454752Y-86637298D01*
X132605420Y-86536626D01*
X132764626Y-86377420D01*
X132889713Y-86190213D01*
X132975875Y-85982201D01*
X133019800Y-85761376D01*
X133019800Y-85536224D01*
X132975875Y-85315399D01*
X132889713Y-85107387D01*
X132764626Y-84920180D01*
X132605420Y-84760974D01*
X132509577Y-84696934D01*
X132522043Y-84691771D01*
X132748886Y-84540199D01*
X132941799Y-84347286D01*
X133093371Y-84120443D01*
X133197775Y-83868389D01*
X133251000Y-83600811D01*
X133251000Y-83327989D01*
X135481000Y-83327989D01*
X135481000Y-83600811D01*
X135534225Y-83868389D01*
X135638629Y-84120443D01*
X135790201Y-84347286D01*
X135983114Y-84540199D01*
X136209957Y-84691771D01*
X136462011Y-84796175D01*
X136729589Y-84849400D01*
X137002411Y-84849400D01*
X137269989Y-84796175D01*
X137522043Y-84691771D01*
X137693400Y-84577274D01*
X137693400Y-84694576D01*
X137737325Y-84915401D01*
X137823487Y-85123413D01*
X137948574Y-85310620D01*
X138107780Y-85469826D01*
X138294987Y-85594913D01*
X138502999Y-85681075D01*
X138723824Y-85725000D01*
X138948976Y-85725000D01*
X139169801Y-85681075D01*
X139377813Y-85594913D01*
X139565020Y-85469826D01*
X139724226Y-85310620D01*
X139849313Y-85123413D01*
X139935475Y-84915401D01*
X139979400Y-84694576D01*
X139979400Y-84469424D01*
X139974272Y-84443641D01*
X160248600Y-84443641D01*
X160248600Y-84618759D01*
X160282764Y-84790512D01*
X160349779Y-84952299D01*
X160447069Y-85097904D01*
X160570896Y-85221731D01*
X160716501Y-85319021D01*
X160878288Y-85386036D01*
X161050041Y-85420200D01*
X161225159Y-85420200D01*
X161396912Y-85386036D01*
X161558699Y-85319021D01*
X161704304Y-85221731D01*
X161828131Y-85097904D01*
X161925421Y-84952299D01*
X161992436Y-84790512D01*
X162026600Y-84618759D01*
X162026600Y-84443641D01*
X161992436Y-84271888D01*
X161925421Y-84110101D01*
X161828131Y-83964496D01*
X161704304Y-83840669D01*
X161558699Y-83743379D01*
X161396912Y-83676364D01*
X161225159Y-83642200D01*
X161050041Y-83642200D01*
X160878288Y-83676364D01*
X160716501Y-83743379D01*
X160570896Y-83840669D01*
X160447069Y-83964496D01*
X160349779Y-84110101D01*
X160282764Y-84271888D01*
X160248600Y-84443641D01*
X139974272Y-84443641D01*
X139935475Y-84248599D01*
X139849313Y-84040587D01*
X139724226Y-83853380D01*
X139565020Y-83694174D01*
X139377813Y-83569087D01*
X139169801Y-83482925D01*
X138948976Y-83439000D01*
X138723824Y-83439000D01*
X138502999Y-83482925D01*
X138294987Y-83569087D01*
X138251000Y-83598478D01*
X138251000Y-83327989D01*
X138197775Y-83060411D01*
X138107721Y-82843000D01*
X163611928Y-82843000D01*
X163611928Y-84543000D01*
X163624188Y-84667482D01*
X163660498Y-84787180D01*
X163719463Y-84897494D01*
X163798815Y-84994185D01*
X163895506Y-85073537D01*
X164005820Y-85132502D01*
X164125518Y-85168812D01*
X164250000Y-85181072D01*
X165950000Y-85181072D01*
X166074482Y-85168812D01*
X166194180Y-85132502D01*
X166304494Y-85073537D01*
X166401185Y-84994185D01*
X166480537Y-84897494D01*
X166539502Y-84787180D01*
X166560393Y-84718313D01*
X166584866Y-84748134D01*
X166810986Y-84933706D01*
X167068966Y-85071599D01*
X167348889Y-85156513D01*
X167567050Y-85178000D01*
X167712950Y-85178000D01*
X167931111Y-85156513D01*
X168211034Y-85071599D01*
X168469014Y-84933706D01*
X168695134Y-84748134D01*
X168880706Y-84522014D01*
X169018599Y-84264034D01*
X169103513Y-83984111D01*
X169132185Y-83693000D01*
X169103513Y-83401889D01*
X169018599Y-83121966D01*
X168880706Y-82863986D01*
X168695134Y-82637866D01*
X168469014Y-82452294D01*
X168211034Y-82314401D01*
X167931111Y-82229487D01*
X167712950Y-82208000D01*
X167567050Y-82208000D01*
X167348889Y-82229487D01*
X167068966Y-82314401D01*
X166810986Y-82452294D01*
X166584866Y-82637866D01*
X166560393Y-82667687D01*
X166539502Y-82598820D01*
X166480537Y-82488506D01*
X166401185Y-82391815D01*
X166304494Y-82312463D01*
X166194180Y-82253498D01*
X166074482Y-82217188D01*
X165950000Y-82204928D01*
X164250000Y-82204928D01*
X164125518Y-82217188D01*
X164005820Y-82253498D01*
X163895506Y-82312463D01*
X163798815Y-82391815D01*
X163719463Y-82488506D01*
X163660498Y-82598820D01*
X163624188Y-82718518D01*
X163611928Y-82843000D01*
X138107721Y-82843000D01*
X138093371Y-82808357D01*
X137941799Y-82581514D01*
X137748886Y-82388601D01*
X137522043Y-82237029D01*
X137269989Y-82132625D01*
X137002411Y-82079400D01*
X136729589Y-82079400D01*
X136462011Y-82132625D01*
X136209957Y-82237029D01*
X135983114Y-82388601D01*
X135790201Y-82581514D01*
X135638629Y-82808357D01*
X135534225Y-83060411D01*
X135481000Y-83327989D01*
X133251000Y-83327989D01*
X133197775Y-83060411D01*
X133093371Y-82808357D01*
X132941799Y-82581514D01*
X132748886Y-82388601D01*
X132522043Y-82237029D01*
X132269989Y-82132625D01*
X132002411Y-82079400D01*
X131729589Y-82079400D01*
X131462011Y-82132625D01*
X131209957Y-82237029D01*
X130983114Y-82388601D01*
X130790201Y-82581514D01*
X130638629Y-82808357D01*
X130534225Y-83060411D01*
X130481000Y-83327989D01*
X128275101Y-83327989D01*
X128272612Y-83302718D01*
X128236302Y-83183020D01*
X128177337Y-83072706D01*
X128097985Y-82976015D01*
X128001294Y-82896663D01*
X127890980Y-82837698D01*
X127771282Y-82801388D01*
X127646800Y-82789128D01*
X125946800Y-82789128D01*
X125822318Y-82801388D01*
X125702620Y-82837698D01*
X125592306Y-82896663D01*
X125495615Y-82976015D01*
X125416263Y-83072706D01*
X125357298Y-83183020D01*
X125320988Y-83302718D01*
X125308728Y-83427200D01*
X125308728Y-85127200D01*
X125320988Y-85251682D01*
X125357298Y-85371380D01*
X125416263Y-85481694D01*
X125495615Y-85578385D01*
X125592306Y-85657737D01*
X125702620Y-85716702D01*
X125771487Y-85737593D01*
X125741666Y-85762066D01*
X125556094Y-85988186D01*
X125418201Y-86246166D01*
X125333287Y-86526089D01*
X125304615Y-86817200D01*
X125120000Y-86817200D01*
X125120000Y-77249872D01*
X126035000Y-77249872D01*
X126035000Y-77690128D01*
X126120890Y-78121925D01*
X126289369Y-78528669D01*
X126533962Y-78894729D01*
X126845271Y-79206038D01*
X127211331Y-79450631D01*
X127618075Y-79619110D01*
X128049872Y-79705000D01*
X128490128Y-79705000D01*
X128921925Y-79619110D01*
X129328669Y-79450631D01*
X129694729Y-79206038D01*
X130006038Y-78894729D01*
X130250631Y-78528669D01*
X130419110Y-78121925D01*
X130505000Y-77690128D01*
X130505000Y-77249872D01*
X130419110Y-76818075D01*
X130409967Y-76796000D01*
X161071928Y-76796000D01*
X161084188Y-76920482D01*
X161120498Y-77040180D01*
X161179463Y-77150494D01*
X161258815Y-77247185D01*
X161355506Y-77326537D01*
X161465820Y-77385502D01*
X161585518Y-77421812D01*
X161710000Y-77434072D01*
X162274250Y-77431000D01*
X162433000Y-77272250D01*
X162433000Y-76073000D01*
X161233750Y-76073000D01*
X161075000Y-76231750D01*
X161071928Y-76796000D01*
X130409967Y-76796000D01*
X130250631Y-76411331D01*
X130006038Y-76045271D01*
X129694729Y-75733962D01*
X129328669Y-75489369D01*
X128921925Y-75320890D01*
X128490128Y-75235000D01*
X128049872Y-75235000D01*
X127618075Y-75320890D01*
X127211331Y-75489369D01*
X126845271Y-75733962D01*
X126533962Y-76045271D01*
X126289369Y-76411331D01*
X126120890Y-76818075D01*
X126035000Y-77249872D01*
X125120000Y-77249872D01*
X125120000Y-75096000D01*
X161071928Y-75096000D01*
X161075000Y-75660250D01*
X161233750Y-75819000D01*
X162433000Y-75819000D01*
X162433000Y-74619750D01*
X162687000Y-74619750D01*
X162687000Y-75819000D01*
X162707000Y-75819000D01*
X162707000Y-76073000D01*
X162687000Y-76073000D01*
X162687000Y-77272250D01*
X162845750Y-77431000D01*
X163410000Y-77434072D01*
X163534482Y-77421812D01*
X163654180Y-77385502D01*
X163764494Y-77326537D01*
X163861185Y-77247185D01*
X163940537Y-77150494D01*
X163999502Y-77040180D01*
X164020393Y-76971313D01*
X164044866Y-77001134D01*
X164270986Y-77186706D01*
X164528966Y-77324599D01*
X164808889Y-77409513D01*
X165027050Y-77431000D01*
X165172950Y-77431000D01*
X165391111Y-77409513D01*
X165671034Y-77324599D01*
X165929014Y-77186706D01*
X166155134Y-77001134D01*
X166340706Y-76775014D01*
X166370000Y-76720209D01*
X166399294Y-76775014D01*
X166584866Y-77001134D01*
X166810986Y-77186706D01*
X167068966Y-77324599D01*
X167348889Y-77409513D01*
X167567050Y-77431000D01*
X167712950Y-77431000D01*
X167931111Y-77409513D01*
X168211034Y-77324599D01*
X168469014Y-77186706D01*
X168695134Y-77001134D01*
X168880706Y-76775014D01*
X168910000Y-76720209D01*
X168939294Y-76775014D01*
X169124866Y-77001134D01*
X169350986Y-77186706D01*
X169608966Y-77324599D01*
X169888889Y-77409513D01*
X170107050Y-77431000D01*
X170252950Y-77431000D01*
X170471111Y-77409513D01*
X170751034Y-77324599D01*
X170890838Y-77249872D01*
X176835000Y-77249872D01*
X176835000Y-77690128D01*
X176920890Y-78121925D01*
X177089369Y-78528669D01*
X177333962Y-78894729D01*
X177645271Y-79206038D01*
X178011331Y-79450631D01*
X178418075Y-79619110D01*
X178849872Y-79705000D01*
X179290128Y-79705000D01*
X179721925Y-79619110D01*
X180128669Y-79450631D01*
X180494729Y-79206038D01*
X180806038Y-78894729D01*
X181050631Y-78528669D01*
X181219110Y-78121925D01*
X181305000Y-77690128D01*
X181305000Y-77249872D01*
X181219110Y-76818075D01*
X181050631Y-76411331D01*
X180806038Y-76045271D01*
X180494729Y-75733962D01*
X180128669Y-75489369D01*
X179721925Y-75320890D01*
X179290128Y-75235000D01*
X178849872Y-75235000D01*
X178418075Y-75320890D01*
X178011331Y-75489369D01*
X177645271Y-75733962D01*
X177333962Y-76045271D01*
X177089369Y-76411331D01*
X176920890Y-76818075D01*
X176835000Y-77249872D01*
X170890838Y-77249872D01*
X171009014Y-77186706D01*
X171235134Y-77001134D01*
X171420706Y-76775014D01*
X171558599Y-76517034D01*
X171643513Y-76237111D01*
X171672185Y-75946000D01*
X171643513Y-75654889D01*
X171558599Y-75374966D01*
X171420706Y-75116986D01*
X171235134Y-74890866D01*
X171009014Y-74705294D01*
X170751034Y-74567401D01*
X170471111Y-74482487D01*
X170252950Y-74461000D01*
X170107050Y-74461000D01*
X169888889Y-74482487D01*
X169608966Y-74567401D01*
X169350986Y-74705294D01*
X169124866Y-74890866D01*
X168939294Y-75116986D01*
X168910000Y-75171791D01*
X168880706Y-75116986D01*
X168695134Y-74890866D01*
X168469014Y-74705294D01*
X168211034Y-74567401D01*
X167931111Y-74482487D01*
X167712950Y-74461000D01*
X167567050Y-74461000D01*
X167348889Y-74482487D01*
X167068966Y-74567401D01*
X166810986Y-74705294D01*
X166584866Y-74890866D01*
X166399294Y-75116986D01*
X166370000Y-75171791D01*
X166340706Y-75116986D01*
X166155134Y-74890866D01*
X165929014Y-74705294D01*
X165671034Y-74567401D01*
X165391111Y-74482487D01*
X165172950Y-74461000D01*
X165027050Y-74461000D01*
X164808889Y-74482487D01*
X164528966Y-74567401D01*
X164270986Y-74705294D01*
X164044866Y-74890866D01*
X164020393Y-74920687D01*
X163999502Y-74851820D01*
X163940537Y-74741506D01*
X163861185Y-74644815D01*
X163764494Y-74565463D01*
X163654180Y-74506498D01*
X163534482Y-74470188D01*
X163410000Y-74457928D01*
X162845750Y-74461000D01*
X162687000Y-74619750D01*
X162433000Y-74619750D01*
X162274250Y-74461000D01*
X161710000Y-74457928D01*
X161585518Y-74470188D01*
X161465820Y-74506498D01*
X161355506Y-74565463D01*
X161258815Y-74644815D01*
X161179463Y-74741506D01*
X161120498Y-74851820D01*
X161084188Y-74971518D01*
X161071928Y-75096000D01*
X125120000Y-75096000D01*
X125120000Y-74320000D01*
X182220000Y-74320000D01*
X182220001Y-118720000D01*
M02*
