G04 #@! TF.GenerationSoftware,KiCad,Pcbnew,(5.1.4)-1*
G04 #@! TF.CreationDate,2019-12-04T08:55:51-06:00*
G04 #@! TF.ProjectId,motor_control,6d6f746f-725f-4636-9f6e-74726f6c2e6b,rev?*
G04 #@! TF.SameCoordinates,Original*
G04 #@! TF.FileFunction,Soldermask,Top*
G04 #@! TF.FilePolarity,Negative*
%FSLAX46Y46*%
G04 Gerber Fmt 4.6, Leading zero omitted, Abs format (unit mm)*
G04 Created by KiCad (PCBNEW (5.1.4)-1) date 2019-12-04 08:55:51*
%MOMM*%
%LPD*%
G04 APERTURE LIST*
%ADD10C,1.701600*%
%ADD11R,0.851600X1.301600*%
%ADD12C,1.601600*%
%ADD13C,2.540000*%
%ADD14C,3.301600*%
%ADD15O,1.801600X1.801600*%
%ADD16R,1.801600X1.801600*%
%ADD17O,2.901600X2.901600*%
%ADD18C,2.901600*%
%ADD19R,1.001600X1.301600*%
%ADD20R,1.601600X1.201600*%
%ADD21R,0.351600X1.401600*%
%ADD22R,1.401600X0.351600*%
%ADD23R,2.101600X7.976600*%
G04 APERTURE END LIST*
D10*
X143423000Y-87630000D03*
X148423000Y-87630000D03*
D11*
X165387601Y-88695599D03*
X165387601Y-86795599D03*
D12*
X136866000Y-83464400D03*
X131866000Y-83464400D03*
D13*
X132715000Y-75565000D03*
X174625000Y-75565000D03*
X174625000Y-117475000D03*
X141605000Y-117475000D03*
D14*
X179070000Y-115570000D03*
X128270000Y-115570000D03*
X179070000Y-77470000D03*
X128270000Y-77470000D03*
D15*
X126796800Y-109677200D03*
X126796800Y-107137200D03*
X126796800Y-104597200D03*
X126796800Y-102057200D03*
D16*
X126796800Y-99517200D03*
D15*
X167640000Y-83693000D03*
D16*
X165100000Y-83693000D03*
D15*
X170180000Y-75946000D03*
X167640000Y-75946000D03*
X165100000Y-75946000D03*
D16*
X162560000Y-75946000D03*
X180594000Y-99060000D03*
D15*
X180594000Y-101600000D03*
X180594000Y-104140000D03*
X180594000Y-106680000D03*
X170180000Y-117094000D03*
X167640000Y-117094000D03*
X165100000Y-117094000D03*
D16*
X162560000Y-117094000D03*
X180594000Y-86360000D03*
D15*
X180594000Y-88900000D03*
X180594000Y-91440000D03*
X180594000Y-93980000D03*
D16*
X126796800Y-91897200D03*
D15*
X126796800Y-94437200D03*
X126796800Y-86817200D03*
D16*
X126796800Y-84277200D03*
D17*
X151333200Y-102412800D03*
D18*
X131013200Y-102412800D03*
D19*
X166928800Y-88857000D03*
X166928800Y-86657000D03*
D20*
X130627200Y-108458000D03*
X130627200Y-110998000D03*
X139527200Y-110998000D03*
X139527200Y-108458000D03*
D21*
X169335000Y-92982800D03*
X169835000Y-92982800D03*
X170335000Y-92982800D03*
X170835000Y-92982800D03*
X171335000Y-92982800D03*
X171835000Y-92982800D03*
X172335000Y-92982800D03*
X172835000Y-92982800D03*
X173335000Y-92982800D03*
X173835000Y-92982800D03*
X174335000Y-92982800D03*
X174835000Y-92982800D03*
D22*
X176435000Y-94582800D03*
X176435000Y-95082800D03*
X176435000Y-95582800D03*
X176435000Y-96082800D03*
X176435000Y-96582800D03*
X176435000Y-97082800D03*
X176435000Y-97582800D03*
X176435000Y-98082800D03*
X176435000Y-98582800D03*
X176435000Y-99082800D03*
X176435000Y-99582800D03*
X176435000Y-100082800D03*
D21*
X174835000Y-101682800D03*
X174335000Y-101682800D03*
X173835000Y-101682800D03*
X173335000Y-101682800D03*
X172835000Y-101682800D03*
X172335000Y-101682800D03*
X171835000Y-101682800D03*
X171335000Y-101682800D03*
X170835000Y-101682800D03*
X170335000Y-101682800D03*
X169835000Y-101682800D03*
X169335000Y-101682800D03*
D22*
X167735000Y-100082800D03*
X167735000Y-99582800D03*
X167735000Y-99082800D03*
X167735000Y-98582800D03*
X167735000Y-98082800D03*
X167735000Y-97582800D03*
X167735000Y-97082800D03*
X167735000Y-96582800D03*
X167735000Y-96082800D03*
X167735000Y-95582800D03*
X167735000Y-95082800D03*
X167735000Y-94582800D03*
D23*
X157861000Y-103270300D03*
X157861000Y-91395300D03*
M02*
