G04 #@! TF.GenerationSoftware,KiCad,Pcbnew,(5.1.4)-1*
G04 #@! TF.CreationDate,2019-12-04T08:55:51-06:00*
G04 #@! TF.ProjectId,motor_control,6d6f746f-725f-4636-9f6e-74726f6c2e6b,rev?*
G04 #@! TF.SameCoordinates,Original*
G04 #@! TF.FileFunction,Copper,L4,Bot*
G04 #@! TF.FilePolarity,Positive*
%FSLAX46Y46*%
G04 Gerber Fmt 4.6, Leading zero omitted, Abs format (unit mm)*
G04 Created by KiCad (PCBNEW (5.1.4)-1) date 2019-12-04 08:55:51*
%MOMM*%
%LPD*%
G04 APERTURE LIST*
%ADD10C,1.600000*%
%ADD11R,1.200000X0.750000*%
%ADD12R,0.750000X1.200000*%
%ADD13C,1.500000*%
%ADD14O,1.700000X1.700000*%
%ADD15R,1.700000X1.700000*%
%ADD16R,0.900000X0.800000*%
%ADD17O,2.800000X2.800000*%
%ADD18C,2.800000*%
%ADD19R,0.900000X1.200000*%
%ADD20R,1.200000X0.900000*%
%ADD21R,1.560000X0.650000*%
%ADD22R,2.000000X1.500000*%
%ADD23R,2.000000X3.800000*%
%ADD24C,0.508000*%
%ADD25C,1.016000*%
%ADD26C,0.304800*%
%ADD27C,0.635000*%
%ADD28C,1.270000*%
%ADD29C,0.508000*%
%ADD30C,0.152400*%
G04 APERTURE END LIST*
D10*
X143423000Y-87630000D03*
X148423000Y-87630000D03*
D11*
X143118800Y-104546400D03*
X145018800Y-104546400D03*
D12*
X136956800Y-102600800D03*
X136956800Y-100700800D03*
X157835600Y-90439200D03*
X157835600Y-92339200D03*
X157835600Y-104175600D03*
X157835600Y-102275600D03*
X176530000Y-92745600D03*
X176530000Y-90845600D03*
D11*
X178445200Y-101803200D03*
X176545200Y-101803200D03*
D12*
X167640000Y-92745600D03*
X167640000Y-90845600D03*
D11*
X165724800Y-101803200D03*
X167624800Y-101803200D03*
X133416000Y-85648800D03*
X135316000Y-85648800D03*
X135316000Y-87274400D03*
X133416000Y-87274400D03*
X133416000Y-88950800D03*
X135316000Y-88950800D03*
D12*
X140309600Y-94147600D03*
X140309600Y-96047600D03*
X141884400Y-96047600D03*
X141884400Y-94147600D03*
X143459200Y-94147600D03*
X143459200Y-96047600D03*
D13*
X136866000Y-83464400D03*
X131866000Y-83464400D03*
D14*
X126796800Y-109677200D03*
X126796800Y-107137200D03*
X126796800Y-104597200D03*
X126796800Y-102057200D03*
D15*
X126796800Y-99517200D03*
D14*
X167640000Y-83693000D03*
D15*
X165100000Y-83693000D03*
D14*
X170180000Y-75946000D03*
X167640000Y-75946000D03*
X165100000Y-75946000D03*
D15*
X162560000Y-75946000D03*
X180594000Y-99060000D03*
D14*
X180594000Y-101600000D03*
X180594000Y-104140000D03*
X180594000Y-106680000D03*
X170180000Y-117094000D03*
X167640000Y-117094000D03*
X165100000Y-117094000D03*
D15*
X162560000Y-117094000D03*
X180594000Y-86360000D03*
D14*
X180594000Y-88900000D03*
X180594000Y-91440000D03*
X180594000Y-93980000D03*
D15*
X126796800Y-91897200D03*
D14*
X126796800Y-94437200D03*
X126796800Y-86817200D03*
D15*
X126796800Y-84277200D03*
D16*
X147862800Y-90982800D03*
X145862800Y-90032800D03*
X145862800Y-91932800D03*
D17*
X151333200Y-102412800D03*
D18*
X131013200Y-102412800D03*
D19*
X140411200Y-100550800D03*
X140411200Y-102750800D03*
X138684000Y-102750800D03*
X138684000Y-100550800D03*
X137464800Y-110777200D03*
X137464800Y-108577200D03*
X135737600Y-108577200D03*
X135737600Y-110777200D03*
X144119600Y-89882800D03*
X144119600Y-92082800D03*
D20*
X144848400Y-85293200D03*
X147048400Y-85293200D03*
D19*
X137160000Y-86174400D03*
X137160000Y-88374400D03*
X138828599Y-86175399D03*
X138828599Y-88375399D03*
D20*
X130218000Y-98907600D03*
X132418000Y-98907600D03*
D19*
X170535600Y-94114800D03*
X170535600Y-91914800D03*
D20*
X171061200Y-99720400D03*
X173261200Y-99720400D03*
D19*
X172110400Y-91914800D03*
X172110400Y-94114800D03*
X173685200Y-94114800D03*
X173685200Y-91914800D03*
D20*
X173261200Y-98145600D03*
X171061200Y-98145600D03*
X171061200Y-96570800D03*
X173261200Y-96570800D03*
D19*
X157835600Y-96232800D03*
X157835600Y-98432800D03*
D21*
X145418800Y-102600800D03*
X145418800Y-100700800D03*
X142718800Y-100700800D03*
X142718800Y-101650800D03*
X142718800Y-102600800D03*
D22*
X137516000Y-91680000D03*
X137516000Y-96280000D03*
X137516000Y-93980000D03*
D23*
X131216000Y-93980000D03*
D24*
X176530000Y-103022400D03*
X177647600Y-92710000D03*
X166217600Y-90119200D03*
X172110400Y-90576400D03*
X166522400Y-92710000D03*
D25*
X135280400Y-96266000D03*
X133705600Y-96266000D03*
X146761200Y-103784400D03*
D24*
X134467600Y-110744000D03*
X168960800Y-100431600D03*
X169672000Y-98145600D03*
X132384800Y-100076000D03*
X177698400Y-103022400D03*
X174904400Y-100228400D03*
X169672000Y-96570800D03*
X174955200Y-90830400D03*
X165354000Y-90830400D03*
X169113200Y-94335600D03*
X156311600Y-90424000D03*
X156311600Y-104190800D03*
X147015200Y-89916000D03*
D25*
X133705600Y-93980000D03*
X135280400Y-93980000D03*
X138836400Y-84582000D03*
X139598400Y-98602800D03*
X135483600Y-102616000D03*
D24*
X175006000Y-95097600D03*
X165709600Y-100685600D03*
D25*
X131876800Y-85648800D03*
D24*
X141732000Y-104546400D03*
X163880800Y-100076000D03*
X156311600Y-92354400D03*
X163830000Y-96215200D03*
X156311600Y-102260400D03*
X166166800Y-97100200D03*
X159766000Y-114300000D03*
X147066000Y-101904800D03*
X137464800Y-107188000D03*
X173329600Y-89712800D03*
X135737600Y-107188000D03*
X172770800Y-89103200D03*
X173532800Y-95453200D03*
X161137600Y-84531200D03*
X160883601Y-99415601D03*
X166370000Y-99568000D03*
X171837124Y-89975192D03*
X172161200Y-99720400D03*
D26*
X176530000Y-101818400D02*
X176545200Y-101803200D01*
X176530000Y-103022400D02*
X176530000Y-101818400D01*
X176530000Y-92745600D02*
X177612000Y-92745600D01*
X177612000Y-92745600D02*
X177647600Y-92710000D01*
X172110400Y-91914800D02*
X172110400Y-90576400D01*
X167640000Y-92745600D02*
X166558000Y-92745600D01*
X166558000Y-92745600D02*
X166522400Y-92710000D01*
X144848400Y-86204600D02*
X143423000Y-87630000D01*
X144848400Y-85293200D02*
X144848400Y-86204600D01*
D27*
X143459200Y-96047600D02*
X141884400Y-96047600D01*
X141884400Y-96047600D02*
X140309600Y-96047600D01*
X137748400Y-96047600D02*
X137516000Y-96280000D01*
X140309600Y-96047600D02*
X137748400Y-96047600D01*
X137516000Y-96280000D02*
X135294400Y-96280000D01*
X135294400Y-96280000D02*
X135280400Y-96266000D01*
X145418800Y-104146400D02*
X145018800Y-104546400D01*
X145418800Y-102600800D02*
X145418800Y-104146400D01*
X145418800Y-102600800D02*
X145577600Y-102600800D01*
X145577600Y-102600800D02*
X146761200Y-103784400D01*
D26*
X137464800Y-110777200D02*
X135737600Y-110777200D01*
X135737600Y-110777200D02*
X134500800Y-110777200D01*
X134500800Y-110777200D02*
X134467600Y-110744000D01*
X168960800Y-100467200D02*
X167624800Y-101803200D01*
X168960800Y-100431600D02*
X168960800Y-100467200D01*
X171061200Y-98145600D02*
X169672000Y-98145600D01*
X132418000Y-98907600D02*
X132418000Y-100042800D01*
X132418000Y-100042800D02*
X132384800Y-100076000D01*
X147048400Y-86255400D02*
X148423000Y-87630000D01*
X147048400Y-85293200D02*
X147048400Y-86255400D01*
X147862800Y-88190200D02*
X148423000Y-87630000D01*
X147862800Y-90982800D02*
X147862800Y-88190200D01*
X178445200Y-101803200D02*
X178445200Y-102275600D01*
X178445200Y-102275600D02*
X177698400Y-103022400D01*
X171061200Y-96570800D02*
X169672000Y-96570800D01*
X173685200Y-91914800D02*
X173870800Y-91914800D01*
X173870800Y-91914800D02*
X174955200Y-90830400D01*
X176514800Y-90830400D02*
X176530000Y-90845600D01*
X174955200Y-90830400D02*
X176514800Y-90830400D01*
X167640000Y-90845600D02*
X165369200Y-90845600D01*
X165369200Y-90845600D02*
X165354000Y-90830400D01*
X157835600Y-90439200D02*
X156326800Y-90439200D01*
X156326800Y-90439200D02*
X156311600Y-90424000D01*
X157835600Y-104175600D02*
X156326800Y-104175600D01*
X156326800Y-104175600D02*
X156311600Y-104190800D01*
X145862800Y-90032800D02*
X146898400Y-90032800D01*
X146898400Y-90032800D02*
X147015200Y-89916000D01*
D27*
X140142000Y-93980000D02*
X140309600Y-94147600D01*
X137516000Y-93980000D02*
X140142000Y-93980000D01*
X140309600Y-94147600D02*
X141884400Y-94147600D01*
X143459200Y-94147600D02*
X141884400Y-94147600D01*
X133299200Y-93980000D02*
X133705600Y-93980000D01*
X133299200Y-93980000D02*
X134416800Y-93980000D01*
X131216000Y-93980000D02*
X133299200Y-93980000D01*
X135280400Y-93980000D02*
X137516000Y-93980000D01*
X134416800Y-93980000D02*
X135280400Y-93980000D01*
D28*
X138828599Y-86175399D02*
X138828599Y-84589801D01*
X138828599Y-84589801D02*
X138836400Y-84582000D01*
X133416000Y-85648800D02*
X133416000Y-87274400D01*
X133416000Y-88950800D02*
X133416000Y-87274400D01*
D27*
X141511200Y-101650800D02*
X140411200Y-100550800D01*
X142718800Y-101650800D02*
X141511200Y-101650800D01*
X140411200Y-100550800D02*
X140411200Y-99415600D01*
X140411200Y-99415600D02*
X139598400Y-98602800D01*
X136956800Y-102600800D02*
X135498800Y-102600800D01*
X135498800Y-102600800D02*
X135483600Y-102616000D01*
D26*
X165724800Y-101803200D02*
X165724800Y-100700800D01*
X165724800Y-100700800D02*
X165709600Y-100685600D01*
D28*
X133416000Y-85648800D02*
X131876800Y-85648800D01*
D26*
X143118800Y-104546400D02*
X141732000Y-104546400D01*
D27*
X138534000Y-100700800D02*
X138684000Y-100550800D01*
X136956800Y-100700800D02*
X138534000Y-100700800D01*
D26*
X135498800Y-100700800D02*
X135483600Y-100685600D01*
X136956800Y-100700800D02*
X135498800Y-100700800D01*
X163525200Y-100431600D02*
X163880800Y-100076000D01*
X135498800Y-100700800D02*
X134061200Y-102138400D01*
X134061200Y-104952800D02*
X135077200Y-105968800D01*
X135077200Y-105968800D02*
X161747200Y-105968800D01*
X134061200Y-102138400D02*
X134061200Y-104952800D01*
X161747200Y-105968800D02*
X163525200Y-104190800D01*
X163525200Y-104190800D02*
X163525200Y-100431600D01*
X157835600Y-92339200D02*
X156326800Y-92339200D01*
X156326800Y-92339200D02*
X156311600Y-92354400D01*
X157835600Y-93878400D02*
X156311600Y-92354400D01*
X157835600Y-96232800D02*
X157835600Y-93878400D01*
X157835600Y-96232800D02*
X163812400Y-96232800D01*
X163812400Y-96232800D02*
X163830000Y-96215200D01*
X157835600Y-102275600D02*
X156326800Y-102275600D01*
X156326800Y-102275600D02*
X156311600Y-102260400D01*
X157835600Y-100736400D02*
X156311600Y-102260400D01*
X157835600Y-98432800D02*
X157835600Y-100736400D01*
X157835600Y-98432800D02*
X164834200Y-98432800D01*
X164834200Y-98432800D02*
X166166800Y-97100200D01*
D28*
X135316000Y-88950800D02*
X135316000Y-87274400D01*
X135316000Y-87274400D02*
X135316000Y-85648800D01*
X135316000Y-85648800D02*
X135316000Y-85014400D01*
X137025200Y-86174400D02*
X135590600Y-84739800D01*
X137160000Y-86174400D02*
X137025200Y-86174400D01*
X135316000Y-85014400D02*
X135590600Y-84739800D01*
X135590600Y-84739800D02*
X136866000Y-83464400D01*
X137516000Y-91150800D02*
X135316000Y-88950800D01*
X137516000Y-91680000D02*
X137516000Y-91150800D01*
X142881201Y-100538399D02*
X142718800Y-100538399D01*
X143831201Y-99588399D02*
X142881201Y-100538399D01*
X151333200Y-102412800D02*
X148508799Y-99588399D01*
X148508799Y-99588399D02*
X143831201Y-99588399D01*
X127609600Y-83464400D02*
X126796800Y-84277200D01*
X131866000Y-83464400D02*
X127609600Y-83464400D01*
D26*
X129313200Y-98907600D02*
X128246400Y-97840800D01*
X130218000Y-98907600D02*
X129313200Y-98907600D01*
X128246400Y-97840800D02*
X125831600Y-97840800D01*
X125831600Y-97840800D02*
X125323600Y-98348800D01*
X125323600Y-100584000D02*
X126796800Y-102057200D01*
X125323600Y-98348800D02*
X125323600Y-100584000D01*
X125946801Y-102907199D02*
X126796800Y-102057200D01*
X125641999Y-103212001D02*
X125946801Y-102907199D01*
X125641999Y-110231505D02*
X125641999Y-103212001D01*
X129710494Y-114300000D02*
X125641999Y-110231505D01*
X159766000Y-114300000D02*
X129710494Y-114300000D01*
D28*
X128117600Y-99517200D02*
X131013200Y-102412800D01*
X126796800Y-99517200D02*
X128117600Y-99517200D01*
D29*
X146622800Y-101904800D02*
X145418800Y-100700800D01*
X147066000Y-101904800D02*
X146622800Y-101904800D01*
D28*
X126796800Y-91897200D02*
X126796800Y-86817200D01*
D26*
X144269600Y-91932800D02*
X144119600Y-92082800D01*
X145862800Y-91932800D02*
X144269600Y-91932800D01*
D27*
X142568800Y-102750800D02*
X142718800Y-102600800D01*
X140411200Y-102750800D02*
X142568800Y-102750800D01*
X140411200Y-102750800D02*
X138684000Y-102750800D01*
D26*
X137464800Y-107188000D02*
X137464800Y-108577200D01*
D30*
X137464800Y-107188000D02*
X173431200Y-107188000D01*
X173431200Y-107188000D02*
X174091600Y-106527600D01*
X178130201Y-91059319D02*
X176783682Y-89712800D01*
X178130201Y-92941649D02*
X178130201Y-91059319D01*
X174421799Y-96650051D02*
X178130201Y-92941649D01*
X174091600Y-106527600D02*
X174421799Y-106197401D01*
X174421799Y-106197401D02*
X174421799Y-96650051D01*
X176783682Y-89712800D02*
X173329600Y-89712800D01*
D26*
X135737600Y-107188000D02*
X135737600Y-108577200D01*
D30*
X135813801Y-109405801D02*
X138193399Y-109405801D01*
X135737600Y-108577200D02*
X135737600Y-109329600D01*
X135737600Y-109329600D02*
X135813801Y-109405801D01*
X138193399Y-109405801D02*
X140106390Y-107492810D01*
X173557457Y-107492809D02*
X174726609Y-106323657D01*
X140106390Y-107492810D02*
X173557457Y-107492809D01*
X176605148Y-89103200D02*
X172770800Y-89103200D01*
X178435010Y-90933062D02*
X176605148Y-89103200D01*
X178435010Y-97412040D02*
X178435010Y-90933062D01*
X174726609Y-106323657D02*
X174726609Y-101120441D01*
X174726609Y-101120441D02*
X178435010Y-97412040D01*
D26*
X165912800Y-95453200D02*
X173532800Y-95453200D01*
X165709600Y-95453200D02*
X165912800Y-95453200D01*
X144119600Y-90178640D02*
X144923760Y-90982800D01*
X144923760Y-90982800D02*
X146311442Y-90982800D01*
X146311442Y-90982800D02*
X152466243Y-97137601D01*
X144119600Y-89882800D02*
X144119600Y-90178640D01*
X152466243Y-97137601D02*
X164025199Y-97137601D01*
X164025199Y-97137601D02*
X165709600Y-95453200D01*
D28*
X138827600Y-88374400D02*
X138828599Y-88375399D01*
X137160000Y-88374400D02*
X138827600Y-88374400D01*
D26*
X143427598Y-84531200D02*
X161137600Y-84531200D01*
X138828599Y-88375399D02*
X139583399Y-88375399D01*
X139583399Y-88375399D02*
X143427598Y-84531200D01*
X160883601Y-99415601D02*
X166217601Y-99415601D01*
X166217601Y-99415601D02*
X166370000Y-99568000D01*
X170535600Y-94114800D02*
X172110400Y-94114800D01*
X172110400Y-94114800D02*
X173685200Y-94114800D01*
D30*
X170535600Y-91276716D02*
X170535600Y-91914800D01*
X171837124Y-89975192D02*
X170535600Y-91276716D01*
D26*
X171061200Y-99720400D02*
X172161200Y-99720400D01*
X173261200Y-99720400D02*
X173261200Y-98145600D01*
X173261200Y-98145600D02*
X173261200Y-96570800D01*
M02*
