G04 #@! TF.GenerationSoftware,KiCad,Pcbnew,(5.1.4)-1*
G04 #@! TF.CreationDate,2019-12-04T08:55:51-06:00*
G04 #@! TF.ProjectId,motor_control,6d6f746f-725f-4636-9f6e-74726f6c2e6b,rev?*
G04 #@! TF.SameCoordinates,Original*
G04 #@! TF.FileFunction,Legend,Top*
G04 #@! TF.FilePolarity,Positive*
%FSLAX46Y46*%
G04 Gerber Fmt 4.6, Leading zero omitted, Abs format (unit mm)*
G04 Created by KiCad (PCBNEW (5.1.4)-1) date 2019-12-04 08:55:51*
%MOMM*%
%LPD*%
G04 APERTURE LIST*
%ADD10C,0.254000*%
%ADD11C,0.150000*%
%ADD12C,0.120000*%
G04 APERTURE END LIST*
D10*
X165130238Y-79517723D02*
X165130238Y-78247723D01*
X165674523Y-79457247D02*
X165855952Y-79517723D01*
X166158333Y-79517723D01*
X166279285Y-79457247D01*
X166339761Y-79396771D01*
X166400238Y-79275819D01*
X166400238Y-79154866D01*
X166339761Y-79033914D01*
X166279285Y-78973438D01*
X166158333Y-78912961D01*
X165916428Y-78852485D01*
X165795476Y-78792009D01*
X165735000Y-78731533D01*
X165674523Y-78610580D01*
X165674523Y-78489628D01*
X165735000Y-78368676D01*
X165795476Y-78308200D01*
X165916428Y-78247723D01*
X166218809Y-78247723D01*
X166400238Y-78308200D01*
X166944523Y-79517723D02*
X166944523Y-78247723D01*
X167428333Y-78247723D01*
X167549285Y-78308200D01*
X167609761Y-78368676D01*
X167670238Y-78489628D01*
X167670238Y-78671057D01*
X167609761Y-78792009D01*
X167549285Y-78852485D01*
X167428333Y-78912961D01*
X166944523Y-78912961D01*
D11*
X141051542Y-110450380D02*
X141622971Y-110450380D01*
X141337257Y-111450380D02*
X141337257Y-110450380D01*
X142099161Y-111450380D02*
X142003923Y-111402761D01*
X141956304Y-111355142D01*
X141908685Y-111259904D01*
X141908685Y-110974190D01*
X141956304Y-110878952D01*
X142003923Y-110831333D01*
X142099161Y-110783714D01*
X142242019Y-110783714D01*
X142337257Y-110831333D01*
X142384876Y-110878952D01*
X142432495Y-110974190D01*
X142432495Y-111259904D01*
X142384876Y-111355142D01*
X142337257Y-111402761D01*
X142242019Y-111450380D01*
X142099161Y-111450380D01*
X142861066Y-110783714D02*
X142861066Y-111450380D01*
X142861066Y-110878952D02*
X142908685Y-110831333D01*
X143003923Y-110783714D01*
X143146780Y-110783714D01*
X143242019Y-110831333D01*
X143289638Y-110926571D01*
X143289638Y-111450380D01*
X144146780Y-111402761D02*
X144051542Y-111450380D01*
X143861066Y-111450380D01*
X143765828Y-111402761D01*
X143718209Y-111307523D01*
X143718209Y-110926571D01*
X143765828Y-110831333D01*
X143861066Y-110783714D01*
X144051542Y-110783714D01*
X144146780Y-110831333D01*
X144194400Y-110926571D01*
X144194400Y-111021809D01*
X143718209Y-111117047D01*
X145337257Y-111402761D02*
X145480114Y-111450380D01*
X145718209Y-111450380D01*
X145813447Y-111402761D01*
X145861066Y-111355142D01*
X145908685Y-111259904D01*
X145908685Y-111164666D01*
X145861066Y-111069428D01*
X145813447Y-111021809D01*
X145718209Y-110974190D01*
X145527733Y-110926571D01*
X145432495Y-110878952D01*
X145384876Y-110831333D01*
X145337257Y-110736095D01*
X145337257Y-110640857D01*
X145384876Y-110545619D01*
X145432495Y-110498000D01*
X145527733Y-110450380D01*
X145765828Y-110450380D01*
X145908685Y-110498000D01*
X146242019Y-110783714D02*
X146480114Y-111450380D01*
X146718209Y-110783714D02*
X146480114Y-111450380D01*
X146384876Y-111688476D01*
X146337257Y-111736095D01*
X146242019Y-111783714D01*
X147051542Y-111402761D02*
X147146780Y-111450380D01*
X147337257Y-111450380D01*
X147432495Y-111402761D01*
X147480114Y-111307523D01*
X147480114Y-111259904D01*
X147432495Y-111164666D01*
X147337257Y-111117047D01*
X147194400Y-111117047D01*
X147099161Y-111069428D01*
X147051542Y-110974190D01*
X147051542Y-110926571D01*
X147099161Y-110831333D01*
X147194400Y-110783714D01*
X147337257Y-110783714D01*
X147432495Y-110831333D01*
X147765828Y-110783714D02*
X148146780Y-110783714D01*
X147908685Y-110450380D02*
X147908685Y-111307523D01*
X147956304Y-111402761D01*
X148051542Y-111450380D01*
X148146780Y-111450380D01*
X148861066Y-111402761D02*
X148765828Y-111450380D01*
X148575352Y-111450380D01*
X148480114Y-111402761D01*
X148432495Y-111307523D01*
X148432495Y-110926571D01*
X148480114Y-110831333D01*
X148575352Y-110783714D01*
X148765828Y-110783714D01*
X148861066Y-110831333D01*
X148908685Y-110926571D01*
X148908685Y-111021809D01*
X148432495Y-111117047D01*
X149337257Y-111450380D02*
X149337257Y-110783714D01*
X149337257Y-110878952D02*
X149384876Y-110831333D01*
X149480114Y-110783714D01*
X149622971Y-110783714D01*
X149718209Y-110831333D01*
X149765828Y-110926571D01*
X149765828Y-111450380D01*
X149765828Y-110926571D02*
X149813447Y-110831333D01*
X149908685Y-110783714D01*
X150051542Y-110783714D01*
X150146780Y-110831333D01*
X150194400Y-110926571D01*
X150194400Y-111450380D01*
X141065809Y-108910380D02*
X141065809Y-107910380D01*
X141399142Y-108624666D01*
X141732476Y-107910380D01*
X141732476Y-108910380D01*
X142351523Y-108910380D02*
X142256285Y-108862761D01*
X142208666Y-108815142D01*
X142161047Y-108719904D01*
X142161047Y-108434190D01*
X142208666Y-108338952D01*
X142256285Y-108291333D01*
X142351523Y-108243714D01*
X142494380Y-108243714D01*
X142589619Y-108291333D01*
X142637238Y-108338952D01*
X142684857Y-108434190D01*
X142684857Y-108719904D01*
X142637238Y-108815142D01*
X142589619Y-108862761D01*
X142494380Y-108910380D01*
X142351523Y-108910380D01*
X142970571Y-108243714D02*
X143351523Y-108243714D01*
X143113428Y-107910380D02*
X143113428Y-108767523D01*
X143161047Y-108862761D01*
X143256285Y-108910380D01*
X143351523Y-108910380D01*
X143827714Y-108910380D02*
X143732476Y-108862761D01*
X143684857Y-108815142D01*
X143637238Y-108719904D01*
X143637238Y-108434190D01*
X143684857Y-108338952D01*
X143732476Y-108291333D01*
X143827714Y-108243714D01*
X143970571Y-108243714D01*
X144065809Y-108291333D01*
X144113428Y-108338952D01*
X144161047Y-108434190D01*
X144161047Y-108719904D01*
X144113428Y-108815142D01*
X144065809Y-108862761D01*
X143970571Y-108910380D01*
X143827714Y-108910380D01*
X144589619Y-108910380D02*
X144589619Y-108243714D01*
X144589619Y-108434190D02*
X144637238Y-108338952D01*
X144684857Y-108291333D01*
X144780095Y-108243714D01*
X144875333Y-108243714D01*
X146542000Y-108815142D02*
X146494380Y-108862761D01*
X146351523Y-108910380D01*
X146256285Y-108910380D01*
X146113428Y-108862761D01*
X146018190Y-108767523D01*
X145970571Y-108672285D01*
X145922952Y-108481809D01*
X145922952Y-108338952D01*
X145970571Y-108148476D01*
X146018190Y-108053238D01*
X146113428Y-107958000D01*
X146256285Y-107910380D01*
X146351523Y-107910380D01*
X146494380Y-107958000D01*
X146542000Y-108005619D01*
X147399142Y-108243714D02*
X147399142Y-108910380D01*
X146970571Y-108243714D02*
X146970571Y-108767523D01*
X147018190Y-108862761D01*
X147113428Y-108910380D01*
X147256285Y-108910380D01*
X147351523Y-108862761D01*
X147399142Y-108815142D01*
X147732476Y-108243714D02*
X148113428Y-108243714D01*
X147875333Y-107910380D02*
X147875333Y-108767523D01*
X147922952Y-108862761D01*
X148018190Y-108910380D01*
X148113428Y-108910380D01*
X148589619Y-108910380D02*
X148494380Y-108862761D01*
X148446761Y-108815142D01*
X148399142Y-108719904D01*
X148399142Y-108434190D01*
X148446761Y-108338952D01*
X148494380Y-108291333D01*
X148589619Y-108243714D01*
X148732476Y-108243714D01*
X148827714Y-108291333D01*
X148875333Y-108338952D01*
X148922952Y-108434190D01*
X148922952Y-108719904D01*
X148875333Y-108815142D01*
X148827714Y-108862761D01*
X148732476Y-108910380D01*
X148589619Y-108910380D01*
X149208666Y-108243714D02*
X149589619Y-108243714D01*
X149351523Y-108910380D02*
X149351523Y-108053238D01*
X149399142Y-107958000D01*
X149494380Y-107910380D01*
X149589619Y-107910380D01*
X149780095Y-108243714D02*
X150161047Y-108243714D01*
X149922952Y-108910380D02*
X149922952Y-108053238D01*
X149970571Y-107958000D01*
X150065809Y-107910380D01*
X150161047Y-107910380D01*
X131983219Y-113324000D02*
X132983219Y-113324000D01*
X132983219Y-113562095D01*
X132935600Y-113704952D01*
X132840361Y-113800190D01*
X132745123Y-113847809D01*
X132554647Y-113895428D01*
X132411790Y-113895428D01*
X132221314Y-113847809D01*
X132126076Y-113800190D01*
X132030838Y-113704952D01*
X131983219Y-113562095D01*
X131983219Y-113324000D01*
X131983219Y-114324000D02*
X132649885Y-114324000D01*
X132983219Y-114324000D02*
X132935600Y-114276380D01*
X132887980Y-114324000D01*
X132935600Y-114371619D01*
X132983219Y-114324000D01*
X132887980Y-114324000D01*
X132030838Y-114752571D02*
X131983219Y-114847809D01*
X131983219Y-115038285D01*
X132030838Y-115133523D01*
X132126076Y-115181142D01*
X132173695Y-115181142D01*
X132268933Y-115133523D01*
X132316552Y-115038285D01*
X132316552Y-114895428D01*
X132364171Y-114800190D01*
X132459409Y-114752571D01*
X132507028Y-114752571D01*
X132602266Y-114800190D01*
X132649885Y-114895428D01*
X132649885Y-115038285D01*
X132602266Y-115133523D01*
X131983219Y-116038285D02*
X132507028Y-116038285D01*
X132602266Y-115990666D01*
X132649885Y-115895428D01*
X132649885Y-115704952D01*
X132602266Y-115609714D01*
X132030838Y-116038285D02*
X131983219Y-115943047D01*
X131983219Y-115704952D01*
X132030838Y-115609714D01*
X132126076Y-115562095D01*
X132221314Y-115562095D01*
X132316552Y-115609714D01*
X132364171Y-115704952D01*
X132364171Y-115943047D01*
X132411790Y-116038285D01*
X131983219Y-116514476D02*
X132983219Y-116514476D01*
X132602266Y-116514476D02*
X132649885Y-116609714D01*
X132649885Y-116800190D01*
X132602266Y-116895428D01*
X132554647Y-116943047D01*
X132459409Y-116990666D01*
X132173695Y-116990666D01*
X132078457Y-116943047D01*
X132030838Y-116895428D01*
X131983219Y-116800190D01*
X131983219Y-116609714D01*
X132030838Y-116514476D01*
X131983219Y-117562095D02*
X132030838Y-117466857D01*
X132126076Y-117419238D01*
X132983219Y-117419238D01*
X132030838Y-118324000D02*
X131983219Y-118228761D01*
X131983219Y-118038285D01*
X132030838Y-117943047D01*
X132126076Y-117895428D01*
X132507028Y-117895428D01*
X132602266Y-117943047D01*
X132649885Y-118038285D01*
X132649885Y-118228761D01*
X132602266Y-118324000D01*
X132507028Y-118371619D01*
X132411790Y-118371619D01*
X132316552Y-117895428D01*
X137688628Y-113308095D02*
X137688628Y-113641428D01*
X137164819Y-113784285D02*
X137164819Y-113308095D01*
X138164819Y-113308095D01*
X138164819Y-113784285D01*
X137831485Y-114212857D02*
X137164819Y-114212857D01*
X137736247Y-114212857D02*
X137783866Y-114260476D01*
X137831485Y-114355714D01*
X137831485Y-114498571D01*
X137783866Y-114593809D01*
X137688628Y-114641428D01*
X137164819Y-114641428D01*
X137164819Y-115546190D02*
X137688628Y-115546190D01*
X137783866Y-115498571D01*
X137831485Y-115403333D01*
X137831485Y-115212857D01*
X137783866Y-115117619D01*
X137212438Y-115546190D02*
X137164819Y-115450952D01*
X137164819Y-115212857D01*
X137212438Y-115117619D01*
X137307676Y-115070000D01*
X137402914Y-115070000D01*
X137498152Y-115117619D01*
X137545771Y-115212857D01*
X137545771Y-115450952D01*
X137593390Y-115546190D01*
X137164819Y-116022380D02*
X138164819Y-116022380D01*
X137783866Y-116022380D02*
X137831485Y-116117619D01*
X137831485Y-116308095D01*
X137783866Y-116403333D01*
X137736247Y-116450952D01*
X137641009Y-116498571D01*
X137355295Y-116498571D01*
X137260057Y-116450952D01*
X137212438Y-116403333D01*
X137164819Y-116308095D01*
X137164819Y-116117619D01*
X137212438Y-116022380D01*
X137164819Y-117070000D02*
X137212438Y-116974761D01*
X137307676Y-116927142D01*
X138164819Y-116927142D01*
X137212438Y-117831904D02*
X137164819Y-117736666D01*
X137164819Y-117546190D01*
X137212438Y-117450952D01*
X137307676Y-117403333D01*
X137688628Y-117403333D01*
X137783866Y-117450952D01*
X137831485Y-117546190D01*
X137831485Y-117736666D01*
X137783866Y-117831904D01*
X137688628Y-117879523D01*
X137593390Y-117879523D01*
X137498152Y-117403333D01*
X152023000Y-87630000D02*
G75*
G03X152023000Y-87630000I-6100000J0D01*
G01*
D12*
X164787601Y-88095599D02*
X164787601Y-87395599D01*
X165987601Y-87395599D02*
X165987601Y-88095599D01*
D11*
X138866000Y-83464400D02*
X138866000Y-97964400D01*
X138866000Y-97964400D02*
X129866000Y-97964400D01*
X129866000Y-97964400D02*
X129866000Y-83464400D01*
X129866000Y-83464400D02*
X130866000Y-83464400D01*
X138866000Y-83464400D02*
X137866000Y-83464400D01*
D12*
X125466800Y-98187200D02*
X126796800Y-98187200D01*
X125466800Y-99517200D02*
X125466800Y-98187200D01*
X125466800Y-100787200D02*
X128126800Y-100787200D01*
X128126800Y-100787200D02*
X128126800Y-111007200D01*
X125466800Y-100787200D02*
X125466800Y-111007200D01*
X125466800Y-111007200D02*
X128126800Y-111007200D01*
X163770000Y-85023000D02*
X163770000Y-83693000D01*
X165100000Y-85023000D02*
X163770000Y-85023000D01*
X166370000Y-85023000D02*
X166370000Y-82363000D01*
X166370000Y-82363000D02*
X168970000Y-82363000D01*
X166370000Y-85023000D02*
X168970000Y-85023000D01*
X168970000Y-85023000D02*
X168970000Y-82363000D01*
X161230000Y-77276000D02*
X161230000Y-75946000D01*
X162560000Y-77276000D02*
X161230000Y-77276000D01*
X163830000Y-77276000D02*
X163830000Y-74616000D01*
X163830000Y-74616000D02*
X171510000Y-74616000D01*
X163830000Y-77276000D02*
X171510000Y-77276000D01*
X171510000Y-77276000D02*
X171510000Y-74616000D01*
X179264000Y-108010000D02*
X181924000Y-108010000D01*
X179264000Y-100330000D02*
X179264000Y-108010000D01*
X181924000Y-100330000D02*
X181924000Y-108010000D01*
X179264000Y-100330000D02*
X181924000Y-100330000D01*
X179264000Y-99060000D02*
X179264000Y-97730000D01*
X179264000Y-97730000D02*
X180594000Y-97730000D01*
X161230000Y-118424000D02*
X161230000Y-117094000D01*
X162560000Y-118424000D02*
X161230000Y-118424000D01*
X163830000Y-118424000D02*
X163830000Y-115764000D01*
X163830000Y-115764000D02*
X171510000Y-115764000D01*
X163830000Y-118424000D02*
X171510000Y-118424000D01*
X171510000Y-118424000D02*
X171510000Y-115764000D01*
X179264000Y-95310000D02*
X181924000Y-95310000D01*
X179264000Y-87630000D02*
X179264000Y-95310000D01*
X181924000Y-87630000D02*
X181924000Y-95310000D01*
X179264000Y-87630000D02*
X181924000Y-87630000D01*
X179264000Y-86360000D02*
X179264000Y-85030000D01*
X179264000Y-85030000D02*
X180594000Y-85030000D01*
X125466800Y-95767200D02*
X128126800Y-95767200D01*
X125466800Y-93167200D02*
X125466800Y-95767200D01*
X128126800Y-93167200D02*
X128126800Y-95767200D01*
X125466800Y-93167200D02*
X128126800Y-93167200D01*
X125466800Y-91897200D02*
X125466800Y-90567200D01*
X125466800Y-90567200D02*
X126796800Y-90567200D01*
X125466800Y-82947200D02*
X126796800Y-82947200D01*
X125466800Y-84277200D02*
X125466800Y-82947200D01*
X125466800Y-85547200D02*
X128126800Y-85547200D01*
X128126800Y-85547200D02*
X128126800Y-88147200D01*
X125466800Y-85547200D02*
X125466800Y-88147200D01*
X125466800Y-88147200D02*
X128126800Y-88147200D01*
X149753200Y-102412800D02*
X148383200Y-102412800D01*
X132593200Y-102412800D02*
X133963200Y-102412800D01*
X148383200Y-99502800D02*
X133963200Y-99502800D01*
X148383200Y-105322800D02*
X148383200Y-99502800D01*
X133963200Y-105322800D02*
X148383200Y-105322800D01*
X133963200Y-99502800D02*
X133963200Y-105322800D01*
X167608800Y-87257000D02*
X167608800Y-88257000D01*
X166248800Y-88257000D02*
X166248800Y-87257000D01*
D11*
X138277200Y-106528000D02*
X138277200Y-112928000D01*
X138277200Y-112928000D02*
X131877200Y-112928000D01*
X131877200Y-112928000D02*
X131877200Y-106528000D01*
X131877200Y-106528000D02*
X138277200Y-106528000D01*
X168460000Y-94157800D02*
X167085000Y-94157800D01*
X175710000Y-93707800D02*
X175185000Y-93707800D01*
X175710000Y-100957800D02*
X175185000Y-100957800D01*
X168460000Y-100957800D02*
X168985000Y-100957800D01*
X168460000Y-93707800D02*
X168985000Y-93707800D01*
X168460000Y-100957800D02*
X168460000Y-100432800D01*
X175710000Y-100957800D02*
X175710000Y-100432800D01*
X175710000Y-93707800D02*
X175710000Y-94232800D01*
X168460000Y-93707800D02*
X168460000Y-94157800D01*
D12*
X155311000Y-87257800D02*
X155311000Y-103232800D01*
X160411000Y-87257800D02*
X155311000Y-87257800D01*
X160411000Y-103232800D02*
X160411000Y-87257800D01*
D11*
X151412047Y-82088571D02*
X151554904Y-82136190D01*
X151602523Y-82183809D01*
X151650142Y-82279047D01*
X151650142Y-82421904D01*
X151602523Y-82517142D01*
X151554904Y-82564761D01*
X151459666Y-82612380D01*
X151078714Y-82612380D01*
X151078714Y-81612380D01*
X151412047Y-81612380D01*
X151507285Y-81660000D01*
X151554904Y-81707619D01*
X151602523Y-81802857D01*
X151602523Y-81898095D01*
X151554904Y-81993333D01*
X151507285Y-82040952D01*
X151412047Y-82088571D01*
X151078714Y-82088571D01*
X151983476Y-81612380D02*
X152650142Y-81612380D01*
X151983476Y-82612380D01*
X152650142Y-82612380D01*
X153554904Y-82612380D02*
X152983476Y-82612380D01*
X153269190Y-82612380D02*
X153269190Y-81612380D01*
X153173952Y-81755238D01*
X153078714Y-81850476D01*
X152983476Y-81898095D01*
X164494743Y-87912265D02*
X164542362Y-87959884D01*
X164589981Y-88102741D01*
X164589981Y-88197979D01*
X164542362Y-88340837D01*
X164447124Y-88436075D01*
X164351886Y-88483694D01*
X164161410Y-88531313D01*
X164018553Y-88531313D01*
X163828077Y-88483694D01*
X163732839Y-88436075D01*
X163637601Y-88340837D01*
X163589981Y-88197979D01*
X163589981Y-88102741D01*
X163637601Y-87959884D01*
X163685220Y-87912265D01*
X163589981Y-87578932D02*
X163589981Y-86959884D01*
X163970934Y-87293218D01*
X163970934Y-87150360D01*
X164018553Y-87055122D01*
X164066172Y-87007503D01*
X164161410Y-86959884D01*
X164399505Y-86959884D01*
X164494743Y-87007503D01*
X164542362Y-87055122D01*
X164589981Y-87150360D01*
X164589981Y-87436075D01*
X164542362Y-87531313D01*
X164494743Y-87578932D01*
X134032666Y-81892971D02*
X133699333Y-81892971D01*
X133699333Y-82416780D02*
X133699333Y-81416780D01*
X134175523Y-81416780D01*
X135080285Y-82416780D02*
X134508857Y-82416780D01*
X134794571Y-82416780D02*
X134794571Y-81416780D01*
X134699333Y-81559638D01*
X134604095Y-81654876D01*
X134508857Y-81702495D01*
X126463466Y-96639580D02*
X126463466Y-97353866D01*
X126415847Y-97496723D01*
X126320609Y-97591961D01*
X126177752Y-97639580D01*
X126082514Y-97639580D01*
X127463466Y-97639580D02*
X126892038Y-97639580D01*
X127177752Y-97639580D02*
X127177752Y-96639580D01*
X127082514Y-96782438D01*
X126987276Y-96877676D01*
X126892038Y-96925295D01*
X162222380Y-84026333D02*
X162936666Y-84026333D01*
X163079523Y-84073952D01*
X163174761Y-84169190D01*
X163222380Y-84312047D01*
X163222380Y-84407285D01*
X162317619Y-83597761D02*
X162270000Y-83550142D01*
X162222380Y-83454904D01*
X162222380Y-83216809D01*
X162270000Y-83121571D01*
X162317619Y-83073952D01*
X162412857Y-83026333D01*
X162508095Y-83026333D01*
X162650952Y-83073952D01*
X163222380Y-83645380D01*
X163222380Y-83026333D01*
X159682380Y-76279333D02*
X160396666Y-76279333D01*
X160539523Y-76326952D01*
X160634761Y-76422190D01*
X160682380Y-76565047D01*
X160682380Y-76660285D01*
X159682380Y-75898380D02*
X159682380Y-75279333D01*
X160063333Y-75612666D01*
X160063333Y-75469809D01*
X160110952Y-75374571D01*
X160158571Y-75326952D01*
X160253809Y-75279333D01*
X160491904Y-75279333D01*
X160587142Y-75326952D01*
X160634761Y-75374571D01*
X160682380Y-75469809D01*
X160682380Y-75755523D01*
X160634761Y-75850761D01*
X160587142Y-75898380D01*
X180260666Y-96182380D02*
X180260666Y-96896666D01*
X180213047Y-97039523D01*
X180117809Y-97134761D01*
X179974952Y-97182380D01*
X179879714Y-97182380D01*
X181165428Y-96515714D02*
X181165428Y-97182380D01*
X180927333Y-96134761D02*
X180689238Y-96849047D01*
X181308285Y-96849047D01*
X159682380Y-117427333D02*
X160396666Y-117427333D01*
X160539523Y-117474952D01*
X160634761Y-117570190D01*
X160682380Y-117713047D01*
X160682380Y-117808285D01*
X159682380Y-116474952D02*
X159682380Y-116951142D01*
X160158571Y-116998761D01*
X160110952Y-116951142D01*
X160063333Y-116855904D01*
X160063333Y-116617809D01*
X160110952Y-116522571D01*
X160158571Y-116474952D01*
X160253809Y-116427333D01*
X160491904Y-116427333D01*
X160587142Y-116474952D01*
X160634761Y-116522571D01*
X160682380Y-116617809D01*
X160682380Y-116855904D01*
X160634761Y-116951142D01*
X160587142Y-116998761D01*
X180260666Y-83424780D02*
X180260666Y-84139066D01*
X180213047Y-84281923D01*
X180117809Y-84377161D01*
X179974952Y-84424780D01*
X179879714Y-84424780D01*
X181165428Y-83424780D02*
X180974952Y-83424780D01*
X180879714Y-83472400D01*
X180832095Y-83520019D01*
X180736857Y-83662876D01*
X180689238Y-83853352D01*
X180689238Y-84234304D01*
X180736857Y-84329542D01*
X180784476Y-84377161D01*
X180879714Y-84424780D01*
X181070190Y-84424780D01*
X181165428Y-84377161D01*
X181213047Y-84329542D01*
X181260666Y-84234304D01*
X181260666Y-83996209D01*
X181213047Y-83900971D01*
X181165428Y-83853352D01*
X181070190Y-83805733D01*
X180879714Y-83805733D01*
X180784476Y-83853352D01*
X180736857Y-83900971D01*
X180689238Y-83996209D01*
X126463466Y-89019580D02*
X126463466Y-89733866D01*
X126415847Y-89876723D01*
X126320609Y-89971961D01*
X126177752Y-90019580D01*
X126082514Y-90019580D01*
X126844419Y-89019580D02*
X127511085Y-89019580D01*
X127082514Y-90019580D01*
X126463466Y-81291180D02*
X126463466Y-82005466D01*
X126415847Y-82148323D01*
X126320609Y-82243561D01*
X126177752Y-82291180D01*
X126082514Y-82291180D01*
X127082514Y-81719752D02*
X126987276Y-81672133D01*
X126939657Y-81624514D01*
X126892038Y-81529276D01*
X126892038Y-81481657D01*
X126939657Y-81386419D01*
X126987276Y-81338800D01*
X127082514Y-81291180D01*
X127272990Y-81291180D01*
X127368228Y-81338800D01*
X127415847Y-81386419D01*
X127463466Y-81481657D01*
X127463466Y-81529276D01*
X127415847Y-81624514D01*
X127368228Y-81672133D01*
X127272990Y-81719752D01*
X127082514Y-81719752D01*
X126987276Y-81767371D01*
X126939657Y-81814990D01*
X126892038Y-81910228D01*
X126892038Y-82100704D01*
X126939657Y-82195942D01*
X126987276Y-82243561D01*
X127082514Y-82291180D01*
X127272990Y-82291180D01*
X127368228Y-82243561D01*
X127415847Y-82195942D01*
X127463466Y-82100704D01*
X127463466Y-81910228D01*
X127415847Y-81814990D01*
X127368228Y-81767371D01*
X127272990Y-81719752D01*
X141006533Y-98955180D02*
X140673200Y-98478990D01*
X140435104Y-98955180D02*
X140435104Y-97955180D01*
X140816057Y-97955180D01*
X140911295Y-98002800D01*
X140958914Y-98050419D01*
X141006533Y-98145657D01*
X141006533Y-98288514D01*
X140958914Y-98383752D01*
X140911295Y-98431371D01*
X140816057Y-98478990D01*
X140435104Y-98478990D01*
X141958914Y-98955180D02*
X141387485Y-98955180D01*
X141673200Y-98955180D02*
X141673200Y-97955180D01*
X141577961Y-98098038D01*
X141482723Y-98193276D01*
X141387485Y-98240895D01*
X168831180Y-88399857D02*
X168354990Y-88733190D01*
X168831180Y-88971285D02*
X167831180Y-88971285D01*
X167831180Y-88590333D01*
X167878800Y-88495095D01*
X167926419Y-88447476D01*
X168021657Y-88399857D01*
X168164514Y-88399857D01*
X168259752Y-88447476D01*
X168307371Y-88495095D01*
X168354990Y-88590333D01*
X168354990Y-88971285D01*
X168831180Y-87447476D02*
X168831180Y-88018904D01*
X168831180Y-87733190D02*
X167831180Y-87733190D01*
X167974038Y-87828428D01*
X168069276Y-87923666D01*
X168116895Y-88018904D01*
X167831180Y-86542714D02*
X167831180Y-87018904D01*
X168307371Y-87066523D01*
X168259752Y-87018904D01*
X168212133Y-86923666D01*
X168212133Y-86685571D01*
X168259752Y-86590333D01*
X168307371Y-86542714D01*
X168402609Y-86495095D01*
X168640704Y-86495095D01*
X168735942Y-86542714D01*
X168783561Y-86590333D01*
X168831180Y-86685571D01*
X168831180Y-86923666D01*
X168783561Y-87018904D01*
X168735942Y-87066523D01*
X133145161Y-111061333D02*
X133192780Y-110918476D01*
X133192780Y-110680380D01*
X133145161Y-110585142D01*
X133097542Y-110537523D01*
X133002304Y-110489904D01*
X132907066Y-110489904D01*
X132811828Y-110537523D01*
X132764209Y-110585142D01*
X132716590Y-110680380D01*
X132668971Y-110870857D01*
X132621352Y-110966095D01*
X132573733Y-111013714D01*
X132478495Y-111061333D01*
X132383257Y-111061333D01*
X132288019Y-111013714D01*
X132240400Y-110966095D01*
X132192780Y-110870857D01*
X132192780Y-110632761D01*
X132240400Y-110489904D01*
X132192780Y-110156571D02*
X133192780Y-109918476D01*
X132478495Y-109728000D01*
X133192780Y-109537523D01*
X132192780Y-109299428D01*
X133192780Y-108394666D02*
X133192780Y-108966095D01*
X133192780Y-108680380D02*
X132192780Y-108680380D01*
X132335638Y-108775619D01*
X132430876Y-108870857D01*
X132478495Y-108966095D01*
X136967980Y-110347047D02*
X136967980Y-110156571D01*
X137015600Y-110061333D01*
X137110838Y-109966095D01*
X137301314Y-109918476D01*
X137634647Y-109918476D01*
X137825123Y-109966095D01*
X137920361Y-110061333D01*
X137967980Y-110156571D01*
X137967980Y-110347047D01*
X137920361Y-110442285D01*
X137825123Y-110537523D01*
X137634647Y-110585142D01*
X137301314Y-110585142D01*
X137110838Y-110537523D01*
X137015600Y-110442285D01*
X136967980Y-110347047D01*
X137967980Y-109489904D02*
X136967980Y-109489904D01*
X137967980Y-108918476D01*
X136967980Y-108918476D01*
X171323095Y-90785180D02*
X171323095Y-91594704D01*
X171370714Y-91689942D01*
X171418333Y-91737561D01*
X171513571Y-91785180D01*
X171704047Y-91785180D01*
X171799285Y-91737561D01*
X171846904Y-91689942D01*
X171894523Y-91594704D01*
X171894523Y-90785180D01*
X172323095Y-90880419D02*
X172370714Y-90832800D01*
X172465952Y-90785180D01*
X172704047Y-90785180D01*
X172799285Y-90832800D01*
X172846904Y-90880419D01*
X172894523Y-90975657D01*
X172894523Y-91070895D01*
X172846904Y-91213752D01*
X172275476Y-91785180D01*
X172894523Y-91785180D01*
X161387190Y-97808990D02*
X161863380Y-97808990D01*
X160863380Y-98142323D02*
X161387190Y-97808990D01*
X160863380Y-97475657D01*
X161863380Y-96618514D02*
X161863380Y-97189942D01*
X161863380Y-96904228D02*
X160863380Y-96904228D01*
X161006238Y-96999466D01*
X161101476Y-97094704D01*
X161149095Y-97189942D01*
M02*
