G04 #@! TF.GenerationSoftware,KiCad,Pcbnew,(5.1.4)-1*
G04 #@! TF.CreationDate,2019-12-04T08:55:51-06:00*
G04 #@! TF.ProjectId,motor_control,6d6f746f-725f-4636-9f6e-74726f6c2e6b,rev?*
G04 #@! TF.SameCoordinates,Original*
G04 #@! TF.FileFunction,Copper,L2,Inr*
G04 #@! TF.FilePolarity,Positive*
%FSLAX46Y46*%
G04 Gerber Fmt 4.6, Leading zero omitted, Abs format (unit mm)*
G04 Created by KiCad (PCBNEW (5.1.4)-1) date 2019-12-04 08:55:51*
%MOMM*%
%LPD*%
G04 APERTURE LIST*
%ADD10C,1.600000*%
%ADD11C,1.500000*%
%ADD12O,1.700000X1.700000*%
%ADD13R,1.700000X1.700000*%
%ADD14O,2.800000X2.800000*%
%ADD15C,2.800000*%
%ADD16C,0.508000*%
%ADD17C,1.016000*%
%ADD18C,0.254000*%
G04 APERTURE END LIST*
D10*
X143423000Y-87630000D03*
X148423000Y-87630000D03*
D11*
X136866000Y-83464400D03*
X131866000Y-83464400D03*
D12*
X126796800Y-109677200D03*
X126796800Y-107137200D03*
X126796800Y-104597200D03*
X126796800Y-102057200D03*
D13*
X126796800Y-99517200D03*
D12*
X167640000Y-83693000D03*
D13*
X165100000Y-83693000D03*
D12*
X170180000Y-75946000D03*
X167640000Y-75946000D03*
X165100000Y-75946000D03*
D13*
X162560000Y-75946000D03*
X180594000Y-99060000D03*
D12*
X180594000Y-101600000D03*
X180594000Y-104140000D03*
X180594000Y-106680000D03*
X170180000Y-117094000D03*
X167640000Y-117094000D03*
X165100000Y-117094000D03*
D13*
X162560000Y-117094000D03*
X180594000Y-86360000D03*
D12*
X180594000Y-88900000D03*
X180594000Y-91440000D03*
X180594000Y-93980000D03*
D13*
X126796800Y-91897200D03*
D12*
X126796800Y-94437200D03*
X126796800Y-86817200D03*
D13*
X126796800Y-84277200D03*
D14*
X151333200Y-102412800D03*
D15*
X131013200Y-102412800D03*
D16*
X176530000Y-103022400D03*
X177647600Y-92710000D03*
X166217600Y-90119200D03*
X172110400Y-90576400D03*
X166522400Y-92710000D03*
D17*
X135280400Y-96266000D03*
X133705600Y-96266000D03*
X146761200Y-103784400D03*
D16*
X134467600Y-110744000D03*
X168960800Y-100431600D03*
X169672000Y-98145600D03*
X132384800Y-100076000D03*
X177698400Y-103022400D03*
X174904400Y-100228400D03*
X169672000Y-96570800D03*
X174955200Y-90830400D03*
X165354000Y-90830400D03*
X169113200Y-94335600D03*
X156311600Y-90424000D03*
X156311600Y-104190800D03*
X147015200Y-89916000D03*
D17*
X133705600Y-93980000D03*
X135280400Y-93980000D03*
X138836400Y-84582000D03*
X139598400Y-98602800D03*
X135483600Y-102616000D03*
D16*
X175006000Y-95097600D03*
X165709600Y-100685600D03*
D17*
X131876800Y-85648800D03*
D16*
X141732000Y-104546400D03*
X163880800Y-100076000D03*
X156311600Y-92354400D03*
X163830000Y-96215200D03*
X156311600Y-102260400D03*
X166166800Y-97100200D03*
X159766000Y-114300000D03*
X147066000Y-101904800D03*
X137464800Y-107188000D03*
X173329600Y-89712800D03*
X135737600Y-107188000D03*
X172770800Y-89103200D03*
X173532800Y-95453200D03*
X161137600Y-84531200D03*
X160883601Y-99415601D03*
X166370000Y-99568000D03*
X171837124Y-89975192D03*
X172161200Y-99720400D03*
D18*
G36*
X182220001Y-118720000D02*
G01*
X125120000Y-118720000D01*
X125120000Y-115349872D01*
X126035000Y-115349872D01*
X126035000Y-115790128D01*
X126120890Y-116221925D01*
X126289369Y-116628669D01*
X126533962Y-116994729D01*
X126845271Y-117306038D01*
X127211331Y-117550631D01*
X127618075Y-117719110D01*
X128049872Y-117805000D01*
X128490128Y-117805000D01*
X128921925Y-117719110D01*
X129328669Y-117550631D01*
X129694729Y-117306038D01*
X130006038Y-116994729D01*
X130250631Y-116628669D01*
X130409966Y-116244000D01*
X161071928Y-116244000D01*
X161071928Y-117944000D01*
X161084188Y-118068482D01*
X161120498Y-118188180D01*
X161179463Y-118298494D01*
X161258815Y-118395185D01*
X161355506Y-118474537D01*
X161465820Y-118533502D01*
X161585518Y-118569812D01*
X161710000Y-118582072D01*
X163410000Y-118582072D01*
X163534482Y-118569812D01*
X163654180Y-118533502D01*
X163764494Y-118474537D01*
X163861185Y-118395185D01*
X163940537Y-118298494D01*
X163999502Y-118188180D01*
X164020393Y-118119313D01*
X164044866Y-118149134D01*
X164270986Y-118334706D01*
X164528966Y-118472599D01*
X164808889Y-118557513D01*
X165027050Y-118579000D01*
X165172950Y-118579000D01*
X165391111Y-118557513D01*
X165671034Y-118472599D01*
X165929014Y-118334706D01*
X166155134Y-118149134D01*
X166340706Y-117923014D01*
X166370000Y-117868209D01*
X166399294Y-117923014D01*
X166584866Y-118149134D01*
X166810986Y-118334706D01*
X167068966Y-118472599D01*
X167348889Y-118557513D01*
X167567050Y-118579000D01*
X167712950Y-118579000D01*
X167931111Y-118557513D01*
X168211034Y-118472599D01*
X168469014Y-118334706D01*
X168695134Y-118149134D01*
X168880706Y-117923014D01*
X168910000Y-117868209D01*
X168939294Y-117923014D01*
X169124866Y-118149134D01*
X169350986Y-118334706D01*
X169608966Y-118472599D01*
X169888889Y-118557513D01*
X170107050Y-118579000D01*
X170252950Y-118579000D01*
X170471111Y-118557513D01*
X170751034Y-118472599D01*
X171009014Y-118334706D01*
X171235134Y-118149134D01*
X171420706Y-117923014D01*
X171558599Y-117665034D01*
X171643513Y-117385111D01*
X171672185Y-117094000D01*
X171643513Y-116802889D01*
X171558599Y-116522966D01*
X171420706Y-116264986D01*
X171235134Y-116038866D01*
X171009014Y-115853294D01*
X170751034Y-115715401D01*
X170471111Y-115630487D01*
X170252950Y-115609000D01*
X170107050Y-115609000D01*
X169888889Y-115630487D01*
X169608966Y-115715401D01*
X169350986Y-115853294D01*
X169124866Y-116038866D01*
X168939294Y-116264986D01*
X168910000Y-116319791D01*
X168880706Y-116264986D01*
X168695134Y-116038866D01*
X168469014Y-115853294D01*
X168211034Y-115715401D01*
X167931111Y-115630487D01*
X167712950Y-115609000D01*
X167567050Y-115609000D01*
X167348889Y-115630487D01*
X167068966Y-115715401D01*
X166810986Y-115853294D01*
X166584866Y-116038866D01*
X166399294Y-116264986D01*
X166370000Y-116319791D01*
X166340706Y-116264986D01*
X166155134Y-116038866D01*
X165929014Y-115853294D01*
X165671034Y-115715401D01*
X165391111Y-115630487D01*
X165172950Y-115609000D01*
X165027050Y-115609000D01*
X164808889Y-115630487D01*
X164528966Y-115715401D01*
X164270986Y-115853294D01*
X164044866Y-116038866D01*
X164020393Y-116068687D01*
X163999502Y-115999820D01*
X163940537Y-115889506D01*
X163861185Y-115792815D01*
X163764494Y-115713463D01*
X163654180Y-115654498D01*
X163534482Y-115618188D01*
X163410000Y-115605928D01*
X161710000Y-115605928D01*
X161585518Y-115618188D01*
X161465820Y-115654498D01*
X161355506Y-115713463D01*
X161258815Y-115792815D01*
X161179463Y-115889506D01*
X161120498Y-115999820D01*
X161084188Y-116119518D01*
X161071928Y-116244000D01*
X130409966Y-116244000D01*
X130419110Y-116221925D01*
X130505000Y-115790128D01*
X130505000Y-115349872D01*
X176835000Y-115349872D01*
X176835000Y-115790128D01*
X176920890Y-116221925D01*
X177089369Y-116628669D01*
X177333962Y-116994729D01*
X177645271Y-117306038D01*
X178011331Y-117550631D01*
X178418075Y-117719110D01*
X178849872Y-117805000D01*
X179290128Y-117805000D01*
X179721925Y-117719110D01*
X180128669Y-117550631D01*
X180494729Y-117306038D01*
X180806038Y-116994729D01*
X181050631Y-116628669D01*
X181219110Y-116221925D01*
X181305000Y-115790128D01*
X181305000Y-115349872D01*
X181219110Y-114918075D01*
X181050631Y-114511331D01*
X180806038Y-114145271D01*
X180494729Y-113833962D01*
X180128669Y-113589369D01*
X179721925Y-113420890D01*
X179290128Y-113335000D01*
X178849872Y-113335000D01*
X178418075Y-113420890D01*
X178011331Y-113589369D01*
X177645271Y-113833962D01*
X177333962Y-114145271D01*
X177089369Y-114511331D01*
X176920890Y-114918075D01*
X176835000Y-115349872D01*
X130505000Y-115349872D01*
X130419110Y-114918075D01*
X130250631Y-114511331D01*
X130050920Y-114212441D01*
X158877000Y-114212441D01*
X158877000Y-114387559D01*
X158911164Y-114559312D01*
X158978179Y-114721099D01*
X159075469Y-114866704D01*
X159199296Y-114990531D01*
X159344901Y-115087821D01*
X159506688Y-115154836D01*
X159678441Y-115189000D01*
X159853559Y-115189000D01*
X160025312Y-115154836D01*
X160187099Y-115087821D01*
X160332704Y-114990531D01*
X160456531Y-114866704D01*
X160553821Y-114721099D01*
X160620836Y-114559312D01*
X160655000Y-114387559D01*
X160655000Y-114212441D01*
X160620836Y-114040688D01*
X160553821Y-113878901D01*
X160456531Y-113733296D01*
X160332704Y-113609469D01*
X160187099Y-113512179D01*
X160025312Y-113445164D01*
X159853559Y-113411000D01*
X159678441Y-113411000D01*
X159506688Y-113445164D01*
X159344901Y-113512179D01*
X159199296Y-113609469D01*
X159075469Y-113733296D01*
X158978179Y-113878901D01*
X158911164Y-114040688D01*
X158877000Y-114212441D01*
X130050920Y-114212441D01*
X130006038Y-114145271D01*
X129694729Y-113833962D01*
X129328669Y-113589369D01*
X128921925Y-113420890D01*
X128490128Y-113335000D01*
X128049872Y-113335000D01*
X127618075Y-113420890D01*
X127211331Y-113589369D01*
X126845271Y-113833962D01*
X126533962Y-114145271D01*
X126289369Y-114511331D01*
X126120890Y-114918075D01*
X126035000Y-115349872D01*
X125120000Y-115349872D01*
X125120000Y-109677200D01*
X125304615Y-109677200D01*
X125333287Y-109968311D01*
X125418201Y-110248234D01*
X125556094Y-110506214D01*
X125741666Y-110732334D01*
X125967786Y-110917906D01*
X126225766Y-111055799D01*
X126505689Y-111140713D01*
X126723850Y-111162200D01*
X126869750Y-111162200D01*
X127087911Y-111140713D01*
X127367834Y-111055799D01*
X127625814Y-110917906D01*
X127851934Y-110732334D01*
X127914217Y-110656441D01*
X133578600Y-110656441D01*
X133578600Y-110831559D01*
X133612764Y-111003312D01*
X133679779Y-111165099D01*
X133777069Y-111310704D01*
X133900896Y-111434531D01*
X134046501Y-111531821D01*
X134208288Y-111598836D01*
X134380041Y-111633000D01*
X134555159Y-111633000D01*
X134726912Y-111598836D01*
X134888699Y-111531821D01*
X135034304Y-111434531D01*
X135158131Y-111310704D01*
X135255421Y-111165099D01*
X135322436Y-111003312D01*
X135356600Y-110831559D01*
X135356600Y-110656441D01*
X135322436Y-110484688D01*
X135255421Y-110322901D01*
X135158131Y-110177296D01*
X135034304Y-110053469D01*
X134888699Y-109956179D01*
X134726912Y-109889164D01*
X134555159Y-109855000D01*
X134380041Y-109855000D01*
X134208288Y-109889164D01*
X134046501Y-109956179D01*
X133900896Y-110053469D01*
X133777069Y-110177296D01*
X133679779Y-110322901D01*
X133612764Y-110484688D01*
X133578600Y-110656441D01*
X127914217Y-110656441D01*
X128037506Y-110506214D01*
X128175399Y-110248234D01*
X128260313Y-109968311D01*
X128288985Y-109677200D01*
X128260313Y-109386089D01*
X128175399Y-109106166D01*
X128037506Y-108848186D01*
X127851934Y-108622066D01*
X127625814Y-108436494D01*
X127561277Y-108401999D01*
X127678155Y-108332378D01*
X127894388Y-108137469D01*
X128068441Y-107904120D01*
X128193625Y-107641299D01*
X128238276Y-107494090D01*
X128116955Y-107264200D01*
X126923800Y-107264200D01*
X126923800Y-107284200D01*
X126669800Y-107284200D01*
X126669800Y-107264200D01*
X125476645Y-107264200D01*
X125355324Y-107494090D01*
X125399975Y-107641299D01*
X125525159Y-107904120D01*
X125699212Y-108137469D01*
X125915445Y-108332378D01*
X126032323Y-108401999D01*
X125967786Y-108436494D01*
X125741666Y-108622066D01*
X125556094Y-108848186D01*
X125418201Y-109106166D01*
X125333287Y-109386089D01*
X125304615Y-109677200D01*
X125120000Y-109677200D01*
X125120000Y-107100441D01*
X134848600Y-107100441D01*
X134848600Y-107275559D01*
X134882764Y-107447312D01*
X134949779Y-107609099D01*
X135047069Y-107754704D01*
X135170896Y-107878531D01*
X135316501Y-107975821D01*
X135478288Y-108042836D01*
X135650041Y-108077000D01*
X135825159Y-108077000D01*
X135996912Y-108042836D01*
X136158699Y-107975821D01*
X136304304Y-107878531D01*
X136428131Y-107754704D01*
X136525421Y-107609099D01*
X136592436Y-107447312D01*
X136601200Y-107403253D01*
X136609964Y-107447312D01*
X136676979Y-107609099D01*
X136774269Y-107754704D01*
X136898096Y-107878531D01*
X137043701Y-107975821D01*
X137205488Y-108042836D01*
X137377241Y-108077000D01*
X137552359Y-108077000D01*
X137724112Y-108042836D01*
X137885899Y-107975821D01*
X138031504Y-107878531D01*
X138155331Y-107754704D01*
X138252621Y-107609099D01*
X138319636Y-107447312D01*
X138353800Y-107275559D01*
X138353800Y-107100441D01*
X138319636Y-106928688D01*
X138252621Y-106766901D01*
X138155331Y-106621296D01*
X138031504Y-106497469D01*
X137885899Y-106400179D01*
X137724112Y-106333164D01*
X137552359Y-106299000D01*
X137377241Y-106299000D01*
X137205488Y-106333164D01*
X137043701Y-106400179D01*
X136898096Y-106497469D01*
X136774269Y-106621296D01*
X136676979Y-106766901D01*
X136609964Y-106928688D01*
X136601200Y-106972747D01*
X136592436Y-106928688D01*
X136525421Y-106766901D01*
X136428131Y-106621296D01*
X136304304Y-106497469D01*
X136158699Y-106400179D01*
X135996912Y-106333164D01*
X135825159Y-106299000D01*
X135650041Y-106299000D01*
X135478288Y-106333164D01*
X135316501Y-106400179D01*
X135170896Y-106497469D01*
X135047069Y-106621296D01*
X134949779Y-106766901D01*
X134882764Y-106928688D01*
X134848600Y-107100441D01*
X125120000Y-107100441D01*
X125120000Y-102057200D01*
X125304615Y-102057200D01*
X125333287Y-102348311D01*
X125418201Y-102628234D01*
X125556094Y-102886214D01*
X125741666Y-103112334D01*
X125967786Y-103297906D01*
X126022591Y-103327200D01*
X125967786Y-103356494D01*
X125741666Y-103542066D01*
X125556094Y-103768186D01*
X125418201Y-104026166D01*
X125333287Y-104306089D01*
X125304615Y-104597200D01*
X125333287Y-104888311D01*
X125418201Y-105168234D01*
X125556094Y-105426214D01*
X125741666Y-105652334D01*
X125967786Y-105837906D01*
X126032323Y-105872401D01*
X125915445Y-105942022D01*
X125699212Y-106136931D01*
X125525159Y-106370280D01*
X125399975Y-106633101D01*
X125355324Y-106780310D01*
X125476645Y-107010200D01*
X126669800Y-107010200D01*
X126669800Y-106990200D01*
X126923800Y-106990200D01*
X126923800Y-107010200D01*
X128116955Y-107010200D01*
X128238276Y-106780310D01*
X128193625Y-106633101D01*
X128068441Y-106370280D01*
X127894388Y-106136931D01*
X127678155Y-105942022D01*
X127561277Y-105872401D01*
X127625814Y-105837906D01*
X127851934Y-105652334D01*
X128037506Y-105426214D01*
X128175399Y-105168234D01*
X128260313Y-104888311D01*
X128288985Y-104597200D01*
X128260313Y-104306089D01*
X128175399Y-104026166D01*
X128037506Y-103768186D01*
X127851934Y-103542066D01*
X127625814Y-103356494D01*
X127571009Y-103327200D01*
X127625814Y-103297906D01*
X127851934Y-103112334D01*
X128037506Y-102886214D01*
X128175399Y-102628234D01*
X128260313Y-102348311D01*
X128273702Y-102212370D01*
X128978200Y-102212370D01*
X128978200Y-102613230D01*
X129056404Y-103006387D01*
X129209807Y-103376734D01*
X129432513Y-103710037D01*
X129715963Y-103993487D01*
X130049266Y-104216193D01*
X130419613Y-104369596D01*
X130812770Y-104447800D01*
X131213630Y-104447800D01*
X131606787Y-104369596D01*
X131977134Y-104216193D01*
X132310437Y-103993487D01*
X132593887Y-103710037D01*
X132619420Y-103671824D01*
X145618200Y-103671824D01*
X145618200Y-103896976D01*
X145662125Y-104117801D01*
X145748287Y-104325813D01*
X145873374Y-104513020D01*
X146032580Y-104672226D01*
X146219787Y-104797313D01*
X146427799Y-104883475D01*
X146648624Y-104927400D01*
X146873776Y-104927400D01*
X147094601Y-104883475D01*
X147302613Y-104797313D01*
X147489820Y-104672226D01*
X147649026Y-104513020D01*
X147774113Y-104325813D01*
X147860275Y-104117801D01*
X147904200Y-103896976D01*
X147904200Y-103671824D01*
X147860275Y-103450999D01*
X147774113Y-103242987D01*
X147649026Y-103055780D01*
X147489820Y-102896574D01*
X147302613Y-102771487D01*
X147290648Y-102766531D01*
X147325312Y-102759636D01*
X147487099Y-102692621D01*
X147632704Y-102595331D01*
X147756531Y-102471504D01*
X147795755Y-102412800D01*
X149288354Y-102412800D01*
X149327645Y-102811730D01*
X149444009Y-103195329D01*
X149632973Y-103548856D01*
X149887276Y-103858724D01*
X150197144Y-104113027D01*
X150550671Y-104301991D01*
X150934270Y-104418355D01*
X151233231Y-104447800D01*
X151433169Y-104447800D01*
X151732130Y-104418355D01*
X152115729Y-104301991D01*
X152469256Y-104113027D01*
X152779124Y-103858724D01*
X153033427Y-103548856D01*
X153222391Y-103195329D01*
X153338755Y-102811730D01*
X153378046Y-102412800D01*
X153354413Y-102172841D01*
X155422600Y-102172841D01*
X155422600Y-102347959D01*
X155456764Y-102519712D01*
X155523779Y-102681499D01*
X155621069Y-102827104D01*
X155744896Y-102950931D01*
X155890501Y-103048221D01*
X156052288Y-103115236D01*
X156224041Y-103149400D01*
X156399159Y-103149400D01*
X156570912Y-103115236D01*
X156732699Y-103048221D01*
X156878304Y-102950931D01*
X156894394Y-102934841D01*
X175641000Y-102934841D01*
X175641000Y-103109959D01*
X175675164Y-103281712D01*
X175742179Y-103443499D01*
X175839469Y-103589104D01*
X175963296Y-103712931D01*
X176108901Y-103810221D01*
X176270688Y-103877236D01*
X176442441Y-103911400D01*
X176617559Y-103911400D01*
X176789312Y-103877236D01*
X176951099Y-103810221D01*
X177096704Y-103712931D01*
X177220531Y-103589104D01*
X177317821Y-103443499D01*
X177384836Y-103281712D01*
X177419000Y-103109959D01*
X177419000Y-102934841D01*
X177384836Y-102763088D01*
X177317821Y-102601301D01*
X177220531Y-102455696D01*
X177096704Y-102331869D01*
X176951099Y-102234579D01*
X176789312Y-102167564D01*
X176617559Y-102133400D01*
X176442441Y-102133400D01*
X176270688Y-102167564D01*
X176108901Y-102234579D01*
X175963296Y-102331869D01*
X175839469Y-102455696D01*
X175742179Y-102601301D01*
X175675164Y-102763088D01*
X175641000Y-102934841D01*
X156894394Y-102934841D01*
X157002131Y-102827104D01*
X157099421Y-102681499D01*
X157166436Y-102519712D01*
X157200600Y-102347959D01*
X157200600Y-102172841D01*
X157166436Y-102001088D01*
X157099421Y-101839301D01*
X157002131Y-101693696D01*
X156908435Y-101600000D01*
X179101815Y-101600000D01*
X179130487Y-101891111D01*
X179215401Y-102171034D01*
X179353294Y-102429014D01*
X179538866Y-102655134D01*
X179764986Y-102840706D01*
X179819791Y-102870000D01*
X179764986Y-102899294D01*
X179538866Y-103084866D01*
X179353294Y-103310986D01*
X179215401Y-103568966D01*
X179130487Y-103848889D01*
X179101815Y-104140000D01*
X179130487Y-104431111D01*
X179215401Y-104711034D01*
X179353294Y-104969014D01*
X179538866Y-105195134D01*
X179764986Y-105380706D01*
X179819791Y-105410000D01*
X179764986Y-105439294D01*
X179538866Y-105624866D01*
X179353294Y-105850986D01*
X179215401Y-106108966D01*
X179130487Y-106388889D01*
X179101815Y-106680000D01*
X179130487Y-106971111D01*
X179215401Y-107251034D01*
X179353294Y-107509014D01*
X179538866Y-107735134D01*
X179764986Y-107920706D01*
X180022966Y-108058599D01*
X180302889Y-108143513D01*
X180521050Y-108165000D01*
X180666950Y-108165000D01*
X180885111Y-108143513D01*
X181165034Y-108058599D01*
X181423014Y-107920706D01*
X181649134Y-107735134D01*
X181834706Y-107509014D01*
X181972599Y-107251034D01*
X182057513Y-106971111D01*
X182086185Y-106680000D01*
X182057513Y-106388889D01*
X181972599Y-106108966D01*
X181834706Y-105850986D01*
X181649134Y-105624866D01*
X181423014Y-105439294D01*
X181368209Y-105410000D01*
X181423014Y-105380706D01*
X181649134Y-105195134D01*
X181834706Y-104969014D01*
X181972599Y-104711034D01*
X182057513Y-104431111D01*
X182086185Y-104140000D01*
X182057513Y-103848889D01*
X181972599Y-103568966D01*
X181834706Y-103310986D01*
X181649134Y-103084866D01*
X181423014Y-102899294D01*
X181368209Y-102870000D01*
X181423014Y-102840706D01*
X181649134Y-102655134D01*
X181834706Y-102429014D01*
X181972599Y-102171034D01*
X182057513Y-101891111D01*
X182086185Y-101600000D01*
X182057513Y-101308889D01*
X181972599Y-101028966D01*
X181834706Y-100770986D01*
X181649134Y-100544866D01*
X181619313Y-100520393D01*
X181688180Y-100499502D01*
X181798494Y-100440537D01*
X181895185Y-100361185D01*
X181974537Y-100264494D01*
X182033502Y-100154180D01*
X182069812Y-100034482D01*
X182082072Y-99910000D01*
X182082072Y-98210000D01*
X182069812Y-98085518D01*
X182033502Y-97965820D01*
X181974537Y-97855506D01*
X181895185Y-97758815D01*
X181798494Y-97679463D01*
X181688180Y-97620498D01*
X181568482Y-97584188D01*
X181444000Y-97571928D01*
X179744000Y-97571928D01*
X179619518Y-97584188D01*
X179499820Y-97620498D01*
X179389506Y-97679463D01*
X179292815Y-97758815D01*
X179213463Y-97855506D01*
X179154498Y-97965820D01*
X179118188Y-98085518D01*
X179105928Y-98210000D01*
X179105928Y-99910000D01*
X179118188Y-100034482D01*
X179154498Y-100154180D01*
X179213463Y-100264494D01*
X179292815Y-100361185D01*
X179389506Y-100440537D01*
X179499820Y-100499502D01*
X179568687Y-100520393D01*
X179538866Y-100544866D01*
X179353294Y-100770986D01*
X179215401Y-101028966D01*
X179130487Y-101308889D01*
X179101815Y-101600000D01*
X156908435Y-101600000D01*
X156878304Y-101569869D01*
X156732699Y-101472579D01*
X156570912Y-101405564D01*
X156399159Y-101371400D01*
X156224041Y-101371400D01*
X156052288Y-101405564D01*
X155890501Y-101472579D01*
X155744896Y-101569869D01*
X155621069Y-101693696D01*
X155523779Y-101839301D01*
X155456764Y-102001088D01*
X155422600Y-102172841D01*
X153354413Y-102172841D01*
X153338755Y-102013870D01*
X153222391Y-101630271D01*
X153033427Y-101276744D01*
X152779124Y-100966876D01*
X152469256Y-100712573D01*
X152115729Y-100523609D01*
X151732130Y-100407245D01*
X151433169Y-100377800D01*
X151233231Y-100377800D01*
X150934270Y-100407245D01*
X150550671Y-100523609D01*
X150197144Y-100712573D01*
X149887276Y-100966876D01*
X149632973Y-101276744D01*
X149444009Y-101630271D01*
X149327645Y-102013870D01*
X149288354Y-102412800D01*
X147795755Y-102412800D01*
X147853821Y-102325899D01*
X147920836Y-102164112D01*
X147955000Y-101992359D01*
X147955000Y-101817241D01*
X147920836Y-101645488D01*
X147853821Y-101483701D01*
X147756531Y-101338096D01*
X147632704Y-101214269D01*
X147487099Y-101116979D01*
X147325312Y-101049964D01*
X147153559Y-101015800D01*
X146978441Y-101015800D01*
X146806688Y-101049964D01*
X146644901Y-101116979D01*
X146499296Y-101214269D01*
X146375469Y-101338096D01*
X146278179Y-101483701D01*
X146211164Y-101645488D01*
X146177000Y-101817241D01*
X146177000Y-101992359D01*
X146211164Y-102164112D01*
X146278179Y-102325899D01*
X146375469Y-102471504D01*
X146499296Y-102595331D01*
X146586683Y-102653721D01*
X146427799Y-102685325D01*
X146219787Y-102771487D01*
X146032580Y-102896574D01*
X145873374Y-103055780D01*
X145748287Y-103242987D01*
X145662125Y-103450999D01*
X145618200Y-103671824D01*
X132619420Y-103671824D01*
X132816593Y-103376734D01*
X132969996Y-103006387D01*
X133048200Y-102613230D01*
X133048200Y-102212370D01*
X132969996Y-101819213D01*
X132816593Y-101448866D01*
X132593887Y-101115563D01*
X132443324Y-100965000D01*
X132472359Y-100965000D01*
X132644112Y-100930836D01*
X132805899Y-100863821D01*
X132951504Y-100766531D01*
X133075331Y-100642704D01*
X133172621Y-100497099D01*
X133239636Y-100335312D01*
X133273800Y-100163559D01*
X133273800Y-99988441D01*
X133239636Y-99816688D01*
X133172621Y-99654901D01*
X133075331Y-99509296D01*
X132951504Y-99385469D01*
X132865559Y-99328042D01*
X159994601Y-99328042D01*
X159994601Y-99503160D01*
X160028765Y-99674913D01*
X160095780Y-99836700D01*
X160193070Y-99982305D01*
X160316897Y-100106132D01*
X160462502Y-100203422D01*
X160624289Y-100270437D01*
X160796042Y-100304601D01*
X160971160Y-100304601D01*
X161142913Y-100270437D01*
X161304700Y-100203422D01*
X161450305Y-100106132D01*
X161567996Y-99988441D01*
X162991800Y-99988441D01*
X162991800Y-100163559D01*
X163025964Y-100335312D01*
X163092979Y-100497099D01*
X163190269Y-100642704D01*
X163314096Y-100766531D01*
X163459701Y-100863821D01*
X163621488Y-100930836D01*
X163793241Y-100965000D01*
X163968359Y-100965000D01*
X164140112Y-100930836D01*
X164301899Y-100863821D01*
X164447504Y-100766531D01*
X164571331Y-100642704D01*
X164668621Y-100497099D01*
X164735636Y-100335312D01*
X164769800Y-100163559D01*
X164769800Y-99988441D01*
X164735636Y-99816688D01*
X164668621Y-99654901D01*
X164571331Y-99509296D01*
X164542476Y-99480441D01*
X165481000Y-99480441D01*
X165481000Y-99655559D01*
X165515164Y-99827312D01*
X165582179Y-99989099D01*
X165679469Y-100134704D01*
X165803296Y-100258531D01*
X165948901Y-100355821D01*
X166110688Y-100422836D01*
X166282441Y-100457000D01*
X166457559Y-100457000D01*
X166629312Y-100422836D01*
X166791099Y-100355821D01*
X166808729Y-100344041D01*
X168071800Y-100344041D01*
X168071800Y-100519159D01*
X168105964Y-100690912D01*
X168172979Y-100852699D01*
X168270269Y-100998304D01*
X168394096Y-101122131D01*
X168539701Y-101219421D01*
X168701488Y-101286436D01*
X168873241Y-101320600D01*
X169048359Y-101320600D01*
X169220112Y-101286436D01*
X169381899Y-101219421D01*
X169527504Y-101122131D01*
X169651331Y-100998304D01*
X169748621Y-100852699D01*
X169815636Y-100690912D01*
X169849800Y-100519159D01*
X169849800Y-100344041D01*
X169815636Y-100172288D01*
X169748621Y-100010501D01*
X169651331Y-99864896D01*
X169527504Y-99741069D01*
X169381899Y-99643779D01*
X169355493Y-99632841D01*
X171272200Y-99632841D01*
X171272200Y-99807959D01*
X171306364Y-99979712D01*
X171373379Y-100141499D01*
X171470669Y-100287104D01*
X171594496Y-100410931D01*
X171740101Y-100508221D01*
X171901888Y-100575236D01*
X172073641Y-100609400D01*
X172248759Y-100609400D01*
X172420512Y-100575236D01*
X172582299Y-100508221D01*
X172727904Y-100410931D01*
X172851731Y-100287104D01*
X172949021Y-100141499D01*
X173016036Y-99979712D01*
X173050200Y-99807959D01*
X173050200Y-99632841D01*
X173016036Y-99461088D01*
X172949021Y-99299301D01*
X172851731Y-99153696D01*
X172727904Y-99029869D01*
X172582299Y-98932579D01*
X172420512Y-98865564D01*
X172248759Y-98831400D01*
X172073641Y-98831400D01*
X171901888Y-98865564D01*
X171740101Y-98932579D01*
X171594496Y-99029869D01*
X171470669Y-99153696D01*
X171373379Y-99299301D01*
X171306364Y-99461088D01*
X171272200Y-99632841D01*
X169355493Y-99632841D01*
X169220112Y-99576764D01*
X169048359Y-99542600D01*
X168873241Y-99542600D01*
X168701488Y-99576764D01*
X168539701Y-99643779D01*
X168394096Y-99741069D01*
X168270269Y-99864896D01*
X168172979Y-100010501D01*
X168105964Y-100172288D01*
X168071800Y-100344041D01*
X166808729Y-100344041D01*
X166936704Y-100258531D01*
X167060531Y-100134704D01*
X167157821Y-99989099D01*
X167224836Y-99827312D01*
X167259000Y-99655559D01*
X167259000Y-99480441D01*
X167224836Y-99308688D01*
X167157821Y-99146901D01*
X167060531Y-99001296D01*
X166936704Y-98877469D01*
X166791099Y-98780179D01*
X166629312Y-98713164D01*
X166457559Y-98679000D01*
X166282441Y-98679000D01*
X166110688Y-98713164D01*
X165948901Y-98780179D01*
X165803296Y-98877469D01*
X165679469Y-99001296D01*
X165582179Y-99146901D01*
X165515164Y-99308688D01*
X165481000Y-99480441D01*
X164542476Y-99480441D01*
X164447504Y-99385469D01*
X164301899Y-99288179D01*
X164140112Y-99221164D01*
X163968359Y-99187000D01*
X163793241Y-99187000D01*
X163621488Y-99221164D01*
X163459701Y-99288179D01*
X163314096Y-99385469D01*
X163190269Y-99509296D01*
X163092979Y-99654901D01*
X163025964Y-99816688D01*
X162991800Y-99988441D01*
X161567996Y-99988441D01*
X161574132Y-99982305D01*
X161671422Y-99836700D01*
X161738437Y-99674913D01*
X161772601Y-99503160D01*
X161772601Y-99328042D01*
X161738437Y-99156289D01*
X161671422Y-98994502D01*
X161574132Y-98848897D01*
X161450305Y-98725070D01*
X161304700Y-98627780D01*
X161142913Y-98560765D01*
X160971160Y-98526601D01*
X160796042Y-98526601D01*
X160624289Y-98560765D01*
X160462502Y-98627780D01*
X160316897Y-98725070D01*
X160193070Y-98848897D01*
X160095780Y-98994502D01*
X160028765Y-99156289D01*
X159994601Y-99328042D01*
X132865559Y-99328042D01*
X132805899Y-99288179D01*
X132644112Y-99221164D01*
X132472359Y-99187000D01*
X132297241Y-99187000D01*
X132125488Y-99221164D01*
X131963701Y-99288179D01*
X131818096Y-99385469D01*
X131694269Y-99509296D01*
X131596979Y-99654901D01*
X131529964Y-99816688D01*
X131495800Y-99988441D01*
X131495800Y-100163559D01*
X131529964Y-100335312D01*
X131577548Y-100450188D01*
X131213630Y-100377800D01*
X130812770Y-100377800D01*
X130419613Y-100456004D01*
X130049266Y-100609407D01*
X129715963Y-100832113D01*
X129432513Y-101115563D01*
X129209807Y-101448866D01*
X129056404Y-101819213D01*
X128978200Y-102212370D01*
X128273702Y-102212370D01*
X128288985Y-102057200D01*
X128260313Y-101766089D01*
X128175399Y-101486166D01*
X128037506Y-101228186D01*
X127851934Y-101002066D01*
X127822113Y-100977593D01*
X127890980Y-100956702D01*
X128001294Y-100897737D01*
X128097985Y-100818385D01*
X128177337Y-100721694D01*
X128236302Y-100611380D01*
X128272612Y-100491682D01*
X128284872Y-100367200D01*
X128284872Y-98667200D01*
X128272612Y-98542718D01*
X128236302Y-98423020D01*
X128177337Y-98312706D01*
X128097985Y-98216015D01*
X128001294Y-98136663D01*
X127890980Y-98077698D01*
X127826180Y-98058041D01*
X168783000Y-98058041D01*
X168783000Y-98233159D01*
X168817164Y-98404912D01*
X168884179Y-98566699D01*
X168981469Y-98712304D01*
X169105296Y-98836131D01*
X169250901Y-98933421D01*
X169412688Y-99000436D01*
X169584441Y-99034600D01*
X169759559Y-99034600D01*
X169931312Y-99000436D01*
X170093099Y-98933421D01*
X170238704Y-98836131D01*
X170362531Y-98712304D01*
X170459821Y-98566699D01*
X170526836Y-98404912D01*
X170561000Y-98233159D01*
X170561000Y-98058041D01*
X170526836Y-97886288D01*
X170459821Y-97724501D01*
X170362531Y-97578896D01*
X170238704Y-97455069D01*
X170093099Y-97357779D01*
X169931312Y-97290764D01*
X169759559Y-97256600D01*
X169584441Y-97256600D01*
X169412688Y-97290764D01*
X169250901Y-97357779D01*
X169105296Y-97455069D01*
X168981469Y-97578896D01*
X168884179Y-97724501D01*
X168817164Y-97886288D01*
X168783000Y-98058041D01*
X127826180Y-98058041D01*
X127771282Y-98041388D01*
X127646800Y-98029128D01*
X125946800Y-98029128D01*
X125822318Y-98041388D01*
X125702620Y-98077698D01*
X125592306Y-98136663D01*
X125495615Y-98216015D01*
X125416263Y-98312706D01*
X125357298Y-98423020D01*
X125320988Y-98542718D01*
X125308728Y-98667200D01*
X125308728Y-100367200D01*
X125320988Y-100491682D01*
X125357298Y-100611380D01*
X125416263Y-100721694D01*
X125495615Y-100818385D01*
X125592306Y-100897737D01*
X125702620Y-100956702D01*
X125771487Y-100977593D01*
X125741666Y-101002066D01*
X125556094Y-101228186D01*
X125418201Y-101486166D01*
X125333287Y-101766089D01*
X125304615Y-102057200D01*
X125120000Y-102057200D01*
X125120000Y-96153424D01*
X132562600Y-96153424D01*
X132562600Y-96378576D01*
X132606525Y-96599401D01*
X132692687Y-96807413D01*
X132817774Y-96994620D01*
X132976980Y-97153826D01*
X133164187Y-97278913D01*
X133372199Y-97365075D01*
X133593024Y-97409000D01*
X133818176Y-97409000D01*
X134039001Y-97365075D01*
X134247013Y-97278913D01*
X134434220Y-97153826D01*
X134493000Y-97095046D01*
X134551780Y-97153826D01*
X134738987Y-97278913D01*
X134946999Y-97365075D01*
X135167824Y-97409000D01*
X135392976Y-97409000D01*
X135613801Y-97365075D01*
X135821813Y-97278913D01*
X136009020Y-97153826D01*
X136168226Y-96994620D01*
X136293313Y-96807413D01*
X136379475Y-96599401D01*
X136423400Y-96378576D01*
X136423400Y-96153424D01*
X136418272Y-96127641D01*
X162941000Y-96127641D01*
X162941000Y-96302759D01*
X162975164Y-96474512D01*
X163042179Y-96636299D01*
X163139469Y-96781904D01*
X163263296Y-96905731D01*
X163408901Y-97003021D01*
X163570688Y-97070036D01*
X163742441Y-97104200D01*
X163917559Y-97104200D01*
X164089312Y-97070036D01*
X164227874Y-97012641D01*
X165277800Y-97012641D01*
X165277800Y-97187759D01*
X165311964Y-97359512D01*
X165378979Y-97521299D01*
X165476269Y-97666904D01*
X165600096Y-97790731D01*
X165745701Y-97888021D01*
X165907488Y-97955036D01*
X166079241Y-97989200D01*
X166254359Y-97989200D01*
X166426112Y-97955036D01*
X166587899Y-97888021D01*
X166733504Y-97790731D01*
X166857331Y-97666904D01*
X166954621Y-97521299D01*
X167021636Y-97359512D01*
X167055800Y-97187759D01*
X167055800Y-97012641D01*
X167021636Y-96840888D01*
X166954621Y-96679101D01*
X166857331Y-96533496D01*
X166733504Y-96409669D01*
X166587899Y-96312379D01*
X166426112Y-96245364D01*
X166254359Y-96211200D01*
X166079241Y-96211200D01*
X165907488Y-96245364D01*
X165745701Y-96312379D01*
X165600096Y-96409669D01*
X165476269Y-96533496D01*
X165378979Y-96679101D01*
X165311964Y-96840888D01*
X165277800Y-97012641D01*
X164227874Y-97012641D01*
X164251099Y-97003021D01*
X164396704Y-96905731D01*
X164520531Y-96781904D01*
X164617821Y-96636299D01*
X164684836Y-96474512D01*
X164719000Y-96302759D01*
X164719000Y-96127641D01*
X164684836Y-95955888D01*
X164617821Y-95794101D01*
X164520531Y-95648496D01*
X164396704Y-95524669D01*
X164251099Y-95427379D01*
X164102052Y-95365641D01*
X172643800Y-95365641D01*
X172643800Y-95540759D01*
X172677964Y-95712512D01*
X172744979Y-95874299D01*
X172842269Y-96019904D01*
X172966096Y-96143731D01*
X173111701Y-96241021D01*
X173273488Y-96308036D01*
X173445241Y-96342200D01*
X173620359Y-96342200D01*
X173792112Y-96308036D01*
X173953899Y-96241021D01*
X174099504Y-96143731D01*
X174223331Y-96019904D01*
X174320621Y-95874299D01*
X174387636Y-95712512D01*
X174421800Y-95540759D01*
X174421800Y-95365641D01*
X174387636Y-95193888D01*
X174320621Y-95032101D01*
X174223331Y-94886496D01*
X174099504Y-94762669D01*
X173953899Y-94665379D01*
X173792112Y-94598364D01*
X173620359Y-94564200D01*
X173445241Y-94564200D01*
X173273488Y-94598364D01*
X173111701Y-94665379D01*
X172966096Y-94762669D01*
X172842269Y-94886496D01*
X172744979Y-95032101D01*
X172677964Y-95193888D01*
X172643800Y-95365641D01*
X164102052Y-95365641D01*
X164089312Y-95360364D01*
X163917559Y-95326200D01*
X163742441Y-95326200D01*
X163570688Y-95360364D01*
X163408901Y-95427379D01*
X163263296Y-95524669D01*
X163139469Y-95648496D01*
X163042179Y-95794101D01*
X162975164Y-95955888D01*
X162941000Y-96127641D01*
X136418272Y-96127641D01*
X136379475Y-95932599D01*
X136293313Y-95724587D01*
X136168226Y-95537380D01*
X136009020Y-95378174D01*
X135821813Y-95253087D01*
X135613801Y-95166925D01*
X135392976Y-95123000D01*
X135167824Y-95123000D01*
X134946999Y-95166925D01*
X134738987Y-95253087D01*
X134551780Y-95378174D01*
X134493000Y-95436954D01*
X134434220Y-95378174D01*
X134247013Y-95253087D01*
X134039001Y-95166925D01*
X133818176Y-95123000D01*
X133593024Y-95123000D01*
X133372199Y-95166925D01*
X133164187Y-95253087D01*
X132976980Y-95378174D01*
X132817774Y-95537380D01*
X132692687Y-95724587D01*
X132606525Y-95932599D01*
X132562600Y-96153424D01*
X125120000Y-96153424D01*
X125120000Y-94794090D01*
X125355324Y-94794090D01*
X125399975Y-94941299D01*
X125525159Y-95204120D01*
X125699212Y-95437469D01*
X125915445Y-95632378D01*
X126165548Y-95781357D01*
X126439909Y-95878681D01*
X126669800Y-95758014D01*
X126669800Y-94564200D01*
X126923800Y-94564200D01*
X126923800Y-95758014D01*
X127153691Y-95878681D01*
X127428052Y-95781357D01*
X127678155Y-95632378D01*
X127894388Y-95437469D01*
X128068441Y-95204120D01*
X128193625Y-94941299D01*
X128238276Y-94794090D01*
X128116955Y-94564200D01*
X126923800Y-94564200D01*
X126669800Y-94564200D01*
X125476645Y-94564200D01*
X125355324Y-94794090D01*
X125120000Y-94794090D01*
X125120000Y-91047200D01*
X125308728Y-91047200D01*
X125308728Y-92747200D01*
X125320988Y-92871682D01*
X125357298Y-92991380D01*
X125416263Y-93101694D01*
X125495615Y-93198385D01*
X125592306Y-93277737D01*
X125702620Y-93336702D01*
X125783266Y-93361166D01*
X125699212Y-93436931D01*
X125525159Y-93670280D01*
X125399975Y-93933101D01*
X125355324Y-94080310D01*
X125476645Y-94310200D01*
X126669800Y-94310200D01*
X126669800Y-94290200D01*
X126923800Y-94290200D01*
X126923800Y-94310200D01*
X128116955Y-94310200D01*
X128238276Y-94080310D01*
X128193625Y-93933101D01*
X128068441Y-93670280D01*
X127894388Y-93436931D01*
X127810334Y-93361166D01*
X127890980Y-93336702D01*
X128001294Y-93277737D01*
X128097985Y-93198385D01*
X128177337Y-93101694D01*
X128236302Y-92991380D01*
X128272612Y-92871682D01*
X128284872Y-92747200D01*
X128284872Y-92266841D01*
X155422600Y-92266841D01*
X155422600Y-92441959D01*
X155456764Y-92613712D01*
X155523779Y-92775499D01*
X155621069Y-92921104D01*
X155744896Y-93044931D01*
X155890501Y-93142221D01*
X156052288Y-93209236D01*
X156224041Y-93243400D01*
X156399159Y-93243400D01*
X156570912Y-93209236D01*
X156732699Y-93142221D01*
X156878304Y-93044931D01*
X157002131Y-92921104D01*
X157099421Y-92775499D01*
X157162820Y-92622441D01*
X165633400Y-92622441D01*
X165633400Y-92797559D01*
X165667564Y-92969312D01*
X165734579Y-93131099D01*
X165831869Y-93276704D01*
X165955696Y-93400531D01*
X166101301Y-93497821D01*
X166263088Y-93564836D01*
X166434841Y-93599000D01*
X166609959Y-93599000D01*
X166781712Y-93564836D01*
X166943499Y-93497821D01*
X167089104Y-93400531D01*
X167212931Y-93276704D01*
X167310221Y-93131099D01*
X167377236Y-92969312D01*
X167411400Y-92797559D01*
X167411400Y-92622441D01*
X176758600Y-92622441D01*
X176758600Y-92797559D01*
X176792764Y-92969312D01*
X176859779Y-93131099D01*
X176957069Y-93276704D01*
X177080896Y-93400531D01*
X177226501Y-93497821D01*
X177388288Y-93564836D01*
X177560041Y-93599000D01*
X177735159Y-93599000D01*
X177906912Y-93564836D01*
X178068699Y-93497821D01*
X178214304Y-93400531D01*
X178338131Y-93276704D01*
X178435421Y-93131099D01*
X178502436Y-92969312D01*
X178536600Y-92797559D01*
X178536600Y-92622441D01*
X178502436Y-92450688D01*
X178435421Y-92288901D01*
X178338131Y-92143296D01*
X178214304Y-92019469D01*
X178068699Y-91922179D01*
X177906912Y-91855164D01*
X177735159Y-91821000D01*
X177560041Y-91821000D01*
X177388288Y-91855164D01*
X177226501Y-91922179D01*
X177080896Y-92019469D01*
X176957069Y-92143296D01*
X176859779Y-92288901D01*
X176792764Y-92450688D01*
X176758600Y-92622441D01*
X167411400Y-92622441D01*
X167377236Y-92450688D01*
X167310221Y-92288901D01*
X167212931Y-92143296D01*
X167089104Y-92019469D01*
X166943499Y-91922179D01*
X166781712Y-91855164D01*
X166609959Y-91821000D01*
X166434841Y-91821000D01*
X166263088Y-91855164D01*
X166101301Y-91922179D01*
X165955696Y-92019469D01*
X165831869Y-92143296D01*
X165734579Y-92288901D01*
X165667564Y-92450688D01*
X165633400Y-92622441D01*
X157162820Y-92622441D01*
X157166436Y-92613712D01*
X157200600Y-92441959D01*
X157200600Y-92266841D01*
X157166436Y-92095088D01*
X157099421Y-91933301D01*
X157002131Y-91787696D01*
X156878304Y-91663869D01*
X156732699Y-91566579D01*
X156570912Y-91499564D01*
X156399159Y-91465400D01*
X156224041Y-91465400D01*
X156052288Y-91499564D01*
X155890501Y-91566579D01*
X155744896Y-91663869D01*
X155621069Y-91787696D01*
X155523779Y-91933301D01*
X155456764Y-92095088D01*
X155422600Y-92266841D01*
X128284872Y-92266841D01*
X128284872Y-91047200D01*
X128272612Y-90922718D01*
X128236302Y-90803020D01*
X128177337Y-90692706D01*
X128097985Y-90596015D01*
X128001294Y-90516663D01*
X127890980Y-90457698D01*
X127771282Y-90421388D01*
X127646800Y-90409128D01*
X125946800Y-90409128D01*
X125822318Y-90421388D01*
X125702620Y-90457698D01*
X125592306Y-90516663D01*
X125495615Y-90596015D01*
X125416263Y-90692706D01*
X125357298Y-90803020D01*
X125320988Y-90922718D01*
X125308728Y-91047200D01*
X125120000Y-91047200D01*
X125120000Y-90031641D01*
X165328600Y-90031641D01*
X165328600Y-90206759D01*
X165362764Y-90378512D01*
X165429779Y-90540299D01*
X165527069Y-90685904D01*
X165650896Y-90809731D01*
X165796501Y-90907021D01*
X165958288Y-90974036D01*
X166130041Y-91008200D01*
X166305159Y-91008200D01*
X166476912Y-90974036D01*
X166638699Y-90907021D01*
X166784304Y-90809731D01*
X166908131Y-90685904D01*
X167005421Y-90540299D01*
X167072436Y-90378512D01*
X167106600Y-90206759D01*
X167106600Y-90031641D01*
X167077955Y-89887633D01*
X170948124Y-89887633D01*
X170948124Y-90062751D01*
X170982288Y-90234504D01*
X171049303Y-90396291D01*
X171146593Y-90541896D01*
X171221400Y-90616703D01*
X171221400Y-90663959D01*
X171255564Y-90835712D01*
X171322579Y-90997499D01*
X171419869Y-91143104D01*
X171543696Y-91266931D01*
X171689301Y-91364221D01*
X171851088Y-91431236D01*
X172022841Y-91465400D01*
X172197959Y-91465400D01*
X172369712Y-91431236D01*
X172531499Y-91364221D01*
X172677104Y-91266931D01*
X172800931Y-91143104D01*
X172898221Y-90997499D01*
X172965236Y-90835712D01*
X172999400Y-90663959D01*
X172999400Y-90538273D01*
X173070288Y-90567636D01*
X173242041Y-90601800D01*
X173417159Y-90601800D01*
X173588912Y-90567636D01*
X173750699Y-90500621D01*
X173896304Y-90403331D01*
X174020131Y-90279504D01*
X174117421Y-90133899D01*
X174184436Y-89972112D01*
X174218600Y-89800359D01*
X174218600Y-89625241D01*
X174184436Y-89453488D01*
X174117421Y-89291701D01*
X174020131Y-89146096D01*
X173896304Y-89022269D01*
X173750699Y-88924979D01*
X173690395Y-88900000D01*
X179101815Y-88900000D01*
X179130487Y-89191111D01*
X179215401Y-89471034D01*
X179353294Y-89729014D01*
X179538866Y-89955134D01*
X179764986Y-90140706D01*
X179819791Y-90170000D01*
X179764986Y-90199294D01*
X179538866Y-90384866D01*
X179353294Y-90610986D01*
X179215401Y-90868966D01*
X179130487Y-91148889D01*
X179101815Y-91440000D01*
X179130487Y-91731111D01*
X179215401Y-92011034D01*
X179353294Y-92269014D01*
X179538866Y-92495134D01*
X179764986Y-92680706D01*
X179819791Y-92710000D01*
X179764986Y-92739294D01*
X179538866Y-92924866D01*
X179353294Y-93150986D01*
X179215401Y-93408966D01*
X179130487Y-93688889D01*
X179101815Y-93980000D01*
X179130487Y-94271111D01*
X179215401Y-94551034D01*
X179353294Y-94809014D01*
X179538866Y-95035134D01*
X179764986Y-95220706D01*
X180022966Y-95358599D01*
X180302889Y-95443513D01*
X180521050Y-95465000D01*
X180666950Y-95465000D01*
X180885111Y-95443513D01*
X181165034Y-95358599D01*
X181423014Y-95220706D01*
X181649134Y-95035134D01*
X181834706Y-94809014D01*
X181972599Y-94551034D01*
X182057513Y-94271111D01*
X182086185Y-93980000D01*
X182057513Y-93688889D01*
X181972599Y-93408966D01*
X181834706Y-93150986D01*
X181649134Y-92924866D01*
X181423014Y-92739294D01*
X181368209Y-92710000D01*
X181423014Y-92680706D01*
X181649134Y-92495134D01*
X181834706Y-92269014D01*
X181972599Y-92011034D01*
X182057513Y-91731111D01*
X182086185Y-91440000D01*
X182057513Y-91148889D01*
X181972599Y-90868966D01*
X181834706Y-90610986D01*
X181649134Y-90384866D01*
X181423014Y-90199294D01*
X181368209Y-90170000D01*
X181423014Y-90140706D01*
X181649134Y-89955134D01*
X181834706Y-89729014D01*
X181972599Y-89471034D01*
X182057513Y-89191111D01*
X182086185Y-88900000D01*
X182057513Y-88608889D01*
X181972599Y-88328966D01*
X181834706Y-88070986D01*
X181649134Y-87844866D01*
X181619313Y-87820393D01*
X181688180Y-87799502D01*
X181798494Y-87740537D01*
X181895185Y-87661185D01*
X181974537Y-87564494D01*
X182033502Y-87454180D01*
X182069812Y-87334482D01*
X182082072Y-87210000D01*
X182079000Y-86645750D01*
X181920250Y-86487000D01*
X180721000Y-86487000D01*
X180721000Y-86507000D01*
X180467000Y-86507000D01*
X180467000Y-86487000D01*
X179267750Y-86487000D01*
X179109000Y-86645750D01*
X179105928Y-87210000D01*
X179118188Y-87334482D01*
X179154498Y-87454180D01*
X179213463Y-87564494D01*
X179292815Y-87661185D01*
X179389506Y-87740537D01*
X179499820Y-87799502D01*
X179568687Y-87820393D01*
X179538866Y-87844866D01*
X179353294Y-88070986D01*
X179215401Y-88328966D01*
X179130487Y-88608889D01*
X179101815Y-88900000D01*
X173690395Y-88900000D01*
X173631985Y-88875806D01*
X173625636Y-88843888D01*
X173558621Y-88682101D01*
X173461331Y-88536496D01*
X173337504Y-88412669D01*
X173191899Y-88315379D01*
X173030112Y-88248364D01*
X172858359Y-88214200D01*
X172683241Y-88214200D01*
X172511488Y-88248364D01*
X172349701Y-88315379D01*
X172204096Y-88412669D01*
X172080269Y-88536496D01*
X171982979Y-88682101D01*
X171915964Y-88843888D01*
X171881800Y-89015641D01*
X171881800Y-89086192D01*
X171749565Y-89086192D01*
X171577812Y-89120356D01*
X171416025Y-89187371D01*
X171270420Y-89284661D01*
X171146593Y-89408488D01*
X171049303Y-89554093D01*
X170982288Y-89715880D01*
X170948124Y-89887633D01*
X167077955Y-89887633D01*
X167072436Y-89859888D01*
X167005421Y-89698101D01*
X166908131Y-89552496D01*
X166784304Y-89428669D01*
X166638699Y-89331379D01*
X166476912Y-89264364D01*
X166305159Y-89230200D01*
X166130041Y-89230200D01*
X165958288Y-89264364D01*
X165796501Y-89331379D01*
X165650896Y-89428669D01*
X165527069Y-89552496D01*
X165429779Y-89698101D01*
X165362764Y-89859888D01*
X165328600Y-90031641D01*
X125120000Y-90031641D01*
X125120000Y-86817200D01*
X125304615Y-86817200D01*
X125333287Y-87108311D01*
X125418201Y-87388234D01*
X125556094Y-87646214D01*
X125741666Y-87872334D01*
X125967786Y-88057906D01*
X126225766Y-88195799D01*
X126505689Y-88280713D01*
X126723850Y-88302200D01*
X126869750Y-88302200D01*
X127087911Y-88280713D01*
X127367834Y-88195799D01*
X127625814Y-88057906D01*
X127851934Y-87872334D01*
X128037506Y-87646214D01*
X128121717Y-87488665D01*
X141988000Y-87488665D01*
X141988000Y-87771335D01*
X142043147Y-88048574D01*
X142151320Y-88309727D01*
X142308363Y-88544759D01*
X142508241Y-88744637D01*
X142743273Y-88901680D01*
X143004426Y-89009853D01*
X143281665Y-89065000D01*
X143564335Y-89065000D01*
X143841574Y-89009853D01*
X144102727Y-88901680D01*
X144337759Y-88744637D01*
X144537637Y-88544759D01*
X144694680Y-88309727D01*
X144802853Y-88048574D01*
X144858000Y-87771335D01*
X144858000Y-87488665D01*
X146988000Y-87488665D01*
X146988000Y-87771335D01*
X147043147Y-88048574D01*
X147151320Y-88309727D01*
X147308363Y-88544759D01*
X147508241Y-88744637D01*
X147743273Y-88901680D01*
X148004426Y-89009853D01*
X148281665Y-89065000D01*
X148564335Y-89065000D01*
X148841574Y-89009853D01*
X149102727Y-88901680D01*
X149337759Y-88744637D01*
X149537637Y-88544759D01*
X149694680Y-88309727D01*
X149802853Y-88048574D01*
X149858000Y-87771335D01*
X149858000Y-87488665D01*
X149802853Y-87211426D01*
X149694680Y-86950273D01*
X149537637Y-86715241D01*
X149337759Y-86515363D01*
X149102727Y-86358320D01*
X148841574Y-86250147D01*
X148564335Y-86195000D01*
X148281665Y-86195000D01*
X148004426Y-86250147D01*
X147743273Y-86358320D01*
X147508241Y-86515363D01*
X147308363Y-86715241D01*
X147151320Y-86950273D01*
X147043147Y-87211426D01*
X146988000Y-87488665D01*
X144858000Y-87488665D01*
X144802853Y-87211426D01*
X144694680Y-86950273D01*
X144537637Y-86715241D01*
X144337759Y-86515363D01*
X144102727Y-86358320D01*
X143841574Y-86250147D01*
X143564335Y-86195000D01*
X143281665Y-86195000D01*
X143004426Y-86250147D01*
X142743273Y-86358320D01*
X142508241Y-86515363D01*
X142308363Y-86715241D01*
X142151320Y-86950273D01*
X142043147Y-87211426D01*
X141988000Y-87488665D01*
X128121717Y-87488665D01*
X128175399Y-87388234D01*
X128260313Y-87108311D01*
X128288985Y-86817200D01*
X128260313Y-86526089D01*
X128175399Y-86246166D01*
X128037506Y-85988186D01*
X127851934Y-85762066D01*
X127822113Y-85737593D01*
X127890980Y-85716702D01*
X128001294Y-85657737D01*
X128097985Y-85578385D01*
X128154106Y-85510000D01*
X179105928Y-85510000D01*
X179109000Y-86074250D01*
X179267750Y-86233000D01*
X180467000Y-86233000D01*
X180467000Y-85033750D01*
X180721000Y-85033750D01*
X180721000Y-86233000D01*
X181920250Y-86233000D01*
X182079000Y-86074250D01*
X182082072Y-85510000D01*
X182069812Y-85385518D01*
X182033502Y-85265820D01*
X181974537Y-85155506D01*
X181895185Y-85058815D01*
X181798494Y-84979463D01*
X181688180Y-84920498D01*
X181568482Y-84884188D01*
X181444000Y-84871928D01*
X180879750Y-84875000D01*
X180721000Y-85033750D01*
X180467000Y-85033750D01*
X180308250Y-84875000D01*
X179744000Y-84871928D01*
X179619518Y-84884188D01*
X179499820Y-84920498D01*
X179389506Y-84979463D01*
X179292815Y-85058815D01*
X179213463Y-85155506D01*
X179154498Y-85265820D01*
X179118188Y-85385518D01*
X179105928Y-85510000D01*
X128154106Y-85510000D01*
X128177337Y-85481694D01*
X128236302Y-85371380D01*
X128272612Y-85251682D01*
X128284872Y-85127200D01*
X128284872Y-83427200D01*
X128275101Y-83327989D01*
X130481000Y-83327989D01*
X130481000Y-83600811D01*
X130534225Y-83868389D01*
X130638629Y-84120443D01*
X130790201Y-84347286D01*
X130983114Y-84540199D01*
X131209957Y-84691771D01*
X131462011Y-84796175D01*
X131729589Y-84849400D01*
X132002411Y-84849400D01*
X132269989Y-84796175D01*
X132522043Y-84691771D01*
X132748886Y-84540199D01*
X132941799Y-84347286D01*
X133093371Y-84120443D01*
X133197775Y-83868389D01*
X133251000Y-83600811D01*
X133251000Y-83327989D01*
X135481000Y-83327989D01*
X135481000Y-83600811D01*
X135534225Y-83868389D01*
X135638629Y-84120443D01*
X135790201Y-84347286D01*
X135983114Y-84540199D01*
X136209957Y-84691771D01*
X136462011Y-84796175D01*
X136729589Y-84849400D01*
X137002411Y-84849400D01*
X137269989Y-84796175D01*
X137522043Y-84691771D01*
X137748886Y-84540199D01*
X137845444Y-84443641D01*
X160248600Y-84443641D01*
X160248600Y-84618759D01*
X160282764Y-84790512D01*
X160349779Y-84952299D01*
X160447069Y-85097904D01*
X160570896Y-85221731D01*
X160716501Y-85319021D01*
X160878288Y-85386036D01*
X161050041Y-85420200D01*
X161225159Y-85420200D01*
X161396912Y-85386036D01*
X161558699Y-85319021D01*
X161704304Y-85221731D01*
X161828131Y-85097904D01*
X161925421Y-84952299D01*
X161992436Y-84790512D01*
X162026600Y-84618759D01*
X162026600Y-84443641D01*
X161992436Y-84271888D01*
X161925421Y-84110101D01*
X161828131Y-83964496D01*
X161704304Y-83840669D01*
X161558699Y-83743379D01*
X161396912Y-83676364D01*
X161225159Y-83642200D01*
X161050041Y-83642200D01*
X160878288Y-83676364D01*
X160716501Y-83743379D01*
X160570896Y-83840669D01*
X160447069Y-83964496D01*
X160349779Y-84110101D01*
X160282764Y-84271888D01*
X160248600Y-84443641D01*
X137845444Y-84443641D01*
X137941799Y-84347286D01*
X138093371Y-84120443D01*
X138197775Y-83868389D01*
X138251000Y-83600811D01*
X138251000Y-83327989D01*
X138197775Y-83060411D01*
X138107721Y-82843000D01*
X163611928Y-82843000D01*
X163611928Y-84543000D01*
X163624188Y-84667482D01*
X163660498Y-84787180D01*
X163719463Y-84897494D01*
X163798815Y-84994185D01*
X163895506Y-85073537D01*
X164005820Y-85132502D01*
X164125518Y-85168812D01*
X164250000Y-85181072D01*
X165950000Y-85181072D01*
X166074482Y-85168812D01*
X166194180Y-85132502D01*
X166304494Y-85073537D01*
X166401185Y-84994185D01*
X166480537Y-84897494D01*
X166539502Y-84787180D01*
X166563966Y-84706534D01*
X166639731Y-84790588D01*
X166873080Y-84964641D01*
X167135901Y-85089825D01*
X167283110Y-85134476D01*
X167513000Y-85013155D01*
X167513000Y-83820000D01*
X167767000Y-83820000D01*
X167767000Y-85013155D01*
X167996890Y-85134476D01*
X168144099Y-85089825D01*
X168406920Y-84964641D01*
X168640269Y-84790588D01*
X168835178Y-84574355D01*
X168984157Y-84324252D01*
X169081481Y-84049891D01*
X168960814Y-83820000D01*
X167767000Y-83820000D01*
X167513000Y-83820000D01*
X167493000Y-83820000D01*
X167493000Y-83566000D01*
X167513000Y-83566000D01*
X167513000Y-82372845D01*
X167767000Y-82372845D01*
X167767000Y-83566000D01*
X168960814Y-83566000D01*
X169081481Y-83336109D01*
X168984157Y-83061748D01*
X168835178Y-82811645D01*
X168640269Y-82595412D01*
X168406920Y-82421359D01*
X168144099Y-82296175D01*
X167996890Y-82251524D01*
X167767000Y-82372845D01*
X167513000Y-82372845D01*
X167283110Y-82251524D01*
X167135901Y-82296175D01*
X166873080Y-82421359D01*
X166639731Y-82595412D01*
X166563966Y-82679466D01*
X166539502Y-82598820D01*
X166480537Y-82488506D01*
X166401185Y-82391815D01*
X166304494Y-82312463D01*
X166194180Y-82253498D01*
X166074482Y-82217188D01*
X165950000Y-82204928D01*
X164250000Y-82204928D01*
X164125518Y-82217188D01*
X164005820Y-82253498D01*
X163895506Y-82312463D01*
X163798815Y-82391815D01*
X163719463Y-82488506D01*
X163660498Y-82598820D01*
X163624188Y-82718518D01*
X163611928Y-82843000D01*
X138107721Y-82843000D01*
X138093371Y-82808357D01*
X137941799Y-82581514D01*
X137748886Y-82388601D01*
X137522043Y-82237029D01*
X137269989Y-82132625D01*
X137002411Y-82079400D01*
X136729589Y-82079400D01*
X136462011Y-82132625D01*
X136209957Y-82237029D01*
X135983114Y-82388601D01*
X135790201Y-82581514D01*
X135638629Y-82808357D01*
X135534225Y-83060411D01*
X135481000Y-83327989D01*
X133251000Y-83327989D01*
X133197775Y-83060411D01*
X133093371Y-82808357D01*
X132941799Y-82581514D01*
X132748886Y-82388601D01*
X132522043Y-82237029D01*
X132269989Y-82132625D01*
X132002411Y-82079400D01*
X131729589Y-82079400D01*
X131462011Y-82132625D01*
X131209957Y-82237029D01*
X130983114Y-82388601D01*
X130790201Y-82581514D01*
X130638629Y-82808357D01*
X130534225Y-83060411D01*
X130481000Y-83327989D01*
X128275101Y-83327989D01*
X128272612Y-83302718D01*
X128236302Y-83183020D01*
X128177337Y-83072706D01*
X128097985Y-82976015D01*
X128001294Y-82896663D01*
X127890980Y-82837698D01*
X127771282Y-82801388D01*
X127646800Y-82789128D01*
X125946800Y-82789128D01*
X125822318Y-82801388D01*
X125702620Y-82837698D01*
X125592306Y-82896663D01*
X125495615Y-82976015D01*
X125416263Y-83072706D01*
X125357298Y-83183020D01*
X125320988Y-83302718D01*
X125308728Y-83427200D01*
X125308728Y-85127200D01*
X125320988Y-85251682D01*
X125357298Y-85371380D01*
X125416263Y-85481694D01*
X125495615Y-85578385D01*
X125592306Y-85657737D01*
X125702620Y-85716702D01*
X125771487Y-85737593D01*
X125741666Y-85762066D01*
X125556094Y-85988186D01*
X125418201Y-86246166D01*
X125333287Y-86526089D01*
X125304615Y-86817200D01*
X125120000Y-86817200D01*
X125120000Y-77249872D01*
X126035000Y-77249872D01*
X126035000Y-77690128D01*
X126120890Y-78121925D01*
X126289369Y-78528669D01*
X126533962Y-78894729D01*
X126845271Y-79206038D01*
X127211331Y-79450631D01*
X127618075Y-79619110D01*
X128049872Y-79705000D01*
X128490128Y-79705000D01*
X128921925Y-79619110D01*
X129328669Y-79450631D01*
X129694729Y-79206038D01*
X130006038Y-78894729D01*
X130250631Y-78528669D01*
X130419110Y-78121925D01*
X130505000Y-77690128D01*
X130505000Y-77249872D01*
X130419110Y-76818075D01*
X130250631Y-76411331D01*
X130006038Y-76045271D01*
X129694729Y-75733962D01*
X129328669Y-75489369D01*
X128921925Y-75320890D01*
X128490128Y-75235000D01*
X128049872Y-75235000D01*
X127618075Y-75320890D01*
X127211331Y-75489369D01*
X126845271Y-75733962D01*
X126533962Y-76045271D01*
X126289369Y-76411331D01*
X126120890Y-76818075D01*
X126035000Y-77249872D01*
X125120000Y-77249872D01*
X125120000Y-75096000D01*
X161071928Y-75096000D01*
X161071928Y-76796000D01*
X161084188Y-76920482D01*
X161120498Y-77040180D01*
X161179463Y-77150494D01*
X161258815Y-77247185D01*
X161355506Y-77326537D01*
X161465820Y-77385502D01*
X161585518Y-77421812D01*
X161710000Y-77434072D01*
X163410000Y-77434072D01*
X163534482Y-77421812D01*
X163654180Y-77385502D01*
X163764494Y-77326537D01*
X163861185Y-77247185D01*
X163940537Y-77150494D01*
X163999502Y-77040180D01*
X164020393Y-76971313D01*
X164044866Y-77001134D01*
X164270986Y-77186706D01*
X164528966Y-77324599D01*
X164808889Y-77409513D01*
X165027050Y-77431000D01*
X165172950Y-77431000D01*
X165391111Y-77409513D01*
X165671034Y-77324599D01*
X165929014Y-77186706D01*
X166155134Y-77001134D01*
X166340706Y-76775014D01*
X166370000Y-76720209D01*
X166399294Y-76775014D01*
X166584866Y-77001134D01*
X166810986Y-77186706D01*
X167068966Y-77324599D01*
X167348889Y-77409513D01*
X167567050Y-77431000D01*
X167712950Y-77431000D01*
X167931111Y-77409513D01*
X168211034Y-77324599D01*
X168469014Y-77186706D01*
X168695134Y-77001134D01*
X168880706Y-76775014D01*
X168915201Y-76710477D01*
X168984822Y-76827355D01*
X169179731Y-77043588D01*
X169413080Y-77217641D01*
X169675901Y-77342825D01*
X169823110Y-77387476D01*
X170053000Y-77266155D01*
X170053000Y-76073000D01*
X170307000Y-76073000D01*
X170307000Y-77266155D01*
X170536890Y-77387476D01*
X170684099Y-77342825D01*
X170879251Y-77249872D01*
X176835000Y-77249872D01*
X176835000Y-77690128D01*
X176920890Y-78121925D01*
X177089369Y-78528669D01*
X177333962Y-78894729D01*
X177645271Y-79206038D01*
X178011331Y-79450631D01*
X178418075Y-79619110D01*
X178849872Y-79705000D01*
X179290128Y-79705000D01*
X179721925Y-79619110D01*
X180128669Y-79450631D01*
X180494729Y-79206038D01*
X180806038Y-78894729D01*
X181050631Y-78528669D01*
X181219110Y-78121925D01*
X181305000Y-77690128D01*
X181305000Y-77249872D01*
X181219110Y-76818075D01*
X181050631Y-76411331D01*
X180806038Y-76045271D01*
X180494729Y-75733962D01*
X180128669Y-75489369D01*
X179721925Y-75320890D01*
X179290128Y-75235000D01*
X178849872Y-75235000D01*
X178418075Y-75320890D01*
X178011331Y-75489369D01*
X177645271Y-75733962D01*
X177333962Y-76045271D01*
X177089369Y-76411331D01*
X176920890Y-76818075D01*
X176835000Y-77249872D01*
X170879251Y-77249872D01*
X170946920Y-77217641D01*
X171180269Y-77043588D01*
X171375178Y-76827355D01*
X171524157Y-76577252D01*
X171621481Y-76302891D01*
X171500814Y-76073000D01*
X170307000Y-76073000D01*
X170053000Y-76073000D01*
X170033000Y-76073000D01*
X170033000Y-75819000D01*
X170053000Y-75819000D01*
X170053000Y-74625845D01*
X170307000Y-74625845D01*
X170307000Y-75819000D01*
X171500814Y-75819000D01*
X171621481Y-75589109D01*
X171524157Y-75314748D01*
X171375178Y-75064645D01*
X171180269Y-74848412D01*
X170946920Y-74674359D01*
X170684099Y-74549175D01*
X170536890Y-74504524D01*
X170307000Y-74625845D01*
X170053000Y-74625845D01*
X169823110Y-74504524D01*
X169675901Y-74549175D01*
X169413080Y-74674359D01*
X169179731Y-74848412D01*
X168984822Y-75064645D01*
X168915201Y-75181523D01*
X168880706Y-75116986D01*
X168695134Y-74890866D01*
X168469014Y-74705294D01*
X168211034Y-74567401D01*
X167931111Y-74482487D01*
X167712950Y-74461000D01*
X167567050Y-74461000D01*
X167348889Y-74482487D01*
X167068966Y-74567401D01*
X166810986Y-74705294D01*
X166584866Y-74890866D01*
X166399294Y-75116986D01*
X166370000Y-75171791D01*
X166340706Y-75116986D01*
X166155134Y-74890866D01*
X165929014Y-74705294D01*
X165671034Y-74567401D01*
X165391111Y-74482487D01*
X165172950Y-74461000D01*
X165027050Y-74461000D01*
X164808889Y-74482487D01*
X164528966Y-74567401D01*
X164270986Y-74705294D01*
X164044866Y-74890866D01*
X164020393Y-74920687D01*
X163999502Y-74851820D01*
X163940537Y-74741506D01*
X163861185Y-74644815D01*
X163764494Y-74565463D01*
X163654180Y-74506498D01*
X163534482Y-74470188D01*
X163410000Y-74457928D01*
X161710000Y-74457928D01*
X161585518Y-74470188D01*
X161465820Y-74506498D01*
X161355506Y-74565463D01*
X161258815Y-74644815D01*
X161179463Y-74741506D01*
X161120498Y-74851820D01*
X161084188Y-74971518D01*
X161071928Y-75096000D01*
X125120000Y-75096000D01*
X125120000Y-74320000D01*
X182220000Y-74320000D01*
X182220001Y-118720000D01*
X182220001Y-118720000D01*
G37*
X182220001Y-118720000D02*
X125120000Y-118720000D01*
X125120000Y-115349872D01*
X126035000Y-115349872D01*
X126035000Y-115790128D01*
X126120890Y-116221925D01*
X126289369Y-116628669D01*
X126533962Y-116994729D01*
X126845271Y-117306038D01*
X127211331Y-117550631D01*
X127618075Y-117719110D01*
X128049872Y-117805000D01*
X128490128Y-117805000D01*
X128921925Y-117719110D01*
X129328669Y-117550631D01*
X129694729Y-117306038D01*
X130006038Y-116994729D01*
X130250631Y-116628669D01*
X130409966Y-116244000D01*
X161071928Y-116244000D01*
X161071928Y-117944000D01*
X161084188Y-118068482D01*
X161120498Y-118188180D01*
X161179463Y-118298494D01*
X161258815Y-118395185D01*
X161355506Y-118474537D01*
X161465820Y-118533502D01*
X161585518Y-118569812D01*
X161710000Y-118582072D01*
X163410000Y-118582072D01*
X163534482Y-118569812D01*
X163654180Y-118533502D01*
X163764494Y-118474537D01*
X163861185Y-118395185D01*
X163940537Y-118298494D01*
X163999502Y-118188180D01*
X164020393Y-118119313D01*
X164044866Y-118149134D01*
X164270986Y-118334706D01*
X164528966Y-118472599D01*
X164808889Y-118557513D01*
X165027050Y-118579000D01*
X165172950Y-118579000D01*
X165391111Y-118557513D01*
X165671034Y-118472599D01*
X165929014Y-118334706D01*
X166155134Y-118149134D01*
X166340706Y-117923014D01*
X166370000Y-117868209D01*
X166399294Y-117923014D01*
X166584866Y-118149134D01*
X166810986Y-118334706D01*
X167068966Y-118472599D01*
X167348889Y-118557513D01*
X167567050Y-118579000D01*
X167712950Y-118579000D01*
X167931111Y-118557513D01*
X168211034Y-118472599D01*
X168469014Y-118334706D01*
X168695134Y-118149134D01*
X168880706Y-117923014D01*
X168910000Y-117868209D01*
X168939294Y-117923014D01*
X169124866Y-118149134D01*
X169350986Y-118334706D01*
X169608966Y-118472599D01*
X169888889Y-118557513D01*
X170107050Y-118579000D01*
X170252950Y-118579000D01*
X170471111Y-118557513D01*
X170751034Y-118472599D01*
X171009014Y-118334706D01*
X171235134Y-118149134D01*
X171420706Y-117923014D01*
X171558599Y-117665034D01*
X171643513Y-117385111D01*
X171672185Y-117094000D01*
X171643513Y-116802889D01*
X171558599Y-116522966D01*
X171420706Y-116264986D01*
X171235134Y-116038866D01*
X171009014Y-115853294D01*
X170751034Y-115715401D01*
X170471111Y-115630487D01*
X170252950Y-115609000D01*
X170107050Y-115609000D01*
X169888889Y-115630487D01*
X169608966Y-115715401D01*
X169350986Y-115853294D01*
X169124866Y-116038866D01*
X168939294Y-116264986D01*
X168910000Y-116319791D01*
X168880706Y-116264986D01*
X168695134Y-116038866D01*
X168469014Y-115853294D01*
X168211034Y-115715401D01*
X167931111Y-115630487D01*
X167712950Y-115609000D01*
X167567050Y-115609000D01*
X167348889Y-115630487D01*
X167068966Y-115715401D01*
X166810986Y-115853294D01*
X166584866Y-116038866D01*
X166399294Y-116264986D01*
X166370000Y-116319791D01*
X166340706Y-116264986D01*
X166155134Y-116038866D01*
X165929014Y-115853294D01*
X165671034Y-115715401D01*
X165391111Y-115630487D01*
X165172950Y-115609000D01*
X165027050Y-115609000D01*
X164808889Y-115630487D01*
X164528966Y-115715401D01*
X164270986Y-115853294D01*
X164044866Y-116038866D01*
X164020393Y-116068687D01*
X163999502Y-115999820D01*
X163940537Y-115889506D01*
X163861185Y-115792815D01*
X163764494Y-115713463D01*
X163654180Y-115654498D01*
X163534482Y-115618188D01*
X163410000Y-115605928D01*
X161710000Y-115605928D01*
X161585518Y-115618188D01*
X161465820Y-115654498D01*
X161355506Y-115713463D01*
X161258815Y-115792815D01*
X161179463Y-115889506D01*
X161120498Y-115999820D01*
X161084188Y-116119518D01*
X161071928Y-116244000D01*
X130409966Y-116244000D01*
X130419110Y-116221925D01*
X130505000Y-115790128D01*
X130505000Y-115349872D01*
X176835000Y-115349872D01*
X176835000Y-115790128D01*
X176920890Y-116221925D01*
X177089369Y-116628669D01*
X177333962Y-116994729D01*
X177645271Y-117306038D01*
X178011331Y-117550631D01*
X178418075Y-117719110D01*
X178849872Y-117805000D01*
X179290128Y-117805000D01*
X179721925Y-117719110D01*
X180128669Y-117550631D01*
X180494729Y-117306038D01*
X180806038Y-116994729D01*
X181050631Y-116628669D01*
X181219110Y-116221925D01*
X181305000Y-115790128D01*
X181305000Y-115349872D01*
X181219110Y-114918075D01*
X181050631Y-114511331D01*
X180806038Y-114145271D01*
X180494729Y-113833962D01*
X180128669Y-113589369D01*
X179721925Y-113420890D01*
X179290128Y-113335000D01*
X178849872Y-113335000D01*
X178418075Y-113420890D01*
X178011331Y-113589369D01*
X177645271Y-113833962D01*
X177333962Y-114145271D01*
X177089369Y-114511331D01*
X176920890Y-114918075D01*
X176835000Y-115349872D01*
X130505000Y-115349872D01*
X130419110Y-114918075D01*
X130250631Y-114511331D01*
X130050920Y-114212441D01*
X158877000Y-114212441D01*
X158877000Y-114387559D01*
X158911164Y-114559312D01*
X158978179Y-114721099D01*
X159075469Y-114866704D01*
X159199296Y-114990531D01*
X159344901Y-115087821D01*
X159506688Y-115154836D01*
X159678441Y-115189000D01*
X159853559Y-115189000D01*
X160025312Y-115154836D01*
X160187099Y-115087821D01*
X160332704Y-114990531D01*
X160456531Y-114866704D01*
X160553821Y-114721099D01*
X160620836Y-114559312D01*
X160655000Y-114387559D01*
X160655000Y-114212441D01*
X160620836Y-114040688D01*
X160553821Y-113878901D01*
X160456531Y-113733296D01*
X160332704Y-113609469D01*
X160187099Y-113512179D01*
X160025312Y-113445164D01*
X159853559Y-113411000D01*
X159678441Y-113411000D01*
X159506688Y-113445164D01*
X159344901Y-113512179D01*
X159199296Y-113609469D01*
X159075469Y-113733296D01*
X158978179Y-113878901D01*
X158911164Y-114040688D01*
X158877000Y-114212441D01*
X130050920Y-114212441D01*
X130006038Y-114145271D01*
X129694729Y-113833962D01*
X129328669Y-113589369D01*
X128921925Y-113420890D01*
X128490128Y-113335000D01*
X128049872Y-113335000D01*
X127618075Y-113420890D01*
X127211331Y-113589369D01*
X126845271Y-113833962D01*
X126533962Y-114145271D01*
X126289369Y-114511331D01*
X126120890Y-114918075D01*
X126035000Y-115349872D01*
X125120000Y-115349872D01*
X125120000Y-109677200D01*
X125304615Y-109677200D01*
X125333287Y-109968311D01*
X125418201Y-110248234D01*
X125556094Y-110506214D01*
X125741666Y-110732334D01*
X125967786Y-110917906D01*
X126225766Y-111055799D01*
X126505689Y-111140713D01*
X126723850Y-111162200D01*
X126869750Y-111162200D01*
X127087911Y-111140713D01*
X127367834Y-111055799D01*
X127625814Y-110917906D01*
X127851934Y-110732334D01*
X127914217Y-110656441D01*
X133578600Y-110656441D01*
X133578600Y-110831559D01*
X133612764Y-111003312D01*
X133679779Y-111165099D01*
X133777069Y-111310704D01*
X133900896Y-111434531D01*
X134046501Y-111531821D01*
X134208288Y-111598836D01*
X134380041Y-111633000D01*
X134555159Y-111633000D01*
X134726912Y-111598836D01*
X134888699Y-111531821D01*
X135034304Y-111434531D01*
X135158131Y-111310704D01*
X135255421Y-111165099D01*
X135322436Y-111003312D01*
X135356600Y-110831559D01*
X135356600Y-110656441D01*
X135322436Y-110484688D01*
X135255421Y-110322901D01*
X135158131Y-110177296D01*
X135034304Y-110053469D01*
X134888699Y-109956179D01*
X134726912Y-109889164D01*
X134555159Y-109855000D01*
X134380041Y-109855000D01*
X134208288Y-109889164D01*
X134046501Y-109956179D01*
X133900896Y-110053469D01*
X133777069Y-110177296D01*
X133679779Y-110322901D01*
X133612764Y-110484688D01*
X133578600Y-110656441D01*
X127914217Y-110656441D01*
X128037506Y-110506214D01*
X128175399Y-110248234D01*
X128260313Y-109968311D01*
X128288985Y-109677200D01*
X128260313Y-109386089D01*
X128175399Y-109106166D01*
X128037506Y-108848186D01*
X127851934Y-108622066D01*
X127625814Y-108436494D01*
X127561277Y-108401999D01*
X127678155Y-108332378D01*
X127894388Y-108137469D01*
X128068441Y-107904120D01*
X128193625Y-107641299D01*
X128238276Y-107494090D01*
X128116955Y-107264200D01*
X126923800Y-107264200D01*
X126923800Y-107284200D01*
X126669800Y-107284200D01*
X126669800Y-107264200D01*
X125476645Y-107264200D01*
X125355324Y-107494090D01*
X125399975Y-107641299D01*
X125525159Y-107904120D01*
X125699212Y-108137469D01*
X125915445Y-108332378D01*
X126032323Y-108401999D01*
X125967786Y-108436494D01*
X125741666Y-108622066D01*
X125556094Y-108848186D01*
X125418201Y-109106166D01*
X125333287Y-109386089D01*
X125304615Y-109677200D01*
X125120000Y-109677200D01*
X125120000Y-107100441D01*
X134848600Y-107100441D01*
X134848600Y-107275559D01*
X134882764Y-107447312D01*
X134949779Y-107609099D01*
X135047069Y-107754704D01*
X135170896Y-107878531D01*
X135316501Y-107975821D01*
X135478288Y-108042836D01*
X135650041Y-108077000D01*
X135825159Y-108077000D01*
X135996912Y-108042836D01*
X136158699Y-107975821D01*
X136304304Y-107878531D01*
X136428131Y-107754704D01*
X136525421Y-107609099D01*
X136592436Y-107447312D01*
X136601200Y-107403253D01*
X136609964Y-107447312D01*
X136676979Y-107609099D01*
X136774269Y-107754704D01*
X136898096Y-107878531D01*
X137043701Y-107975821D01*
X137205488Y-108042836D01*
X137377241Y-108077000D01*
X137552359Y-108077000D01*
X137724112Y-108042836D01*
X137885899Y-107975821D01*
X138031504Y-107878531D01*
X138155331Y-107754704D01*
X138252621Y-107609099D01*
X138319636Y-107447312D01*
X138353800Y-107275559D01*
X138353800Y-107100441D01*
X138319636Y-106928688D01*
X138252621Y-106766901D01*
X138155331Y-106621296D01*
X138031504Y-106497469D01*
X137885899Y-106400179D01*
X137724112Y-106333164D01*
X137552359Y-106299000D01*
X137377241Y-106299000D01*
X137205488Y-106333164D01*
X137043701Y-106400179D01*
X136898096Y-106497469D01*
X136774269Y-106621296D01*
X136676979Y-106766901D01*
X136609964Y-106928688D01*
X136601200Y-106972747D01*
X136592436Y-106928688D01*
X136525421Y-106766901D01*
X136428131Y-106621296D01*
X136304304Y-106497469D01*
X136158699Y-106400179D01*
X135996912Y-106333164D01*
X135825159Y-106299000D01*
X135650041Y-106299000D01*
X135478288Y-106333164D01*
X135316501Y-106400179D01*
X135170896Y-106497469D01*
X135047069Y-106621296D01*
X134949779Y-106766901D01*
X134882764Y-106928688D01*
X134848600Y-107100441D01*
X125120000Y-107100441D01*
X125120000Y-102057200D01*
X125304615Y-102057200D01*
X125333287Y-102348311D01*
X125418201Y-102628234D01*
X125556094Y-102886214D01*
X125741666Y-103112334D01*
X125967786Y-103297906D01*
X126022591Y-103327200D01*
X125967786Y-103356494D01*
X125741666Y-103542066D01*
X125556094Y-103768186D01*
X125418201Y-104026166D01*
X125333287Y-104306089D01*
X125304615Y-104597200D01*
X125333287Y-104888311D01*
X125418201Y-105168234D01*
X125556094Y-105426214D01*
X125741666Y-105652334D01*
X125967786Y-105837906D01*
X126032323Y-105872401D01*
X125915445Y-105942022D01*
X125699212Y-106136931D01*
X125525159Y-106370280D01*
X125399975Y-106633101D01*
X125355324Y-106780310D01*
X125476645Y-107010200D01*
X126669800Y-107010200D01*
X126669800Y-106990200D01*
X126923800Y-106990200D01*
X126923800Y-107010200D01*
X128116955Y-107010200D01*
X128238276Y-106780310D01*
X128193625Y-106633101D01*
X128068441Y-106370280D01*
X127894388Y-106136931D01*
X127678155Y-105942022D01*
X127561277Y-105872401D01*
X127625814Y-105837906D01*
X127851934Y-105652334D01*
X128037506Y-105426214D01*
X128175399Y-105168234D01*
X128260313Y-104888311D01*
X128288985Y-104597200D01*
X128260313Y-104306089D01*
X128175399Y-104026166D01*
X128037506Y-103768186D01*
X127851934Y-103542066D01*
X127625814Y-103356494D01*
X127571009Y-103327200D01*
X127625814Y-103297906D01*
X127851934Y-103112334D01*
X128037506Y-102886214D01*
X128175399Y-102628234D01*
X128260313Y-102348311D01*
X128273702Y-102212370D01*
X128978200Y-102212370D01*
X128978200Y-102613230D01*
X129056404Y-103006387D01*
X129209807Y-103376734D01*
X129432513Y-103710037D01*
X129715963Y-103993487D01*
X130049266Y-104216193D01*
X130419613Y-104369596D01*
X130812770Y-104447800D01*
X131213630Y-104447800D01*
X131606787Y-104369596D01*
X131977134Y-104216193D01*
X132310437Y-103993487D01*
X132593887Y-103710037D01*
X132619420Y-103671824D01*
X145618200Y-103671824D01*
X145618200Y-103896976D01*
X145662125Y-104117801D01*
X145748287Y-104325813D01*
X145873374Y-104513020D01*
X146032580Y-104672226D01*
X146219787Y-104797313D01*
X146427799Y-104883475D01*
X146648624Y-104927400D01*
X146873776Y-104927400D01*
X147094601Y-104883475D01*
X147302613Y-104797313D01*
X147489820Y-104672226D01*
X147649026Y-104513020D01*
X147774113Y-104325813D01*
X147860275Y-104117801D01*
X147904200Y-103896976D01*
X147904200Y-103671824D01*
X147860275Y-103450999D01*
X147774113Y-103242987D01*
X147649026Y-103055780D01*
X147489820Y-102896574D01*
X147302613Y-102771487D01*
X147290648Y-102766531D01*
X147325312Y-102759636D01*
X147487099Y-102692621D01*
X147632704Y-102595331D01*
X147756531Y-102471504D01*
X147795755Y-102412800D01*
X149288354Y-102412800D01*
X149327645Y-102811730D01*
X149444009Y-103195329D01*
X149632973Y-103548856D01*
X149887276Y-103858724D01*
X150197144Y-104113027D01*
X150550671Y-104301991D01*
X150934270Y-104418355D01*
X151233231Y-104447800D01*
X151433169Y-104447800D01*
X151732130Y-104418355D01*
X152115729Y-104301991D01*
X152469256Y-104113027D01*
X152779124Y-103858724D01*
X153033427Y-103548856D01*
X153222391Y-103195329D01*
X153338755Y-102811730D01*
X153378046Y-102412800D01*
X153354413Y-102172841D01*
X155422600Y-102172841D01*
X155422600Y-102347959D01*
X155456764Y-102519712D01*
X155523779Y-102681499D01*
X155621069Y-102827104D01*
X155744896Y-102950931D01*
X155890501Y-103048221D01*
X156052288Y-103115236D01*
X156224041Y-103149400D01*
X156399159Y-103149400D01*
X156570912Y-103115236D01*
X156732699Y-103048221D01*
X156878304Y-102950931D01*
X156894394Y-102934841D01*
X175641000Y-102934841D01*
X175641000Y-103109959D01*
X175675164Y-103281712D01*
X175742179Y-103443499D01*
X175839469Y-103589104D01*
X175963296Y-103712931D01*
X176108901Y-103810221D01*
X176270688Y-103877236D01*
X176442441Y-103911400D01*
X176617559Y-103911400D01*
X176789312Y-103877236D01*
X176951099Y-103810221D01*
X177096704Y-103712931D01*
X177220531Y-103589104D01*
X177317821Y-103443499D01*
X177384836Y-103281712D01*
X177419000Y-103109959D01*
X177419000Y-102934841D01*
X177384836Y-102763088D01*
X177317821Y-102601301D01*
X177220531Y-102455696D01*
X177096704Y-102331869D01*
X176951099Y-102234579D01*
X176789312Y-102167564D01*
X176617559Y-102133400D01*
X176442441Y-102133400D01*
X176270688Y-102167564D01*
X176108901Y-102234579D01*
X175963296Y-102331869D01*
X175839469Y-102455696D01*
X175742179Y-102601301D01*
X175675164Y-102763088D01*
X175641000Y-102934841D01*
X156894394Y-102934841D01*
X157002131Y-102827104D01*
X157099421Y-102681499D01*
X157166436Y-102519712D01*
X157200600Y-102347959D01*
X157200600Y-102172841D01*
X157166436Y-102001088D01*
X157099421Y-101839301D01*
X157002131Y-101693696D01*
X156908435Y-101600000D01*
X179101815Y-101600000D01*
X179130487Y-101891111D01*
X179215401Y-102171034D01*
X179353294Y-102429014D01*
X179538866Y-102655134D01*
X179764986Y-102840706D01*
X179819791Y-102870000D01*
X179764986Y-102899294D01*
X179538866Y-103084866D01*
X179353294Y-103310986D01*
X179215401Y-103568966D01*
X179130487Y-103848889D01*
X179101815Y-104140000D01*
X179130487Y-104431111D01*
X179215401Y-104711034D01*
X179353294Y-104969014D01*
X179538866Y-105195134D01*
X179764986Y-105380706D01*
X179819791Y-105410000D01*
X179764986Y-105439294D01*
X179538866Y-105624866D01*
X179353294Y-105850986D01*
X179215401Y-106108966D01*
X179130487Y-106388889D01*
X179101815Y-106680000D01*
X179130487Y-106971111D01*
X179215401Y-107251034D01*
X179353294Y-107509014D01*
X179538866Y-107735134D01*
X179764986Y-107920706D01*
X180022966Y-108058599D01*
X180302889Y-108143513D01*
X180521050Y-108165000D01*
X180666950Y-108165000D01*
X180885111Y-108143513D01*
X181165034Y-108058599D01*
X181423014Y-107920706D01*
X181649134Y-107735134D01*
X181834706Y-107509014D01*
X181972599Y-107251034D01*
X182057513Y-106971111D01*
X182086185Y-106680000D01*
X182057513Y-106388889D01*
X181972599Y-106108966D01*
X181834706Y-105850986D01*
X181649134Y-105624866D01*
X181423014Y-105439294D01*
X181368209Y-105410000D01*
X181423014Y-105380706D01*
X181649134Y-105195134D01*
X181834706Y-104969014D01*
X181972599Y-104711034D01*
X182057513Y-104431111D01*
X182086185Y-104140000D01*
X182057513Y-103848889D01*
X181972599Y-103568966D01*
X181834706Y-103310986D01*
X181649134Y-103084866D01*
X181423014Y-102899294D01*
X181368209Y-102870000D01*
X181423014Y-102840706D01*
X181649134Y-102655134D01*
X181834706Y-102429014D01*
X181972599Y-102171034D01*
X182057513Y-101891111D01*
X182086185Y-101600000D01*
X182057513Y-101308889D01*
X181972599Y-101028966D01*
X181834706Y-100770986D01*
X181649134Y-100544866D01*
X181619313Y-100520393D01*
X181688180Y-100499502D01*
X181798494Y-100440537D01*
X181895185Y-100361185D01*
X181974537Y-100264494D01*
X182033502Y-100154180D01*
X182069812Y-100034482D01*
X182082072Y-99910000D01*
X182082072Y-98210000D01*
X182069812Y-98085518D01*
X182033502Y-97965820D01*
X181974537Y-97855506D01*
X181895185Y-97758815D01*
X181798494Y-97679463D01*
X181688180Y-97620498D01*
X181568482Y-97584188D01*
X181444000Y-97571928D01*
X179744000Y-97571928D01*
X179619518Y-97584188D01*
X179499820Y-97620498D01*
X179389506Y-97679463D01*
X179292815Y-97758815D01*
X179213463Y-97855506D01*
X179154498Y-97965820D01*
X179118188Y-98085518D01*
X179105928Y-98210000D01*
X179105928Y-99910000D01*
X179118188Y-100034482D01*
X179154498Y-100154180D01*
X179213463Y-100264494D01*
X179292815Y-100361185D01*
X179389506Y-100440537D01*
X179499820Y-100499502D01*
X179568687Y-100520393D01*
X179538866Y-100544866D01*
X179353294Y-100770986D01*
X179215401Y-101028966D01*
X179130487Y-101308889D01*
X179101815Y-101600000D01*
X156908435Y-101600000D01*
X156878304Y-101569869D01*
X156732699Y-101472579D01*
X156570912Y-101405564D01*
X156399159Y-101371400D01*
X156224041Y-101371400D01*
X156052288Y-101405564D01*
X155890501Y-101472579D01*
X155744896Y-101569869D01*
X155621069Y-101693696D01*
X155523779Y-101839301D01*
X155456764Y-102001088D01*
X155422600Y-102172841D01*
X153354413Y-102172841D01*
X153338755Y-102013870D01*
X153222391Y-101630271D01*
X153033427Y-101276744D01*
X152779124Y-100966876D01*
X152469256Y-100712573D01*
X152115729Y-100523609D01*
X151732130Y-100407245D01*
X151433169Y-100377800D01*
X151233231Y-100377800D01*
X150934270Y-100407245D01*
X150550671Y-100523609D01*
X150197144Y-100712573D01*
X149887276Y-100966876D01*
X149632973Y-101276744D01*
X149444009Y-101630271D01*
X149327645Y-102013870D01*
X149288354Y-102412800D01*
X147795755Y-102412800D01*
X147853821Y-102325899D01*
X147920836Y-102164112D01*
X147955000Y-101992359D01*
X147955000Y-101817241D01*
X147920836Y-101645488D01*
X147853821Y-101483701D01*
X147756531Y-101338096D01*
X147632704Y-101214269D01*
X147487099Y-101116979D01*
X147325312Y-101049964D01*
X147153559Y-101015800D01*
X146978441Y-101015800D01*
X146806688Y-101049964D01*
X146644901Y-101116979D01*
X146499296Y-101214269D01*
X146375469Y-101338096D01*
X146278179Y-101483701D01*
X146211164Y-101645488D01*
X146177000Y-101817241D01*
X146177000Y-101992359D01*
X146211164Y-102164112D01*
X146278179Y-102325899D01*
X146375469Y-102471504D01*
X146499296Y-102595331D01*
X146586683Y-102653721D01*
X146427799Y-102685325D01*
X146219787Y-102771487D01*
X146032580Y-102896574D01*
X145873374Y-103055780D01*
X145748287Y-103242987D01*
X145662125Y-103450999D01*
X145618200Y-103671824D01*
X132619420Y-103671824D01*
X132816593Y-103376734D01*
X132969996Y-103006387D01*
X133048200Y-102613230D01*
X133048200Y-102212370D01*
X132969996Y-101819213D01*
X132816593Y-101448866D01*
X132593887Y-101115563D01*
X132443324Y-100965000D01*
X132472359Y-100965000D01*
X132644112Y-100930836D01*
X132805899Y-100863821D01*
X132951504Y-100766531D01*
X133075331Y-100642704D01*
X133172621Y-100497099D01*
X133239636Y-100335312D01*
X133273800Y-100163559D01*
X133273800Y-99988441D01*
X133239636Y-99816688D01*
X133172621Y-99654901D01*
X133075331Y-99509296D01*
X132951504Y-99385469D01*
X132865559Y-99328042D01*
X159994601Y-99328042D01*
X159994601Y-99503160D01*
X160028765Y-99674913D01*
X160095780Y-99836700D01*
X160193070Y-99982305D01*
X160316897Y-100106132D01*
X160462502Y-100203422D01*
X160624289Y-100270437D01*
X160796042Y-100304601D01*
X160971160Y-100304601D01*
X161142913Y-100270437D01*
X161304700Y-100203422D01*
X161450305Y-100106132D01*
X161567996Y-99988441D01*
X162991800Y-99988441D01*
X162991800Y-100163559D01*
X163025964Y-100335312D01*
X163092979Y-100497099D01*
X163190269Y-100642704D01*
X163314096Y-100766531D01*
X163459701Y-100863821D01*
X163621488Y-100930836D01*
X163793241Y-100965000D01*
X163968359Y-100965000D01*
X164140112Y-100930836D01*
X164301899Y-100863821D01*
X164447504Y-100766531D01*
X164571331Y-100642704D01*
X164668621Y-100497099D01*
X164735636Y-100335312D01*
X164769800Y-100163559D01*
X164769800Y-99988441D01*
X164735636Y-99816688D01*
X164668621Y-99654901D01*
X164571331Y-99509296D01*
X164542476Y-99480441D01*
X165481000Y-99480441D01*
X165481000Y-99655559D01*
X165515164Y-99827312D01*
X165582179Y-99989099D01*
X165679469Y-100134704D01*
X165803296Y-100258531D01*
X165948901Y-100355821D01*
X166110688Y-100422836D01*
X166282441Y-100457000D01*
X166457559Y-100457000D01*
X166629312Y-100422836D01*
X166791099Y-100355821D01*
X166808729Y-100344041D01*
X168071800Y-100344041D01*
X168071800Y-100519159D01*
X168105964Y-100690912D01*
X168172979Y-100852699D01*
X168270269Y-100998304D01*
X168394096Y-101122131D01*
X168539701Y-101219421D01*
X168701488Y-101286436D01*
X168873241Y-101320600D01*
X169048359Y-101320600D01*
X169220112Y-101286436D01*
X169381899Y-101219421D01*
X169527504Y-101122131D01*
X169651331Y-100998304D01*
X169748621Y-100852699D01*
X169815636Y-100690912D01*
X169849800Y-100519159D01*
X169849800Y-100344041D01*
X169815636Y-100172288D01*
X169748621Y-100010501D01*
X169651331Y-99864896D01*
X169527504Y-99741069D01*
X169381899Y-99643779D01*
X169355493Y-99632841D01*
X171272200Y-99632841D01*
X171272200Y-99807959D01*
X171306364Y-99979712D01*
X171373379Y-100141499D01*
X171470669Y-100287104D01*
X171594496Y-100410931D01*
X171740101Y-100508221D01*
X171901888Y-100575236D01*
X172073641Y-100609400D01*
X172248759Y-100609400D01*
X172420512Y-100575236D01*
X172582299Y-100508221D01*
X172727904Y-100410931D01*
X172851731Y-100287104D01*
X172949021Y-100141499D01*
X173016036Y-99979712D01*
X173050200Y-99807959D01*
X173050200Y-99632841D01*
X173016036Y-99461088D01*
X172949021Y-99299301D01*
X172851731Y-99153696D01*
X172727904Y-99029869D01*
X172582299Y-98932579D01*
X172420512Y-98865564D01*
X172248759Y-98831400D01*
X172073641Y-98831400D01*
X171901888Y-98865564D01*
X171740101Y-98932579D01*
X171594496Y-99029869D01*
X171470669Y-99153696D01*
X171373379Y-99299301D01*
X171306364Y-99461088D01*
X171272200Y-99632841D01*
X169355493Y-99632841D01*
X169220112Y-99576764D01*
X169048359Y-99542600D01*
X168873241Y-99542600D01*
X168701488Y-99576764D01*
X168539701Y-99643779D01*
X168394096Y-99741069D01*
X168270269Y-99864896D01*
X168172979Y-100010501D01*
X168105964Y-100172288D01*
X168071800Y-100344041D01*
X166808729Y-100344041D01*
X166936704Y-100258531D01*
X167060531Y-100134704D01*
X167157821Y-99989099D01*
X167224836Y-99827312D01*
X167259000Y-99655559D01*
X167259000Y-99480441D01*
X167224836Y-99308688D01*
X167157821Y-99146901D01*
X167060531Y-99001296D01*
X166936704Y-98877469D01*
X166791099Y-98780179D01*
X166629312Y-98713164D01*
X166457559Y-98679000D01*
X166282441Y-98679000D01*
X166110688Y-98713164D01*
X165948901Y-98780179D01*
X165803296Y-98877469D01*
X165679469Y-99001296D01*
X165582179Y-99146901D01*
X165515164Y-99308688D01*
X165481000Y-99480441D01*
X164542476Y-99480441D01*
X164447504Y-99385469D01*
X164301899Y-99288179D01*
X164140112Y-99221164D01*
X163968359Y-99187000D01*
X163793241Y-99187000D01*
X163621488Y-99221164D01*
X163459701Y-99288179D01*
X163314096Y-99385469D01*
X163190269Y-99509296D01*
X163092979Y-99654901D01*
X163025964Y-99816688D01*
X162991800Y-99988441D01*
X161567996Y-99988441D01*
X161574132Y-99982305D01*
X161671422Y-99836700D01*
X161738437Y-99674913D01*
X161772601Y-99503160D01*
X161772601Y-99328042D01*
X161738437Y-99156289D01*
X161671422Y-98994502D01*
X161574132Y-98848897D01*
X161450305Y-98725070D01*
X161304700Y-98627780D01*
X161142913Y-98560765D01*
X160971160Y-98526601D01*
X160796042Y-98526601D01*
X160624289Y-98560765D01*
X160462502Y-98627780D01*
X160316897Y-98725070D01*
X160193070Y-98848897D01*
X160095780Y-98994502D01*
X160028765Y-99156289D01*
X159994601Y-99328042D01*
X132865559Y-99328042D01*
X132805899Y-99288179D01*
X132644112Y-99221164D01*
X132472359Y-99187000D01*
X132297241Y-99187000D01*
X132125488Y-99221164D01*
X131963701Y-99288179D01*
X131818096Y-99385469D01*
X131694269Y-99509296D01*
X131596979Y-99654901D01*
X131529964Y-99816688D01*
X131495800Y-99988441D01*
X131495800Y-100163559D01*
X131529964Y-100335312D01*
X131577548Y-100450188D01*
X131213630Y-100377800D01*
X130812770Y-100377800D01*
X130419613Y-100456004D01*
X130049266Y-100609407D01*
X129715963Y-100832113D01*
X129432513Y-101115563D01*
X129209807Y-101448866D01*
X129056404Y-101819213D01*
X128978200Y-102212370D01*
X128273702Y-102212370D01*
X128288985Y-102057200D01*
X128260313Y-101766089D01*
X128175399Y-101486166D01*
X128037506Y-101228186D01*
X127851934Y-101002066D01*
X127822113Y-100977593D01*
X127890980Y-100956702D01*
X128001294Y-100897737D01*
X128097985Y-100818385D01*
X128177337Y-100721694D01*
X128236302Y-100611380D01*
X128272612Y-100491682D01*
X128284872Y-100367200D01*
X128284872Y-98667200D01*
X128272612Y-98542718D01*
X128236302Y-98423020D01*
X128177337Y-98312706D01*
X128097985Y-98216015D01*
X128001294Y-98136663D01*
X127890980Y-98077698D01*
X127826180Y-98058041D01*
X168783000Y-98058041D01*
X168783000Y-98233159D01*
X168817164Y-98404912D01*
X168884179Y-98566699D01*
X168981469Y-98712304D01*
X169105296Y-98836131D01*
X169250901Y-98933421D01*
X169412688Y-99000436D01*
X169584441Y-99034600D01*
X169759559Y-99034600D01*
X169931312Y-99000436D01*
X170093099Y-98933421D01*
X170238704Y-98836131D01*
X170362531Y-98712304D01*
X170459821Y-98566699D01*
X170526836Y-98404912D01*
X170561000Y-98233159D01*
X170561000Y-98058041D01*
X170526836Y-97886288D01*
X170459821Y-97724501D01*
X170362531Y-97578896D01*
X170238704Y-97455069D01*
X170093099Y-97357779D01*
X169931312Y-97290764D01*
X169759559Y-97256600D01*
X169584441Y-97256600D01*
X169412688Y-97290764D01*
X169250901Y-97357779D01*
X169105296Y-97455069D01*
X168981469Y-97578896D01*
X168884179Y-97724501D01*
X168817164Y-97886288D01*
X168783000Y-98058041D01*
X127826180Y-98058041D01*
X127771282Y-98041388D01*
X127646800Y-98029128D01*
X125946800Y-98029128D01*
X125822318Y-98041388D01*
X125702620Y-98077698D01*
X125592306Y-98136663D01*
X125495615Y-98216015D01*
X125416263Y-98312706D01*
X125357298Y-98423020D01*
X125320988Y-98542718D01*
X125308728Y-98667200D01*
X125308728Y-100367200D01*
X125320988Y-100491682D01*
X125357298Y-100611380D01*
X125416263Y-100721694D01*
X125495615Y-100818385D01*
X125592306Y-100897737D01*
X125702620Y-100956702D01*
X125771487Y-100977593D01*
X125741666Y-101002066D01*
X125556094Y-101228186D01*
X125418201Y-101486166D01*
X125333287Y-101766089D01*
X125304615Y-102057200D01*
X125120000Y-102057200D01*
X125120000Y-96153424D01*
X132562600Y-96153424D01*
X132562600Y-96378576D01*
X132606525Y-96599401D01*
X132692687Y-96807413D01*
X132817774Y-96994620D01*
X132976980Y-97153826D01*
X133164187Y-97278913D01*
X133372199Y-97365075D01*
X133593024Y-97409000D01*
X133818176Y-97409000D01*
X134039001Y-97365075D01*
X134247013Y-97278913D01*
X134434220Y-97153826D01*
X134493000Y-97095046D01*
X134551780Y-97153826D01*
X134738987Y-97278913D01*
X134946999Y-97365075D01*
X135167824Y-97409000D01*
X135392976Y-97409000D01*
X135613801Y-97365075D01*
X135821813Y-97278913D01*
X136009020Y-97153826D01*
X136168226Y-96994620D01*
X136293313Y-96807413D01*
X136379475Y-96599401D01*
X136423400Y-96378576D01*
X136423400Y-96153424D01*
X136418272Y-96127641D01*
X162941000Y-96127641D01*
X162941000Y-96302759D01*
X162975164Y-96474512D01*
X163042179Y-96636299D01*
X163139469Y-96781904D01*
X163263296Y-96905731D01*
X163408901Y-97003021D01*
X163570688Y-97070036D01*
X163742441Y-97104200D01*
X163917559Y-97104200D01*
X164089312Y-97070036D01*
X164227874Y-97012641D01*
X165277800Y-97012641D01*
X165277800Y-97187759D01*
X165311964Y-97359512D01*
X165378979Y-97521299D01*
X165476269Y-97666904D01*
X165600096Y-97790731D01*
X165745701Y-97888021D01*
X165907488Y-97955036D01*
X166079241Y-97989200D01*
X166254359Y-97989200D01*
X166426112Y-97955036D01*
X166587899Y-97888021D01*
X166733504Y-97790731D01*
X166857331Y-97666904D01*
X166954621Y-97521299D01*
X167021636Y-97359512D01*
X167055800Y-97187759D01*
X167055800Y-97012641D01*
X167021636Y-96840888D01*
X166954621Y-96679101D01*
X166857331Y-96533496D01*
X166733504Y-96409669D01*
X166587899Y-96312379D01*
X166426112Y-96245364D01*
X166254359Y-96211200D01*
X166079241Y-96211200D01*
X165907488Y-96245364D01*
X165745701Y-96312379D01*
X165600096Y-96409669D01*
X165476269Y-96533496D01*
X165378979Y-96679101D01*
X165311964Y-96840888D01*
X165277800Y-97012641D01*
X164227874Y-97012641D01*
X164251099Y-97003021D01*
X164396704Y-96905731D01*
X164520531Y-96781904D01*
X164617821Y-96636299D01*
X164684836Y-96474512D01*
X164719000Y-96302759D01*
X164719000Y-96127641D01*
X164684836Y-95955888D01*
X164617821Y-95794101D01*
X164520531Y-95648496D01*
X164396704Y-95524669D01*
X164251099Y-95427379D01*
X164102052Y-95365641D01*
X172643800Y-95365641D01*
X172643800Y-95540759D01*
X172677964Y-95712512D01*
X172744979Y-95874299D01*
X172842269Y-96019904D01*
X172966096Y-96143731D01*
X173111701Y-96241021D01*
X173273488Y-96308036D01*
X173445241Y-96342200D01*
X173620359Y-96342200D01*
X173792112Y-96308036D01*
X173953899Y-96241021D01*
X174099504Y-96143731D01*
X174223331Y-96019904D01*
X174320621Y-95874299D01*
X174387636Y-95712512D01*
X174421800Y-95540759D01*
X174421800Y-95365641D01*
X174387636Y-95193888D01*
X174320621Y-95032101D01*
X174223331Y-94886496D01*
X174099504Y-94762669D01*
X173953899Y-94665379D01*
X173792112Y-94598364D01*
X173620359Y-94564200D01*
X173445241Y-94564200D01*
X173273488Y-94598364D01*
X173111701Y-94665379D01*
X172966096Y-94762669D01*
X172842269Y-94886496D01*
X172744979Y-95032101D01*
X172677964Y-95193888D01*
X172643800Y-95365641D01*
X164102052Y-95365641D01*
X164089312Y-95360364D01*
X163917559Y-95326200D01*
X163742441Y-95326200D01*
X163570688Y-95360364D01*
X163408901Y-95427379D01*
X163263296Y-95524669D01*
X163139469Y-95648496D01*
X163042179Y-95794101D01*
X162975164Y-95955888D01*
X162941000Y-96127641D01*
X136418272Y-96127641D01*
X136379475Y-95932599D01*
X136293313Y-95724587D01*
X136168226Y-95537380D01*
X136009020Y-95378174D01*
X135821813Y-95253087D01*
X135613801Y-95166925D01*
X135392976Y-95123000D01*
X135167824Y-95123000D01*
X134946999Y-95166925D01*
X134738987Y-95253087D01*
X134551780Y-95378174D01*
X134493000Y-95436954D01*
X134434220Y-95378174D01*
X134247013Y-95253087D01*
X134039001Y-95166925D01*
X133818176Y-95123000D01*
X133593024Y-95123000D01*
X133372199Y-95166925D01*
X133164187Y-95253087D01*
X132976980Y-95378174D01*
X132817774Y-95537380D01*
X132692687Y-95724587D01*
X132606525Y-95932599D01*
X132562600Y-96153424D01*
X125120000Y-96153424D01*
X125120000Y-94794090D01*
X125355324Y-94794090D01*
X125399975Y-94941299D01*
X125525159Y-95204120D01*
X125699212Y-95437469D01*
X125915445Y-95632378D01*
X126165548Y-95781357D01*
X126439909Y-95878681D01*
X126669800Y-95758014D01*
X126669800Y-94564200D01*
X126923800Y-94564200D01*
X126923800Y-95758014D01*
X127153691Y-95878681D01*
X127428052Y-95781357D01*
X127678155Y-95632378D01*
X127894388Y-95437469D01*
X128068441Y-95204120D01*
X128193625Y-94941299D01*
X128238276Y-94794090D01*
X128116955Y-94564200D01*
X126923800Y-94564200D01*
X126669800Y-94564200D01*
X125476645Y-94564200D01*
X125355324Y-94794090D01*
X125120000Y-94794090D01*
X125120000Y-91047200D01*
X125308728Y-91047200D01*
X125308728Y-92747200D01*
X125320988Y-92871682D01*
X125357298Y-92991380D01*
X125416263Y-93101694D01*
X125495615Y-93198385D01*
X125592306Y-93277737D01*
X125702620Y-93336702D01*
X125783266Y-93361166D01*
X125699212Y-93436931D01*
X125525159Y-93670280D01*
X125399975Y-93933101D01*
X125355324Y-94080310D01*
X125476645Y-94310200D01*
X126669800Y-94310200D01*
X126669800Y-94290200D01*
X126923800Y-94290200D01*
X126923800Y-94310200D01*
X128116955Y-94310200D01*
X128238276Y-94080310D01*
X128193625Y-93933101D01*
X128068441Y-93670280D01*
X127894388Y-93436931D01*
X127810334Y-93361166D01*
X127890980Y-93336702D01*
X128001294Y-93277737D01*
X128097985Y-93198385D01*
X128177337Y-93101694D01*
X128236302Y-92991380D01*
X128272612Y-92871682D01*
X128284872Y-92747200D01*
X128284872Y-92266841D01*
X155422600Y-92266841D01*
X155422600Y-92441959D01*
X155456764Y-92613712D01*
X155523779Y-92775499D01*
X155621069Y-92921104D01*
X155744896Y-93044931D01*
X155890501Y-93142221D01*
X156052288Y-93209236D01*
X156224041Y-93243400D01*
X156399159Y-93243400D01*
X156570912Y-93209236D01*
X156732699Y-93142221D01*
X156878304Y-93044931D01*
X157002131Y-92921104D01*
X157099421Y-92775499D01*
X157162820Y-92622441D01*
X165633400Y-92622441D01*
X165633400Y-92797559D01*
X165667564Y-92969312D01*
X165734579Y-93131099D01*
X165831869Y-93276704D01*
X165955696Y-93400531D01*
X166101301Y-93497821D01*
X166263088Y-93564836D01*
X166434841Y-93599000D01*
X166609959Y-93599000D01*
X166781712Y-93564836D01*
X166943499Y-93497821D01*
X167089104Y-93400531D01*
X167212931Y-93276704D01*
X167310221Y-93131099D01*
X167377236Y-92969312D01*
X167411400Y-92797559D01*
X167411400Y-92622441D01*
X176758600Y-92622441D01*
X176758600Y-92797559D01*
X176792764Y-92969312D01*
X176859779Y-93131099D01*
X176957069Y-93276704D01*
X177080896Y-93400531D01*
X177226501Y-93497821D01*
X177388288Y-93564836D01*
X177560041Y-93599000D01*
X177735159Y-93599000D01*
X177906912Y-93564836D01*
X178068699Y-93497821D01*
X178214304Y-93400531D01*
X178338131Y-93276704D01*
X178435421Y-93131099D01*
X178502436Y-92969312D01*
X178536600Y-92797559D01*
X178536600Y-92622441D01*
X178502436Y-92450688D01*
X178435421Y-92288901D01*
X178338131Y-92143296D01*
X178214304Y-92019469D01*
X178068699Y-91922179D01*
X177906912Y-91855164D01*
X177735159Y-91821000D01*
X177560041Y-91821000D01*
X177388288Y-91855164D01*
X177226501Y-91922179D01*
X177080896Y-92019469D01*
X176957069Y-92143296D01*
X176859779Y-92288901D01*
X176792764Y-92450688D01*
X176758600Y-92622441D01*
X167411400Y-92622441D01*
X167377236Y-92450688D01*
X167310221Y-92288901D01*
X167212931Y-92143296D01*
X167089104Y-92019469D01*
X166943499Y-91922179D01*
X166781712Y-91855164D01*
X166609959Y-91821000D01*
X166434841Y-91821000D01*
X166263088Y-91855164D01*
X166101301Y-91922179D01*
X165955696Y-92019469D01*
X165831869Y-92143296D01*
X165734579Y-92288901D01*
X165667564Y-92450688D01*
X165633400Y-92622441D01*
X157162820Y-92622441D01*
X157166436Y-92613712D01*
X157200600Y-92441959D01*
X157200600Y-92266841D01*
X157166436Y-92095088D01*
X157099421Y-91933301D01*
X157002131Y-91787696D01*
X156878304Y-91663869D01*
X156732699Y-91566579D01*
X156570912Y-91499564D01*
X156399159Y-91465400D01*
X156224041Y-91465400D01*
X156052288Y-91499564D01*
X155890501Y-91566579D01*
X155744896Y-91663869D01*
X155621069Y-91787696D01*
X155523779Y-91933301D01*
X155456764Y-92095088D01*
X155422600Y-92266841D01*
X128284872Y-92266841D01*
X128284872Y-91047200D01*
X128272612Y-90922718D01*
X128236302Y-90803020D01*
X128177337Y-90692706D01*
X128097985Y-90596015D01*
X128001294Y-90516663D01*
X127890980Y-90457698D01*
X127771282Y-90421388D01*
X127646800Y-90409128D01*
X125946800Y-90409128D01*
X125822318Y-90421388D01*
X125702620Y-90457698D01*
X125592306Y-90516663D01*
X125495615Y-90596015D01*
X125416263Y-90692706D01*
X125357298Y-90803020D01*
X125320988Y-90922718D01*
X125308728Y-91047200D01*
X125120000Y-91047200D01*
X125120000Y-90031641D01*
X165328600Y-90031641D01*
X165328600Y-90206759D01*
X165362764Y-90378512D01*
X165429779Y-90540299D01*
X165527069Y-90685904D01*
X165650896Y-90809731D01*
X165796501Y-90907021D01*
X165958288Y-90974036D01*
X166130041Y-91008200D01*
X166305159Y-91008200D01*
X166476912Y-90974036D01*
X166638699Y-90907021D01*
X166784304Y-90809731D01*
X166908131Y-90685904D01*
X167005421Y-90540299D01*
X167072436Y-90378512D01*
X167106600Y-90206759D01*
X167106600Y-90031641D01*
X167077955Y-89887633D01*
X170948124Y-89887633D01*
X170948124Y-90062751D01*
X170982288Y-90234504D01*
X171049303Y-90396291D01*
X171146593Y-90541896D01*
X171221400Y-90616703D01*
X171221400Y-90663959D01*
X171255564Y-90835712D01*
X171322579Y-90997499D01*
X171419869Y-91143104D01*
X171543696Y-91266931D01*
X171689301Y-91364221D01*
X171851088Y-91431236D01*
X172022841Y-91465400D01*
X172197959Y-91465400D01*
X172369712Y-91431236D01*
X172531499Y-91364221D01*
X172677104Y-91266931D01*
X172800931Y-91143104D01*
X172898221Y-90997499D01*
X172965236Y-90835712D01*
X172999400Y-90663959D01*
X172999400Y-90538273D01*
X173070288Y-90567636D01*
X173242041Y-90601800D01*
X173417159Y-90601800D01*
X173588912Y-90567636D01*
X173750699Y-90500621D01*
X173896304Y-90403331D01*
X174020131Y-90279504D01*
X174117421Y-90133899D01*
X174184436Y-89972112D01*
X174218600Y-89800359D01*
X174218600Y-89625241D01*
X174184436Y-89453488D01*
X174117421Y-89291701D01*
X174020131Y-89146096D01*
X173896304Y-89022269D01*
X173750699Y-88924979D01*
X173690395Y-88900000D01*
X179101815Y-88900000D01*
X179130487Y-89191111D01*
X179215401Y-89471034D01*
X179353294Y-89729014D01*
X179538866Y-89955134D01*
X179764986Y-90140706D01*
X179819791Y-90170000D01*
X179764986Y-90199294D01*
X179538866Y-90384866D01*
X179353294Y-90610986D01*
X179215401Y-90868966D01*
X179130487Y-91148889D01*
X179101815Y-91440000D01*
X179130487Y-91731111D01*
X179215401Y-92011034D01*
X179353294Y-92269014D01*
X179538866Y-92495134D01*
X179764986Y-92680706D01*
X179819791Y-92710000D01*
X179764986Y-92739294D01*
X179538866Y-92924866D01*
X179353294Y-93150986D01*
X179215401Y-93408966D01*
X179130487Y-93688889D01*
X179101815Y-93980000D01*
X179130487Y-94271111D01*
X179215401Y-94551034D01*
X179353294Y-94809014D01*
X179538866Y-95035134D01*
X179764986Y-95220706D01*
X180022966Y-95358599D01*
X180302889Y-95443513D01*
X180521050Y-95465000D01*
X180666950Y-95465000D01*
X180885111Y-95443513D01*
X181165034Y-95358599D01*
X181423014Y-95220706D01*
X181649134Y-95035134D01*
X181834706Y-94809014D01*
X181972599Y-94551034D01*
X182057513Y-94271111D01*
X182086185Y-93980000D01*
X182057513Y-93688889D01*
X181972599Y-93408966D01*
X181834706Y-93150986D01*
X181649134Y-92924866D01*
X181423014Y-92739294D01*
X181368209Y-92710000D01*
X181423014Y-92680706D01*
X181649134Y-92495134D01*
X181834706Y-92269014D01*
X181972599Y-92011034D01*
X182057513Y-91731111D01*
X182086185Y-91440000D01*
X182057513Y-91148889D01*
X181972599Y-90868966D01*
X181834706Y-90610986D01*
X181649134Y-90384866D01*
X181423014Y-90199294D01*
X181368209Y-90170000D01*
X181423014Y-90140706D01*
X181649134Y-89955134D01*
X181834706Y-89729014D01*
X181972599Y-89471034D01*
X182057513Y-89191111D01*
X182086185Y-88900000D01*
X182057513Y-88608889D01*
X181972599Y-88328966D01*
X181834706Y-88070986D01*
X181649134Y-87844866D01*
X181619313Y-87820393D01*
X181688180Y-87799502D01*
X181798494Y-87740537D01*
X181895185Y-87661185D01*
X181974537Y-87564494D01*
X182033502Y-87454180D01*
X182069812Y-87334482D01*
X182082072Y-87210000D01*
X182079000Y-86645750D01*
X181920250Y-86487000D01*
X180721000Y-86487000D01*
X180721000Y-86507000D01*
X180467000Y-86507000D01*
X180467000Y-86487000D01*
X179267750Y-86487000D01*
X179109000Y-86645750D01*
X179105928Y-87210000D01*
X179118188Y-87334482D01*
X179154498Y-87454180D01*
X179213463Y-87564494D01*
X179292815Y-87661185D01*
X179389506Y-87740537D01*
X179499820Y-87799502D01*
X179568687Y-87820393D01*
X179538866Y-87844866D01*
X179353294Y-88070986D01*
X179215401Y-88328966D01*
X179130487Y-88608889D01*
X179101815Y-88900000D01*
X173690395Y-88900000D01*
X173631985Y-88875806D01*
X173625636Y-88843888D01*
X173558621Y-88682101D01*
X173461331Y-88536496D01*
X173337504Y-88412669D01*
X173191899Y-88315379D01*
X173030112Y-88248364D01*
X172858359Y-88214200D01*
X172683241Y-88214200D01*
X172511488Y-88248364D01*
X172349701Y-88315379D01*
X172204096Y-88412669D01*
X172080269Y-88536496D01*
X171982979Y-88682101D01*
X171915964Y-88843888D01*
X171881800Y-89015641D01*
X171881800Y-89086192D01*
X171749565Y-89086192D01*
X171577812Y-89120356D01*
X171416025Y-89187371D01*
X171270420Y-89284661D01*
X171146593Y-89408488D01*
X171049303Y-89554093D01*
X170982288Y-89715880D01*
X170948124Y-89887633D01*
X167077955Y-89887633D01*
X167072436Y-89859888D01*
X167005421Y-89698101D01*
X166908131Y-89552496D01*
X166784304Y-89428669D01*
X166638699Y-89331379D01*
X166476912Y-89264364D01*
X166305159Y-89230200D01*
X166130041Y-89230200D01*
X165958288Y-89264364D01*
X165796501Y-89331379D01*
X165650896Y-89428669D01*
X165527069Y-89552496D01*
X165429779Y-89698101D01*
X165362764Y-89859888D01*
X165328600Y-90031641D01*
X125120000Y-90031641D01*
X125120000Y-86817200D01*
X125304615Y-86817200D01*
X125333287Y-87108311D01*
X125418201Y-87388234D01*
X125556094Y-87646214D01*
X125741666Y-87872334D01*
X125967786Y-88057906D01*
X126225766Y-88195799D01*
X126505689Y-88280713D01*
X126723850Y-88302200D01*
X126869750Y-88302200D01*
X127087911Y-88280713D01*
X127367834Y-88195799D01*
X127625814Y-88057906D01*
X127851934Y-87872334D01*
X128037506Y-87646214D01*
X128121717Y-87488665D01*
X141988000Y-87488665D01*
X141988000Y-87771335D01*
X142043147Y-88048574D01*
X142151320Y-88309727D01*
X142308363Y-88544759D01*
X142508241Y-88744637D01*
X142743273Y-88901680D01*
X143004426Y-89009853D01*
X143281665Y-89065000D01*
X143564335Y-89065000D01*
X143841574Y-89009853D01*
X144102727Y-88901680D01*
X144337759Y-88744637D01*
X144537637Y-88544759D01*
X144694680Y-88309727D01*
X144802853Y-88048574D01*
X144858000Y-87771335D01*
X144858000Y-87488665D01*
X146988000Y-87488665D01*
X146988000Y-87771335D01*
X147043147Y-88048574D01*
X147151320Y-88309727D01*
X147308363Y-88544759D01*
X147508241Y-88744637D01*
X147743273Y-88901680D01*
X148004426Y-89009853D01*
X148281665Y-89065000D01*
X148564335Y-89065000D01*
X148841574Y-89009853D01*
X149102727Y-88901680D01*
X149337759Y-88744637D01*
X149537637Y-88544759D01*
X149694680Y-88309727D01*
X149802853Y-88048574D01*
X149858000Y-87771335D01*
X149858000Y-87488665D01*
X149802853Y-87211426D01*
X149694680Y-86950273D01*
X149537637Y-86715241D01*
X149337759Y-86515363D01*
X149102727Y-86358320D01*
X148841574Y-86250147D01*
X148564335Y-86195000D01*
X148281665Y-86195000D01*
X148004426Y-86250147D01*
X147743273Y-86358320D01*
X147508241Y-86515363D01*
X147308363Y-86715241D01*
X147151320Y-86950273D01*
X147043147Y-87211426D01*
X146988000Y-87488665D01*
X144858000Y-87488665D01*
X144802853Y-87211426D01*
X144694680Y-86950273D01*
X144537637Y-86715241D01*
X144337759Y-86515363D01*
X144102727Y-86358320D01*
X143841574Y-86250147D01*
X143564335Y-86195000D01*
X143281665Y-86195000D01*
X143004426Y-86250147D01*
X142743273Y-86358320D01*
X142508241Y-86515363D01*
X142308363Y-86715241D01*
X142151320Y-86950273D01*
X142043147Y-87211426D01*
X141988000Y-87488665D01*
X128121717Y-87488665D01*
X128175399Y-87388234D01*
X128260313Y-87108311D01*
X128288985Y-86817200D01*
X128260313Y-86526089D01*
X128175399Y-86246166D01*
X128037506Y-85988186D01*
X127851934Y-85762066D01*
X127822113Y-85737593D01*
X127890980Y-85716702D01*
X128001294Y-85657737D01*
X128097985Y-85578385D01*
X128154106Y-85510000D01*
X179105928Y-85510000D01*
X179109000Y-86074250D01*
X179267750Y-86233000D01*
X180467000Y-86233000D01*
X180467000Y-85033750D01*
X180721000Y-85033750D01*
X180721000Y-86233000D01*
X181920250Y-86233000D01*
X182079000Y-86074250D01*
X182082072Y-85510000D01*
X182069812Y-85385518D01*
X182033502Y-85265820D01*
X181974537Y-85155506D01*
X181895185Y-85058815D01*
X181798494Y-84979463D01*
X181688180Y-84920498D01*
X181568482Y-84884188D01*
X181444000Y-84871928D01*
X180879750Y-84875000D01*
X180721000Y-85033750D01*
X180467000Y-85033750D01*
X180308250Y-84875000D01*
X179744000Y-84871928D01*
X179619518Y-84884188D01*
X179499820Y-84920498D01*
X179389506Y-84979463D01*
X179292815Y-85058815D01*
X179213463Y-85155506D01*
X179154498Y-85265820D01*
X179118188Y-85385518D01*
X179105928Y-85510000D01*
X128154106Y-85510000D01*
X128177337Y-85481694D01*
X128236302Y-85371380D01*
X128272612Y-85251682D01*
X128284872Y-85127200D01*
X128284872Y-83427200D01*
X128275101Y-83327989D01*
X130481000Y-83327989D01*
X130481000Y-83600811D01*
X130534225Y-83868389D01*
X130638629Y-84120443D01*
X130790201Y-84347286D01*
X130983114Y-84540199D01*
X131209957Y-84691771D01*
X131462011Y-84796175D01*
X131729589Y-84849400D01*
X132002411Y-84849400D01*
X132269989Y-84796175D01*
X132522043Y-84691771D01*
X132748886Y-84540199D01*
X132941799Y-84347286D01*
X133093371Y-84120443D01*
X133197775Y-83868389D01*
X133251000Y-83600811D01*
X133251000Y-83327989D01*
X135481000Y-83327989D01*
X135481000Y-83600811D01*
X135534225Y-83868389D01*
X135638629Y-84120443D01*
X135790201Y-84347286D01*
X135983114Y-84540199D01*
X136209957Y-84691771D01*
X136462011Y-84796175D01*
X136729589Y-84849400D01*
X137002411Y-84849400D01*
X137269989Y-84796175D01*
X137522043Y-84691771D01*
X137748886Y-84540199D01*
X137845444Y-84443641D01*
X160248600Y-84443641D01*
X160248600Y-84618759D01*
X160282764Y-84790512D01*
X160349779Y-84952299D01*
X160447069Y-85097904D01*
X160570896Y-85221731D01*
X160716501Y-85319021D01*
X160878288Y-85386036D01*
X161050041Y-85420200D01*
X161225159Y-85420200D01*
X161396912Y-85386036D01*
X161558699Y-85319021D01*
X161704304Y-85221731D01*
X161828131Y-85097904D01*
X161925421Y-84952299D01*
X161992436Y-84790512D01*
X162026600Y-84618759D01*
X162026600Y-84443641D01*
X161992436Y-84271888D01*
X161925421Y-84110101D01*
X161828131Y-83964496D01*
X161704304Y-83840669D01*
X161558699Y-83743379D01*
X161396912Y-83676364D01*
X161225159Y-83642200D01*
X161050041Y-83642200D01*
X160878288Y-83676364D01*
X160716501Y-83743379D01*
X160570896Y-83840669D01*
X160447069Y-83964496D01*
X160349779Y-84110101D01*
X160282764Y-84271888D01*
X160248600Y-84443641D01*
X137845444Y-84443641D01*
X137941799Y-84347286D01*
X138093371Y-84120443D01*
X138197775Y-83868389D01*
X138251000Y-83600811D01*
X138251000Y-83327989D01*
X138197775Y-83060411D01*
X138107721Y-82843000D01*
X163611928Y-82843000D01*
X163611928Y-84543000D01*
X163624188Y-84667482D01*
X163660498Y-84787180D01*
X163719463Y-84897494D01*
X163798815Y-84994185D01*
X163895506Y-85073537D01*
X164005820Y-85132502D01*
X164125518Y-85168812D01*
X164250000Y-85181072D01*
X165950000Y-85181072D01*
X166074482Y-85168812D01*
X166194180Y-85132502D01*
X166304494Y-85073537D01*
X166401185Y-84994185D01*
X166480537Y-84897494D01*
X166539502Y-84787180D01*
X166563966Y-84706534D01*
X166639731Y-84790588D01*
X166873080Y-84964641D01*
X167135901Y-85089825D01*
X167283110Y-85134476D01*
X167513000Y-85013155D01*
X167513000Y-83820000D01*
X167767000Y-83820000D01*
X167767000Y-85013155D01*
X167996890Y-85134476D01*
X168144099Y-85089825D01*
X168406920Y-84964641D01*
X168640269Y-84790588D01*
X168835178Y-84574355D01*
X168984157Y-84324252D01*
X169081481Y-84049891D01*
X168960814Y-83820000D01*
X167767000Y-83820000D01*
X167513000Y-83820000D01*
X167493000Y-83820000D01*
X167493000Y-83566000D01*
X167513000Y-83566000D01*
X167513000Y-82372845D01*
X167767000Y-82372845D01*
X167767000Y-83566000D01*
X168960814Y-83566000D01*
X169081481Y-83336109D01*
X168984157Y-83061748D01*
X168835178Y-82811645D01*
X168640269Y-82595412D01*
X168406920Y-82421359D01*
X168144099Y-82296175D01*
X167996890Y-82251524D01*
X167767000Y-82372845D01*
X167513000Y-82372845D01*
X167283110Y-82251524D01*
X167135901Y-82296175D01*
X166873080Y-82421359D01*
X166639731Y-82595412D01*
X166563966Y-82679466D01*
X166539502Y-82598820D01*
X166480537Y-82488506D01*
X166401185Y-82391815D01*
X166304494Y-82312463D01*
X166194180Y-82253498D01*
X166074482Y-82217188D01*
X165950000Y-82204928D01*
X164250000Y-82204928D01*
X164125518Y-82217188D01*
X164005820Y-82253498D01*
X163895506Y-82312463D01*
X163798815Y-82391815D01*
X163719463Y-82488506D01*
X163660498Y-82598820D01*
X163624188Y-82718518D01*
X163611928Y-82843000D01*
X138107721Y-82843000D01*
X138093371Y-82808357D01*
X137941799Y-82581514D01*
X137748886Y-82388601D01*
X137522043Y-82237029D01*
X137269989Y-82132625D01*
X137002411Y-82079400D01*
X136729589Y-82079400D01*
X136462011Y-82132625D01*
X136209957Y-82237029D01*
X135983114Y-82388601D01*
X135790201Y-82581514D01*
X135638629Y-82808357D01*
X135534225Y-83060411D01*
X135481000Y-83327989D01*
X133251000Y-83327989D01*
X133197775Y-83060411D01*
X133093371Y-82808357D01*
X132941799Y-82581514D01*
X132748886Y-82388601D01*
X132522043Y-82237029D01*
X132269989Y-82132625D01*
X132002411Y-82079400D01*
X131729589Y-82079400D01*
X131462011Y-82132625D01*
X131209957Y-82237029D01*
X130983114Y-82388601D01*
X130790201Y-82581514D01*
X130638629Y-82808357D01*
X130534225Y-83060411D01*
X130481000Y-83327989D01*
X128275101Y-83327989D01*
X128272612Y-83302718D01*
X128236302Y-83183020D01*
X128177337Y-83072706D01*
X128097985Y-82976015D01*
X128001294Y-82896663D01*
X127890980Y-82837698D01*
X127771282Y-82801388D01*
X127646800Y-82789128D01*
X125946800Y-82789128D01*
X125822318Y-82801388D01*
X125702620Y-82837698D01*
X125592306Y-82896663D01*
X125495615Y-82976015D01*
X125416263Y-83072706D01*
X125357298Y-83183020D01*
X125320988Y-83302718D01*
X125308728Y-83427200D01*
X125308728Y-85127200D01*
X125320988Y-85251682D01*
X125357298Y-85371380D01*
X125416263Y-85481694D01*
X125495615Y-85578385D01*
X125592306Y-85657737D01*
X125702620Y-85716702D01*
X125771487Y-85737593D01*
X125741666Y-85762066D01*
X125556094Y-85988186D01*
X125418201Y-86246166D01*
X125333287Y-86526089D01*
X125304615Y-86817200D01*
X125120000Y-86817200D01*
X125120000Y-77249872D01*
X126035000Y-77249872D01*
X126035000Y-77690128D01*
X126120890Y-78121925D01*
X126289369Y-78528669D01*
X126533962Y-78894729D01*
X126845271Y-79206038D01*
X127211331Y-79450631D01*
X127618075Y-79619110D01*
X128049872Y-79705000D01*
X128490128Y-79705000D01*
X128921925Y-79619110D01*
X129328669Y-79450631D01*
X129694729Y-79206038D01*
X130006038Y-78894729D01*
X130250631Y-78528669D01*
X130419110Y-78121925D01*
X130505000Y-77690128D01*
X130505000Y-77249872D01*
X130419110Y-76818075D01*
X130250631Y-76411331D01*
X130006038Y-76045271D01*
X129694729Y-75733962D01*
X129328669Y-75489369D01*
X128921925Y-75320890D01*
X128490128Y-75235000D01*
X128049872Y-75235000D01*
X127618075Y-75320890D01*
X127211331Y-75489369D01*
X126845271Y-75733962D01*
X126533962Y-76045271D01*
X126289369Y-76411331D01*
X126120890Y-76818075D01*
X126035000Y-77249872D01*
X125120000Y-77249872D01*
X125120000Y-75096000D01*
X161071928Y-75096000D01*
X161071928Y-76796000D01*
X161084188Y-76920482D01*
X161120498Y-77040180D01*
X161179463Y-77150494D01*
X161258815Y-77247185D01*
X161355506Y-77326537D01*
X161465820Y-77385502D01*
X161585518Y-77421812D01*
X161710000Y-77434072D01*
X163410000Y-77434072D01*
X163534482Y-77421812D01*
X163654180Y-77385502D01*
X163764494Y-77326537D01*
X163861185Y-77247185D01*
X163940537Y-77150494D01*
X163999502Y-77040180D01*
X164020393Y-76971313D01*
X164044866Y-77001134D01*
X164270986Y-77186706D01*
X164528966Y-77324599D01*
X164808889Y-77409513D01*
X165027050Y-77431000D01*
X165172950Y-77431000D01*
X165391111Y-77409513D01*
X165671034Y-77324599D01*
X165929014Y-77186706D01*
X166155134Y-77001134D01*
X166340706Y-76775014D01*
X166370000Y-76720209D01*
X166399294Y-76775014D01*
X166584866Y-77001134D01*
X166810986Y-77186706D01*
X167068966Y-77324599D01*
X167348889Y-77409513D01*
X167567050Y-77431000D01*
X167712950Y-77431000D01*
X167931111Y-77409513D01*
X168211034Y-77324599D01*
X168469014Y-77186706D01*
X168695134Y-77001134D01*
X168880706Y-76775014D01*
X168915201Y-76710477D01*
X168984822Y-76827355D01*
X169179731Y-77043588D01*
X169413080Y-77217641D01*
X169675901Y-77342825D01*
X169823110Y-77387476D01*
X170053000Y-77266155D01*
X170053000Y-76073000D01*
X170307000Y-76073000D01*
X170307000Y-77266155D01*
X170536890Y-77387476D01*
X170684099Y-77342825D01*
X170879251Y-77249872D01*
X176835000Y-77249872D01*
X176835000Y-77690128D01*
X176920890Y-78121925D01*
X177089369Y-78528669D01*
X177333962Y-78894729D01*
X177645271Y-79206038D01*
X178011331Y-79450631D01*
X178418075Y-79619110D01*
X178849872Y-79705000D01*
X179290128Y-79705000D01*
X179721925Y-79619110D01*
X180128669Y-79450631D01*
X180494729Y-79206038D01*
X180806038Y-78894729D01*
X181050631Y-78528669D01*
X181219110Y-78121925D01*
X181305000Y-77690128D01*
X181305000Y-77249872D01*
X181219110Y-76818075D01*
X181050631Y-76411331D01*
X180806038Y-76045271D01*
X180494729Y-75733962D01*
X180128669Y-75489369D01*
X179721925Y-75320890D01*
X179290128Y-75235000D01*
X178849872Y-75235000D01*
X178418075Y-75320890D01*
X178011331Y-75489369D01*
X177645271Y-75733962D01*
X177333962Y-76045271D01*
X177089369Y-76411331D01*
X176920890Y-76818075D01*
X176835000Y-77249872D01*
X170879251Y-77249872D01*
X170946920Y-77217641D01*
X171180269Y-77043588D01*
X171375178Y-76827355D01*
X171524157Y-76577252D01*
X171621481Y-76302891D01*
X171500814Y-76073000D01*
X170307000Y-76073000D01*
X170053000Y-76073000D01*
X170033000Y-76073000D01*
X170033000Y-75819000D01*
X170053000Y-75819000D01*
X170053000Y-74625845D01*
X170307000Y-74625845D01*
X170307000Y-75819000D01*
X171500814Y-75819000D01*
X171621481Y-75589109D01*
X171524157Y-75314748D01*
X171375178Y-75064645D01*
X171180269Y-74848412D01*
X170946920Y-74674359D01*
X170684099Y-74549175D01*
X170536890Y-74504524D01*
X170307000Y-74625845D01*
X170053000Y-74625845D01*
X169823110Y-74504524D01*
X169675901Y-74549175D01*
X169413080Y-74674359D01*
X169179731Y-74848412D01*
X168984822Y-75064645D01*
X168915201Y-75181523D01*
X168880706Y-75116986D01*
X168695134Y-74890866D01*
X168469014Y-74705294D01*
X168211034Y-74567401D01*
X167931111Y-74482487D01*
X167712950Y-74461000D01*
X167567050Y-74461000D01*
X167348889Y-74482487D01*
X167068966Y-74567401D01*
X166810986Y-74705294D01*
X166584866Y-74890866D01*
X166399294Y-75116986D01*
X166370000Y-75171791D01*
X166340706Y-75116986D01*
X166155134Y-74890866D01*
X165929014Y-74705294D01*
X165671034Y-74567401D01*
X165391111Y-74482487D01*
X165172950Y-74461000D01*
X165027050Y-74461000D01*
X164808889Y-74482487D01*
X164528966Y-74567401D01*
X164270986Y-74705294D01*
X164044866Y-74890866D01*
X164020393Y-74920687D01*
X163999502Y-74851820D01*
X163940537Y-74741506D01*
X163861185Y-74644815D01*
X163764494Y-74565463D01*
X163654180Y-74506498D01*
X163534482Y-74470188D01*
X163410000Y-74457928D01*
X161710000Y-74457928D01*
X161585518Y-74470188D01*
X161465820Y-74506498D01*
X161355506Y-74565463D01*
X161258815Y-74644815D01*
X161179463Y-74741506D01*
X161120498Y-74851820D01*
X161084188Y-74971518D01*
X161071928Y-75096000D01*
X125120000Y-75096000D01*
X125120000Y-74320000D01*
X182220000Y-74320000D01*
X182220001Y-118720000D01*
M02*
