G04 #@! TF.GenerationSoftware,KiCad,Pcbnew,(5.1.4)-1*
G04 #@! TF.CreationDate,2019-12-04T08:55:51-06:00*
G04 #@! TF.ProjectId,motor_control,6d6f746f-725f-4636-9f6e-74726f6c2e6b,rev?*
G04 #@! TF.SameCoordinates,Original*
G04 #@! TF.FileFunction,Paste,Bot*
G04 #@! TF.FilePolarity,Positive*
%FSLAX46Y46*%
G04 Gerber Fmt 4.6, Leading zero omitted, Abs format (unit mm)*
G04 Created by KiCad (PCBNEW (5.1.4)-1) date 2019-12-04 08:55:51*
%MOMM*%
%LPD*%
G04 APERTURE LIST*
%ADD10R,1.200000X0.750000*%
%ADD11R,0.750000X1.200000*%
%ADD12R,0.900000X0.800000*%
%ADD13R,0.900000X1.200000*%
%ADD14R,1.200000X0.900000*%
%ADD15R,1.560000X0.650000*%
%ADD16R,2.000000X1.500000*%
%ADD17R,2.000000X3.800000*%
G04 APERTURE END LIST*
D10*
X143118800Y-104546400D03*
X145018800Y-104546400D03*
D11*
X136956800Y-102600800D03*
X136956800Y-100700800D03*
X157835600Y-90439200D03*
X157835600Y-92339200D03*
X157835600Y-104175600D03*
X157835600Y-102275600D03*
X176530000Y-92745600D03*
X176530000Y-90845600D03*
D10*
X178445200Y-101803200D03*
X176545200Y-101803200D03*
D11*
X167640000Y-92745600D03*
X167640000Y-90845600D03*
D10*
X165724800Y-101803200D03*
X167624800Y-101803200D03*
X133416000Y-85648800D03*
X135316000Y-85648800D03*
X135316000Y-87274400D03*
X133416000Y-87274400D03*
X133416000Y-88950800D03*
X135316000Y-88950800D03*
D11*
X140309600Y-94147600D03*
X140309600Y-96047600D03*
X141884400Y-96047600D03*
X141884400Y-94147600D03*
X143459200Y-94147600D03*
X143459200Y-96047600D03*
D12*
X147862800Y-90982800D03*
X145862800Y-90032800D03*
X145862800Y-91932800D03*
D13*
X140411200Y-100550800D03*
X140411200Y-102750800D03*
X138684000Y-102750800D03*
X138684000Y-100550800D03*
X137464800Y-110777200D03*
X137464800Y-108577200D03*
X135737600Y-108577200D03*
X135737600Y-110777200D03*
X144119600Y-89882800D03*
X144119600Y-92082800D03*
D14*
X144848400Y-85293200D03*
X147048400Y-85293200D03*
D13*
X137160000Y-86174400D03*
X137160000Y-88374400D03*
X138828599Y-86175399D03*
X138828599Y-88375399D03*
D14*
X130218000Y-98907600D03*
X132418000Y-98907600D03*
D13*
X170535600Y-94114800D03*
X170535600Y-91914800D03*
D14*
X171061200Y-99720400D03*
X173261200Y-99720400D03*
D13*
X172110400Y-91914800D03*
X172110400Y-94114800D03*
X173685200Y-94114800D03*
X173685200Y-91914800D03*
D14*
X173261200Y-98145600D03*
X171061200Y-98145600D03*
X171061200Y-96570800D03*
X173261200Y-96570800D03*
D13*
X157835600Y-96232800D03*
X157835600Y-98432800D03*
D15*
X145418800Y-102600800D03*
X145418800Y-100700800D03*
X142718800Y-100700800D03*
X142718800Y-101650800D03*
X142718800Y-102600800D03*
D16*
X137516000Y-91680000D03*
X137516000Y-96280000D03*
X137516000Y-93980000D03*
D17*
X131216000Y-93980000D03*
M02*
