M48
; DRILL file {KiCad (5.1.4)-1} date 12/4/2019 8:55:53 AM
; FORMAT={-:-/ absolute / inch / decimal}
; #@! TF.CreationDate,2019-12-04T08:55:53-06:00
; #@! TF.GenerationSoftware,Kicad,Pcbnew,(5.1.4)-1
; #@! TF.FileFunction,Plated,1,4,PTH
FMAT,2
INCH
T1C0.0100
T2C0.0200
T3C0.0299
T4C0.0354
T5C0.0394
T6C0.0551
%
G90
G05
T1
X5.212Y-3.94
X5.294Y-4.36
X5.344Y-4.22
X5.412Y-4.22
X5.58Y-4.116
X5.788Y-3.54
X5.79Y-4.012
X6.154Y-3.56
X6.154Y-3.636
X6.154Y-4.026
X6.154Y-4.102
X6.29Y-4.5
X6.334Y-3.914
X6.344Y-3.328
X6.45Y-3.788
X6.452Y-3.94
X6.51Y-3.576
X6.524Y-3.964
X6.542Y-3.8228
X6.544Y-3.548
X6.55Y-3.92
X6.556Y-3.65
X6.652Y-3.954
X6.658Y-3.714
X6.68Y-3.802
X6.68Y-3.864
X6.7652Y-3.5423
X6.776Y-3.566
X6.778Y-3.926
X6.802Y-3.508
X6.824Y-3.532
X6.832Y-3.758
X6.886Y-3.946
X6.888Y-3.576
X6.89Y-3.744
X6.95Y-4.056
X6.994Y-3.65
X6.996Y-4.056
T2
X5.192Y-3.372
X5.264Y-3.7
X5.264Y-3.79
X5.326Y-3.7
X5.326Y-3.79
X5.334Y-4.04
X5.466Y-3.33
X5.496Y-3.882
X5.778Y-4.086
T3
X5.1916Y-3.286
X5.3884Y-3.286
T4
X5.6466Y-3.45
X5.8434Y-3.45
T5
X4.992Y-3.618
X4.992Y-3.718
X4.992Y-3.918
X4.992Y-4.018
X4.992Y-4.118
X4.992Y-4.218
X4.992Y-4.318
X6.5Y-3.295
X6.6Y-3.295
X4.992Y-3.318
X4.992Y-3.418
X6.4Y-2.99
X6.5Y-2.99
X6.6Y-2.99
X6.7Y-2.99
X7.11Y-3.4
X7.11Y-3.5
X7.11Y-3.6
X7.11Y-3.7
X7.11Y-3.9
X7.11Y-4.0
X7.11Y-4.1
X7.11Y-4.2
X6.4Y-4.61
X6.5Y-4.61
X6.6Y-4.61
X6.7Y-4.61
T6
X5.158Y-4.032
X5.958Y-4.032
T0
M30
