G04 #@! TF.GenerationSoftware,KiCad,Pcbnew,(5.1.4)-1*
G04 #@! TF.CreationDate,2019-12-04T08:55:51-06:00*
G04 #@! TF.ProjectId,motor_control,6d6f746f-725f-4636-9f6e-74726f6c2e6b,rev?*
G04 #@! TF.SameCoordinates,Original*
G04 #@! TF.FileFunction,Legend,Bot*
G04 #@! TF.FilePolarity,Positive*
%FSLAX46Y46*%
G04 Gerber Fmt 4.6, Leading zero omitted, Abs format (unit mm)*
G04 Created by KiCad (PCBNEW (5.1.4)-1) date 2019-12-04 08:55:51*
%MOMM*%
%LPD*%
G04 APERTURE LIST*
%ADD10C,0.247650*%
%ADD11C,0.150000*%
%ADD12C,0.120000*%
G04 APERTURE END LIST*
D10*
X159542842Y-109204578D02*
X159542842Y-108213978D01*
X159212642Y-108921550D01*
X158882442Y-108213978D01*
X158882442Y-109204578D01*
X158269214Y-109204578D02*
X158363557Y-109157407D01*
X158410728Y-109110235D01*
X158457900Y-109015892D01*
X158457900Y-108732864D01*
X158410728Y-108638521D01*
X158363557Y-108591350D01*
X158269214Y-108544178D01*
X158127700Y-108544178D01*
X158033357Y-108591350D01*
X157986185Y-108638521D01*
X157939014Y-108732864D01*
X157939014Y-109015892D01*
X157986185Y-109110235D01*
X158033357Y-109157407D01*
X158127700Y-109204578D01*
X158269214Y-109204578D01*
X157655985Y-108544178D02*
X157278614Y-108544178D01*
X157514471Y-108213978D02*
X157514471Y-109063064D01*
X157467300Y-109157407D01*
X157372957Y-109204578D01*
X157278614Y-109204578D01*
X156806900Y-109204578D02*
X156901242Y-109157407D01*
X156948414Y-109110235D01*
X156995585Y-109015892D01*
X156995585Y-108732864D01*
X156948414Y-108638521D01*
X156901242Y-108591350D01*
X156806900Y-108544178D01*
X156665385Y-108544178D01*
X156571042Y-108591350D01*
X156523871Y-108638521D01*
X156476700Y-108732864D01*
X156476700Y-109015892D01*
X156523871Y-109110235D01*
X156571042Y-109157407D01*
X156665385Y-109204578D01*
X156806900Y-109204578D01*
X156052157Y-109204578D02*
X156052157Y-108544178D01*
X156052157Y-108732864D02*
X156004985Y-108638521D01*
X155957814Y-108591350D01*
X155863471Y-108544178D01*
X155769128Y-108544178D01*
X154118128Y-109110235D02*
X154165300Y-109157407D01*
X154306814Y-109204578D01*
X154401157Y-109204578D01*
X154542671Y-109157407D01*
X154637014Y-109063064D01*
X154684185Y-108968721D01*
X154731357Y-108780035D01*
X154731357Y-108638521D01*
X154684185Y-108449835D01*
X154637014Y-108355492D01*
X154542671Y-108261150D01*
X154401157Y-108213978D01*
X154306814Y-108213978D01*
X154165300Y-108261150D01*
X154118128Y-108308321D01*
X153552071Y-109204578D02*
X153646414Y-109157407D01*
X153693585Y-109110235D01*
X153740757Y-109015892D01*
X153740757Y-108732864D01*
X153693585Y-108638521D01*
X153646414Y-108591350D01*
X153552071Y-108544178D01*
X153410557Y-108544178D01*
X153316214Y-108591350D01*
X153269042Y-108638521D01*
X153221871Y-108732864D01*
X153221871Y-109015892D01*
X153269042Y-109110235D01*
X153316214Y-109157407D01*
X153410557Y-109204578D01*
X153552071Y-109204578D01*
X152797328Y-108544178D02*
X152797328Y-109204578D01*
X152797328Y-108638521D02*
X152750157Y-108591350D01*
X152655814Y-108544178D01*
X152514300Y-108544178D01*
X152419957Y-108591350D01*
X152372785Y-108685692D01*
X152372785Y-109204578D01*
X152042585Y-108544178D02*
X151665214Y-108544178D01*
X151901071Y-108213978D02*
X151901071Y-109063064D01*
X151853900Y-109157407D01*
X151759557Y-109204578D01*
X151665214Y-109204578D01*
X151335014Y-109204578D02*
X151335014Y-108544178D01*
X151335014Y-108732864D02*
X151287842Y-108638521D01*
X151240671Y-108591350D01*
X151146328Y-108544178D01*
X151051985Y-108544178D01*
X150580271Y-109204578D02*
X150674614Y-109157407D01*
X150721785Y-109110235D01*
X150768957Y-109015892D01*
X150768957Y-108732864D01*
X150721785Y-108638521D01*
X150674614Y-108591350D01*
X150580271Y-108544178D01*
X150438757Y-108544178D01*
X150344414Y-108591350D01*
X150297242Y-108638521D01*
X150250071Y-108732864D01*
X150250071Y-109015892D01*
X150297242Y-109110235D01*
X150344414Y-109157407D01*
X150438757Y-109204578D01*
X150580271Y-109204578D01*
X149684014Y-109204578D02*
X149778357Y-109157407D01*
X149825528Y-109063064D01*
X149825528Y-108213978D01*
X149165128Y-109204578D02*
X149259471Y-109157407D01*
X149306642Y-109063064D01*
X149306642Y-108213978D01*
X148410385Y-109157407D02*
X148504728Y-109204578D01*
X148693414Y-109204578D01*
X148787757Y-109157407D01*
X148834928Y-109063064D01*
X148834928Y-108685692D01*
X148787757Y-108591350D01*
X148693414Y-108544178D01*
X148504728Y-108544178D01*
X148410385Y-108591350D01*
X148363214Y-108685692D01*
X148363214Y-108780035D01*
X148834928Y-108874378D01*
X147938671Y-109204578D02*
X147938671Y-108544178D01*
X147938671Y-108732864D02*
X147891500Y-108638521D01*
X147844328Y-108591350D01*
X147749985Y-108544178D01*
X147655642Y-108544178D01*
X161972171Y-110938128D02*
X162302371Y-110466414D01*
X162538228Y-110938128D02*
X162538228Y-109947528D01*
X162160857Y-109947528D01*
X162066514Y-109994700D01*
X162019342Y-110041871D01*
X161972171Y-110136214D01*
X161972171Y-110277728D01*
X162019342Y-110372071D01*
X162066514Y-110419242D01*
X162160857Y-110466414D01*
X162538228Y-110466414D01*
X161170257Y-110890957D02*
X161264600Y-110938128D01*
X161453285Y-110938128D01*
X161547628Y-110890957D01*
X161594800Y-110796614D01*
X161594800Y-110419242D01*
X161547628Y-110324900D01*
X161453285Y-110277728D01*
X161264600Y-110277728D01*
X161170257Y-110324900D01*
X161123085Y-110419242D01*
X161123085Y-110513585D01*
X161594800Y-110607928D01*
X160792885Y-110277728D02*
X160557028Y-110938128D01*
X160321171Y-110277728D01*
X158670171Y-110938128D02*
X159236228Y-110938128D01*
X158953200Y-110938128D02*
X158953200Y-109947528D01*
X159047542Y-110089042D01*
X159141885Y-110183385D01*
X159236228Y-110230557D01*
X158245628Y-110843785D02*
X158198457Y-110890957D01*
X158245628Y-110938128D01*
X158292800Y-110890957D01*
X158245628Y-110843785D01*
X158245628Y-110938128D01*
X157585228Y-109947528D02*
X157490885Y-109947528D01*
X157396542Y-109994700D01*
X157349371Y-110041871D01*
X157302200Y-110136214D01*
X157255028Y-110324900D01*
X157255028Y-110560757D01*
X157302200Y-110749442D01*
X157349371Y-110843785D01*
X157396542Y-110890957D01*
X157490885Y-110938128D01*
X157585228Y-110938128D01*
X157679571Y-110890957D01*
X157726742Y-110843785D01*
X157773914Y-110749442D01*
X157821085Y-110560757D01*
X157821085Y-110324900D01*
X157773914Y-110136214D01*
X157726742Y-110041871D01*
X157679571Y-109994700D01*
X157585228Y-109947528D01*
X156075742Y-110938128D02*
X156075742Y-109947528D01*
X155839885Y-109947528D01*
X155698371Y-109994700D01*
X155604028Y-110089042D01*
X155556857Y-110183385D01*
X155509685Y-110372071D01*
X155509685Y-110513585D01*
X155556857Y-110702271D01*
X155604028Y-110796614D01*
X155698371Y-110890957D01*
X155839885Y-110938128D01*
X156075742Y-110938128D01*
X154707771Y-110890957D02*
X154802114Y-110938128D01*
X154990800Y-110938128D01*
X155085142Y-110890957D01*
X155132314Y-110796614D01*
X155132314Y-110419242D01*
X155085142Y-110324900D01*
X154990800Y-110277728D01*
X154802114Y-110277728D01*
X154707771Y-110324900D01*
X154660600Y-110419242D01*
X154660600Y-110513585D01*
X155132314Y-110607928D01*
X153811514Y-110890957D02*
X153905857Y-110938128D01*
X154094542Y-110938128D01*
X154188885Y-110890957D01*
X154236057Y-110843785D01*
X154283228Y-110749442D01*
X154283228Y-110466414D01*
X154236057Y-110372071D01*
X154188885Y-110324900D01*
X154094542Y-110277728D01*
X153905857Y-110277728D01*
X153811514Y-110324900D01*
X153009600Y-110890957D02*
X153103942Y-110938128D01*
X153292628Y-110938128D01*
X153386971Y-110890957D01*
X153434142Y-110796614D01*
X153434142Y-110419242D01*
X153386971Y-110324900D01*
X153292628Y-110277728D01*
X153103942Y-110277728D01*
X153009600Y-110324900D01*
X152962428Y-110419242D01*
X152962428Y-110513585D01*
X153434142Y-110607928D01*
X152537885Y-110938128D02*
X152537885Y-110277728D01*
X152537885Y-110372071D02*
X152490714Y-110324900D01*
X152396371Y-110277728D01*
X152254857Y-110277728D01*
X152160514Y-110324900D01*
X152113342Y-110419242D01*
X152113342Y-110938128D01*
X152113342Y-110419242D02*
X152066171Y-110324900D01*
X151971828Y-110277728D01*
X151830314Y-110277728D01*
X151735971Y-110324900D01*
X151688800Y-110419242D01*
X151688800Y-110938128D01*
X151217085Y-110938128D02*
X151217085Y-109947528D01*
X151217085Y-110324900D02*
X151122742Y-110277728D01*
X150934057Y-110277728D01*
X150839714Y-110324900D01*
X150792542Y-110372071D01*
X150745371Y-110466414D01*
X150745371Y-110749442D01*
X150792542Y-110843785D01*
X150839714Y-110890957D01*
X150934057Y-110938128D01*
X151122742Y-110938128D01*
X151217085Y-110890957D01*
X149943457Y-110890957D02*
X150037800Y-110938128D01*
X150226485Y-110938128D01*
X150320828Y-110890957D01*
X150368000Y-110796614D01*
X150368000Y-110419242D01*
X150320828Y-110324900D01*
X150226485Y-110277728D01*
X150037800Y-110277728D01*
X149943457Y-110324900D01*
X149896285Y-110419242D01*
X149896285Y-110513585D01*
X150368000Y-110607928D01*
X149471742Y-110938128D02*
X149471742Y-110277728D01*
X149471742Y-110466414D02*
X149424571Y-110372071D01*
X149377400Y-110324900D01*
X149283057Y-110277728D01*
X149188714Y-110277728D01*
X148150942Y-110041871D02*
X148103771Y-109994700D01*
X148009428Y-109947528D01*
X147773571Y-109947528D01*
X147679228Y-109994700D01*
X147632057Y-110041871D01*
X147584885Y-110136214D01*
X147584885Y-110230557D01*
X147632057Y-110372071D01*
X148198114Y-110938128D01*
X147584885Y-110938128D01*
X146971657Y-109947528D02*
X146877314Y-109947528D01*
X146782971Y-109994700D01*
X146735800Y-110041871D01*
X146688628Y-110136214D01*
X146641457Y-110324900D01*
X146641457Y-110560757D01*
X146688628Y-110749442D01*
X146735800Y-110843785D01*
X146782971Y-110890957D01*
X146877314Y-110938128D01*
X146971657Y-110938128D01*
X147066000Y-110890957D01*
X147113171Y-110843785D01*
X147160342Y-110749442D01*
X147207514Y-110560757D01*
X147207514Y-110324900D01*
X147160342Y-110136214D01*
X147113171Y-110041871D01*
X147066000Y-109994700D01*
X146971657Y-109947528D01*
X145698028Y-110938128D02*
X146264085Y-110938128D01*
X145981057Y-110938128D02*
X145981057Y-109947528D01*
X146075400Y-110089042D01*
X146169742Y-110183385D01*
X146264085Y-110230557D01*
X145226314Y-110938128D02*
X145037628Y-110938128D01*
X144943285Y-110890957D01*
X144896114Y-110843785D01*
X144801771Y-110702271D01*
X144754600Y-110513585D01*
X144754600Y-110136214D01*
X144801771Y-110041871D01*
X144848942Y-109994700D01*
X144943285Y-109947528D01*
X145131971Y-109947528D01*
X145226314Y-109994700D01*
X145273485Y-110041871D01*
X145320657Y-110136214D01*
X145320657Y-110372071D01*
X145273485Y-110466414D01*
X145226314Y-110513585D01*
X145131971Y-110560757D01*
X144943285Y-110560757D01*
X144848942Y-110513585D01*
X144801771Y-110466414D01*
X144754600Y-110372071D01*
X159731528Y-112671678D02*
X159731528Y-111681078D01*
X159354157Y-111681078D01*
X159259814Y-111728250D01*
X159212642Y-111775421D01*
X159165471Y-111869764D01*
X159165471Y-112011278D01*
X159212642Y-112105621D01*
X159259814Y-112152792D01*
X159354157Y-112199964D01*
X159731528Y-112199964D01*
X158033357Y-111633907D02*
X158882442Y-112907535D01*
X157703157Y-112671678D02*
X157703157Y-111681078D01*
X157137100Y-112671678D01*
X157137100Y-111681078D01*
X156004985Y-111681078D02*
X155391757Y-111681078D01*
X155721957Y-112058450D01*
X155580442Y-112058450D01*
X155486100Y-112105621D01*
X155438928Y-112152792D01*
X155391757Y-112247135D01*
X155391757Y-112482992D01*
X155438928Y-112577335D01*
X155486100Y-112624507D01*
X155580442Y-112671678D01*
X155863471Y-112671678D01*
X155957814Y-112624507D01*
X156004985Y-112577335D01*
X154967214Y-112294307D02*
X154212471Y-112294307D01*
X153552071Y-111681078D02*
X153457728Y-111681078D01*
X153363385Y-111728250D01*
X153316214Y-111775421D01*
X153269042Y-111869764D01*
X153221871Y-112058450D01*
X153221871Y-112294307D01*
X153269042Y-112482992D01*
X153316214Y-112577335D01*
X153363385Y-112624507D01*
X153457728Y-112671678D01*
X153552071Y-112671678D01*
X153646414Y-112624507D01*
X153693585Y-112577335D01*
X153740757Y-112482992D01*
X153787928Y-112294307D01*
X153787928Y-112058450D01*
X153740757Y-111869764D01*
X153693585Y-111775421D01*
X153646414Y-111728250D01*
X153552071Y-111681078D01*
X152608642Y-111681078D02*
X152514300Y-111681078D01*
X152419957Y-111728250D01*
X152372785Y-111775421D01*
X152325614Y-111869764D01*
X152278442Y-112058450D01*
X152278442Y-112294307D01*
X152325614Y-112482992D01*
X152372785Y-112577335D01*
X152419957Y-112624507D01*
X152514300Y-112671678D01*
X152608642Y-112671678D01*
X152702985Y-112624507D01*
X152750157Y-112577335D01*
X152797328Y-112482992D01*
X152844500Y-112294307D01*
X152844500Y-112058450D01*
X152797328Y-111869764D01*
X152750157Y-111775421D01*
X152702985Y-111728250D01*
X152608642Y-111681078D01*
X151665214Y-111681078D02*
X151570871Y-111681078D01*
X151476528Y-111728250D01*
X151429357Y-111775421D01*
X151382185Y-111869764D01*
X151335014Y-112058450D01*
X151335014Y-112294307D01*
X151382185Y-112482992D01*
X151429357Y-112577335D01*
X151476528Y-112624507D01*
X151570871Y-112671678D01*
X151665214Y-112671678D01*
X151759557Y-112624507D01*
X151806728Y-112577335D01*
X151853900Y-112482992D01*
X151901071Y-112294307D01*
X151901071Y-112058450D01*
X151853900Y-111869764D01*
X151806728Y-111775421D01*
X151759557Y-111728250D01*
X151665214Y-111681078D01*
X150721785Y-111681078D02*
X150627442Y-111681078D01*
X150533100Y-111728250D01*
X150485928Y-111775421D01*
X150438757Y-111869764D01*
X150391585Y-112058450D01*
X150391585Y-112294307D01*
X150438757Y-112482992D01*
X150485928Y-112577335D01*
X150533100Y-112624507D01*
X150627442Y-112671678D01*
X150721785Y-112671678D01*
X150816128Y-112624507D01*
X150863300Y-112577335D01*
X150910471Y-112482992D01*
X150957642Y-112294307D01*
X150957642Y-112058450D01*
X150910471Y-111869764D01*
X150863300Y-111775421D01*
X150816128Y-111728250D01*
X150721785Y-111681078D01*
X149778357Y-111681078D02*
X149684014Y-111681078D01*
X149589671Y-111728250D01*
X149542500Y-111775421D01*
X149495328Y-111869764D01*
X149448157Y-112058450D01*
X149448157Y-112294307D01*
X149495328Y-112482992D01*
X149542500Y-112577335D01*
X149589671Y-112624507D01*
X149684014Y-112671678D01*
X149778357Y-112671678D01*
X149872700Y-112624507D01*
X149919871Y-112577335D01*
X149967042Y-112482992D01*
X150014214Y-112294307D01*
X150014214Y-112058450D01*
X149967042Y-111869764D01*
X149919871Y-111775421D01*
X149872700Y-111728250D01*
X149778357Y-111681078D01*
X149070785Y-111775421D02*
X149023614Y-111728250D01*
X148929271Y-111681078D01*
X148693414Y-111681078D01*
X148599071Y-111728250D01*
X148551900Y-111775421D01*
X148504728Y-111869764D01*
X148504728Y-111964107D01*
X148551900Y-112105621D01*
X149117957Y-112671678D01*
X148504728Y-112671678D01*
X147561300Y-112671678D02*
X148127357Y-112671678D01*
X147844328Y-112671678D02*
X147844328Y-111681078D01*
X147938671Y-111822592D01*
X148033014Y-111916935D01*
X148127357Y-111964107D01*
D11*
X162012380Y-77959104D02*
X162012380Y-78578152D01*
X162393333Y-78244819D01*
X162393333Y-78387676D01*
X162440952Y-78482914D01*
X162488571Y-78530533D01*
X162583809Y-78578152D01*
X162821904Y-78578152D01*
X162917142Y-78530533D01*
X162964761Y-78482914D01*
X163012380Y-78387676D01*
X163012380Y-78101961D01*
X162964761Y-78006723D01*
X162917142Y-77959104D01*
X162012380Y-78863866D02*
X163012380Y-79197200D01*
X162012380Y-79530533D01*
X162012380Y-79768628D02*
X162012380Y-80387676D01*
X162393333Y-80054342D01*
X162393333Y-80197200D01*
X162440952Y-80292438D01*
X162488571Y-80340057D01*
X162583809Y-80387676D01*
X162821904Y-80387676D01*
X162917142Y-80340057D01*
X162964761Y-80292438D01*
X163012380Y-80197200D01*
X163012380Y-79911485D01*
X162964761Y-79816247D01*
X162917142Y-79768628D01*
X165504761Y-77890952D02*
X165552380Y-78033809D01*
X165552380Y-78271904D01*
X165504761Y-78367142D01*
X165457142Y-78414761D01*
X165361904Y-78462380D01*
X165266666Y-78462380D01*
X165171428Y-78414761D01*
X165123809Y-78367142D01*
X165076190Y-78271904D01*
X165028571Y-78081428D01*
X164980952Y-77986190D01*
X164933333Y-77938571D01*
X164838095Y-77890952D01*
X164742857Y-77890952D01*
X164647619Y-77938571D01*
X164600000Y-77986190D01*
X164552380Y-78081428D01*
X164552380Y-78319523D01*
X164600000Y-78462380D01*
X164552380Y-78795714D02*
X165552380Y-79033809D01*
X164838095Y-79224285D01*
X165552380Y-79414761D01*
X164552380Y-79652857D01*
X165552380Y-80033809D02*
X164552380Y-80033809D01*
X164552380Y-80271904D01*
X164600000Y-80414761D01*
X164695238Y-80510000D01*
X164790476Y-80557619D01*
X164980952Y-80605238D01*
X165123809Y-80605238D01*
X165314285Y-80557619D01*
X165409523Y-80510000D01*
X165504761Y-80414761D01*
X165552380Y-80271904D01*
X165552380Y-80033809D01*
X165552380Y-81033809D02*
X164552380Y-81033809D01*
X164552380Y-81700476D02*
X164552380Y-81890952D01*
X164600000Y-81986190D01*
X164695238Y-82081428D01*
X164885714Y-82129047D01*
X165219047Y-82129047D01*
X165409523Y-82081428D01*
X165504761Y-81986190D01*
X165552380Y-81890952D01*
X165552380Y-81700476D01*
X165504761Y-81605238D01*
X165409523Y-81510000D01*
X165219047Y-81462380D01*
X164885714Y-81462380D01*
X164695238Y-81510000D01*
X164600000Y-81605238D01*
X164552380Y-81700476D01*
X168044761Y-77900495D02*
X168092380Y-78043352D01*
X168092380Y-78281447D01*
X168044761Y-78376685D01*
X167997142Y-78424304D01*
X167901904Y-78471923D01*
X167806666Y-78471923D01*
X167711428Y-78424304D01*
X167663809Y-78376685D01*
X167616190Y-78281447D01*
X167568571Y-78090971D01*
X167520952Y-77995733D01*
X167473333Y-77948114D01*
X167378095Y-77900495D01*
X167282857Y-77900495D01*
X167187619Y-77948114D01*
X167140000Y-77995733D01*
X167092380Y-78090971D01*
X167092380Y-78329066D01*
X167140000Y-78471923D01*
X167092380Y-78805257D02*
X168092380Y-79043352D01*
X167378095Y-79233828D01*
X168092380Y-79424304D01*
X167092380Y-79662400D01*
X167997142Y-80614780D02*
X168044761Y-80567161D01*
X168092380Y-80424304D01*
X168092380Y-80329066D01*
X168044761Y-80186209D01*
X167949523Y-80090971D01*
X167854285Y-80043352D01*
X167663809Y-79995733D01*
X167520952Y-79995733D01*
X167330476Y-80043352D01*
X167235238Y-80090971D01*
X167140000Y-80186209D01*
X167092380Y-80329066D01*
X167092380Y-80424304D01*
X167140000Y-80567161D01*
X167187619Y-80614780D01*
X168092380Y-81519542D02*
X168092380Y-81043352D01*
X167092380Y-81043352D01*
X168092380Y-81852876D02*
X167092380Y-81852876D01*
X168092380Y-82424304D02*
X167520952Y-81995733D01*
X167092380Y-82424304D02*
X167663809Y-81852876D01*
X169680000Y-78435295D02*
X169632380Y-78340057D01*
X169632380Y-78197200D01*
X169680000Y-78054342D01*
X169775238Y-77959104D01*
X169870476Y-77911485D01*
X170060952Y-77863866D01*
X170203809Y-77863866D01*
X170394285Y-77911485D01*
X170489523Y-77959104D01*
X170584761Y-78054342D01*
X170632380Y-78197200D01*
X170632380Y-78292438D01*
X170584761Y-78435295D01*
X170537142Y-78482914D01*
X170203809Y-78482914D01*
X170203809Y-78292438D01*
X170632380Y-78911485D02*
X169632380Y-78911485D01*
X170632380Y-79482914D01*
X169632380Y-79482914D01*
X170632380Y-79959104D02*
X169632380Y-79959104D01*
X169632380Y-80197200D01*
X169680000Y-80340057D01*
X169775238Y-80435295D01*
X169870476Y-80482914D01*
X170060952Y-80530533D01*
X170203809Y-80530533D01*
X170394285Y-80482914D01*
X170489523Y-80435295D01*
X170584761Y-80340057D01*
X170632380Y-80197200D01*
X170632380Y-79959104D01*
D12*
X143718800Y-105146400D02*
X144418800Y-105146400D01*
X144418800Y-103946400D02*
X143718800Y-103946400D01*
X137556800Y-102000800D02*
X137556800Y-101300800D01*
X136356800Y-101300800D02*
X136356800Y-102000800D01*
X157235600Y-91039200D02*
X157235600Y-91739200D01*
X158435600Y-91739200D02*
X158435600Y-91039200D01*
X158435600Y-103575600D02*
X158435600Y-102875600D01*
X157235600Y-102875600D02*
X157235600Y-103575600D01*
X177130000Y-92145600D02*
X177130000Y-91445600D01*
X175930000Y-91445600D02*
X175930000Y-92145600D01*
X177845200Y-101203200D02*
X177145200Y-101203200D01*
X177145200Y-102403200D02*
X177845200Y-102403200D01*
X168240000Y-92145600D02*
X168240000Y-91445600D01*
X167040000Y-91445600D02*
X167040000Y-92145600D01*
X166324800Y-102403200D02*
X167024800Y-102403200D01*
X167024800Y-101203200D02*
X166324800Y-101203200D01*
X134016000Y-86248800D02*
X134716000Y-86248800D01*
X134716000Y-85048800D02*
X134016000Y-85048800D01*
X134716000Y-86674400D02*
X134016000Y-86674400D01*
X134016000Y-87874400D02*
X134716000Y-87874400D01*
X134016000Y-89550800D02*
X134716000Y-89550800D01*
X134716000Y-88350800D02*
X134016000Y-88350800D01*
X139709600Y-94747600D02*
X139709600Y-95447600D01*
X140909600Y-95447600D02*
X140909600Y-94747600D01*
X142484400Y-95447600D02*
X142484400Y-94747600D01*
X141284400Y-94747600D02*
X141284400Y-95447600D01*
X142859200Y-94747600D02*
X142859200Y-95447600D01*
X144059200Y-95447600D02*
X144059200Y-94747600D01*
X147622800Y-89402800D02*
X146162800Y-89402800D01*
X147622800Y-92562800D02*
X145462800Y-92562800D01*
X147622800Y-92562800D02*
X147622800Y-91632800D01*
X147622800Y-89402800D02*
X147622800Y-90332800D01*
X141091200Y-102150800D02*
X141091200Y-101150800D01*
X139731200Y-101150800D02*
X139731200Y-102150800D01*
X138004000Y-101150800D02*
X138004000Y-102150800D01*
X139364000Y-102150800D02*
X139364000Y-101150800D01*
X136784800Y-109177200D02*
X136784800Y-110177200D01*
X138144800Y-110177200D02*
X138144800Y-109177200D01*
X136417600Y-110177200D02*
X136417600Y-109177200D01*
X135057600Y-109177200D02*
X135057600Y-110177200D01*
X144799600Y-91482800D02*
X144799600Y-90482800D01*
X143439600Y-90482800D02*
X143439600Y-91482800D01*
X146448400Y-84613200D02*
X145448400Y-84613200D01*
X145448400Y-85973200D02*
X146448400Y-85973200D01*
X137840000Y-87774400D02*
X137840000Y-86774400D01*
X136480000Y-86774400D02*
X136480000Y-87774400D01*
X139508599Y-87775399D02*
X139508599Y-86775399D01*
X138148599Y-86775399D02*
X138148599Y-87775399D01*
X131818000Y-98227600D02*
X130818000Y-98227600D01*
X130818000Y-99587600D02*
X131818000Y-99587600D01*
X169855600Y-92514800D02*
X169855600Y-93514800D01*
X171215600Y-93514800D02*
X171215600Y-92514800D01*
X172661200Y-99040400D02*
X171661200Y-99040400D01*
X171661200Y-100400400D02*
X172661200Y-100400400D01*
X172790400Y-93514800D02*
X172790400Y-92514800D01*
X171430400Y-92514800D02*
X171430400Y-93514800D01*
X173005200Y-92514800D02*
X173005200Y-93514800D01*
X174365200Y-93514800D02*
X174365200Y-92514800D01*
X171661200Y-98825600D02*
X172661200Y-98825600D01*
X172661200Y-97465600D02*
X171661200Y-97465600D01*
X172661200Y-95890800D02*
X171661200Y-95890800D01*
X171661200Y-97250800D02*
X172661200Y-97250800D01*
X158515600Y-97832800D02*
X158515600Y-96832800D01*
X157155600Y-96832800D02*
X157155600Y-97832800D01*
X144968800Y-103260800D02*
X142518800Y-103260800D01*
X143168800Y-100040800D02*
X144968800Y-100040800D01*
X138466000Y-90570000D02*
X132456000Y-90570000D01*
X136216000Y-97390000D02*
X132456000Y-97390000D01*
X132456000Y-90570000D02*
X132456000Y-91830000D01*
X132456000Y-97390000D02*
X132456000Y-96130000D01*
D11*
X144235466Y-106153542D02*
X144283085Y-106201161D01*
X144425942Y-106248780D01*
X144521180Y-106248780D01*
X144664038Y-106201161D01*
X144759276Y-106105923D01*
X144806895Y-106010685D01*
X144854514Y-105820209D01*
X144854514Y-105677352D01*
X144806895Y-105486876D01*
X144759276Y-105391638D01*
X144664038Y-105296400D01*
X144521180Y-105248780D01*
X144425942Y-105248780D01*
X144283085Y-105296400D01*
X144235466Y-105344019D01*
X143283085Y-106248780D02*
X143854514Y-106248780D01*
X143568800Y-106248780D02*
X143568800Y-105248780D01*
X143664038Y-105391638D01*
X143759276Y-105486876D01*
X143854514Y-105534495D01*
X137313942Y-104532133D02*
X137361561Y-104484514D01*
X137409180Y-104341657D01*
X137409180Y-104246419D01*
X137361561Y-104103561D01*
X137266323Y-104008323D01*
X137171085Y-103960704D01*
X136980609Y-103913085D01*
X136837752Y-103913085D01*
X136647276Y-103960704D01*
X136552038Y-104008323D01*
X136456800Y-104103561D01*
X136409180Y-104246419D01*
X136409180Y-104341657D01*
X136456800Y-104484514D01*
X136504419Y-104532133D01*
X136504419Y-104913085D02*
X136456800Y-104960704D01*
X136409180Y-105055942D01*
X136409180Y-105294038D01*
X136456800Y-105389276D01*
X136504419Y-105436895D01*
X136599657Y-105484514D01*
X136694895Y-105484514D01*
X136837752Y-105436895D01*
X137409180Y-104865466D01*
X137409180Y-105484514D01*
X156821142Y-91273333D02*
X156868761Y-91225714D01*
X156916380Y-91082857D01*
X156916380Y-90987619D01*
X156868761Y-90844761D01*
X156773523Y-90749523D01*
X156678285Y-90701904D01*
X156487809Y-90654285D01*
X156344952Y-90654285D01*
X156154476Y-90701904D01*
X156059238Y-90749523D01*
X155964000Y-90844761D01*
X155916380Y-90987619D01*
X155916380Y-91082857D01*
X155964000Y-91225714D01*
X156011619Y-91273333D01*
X156249714Y-92130476D02*
X156916380Y-92130476D01*
X155868761Y-91892380D02*
X156583047Y-91654285D01*
X156583047Y-92273333D01*
X156942742Y-103058933D02*
X156990361Y-103011314D01*
X157037980Y-102868457D01*
X157037980Y-102773219D01*
X156990361Y-102630361D01*
X156895123Y-102535123D01*
X156799885Y-102487504D01*
X156609409Y-102439885D01*
X156466552Y-102439885D01*
X156276076Y-102487504D01*
X156180838Y-102535123D01*
X156085600Y-102630361D01*
X156037980Y-102773219D01*
X156037980Y-102868457D01*
X156085600Y-103011314D01*
X156133219Y-103058933D01*
X156037980Y-103963695D02*
X156037980Y-103487504D01*
X156514171Y-103439885D01*
X156466552Y-103487504D01*
X156418933Y-103582742D01*
X156418933Y-103820838D01*
X156466552Y-103916076D01*
X156514171Y-103963695D01*
X156609409Y-104011314D01*
X156847504Y-104011314D01*
X156942742Y-103963695D01*
X156990361Y-103916076D01*
X157037980Y-103820838D01*
X157037980Y-103582742D01*
X156990361Y-103487504D01*
X156942742Y-103439885D01*
X176887142Y-88733333D02*
X176934761Y-88685714D01*
X176982380Y-88542857D01*
X176982380Y-88447619D01*
X176934761Y-88304761D01*
X176839523Y-88209523D01*
X176744285Y-88161904D01*
X176553809Y-88114285D01*
X176410952Y-88114285D01*
X176220476Y-88161904D01*
X176125238Y-88209523D01*
X176030000Y-88304761D01*
X175982380Y-88447619D01*
X175982380Y-88542857D01*
X176030000Y-88685714D01*
X176077619Y-88733333D01*
X175982380Y-89590476D02*
X175982380Y-89400000D01*
X176030000Y-89304761D01*
X176077619Y-89257142D01*
X176220476Y-89161904D01*
X176410952Y-89114285D01*
X176791904Y-89114285D01*
X176887142Y-89161904D01*
X176934761Y-89209523D01*
X176982380Y-89304761D01*
X176982380Y-89495238D01*
X176934761Y-89590476D01*
X176887142Y-89638095D01*
X176791904Y-89685714D01*
X176553809Y-89685714D01*
X176458571Y-89638095D01*
X176410952Y-89590476D01*
X176363333Y-89495238D01*
X176363333Y-89304761D01*
X176410952Y-89209523D01*
X176458571Y-89161904D01*
X176553809Y-89114285D01*
X174817066Y-102160342D02*
X174864685Y-102207961D01*
X175007542Y-102255580D01*
X175102780Y-102255580D01*
X175245638Y-102207961D01*
X175340876Y-102112723D01*
X175388495Y-102017485D01*
X175436114Y-101827009D01*
X175436114Y-101684152D01*
X175388495Y-101493676D01*
X175340876Y-101398438D01*
X175245638Y-101303200D01*
X175102780Y-101255580D01*
X175007542Y-101255580D01*
X174864685Y-101303200D01*
X174817066Y-101350819D01*
X174483733Y-101255580D02*
X173817066Y-101255580D01*
X174245638Y-102255580D01*
X167997142Y-88784133D02*
X168044761Y-88736514D01*
X168092380Y-88593657D01*
X168092380Y-88498419D01*
X168044761Y-88355561D01*
X167949523Y-88260323D01*
X167854285Y-88212704D01*
X167663809Y-88165085D01*
X167520952Y-88165085D01*
X167330476Y-88212704D01*
X167235238Y-88260323D01*
X167140000Y-88355561D01*
X167092380Y-88498419D01*
X167092380Y-88593657D01*
X167140000Y-88736514D01*
X167187619Y-88784133D01*
X167520952Y-89355561D02*
X167473333Y-89260323D01*
X167425714Y-89212704D01*
X167330476Y-89165085D01*
X167282857Y-89165085D01*
X167187619Y-89212704D01*
X167140000Y-89260323D01*
X167092380Y-89355561D01*
X167092380Y-89546038D01*
X167140000Y-89641276D01*
X167187619Y-89688895D01*
X167282857Y-89736514D01*
X167330476Y-89736514D01*
X167425714Y-89688895D01*
X167473333Y-89641276D01*
X167520952Y-89546038D01*
X167520952Y-89355561D01*
X167568571Y-89260323D01*
X167616190Y-89212704D01*
X167711428Y-89165085D01*
X167901904Y-89165085D01*
X167997142Y-89212704D01*
X168044761Y-89260323D01*
X168092380Y-89355561D01*
X168092380Y-89546038D01*
X168044761Y-89641276D01*
X167997142Y-89688895D01*
X167901904Y-89736514D01*
X167711428Y-89736514D01*
X167616190Y-89688895D01*
X167568571Y-89641276D01*
X167520952Y-89546038D01*
X163996666Y-102160342D02*
X164044285Y-102207961D01*
X164187142Y-102255580D01*
X164282380Y-102255580D01*
X164425238Y-102207961D01*
X164520476Y-102112723D01*
X164568095Y-102017485D01*
X164615714Y-101827009D01*
X164615714Y-101684152D01*
X164568095Y-101493676D01*
X164520476Y-101398438D01*
X164425238Y-101303200D01*
X164282380Y-101255580D01*
X164187142Y-101255580D01*
X164044285Y-101303200D01*
X163996666Y-101350819D01*
X163520476Y-102255580D02*
X163330000Y-102255580D01*
X163234761Y-102207961D01*
X163187142Y-102160342D01*
X163091904Y-102017485D01*
X163044285Y-101827009D01*
X163044285Y-101446057D01*
X163091904Y-101350819D01*
X163139523Y-101303200D01*
X163234761Y-101255580D01*
X163425238Y-101255580D01*
X163520476Y-101303200D01*
X163568095Y-101350819D01*
X163615714Y-101446057D01*
X163615714Y-101684152D01*
X163568095Y-101779390D01*
X163520476Y-101827009D01*
X163425238Y-101874628D01*
X163234761Y-101874628D01*
X163139523Y-101827009D01*
X163091904Y-101779390D01*
X163044285Y-101684152D01*
X131656057Y-86005942D02*
X131703676Y-86053561D01*
X131846533Y-86101180D01*
X131941771Y-86101180D01*
X132084628Y-86053561D01*
X132179866Y-85958323D01*
X132227485Y-85863085D01*
X132275104Y-85672609D01*
X132275104Y-85529752D01*
X132227485Y-85339276D01*
X132179866Y-85244038D01*
X132084628Y-85148800D01*
X131941771Y-85101180D01*
X131846533Y-85101180D01*
X131703676Y-85148800D01*
X131656057Y-85196419D01*
X130703676Y-86101180D02*
X131275104Y-86101180D01*
X130989390Y-86101180D02*
X130989390Y-85101180D01*
X131084628Y-85244038D01*
X131179866Y-85339276D01*
X131275104Y-85386895D01*
X130084628Y-85101180D02*
X129989390Y-85101180D01*
X129894152Y-85148800D01*
X129846533Y-85196419D01*
X129798914Y-85291657D01*
X129751295Y-85482133D01*
X129751295Y-85720228D01*
X129798914Y-85910704D01*
X129846533Y-86005942D01*
X129894152Y-86053561D01*
X129989390Y-86101180D01*
X130084628Y-86101180D01*
X130179866Y-86053561D01*
X130227485Y-86005942D01*
X130275104Y-85910704D01*
X130322723Y-85720228D01*
X130322723Y-85482133D01*
X130275104Y-85291657D01*
X130227485Y-85196419D01*
X130179866Y-85148800D01*
X130084628Y-85101180D01*
X131656057Y-87631542D02*
X131703676Y-87679161D01*
X131846533Y-87726780D01*
X131941771Y-87726780D01*
X132084628Y-87679161D01*
X132179866Y-87583923D01*
X132227485Y-87488685D01*
X132275104Y-87298209D01*
X132275104Y-87155352D01*
X132227485Y-86964876D01*
X132179866Y-86869638D01*
X132084628Y-86774400D01*
X131941771Y-86726780D01*
X131846533Y-86726780D01*
X131703676Y-86774400D01*
X131656057Y-86822019D01*
X130703676Y-87726780D02*
X131275104Y-87726780D01*
X130989390Y-87726780D02*
X130989390Y-86726780D01*
X131084628Y-86869638D01*
X131179866Y-86964876D01*
X131275104Y-87012495D01*
X129751295Y-87726780D02*
X130322723Y-87726780D01*
X130037009Y-87726780D02*
X130037009Y-86726780D01*
X130132247Y-86869638D01*
X130227485Y-86964876D01*
X130322723Y-87012495D01*
X131656057Y-89307942D02*
X131703676Y-89355561D01*
X131846533Y-89403180D01*
X131941771Y-89403180D01*
X132084628Y-89355561D01*
X132179866Y-89260323D01*
X132227485Y-89165085D01*
X132275104Y-88974609D01*
X132275104Y-88831752D01*
X132227485Y-88641276D01*
X132179866Y-88546038D01*
X132084628Y-88450800D01*
X131941771Y-88403180D01*
X131846533Y-88403180D01*
X131703676Y-88450800D01*
X131656057Y-88498419D01*
X130703676Y-89403180D02*
X131275104Y-89403180D01*
X130989390Y-89403180D02*
X130989390Y-88403180D01*
X131084628Y-88546038D01*
X131179866Y-88641276D01*
X131275104Y-88688895D01*
X130322723Y-88498419D02*
X130275104Y-88450800D01*
X130179866Y-88403180D01*
X129941771Y-88403180D01*
X129846533Y-88450800D01*
X129798914Y-88498419D01*
X129751295Y-88593657D01*
X129751295Y-88688895D01*
X129798914Y-88831752D01*
X130370342Y-89403180D01*
X129751295Y-89403180D01*
X140666742Y-97756742D02*
X140714361Y-97709123D01*
X140761980Y-97566266D01*
X140761980Y-97471028D01*
X140714361Y-97328171D01*
X140619123Y-97232933D01*
X140523885Y-97185314D01*
X140333409Y-97137695D01*
X140190552Y-97137695D01*
X140000076Y-97185314D01*
X139904838Y-97232933D01*
X139809600Y-97328171D01*
X139761980Y-97471028D01*
X139761980Y-97566266D01*
X139809600Y-97709123D01*
X139857219Y-97756742D01*
X140761980Y-98709123D02*
X140761980Y-98137695D01*
X140761980Y-98423409D02*
X139761980Y-98423409D01*
X139904838Y-98328171D01*
X140000076Y-98232933D01*
X140047695Y-98137695D01*
X139761980Y-99042457D02*
X139761980Y-99661504D01*
X140142933Y-99328171D01*
X140142933Y-99471028D01*
X140190552Y-99566266D01*
X140238171Y-99613885D01*
X140333409Y-99661504D01*
X140571504Y-99661504D01*
X140666742Y-99613885D01*
X140714361Y-99566266D01*
X140761980Y-99471028D01*
X140761980Y-99185314D01*
X140714361Y-99090076D01*
X140666742Y-99042457D01*
X142292342Y-97756742D02*
X142339961Y-97709123D01*
X142387580Y-97566266D01*
X142387580Y-97471028D01*
X142339961Y-97328171D01*
X142244723Y-97232933D01*
X142149485Y-97185314D01*
X141959009Y-97137695D01*
X141816152Y-97137695D01*
X141625676Y-97185314D01*
X141530438Y-97232933D01*
X141435200Y-97328171D01*
X141387580Y-97471028D01*
X141387580Y-97566266D01*
X141435200Y-97709123D01*
X141482819Y-97756742D01*
X142387580Y-98709123D02*
X142387580Y-98137695D01*
X142387580Y-98423409D02*
X141387580Y-98423409D01*
X141530438Y-98328171D01*
X141625676Y-98232933D01*
X141673295Y-98137695D01*
X141720914Y-99566266D02*
X142387580Y-99566266D01*
X141339961Y-99328171D02*
X142054247Y-99090076D01*
X142054247Y-99709123D01*
X143816342Y-97756742D02*
X143863961Y-97709123D01*
X143911580Y-97566266D01*
X143911580Y-97471028D01*
X143863961Y-97328171D01*
X143768723Y-97232933D01*
X143673485Y-97185314D01*
X143483009Y-97137695D01*
X143340152Y-97137695D01*
X143149676Y-97185314D01*
X143054438Y-97232933D01*
X142959200Y-97328171D01*
X142911580Y-97471028D01*
X142911580Y-97566266D01*
X142959200Y-97709123D01*
X143006819Y-97756742D01*
X143911580Y-98709123D02*
X143911580Y-98137695D01*
X143911580Y-98423409D02*
X142911580Y-98423409D01*
X143054438Y-98328171D01*
X143149676Y-98232933D01*
X143197295Y-98137695D01*
X142911580Y-99613885D02*
X142911580Y-99137695D01*
X143387771Y-99090076D01*
X143340152Y-99137695D01*
X143292533Y-99232933D01*
X143292533Y-99471028D01*
X143340152Y-99566266D01*
X143387771Y-99613885D01*
X143483009Y-99661504D01*
X143721104Y-99661504D01*
X143816342Y-99613885D01*
X143863961Y-99566266D01*
X143911580Y-99471028D01*
X143911580Y-99232933D01*
X143863961Y-99137695D01*
X143816342Y-99090076D01*
X146958038Y-94030419D02*
X147053276Y-93982800D01*
X147148514Y-93887561D01*
X147291371Y-93744704D01*
X147386609Y-93697085D01*
X147481847Y-93697085D01*
X147434228Y-93935180D02*
X147529466Y-93887561D01*
X147624704Y-93792323D01*
X147672323Y-93601847D01*
X147672323Y-93268514D01*
X147624704Y-93078038D01*
X147529466Y-92982800D01*
X147434228Y-92935180D01*
X147243752Y-92935180D01*
X147148514Y-92982800D01*
X147053276Y-93078038D01*
X147005657Y-93268514D01*
X147005657Y-93601847D01*
X147053276Y-93792323D01*
X147148514Y-93887561D01*
X147243752Y-93935180D01*
X147434228Y-93935180D01*
X146053276Y-93935180D02*
X146624704Y-93935180D01*
X146338990Y-93935180D02*
X146338990Y-92935180D01*
X146434228Y-93078038D01*
X146529466Y-93173276D01*
X146624704Y-93220895D01*
X140863580Y-104481333D02*
X140387390Y-104148000D01*
X140863580Y-103909904D02*
X139863580Y-103909904D01*
X139863580Y-104290857D01*
X139911200Y-104386095D01*
X139958819Y-104433714D01*
X140054057Y-104481333D01*
X140196914Y-104481333D01*
X140292152Y-104433714D01*
X140339771Y-104386095D01*
X140387390Y-104290857D01*
X140387390Y-103909904D01*
X139958819Y-104862285D02*
X139911200Y-104909904D01*
X139863580Y-105005142D01*
X139863580Y-105243238D01*
X139911200Y-105338476D01*
X139958819Y-105386095D01*
X140054057Y-105433714D01*
X140149295Y-105433714D01*
X140292152Y-105386095D01*
X140863580Y-104814666D01*
X140863580Y-105433714D01*
X139136380Y-104481333D02*
X138660190Y-104148000D01*
X139136380Y-103909904D02*
X138136380Y-103909904D01*
X138136380Y-104290857D01*
X138184000Y-104386095D01*
X138231619Y-104433714D01*
X138326857Y-104481333D01*
X138469714Y-104481333D01*
X138564952Y-104433714D01*
X138612571Y-104386095D01*
X138660190Y-104290857D01*
X138660190Y-103909904D01*
X138136380Y-104814666D02*
X138136380Y-105433714D01*
X138517333Y-105100380D01*
X138517333Y-105243238D01*
X138564952Y-105338476D01*
X138612571Y-105386095D01*
X138707809Y-105433714D01*
X138945904Y-105433714D01*
X139041142Y-105386095D01*
X139088761Y-105338476D01*
X139136380Y-105243238D01*
X139136380Y-104957523D01*
X139088761Y-104862285D01*
X139041142Y-104814666D01*
X137917180Y-112507733D02*
X137440990Y-112174400D01*
X137917180Y-111936304D02*
X136917180Y-111936304D01*
X136917180Y-112317257D01*
X136964800Y-112412495D01*
X137012419Y-112460114D01*
X137107657Y-112507733D01*
X137250514Y-112507733D01*
X137345752Y-112460114D01*
X137393371Y-112412495D01*
X137440990Y-112317257D01*
X137440990Y-111936304D01*
X137250514Y-113364876D02*
X137917180Y-113364876D01*
X136869561Y-113126780D02*
X137583847Y-112888685D01*
X137583847Y-113507733D01*
X136189980Y-112558533D02*
X135713790Y-112225200D01*
X136189980Y-111987104D02*
X135189980Y-111987104D01*
X135189980Y-112368057D01*
X135237600Y-112463295D01*
X135285219Y-112510914D01*
X135380457Y-112558533D01*
X135523314Y-112558533D01*
X135618552Y-112510914D01*
X135666171Y-112463295D01*
X135713790Y-112368057D01*
X135713790Y-111987104D01*
X135189980Y-113463295D02*
X135189980Y-112987104D01*
X135666171Y-112939485D01*
X135618552Y-112987104D01*
X135570933Y-113082342D01*
X135570933Y-113320438D01*
X135618552Y-113415676D01*
X135666171Y-113463295D01*
X135761409Y-113510914D01*
X135999504Y-113510914D01*
X136094742Y-113463295D01*
X136142361Y-113415676D01*
X136189980Y-113320438D01*
X136189980Y-113082342D01*
X136142361Y-112987104D01*
X136094742Y-112939485D01*
X143200380Y-90765333D02*
X142724190Y-90432000D01*
X143200380Y-90193904D02*
X142200380Y-90193904D01*
X142200380Y-90574857D01*
X142248000Y-90670095D01*
X142295619Y-90717714D01*
X142390857Y-90765333D01*
X142533714Y-90765333D01*
X142628952Y-90717714D01*
X142676571Y-90670095D01*
X142724190Y-90574857D01*
X142724190Y-90193904D01*
X142200380Y-91622476D02*
X142200380Y-91432000D01*
X142248000Y-91336761D01*
X142295619Y-91289142D01*
X142438476Y-91193904D01*
X142628952Y-91146285D01*
X143009904Y-91146285D01*
X143105142Y-91193904D01*
X143152761Y-91241523D01*
X143200380Y-91336761D01*
X143200380Y-91527238D01*
X143152761Y-91622476D01*
X143105142Y-91670095D01*
X143009904Y-91717714D01*
X142771809Y-91717714D01*
X142676571Y-91670095D01*
X142628952Y-91622476D01*
X142581333Y-91527238D01*
X142581333Y-91336761D01*
X142628952Y-91241523D01*
X142676571Y-91193904D01*
X142771809Y-91146285D01*
X146115066Y-84424780D02*
X146448400Y-83948590D01*
X146686495Y-84424780D02*
X146686495Y-83424780D01*
X146305542Y-83424780D01*
X146210304Y-83472400D01*
X146162685Y-83520019D01*
X146115066Y-83615257D01*
X146115066Y-83758114D01*
X146162685Y-83853352D01*
X146210304Y-83900971D01*
X146305542Y-83948590D01*
X146686495Y-83948590D01*
X145781733Y-83424780D02*
X145115066Y-83424780D01*
X145543638Y-84424780D01*
X140761980Y-87107733D02*
X140285790Y-86774400D01*
X140761980Y-86536304D02*
X139761980Y-86536304D01*
X139761980Y-86917257D01*
X139809600Y-87012495D01*
X139857219Y-87060114D01*
X139952457Y-87107733D01*
X140095314Y-87107733D01*
X140190552Y-87060114D01*
X140238171Y-87012495D01*
X140285790Y-86917257D01*
X140285790Y-86536304D01*
X140190552Y-87679161D02*
X140142933Y-87583923D01*
X140095314Y-87536304D01*
X140000076Y-87488685D01*
X139952457Y-87488685D01*
X139857219Y-87536304D01*
X139809600Y-87583923D01*
X139761980Y-87679161D01*
X139761980Y-87869638D01*
X139809600Y-87964876D01*
X139857219Y-88012495D01*
X139952457Y-88060114D01*
X140000076Y-88060114D01*
X140095314Y-88012495D01*
X140142933Y-87964876D01*
X140190552Y-87869638D01*
X140190552Y-87679161D01*
X140238171Y-87583923D01*
X140285790Y-87536304D01*
X140381028Y-87488685D01*
X140571504Y-87488685D01*
X140666742Y-87536304D01*
X140714361Y-87583923D01*
X140761980Y-87679161D01*
X140761980Y-87869638D01*
X140714361Y-87964876D01*
X140666742Y-88012495D01*
X140571504Y-88060114D01*
X140381028Y-88060114D01*
X140285790Y-88012495D01*
X140238171Y-87964876D01*
X140190552Y-87869638D01*
X142133580Y-87107733D02*
X141657390Y-86774400D01*
X142133580Y-86536304D02*
X141133580Y-86536304D01*
X141133580Y-86917257D01*
X141181200Y-87012495D01*
X141228819Y-87060114D01*
X141324057Y-87107733D01*
X141466914Y-87107733D01*
X141562152Y-87060114D01*
X141609771Y-87012495D01*
X141657390Y-86917257D01*
X141657390Y-86536304D01*
X142133580Y-87583923D02*
X142133580Y-87774400D01*
X142085961Y-87869638D01*
X142038342Y-87917257D01*
X141895485Y-88012495D01*
X141705009Y-88060114D01*
X141324057Y-88060114D01*
X141228819Y-88012495D01*
X141181200Y-87964876D01*
X141133580Y-87869638D01*
X141133580Y-87679161D01*
X141181200Y-87583923D01*
X141228819Y-87536304D01*
X141324057Y-87488685D01*
X141562152Y-87488685D01*
X141657390Y-87536304D01*
X141705009Y-87583923D01*
X141752628Y-87679161D01*
X141752628Y-87869638D01*
X141705009Y-87964876D01*
X141657390Y-88012495D01*
X141562152Y-88060114D01*
X135415257Y-99359980D02*
X135748590Y-98883790D01*
X135986685Y-99359980D02*
X135986685Y-98359980D01*
X135605733Y-98359980D01*
X135510495Y-98407600D01*
X135462876Y-98455219D01*
X135415257Y-98550457D01*
X135415257Y-98693314D01*
X135462876Y-98788552D01*
X135510495Y-98836171D01*
X135605733Y-98883790D01*
X135986685Y-98883790D01*
X134462876Y-99359980D02*
X135034304Y-99359980D01*
X134748590Y-99359980D02*
X134748590Y-98359980D01*
X134843828Y-98502838D01*
X134939066Y-98598076D01*
X135034304Y-98645695D01*
X133843828Y-98359980D02*
X133748590Y-98359980D01*
X133653352Y-98407600D01*
X133605733Y-98455219D01*
X133558114Y-98550457D01*
X133510495Y-98740933D01*
X133510495Y-98979028D01*
X133558114Y-99169504D01*
X133605733Y-99264742D01*
X133653352Y-99312361D01*
X133748590Y-99359980D01*
X133843828Y-99359980D01*
X133939066Y-99312361D01*
X133986685Y-99264742D01*
X134034304Y-99169504D01*
X134081923Y-98979028D01*
X134081923Y-98740933D01*
X134034304Y-98550457D01*
X133986685Y-98455219D01*
X133939066Y-98407600D01*
X133843828Y-98359980D01*
X170987980Y-88917542D02*
X170511790Y-88584209D01*
X170987980Y-88346114D02*
X169987980Y-88346114D01*
X169987980Y-88727066D01*
X170035600Y-88822304D01*
X170083219Y-88869923D01*
X170178457Y-88917542D01*
X170321314Y-88917542D01*
X170416552Y-88869923D01*
X170464171Y-88822304D01*
X170511790Y-88727066D01*
X170511790Y-88346114D01*
X170987980Y-89869923D02*
X170987980Y-89298495D01*
X170987980Y-89584209D02*
X169987980Y-89584209D01*
X170130838Y-89488971D01*
X170226076Y-89393733D01*
X170273695Y-89298495D01*
X170987980Y-90822304D02*
X170987980Y-90250876D01*
X170987980Y-90536590D02*
X169987980Y-90536590D01*
X170130838Y-90441352D01*
X170226076Y-90346114D01*
X170273695Y-90250876D01*
X169298857Y-100172780D02*
X169632190Y-99696590D01*
X169870285Y-100172780D02*
X169870285Y-99172780D01*
X169489333Y-99172780D01*
X169394095Y-99220400D01*
X169346476Y-99268019D01*
X169298857Y-99363257D01*
X169298857Y-99506114D01*
X169346476Y-99601352D01*
X169394095Y-99648971D01*
X169489333Y-99696590D01*
X169870285Y-99696590D01*
X168346476Y-100172780D02*
X168917904Y-100172780D01*
X168632190Y-100172780D02*
X168632190Y-99172780D01*
X168727428Y-99315638D01*
X168822666Y-99410876D01*
X168917904Y-99458495D01*
X167965523Y-99268019D02*
X167917904Y-99220400D01*
X167822666Y-99172780D01*
X167584571Y-99172780D01*
X167489333Y-99220400D01*
X167441714Y-99268019D01*
X167394095Y-99363257D01*
X167394095Y-99458495D01*
X167441714Y-99601352D01*
X168013142Y-100172780D01*
X167394095Y-100172780D01*
X172562780Y-88917542D02*
X172086590Y-88584209D01*
X172562780Y-88346114D02*
X171562780Y-88346114D01*
X171562780Y-88727066D01*
X171610400Y-88822304D01*
X171658019Y-88869923D01*
X171753257Y-88917542D01*
X171896114Y-88917542D01*
X171991352Y-88869923D01*
X172038971Y-88822304D01*
X172086590Y-88727066D01*
X172086590Y-88346114D01*
X172562780Y-89869923D02*
X172562780Y-89298495D01*
X172562780Y-89584209D02*
X171562780Y-89584209D01*
X171705638Y-89488971D01*
X171800876Y-89393733D01*
X171848495Y-89298495D01*
X171562780Y-90203257D02*
X171562780Y-90822304D01*
X171943733Y-90488971D01*
X171943733Y-90631828D01*
X171991352Y-90727066D01*
X172038971Y-90774685D01*
X172134209Y-90822304D01*
X172372304Y-90822304D01*
X172467542Y-90774685D01*
X172515161Y-90727066D01*
X172562780Y-90631828D01*
X172562780Y-90346114D01*
X172515161Y-90250876D01*
X172467542Y-90203257D01*
X174137580Y-88917542D02*
X173661390Y-88584209D01*
X174137580Y-88346114D02*
X173137580Y-88346114D01*
X173137580Y-88727066D01*
X173185200Y-88822304D01*
X173232819Y-88869923D01*
X173328057Y-88917542D01*
X173470914Y-88917542D01*
X173566152Y-88869923D01*
X173613771Y-88822304D01*
X173661390Y-88727066D01*
X173661390Y-88346114D01*
X174137580Y-89869923D02*
X174137580Y-89298495D01*
X174137580Y-89584209D02*
X173137580Y-89584209D01*
X173280438Y-89488971D01*
X173375676Y-89393733D01*
X173423295Y-89298495D01*
X173470914Y-90727066D02*
X174137580Y-90727066D01*
X173089961Y-90488971D02*
X173804247Y-90250876D01*
X173804247Y-90869923D01*
X169298857Y-98597980D02*
X169632190Y-98121790D01*
X169870285Y-98597980D02*
X169870285Y-97597980D01*
X169489333Y-97597980D01*
X169394095Y-97645600D01*
X169346476Y-97693219D01*
X169298857Y-97788457D01*
X169298857Y-97931314D01*
X169346476Y-98026552D01*
X169394095Y-98074171D01*
X169489333Y-98121790D01*
X169870285Y-98121790D01*
X168346476Y-98597980D02*
X168917904Y-98597980D01*
X168632190Y-98597980D02*
X168632190Y-97597980D01*
X168727428Y-97740838D01*
X168822666Y-97836076D01*
X168917904Y-97883695D01*
X167489333Y-97597980D02*
X167679809Y-97597980D01*
X167775047Y-97645600D01*
X167822666Y-97693219D01*
X167917904Y-97836076D01*
X167965523Y-98026552D01*
X167965523Y-98407504D01*
X167917904Y-98502742D01*
X167870285Y-98550361D01*
X167775047Y-98597980D01*
X167584571Y-98597980D01*
X167489333Y-98550361D01*
X167441714Y-98502742D01*
X167394095Y-98407504D01*
X167394095Y-98169409D01*
X167441714Y-98074171D01*
X167489333Y-98026552D01*
X167584571Y-97978933D01*
X167775047Y-97978933D01*
X167870285Y-98026552D01*
X167917904Y-98074171D01*
X167965523Y-98169409D01*
X169298857Y-97023180D02*
X169632190Y-96546990D01*
X169870285Y-97023180D02*
X169870285Y-96023180D01*
X169489333Y-96023180D01*
X169394095Y-96070800D01*
X169346476Y-96118419D01*
X169298857Y-96213657D01*
X169298857Y-96356514D01*
X169346476Y-96451752D01*
X169394095Y-96499371D01*
X169489333Y-96546990D01*
X169870285Y-96546990D01*
X168346476Y-97023180D02*
X168917904Y-97023180D01*
X168632190Y-97023180D02*
X168632190Y-96023180D01*
X168727428Y-96166038D01*
X168822666Y-96261276D01*
X168917904Y-96308895D01*
X168013142Y-96023180D02*
X167346476Y-96023180D01*
X167775047Y-97023180D01*
X156837980Y-96689942D02*
X156361790Y-96356609D01*
X156837980Y-96118514D02*
X155837980Y-96118514D01*
X155837980Y-96499466D01*
X155885600Y-96594704D01*
X155933219Y-96642323D01*
X156028457Y-96689942D01*
X156171314Y-96689942D01*
X156266552Y-96642323D01*
X156314171Y-96594704D01*
X156361790Y-96499466D01*
X156361790Y-96118514D01*
X156837980Y-97642323D02*
X156837980Y-97070895D01*
X156837980Y-97356609D02*
X155837980Y-97356609D01*
X155980838Y-97261371D01*
X156076076Y-97166133D01*
X156123695Y-97070895D01*
X156266552Y-98213752D02*
X156218933Y-98118514D01*
X156171314Y-98070895D01*
X156076076Y-98023276D01*
X156028457Y-98023276D01*
X155933219Y-98070895D01*
X155885600Y-98118514D01*
X155837980Y-98213752D01*
X155837980Y-98404228D01*
X155885600Y-98499466D01*
X155933219Y-98547085D01*
X156028457Y-98594704D01*
X156076076Y-98594704D01*
X156171314Y-98547085D01*
X156218933Y-98499466D01*
X156266552Y-98404228D01*
X156266552Y-98213752D01*
X156314171Y-98118514D01*
X156361790Y-98070895D01*
X156457028Y-98023276D01*
X156647504Y-98023276D01*
X156742742Y-98070895D01*
X156790361Y-98118514D01*
X156837980Y-98213752D01*
X156837980Y-98404228D01*
X156790361Y-98499466D01*
X156742742Y-98547085D01*
X156647504Y-98594704D01*
X156457028Y-98594704D01*
X156361790Y-98547085D01*
X156314171Y-98499466D01*
X156266552Y-98404228D01*
X146619980Y-100888895D02*
X147429504Y-100888895D01*
X147524742Y-100936514D01*
X147572361Y-100984133D01*
X147619980Y-101079371D01*
X147619980Y-101269847D01*
X147572361Y-101365085D01*
X147524742Y-101412704D01*
X147429504Y-101460323D01*
X146619980Y-101460323D01*
X147619980Y-102460323D02*
X147619980Y-101888895D01*
X147619980Y-102174609D02*
X146619980Y-102174609D01*
X146762838Y-102079371D01*
X146858076Y-101984133D01*
X146905695Y-101888895D01*
X131775104Y-90384380D02*
X131775104Y-91193904D01*
X131727485Y-91289142D01*
X131679866Y-91336761D01*
X131584628Y-91384380D01*
X131394152Y-91384380D01*
X131298914Y-91336761D01*
X131251295Y-91289142D01*
X131203676Y-91193904D01*
X131203676Y-90384380D01*
X130822723Y-90384380D02*
X130203676Y-90384380D01*
X130537009Y-90765333D01*
X130394152Y-90765333D01*
X130298914Y-90812952D01*
X130251295Y-90860571D01*
X130203676Y-90955809D01*
X130203676Y-91193904D01*
X130251295Y-91289142D01*
X130298914Y-91336761D01*
X130394152Y-91384380D01*
X130679866Y-91384380D01*
X130775104Y-91336761D01*
X130822723Y-91289142D01*
M02*
