G04 #@! TF.GenerationSoftware,KiCad,Pcbnew,(5.1.4)-1*
G04 #@! TF.CreationDate,2019-12-03T14:13:33-06:00*
G04 #@! TF.ProjectId,battery_pack,62617474-6572-4795-9f70-61636b2e6b69,rev?*
G04 #@! TF.SameCoordinates,Original*
G04 #@! TF.FileFunction,Legend,Top*
G04 #@! TF.FilePolarity,Positive*
%FSLAX46Y46*%
G04 Gerber Fmt 4.6, Leading zero omitted, Abs format (unit mm)*
G04 Created by KiCad (PCBNEW (5.1.4)-1) date 2019-12-03 14:13:33*
%MOMM*%
%LPD*%
G04 APERTURE LIST*
%ADD10C,0.150000*%
%ADD11C,0.381000*%
%ADD12C,0.120000*%
G04 APERTURE END LIST*
D10*
X105371428Y-21042380D02*
X105371428Y-21851904D01*
X105419047Y-21947142D01*
X105466666Y-21994761D01*
X105561904Y-22042380D01*
X105752380Y-22042380D01*
X105847619Y-21994761D01*
X105895238Y-21947142D01*
X105942857Y-21851904D01*
X105942857Y-21042380D01*
X106371428Y-21994761D02*
X106466666Y-22042380D01*
X106657142Y-22042380D01*
X106752380Y-21994761D01*
X106800000Y-21899523D01*
X106800000Y-21851904D01*
X106752380Y-21756666D01*
X106657142Y-21709047D01*
X106514285Y-21709047D01*
X106419047Y-21661428D01*
X106371428Y-21566190D01*
X106371428Y-21518571D01*
X106419047Y-21423333D01*
X106514285Y-21375714D01*
X106657142Y-21375714D01*
X106752380Y-21423333D01*
X107609523Y-21994761D02*
X107514285Y-22042380D01*
X107323809Y-22042380D01*
X107228571Y-21994761D01*
X107180952Y-21899523D01*
X107180952Y-21518571D01*
X107228571Y-21423333D01*
X107323809Y-21375714D01*
X107514285Y-21375714D01*
X107609523Y-21423333D01*
X107657142Y-21518571D01*
X107657142Y-21613809D01*
X107180952Y-21709047D01*
X109419047Y-21947142D02*
X109371428Y-21994761D01*
X109228571Y-22042380D01*
X109133333Y-22042380D01*
X108990476Y-21994761D01*
X108895238Y-21899523D01*
X108847619Y-21804285D01*
X108800000Y-21613809D01*
X108800000Y-21470952D01*
X108847619Y-21280476D01*
X108895238Y-21185238D01*
X108990476Y-21090000D01*
X109133333Y-21042380D01*
X109228571Y-21042380D01*
X109371428Y-21090000D01*
X109419047Y-21137619D01*
X110419047Y-22042380D02*
X110085714Y-21566190D01*
X109847619Y-22042380D02*
X109847619Y-21042380D01*
X110228571Y-21042380D01*
X110323809Y-21090000D01*
X110371428Y-21137619D01*
X110419047Y-21232857D01*
X110419047Y-21375714D01*
X110371428Y-21470952D01*
X110323809Y-21518571D01*
X110228571Y-21566190D01*
X109847619Y-21566190D01*
X110800000Y-21137619D02*
X110847619Y-21090000D01*
X110942857Y-21042380D01*
X111180952Y-21042380D01*
X111276190Y-21090000D01*
X111323809Y-21137619D01*
X111371428Y-21232857D01*
X111371428Y-21328095D01*
X111323809Y-21470952D01*
X110752380Y-22042380D01*
X111371428Y-22042380D01*
X112895238Y-21518571D02*
X113038095Y-21566190D01*
X113085714Y-21613809D01*
X113133333Y-21709047D01*
X113133333Y-21851904D01*
X113085714Y-21947142D01*
X113038095Y-21994761D01*
X112942857Y-22042380D01*
X112561904Y-22042380D01*
X112561904Y-21042380D01*
X112895238Y-21042380D01*
X112990476Y-21090000D01*
X113038095Y-21137619D01*
X113085714Y-21232857D01*
X113085714Y-21328095D01*
X113038095Y-21423333D01*
X112990476Y-21470952D01*
X112895238Y-21518571D01*
X112561904Y-21518571D01*
X113990476Y-22042380D02*
X113990476Y-21518571D01*
X113942857Y-21423333D01*
X113847619Y-21375714D01*
X113657142Y-21375714D01*
X113561904Y-21423333D01*
X113990476Y-21994761D02*
X113895238Y-22042380D01*
X113657142Y-22042380D01*
X113561904Y-21994761D01*
X113514285Y-21899523D01*
X113514285Y-21804285D01*
X113561904Y-21709047D01*
X113657142Y-21661428D01*
X113895238Y-21661428D01*
X113990476Y-21613809D01*
X114323809Y-21375714D02*
X114704761Y-21375714D01*
X114466666Y-21042380D02*
X114466666Y-21899523D01*
X114514285Y-21994761D01*
X114609523Y-22042380D01*
X114704761Y-22042380D01*
X114895238Y-21375714D02*
X115276190Y-21375714D01*
X115038095Y-21042380D02*
X115038095Y-21899523D01*
X115085714Y-21994761D01*
X115180952Y-22042380D01*
X115276190Y-22042380D01*
X115990476Y-21994761D02*
X115895238Y-22042380D01*
X115704761Y-22042380D01*
X115609523Y-21994761D01*
X115561904Y-21899523D01*
X115561904Y-21518571D01*
X115609523Y-21423333D01*
X115704761Y-21375714D01*
X115895238Y-21375714D01*
X115990476Y-21423333D01*
X116038095Y-21518571D01*
X116038095Y-21613809D01*
X115561904Y-21709047D01*
X116466666Y-22042380D02*
X116466666Y-21375714D01*
X116466666Y-21566190D02*
X116514285Y-21470952D01*
X116561904Y-21423333D01*
X116657142Y-21375714D01*
X116752380Y-21375714D01*
X117085714Y-22042380D02*
X117085714Y-21375714D01*
X117085714Y-21042380D02*
X117038095Y-21090000D01*
X117085714Y-21137619D01*
X117133333Y-21090000D01*
X117085714Y-21042380D01*
X117085714Y-21137619D01*
X117942857Y-21994761D02*
X117847619Y-22042380D01*
X117657142Y-22042380D01*
X117561904Y-21994761D01*
X117514285Y-21899523D01*
X117514285Y-21518571D01*
X117561904Y-21423333D01*
X117657142Y-21375714D01*
X117847619Y-21375714D01*
X117942857Y-21423333D01*
X117990476Y-21518571D01*
X117990476Y-21613809D01*
X117514285Y-21709047D01*
X118371428Y-21994761D02*
X118466666Y-22042380D01*
X118657142Y-22042380D01*
X118752380Y-21994761D01*
X118800000Y-21899523D01*
X118800000Y-21851904D01*
X118752380Y-21756666D01*
X118657142Y-21709047D01*
X118514285Y-21709047D01*
X118419047Y-21661428D01*
X118371428Y-21566190D01*
X118371428Y-21518571D01*
X118419047Y-21423333D01*
X118514285Y-21375714D01*
X118657142Y-21375714D01*
X118752380Y-21423333D01*
X120180952Y-21042380D02*
X120371428Y-21042380D01*
X120466666Y-21090000D01*
X120561904Y-21185238D01*
X120609523Y-21375714D01*
X120609523Y-21709047D01*
X120561904Y-21899523D01*
X120466666Y-21994761D01*
X120371428Y-22042380D01*
X120180952Y-22042380D01*
X120085714Y-21994761D01*
X119990476Y-21899523D01*
X119942857Y-21709047D01*
X119942857Y-21375714D01*
X119990476Y-21185238D01*
X120085714Y-21090000D01*
X120180952Y-21042380D01*
X121038095Y-21375714D02*
X121038095Y-22042380D01*
X121038095Y-21470952D02*
X121085714Y-21423333D01*
X121180952Y-21375714D01*
X121323809Y-21375714D01*
X121419047Y-21423333D01*
X121466666Y-21518571D01*
X121466666Y-22042380D01*
X122085714Y-22042380D02*
X121990476Y-21994761D01*
X121942857Y-21899523D01*
X121942857Y-21042380D01*
X122371428Y-21375714D02*
X122609523Y-22042380D01*
X122847619Y-21375714D02*
X122609523Y-22042380D01*
X122514285Y-22280476D01*
X122466666Y-22328095D01*
X122371428Y-22375714D01*
X123228571Y-21947142D02*
X123276190Y-21994761D01*
X123228571Y-22042380D01*
X123180952Y-21994761D01*
X123228571Y-21947142D01*
X123228571Y-22042380D01*
X123228571Y-21661428D02*
X123180952Y-21090000D01*
X123228571Y-21042380D01*
X123276190Y-21090000D01*
X123228571Y-21661428D01*
X123228571Y-21042380D01*
D11*
X154613428Y-48465619D02*
X154613428Y-46530380D01*
X153464380Y-38281428D02*
X155399619Y-38281428D01*
X154432000Y-39249047D02*
X154432000Y-37313809D01*
D10*
X77614000Y-60783000D02*
X77614000Y-22783000D01*
X77614000Y-22783000D02*
X95614000Y-22783000D01*
X95614000Y-22783000D02*
X95614000Y-60783000D01*
X95614000Y-60783000D02*
X77614000Y-60783000D01*
X96156000Y-22783000D02*
X114156000Y-22783000D01*
X96156000Y-60783000D02*
X96156000Y-22783000D01*
X114156000Y-60783000D02*
X96156000Y-60783000D01*
X114156000Y-22783000D02*
X114156000Y-60783000D01*
X132698000Y-60783000D02*
X114698000Y-60783000D01*
X132698000Y-22783000D02*
X132698000Y-60783000D01*
X114698000Y-22783000D02*
X132698000Y-22783000D01*
X114698000Y-60783000D02*
X114698000Y-22783000D01*
X151240000Y-22783000D02*
X151240000Y-60783000D01*
X151240000Y-60783000D02*
X133240000Y-60783000D01*
X133240000Y-60783000D02*
X133240000Y-22783000D01*
X133240000Y-22783000D02*
X151240000Y-22783000D01*
D12*
X153102000Y-40326000D02*
X154432000Y-40326000D01*
X153102000Y-41656000D02*
X153102000Y-40326000D01*
X153102000Y-42926000D02*
X155762000Y-42926000D01*
X155762000Y-42926000D02*
X155762000Y-45526000D01*
X153102000Y-42926000D02*
X153102000Y-45526000D01*
X153102000Y-45526000D02*
X155762000Y-45526000D01*
D10*
X86542571Y-42568714D02*
X86590190Y-42425857D01*
X86637809Y-42378238D01*
X86733047Y-42330619D01*
X86875904Y-42330619D01*
X86971142Y-42378238D01*
X87018761Y-42425857D01*
X87066380Y-42521095D01*
X87066380Y-42902047D01*
X86066380Y-42902047D01*
X86066380Y-42568714D01*
X86114000Y-42473476D01*
X86161619Y-42425857D01*
X86256857Y-42378238D01*
X86352095Y-42378238D01*
X86447333Y-42425857D01*
X86494952Y-42473476D01*
X86542571Y-42568714D01*
X86542571Y-42902047D01*
X86066380Y-42044904D02*
X86066380Y-41473476D01*
X87066380Y-41759190D02*
X86066380Y-41759190D01*
X87066380Y-40616333D02*
X87066380Y-41187761D01*
X87066380Y-40902047D02*
X86066380Y-40902047D01*
X86209238Y-40997285D01*
X86304476Y-41092523D01*
X86352095Y-41187761D01*
X105084571Y-42568714D02*
X105132190Y-42425857D01*
X105179809Y-42378238D01*
X105275047Y-42330619D01*
X105417904Y-42330619D01*
X105513142Y-42378238D01*
X105560761Y-42425857D01*
X105608380Y-42521095D01*
X105608380Y-42902047D01*
X104608380Y-42902047D01*
X104608380Y-42568714D01*
X104656000Y-42473476D01*
X104703619Y-42425857D01*
X104798857Y-42378238D01*
X104894095Y-42378238D01*
X104989333Y-42425857D01*
X105036952Y-42473476D01*
X105084571Y-42568714D01*
X105084571Y-42902047D01*
X104608380Y-42044904D02*
X104608380Y-41473476D01*
X105608380Y-41759190D02*
X104608380Y-41759190D01*
X104703619Y-41187761D02*
X104656000Y-41140142D01*
X104608380Y-41044904D01*
X104608380Y-40806809D01*
X104656000Y-40711571D01*
X104703619Y-40663952D01*
X104798857Y-40616333D01*
X104894095Y-40616333D01*
X105036952Y-40663952D01*
X105608380Y-41235380D01*
X105608380Y-40616333D01*
X123626571Y-42568714D02*
X123674190Y-42425857D01*
X123721809Y-42378238D01*
X123817047Y-42330619D01*
X123959904Y-42330619D01*
X124055142Y-42378238D01*
X124102761Y-42425857D01*
X124150380Y-42521095D01*
X124150380Y-42902047D01*
X123150380Y-42902047D01*
X123150380Y-42568714D01*
X123198000Y-42473476D01*
X123245619Y-42425857D01*
X123340857Y-42378238D01*
X123436095Y-42378238D01*
X123531333Y-42425857D01*
X123578952Y-42473476D01*
X123626571Y-42568714D01*
X123626571Y-42902047D01*
X123150380Y-42044904D02*
X123150380Y-41473476D01*
X124150380Y-41759190D02*
X123150380Y-41759190D01*
X123150380Y-41235380D02*
X123150380Y-40616333D01*
X123531333Y-40949666D01*
X123531333Y-40806809D01*
X123578952Y-40711571D01*
X123626571Y-40663952D01*
X123721809Y-40616333D01*
X123959904Y-40616333D01*
X124055142Y-40663952D01*
X124102761Y-40711571D01*
X124150380Y-40806809D01*
X124150380Y-41092523D01*
X124102761Y-41187761D01*
X124055142Y-41235380D01*
X142168571Y-42568714D02*
X142216190Y-42425857D01*
X142263809Y-42378238D01*
X142359047Y-42330619D01*
X142501904Y-42330619D01*
X142597142Y-42378238D01*
X142644761Y-42425857D01*
X142692380Y-42521095D01*
X142692380Y-42902047D01*
X141692380Y-42902047D01*
X141692380Y-42568714D01*
X141740000Y-42473476D01*
X141787619Y-42425857D01*
X141882857Y-42378238D01*
X141978095Y-42378238D01*
X142073333Y-42425857D01*
X142120952Y-42473476D01*
X142168571Y-42568714D01*
X142168571Y-42902047D01*
X141692380Y-42044904D02*
X141692380Y-41473476D01*
X142692380Y-41759190D02*
X141692380Y-41759190D01*
X142025714Y-40711571D02*
X142692380Y-40711571D01*
X141644761Y-40949666D02*
X142359047Y-41187761D01*
X142359047Y-40568714D01*
M02*
