G04 #@! TF.GenerationSoftware,KiCad,Pcbnew,(5.1.4)-1*
G04 #@! TF.CreationDate,2019-12-03T14:13:33-06:00*
G04 #@! TF.ProjectId,battery_pack,62617474-6572-4795-9f70-61636b2e6b69,rev?*
G04 #@! TF.SameCoordinates,Original*
G04 #@! TF.FileFunction,Legend,Bot*
G04 #@! TF.FilePolarity,Positive*
%FSLAX46Y46*%
G04 Gerber Fmt 4.6, Leading zero omitted, Abs format (unit mm)*
G04 Created by KiCad (PCBNEW (5.1.4)-1) date 2019-12-03 14:13:33*
%MOMM*%
%LPD*%
G04 APERTURE LIST*
%ADD10C,0.150000*%
G04 APERTURE END LIST*
D10*
X121173047Y-59413142D02*
X121220666Y-59460761D01*
X121363523Y-59508380D01*
X121458761Y-59508380D01*
X121601619Y-59460761D01*
X121696857Y-59365523D01*
X121744476Y-59270285D01*
X121792095Y-59079809D01*
X121792095Y-58936952D01*
X121744476Y-58746476D01*
X121696857Y-58651238D01*
X121601619Y-58556000D01*
X121458761Y-58508380D01*
X121363523Y-58508380D01*
X121220666Y-58556000D01*
X121173047Y-58603619D01*
X120173047Y-59508380D02*
X120506380Y-59032190D01*
X120744476Y-59508380D02*
X120744476Y-58508380D01*
X120363523Y-58508380D01*
X120268285Y-58556000D01*
X120220666Y-58603619D01*
X120173047Y-58698857D01*
X120173047Y-58841714D01*
X120220666Y-58936952D01*
X120268285Y-58984571D01*
X120363523Y-59032190D01*
X120744476Y-59032190D01*
X119792095Y-58603619D02*
X119744476Y-58556000D01*
X119649238Y-58508380D01*
X119411142Y-58508380D01*
X119315904Y-58556000D01*
X119268285Y-58603619D01*
X119220666Y-58698857D01*
X119220666Y-58794095D01*
X119268285Y-58936952D01*
X119839714Y-59508380D01*
X119220666Y-59508380D01*
X117696857Y-58984571D02*
X117554000Y-59032190D01*
X117506380Y-59079809D01*
X117458761Y-59175047D01*
X117458761Y-59317904D01*
X117506380Y-59413142D01*
X117554000Y-59460761D01*
X117649238Y-59508380D01*
X118030190Y-59508380D01*
X118030190Y-58508380D01*
X117696857Y-58508380D01*
X117601619Y-58556000D01*
X117554000Y-58603619D01*
X117506380Y-58698857D01*
X117506380Y-58794095D01*
X117554000Y-58889333D01*
X117601619Y-58936952D01*
X117696857Y-58984571D01*
X118030190Y-58984571D01*
X116601619Y-59508380D02*
X116601619Y-58984571D01*
X116649238Y-58889333D01*
X116744476Y-58841714D01*
X116934952Y-58841714D01*
X117030190Y-58889333D01*
X116601619Y-59460761D02*
X116696857Y-59508380D01*
X116934952Y-59508380D01*
X117030190Y-59460761D01*
X117077809Y-59365523D01*
X117077809Y-59270285D01*
X117030190Y-59175047D01*
X116934952Y-59127428D01*
X116696857Y-59127428D01*
X116601619Y-59079809D01*
X116268285Y-58841714D02*
X115887333Y-58841714D01*
X116125428Y-58508380D02*
X116125428Y-59365523D01*
X116077809Y-59460761D01*
X115982571Y-59508380D01*
X115887333Y-59508380D01*
X115696857Y-58841714D02*
X115315904Y-58841714D01*
X115554000Y-58508380D02*
X115554000Y-59365523D01*
X115506380Y-59460761D01*
X115411142Y-59508380D01*
X115315904Y-59508380D01*
X114601619Y-59460761D02*
X114696857Y-59508380D01*
X114887333Y-59508380D01*
X114982571Y-59460761D01*
X115030190Y-59365523D01*
X115030190Y-58984571D01*
X114982571Y-58889333D01*
X114887333Y-58841714D01*
X114696857Y-58841714D01*
X114601619Y-58889333D01*
X114554000Y-58984571D01*
X114554000Y-59079809D01*
X115030190Y-59175047D01*
X114125428Y-59508380D02*
X114125428Y-58841714D01*
X114125428Y-59032190D02*
X114077809Y-58936952D01*
X114030190Y-58889333D01*
X113934952Y-58841714D01*
X113839714Y-58841714D01*
X113601619Y-58841714D02*
X113363523Y-59508380D01*
X113125428Y-58841714D02*
X113363523Y-59508380D01*
X113458761Y-59746476D01*
X113506380Y-59794095D01*
X113601619Y-59841714D01*
X111411142Y-59413142D02*
X111458761Y-59460761D01*
X111601619Y-59508380D01*
X111696857Y-59508380D01*
X111839714Y-59460761D01*
X111934952Y-59365523D01*
X111982571Y-59270285D01*
X112030190Y-59079809D01*
X112030190Y-58936952D01*
X111982571Y-58746476D01*
X111934952Y-58651238D01*
X111839714Y-58556000D01*
X111696857Y-58508380D01*
X111601619Y-58508380D01*
X111458761Y-58556000D01*
X111411142Y-58603619D01*
X110554000Y-59508380D02*
X110554000Y-58984571D01*
X110601619Y-58889333D01*
X110696857Y-58841714D01*
X110887333Y-58841714D01*
X110982571Y-58889333D01*
X110554000Y-59460761D02*
X110649238Y-59508380D01*
X110887333Y-59508380D01*
X110982571Y-59460761D01*
X111030190Y-59365523D01*
X111030190Y-59270285D01*
X110982571Y-59175047D01*
X110887333Y-59127428D01*
X110649238Y-59127428D01*
X110554000Y-59079809D01*
X110077809Y-59508380D02*
X110077809Y-58841714D01*
X110077809Y-59032190D02*
X110030190Y-58936952D01*
X109982571Y-58889333D01*
X109887333Y-58841714D01*
X109792095Y-58841714D01*
X109458761Y-59508380D02*
X109458761Y-58841714D01*
X109458761Y-59032190D02*
X109411142Y-58936952D01*
X109363523Y-58889333D01*
X109268285Y-58841714D01*
X109173047Y-58841714D01*
X108839714Y-59508380D02*
X108839714Y-58841714D01*
X108839714Y-58508380D02*
X108887333Y-58556000D01*
X108839714Y-58603619D01*
X108792095Y-58556000D01*
X108839714Y-58508380D01*
X108839714Y-58603619D01*
X107982571Y-59460761D02*
X108077809Y-59508380D01*
X108268285Y-59508380D01*
X108363523Y-59460761D01*
X108411142Y-59365523D01*
X108411142Y-58984571D01*
X108363523Y-58889333D01*
X108268285Y-58841714D01*
X108077809Y-58841714D01*
X107982571Y-58889333D01*
X107934952Y-58984571D01*
X107934952Y-59079809D01*
X108411142Y-59175047D01*
X107506380Y-59508380D02*
X107506380Y-58841714D01*
X107506380Y-59032190D02*
X107458761Y-58936952D01*
X107411142Y-58889333D01*
X107315904Y-58841714D01*
X107220666Y-58841714D01*
X123934952Y-61158380D02*
X124268285Y-60682190D01*
X124506380Y-61158380D02*
X124506380Y-60158380D01*
X124125428Y-60158380D01*
X124030190Y-60206000D01*
X123982571Y-60253619D01*
X123934952Y-60348857D01*
X123934952Y-60491714D01*
X123982571Y-60586952D01*
X124030190Y-60634571D01*
X124125428Y-60682190D01*
X124506380Y-60682190D01*
X123125428Y-61110761D02*
X123220666Y-61158380D01*
X123411142Y-61158380D01*
X123506380Y-61110761D01*
X123554000Y-61015523D01*
X123554000Y-60634571D01*
X123506380Y-60539333D01*
X123411142Y-60491714D01*
X123220666Y-60491714D01*
X123125428Y-60539333D01*
X123077809Y-60634571D01*
X123077809Y-60729809D01*
X123554000Y-60825047D01*
X122744476Y-60491714D02*
X122506380Y-61158380D01*
X122268285Y-60491714D01*
X120601619Y-61158380D02*
X121173047Y-61158380D01*
X120887333Y-61158380D02*
X120887333Y-60158380D01*
X120982571Y-60301238D01*
X121077809Y-60396476D01*
X121173047Y-60444095D01*
X120173047Y-61063142D02*
X120125428Y-61110761D01*
X120173047Y-61158380D01*
X120220666Y-61110761D01*
X120173047Y-61063142D01*
X120173047Y-61158380D01*
X119506380Y-60158380D02*
X119411142Y-60158380D01*
X119315904Y-60206000D01*
X119268285Y-60253619D01*
X119220666Y-60348857D01*
X119173047Y-60539333D01*
X119173047Y-60777428D01*
X119220666Y-60967904D01*
X119268285Y-61063142D01*
X119315904Y-61110761D01*
X119411142Y-61158380D01*
X119506380Y-61158380D01*
X119601619Y-61110761D01*
X119649238Y-61063142D01*
X119696857Y-60967904D01*
X119744476Y-60777428D01*
X119744476Y-60539333D01*
X119696857Y-60348857D01*
X119649238Y-60253619D01*
X119601619Y-60206000D01*
X119506380Y-60158380D01*
X117982571Y-60777428D02*
X117220666Y-60777428D01*
X115982571Y-61158380D02*
X115982571Y-60158380D01*
X115411142Y-61158380D01*
X115411142Y-60158380D01*
X114792095Y-61158380D02*
X114887333Y-61110761D01*
X114934952Y-61063142D01*
X114982571Y-60967904D01*
X114982571Y-60682190D01*
X114934952Y-60586952D01*
X114887333Y-60539333D01*
X114792095Y-60491714D01*
X114649238Y-60491714D01*
X114554000Y-60539333D01*
X114506380Y-60586952D01*
X114458761Y-60682190D01*
X114458761Y-60967904D01*
X114506380Y-61063142D01*
X114554000Y-61110761D01*
X114649238Y-61158380D01*
X114792095Y-61158380D01*
X114125428Y-60491714D02*
X113887333Y-61158380D01*
X113649238Y-60491714D01*
X112887333Y-61110761D02*
X112982571Y-61158380D01*
X113173047Y-61158380D01*
X113268285Y-61110761D01*
X113315904Y-61015523D01*
X113315904Y-60634571D01*
X113268285Y-60539333D01*
X113173047Y-60491714D01*
X112982571Y-60491714D01*
X112887333Y-60539333D01*
X112839714Y-60634571D01*
X112839714Y-60729809D01*
X113315904Y-60825047D01*
X112411142Y-61158380D02*
X112411142Y-60491714D01*
X112411142Y-60586952D02*
X112363523Y-60539333D01*
X112268285Y-60491714D01*
X112125428Y-60491714D01*
X112030190Y-60539333D01*
X111982571Y-60634571D01*
X111982571Y-61158380D01*
X111982571Y-60634571D02*
X111934952Y-60539333D01*
X111839714Y-60491714D01*
X111696857Y-60491714D01*
X111601619Y-60539333D01*
X111554000Y-60634571D01*
X111554000Y-61158380D01*
X111077809Y-61158380D02*
X111077809Y-60158380D01*
X111077809Y-60539333D02*
X110982571Y-60491714D01*
X110792095Y-60491714D01*
X110696857Y-60539333D01*
X110649238Y-60586952D01*
X110601619Y-60682190D01*
X110601619Y-60967904D01*
X110649238Y-61063142D01*
X110696857Y-61110761D01*
X110792095Y-61158380D01*
X110982571Y-61158380D01*
X111077809Y-61110761D01*
X109792095Y-61110761D02*
X109887333Y-61158380D01*
X110077809Y-61158380D01*
X110173047Y-61110761D01*
X110220666Y-61015523D01*
X110220666Y-60634571D01*
X110173047Y-60539333D01*
X110077809Y-60491714D01*
X109887333Y-60491714D01*
X109792095Y-60539333D01*
X109744476Y-60634571D01*
X109744476Y-60729809D01*
X110220666Y-60825047D01*
X109315904Y-61158380D02*
X109315904Y-60491714D01*
X109315904Y-60682190D02*
X109268285Y-60586952D01*
X109220666Y-60539333D01*
X109125428Y-60491714D01*
X109030190Y-60491714D01*
X107982571Y-60253619D02*
X107934952Y-60206000D01*
X107839714Y-60158380D01*
X107601619Y-60158380D01*
X107506380Y-60206000D01*
X107458761Y-60253619D01*
X107411142Y-60348857D01*
X107411142Y-60444095D01*
X107458761Y-60586952D01*
X108030190Y-61158380D01*
X107411142Y-61158380D01*
X106792095Y-60158380D02*
X106696857Y-60158380D01*
X106601619Y-60206000D01*
X106554000Y-60253619D01*
X106506380Y-60348857D01*
X106458761Y-60539333D01*
X106458761Y-60777428D01*
X106506380Y-60967904D01*
X106554000Y-61063142D01*
X106601619Y-61110761D01*
X106696857Y-61158380D01*
X106792095Y-61158380D01*
X106887333Y-61110761D01*
X106934952Y-61063142D01*
X106982571Y-60967904D01*
X107030190Y-60777428D01*
X107030190Y-60539333D01*
X106982571Y-60348857D01*
X106934952Y-60253619D01*
X106887333Y-60206000D01*
X106792095Y-60158380D01*
X105506380Y-61158380D02*
X106077809Y-61158380D01*
X105792095Y-61158380D02*
X105792095Y-60158380D01*
X105887333Y-60301238D01*
X105982571Y-60396476D01*
X106077809Y-60444095D01*
X105030190Y-61158380D02*
X104839714Y-61158380D01*
X104744476Y-61110761D01*
X104696857Y-61063142D01*
X104601619Y-60920285D01*
X104554000Y-60729809D01*
X104554000Y-60348857D01*
X104601619Y-60253619D01*
X104649238Y-60206000D01*
X104744476Y-60158380D01*
X104934952Y-60158380D01*
X105030190Y-60206000D01*
X105077809Y-60253619D01*
X105125428Y-60348857D01*
X105125428Y-60586952D01*
X105077809Y-60682190D01*
X105030190Y-60729809D01*
X104934952Y-60777428D01*
X104744476Y-60777428D01*
X104649238Y-60729809D01*
X104601619Y-60682190D01*
X104554000Y-60586952D01*
X120673047Y-62808380D02*
X120673047Y-61808380D01*
X120292095Y-61808380D01*
X120196857Y-61856000D01*
X120149238Y-61903619D01*
X120101619Y-61998857D01*
X120101619Y-62141714D01*
X120149238Y-62236952D01*
X120196857Y-62284571D01*
X120292095Y-62332190D01*
X120673047Y-62332190D01*
X118958761Y-61760761D02*
X119815904Y-63046476D01*
X118625428Y-62808380D02*
X118625428Y-61808380D01*
X118054000Y-62808380D01*
X118054000Y-61808380D01*
X116911142Y-61808380D02*
X116292095Y-61808380D01*
X116625428Y-62189333D01*
X116482571Y-62189333D01*
X116387333Y-62236952D01*
X116339714Y-62284571D01*
X116292095Y-62379809D01*
X116292095Y-62617904D01*
X116339714Y-62713142D01*
X116387333Y-62760761D01*
X116482571Y-62808380D01*
X116768285Y-62808380D01*
X116863523Y-62760761D01*
X116911142Y-62713142D01*
X115863523Y-62427428D02*
X115101619Y-62427428D01*
X114434952Y-61808380D02*
X114339714Y-61808380D01*
X114244476Y-61856000D01*
X114196857Y-61903619D01*
X114149238Y-61998857D01*
X114101619Y-62189333D01*
X114101619Y-62427428D01*
X114149238Y-62617904D01*
X114196857Y-62713142D01*
X114244476Y-62760761D01*
X114339714Y-62808380D01*
X114434952Y-62808380D01*
X114530190Y-62760761D01*
X114577809Y-62713142D01*
X114625428Y-62617904D01*
X114673047Y-62427428D01*
X114673047Y-62189333D01*
X114625428Y-61998857D01*
X114577809Y-61903619D01*
X114530190Y-61856000D01*
X114434952Y-61808380D01*
X113482571Y-61808380D02*
X113387333Y-61808380D01*
X113292095Y-61856000D01*
X113244476Y-61903619D01*
X113196857Y-61998857D01*
X113149238Y-62189333D01*
X113149238Y-62427428D01*
X113196857Y-62617904D01*
X113244476Y-62713142D01*
X113292095Y-62760761D01*
X113387333Y-62808380D01*
X113482571Y-62808380D01*
X113577809Y-62760761D01*
X113625428Y-62713142D01*
X113673047Y-62617904D01*
X113720666Y-62427428D01*
X113720666Y-62189333D01*
X113673047Y-61998857D01*
X113625428Y-61903619D01*
X113577809Y-61856000D01*
X113482571Y-61808380D01*
X112530190Y-61808380D02*
X112434952Y-61808380D01*
X112339714Y-61856000D01*
X112292095Y-61903619D01*
X112244476Y-61998857D01*
X112196857Y-62189333D01*
X112196857Y-62427428D01*
X112244476Y-62617904D01*
X112292095Y-62713142D01*
X112339714Y-62760761D01*
X112434952Y-62808380D01*
X112530190Y-62808380D01*
X112625428Y-62760761D01*
X112673047Y-62713142D01*
X112720666Y-62617904D01*
X112768285Y-62427428D01*
X112768285Y-62189333D01*
X112720666Y-61998857D01*
X112673047Y-61903619D01*
X112625428Y-61856000D01*
X112530190Y-61808380D01*
X111577809Y-61808380D02*
X111482571Y-61808380D01*
X111387333Y-61856000D01*
X111339714Y-61903619D01*
X111292095Y-61998857D01*
X111244476Y-62189333D01*
X111244476Y-62427428D01*
X111292095Y-62617904D01*
X111339714Y-62713142D01*
X111387333Y-62760761D01*
X111482571Y-62808380D01*
X111577809Y-62808380D01*
X111673047Y-62760761D01*
X111720666Y-62713142D01*
X111768285Y-62617904D01*
X111815904Y-62427428D01*
X111815904Y-62189333D01*
X111768285Y-61998857D01*
X111720666Y-61903619D01*
X111673047Y-61856000D01*
X111577809Y-61808380D01*
X110625428Y-61808380D02*
X110530190Y-61808380D01*
X110434952Y-61856000D01*
X110387333Y-61903619D01*
X110339714Y-61998857D01*
X110292095Y-62189333D01*
X110292095Y-62427428D01*
X110339714Y-62617904D01*
X110387333Y-62713142D01*
X110434952Y-62760761D01*
X110530190Y-62808380D01*
X110625428Y-62808380D01*
X110720666Y-62760761D01*
X110768285Y-62713142D01*
X110815904Y-62617904D01*
X110863523Y-62427428D01*
X110863523Y-62189333D01*
X110815904Y-61998857D01*
X110768285Y-61903619D01*
X110720666Y-61856000D01*
X110625428Y-61808380D01*
X109911142Y-61903619D02*
X109863523Y-61856000D01*
X109768285Y-61808380D01*
X109530190Y-61808380D01*
X109434952Y-61856000D01*
X109387333Y-61903619D01*
X109339714Y-61998857D01*
X109339714Y-62094095D01*
X109387333Y-62236952D01*
X109958761Y-62808380D01*
X109339714Y-62808380D01*
X108720666Y-61808380D02*
X108625428Y-61808380D01*
X108530190Y-61856000D01*
X108482571Y-61903619D01*
X108434952Y-61998857D01*
X108387333Y-62189333D01*
X108387333Y-62427428D01*
X108434952Y-62617904D01*
X108482571Y-62713142D01*
X108530190Y-62760761D01*
X108625428Y-62808380D01*
X108720666Y-62808380D01*
X108815904Y-62760761D01*
X108863523Y-62713142D01*
X108911142Y-62617904D01*
X108958761Y-62427428D01*
X108958761Y-62189333D01*
X108911142Y-61998857D01*
X108863523Y-61903619D01*
X108815904Y-61856000D01*
X108720666Y-61808380D01*
M02*
