M48
; DRILL file {KiCad (5.1.7)-1} date 12/18/20 08:27:28
; FORMAT={-:-/ absolute / inch / decimal}
; #@! TF.CreationDate,2020-12-18T08:27:28-06:00
; #@! TF.GenerationSoftware,Kicad,Pcbnew,(5.1.7)-1
; #@! TF.FileFunction,Plated,1,4,PTH
FMAT,2
INCH
T1C0.0100
T2C0.0200
T3C0.0295
T4C0.0299
T5C0.0394
T6C0.0421
%
G90
G05
T1
X5.275Y-2.24
X5.29Y-2.32
X5.455Y-2.37
X5.475Y-2.45
X5.57Y-2.325
X5.595Y-2.3
X5.595Y-2.355
X5.62Y-2.325
X5.6217Y-2.7983
X5.72Y-4.8
X5.74Y-4.25
X5.74Y-4.32
X5.75Y-2.365
X5.85Y-2.8
X5.855Y-3.48
X5.86Y-3.54
X5.87Y-4.73
X5.88Y-4.18
X5.885Y-3.195
X5.905Y-4.39
X5.925Y-2.92
X5.9702Y-3.1302
X6.01Y-3.02
X6.015Y-3.325
X6.045Y-3.11
X6.085Y-4.15
X6.095Y-3.115
X6.095Y-3.17
X6.1Y-4.735
X6.1193Y-3.0452
X6.14Y-3.15
X6.165Y-3.13
X6.165Y-3.17
X6.19Y-4.42
X6.195Y-3.34
X6.2Y-4.45
X6.24Y-3.485
X6.25Y-4.1
X6.255Y-4.23
X6.27Y-3.326
X6.27Y-3.83
X6.285Y-4.27
X6.285Y-4.3
X6.3Y-3.62
X6.31Y-3.475
X6.31Y-4.44
X6.32Y-3.8438
X6.32Y-4.14
X6.325Y-4.3
X6.345Y-4.27
X6.36Y-4.0
X6.38Y-3.0
X6.38Y-3.08
X6.4Y-3.3
X6.4Y-4.735
X6.4112Y-3.6088
X6.4158Y-4.4222
X6.42Y-3.51
X6.43Y-3.11
X6.4335Y-4.2235
X6.44Y-3.18
X6.44Y-3.59
X6.495Y-4.255
X6.51Y-3.299
X6.54Y-3.299
X6.58Y-3.005
X6.58Y-3.345
X6.59Y-3.11
X6.59Y-4.405
X6.6Y-4.34
X6.62Y-3.14
X6.62Y-3.3
X6.62Y-4.065
X6.635Y-3.935
X6.685Y-4.065
X6.695Y-4.27
X6.7313Y-3.9863
X6.7513Y-3.6763
X6.77Y-3.705
X6.78Y-2.66
X6.86Y-2.94
X6.865Y-3.595
X6.87Y-3.95
X7.16Y-2.98
X7.25Y-3.02
X7.2718Y-2.7882
X7.42Y-3.02
T2
X4.82Y-3.14
X4.82Y-3.19
X5.38Y-2.67
X5.48Y-3.17
X5.53Y-3.17
X5.62Y-2.68
X5.68Y-2.8273
X5.69Y-2.52
X5.705Y-2.215
X5.845Y-2.345
T3
X5.115Y-2.235
X5.115Y-2.335
X5.115Y-2.435
X5.115Y-2.635
X5.115Y-2.735
X5.115Y-2.835
X5.115Y-2.935
T4
X4.885Y-3.5216
X4.885Y-3.7184
T5
X5.81Y-3.65
X5.91Y-3.65
X7.09Y-3.63
X7.09Y-3.73
X7.09Y-3.83
X7.09Y-3.93
X4.675Y-3.92
X4.675Y-4.02
X4.675Y-3.62
X4.675Y-3.72
X4.6745Y-3.3205
X4.6745Y-3.4205
X4.6748Y-2.2201
X4.6748Y-2.3201
X4.6748Y-2.4201
X4.6748Y-2.5201
X4.6748Y-2.6201
X4.6748Y-2.7201
X4.6748Y-2.8201
X4.6748Y-2.9201
X4.6748Y-3.0201
X4.6748Y-3.1201
X6.71Y-3.48
X6.81Y-3.48
X6.91Y-3.48
X7.01Y-3.48
T6
X6.72Y-2.4
X6.72Y-2.5
T0
M30
