G04 #@! TF.GenerationSoftware,KiCad,Pcbnew,(5.1.7)-1*
G04 #@! TF.CreationDate,2020-12-18T08:27:27-06:00*
G04 #@! TF.ProjectId,digital_pcb,64696769-7461-46c5-9f70-63622e6b6963,3.0*
G04 #@! TF.SameCoordinates,Original*
G04 #@! TF.FileFunction,Legend,Top*
G04 #@! TF.FilePolarity,Positive*
%FSLAX46Y46*%
G04 Gerber Fmt 4.6, Leading zero omitted, Abs format (unit mm)*
G04 Created by KiCad (PCBNEW (5.1.7)-1) date 2020-12-18 08:27:27*
%MOMM*%
%LPD*%
G01*
G04 APERTURE LIST*
%ADD10C,0.150000*%
%ADD11C,0.254000*%
%ADD12C,0.120000*%
%ADD13C,0.304800*%
%ADD14C,0.127000*%
%ADD15C,0.100000*%
G04 APERTURE END LIST*
D10*
X168786609Y-132851380D02*
X168786609Y-131851380D01*
X169358038Y-132851380D01*
X169358038Y-131851380D01*
X169786609Y-132803761D02*
X169929466Y-132851380D01*
X170167561Y-132851380D01*
X170262800Y-132803761D01*
X170310419Y-132756142D01*
X170358038Y-132660904D01*
X170358038Y-132565666D01*
X170310419Y-132470428D01*
X170262800Y-132422809D01*
X170167561Y-132375190D01*
X169977085Y-132327571D01*
X169881847Y-132279952D01*
X169834228Y-132232333D01*
X169786609Y-132137095D01*
X169786609Y-132041857D01*
X169834228Y-131946619D01*
X169881847Y-131899000D01*
X169977085Y-131851380D01*
X170215180Y-131851380D01*
X170358038Y-131899000D01*
X170738990Y-132803761D02*
X170881847Y-132851380D01*
X171119942Y-132851380D01*
X171215180Y-132803761D01*
X171262800Y-132756142D01*
X171310419Y-132660904D01*
X171310419Y-132565666D01*
X171262800Y-132470428D01*
X171215180Y-132422809D01*
X171119942Y-132375190D01*
X170929466Y-132327571D01*
X170834228Y-132279952D01*
X170786609Y-132232333D01*
X170738990Y-132137095D01*
X170738990Y-132041857D01*
X170786609Y-131946619D01*
X170834228Y-131899000D01*
X170929466Y-131851380D01*
X171167561Y-131851380D01*
X171310419Y-131899000D01*
X172215180Y-132851380D02*
X171738990Y-132851380D01*
X171738990Y-131851380D01*
X173310419Y-132327571D02*
X173643752Y-132327571D01*
X173786609Y-132851380D02*
X173310419Y-132851380D01*
X173310419Y-131851380D01*
X173786609Y-131851380D01*
X174548514Y-132327571D02*
X174215180Y-132327571D01*
X174215180Y-132851380D02*
X174215180Y-131851380D01*
X174691371Y-131851380D01*
X175072323Y-132851380D02*
X175072323Y-131851380D01*
X175405657Y-132565666D01*
X175738990Y-131851380D01*
X175738990Y-132851380D01*
X162048514Y-134501380D02*
X162048514Y-133501380D01*
X162286609Y-133501380D01*
X162429466Y-133549000D01*
X162524704Y-133644238D01*
X162572323Y-133739476D01*
X162619942Y-133929952D01*
X162619942Y-134072809D01*
X162572323Y-134263285D01*
X162524704Y-134358523D01*
X162429466Y-134453761D01*
X162286609Y-134501380D01*
X162048514Y-134501380D01*
X163048514Y-134501380D02*
X163048514Y-133834714D01*
X163048514Y-133501380D02*
X163000895Y-133549000D01*
X163048514Y-133596619D01*
X163096133Y-133549000D01*
X163048514Y-133501380D01*
X163048514Y-133596619D01*
X163953276Y-133834714D02*
X163953276Y-134644238D01*
X163905657Y-134739476D01*
X163858038Y-134787095D01*
X163762800Y-134834714D01*
X163619942Y-134834714D01*
X163524704Y-134787095D01*
X163953276Y-134453761D02*
X163858038Y-134501380D01*
X163667561Y-134501380D01*
X163572323Y-134453761D01*
X163524704Y-134406142D01*
X163477085Y-134310904D01*
X163477085Y-134025190D01*
X163524704Y-133929952D01*
X163572323Y-133882333D01*
X163667561Y-133834714D01*
X163858038Y-133834714D01*
X163953276Y-133882333D01*
X164429466Y-134501380D02*
X164429466Y-133834714D01*
X164429466Y-133501380D02*
X164381847Y-133549000D01*
X164429466Y-133596619D01*
X164477085Y-133549000D01*
X164429466Y-133501380D01*
X164429466Y-133596619D01*
X164762800Y-133834714D02*
X165143752Y-133834714D01*
X164905657Y-133501380D02*
X164905657Y-134358523D01*
X164953276Y-134453761D01*
X165048514Y-134501380D01*
X165143752Y-134501380D01*
X165905657Y-134501380D02*
X165905657Y-133977571D01*
X165858038Y-133882333D01*
X165762800Y-133834714D01*
X165572323Y-133834714D01*
X165477085Y-133882333D01*
X165905657Y-134453761D02*
X165810419Y-134501380D01*
X165572323Y-134501380D01*
X165477085Y-134453761D01*
X165429466Y-134358523D01*
X165429466Y-134263285D01*
X165477085Y-134168047D01*
X165572323Y-134120428D01*
X165810419Y-134120428D01*
X165905657Y-134072809D01*
X166524704Y-134501380D02*
X166429466Y-134453761D01*
X166381847Y-134358523D01*
X166381847Y-133501380D01*
X168238990Y-134501380D02*
X167905657Y-134025190D01*
X167667561Y-134501380D02*
X167667561Y-133501380D01*
X168048514Y-133501380D01*
X168143752Y-133549000D01*
X168191371Y-133596619D01*
X168238990Y-133691857D01*
X168238990Y-133834714D01*
X168191371Y-133929952D01*
X168143752Y-133977571D01*
X168048514Y-134025190D01*
X167667561Y-134025190D01*
X168810419Y-134501380D02*
X168715180Y-134453761D01*
X168667561Y-134406142D01*
X168619942Y-134310904D01*
X168619942Y-134025190D01*
X168667561Y-133929952D01*
X168715180Y-133882333D01*
X168810419Y-133834714D01*
X168953276Y-133834714D01*
X169048514Y-133882333D01*
X169096133Y-133929952D01*
X169143752Y-134025190D01*
X169143752Y-134310904D01*
X169096133Y-134406142D01*
X169048514Y-134453761D01*
X168953276Y-134501380D01*
X168810419Y-134501380D01*
X169429466Y-133834714D02*
X169810419Y-133834714D01*
X169572323Y-133501380D02*
X169572323Y-134358523D01*
X169619942Y-134453761D01*
X169715180Y-134501380D01*
X169810419Y-134501380D01*
X170572323Y-134501380D02*
X170572323Y-133977571D01*
X170524704Y-133882333D01*
X170429466Y-133834714D01*
X170238990Y-133834714D01*
X170143752Y-133882333D01*
X170572323Y-134453761D02*
X170477085Y-134501380D01*
X170238990Y-134501380D01*
X170143752Y-134453761D01*
X170096133Y-134358523D01*
X170096133Y-134263285D01*
X170143752Y-134168047D01*
X170238990Y-134120428D01*
X170477085Y-134120428D01*
X170572323Y-134072809D01*
X170905657Y-133834714D02*
X171286609Y-133834714D01*
X171048514Y-133501380D02*
X171048514Y-134358523D01*
X171096133Y-134453761D01*
X171191371Y-134501380D01*
X171286609Y-134501380D01*
X171619942Y-134501380D02*
X171619942Y-133834714D01*
X171619942Y-133501380D02*
X171572323Y-133549000D01*
X171619942Y-133596619D01*
X171667561Y-133549000D01*
X171619942Y-133501380D01*
X171619942Y-133596619D01*
X172096133Y-133834714D02*
X172096133Y-134501380D01*
X172096133Y-133929952D02*
X172143752Y-133882333D01*
X172238990Y-133834714D01*
X172381847Y-133834714D01*
X172477085Y-133882333D01*
X172524704Y-133977571D01*
X172524704Y-134501380D01*
X173429466Y-133834714D02*
X173429466Y-134644238D01*
X173381847Y-134739476D01*
X173334228Y-134787095D01*
X173238990Y-134834714D01*
X173096133Y-134834714D01*
X173000895Y-134787095D01*
X173429466Y-134453761D02*
X173334228Y-134501380D01*
X173143752Y-134501380D01*
X173048514Y-134453761D01*
X173000895Y-134406142D01*
X172953276Y-134310904D01*
X172953276Y-134025190D01*
X173000895Y-133929952D01*
X173048514Y-133882333D01*
X173143752Y-133834714D01*
X173334228Y-133834714D01*
X173429466Y-133882333D01*
X174667561Y-133977571D02*
X175000895Y-133977571D01*
X175143752Y-134501380D02*
X174667561Y-134501380D01*
X174667561Y-133501380D01*
X175143752Y-133501380D01*
X175715180Y-134501380D02*
X175619942Y-134453761D01*
X175572323Y-134358523D01*
X175572323Y-133501380D01*
X176477085Y-134453761D02*
X176381847Y-134501380D01*
X176191371Y-134501380D01*
X176096133Y-134453761D01*
X176048514Y-134358523D01*
X176048514Y-133977571D01*
X176096133Y-133882333D01*
X176191371Y-133834714D01*
X176381847Y-133834714D01*
X176477085Y-133882333D01*
X176524704Y-133977571D01*
X176524704Y-134072809D01*
X176048514Y-134168047D01*
X177381847Y-134453761D02*
X177286609Y-134501380D01*
X177096133Y-134501380D01*
X177000895Y-134453761D01*
X176953276Y-134406142D01*
X176905657Y-134310904D01*
X176905657Y-134025190D01*
X176953276Y-133929952D01*
X177000895Y-133882333D01*
X177096133Y-133834714D01*
X177286609Y-133834714D01*
X177381847Y-133882333D01*
X177667561Y-133834714D02*
X178048514Y-133834714D01*
X177810419Y-133501380D02*
X177810419Y-134358523D01*
X177858038Y-134453761D01*
X177953276Y-134501380D01*
X178048514Y-134501380D01*
X178381847Y-134501380D02*
X178381847Y-133834714D01*
X178381847Y-134025190D02*
X178429466Y-133929952D01*
X178477085Y-133882333D01*
X178572323Y-133834714D01*
X178667561Y-133834714D01*
X179143752Y-134501380D02*
X179048514Y-134453761D01*
X179000895Y-134406142D01*
X178953276Y-134310904D01*
X178953276Y-134025190D01*
X179000895Y-133929952D01*
X179048514Y-133882333D01*
X179143752Y-133834714D01*
X179286609Y-133834714D01*
X179381847Y-133882333D01*
X179429466Y-133929952D01*
X179477085Y-134025190D01*
X179477085Y-134310904D01*
X179429466Y-134406142D01*
X179381847Y-134453761D01*
X179286609Y-134501380D01*
X179143752Y-134501380D01*
X179905657Y-133834714D02*
X179905657Y-134501380D01*
X179905657Y-133929952D02*
X179953276Y-133882333D01*
X180048514Y-133834714D01*
X180191371Y-133834714D01*
X180286609Y-133882333D01*
X180334228Y-133977571D01*
X180334228Y-134501380D01*
X180810419Y-134501380D02*
X180810419Y-133834714D01*
X180810419Y-133501380D02*
X180762800Y-133549000D01*
X180810419Y-133596619D01*
X180858038Y-133549000D01*
X180810419Y-133501380D01*
X180810419Y-133596619D01*
X181715180Y-134453761D02*
X181619942Y-134501380D01*
X181429466Y-134501380D01*
X181334228Y-134453761D01*
X181286609Y-134406142D01*
X181238990Y-134310904D01*
X181238990Y-134025190D01*
X181286609Y-133929952D01*
X181334228Y-133882333D01*
X181429466Y-133834714D01*
X181619942Y-133834714D01*
X181715180Y-133882333D01*
X182096133Y-134453761D02*
X182191371Y-134501380D01*
X182381847Y-134501380D01*
X182477085Y-134453761D01*
X182524704Y-134358523D01*
X182524704Y-134310904D01*
X182477085Y-134215666D01*
X182381847Y-134168047D01*
X182238990Y-134168047D01*
X182143752Y-134120428D01*
X182096133Y-134025190D01*
X182096133Y-133977571D01*
X182143752Y-133882333D01*
X182238990Y-133834714D01*
X182381847Y-133834714D01*
X182477085Y-133882333D01*
X170191371Y-136151380D02*
X169858038Y-135675190D01*
X169619942Y-136151380D02*
X169619942Y-135151380D01*
X170000895Y-135151380D01*
X170096133Y-135199000D01*
X170143752Y-135246619D01*
X170191371Y-135341857D01*
X170191371Y-135484714D01*
X170143752Y-135579952D01*
X170096133Y-135627571D01*
X170000895Y-135675190D01*
X169619942Y-135675190D01*
X171000895Y-136103761D02*
X170905657Y-136151380D01*
X170715180Y-136151380D01*
X170619942Y-136103761D01*
X170572323Y-136008523D01*
X170572323Y-135627571D01*
X170619942Y-135532333D01*
X170715180Y-135484714D01*
X170905657Y-135484714D01*
X171000895Y-135532333D01*
X171048514Y-135627571D01*
X171048514Y-135722809D01*
X170572323Y-135818047D01*
X171381847Y-135484714D02*
X171619942Y-136151380D01*
X171858038Y-135484714D01*
X172905657Y-135151380D02*
X173524704Y-135151380D01*
X173191371Y-135532333D01*
X173334228Y-135532333D01*
X173429466Y-135579952D01*
X173477085Y-135627571D01*
X173524704Y-135722809D01*
X173524704Y-135960904D01*
X173477085Y-136056142D01*
X173429466Y-136103761D01*
X173334228Y-136151380D01*
X173048514Y-136151380D01*
X172953276Y-136103761D01*
X172905657Y-136056142D01*
X173953276Y-136056142D02*
X174000895Y-136103761D01*
X173953276Y-136151380D01*
X173905657Y-136103761D01*
X173953276Y-136056142D01*
X173953276Y-136151380D01*
X174619942Y-135151380D02*
X174715180Y-135151380D01*
X174810419Y-135199000D01*
X174858038Y-135246619D01*
X174905657Y-135341857D01*
X174953276Y-135532333D01*
X174953276Y-135770428D01*
X174905657Y-135960904D01*
X174858038Y-136056142D01*
X174810419Y-136103761D01*
X174715180Y-136151380D01*
X174619942Y-136151380D01*
X174524704Y-136103761D01*
X174477085Y-136056142D01*
X174429466Y-135960904D01*
X174381847Y-135770428D01*
X174381847Y-135532333D01*
X174429466Y-135341857D01*
X174477085Y-135246619D01*
X174524704Y-135199000D01*
X174619942Y-135151380D01*
X166143752Y-137801380D02*
X166143752Y-136801380D01*
X166524704Y-136801380D01*
X166619942Y-136849000D01*
X166667561Y-136896619D01*
X166715180Y-136991857D01*
X166715180Y-137134714D01*
X166667561Y-137229952D01*
X166619942Y-137277571D01*
X166524704Y-137325190D01*
X166143752Y-137325190D01*
X167858038Y-136753761D02*
X167000895Y-138039476D01*
X168191371Y-137801380D02*
X168191371Y-136801380D01*
X168762800Y-137801380D01*
X168762800Y-136801380D01*
X169905657Y-136801380D02*
X170524704Y-136801380D01*
X170191371Y-137182333D01*
X170334228Y-137182333D01*
X170429466Y-137229952D01*
X170477085Y-137277571D01*
X170524704Y-137372809D01*
X170524704Y-137610904D01*
X170477085Y-137706142D01*
X170429466Y-137753761D01*
X170334228Y-137801380D01*
X170048514Y-137801380D01*
X169953276Y-137753761D01*
X169905657Y-137706142D01*
X170953276Y-137420428D02*
X171715180Y-137420428D01*
X172381847Y-136801380D02*
X172477085Y-136801380D01*
X172572323Y-136849000D01*
X172619942Y-136896619D01*
X172667561Y-136991857D01*
X172715180Y-137182333D01*
X172715180Y-137420428D01*
X172667561Y-137610904D01*
X172619942Y-137706142D01*
X172572323Y-137753761D01*
X172477085Y-137801380D01*
X172381847Y-137801380D01*
X172286609Y-137753761D01*
X172238990Y-137706142D01*
X172191371Y-137610904D01*
X172143752Y-137420428D01*
X172143752Y-137182333D01*
X172191371Y-136991857D01*
X172238990Y-136896619D01*
X172286609Y-136849000D01*
X172381847Y-136801380D01*
X173334228Y-136801380D02*
X173429466Y-136801380D01*
X173524704Y-136849000D01*
X173572323Y-136896619D01*
X173619942Y-136991857D01*
X173667561Y-137182333D01*
X173667561Y-137420428D01*
X173619942Y-137610904D01*
X173572323Y-137706142D01*
X173524704Y-137753761D01*
X173429466Y-137801380D01*
X173334228Y-137801380D01*
X173238990Y-137753761D01*
X173191371Y-137706142D01*
X173143752Y-137610904D01*
X173096133Y-137420428D01*
X173096133Y-137182333D01*
X173143752Y-136991857D01*
X173191371Y-136896619D01*
X173238990Y-136849000D01*
X173334228Y-136801380D01*
X174286609Y-136801380D02*
X174381847Y-136801380D01*
X174477085Y-136849000D01*
X174524704Y-136896619D01*
X174572323Y-136991857D01*
X174619942Y-137182333D01*
X174619942Y-137420428D01*
X174572323Y-137610904D01*
X174524704Y-137706142D01*
X174477085Y-137753761D01*
X174381847Y-137801380D01*
X174286609Y-137801380D01*
X174191371Y-137753761D01*
X174143752Y-137706142D01*
X174096133Y-137610904D01*
X174048514Y-137420428D01*
X174048514Y-137182333D01*
X174096133Y-136991857D01*
X174143752Y-136896619D01*
X174191371Y-136849000D01*
X174286609Y-136801380D01*
X175238990Y-136801380D02*
X175334228Y-136801380D01*
X175429466Y-136849000D01*
X175477085Y-136896619D01*
X175524704Y-136991857D01*
X175572323Y-137182333D01*
X175572323Y-137420428D01*
X175524704Y-137610904D01*
X175477085Y-137706142D01*
X175429466Y-137753761D01*
X175334228Y-137801380D01*
X175238990Y-137801380D01*
X175143752Y-137753761D01*
X175096133Y-137706142D01*
X175048514Y-137610904D01*
X175000895Y-137420428D01*
X175000895Y-137182333D01*
X175048514Y-136991857D01*
X175096133Y-136896619D01*
X175143752Y-136849000D01*
X175238990Y-136801380D01*
X176191371Y-136801380D02*
X176286609Y-136801380D01*
X176381847Y-136849000D01*
X176429466Y-136896619D01*
X176477085Y-136991857D01*
X176524704Y-137182333D01*
X176524704Y-137420428D01*
X176477085Y-137610904D01*
X176429466Y-137706142D01*
X176381847Y-137753761D01*
X176286609Y-137801380D01*
X176191371Y-137801380D01*
X176096133Y-137753761D01*
X176048514Y-137706142D01*
X176000895Y-137610904D01*
X175953276Y-137420428D01*
X175953276Y-137182333D01*
X176000895Y-136991857D01*
X176048514Y-136896619D01*
X176096133Y-136849000D01*
X176191371Y-136801380D01*
X177381847Y-136801380D02*
X177191371Y-136801380D01*
X177096133Y-136849000D01*
X177048514Y-136896619D01*
X176953276Y-137039476D01*
X176905657Y-137229952D01*
X176905657Y-137610904D01*
X176953276Y-137706142D01*
X177000895Y-137753761D01*
X177096133Y-137801380D01*
X177286609Y-137801380D01*
X177381847Y-137753761D01*
X177429466Y-137706142D01*
X177477085Y-137610904D01*
X177477085Y-137372809D01*
X177429466Y-137277571D01*
X177381847Y-137229952D01*
X177286609Y-137182333D01*
X177096133Y-137182333D01*
X177000895Y-137229952D01*
X176953276Y-137277571D01*
X176905657Y-137372809D01*
X177953276Y-137801380D02*
X178143752Y-137801380D01*
X178238990Y-137753761D01*
X178286609Y-137706142D01*
X178381847Y-137563285D01*
X178429466Y-137372809D01*
X178429466Y-136991857D01*
X178381847Y-136896619D01*
X178334228Y-136849000D01*
X178238990Y-136801380D01*
X178048514Y-136801380D01*
X177953276Y-136849000D01*
X177905657Y-136896619D01*
X177858038Y-136991857D01*
X177858038Y-137229952D01*
X177905657Y-137325190D01*
X177953276Y-137372809D01*
X178048514Y-137420428D01*
X178238990Y-137420428D01*
X178334228Y-137372809D01*
X178381847Y-137325190D01*
X178429466Y-137229952D01*
X168600404Y-87904700D02*
X168505166Y-87857080D01*
X168362309Y-87857080D01*
X168219452Y-87904700D01*
X168124214Y-87999938D01*
X168076595Y-88095176D01*
X168028976Y-88285652D01*
X168028976Y-88428509D01*
X168076595Y-88618985D01*
X168124214Y-88714223D01*
X168219452Y-88809461D01*
X168362309Y-88857080D01*
X168457547Y-88857080D01*
X168600404Y-88809461D01*
X168648023Y-88761842D01*
X168648023Y-88428509D01*
X168457547Y-88428509D01*
D11*
X173105838Y-85601023D02*
X173105838Y-84331023D01*
X173650123Y-85540547D02*
X173831552Y-85601023D01*
X174133933Y-85601023D01*
X174254885Y-85540547D01*
X174315361Y-85480071D01*
X174375838Y-85359119D01*
X174375838Y-85238166D01*
X174315361Y-85117214D01*
X174254885Y-85056738D01*
X174133933Y-84996261D01*
X173892028Y-84935785D01*
X173771076Y-84875309D01*
X173710600Y-84814833D01*
X173650123Y-84693880D01*
X173650123Y-84572928D01*
X173710600Y-84451976D01*
X173771076Y-84391500D01*
X173892028Y-84331023D01*
X174194409Y-84331023D01*
X174375838Y-84391500D01*
X174920123Y-85601023D02*
X174920123Y-84331023D01*
X175403933Y-84331023D01*
X175524885Y-84391500D01*
X175585361Y-84451976D01*
X175645838Y-84572928D01*
X175645838Y-84754357D01*
X175585361Y-84875309D01*
X175524885Y-84935785D01*
X175403933Y-84996261D01*
X174920123Y-84996261D01*
D10*
X174288000Y-58730000D02*
X174288000Y-57730000D01*
X174288000Y-66730000D02*
X174288000Y-65730000D01*
X188788000Y-66730000D02*
X174288000Y-66730000D01*
X188788000Y-57730000D02*
X188788000Y-66730000D01*
X174288000Y-57730000D02*
X188788000Y-57730000D01*
X163788000Y-60830000D02*
X168988000Y-58730000D01*
X168988000Y-65730000D02*
X163788000Y-63630000D01*
X163788000Y-63630000D02*
X163788000Y-60830000D01*
X174288000Y-65730000D02*
X168988000Y-65730000D01*
X174288000Y-58730000D02*
X174288000Y-65730000D01*
X168988000Y-58730000D02*
X174288000Y-58730000D01*
X124079000Y-87448000D02*
X138579000Y-87448000D01*
X138579000Y-87448000D02*
X138579000Y-96448000D01*
X138579000Y-96448000D02*
X124079000Y-96448000D01*
X124079000Y-96448000D02*
X124079000Y-95448000D01*
X124079000Y-87448000D02*
X124079000Y-88448000D01*
D12*
X184079000Y-68582000D02*
X184079000Y-70042000D01*
X180919000Y-68582000D02*
X180919000Y-70742000D01*
X180919000Y-68582000D02*
X181849000Y-68582000D01*
X184079000Y-68582000D02*
X183149000Y-68582000D01*
D10*
X162618000Y-93726000D02*
X161243000Y-93726000D01*
X169868000Y-93276000D02*
X169343000Y-93276000D01*
X169868000Y-100526000D02*
X169343000Y-100526000D01*
X162618000Y-100526000D02*
X163143000Y-100526000D01*
X162618000Y-93276000D02*
X163143000Y-93276000D01*
X162618000Y-100526000D02*
X162618000Y-100001000D01*
X169868000Y-100526000D02*
X169868000Y-100001000D01*
X169868000Y-93276000D02*
X169868000Y-93801000D01*
X162618000Y-93276000D02*
X162618000Y-93726000D01*
D13*
X152967000Y-77456000D02*
G75*
G03*
X152967000Y-77456000I-100000J0D01*
G01*
D14*
X157667000Y-77856000D02*
X152467000Y-77856000D01*
X157667000Y-81656000D02*
X157667000Y-77856000D01*
X152467000Y-81656000D02*
X157667000Y-81656000D01*
X152467000Y-77856000D02*
X152467000Y-81656000D01*
D10*
X154975000Y-109849000D02*
X160950000Y-109849000D01*
X156550000Y-115374000D02*
X160950000Y-115374000D01*
X153065000Y-107239000D02*
X153065000Y-110439000D01*
X153065000Y-110439000D02*
X150465000Y-110439000D01*
X150465000Y-110439000D02*
X150465000Y-107239000D01*
X150465000Y-107239000D02*
X153065000Y-107239000D01*
X150465000Y-107239000D02*
X150265000Y-107039000D01*
D12*
X184699000Y-72379000D02*
X184699000Y-74179000D01*
X187919000Y-74179000D02*
X187919000Y-71729000D01*
X132613000Y-85021000D02*
X126603000Y-85021000D01*
X130363000Y-78201000D02*
X126603000Y-78201000D01*
X126603000Y-85021000D02*
X126603000Y-83761000D01*
X126603000Y-78201000D02*
X126603000Y-79461000D01*
D10*
X133246000Y-54659000D02*
X133246000Y-76659000D01*
X133246000Y-76659000D02*
X124146000Y-76659000D01*
X124146000Y-76659000D02*
X124146000Y-54659000D01*
X124146000Y-54659000D02*
X133246000Y-54659000D01*
D12*
X140092000Y-63414000D02*
X137642000Y-63414000D01*
X138292000Y-66634000D02*
X140092000Y-66634000D01*
X153787000Y-89693000D02*
X153787000Y-102293000D01*
X158887000Y-89693000D02*
X153787000Y-89693000D01*
X158887000Y-102293000D02*
X158887000Y-89693000D01*
D10*
X157408000Y-67424000D02*
X157408000Y-67874000D01*
X157408000Y-67424000D02*
X161108000Y-67424000D01*
X161108000Y-67424000D02*
X161108000Y-67874000D01*
X161108000Y-69374000D02*
X161108000Y-73374000D01*
X161108000Y-74874000D02*
X161108000Y-75324000D01*
X161108000Y-75324000D02*
X157408000Y-75324000D01*
X157408000Y-75324000D02*
X157408000Y-74874000D01*
X157408000Y-73374000D02*
X157408000Y-69374000D01*
D12*
X142113000Y-60665000D02*
X143613000Y-60665000D01*
X142113000Y-60665000D02*
X140613000Y-60665000D01*
X142113000Y-57445000D02*
X143613000Y-57445000D01*
X142113000Y-57445000D02*
X139238000Y-57445000D01*
X165213420Y-79504000D02*
X165494580Y-79504000D01*
X165213420Y-78484000D02*
X165494580Y-78484000D01*
X168658000Y-81647420D02*
X168658000Y-81928580D01*
X167638000Y-81647420D02*
X167638000Y-81928580D01*
D15*
X166792999Y-82946999D02*
X166792999Y-83196999D01*
X164092999Y-83096999D02*
X164092999Y-82946999D01*
X164242999Y-83096999D02*
X164092999Y-83096999D01*
X164092999Y-80396999D02*
X164242999Y-80396999D01*
X164092999Y-80396999D02*
X164092999Y-80546999D01*
X166792999Y-80396999D02*
X166792999Y-80546999D01*
X166792999Y-80386999D02*
X166642999Y-80386999D01*
D12*
X173341420Y-91819000D02*
X173622580Y-91819000D01*
X173341420Y-92839000D02*
X173622580Y-92839000D01*
X161176580Y-90295000D02*
X160895420Y-90295000D01*
X161176580Y-91315000D02*
X160895420Y-91315000D01*
X173341420Y-101983000D02*
X173622580Y-101983000D01*
X173341420Y-100963000D02*
X173622580Y-100963000D01*
X162181000Y-103999420D02*
X162181000Y-104280580D01*
X161161000Y-103999420D02*
X161161000Y-104280580D01*
X156196420Y-89029000D02*
X156477580Y-89029000D01*
X156196420Y-88009000D02*
X156477580Y-88009000D01*
X150931421Y-89444001D02*
X151212581Y-89444001D01*
X150931421Y-90464001D02*
X151212581Y-90464001D01*
X156196420Y-104650000D02*
X156477580Y-104650000D01*
X156196420Y-103630000D02*
X156477580Y-103630000D01*
X149619580Y-78992000D02*
X149338420Y-78992000D01*
X149619580Y-80012000D02*
X149338420Y-80012000D01*
X151128000Y-75578580D02*
X151128000Y-75297420D01*
X152148000Y-75578580D02*
X152148000Y-75297420D01*
X166622000Y-74181580D02*
X166622000Y-73900420D01*
X167642000Y-74181580D02*
X167642000Y-73900420D01*
X150354420Y-73027000D02*
X150635580Y-73027000D01*
X150354420Y-72007000D02*
X150635580Y-72007000D01*
X155196000Y-84314420D02*
X155196000Y-84595580D01*
X154176000Y-84314420D02*
X154176000Y-84595580D01*
X164959420Y-112397000D02*
X165240580Y-112397000D01*
X164959420Y-111377000D02*
X165240580Y-111377000D01*
X164959420Y-113028000D02*
X165240580Y-113028000D01*
X164959420Y-114048000D02*
X165240580Y-114048000D01*
X160907000Y-119239420D02*
X160907000Y-119520580D01*
X161927000Y-119239420D02*
X161927000Y-119520580D01*
X158890580Y-116969000D02*
X158609420Y-116969000D01*
X158890580Y-115949000D02*
X158609420Y-115949000D01*
X156593000Y-119239420D02*
X156593000Y-119520580D01*
X155573000Y-119239420D02*
X155573000Y-119520580D01*
X152540580Y-112520000D02*
X152259420Y-112520000D01*
X152540580Y-113540000D02*
X152259420Y-113540000D01*
X151905580Y-105662000D02*
X151624420Y-105662000D01*
X151905580Y-106682000D02*
X151624420Y-106682000D01*
X171731000Y-70238252D02*
X171731000Y-69715748D01*
X173201000Y-70238252D02*
X173201000Y-69715748D01*
X186449580Y-76071000D02*
X186168420Y-76071000D01*
X186449580Y-77091000D02*
X186168420Y-77091000D01*
X136659252Y-56161000D02*
X136136748Y-56161000D01*
X136659252Y-57631000D02*
X136136748Y-57631000D01*
X136273000Y-73927580D02*
X136273000Y-73646420D01*
X135253000Y-73927580D02*
X135253000Y-73646420D01*
X139332580Y-71503000D02*
X139051420Y-71503000D01*
X139332580Y-70483000D02*
X139051420Y-70483000D01*
X138022000Y-84335252D02*
X138022000Y-83812748D01*
X136552000Y-84335252D02*
X136552000Y-83812748D01*
X134999000Y-84214580D02*
X134999000Y-83933420D01*
X136019000Y-84214580D02*
X136019000Y-83933420D01*
X133475000Y-84214580D02*
X133475000Y-83933420D01*
X134495000Y-84214580D02*
X134495000Y-83933420D01*
X138022000Y-79382252D02*
X138022000Y-78859748D01*
X136552000Y-79382252D02*
X136552000Y-78859748D01*
X134999000Y-79261580D02*
X134999000Y-78980420D01*
X136019000Y-79261580D02*
X136019000Y-78980420D01*
X133475000Y-79261580D02*
X133475000Y-78980420D01*
X134495000Y-79261580D02*
X134495000Y-78980420D01*
X143131000Y-73927580D02*
X143131000Y-73646420D01*
X142111000Y-73927580D02*
X142111000Y-73646420D01*
X136273000Y-65164580D02*
X136273000Y-64883420D01*
X135253000Y-65164580D02*
X135253000Y-64883420D01*
X143610000Y-64762748D02*
X143610000Y-65285252D01*
X142140000Y-64762748D02*
X142140000Y-65285252D01*
X139332580Y-67308000D02*
X139051420Y-67308000D01*
X139332580Y-68328000D02*
X139051420Y-68328000D01*
X151444000Y-91380000D02*
X151444000Y-92710000D01*
X150114000Y-91380000D02*
X151444000Y-91380000D01*
X148844000Y-91380000D02*
X148844000Y-94040000D01*
X148844000Y-94040000D02*
X146244000Y-94040000D01*
X148844000Y-91380000D02*
X146244000Y-91380000D01*
X146244000Y-91380000D02*
X146244000Y-94040000D01*
X179384000Y-87062000D02*
X179384000Y-88392000D01*
X178054000Y-87062000D02*
X179384000Y-87062000D01*
X176784000Y-87062000D02*
X176784000Y-89722000D01*
X176784000Y-89722000D02*
X169104000Y-89722000D01*
X176784000Y-87062000D02*
X169104000Y-87062000D01*
X169104000Y-87062000D02*
X169104000Y-89722000D01*
X117402300Y-88210700D02*
X120062300Y-88210700D01*
X117402300Y-85610700D02*
X117402300Y-88210700D01*
X120062300Y-85610700D02*
X120062300Y-88210700D01*
X117402300Y-85610700D02*
X120062300Y-85610700D01*
X117402300Y-84340700D02*
X117402300Y-83010700D01*
X117402300Y-83010700D02*
X118732300Y-83010700D01*
X181416000Y-90872000D02*
X178756000Y-90872000D01*
X181416000Y-98552000D02*
X181416000Y-90872000D01*
X178756000Y-98552000D02*
X178756000Y-90872000D01*
X181416000Y-98552000D02*
X178756000Y-98552000D01*
X181416000Y-99822000D02*
X181416000Y-101152000D01*
X181416000Y-101152000D02*
X180086000Y-101152000D01*
X117410000Y-55060000D02*
X118740000Y-55060000D01*
X117410000Y-56390000D02*
X117410000Y-55060000D01*
X117410000Y-57660000D02*
X120070000Y-57660000D01*
X120070000Y-57660000D02*
X120070000Y-80580000D01*
X117410000Y-57660000D02*
X117410000Y-80580000D01*
X117410000Y-80580000D02*
X120070000Y-80580000D01*
X117415000Y-95818000D02*
X120075000Y-95818000D01*
X117415000Y-93218000D02*
X117415000Y-95818000D01*
X120075000Y-93218000D02*
X120075000Y-95818000D01*
X117415000Y-93218000D02*
X120075000Y-93218000D01*
X117415000Y-91948000D02*
X117415000Y-90618000D01*
X117415000Y-90618000D02*
X118745000Y-90618000D01*
X120075000Y-103438000D02*
X118745000Y-103438000D01*
X120075000Y-102108000D02*
X120075000Y-103438000D01*
X120075000Y-100838000D02*
X117415000Y-100838000D01*
X117415000Y-100838000D02*
X117415000Y-98238000D01*
X120075000Y-100838000D02*
X120075000Y-98238000D01*
X120075000Y-98238000D02*
X117415000Y-98238000D01*
X162545500Y-87359258D02*
X162545500Y-86884742D01*
X163590500Y-87359258D02*
X163590500Y-86884742D01*
X167625500Y-105299742D02*
X167625500Y-105774258D01*
X168670500Y-105299742D02*
X168670500Y-105774258D01*
X165241500Y-86884742D02*
X165241500Y-87359258D01*
X164196500Y-86884742D02*
X164196500Y-87359258D01*
X167019500Y-105774258D02*
X167019500Y-105299742D01*
X165974500Y-105774258D02*
X165974500Y-105299742D01*
X161939500Y-86884742D02*
X161939500Y-87359258D01*
X160894500Y-86884742D02*
X160894500Y-87359258D01*
X170321500Y-105774258D02*
X170321500Y-105299742D01*
X169276500Y-105774258D02*
X169276500Y-105299742D01*
X150839743Y-88914500D02*
X151314259Y-88914500D01*
X150839743Y-87869500D02*
X151314259Y-87869500D01*
X153303500Y-96155742D02*
X153303500Y-96630258D01*
X152258500Y-96155742D02*
X152258500Y-96630258D01*
X173258257Y-77992500D02*
X172783741Y-77992500D01*
X173258257Y-76947500D02*
X172783741Y-76947500D01*
X173258257Y-76296499D02*
X172783741Y-76296499D01*
X173258257Y-75251499D02*
X172783741Y-75251499D01*
X165337258Y-110758500D02*
X164862742Y-110758500D01*
X165337258Y-109713500D02*
X164862742Y-109713500D01*
X167877258Y-107935500D02*
X167402742Y-107935500D01*
X167877258Y-108980500D02*
X167402742Y-108980500D01*
X156226742Y-108189500D02*
X156701258Y-108189500D01*
X156226742Y-109234500D02*
X156701258Y-109234500D01*
X156226742Y-107583500D02*
X156701258Y-107583500D01*
X156226742Y-106538500D02*
X156701258Y-106538500D01*
X160415500Y-104918742D02*
X160415500Y-105393258D01*
X159370500Y-104918742D02*
X159370500Y-105393258D01*
X153303500Y-84692258D02*
X153303500Y-84217742D01*
X152258500Y-84692258D02*
X152258500Y-84217742D01*
X149241742Y-80630500D02*
X149716258Y-80630500D01*
X149241742Y-81675500D02*
X149716258Y-81675500D01*
X158258742Y-83834500D02*
X158733258Y-83834500D01*
X158258742Y-82789500D02*
X158733258Y-82789500D01*
X151875258Y-117841500D02*
X151400742Y-117841500D01*
X151875258Y-118886500D02*
X151400742Y-118886500D01*
X160288500Y-119142742D02*
X160288500Y-119617258D01*
X159243500Y-119142742D02*
X159243500Y-119617258D01*
X164862742Y-115584500D02*
X165337258Y-115584500D01*
X164862742Y-114539500D02*
X165337258Y-114539500D01*
X151400742Y-119619500D02*
X151875258Y-119619500D01*
X151400742Y-120664500D02*
X151875258Y-120664500D01*
X152637258Y-114031500D02*
X152162742Y-114031500D01*
X152637258Y-115076500D02*
X152162742Y-115076500D01*
X157211500Y-119142742D02*
X157211500Y-119617258D01*
X158256500Y-119142742D02*
X158256500Y-119617258D01*
X148446258Y-108472500D02*
X147971742Y-108472500D01*
X148446258Y-107427500D02*
X147971742Y-107427500D01*
X148446258Y-109205500D02*
X147971742Y-109205500D01*
X148446258Y-110250500D02*
X147971742Y-110250500D01*
X152162742Y-110983500D02*
X152637258Y-110983500D01*
X152162742Y-112028500D02*
X152637258Y-112028500D01*
X168889000Y-69376936D02*
X168889000Y-70831064D01*
X170709000Y-69376936D02*
X170709000Y-70831064D01*
X182992500Y-73041742D02*
X182992500Y-73516258D01*
X184037500Y-73041742D02*
X184037500Y-73516258D01*
X181341500Y-73516258D02*
X181341500Y-73041742D01*
X182386500Y-73516258D02*
X182386500Y-73041742D01*
X147207500Y-57895258D02*
X147207500Y-57420742D01*
X146162500Y-57895258D02*
X146162500Y-57420742D01*
X141875742Y-55738500D02*
X142350258Y-55738500D01*
X141875742Y-56783500D02*
X142350258Y-56783500D01*
X136635258Y-58405500D02*
X136160742Y-58405500D01*
X136635258Y-59450500D02*
X136160742Y-59450500D01*
X140092000Y-72177000D02*
X137642000Y-72177000D01*
X138292000Y-75397000D02*
X140092000Y-75397000D01*
D10*
X171778704Y-58072280D02*
X171778704Y-57072280D01*
X172016800Y-57072280D01*
X172159657Y-57119900D01*
X172254895Y-57215138D01*
X172302514Y-57310376D01*
X172350133Y-57500852D01*
X172350133Y-57643709D01*
X172302514Y-57834185D01*
X172254895Y-57929423D01*
X172159657Y-58024661D01*
X172016800Y-58072280D01*
X171778704Y-58072280D01*
X173302514Y-58072280D02*
X172731085Y-58072280D01*
X173016800Y-58072280D02*
X173016800Y-57072280D01*
X172921561Y-57215138D01*
X172826323Y-57310376D01*
X172731085Y-57357995D01*
X139996871Y-87849033D02*
X139996871Y-88182366D01*
X140520680Y-88182366D02*
X139520680Y-88182366D01*
X139520680Y-87706176D01*
X140520680Y-86801414D02*
X140520680Y-87372842D01*
X140520680Y-87087128D02*
X139520680Y-87087128D01*
X139663538Y-87182366D01*
X139758776Y-87277604D01*
X139806395Y-87372842D01*
X180546619Y-69437238D02*
X180499000Y-69532476D01*
X180403761Y-69627714D01*
X180260904Y-69770571D01*
X180213285Y-69865809D01*
X180213285Y-69961047D01*
X180451380Y-69913428D02*
X180403761Y-70008666D01*
X180308523Y-70103904D01*
X180118047Y-70151523D01*
X179784714Y-70151523D01*
X179594238Y-70103904D01*
X179499000Y-70008666D01*
X179451380Y-69913428D01*
X179451380Y-69722952D01*
X179499000Y-69627714D01*
X179594238Y-69532476D01*
X179784714Y-69484857D01*
X180118047Y-69484857D01*
X180308523Y-69532476D01*
X180403761Y-69627714D01*
X180451380Y-69722952D01*
X180451380Y-69913428D01*
X180451380Y-68532476D02*
X180451380Y-69103904D01*
X180451380Y-68818190D02*
X179451380Y-68818190D01*
X179594238Y-68913428D01*
X179689476Y-69008666D01*
X179737095Y-69103904D01*
X165481095Y-90353380D02*
X165481095Y-91162904D01*
X165528714Y-91258142D01*
X165576333Y-91305761D01*
X165671571Y-91353380D01*
X165862047Y-91353380D01*
X165957285Y-91305761D01*
X166004904Y-91258142D01*
X166052523Y-91162904D01*
X166052523Y-90353380D01*
X167052523Y-91353380D02*
X166481095Y-91353380D01*
X166766809Y-91353380D02*
X166766809Y-90353380D01*
X166671571Y-90496238D01*
X166576333Y-90591476D01*
X166481095Y-90639095D01*
X154940095Y-115784380D02*
X154940095Y-116593904D01*
X154987714Y-116689142D01*
X155035333Y-116736761D01*
X155130571Y-116784380D01*
X155321047Y-116784380D01*
X155416285Y-116736761D01*
X155463904Y-116689142D01*
X155511523Y-116593904D01*
X155511523Y-115784380D01*
X156416285Y-116117714D02*
X156416285Y-116784380D01*
X156178190Y-115736761D02*
X155940095Y-116451047D01*
X156559142Y-116451047D01*
X153300180Y-109600904D02*
X154109704Y-109600904D01*
X154204942Y-109553285D01*
X154252561Y-109505666D01*
X154300180Y-109410428D01*
X154300180Y-109219952D01*
X154252561Y-109124714D01*
X154204942Y-109077095D01*
X154109704Y-109029476D01*
X153300180Y-109029476D01*
X153300180Y-108077095D02*
X153300180Y-108553285D01*
X153776371Y-108600904D01*
X153728752Y-108553285D01*
X153681133Y-108458047D01*
X153681133Y-108219952D01*
X153728752Y-108124714D01*
X153776371Y-108077095D01*
X153871609Y-108029476D01*
X154109704Y-108029476D01*
X154204942Y-108077095D01*
X154252561Y-108124714D01*
X154300180Y-108219952D01*
X154300180Y-108458047D01*
X154252561Y-108553285D01*
X154204942Y-108600904D01*
X188661380Y-74040904D02*
X189470904Y-74040904D01*
X189566142Y-73993285D01*
X189613761Y-73945666D01*
X189661380Y-73850428D01*
X189661380Y-73659952D01*
X189613761Y-73564714D01*
X189566142Y-73517095D01*
X189470904Y-73469476D01*
X188661380Y-73469476D01*
X188661380Y-72564714D02*
X188661380Y-72755190D01*
X188709000Y-72850428D01*
X188756619Y-72898047D01*
X188899476Y-72993285D01*
X189089952Y-73040904D01*
X189470904Y-73040904D01*
X189566142Y-72993285D01*
X189613761Y-72945666D01*
X189661380Y-72850428D01*
X189661380Y-72659952D01*
X189613761Y-72564714D01*
X189566142Y-72517095D01*
X189470904Y-72469476D01*
X189232809Y-72469476D01*
X189137571Y-72517095D01*
X189089952Y-72564714D01*
X189042333Y-72659952D01*
X189042333Y-72850428D01*
X189089952Y-72945666D01*
X189137571Y-72993285D01*
X189232809Y-73040904D01*
X127751095Y-85563380D02*
X127751095Y-86372904D01*
X127798714Y-86468142D01*
X127846333Y-86515761D01*
X127941571Y-86563380D01*
X128132047Y-86563380D01*
X128227285Y-86515761D01*
X128274904Y-86468142D01*
X128322523Y-86372904D01*
X128322523Y-85563380D01*
X128846333Y-86563380D02*
X129036809Y-86563380D01*
X129132047Y-86515761D01*
X129179666Y-86468142D01*
X129274904Y-86325285D01*
X129322523Y-86134809D01*
X129322523Y-85753857D01*
X129274904Y-85658619D01*
X129227285Y-85611000D01*
X129132047Y-85563380D01*
X128941571Y-85563380D01*
X128846333Y-85611000D01*
X128798714Y-85658619D01*
X128751095Y-85753857D01*
X128751095Y-85991952D01*
X128798714Y-86087190D01*
X128846333Y-86134809D01*
X128941571Y-86182428D01*
X129132047Y-86182428D01*
X129227285Y-86134809D01*
X129274904Y-86087190D01*
X129322523Y-85991952D01*
X123729904Y-76922380D02*
X123729904Y-77731904D01*
X123777523Y-77827142D01*
X123825142Y-77874761D01*
X123920380Y-77922380D01*
X124110857Y-77922380D01*
X124206095Y-77874761D01*
X124253714Y-77827142D01*
X124301333Y-77731904D01*
X124301333Y-76922380D01*
X125301333Y-77922380D02*
X124729904Y-77922380D01*
X125015619Y-77922380D02*
X125015619Y-76922380D01*
X124920380Y-77065238D01*
X124825142Y-77160476D01*
X124729904Y-77208095D01*
X126253714Y-77922380D02*
X125682285Y-77922380D01*
X125968000Y-77922380D02*
X125968000Y-76922380D01*
X125872761Y-77065238D01*
X125777523Y-77160476D01*
X125682285Y-77208095D01*
X137953904Y-61576380D02*
X137953904Y-62385904D01*
X138001523Y-62481142D01*
X138049142Y-62528761D01*
X138144380Y-62576380D01*
X138334857Y-62576380D01*
X138430095Y-62528761D01*
X138477714Y-62481142D01*
X138525333Y-62385904D01*
X138525333Y-61576380D01*
X139525333Y-62576380D02*
X138953904Y-62576380D01*
X139239619Y-62576380D02*
X139239619Y-61576380D01*
X139144380Y-61719238D01*
X139049142Y-61814476D01*
X138953904Y-61862095D01*
X140144380Y-61576380D02*
X140239619Y-61576380D01*
X140334857Y-61624000D01*
X140382476Y-61671619D01*
X140430095Y-61766857D01*
X140477714Y-61957333D01*
X140477714Y-62195428D01*
X140430095Y-62385904D01*
X140382476Y-62481142D01*
X140334857Y-62528761D01*
X140239619Y-62576380D01*
X140144380Y-62576380D01*
X140049142Y-62528761D01*
X140001523Y-62481142D01*
X139953904Y-62385904D01*
X139906285Y-62195428D01*
X139906285Y-61957333D01*
X139953904Y-61766857D01*
X140001523Y-61671619D01*
X140049142Y-61624000D01*
X140144380Y-61576380D01*
X159863190Y-96869190D02*
X160339380Y-96869190D01*
X159339380Y-97202523D02*
X159863190Y-96869190D01*
X159339380Y-96535857D01*
X160339380Y-95678714D02*
X160339380Y-96250142D01*
X160339380Y-95964428D02*
X159339380Y-95964428D01*
X159482238Y-96059666D01*
X159577476Y-96154904D01*
X159625095Y-96250142D01*
X158771809Y-76300190D02*
X158771809Y-76776380D01*
X158438476Y-75776380D02*
X158771809Y-76300190D01*
X159105142Y-75776380D01*
X159390857Y-75871619D02*
X159438476Y-75824000D01*
X159533714Y-75776380D01*
X159771809Y-75776380D01*
X159867047Y-75824000D01*
X159914666Y-75871619D01*
X159962285Y-75966857D01*
X159962285Y-76062095D01*
X159914666Y-76204952D01*
X159343238Y-76776380D01*
X159962285Y-76776380D01*
X143637095Y-61428380D02*
X143637095Y-62237904D01*
X143684714Y-62333142D01*
X143732333Y-62380761D01*
X143827571Y-62428380D01*
X144018047Y-62428380D01*
X144113285Y-62380761D01*
X144160904Y-62333142D01*
X144208523Y-62237904D01*
X144208523Y-61428380D01*
X144589476Y-61428380D02*
X145256142Y-61428380D01*
X144827571Y-62428380D01*
X164711142Y-77921142D02*
X164663523Y-77968761D01*
X164520666Y-78016380D01*
X164425428Y-78016380D01*
X164282571Y-77968761D01*
X164187333Y-77873523D01*
X164139714Y-77778285D01*
X164092095Y-77587809D01*
X164092095Y-77444952D01*
X164139714Y-77254476D01*
X164187333Y-77159238D01*
X164282571Y-77064000D01*
X164425428Y-77016380D01*
X164520666Y-77016380D01*
X164663523Y-77064000D01*
X164711142Y-77111619D01*
X165663523Y-78016380D02*
X165092095Y-78016380D01*
X165377809Y-78016380D02*
X165377809Y-77016380D01*
X165282571Y-77159238D01*
X165187333Y-77254476D01*
X165092095Y-77302095D01*
X166282571Y-77016380D02*
X166377809Y-77016380D01*
X166473047Y-77064000D01*
X166520666Y-77111619D01*
X166568285Y-77206857D01*
X166615904Y-77397333D01*
X166615904Y-77635428D01*
X166568285Y-77825904D01*
X166520666Y-77921142D01*
X166473047Y-77968761D01*
X166377809Y-78016380D01*
X166282571Y-78016380D01*
X166187333Y-77968761D01*
X166139714Y-77921142D01*
X166092095Y-77825904D01*
X166044476Y-77635428D01*
X166044476Y-77397333D01*
X166092095Y-77206857D01*
X166139714Y-77111619D01*
X166187333Y-77064000D01*
X166282571Y-77016380D01*
X169935142Y-82430857D02*
X169982761Y-82478476D01*
X170030380Y-82621333D01*
X170030380Y-82716571D01*
X169982761Y-82859428D01*
X169887523Y-82954666D01*
X169792285Y-83002285D01*
X169601809Y-83049904D01*
X169458952Y-83049904D01*
X169268476Y-83002285D01*
X169173238Y-82954666D01*
X169078000Y-82859428D01*
X169030380Y-82716571D01*
X169030380Y-82621333D01*
X169078000Y-82478476D01*
X169125619Y-82430857D01*
X170030380Y-81478476D02*
X170030380Y-82049904D01*
X170030380Y-81764190D02*
X169030380Y-81764190D01*
X169173238Y-81859428D01*
X169268476Y-81954666D01*
X169316095Y-82049904D01*
X170030380Y-80526095D02*
X170030380Y-81097523D01*
X170030380Y-80811809D02*
X169030380Y-80811809D01*
X169173238Y-80907047D01*
X169268476Y-81002285D01*
X169316095Y-81097523D01*
X164666094Y-83664379D02*
X164666094Y-84473903D01*
X164713713Y-84569141D01*
X164761332Y-84616760D01*
X164856570Y-84664379D01*
X165047046Y-84664379D01*
X165142284Y-84616760D01*
X165189903Y-84569141D01*
X165237522Y-84473903D01*
X165237522Y-83664379D01*
X165666094Y-83759618D02*
X165713713Y-83711999D01*
X165808951Y-83664379D01*
X166047046Y-83664379D01*
X166142284Y-83711999D01*
X166189903Y-83759618D01*
X166237522Y-83854856D01*
X166237522Y-83950094D01*
X166189903Y-84092951D01*
X165618475Y-84664379D01*
X166237522Y-84664379D01*
X173315333Y-91256142D02*
X173267714Y-91303761D01*
X173124857Y-91351380D01*
X173029619Y-91351380D01*
X172886761Y-91303761D01*
X172791523Y-91208523D01*
X172743904Y-91113285D01*
X172696285Y-90922809D01*
X172696285Y-90779952D01*
X172743904Y-90589476D01*
X172791523Y-90494238D01*
X172886761Y-90399000D01*
X173029619Y-90351380D01*
X173124857Y-90351380D01*
X173267714Y-90399000D01*
X173315333Y-90446619D01*
X174267714Y-91351380D02*
X173696285Y-91351380D01*
X173982000Y-91351380D02*
X173982000Y-90351380D01*
X173886761Y-90494238D01*
X173791523Y-90589476D01*
X173696285Y-90637095D01*
X160869333Y-92592142D02*
X160821714Y-92639761D01*
X160678857Y-92687380D01*
X160583619Y-92687380D01*
X160440761Y-92639761D01*
X160345523Y-92544523D01*
X160297904Y-92449285D01*
X160250285Y-92258809D01*
X160250285Y-92115952D01*
X160297904Y-91925476D01*
X160345523Y-91830238D01*
X160440761Y-91735000D01*
X160583619Y-91687380D01*
X160678857Y-91687380D01*
X160821714Y-91735000D01*
X160869333Y-91782619D01*
X161250285Y-91782619D02*
X161297904Y-91735000D01*
X161393142Y-91687380D01*
X161631238Y-91687380D01*
X161726476Y-91735000D01*
X161774095Y-91782619D01*
X161821714Y-91877857D01*
X161821714Y-91973095D01*
X161774095Y-92115952D01*
X161202666Y-92687380D01*
X161821714Y-92687380D01*
X173315333Y-100400142D02*
X173267714Y-100447761D01*
X173124857Y-100495380D01*
X173029619Y-100495380D01*
X172886761Y-100447761D01*
X172791523Y-100352523D01*
X172743904Y-100257285D01*
X172696285Y-100066809D01*
X172696285Y-99923952D01*
X172743904Y-99733476D01*
X172791523Y-99638238D01*
X172886761Y-99543000D01*
X173029619Y-99495380D01*
X173124857Y-99495380D01*
X173267714Y-99543000D01*
X173315333Y-99590619D01*
X173648666Y-99495380D02*
X174267714Y-99495380D01*
X173934380Y-99876333D01*
X174077238Y-99876333D01*
X174172476Y-99923952D01*
X174220095Y-99971571D01*
X174267714Y-100066809D01*
X174267714Y-100304904D01*
X174220095Y-100400142D01*
X174172476Y-100447761D01*
X174077238Y-100495380D01*
X173791523Y-100495380D01*
X173696285Y-100447761D01*
X173648666Y-100400142D01*
X163458142Y-104306666D02*
X163505761Y-104354285D01*
X163553380Y-104497142D01*
X163553380Y-104592380D01*
X163505761Y-104735238D01*
X163410523Y-104830476D01*
X163315285Y-104878095D01*
X163124809Y-104925714D01*
X162981952Y-104925714D01*
X162791476Y-104878095D01*
X162696238Y-104830476D01*
X162601000Y-104735238D01*
X162553380Y-104592380D01*
X162553380Y-104497142D01*
X162601000Y-104354285D01*
X162648619Y-104306666D01*
X162886714Y-103449523D02*
X163553380Y-103449523D01*
X162505761Y-103687619D02*
X163220047Y-103925714D01*
X163220047Y-103306666D01*
X156170333Y-87446142D02*
X156122714Y-87493761D01*
X155979857Y-87541380D01*
X155884619Y-87541380D01*
X155741761Y-87493761D01*
X155646523Y-87398523D01*
X155598904Y-87303285D01*
X155551285Y-87112809D01*
X155551285Y-86969952D01*
X155598904Y-86779476D01*
X155646523Y-86684238D01*
X155741761Y-86589000D01*
X155884619Y-86541380D01*
X155979857Y-86541380D01*
X156122714Y-86589000D01*
X156170333Y-86636619D01*
X157075095Y-86541380D02*
X156598904Y-86541380D01*
X156551285Y-87017571D01*
X156598904Y-86969952D01*
X156694142Y-86922333D01*
X156932238Y-86922333D01*
X157027476Y-86969952D01*
X157075095Y-87017571D01*
X157122714Y-87112809D01*
X157122714Y-87350904D01*
X157075095Y-87446142D01*
X157027476Y-87493761D01*
X156932238Y-87541380D01*
X156694142Y-87541380D01*
X156598904Y-87493761D01*
X156551285Y-87446142D01*
X148169333Y-90273142D02*
X148121714Y-90320761D01*
X147978857Y-90368380D01*
X147883619Y-90368380D01*
X147740761Y-90320761D01*
X147645523Y-90225523D01*
X147597904Y-90130285D01*
X147550285Y-89939809D01*
X147550285Y-89796952D01*
X147597904Y-89606476D01*
X147645523Y-89511238D01*
X147740761Y-89416000D01*
X147883619Y-89368380D01*
X147978857Y-89368380D01*
X148121714Y-89416000D01*
X148169333Y-89463619D01*
X149026476Y-89368380D02*
X148836000Y-89368380D01*
X148740761Y-89416000D01*
X148693142Y-89463619D01*
X148597904Y-89606476D01*
X148550285Y-89796952D01*
X148550285Y-90177904D01*
X148597904Y-90273142D01*
X148645523Y-90320761D01*
X148740761Y-90368380D01*
X148931238Y-90368380D01*
X149026476Y-90320761D01*
X149074095Y-90273142D01*
X149121714Y-90177904D01*
X149121714Y-89939809D01*
X149074095Y-89844571D01*
X149026476Y-89796952D01*
X148931238Y-89749333D01*
X148740761Y-89749333D01*
X148645523Y-89796952D01*
X148597904Y-89844571D01*
X148550285Y-89939809D01*
X153503333Y-104497142D02*
X153455714Y-104544761D01*
X153312857Y-104592380D01*
X153217619Y-104592380D01*
X153074761Y-104544761D01*
X152979523Y-104449523D01*
X152931904Y-104354285D01*
X152884285Y-104163809D01*
X152884285Y-104020952D01*
X152931904Y-103830476D01*
X152979523Y-103735238D01*
X153074761Y-103640000D01*
X153217619Y-103592380D01*
X153312857Y-103592380D01*
X153455714Y-103640000D01*
X153503333Y-103687619D01*
X153836666Y-103592380D02*
X154503333Y-103592380D01*
X154074761Y-104592380D01*
X146645333Y-79859142D02*
X146597714Y-79906761D01*
X146454857Y-79954380D01*
X146359619Y-79954380D01*
X146216761Y-79906761D01*
X146121523Y-79811523D01*
X146073904Y-79716285D01*
X146026285Y-79525809D01*
X146026285Y-79382952D01*
X146073904Y-79192476D01*
X146121523Y-79097238D01*
X146216761Y-79002000D01*
X146359619Y-78954380D01*
X146454857Y-78954380D01*
X146597714Y-79002000D01*
X146645333Y-79049619D01*
X147216761Y-79382952D02*
X147121523Y-79335333D01*
X147073904Y-79287714D01*
X147026285Y-79192476D01*
X147026285Y-79144857D01*
X147073904Y-79049619D01*
X147121523Y-79002000D01*
X147216761Y-78954380D01*
X147407238Y-78954380D01*
X147502476Y-79002000D01*
X147550095Y-79049619D01*
X147597714Y-79144857D01*
X147597714Y-79192476D01*
X147550095Y-79287714D01*
X147502476Y-79335333D01*
X147407238Y-79382952D01*
X147216761Y-79382952D01*
X147121523Y-79430571D01*
X147073904Y-79478190D01*
X147026285Y-79573428D01*
X147026285Y-79763904D01*
X147073904Y-79859142D01*
X147121523Y-79906761D01*
X147216761Y-79954380D01*
X147407238Y-79954380D01*
X147502476Y-79906761D01*
X147550095Y-79859142D01*
X147597714Y-79763904D01*
X147597714Y-79573428D01*
X147550095Y-79478190D01*
X147502476Y-79430571D01*
X147407238Y-79382952D01*
X150565142Y-75604666D02*
X150612761Y-75652285D01*
X150660380Y-75795142D01*
X150660380Y-75890380D01*
X150612761Y-76033238D01*
X150517523Y-76128476D01*
X150422285Y-76176095D01*
X150231809Y-76223714D01*
X150088952Y-76223714D01*
X149898476Y-76176095D01*
X149803238Y-76128476D01*
X149708000Y-76033238D01*
X149660380Y-75890380D01*
X149660380Y-75795142D01*
X149708000Y-75652285D01*
X149755619Y-75604666D01*
X150660380Y-75128476D02*
X150660380Y-74938000D01*
X150612761Y-74842761D01*
X150565142Y-74795142D01*
X150422285Y-74699904D01*
X150231809Y-74652285D01*
X149850857Y-74652285D01*
X149755619Y-74699904D01*
X149708000Y-74747523D01*
X149660380Y-74842761D01*
X149660380Y-75033238D01*
X149708000Y-75128476D01*
X149755619Y-75176095D01*
X149850857Y-75223714D01*
X150088952Y-75223714D01*
X150184190Y-75176095D01*
X150231809Y-75128476D01*
X150279428Y-75033238D01*
X150279428Y-74842761D01*
X150231809Y-74747523D01*
X150184190Y-74699904D01*
X150088952Y-74652285D01*
X166059142Y-74683857D02*
X166106761Y-74731476D01*
X166154380Y-74874333D01*
X166154380Y-74969571D01*
X166106761Y-75112428D01*
X166011523Y-75207666D01*
X165916285Y-75255285D01*
X165725809Y-75302904D01*
X165582952Y-75302904D01*
X165392476Y-75255285D01*
X165297238Y-75207666D01*
X165202000Y-75112428D01*
X165154380Y-74969571D01*
X165154380Y-74874333D01*
X165202000Y-74731476D01*
X165249619Y-74683857D01*
X166154380Y-73731476D02*
X166154380Y-74302904D01*
X166154380Y-74017190D02*
X165154380Y-74017190D01*
X165297238Y-74112428D01*
X165392476Y-74207666D01*
X165440095Y-74302904D01*
X165249619Y-73350523D02*
X165202000Y-73302904D01*
X165154380Y-73207666D01*
X165154380Y-72969571D01*
X165202000Y-72874333D01*
X165249619Y-72826714D01*
X165344857Y-72779095D01*
X165440095Y-72779095D01*
X165582952Y-72826714D01*
X166154380Y-73398142D01*
X166154380Y-72779095D01*
X149852142Y-71444142D02*
X149804523Y-71491761D01*
X149661666Y-71539380D01*
X149566428Y-71539380D01*
X149423571Y-71491761D01*
X149328333Y-71396523D01*
X149280714Y-71301285D01*
X149233095Y-71110809D01*
X149233095Y-70967952D01*
X149280714Y-70777476D01*
X149328333Y-70682238D01*
X149423571Y-70587000D01*
X149566428Y-70539380D01*
X149661666Y-70539380D01*
X149804523Y-70587000D01*
X149852142Y-70634619D01*
X150804523Y-71539380D02*
X150233095Y-71539380D01*
X150518809Y-71539380D02*
X150518809Y-70539380D01*
X150423571Y-70682238D01*
X150328333Y-70777476D01*
X150233095Y-70825095D01*
X151137857Y-70539380D02*
X151756904Y-70539380D01*
X151423571Y-70920333D01*
X151566428Y-70920333D01*
X151661666Y-70967952D01*
X151709285Y-71015571D01*
X151756904Y-71110809D01*
X151756904Y-71348904D01*
X151709285Y-71444142D01*
X151661666Y-71491761D01*
X151566428Y-71539380D01*
X151280714Y-71539380D01*
X151185476Y-71491761D01*
X151137857Y-71444142D01*
X156473142Y-85097857D02*
X156520761Y-85145476D01*
X156568380Y-85288333D01*
X156568380Y-85383571D01*
X156520761Y-85526428D01*
X156425523Y-85621666D01*
X156330285Y-85669285D01*
X156139809Y-85716904D01*
X155996952Y-85716904D01*
X155806476Y-85669285D01*
X155711238Y-85621666D01*
X155616000Y-85526428D01*
X155568380Y-85383571D01*
X155568380Y-85288333D01*
X155616000Y-85145476D01*
X155663619Y-85097857D01*
X156568380Y-84145476D02*
X156568380Y-84716904D01*
X156568380Y-84431190D02*
X155568380Y-84431190D01*
X155711238Y-84526428D01*
X155806476Y-84621666D01*
X155854095Y-84716904D01*
X155901714Y-83288333D02*
X156568380Y-83288333D01*
X155520761Y-83526428D02*
X156235047Y-83764523D01*
X156235047Y-83145476D01*
X167505142Y-112371142D02*
X167457523Y-112418761D01*
X167314666Y-112466380D01*
X167219428Y-112466380D01*
X167076571Y-112418761D01*
X166981333Y-112323523D01*
X166933714Y-112228285D01*
X166886095Y-112037809D01*
X166886095Y-111894952D01*
X166933714Y-111704476D01*
X166981333Y-111609238D01*
X167076571Y-111514000D01*
X167219428Y-111466380D01*
X167314666Y-111466380D01*
X167457523Y-111514000D01*
X167505142Y-111561619D01*
X168457523Y-112466380D02*
X167886095Y-112466380D01*
X168171809Y-112466380D02*
X168171809Y-111466380D01*
X168076571Y-111609238D01*
X167981333Y-111704476D01*
X167886095Y-111752095D01*
X169362285Y-111466380D02*
X168886095Y-111466380D01*
X168838476Y-111942571D01*
X168886095Y-111894952D01*
X168981333Y-111847333D01*
X169219428Y-111847333D01*
X169314666Y-111894952D01*
X169362285Y-111942571D01*
X169409904Y-112037809D01*
X169409904Y-112275904D01*
X169362285Y-112371142D01*
X169314666Y-112418761D01*
X169219428Y-112466380D01*
X168981333Y-112466380D01*
X168886095Y-112418761D01*
X168838476Y-112371142D01*
X167505142Y-113895142D02*
X167457523Y-113942761D01*
X167314666Y-113990380D01*
X167219428Y-113990380D01*
X167076571Y-113942761D01*
X166981333Y-113847523D01*
X166933714Y-113752285D01*
X166886095Y-113561809D01*
X166886095Y-113418952D01*
X166933714Y-113228476D01*
X166981333Y-113133238D01*
X167076571Y-113038000D01*
X167219428Y-112990380D01*
X167314666Y-112990380D01*
X167457523Y-113038000D01*
X167505142Y-113085619D01*
X168457523Y-113990380D02*
X167886095Y-113990380D01*
X168171809Y-113990380D02*
X168171809Y-112990380D01*
X168076571Y-113133238D01*
X167981333Y-113228476D01*
X167886095Y-113276095D01*
X169314666Y-112990380D02*
X169124190Y-112990380D01*
X169028952Y-113038000D01*
X168981333Y-113085619D01*
X168886095Y-113228476D01*
X168838476Y-113418952D01*
X168838476Y-113799904D01*
X168886095Y-113895142D01*
X168933714Y-113942761D01*
X169028952Y-113990380D01*
X169219428Y-113990380D01*
X169314666Y-113942761D01*
X169362285Y-113895142D01*
X169409904Y-113799904D01*
X169409904Y-113561809D01*
X169362285Y-113466571D01*
X169314666Y-113418952D01*
X169219428Y-113371333D01*
X169028952Y-113371333D01*
X168933714Y-113418952D01*
X168886095Y-113466571D01*
X168838476Y-113561809D01*
X161901142Y-123070857D02*
X161948761Y-123118476D01*
X161996380Y-123261333D01*
X161996380Y-123356571D01*
X161948761Y-123499428D01*
X161853523Y-123594666D01*
X161758285Y-123642285D01*
X161567809Y-123689904D01*
X161424952Y-123689904D01*
X161234476Y-123642285D01*
X161139238Y-123594666D01*
X161044000Y-123499428D01*
X160996380Y-123356571D01*
X160996380Y-123261333D01*
X161044000Y-123118476D01*
X161091619Y-123070857D01*
X161996380Y-122118476D02*
X161996380Y-122689904D01*
X161996380Y-122404190D02*
X160996380Y-122404190D01*
X161139238Y-122499428D01*
X161234476Y-122594666D01*
X161282095Y-122689904D01*
X160996380Y-121785142D02*
X160996380Y-121118476D01*
X161996380Y-121547047D01*
X161155142Y-116943142D02*
X161107523Y-116990761D01*
X160964666Y-117038380D01*
X160869428Y-117038380D01*
X160726571Y-116990761D01*
X160631333Y-116895523D01*
X160583714Y-116800285D01*
X160536095Y-116609809D01*
X160536095Y-116466952D01*
X160583714Y-116276476D01*
X160631333Y-116181238D01*
X160726571Y-116086000D01*
X160869428Y-116038380D01*
X160964666Y-116038380D01*
X161107523Y-116086000D01*
X161155142Y-116133619D01*
X162107523Y-117038380D02*
X161536095Y-117038380D01*
X161821809Y-117038380D02*
X161821809Y-116038380D01*
X161726571Y-116181238D01*
X161631333Y-116276476D01*
X161536095Y-116324095D01*
X162678952Y-116466952D02*
X162583714Y-116419333D01*
X162536095Y-116371714D01*
X162488476Y-116276476D01*
X162488476Y-116228857D01*
X162536095Y-116133619D01*
X162583714Y-116086000D01*
X162678952Y-116038380D01*
X162869428Y-116038380D01*
X162964666Y-116086000D01*
X163012285Y-116133619D01*
X163059904Y-116228857D01*
X163059904Y-116276476D01*
X163012285Y-116371714D01*
X162964666Y-116419333D01*
X162869428Y-116466952D01*
X162678952Y-116466952D01*
X162583714Y-116514571D01*
X162536095Y-116562190D01*
X162488476Y-116657428D01*
X162488476Y-116847904D01*
X162536095Y-116943142D01*
X162583714Y-116990761D01*
X162678952Y-117038380D01*
X162869428Y-117038380D01*
X162964666Y-116990761D01*
X163012285Y-116943142D01*
X163059904Y-116847904D01*
X163059904Y-116657428D01*
X163012285Y-116562190D01*
X162964666Y-116514571D01*
X162869428Y-116466952D01*
X156313142Y-123070857D02*
X156360761Y-123118476D01*
X156408380Y-123261333D01*
X156408380Y-123356571D01*
X156360761Y-123499428D01*
X156265523Y-123594666D01*
X156170285Y-123642285D01*
X155979809Y-123689904D01*
X155836952Y-123689904D01*
X155646476Y-123642285D01*
X155551238Y-123594666D01*
X155456000Y-123499428D01*
X155408380Y-123356571D01*
X155408380Y-123261333D01*
X155456000Y-123118476D01*
X155503619Y-123070857D01*
X156408380Y-122118476D02*
X156408380Y-122689904D01*
X156408380Y-122404190D02*
X155408380Y-122404190D01*
X155551238Y-122499428D01*
X155646476Y-122594666D01*
X155694095Y-122689904D01*
X156408380Y-121642285D02*
X156408380Y-121451809D01*
X156360761Y-121356571D01*
X156313142Y-121308952D01*
X156170285Y-121213714D01*
X155979809Y-121166095D01*
X155598857Y-121166095D01*
X155503619Y-121213714D01*
X155456000Y-121261333D01*
X155408380Y-121356571D01*
X155408380Y-121547047D01*
X155456000Y-121642285D01*
X155503619Y-121689904D01*
X155598857Y-121737523D01*
X155836952Y-121737523D01*
X155932190Y-121689904D01*
X155979809Y-121642285D01*
X156027428Y-121547047D01*
X156027428Y-121356571D01*
X155979809Y-121261333D01*
X155932190Y-121213714D01*
X155836952Y-121166095D01*
X148709142Y-113387142D02*
X148661523Y-113434761D01*
X148518666Y-113482380D01*
X148423428Y-113482380D01*
X148280571Y-113434761D01*
X148185333Y-113339523D01*
X148137714Y-113244285D01*
X148090095Y-113053809D01*
X148090095Y-112910952D01*
X148137714Y-112720476D01*
X148185333Y-112625238D01*
X148280571Y-112530000D01*
X148423428Y-112482380D01*
X148518666Y-112482380D01*
X148661523Y-112530000D01*
X148709142Y-112577619D01*
X149090095Y-112577619D02*
X149137714Y-112530000D01*
X149232952Y-112482380D01*
X149471047Y-112482380D01*
X149566285Y-112530000D01*
X149613904Y-112577619D01*
X149661523Y-112672857D01*
X149661523Y-112768095D01*
X149613904Y-112910952D01*
X149042476Y-113482380D01*
X149661523Y-113482380D01*
X150280571Y-112482380D02*
X150375809Y-112482380D01*
X150471047Y-112530000D01*
X150518666Y-112577619D01*
X150566285Y-112672857D01*
X150613904Y-112863333D01*
X150613904Y-113101428D01*
X150566285Y-113291904D01*
X150518666Y-113387142D01*
X150471047Y-113434761D01*
X150375809Y-113482380D01*
X150280571Y-113482380D01*
X150185333Y-113434761D01*
X150137714Y-113387142D01*
X150090095Y-113291904D01*
X150042476Y-113101428D01*
X150042476Y-112863333D01*
X150090095Y-112672857D01*
X150137714Y-112577619D01*
X150185333Y-112530000D01*
X150280571Y-112482380D01*
X148201142Y-106529142D02*
X148153523Y-106576761D01*
X148010666Y-106624380D01*
X147915428Y-106624380D01*
X147772571Y-106576761D01*
X147677333Y-106481523D01*
X147629714Y-106386285D01*
X147582095Y-106195809D01*
X147582095Y-106052952D01*
X147629714Y-105862476D01*
X147677333Y-105767238D01*
X147772571Y-105672000D01*
X147915428Y-105624380D01*
X148010666Y-105624380D01*
X148153523Y-105672000D01*
X148201142Y-105719619D01*
X148582095Y-105719619D02*
X148629714Y-105672000D01*
X148724952Y-105624380D01*
X148963047Y-105624380D01*
X149058285Y-105672000D01*
X149105904Y-105719619D01*
X149153523Y-105814857D01*
X149153523Y-105910095D01*
X149105904Y-106052952D01*
X148534476Y-106624380D01*
X149153523Y-106624380D01*
X150105904Y-106624380D02*
X149534476Y-106624380D01*
X149820190Y-106624380D02*
X149820190Y-105624380D01*
X149724952Y-105767238D01*
X149629714Y-105862476D01*
X149534476Y-105910095D01*
X174601142Y-70619857D02*
X174648761Y-70667476D01*
X174696380Y-70810333D01*
X174696380Y-70905571D01*
X174648761Y-71048428D01*
X174553523Y-71143666D01*
X174458285Y-71191285D01*
X174267809Y-71238904D01*
X174124952Y-71238904D01*
X173934476Y-71191285D01*
X173839238Y-71143666D01*
X173744000Y-71048428D01*
X173696380Y-70905571D01*
X173696380Y-70810333D01*
X173744000Y-70667476D01*
X173791619Y-70619857D01*
X173791619Y-70238904D02*
X173744000Y-70191285D01*
X173696380Y-70096047D01*
X173696380Y-69857952D01*
X173744000Y-69762714D01*
X173791619Y-69715095D01*
X173886857Y-69667476D01*
X173982095Y-69667476D01*
X174124952Y-69715095D01*
X174696380Y-70286523D01*
X174696380Y-69667476D01*
X173791619Y-69286523D02*
X173744000Y-69238904D01*
X173696380Y-69143666D01*
X173696380Y-68905571D01*
X173744000Y-68810333D01*
X173791619Y-68762714D01*
X173886857Y-68715095D01*
X173982095Y-68715095D01*
X174124952Y-68762714D01*
X174696380Y-69334142D01*
X174696380Y-68715095D01*
X185666142Y-78368142D02*
X185618523Y-78415761D01*
X185475666Y-78463380D01*
X185380428Y-78463380D01*
X185237571Y-78415761D01*
X185142333Y-78320523D01*
X185094714Y-78225285D01*
X185047095Y-78034809D01*
X185047095Y-77891952D01*
X185094714Y-77701476D01*
X185142333Y-77606238D01*
X185237571Y-77511000D01*
X185380428Y-77463380D01*
X185475666Y-77463380D01*
X185618523Y-77511000D01*
X185666142Y-77558619D01*
X186047095Y-77558619D02*
X186094714Y-77511000D01*
X186189952Y-77463380D01*
X186428047Y-77463380D01*
X186523285Y-77511000D01*
X186570904Y-77558619D01*
X186618523Y-77653857D01*
X186618523Y-77749095D01*
X186570904Y-77891952D01*
X185999476Y-78463380D01*
X186618523Y-78463380D01*
X186951857Y-77463380D02*
X187570904Y-77463380D01*
X187237571Y-77844333D01*
X187380428Y-77844333D01*
X187475666Y-77891952D01*
X187523285Y-77939571D01*
X187570904Y-78034809D01*
X187570904Y-78272904D01*
X187523285Y-78368142D01*
X187475666Y-78415761D01*
X187380428Y-78463380D01*
X187094714Y-78463380D01*
X186999476Y-78415761D01*
X186951857Y-78368142D01*
X135755142Y-55475142D02*
X135707523Y-55522761D01*
X135564666Y-55570380D01*
X135469428Y-55570380D01*
X135326571Y-55522761D01*
X135231333Y-55427523D01*
X135183714Y-55332285D01*
X135136095Y-55141809D01*
X135136095Y-54998952D01*
X135183714Y-54808476D01*
X135231333Y-54713238D01*
X135326571Y-54618000D01*
X135469428Y-54570380D01*
X135564666Y-54570380D01*
X135707523Y-54618000D01*
X135755142Y-54665619D01*
X136136095Y-54665619D02*
X136183714Y-54618000D01*
X136278952Y-54570380D01*
X136517047Y-54570380D01*
X136612285Y-54618000D01*
X136659904Y-54665619D01*
X136707523Y-54760857D01*
X136707523Y-54856095D01*
X136659904Y-54998952D01*
X136088476Y-55570380D01*
X136707523Y-55570380D01*
X137564666Y-54903714D02*
X137564666Y-55570380D01*
X137326571Y-54522761D02*
X137088476Y-55237047D01*
X137707523Y-55237047D01*
X134690142Y-74429857D02*
X134737761Y-74477476D01*
X134785380Y-74620333D01*
X134785380Y-74715571D01*
X134737761Y-74858428D01*
X134642523Y-74953666D01*
X134547285Y-75001285D01*
X134356809Y-75048904D01*
X134213952Y-75048904D01*
X134023476Y-75001285D01*
X133928238Y-74953666D01*
X133833000Y-74858428D01*
X133785380Y-74715571D01*
X133785380Y-74620333D01*
X133833000Y-74477476D01*
X133880619Y-74429857D01*
X133880619Y-74048904D02*
X133833000Y-74001285D01*
X133785380Y-73906047D01*
X133785380Y-73667952D01*
X133833000Y-73572714D01*
X133880619Y-73525095D01*
X133975857Y-73477476D01*
X134071095Y-73477476D01*
X134213952Y-73525095D01*
X134785380Y-74096523D01*
X134785380Y-73477476D01*
X133785380Y-72572714D02*
X133785380Y-73048904D01*
X134261571Y-73096523D01*
X134213952Y-73048904D01*
X134166333Y-72953666D01*
X134166333Y-72715571D01*
X134213952Y-72620333D01*
X134261571Y-72572714D01*
X134356809Y-72525095D01*
X134594904Y-72525095D01*
X134690142Y-72572714D01*
X134737761Y-72620333D01*
X134785380Y-72715571D01*
X134785380Y-72953666D01*
X134737761Y-73048904D01*
X134690142Y-73096523D01*
X135501142Y-71477142D02*
X135453523Y-71524761D01*
X135310666Y-71572380D01*
X135215428Y-71572380D01*
X135072571Y-71524761D01*
X134977333Y-71429523D01*
X134929714Y-71334285D01*
X134882095Y-71143809D01*
X134882095Y-71000952D01*
X134929714Y-70810476D01*
X134977333Y-70715238D01*
X135072571Y-70620000D01*
X135215428Y-70572380D01*
X135310666Y-70572380D01*
X135453523Y-70620000D01*
X135501142Y-70667619D01*
X135882095Y-70667619D02*
X135929714Y-70620000D01*
X136024952Y-70572380D01*
X136263047Y-70572380D01*
X136358285Y-70620000D01*
X136405904Y-70667619D01*
X136453523Y-70762857D01*
X136453523Y-70858095D01*
X136405904Y-71000952D01*
X135834476Y-71572380D01*
X136453523Y-71572380D01*
X137310666Y-70572380D02*
X137120190Y-70572380D01*
X137024952Y-70620000D01*
X136977333Y-70667619D01*
X136882095Y-70810476D01*
X136834476Y-71000952D01*
X136834476Y-71381904D01*
X136882095Y-71477142D01*
X136929714Y-71524761D01*
X137024952Y-71572380D01*
X137215428Y-71572380D01*
X137310666Y-71524761D01*
X137358285Y-71477142D01*
X137405904Y-71381904D01*
X137405904Y-71143809D01*
X137358285Y-71048571D01*
X137310666Y-71000952D01*
X137215428Y-70953333D01*
X137024952Y-70953333D01*
X136929714Y-71000952D01*
X136882095Y-71048571D01*
X136834476Y-71143809D01*
X142597142Y-84716857D02*
X142644761Y-84764476D01*
X142692380Y-84907333D01*
X142692380Y-85002571D01*
X142644761Y-85145428D01*
X142549523Y-85240666D01*
X142454285Y-85288285D01*
X142263809Y-85335904D01*
X142120952Y-85335904D01*
X141930476Y-85288285D01*
X141835238Y-85240666D01*
X141740000Y-85145428D01*
X141692380Y-85002571D01*
X141692380Y-84907333D01*
X141740000Y-84764476D01*
X141787619Y-84716857D01*
X141787619Y-84335904D02*
X141740000Y-84288285D01*
X141692380Y-84193047D01*
X141692380Y-83954952D01*
X141740000Y-83859714D01*
X141787619Y-83812095D01*
X141882857Y-83764476D01*
X141978095Y-83764476D01*
X142120952Y-83812095D01*
X142692380Y-84383523D01*
X142692380Y-83764476D01*
X141692380Y-83431142D02*
X141692380Y-82764476D01*
X142692380Y-83193047D01*
X141073142Y-84716857D02*
X141120761Y-84764476D01*
X141168380Y-84907333D01*
X141168380Y-85002571D01*
X141120761Y-85145428D01*
X141025523Y-85240666D01*
X140930285Y-85288285D01*
X140739809Y-85335904D01*
X140596952Y-85335904D01*
X140406476Y-85288285D01*
X140311238Y-85240666D01*
X140216000Y-85145428D01*
X140168380Y-85002571D01*
X140168380Y-84907333D01*
X140216000Y-84764476D01*
X140263619Y-84716857D01*
X140263619Y-84335904D02*
X140216000Y-84288285D01*
X140168380Y-84193047D01*
X140168380Y-83954952D01*
X140216000Y-83859714D01*
X140263619Y-83812095D01*
X140358857Y-83764476D01*
X140454095Y-83764476D01*
X140596952Y-83812095D01*
X141168380Y-84383523D01*
X141168380Y-83764476D01*
X140596952Y-83193047D02*
X140549333Y-83288285D01*
X140501714Y-83335904D01*
X140406476Y-83383523D01*
X140358857Y-83383523D01*
X140263619Y-83335904D01*
X140216000Y-83288285D01*
X140168380Y-83193047D01*
X140168380Y-83002571D01*
X140216000Y-82907333D01*
X140263619Y-82859714D01*
X140358857Y-82812095D01*
X140406476Y-82812095D01*
X140501714Y-82859714D01*
X140549333Y-82907333D01*
X140596952Y-83002571D01*
X140596952Y-83193047D01*
X140644571Y-83288285D01*
X140692190Y-83335904D01*
X140787428Y-83383523D01*
X140977904Y-83383523D01*
X141073142Y-83335904D01*
X141120761Y-83288285D01*
X141168380Y-83193047D01*
X141168380Y-83002571D01*
X141120761Y-82907333D01*
X141073142Y-82859714D01*
X140977904Y-82812095D01*
X140787428Y-82812095D01*
X140692190Y-82859714D01*
X140644571Y-82907333D01*
X140596952Y-83002571D01*
X139549142Y-84716857D02*
X139596761Y-84764476D01*
X139644380Y-84907333D01*
X139644380Y-85002571D01*
X139596761Y-85145428D01*
X139501523Y-85240666D01*
X139406285Y-85288285D01*
X139215809Y-85335904D01*
X139072952Y-85335904D01*
X138882476Y-85288285D01*
X138787238Y-85240666D01*
X138692000Y-85145428D01*
X138644380Y-85002571D01*
X138644380Y-84907333D01*
X138692000Y-84764476D01*
X138739619Y-84716857D01*
X138739619Y-84335904D02*
X138692000Y-84288285D01*
X138644380Y-84193047D01*
X138644380Y-83954952D01*
X138692000Y-83859714D01*
X138739619Y-83812095D01*
X138834857Y-83764476D01*
X138930095Y-83764476D01*
X139072952Y-83812095D01*
X139644380Y-84383523D01*
X139644380Y-83764476D01*
X139644380Y-83288285D02*
X139644380Y-83097809D01*
X139596761Y-83002571D01*
X139549142Y-82954952D01*
X139406285Y-82859714D01*
X139215809Y-82812095D01*
X138834857Y-82812095D01*
X138739619Y-82859714D01*
X138692000Y-82907333D01*
X138644380Y-83002571D01*
X138644380Y-83193047D01*
X138692000Y-83288285D01*
X138739619Y-83335904D01*
X138834857Y-83383523D01*
X139072952Y-83383523D01*
X139168190Y-83335904D01*
X139215809Y-83288285D01*
X139263428Y-83193047D01*
X139263428Y-83002571D01*
X139215809Y-82907333D01*
X139168190Y-82859714D01*
X139072952Y-82812095D01*
X142597142Y-79890857D02*
X142644761Y-79938476D01*
X142692380Y-80081333D01*
X142692380Y-80176571D01*
X142644761Y-80319428D01*
X142549523Y-80414666D01*
X142454285Y-80462285D01*
X142263809Y-80509904D01*
X142120952Y-80509904D01*
X141930476Y-80462285D01*
X141835238Y-80414666D01*
X141740000Y-80319428D01*
X141692380Y-80176571D01*
X141692380Y-80081333D01*
X141740000Y-79938476D01*
X141787619Y-79890857D01*
X141692380Y-79557523D02*
X141692380Y-78938476D01*
X142073333Y-79271809D01*
X142073333Y-79128952D01*
X142120952Y-79033714D01*
X142168571Y-78986095D01*
X142263809Y-78938476D01*
X142501904Y-78938476D01*
X142597142Y-78986095D01*
X142644761Y-79033714D01*
X142692380Y-79128952D01*
X142692380Y-79414666D01*
X142644761Y-79509904D01*
X142597142Y-79557523D01*
X141692380Y-78319428D02*
X141692380Y-78224190D01*
X141740000Y-78128952D01*
X141787619Y-78081333D01*
X141882857Y-78033714D01*
X142073333Y-77986095D01*
X142311428Y-77986095D01*
X142501904Y-78033714D01*
X142597142Y-78081333D01*
X142644761Y-78128952D01*
X142692380Y-78224190D01*
X142692380Y-78319428D01*
X142644761Y-78414666D01*
X142597142Y-78462285D01*
X142501904Y-78509904D01*
X142311428Y-78557523D01*
X142073333Y-78557523D01*
X141882857Y-78509904D01*
X141787619Y-78462285D01*
X141740000Y-78414666D01*
X141692380Y-78319428D01*
X141073142Y-79890857D02*
X141120761Y-79938476D01*
X141168380Y-80081333D01*
X141168380Y-80176571D01*
X141120761Y-80319428D01*
X141025523Y-80414666D01*
X140930285Y-80462285D01*
X140739809Y-80509904D01*
X140596952Y-80509904D01*
X140406476Y-80462285D01*
X140311238Y-80414666D01*
X140216000Y-80319428D01*
X140168380Y-80176571D01*
X140168380Y-80081333D01*
X140216000Y-79938476D01*
X140263619Y-79890857D01*
X140168380Y-79557523D02*
X140168380Y-78938476D01*
X140549333Y-79271809D01*
X140549333Y-79128952D01*
X140596952Y-79033714D01*
X140644571Y-78986095D01*
X140739809Y-78938476D01*
X140977904Y-78938476D01*
X141073142Y-78986095D01*
X141120761Y-79033714D01*
X141168380Y-79128952D01*
X141168380Y-79414666D01*
X141120761Y-79509904D01*
X141073142Y-79557523D01*
X141168380Y-77986095D02*
X141168380Y-78557523D01*
X141168380Y-78271809D02*
X140168380Y-78271809D01*
X140311238Y-78367047D01*
X140406476Y-78462285D01*
X140454095Y-78557523D01*
X139549142Y-79890857D02*
X139596761Y-79938476D01*
X139644380Y-80081333D01*
X139644380Y-80176571D01*
X139596761Y-80319428D01*
X139501523Y-80414666D01*
X139406285Y-80462285D01*
X139215809Y-80509904D01*
X139072952Y-80509904D01*
X138882476Y-80462285D01*
X138787238Y-80414666D01*
X138692000Y-80319428D01*
X138644380Y-80176571D01*
X138644380Y-80081333D01*
X138692000Y-79938476D01*
X138739619Y-79890857D01*
X138644380Y-79557523D02*
X138644380Y-78938476D01*
X139025333Y-79271809D01*
X139025333Y-79128952D01*
X139072952Y-79033714D01*
X139120571Y-78986095D01*
X139215809Y-78938476D01*
X139453904Y-78938476D01*
X139549142Y-78986095D01*
X139596761Y-79033714D01*
X139644380Y-79128952D01*
X139644380Y-79414666D01*
X139596761Y-79509904D01*
X139549142Y-79557523D01*
X138739619Y-78557523D02*
X138692000Y-78509904D01*
X138644380Y-78414666D01*
X138644380Y-78176571D01*
X138692000Y-78081333D01*
X138739619Y-78033714D01*
X138834857Y-77986095D01*
X138930095Y-77986095D01*
X139072952Y-78033714D01*
X139644380Y-78605142D01*
X139644380Y-77986095D01*
X144629142Y-74429857D02*
X144676761Y-74477476D01*
X144724380Y-74620333D01*
X144724380Y-74715571D01*
X144676761Y-74858428D01*
X144581523Y-74953666D01*
X144486285Y-75001285D01*
X144295809Y-75048904D01*
X144152952Y-75048904D01*
X143962476Y-75001285D01*
X143867238Y-74953666D01*
X143772000Y-74858428D01*
X143724380Y-74715571D01*
X143724380Y-74620333D01*
X143772000Y-74477476D01*
X143819619Y-74429857D01*
X143724380Y-74096523D02*
X143724380Y-73477476D01*
X144105333Y-73810809D01*
X144105333Y-73667952D01*
X144152952Y-73572714D01*
X144200571Y-73525095D01*
X144295809Y-73477476D01*
X144533904Y-73477476D01*
X144629142Y-73525095D01*
X144676761Y-73572714D01*
X144724380Y-73667952D01*
X144724380Y-73953666D01*
X144676761Y-74048904D01*
X144629142Y-74096523D01*
X143724380Y-73144142D02*
X143724380Y-72525095D01*
X144105333Y-72858428D01*
X144105333Y-72715571D01*
X144152952Y-72620333D01*
X144200571Y-72572714D01*
X144295809Y-72525095D01*
X144533904Y-72525095D01*
X144629142Y-72572714D01*
X144676761Y-72620333D01*
X144724380Y-72715571D01*
X144724380Y-73001285D01*
X144676761Y-73096523D01*
X144629142Y-73144142D01*
X134690142Y-65666857D02*
X134737761Y-65714476D01*
X134785380Y-65857333D01*
X134785380Y-65952571D01*
X134737761Y-66095428D01*
X134642523Y-66190666D01*
X134547285Y-66238285D01*
X134356809Y-66285904D01*
X134213952Y-66285904D01*
X134023476Y-66238285D01*
X133928238Y-66190666D01*
X133833000Y-66095428D01*
X133785380Y-65952571D01*
X133785380Y-65857333D01*
X133833000Y-65714476D01*
X133880619Y-65666857D01*
X133785380Y-65333523D02*
X133785380Y-64714476D01*
X134166333Y-65047809D01*
X134166333Y-64904952D01*
X134213952Y-64809714D01*
X134261571Y-64762095D01*
X134356809Y-64714476D01*
X134594904Y-64714476D01*
X134690142Y-64762095D01*
X134737761Y-64809714D01*
X134785380Y-64904952D01*
X134785380Y-65190666D01*
X134737761Y-65285904D01*
X134690142Y-65333523D01*
X134118714Y-63857333D02*
X134785380Y-63857333D01*
X133737761Y-64095428D02*
X134452047Y-64333523D01*
X134452047Y-63714476D01*
X144912142Y-65666857D02*
X144959761Y-65714476D01*
X145007380Y-65857333D01*
X145007380Y-65952571D01*
X144959761Y-66095428D01*
X144864523Y-66190666D01*
X144769285Y-66238285D01*
X144578809Y-66285904D01*
X144435952Y-66285904D01*
X144245476Y-66238285D01*
X144150238Y-66190666D01*
X144055000Y-66095428D01*
X144007380Y-65952571D01*
X144007380Y-65857333D01*
X144055000Y-65714476D01*
X144102619Y-65666857D01*
X144007380Y-65333523D02*
X144007380Y-64714476D01*
X144388333Y-65047809D01*
X144388333Y-64904952D01*
X144435952Y-64809714D01*
X144483571Y-64762095D01*
X144578809Y-64714476D01*
X144816904Y-64714476D01*
X144912142Y-64762095D01*
X144959761Y-64809714D01*
X145007380Y-64904952D01*
X145007380Y-65190666D01*
X144959761Y-65285904D01*
X144912142Y-65333523D01*
X144007380Y-63809714D02*
X144007380Y-64285904D01*
X144483571Y-64333523D01*
X144435952Y-64285904D01*
X144388333Y-64190666D01*
X144388333Y-63952571D01*
X144435952Y-63857333D01*
X144483571Y-63809714D01*
X144578809Y-63762095D01*
X144816904Y-63762095D01*
X144912142Y-63809714D01*
X144959761Y-63857333D01*
X145007380Y-63952571D01*
X145007380Y-64190666D01*
X144959761Y-64285904D01*
X144912142Y-64333523D01*
X138549142Y-69605142D02*
X138501523Y-69652761D01*
X138358666Y-69700380D01*
X138263428Y-69700380D01*
X138120571Y-69652761D01*
X138025333Y-69557523D01*
X137977714Y-69462285D01*
X137930095Y-69271809D01*
X137930095Y-69128952D01*
X137977714Y-68938476D01*
X138025333Y-68843238D01*
X138120571Y-68748000D01*
X138263428Y-68700380D01*
X138358666Y-68700380D01*
X138501523Y-68748000D01*
X138549142Y-68795619D01*
X138882476Y-68700380D02*
X139501523Y-68700380D01*
X139168190Y-69081333D01*
X139311047Y-69081333D01*
X139406285Y-69128952D01*
X139453904Y-69176571D01*
X139501523Y-69271809D01*
X139501523Y-69509904D01*
X139453904Y-69605142D01*
X139406285Y-69652761D01*
X139311047Y-69700380D01*
X139025333Y-69700380D01*
X138930095Y-69652761D01*
X138882476Y-69605142D01*
X140358666Y-68700380D02*
X140168190Y-68700380D01*
X140072952Y-68748000D01*
X140025333Y-68795619D01*
X139930095Y-68938476D01*
X139882476Y-69128952D01*
X139882476Y-69509904D01*
X139930095Y-69605142D01*
X139977714Y-69652761D01*
X140072952Y-69700380D01*
X140263428Y-69700380D01*
X140358666Y-69652761D01*
X140406285Y-69605142D01*
X140453904Y-69509904D01*
X140453904Y-69271809D01*
X140406285Y-69176571D01*
X140358666Y-69128952D01*
X140263428Y-69081333D01*
X140072952Y-69081333D01*
X139977714Y-69128952D01*
X139930095Y-69176571D01*
X139882476Y-69271809D01*
X151896380Y-93043333D02*
X152610666Y-93043333D01*
X152753523Y-93090952D01*
X152848761Y-93186190D01*
X152896380Y-93329047D01*
X152896380Y-93424285D01*
X152896380Y-92043333D02*
X152896380Y-92614761D01*
X152896380Y-92329047D02*
X151896380Y-92329047D01*
X152039238Y-92424285D01*
X152134476Y-92519523D01*
X152182095Y-92614761D01*
X179836380Y-88725333D02*
X180550666Y-88725333D01*
X180693523Y-88772952D01*
X180788761Y-88868190D01*
X180836380Y-89011047D01*
X180836380Y-89106285D01*
X179931619Y-88296761D02*
X179884000Y-88249142D01*
X179836380Y-88153904D01*
X179836380Y-87915809D01*
X179884000Y-87820571D01*
X179931619Y-87772952D01*
X180026857Y-87725333D01*
X180122095Y-87725333D01*
X180264952Y-87772952D01*
X180836380Y-88344380D01*
X180836380Y-87725333D01*
X118398966Y-81463080D02*
X118398966Y-82177366D01*
X118351347Y-82320223D01*
X118256109Y-82415461D01*
X118113252Y-82463080D01*
X118018014Y-82463080D01*
X118779919Y-81463080D02*
X119398966Y-81463080D01*
X119065633Y-81844033D01*
X119208490Y-81844033D01*
X119303728Y-81891652D01*
X119351347Y-81939271D01*
X119398966Y-82034509D01*
X119398966Y-82272604D01*
X119351347Y-82367842D01*
X119303728Y-82415461D01*
X119208490Y-82463080D01*
X118922776Y-82463080D01*
X118827538Y-82415461D01*
X118779919Y-82367842D01*
X179752666Y-101604380D02*
X179752666Y-102318666D01*
X179705047Y-102461523D01*
X179609809Y-102556761D01*
X179466952Y-102604380D01*
X179371714Y-102604380D01*
X180657428Y-101937714D02*
X180657428Y-102604380D01*
X180419333Y-101556761D02*
X180181238Y-102271047D01*
X180800285Y-102271047D01*
X118411666Y-89070380D02*
X118411666Y-89784666D01*
X118364047Y-89927523D01*
X118268809Y-90022761D01*
X118125952Y-90070380D01*
X118030714Y-90070380D01*
X119316428Y-89070380D02*
X119125952Y-89070380D01*
X119030714Y-89118000D01*
X118983095Y-89165619D01*
X118887857Y-89308476D01*
X118840238Y-89498952D01*
X118840238Y-89879904D01*
X118887857Y-89975142D01*
X118935476Y-90022761D01*
X119030714Y-90070380D01*
X119221190Y-90070380D01*
X119316428Y-90022761D01*
X119364047Y-89975142D01*
X119411666Y-89879904D01*
X119411666Y-89641809D01*
X119364047Y-89546571D01*
X119316428Y-89498952D01*
X119221190Y-89451333D01*
X119030714Y-89451333D01*
X118935476Y-89498952D01*
X118887857Y-89546571D01*
X118840238Y-89641809D01*
X118411666Y-103890380D02*
X118411666Y-104604666D01*
X118364047Y-104747523D01*
X118268809Y-104842761D01*
X118125952Y-104890380D01*
X118030714Y-104890380D01*
X118792619Y-103890380D02*
X119459285Y-103890380D01*
X119030714Y-104890380D01*
X160472380Y-87288666D02*
X159996190Y-87622000D01*
X160472380Y-87860095D02*
X159472380Y-87860095D01*
X159472380Y-87479142D01*
X159520000Y-87383904D01*
X159567619Y-87336285D01*
X159662857Y-87288666D01*
X159805714Y-87288666D01*
X159900952Y-87336285D01*
X159948571Y-87383904D01*
X159996190Y-87479142D01*
X159996190Y-87860095D01*
X160472380Y-86336285D02*
X160472380Y-86907714D01*
X160472380Y-86622000D02*
X159472380Y-86622000D01*
X159615238Y-86717238D01*
X159710476Y-86812476D01*
X159758095Y-86907714D01*
X171648380Y-105830666D02*
X171172190Y-106164000D01*
X171648380Y-106402095D02*
X170648380Y-106402095D01*
X170648380Y-106021142D01*
X170696000Y-105925904D01*
X170743619Y-105878285D01*
X170838857Y-105830666D01*
X170981714Y-105830666D01*
X171076952Y-105878285D01*
X171124571Y-105925904D01*
X171172190Y-106021142D01*
X171172190Y-106402095D01*
X170743619Y-105449714D02*
X170696000Y-105402095D01*
X170648380Y-105306857D01*
X170648380Y-105068761D01*
X170696000Y-104973523D01*
X170743619Y-104925904D01*
X170838857Y-104878285D01*
X170934095Y-104878285D01*
X171076952Y-104925904D01*
X171648380Y-105497333D01*
X171648380Y-104878285D01*
X166601380Y-87288666D02*
X166125190Y-87622000D01*
X166601380Y-87860095D02*
X165601380Y-87860095D01*
X165601380Y-87479142D01*
X165649000Y-87383904D01*
X165696619Y-87336285D01*
X165791857Y-87288666D01*
X165934714Y-87288666D01*
X166029952Y-87336285D01*
X166077571Y-87383904D01*
X166125190Y-87479142D01*
X166125190Y-87860095D01*
X165601380Y-86955333D02*
X165601380Y-86336285D01*
X165982333Y-86669619D01*
X165982333Y-86526761D01*
X166029952Y-86431523D01*
X166077571Y-86383904D01*
X166172809Y-86336285D01*
X166410904Y-86336285D01*
X166506142Y-86383904D01*
X166553761Y-86431523D01*
X166601380Y-86526761D01*
X166601380Y-86812476D01*
X166553761Y-86907714D01*
X166506142Y-86955333D01*
X165519380Y-105703666D02*
X165043190Y-106037000D01*
X165519380Y-106275095D02*
X164519380Y-106275095D01*
X164519380Y-105894142D01*
X164567000Y-105798904D01*
X164614619Y-105751285D01*
X164709857Y-105703666D01*
X164852714Y-105703666D01*
X164947952Y-105751285D01*
X164995571Y-105798904D01*
X165043190Y-105894142D01*
X165043190Y-106275095D01*
X164852714Y-104846523D02*
X165519380Y-104846523D01*
X164471761Y-105084619D02*
X165186047Y-105322714D01*
X165186047Y-104703666D01*
X158948380Y-87288666D02*
X158472190Y-87622000D01*
X158948380Y-87860095D02*
X157948380Y-87860095D01*
X157948380Y-87479142D01*
X157996000Y-87383904D01*
X158043619Y-87336285D01*
X158138857Y-87288666D01*
X158281714Y-87288666D01*
X158376952Y-87336285D01*
X158424571Y-87383904D01*
X158472190Y-87479142D01*
X158472190Y-87860095D01*
X157948380Y-86383904D02*
X157948380Y-86860095D01*
X158424571Y-86907714D01*
X158376952Y-86860095D01*
X158329333Y-86764857D01*
X158329333Y-86526761D01*
X158376952Y-86431523D01*
X158424571Y-86383904D01*
X158519809Y-86336285D01*
X158757904Y-86336285D01*
X158853142Y-86383904D01*
X158900761Y-86431523D01*
X158948380Y-86526761D01*
X158948380Y-86764857D01*
X158900761Y-86860095D01*
X158853142Y-86907714D01*
X172918380Y-105830666D02*
X172442190Y-106164000D01*
X172918380Y-106402095D02*
X171918380Y-106402095D01*
X171918380Y-106021142D01*
X171966000Y-105925904D01*
X172013619Y-105878285D01*
X172108857Y-105830666D01*
X172251714Y-105830666D01*
X172346952Y-105878285D01*
X172394571Y-105925904D01*
X172442190Y-106021142D01*
X172442190Y-106402095D01*
X171918380Y-104973523D02*
X171918380Y-105164000D01*
X171966000Y-105259238D01*
X172013619Y-105306857D01*
X172156476Y-105402095D01*
X172346952Y-105449714D01*
X172727904Y-105449714D01*
X172823142Y-105402095D01*
X172870761Y-105354476D01*
X172918380Y-105259238D01*
X172918380Y-105068761D01*
X172870761Y-104973523D01*
X172823142Y-104925904D01*
X172727904Y-104878285D01*
X172489809Y-104878285D01*
X172394571Y-104925904D01*
X172346952Y-104973523D01*
X172299333Y-105068761D01*
X172299333Y-105259238D01*
X172346952Y-105354476D01*
X172394571Y-105402095D01*
X172489809Y-105449714D01*
X148169333Y-88844380D02*
X147836000Y-88368190D01*
X147597904Y-88844380D02*
X147597904Y-87844380D01*
X147978857Y-87844380D01*
X148074095Y-87892000D01*
X148121714Y-87939619D01*
X148169333Y-88034857D01*
X148169333Y-88177714D01*
X148121714Y-88272952D01*
X148074095Y-88320571D01*
X147978857Y-88368190D01*
X147597904Y-88368190D01*
X148502666Y-87844380D02*
X149169333Y-87844380D01*
X148740761Y-88844380D01*
X153360380Y-99226666D02*
X152884190Y-99560000D01*
X153360380Y-99798095D02*
X152360380Y-99798095D01*
X152360380Y-99417142D01*
X152408000Y-99321904D01*
X152455619Y-99274285D01*
X152550857Y-99226666D01*
X152693714Y-99226666D01*
X152788952Y-99274285D01*
X152836571Y-99321904D01*
X152884190Y-99417142D01*
X152884190Y-99798095D01*
X152788952Y-98655238D02*
X152741333Y-98750476D01*
X152693714Y-98798095D01*
X152598476Y-98845714D01*
X152550857Y-98845714D01*
X152455619Y-98798095D01*
X152408000Y-98750476D01*
X152360380Y-98655238D01*
X152360380Y-98464761D01*
X152408000Y-98369523D01*
X152455619Y-98321904D01*
X152550857Y-98274285D01*
X152598476Y-98274285D01*
X152693714Y-98321904D01*
X152741333Y-98369523D01*
X152788952Y-98464761D01*
X152788952Y-98655238D01*
X152836571Y-98750476D01*
X152884190Y-98798095D01*
X152979428Y-98845714D01*
X153169904Y-98845714D01*
X153265142Y-98798095D01*
X153312761Y-98750476D01*
X153360380Y-98655238D01*
X153360380Y-98464761D01*
X153312761Y-98369523D01*
X153265142Y-98321904D01*
X153169904Y-98274285D01*
X152979428Y-98274285D01*
X152884190Y-98321904D01*
X152836571Y-98369523D01*
X152788952Y-98464761D01*
X175347333Y-77922380D02*
X175014000Y-77446190D01*
X174775904Y-77922380D02*
X174775904Y-76922380D01*
X175156857Y-76922380D01*
X175252095Y-76970000D01*
X175299714Y-77017619D01*
X175347333Y-77112857D01*
X175347333Y-77255714D01*
X175299714Y-77350952D01*
X175252095Y-77398571D01*
X175156857Y-77446190D01*
X174775904Y-77446190D01*
X175823523Y-77922380D02*
X176014000Y-77922380D01*
X176109238Y-77874761D01*
X176156857Y-77827142D01*
X176252095Y-77684285D01*
X176299714Y-77493809D01*
X176299714Y-77112857D01*
X176252095Y-77017619D01*
X176204476Y-76970000D01*
X176109238Y-76922380D01*
X175918761Y-76922380D01*
X175823523Y-76970000D01*
X175775904Y-77017619D01*
X175728285Y-77112857D01*
X175728285Y-77350952D01*
X175775904Y-77446190D01*
X175823523Y-77493809D01*
X175918761Y-77541428D01*
X176109238Y-77541428D01*
X176204476Y-77493809D01*
X176252095Y-77446190D01*
X176299714Y-77350952D01*
X175379142Y-76144380D02*
X175045809Y-75668190D01*
X174807714Y-76144380D02*
X174807714Y-75144380D01*
X175188666Y-75144380D01*
X175283904Y-75192000D01*
X175331523Y-75239619D01*
X175379142Y-75334857D01*
X175379142Y-75477714D01*
X175331523Y-75572952D01*
X175283904Y-75620571D01*
X175188666Y-75668190D01*
X174807714Y-75668190D01*
X176331523Y-76144380D02*
X175760095Y-76144380D01*
X176045809Y-76144380D02*
X176045809Y-75144380D01*
X175950571Y-75287238D01*
X175855333Y-75382476D01*
X175760095Y-75430095D01*
X176950571Y-75144380D02*
X177045809Y-75144380D01*
X177141047Y-75192000D01*
X177188666Y-75239619D01*
X177236285Y-75334857D01*
X177283904Y-75525333D01*
X177283904Y-75763428D01*
X177236285Y-75953904D01*
X177188666Y-76049142D01*
X177141047Y-76096761D01*
X177045809Y-76144380D01*
X176950571Y-76144380D01*
X176855333Y-76096761D01*
X176807714Y-76049142D01*
X176760095Y-75953904D01*
X176712476Y-75763428D01*
X176712476Y-75525333D01*
X176760095Y-75334857D01*
X176807714Y-75239619D01*
X176855333Y-75192000D01*
X176950571Y-75144380D01*
X167505142Y-110688380D02*
X167171809Y-110212190D01*
X166933714Y-110688380D02*
X166933714Y-109688380D01*
X167314666Y-109688380D01*
X167409904Y-109736000D01*
X167457523Y-109783619D01*
X167505142Y-109878857D01*
X167505142Y-110021714D01*
X167457523Y-110116952D01*
X167409904Y-110164571D01*
X167314666Y-110212190D01*
X166933714Y-110212190D01*
X168457523Y-110688380D02*
X167886095Y-110688380D01*
X168171809Y-110688380D02*
X168171809Y-109688380D01*
X168076571Y-109831238D01*
X167981333Y-109926476D01*
X167886095Y-109974095D01*
X169409904Y-110688380D02*
X168838476Y-110688380D01*
X169124190Y-110688380D02*
X169124190Y-109688380D01*
X169028952Y-109831238D01*
X168933714Y-109926476D01*
X168838476Y-109974095D01*
X170045142Y-108910380D02*
X169711809Y-108434190D01*
X169473714Y-108910380D02*
X169473714Y-107910380D01*
X169854666Y-107910380D01*
X169949904Y-107958000D01*
X169997523Y-108005619D01*
X170045142Y-108100857D01*
X170045142Y-108243714D01*
X169997523Y-108338952D01*
X169949904Y-108386571D01*
X169854666Y-108434190D01*
X169473714Y-108434190D01*
X170997523Y-108910380D02*
X170426095Y-108910380D01*
X170711809Y-108910380D02*
X170711809Y-107910380D01*
X170616571Y-108053238D01*
X170521333Y-108148476D01*
X170426095Y-108196095D01*
X171378476Y-108005619D02*
X171426095Y-107958000D01*
X171521333Y-107910380D01*
X171759428Y-107910380D01*
X171854666Y-107958000D01*
X171902285Y-108005619D01*
X171949904Y-108100857D01*
X171949904Y-108196095D01*
X171902285Y-108338952D01*
X171330857Y-108910380D01*
X171949904Y-108910380D01*
X158869142Y-109164380D02*
X158535809Y-108688190D01*
X158297714Y-109164380D02*
X158297714Y-108164380D01*
X158678666Y-108164380D01*
X158773904Y-108212000D01*
X158821523Y-108259619D01*
X158869142Y-108354857D01*
X158869142Y-108497714D01*
X158821523Y-108592952D01*
X158773904Y-108640571D01*
X158678666Y-108688190D01*
X158297714Y-108688190D01*
X159821523Y-109164380D02*
X159250095Y-109164380D01*
X159535809Y-109164380D02*
X159535809Y-108164380D01*
X159440571Y-108307238D01*
X159345333Y-108402476D01*
X159250095Y-108450095D01*
X160154857Y-108164380D02*
X160773904Y-108164380D01*
X160440571Y-108545333D01*
X160583428Y-108545333D01*
X160678666Y-108592952D01*
X160726285Y-108640571D01*
X160773904Y-108735809D01*
X160773904Y-108973904D01*
X160726285Y-109069142D01*
X160678666Y-109116761D01*
X160583428Y-109164380D01*
X160297714Y-109164380D01*
X160202476Y-109116761D01*
X160154857Y-109069142D01*
X158869142Y-107894380D02*
X158535809Y-107418190D01*
X158297714Y-107894380D02*
X158297714Y-106894380D01*
X158678666Y-106894380D01*
X158773904Y-106942000D01*
X158821523Y-106989619D01*
X158869142Y-107084857D01*
X158869142Y-107227714D01*
X158821523Y-107322952D01*
X158773904Y-107370571D01*
X158678666Y-107418190D01*
X158297714Y-107418190D01*
X159821523Y-107894380D02*
X159250095Y-107894380D01*
X159535809Y-107894380D02*
X159535809Y-106894380D01*
X159440571Y-107037238D01*
X159345333Y-107132476D01*
X159250095Y-107180095D01*
X160678666Y-107227714D02*
X160678666Y-107894380D01*
X160440571Y-106846761D02*
X160202476Y-107561047D01*
X160821523Y-107561047D01*
X160472380Y-102750857D02*
X159996190Y-103084190D01*
X160472380Y-103322285D02*
X159472380Y-103322285D01*
X159472380Y-102941333D01*
X159520000Y-102846095D01*
X159567619Y-102798476D01*
X159662857Y-102750857D01*
X159805714Y-102750857D01*
X159900952Y-102798476D01*
X159948571Y-102846095D01*
X159996190Y-102941333D01*
X159996190Y-103322285D01*
X160472380Y-101798476D02*
X160472380Y-102369904D01*
X160472380Y-102084190D02*
X159472380Y-102084190D01*
X159615238Y-102179428D01*
X159710476Y-102274666D01*
X159758095Y-102369904D01*
X159472380Y-100893714D02*
X159472380Y-101369904D01*
X159948571Y-101417523D01*
X159900952Y-101369904D01*
X159853333Y-101274666D01*
X159853333Y-101036571D01*
X159900952Y-100941333D01*
X159948571Y-100893714D01*
X160043809Y-100846095D01*
X160281904Y-100846095D01*
X160377142Y-100893714D01*
X160424761Y-100941333D01*
X160472380Y-101036571D01*
X160472380Y-101274666D01*
X160424761Y-101369904D01*
X160377142Y-101417523D01*
X151803380Y-85097857D02*
X151327190Y-85431190D01*
X151803380Y-85669285D02*
X150803380Y-85669285D01*
X150803380Y-85288333D01*
X150851000Y-85193095D01*
X150898619Y-85145476D01*
X150993857Y-85097857D01*
X151136714Y-85097857D01*
X151231952Y-85145476D01*
X151279571Y-85193095D01*
X151327190Y-85288333D01*
X151327190Y-85669285D01*
X151803380Y-84145476D02*
X151803380Y-84716904D01*
X151803380Y-84431190D02*
X150803380Y-84431190D01*
X150946238Y-84526428D01*
X151041476Y-84621666D01*
X151089095Y-84716904D01*
X150803380Y-83288333D02*
X150803380Y-83478809D01*
X150851000Y-83574047D01*
X150898619Y-83621666D01*
X151041476Y-83716904D01*
X151231952Y-83764523D01*
X151612904Y-83764523D01*
X151708142Y-83716904D01*
X151755761Y-83669285D01*
X151803380Y-83574047D01*
X151803380Y-83383571D01*
X151755761Y-83288333D01*
X151708142Y-83240714D01*
X151612904Y-83193095D01*
X151374809Y-83193095D01*
X151279571Y-83240714D01*
X151231952Y-83288333D01*
X151184333Y-83383571D01*
X151184333Y-83574047D01*
X151231952Y-83669285D01*
X151279571Y-83716904D01*
X151374809Y-83764523D01*
X145661142Y-81732380D02*
X145327809Y-81256190D01*
X145089714Y-81732380D02*
X145089714Y-80732380D01*
X145470666Y-80732380D01*
X145565904Y-80780000D01*
X145613523Y-80827619D01*
X145661142Y-80922857D01*
X145661142Y-81065714D01*
X145613523Y-81160952D01*
X145565904Y-81208571D01*
X145470666Y-81256190D01*
X145089714Y-81256190D01*
X146613523Y-81732380D02*
X146042095Y-81732380D01*
X146327809Y-81732380D02*
X146327809Y-80732380D01*
X146232571Y-80875238D01*
X146137333Y-80970476D01*
X146042095Y-81018095D01*
X146946857Y-80732380D02*
X147613523Y-80732380D01*
X147184952Y-81732380D01*
X160901142Y-83764380D02*
X160567809Y-83288190D01*
X160329714Y-83764380D02*
X160329714Y-82764380D01*
X160710666Y-82764380D01*
X160805904Y-82812000D01*
X160853523Y-82859619D01*
X160901142Y-82954857D01*
X160901142Y-83097714D01*
X160853523Y-83192952D01*
X160805904Y-83240571D01*
X160710666Y-83288190D01*
X160329714Y-83288190D01*
X161853523Y-83764380D02*
X161282095Y-83764380D01*
X161567809Y-83764380D02*
X161567809Y-82764380D01*
X161472571Y-82907238D01*
X161377333Y-83002476D01*
X161282095Y-83050095D01*
X162424952Y-83192952D02*
X162329714Y-83145333D01*
X162282095Y-83097714D01*
X162234476Y-83002476D01*
X162234476Y-82954857D01*
X162282095Y-82859619D01*
X162329714Y-82812000D01*
X162424952Y-82764380D01*
X162615428Y-82764380D01*
X162710666Y-82812000D01*
X162758285Y-82859619D01*
X162805904Y-82954857D01*
X162805904Y-83002476D01*
X162758285Y-83097714D01*
X162710666Y-83145333D01*
X162615428Y-83192952D01*
X162424952Y-83192952D01*
X162329714Y-83240571D01*
X162282095Y-83288190D01*
X162234476Y-83383428D01*
X162234476Y-83573904D01*
X162282095Y-83669142D01*
X162329714Y-83716761D01*
X162424952Y-83764380D01*
X162615428Y-83764380D01*
X162710666Y-83716761D01*
X162758285Y-83669142D01*
X162805904Y-83573904D01*
X162805904Y-83383428D01*
X162758285Y-83288190D01*
X162710666Y-83240571D01*
X162615428Y-83192952D01*
X147947142Y-118816380D02*
X147613809Y-118340190D01*
X147375714Y-118816380D02*
X147375714Y-117816380D01*
X147756666Y-117816380D01*
X147851904Y-117864000D01*
X147899523Y-117911619D01*
X147947142Y-118006857D01*
X147947142Y-118149714D01*
X147899523Y-118244952D01*
X147851904Y-118292571D01*
X147756666Y-118340190D01*
X147375714Y-118340190D01*
X148899523Y-118816380D02*
X148328095Y-118816380D01*
X148613809Y-118816380D02*
X148613809Y-117816380D01*
X148518571Y-117959238D01*
X148423333Y-118054476D01*
X148328095Y-118102095D01*
X149375714Y-118816380D02*
X149566190Y-118816380D01*
X149661428Y-118768761D01*
X149709047Y-118721142D01*
X149804285Y-118578285D01*
X149851904Y-118387809D01*
X149851904Y-118006857D01*
X149804285Y-117911619D01*
X149756666Y-117864000D01*
X149661428Y-117816380D01*
X149470952Y-117816380D01*
X149375714Y-117864000D01*
X149328095Y-117911619D01*
X149280476Y-118006857D01*
X149280476Y-118244952D01*
X149328095Y-118340190D01*
X149375714Y-118387809D01*
X149470952Y-118435428D01*
X149661428Y-118435428D01*
X149756666Y-118387809D01*
X149804285Y-118340190D01*
X149851904Y-118244952D01*
X160218380Y-123070857D02*
X159742190Y-123404190D01*
X160218380Y-123642285D02*
X159218380Y-123642285D01*
X159218380Y-123261333D01*
X159266000Y-123166095D01*
X159313619Y-123118476D01*
X159408857Y-123070857D01*
X159551714Y-123070857D01*
X159646952Y-123118476D01*
X159694571Y-123166095D01*
X159742190Y-123261333D01*
X159742190Y-123642285D01*
X159313619Y-122689904D02*
X159266000Y-122642285D01*
X159218380Y-122547047D01*
X159218380Y-122308952D01*
X159266000Y-122213714D01*
X159313619Y-122166095D01*
X159408857Y-122118476D01*
X159504095Y-122118476D01*
X159646952Y-122166095D01*
X160218380Y-122737523D01*
X160218380Y-122118476D01*
X159218380Y-121499428D02*
X159218380Y-121404190D01*
X159266000Y-121308952D01*
X159313619Y-121261333D01*
X159408857Y-121213714D01*
X159599333Y-121166095D01*
X159837428Y-121166095D01*
X160027904Y-121213714D01*
X160123142Y-121261333D01*
X160170761Y-121308952D01*
X160218380Y-121404190D01*
X160218380Y-121499428D01*
X160170761Y-121594666D01*
X160123142Y-121642285D01*
X160027904Y-121689904D01*
X159837428Y-121737523D01*
X159599333Y-121737523D01*
X159408857Y-121689904D01*
X159313619Y-121642285D01*
X159266000Y-121594666D01*
X159218380Y-121499428D01*
X167505142Y-115514380D02*
X167171809Y-115038190D01*
X166933714Y-115514380D02*
X166933714Y-114514380D01*
X167314666Y-114514380D01*
X167409904Y-114562000D01*
X167457523Y-114609619D01*
X167505142Y-114704857D01*
X167505142Y-114847714D01*
X167457523Y-114942952D01*
X167409904Y-114990571D01*
X167314666Y-115038190D01*
X166933714Y-115038190D01*
X167886095Y-114609619D02*
X167933714Y-114562000D01*
X168028952Y-114514380D01*
X168267047Y-114514380D01*
X168362285Y-114562000D01*
X168409904Y-114609619D01*
X168457523Y-114704857D01*
X168457523Y-114800095D01*
X168409904Y-114942952D01*
X167838476Y-115514380D01*
X168457523Y-115514380D01*
X169409904Y-115514380D02*
X168838476Y-115514380D01*
X169124190Y-115514380D02*
X169124190Y-114514380D01*
X169028952Y-114657238D01*
X168933714Y-114752476D01*
X168838476Y-114800095D01*
X147947142Y-120594380D02*
X147613809Y-120118190D01*
X147375714Y-120594380D02*
X147375714Y-119594380D01*
X147756666Y-119594380D01*
X147851904Y-119642000D01*
X147899523Y-119689619D01*
X147947142Y-119784857D01*
X147947142Y-119927714D01*
X147899523Y-120022952D01*
X147851904Y-120070571D01*
X147756666Y-120118190D01*
X147375714Y-120118190D01*
X148328095Y-119689619D02*
X148375714Y-119642000D01*
X148470952Y-119594380D01*
X148709047Y-119594380D01*
X148804285Y-119642000D01*
X148851904Y-119689619D01*
X148899523Y-119784857D01*
X148899523Y-119880095D01*
X148851904Y-120022952D01*
X148280476Y-120594380D01*
X148899523Y-120594380D01*
X149280476Y-119689619D02*
X149328095Y-119642000D01*
X149423333Y-119594380D01*
X149661428Y-119594380D01*
X149756666Y-119642000D01*
X149804285Y-119689619D01*
X149851904Y-119784857D01*
X149851904Y-119880095D01*
X149804285Y-120022952D01*
X149232857Y-120594380D01*
X149851904Y-120594380D01*
X148709142Y-115006380D02*
X148375809Y-114530190D01*
X148137714Y-115006380D02*
X148137714Y-114006380D01*
X148518666Y-114006380D01*
X148613904Y-114054000D01*
X148661523Y-114101619D01*
X148709142Y-114196857D01*
X148709142Y-114339714D01*
X148661523Y-114434952D01*
X148613904Y-114482571D01*
X148518666Y-114530190D01*
X148137714Y-114530190D01*
X149090095Y-114101619D02*
X149137714Y-114054000D01*
X149232952Y-114006380D01*
X149471047Y-114006380D01*
X149566285Y-114054000D01*
X149613904Y-114101619D01*
X149661523Y-114196857D01*
X149661523Y-114292095D01*
X149613904Y-114434952D01*
X149042476Y-115006380D01*
X149661523Y-115006380D01*
X149994857Y-114006380D02*
X150613904Y-114006380D01*
X150280571Y-114387333D01*
X150423428Y-114387333D01*
X150518666Y-114434952D01*
X150566285Y-114482571D01*
X150613904Y-114577809D01*
X150613904Y-114815904D01*
X150566285Y-114911142D01*
X150518666Y-114958761D01*
X150423428Y-115006380D01*
X150137714Y-115006380D01*
X150042476Y-114958761D01*
X149994857Y-114911142D01*
X158186380Y-123070857D02*
X157710190Y-123404190D01*
X158186380Y-123642285D02*
X157186380Y-123642285D01*
X157186380Y-123261333D01*
X157234000Y-123166095D01*
X157281619Y-123118476D01*
X157376857Y-123070857D01*
X157519714Y-123070857D01*
X157614952Y-123118476D01*
X157662571Y-123166095D01*
X157710190Y-123261333D01*
X157710190Y-123642285D01*
X157281619Y-122689904D02*
X157234000Y-122642285D01*
X157186380Y-122547047D01*
X157186380Y-122308952D01*
X157234000Y-122213714D01*
X157281619Y-122166095D01*
X157376857Y-122118476D01*
X157472095Y-122118476D01*
X157614952Y-122166095D01*
X158186380Y-122737523D01*
X158186380Y-122118476D01*
X157519714Y-121261333D02*
X158186380Y-121261333D01*
X157138761Y-121499428D02*
X157853047Y-121737523D01*
X157853047Y-121118476D01*
X144391142Y-108402380D02*
X144057809Y-107926190D01*
X143819714Y-108402380D02*
X143819714Y-107402380D01*
X144200666Y-107402380D01*
X144295904Y-107450000D01*
X144343523Y-107497619D01*
X144391142Y-107592857D01*
X144391142Y-107735714D01*
X144343523Y-107830952D01*
X144295904Y-107878571D01*
X144200666Y-107926190D01*
X143819714Y-107926190D01*
X144772095Y-107497619D02*
X144819714Y-107450000D01*
X144914952Y-107402380D01*
X145153047Y-107402380D01*
X145248285Y-107450000D01*
X145295904Y-107497619D01*
X145343523Y-107592857D01*
X145343523Y-107688095D01*
X145295904Y-107830952D01*
X144724476Y-108402380D01*
X145343523Y-108402380D01*
X146248285Y-107402380D02*
X145772095Y-107402380D01*
X145724476Y-107878571D01*
X145772095Y-107830952D01*
X145867333Y-107783333D01*
X146105428Y-107783333D01*
X146200666Y-107830952D01*
X146248285Y-107878571D01*
X146295904Y-107973809D01*
X146295904Y-108211904D01*
X146248285Y-108307142D01*
X146200666Y-108354761D01*
X146105428Y-108402380D01*
X145867333Y-108402380D01*
X145772095Y-108354761D01*
X145724476Y-108307142D01*
X144391142Y-110180380D02*
X144057809Y-109704190D01*
X143819714Y-110180380D02*
X143819714Y-109180380D01*
X144200666Y-109180380D01*
X144295904Y-109228000D01*
X144343523Y-109275619D01*
X144391142Y-109370857D01*
X144391142Y-109513714D01*
X144343523Y-109608952D01*
X144295904Y-109656571D01*
X144200666Y-109704190D01*
X143819714Y-109704190D01*
X144772095Y-109275619D02*
X144819714Y-109228000D01*
X144914952Y-109180380D01*
X145153047Y-109180380D01*
X145248285Y-109228000D01*
X145295904Y-109275619D01*
X145343523Y-109370857D01*
X145343523Y-109466095D01*
X145295904Y-109608952D01*
X144724476Y-110180380D01*
X145343523Y-110180380D01*
X146200666Y-109180380D02*
X146010190Y-109180380D01*
X145914952Y-109228000D01*
X145867333Y-109275619D01*
X145772095Y-109418476D01*
X145724476Y-109608952D01*
X145724476Y-109989904D01*
X145772095Y-110085142D01*
X145819714Y-110132761D01*
X145914952Y-110180380D01*
X146105428Y-110180380D01*
X146200666Y-110132761D01*
X146248285Y-110085142D01*
X146295904Y-109989904D01*
X146295904Y-109751809D01*
X146248285Y-109656571D01*
X146200666Y-109608952D01*
X146105428Y-109561333D01*
X145914952Y-109561333D01*
X145819714Y-109608952D01*
X145772095Y-109656571D01*
X145724476Y-109751809D01*
X148709142Y-111958380D02*
X148375809Y-111482190D01*
X148137714Y-111958380D02*
X148137714Y-110958380D01*
X148518666Y-110958380D01*
X148613904Y-111006000D01*
X148661523Y-111053619D01*
X148709142Y-111148857D01*
X148709142Y-111291714D01*
X148661523Y-111386952D01*
X148613904Y-111434571D01*
X148518666Y-111482190D01*
X148137714Y-111482190D01*
X149090095Y-111053619D02*
X149137714Y-111006000D01*
X149232952Y-110958380D01*
X149471047Y-110958380D01*
X149566285Y-111006000D01*
X149613904Y-111053619D01*
X149661523Y-111148857D01*
X149661523Y-111244095D01*
X149613904Y-111386952D01*
X149042476Y-111958380D01*
X149661523Y-111958380D01*
X149994857Y-110958380D02*
X150661523Y-110958380D01*
X150232952Y-111958380D01*
X168346380Y-70746857D02*
X167870190Y-71080190D01*
X168346380Y-71318285D02*
X167346380Y-71318285D01*
X167346380Y-70937333D01*
X167394000Y-70842095D01*
X167441619Y-70794476D01*
X167536857Y-70746857D01*
X167679714Y-70746857D01*
X167774952Y-70794476D01*
X167822571Y-70842095D01*
X167870190Y-70937333D01*
X167870190Y-71318285D01*
X167441619Y-70365904D02*
X167394000Y-70318285D01*
X167346380Y-70223047D01*
X167346380Y-69984952D01*
X167394000Y-69889714D01*
X167441619Y-69842095D01*
X167536857Y-69794476D01*
X167632095Y-69794476D01*
X167774952Y-69842095D01*
X168346380Y-70413523D01*
X168346380Y-69794476D01*
X167774952Y-69223047D02*
X167727333Y-69318285D01*
X167679714Y-69365904D01*
X167584476Y-69413523D01*
X167536857Y-69413523D01*
X167441619Y-69365904D01*
X167394000Y-69318285D01*
X167346380Y-69223047D01*
X167346380Y-69032571D01*
X167394000Y-68937333D01*
X167441619Y-68889714D01*
X167536857Y-68842095D01*
X167584476Y-68842095D01*
X167679714Y-68889714D01*
X167727333Y-68937333D01*
X167774952Y-69032571D01*
X167774952Y-69223047D01*
X167822571Y-69318285D01*
X167870190Y-69365904D01*
X167965428Y-69413523D01*
X168155904Y-69413523D01*
X168251142Y-69365904D01*
X168298761Y-69318285D01*
X168346380Y-69223047D01*
X168346380Y-69032571D01*
X168298761Y-68937333D01*
X168251142Y-68889714D01*
X168155904Y-68842095D01*
X167965428Y-68842095D01*
X167870190Y-68889714D01*
X167822571Y-68937333D01*
X167774952Y-69032571D01*
X184094380Y-77096857D02*
X183618190Y-77430190D01*
X184094380Y-77668285D02*
X183094380Y-77668285D01*
X183094380Y-77287333D01*
X183142000Y-77192095D01*
X183189619Y-77144476D01*
X183284857Y-77096857D01*
X183427714Y-77096857D01*
X183522952Y-77144476D01*
X183570571Y-77192095D01*
X183618190Y-77287333D01*
X183618190Y-77668285D01*
X183189619Y-76715904D02*
X183142000Y-76668285D01*
X183094380Y-76573047D01*
X183094380Y-76334952D01*
X183142000Y-76239714D01*
X183189619Y-76192095D01*
X183284857Y-76144476D01*
X183380095Y-76144476D01*
X183522952Y-76192095D01*
X184094380Y-76763523D01*
X184094380Y-76144476D01*
X184094380Y-75668285D02*
X184094380Y-75477809D01*
X184046761Y-75382571D01*
X183999142Y-75334952D01*
X183856285Y-75239714D01*
X183665809Y-75192095D01*
X183284857Y-75192095D01*
X183189619Y-75239714D01*
X183142000Y-75287333D01*
X183094380Y-75382571D01*
X183094380Y-75573047D01*
X183142000Y-75668285D01*
X183189619Y-75715904D01*
X183284857Y-75763523D01*
X183522952Y-75763523D01*
X183618190Y-75715904D01*
X183665809Y-75668285D01*
X183713428Y-75573047D01*
X183713428Y-75382571D01*
X183665809Y-75287333D01*
X183618190Y-75239714D01*
X183522952Y-75192095D01*
X182316380Y-77096857D02*
X181840190Y-77430190D01*
X182316380Y-77668285D02*
X181316380Y-77668285D01*
X181316380Y-77287333D01*
X181364000Y-77192095D01*
X181411619Y-77144476D01*
X181506857Y-77096857D01*
X181649714Y-77096857D01*
X181744952Y-77144476D01*
X181792571Y-77192095D01*
X181840190Y-77287333D01*
X181840190Y-77668285D01*
X181316380Y-76763523D02*
X181316380Y-76144476D01*
X181697333Y-76477809D01*
X181697333Y-76334952D01*
X181744952Y-76239714D01*
X181792571Y-76192095D01*
X181887809Y-76144476D01*
X182125904Y-76144476D01*
X182221142Y-76192095D01*
X182268761Y-76239714D01*
X182316380Y-76334952D01*
X182316380Y-76620666D01*
X182268761Y-76715904D01*
X182221142Y-76763523D01*
X181316380Y-75525428D02*
X181316380Y-75430190D01*
X181364000Y-75334952D01*
X181411619Y-75287333D01*
X181506857Y-75239714D01*
X181697333Y-75192095D01*
X181935428Y-75192095D01*
X182125904Y-75239714D01*
X182221142Y-75287333D01*
X182268761Y-75334952D01*
X182316380Y-75430190D01*
X182316380Y-75525428D01*
X182268761Y-75620666D01*
X182221142Y-75668285D01*
X182125904Y-75715904D01*
X181935428Y-75763523D01*
X181697333Y-75763523D01*
X181506857Y-75715904D01*
X181411619Y-75668285D01*
X181364000Y-75620666D01*
X181316380Y-75525428D01*
X148788380Y-58300857D02*
X148312190Y-58634190D01*
X148788380Y-58872285D02*
X147788380Y-58872285D01*
X147788380Y-58491333D01*
X147836000Y-58396095D01*
X147883619Y-58348476D01*
X147978857Y-58300857D01*
X148121714Y-58300857D01*
X148216952Y-58348476D01*
X148264571Y-58396095D01*
X148312190Y-58491333D01*
X148312190Y-58872285D01*
X147788380Y-57967523D02*
X147788380Y-57348476D01*
X148169333Y-57681809D01*
X148169333Y-57538952D01*
X148216952Y-57443714D01*
X148264571Y-57396095D01*
X148359809Y-57348476D01*
X148597904Y-57348476D01*
X148693142Y-57396095D01*
X148740761Y-57443714D01*
X148788380Y-57538952D01*
X148788380Y-57824666D01*
X148740761Y-57919904D01*
X148693142Y-57967523D01*
X148788380Y-56396095D02*
X148788380Y-56967523D01*
X148788380Y-56681809D02*
X147788380Y-56681809D01*
X147931238Y-56777047D01*
X148026476Y-56872285D01*
X148074095Y-56967523D01*
X141470142Y-55283380D02*
X141136809Y-54807190D01*
X140898714Y-55283380D02*
X140898714Y-54283380D01*
X141279666Y-54283380D01*
X141374904Y-54331000D01*
X141422523Y-54378619D01*
X141470142Y-54473857D01*
X141470142Y-54616714D01*
X141422523Y-54711952D01*
X141374904Y-54759571D01*
X141279666Y-54807190D01*
X140898714Y-54807190D01*
X141803476Y-54283380D02*
X142422523Y-54283380D01*
X142089190Y-54664333D01*
X142232047Y-54664333D01*
X142327285Y-54711952D01*
X142374904Y-54759571D01*
X142422523Y-54854809D01*
X142422523Y-55092904D01*
X142374904Y-55188142D01*
X142327285Y-55235761D01*
X142232047Y-55283380D01*
X141946333Y-55283380D01*
X141851095Y-55235761D01*
X141803476Y-55188142D01*
X142803476Y-54378619D02*
X142851095Y-54331000D01*
X142946333Y-54283380D01*
X143184428Y-54283380D01*
X143279666Y-54331000D01*
X143327285Y-54378619D01*
X143374904Y-54473857D01*
X143374904Y-54569095D01*
X143327285Y-54711952D01*
X142755857Y-55283380D01*
X143374904Y-55283380D01*
X135755142Y-60810380D02*
X135421809Y-60334190D01*
X135183714Y-60810380D02*
X135183714Y-59810380D01*
X135564666Y-59810380D01*
X135659904Y-59858000D01*
X135707523Y-59905619D01*
X135755142Y-60000857D01*
X135755142Y-60143714D01*
X135707523Y-60238952D01*
X135659904Y-60286571D01*
X135564666Y-60334190D01*
X135183714Y-60334190D01*
X136088476Y-59810380D02*
X136707523Y-59810380D01*
X136374190Y-60191333D01*
X136517047Y-60191333D01*
X136612285Y-60238952D01*
X136659904Y-60286571D01*
X136707523Y-60381809D01*
X136707523Y-60619904D01*
X136659904Y-60715142D01*
X136612285Y-60762761D01*
X136517047Y-60810380D01*
X136231333Y-60810380D01*
X136136095Y-60762761D01*
X136088476Y-60715142D01*
X137040857Y-59810380D02*
X137659904Y-59810380D01*
X137326571Y-60191333D01*
X137469428Y-60191333D01*
X137564666Y-60238952D01*
X137612285Y-60286571D01*
X137659904Y-60381809D01*
X137659904Y-60619904D01*
X137612285Y-60715142D01*
X137564666Y-60762761D01*
X137469428Y-60810380D01*
X137183714Y-60810380D01*
X137088476Y-60762761D01*
X137040857Y-60715142D01*
X141287595Y-70534280D02*
X141287595Y-71343804D01*
X141335214Y-71439042D01*
X141382833Y-71486661D01*
X141478071Y-71534280D01*
X141668547Y-71534280D01*
X141763785Y-71486661D01*
X141811404Y-71439042D01*
X141859023Y-71343804D01*
X141859023Y-70534280D01*
X142478071Y-70962852D02*
X142382833Y-70915233D01*
X142335214Y-70867614D01*
X142287595Y-70772376D01*
X142287595Y-70724757D01*
X142335214Y-70629519D01*
X142382833Y-70581900D01*
X142478071Y-70534280D01*
X142668547Y-70534280D01*
X142763785Y-70581900D01*
X142811404Y-70629519D01*
X142859023Y-70724757D01*
X142859023Y-70772376D01*
X142811404Y-70867614D01*
X142763785Y-70915233D01*
X142668547Y-70962852D01*
X142478071Y-70962852D01*
X142382833Y-71010471D01*
X142335214Y-71058090D01*
X142287595Y-71153328D01*
X142287595Y-71343804D01*
X142335214Y-71439042D01*
X142382833Y-71486661D01*
X142478071Y-71534280D01*
X142668547Y-71534280D01*
X142763785Y-71486661D01*
X142811404Y-71439042D01*
X142859023Y-71343804D01*
X142859023Y-71153328D01*
X142811404Y-71058090D01*
X142763785Y-71010471D01*
X142668547Y-70962852D01*
M02*
