G04 #@! TF.GenerationSoftware,KiCad,Pcbnew,(5.1.7)-1*
G04 #@! TF.CreationDate,2020-12-18T08:27:27-06:00*
G04 #@! TF.ProjectId,digital_pcb,64696769-7461-46c5-9f70-63622e6b6963,3.0*
G04 #@! TF.SameCoordinates,Original*
G04 #@! TF.FileFunction,Copper,L3,Inr*
G04 #@! TF.FilePolarity,Positive*
%FSLAX46Y46*%
G04 Gerber Fmt 4.6, Leading zero omitted, Abs format (unit mm)*
G04 Created by KiCad (PCBNEW (5.1.7)-1) date 2020-12-18 08:27:27*
%MOMM*%
%LPD*%
G01*
G04 APERTURE LIST*
G04 #@! TA.AperFunction,ComponentPad*
%ADD10C,1.620000*%
G04 #@! TD*
G04 #@! TA.AperFunction,ComponentPad*
%ADD11C,1.500000*%
G04 #@! TD*
G04 #@! TA.AperFunction,ComponentPad*
%ADD12C,1.450000*%
G04 #@! TD*
G04 #@! TA.AperFunction,ComponentPad*
%ADD13R,1.700000X1.700000*%
G04 #@! TD*
G04 #@! TA.AperFunction,ComponentPad*
%ADD14O,1.700000X1.700000*%
G04 #@! TD*
G04 #@! TA.AperFunction,ViaPad*
%ADD15C,0.508000*%
G04 #@! TD*
G04 #@! TA.AperFunction,ViaPad*
%ADD16C,1.016000*%
G04 #@! TD*
G04 #@! TA.AperFunction,Conductor*
%ADD17C,0.304800*%
G04 #@! TD*
G04 #@! TA.AperFunction,Conductor*
%ADD18C,0.254000*%
G04 #@! TD*
G04 #@! TA.AperFunction,Conductor*
%ADD19C,0.100000*%
G04 #@! TD*
G04 APERTURE END LIST*
D10*
X170688000Y-60960000D03*
X170688000Y-63500000D03*
D11*
X124079000Y-89448000D03*
X124079000Y-94448000D03*
D12*
X129921000Y-56769000D03*
X129921000Y-59309000D03*
X129921000Y-61849000D03*
X129921000Y-66929000D03*
X129921000Y-69469000D03*
X129921000Y-72009000D03*
X129921000Y-74549000D03*
D13*
X150114000Y-92710000D03*
D14*
X147574000Y-92710000D03*
D13*
X178054000Y-88392000D03*
D14*
X175514000Y-88392000D03*
X172974000Y-88392000D03*
X170434000Y-88392000D03*
X118732300Y-86880700D03*
D13*
X118732300Y-84340700D03*
D14*
X180086000Y-92202000D03*
X180086000Y-94742000D03*
X180086000Y-97282000D03*
D13*
X180086000Y-99822000D03*
X118740000Y-56390000D03*
D14*
X118740000Y-58930000D03*
X118740000Y-61470000D03*
X118740000Y-64010000D03*
X118740000Y-66550000D03*
X118740000Y-69090000D03*
X118740000Y-71630000D03*
X118740000Y-74170000D03*
X118740000Y-76710000D03*
X118740000Y-79250000D03*
X118745000Y-94488000D03*
D13*
X118745000Y-91948000D03*
X118745000Y-102108000D03*
D14*
X118745000Y-99568000D03*
D15*
X174371000Y-91313000D03*
X160020000Y-91948000D03*
X148844000Y-89916000D03*
X158496000Y-88519000D03*
X160274000Y-88265000D03*
X169799000Y-103251000D03*
X168529000Y-99949000D03*
X174498000Y-100330000D03*
X149987000Y-111506000D03*
X162560000Y-120269000D03*
X154940000Y-120269000D03*
X167386000Y-111887000D03*
X167132000Y-76327000D03*
X150495000Y-74168000D03*
X155429443Y-77348657D03*
X156591000Y-80518000D03*
X154813000Y-80518000D03*
X153543000Y-78994000D03*
X154813000Y-79121000D03*
X149479000Y-81153000D03*
X152781000Y-84455000D03*
X156591000Y-79502000D03*
X171958000Y-94107000D03*
X139065000Y-62230000D03*
X145796000Y-109728000D03*
X149352000Y-106172000D03*
X157226000Y-112268000D03*
X158750000Y-104140000D03*
X160528000Y-105156000D03*
X160528000Y-97633600D03*
X163576000Y-91186000D03*
X184704500Y-70819500D03*
X181864000Y-75692000D03*
X184150000Y-76708000D03*
X172212000Y-67564000D03*
D16*
X142748000Y-68072000D03*
X136652000Y-67818000D03*
X122428000Y-81026000D03*
X122428000Y-79756000D03*
D15*
X149098000Y-120142000D03*
X133985000Y-56896000D03*
X134366000Y-58928000D03*
X138557000Y-60198000D03*
X142113000Y-58420000D03*
X142113000Y-59817000D03*
X142748000Y-59055000D03*
X141478000Y-59055000D03*
X146050000Y-60071000D03*
X168148000Y-83820000D03*
X167386000Y-78994000D03*
X163576000Y-80772000D03*
X155956000Y-80010000D03*
X159258000Y-97282000D03*
X171483000Y-93378000D03*
X162844500Y-91663500D03*
X148717000Y-88392000D03*
X168148000Y-103251000D03*
X170974000Y-101251000D03*
X162960600Y-112324000D03*
X152654000Y-76708000D03*
X151642000Y-79506000D03*
X145796000Y-107950000D03*
X161544000Y-101600000D03*
X188468000Y-76708000D03*
D16*
X139192000Y-80518000D03*
X140462000Y-80518000D03*
D15*
X174244000Y-74676000D03*
X170053000Y-108458000D03*
X167640000Y-110236000D03*
X154559000Y-105410000D03*
X168148000Y-79756000D03*
X163322000Y-78994000D03*
X166116000Y-83794590D03*
X159258000Y-84480400D03*
X163068000Y-89154000D03*
D16*
X144272000Y-71813600D03*
D15*
X157480000Y-113030000D03*
D16*
X144526000Y-64008000D03*
D15*
X160274000Y-112776000D03*
X148590000Y-71120000D03*
X142791000Y-71077000D03*
X145288000Y-121920000D03*
X167132000Y-84963000D03*
X157353000Y-84836000D03*
X162052000Y-78232000D03*
X162052000Y-76200000D03*
X165354000Y-83794590D03*
X162560000Y-83820000D03*
X164973000Y-108077000D03*
X163410759Y-107276759D03*
X159639000Y-108458000D03*
X161163000Y-108458000D03*
X160655000Y-109220000D03*
X159639000Y-109220000D03*
X158877000Y-107442000D03*
D16*
X144907000Y-56261000D03*
X148463000Y-59563000D03*
D17*
X144272000Y-72532020D02*
X144272000Y-71813600D01*
X144272000Y-100181210D02*
X144272000Y-72532020D01*
X157120790Y-113030000D02*
X144272000Y-100181210D01*
X157480000Y-113030000D02*
X157120790Y-113030000D01*
X145033999Y-64515999D02*
X144526000Y-64008000D01*
X145084801Y-64566801D02*
X145033999Y-64515999D01*
X145084801Y-98159827D02*
X145084801Y-64566801D01*
X158634173Y-111709199D02*
X145084801Y-98159827D01*
X159207199Y-111709199D02*
X158634173Y-111709199D01*
X160274000Y-112776000D02*
X159207199Y-111709199D01*
D18*
X190540001Y-137940000D02*
X116860000Y-137940000D01*
X116860000Y-130079872D01*
X151465000Y-130079872D01*
X151465000Y-130520128D01*
X151550890Y-130951925D01*
X151719369Y-131358669D01*
X151963962Y-131724729D01*
X152275271Y-132036038D01*
X152641331Y-132280631D01*
X153048075Y-132449110D01*
X153479872Y-132535000D01*
X153920128Y-132535000D01*
X154351925Y-132449110D01*
X154758669Y-132280631D01*
X155124729Y-132036038D01*
X155436038Y-131724729D01*
X155680631Y-131358669D01*
X155849110Y-130951925D01*
X155935000Y-130520128D01*
X155935000Y-130079872D01*
X155849110Y-129648075D01*
X155680631Y-129241331D01*
X155436038Y-128875271D01*
X155124729Y-128563962D01*
X154758669Y-128319369D01*
X154351925Y-128150890D01*
X153920128Y-128065000D01*
X153479872Y-128065000D01*
X153048075Y-128150890D01*
X152641331Y-128319369D01*
X152275271Y-128563962D01*
X151963962Y-128875271D01*
X151719369Y-129241331D01*
X151550890Y-129648075D01*
X151465000Y-130079872D01*
X116860000Y-130079872D01*
X116860000Y-121832441D01*
X144399000Y-121832441D01*
X144399000Y-122007559D01*
X144433164Y-122179312D01*
X144500179Y-122341099D01*
X144597469Y-122486704D01*
X144721296Y-122610531D01*
X144866901Y-122707821D01*
X145028688Y-122774836D01*
X145200441Y-122809000D01*
X145375559Y-122809000D01*
X145547312Y-122774836D01*
X145709099Y-122707821D01*
X145854704Y-122610531D01*
X145978531Y-122486704D01*
X146075821Y-122341099D01*
X146142836Y-122179312D01*
X146177000Y-122007559D01*
X146177000Y-121832441D01*
X146142836Y-121660688D01*
X146075821Y-121498901D01*
X145978531Y-121353296D01*
X145854704Y-121229469D01*
X145709099Y-121132179D01*
X145547312Y-121065164D01*
X145375559Y-121031000D01*
X145200441Y-121031000D01*
X145028688Y-121065164D01*
X144866901Y-121132179D01*
X144721296Y-121229469D01*
X144597469Y-121353296D01*
X144500179Y-121498901D01*
X144433164Y-121660688D01*
X144399000Y-121832441D01*
X116860000Y-121832441D01*
X116860000Y-120054441D01*
X148209000Y-120054441D01*
X148209000Y-120229559D01*
X148243164Y-120401312D01*
X148310179Y-120563099D01*
X148407469Y-120708704D01*
X148531296Y-120832531D01*
X148676901Y-120929821D01*
X148838688Y-120996836D01*
X149010441Y-121031000D01*
X149185559Y-121031000D01*
X149357312Y-120996836D01*
X149519099Y-120929821D01*
X149664704Y-120832531D01*
X149788531Y-120708704D01*
X149885821Y-120563099D01*
X149952836Y-120401312D01*
X149987000Y-120229559D01*
X149987000Y-120181441D01*
X154051000Y-120181441D01*
X154051000Y-120356559D01*
X154085164Y-120528312D01*
X154152179Y-120690099D01*
X154249469Y-120835704D01*
X154373296Y-120959531D01*
X154518901Y-121056821D01*
X154680688Y-121123836D01*
X154852441Y-121158000D01*
X155027559Y-121158000D01*
X155199312Y-121123836D01*
X155361099Y-121056821D01*
X155506704Y-120959531D01*
X155630531Y-120835704D01*
X155727821Y-120690099D01*
X155794836Y-120528312D01*
X155829000Y-120356559D01*
X155829000Y-120181441D01*
X161671000Y-120181441D01*
X161671000Y-120356559D01*
X161705164Y-120528312D01*
X161772179Y-120690099D01*
X161869469Y-120835704D01*
X161993296Y-120959531D01*
X162138901Y-121056821D01*
X162300688Y-121123836D01*
X162472441Y-121158000D01*
X162647559Y-121158000D01*
X162819312Y-121123836D01*
X162981099Y-121056821D01*
X163126704Y-120959531D01*
X163250531Y-120835704D01*
X163347821Y-120690099D01*
X163414836Y-120528312D01*
X163449000Y-120356559D01*
X163449000Y-120181441D01*
X163414836Y-120009688D01*
X163347821Y-119847901D01*
X163250531Y-119702296D01*
X163126704Y-119578469D01*
X162981099Y-119481179D01*
X162819312Y-119414164D01*
X162647559Y-119380000D01*
X162472441Y-119380000D01*
X162300688Y-119414164D01*
X162138901Y-119481179D01*
X161993296Y-119578469D01*
X161869469Y-119702296D01*
X161772179Y-119847901D01*
X161705164Y-120009688D01*
X161671000Y-120181441D01*
X155829000Y-120181441D01*
X155794836Y-120009688D01*
X155727821Y-119847901D01*
X155630531Y-119702296D01*
X155506704Y-119578469D01*
X155361099Y-119481179D01*
X155199312Y-119414164D01*
X155027559Y-119380000D01*
X154852441Y-119380000D01*
X154680688Y-119414164D01*
X154518901Y-119481179D01*
X154373296Y-119578469D01*
X154249469Y-119702296D01*
X154152179Y-119847901D01*
X154085164Y-120009688D01*
X154051000Y-120181441D01*
X149987000Y-120181441D01*
X149987000Y-120054441D01*
X149952836Y-119882688D01*
X149885821Y-119720901D01*
X149788531Y-119575296D01*
X149664704Y-119451469D01*
X149519099Y-119354179D01*
X149357312Y-119287164D01*
X149185559Y-119253000D01*
X149010441Y-119253000D01*
X148838688Y-119287164D01*
X148676901Y-119354179D01*
X148531296Y-119451469D01*
X148407469Y-119575296D01*
X148310179Y-119720901D01*
X148243164Y-119882688D01*
X148209000Y-120054441D01*
X116860000Y-120054441D01*
X116860000Y-111418441D01*
X149098000Y-111418441D01*
X149098000Y-111593559D01*
X149132164Y-111765312D01*
X149199179Y-111927099D01*
X149296469Y-112072704D01*
X149420296Y-112196531D01*
X149565901Y-112293821D01*
X149727688Y-112360836D01*
X149899441Y-112395000D01*
X150074559Y-112395000D01*
X150246312Y-112360836D01*
X150408099Y-112293821D01*
X150553704Y-112196531D01*
X150677531Y-112072704D01*
X150774821Y-111927099D01*
X150841836Y-111765312D01*
X150876000Y-111593559D01*
X150876000Y-111418441D01*
X150841836Y-111246688D01*
X150774821Y-111084901D01*
X150677531Y-110939296D01*
X150553704Y-110815469D01*
X150408099Y-110718179D01*
X150246312Y-110651164D01*
X150074559Y-110617000D01*
X149899441Y-110617000D01*
X149727688Y-110651164D01*
X149565901Y-110718179D01*
X149420296Y-110815469D01*
X149296469Y-110939296D01*
X149199179Y-111084901D01*
X149132164Y-111246688D01*
X149098000Y-111418441D01*
X116860000Y-111418441D01*
X116860000Y-109640441D01*
X144907000Y-109640441D01*
X144907000Y-109815559D01*
X144941164Y-109987312D01*
X145008179Y-110149099D01*
X145105469Y-110294704D01*
X145229296Y-110418531D01*
X145374901Y-110515821D01*
X145536688Y-110582836D01*
X145708441Y-110617000D01*
X145883559Y-110617000D01*
X146055312Y-110582836D01*
X146217099Y-110515821D01*
X146362704Y-110418531D01*
X146486531Y-110294704D01*
X146583821Y-110149099D01*
X146650836Y-109987312D01*
X146685000Y-109815559D01*
X146685000Y-109640441D01*
X146650836Y-109468688D01*
X146583821Y-109306901D01*
X146486531Y-109161296D01*
X146362704Y-109037469D01*
X146217099Y-108940179D01*
X146055312Y-108873164D01*
X145883559Y-108839000D01*
X145708441Y-108839000D01*
X145536688Y-108873164D01*
X145374901Y-108940179D01*
X145229296Y-109037469D01*
X145105469Y-109161296D01*
X145008179Y-109306901D01*
X144941164Y-109468688D01*
X144907000Y-109640441D01*
X116860000Y-109640441D01*
X116860000Y-101258000D01*
X117256928Y-101258000D01*
X117256928Y-102958000D01*
X117269188Y-103082482D01*
X117305498Y-103202180D01*
X117364463Y-103312494D01*
X117443815Y-103409185D01*
X117540506Y-103488537D01*
X117650820Y-103547502D01*
X117770518Y-103583812D01*
X117895000Y-103596072D01*
X119595000Y-103596072D01*
X119719482Y-103583812D01*
X119839180Y-103547502D01*
X119949494Y-103488537D01*
X120046185Y-103409185D01*
X120125537Y-103312494D01*
X120184502Y-103202180D01*
X120220812Y-103082482D01*
X120233072Y-102958000D01*
X120233072Y-101258000D01*
X120220812Y-101133518D01*
X120184502Y-101013820D01*
X120125537Y-100903506D01*
X120046185Y-100806815D01*
X119949494Y-100727463D01*
X119839180Y-100668498D01*
X119766620Y-100646487D01*
X119898475Y-100514632D01*
X120060990Y-100271411D01*
X120172932Y-100001158D01*
X120230000Y-99714260D01*
X120230000Y-99421740D01*
X120172932Y-99134842D01*
X120060990Y-98864589D01*
X119898475Y-98621368D01*
X119691632Y-98414525D01*
X119448411Y-98252010D01*
X119178158Y-98140068D01*
X118891260Y-98083000D01*
X118598740Y-98083000D01*
X118311842Y-98140068D01*
X118041589Y-98252010D01*
X117798368Y-98414525D01*
X117591525Y-98621368D01*
X117429010Y-98864589D01*
X117317068Y-99134842D01*
X117260000Y-99421740D01*
X117260000Y-99714260D01*
X117317068Y-100001158D01*
X117429010Y-100271411D01*
X117591525Y-100514632D01*
X117723380Y-100646487D01*
X117650820Y-100668498D01*
X117540506Y-100727463D01*
X117443815Y-100806815D01*
X117364463Y-100903506D01*
X117305498Y-101013820D01*
X117269188Y-101133518D01*
X117256928Y-101258000D01*
X116860000Y-101258000D01*
X116860000Y-91098000D01*
X117256928Y-91098000D01*
X117256928Y-92798000D01*
X117269188Y-92922482D01*
X117305498Y-93042180D01*
X117364463Y-93152494D01*
X117443815Y-93249185D01*
X117540506Y-93328537D01*
X117650820Y-93387502D01*
X117723380Y-93409513D01*
X117591525Y-93541368D01*
X117429010Y-93784589D01*
X117317068Y-94054842D01*
X117260000Y-94341740D01*
X117260000Y-94634260D01*
X117317068Y-94921158D01*
X117429010Y-95191411D01*
X117591525Y-95434632D01*
X117798368Y-95641475D01*
X118041589Y-95803990D01*
X118311842Y-95915932D01*
X118598740Y-95973000D01*
X118891260Y-95973000D01*
X119178158Y-95915932D01*
X119448411Y-95803990D01*
X119691632Y-95641475D01*
X119898475Y-95434632D01*
X120060990Y-95191411D01*
X120172932Y-94921158D01*
X120230000Y-94634260D01*
X120230000Y-94341740D01*
X120224003Y-94311589D01*
X122694000Y-94311589D01*
X122694000Y-94584411D01*
X122747225Y-94851989D01*
X122851629Y-95104043D01*
X123003201Y-95330886D01*
X123196114Y-95523799D01*
X123422957Y-95675371D01*
X123675011Y-95779775D01*
X123942589Y-95833000D01*
X124215411Y-95833000D01*
X124482989Y-95779775D01*
X124735043Y-95675371D01*
X124961886Y-95523799D01*
X125154799Y-95330886D01*
X125306371Y-95104043D01*
X125410775Y-94851989D01*
X125464000Y-94584411D01*
X125464000Y-94311589D01*
X125410775Y-94044011D01*
X125306371Y-93791957D01*
X125154799Y-93565114D01*
X124961886Y-93372201D01*
X124735043Y-93220629D01*
X124482989Y-93116225D01*
X124215411Y-93063000D01*
X123942589Y-93063000D01*
X123675011Y-93116225D01*
X123422957Y-93220629D01*
X123196114Y-93372201D01*
X123003201Y-93565114D01*
X122851629Y-93791957D01*
X122747225Y-94044011D01*
X122694000Y-94311589D01*
X120224003Y-94311589D01*
X120172932Y-94054842D01*
X120060990Y-93784589D01*
X119898475Y-93541368D01*
X119766620Y-93409513D01*
X119839180Y-93387502D01*
X119949494Y-93328537D01*
X120046185Y-93249185D01*
X120125537Y-93152494D01*
X120184502Y-93042180D01*
X120220812Y-92922482D01*
X120233072Y-92798000D01*
X120233072Y-91098000D01*
X120220812Y-90973518D01*
X120184502Y-90853820D01*
X120125537Y-90743506D01*
X120046185Y-90646815D01*
X119949494Y-90567463D01*
X119839180Y-90508498D01*
X119719482Y-90472188D01*
X119595000Y-90459928D01*
X117895000Y-90459928D01*
X117770518Y-90472188D01*
X117650820Y-90508498D01*
X117540506Y-90567463D01*
X117443815Y-90646815D01*
X117364463Y-90743506D01*
X117305498Y-90853820D01*
X117269188Y-90973518D01*
X117256928Y-91098000D01*
X116860000Y-91098000D01*
X116860000Y-89311589D01*
X122694000Y-89311589D01*
X122694000Y-89584411D01*
X122747225Y-89851989D01*
X122851629Y-90104043D01*
X123003201Y-90330886D01*
X123196114Y-90523799D01*
X123422957Y-90675371D01*
X123675011Y-90779775D01*
X123942589Y-90833000D01*
X124215411Y-90833000D01*
X124482989Y-90779775D01*
X124735043Y-90675371D01*
X124961886Y-90523799D01*
X125154799Y-90330886D01*
X125306371Y-90104043D01*
X125410775Y-89851989D01*
X125464000Y-89584411D01*
X125464000Y-89311589D01*
X125410775Y-89044011D01*
X125306371Y-88791957D01*
X125154799Y-88565114D01*
X124961886Y-88372201D01*
X124735043Y-88220629D01*
X124482989Y-88116225D01*
X124215411Y-88063000D01*
X123942589Y-88063000D01*
X123675011Y-88116225D01*
X123422957Y-88220629D01*
X123196114Y-88372201D01*
X123003201Y-88565114D01*
X122851629Y-88791957D01*
X122747225Y-89044011D01*
X122694000Y-89311589D01*
X116860000Y-89311589D01*
X116860000Y-83490700D01*
X117244228Y-83490700D01*
X117244228Y-85190700D01*
X117256488Y-85315182D01*
X117292798Y-85434880D01*
X117351763Y-85545194D01*
X117431115Y-85641885D01*
X117527806Y-85721237D01*
X117638120Y-85780202D01*
X117710680Y-85802213D01*
X117578825Y-85934068D01*
X117416310Y-86177289D01*
X117304368Y-86447542D01*
X117247300Y-86734440D01*
X117247300Y-87026960D01*
X117304368Y-87313858D01*
X117416310Y-87584111D01*
X117578825Y-87827332D01*
X117785668Y-88034175D01*
X118028889Y-88196690D01*
X118299142Y-88308632D01*
X118586040Y-88365700D01*
X118878560Y-88365700D01*
X119165458Y-88308632D01*
X119435711Y-88196690D01*
X119678932Y-88034175D01*
X119885775Y-87827332D01*
X120048290Y-87584111D01*
X120160232Y-87313858D01*
X120217300Y-87026960D01*
X120217300Y-86734440D01*
X120160232Y-86447542D01*
X120048290Y-86177289D01*
X119885775Y-85934068D01*
X119753920Y-85802213D01*
X119826480Y-85780202D01*
X119936794Y-85721237D01*
X120033485Y-85641885D01*
X120112837Y-85545194D01*
X120171802Y-85434880D01*
X120208112Y-85315182D01*
X120220372Y-85190700D01*
X120220372Y-83490700D01*
X120208112Y-83366218D01*
X120171802Y-83246520D01*
X120112837Y-83136206D01*
X120033485Y-83039515D01*
X119936794Y-82960163D01*
X119826480Y-82901198D01*
X119706782Y-82864888D01*
X119582300Y-82852628D01*
X117882300Y-82852628D01*
X117757818Y-82864888D01*
X117638120Y-82901198D01*
X117527806Y-82960163D01*
X117431115Y-83039515D01*
X117351763Y-83136206D01*
X117292798Y-83246520D01*
X117256488Y-83366218D01*
X117244228Y-83490700D01*
X116860000Y-83490700D01*
X116860000Y-55540000D01*
X117251928Y-55540000D01*
X117251928Y-57240000D01*
X117264188Y-57364482D01*
X117300498Y-57484180D01*
X117359463Y-57594494D01*
X117438815Y-57691185D01*
X117535506Y-57770537D01*
X117645820Y-57829502D01*
X117718380Y-57851513D01*
X117586525Y-57983368D01*
X117424010Y-58226589D01*
X117312068Y-58496842D01*
X117255000Y-58783740D01*
X117255000Y-59076260D01*
X117312068Y-59363158D01*
X117424010Y-59633411D01*
X117586525Y-59876632D01*
X117793368Y-60083475D01*
X117967760Y-60200000D01*
X117793368Y-60316525D01*
X117586525Y-60523368D01*
X117424010Y-60766589D01*
X117312068Y-61036842D01*
X117255000Y-61323740D01*
X117255000Y-61616260D01*
X117312068Y-61903158D01*
X117424010Y-62173411D01*
X117586525Y-62416632D01*
X117793368Y-62623475D01*
X117967760Y-62740000D01*
X117793368Y-62856525D01*
X117586525Y-63063368D01*
X117424010Y-63306589D01*
X117312068Y-63576842D01*
X117255000Y-63863740D01*
X117255000Y-64156260D01*
X117312068Y-64443158D01*
X117424010Y-64713411D01*
X117586525Y-64956632D01*
X117793368Y-65163475D01*
X117967760Y-65280000D01*
X117793368Y-65396525D01*
X117586525Y-65603368D01*
X117424010Y-65846589D01*
X117312068Y-66116842D01*
X117255000Y-66403740D01*
X117255000Y-66696260D01*
X117312068Y-66983158D01*
X117424010Y-67253411D01*
X117586525Y-67496632D01*
X117793368Y-67703475D01*
X117967760Y-67820000D01*
X117793368Y-67936525D01*
X117586525Y-68143368D01*
X117424010Y-68386589D01*
X117312068Y-68656842D01*
X117255000Y-68943740D01*
X117255000Y-69236260D01*
X117312068Y-69523158D01*
X117424010Y-69793411D01*
X117586525Y-70036632D01*
X117793368Y-70243475D01*
X117967760Y-70360000D01*
X117793368Y-70476525D01*
X117586525Y-70683368D01*
X117424010Y-70926589D01*
X117312068Y-71196842D01*
X117255000Y-71483740D01*
X117255000Y-71776260D01*
X117312068Y-72063158D01*
X117424010Y-72333411D01*
X117586525Y-72576632D01*
X117793368Y-72783475D01*
X117967760Y-72900000D01*
X117793368Y-73016525D01*
X117586525Y-73223368D01*
X117424010Y-73466589D01*
X117312068Y-73736842D01*
X117255000Y-74023740D01*
X117255000Y-74316260D01*
X117312068Y-74603158D01*
X117424010Y-74873411D01*
X117586525Y-75116632D01*
X117793368Y-75323475D01*
X117967760Y-75440000D01*
X117793368Y-75556525D01*
X117586525Y-75763368D01*
X117424010Y-76006589D01*
X117312068Y-76276842D01*
X117255000Y-76563740D01*
X117255000Y-76856260D01*
X117312068Y-77143158D01*
X117424010Y-77413411D01*
X117586525Y-77656632D01*
X117793368Y-77863475D01*
X117967760Y-77980000D01*
X117793368Y-78096525D01*
X117586525Y-78303368D01*
X117424010Y-78546589D01*
X117312068Y-78816842D01*
X117255000Y-79103740D01*
X117255000Y-79396260D01*
X117312068Y-79683158D01*
X117424010Y-79953411D01*
X117586525Y-80196632D01*
X117793368Y-80403475D01*
X118036589Y-80565990D01*
X118306842Y-80677932D01*
X118593740Y-80735000D01*
X118886260Y-80735000D01*
X119173158Y-80677932D01*
X119443411Y-80565990D01*
X119686632Y-80403475D01*
X119893475Y-80196632D01*
X120055990Y-79953411D01*
X120167932Y-79683158D01*
X120175835Y-79643424D01*
X121285000Y-79643424D01*
X121285000Y-79868576D01*
X121328925Y-80089401D01*
X121415087Y-80297413D01*
X121477619Y-80391000D01*
X121415087Y-80484587D01*
X121328925Y-80692599D01*
X121285000Y-80913424D01*
X121285000Y-81138576D01*
X121328925Y-81359401D01*
X121415087Y-81567413D01*
X121540174Y-81754620D01*
X121699380Y-81913826D01*
X121886587Y-82038913D01*
X122094599Y-82125075D01*
X122315424Y-82169000D01*
X122540576Y-82169000D01*
X122761401Y-82125075D01*
X122969413Y-82038913D01*
X123156620Y-81913826D01*
X123315826Y-81754620D01*
X123440913Y-81567413D01*
X123527075Y-81359401D01*
X123571000Y-81138576D01*
X123571000Y-80913424D01*
X123527075Y-80692599D01*
X123440913Y-80484587D01*
X123378381Y-80391000D01*
X123440913Y-80297413D01*
X123527075Y-80089401D01*
X123571000Y-79868576D01*
X123571000Y-79643424D01*
X123527075Y-79422599D01*
X123440913Y-79214587D01*
X123315826Y-79027380D01*
X123156620Y-78868174D01*
X122969413Y-78743087D01*
X122761401Y-78656925D01*
X122540576Y-78613000D01*
X122315424Y-78613000D01*
X122094599Y-78656925D01*
X121886587Y-78743087D01*
X121699380Y-78868174D01*
X121540174Y-79027380D01*
X121415087Y-79214587D01*
X121328925Y-79422599D01*
X121285000Y-79643424D01*
X120175835Y-79643424D01*
X120225000Y-79396260D01*
X120225000Y-79103740D01*
X120167932Y-78816842D01*
X120055990Y-78546589D01*
X119893475Y-78303368D01*
X119686632Y-78096525D01*
X119512240Y-77980000D01*
X119686632Y-77863475D01*
X119893475Y-77656632D01*
X120055990Y-77413411D01*
X120167932Y-77143158D01*
X120225000Y-76856260D01*
X120225000Y-76563740D01*
X120167932Y-76276842D01*
X120055990Y-76006589D01*
X119893475Y-75763368D01*
X119686632Y-75556525D01*
X119512240Y-75440000D01*
X119686632Y-75323475D01*
X119893475Y-75116632D01*
X120055990Y-74873411D01*
X120167932Y-74603158D01*
X120225000Y-74316260D01*
X120225000Y-74023740D01*
X120167932Y-73736842D01*
X120055990Y-73466589D01*
X119893475Y-73223368D01*
X119686632Y-73016525D01*
X119512240Y-72900000D01*
X119686632Y-72783475D01*
X119893475Y-72576632D01*
X120055990Y-72333411D01*
X120167932Y-72063158D01*
X120225000Y-71776260D01*
X120225000Y-71483740D01*
X120167932Y-71196842D01*
X120055990Y-70926589D01*
X119893475Y-70683368D01*
X119686632Y-70476525D01*
X119512240Y-70360000D01*
X119686632Y-70243475D01*
X119893475Y-70036632D01*
X120055990Y-69793411D01*
X120167932Y-69523158D01*
X120225000Y-69236260D01*
X120225000Y-68943740D01*
X120167932Y-68656842D01*
X120055990Y-68386589D01*
X119893475Y-68143368D01*
X119686632Y-67936525D01*
X119512240Y-67820000D01*
X119686632Y-67703475D01*
X119893475Y-67496632D01*
X120055990Y-67253411D01*
X120167932Y-66983158D01*
X120205348Y-66795052D01*
X128561000Y-66795052D01*
X128561000Y-67062948D01*
X128613264Y-67325697D01*
X128715784Y-67573201D01*
X128864619Y-67795949D01*
X129054051Y-67985381D01*
X129276799Y-68134216D01*
X129433201Y-68199000D01*
X129276799Y-68263784D01*
X129054051Y-68412619D01*
X128864619Y-68602051D01*
X128715784Y-68824799D01*
X128613264Y-69072303D01*
X128561000Y-69335052D01*
X128561000Y-69602948D01*
X128613264Y-69865697D01*
X128715784Y-70113201D01*
X128864619Y-70335949D01*
X129054051Y-70525381D01*
X129276799Y-70674216D01*
X129433201Y-70739000D01*
X129276799Y-70803784D01*
X129054051Y-70952619D01*
X128864619Y-71142051D01*
X128715784Y-71364799D01*
X128613264Y-71612303D01*
X128561000Y-71875052D01*
X128561000Y-72142948D01*
X128613264Y-72405697D01*
X128715784Y-72653201D01*
X128864619Y-72875949D01*
X129054051Y-73065381D01*
X129276799Y-73214216D01*
X129433201Y-73279000D01*
X129276799Y-73343784D01*
X129054051Y-73492619D01*
X128864619Y-73682051D01*
X128715784Y-73904799D01*
X128613264Y-74152303D01*
X128561000Y-74415052D01*
X128561000Y-74682948D01*
X128613264Y-74945697D01*
X128715784Y-75193201D01*
X128864619Y-75415949D01*
X129054051Y-75605381D01*
X129276799Y-75754216D01*
X129524303Y-75856736D01*
X129787052Y-75909000D01*
X130054948Y-75909000D01*
X130317697Y-75856736D01*
X130565201Y-75754216D01*
X130787949Y-75605381D01*
X130977381Y-75415949D01*
X131126216Y-75193201D01*
X131228736Y-74945697D01*
X131281000Y-74682948D01*
X131281000Y-74415052D01*
X131228736Y-74152303D01*
X131126216Y-73904799D01*
X130977381Y-73682051D01*
X130787949Y-73492619D01*
X130565201Y-73343784D01*
X130408799Y-73279000D01*
X130565201Y-73214216D01*
X130787949Y-73065381D01*
X130977381Y-72875949D01*
X131126216Y-72653201D01*
X131228736Y-72405697D01*
X131281000Y-72142948D01*
X131281000Y-71875052D01*
X131228736Y-71612303D01*
X131126216Y-71364799D01*
X130977381Y-71142051D01*
X130824771Y-70989441D01*
X141902000Y-70989441D01*
X141902000Y-71164559D01*
X141936164Y-71336312D01*
X142003179Y-71498099D01*
X142100469Y-71643704D01*
X142224296Y-71767531D01*
X142369901Y-71864821D01*
X142531688Y-71931836D01*
X142703441Y-71966000D01*
X142878559Y-71966000D01*
X143050312Y-71931836D01*
X143129000Y-71899242D01*
X143129000Y-71926176D01*
X143172925Y-72147001D01*
X143259087Y-72355013D01*
X143384174Y-72542220D01*
X143484601Y-72642647D01*
X143484600Y-100142547D01*
X143480792Y-100181210D01*
X143484600Y-100219873D01*
X143484600Y-100219882D01*
X143495994Y-100335566D01*
X143541018Y-100483992D01*
X143614134Y-100620781D01*
X143712531Y-100740679D01*
X143742578Y-100765338D01*
X148629853Y-105652613D01*
X148564179Y-105750901D01*
X148497164Y-105912688D01*
X148463000Y-106084441D01*
X148463000Y-106259559D01*
X148497164Y-106431312D01*
X148564179Y-106593099D01*
X148661469Y-106738704D01*
X148785296Y-106862531D01*
X148930901Y-106959821D01*
X149092688Y-107026836D01*
X149264441Y-107061000D01*
X149439559Y-107061000D01*
X149611312Y-107026836D01*
X149773099Y-106959821D01*
X149871387Y-106894147D01*
X156536667Y-113559428D01*
X156561321Y-113589469D01*
X156681218Y-113687866D01*
X156818007Y-113760982D01*
X156966433Y-113806006D01*
X157054148Y-113814645D01*
X157058901Y-113817821D01*
X157220688Y-113884836D01*
X157392441Y-113919000D01*
X157567559Y-113919000D01*
X157739312Y-113884836D01*
X157901099Y-113817821D01*
X158046704Y-113720531D01*
X158170531Y-113596704D01*
X158267821Y-113451099D01*
X158334836Y-113289312D01*
X158369000Y-113117559D01*
X158369000Y-112942441D01*
X158334836Y-112770688D01*
X158267821Y-112608901D01*
X158170531Y-112463296D01*
X158106338Y-112399103D01*
X158115000Y-112355559D01*
X158115000Y-112301739D01*
X158160975Y-112339469D01*
X158194601Y-112367065D01*
X158331390Y-112440181D01*
X158479816Y-112485205D01*
X158595500Y-112496599D01*
X158595508Y-112496599D01*
X158634173Y-112500407D01*
X158672838Y-112496599D01*
X158881049Y-112496599D01*
X159419016Y-113034567D01*
X159419164Y-113035312D01*
X159486179Y-113197099D01*
X159583469Y-113342704D01*
X159707296Y-113466531D01*
X159852901Y-113563821D01*
X160014688Y-113630836D01*
X160186441Y-113665000D01*
X160361559Y-113665000D01*
X160533312Y-113630836D01*
X160695099Y-113563821D01*
X160840704Y-113466531D01*
X160964531Y-113342704D01*
X161061821Y-113197099D01*
X161128836Y-113035312D01*
X161163000Y-112863559D01*
X161163000Y-112688441D01*
X161128836Y-112516688D01*
X161061821Y-112354901D01*
X160964531Y-112209296D01*
X160840704Y-112085469D01*
X160695099Y-111988179D01*
X160533312Y-111921164D01*
X160532567Y-111921016D01*
X160410992Y-111799441D01*
X166497000Y-111799441D01*
X166497000Y-111974559D01*
X166531164Y-112146312D01*
X166598179Y-112308099D01*
X166695469Y-112453704D01*
X166819296Y-112577531D01*
X166964901Y-112674821D01*
X167126688Y-112741836D01*
X167298441Y-112776000D01*
X167473559Y-112776000D01*
X167645312Y-112741836D01*
X167807099Y-112674821D01*
X167952704Y-112577531D01*
X168076531Y-112453704D01*
X168173821Y-112308099D01*
X168240836Y-112146312D01*
X168275000Y-111974559D01*
X168275000Y-111799441D01*
X168240836Y-111627688D01*
X168173821Y-111465901D01*
X168076531Y-111320296D01*
X167952704Y-111196469D01*
X167807099Y-111099179D01*
X167645312Y-111032164D01*
X167473559Y-110998000D01*
X167298441Y-110998000D01*
X167126688Y-111032164D01*
X166964901Y-111099179D01*
X166819296Y-111196469D01*
X166695469Y-111320296D01*
X166598179Y-111465901D01*
X166531164Y-111627688D01*
X166497000Y-111799441D01*
X160410992Y-111799441D01*
X159791326Y-111179776D01*
X159766668Y-111149730D01*
X159646771Y-111051333D01*
X159509982Y-110978217D01*
X159361556Y-110933193D01*
X159245872Y-110921799D01*
X159245862Y-110921799D01*
X159207199Y-110917991D01*
X159168536Y-110921799D01*
X158960325Y-110921799D01*
X155392967Y-107354441D01*
X157988000Y-107354441D01*
X157988000Y-107529559D01*
X158022164Y-107701312D01*
X158089179Y-107863099D01*
X158186469Y-108008704D01*
X158310296Y-108132531D01*
X158455901Y-108229821D01*
X158617688Y-108296836D01*
X158759048Y-108324954D01*
X158750000Y-108370441D01*
X158750000Y-108545559D01*
X158784164Y-108717312D01*
X158834569Y-108839000D01*
X158784164Y-108960688D01*
X158750000Y-109132441D01*
X158750000Y-109307559D01*
X158784164Y-109479312D01*
X158851179Y-109641099D01*
X158948469Y-109786704D01*
X159072296Y-109910531D01*
X159217901Y-110007821D01*
X159379688Y-110074836D01*
X159551441Y-110109000D01*
X159726559Y-110109000D01*
X159898312Y-110074836D01*
X160060099Y-110007821D01*
X160147000Y-109949756D01*
X160233901Y-110007821D01*
X160395688Y-110074836D01*
X160567441Y-110109000D01*
X160742559Y-110109000D01*
X160914312Y-110074836D01*
X161076099Y-110007821D01*
X161221704Y-109910531D01*
X161345531Y-109786704D01*
X161442821Y-109641099D01*
X161509836Y-109479312D01*
X161544000Y-109307559D01*
X161544000Y-109262431D01*
X161584099Y-109245821D01*
X161729704Y-109148531D01*
X161853531Y-109024704D01*
X161950821Y-108879099D01*
X162017836Y-108717312D01*
X162052000Y-108545559D01*
X162052000Y-108370441D01*
X162017836Y-108198688D01*
X161950821Y-108036901D01*
X161853531Y-107891296D01*
X161729704Y-107767469D01*
X161584099Y-107670179D01*
X161422312Y-107603164D01*
X161250559Y-107569000D01*
X161075441Y-107569000D01*
X160903688Y-107603164D01*
X160741901Y-107670179D01*
X160596296Y-107767469D01*
X160472469Y-107891296D01*
X160401000Y-107998257D01*
X160329531Y-107891296D01*
X160205704Y-107767469D01*
X160060099Y-107670179D01*
X159898312Y-107603164D01*
X159756952Y-107575046D01*
X159766000Y-107529559D01*
X159766000Y-107354441D01*
X159733132Y-107189200D01*
X162521759Y-107189200D01*
X162521759Y-107364318D01*
X162555923Y-107536071D01*
X162622938Y-107697858D01*
X162720228Y-107843463D01*
X162844055Y-107967290D01*
X162989660Y-108064580D01*
X163151447Y-108131595D01*
X163323200Y-108165759D01*
X163498318Y-108165759D01*
X163670071Y-108131595D01*
X163831858Y-108064580D01*
X163977463Y-107967290D01*
X164101290Y-107843463D01*
X164118016Y-107818430D01*
X164084000Y-107989441D01*
X164084000Y-108164559D01*
X164118164Y-108336312D01*
X164185179Y-108498099D01*
X164282469Y-108643704D01*
X164406296Y-108767531D01*
X164551901Y-108864821D01*
X164713688Y-108931836D01*
X164885441Y-108966000D01*
X165060559Y-108966000D01*
X165232312Y-108931836D01*
X165394099Y-108864821D01*
X165539704Y-108767531D01*
X165663531Y-108643704D01*
X165760821Y-108498099D01*
X165827836Y-108336312D01*
X165862000Y-108164559D01*
X165862000Y-107989441D01*
X165827836Y-107817688D01*
X165760821Y-107655901D01*
X165663531Y-107510296D01*
X165539704Y-107386469D01*
X165394099Y-107289179D01*
X165232312Y-107222164D01*
X165060559Y-107188000D01*
X164885441Y-107188000D01*
X164713688Y-107222164D01*
X164551901Y-107289179D01*
X164406296Y-107386469D01*
X164282469Y-107510296D01*
X164265743Y-107535329D01*
X164299759Y-107364318D01*
X164299759Y-107189200D01*
X164265595Y-107017447D01*
X164198580Y-106855660D01*
X164101290Y-106710055D01*
X163977463Y-106586228D01*
X163831858Y-106488938D01*
X163670071Y-106421923D01*
X163498318Y-106387759D01*
X163323200Y-106387759D01*
X163151447Y-106421923D01*
X162989660Y-106488938D01*
X162844055Y-106586228D01*
X162720228Y-106710055D01*
X162622938Y-106855660D01*
X162555923Y-107017447D01*
X162521759Y-107189200D01*
X159733132Y-107189200D01*
X159731836Y-107182688D01*
X159664821Y-107020901D01*
X159567531Y-106875296D01*
X159443704Y-106751469D01*
X159298099Y-106654179D01*
X159136312Y-106587164D01*
X158964559Y-106553000D01*
X158789441Y-106553000D01*
X158617688Y-106587164D01*
X158455901Y-106654179D01*
X158310296Y-106751469D01*
X158186469Y-106875296D01*
X158089179Y-107020901D01*
X158022164Y-107182688D01*
X157988000Y-107354441D01*
X155392967Y-107354441D01*
X153106967Y-105068441D01*
X159639000Y-105068441D01*
X159639000Y-105243559D01*
X159673164Y-105415312D01*
X159740179Y-105577099D01*
X159837469Y-105722704D01*
X159961296Y-105846531D01*
X160106901Y-105943821D01*
X160268688Y-106010836D01*
X160440441Y-106045000D01*
X160615559Y-106045000D01*
X160787312Y-106010836D01*
X160949099Y-105943821D01*
X161094704Y-105846531D01*
X161218531Y-105722704D01*
X161315821Y-105577099D01*
X161382836Y-105415312D01*
X161417000Y-105243559D01*
X161417000Y-105068441D01*
X161382836Y-104896688D01*
X161315821Y-104734901D01*
X161218531Y-104589296D01*
X161094704Y-104465469D01*
X160949099Y-104368179D01*
X160787312Y-104301164D01*
X160615559Y-104267000D01*
X160440441Y-104267000D01*
X160268688Y-104301164D01*
X160106901Y-104368179D01*
X159961296Y-104465469D01*
X159837469Y-104589296D01*
X159740179Y-104734901D01*
X159673164Y-104896688D01*
X159639000Y-105068441D01*
X153106967Y-105068441D01*
X152090966Y-104052441D01*
X157861000Y-104052441D01*
X157861000Y-104227559D01*
X157895164Y-104399312D01*
X157962179Y-104561099D01*
X158059469Y-104706704D01*
X158183296Y-104830531D01*
X158328901Y-104927821D01*
X158490688Y-104994836D01*
X158662441Y-105029000D01*
X158837559Y-105029000D01*
X159009312Y-104994836D01*
X159171099Y-104927821D01*
X159316704Y-104830531D01*
X159440531Y-104706704D01*
X159537821Y-104561099D01*
X159604836Y-104399312D01*
X159639000Y-104227559D01*
X159639000Y-104052441D01*
X159604836Y-103880688D01*
X159537821Y-103718901D01*
X159440531Y-103573296D01*
X159316704Y-103449469D01*
X159171099Y-103352179D01*
X159009312Y-103285164D01*
X158837559Y-103251000D01*
X158662441Y-103251000D01*
X158490688Y-103285164D01*
X158328901Y-103352179D01*
X158183296Y-103449469D01*
X158059469Y-103573296D01*
X157962179Y-103718901D01*
X157895164Y-103880688D01*
X157861000Y-104052441D01*
X152090966Y-104052441D01*
X151201966Y-103163441D01*
X168910000Y-103163441D01*
X168910000Y-103338559D01*
X168944164Y-103510312D01*
X169011179Y-103672099D01*
X169108469Y-103817704D01*
X169232296Y-103941531D01*
X169377901Y-104038821D01*
X169539688Y-104105836D01*
X169711441Y-104140000D01*
X169886559Y-104140000D01*
X170058312Y-104105836D01*
X170220099Y-104038821D01*
X170365704Y-103941531D01*
X170489531Y-103817704D01*
X170586821Y-103672099D01*
X170653836Y-103510312D01*
X170688000Y-103338559D01*
X170688000Y-103163441D01*
X170653836Y-102991688D01*
X170586821Y-102829901D01*
X170489531Y-102684296D01*
X170365704Y-102560469D01*
X170220099Y-102463179D01*
X170058312Y-102396164D01*
X169886559Y-102362000D01*
X169711441Y-102362000D01*
X169539688Y-102396164D01*
X169377901Y-102463179D01*
X169232296Y-102560469D01*
X169108469Y-102684296D01*
X169011179Y-102829901D01*
X168944164Y-102991688D01*
X168910000Y-103163441D01*
X151201966Y-103163441D01*
X147899966Y-99861441D01*
X167640000Y-99861441D01*
X167640000Y-100036559D01*
X167674164Y-100208312D01*
X167741179Y-100370099D01*
X167838469Y-100515704D01*
X167962296Y-100639531D01*
X168107901Y-100736821D01*
X168269688Y-100803836D01*
X168441441Y-100838000D01*
X168616559Y-100838000D01*
X168788312Y-100803836D01*
X168950099Y-100736821D01*
X169095704Y-100639531D01*
X169219531Y-100515704D01*
X169316821Y-100370099D01*
X169369699Y-100242441D01*
X173609000Y-100242441D01*
X173609000Y-100417559D01*
X173643164Y-100589312D01*
X173710179Y-100751099D01*
X173807469Y-100896704D01*
X173931296Y-101020531D01*
X174076901Y-101117821D01*
X174238688Y-101184836D01*
X174410441Y-101219000D01*
X174585559Y-101219000D01*
X174757312Y-101184836D01*
X174919099Y-101117821D01*
X175064704Y-101020531D01*
X175188531Y-100896704D01*
X175285821Y-100751099D01*
X175352836Y-100589312D01*
X175387000Y-100417559D01*
X175387000Y-100242441D01*
X175352836Y-100070688D01*
X175285821Y-99908901D01*
X175188531Y-99763296D01*
X175064704Y-99639469D01*
X174919099Y-99542179D01*
X174757312Y-99475164D01*
X174585559Y-99441000D01*
X174410441Y-99441000D01*
X174238688Y-99475164D01*
X174076901Y-99542179D01*
X173931296Y-99639469D01*
X173807469Y-99763296D01*
X173710179Y-99908901D01*
X173643164Y-100070688D01*
X173609000Y-100242441D01*
X169369699Y-100242441D01*
X169383836Y-100208312D01*
X169418000Y-100036559D01*
X169418000Y-99861441D01*
X169383836Y-99689688D01*
X169316821Y-99527901D01*
X169219531Y-99382296D01*
X169095704Y-99258469D01*
X168950099Y-99161179D01*
X168788312Y-99094164D01*
X168616559Y-99060000D01*
X168441441Y-99060000D01*
X168269688Y-99094164D01*
X168107901Y-99161179D01*
X167962296Y-99258469D01*
X167838469Y-99382296D01*
X167741179Y-99527901D01*
X167674164Y-99689688D01*
X167640000Y-99861441D01*
X147899966Y-99861441D01*
X147010525Y-98972000D01*
X178597928Y-98972000D01*
X178597928Y-100672000D01*
X178610188Y-100796482D01*
X178646498Y-100916180D01*
X178705463Y-101026494D01*
X178784815Y-101123185D01*
X178881506Y-101202537D01*
X178991820Y-101261502D01*
X179111518Y-101297812D01*
X179236000Y-101310072D01*
X180936000Y-101310072D01*
X181060482Y-101297812D01*
X181180180Y-101261502D01*
X181290494Y-101202537D01*
X181387185Y-101123185D01*
X181466537Y-101026494D01*
X181525502Y-100916180D01*
X181561812Y-100796482D01*
X181574072Y-100672000D01*
X181574072Y-98972000D01*
X181561812Y-98847518D01*
X181525502Y-98727820D01*
X181466537Y-98617506D01*
X181387185Y-98520815D01*
X181290494Y-98441463D01*
X181180180Y-98382498D01*
X181107620Y-98360487D01*
X181239475Y-98228632D01*
X181401990Y-97985411D01*
X181513932Y-97715158D01*
X181571000Y-97428260D01*
X181571000Y-97135740D01*
X181513932Y-96848842D01*
X181401990Y-96578589D01*
X181239475Y-96335368D01*
X181032632Y-96128525D01*
X180858240Y-96012000D01*
X181032632Y-95895475D01*
X181239475Y-95688632D01*
X181401990Y-95445411D01*
X181513932Y-95175158D01*
X181571000Y-94888260D01*
X181571000Y-94595740D01*
X181513932Y-94308842D01*
X181401990Y-94038589D01*
X181239475Y-93795368D01*
X181032632Y-93588525D01*
X180858240Y-93472000D01*
X181032632Y-93355475D01*
X181239475Y-93148632D01*
X181401990Y-92905411D01*
X181513932Y-92635158D01*
X181571000Y-92348260D01*
X181571000Y-92055740D01*
X181513932Y-91768842D01*
X181401990Y-91498589D01*
X181239475Y-91255368D01*
X181032632Y-91048525D01*
X180789411Y-90886010D01*
X180519158Y-90774068D01*
X180232260Y-90717000D01*
X179939740Y-90717000D01*
X179652842Y-90774068D01*
X179382589Y-90886010D01*
X179139368Y-91048525D01*
X178932525Y-91255368D01*
X178770010Y-91498589D01*
X178658068Y-91768842D01*
X178601000Y-92055740D01*
X178601000Y-92348260D01*
X178658068Y-92635158D01*
X178770010Y-92905411D01*
X178932525Y-93148632D01*
X179139368Y-93355475D01*
X179313760Y-93472000D01*
X179139368Y-93588525D01*
X178932525Y-93795368D01*
X178770010Y-94038589D01*
X178658068Y-94308842D01*
X178601000Y-94595740D01*
X178601000Y-94888260D01*
X178658068Y-95175158D01*
X178770010Y-95445411D01*
X178932525Y-95688632D01*
X179139368Y-95895475D01*
X179313760Y-96012000D01*
X179139368Y-96128525D01*
X178932525Y-96335368D01*
X178770010Y-96578589D01*
X178658068Y-96848842D01*
X178601000Y-97135740D01*
X178601000Y-97428260D01*
X178658068Y-97715158D01*
X178770010Y-97985411D01*
X178932525Y-98228632D01*
X179064380Y-98360487D01*
X178991820Y-98382498D01*
X178881506Y-98441463D01*
X178784815Y-98520815D01*
X178705463Y-98617506D01*
X178646498Y-98727820D01*
X178610188Y-98847518D01*
X178597928Y-98972000D01*
X147010525Y-98972000D01*
X145872201Y-97833677D01*
X145872201Y-97194441D01*
X158369000Y-97194441D01*
X158369000Y-97369559D01*
X158403164Y-97541312D01*
X158470179Y-97703099D01*
X158567469Y-97848704D01*
X158691296Y-97972531D01*
X158836901Y-98069821D01*
X158998688Y-98136836D01*
X159170441Y-98171000D01*
X159345559Y-98171000D01*
X159517312Y-98136836D01*
X159679099Y-98069821D01*
X159731844Y-98034578D01*
X159740179Y-98054699D01*
X159837469Y-98200304D01*
X159961296Y-98324131D01*
X160106901Y-98421421D01*
X160268688Y-98488436D01*
X160440441Y-98522600D01*
X160615559Y-98522600D01*
X160787312Y-98488436D01*
X160949099Y-98421421D01*
X161094704Y-98324131D01*
X161218531Y-98200304D01*
X161315821Y-98054699D01*
X161382836Y-97892912D01*
X161417000Y-97721159D01*
X161417000Y-97546041D01*
X161382836Y-97374288D01*
X161315821Y-97212501D01*
X161218531Y-97066896D01*
X161094704Y-96943069D01*
X160949099Y-96845779D01*
X160787312Y-96778764D01*
X160615559Y-96744600D01*
X160440441Y-96744600D01*
X160268688Y-96778764D01*
X160106901Y-96845779D01*
X160054156Y-96881022D01*
X160045821Y-96860901D01*
X159948531Y-96715296D01*
X159824704Y-96591469D01*
X159679099Y-96494179D01*
X159517312Y-96427164D01*
X159345559Y-96393000D01*
X159170441Y-96393000D01*
X158998688Y-96427164D01*
X158836901Y-96494179D01*
X158691296Y-96591469D01*
X158567469Y-96715296D01*
X158470179Y-96860901D01*
X158403164Y-97022688D01*
X158369000Y-97194441D01*
X145872201Y-97194441D01*
X145872201Y-92563740D01*
X146089000Y-92563740D01*
X146089000Y-92856260D01*
X146146068Y-93143158D01*
X146258010Y-93413411D01*
X146420525Y-93656632D01*
X146627368Y-93863475D01*
X146870589Y-94025990D01*
X147140842Y-94137932D01*
X147427740Y-94195000D01*
X147720260Y-94195000D01*
X148007158Y-94137932D01*
X148277411Y-94025990D01*
X148520632Y-93863475D01*
X148652487Y-93731620D01*
X148674498Y-93804180D01*
X148733463Y-93914494D01*
X148812815Y-94011185D01*
X148909506Y-94090537D01*
X149019820Y-94149502D01*
X149139518Y-94185812D01*
X149264000Y-94198072D01*
X150964000Y-94198072D01*
X151088482Y-94185812D01*
X151208180Y-94149502D01*
X151318494Y-94090537D01*
X151405125Y-94019441D01*
X171069000Y-94019441D01*
X171069000Y-94194559D01*
X171103164Y-94366312D01*
X171170179Y-94528099D01*
X171267469Y-94673704D01*
X171391296Y-94797531D01*
X171536901Y-94894821D01*
X171698688Y-94961836D01*
X171870441Y-94996000D01*
X172045559Y-94996000D01*
X172217312Y-94961836D01*
X172379099Y-94894821D01*
X172524704Y-94797531D01*
X172648531Y-94673704D01*
X172745821Y-94528099D01*
X172812836Y-94366312D01*
X172847000Y-94194559D01*
X172847000Y-94019441D01*
X172812836Y-93847688D01*
X172745821Y-93685901D01*
X172648531Y-93540296D01*
X172524704Y-93416469D01*
X172379099Y-93319179D01*
X172217312Y-93252164D01*
X172045559Y-93218000D01*
X171870441Y-93218000D01*
X171698688Y-93252164D01*
X171536901Y-93319179D01*
X171391296Y-93416469D01*
X171267469Y-93540296D01*
X171170179Y-93685901D01*
X171103164Y-93847688D01*
X171069000Y-94019441D01*
X151405125Y-94019441D01*
X151415185Y-94011185D01*
X151494537Y-93914494D01*
X151553502Y-93804180D01*
X151589812Y-93684482D01*
X151602072Y-93560000D01*
X151602072Y-91860441D01*
X159131000Y-91860441D01*
X159131000Y-92035559D01*
X159165164Y-92207312D01*
X159232179Y-92369099D01*
X159329469Y-92514704D01*
X159453296Y-92638531D01*
X159598901Y-92735821D01*
X159760688Y-92802836D01*
X159932441Y-92837000D01*
X160107559Y-92837000D01*
X160279312Y-92802836D01*
X160441099Y-92735821D01*
X160586704Y-92638531D01*
X160710531Y-92514704D01*
X160807821Y-92369099D01*
X160874836Y-92207312D01*
X160909000Y-92035559D01*
X160909000Y-91860441D01*
X160874836Y-91688688D01*
X160807821Y-91526901D01*
X160710531Y-91381296D01*
X160586704Y-91257469D01*
X160441099Y-91160179D01*
X160292052Y-91098441D01*
X162687000Y-91098441D01*
X162687000Y-91273559D01*
X162721164Y-91445312D01*
X162788179Y-91607099D01*
X162885469Y-91752704D01*
X163009296Y-91876531D01*
X163154901Y-91973821D01*
X163316688Y-92040836D01*
X163488441Y-92075000D01*
X163663559Y-92075000D01*
X163835312Y-92040836D01*
X163997099Y-91973821D01*
X164142704Y-91876531D01*
X164266531Y-91752704D01*
X164363821Y-91607099D01*
X164430836Y-91445312D01*
X164465000Y-91273559D01*
X164465000Y-91225441D01*
X173482000Y-91225441D01*
X173482000Y-91400559D01*
X173516164Y-91572312D01*
X173583179Y-91734099D01*
X173680469Y-91879704D01*
X173804296Y-92003531D01*
X173949901Y-92100821D01*
X174111688Y-92167836D01*
X174283441Y-92202000D01*
X174458559Y-92202000D01*
X174630312Y-92167836D01*
X174792099Y-92100821D01*
X174937704Y-92003531D01*
X175061531Y-91879704D01*
X175158821Y-91734099D01*
X175225836Y-91572312D01*
X175260000Y-91400559D01*
X175260000Y-91225441D01*
X175225836Y-91053688D01*
X175158821Y-90891901D01*
X175061531Y-90746296D01*
X174937704Y-90622469D01*
X174792099Y-90525179D01*
X174630312Y-90458164D01*
X174458559Y-90424000D01*
X174283441Y-90424000D01*
X174111688Y-90458164D01*
X173949901Y-90525179D01*
X173804296Y-90622469D01*
X173680469Y-90746296D01*
X173583179Y-90891901D01*
X173516164Y-91053688D01*
X173482000Y-91225441D01*
X164465000Y-91225441D01*
X164465000Y-91098441D01*
X164430836Y-90926688D01*
X164363821Y-90764901D01*
X164266531Y-90619296D01*
X164142704Y-90495469D01*
X163997099Y-90398179D01*
X163835312Y-90331164D01*
X163663559Y-90297000D01*
X163488441Y-90297000D01*
X163316688Y-90331164D01*
X163154901Y-90398179D01*
X163009296Y-90495469D01*
X162885469Y-90619296D01*
X162788179Y-90764901D01*
X162721164Y-90926688D01*
X162687000Y-91098441D01*
X160292052Y-91098441D01*
X160279312Y-91093164D01*
X160107559Y-91059000D01*
X159932441Y-91059000D01*
X159760688Y-91093164D01*
X159598901Y-91160179D01*
X159453296Y-91257469D01*
X159329469Y-91381296D01*
X159232179Y-91526901D01*
X159165164Y-91688688D01*
X159131000Y-91860441D01*
X151602072Y-91860441D01*
X151602072Y-91860000D01*
X151589812Y-91735518D01*
X151553502Y-91615820D01*
X151494537Y-91505506D01*
X151415185Y-91408815D01*
X151318494Y-91329463D01*
X151208180Y-91270498D01*
X151088482Y-91234188D01*
X150964000Y-91221928D01*
X149264000Y-91221928D01*
X149139518Y-91234188D01*
X149019820Y-91270498D01*
X148909506Y-91329463D01*
X148812815Y-91408815D01*
X148733463Y-91505506D01*
X148674498Y-91615820D01*
X148652487Y-91688380D01*
X148520632Y-91556525D01*
X148277411Y-91394010D01*
X148007158Y-91282068D01*
X147720260Y-91225000D01*
X147427740Y-91225000D01*
X147140842Y-91282068D01*
X146870589Y-91394010D01*
X146627368Y-91556525D01*
X146420525Y-91763368D01*
X146258010Y-92006589D01*
X146146068Y-92276842D01*
X146089000Y-92563740D01*
X145872201Y-92563740D01*
X145872201Y-89828441D01*
X147955000Y-89828441D01*
X147955000Y-90003559D01*
X147989164Y-90175312D01*
X148056179Y-90337099D01*
X148153469Y-90482704D01*
X148277296Y-90606531D01*
X148422901Y-90703821D01*
X148584688Y-90770836D01*
X148756441Y-90805000D01*
X148931559Y-90805000D01*
X149103312Y-90770836D01*
X149265099Y-90703821D01*
X149410704Y-90606531D01*
X149534531Y-90482704D01*
X149631821Y-90337099D01*
X149698836Y-90175312D01*
X149733000Y-90003559D01*
X149733000Y-89828441D01*
X149698836Y-89656688D01*
X149631821Y-89494901D01*
X149534531Y-89349296D01*
X149410704Y-89225469D01*
X149265099Y-89128179D01*
X149103312Y-89061164D01*
X148931559Y-89027000D01*
X148756441Y-89027000D01*
X148584688Y-89061164D01*
X148422901Y-89128179D01*
X148277296Y-89225469D01*
X148153469Y-89349296D01*
X148056179Y-89494901D01*
X147989164Y-89656688D01*
X147955000Y-89828441D01*
X145872201Y-89828441D01*
X145872201Y-88431441D01*
X157607000Y-88431441D01*
X157607000Y-88606559D01*
X157641164Y-88778312D01*
X157708179Y-88940099D01*
X157805469Y-89085704D01*
X157929296Y-89209531D01*
X158074901Y-89306821D01*
X158236688Y-89373836D01*
X158408441Y-89408000D01*
X158583559Y-89408000D01*
X158755312Y-89373836D01*
X158917099Y-89306821D01*
X159062704Y-89209531D01*
X159186531Y-89085704D01*
X159283821Y-88940099D01*
X159350836Y-88778312D01*
X159385000Y-88606559D01*
X159385000Y-88431441D01*
X159350836Y-88259688D01*
X159316768Y-88177441D01*
X159385000Y-88177441D01*
X159385000Y-88352559D01*
X159419164Y-88524312D01*
X159486179Y-88686099D01*
X159583469Y-88831704D01*
X159707296Y-88955531D01*
X159852901Y-89052821D01*
X160014688Y-89119836D01*
X160186441Y-89154000D01*
X160361559Y-89154000D01*
X160533312Y-89119836D01*
X160695099Y-89052821D01*
X160840704Y-88955531D01*
X160964531Y-88831704D01*
X161061821Y-88686099D01*
X161128836Y-88524312D01*
X161163000Y-88352559D01*
X161163000Y-88245740D01*
X168949000Y-88245740D01*
X168949000Y-88538260D01*
X169006068Y-88825158D01*
X169118010Y-89095411D01*
X169280525Y-89338632D01*
X169487368Y-89545475D01*
X169730589Y-89707990D01*
X170000842Y-89819932D01*
X170287740Y-89877000D01*
X170580260Y-89877000D01*
X170867158Y-89819932D01*
X171137411Y-89707990D01*
X171380632Y-89545475D01*
X171587475Y-89338632D01*
X171704000Y-89164240D01*
X171820525Y-89338632D01*
X172027368Y-89545475D01*
X172270589Y-89707990D01*
X172540842Y-89819932D01*
X172827740Y-89877000D01*
X173120260Y-89877000D01*
X173407158Y-89819932D01*
X173677411Y-89707990D01*
X173920632Y-89545475D01*
X174127475Y-89338632D01*
X174244000Y-89164240D01*
X174360525Y-89338632D01*
X174567368Y-89545475D01*
X174810589Y-89707990D01*
X175080842Y-89819932D01*
X175367740Y-89877000D01*
X175660260Y-89877000D01*
X175947158Y-89819932D01*
X176217411Y-89707990D01*
X176460632Y-89545475D01*
X176592487Y-89413620D01*
X176614498Y-89486180D01*
X176673463Y-89596494D01*
X176752815Y-89693185D01*
X176849506Y-89772537D01*
X176959820Y-89831502D01*
X177079518Y-89867812D01*
X177204000Y-89880072D01*
X177768250Y-89877000D01*
X177927000Y-89718250D01*
X177927000Y-88519000D01*
X178181000Y-88519000D01*
X178181000Y-89718250D01*
X178339750Y-89877000D01*
X178904000Y-89880072D01*
X179028482Y-89867812D01*
X179148180Y-89831502D01*
X179258494Y-89772537D01*
X179355185Y-89693185D01*
X179434537Y-89596494D01*
X179493502Y-89486180D01*
X179529812Y-89366482D01*
X179542072Y-89242000D01*
X179539000Y-88677750D01*
X179380250Y-88519000D01*
X178181000Y-88519000D01*
X177927000Y-88519000D01*
X177907000Y-88519000D01*
X177907000Y-88265000D01*
X177927000Y-88265000D01*
X177927000Y-87065750D01*
X178181000Y-87065750D01*
X178181000Y-88265000D01*
X179380250Y-88265000D01*
X179539000Y-88106250D01*
X179542072Y-87542000D01*
X179529812Y-87417518D01*
X179493502Y-87297820D01*
X179434537Y-87187506D01*
X179355185Y-87090815D01*
X179258494Y-87011463D01*
X179148180Y-86952498D01*
X179028482Y-86916188D01*
X178904000Y-86903928D01*
X178339750Y-86907000D01*
X178181000Y-87065750D01*
X177927000Y-87065750D01*
X177768250Y-86907000D01*
X177204000Y-86903928D01*
X177079518Y-86916188D01*
X176959820Y-86952498D01*
X176849506Y-87011463D01*
X176752815Y-87090815D01*
X176673463Y-87187506D01*
X176614498Y-87297820D01*
X176592487Y-87370380D01*
X176460632Y-87238525D01*
X176217411Y-87076010D01*
X175947158Y-86964068D01*
X175660260Y-86907000D01*
X175367740Y-86907000D01*
X175080842Y-86964068D01*
X174810589Y-87076010D01*
X174567368Y-87238525D01*
X174360525Y-87445368D01*
X174244000Y-87619760D01*
X174127475Y-87445368D01*
X173920632Y-87238525D01*
X173677411Y-87076010D01*
X173407158Y-86964068D01*
X173120260Y-86907000D01*
X172827740Y-86907000D01*
X172540842Y-86964068D01*
X172270589Y-87076010D01*
X172027368Y-87238525D01*
X171820525Y-87445368D01*
X171704000Y-87619760D01*
X171587475Y-87445368D01*
X171380632Y-87238525D01*
X171137411Y-87076010D01*
X170867158Y-86964068D01*
X170580260Y-86907000D01*
X170287740Y-86907000D01*
X170000842Y-86964068D01*
X169730589Y-87076010D01*
X169487368Y-87238525D01*
X169280525Y-87445368D01*
X169118010Y-87688589D01*
X169006068Y-87958842D01*
X168949000Y-88245740D01*
X161163000Y-88245740D01*
X161163000Y-88177441D01*
X161128836Y-88005688D01*
X161061821Y-87843901D01*
X160964531Y-87698296D01*
X160840704Y-87574469D01*
X160695099Y-87477179D01*
X160533312Y-87410164D01*
X160361559Y-87376000D01*
X160186441Y-87376000D01*
X160014688Y-87410164D01*
X159852901Y-87477179D01*
X159707296Y-87574469D01*
X159583469Y-87698296D01*
X159486179Y-87843901D01*
X159419164Y-88005688D01*
X159385000Y-88177441D01*
X159316768Y-88177441D01*
X159283821Y-88097901D01*
X159186531Y-87952296D01*
X159062704Y-87828469D01*
X158917099Y-87731179D01*
X158755312Y-87664164D01*
X158583559Y-87630000D01*
X158408441Y-87630000D01*
X158236688Y-87664164D01*
X158074901Y-87731179D01*
X157929296Y-87828469D01*
X157805469Y-87952296D01*
X157708179Y-88097901D01*
X157641164Y-88259688D01*
X157607000Y-88431441D01*
X145872201Y-88431441D01*
X145872201Y-84367441D01*
X151892000Y-84367441D01*
X151892000Y-84542559D01*
X151926164Y-84714312D01*
X151993179Y-84876099D01*
X152090469Y-85021704D01*
X152214296Y-85145531D01*
X152359901Y-85242821D01*
X152521688Y-85309836D01*
X152693441Y-85344000D01*
X152868559Y-85344000D01*
X153040312Y-85309836D01*
X153202099Y-85242821D01*
X153347704Y-85145531D01*
X153471531Y-85021704D01*
X153568821Y-84876099D01*
X153621699Y-84748441D01*
X156464000Y-84748441D01*
X156464000Y-84923559D01*
X156498164Y-85095312D01*
X156565179Y-85257099D01*
X156662469Y-85402704D01*
X156786296Y-85526531D01*
X156931901Y-85623821D01*
X157093688Y-85690836D01*
X157265441Y-85725000D01*
X157440559Y-85725000D01*
X157612312Y-85690836D01*
X157774099Y-85623821D01*
X157919704Y-85526531D01*
X158043531Y-85402704D01*
X158140821Y-85257099D01*
X158207836Y-85095312D01*
X158242000Y-84923559D01*
X158242000Y-84875441D01*
X166243000Y-84875441D01*
X166243000Y-85050559D01*
X166277164Y-85222312D01*
X166344179Y-85384099D01*
X166441469Y-85529704D01*
X166565296Y-85653531D01*
X166710901Y-85750821D01*
X166872688Y-85817836D01*
X167044441Y-85852000D01*
X167219559Y-85852000D01*
X167391312Y-85817836D01*
X167553099Y-85750821D01*
X167698704Y-85653531D01*
X167822531Y-85529704D01*
X167919821Y-85384099D01*
X167986836Y-85222312D01*
X168021000Y-85050559D01*
X168021000Y-84875441D01*
X167986836Y-84703688D01*
X167982625Y-84693521D01*
X168060441Y-84709000D01*
X168235559Y-84709000D01*
X168407312Y-84674836D01*
X168569099Y-84607821D01*
X168714704Y-84510531D01*
X168838531Y-84386704D01*
X168935821Y-84241099D01*
X169002836Y-84079312D01*
X169037000Y-83907559D01*
X169037000Y-83732441D01*
X169002836Y-83560688D01*
X168935821Y-83398901D01*
X168838531Y-83253296D01*
X168714704Y-83129469D01*
X168569099Y-83032179D01*
X168407312Y-82965164D01*
X168235559Y-82931000D01*
X168060441Y-82931000D01*
X167888688Y-82965164D01*
X167726901Y-83032179D01*
X167581296Y-83129469D01*
X167457469Y-83253296D01*
X167360179Y-83398901D01*
X167293164Y-83560688D01*
X167259000Y-83732441D01*
X167259000Y-83907559D01*
X167293164Y-84079312D01*
X167297375Y-84089479D01*
X167219559Y-84074000D01*
X167044441Y-84074000D01*
X166872688Y-84108164D01*
X166710901Y-84175179D01*
X166565296Y-84272469D01*
X166441469Y-84396296D01*
X166344179Y-84541901D01*
X166277164Y-84703688D01*
X166243000Y-84875441D01*
X158242000Y-84875441D01*
X158242000Y-84748441D01*
X158207836Y-84576688D01*
X158140821Y-84414901D01*
X158043531Y-84269296D01*
X157919704Y-84145469D01*
X157774099Y-84048179D01*
X157612312Y-83981164D01*
X157440559Y-83947000D01*
X157265441Y-83947000D01*
X157093688Y-83981164D01*
X156931901Y-84048179D01*
X156786296Y-84145469D01*
X156662469Y-84269296D01*
X156565179Y-84414901D01*
X156498164Y-84576688D01*
X156464000Y-84748441D01*
X153621699Y-84748441D01*
X153635836Y-84714312D01*
X153670000Y-84542559D01*
X153670000Y-84367441D01*
X153635836Y-84195688D01*
X153568821Y-84033901D01*
X153471531Y-83888296D01*
X153347704Y-83764469D01*
X153299771Y-83732441D01*
X161671000Y-83732441D01*
X161671000Y-83907559D01*
X161705164Y-84079312D01*
X161772179Y-84241099D01*
X161869469Y-84386704D01*
X161993296Y-84510531D01*
X162138901Y-84607821D01*
X162300688Y-84674836D01*
X162472441Y-84709000D01*
X162647559Y-84709000D01*
X162819312Y-84674836D01*
X162981099Y-84607821D01*
X163126704Y-84510531D01*
X163250531Y-84386704D01*
X163347821Y-84241099D01*
X163414836Y-84079312D01*
X163449000Y-83907559D01*
X163449000Y-83732441D01*
X163443946Y-83707031D01*
X164465000Y-83707031D01*
X164465000Y-83882149D01*
X164499164Y-84053902D01*
X164566179Y-84215689D01*
X164663469Y-84361294D01*
X164787296Y-84485121D01*
X164932901Y-84582411D01*
X165094688Y-84649426D01*
X165266441Y-84683590D01*
X165441559Y-84683590D01*
X165613312Y-84649426D01*
X165775099Y-84582411D01*
X165920704Y-84485121D01*
X166044531Y-84361294D01*
X166141821Y-84215689D01*
X166208836Y-84053902D01*
X166243000Y-83882149D01*
X166243000Y-83707031D01*
X166208836Y-83535278D01*
X166141821Y-83373491D01*
X166044531Y-83227886D01*
X165920704Y-83104059D01*
X165775099Y-83006769D01*
X165613312Y-82939754D01*
X165441559Y-82905590D01*
X165266441Y-82905590D01*
X165094688Y-82939754D01*
X164932901Y-83006769D01*
X164787296Y-83104059D01*
X164663469Y-83227886D01*
X164566179Y-83373491D01*
X164499164Y-83535278D01*
X164465000Y-83707031D01*
X163443946Y-83707031D01*
X163414836Y-83560688D01*
X163347821Y-83398901D01*
X163250531Y-83253296D01*
X163126704Y-83129469D01*
X162981099Y-83032179D01*
X162819312Y-82965164D01*
X162647559Y-82931000D01*
X162472441Y-82931000D01*
X162300688Y-82965164D01*
X162138901Y-83032179D01*
X161993296Y-83129469D01*
X161869469Y-83253296D01*
X161772179Y-83398901D01*
X161705164Y-83560688D01*
X161671000Y-83732441D01*
X153299771Y-83732441D01*
X153202099Y-83667179D01*
X153040312Y-83600164D01*
X152868559Y-83566000D01*
X152693441Y-83566000D01*
X152521688Y-83600164D01*
X152359901Y-83667179D01*
X152214296Y-83764469D01*
X152090469Y-83888296D01*
X151993179Y-84033901D01*
X151926164Y-84195688D01*
X151892000Y-84367441D01*
X145872201Y-84367441D01*
X145872201Y-81065441D01*
X148590000Y-81065441D01*
X148590000Y-81240559D01*
X148624164Y-81412312D01*
X148691179Y-81574099D01*
X148788469Y-81719704D01*
X148912296Y-81843531D01*
X149057901Y-81940821D01*
X149219688Y-82007836D01*
X149391441Y-82042000D01*
X149566559Y-82042000D01*
X149738312Y-82007836D01*
X149900099Y-81940821D01*
X150045704Y-81843531D01*
X150169531Y-81719704D01*
X150266821Y-81574099D01*
X150333836Y-81412312D01*
X150368000Y-81240559D01*
X150368000Y-81065441D01*
X150333836Y-80893688D01*
X150266821Y-80731901D01*
X150169531Y-80586296D01*
X150045704Y-80462469D01*
X149900099Y-80365179D01*
X149738312Y-80298164D01*
X149566559Y-80264000D01*
X149391441Y-80264000D01*
X149219688Y-80298164D01*
X149057901Y-80365179D01*
X148912296Y-80462469D01*
X148788469Y-80586296D01*
X148691179Y-80731901D01*
X148624164Y-80893688D01*
X148590000Y-81065441D01*
X145872201Y-81065441D01*
X145872201Y-78906441D01*
X152654000Y-78906441D01*
X152654000Y-79081559D01*
X152688164Y-79253312D01*
X152755179Y-79415099D01*
X152852469Y-79560704D01*
X152976296Y-79684531D01*
X153121901Y-79781821D01*
X153283688Y-79848836D01*
X153455441Y-79883000D01*
X153630559Y-79883000D01*
X153802312Y-79848836D01*
X153964099Y-79781821D01*
X154109704Y-79684531D01*
X154116085Y-79678150D01*
X154122469Y-79687704D01*
X154246296Y-79811531D01*
X154258222Y-79819500D01*
X154246296Y-79827469D01*
X154122469Y-79951296D01*
X154025179Y-80096901D01*
X153958164Y-80258688D01*
X153924000Y-80430441D01*
X153924000Y-80605559D01*
X153958164Y-80777312D01*
X154025179Y-80939099D01*
X154122469Y-81084704D01*
X154246296Y-81208531D01*
X154391901Y-81305821D01*
X154553688Y-81372836D01*
X154725441Y-81407000D01*
X154900559Y-81407000D01*
X155072312Y-81372836D01*
X155234099Y-81305821D01*
X155379704Y-81208531D01*
X155503531Y-81084704D01*
X155600821Y-80939099D01*
X155641117Y-80841817D01*
X155696688Y-80864836D01*
X155779218Y-80881252D01*
X155803179Y-80939099D01*
X155900469Y-81084704D01*
X156024296Y-81208531D01*
X156169901Y-81305821D01*
X156331688Y-81372836D01*
X156503441Y-81407000D01*
X156678559Y-81407000D01*
X156850312Y-81372836D01*
X157012099Y-81305821D01*
X157157704Y-81208531D01*
X157281531Y-81084704D01*
X157378821Y-80939099D01*
X157445836Y-80777312D01*
X157464309Y-80684441D01*
X162687000Y-80684441D01*
X162687000Y-80859559D01*
X162721164Y-81031312D01*
X162788179Y-81193099D01*
X162885469Y-81338704D01*
X163009296Y-81462531D01*
X163154901Y-81559821D01*
X163316688Y-81626836D01*
X163488441Y-81661000D01*
X163663559Y-81661000D01*
X163835312Y-81626836D01*
X163997099Y-81559821D01*
X164142704Y-81462531D01*
X164266531Y-81338704D01*
X164363821Y-81193099D01*
X164430836Y-81031312D01*
X164465000Y-80859559D01*
X164465000Y-80684441D01*
X164430836Y-80512688D01*
X164363821Y-80350901D01*
X164266531Y-80205296D01*
X164142704Y-80081469D01*
X163997099Y-79984179D01*
X163835312Y-79917164D01*
X163663559Y-79883000D01*
X163488441Y-79883000D01*
X163316688Y-79917164D01*
X163154901Y-79984179D01*
X163009296Y-80081469D01*
X162885469Y-80205296D01*
X162788179Y-80350901D01*
X162721164Y-80512688D01*
X162687000Y-80684441D01*
X157464309Y-80684441D01*
X157480000Y-80605559D01*
X157480000Y-80430441D01*
X157445836Y-80258688D01*
X157378821Y-80096901D01*
X157320756Y-80010000D01*
X157378821Y-79923099D01*
X157445836Y-79761312D01*
X157480000Y-79589559D01*
X157480000Y-79414441D01*
X157445836Y-79242688D01*
X157378821Y-79080901D01*
X157281531Y-78935296D01*
X157157704Y-78811469D01*
X157012099Y-78714179D01*
X156850312Y-78647164D01*
X156678559Y-78613000D01*
X156503441Y-78613000D01*
X156331688Y-78647164D01*
X156169901Y-78714179D01*
X156024296Y-78811469D01*
X155900469Y-78935296D01*
X155803179Y-79080901D01*
X155779218Y-79138748D01*
X155702000Y-79154107D01*
X155702000Y-79033441D01*
X155667836Y-78861688D01*
X155600821Y-78699901D01*
X155503531Y-78554296D01*
X155379704Y-78430469D01*
X155234099Y-78333179D01*
X155072312Y-78266164D01*
X154900559Y-78232000D01*
X154725441Y-78232000D01*
X154553688Y-78266164D01*
X154391901Y-78333179D01*
X154246296Y-78430469D01*
X154239915Y-78436850D01*
X154233531Y-78427296D01*
X154109704Y-78303469D01*
X153964099Y-78206179D01*
X153802312Y-78139164D01*
X153630559Y-78105000D01*
X153455441Y-78105000D01*
X153283688Y-78139164D01*
X153121901Y-78206179D01*
X152976296Y-78303469D01*
X152852469Y-78427296D01*
X152755179Y-78572901D01*
X152688164Y-78734688D01*
X152654000Y-78906441D01*
X145872201Y-78906441D01*
X145872201Y-77261098D01*
X154540443Y-77261098D01*
X154540443Y-77436216D01*
X154574607Y-77607969D01*
X154641622Y-77769756D01*
X154738912Y-77915361D01*
X154862739Y-78039188D01*
X155008344Y-78136478D01*
X155170131Y-78203493D01*
X155341884Y-78237657D01*
X155517002Y-78237657D01*
X155688755Y-78203493D01*
X155831317Y-78144441D01*
X161163000Y-78144441D01*
X161163000Y-78319559D01*
X161197164Y-78491312D01*
X161264179Y-78653099D01*
X161361469Y-78798704D01*
X161485296Y-78922531D01*
X161630901Y-79019821D01*
X161792688Y-79086836D01*
X161964441Y-79121000D01*
X162139559Y-79121000D01*
X162311312Y-79086836D01*
X162473099Y-79019821D01*
X162618704Y-78922531D01*
X162634794Y-78906441D01*
X166497000Y-78906441D01*
X166497000Y-79081559D01*
X166531164Y-79253312D01*
X166598179Y-79415099D01*
X166695469Y-79560704D01*
X166819296Y-79684531D01*
X166964901Y-79781821D01*
X167126688Y-79848836D01*
X167298441Y-79883000D01*
X167473559Y-79883000D01*
X167645312Y-79848836D01*
X167807099Y-79781821D01*
X167952704Y-79684531D01*
X168076531Y-79560704D01*
X168173821Y-79415099D01*
X168240836Y-79253312D01*
X168275000Y-79081559D01*
X168275000Y-78906441D01*
X168240836Y-78734688D01*
X168173821Y-78572901D01*
X168076531Y-78427296D01*
X167952704Y-78303469D01*
X167807099Y-78206179D01*
X167645312Y-78139164D01*
X167473559Y-78105000D01*
X167298441Y-78105000D01*
X167126688Y-78139164D01*
X166964901Y-78206179D01*
X166819296Y-78303469D01*
X166695469Y-78427296D01*
X166598179Y-78572901D01*
X166531164Y-78734688D01*
X166497000Y-78906441D01*
X162634794Y-78906441D01*
X162742531Y-78798704D01*
X162839821Y-78653099D01*
X162906836Y-78491312D01*
X162941000Y-78319559D01*
X162941000Y-78144441D01*
X162906836Y-77972688D01*
X162839821Y-77810901D01*
X162742531Y-77665296D01*
X162618704Y-77541469D01*
X162473099Y-77444179D01*
X162311312Y-77377164D01*
X162139559Y-77343000D01*
X161964441Y-77343000D01*
X161792688Y-77377164D01*
X161630901Y-77444179D01*
X161485296Y-77541469D01*
X161361469Y-77665296D01*
X161264179Y-77810901D01*
X161197164Y-77972688D01*
X161163000Y-78144441D01*
X155831317Y-78144441D01*
X155850542Y-78136478D01*
X155996147Y-78039188D01*
X156119974Y-77915361D01*
X156217264Y-77769756D01*
X156284279Y-77607969D01*
X156318443Y-77436216D01*
X156318443Y-77261098D01*
X156284279Y-77089345D01*
X156217264Y-76927558D01*
X156119974Y-76781953D01*
X155996147Y-76658126D01*
X155850542Y-76560836D01*
X155688755Y-76493821D01*
X155517002Y-76459657D01*
X155341884Y-76459657D01*
X155170131Y-76493821D01*
X155008344Y-76560836D01*
X154862739Y-76658126D01*
X154738912Y-76781953D01*
X154641622Y-76927558D01*
X154574607Y-77089345D01*
X154540443Y-77261098D01*
X145872201Y-77261098D01*
X145872201Y-76112441D01*
X161163000Y-76112441D01*
X161163000Y-76287559D01*
X161197164Y-76459312D01*
X161264179Y-76621099D01*
X161361469Y-76766704D01*
X161485296Y-76890531D01*
X161630901Y-76987821D01*
X161792688Y-77054836D01*
X161964441Y-77089000D01*
X162139559Y-77089000D01*
X162311312Y-77054836D01*
X162473099Y-76987821D01*
X162618704Y-76890531D01*
X162742531Y-76766704D01*
X162839821Y-76621099D01*
X162906836Y-76459312D01*
X162941000Y-76287559D01*
X162941000Y-76239441D01*
X166243000Y-76239441D01*
X166243000Y-76414559D01*
X166277164Y-76586312D01*
X166344179Y-76748099D01*
X166441469Y-76893704D01*
X166565296Y-77017531D01*
X166710901Y-77114821D01*
X166872688Y-77181836D01*
X167044441Y-77216000D01*
X167219559Y-77216000D01*
X167391312Y-77181836D01*
X167553099Y-77114821D01*
X167698704Y-77017531D01*
X167822531Y-76893704D01*
X167919821Y-76748099D01*
X167972699Y-76620441D01*
X183261000Y-76620441D01*
X183261000Y-76795559D01*
X183295164Y-76967312D01*
X183362179Y-77129099D01*
X183459469Y-77274704D01*
X183583296Y-77398531D01*
X183728901Y-77495821D01*
X183890688Y-77562836D01*
X184062441Y-77597000D01*
X184237559Y-77597000D01*
X184409312Y-77562836D01*
X184571099Y-77495821D01*
X184716704Y-77398531D01*
X184840531Y-77274704D01*
X184937821Y-77129099D01*
X185004836Y-76967312D01*
X185039000Y-76795559D01*
X185039000Y-76620441D01*
X185004836Y-76448688D01*
X184937821Y-76286901D01*
X184840531Y-76141296D01*
X184716704Y-76017469D01*
X184571099Y-75920179D01*
X184409312Y-75853164D01*
X184237559Y-75819000D01*
X184062441Y-75819000D01*
X183890688Y-75853164D01*
X183728901Y-75920179D01*
X183583296Y-76017469D01*
X183459469Y-76141296D01*
X183362179Y-76286901D01*
X183295164Y-76448688D01*
X183261000Y-76620441D01*
X167972699Y-76620441D01*
X167986836Y-76586312D01*
X168021000Y-76414559D01*
X168021000Y-76239441D01*
X167986836Y-76067688D01*
X167919821Y-75905901D01*
X167822531Y-75760296D01*
X167698704Y-75636469D01*
X167650771Y-75604441D01*
X180975000Y-75604441D01*
X180975000Y-75779559D01*
X181009164Y-75951312D01*
X181076179Y-76113099D01*
X181173469Y-76258704D01*
X181297296Y-76382531D01*
X181442901Y-76479821D01*
X181604688Y-76546836D01*
X181776441Y-76581000D01*
X181951559Y-76581000D01*
X182123312Y-76546836D01*
X182285099Y-76479821D01*
X182430704Y-76382531D01*
X182554531Y-76258704D01*
X182651821Y-76113099D01*
X182718836Y-75951312D01*
X182753000Y-75779559D01*
X182753000Y-75604441D01*
X182718836Y-75432688D01*
X182651821Y-75270901D01*
X182554531Y-75125296D01*
X182430704Y-75001469D01*
X182285099Y-74904179D01*
X182123312Y-74837164D01*
X181951559Y-74803000D01*
X181776441Y-74803000D01*
X181604688Y-74837164D01*
X181442901Y-74904179D01*
X181297296Y-75001469D01*
X181173469Y-75125296D01*
X181076179Y-75270901D01*
X181009164Y-75432688D01*
X180975000Y-75604441D01*
X167650771Y-75604441D01*
X167553099Y-75539179D01*
X167391312Y-75472164D01*
X167219559Y-75438000D01*
X167044441Y-75438000D01*
X166872688Y-75472164D01*
X166710901Y-75539179D01*
X166565296Y-75636469D01*
X166441469Y-75760296D01*
X166344179Y-75905901D01*
X166277164Y-76067688D01*
X166243000Y-76239441D01*
X162941000Y-76239441D01*
X162941000Y-76112441D01*
X162906836Y-75940688D01*
X162839821Y-75778901D01*
X162742531Y-75633296D01*
X162618704Y-75509469D01*
X162473099Y-75412179D01*
X162311312Y-75345164D01*
X162139559Y-75311000D01*
X161964441Y-75311000D01*
X161792688Y-75345164D01*
X161630901Y-75412179D01*
X161485296Y-75509469D01*
X161361469Y-75633296D01*
X161264179Y-75778901D01*
X161197164Y-75940688D01*
X161163000Y-76112441D01*
X145872201Y-76112441D01*
X145872201Y-74080441D01*
X149606000Y-74080441D01*
X149606000Y-74255559D01*
X149640164Y-74427312D01*
X149707179Y-74589099D01*
X149804469Y-74734704D01*
X149928296Y-74858531D01*
X150073901Y-74955821D01*
X150235688Y-75022836D01*
X150407441Y-75057000D01*
X150582559Y-75057000D01*
X150754312Y-75022836D01*
X150916099Y-74955821D01*
X151061704Y-74858531D01*
X151185531Y-74734704D01*
X151282821Y-74589099D01*
X151349836Y-74427312D01*
X151384000Y-74255559D01*
X151384000Y-74080441D01*
X151349836Y-73908688D01*
X151282821Y-73746901D01*
X151185531Y-73601296D01*
X151061704Y-73477469D01*
X150916099Y-73380179D01*
X150754312Y-73313164D01*
X150582559Y-73279000D01*
X150407441Y-73279000D01*
X150235688Y-73313164D01*
X150073901Y-73380179D01*
X149928296Y-73477469D01*
X149804469Y-73601296D01*
X149707179Y-73746901D01*
X149640164Y-73908688D01*
X149606000Y-74080441D01*
X145872201Y-74080441D01*
X145872201Y-71032441D01*
X147701000Y-71032441D01*
X147701000Y-71207559D01*
X147735164Y-71379312D01*
X147802179Y-71541099D01*
X147899469Y-71686704D01*
X148023296Y-71810531D01*
X148168901Y-71907821D01*
X148330688Y-71974836D01*
X148502441Y-72009000D01*
X148677559Y-72009000D01*
X148849312Y-71974836D01*
X149011099Y-71907821D01*
X149156704Y-71810531D01*
X149280531Y-71686704D01*
X149377821Y-71541099D01*
X149444836Y-71379312D01*
X149479000Y-71207559D01*
X149479000Y-71032441D01*
X149444836Y-70860688D01*
X149391507Y-70731941D01*
X183815500Y-70731941D01*
X183815500Y-70907059D01*
X183849664Y-71078812D01*
X183916679Y-71240599D01*
X184013969Y-71386204D01*
X184137796Y-71510031D01*
X184283401Y-71607321D01*
X184445188Y-71674336D01*
X184616941Y-71708500D01*
X184792059Y-71708500D01*
X184963812Y-71674336D01*
X185125599Y-71607321D01*
X185271204Y-71510031D01*
X185395031Y-71386204D01*
X185492321Y-71240599D01*
X185559336Y-71078812D01*
X185593500Y-70907059D01*
X185593500Y-70731941D01*
X185559336Y-70560188D01*
X185492321Y-70398401D01*
X185395031Y-70252796D01*
X185271204Y-70128969D01*
X185125599Y-70031679D01*
X184963812Y-69964664D01*
X184792059Y-69930500D01*
X184616941Y-69930500D01*
X184445188Y-69964664D01*
X184283401Y-70031679D01*
X184137796Y-70128969D01*
X184013969Y-70252796D01*
X183916679Y-70398401D01*
X183849664Y-70560188D01*
X183815500Y-70731941D01*
X149391507Y-70731941D01*
X149377821Y-70698901D01*
X149280531Y-70553296D01*
X149156704Y-70429469D01*
X149011099Y-70332179D01*
X148849312Y-70265164D01*
X148677559Y-70231000D01*
X148502441Y-70231000D01*
X148330688Y-70265164D01*
X148168901Y-70332179D01*
X148023296Y-70429469D01*
X147899469Y-70553296D01*
X147802179Y-70698901D01*
X147735164Y-70860688D01*
X147701000Y-71032441D01*
X145872201Y-71032441D01*
X145872201Y-67476441D01*
X171323000Y-67476441D01*
X171323000Y-67651559D01*
X171357164Y-67823312D01*
X171424179Y-67985099D01*
X171521469Y-68130704D01*
X171645296Y-68254531D01*
X171790901Y-68351821D01*
X171952688Y-68418836D01*
X172124441Y-68453000D01*
X172299559Y-68453000D01*
X172471312Y-68418836D01*
X172633099Y-68351821D01*
X172778704Y-68254531D01*
X172902531Y-68130704D01*
X172999821Y-67985099D01*
X173066836Y-67823312D01*
X173101000Y-67651559D01*
X173101000Y-67476441D01*
X173066836Y-67304688D01*
X172999821Y-67142901D01*
X172902531Y-66997296D01*
X172778704Y-66873469D01*
X172633099Y-66776179D01*
X172471312Y-66709164D01*
X172299559Y-66675000D01*
X172124441Y-66675000D01*
X171952688Y-66709164D01*
X171790901Y-66776179D01*
X171645296Y-66873469D01*
X171521469Y-66997296D01*
X171424179Y-67142901D01*
X171357164Y-67304688D01*
X171323000Y-67476441D01*
X145872201Y-67476441D01*
X145872201Y-64605464D01*
X145876009Y-64566801D01*
X145872201Y-64528138D01*
X145872201Y-64528128D01*
X145860807Y-64412444D01*
X145815783Y-64264018D01*
X145742667Y-64127229D01*
X145669000Y-64037466D01*
X145669000Y-63895424D01*
X145625075Y-63674599D01*
X145538913Y-63466587D01*
X145413826Y-63279380D01*
X145254620Y-63120174D01*
X145067413Y-62995087D01*
X144859401Y-62908925D01*
X144638576Y-62865000D01*
X144413424Y-62865000D01*
X144192599Y-62908925D01*
X143984587Y-62995087D01*
X143797380Y-63120174D01*
X143638174Y-63279380D01*
X143513087Y-63466587D01*
X143426925Y-63674599D01*
X143383000Y-63895424D01*
X143383000Y-64120576D01*
X143426925Y-64341401D01*
X143513087Y-64549413D01*
X143638174Y-64736620D01*
X143797380Y-64895826D01*
X143984587Y-65020913D01*
X144192599Y-65107075D01*
X144297402Y-65127922D01*
X144297402Y-70670600D01*
X144159424Y-70670600D01*
X143938599Y-70714525D01*
X143730587Y-70800687D01*
X143652794Y-70852667D01*
X143645836Y-70817688D01*
X143578821Y-70655901D01*
X143481531Y-70510296D01*
X143357704Y-70386469D01*
X143212099Y-70289179D01*
X143050312Y-70222164D01*
X142878559Y-70188000D01*
X142703441Y-70188000D01*
X142531688Y-70222164D01*
X142369901Y-70289179D01*
X142224296Y-70386469D01*
X142100469Y-70510296D01*
X142003179Y-70655901D01*
X141936164Y-70817688D01*
X141902000Y-70989441D01*
X130824771Y-70989441D01*
X130787949Y-70952619D01*
X130565201Y-70803784D01*
X130408799Y-70739000D01*
X130565201Y-70674216D01*
X130787949Y-70525381D01*
X130977381Y-70335949D01*
X131126216Y-70113201D01*
X131228736Y-69865697D01*
X131281000Y-69602948D01*
X131281000Y-69335052D01*
X131228736Y-69072303D01*
X131126216Y-68824799D01*
X130977381Y-68602051D01*
X130787949Y-68412619D01*
X130565201Y-68263784D01*
X130408799Y-68199000D01*
X130565201Y-68134216D01*
X130787949Y-67985381D01*
X130977381Y-67795949D01*
X131037867Y-67705424D01*
X135509000Y-67705424D01*
X135509000Y-67930576D01*
X135552925Y-68151401D01*
X135639087Y-68359413D01*
X135764174Y-68546620D01*
X135923380Y-68705826D01*
X136110587Y-68830913D01*
X136318599Y-68917075D01*
X136539424Y-68961000D01*
X136764576Y-68961000D01*
X136985401Y-68917075D01*
X137193413Y-68830913D01*
X137380620Y-68705826D01*
X137539826Y-68546620D01*
X137664913Y-68359413D01*
X137751075Y-68151401D01*
X137789261Y-67959424D01*
X141605000Y-67959424D01*
X141605000Y-68184576D01*
X141648925Y-68405401D01*
X141735087Y-68613413D01*
X141860174Y-68800620D01*
X142019380Y-68959826D01*
X142206587Y-69084913D01*
X142414599Y-69171075D01*
X142635424Y-69215000D01*
X142860576Y-69215000D01*
X143081401Y-69171075D01*
X143289413Y-69084913D01*
X143476620Y-68959826D01*
X143635826Y-68800620D01*
X143760913Y-68613413D01*
X143847075Y-68405401D01*
X143891000Y-68184576D01*
X143891000Y-67959424D01*
X143847075Y-67738599D01*
X143760913Y-67530587D01*
X143635826Y-67343380D01*
X143476620Y-67184174D01*
X143289413Y-67059087D01*
X143081401Y-66972925D01*
X142860576Y-66929000D01*
X142635424Y-66929000D01*
X142414599Y-66972925D01*
X142206587Y-67059087D01*
X142019380Y-67184174D01*
X141860174Y-67343380D01*
X141735087Y-67530587D01*
X141648925Y-67738599D01*
X141605000Y-67959424D01*
X137789261Y-67959424D01*
X137795000Y-67930576D01*
X137795000Y-67705424D01*
X137751075Y-67484599D01*
X137664913Y-67276587D01*
X137539826Y-67089380D01*
X137380620Y-66930174D01*
X137193413Y-66805087D01*
X136985401Y-66718925D01*
X136764576Y-66675000D01*
X136539424Y-66675000D01*
X136318599Y-66718925D01*
X136110587Y-66805087D01*
X135923380Y-66930174D01*
X135764174Y-67089380D01*
X135639087Y-67276587D01*
X135552925Y-67484599D01*
X135509000Y-67705424D01*
X131037867Y-67705424D01*
X131126216Y-67573201D01*
X131228736Y-67325697D01*
X131281000Y-67062948D01*
X131281000Y-66795052D01*
X131228736Y-66532303D01*
X131126216Y-66284799D01*
X130977381Y-66062051D01*
X130787949Y-65872619D01*
X130565201Y-65723784D01*
X130317697Y-65621264D01*
X130054948Y-65569000D01*
X129787052Y-65569000D01*
X129524303Y-65621264D01*
X129276799Y-65723784D01*
X129054051Y-65872619D01*
X128864619Y-66062051D01*
X128715784Y-66284799D01*
X128613264Y-66532303D01*
X128561000Y-66795052D01*
X120205348Y-66795052D01*
X120225000Y-66696260D01*
X120225000Y-66403740D01*
X120167932Y-66116842D01*
X120055990Y-65846589D01*
X119893475Y-65603368D01*
X119686632Y-65396525D01*
X119512240Y-65280000D01*
X119686632Y-65163475D01*
X119893475Y-64956632D01*
X120055990Y-64713411D01*
X120167932Y-64443158D01*
X120225000Y-64156260D01*
X120225000Y-63863740D01*
X120167932Y-63576842D01*
X120055990Y-63306589D01*
X119893475Y-63063368D01*
X119686632Y-62856525D01*
X119512240Y-62740000D01*
X119686632Y-62623475D01*
X119893475Y-62416632D01*
X120055990Y-62173411D01*
X120167932Y-61903158D01*
X120225000Y-61616260D01*
X120225000Y-61323740D01*
X120167932Y-61036842D01*
X120055990Y-60766589D01*
X119893475Y-60523368D01*
X119686632Y-60316525D01*
X119512240Y-60200000D01*
X119686632Y-60083475D01*
X119893475Y-59876632D01*
X120055990Y-59633411D01*
X120167932Y-59363158D01*
X120225000Y-59076260D01*
X120225000Y-58783740D01*
X120167932Y-58496842D01*
X120055990Y-58226589D01*
X119893475Y-57983368D01*
X119761620Y-57851513D01*
X119834180Y-57829502D01*
X119944494Y-57770537D01*
X120041185Y-57691185D01*
X120120537Y-57594494D01*
X120179502Y-57484180D01*
X120215812Y-57364482D01*
X120228072Y-57240000D01*
X120228072Y-56635052D01*
X128561000Y-56635052D01*
X128561000Y-56902948D01*
X128613264Y-57165697D01*
X128715784Y-57413201D01*
X128864619Y-57635949D01*
X129054051Y-57825381D01*
X129276799Y-57974216D01*
X129433201Y-58039000D01*
X129276799Y-58103784D01*
X129054051Y-58252619D01*
X128864619Y-58442051D01*
X128715784Y-58664799D01*
X128613264Y-58912303D01*
X128561000Y-59175052D01*
X128561000Y-59442948D01*
X128613264Y-59705697D01*
X128715784Y-59953201D01*
X128864619Y-60175949D01*
X129054051Y-60365381D01*
X129276799Y-60514216D01*
X129433201Y-60579000D01*
X129276799Y-60643784D01*
X129054051Y-60792619D01*
X128864619Y-60982051D01*
X128715784Y-61204799D01*
X128613264Y-61452303D01*
X128561000Y-61715052D01*
X128561000Y-61982948D01*
X128613264Y-62245697D01*
X128715784Y-62493201D01*
X128864619Y-62715949D01*
X129054051Y-62905381D01*
X129276799Y-63054216D01*
X129524303Y-63156736D01*
X129787052Y-63209000D01*
X130054948Y-63209000D01*
X130317697Y-63156736D01*
X130565201Y-63054216D01*
X130787949Y-62905381D01*
X130977381Y-62715949D01*
X131126216Y-62493201D01*
X131228736Y-62245697D01*
X131249274Y-62142441D01*
X138176000Y-62142441D01*
X138176000Y-62317559D01*
X138210164Y-62489312D01*
X138277179Y-62651099D01*
X138374469Y-62796704D01*
X138498296Y-62920531D01*
X138643901Y-63017821D01*
X138805688Y-63084836D01*
X138977441Y-63119000D01*
X139152559Y-63119000D01*
X139324312Y-63084836D01*
X139486099Y-63017821D01*
X139631704Y-62920531D01*
X139755531Y-62796704D01*
X139852821Y-62651099D01*
X139919836Y-62489312D01*
X139954000Y-62317559D01*
X139954000Y-62142441D01*
X139919836Y-61970688D01*
X139902930Y-61929872D01*
X151465000Y-61929872D01*
X151465000Y-62370128D01*
X151550890Y-62801925D01*
X151719369Y-63208669D01*
X151963962Y-63574729D01*
X152275271Y-63886038D01*
X152641331Y-64130631D01*
X153048075Y-64299110D01*
X153479872Y-64385000D01*
X153920128Y-64385000D01*
X154351925Y-64299110D01*
X154758669Y-64130631D01*
X155124729Y-63886038D01*
X155436038Y-63574729D01*
X155680631Y-63208669D01*
X155849110Y-62801925D01*
X155935000Y-62370128D01*
X155935000Y-62004947D01*
X163323000Y-62004947D01*
X163323000Y-62455053D01*
X163410811Y-62896510D01*
X163583059Y-63312353D01*
X163833125Y-63686603D01*
X164151397Y-64004875D01*
X164525647Y-64254941D01*
X164941490Y-64427189D01*
X165382947Y-64515000D01*
X165833053Y-64515000D01*
X166274510Y-64427189D01*
X166690353Y-64254941D01*
X167064603Y-64004875D01*
X167382875Y-63686603D01*
X167632941Y-63312353D01*
X167805189Y-62896510D01*
X167893000Y-62455053D01*
X167893000Y-62004947D01*
X167805189Y-61563490D01*
X167632941Y-61147647D01*
X167412464Y-60817680D01*
X169243000Y-60817680D01*
X169243000Y-61102320D01*
X169298530Y-61381491D01*
X169407457Y-61644464D01*
X169565595Y-61881134D01*
X169766866Y-62082405D01*
X169987757Y-62230000D01*
X169766866Y-62377595D01*
X169565595Y-62578866D01*
X169407457Y-62815536D01*
X169298530Y-63078509D01*
X169243000Y-63357680D01*
X169243000Y-63642320D01*
X169298530Y-63921491D01*
X169407457Y-64184464D01*
X169565595Y-64421134D01*
X169766866Y-64622405D01*
X170003536Y-64780543D01*
X170266509Y-64889470D01*
X170545680Y-64945000D01*
X170830320Y-64945000D01*
X171109491Y-64889470D01*
X171372464Y-64780543D01*
X171609134Y-64622405D01*
X171693841Y-64537698D01*
X171678000Y-64617338D01*
X171678000Y-64922662D01*
X171737565Y-65222118D01*
X171854408Y-65504200D01*
X172024036Y-65758068D01*
X172239932Y-65973964D01*
X172493800Y-66143592D01*
X172775882Y-66260435D01*
X173075338Y-66320000D01*
X173380662Y-66320000D01*
X173680118Y-66260435D01*
X173962200Y-66143592D01*
X174216068Y-65973964D01*
X174431964Y-65758068D01*
X174601592Y-65504200D01*
X174718435Y-65222118D01*
X174778000Y-64922662D01*
X174778000Y-64617338D01*
X174718435Y-64317882D01*
X174601592Y-64035800D01*
X174431964Y-63781932D01*
X174216068Y-63566036D01*
X173962200Y-63396408D01*
X173680118Y-63279565D01*
X173380662Y-63220000D01*
X173075338Y-63220000D01*
X172775882Y-63279565D01*
X172493800Y-63396408D01*
X172239932Y-63566036D01*
X172125390Y-63680578D01*
X172133000Y-63642320D01*
X172133000Y-63357680D01*
X172077470Y-63078509D01*
X171968543Y-62815536D01*
X171810405Y-62578866D01*
X171609134Y-62377595D01*
X171388243Y-62230000D01*
X171609134Y-62082405D01*
X171810405Y-61881134D01*
X171968543Y-61644464D01*
X172077470Y-61381491D01*
X172133000Y-61102320D01*
X172133000Y-60817680D01*
X172125390Y-60779422D01*
X172239932Y-60893964D01*
X172493800Y-61063592D01*
X172775882Y-61180435D01*
X173075338Y-61240000D01*
X173380662Y-61240000D01*
X173680118Y-61180435D01*
X173962200Y-61063592D01*
X174216068Y-60893964D01*
X174431964Y-60678068D01*
X174601592Y-60424200D01*
X174718435Y-60142118D01*
X174778000Y-59842662D01*
X174778000Y-59537338D01*
X174718435Y-59237882D01*
X174601592Y-58955800D01*
X174431964Y-58701932D01*
X174216068Y-58486036D01*
X173962200Y-58316408D01*
X173680118Y-58199565D01*
X173380662Y-58140000D01*
X173075338Y-58140000D01*
X172775882Y-58199565D01*
X172493800Y-58316408D01*
X172239932Y-58486036D01*
X172024036Y-58701932D01*
X171854408Y-58955800D01*
X171737565Y-59237882D01*
X171678000Y-59537338D01*
X171678000Y-59842662D01*
X171693841Y-59922302D01*
X171609134Y-59837595D01*
X171372464Y-59679457D01*
X171109491Y-59570530D01*
X170830320Y-59515000D01*
X170545680Y-59515000D01*
X170266509Y-59570530D01*
X170003536Y-59679457D01*
X169766866Y-59837595D01*
X169565595Y-60038866D01*
X169407457Y-60275536D01*
X169298530Y-60538509D01*
X169243000Y-60817680D01*
X167412464Y-60817680D01*
X167382875Y-60773397D01*
X167064603Y-60455125D01*
X166690353Y-60205059D01*
X166274510Y-60032811D01*
X165833053Y-59945000D01*
X165382947Y-59945000D01*
X164941490Y-60032811D01*
X164525647Y-60205059D01*
X164151397Y-60455125D01*
X163833125Y-60773397D01*
X163583059Y-61147647D01*
X163410811Y-61563490D01*
X163323000Y-62004947D01*
X155935000Y-62004947D01*
X155935000Y-61929872D01*
X155849110Y-61498075D01*
X155680631Y-61091331D01*
X155436038Y-60725271D01*
X155124729Y-60413962D01*
X154758669Y-60169369D01*
X154351925Y-60000890D01*
X153920128Y-59915000D01*
X153479872Y-59915000D01*
X153048075Y-60000890D01*
X152641331Y-60169369D01*
X152275271Y-60413962D01*
X151963962Y-60725271D01*
X151719369Y-61091331D01*
X151550890Y-61498075D01*
X151465000Y-61929872D01*
X139902930Y-61929872D01*
X139852821Y-61808901D01*
X139755531Y-61663296D01*
X139631704Y-61539469D01*
X139486099Y-61442179D01*
X139324312Y-61375164D01*
X139152559Y-61341000D01*
X138977441Y-61341000D01*
X138805688Y-61375164D01*
X138643901Y-61442179D01*
X138498296Y-61539469D01*
X138374469Y-61663296D01*
X138277179Y-61808901D01*
X138210164Y-61970688D01*
X138176000Y-62142441D01*
X131249274Y-62142441D01*
X131281000Y-61982948D01*
X131281000Y-61715052D01*
X131228736Y-61452303D01*
X131126216Y-61204799D01*
X130977381Y-60982051D01*
X130787949Y-60792619D01*
X130565201Y-60643784D01*
X130408799Y-60579000D01*
X130565201Y-60514216D01*
X130787949Y-60365381D01*
X130977381Y-60175949D01*
X131021151Y-60110441D01*
X137668000Y-60110441D01*
X137668000Y-60285559D01*
X137702164Y-60457312D01*
X137769179Y-60619099D01*
X137866469Y-60764704D01*
X137990296Y-60888531D01*
X138135901Y-60985821D01*
X138297688Y-61052836D01*
X138469441Y-61087000D01*
X138644559Y-61087000D01*
X138816312Y-61052836D01*
X138978099Y-60985821D01*
X139123704Y-60888531D01*
X139247531Y-60764704D01*
X139344821Y-60619099D01*
X139411836Y-60457312D01*
X139446000Y-60285559D01*
X139446000Y-60110441D01*
X139411836Y-59938688D01*
X139344821Y-59776901D01*
X139247531Y-59631296D01*
X139123704Y-59507469D01*
X138978099Y-59410179D01*
X138816312Y-59343164D01*
X138644559Y-59309000D01*
X138469441Y-59309000D01*
X138297688Y-59343164D01*
X138135901Y-59410179D01*
X137990296Y-59507469D01*
X137866469Y-59631296D01*
X137769179Y-59776901D01*
X137702164Y-59938688D01*
X137668000Y-60110441D01*
X131021151Y-60110441D01*
X131126216Y-59953201D01*
X131228736Y-59705697D01*
X131281000Y-59442948D01*
X131281000Y-59175052D01*
X131228736Y-58912303D01*
X131198970Y-58840441D01*
X133477000Y-58840441D01*
X133477000Y-59015559D01*
X133511164Y-59187312D01*
X133578179Y-59349099D01*
X133675469Y-59494704D01*
X133799296Y-59618531D01*
X133944901Y-59715821D01*
X134106688Y-59782836D01*
X134278441Y-59817000D01*
X134453559Y-59817000D01*
X134625312Y-59782836D01*
X134787099Y-59715821D01*
X134932704Y-59618531D01*
X135056531Y-59494704D01*
X135153821Y-59349099D01*
X135220836Y-59187312D01*
X135255000Y-59015559D01*
X135255000Y-58967441D01*
X140589000Y-58967441D01*
X140589000Y-59142559D01*
X140623164Y-59314312D01*
X140690179Y-59476099D01*
X140787469Y-59621704D01*
X140911296Y-59745531D01*
X141056901Y-59842821D01*
X141218688Y-59909836D01*
X141225312Y-59911154D01*
X141258164Y-60076312D01*
X141325179Y-60238099D01*
X141422469Y-60383704D01*
X141546296Y-60507531D01*
X141691901Y-60604821D01*
X141853688Y-60671836D01*
X142025441Y-60706000D01*
X142200559Y-60706000D01*
X142372312Y-60671836D01*
X142534099Y-60604821D01*
X142679704Y-60507531D01*
X142803531Y-60383704D01*
X142900821Y-60238099D01*
X142967836Y-60076312D01*
X142986309Y-59983441D01*
X145161000Y-59983441D01*
X145161000Y-60158559D01*
X145195164Y-60330312D01*
X145262179Y-60492099D01*
X145359469Y-60637704D01*
X145483296Y-60761531D01*
X145628901Y-60858821D01*
X145790688Y-60925836D01*
X145962441Y-60960000D01*
X146137559Y-60960000D01*
X146309312Y-60925836D01*
X146471099Y-60858821D01*
X146616704Y-60761531D01*
X146740531Y-60637704D01*
X146837821Y-60492099D01*
X146904836Y-60330312D01*
X146939000Y-60158559D01*
X146939000Y-59983441D01*
X146904836Y-59811688D01*
X146837821Y-59649901D01*
X146740531Y-59504296D01*
X146686659Y-59450424D01*
X147320000Y-59450424D01*
X147320000Y-59675576D01*
X147363925Y-59896401D01*
X147450087Y-60104413D01*
X147575174Y-60291620D01*
X147734380Y-60450826D01*
X147921587Y-60575913D01*
X148129599Y-60662075D01*
X148350424Y-60706000D01*
X148575576Y-60706000D01*
X148796401Y-60662075D01*
X149004413Y-60575913D01*
X149191620Y-60450826D01*
X149350826Y-60291620D01*
X149475913Y-60104413D01*
X149562075Y-59896401D01*
X149606000Y-59675576D01*
X149606000Y-59450424D01*
X149562075Y-59229599D01*
X149475913Y-59021587D01*
X149350826Y-58834380D01*
X149191620Y-58675174D01*
X149004413Y-58550087D01*
X148796401Y-58463925D01*
X148575576Y-58420000D01*
X148350424Y-58420000D01*
X148129599Y-58463925D01*
X147921587Y-58550087D01*
X147734380Y-58675174D01*
X147575174Y-58834380D01*
X147450087Y-59021587D01*
X147363925Y-59229599D01*
X147320000Y-59450424D01*
X146686659Y-59450424D01*
X146616704Y-59380469D01*
X146471099Y-59283179D01*
X146309312Y-59216164D01*
X146137559Y-59182000D01*
X145962441Y-59182000D01*
X145790688Y-59216164D01*
X145628901Y-59283179D01*
X145483296Y-59380469D01*
X145359469Y-59504296D01*
X145262179Y-59649901D01*
X145195164Y-59811688D01*
X145161000Y-59983441D01*
X142986309Y-59983441D01*
X143000688Y-59911154D01*
X143007312Y-59909836D01*
X143169099Y-59842821D01*
X143314704Y-59745531D01*
X143438531Y-59621704D01*
X143535821Y-59476099D01*
X143602836Y-59314312D01*
X143637000Y-59142559D01*
X143637000Y-58967441D01*
X143602836Y-58795688D01*
X143535821Y-58633901D01*
X143438531Y-58488296D01*
X143314704Y-58364469D01*
X143169099Y-58267179D01*
X143007312Y-58200164D01*
X142974386Y-58193614D01*
X142967836Y-58160688D01*
X142900821Y-57998901D01*
X142803531Y-57853296D01*
X142679704Y-57729469D01*
X142534099Y-57632179D01*
X142372312Y-57565164D01*
X142200559Y-57531000D01*
X142025441Y-57531000D01*
X141853688Y-57565164D01*
X141691901Y-57632179D01*
X141546296Y-57729469D01*
X141422469Y-57853296D01*
X141325179Y-57998901D01*
X141258164Y-58160688D01*
X141251614Y-58193614D01*
X141218688Y-58200164D01*
X141056901Y-58267179D01*
X140911296Y-58364469D01*
X140787469Y-58488296D01*
X140690179Y-58633901D01*
X140623164Y-58795688D01*
X140589000Y-58967441D01*
X135255000Y-58967441D01*
X135255000Y-58840441D01*
X135220836Y-58668688D01*
X135153821Y-58506901D01*
X135056531Y-58361296D01*
X134932704Y-58237469D01*
X134787099Y-58140179D01*
X134625312Y-58073164D01*
X134453559Y-58039000D01*
X134278441Y-58039000D01*
X134106688Y-58073164D01*
X133944901Y-58140179D01*
X133799296Y-58237469D01*
X133675469Y-58361296D01*
X133578179Y-58506901D01*
X133511164Y-58668688D01*
X133477000Y-58840441D01*
X131198970Y-58840441D01*
X131126216Y-58664799D01*
X130977381Y-58442051D01*
X130787949Y-58252619D01*
X130565201Y-58103784D01*
X130408799Y-58039000D01*
X130565201Y-57974216D01*
X130787949Y-57825381D01*
X130977381Y-57635949D01*
X131126216Y-57413201D01*
X131228736Y-57165697D01*
X131281000Y-56902948D01*
X131281000Y-56808441D01*
X133096000Y-56808441D01*
X133096000Y-56983559D01*
X133130164Y-57155312D01*
X133197179Y-57317099D01*
X133294469Y-57462704D01*
X133418296Y-57586531D01*
X133563901Y-57683821D01*
X133725688Y-57750836D01*
X133897441Y-57785000D01*
X134072559Y-57785000D01*
X134244312Y-57750836D01*
X134406099Y-57683821D01*
X134551704Y-57586531D01*
X134675531Y-57462704D01*
X134772821Y-57317099D01*
X134839836Y-57155312D01*
X134874000Y-56983559D01*
X134874000Y-56808441D01*
X134839836Y-56636688D01*
X134772821Y-56474901D01*
X134675531Y-56329296D01*
X134551704Y-56205469D01*
X134466330Y-56148424D01*
X143764000Y-56148424D01*
X143764000Y-56373576D01*
X143807925Y-56594401D01*
X143894087Y-56802413D01*
X144019174Y-56989620D01*
X144178380Y-57148826D01*
X144365587Y-57273913D01*
X144573599Y-57360075D01*
X144794424Y-57404000D01*
X145019576Y-57404000D01*
X145240401Y-57360075D01*
X145448413Y-57273913D01*
X145635620Y-57148826D01*
X145794826Y-56989620D01*
X145919913Y-56802413D01*
X146006075Y-56594401D01*
X146050000Y-56373576D01*
X146050000Y-56148424D01*
X146006075Y-55927599D01*
X145919913Y-55719587D01*
X145794826Y-55532380D01*
X145635620Y-55373174D01*
X145448413Y-55248087D01*
X145240401Y-55161925D01*
X145019576Y-55118000D01*
X144794424Y-55118000D01*
X144573599Y-55161925D01*
X144365587Y-55248087D01*
X144178380Y-55373174D01*
X144019174Y-55532380D01*
X143894087Y-55719587D01*
X143807925Y-55927599D01*
X143764000Y-56148424D01*
X134466330Y-56148424D01*
X134406099Y-56108179D01*
X134244312Y-56041164D01*
X134072559Y-56007000D01*
X133897441Y-56007000D01*
X133725688Y-56041164D01*
X133563901Y-56108179D01*
X133418296Y-56205469D01*
X133294469Y-56329296D01*
X133197179Y-56474901D01*
X133130164Y-56636688D01*
X133096000Y-56808441D01*
X131281000Y-56808441D01*
X131281000Y-56635052D01*
X131228736Y-56372303D01*
X131126216Y-56124799D01*
X130977381Y-55902051D01*
X130787949Y-55712619D01*
X130565201Y-55563784D01*
X130317697Y-55461264D01*
X130054948Y-55409000D01*
X129787052Y-55409000D01*
X129524303Y-55461264D01*
X129276799Y-55563784D01*
X129054051Y-55712619D01*
X128864619Y-55902051D01*
X128715784Y-56124799D01*
X128613264Y-56372303D01*
X128561000Y-56635052D01*
X120228072Y-56635052D01*
X120228072Y-55540000D01*
X120215812Y-55415518D01*
X120179502Y-55295820D01*
X120120537Y-55185506D01*
X120041185Y-55088815D01*
X119944494Y-55009463D01*
X119834180Y-54950498D01*
X119714482Y-54914188D01*
X119590000Y-54901928D01*
X117890000Y-54901928D01*
X117765518Y-54914188D01*
X117645820Y-54950498D01*
X117535506Y-55009463D01*
X117438815Y-55088815D01*
X117359463Y-55185506D01*
X117300498Y-55295820D01*
X117264188Y-55415518D01*
X117251928Y-55540000D01*
X116860000Y-55540000D01*
X116860000Y-54510000D01*
X190540000Y-54510000D01*
X190540001Y-137940000D01*
G04 #@! TA.AperFunction,Conductor*
D19*
G36*
X190540001Y-137940000D02*
G01*
X116860000Y-137940000D01*
X116860000Y-130079872D01*
X151465000Y-130079872D01*
X151465000Y-130520128D01*
X151550890Y-130951925D01*
X151719369Y-131358669D01*
X151963962Y-131724729D01*
X152275271Y-132036038D01*
X152641331Y-132280631D01*
X153048075Y-132449110D01*
X153479872Y-132535000D01*
X153920128Y-132535000D01*
X154351925Y-132449110D01*
X154758669Y-132280631D01*
X155124729Y-132036038D01*
X155436038Y-131724729D01*
X155680631Y-131358669D01*
X155849110Y-130951925D01*
X155935000Y-130520128D01*
X155935000Y-130079872D01*
X155849110Y-129648075D01*
X155680631Y-129241331D01*
X155436038Y-128875271D01*
X155124729Y-128563962D01*
X154758669Y-128319369D01*
X154351925Y-128150890D01*
X153920128Y-128065000D01*
X153479872Y-128065000D01*
X153048075Y-128150890D01*
X152641331Y-128319369D01*
X152275271Y-128563962D01*
X151963962Y-128875271D01*
X151719369Y-129241331D01*
X151550890Y-129648075D01*
X151465000Y-130079872D01*
X116860000Y-130079872D01*
X116860000Y-121832441D01*
X144399000Y-121832441D01*
X144399000Y-122007559D01*
X144433164Y-122179312D01*
X144500179Y-122341099D01*
X144597469Y-122486704D01*
X144721296Y-122610531D01*
X144866901Y-122707821D01*
X145028688Y-122774836D01*
X145200441Y-122809000D01*
X145375559Y-122809000D01*
X145547312Y-122774836D01*
X145709099Y-122707821D01*
X145854704Y-122610531D01*
X145978531Y-122486704D01*
X146075821Y-122341099D01*
X146142836Y-122179312D01*
X146177000Y-122007559D01*
X146177000Y-121832441D01*
X146142836Y-121660688D01*
X146075821Y-121498901D01*
X145978531Y-121353296D01*
X145854704Y-121229469D01*
X145709099Y-121132179D01*
X145547312Y-121065164D01*
X145375559Y-121031000D01*
X145200441Y-121031000D01*
X145028688Y-121065164D01*
X144866901Y-121132179D01*
X144721296Y-121229469D01*
X144597469Y-121353296D01*
X144500179Y-121498901D01*
X144433164Y-121660688D01*
X144399000Y-121832441D01*
X116860000Y-121832441D01*
X116860000Y-120054441D01*
X148209000Y-120054441D01*
X148209000Y-120229559D01*
X148243164Y-120401312D01*
X148310179Y-120563099D01*
X148407469Y-120708704D01*
X148531296Y-120832531D01*
X148676901Y-120929821D01*
X148838688Y-120996836D01*
X149010441Y-121031000D01*
X149185559Y-121031000D01*
X149357312Y-120996836D01*
X149519099Y-120929821D01*
X149664704Y-120832531D01*
X149788531Y-120708704D01*
X149885821Y-120563099D01*
X149952836Y-120401312D01*
X149987000Y-120229559D01*
X149987000Y-120181441D01*
X154051000Y-120181441D01*
X154051000Y-120356559D01*
X154085164Y-120528312D01*
X154152179Y-120690099D01*
X154249469Y-120835704D01*
X154373296Y-120959531D01*
X154518901Y-121056821D01*
X154680688Y-121123836D01*
X154852441Y-121158000D01*
X155027559Y-121158000D01*
X155199312Y-121123836D01*
X155361099Y-121056821D01*
X155506704Y-120959531D01*
X155630531Y-120835704D01*
X155727821Y-120690099D01*
X155794836Y-120528312D01*
X155829000Y-120356559D01*
X155829000Y-120181441D01*
X161671000Y-120181441D01*
X161671000Y-120356559D01*
X161705164Y-120528312D01*
X161772179Y-120690099D01*
X161869469Y-120835704D01*
X161993296Y-120959531D01*
X162138901Y-121056821D01*
X162300688Y-121123836D01*
X162472441Y-121158000D01*
X162647559Y-121158000D01*
X162819312Y-121123836D01*
X162981099Y-121056821D01*
X163126704Y-120959531D01*
X163250531Y-120835704D01*
X163347821Y-120690099D01*
X163414836Y-120528312D01*
X163449000Y-120356559D01*
X163449000Y-120181441D01*
X163414836Y-120009688D01*
X163347821Y-119847901D01*
X163250531Y-119702296D01*
X163126704Y-119578469D01*
X162981099Y-119481179D01*
X162819312Y-119414164D01*
X162647559Y-119380000D01*
X162472441Y-119380000D01*
X162300688Y-119414164D01*
X162138901Y-119481179D01*
X161993296Y-119578469D01*
X161869469Y-119702296D01*
X161772179Y-119847901D01*
X161705164Y-120009688D01*
X161671000Y-120181441D01*
X155829000Y-120181441D01*
X155794836Y-120009688D01*
X155727821Y-119847901D01*
X155630531Y-119702296D01*
X155506704Y-119578469D01*
X155361099Y-119481179D01*
X155199312Y-119414164D01*
X155027559Y-119380000D01*
X154852441Y-119380000D01*
X154680688Y-119414164D01*
X154518901Y-119481179D01*
X154373296Y-119578469D01*
X154249469Y-119702296D01*
X154152179Y-119847901D01*
X154085164Y-120009688D01*
X154051000Y-120181441D01*
X149987000Y-120181441D01*
X149987000Y-120054441D01*
X149952836Y-119882688D01*
X149885821Y-119720901D01*
X149788531Y-119575296D01*
X149664704Y-119451469D01*
X149519099Y-119354179D01*
X149357312Y-119287164D01*
X149185559Y-119253000D01*
X149010441Y-119253000D01*
X148838688Y-119287164D01*
X148676901Y-119354179D01*
X148531296Y-119451469D01*
X148407469Y-119575296D01*
X148310179Y-119720901D01*
X148243164Y-119882688D01*
X148209000Y-120054441D01*
X116860000Y-120054441D01*
X116860000Y-111418441D01*
X149098000Y-111418441D01*
X149098000Y-111593559D01*
X149132164Y-111765312D01*
X149199179Y-111927099D01*
X149296469Y-112072704D01*
X149420296Y-112196531D01*
X149565901Y-112293821D01*
X149727688Y-112360836D01*
X149899441Y-112395000D01*
X150074559Y-112395000D01*
X150246312Y-112360836D01*
X150408099Y-112293821D01*
X150553704Y-112196531D01*
X150677531Y-112072704D01*
X150774821Y-111927099D01*
X150841836Y-111765312D01*
X150876000Y-111593559D01*
X150876000Y-111418441D01*
X150841836Y-111246688D01*
X150774821Y-111084901D01*
X150677531Y-110939296D01*
X150553704Y-110815469D01*
X150408099Y-110718179D01*
X150246312Y-110651164D01*
X150074559Y-110617000D01*
X149899441Y-110617000D01*
X149727688Y-110651164D01*
X149565901Y-110718179D01*
X149420296Y-110815469D01*
X149296469Y-110939296D01*
X149199179Y-111084901D01*
X149132164Y-111246688D01*
X149098000Y-111418441D01*
X116860000Y-111418441D01*
X116860000Y-109640441D01*
X144907000Y-109640441D01*
X144907000Y-109815559D01*
X144941164Y-109987312D01*
X145008179Y-110149099D01*
X145105469Y-110294704D01*
X145229296Y-110418531D01*
X145374901Y-110515821D01*
X145536688Y-110582836D01*
X145708441Y-110617000D01*
X145883559Y-110617000D01*
X146055312Y-110582836D01*
X146217099Y-110515821D01*
X146362704Y-110418531D01*
X146486531Y-110294704D01*
X146583821Y-110149099D01*
X146650836Y-109987312D01*
X146685000Y-109815559D01*
X146685000Y-109640441D01*
X146650836Y-109468688D01*
X146583821Y-109306901D01*
X146486531Y-109161296D01*
X146362704Y-109037469D01*
X146217099Y-108940179D01*
X146055312Y-108873164D01*
X145883559Y-108839000D01*
X145708441Y-108839000D01*
X145536688Y-108873164D01*
X145374901Y-108940179D01*
X145229296Y-109037469D01*
X145105469Y-109161296D01*
X145008179Y-109306901D01*
X144941164Y-109468688D01*
X144907000Y-109640441D01*
X116860000Y-109640441D01*
X116860000Y-101258000D01*
X117256928Y-101258000D01*
X117256928Y-102958000D01*
X117269188Y-103082482D01*
X117305498Y-103202180D01*
X117364463Y-103312494D01*
X117443815Y-103409185D01*
X117540506Y-103488537D01*
X117650820Y-103547502D01*
X117770518Y-103583812D01*
X117895000Y-103596072D01*
X119595000Y-103596072D01*
X119719482Y-103583812D01*
X119839180Y-103547502D01*
X119949494Y-103488537D01*
X120046185Y-103409185D01*
X120125537Y-103312494D01*
X120184502Y-103202180D01*
X120220812Y-103082482D01*
X120233072Y-102958000D01*
X120233072Y-101258000D01*
X120220812Y-101133518D01*
X120184502Y-101013820D01*
X120125537Y-100903506D01*
X120046185Y-100806815D01*
X119949494Y-100727463D01*
X119839180Y-100668498D01*
X119766620Y-100646487D01*
X119898475Y-100514632D01*
X120060990Y-100271411D01*
X120172932Y-100001158D01*
X120230000Y-99714260D01*
X120230000Y-99421740D01*
X120172932Y-99134842D01*
X120060990Y-98864589D01*
X119898475Y-98621368D01*
X119691632Y-98414525D01*
X119448411Y-98252010D01*
X119178158Y-98140068D01*
X118891260Y-98083000D01*
X118598740Y-98083000D01*
X118311842Y-98140068D01*
X118041589Y-98252010D01*
X117798368Y-98414525D01*
X117591525Y-98621368D01*
X117429010Y-98864589D01*
X117317068Y-99134842D01*
X117260000Y-99421740D01*
X117260000Y-99714260D01*
X117317068Y-100001158D01*
X117429010Y-100271411D01*
X117591525Y-100514632D01*
X117723380Y-100646487D01*
X117650820Y-100668498D01*
X117540506Y-100727463D01*
X117443815Y-100806815D01*
X117364463Y-100903506D01*
X117305498Y-101013820D01*
X117269188Y-101133518D01*
X117256928Y-101258000D01*
X116860000Y-101258000D01*
X116860000Y-91098000D01*
X117256928Y-91098000D01*
X117256928Y-92798000D01*
X117269188Y-92922482D01*
X117305498Y-93042180D01*
X117364463Y-93152494D01*
X117443815Y-93249185D01*
X117540506Y-93328537D01*
X117650820Y-93387502D01*
X117723380Y-93409513D01*
X117591525Y-93541368D01*
X117429010Y-93784589D01*
X117317068Y-94054842D01*
X117260000Y-94341740D01*
X117260000Y-94634260D01*
X117317068Y-94921158D01*
X117429010Y-95191411D01*
X117591525Y-95434632D01*
X117798368Y-95641475D01*
X118041589Y-95803990D01*
X118311842Y-95915932D01*
X118598740Y-95973000D01*
X118891260Y-95973000D01*
X119178158Y-95915932D01*
X119448411Y-95803990D01*
X119691632Y-95641475D01*
X119898475Y-95434632D01*
X120060990Y-95191411D01*
X120172932Y-94921158D01*
X120230000Y-94634260D01*
X120230000Y-94341740D01*
X120224003Y-94311589D01*
X122694000Y-94311589D01*
X122694000Y-94584411D01*
X122747225Y-94851989D01*
X122851629Y-95104043D01*
X123003201Y-95330886D01*
X123196114Y-95523799D01*
X123422957Y-95675371D01*
X123675011Y-95779775D01*
X123942589Y-95833000D01*
X124215411Y-95833000D01*
X124482989Y-95779775D01*
X124735043Y-95675371D01*
X124961886Y-95523799D01*
X125154799Y-95330886D01*
X125306371Y-95104043D01*
X125410775Y-94851989D01*
X125464000Y-94584411D01*
X125464000Y-94311589D01*
X125410775Y-94044011D01*
X125306371Y-93791957D01*
X125154799Y-93565114D01*
X124961886Y-93372201D01*
X124735043Y-93220629D01*
X124482989Y-93116225D01*
X124215411Y-93063000D01*
X123942589Y-93063000D01*
X123675011Y-93116225D01*
X123422957Y-93220629D01*
X123196114Y-93372201D01*
X123003201Y-93565114D01*
X122851629Y-93791957D01*
X122747225Y-94044011D01*
X122694000Y-94311589D01*
X120224003Y-94311589D01*
X120172932Y-94054842D01*
X120060990Y-93784589D01*
X119898475Y-93541368D01*
X119766620Y-93409513D01*
X119839180Y-93387502D01*
X119949494Y-93328537D01*
X120046185Y-93249185D01*
X120125537Y-93152494D01*
X120184502Y-93042180D01*
X120220812Y-92922482D01*
X120233072Y-92798000D01*
X120233072Y-91098000D01*
X120220812Y-90973518D01*
X120184502Y-90853820D01*
X120125537Y-90743506D01*
X120046185Y-90646815D01*
X119949494Y-90567463D01*
X119839180Y-90508498D01*
X119719482Y-90472188D01*
X119595000Y-90459928D01*
X117895000Y-90459928D01*
X117770518Y-90472188D01*
X117650820Y-90508498D01*
X117540506Y-90567463D01*
X117443815Y-90646815D01*
X117364463Y-90743506D01*
X117305498Y-90853820D01*
X117269188Y-90973518D01*
X117256928Y-91098000D01*
X116860000Y-91098000D01*
X116860000Y-89311589D01*
X122694000Y-89311589D01*
X122694000Y-89584411D01*
X122747225Y-89851989D01*
X122851629Y-90104043D01*
X123003201Y-90330886D01*
X123196114Y-90523799D01*
X123422957Y-90675371D01*
X123675011Y-90779775D01*
X123942589Y-90833000D01*
X124215411Y-90833000D01*
X124482989Y-90779775D01*
X124735043Y-90675371D01*
X124961886Y-90523799D01*
X125154799Y-90330886D01*
X125306371Y-90104043D01*
X125410775Y-89851989D01*
X125464000Y-89584411D01*
X125464000Y-89311589D01*
X125410775Y-89044011D01*
X125306371Y-88791957D01*
X125154799Y-88565114D01*
X124961886Y-88372201D01*
X124735043Y-88220629D01*
X124482989Y-88116225D01*
X124215411Y-88063000D01*
X123942589Y-88063000D01*
X123675011Y-88116225D01*
X123422957Y-88220629D01*
X123196114Y-88372201D01*
X123003201Y-88565114D01*
X122851629Y-88791957D01*
X122747225Y-89044011D01*
X122694000Y-89311589D01*
X116860000Y-89311589D01*
X116860000Y-83490700D01*
X117244228Y-83490700D01*
X117244228Y-85190700D01*
X117256488Y-85315182D01*
X117292798Y-85434880D01*
X117351763Y-85545194D01*
X117431115Y-85641885D01*
X117527806Y-85721237D01*
X117638120Y-85780202D01*
X117710680Y-85802213D01*
X117578825Y-85934068D01*
X117416310Y-86177289D01*
X117304368Y-86447542D01*
X117247300Y-86734440D01*
X117247300Y-87026960D01*
X117304368Y-87313858D01*
X117416310Y-87584111D01*
X117578825Y-87827332D01*
X117785668Y-88034175D01*
X118028889Y-88196690D01*
X118299142Y-88308632D01*
X118586040Y-88365700D01*
X118878560Y-88365700D01*
X119165458Y-88308632D01*
X119435711Y-88196690D01*
X119678932Y-88034175D01*
X119885775Y-87827332D01*
X120048290Y-87584111D01*
X120160232Y-87313858D01*
X120217300Y-87026960D01*
X120217300Y-86734440D01*
X120160232Y-86447542D01*
X120048290Y-86177289D01*
X119885775Y-85934068D01*
X119753920Y-85802213D01*
X119826480Y-85780202D01*
X119936794Y-85721237D01*
X120033485Y-85641885D01*
X120112837Y-85545194D01*
X120171802Y-85434880D01*
X120208112Y-85315182D01*
X120220372Y-85190700D01*
X120220372Y-83490700D01*
X120208112Y-83366218D01*
X120171802Y-83246520D01*
X120112837Y-83136206D01*
X120033485Y-83039515D01*
X119936794Y-82960163D01*
X119826480Y-82901198D01*
X119706782Y-82864888D01*
X119582300Y-82852628D01*
X117882300Y-82852628D01*
X117757818Y-82864888D01*
X117638120Y-82901198D01*
X117527806Y-82960163D01*
X117431115Y-83039515D01*
X117351763Y-83136206D01*
X117292798Y-83246520D01*
X117256488Y-83366218D01*
X117244228Y-83490700D01*
X116860000Y-83490700D01*
X116860000Y-55540000D01*
X117251928Y-55540000D01*
X117251928Y-57240000D01*
X117264188Y-57364482D01*
X117300498Y-57484180D01*
X117359463Y-57594494D01*
X117438815Y-57691185D01*
X117535506Y-57770537D01*
X117645820Y-57829502D01*
X117718380Y-57851513D01*
X117586525Y-57983368D01*
X117424010Y-58226589D01*
X117312068Y-58496842D01*
X117255000Y-58783740D01*
X117255000Y-59076260D01*
X117312068Y-59363158D01*
X117424010Y-59633411D01*
X117586525Y-59876632D01*
X117793368Y-60083475D01*
X117967760Y-60200000D01*
X117793368Y-60316525D01*
X117586525Y-60523368D01*
X117424010Y-60766589D01*
X117312068Y-61036842D01*
X117255000Y-61323740D01*
X117255000Y-61616260D01*
X117312068Y-61903158D01*
X117424010Y-62173411D01*
X117586525Y-62416632D01*
X117793368Y-62623475D01*
X117967760Y-62740000D01*
X117793368Y-62856525D01*
X117586525Y-63063368D01*
X117424010Y-63306589D01*
X117312068Y-63576842D01*
X117255000Y-63863740D01*
X117255000Y-64156260D01*
X117312068Y-64443158D01*
X117424010Y-64713411D01*
X117586525Y-64956632D01*
X117793368Y-65163475D01*
X117967760Y-65280000D01*
X117793368Y-65396525D01*
X117586525Y-65603368D01*
X117424010Y-65846589D01*
X117312068Y-66116842D01*
X117255000Y-66403740D01*
X117255000Y-66696260D01*
X117312068Y-66983158D01*
X117424010Y-67253411D01*
X117586525Y-67496632D01*
X117793368Y-67703475D01*
X117967760Y-67820000D01*
X117793368Y-67936525D01*
X117586525Y-68143368D01*
X117424010Y-68386589D01*
X117312068Y-68656842D01*
X117255000Y-68943740D01*
X117255000Y-69236260D01*
X117312068Y-69523158D01*
X117424010Y-69793411D01*
X117586525Y-70036632D01*
X117793368Y-70243475D01*
X117967760Y-70360000D01*
X117793368Y-70476525D01*
X117586525Y-70683368D01*
X117424010Y-70926589D01*
X117312068Y-71196842D01*
X117255000Y-71483740D01*
X117255000Y-71776260D01*
X117312068Y-72063158D01*
X117424010Y-72333411D01*
X117586525Y-72576632D01*
X117793368Y-72783475D01*
X117967760Y-72900000D01*
X117793368Y-73016525D01*
X117586525Y-73223368D01*
X117424010Y-73466589D01*
X117312068Y-73736842D01*
X117255000Y-74023740D01*
X117255000Y-74316260D01*
X117312068Y-74603158D01*
X117424010Y-74873411D01*
X117586525Y-75116632D01*
X117793368Y-75323475D01*
X117967760Y-75440000D01*
X117793368Y-75556525D01*
X117586525Y-75763368D01*
X117424010Y-76006589D01*
X117312068Y-76276842D01*
X117255000Y-76563740D01*
X117255000Y-76856260D01*
X117312068Y-77143158D01*
X117424010Y-77413411D01*
X117586525Y-77656632D01*
X117793368Y-77863475D01*
X117967760Y-77980000D01*
X117793368Y-78096525D01*
X117586525Y-78303368D01*
X117424010Y-78546589D01*
X117312068Y-78816842D01*
X117255000Y-79103740D01*
X117255000Y-79396260D01*
X117312068Y-79683158D01*
X117424010Y-79953411D01*
X117586525Y-80196632D01*
X117793368Y-80403475D01*
X118036589Y-80565990D01*
X118306842Y-80677932D01*
X118593740Y-80735000D01*
X118886260Y-80735000D01*
X119173158Y-80677932D01*
X119443411Y-80565990D01*
X119686632Y-80403475D01*
X119893475Y-80196632D01*
X120055990Y-79953411D01*
X120167932Y-79683158D01*
X120175835Y-79643424D01*
X121285000Y-79643424D01*
X121285000Y-79868576D01*
X121328925Y-80089401D01*
X121415087Y-80297413D01*
X121477619Y-80391000D01*
X121415087Y-80484587D01*
X121328925Y-80692599D01*
X121285000Y-80913424D01*
X121285000Y-81138576D01*
X121328925Y-81359401D01*
X121415087Y-81567413D01*
X121540174Y-81754620D01*
X121699380Y-81913826D01*
X121886587Y-82038913D01*
X122094599Y-82125075D01*
X122315424Y-82169000D01*
X122540576Y-82169000D01*
X122761401Y-82125075D01*
X122969413Y-82038913D01*
X123156620Y-81913826D01*
X123315826Y-81754620D01*
X123440913Y-81567413D01*
X123527075Y-81359401D01*
X123571000Y-81138576D01*
X123571000Y-80913424D01*
X123527075Y-80692599D01*
X123440913Y-80484587D01*
X123378381Y-80391000D01*
X123440913Y-80297413D01*
X123527075Y-80089401D01*
X123571000Y-79868576D01*
X123571000Y-79643424D01*
X123527075Y-79422599D01*
X123440913Y-79214587D01*
X123315826Y-79027380D01*
X123156620Y-78868174D01*
X122969413Y-78743087D01*
X122761401Y-78656925D01*
X122540576Y-78613000D01*
X122315424Y-78613000D01*
X122094599Y-78656925D01*
X121886587Y-78743087D01*
X121699380Y-78868174D01*
X121540174Y-79027380D01*
X121415087Y-79214587D01*
X121328925Y-79422599D01*
X121285000Y-79643424D01*
X120175835Y-79643424D01*
X120225000Y-79396260D01*
X120225000Y-79103740D01*
X120167932Y-78816842D01*
X120055990Y-78546589D01*
X119893475Y-78303368D01*
X119686632Y-78096525D01*
X119512240Y-77980000D01*
X119686632Y-77863475D01*
X119893475Y-77656632D01*
X120055990Y-77413411D01*
X120167932Y-77143158D01*
X120225000Y-76856260D01*
X120225000Y-76563740D01*
X120167932Y-76276842D01*
X120055990Y-76006589D01*
X119893475Y-75763368D01*
X119686632Y-75556525D01*
X119512240Y-75440000D01*
X119686632Y-75323475D01*
X119893475Y-75116632D01*
X120055990Y-74873411D01*
X120167932Y-74603158D01*
X120225000Y-74316260D01*
X120225000Y-74023740D01*
X120167932Y-73736842D01*
X120055990Y-73466589D01*
X119893475Y-73223368D01*
X119686632Y-73016525D01*
X119512240Y-72900000D01*
X119686632Y-72783475D01*
X119893475Y-72576632D01*
X120055990Y-72333411D01*
X120167932Y-72063158D01*
X120225000Y-71776260D01*
X120225000Y-71483740D01*
X120167932Y-71196842D01*
X120055990Y-70926589D01*
X119893475Y-70683368D01*
X119686632Y-70476525D01*
X119512240Y-70360000D01*
X119686632Y-70243475D01*
X119893475Y-70036632D01*
X120055990Y-69793411D01*
X120167932Y-69523158D01*
X120225000Y-69236260D01*
X120225000Y-68943740D01*
X120167932Y-68656842D01*
X120055990Y-68386589D01*
X119893475Y-68143368D01*
X119686632Y-67936525D01*
X119512240Y-67820000D01*
X119686632Y-67703475D01*
X119893475Y-67496632D01*
X120055990Y-67253411D01*
X120167932Y-66983158D01*
X120205348Y-66795052D01*
X128561000Y-66795052D01*
X128561000Y-67062948D01*
X128613264Y-67325697D01*
X128715784Y-67573201D01*
X128864619Y-67795949D01*
X129054051Y-67985381D01*
X129276799Y-68134216D01*
X129433201Y-68199000D01*
X129276799Y-68263784D01*
X129054051Y-68412619D01*
X128864619Y-68602051D01*
X128715784Y-68824799D01*
X128613264Y-69072303D01*
X128561000Y-69335052D01*
X128561000Y-69602948D01*
X128613264Y-69865697D01*
X128715784Y-70113201D01*
X128864619Y-70335949D01*
X129054051Y-70525381D01*
X129276799Y-70674216D01*
X129433201Y-70739000D01*
X129276799Y-70803784D01*
X129054051Y-70952619D01*
X128864619Y-71142051D01*
X128715784Y-71364799D01*
X128613264Y-71612303D01*
X128561000Y-71875052D01*
X128561000Y-72142948D01*
X128613264Y-72405697D01*
X128715784Y-72653201D01*
X128864619Y-72875949D01*
X129054051Y-73065381D01*
X129276799Y-73214216D01*
X129433201Y-73279000D01*
X129276799Y-73343784D01*
X129054051Y-73492619D01*
X128864619Y-73682051D01*
X128715784Y-73904799D01*
X128613264Y-74152303D01*
X128561000Y-74415052D01*
X128561000Y-74682948D01*
X128613264Y-74945697D01*
X128715784Y-75193201D01*
X128864619Y-75415949D01*
X129054051Y-75605381D01*
X129276799Y-75754216D01*
X129524303Y-75856736D01*
X129787052Y-75909000D01*
X130054948Y-75909000D01*
X130317697Y-75856736D01*
X130565201Y-75754216D01*
X130787949Y-75605381D01*
X130977381Y-75415949D01*
X131126216Y-75193201D01*
X131228736Y-74945697D01*
X131281000Y-74682948D01*
X131281000Y-74415052D01*
X131228736Y-74152303D01*
X131126216Y-73904799D01*
X130977381Y-73682051D01*
X130787949Y-73492619D01*
X130565201Y-73343784D01*
X130408799Y-73279000D01*
X130565201Y-73214216D01*
X130787949Y-73065381D01*
X130977381Y-72875949D01*
X131126216Y-72653201D01*
X131228736Y-72405697D01*
X131281000Y-72142948D01*
X131281000Y-71875052D01*
X131228736Y-71612303D01*
X131126216Y-71364799D01*
X130977381Y-71142051D01*
X130824771Y-70989441D01*
X141902000Y-70989441D01*
X141902000Y-71164559D01*
X141936164Y-71336312D01*
X142003179Y-71498099D01*
X142100469Y-71643704D01*
X142224296Y-71767531D01*
X142369901Y-71864821D01*
X142531688Y-71931836D01*
X142703441Y-71966000D01*
X142878559Y-71966000D01*
X143050312Y-71931836D01*
X143129000Y-71899242D01*
X143129000Y-71926176D01*
X143172925Y-72147001D01*
X143259087Y-72355013D01*
X143384174Y-72542220D01*
X143484601Y-72642647D01*
X143484600Y-100142547D01*
X143480792Y-100181210D01*
X143484600Y-100219873D01*
X143484600Y-100219882D01*
X143495994Y-100335566D01*
X143541018Y-100483992D01*
X143614134Y-100620781D01*
X143712531Y-100740679D01*
X143742578Y-100765338D01*
X148629853Y-105652613D01*
X148564179Y-105750901D01*
X148497164Y-105912688D01*
X148463000Y-106084441D01*
X148463000Y-106259559D01*
X148497164Y-106431312D01*
X148564179Y-106593099D01*
X148661469Y-106738704D01*
X148785296Y-106862531D01*
X148930901Y-106959821D01*
X149092688Y-107026836D01*
X149264441Y-107061000D01*
X149439559Y-107061000D01*
X149611312Y-107026836D01*
X149773099Y-106959821D01*
X149871387Y-106894147D01*
X156536667Y-113559428D01*
X156561321Y-113589469D01*
X156681218Y-113687866D01*
X156818007Y-113760982D01*
X156966433Y-113806006D01*
X157054148Y-113814645D01*
X157058901Y-113817821D01*
X157220688Y-113884836D01*
X157392441Y-113919000D01*
X157567559Y-113919000D01*
X157739312Y-113884836D01*
X157901099Y-113817821D01*
X158046704Y-113720531D01*
X158170531Y-113596704D01*
X158267821Y-113451099D01*
X158334836Y-113289312D01*
X158369000Y-113117559D01*
X158369000Y-112942441D01*
X158334836Y-112770688D01*
X158267821Y-112608901D01*
X158170531Y-112463296D01*
X158106338Y-112399103D01*
X158115000Y-112355559D01*
X158115000Y-112301739D01*
X158160975Y-112339469D01*
X158194601Y-112367065D01*
X158331390Y-112440181D01*
X158479816Y-112485205D01*
X158595500Y-112496599D01*
X158595508Y-112496599D01*
X158634173Y-112500407D01*
X158672838Y-112496599D01*
X158881049Y-112496599D01*
X159419016Y-113034567D01*
X159419164Y-113035312D01*
X159486179Y-113197099D01*
X159583469Y-113342704D01*
X159707296Y-113466531D01*
X159852901Y-113563821D01*
X160014688Y-113630836D01*
X160186441Y-113665000D01*
X160361559Y-113665000D01*
X160533312Y-113630836D01*
X160695099Y-113563821D01*
X160840704Y-113466531D01*
X160964531Y-113342704D01*
X161061821Y-113197099D01*
X161128836Y-113035312D01*
X161163000Y-112863559D01*
X161163000Y-112688441D01*
X161128836Y-112516688D01*
X161061821Y-112354901D01*
X160964531Y-112209296D01*
X160840704Y-112085469D01*
X160695099Y-111988179D01*
X160533312Y-111921164D01*
X160532567Y-111921016D01*
X160410992Y-111799441D01*
X166497000Y-111799441D01*
X166497000Y-111974559D01*
X166531164Y-112146312D01*
X166598179Y-112308099D01*
X166695469Y-112453704D01*
X166819296Y-112577531D01*
X166964901Y-112674821D01*
X167126688Y-112741836D01*
X167298441Y-112776000D01*
X167473559Y-112776000D01*
X167645312Y-112741836D01*
X167807099Y-112674821D01*
X167952704Y-112577531D01*
X168076531Y-112453704D01*
X168173821Y-112308099D01*
X168240836Y-112146312D01*
X168275000Y-111974559D01*
X168275000Y-111799441D01*
X168240836Y-111627688D01*
X168173821Y-111465901D01*
X168076531Y-111320296D01*
X167952704Y-111196469D01*
X167807099Y-111099179D01*
X167645312Y-111032164D01*
X167473559Y-110998000D01*
X167298441Y-110998000D01*
X167126688Y-111032164D01*
X166964901Y-111099179D01*
X166819296Y-111196469D01*
X166695469Y-111320296D01*
X166598179Y-111465901D01*
X166531164Y-111627688D01*
X166497000Y-111799441D01*
X160410992Y-111799441D01*
X159791326Y-111179776D01*
X159766668Y-111149730D01*
X159646771Y-111051333D01*
X159509982Y-110978217D01*
X159361556Y-110933193D01*
X159245872Y-110921799D01*
X159245862Y-110921799D01*
X159207199Y-110917991D01*
X159168536Y-110921799D01*
X158960325Y-110921799D01*
X155392967Y-107354441D01*
X157988000Y-107354441D01*
X157988000Y-107529559D01*
X158022164Y-107701312D01*
X158089179Y-107863099D01*
X158186469Y-108008704D01*
X158310296Y-108132531D01*
X158455901Y-108229821D01*
X158617688Y-108296836D01*
X158759048Y-108324954D01*
X158750000Y-108370441D01*
X158750000Y-108545559D01*
X158784164Y-108717312D01*
X158834569Y-108839000D01*
X158784164Y-108960688D01*
X158750000Y-109132441D01*
X158750000Y-109307559D01*
X158784164Y-109479312D01*
X158851179Y-109641099D01*
X158948469Y-109786704D01*
X159072296Y-109910531D01*
X159217901Y-110007821D01*
X159379688Y-110074836D01*
X159551441Y-110109000D01*
X159726559Y-110109000D01*
X159898312Y-110074836D01*
X160060099Y-110007821D01*
X160147000Y-109949756D01*
X160233901Y-110007821D01*
X160395688Y-110074836D01*
X160567441Y-110109000D01*
X160742559Y-110109000D01*
X160914312Y-110074836D01*
X161076099Y-110007821D01*
X161221704Y-109910531D01*
X161345531Y-109786704D01*
X161442821Y-109641099D01*
X161509836Y-109479312D01*
X161544000Y-109307559D01*
X161544000Y-109262431D01*
X161584099Y-109245821D01*
X161729704Y-109148531D01*
X161853531Y-109024704D01*
X161950821Y-108879099D01*
X162017836Y-108717312D01*
X162052000Y-108545559D01*
X162052000Y-108370441D01*
X162017836Y-108198688D01*
X161950821Y-108036901D01*
X161853531Y-107891296D01*
X161729704Y-107767469D01*
X161584099Y-107670179D01*
X161422312Y-107603164D01*
X161250559Y-107569000D01*
X161075441Y-107569000D01*
X160903688Y-107603164D01*
X160741901Y-107670179D01*
X160596296Y-107767469D01*
X160472469Y-107891296D01*
X160401000Y-107998257D01*
X160329531Y-107891296D01*
X160205704Y-107767469D01*
X160060099Y-107670179D01*
X159898312Y-107603164D01*
X159756952Y-107575046D01*
X159766000Y-107529559D01*
X159766000Y-107354441D01*
X159733132Y-107189200D01*
X162521759Y-107189200D01*
X162521759Y-107364318D01*
X162555923Y-107536071D01*
X162622938Y-107697858D01*
X162720228Y-107843463D01*
X162844055Y-107967290D01*
X162989660Y-108064580D01*
X163151447Y-108131595D01*
X163323200Y-108165759D01*
X163498318Y-108165759D01*
X163670071Y-108131595D01*
X163831858Y-108064580D01*
X163977463Y-107967290D01*
X164101290Y-107843463D01*
X164118016Y-107818430D01*
X164084000Y-107989441D01*
X164084000Y-108164559D01*
X164118164Y-108336312D01*
X164185179Y-108498099D01*
X164282469Y-108643704D01*
X164406296Y-108767531D01*
X164551901Y-108864821D01*
X164713688Y-108931836D01*
X164885441Y-108966000D01*
X165060559Y-108966000D01*
X165232312Y-108931836D01*
X165394099Y-108864821D01*
X165539704Y-108767531D01*
X165663531Y-108643704D01*
X165760821Y-108498099D01*
X165827836Y-108336312D01*
X165862000Y-108164559D01*
X165862000Y-107989441D01*
X165827836Y-107817688D01*
X165760821Y-107655901D01*
X165663531Y-107510296D01*
X165539704Y-107386469D01*
X165394099Y-107289179D01*
X165232312Y-107222164D01*
X165060559Y-107188000D01*
X164885441Y-107188000D01*
X164713688Y-107222164D01*
X164551901Y-107289179D01*
X164406296Y-107386469D01*
X164282469Y-107510296D01*
X164265743Y-107535329D01*
X164299759Y-107364318D01*
X164299759Y-107189200D01*
X164265595Y-107017447D01*
X164198580Y-106855660D01*
X164101290Y-106710055D01*
X163977463Y-106586228D01*
X163831858Y-106488938D01*
X163670071Y-106421923D01*
X163498318Y-106387759D01*
X163323200Y-106387759D01*
X163151447Y-106421923D01*
X162989660Y-106488938D01*
X162844055Y-106586228D01*
X162720228Y-106710055D01*
X162622938Y-106855660D01*
X162555923Y-107017447D01*
X162521759Y-107189200D01*
X159733132Y-107189200D01*
X159731836Y-107182688D01*
X159664821Y-107020901D01*
X159567531Y-106875296D01*
X159443704Y-106751469D01*
X159298099Y-106654179D01*
X159136312Y-106587164D01*
X158964559Y-106553000D01*
X158789441Y-106553000D01*
X158617688Y-106587164D01*
X158455901Y-106654179D01*
X158310296Y-106751469D01*
X158186469Y-106875296D01*
X158089179Y-107020901D01*
X158022164Y-107182688D01*
X157988000Y-107354441D01*
X155392967Y-107354441D01*
X153106967Y-105068441D01*
X159639000Y-105068441D01*
X159639000Y-105243559D01*
X159673164Y-105415312D01*
X159740179Y-105577099D01*
X159837469Y-105722704D01*
X159961296Y-105846531D01*
X160106901Y-105943821D01*
X160268688Y-106010836D01*
X160440441Y-106045000D01*
X160615559Y-106045000D01*
X160787312Y-106010836D01*
X160949099Y-105943821D01*
X161094704Y-105846531D01*
X161218531Y-105722704D01*
X161315821Y-105577099D01*
X161382836Y-105415312D01*
X161417000Y-105243559D01*
X161417000Y-105068441D01*
X161382836Y-104896688D01*
X161315821Y-104734901D01*
X161218531Y-104589296D01*
X161094704Y-104465469D01*
X160949099Y-104368179D01*
X160787312Y-104301164D01*
X160615559Y-104267000D01*
X160440441Y-104267000D01*
X160268688Y-104301164D01*
X160106901Y-104368179D01*
X159961296Y-104465469D01*
X159837469Y-104589296D01*
X159740179Y-104734901D01*
X159673164Y-104896688D01*
X159639000Y-105068441D01*
X153106967Y-105068441D01*
X152090966Y-104052441D01*
X157861000Y-104052441D01*
X157861000Y-104227559D01*
X157895164Y-104399312D01*
X157962179Y-104561099D01*
X158059469Y-104706704D01*
X158183296Y-104830531D01*
X158328901Y-104927821D01*
X158490688Y-104994836D01*
X158662441Y-105029000D01*
X158837559Y-105029000D01*
X159009312Y-104994836D01*
X159171099Y-104927821D01*
X159316704Y-104830531D01*
X159440531Y-104706704D01*
X159537821Y-104561099D01*
X159604836Y-104399312D01*
X159639000Y-104227559D01*
X159639000Y-104052441D01*
X159604836Y-103880688D01*
X159537821Y-103718901D01*
X159440531Y-103573296D01*
X159316704Y-103449469D01*
X159171099Y-103352179D01*
X159009312Y-103285164D01*
X158837559Y-103251000D01*
X158662441Y-103251000D01*
X158490688Y-103285164D01*
X158328901Y-103352179D01*
X158183296Y-103449469D01*
X158059469Y-103573296D01*
X157962179Y-103718901D01*
X157895164Y-103880688D01*
X157861000Y-104052441D01*
X152090966Y-104052441D01*
X151201966Y-103163441D01*
X168910000Y-103163441D01*
X168910000Y-103338559D01*
X168944164Y-103510312D01*
X169011179Y-103672099D01*
X169108469Y-103817704D01*
X169232296Y-103941531D01*
X169377901Y-104038821D01*
X169539688Y-104105836D01*
X169711441Y-104140000D01*
X169886559Y-104140000D01*
X170058312Y-104105836D01*
X170220099Y-104038821D01*
X170365704Y-103941531D01*
X170489531Y-103817704D01*
X170586821Y-103672099D01*
X170653836Y-103510312D01*
X170688000Y-103338559D01*
X170688000Y-103163441D01*
X170653836Y-102991688D01*
X170586821Y-102829901D01*
X170489531Y-102684296D01*
X170365704Y-102560469D01*
X170220099Y-102463179D01*
X170058312Y-102396164D01*
X169886559Y-102362000D01*
X169711441Y-102362000D01*
X169539688Y-102396164D01*
X169377901Y-102463179D01*
X169232296Y-102560469D01*
X169108469Y-102684296D01*
X169011179Y-102829901D01*
X168944164Y-102991688D01*
X168910000Y-103163441D01*
X151201966Y-103163441D01*
X147899966Y-99861441D01*
X167640000Y-99861441D01*
X167640000Y-100036559D01*
X167674164Y-100208312D01*
X167741179Y-100370099D01*
X167838469Y-100515704D01*
X167962296Y-100639531D01*
X168107901Y-100736821D01*
X168269688Y-100803836D01*
X168441441Y-100838000D01*
X168616559Y-100838000D01*
X168788312Y-100803836D01*
X168950099Y-100736821D01*
X169095704Y-100639531D01*
X169219531Y-100515704D01*
X169316821Y-100370099D01*
X169369699Y-100242441D01*
X173609000Y-100242441D01*
X173609000Y-100417559D01*
X173643164Y-100589312D01*
X173710179Y-100751099D01*
X173807469Y-100896704D01*
X173931296Y-101020531D01*
X174076901Y-101117821D01*
X174238688Y-101184836D01*
X174410441Y-101219000D01*
X174585559Y-101219000D01*
X174757312Y-101184836D01*
X174919099Y-101117821D01*
X175064704Y-101020531D01*
X175188531Y-100896704D01*
X175285821Y-100751099D01*
X175352836Y-100589312D01*
X175387000Y-100417559D01*
X175387000Y-100242441D01*
X175352836Y-100070688D01*
X175285821Y-99908901D01*
X175188531Y-99763296D01*
X175064704Y-99639469D01*
X174919099Y-99542179D01*
X174757312Y-99475164D01*
X174585559Y-99441000D01*
X174410441Y-99441000D01*
X174238688Y-99475164D01*
X174076901Y-99542179D01*
X173931296Y-99639469D01*
X173807469Y-99763296D01*
X173710179Y-99908901D01*
X173643164Y-100070688D01*
X173609000Y-100242441D01*
X169369699Y-100242441D01*
X169383836Y-100208312D01*
X169418000Y-100036559D01*
X169418000Y-99861441D01*
X169383836Y-99689688D01*
X169316821Y-99527901D01*
X169219531Y-99382296D01*
X169095704Y-99258469D01*
X168950099Y-99161179D01*
X168788312Y-99094164D01*
X168616559Y-99060000D01*
X168441441Y-99060000D01*
X168269688Y-99094164D01*
X168107901Y-99161179D01*
X167962296Y-99258469D01*
X167838469Y-99382296D01*
X167741179Y-99527901D01*
X167674164Y-99689688D01*
X167640000Y-99861441D01*
X147899966Y-99861441D01*
X147010525Y-98972000D01*
X178597928Y-98972000D01*
X178597928Y-100672000D01*
X178610188Y-100796482D01*
X178646498Y-100916180D01*
X178705463Y-101026494D01*
X178784815Y-101123185D01*
X178881506Y-101202537D01*
X178991820Y-101261502D01*
X179111518Y-101297812D01*
X179236000Y-101310072D01*
X180936000Y-101310072D01*
X181060482Y-101297812D01*
X181180180Y-101261502D01*
X181290494Y-101202537D01*
X181387185Y-101123185D01*
X181466537Y-101026494D01*
X181525502Y-100916180D01*
X181561812Y-100796482D01*
X181574072Y-100672000D01*
X181574072Y-98972000D01*
X181561812Y-98847518D01*
X181525502Y-98727820D01*
X181466537Y-98617506D01*
X181387185Y-98520815D01*
X181290494Y-98441463D01*
X181180180Y-98382498D01*
X181107620Y-98360487D01*
X181239475Y-98228632D01*
X181401990Y-97985411D01*
X181513932Y-97715158D01*
X181571000Y-97428260D01*
X181571000Y-97135740D01*
X181513932Y-96848842D01*
X181401990Y-96578589D01*
X181239475Y-96335368D01*
X181032632Y-96128525D01*
X180858240Y-96012000D01*
X181032632Y-95895475D01*
X181239475Y-95688632D01*
X181401990Y-95445411D01*
X181513932Y-95175158D01*
X181571000Y-94888260D01*
X181571000Y-94595740D01*
X181513932Y-94308842D01*
X181401990Y-94038589D01*
X181239475Y-93795368D01*
X181032632Y-93588525D01*
X180858240Y-93472000D01*
X181032632Y-93355475D01*
X181239475Y-93148632D01*
X181401990Y-92905411D01*
X181513932Y-92635158D01*
X181571000Y-92348260D01*
X181571000Y-92055740D01*
X181513932Y-91768842D01*
X181401990Y-91498589D01*
X181239475Y-91255368D01*
X181032632Y-91048525D01*
X180789411Y-90886010D01*
X180519158Y-90774068D01*
X180232260Y-90717000D01*
X179939740Y-90717000D01*
X179652842Y-90774068D01*
X179382589Y-90886010D01*
X179139368Y-91048525D01*
X178932525Y-91255368D01*
X178770010Y-91498589D01*
X178658068Y-91768842D01*
X178601000Y-92055740D01*
X178601000Y-92348260D01*
X178658068Y-92635158D01*
X178770010Y-92905411D01*
X178932525Y-93148632D01*
X179139368Y-93355475D01*
X179313760Y-93472000D01*
X179139368Y-93588525D01*
X178932525Y-93795368D01*
X178770010Y-94038589D01*
X178658068Y-94308842D01*
X178601000Y-94595740D01*
X178601000Y-94888260D01*
X178658068Y-95175158D01*
X178770010Y-95445411D01*
X178932525Y-95688632D01*
X179139368Y-95895475D01*
X179313760Y-96012000D01*
X179139368Y-96128525D01*
X178932525Y-96335368D01*
X178770010Y-96578589D01*
X178658068Y-96848842D01*
X178601000Y-97135740D01*
X178601000Y-97428260D01*
X178658068Y-97715158D01*
X178770010Y-97985411D01*
X178932525Y-98228632D01*
X179064380Y-98360487D01*
X178991820Y-98382498D01*
X178881506Y-98441463D01*
X178784815Y-98520815D01*
X178705463Y-98617506D01*
X178646498Y-98727820D01*
X178610188Y-98847518D01*
X178597928Y-98972000D01*
X147010525Y-98972000D01*
X145872201Y-97833677D01*
X145872201Y-97194441D01*
X158369000Y-97194441D01*
X158369000Y-97369559D01*
X158403164Y-97541312D01*
X158470179Y-97703099D01*
X158567469Y-97848704D01*
X158691296Y-97972531D01*
X158836901Y-98069821D01*
X158998688Y-98136836D01*
X159170441Y-98171000D01*
X159345559Y-98171000D01*
X159517312Y-98136836D01*
X159679099Y-98069821D01*
X159731844Y-98034578D01*
X159740179Y-98054699D01*
X159837469Y-98200304D01*
X159961296Y-98324131D01*
X160106901Y-98421421D01*
X160268688Y-98488436D01*
X160440441Y-98522600D01*
X160615559Y-98522600D01*
X160787312Y-98488436D01*
X160949099Y-98421421D01*
X161094704Y-98324131D01*
X161218531Y-98200304D01*
X161315821Y-98054699D01*
X161382836Y-97892912D01*
X161417000Y-97721159D01*
X161417000Y-97546041D01*
X161382836Y-97374288D01*
X161315821Y-97212501D01*
X161218531Y-97066896D01*
X161094704Y-96943069D01*
X160949099Y-96845779D01*
X160787312Y-96778764D01*
X160615559Y-96744600D01*
X160440441Y-96744600D01*
X160268688Y-96778764D01*
X160106901Y-96845779D01*
X160054156Y-96881022D01*
X160045821Y-96860901D01*
X159948531Y-96715296D01*
X159824704Y-96591469D01*
X159679099Y-96494179D01*
X159517312Y-96427164D01*
X159345559Y-96393000D01*
X159170441Y-96393000D01*
X158998688Y-96427164D01*
X158836901Y-96494179D01*
X158691296Y-96591469D01*
X158567469Y-96715296D01*
X158470179Y-96860901D01*
X158403164Y-97022688D01*
X158369000Y-97194441D01*
X145872201Y-97194441D01*
X145872201Y-92563740D01*
X146089000Y-92563740D01*
X146089000Y-92856260D01*
X146146068Y-93143158D01*
X146258010Y-93413411D01*
X146420525Y-93656632D01*
X146627368Y-93863475D01*
X146870589Y-94025990D01*
X147140842Y-94137932D01*
X147427740Y-94195000D01*
X147720260Y-94195000D01*
X148007158Y-94137932D01*
X148277411Y-94025990D01*
X148520632Y-93863475D01*
X148652487Y-93731620D01*
X148674498Y-93804180D01*
X148733463Y-93914494D01*
X148812815Y-94011185D01*
X148909506Y-94090537D01*
X149019820Y-94149502D01*
X149139518Y-94185812D01*
X149264000Y-94198072D01*
X150964000Y-94198072D01*
X151088482Y-94185812D01*
X151208180Y-94149502D01*
X151318494Y-94090537D01*
X151405125Y-94019441D01*
X171069000Y-94019441D01*
X171069000Y-94194559D01*
X171103164Y-94366312D01*
X171170179Y-94528099D01*
X171267469Y-94673704D01*
X171391296Y-94797531D01*
X171536901Y-94894821D01*
X171698688Y-94961836D01*
X171870441Y-94996000D01*
X172045559Y-94996000D01*
X172217312Y-94961836D01*
X172379099Y-94894821D01*
X172524704Y-94797531D01*
X172648531Y-94673704D01*
X172745821Y-94528099D01*
X172812836Y-94366312D01*
X172847000Y-94194559D01*
X172847000Y-94019441D01*
X172812836Y-93847688D01*
X172745821Y-93685901D01*
X172648531Y-93540296D01*
X172524704Y-93416469D01*
X172379099Y-93319179D01*
X172217312Y-93252164D01*
X172045559Y-93218000D01*
X171870441Y-93218000D01*
X171698688Y-93252164D01*
X171536901Y-93319179D01*
X171391296Y-93416469D01*
X171267469Y-93540296D01*
X171170179Y-93685901D01*
X171103164Y-93847688D01*
X171069000Y-94019441D01*
X151405125Y-94019441D01*
X151415185Y-94011185D01*
X151494537Y-93914494D01*
X151553502Y-93804180D01*
X151589812Y-93684482D01*
X151602072Y-93560000D01*
X151602072Y-91860441D01*
X159131000Y-91860441D01*
X159131000Y-92035559D01*
X159165164Y-92207312D01*
X159232179Y-92369099D01*
X159329469Y-92514704D01*
X159453296Y-92638531D01*
X159598901Y-92735821D01*
X159760688Y-92802836D01*
X159932441Y-92837000D01*
X160107559Y-92837000D01*
X160279312Y-92802836D01*
X160441099Y-92735821D01*
X160586704Y-92638531D01*
X160710531Y-92514704D01*
X160807821Y-92369099D01*
X160874836Y-92207312D01*
X160909000Y-92035559D01*
X160909000Y-91860441D01*
X160874836Y-91688688D01*
X160807821Y-91526901D01*
X160710531Y-91381296D01*
X160586704Y-91257469D01*
X160441099Y-91160179D01*
X160292052Y-91098441D01*
X162687000Y-91098441D01*
X162687000Y-91273559D01*
X162721164Y-91445312D01*
X162788179Y-91607099D01*
X162885469Y-91752704D01*
X163009296Y-91876531D01*
X163154901Y-91973821D01*
X163316688Y-92040836D01*
X163488441Y-92075000D01*
X163663559Y-92075000D01*
X163835312Y-92040836D01*
X163997099Y-91973821D01*
X164142704Y-91876531D01*
X164266531Y-91752704D01*
X164363821Y-91607099D01*
X164430836Y-91445312D01*
X164465000Y-91273559D01*
X164465000Y-91225441D01*
X173482000Y-91225441D01*
X173482000Y-91400559D01*
X173516164Y-91572312D01*
X173583179Y-91734099D01*
X173680469Y-91879704D01*
X173804296Y-92003531D01*
X173949901Y-92100821D01*
X174111688Y-92167836D01*
X174283441Y-92202000D01*
X174458559Y-92202000D01*
X174630312Y-92167836D01*
X174792099Y-92100821D01*
X174937704Y-92003531D01*
X175061531Y-91879704D01*
X175158821Y-91734099D01*
X175225836Y-91572312D01*
X175260000Y-91400559D01*
X175260000Y-91225441D01*
X175225836Y-91053688D01*
X175158821Y-90891901D01*
X175061531Y-90746296D01*
X174937704Y-90622469D01*
X174792099Y-90525179D01*
X174630312Y-90458164D01*
X174458559Y-90424000D01*
X174283441Y-90424000D01*
X174111688Y-90458164D01*
X173949901Y-90525179D01*
X173804296Y-90622469D01*
X173680469Y-90746296D01*
X173583179Y-90891901D01*
X173516164Y-91053688D01*
X173482000Y-91225441D01*
X164465000Y-91225441D01*
X164465000Y-91098441D01*
X164430836Y-90926688D01*
X164363821Y-90764901D01*
X164266531Y-90619296D01*
X164142704Y-90495469D01*
X163997099Y-90398179D01*
X163835312Y-90331164D01*
X163663559Y-90297000D01*
X163488441Y-90297000D01*
X163316688Y-90331164D01*
X163154901Y-90398179D01*
X163009296Y-90495469D01*
X162885469Y-90619296D01*
X162788179Y-90764901D01*
X162721164Y-90926688D01*
X162687000Y-91098441D01*
X160292052Y-91098441D01*
X160279312Y-91093164D01*
X160107559Y-91059000D01*
X159932441Y-91059000D01*
X159760688Y-91093164D01*
X159598901Y-91160179D01*
X159453296Y-91257469D01*
X159329469Y-91381296D01*
X159232179Y-91526901D01*
X159165164Y-91688688D01*
X159131000Y-91860441D01*
X151602072Y-91860441D01*
X151602072Y-91860000D01*
X151589812Y-91735518D01*
X151553502Y-91615820D01*
X151494537Y-91505506D01*
X151415185Y-91408815D01*
X151318494Y-91329463D01*
X151208180Y-91270498D01*
X151088482Y-91234188D01*
X150964000Y-91221928D01*
X149264000Y-91221928D01*
X149139518Y-91234188D01*
X149019820Y-91270498D01*
X148909506Y-91329463D01*
X148812815Y-91408815D01*
X148733463Y-91505506D01*
X148674498Y-91615820D01*
X148652487Y-91688380D01*
X148520632Y-91556525D01*
X148277411Y-91394010D01*
X148007158Y-91282068D01*
X147720260Y-91225000D01*
X147427740Y-91225000D01*
X147140842Y-91282068D01*
X146870589Y-91394010D01*
X146627368Y-91556525D01*
X146420525Y-91763368D01*
X146258010Y-92006589D01*
X146146068Y-92276842D01*
X146089000Y-92563740D01*
X145872201Y-92563740D01*
X145872201Y-89828441D01*
X147955000Y-89828441D01*
X147955000Y-90003559D01*
X147989164Y-90175312D01*
X148056179Y-90337099D01*
X148153469Y-90482704D01*
X148277296Y-90606531D01*
X148422901Y-90703821D01*
X148584688Y-90770836D01*
X148756441Y-90805000D01*
X148931559Y-90805000D01*
X149103312Y-90770836D01*
X149265099Y-90703821D01*
X149410704Y-90606531D01*
X149534531Y-90482704D01*
X149631821Y-90337099D01*
X149698836Y-90175312D01*
X149733000Y-90003559D01*
X149733000Y-89828441D01*
X149698836Y-89656688D01*
X149631821Y-89494901D01*
X149534531Y-89349296D01*
X149410704Y-89225469D01*
X149265099Y-89128179D01*
X149103312Y-89061164D01*
X148931559Y-89027000D01*
X148756441Y-89027000D01*
X148584688Y-89061164D01*
X148422901Y-89128179D01*
X148277296Y-89225469D01*
X148153469Y-89349296D01*
X148056179Y-89494901D01*
X147989164Y-89656688D01*
X147955000Y-89828441D01*
X145872201Y-89828441D01*
X145872201Y-88431441D01*
X157607000Y-88431441D01*
X157607000Y-88606559D01*
X157641164Y-88778312D01*
X157708179Y-88940099D01*
X157805469Y-89085704D01*
X157929296Y-89209531D01*
X158074901Y-89306821D01*
X158236688Y-89373836D01*
X158408441Y-89408000D01*
X158583559Y-89408000D01*
X158755312Y-89373836D01*
X158917099Y-89306821D01*
X159062704Y-89209531D01*
X159186531Y-89085704D01*
X159283821Y-88940099D01*
X159350836Y-88778312D01*
X159385000Y-88606559D01*
X159385000Y-88431441D01*
X159350836Y-88259688D01*
X159316768Y-88177441D01*
X159385000Y-88177441D01*
X159385000Y-88352559D01*
X159419164Y-88524312D01*
X159486179Y-88686099D01*
X159583469Y-88831704D01*
X159707296Y-88955531D01*
X159852901Y-89052821D01*
X160014688Y-89119836D01*
X160186441Y-89154000D01*
X160361559Y-89154000D01*
X160533312Y-89119836D01*
X160695099Y-89052821D01*
X160840704Y-88955531D01*
X160964531Y-88831704D01*
X161061821Y-88686099D01*
X161128836Y-88524312D01*
X161163000Y-88352559D01*
X161163000Y-88245740D01*
X168949000Y-88245740D01*
X168949000Y-88538260D01*
X169006068Y-88825158D01*
X169118010Y-89095411D01*
X169280525Y-89338632D01*
X169487368Y-89545475D01*
X169730589Y-89707990D01*
X170000842Y-89819932D01*
X170287740Y-89877000D01*
X170580260Y-89877000D01*
X170867158Y-89819932D01*
X171137411Y-89707990D01*
X171380632Y-89545475D01*
X171587475Y-89338632D01*
X171704000Y-89164240D01*
X171820525Y-89338632D01*
X172027368Y-89545475D01*
X172270589Y-89707990D01*
X172540842Y-89819932D01*
X172827740Y-89877000D01*
X173120260Y-89877000D01*
X173407158Y-89819932D01*
X173677411Y-89707990D01*
X173920632Y-89545475D01*
X174127475Y-89338632D01*
X174244000Y-89164240D01*
X174360525Y-89338632D01*
X174567368Y-89545475D01*
X174810589Y-89707990D01*
X175080842Y-89819932D01*
X175367740Y-89877000D01*
X175660260Y-89877000D01*
X175947158Y-89819932D01*
X176217411Y-89707990D01*
X176460632Y-89545475D01*
X176592487Y-89413620D01*
X176614498Y-89486180D01*
X176673463Y-89596494D01*
X176752815Y-89693185D01*
X176849506Y-89772537D01*
X176959820Y-89831502D01*
X177079518Y-89867812D01*
X177204000Y-89880072D01*
X177768250Y-89877000D01*
X177927000Y-89718250D01*
X177927000Y-88519000D01*
X178181000Y-88519000D01*
X178181000Y-89718250D01*
X178339750Y-89877000D01*
X178904000Y-89880072D01*
X179028482Y-89867812D01*
X179148180Y-89831502D01*
X179258494Y-89772537D01*
X179355185Y-89693185D01*
X179434537Y-89596494D01*
X179493502Y-89486180D01*
X179529812Y-89366482D01*
X179542072Y-89242000D01*
X179539000Y-88677750D01*
X179380250Y-88519000D01*
X178181000Y-88519000D01*
X177927000Y-88519000D01*
X177907000Y-88519000D01*
X177907000Y-88265000D01*
X177927000Y-88265000D01*
X177927000Y-87065750D01*
X178181000Y-87065750D01*
X178181000Y-88265000D01*
X179380250Y-88265000D01*
X179539000Y-88106250D01*
X179542072Y-87542000D01*
X179529812Y-87417518D01*
X179493502Y-87297820D01*
X179434537Y-87187506D01*
X179355185Y-87090815D01*
X179258494Y-87011463D01*
X179148180Y-86952498D01*
X179028482Y-86916188D01*
X178904000Y-86903928D01*
X178339750Y-86907000D01*
X178181000Y-87065750D01*
X177927000Y-87065750D01*
X177768250Y-86907000D01*
X177204000Y-86903928D01*
X177079518Y-86916188D01*
X176959820Y-86952498D01*
X176849506Y-87011463D01*
X176752815Y-87090815D01*
X176673463Y-87187506D01*
X176614498Y-87297820D01*
X176592487Y-87370380D01*
X176460632Y-87238525D01*
X176217411Y-87076010D01*
X175947158Y-86964068D01*
X175660260Y-86907000D01*
X175367740Y-86907000D01*
X175080842Y-86964068D01*
X174810589Y-87076010D01*
X174567368Y-87238525D01*
X174360525Y-87445368D01*
X174244000Y-87619760D01*
X174127475Y-87445368D01*
X173920632Y-87238525D01*
X173677411Y-87076010D01*
X173407158Y-86964068D01*
X173120260Y-86907000D01*
X172827740Y-86907000D01*
X172540842Y-86964068D01*
X172270589Y-87076010D01*
X172027368Y-87238525D01*
X171820525Y-87445368D01*
X171704000Y-87619760D01*
X171587475Y-87445368D01*
X171380632Y-87238525D01*
X171137411Y-87076010D01*
X170867158Y-86964068D01*
X170580260Y-86907000D01*
X170287740Y-86907000D01*
X170000842Y-86964068D01*
X169730589Y-87076010D01*
X169487368Y-87238525D01*
X169280525Y-87445368D01*
X169118010Y-87688589D01*
X169006068Y-87958842D01*
X168949000Y-88245740D01*
X161163000Y-88245740D01*
X161163000Y-88177441D01*
X161128836Y-88005688D01*
X161061821Y-87843901D01*
X160964531Y-87698296D01*
X160840704Y-87574469D01*
X160695099Y-87477179D01*
X160533312Y-87410164D01*
X160361559Y-87376000D01*
X160186441Y-87376000D01*
X160014688Y-87410164D01*
X159852901Y-87477179D01*
X159707296Y-87574469D01*
X159583469Y-87698296D01*
X159486179Y-87843901D01*
X159419164Y-88005688D01*
X159385000Y-88177441D01*
X159316768Y-88177441D01*
X159283821Y-88097901D01*
X159186531Y-87952296D01*
X159062704Y-87828469D01*
X158917099Y-87731179D01*
X158755312Y-87664164D01*
X158583559Y-87630000D01*
X158408441Y-87630000D01*
X158236688Y-87664164D01*
X158074901Y-87731179D01*
X157929296Y-87828469D01*
X157805469Y-87952296D01*
X157708179Y-88097901D01*
X157641164Y-88259688D01*
X157607000Y-88431441D01*
X145872201Y-88431441D01*
X145872201Y-84367441D01*
X151892000Y-84367441D01*
X151892000Y-84542559D01*
X151926164Y-84714312D01*
X151993179Y-84876099D01*
X152090469Y-85021704D01*
X152214296Y-85145531D01*
X152359901Y-85242821D01*
X152521688Y-85309836D01*
X152693441Y-85344000D01*
X152868559Y-85344000D01*
X153040312Y-85309836D01*
X153202099Y-85242821D01*
X153347704Y-85145531D01*
X153471531Y-85021704D01*
X153568821Y-84876099D01*
X153621699Y-84748441D01*
X156464000Y-84748441D01*
X156464000Y-84923559D01*
X156498164Y-85095312D01*
X156565179Y-85257099D01*
X156662469Y-85402704D01*
X156786296Y-85526531D01*
X156931901Y-85623821D01*
X157093688Y-85690836D01*
X157265441Y-85725000D01*
X157440559Y-85725000D01*
X157612312Y-85690836D01*
X157774099Y-85623821D01*
X157919704Y-85526531D01*
X158043531Y-85402704D01*
X158140821Y-85257099D01*
X158207836Y-85095312D01*
X158242000Y-84923559D01*
X158242000Y-84875441D01*
X166243000Y-84875441D01*
X166243000Y-85050559D01*
X166277164Y-85222312D01*
X166344179Y-85384099D01*
X166441469Y-85529704D01*
X166565296Y-85653531D01*
X166710901Y-85750821D01*
X166872688Y-85817836D01*
X167044441Y-85852000D01*
X167219559Y-85852000D01*
X167391312Y-85817836D01*
X167553099Y-85750821D01*
X167698704Y-85653531D01*
X167822531Y-85529704D01*
X167919821Y-85384099D01*
X167986836Y-85222312D01*
X168021000Y-85050559D01*
X168021000Y-84875441D01*
X167986836Y-84703688D01*
X167982625Y-84693521D01*
X168060441Y-84709000D01*
X168235559Y-84709000D01*
X168407312Y-84674836D01*
X168569099Y-84607821D01*
X168714704Y-84510531D01*
X168838531Y-84386704D01*
X168935821Y-84241099D01*
X169002836Y-84079312D01*
X169037000Y-83907559D01*
X169037000Y-83732441D01*
X169002836Y-83560688D01*
X168935821Y-83398901D01*
X168838531Y-83253296D01*
X168714704Y-83129469D01*
X168569099Y-83032179D01*
X168407312Y-82965164D01*
X168235559Y-82931000D01*
X168060441Y-82931000D01*
X167888688Y-82965164D01*
X167726901Y-83032179D01*
X167581296Y-83129469D01*
X167457469Y-83253296D01*
X167360179Y-83398901D01*
X167293164Y-83560688D01*
X167259000Y-83732441D01*
X167259000Y-83907559D01*
X167293164Y-84079312D01*
X167297375Y-84089479D01*
X167219559Y-84074000D01*
X167044441Y-84074000D01*
X166872688Y-84108164D01*
X166710901Y-84175179D01*
X166565296Y-84272469D01*
X166441469Y-84396296D01*
X166344179Y-84541901D01*
X166277164Y-84703688D01*
X166243000Y-84875441D01*
X158242000Y-84875441D01*
X158242000Y-84748441D01*
X158207836Y-84576688D01*
X158140821Y-84414901D01*
X158043531Y-84269296D01*
X157919704Y-84145469D01*
X157774099Y-84048179D01*
X157612312Y-83981164D01*
X157440559Y-83947000D01*
X157265441Y-83947000D01*
X157093688Y-83981164D01*
X156931901Y-84048179D01*
X156786296Y-84145469D01*
X156662469Y-84269296D01*
X156565179Y-84414901D01*
X156498164Y-84576688D01*
X156464000Y-84748441D01*
X153621699Y-84748441D01*
X153635836Y-84714312D01*
X153670000Y-84542559D01*
X153670000Y-84367441D01*
X153635836Y-84195688D01*
X153568821Y-84033901D01*
X153471531Y-83888296D01*
X153347704Y-83764469D01*
X153299771Y-83732441D01*
X161671000Y-83732441D01*
X161671000Y-83907559D01*
X161705164Y-84079312D01*
X161772179Y-84241099D01*
X161869469Y-84386704D01*
X161993296Y-84510531D01*
X162138901Y-84607821D01*
X162300688Y-84674836D01*
X162472441Y-84709000D01*
X162647559Y-84709000D01*
X162819312Y-84674836D01*
X162981099Y-84607821D01*
X163126704Y-84510531D01*
X163250531Y-84386704D01*
X163347821Y-84241099D01*
X163414836Y-84079312D01*
X163449000Y-83907559D01*
X163449000Y-83732441D01*
X163443946Y-83707031D01*
X164465000Y-83707031D01*
X164465000Y-83882149D01*
X164499164Y-84053902D01*
X164566179Y-84215689D01*
X164663469Y-84361294D01*
X164787296Y-84485121D01*
X164932901Y-84582411D01*
X165094688Y-84649426D01*
X165266441Y-84683590D01*
X165441559Y-84683590D01*
X165613312Y-84649426D01*
X165775099Y-84582411D01*
X165920704Y-84485121D01*
X166044531Y-84361294D01*
X166141821Y-84215689D01*
X166208836Y-84053902D01*
X166243000Y-83882149D01*
X166243000Y-83707031D01*
X166208836Y-83535278D01*
X166141821Y-83373491D01*
X166044531Y-83227886D01*
X165920704Y-83104059D01*
X165775099Y-83006769D01*
X165613312Y-82939754D01*
X165441559Y-82905590D01*
X165266441Y-82905590D01*
X165094688Y-82939754D01*
X164932901Y-83006769D01*
X164787296Y-83104059D01*
X164663469Y-83227886D01*
X164566179Y-83373491D01*
X164499164Y-83535278D01*
X164465000Y-83707031D01*
X163443946Y-83707031D01*
X163414836Y-83560688D01*
X163347821Y-83398901D01*
X163250531Y-83253296D01*
X163126704Y-83129469D01*
X162981099Y-83032179D01*
X162819312Y-82965164D01*
X162647559Y-82931000D01*
X162472441Y-82931000D01*
X162300688Y-82965164D01*
X162138901Y-83032179D01*
X161993296Y-83129469D01*
X161869469Y-83253296D01*
X161772179Y-83398901D01*
X161705164Y-83560688D01*
X161671000Y-83732441D01*
X153299771Y-83732441D01*
X153202099Y-83667179D01*
X153040312Y-83600164D01*
X152868559Y-83566000D01*
X152693441Y-83566000D01*
X152521688Y-83600164D01*
X152359901Y-83667179D01*
X152214296Y-83764469D01*
X152090469Y-83888296D01*
X151993179Y-84033901D01*
X151926164Y-84195688D01*
X151892000Y-84367441D01*
X145872201Y-84367441D01*
X145872201Y-81065441D01*
X148590000Y-81065441D01*
X148590000Y-81240559D01*
X148624164Y-81412312D01*
X148691179Y-81574099D01*
X148788469Y-81719704D01*
X148912296Y-81843531D01*
X149057901Y-81940821D01*
X149219688Y-82007836D01*
X149391441Y-82042000D01*
X149566559Y-82042000D01*
X149738312Y-82007836D01*
X149900099Y-81940821D01*
X150045704Y-81843531D01*
X150169531Y-81719704D01*
X150266821Y-81574099D01*
X150333836Y-81412312D01*
X150368000Y-81240559D01*
X150368000Y-81065441D01*
X150333836Y-80893688D01*
X150266821Y-80731901D01*
X150169531Y-80586296D01*
X150045704Y-80462469D01*
X149900099Y-80365179D01*
X149738312Y-80298164D01*
X149566559Y-80264000D01*
X149391441Y-80264000D01*
X149219688Y-80298164D01*
X149057901Y-80365179D01*
X148912296Y-80462469D01*
X148788469Y-80586296D01*
X148691179Y-80731901D01*
X148624164Y-80893688D01*
X148590000Y-81065441D01*
X145872201Y-81065441D01*
X145872201Y-78906441D01*
X152654000Y-78906441D01*
X152654000Y-79081559D01*
X152688164Y-79253312D01*
X152755179Y-79415099D01*
X152852469Y-79560704D01*
X152976296Y-79684531D01*
X153121901Y-79781821D01*
X153283688Y-79848836D01*
X153455441Y-79883000D01*
X153630559Y-79883000D01*
X153802312Y-79848836D01*
X153964099Y-79781821D01*
X154109704Y-79684531D01*
X154116085Y-79678150D01*
X154122469Y-79687704D01*
X154246296Y-79811531D01*
X154258222Y-79819500D01*
X154246296Y-79827469D01*
X154122469Y-79951296D01*
X154025179Y-80096901D01*
X153958164Y-80258688D01*
X153924000Y-80430441D01*
X153924000Y-80605559D01*
X153958164Y-80777312D01*
X154025179Y-80939099D01*
X154122469Y-81084704D01*
X154246296Y-81208531D01*
X154391901Y-81305821D01*
X154553688Y-81372836D01*
X154725441Y-81407000D01*
X154900559Y-81407000D01*
X155072312Y-81372836D01*
X155234099Y-81305821D01*
X155379704Y-81208531D01*
X155503531Y-81084704D01*
X155600821Y-80939099D01*
X155641117Y-80841817D01*
X155696688Y-80864836D01*
X155779218Y-80881252D01*
X155803179Y-80939099D01*
X155900469Y-81084704D01*
X156024296Y-81208531D01*
X156169901Y-81305821D01*
X156331688Y-81372836D01*
X156503441Y-81407000D01*
X156678559Y-81407000D01*
X156850312Y-81372836D01*
X157012099Y-81305821D01*
X157157704Y-81208531D01*
X157281531Y-81084704D01*
X157378821Y-80939099D01*
X157445836Y-80777312D01*
X157464309Y-80684441D01*
X162687000Y-80684441D01*
X162687000Y-80859559D01*
X162721164Y-81031312D01*
X162788179Y-81193099D01*
X162885469Y-81338704D01*
X163009296Y-81462531D01*
X163154901Y-81559821D01*
X163316688Y-81626836D01*
X163488441Y-81661000D01*
X163663559Y-81661000D01*
X163835312Y-81626836D01*
X163997099Y-81559821D01*
X164142704Y-81462531D01*
X164266531Y-81338704D01*
X164363821Y-81193099D01*
X164430836Y-81031312D01*
X164465000Y-80859559D01*
X164465000Y-80684441D01*
X164430836Y-80512688D01*
X164363821Y-80350901D01*
X164266531Y-80205296D01*
X164142704Y-80081469D01*
X163997099Y-79984179D01*
X163835312Y-79917164D01*
X163663559Y-79883000D01*
X163488441Y-79883000D01*
X163316688Y-79917164D01*
X163154901Y-79984179D01*
X163009296Y-80081469D01*
X162885469Y-80205296D01*
X162788179Y-80350901D01*
X162721164Y-80512688D01*
X162687000Y-80684441D01*
X157464309Y-80684441D01*
X157480000Y-80605559D01*
X157480000Y-80430441D01*
X157445836Y-80258688D01*
X157378821Y-80096901D01*
X157320756Y-80010000D01*
X157378821Y-79923099D01*
X157445836Y-79761312D01*
X157480000Y-79589559D01*
X157480000Y-79414441D01*
X157445836Y-79242688D01*
X157378821Y-79080901D01*
X157281531Y-78935296D01*
X157157704Y-78811469D01*
X157012099Y-78714179D01*
X156850312Y-78647164D01*
X156678559Y-78613000D01*
X156503441Y-78613000D01*
X156331688Y-78647164D01*
X156169901Y-78714179D01*
X156024296Y-78811469D01*
X155900469Y-78935296D01*
X155803179Y-79080901D01*
X155779218Y-79138748D01*
X155702000Y-79154107D01*
X155702000Y-79033441D01*
X155667836Y-78861688D01*
X155600821Y-78699901D01*
X155503531Y-78554296D01*
X155379704Y-78430469D01*
X155234099Y-78333179D01*
X155072312Y-78266164D01*
X154900559Y-78232000D01*
X154725441Y-78232000D01*
X154553688Y-78266164D01*
X154391901Y-78333179D01*
X154246296Y-78430469D01*
X154239915Y-78436850D01*
X154233531Y-78427296D01*
X154109704Y-78303469D01*
X153964099Y-78206179D01*
X153802312Y-78139164D01*
X153630559Y-78105000D01*
X153455441Y-78105000D01*
X153283688Y-78139164D01*
X153121901Y-78206179D01*
X152976296Y-78303469D01*
X152852469Y-78427296D01*
X152755179Y-78572901D01*
X152688164Y-78734688D01*
X152654000Y-78906441D01*
X145872201Y-78906441D01*
X145872201Y-77261098D01*
X154540443Y-77261098D01*
X154540443Y-77436216D01*
X154574607Y-77607969D01*
X154641622Y-77769756D01*
X154738912Y-77915361D01*
X154862739Y-78039188D01*
X155008344Y-78136478D01*
X155170131Y-78203493D01*
X155341884Y-78237657D01*
X155517002Y-78237657D01*
X155688755Y-78203493D01*
X155831317Y-78144441D01*
X161163000Y-78144441D01*
X161163000Y-78319559D01*
X161197164Y-78491312D01*
X161264179Y-78653099D01*
X161361469Y-78798704D01*
X161485296Y-78922531D01*
X161630901Y-79019821D01*
X161792688Y-79086836D01*
X161964441Y-79121000D01*
X162139559Y-79121000D01*
X162311312Y-79086836D01*
X162473099Y-79019821D01*
X162618704Y-78922531D01*
X162634794Y-78906441D01*
X166497000Y-78906441D01*
X166497000Y-79081559D01*
X166531164Y-79253312D01*
X166598179Y-79415099D01*
X166695469Y-79560704D01*
X166819296Y-79684531D01*
X166964901Y-79781821D01*
X167126688Y-79848836D01*
X167298441Y-79883000D01*
X167473559Y-79883000D01*
X167645312Y-79848836D01*
X167807099Y-79781821D01*
X167952704Y-79684531D01*
X168076531Y-79560704D01*
X168173821Y-79415099D01*
X168240836Y-79253312D01*
X168275000Y-79081559D01*
X168275000Y-78906441D01*
X168240836Y-78734688D01*
X168173821Y-78572901D01*
X168076531Y-78427296D01*
X167952704Y-78303469D01*
X167807099Y-78206179D01*
X167645312Y-78139164D01*
X167473559Y-78105000D01*
X167298441Y-78105000D01*
X167126688Y-78139164D01*
X166964901Y-78206179D01*
X166819296Y-78303469D01*
X166695469Y-78427296D01*
X166598179Y-78572901D01*
X166531164Y-78734688D01*
X166497000Y-78906441D01*
X162634794Y-78906441D01*
X162742531Y-78798704D01*
X162839821Y-78653099D01*
X162906836Y-78491312D01*
X162941000Y-78319559D01*
X162941000Y-78144441D01*
X162906836Y-77972688D01*
X162839821Y-77810901D01*
X162742531Y-77665296D01*
X162618704Y-77541469D01*
X162473099Y-77444179D01*
X162311312Y-77377164D01*
X162139559Y-77343000D01*
X161964441Y-77343000D01*
X161792688Y-77377164D01*
X161630901Y-77444179D01*
X161485296Y-77541469D01*
X161361469Y-77665296D01*
X161264179Y-77810901D01*
X161197164Y-77972688D01*
X161163000Y-78144441D01*
X155831317Y-78144441D01*
X155850542Y-78136478D01*
X155996147Y-78039188D01*
X156119974Y-77915361D01*
X156217264Y-77769756D01*
X156284279Y-77607969D01*
X156318443Y-77436216D01*
X156318443Y-77261098D01*
X156284279Y-77089345D01*
X156217264Y-76927558D01*
X156119974Y-76781953D01*
X155996147Y-76658126D01*
X155850542Y-76560836D01*
X155688755Y-76493821D01*
X155517002Y-76459657D01*
X155341884Y-76459657D01*
X155170131Y-76493821D01*
X155008344Y-76560836D01*
X154862739Y-76658126D01*
X154738912Y-76781953D01*
X154641622Y-76927558D01*
X154574607Y-77089345D01*
X154540443Y-77261098D01*
X145872201Y-77261098D01*
X145872201Y-76112441D01*
X161163000Y-76112441D01*
X161163000Y-76287559D01*
X161197164Y-76459312D01*
X161264179Y-76621099D01*
X161361469Y-76766704D01*
X161485296Y-76890531D01*
X161630901Y-76987821D01*
X161792688Y-77054836D01*
X161964441Y-77089000D01*
X162139559Y-77089000D01*
X162311312Y-77054836D01*
X162473099Y-76987821D01*
X162618704Y-76890531D01*
X162742531Y-76766704D01*
X162839821Y-76621099D01*
X162906836Y-76459312D01*
X162941000Y-76287559D01*
X162941000Y-76239441D01*
X166243000Y-76239441D01*
X166243000Y-76414559D01*
X166277164Y-76586312D01*
X166344179Y-76748099D01*
X166441469Y-76893704D01*
X166565296Y-77017531D01*
X166710901Y-77114821D01*
X166872688Y-77181836D01*
X167044441Y-77216000D01*
X167219559Y-77216000D01*
X167391312Y-77181836D01*
X167553099Y-77114821D01*
X167698704Y-77017531D01*
X167822531Y-76893704D01*
X167919821Y-76748099D01*
X167972699Y-76620441D01*
X183261000Y-76620441D01*
X183261000Y-76795559D01*
X183295164Y-76967312D01*
X183362179Y-77129099D01*
X183459469Y-77274704D01*
X183583296Y-77398531D01*
X183728901Y-77495821D01*
X183890688Y-77562836D01*
X184062441Y-77597000D01*
X184237559Y-77597000D01*
X184409312Y-77562836D01*
X184571099Y-77495821D01*
X184716704Y-77398531D01*
X184840531Y-77274704D01*
X184937821Y-77129099D01*
X185004836Y-76967312D01*
X185039000Y-76795559D01*
X185039000Y-76620441D01*
X185004836Y-76448688D01*
X184937821Y-76286901D01*
X184840531Y-76141296D01*
X184716704Y-76017469D01*
X184571099Y-75920179D01*
X184409312Y-75853164D01*
X184237559Y-75819000D01*
X184062441Y-75819000D01*
X183890688Y-75853164D01*
X183728901Y-75920179D01*
X183583296Y-76017469D01*
X183459469Y-76141296D01*
X183362179Y-76286901D01*
X183295164Y-76448688D01*
X183261000Y-76620441D01*
X167972699Y-76620441D01*
X167986836Y-76586312D01*
X168021000Y-76414559D01*
X168021000Y-76239441D01*
X167986836Y-76067688D01*
X167919821Y-75905901D01*
X167822531Y-75760296D01*
X167698704Y-75636469D01*
X167650771Y-75604441D01*
X180975000Y-75604441D01*
X180975000Y-75779559D01*
X181009164Y-75951312D01*
X181076179Y-76113099D01*
X181173469Y-76258704D01*
X181297296Y-76382531D01*
X181442901Y-76479821D01*
X181604688Y-76546836D01*
X181776441Y-76581000D01*
X181951559Y-76581000D01*
X182123312Y-76546836D01*
X182285099Y-76479821D01*
X182430704Y-76382531D01*
X182554531Y-76258704D01*
X182651821Y-76113099D01*
X182718836Y-75951312D01*
X182753000Y-75779559D01*
X182753000Y-75604441D01*
X182718836Y-75432688D01*
X182651821Y-75270901D01*
X182554531Y-75125296D01*
X182430704Y-75001469D01*
X182285099Y-74904179D01*
X182123312Y-74837164D01*
X181951559Y-74803000D01*
X181776441Y-74803000D01*
X181604688Y-74837164D01*
X181442901Y-74904179D01*
X181297296Y-75001469D01*
X181173469Y-75125296D01*
X181076179Y-75270901D01*
X181009164Y-75432688D01*
X180975000Y-75604441D01*
X167650771Y-75604441D01*
X167553099Y-75539179D01*
X167391312Y-75472164D01*
X167219559Y-75438000D01*
X167044441Y-75438000D01*
X166872688Y-75472164D01*
X166710901Y-75539179D01*
X166565296Y-75636469D01*
X166441469Y-75760296D01*
X166344179Y-75905901D01*
X166277164Y-76067688D01*
X166243000Y-76239441D01*
X162941000Y-76239441D01*
X162941000Y-76112441D01*
X162906836Y-75940688D01*
X162839821Y-75778901D01*
X162742531Y-75633296D01*
X162618704Y-75509469D01*
X162473099Y-75412179D01*
X162311312Y-75345164D01*
X162139559Y-75311000D01*
X161964441Y-75311000D01*
X161792688Y-75345164D01*
X161630901Y-75412179D01*
X161485296Y-75509469D01*
X161361469Y-75633296D01*
X161264179Y-75778901D01*
X161197164Y-75940688D01*
X161163000Y-76112441D01*
X145872201Y-76112441D01*
X145872201Y-74080441D01*
X149606000Y-74080441D01*
X149606000Y-74255559D01*
X149640164Y-74427312D01*
X149707179Y-74589099D01*
X149804469Y-74734704D01*
X149928296Y-74858531D01*
X150073901Y-74955821D01*
X150235688Y-75022836D01*
X150407441Y-75057000D01*
X150582559Y-75057000D01*
X150754312Y-75022836D01*
X150916099Y-74955821D01*
X151061704Y-74858531D01*
X151185531Y-74734704D01*
X151282821Y-74589099D01*
X151349836Y-74427312D01*
X151384000Y-74255559D01*
X151384000Y-74080441D01*
X151349836Y-73908688D01*
X151282821Y-73746901D01*
X151185531Y-73601296D01*
X151061704Y-73477469D01*
X150916099Y-73380179D01*
X150754312Y-73313164D01*
X150582559Y-73279000D01*
X150407441Y-73279000D01*
X150235688Y-73313164D01*
X150073901Y-73380179D01*
X149928296Y-73477469D01*
X149804469Y-73601296D01*
X149707179Y-73746901D01*
X149640164Y-73908688D01*
X149606000Y-74080441D01*
X145872201Y-74080441D01*
X145872201Y-71032441D01*
X147701000Y-71032441D01*
X147701000Y-71207559D01*
X147735164Y-71379312D01*
X147802179Y-71541099D01*
X147899469Y-71686704D01*
X148023296Y-71810531D01*
X148168901Y-71907821D01*
X148330688Y-71974836D01*
X148502441Y-72009000D01*
X148677559Y-72009000D01*
X148849312Y-71974836D01*
X149011099Y-71907821D01*
X149156704Y-71810531D01*
X149280531Y-71686704D01*
X149377821Y-71541099D01*
X149444836Y-71379312D01*
X149479000Y-71207559D01*
X149479000Y-71032441D01*
X149444836Y-70860688D01*
X149391507Y-70731941D01*
X183815500Y-70731941D01*
X183815500Y-70907059D01*
X183849664Y-71078812D01*
X183916679Y-71240599D01*
X184013969Y-71386204D01*
X184137796Y-71510031D01*
X184283401Y-71607321D01*
X184445188Y-71674336D01*
X184616941Y-71708500D01*
X184792059Y-71708500D01*
X184963812Y-71674336D01*
X185125599Y-71607321D01*
X185271204Y-71510031D01*
X185395031Y-71386204D01*
X185492321Y-71240599D01*
X185559336Y-71078812D01*
X185593500Y-70907059D01*
X185593500Y-70731941D01*
X185559336Y-70560188D01*
X185492321Y-70398401D01*
X185395031Y-70252796D01*
X185271204Y-70128969D01*
X185125599Y-70031679D01*
X184963812Y-69964664D01*
X184792059Y-69930500D01*
X184616941Y-69930500D01*
X184445188Y-69964664D01*
X184283401Y-70031679D01*
X184137796Y-70128969D01*
X184013969Y-70252796D01*
X183916679Y-70398401D01*
X183849664Y-70560188D01*
X183815500Y-70731941D01*
X149391507Y-70731941D01*
X149377821Y-70698901D01*
X149280531Y-70553296D01*
X149156704Y-70429469D01*
X149011099Y-70332179D01*
X148849312Y-70265164D01*
X148677559Y-70231000D01*
X148502441Y-70231000D01*
X148330688Y-70265164D01*
X148168901Y-70332179D01*
X148023296Y-70429469D01*
X147899469Y-70553296D01*
X147802179Y-70698901D01*
X147735164Y-70860688D01*
X147701000Y-71032441D01*
X145872201Y-71032441D01*
X145872201Y-67476441D01*
X171323000Y-67476441D01*
X171323000Y-67651559D01*
X171357164Y-67823312D01*
X171424179Y-67985099D01*
X171521469Y-68130704D01*
X171645296Y-68254531D01*
X171790901Y-68351821D01*
X171952688Y-68418836D01*
X172124441Y-68453000D01*
X172299559Y-68453000D01*
X172471312Y-68418836D01*
X172633099Y-68351821D01*
X172778704Y-68254531D01*
X172902531Y-68130704D01*
X172999821Y-67985099D01*
X173066836Y-67823312D01*
X173101000Y-67651559D01*
X173101000Y-67476441D01*
X173066836Y-67304688D01*
X172999821Y-67142901D01*
X172902531Y-66997296D01*
X172778704Y-66873469D01*
X172633099Y-66776179D01*
X172471312Y-66709164D01*
X172299559Y-66675000D01*
X172124441Y-66675000D01*
X171952688Y-66709164D01*
X171790901Y-66776179D01*
X171645296Y-66873469D01*
X171521469Y-66997296D01*
X171424179Y-67142901D01*
X171357164Y-67304688D01*
X171323000Y-67476441D01*
X145872201Y-67476441D01*
X145872201Y-64605464D01*
X145876009Y-64566801D01*
X145872201Y-64528138D01*
X145872201Y-64528128D01*
X145860807Y-64412444D01*
X145815783Y-64264018D01*
X145742667Y-64127229D01*
X145669000Y-64037466D01*
X145669000Y-63895424D01*
X145625075Y-63674599D01*
X145538913Y-63466587D01*
X145413826Y-63279380D01*
X145254620Y-63120174D01*
X145067413Y-62995087D01*
X144859401Y-62908925D01*
X144638576Y-62865000D01*
X144413424Y-62865000D01*
X144192599Y-62908925D01*
X143984587Y-62995087D01*
X143797380Y-63120174D01*
X143638174Y-63279380D01*
X143513087Y-63466587D01*
X143426925Y-63674599D01*
X143383000Y-63895424D01*
X143383000Y-64120576D01*
X143426925Y-64341401D01*
X143513087Y-64549413D01*
X143638174Y-64736620D01*
X143797380Y-64895826D01*
X143984587Y-65020913D01*
X144192599Y-65107075D01*
X144297402Y-65127922D01*
X144297402Y-70670600D01*
X144159424Y-70670600D01*
X143938599Y-70714525D01*
X143730587Y-70800687D01*
X143652794Y-70852667D01*
X143645836Y-70817688D01*
X143578821Y-70655901D01*
X143481531Y-70510296D01*
X143357704Y-70386469D01*
X143212099Y-70289179D01*
X143050312Y-70222164D01*
X142878559Y-70188000D01*
X142703441Y-70188000D01*
X142531688Y-70222164D01*
X142369901Y-70289179D01*
X142224296Y-70386469D01*
X142100469Y-70510296D01*
X142003179Y-70655901D01*
X141936164Y-70817688D01*
X141902000Y-70989441D01*
X130824771Y-70989441D01*
X130787949Y-70952619D01*
X130565201Y-70803784D01*
X130408799Y-70739000D01*
X130565201Y-70674216D01*
X130787949Y-70525381D01*
X130977381Y-70335949D01*
X131126216Y-70113201D01*
X131228736Y-69865697D01*
X131281000Y-69602948D01*
X131281000Y-69335052D01*
X131228736Y-69072303D01*
X131126216Y-68824799D01*
X130977381Y-68602051D01*
X130787949Y-68412619D01*
X130565201Y-68263784D01*
X130408799Y-68199000D01*
X130565201Y-68134216D01*
X130787949Y-67985381D01*
X130977381Y-67795949D01*
X131037867Y-67705424D01*
X135509000Y-67705424D01*
X135509000Y-67930576D01*
X135552925Y-68151401D01*
X135639087Y-68359413D01*
X135764174Y-68546620D01*
X135923380Y-68705826D01*
X136110587Y-68830913D01*
X136318599Y-68917075D01*
X136539424Y-68961000D01*
X136764576Y-68961000D01*
X136985401Y-68917075D01*
X137193413Y-68830913D01*
X137380620Y-68705826D01*
X137539826Y-68546620D01*
X137664913Y-68359413D01*
X137751075Y-68151401D01*
X137789261Y-67959424D01*
X141605000Y-67959424D01*
X141605000Y-68184576D01*
X141648925Y-68405401D01*
X141735087Y-68613413D01*
X141860174Y-68800620D01*
X142019380Y-68959826D01*
X142206587Y-69084913D01*
X142414599Y-69171075D01*
X142635424Y-69215000D01*
X142860576Y-69215000D01*
X143081401Y-69171075D01*
X143289413Y-69084913D01*
X143476620Y-68959826D01*
X143635826Y-68800620D01*
X143760913Y-68613413D01*
X143847075Y-68405401D01*
X143891000Y-68184576D01*
X143891000Y-67959424D01*
X143847075Y-67738599D01*
X143760913Y-67530587D01*
X143635826Y-67343380D01*
X143476620Y-67184174D01*
X143289413Y-67059087D01*
X143081401Y-66972925D01*
X142860576Y-66929000D01*
X142635424Y-66929000D01*
X142414599Y-66972925D01*
X142206587Y-67059087D01*
X142019380Y-67184174D01*
X141860174Y-67343380D01*
X141735087Y-67530587D01*
X141648925Y-67738599D01*
X141605000Y-67959424D01*
X137789261Y-67959424D01*
X137795000Y-67930576D01*
X137795000Y-67705424D01*
X137751075Y-67484599D01*
X137664913Y-67276587D01*
X137539826Y-67089380D01*
X137380620Y-66930174D01*
X137193413Y-66805087D01*
X136985401Y-66718925D01*
X136764576Y-66675000D01*
X136539424Y-66675000D01*
X136318599Y-66718925D01*
X136110587Y-66805087D01*
X135923380Y-66930174D01*
X135764174Y-67089380D01*
X135639087Y-67276587D01*
X135552925Y-67484599D01*
X135509000Y-67705424D01*
X131037867Y-67705424D01*
X131126216Y-67573201D01*
X131228736Y-67325697D01*
X131281000Y-67062948D01*
X131281000Y-66795052D01*
X131228736Y-66532303D01*
X131126216Y-66284799D01*
X130977381Y-66062051D01*
X130787949Y-65872619D01*
X130565201Y-65723784D01*
X130317697Y-65621264D01*
X130054948Y-65569000D01*
X129787052Y-65569000D01*
X129524303Y-65621264D01*
X129276799Y-65723784D01*
X129054051Y-65872619D01*
X128864619Y-66062051D01*
X128715784Y-66284799D01*
X128613264Y-66532303D01*
X128561000Y-66795052D01*
X120205348Y-66795052D01*
X120225000Y-66696260D01*
X120225000Y-66403740D01*
X120167932Y-66116842D01*
X120055990Y-65846589D01*
X119893475Y-65603368D01*
X119686632Y-65396525D01*
X119512240Y-65280000D01*
X119686632Y-65163475D01*
X119893475Y-64956632D01*
X120055990Y-64713411D01*
X120167932Y-64443158D01*
X120225000Y-64156260D01*
X120225000Y-63863740D01*
X120167932Y-63576842D01*
X120055990Y-63306589D01*
X119893475Y-63063368D01*
X119686632Y-62856525D01*
X119512240Y-62740000D01*
X119686632Y-62623475D01*
X119893475Y-62416632D01*
X120055990Y-62173411D01*
X120167932Y-61903158D01*
X120225000Y-61616260D01*
X120225000Y-61323740D01*
X120167932Y-61036842D01*
X120055990Y-60766589D01*
X119893475Y-60523368D01*
X119686632Y-60316525D01*
X119512240Y-60200000D01*
X119686632Y-60083475D01*
X119893475Y-59876632D01*
X120055990Y-59633411D01*
X120167932Y-59363158D01*
X120225000Y-59076260D01*
X120225000Y-58783740D01*
X120167932Y-58496842D01*
X120055990Y-58226589D01*
X119893475Y-57983368D01*
X119761620Y-57851513D01*
X119834180Y-57829502D01*
X119944494Y-57770537D01*
X120041185Y-57691185D01*
X120120537Y-57594494D01*
X120179502Y-57484180D01*
X120215812Y-57364482D01*
X120228072Y-57240000D01*
X120228072Y-56635052D01*
X128561000Y-56635052D01*
X128561000Y-56902948D01*
X128613264Y-57165697D01*
X128715784Y-57413201D01*
X128864619Y-57635949D01*
X129054051Y-57825381D01*
X129276799Y-57974216D01*
X129433201Y-58039000D01*
X129276799Y-58103784D01*
X129054051Y-58252619D01*
X128864619Y-58442051D01*
X128715784Y-58664799D01*
X128613264Y-58912303D01*
X128561000Y-59175052D01*
X128561000Y-59442948D01*
X128613264Y-59705697D01*
X128715784Y-59953201D01*
X128864619Y-60175949D01*
X129054051Y-60365381D01*
X129276799Y-60514216D01*
X129433201Y-60579000D01*
X129276799Y-60643784D01*
X129054051Y-60792619D01*
X128864619Y-60982051D01*
X128715784Y-61204799D01*
X128613264Y-61452303D01*
X128561000Y-61715052D01*
X128561000Y-61982948D01*
X128613264Y-62245697D01*
X128715784Y-62493201D01*
X128864619Y-62715949D01*
X129054051Y-62905381D01*
X129276799Y-63054216D01*
X129524303Y-63156736D01*
X129787052Y-63209000D01*
X130054948Y-63209000D01*
X130317697Y-63156736D01*
X130565201Y-63054216D01*
X130787949Y-62905381D01*
X130977381Y-62715949D01*
X131126216Y-62493201D01*
X131228736Y-62245697D01*
X131249274Y-62142441D01*
X138176000Y-62142441D01*
X138176000Y-62317559D01*
X138210164Y-62489312D01*
X138277179Y-62651099D01*
X138374469Y-62796704D01*
X138498296Y-62920531D01*
X138643901Y-63017821D01*
X138805688Y-63084836D01*
X138977441Y-63119000D01*
X139152559Y-63119000D01*
X139324312Y-63084836D01*
X139486099Y-63017821D01*
X139631704Y-62920531D01*
X139755531Y-62796704D01*
X139852821Y-62651099D01*
X139919836Y-62489312D01*
X139954000Y-62317559D01*
X139954000Y-62142441D01*
X139919836Y-61970688D01*
X139902930Y-61929872D01*
X151465000Y-61929872D01*
X151465000Y-62370128D01*
X151550890Y-62801925D01*
X151719369Y-63208669D01*
X151963962Y-63574729D01*
X152275271Y-63886038D01*
X152641331Y-64130631D01*
X153048075Y-64299110D01*
X153479872Y-64385000D01*
X153920128Y-64385000D01*
X154351925Y-64299110D01*
X154758669Y-64130631D01*
X155124729Y-63886038D01*
X155436038Y-63574729D01*
X155680631Y-63208669D01*
X155849110Y-62801925D01*
X155935000Y-62370128D01*
X155935000Y-62004947D01*
X163323000Y-62004947D01*
X163323000Y-62455053D01*
X163410811Y-62896510D01*
X163583059Y-63312353D01*
X163833125Y-63686603D01*
X164151397Y-64004875D01*
X164525647Y-64254941D01*
X164941490Y-64427189D01*
X165382947Y-64515000D01*
X165833053Y-64515000D01*
X166274510Y-64427189D01*
X166690353Y-64254941D01*
X167064603Y-64004875D01*
X167382875Y-63686603D01*
X167632941Y-63312353D01*
X167805189Y-62896510D01*
X167893000Y-62455053D01*
X167893000Y-62004947D01*
X167805189Y-61563490D01*
X167632941Y-61147647D01*
X167412464Y-60817680D01*
X169243000Y-60817680D01*
X169243000Y-61102320D01*
X169298530Y-61381491D01*
X169407457Y-61644464D01*
X169565595Y-61881134D01*
X169766866Y-62082405D01*
X169987757Y-62230000D01*
X169766866Y-62377595D01*
X169565595Y-62578866D01*
X169407457Y-62815536D01*
X169298530Y-63078509D01*
X169243000Y-63357680D01*
X169243000Y-63642320D01*
X169298530Y-63921491D01*
X169407457Y-64184464D01*
X169565595Y-64421134D01*
X169766866Y-64622405D01*
X170003536Y-64780543D01*
X170266509Y-64889470D01*
X170545680Y-64945000D01*
X170830320Y-64945000D01*
X171109491Y-64889470D01*
X171372464Y-64780543D01*
X171609134Y-64622405D01*
X171693841Y-64537698D01*
X171678000Y-64617338D01*
X171678000Y-64922662D01*
X171737565Y-65222118D01*
X171854408Y-65504200D01*
X172024036Y-65758068D01*
X172239932Y-65973964D01*
X172493800Y-66143592D01*
X172775882Y-66260435D01*
X173075338Y-66320000D01*
X173380662Y-66320000D01*
X173680118Y-66260435D01*
X173962200Y-66143592D01*
X174216068Y-65973964D01*
X174431964Y-65758068D01*
X174601592Y-65504200D01*
X174718435Y-65222118D01*
X174778000Y-64922662D01*
X174778000Y-64617338D01*
X174718435Y-64317882D01*
X174601592Y-64035800D01*
X174431964Y-63781932D01*
X174216068Y-63566036D01*
X173962200Y-63396408D01*
X173680118Y-63279565D01*
X173380662Y-63220000D01*
X173075338Y-63220000D01*
X172775882Y-63279565D01*
X172493800Y-63396408D01*
X172239932Y-63566036D01*
X172125390Y-63680578D01*
X172133000Y-63642320D01*
X172133000Y-63357680D01*
X172077470Y-63078509D01*
X171968543Y-62815536D01*
X171810405Y-62578866D01*
X171609134Y-62377595D01*
X171388243Y-62230000D01*
X171609134Y-62082405D01*
X171810405Y-61881134D01*
X171968543Y-61644464D01*
X172077470Y-61381491D01*
X172133000Y-61102320D01*
X172133000Y-60817680D01*
X172125390Y-60779422D01*
X172239932Y-60893964D01*
X172493800Y-61063592D01*
X172775882Y-61180435D01*
X173075338Y-61240000D01*
X173380662Y-61240000D01*
X173680118Y-61180435D01*
X173962200Y-61063592D01*
X174216068Y-60893964D01*
X174431964Y-60678068D01*
X174601592Y-60424200D01*
X174718435Y-60142118D01*
X174778000Y-59842662D01*
X174778000Y-59537338D01*
X174718435Y-59237882D01*
X174601592Y-58955800D01*
X174431964Y-58701932D01*
X174216068Y-58486036D01*
X173962200Y-58316408D01*
X173680118Y-58199565D01*
X173380662Y-58140000D01*
X173075338Y-58140000D01*
X172775882Y-58199565D01*
X172493800Y-58316408D01*
X172239932Y-58486036D01*
X172024036Y-58701932D01*
X171854408Y-58955800D01*
X171737565Y-59237882D01*
X171678000Y-59537338D01*
X171678000Y-59842662D01*
X171693841Y-59922302D01*
X171609134Y-59837595D01*
X171372464Y-59679457D01*
X171109491Y-59570530D01*
X170830320Y-59515000D01*
X170545680Y-59515000D01*
X170266509Y-59570530D01*
X170003536Y-59679457D01*
X169766866Y-59837595D01*
X169565595Y-60038866D01*
X169407457Y-60275536D01*
X169298530Y-60538509D01*
X169243000Y-60817680D01*
X167412464Y-60817680D01*
X167382875Y-60773397D01*
X167064603Y-60455125D01*
X166690353Y-60205059D01*
X166274510Y-60032811D01*
X165833053Y-59945000D01*
X165382947Y-59945000D01*
X164941490Y-60032811D01*
X164525647Y-60205059D01*
X164151397Y-60455125D01*
X163833125Y-60773397D01*
X163583059Y-61147647D01*
X163410811Y-61563490D01*
X163323000Y-62004947D01*
X155935000Y-62004947D01*
X155935000Y-61929872D01*
X155849110Y-61498075D01*
X155680631Y-61091331D01*
X155436038Y-60725271D01*
X155124729Y-60413962D01*
X154758669Y-60169369D01*
X154351925Y-60000890D01*
X153920128Y-59915000D01*
X153479872Y-59915000D01*
X153048075Y-60000890D01*
X152641331Y-60169369D01*
X152275271Y-60413962D01*
X151963962Y-60725271D01*
X151719369Y-61091331D01*
X151550890Y-61498075D01*
X151465000Y-61929872D01*
X139902930Y-61929872D01*
X139852821Y-61808901D01*
X139755531Y-61663296D01*
X139631704Y-61539469D01*
X139486099Y-61442179D01*
X139324312Y-61375164D01*
X139152559Y-61341000D01*
X138977441Y-61341000D01*
X138805688Y-61375164D01*
X138643901Y-61442179D01*
X138498296Y-61539469D01*
X138374469Y-61663296D01*
X138277179Y-61808901D01*
X138210164Y-61970688D01*
X138176000Y-62142441D01*
X131249274Y-62142441D01*
X131281000Y-61982948D01*
X131281000Y-61715052D01*
X131228736Y-61452303D01*
X131126216Y-61204799D01*
X130977381Y-60982051D01*
X130787949Y-60792619D01*
X130565201Y-60643784D01*
X130408799Y-60579000D01*
X130565201Y-60514216D01*
X130787949Y-60365381D01*
X130977381Y-60175949D01*
X131021151Y-60110441D01*
X137668000Y-60110441D01*
X137668000Y-60285559D01*
X137702164Y-60457312D01*
X137769179Y-60619099D01*
X137866469Y-60764704D01*
X137990296Y-60888531D01*
X138135901Y-60985821D01*
X138297688Y-61052836D01*
X138469441Y-61087000D01*
X138644559Y-61087000D01*
X138816312Y-61052836D01*
X138978099Y-60985821D01*
X139123704Y-60888531D01*
X139247531Y-60764704D01*
X139344821Y-60619099D01*
X139411836Y-60457312D01*
X139446000Y-60285559D01*
X139446000Y-60110441D01*
X139411836Y-59938688D01*
X139344821Y-59776901D01*
X139247531Y-59631296D01*
X139123704Y-59507469D01*
X138978099Y-59410179D01*
X138816312Y-59343164D01*
X138644559Y-59309000D01*
X138469441Y-59309000D01*
X138297688Y-59343164D01*
X138135901Y-59410179D01*
X137990296Y-59507469D01*
X137866469Y-59631296D01*
X137769179Y-59776901D01*
X137702164Y-59938688D01*
X137668000Y-60110441D01*
X131021151Y-60110441D01*
X131126216Y-59953201D01*
X131228736Y-59705697D01*
X131281000Y-59442948D01*
X131281000Y-59175052D01*
X131228736Y-58912303D01*
X131198970Y-58840441D01*
X133477000Y-58840441D01*
X133477000Y-59015559D01*
X133511164Y-59187312D01*
X133578179Y-59349099D01*
X133675469Y-59494704D01*
X133799296Y-59618531D01*
X133944901Y-59715821D01*
X134106688Y-59782836D01*
X134278441Y-59817000D01*
X134453559Y-59817000D01*
X134625312Y-59782836D01*
X134787099Y-59715821D01*
X134932704Y-59618531D01*
X135056531Y-59494704D01*
X135153821Y-59349099D01*
X135220836Y-59187312D01*
X135255000Y-59015559D01*
X135255000Y-58967441D01*
X140589000Y-58967441D01*
X140589000Y-59142559D01*
X140623164Y-59314312D01*
X140690179Y-59476099D01*
X140787469Y-59621704D01*
X140911296Y-59745531D01*
X141056901Y-59842821D01*
X141218688Y-59909836D01*
X141225312Y-59911154D01*
X141258164Y-60076312D01*
X141325179Y-60238099D01*
X141422469Y-60383704D01*
X141546296Y-60507531D01*
X141691901Y-60604821D01*
X141853688Y-60671836D01*
X142025441Y-60706000D01*
X142200559Y-60706000D01*
X142372312Y-60671836D01*
X142534099Y-60604821D01*
X142679704Y-60507531D01*
X142803531Y-60383704D01*
X142900821Y-60238099D01*
X142967836Y-60076312D01*
X142986309Y-59983441D01*
X145161000Y-59983441D01*
X145161000Y-60158559D01*
X145195164Y-60330312D01*
X145262179Y-60492099D01*
X145359469Y-60637704D01*
X145483296Y-60761531D01*
X145628901Y-60858821D01*
X145790688Y-60925836D01*
X145962441Y-60960000D01*
X146137559Y-60960000D01*
X146309312Y-60925836D01*
X146471099Y-60858821D01*
X146616704Y-60761531D01*
X146740531Y-60637704D01*
X146837821Y-60492099D01*
X146904836Y-60330312D01*
X146939000Y-60158559D01*
X146939000Y-59983441D01*
X146904836Y-59811688D01*
X146837821Y-59649901D01*
X146740531Y-59504296D01*
X146686659Y-59450424D01*
X147320000Y-59450424D01*
X147320000Y-59675576D01*
X147363925Y-59896401D01*
X147450087Y-60104413D01*
X147575174Y-60291620D01*
X147734380Y-60450826D01*
X147921587Y-60575913D01*
X148129599Y-60662075D01*
X148350424Y-60706000D01*
X148575576Y-60706000D01*
X148796401Y-60662075D01*
X149004413Y-60575913D01*
X149191620Y-60450826D01*
X149350826Y-60291620D01*
X149475913Y-60104413D01*
X149562075Y-59896401D01*
X149606000Y-59675576D01*
X149606000Y-59450424D01*
X149562075Y-59229599D01*
X149475913Y-59021587D01*
X149350826Y-58834380D01*
X149191620Y-58675174D01*
X149004413Y-58550087D01*
X148796401Y-58463925D01*
X148575576Y-58420000D01*
X148350424Y-58420000D01*
X148129599Y-58463925D01*
X147921587Y-58550087D01*
X147734380Y-58675174D01*
X147575174Y-58834380D01*
X147450087Y-59021587D01*
X147363925Y-59229599D01*
X147320000Y-59450424D01*
X146686659Y-59450424D01*
X146616704Y-59380469D01*
X146471099Y-59283179D01*
X146309312Y-59216164D01*
X146137559Y-59182000D01*
X145962441Y-59182000D01*
X145790688Y-59216164D01*
X145628901Y-59283179D01*
X145483296Y-59380469D01*
X145359469Y-59504296D01*
X145262179Y-59649901D01*
X145195164Y-59811688D01*
X145161000Y-59983441D01*
X142986309Y-59983441D01*
X143000688Y-59911154D01*
X143007312Y-59909836D01*
X143169099Y-59842821D01*
X143314704Y-59745531D01*
X143438531Y-59621704D01*
X143535821Y-59476099D01*
X143602836Y-59314312D01*
X143637000Y-59142559D01*
X143637000Y-58967441D01*
X143602836Y-58795688D01*
X143535821Y-58633901D01*
X143438531Y-58488296D01*
X143314704Y-58364469D01*
X143169099Y-58267179D01*
X143007312Y-58200164D01*
X142974386Y-58193614D01*
X142967836Y-58160688D01*
X142900821Y-57998901D01*
X142803531Y-57853296D01*
X142679704Y-57729469D01*
X142534099Y-57632179D01*
X142372312Y-57565164D01*
X142200559Y-57531000D01*
X142025441Y-57531000D01*
X141853688Y-57565164D01*
X141691901Y-57632179D01*
X141546296Y-57729469D01*
X141422469Y-57853296D01*
X141325179Y-57998901D01*
X141258164Y-58160688D01*
X141251614Y-58193614D01*
X141218688Y-58200164D01*
X141056901Y-58267179D01*
X140911296Y-58364469D01*
X140787469Y-58488296D01*
X140690179Y-58633901D01*
X140623164Y-58795688D01*
X140589000Y-58967441D01*
X135255000Y-58967441D01*
X135255000Y-58840441D01*
X135220836Y-58668688D01*
X135153821Y-58506901D01*
X135056531Y-58361296D01*
X134932704Y-58237469D01*
X134787099Y-58140179D01*
X134625312Y-58073164D01*
X134453559Y-58039000D01*
X134278441Y-58039000D01*
X134106688Y-58073164D01*
X133944901Y-58140179D01*
X133799296Y-58237469D01*
X133675469Y-58361296D01*
X133578179Y-58506901D01*
X133511164Y-58668688D01*
X133477000Y-58840441D01*
X131198970Y-58840441D01*
X131126216Y-58664799D01*
X130977381Y-58442051D01*
X130787949Y-58252619D01*
X130565201Y-58103784D01*
X130408799Y-58039000D01*
X130565201Y-57974216D01*
X130787949Y-57825381D01*
X130977381Y-57635949D01*
X131126216Y-57413201D01*
X131228736Y-57165697D01*
X131281000Y-56902948D01*
X131281000Y-56808441D01*
X133096000Y-56808441D01*
X133096000Y-56983559D01*
X133130164Y-57155312D01*
X133197179Y-57317099D01*
X133294469Y-57462704D01*
X133418296Y-57586531D01*
X133563901Y-57683821D01*
X133725688Y-57750836D01*
X133897441Y-57785000D01*
X134072559Y-57785000D01*
X134244312Y-57750836D01*
X134406099Y-57683821D01*
X134551704Y-57586531D01*
X134675531Y-57462704D01*
X134772821Y-57317099D01*
X134839836Y-57155312D01*
X134874000Y-56983559D01*
X134874000Y-56808441D01*
X134839836Y-56636688D01*
X134772821Y-56474901D01*
X134675531Y-56329296D01*
X134551704Y-56205469D01*
X134466330Y-56148424D01*
X143764000Y-56148424D01*
X143764000Y-56373576D01*
X143807925Y-56594401D01*
X143894087Y-56802413D01*
X144019174Y-56989620D01*
X144178380Y-57148826D01*
X144365587Y-57273913D01*
X144573599Y-57360075D01*
X144794424Y-57404000D01*
X145019576Y-57404000D01*
X145240401Y-57360075D01*
X145448413Y-57273913D01*
X145635620Y-57148826D01*
X145794826Y-56989620D01*
X145919913Y-56802413D01*
X146006075Y-56594401D01*
X146050000Y-56373576D01*
X146050000Y-56148424D01*
X146006075Y-55927599D01*
X145919913Y-55719587D01*
X145794826Y-55532380D01*
X145635620Y-55373174D01*
X145448413Y-55248087D01*
X145240401Y-55161925D01*
X145019576Y-55118000D01*
X144794424Y-55118000D01*
X144573599Y-55161925D01*
X144365587Y-55248087D01*
X144178380Y-55373174D01*
X144019174Y-55532380D01*
X143894087Y-55719587D01*
X143807925Y-55927599D01*
X143764000Y-56148424D01*
X134466330Y-56148424D01*
X134406099Y-56108179D01*
X134244312Y-56041164D01*
X134072559Y-56007000D01*
X133897441Y-56007000D01*
X133725688Y-56041164D01*
X133563901Y-56108179D01*
X133418296Y-56205469D01*
X133294469Y-56329296D01*
X133197179Y-56474901D01*
X133130164Y-56636688D01*
X133096000Y-56808441D01*
X131281000Y-56808441D01*
X131281000Y-56635052D01*
X131228736Y-56372303D01*
X131126216Y-56124799D01*
X130977381Y-55902051D01*
X130787949Y-55712619D01*
X130565201Y-55563784D01*
X130317697Y-55461264D01*
X130054948Y-55409000D01*
X129787052Y-55409000D01*
X129524303Y-55461264D01*
X129276799Y-55563784D01*
X129054051Y-55712619D01*
X128864619Y-55902051D01*
X128715784Y-56124799D01*
X128613264Y-56372303D01*
X128561000Y-56635052D01*
X120228072Y-56635052D01*
X120228072Y-55540000D01*
X120215812Y-55415518D01*
X120179502Y-55295820D01*
X120120537Y-55185506D01*
X120041185Y-55088815D01*
X119944494Y-55009463D01*
X119834180Y-54950498D01*
X119714482Y-54914188D01*
X119590000Y-54901928D01*
X117890000Y-54901928D01*
X117765518Y-54914188D01*
X117645820Y-54950498D01*
X117535506Y-55009463D01*
X117438815Y-55088815D01*
X117359463Y-55185506D01*
X117300498Y-55295820D01*
X117264188Y-55415518D01*
X117251928Y-55540000D01*
X116860000Y-55540000D01*
X116860000Y-54510000D01*
X190540000Y-54510000D01*
X190540001Y-137940000D01*
G37*
G04 #@! TD.AperFunction*
M02*
