G04 #@! TF.GenerationSoftware,KiCad,Pcbnew,(5.1.4)-1*
G04 #@! TF.CreationDate,2019-12-30T13:26:31-06:00*
G04 #@! TF.ProjectId,digital_pcb,64696769-7461-46c5-9f70-63622e6b6963,rev?*
G04 #@! TF.SameCoordinates,Original*
G04 #@! TF.FileFunction,Copper,L4,Bot*
G04 #@! TF.FilePolarity,Positive*
%FSLAX46Y46*%
G04 Gerber Fmt 4.6, Leading zero omitted, Abs format (unit mm)*
G04 Created by KiCad (PCBNEW (5.1.4)-1) date 2019-12-30 13:26:31*
%MOMM*%
%LPD*%
G04 APERTURE LIST*
%ADD10C,1.620000*%
%ADD11C,1.500000*%
%ADD12R,1.700000X1.700000*%
%ADD13O,1.700000X1.700000*%
%ADD14C,1.450000*%
%ADD15C,0.508000*%
%ADD16C,1.016000*%
%ADD17C,1.270000*%
%ADD18C,0.152400*%
%ADD19C,0.304800*%
%ADD20C,0.254000*%
G04 APERTURE END LIST*
D10*
X170688000Y-63500000D03*
X170688000Y-60960000D03*
D11*
X124079000Y-89448000D03*
X124079000Y-94448000D03*
D12*
X178054000Y-88392000D03*
D13*
X175514000Y-88392000D03*
X172974000Y-88392000D03*
X170434000Y-88392000D03*
X118740000Y-79250000D03*
X118740000Y-76710000D03*
X118740000Y-74170000D03*
X118740000Y-71630000D03*
X118740000Y-69090000D03*
X118740000Y-66550000D03*
X118740000Y-64010000D03*
X118740000Y-61470000D03*
X118740000Y-58930000D03*
D12*
X118740000Y-56390000D03*
D13*
X147574000Y-92710000D03*
D12*
X150114000Y-92710000D03*
D13*
X118745000Y-94488000D03*
D12*
X118745000Y-91948000D03*
D14*
X129921000Y-56769000D03*
X129921000Y-59309000D03*
X129921000Y-61849000D03*
X129921000Y-66929000D03*
X129921000Y-69469000D03*
X129921000Y-72009000D03*
X129921000Y-74549000D03*
D13*
X180086000Y-92202000D03*
X180086000Y-94742000D03*
X180086000Y-97282000D03*
D12*
X180086000Y-99822000D03*
D13*
X118745000Y-99568000D03*
D12*
X118745000Y-102108000D03*
D13*
X118732300Y-86880700D03*
D12*
X118732300Y-84340700D03*
D15*
X174371000Y-91313000D03*
X160020000Y-91948000D03*
X148844000Y-89916000D03*
X158496000Y-88519000D03*
X161036000Y-88265000D03*
X169799000Y-103251000D03*
X168529000Y-99949000D03*
X174498000Y-100330000D03*
X149987000Y-111506000D03*
X162560000Y-120269000D03*
X154940000Y-120269000D03*
X167386000Y-111887000D03*
X167132000Y-76327000D03*
X150495000Y-74168000D03*
X155429443Y-77348657D03*
X160274000Y-79883000D03*
X156591000Y-80518000D03*
X154813000Y-80518000D03*
X153543000Y-78994000D03*
X154813000Y-79121000D03*
X149479000Y-81153000D03*
X152781000Y-84455000D03*
X156591000Y-79502000D03*
X162687000Y-80772000D03*
X169418000Y-79756000D03*
X171958000Y-94107000D03*
X139065000Y-62230000D03*
X145796000Y-109728000D03*
X149352000Y-106172000D03*
X157226000Y-112268000D03*
X158750000Y-104140000D03*
X160528000Y-105156000D03*
X160528000Y-97633600D03*
X163576000Y-91186000D03*
X184704500Y-70819500D03*
X181864000Y-75692000D03*
X184150000Y-76708000D03*
X172212000Y-67564000D03*
D16*
X142748000Y-68072000D03*
X136652000Y-67818000D03*
X122428000Y-81026000D03*
X122428000Y-79756000D03*
D15*
X149098000Y-120142000D03*
X159258000Y-97282000D03*
X171483000Y-93378000D03*
X162844500Y-91663500D03*
X148717000Y-88392000D03*
X163830000Y-89662000D03*
X168148000Y-103251000D03*
X170974000Y-101251000D03*
X162960600Y-112324000D03*
X152654000Y-76708000D03*
X160274000Y-81661000D03*
X151642000Y-79506000D03*
X167259000Y-82677000D03*
X145796000Y-107950000D03*
X153924000Y-106172000D03*
X161544000Y-101600000D03*
X188468000Y-76708000D03*
D16*
X139192000Y-80518000D03*
X140462000Y-80518000D03*
D15*
X174244000Y-74676000D03*
X170053000Y-108458000D03*
X167640000Y-110236000D03*
D16*
X144272000Y-71813600D03*
D15*
X157480000Y-113030000D03*
D16*
X144526000Y-64008000D03*
D15*
X160274000Y-112776000D03*
X145288000Y-121920000D03*
X167132000Y-84963000D03*
X157353000Y-84836000D03*
X163830000Y-78105000D03*
X163830000Y-76708000D03*
X164973000Y-108077000D03*
X163410759Y-107276759D03*
X159639000Y-108458000D03*
X161163000Y-108458000D03*
X160655000Y-109220000D03*
X159639000Y-109220000D03*
X158877000Y-107442000D03*
D17*
X122428000Y-81026000D02*
X122428000Y-79756000D01*
D18*
X159258000Y-97282000D02*
X154686000Y-92710000D01*
X154686000Y-92710000D02*
X150114000Y-92710000D01*
D17*
X139192000Y-80518000D02*
X140462000Y-80518000D01*
D19*
X117856000Y-121920000D02*
X117094000Y-121158000D01*
X117094000Y-68196000D02*
X118740000Y-66550000D01*
X117094000Y-121158000D02*
X117094000Y-68196000D01*
X145288000Y-121920000D02*
X117856000Y-121920000D01*
D18*
X167132000Y-84963000D02*
X157480000Y-84963000D01*
X157480000Y-84963000D02*
X157353000Y-84836000D01*
X163830000Y-78105000D02*
X163830000Y-76708000D01*
X164211000Y-108077000D02*
X163410759Y-107276759D01*
X164973000Y-108077000D02*
X164211000Y-108077000D01*
X159639000Y-108458000D02*
X161163000Y-108458000D01*
X160655000Y-109220000D02*
X159639000Y-109220000D01*
X158877000Y-108458000D02*
X159639000Y-109220000D01*
X158877000Y-107442000D02*
X158877000Y-108458000D01*
D19*
X118732300Y-83185900D02*
X118732300Y-84340700D01*
X119894801Y-82023399D02*
X118732300Y-83185900D01*
X119894801Y-65164801D02*
X119894801Y-82023399D01*
X118740000Y-64010000D02*
X119894801Y-65164801D01*
D20*
G36*
X190540001Y-137940000D02*
G01*
X116860000Y-137940000D01*
X116860000Y-130079872D01*
X151465000Y-130079872D01*
X151465000Y-130520128D01*
X151550890Y-130951925D01*
X151719369Y-131358669D01*
X151963962Y-131724729D01*
X152275271Y-132036038D01*
X152641331Y-132280631D01*
X153048075Y-132449110D01*
X153479872Y-132535000D01*
X153920128Y-132535000D01*
X154351925Y-132449110D01*
X154758669Y-132280631D01*
X155124729Y-132036038D01*
X155436038Y-131724729D01*
X155680631Y-131358669D01*
X155849110Y-130951925D01*
X155935000Y-130520128D01*
X155935000Y-130079872D01*
X155849110Y-129648075D01*
X155680631Y-129241331D01*
X155436038Y-128875271D01*
X155124729Y-128563962D01*
X154758669Y-128319369D01*
X154351925Y-128150890D01*
X153920128Y-128065000D01*
X153479872Y-128065000D01*
X153048075Y-128150890D01*
X152641331Y-128319369D01*
X152275271Y-128563962D01*
X151963962Y-128875271D01*
X151719369Y-129241331D01*
X151550890Y-129648075D01*
X151465000Y-130079872D01*
X116860000Y-130079872D01*
X116860000Y-122037551D01*
X117271881Y-122449433D01*
X117296531Y-122479469D01*
X117326567Y-122504119D01*
X117326570Y-122504122D01*
X117416427Y-122577866D01*
X117477539Y-122610531D01*
X117553217Y-122650982D01*
X117701643Y-122696006D01*
X117817327Y-122707400D01*
X117817335Y-122707400D01*
X117856000Y-122711208D01*
X117894665Y-122707400D01*
X144866271Y-122707400D01*
X144866901Y-122707821D01*
X145028688Y-122774836D01*
X145200441Y-122809000D01*
X145375559Y-122809000D01*
X145547312Y-122774836D01*
X145709099Y-122707821D01*
X145854704Y-122610531D01*
X145978531Y-122486704D01*
X146075821Y-122341099D01*
X146142836Y-122179312D01*
X146177000Y-122007559D01*
X146177000Y-121832441D01*
X146142836Y-121660688D01*
X146075821Y-121498901D01*
X145978531Y-121353296D01*
X145854704Y-121229469D01*
X145709099Y-121132179D01*
X145547312Y-121065164D01*
X145375559Y-121031000D01*
X145200441Y-121031000D01*
X145028688Y-121065164D01*
X144866901Y-121132179D01*
X144866271Y-121132600D01*
X118182151Y-121132600D01*
X117881400Y-120831849D01*
X117881400Y-112942441D01*
X156591000Y-112942441D01*
X156591000Y-113117559D01*
X156625164Y-113289312D01*
X156692179Y-113451099D01*
X156789469Y-113596704D01*
X156913296Y-113720531D01*
X157058901Y-113817821D01*
X157220688Y-113884836D01*
X157392441Y-113919000D01*
X157567559Y-113919000D01*
X157739312Y-113884836D01*
X157901099Y-113817821D01*
X158046704Y-113720531D01*
X158170531Y-113596704D01*
X158267821Y-113451099D01*
X158334836Y-113289312D01*
X158369000Y-113117559D01*
X158369000Y-112942441D01*
X158334836Y-112770688D01*
X158300768Y-112688441D01*
X159385000Y-112688441D01*
X159385000Y-112863559D01*
X159419164Y-113035312D01*
X159486179Y-113197099D01*
X159583469Y-113342704D01*
X159707296Y-113466531D01*
X159852901Y-113563821D01*
X160014688Y-113630836D01*
X160186441Y-113665000D01*
X160361559Y-113665000D01*
X160533312Y-113630836D01*
X160695099Y-113563821D01*
X160840704Y-113466531D01*
X160964531Y-113342704D01*
X161061821Y-113197099D01*
X161128836Y-113035312D01*
X161163000Y-112863559D01*
X161163000Y-112688441D01*
X161128836Y-112516688D01*
X161061821Y-112354901D01*
X160982669Y-112236441D01*
X162071600Y-112236441D01*
X162071600Y-112411559D01*
X162105764Y-112583312D01*
X162172779Y-112745099D01*
X162270069Y-112890704D01*
X162393896Y-113014531D01*
X162539501Y-113111821D01*
X162701288Y-113178836D01*
X162873041Y-113213000D01*
X163048159Y-113213000D01*
X163219912Y-113178836D01*
X163381699Y-113111821D01*
X163527304Y-113014531D01*
X163651131Y-112890704D01*
X163748421Y-112745099D01*
X163815436Y-112583312D01*
X163849600Y-112411559D01*
X163849600Y-112236441D01*
X163815436Y-112064688D01*
X163748421Y-111902901D01*
X163651131Y-111757296D01*
X163527304Y-111633469D01*
X163381699Y-111536179D01*
X163219912Y-111469164D01*
X163048159Y-111435000D01*
X162873041Y-111435000D01*
X162701288Y-111469164D01*
X162539501Y-111536179D01*
X162393896Y-111633469D01*
X162270069Y-111757296D01*
X162172779Y-111902901D01*
X162105764Y-112064688D01*
X162071600Y-112236441D01*
X160982669Y-112236441D01*
X160964531Y-112209296D01*
X160840704Y-112085469D01*
X160695099Y-111988179D01*
X160533312Y-111921164D01*
X160361559Y-111887000D01*
X160186441Y-111887000D01*
X160014688Y-111921164D01*
X159852901Y-111988179D01*
X159707296Y-112085469D01*
X159583469Y-112209296D01*
X159486179Y-112354901D01*
X159419164Y-112516688D01*
X159385000Y-112688441D01*
X158300768Y-112688441D01*
X158267821Y-112608901D01*
X158170531Y-112463296D01*
X158046704Y-112339469D01*
X157901099Y-112242179D01*
X157739312Y-112175164D01*
X157567559Y-112141000D01*
X157392441Y-112141000D01*
X157220688Y-112175164D01*
X157058901Y-112242179D01*
X156913296Y-112339469D01*
X156789469Y-112463296D01*
X156692179Y-112608901D01*
X156625164Y-112770688D01*
X156591000Y-112942441D01*
X117881400Y-112942441D01*
X117881400Y-110148441D01*
X166751000Y-110148441D01*
X166751000Y-110323559D01*
X166785164Y-110495312D01*
X166852179Y-110657099D01*
X166949469Y-110802704D01*
X167073296Y-110926531D01*
X167218901Y-111023821D01*
X167380688Y-111090836D01*
X167552441Y-111125000D01*
X167727559Y-111125000D01*
X167899312Y-111090836D01*
X168061099Y-111023821D01*
X168206704Y-110926531D01*
X168330531Y-110802704D01*
X168427821Y-110657099D01*
X168494836Y-110495312D01*
X168529000Y-110323559D01*
X168529000Y-110148441D01*
X168494836Y-109976688D01*
X168427821Y-109814901D01*
X168330531Y-109669296D01*
X168206704Y-109545469D01*
X168061099Y-109448179D01*
X167899312Y-109381164D01*
X167727559Y-109347000D01*
X167552441Y-109347000D01*
X167380688Y-109381164D01*
X167218901Y-109448179D01*
X167073296Y-109545469D01*
X166949469Y-109669296D01*
X166852179Y-109814901D01*
X166785164Y-109976688D01*
X166751000Y-110148441D01*
X117881400Y-110148441D01*
X117881400Y-107862441D01*
X144907000Y-107862441D01*
X144907000Y-108037559D01*
X144941164Y-108209312D01*
X145008179Y-108371099D01*
X145105469Y-108516704D01*
X145229296Y-108640531D01*
X145374901Y-108737821D01*
X145536688Y-108804836D01*
X145708441Y-108839000D01*
X145883559Y-108839000D01*
X146055312Y-108804836D01*
X146217099Y-108737821D01*
X146362704Y-108640531D01*
X146486531Y-108516704D01*
X146583821Y-108371099D01*
X146650836Y-108209312D01*
X146685000Y-108037559D01*
X146685000Y-107862441D01*
X146650836Y-107690688D01*
X146583821Y-107528901D01*
X146486531Y-107383296D01*
X146457676Y-107354441D01*
X157988000Y-107354441D01*
X157988000Y-107529559D01*
X158022164Y-107701312D01*
X158089179Y-107863099D01*
X158165801Y-107977771D01*
X158165801Y-108423065D01*
X158162360Y-108458000D01*
X158165801Y-108492936D01*
X158176092Y-108597420D01*
X158189170Y-108640531D01*
X158216759Y-108731481D01*
X158282798Y-108855032D01*
X158345830Y-108931836D01*
X158371674Y-108963327D01*
X158398810Y-108985597D01*
X158757258Y-109344046D01*
X158784164Y-109479312D01*
X158851179Y-109641099D01*
X158948469Y-109786704D01*
X159072296Y-109910531D01*
X159217901Y-110007821D01*
X159379688Y-110074836D01*
X159551441Y-110109000D01*
X159726559Y-110109000D01*
X159898312Y-110074836D01*
X160060099Y-110007821D01*
X160147000Y-109949756D01*
X160233901Y-110007821D01*
X160395688Y-110074836D01*
X160567441Y-110109000D01*
X160742559Y-110109000D01*
X160914312Y-110074836D01*
X161076099Y-110007821D01*
X161221704Y-109910531D01*
X161345531Y-109786704D01*
X161442821Y-109641099D01*
X161509836Y-109479312D01*
X161544000Y-109307559D01*
X161544000Y-109262431D01*
X161584099Y-109245821D01*
X161729704Y-109148531D01*
X161853531Y-109024704D01*
X161950821Y-108879099D01*
X162017836Y-108717312D01*
X162052000Y-108545559D01*
X162052000Y-108370441D01*
X162017836Y-108198688D01*
X161950821Y-108036901D01*
X161853531Y-107891296D01*
X161729704Y-107767469D01*
X161584099Y-107670179D01*
X161422312Y-107603164D01*
X161250559Y-107569000D01*
X161075441Y-107569000D01*
X160903688Y-107603164D01*
X160741901Y-107670179D01*
X160627229Y-107746800D01*
X160174771Y-107746800D01*
X160060099Y-107670179D01*
X159898312Y-107603164D01*
X159756952Y-107575046D01*
X159766000Y-107529559D01*
X159766000Y-107354441D01*
X159733132Y-107189200D01*
X162521759Y-107189200D01*
X162521759Y-107364318D01*
X162555923Y-107536071D01*
X162622938Y-107697858D01*
X162720228Y-107843463D01*
X162844055Y-107967290D01*
X162989660Y-108064580D01*
X163151447Y-108131595D01*
X163286713Y-108158501D01*
X163683407Y-108555196D01*
X163705673Y-108582327D01*
X163732804Y-108604593D01*
X163732809Y-108604598D01*
X163813967Y-108671202D01*
X163937518Y-108737242D01*
X164037368Y-108767531D01*
X164071580Y-108777909D01*
X164176064Y-108788200D01*
X164176071Y-108788200D01*
X164211000Y-108791640D01*
X164245928Y-108788200D01*
X164437229Y-108788200D01*
X164551901Y-108864821D01*
X164713688Y-108931836D01*
X164885441Y-108966000D01*
X165060559Y-108966000D01*
X165232312Y-108931836D01*
X165394099Y-108864821D01*
X165539704Y-108767531D01*
X165663531Y-108643704D01*
X165760821Y-108498099D01*
X165813699Y-108370441D01*
X169164000Y-108370441D01*
X169164000Y-108545559D01*
X169198164Y-108717312D01*
X169265179Y-108879099D01*
X169362469Y-109024704D01*
X169486296Y-109148531D01*
X169631901Y-109245821D01*
X169793688Y-109312836D01*
X169965441Y-109347000D01*
X170140559Y-109347000D01*
X170312312Y-109312836D01*
X170474099Y-109245821D01*
X170619704Y-109148531D01*
X170743531Y-109024704D01*
X170840821Y-108879099D01*
X170907836Y-108717312D01*
X170942000Y-108545559D01*
X170942000Y-108370441D01*
X170907836Y-108198688D01*
X170840821Y-108036901D01*
X170743531Y-107891296D01*
X170619704Y-107767469D01*
X170474099Y-107670179D01*
X170312312Y-107603164D01*
X170140559Y-107569000D01*
X169965441Y-107569000D01*
X169793688Y-107603164D01*
X169631901Y-107670179D01*
X169486296Y-107767469D01*
X169362469Y-107891296D01*
X169265179Y-108036901D01*
X169198164Y-108198688D01*
X169164000Y-108370441D01*
X165813699Y-108370441D01*
X165827836Y-108336312D01*
X165862000Y-108164559D01*
X165862000Y-107989441D01*
X165827836Y-107817688D01*
X165760821Y-107655901D01*
X165663531Y-107510296D01*
X165539704Y-107386469D01*
X165394099Y-107289179D01*
X165232312Y-107222164D01*
X165060559Y-107188000D01*
X164885441Y-107188000D01*
X164713688Y-107222164D01*
X164551901Y-107289179D01*
X164478208Y-107338419D01*
X164292501Y-107152713D01*
X164265595Y-107017447D01*
X164198580Y-106855660D01*
X164101290Y-106710055D01*
X163977463Y-106586228D01*
X163831858Y-106488938D01*
X163670071Y-106421923D01*
X163498318Y-106387759D01*
X163323200Y-106387759D01*
X163151447Y-106421923D01*
X162989660Y-106488938D01*
X162844055Y-106586228D01*
X162720228Y-106710055D01*
X162622938Y-106855660D01*
X162555923Y-107017447D01*
X162521759Y-107189200D01*
X159733132Y-107189200D01*
X159731836Y-107182688D01*
X159664821Y-107020901D01*
X159567531Y-106875296D01*
X159443704Y-106751469D01*
X159298099Y-106654179D01*
X159136312Y-106587164D01*
X158964559Y-106553000D01*
X158789441Y-106553000D01*
X158617688Y-106587164D01*
X158455901Y-106654179D01*
X158310296Y-106751469D01*
X158186469Y-106875296D01*
X158089179Y-107020901D01*
X158022164Y-107182688D01*
X157988000Y-107354441D01*
X146457676Y-107354441D01*
X146362704Y-107259469D01*
X146217099Y-107162179D01*
X146055312Y-107095164D01*
X145883559Y-107061000D01*
X145708441Y-107061000D01*
X145536688Y-107095164D01*
X145374901Y-107162179D01*
X145229296Y-107259469D01*
X145105469Y-107383296D01*
X145008179Y-107528901D01*
X144941164Y-107690688D01*
X144907000Y-107862441D01*
X117881400Y-107862441D01*
X117881400Y-106084441D01*
X153035000Y-106084441D01*
X153035000Y-106259559D01*
X153069164Y-106431312D01*
X153136179Y-106593099D01*
X153233469Y-106738704D01*
X153357296Y-106862531D01*
X153502901Y-106959821D01*
X153664688Y-107026836D01*
X153836441Y-107061000D01*
X154011559Y-107061000D01*
X154183312Y-107026836D01*
X154345099Y-106959821D01*
X154490704Y-106862531D01*
X154614531Y-106738704D01*
X154711821Y-106593099D01*
X154778836Y-106431312D01*
X154813000Y-106259559D01*
X154813000Y-106084441D01*
X154778836Y-105912688D01*
X154711821Y-105750901D01*
X154614531Y-105605296D01*
X154490704Y-105481469D01*
X154345099Y-105384179D01*
X154183312Y-105317164D01*
X154011559Y-105283000D01*
X153836441Y-105283000D01*
X153664688Y-105317164D01*
X153502901Y-105384179D01*
X153357296Y-105481469D01*
X153233469Y-105605296D01*
X153136179Y-105750901D01*
X153069164Y-105912688D01*
X153035000Y-106084441D01*
X117881400Y-106084441D01*
X117881400Y-103594733D01*
X117895000Y-103596072D01*
X118459250Y-103593000D01*
X118618000Y-103434250D01*
X118618000Y-102235000D01*
X118872000Y-102235000D01*
X118872000Y-103434250D01*
X119030750Y-103593000D01*
X119595000Y-103596072D01*
X119719482Y-103583812D01*
X119839180Y-103547502D01*
X119949494Y-103488537D01*
X120046185Y-103409185D01*
X120125537Y-103312494D01*
X120184502Y-103202180D01*
X120196253Y-103163441D01*
X167259000Y-103163441D01*
X167259000Y-103338559D01*
X167293164Y-103510312D01*
X167360179Y-103672099D01*
X167457469Y-103817704D01*
X167581296Y-103941531D01*
X167726901Y-104038821D01*
X167888688Y-104105836D01*
X168060441Y-104140000D01*
X168235559Y-104140000D01*
X168407312Y-104105836D01*
X168569099Y-104038821D01*
X168714704Y-103941531D01*
X168838531Y-103817704D01*
X168935821Y-103672099D01*
X169002836Y-103510312D01*
X169037000Y-103338559D01*
X169037000Y-103163441D01*
X169002836Y-102991688D01*
X168935821Y-102829901D01*
X168838531Y-102684296D01*
X168714704Y-102560469D01*
X168569099Y-102463179D01*
X168407312Y-102396164D01*
X168235559Y-102362000D01*
X168060441Y-102362000D01*
X167888688Y-102396164D01*
X167726901Y-102463179D01*
X167581296Y-102560469D01*
X167457469Y-102684296D01*
X167360179Y-102829901D01*
X167293164Y-102991688D01*
X167259000Y-103163441D01*
X120196253Y-103163441D01*
X120220812Y-103082482D01*
X120233072Y-102958000D01*
X120230000Y-102393750D01*
X120071250Y-102235000D01*
X118872000Y-102235000D01*
X118618000Y-102235000D01*
X118598000Y-102235000D01*
X118598000Y-101981000D01*
X118618000Y-101981000D01*
X118618000Y-101961000D01*
X118872000Y-101961000D01*
X118872000Y-101981000D01*
X120071250Y-101981000D01*
X120230000Y-101822250D01*
X120231686Y-101512441D01*
X160655000Y-101512441D01*
X160655000Y-101687559D01*
X160689164Y-101859312D01*
X160756179Y-102021099D01*
X160853469Y-102166704D01*
X160977296Y-102290531D01*
X161122901Y-102387821D01*
X161284688Y-102454836D01*
X161456441Y-102489000D01*
X161631559Y-102489000D01*
X161803312Y-102454836D01*
X161965099Y-102387821D01*
X162110704Y-102290531D01*
X162234531Y-102166704D01*
X162331821Y-102021099D01*
X162398836Y-101859312D01*
X162433000Y-101687559D01*
X162433000Y-101512441D01*
X162398836Y-101340688D01*
X162331821Y-101178901D01*
X162321491Y-101163441D01*
X170085000Y-101163441D01*
X170085000Y-101338559D01*
X170119164Y-101510312D01*
X170186179Y-101672099D01*
X170283469Y-101817704D01*
X170407296Y-101941531D01*
X170552901Y-102038821D01*
X170714688Y-102105836D01*
X170886441Y-102140000D01*
X171061559Y-102140000D01*
X171233312Y-102105836D01*
X171395099Y-102038821D01*
X171540704Y-101941531D01*
X171664531Y-101817704D01*
X171761821Y-101672099D01*
X171828836Y-101510312D01*
X171863000Y-101338559D01*
X171863000Y-101163441D01*
X171828836Y-100991688D01*
X171761821Y-100829901D01*
X171664531Y-100684296D01*
X171540704Y-100560469D01*
X171395099Y-100463179D01*
X171233312Y-100396164D01*
X171061559Y-100362000D01*
X170886441Y-100362000D01*
X170714688Y-100396164D01*
X170552901Y-100463179D01*
X170407296Y-100560469D01*
X170283469Y-100684296D01*
X170186179Y-100829901D01*
X170119164Y-100991688D01*
X170085000Y-101163441D01*
X162321491Y-101163441D01*
X162234531Y-101033296D01*
X162110704Y-100909469D01*
X161965099Y-100812179D01*
X161803312Y-100745164D01*
X161631559Y-100711000D01*
X161456441Y-100711000D01*
X161284688Y-100745164D01*
X161122901Y-100812179D01*
X160977296Y-100909469D01*
X160853469Y-101033296D01*
X160756179Y-101178901D01*
X160689164Y-101340688D01*
X160655000Y-101512441D01*
X120231686Y-101512441D01*
X120233072Y-101258000D01*
X120220812Y-101133518D01*
X120184502Y-101013820D01*
X120125537Y-100903506D01*
X120046185Y-100806815D01*
X119949494Y-100727463D01*
X119839180Y-100668498D01*
X119770313Y-100647607D01*
X119800134Y-100623134D01*
X119985706Y-100397014D01*
X120123599Y-100139034D01*
X120208513Y-99859111D01*
X120237185Y-99568000D01*
X120208513Y-99276889D01*
X120123599Y-98996966D01*
X119985706Y-98738986D01*
X119800134Y-98512866D01*
X119574014Y-98327294D01*
X119316034Y-98189401D01*
X119036111Y-98104487D01*
X118817950Y-98083000D01*
X118672050Y-98083000D01*
X118453889Y-98104487D01*
X118173966Y-98189401D01*
X117915986Y-98327294D01*
X117881400Y-98355678D01*
X117881400Y-95700322D01*
X117915986Y-95728706D01*
X118173966Y-95866599D01*
X118453889Y-95951513D01*
X118672050Y-95973000D01*
X118817950Y-95973000D01*
X119036111Y-95951513D01*
X119316034Y-95866599D01*
X119574014Y-95728706D01*
X119800134Y-95543134D01*
X119985706Y-95317014D01*
X120123599Y-95059034D01*
X120208513Y-94779111D01*
X120237185Y-94488000D01*
X120219810Y-94311589D01*
X122694000Y-94311589D01*
X122694000Y-94584411D01*
X122747225Y-94851989D01*
X122851629Y-95104043D01*
X123003201Y-95330886D01*
X123196114Y-95523799D01*
X123422957Y-95675371D01*
X123675011Y-95779775D01*
X123942589Y-95833000D01*
X124215411Y-95833000D01*
X124482989Y-95779775D01*
X124735043Y-95675371D01*
X124961886Y-95523799D01*
X125154799Y-95330886D01*
X125306371Y-95104043D01*
X125410775Y-94851989D01*
X125464000Y-94584411D01*
X125464000Y-94311589D01*
X125410775Y-94044011D01*
X125306371Y-93791957D01*
X125154799Y-93565114D01*
X124961886Y-93372201D01*
X124735043Y-93220629D01*
X124482989Y-93116225D01*
X124234973Y-93066891D01*
X146132519Y-93066891D01*
X146229843Y-93341252D01*
X146378822Y-93591355D01*
X146573731Y-93807588D01*
X146807080Y-93981641D01*
X147069901Y-94106825D01*
X147217110Y-94151476D01*
X147447000Y-94030155D01*
X147447000Y-92837000D01*
X146253186Y-92837000D01*
X146132519Y-93066891D01*
X124234973Y-93066891D01*
X124215411Y-93063000D01*
X123942589Y-93063000D01*
X123675011Y-93116225D01*
X123422957Y-93220629D01*
X123196114Y-93372201D01*
X123003201Y-93565114D01*
X122851629Y-93791957D01*
X122747225Y-94044011D01*
X122694000Y-94311589D01*
X120219810Y-94311589D01*
X120208513Y-94196889D01*
X120123599Y-93916966D01*
X119985706Y-93658986D01*
X119800134Y-93432866D01*
X119770313Y-93408393D01*
X119839180Y-93387502D01*
X119949494Y-93328537D01*
X120046185Y-93249185D01*
X120125537Y-93152494D01*
X120184502Y-93042180D01*
X120220812Y-92922482D01*
X120233072Y-92798000D01*
X120233072Y-92353109D01*
X146132519Y-92353109D01*
X146253186Y-92583000D01*
X147447000Y-92583000D01*
X147447000Y-91389845D01*
X147701000Y-91389845D01*
X147701000Y-92583000D01*
X147721000Y-92583000D01*
X147721000Y-92837000D01*
X147701000Y-92837000D01*
X147701000Y-94030155D01*
X147930890Y-94151476D01*
X148078099Y-94106825D01*
X148340920Y-93981641D01*
X148574269Y-93807588D01*
X148650034Y-93723534D01*
X148674498Y-93804180D01*
X148733463Y-93914494D01*
X148812815Y-94011185D01*
X148909506Y-94090537D01*
X149019820Y-94149502D01*
X149139518Y-94185812D01*
X149264000Y-94198072D01*
X150964000Y-94198072D01*
X151088482Y-94185812D01*
X151208180Y-94149502D01*
X151318494Y-94090537D01*
X151415185Y-94011185D01*
X151494537Y-93914494D01*
X151553502Y-93804180D01*
X151589812Y-93684482D01*
X151602072Y-93560000D01*
X151602072Y-93421200D01*
X154391413Y-93421200D01*
X158376258Y-97406047D01*
X158403164Y-97541312D01*
X158470179Y-97703099D01*
X158567469Y-97848704D01*
X158691296Y-97972531D01*
X158836901Y-98069821D01*
X158998688Y-98136836D01*
X159170441Y-98171000D01*
X159345559Y-98171000D01*
X159517312Y-98136836D01*
X159679099Y-98069821D01*
X159824704Y-97972531D01*
X159948531Y-97848704D01*
X160045821Y-97703099D01*
X160112836Y-97541312D01*
X160147000Y-97369559D01*
X160147000Y-97194441D01*
X160112836Y-97022688D01*
X160045821Y-96860901D01*
X159948531Y-96715296D01*
X159824704Y-96591469D01*
X159679099Y-96494179D01*
X159517312Y-96427164D01*
X159382047Y-96400258D01*
X156272229Y-93290441D01*
X170594000Y-93290441D01*
X170594000Y-93465559D01*
X170628164Y-93637312D01*
X170695179Y-93799099D01*
X170792469Y-93944704D01*
X170916296Y-94068531D01*
X171061901Y-94165821D01*
X171223688Y-94232836D01*
X171395441Y-94267000D01*
X171570559Y-94267000D01*
X171742312Y-94232836D01*
X171904099Y-94165821D01*
X172049704Y-94068531D01*
X172173531Y-93944704D01*
X172270821Y-93799099D01*
X172337836Y-93637312D01*
X172372000Y-93465559D01*
X172372000Y-93290441D01*
X172337836Y-93118688D01*
X172270821Y-92956901D01*
X172173531Y-92811296D01*
X172049704Y-92687469D01*
X171904099Y-92590179D01*
X171742312Y-92523164D01*
X171570559Y-92489000D01*
X171395441Y-92489000D01*
X171223688Y-92523164D01*
X171061901Y-92590179D01*
X170916296Y-92687469D01*
X170792469Y-92811296D01*
X170695179Y-92956901D01*
X170628164Y-93118688D01*
X170594000Y-93290441D01*
X156272229Y-93290441D01*
X155213602Y-92231815D01*
X155191327Y-92204673D01*
X155083033Y-92115798D01*
X154959481Y-92049758D01*
X154825420Y-92009091D01*
X154720936Y-91998800D01*
X154720926Y-91998800D01*
X154686000Y-91995360D01*
X154651074Y-91998800D01*
X151602072Y-91998800D01*
X151602072Y-91860000D01*
X151589812Y-91735518D01*
X151553502Y-91615820D01*
X151532186Y-91575941D01*
X161955500Y-91575941D01*
X161955500Y-91751059D01*
X161989664Y-91922812D01*
X162056679Y-92084599D01*
X162153969Y-92230204D01*
X162277796Y-92354031D01*
X162423401Y-92451321D01*
X162585188Y-92518336D01*
X162756941Y-92552500D01*
X162932059Y-92552500D01*
X163103812Y-92518336D01*
X163265599Y-92451321D01*
X163411204Y-92354031D01*
X163535031Y-92230204D01*
X163553876Y-92202000D01*
X178593815Y-92202000D01*
X178622487Y-92493111D01*
X178707401Y-92773034D01*
X178845294Y-93031014D01*
X179030866Y-93257134D01*
X179256986Y-93442706D01*
X179311791Y-93472000D01*
X179256986Y-93501294D01*
X179030866Y-93686866D01*
X178845294Y-93912986D01*
X178707401Y-94170966D01*
X178622487Y-94450889D01*
X178593815Y-94742000D01*
X178622487Y-95033111D01*
X178707401Y-95313034D01*
X178845294Y-95571014D01*
X179030866Y-95797134D01*
X179256986Y-95982706D01*
X179311791Y-96012000D01*
X179256986Y-96041294D01*
X179030866Y-96226866D01*
X178845294Y-96452986D01*
X178707401Y-96710966D01*
X178622487Y-96990889D01*
X178593815Y-97282000D01*
X178622487Y-97573111D01*
X178707401Y-97853034D01*
X178845294Y-98111014D01*
X179030866Y-98337134D01*
X179060687Y-98361607D01*
X178991820Y-98382498D01*
X178881506Y-98441463D01*
X178784815Y-98520815D01*
X178705463Y-98617506D01*
X178646498Y-98727820D01*
X178610188Y-98847518D01*
X178597928Y-98972000D01*
X178597928Y-100672000D01*
X178610188Y-100796482D01*
X178646498Y-100916180D01*
X178705463Y-101026494D01*
X178784815Y-101123185D01*
X178881506Y-101202537D01*
X178991820Y-101261502D01*
X179111518Y-101297812D01*
X179236000Y-101310072D01*
X180936000Y-101310072D01*
X181060482Y-101297812D01*
X181180180Y-101261502D01*
X181290494Y-101202537D01*
X181387185Y-101123185D01*
X181466537Y-101026494D01*
X181525502Y-100916180D01*
X181561812Y-100796482D01*
X181574072Y-100672000D01*
X181574072Y-98972000D01*
X181561812Y-98847518D01*
X181525502Y-98727820D01*
X181466537Y-98617506D01*
X181387185Y-98520815D01*
X181290494Y-98441463D01*
X181180180Y-98382498D01*
X181111313Y-98361607D01*
X181141134Y-98337134D01*
X181326706Y-98111014D01*
X181464599Y-97853034D01*
X181549513Y-97573111D01*
X181578185Y-97282000D01*
X181549513Y-96990889D01*
X181464599Y-96710966D01*
X181326706Y-96452986D01*
X181141134Y-96226866D01*
X180915014Y-96041294D01*
X180860209Y-96012000D01*
X180915014Y-95982706D01*
X181141134Y-95797134D01*
X181326706Y-95571014D01*
X181464599Y-95313034D01*
X181549513Y-95033111D01*
X181578185Y-94742000D01*
X181549513Y-94450889D01*
X181464599Y-94170966D01*
X181326706Y-93912986D01*
X181141134Y-93686866D01*
X180915014Y-93501294D01*
X180860209Y-93472000D01*
X180915014Y-93442706D01*
X181141134Y-93257134D01*
X181326706Y-93031014D01*
X181464599Y-92773034D01*
X181549513Y-92493111D01*
X181578185Y-92202000D01*
X181549513Y-91910889D01*
X181464599Y-91630966D01*
X181326706Y-91372986D01*
X181141134Y-91146866D01*
X180915014Y-90961294D01*
X180657034Y-90823401D01*
X180377111Y-90738487D01*
X180158950Y-90717000D01*
X180013050Y-90717000D01*
X179794889Y-90738487D01*
X179514966Y-90823401D01*
X179256986Y-90961294D01*
X179030866Y-91146866D01*
X178845294Y-91372986D01*
X178707401Y-91630966D01*
X178622487Y-91910889D01*
X178593815Y-92202000D01*
X163553876Y-92202000D01*
X163632321Y-92084599D01*
X163699336Y-91922812D01*
X163733500Y-91751059D01*
X163733500Y-91575941D01*
X163699336Y-91404188D01*
X163632321Y-91242401D01*
X163535031Y-91096796D01*
X163411204Y-90972969D01*
X163265599Y-90875679D01*
X163103812Y-90808664D01*
X162932059Y-90774500D01*
X162756941Y-90774500D01*
X162585188Y-90808664D01*
X162423401Y-90875679D01*
X162277796Y-90972969D01*
X162153969Y-91096796D01*
X162056679Y-91242401D01*
X161989664Y-91404188D01*
X161955500Y-91575941D01*
X151532186Y-91575941D01*
X151494537Y-91505506D01*
X151415185Y-91408815D01*
X151318494Y-91329463D01*
X151208180Y-91270498D01*
X151088482Y-91234188D01*
X150964000Y-91221928D01*
X149264000Y-91221928D01*
X149139518Y-91234188D01*
X149019820Y-91270498D01*
X148909506Y-91329463D01*
X148812815Y-91408815D01*
X148733463Y-91505506D01*
X148674498Y-91615820D01*
X148650034Y-91696466D01*
X148574269Y-91612412D01*
X148340920Y-91438359D01*
X148078099Y-91313175D01*
X147930890Y-91268524D01*
X147701000Y-91389845D01*
X147447000Y-91389845D01*
X147217110Y-91268524D01*
X147069901Y-91313175D01*
X146807080Y-91438359D01*
X146573731Y-91612412D01*
X146378822Y-91828645D01*
X146229843Y-92078748D01*
X146132519Y-92353109D01*
X120233072Y-92353109D01*
X120233072Y-91098000D01*
X120220812Y-90973518D01*
X120184502Y-90853820D01*
X120125537Y-90743506D01*
X120046185Y-90646815D01*
X119949494Y-90567463D01*
X119839180Y-90508498D01*
X119719482Y-90472188D01*
X119595000Y-90459928D01*
X117895000Y-90459928D01*
X117881400Y-90461267D01*
X117881400Y-89311589D01*
X122694000Y-89311589D01*
X122694000Y-89584411D01*
X122747225Y-89851989D01*
X122851629Y-90104043D01*
X123003201Y-90330886D01*
X123196114Y-90523799D01*
X123422957Y-90675371D01*
X123675011Y-90779775D01*
X123942589Y-90833000D01*
X124215411Y-90833000D01*
X124482989Y-90779775D01*
X124735043Y-90675371D01*
X124961886Y-90523799D01*
X125154799Y-90330886D01*
X125306371Y-90104043D01*
X125410775Y-89851989D01*
X125464000Y-89584411D01*
X125464000Y-89574441D01*
X162941000Y-89574441D01*
X162941000Y-89749559D01*
X162975164Y-89921312D01*
X163042179Y-90083099D01*
X163139469Y-90228704D01*
X163263296Y-90352531D01*
X163408901Y-90449821D01*
X163570688Y-90516836D01*
X163742441Y-90551000D01*
X163917559Y-90551000D01*
X164089312Y-90516836D01*
X164251099Y-90449821D01*
X164396704Y-90352531D01*
X164520531Y-90228704D01*
X164617821Y-90083099D01*
X164684836Y-89921312D01*
X164719000Y-89749559D01*
X164719000Y-89574441D01*
X164684836Y-89402688D01*
X164617821Y-89240901D01*
X164520531Y-89095296D01*
X164396704Y-88971469D01*
X164251099Y-88874179D01*
X164089312Y-88807164D01*
X163917559Y-88773000D01*
X163742441Y-88773000D01*
X163570688Y-88807164D01*
X163408901Y-88874179D01*
X163263296Y-88971469D01*
X163139469Y-89095296D01*
X163042179Y-89240901D01*
X162975164Y-89402688D01*
X162941000Y-89574441D01*
X125464000Y-89574441D01*
X125464000Y-89311589D01*
X125410775Y-89044011D01*
X125306371Y-88791957D01*
X125154799Y-88565114D01*
X124961886Y-88372201D01*
X124860477Y-88304441D01*
X147828000Y-88304441D01*
X147828000Y-88479559D01*
X147862164Y-88651312D01*
X147929179Y-88813099D01*
X148026469Y-88958704D01*
X148150296Y-89082531D01*
X148295901Y-89179821D01*
X148457688Y-89246836D01*
X148629441Y-89281000D01*
X148804559Y-89281000D01*
X148976312Y-89246836D01*
X149138099Y-89179821D01*
X149283704Y-89082531D01*
X149407531Y-88958704D01*
X149504821Y-88813099D01*
X149531417Y-88748891D01*
X168992519Y-88748891D01*
X169089843Y-89023252D01*
X169238822Y-89273355D01*
X169433731Y-89489588D01*
X169667080Y-89663641D01*
X169929901Y-89788825D01*
X170077110Y-89833476D01*
X170307000Y-89712155D01*
X170307000Y-88519000D01*
X169113186Y-88519000D01*
X168992519Y-88748891D01*
X149531417Y-88748891D01*
X149571836Y-88651312D01*
X149606000Y-88479559D01*
X149606000Y-88304441D01*
X149571836Y-88132688D01*
X149531418Y-88035109D01*
X168992519Y-88035109D01*
X169113186Y-88265000D01*
X170307000Y-88265000D01*
X170307000Y-87071845D01*
X170561000Y-87071845D01*
X170561000Y-88265000D01*
X170581000Y-88265000D01*
X170581000Y-88519000D01*
X170561000Y-88519000D01*
X170561000Y-89712155D01*
X170790890Y-89833476D01*
X170938099Y-89788825D01*
X171200920Y-89663641D01*
X171434269Y-89489588D01*
X171629178Y-89273355D01*
X171698799Y-89156477D01*
X171733294Y-89221014D01*
X171918866Y-89447134D01*
X172144986Y-89632706D01*
X172402966Y-89770599D01*
X172682889Y-89855513D01*
X172901050Y-89877000D01*
X173046950Y-89877000D01*
X173265111Y-89855513D01*
X173545034Y-89770599D01*
X173803014Y-89632706D01*
X174029134Y-89447134D01*
X174214706Y-89221014D01*
X174244000Y-89166209D01*
X174273294Y-89221014D01*
X174458866Y-89447134D01*
X174684986Y-89632706D01*
X174942966Y-89770599D01*
X175222889Y-89855513D01*
X175441050Y-89877000D01*
X175586950Y-89877000D01*
X175805111Y-89855513D01*
X176085034Y-89770599D01*
X176343014Y-89632706D01*
X176569134Y-89447134D01*
X176593607Y-89417313D01*
X176614498Y-89486180D01*
X176673463Y-89596494D01*
X176752815Y-89693185D01*
X176849506Y-89772537D01*
X176959820Y-89831502D01*
X177079518Y-89867812D01*
X177204000Y-89880072D01*
X178904000Y-89880072D01*
X179028482Y-89867812D01*
X179148180Y-89831502D01*
X179258494Y-89772537D01*
X179355185Y-89693185D01*
X179434537Y-89596494D01*
X179493502Y-89486180D01*
X179529812Y-89366482D01*
X179542072Y-89242000D01*
X179542072Y-87542000D01*
X179529812Y-87417518D01*
X179493502Y-87297820D01*
X179434537Y-87187506D01*
X179355185Y-87090815D01*
X179258494Y-87011463D01*
X179148180Y-86952498D01*
X179028482Y-86916188D01*
X178904000Y-86903928D01*
X177204000Y-86903928D01*
X177079518Y-86916188D01*
X176959820Y-86952498D01*
X176849506Y-87011463D01*
X176752815Y-87090815D01*
X176673463Y-87187506D01*
X176614498Y-87297820D01*
X176593607Y-87366687D01*
X176569134Y-87336866D01*
X176343014Y-87151294D01*
X176085034Y-87013401D01*
X175805111Y-86928487D01*
X175586950Y-86907000D01*
X175441050Y-86907000D01*
X175222889Y-86928487D01*
X174942966Y-87013401D01*
X174684986Y-87151294D01*
X174458866Y-87336866D01*
X174273294Y-87562986D01*
X174244000Y-87617791D01*
X174214706Y-87562986D01*
X174029134Y-87336866D01*
X173803014Y-87151294D01*
X173545034Y-87013401D01*
X173265111Y-86928487D01*
X173046950Y-86907000D01*
X172901050Y-86907000D01*
X172682889Y-86928487D01*
X172402966Y-87013401D01*
X172144986Y-87151294D01*
X171918866Y-87336866D01*
X171733294Y-87562986D01*
X171698799Y-87627523D01*
X171629178Y-87510645D01*
X171434269Y-87294412D01*
X171200920Y-87120359D01*
X170938099Y-86995175D01*
X170790890Y-86950524D01*
X170561000Y-87071845D01*
X170307000Y-87071845D01*
X170077110Y-86950524D01*
X169929901Y-86995175D01*
X169667080Y-87120359D01*
X169433731Y-87294412D01*
X169238822Y-87510645D01*
X169089843Y-87760748D01*
X168992519Y-88035109D01*
X149531418Y-88035109D01*
X149504821Y-87970901D01*
X149407531Y-87825296D01*
X149283704Y-87701469D01*
X149138099Y-87604179D01*
X148976312Y-87537164D01*
X148804559Y-87503000D01*
X148629441Y-87503000D01*
X148457688Y-87537164D01*
X148295901Y-87604179D01*
X148150296Y-87701469D01*
X148026469Y-87825296D01*
X147929179Y-87970901D01*
X147862164Y-88132688D01*
X147828000Y-88304441D01*
X124860477Y-88304441D01*
X124735043Y-88220629D01*
X124482989Y-88116225D01*
X124215411Y-88063000D01*
X123942589Y-88063000D01*
X123675011Y-88116225D01*
X123422957Y-88220629D01*
X123196114Y-88372201D01*
X123003201Y-88565114D01*
X122851629Y-88791957D01*
X122747225Y-89044011D01*
X122694000Y-89311589D01*
X117881400Y-89311589D01*
X117881400Y-88094019D01*
X118101048Y-88224857D01*
X118375409Y-88322181D01*
X118605300Y-88201514D01*
X118605300Y-87007700D01*
X118859300Y-87007700D01*
X118859300Y-88201514D01*
X119089191Y-88322181D01*
X119363552Y-88224857D01*
X119613655Y-88075878D01*
X119829888Y-87880969D01*
X120003941Y-87647620D01*
X120129125Y-87384799D01*
X120173776Y-87237590D01*
X120052455Y-87007700D01*
X118859300Y-87007700D01*
X118605300Y-87007700D01*
X118585300Y-87007700D01*
X118585300Y-86753700D01*
X118605300Y-86753700D01*
X118605300Y-86733700D01*
X118859300Y-86733700D01*
X118859300Y-86753700D01*
X120052455Y-86753700D01*
X120173776Y-86523810D01*
X120129125Y-86376601D01*
X120003941Y-86113780D01*
X119829888Y-85880431D01*
X119745834Y-85804666D01*
X119826480Y-85780202D01*
X119936794Y-85721237D01*
X120033485Y-85641885D01*
X120112837Y-85545194D01*
X120171802Y-85434880D01*
X120208112Y-85315182D01*
X120220372Y-85190700D01*
X120220372Y-84748441D01*
X156464000Y-84748441D01*
X156464000Y-84923559D01*
X156498164Y-85095312D01*
X156565179Y-85257099D01*
X156662469Y-85402704D01*
X156786296Y-85526531D01*
X156931901Y-85623821D01*
X157093688Y-85690836D01*
X157265441Y-85725000D01*
X157440559Y-85725000D01*
X157612312Y-85690836D01*
X157652474Y-85674200D01*
X166596229Y-85674200D01*
X166710901Y-85750821D01*
X166872688Y-85817836D01*
X167044441Y-85852000D01*
X167219559Y-85852000D01*
X167391312Y-85817836D01*
X167553099Y-85750821D01*
X167698704Y-85653531D01*
X167822531Y-85529704D01*
X167919821Y-85384099D01*
X167986836Y-85222312D01*
X168021000Y-85050559D01*
X168021000Y-84875441D01*
X167986836Y-84703688D01*
X167919821Y-84541901D01*
X167822531Y-84396296D01*
X167698704Y-84272469D01*
X167553099Y-84175179D01*
X167391312Y-84108164D01*
X167219559Y-84074000D01*
X167044441Y-84074000D01*
X166872688Y-84108164D01*
X166710901Y-84175179D01*
X166596229Y-84251800D01*
X158026035Y-84251800D01*
X157919704Y-84145469D01*
X157774099Y-84048179D01*
X157612312Y-83981164D01*
X157440559Y-83947000D01*
X157265441Y-83947000D01*
X157093688Y-83981164D01*
X156931901Y-84048179D01*
X156786296Y-84145469D01*
X156662469Y-84269296D01*
X156565179Y-84414901D01*
X156498164Y-84576688D01*
X156464000Y-84748441D01*
X120220372Y-84748441D01*
X120220372Y-83490700D01*
X120208112Y-83366218D01*
X120171802Y-83246520D01*
X120112837Y-83136206D01*
X120033485Y-83039515D01*
X120010829Y-83020922D01*
X120424234Y-82607518D01*
X120446260Y-82589441D01*
X166370000Y-82589441D01*
X166370000Y-82764559D01*
X166404164Y-82936312D01*
X166471179Y-83098099D01*
X166568469Y-83243704D01*
X166692296Y-83367531D01*
X166837901Y-83464821D01*
X166999688Y-83531836D01*
X167171441Y-83566000D01*
X167346559Y-83566000D01*
X167518312Y-83531836D01*
X167680099Y-83464821D01*
X167825704Y-83367531D01*
X167949531Y-83243704D01*
X168046821Y-83098099D01*
X168113836Y-82936312D01*
X168148000Y-82764559D01*
X168148000Y-82589441D01*
X168113836Y-82417688D01*
X168046821Y-82255901D01*
X167949531Y-82110296D01*
X167825704Y-81986469D01*
X167680099Y-81889179D01*
X167518312Y-81822164D01*
X167346559Y-81788000D01*
X167171441Y-81788000D01*
X166999688Y-81822164D01*
X166837901Y-81889179D01*
X166692296Y-81986469D01*
X166568469Y-82110296D01*
X166471179Y-82255901D01*
X166404164Y-82417688D01*
X166370000Y-82589441D01*
X120446260Y-82589441D01*
X120454270Y-82582868D01*
X120478920Y-82552832D01*
X120478923Y-82552829D01*
X120552667Y-82462971D01*
X120625783Y-82326182D01*
X120670807Y-82177756D01*
X120680228Y-82082099D01*
X120682201Y-82062072D01*
X120682201Y-82062064D01*
X120686009Y-82023399D01*
X120682201Y-81984734D01*
X120682201Y-80518000D01*
X137915856Y-80518000D01*
X137940377Y-80766963D01*
X138012997Y-81006359D01*
X138130925Y-81226988D01*
X138289630Y-81420370D01*
X138483012Y-81579075D01*
X138703641Y-81697003D01*
X138943037Y-81769623D01*
X139129620Y-81788000D01*
X140524380Y-81788000D01*
X140710963Y-81769623D01*
X140950359Y-81697003D01*
X141170988Y-81579075D01*
X141177853Y-81573441D01*
X159385000Y-81573441D01*
X159385000Y-81748559D01*
X159419164Y-81920312D01*
X159486179Y-82082099D01*
X159583469Y-82227704D01*
X159707296Y-82351531D01*
X159852901Y-82448821D01*
X160014688Y-82515836D01*
X160186441Y-82550000D01*
X160361559Y-82550000D01*
X160533312Y-82515836D01*
X160695099Y-82448821D01*
X160840704Y-82351531D01*
X160964531Y-82227704D01*
X161061821Y-82082099D01*
X161128836Y-81920312D01*
X161163000Y-81748559D01*
X161163000Y-81573441D01*
X161128836Y-81401688D01*
X161061821Y-81239901D01*
X160964531Y-81094296D01*
X160840704Y-80970469D01*
X160695099Y-80873179D01*
X160533312Y-80806164D01*
X160361559Y-80772000D01*
X160186441Y-80772000D01*
X160014688Y-80806164D01*
X159852901Y-80873179D01*
X159707296Y-80970469D01*
X159583469Y-81094296D01*
X159486179Y-81239901D01*
X159419164Y-81401688D01*
X159385000Y-81573441D01*
X141177853Y-81573441D01*
X141364370Y-81420370D01*
X141523075Y-81226988D01*
X141641003Y-81006359D01*
X141713623Y-80766963D01*
X141738144Y-80518000D01*
X141713623Y-80269037D01*
X141641003Y-80029641D01*
X141523075Y-79809012D01*
X141364370Y-79615630D01*
X141170988Y-79456925D01*
X141098990Y-79418441D01*
X150753000Y-79418441D01*
X150753000Y-79593559D01*
X150787164Y-79765312D01*
X150854179Y-79927099D01*
X150951469Y-80072704D01*
X151075296Y-80196531D01*
X151220901Y-80293821D01*
X151382688Y-80360836D01*
X151554441Y-80395000D01*
X151729559Y-80395000D01*
X151901312Y-80360836D01*
X152063099Y-80293821D01*
X152208704Y-80196531D01*
X152332531Y-80072704D01*
X152429821Y-79927099D01*
X152496836Y-79765312D01*
X152531000Y-79593559D01*
X152531000Y-79418441D01*
X152496836Y-79246688D01*
X152429821Y-79084901D01*
X152332531Y-78939296D01*
X152208704Y-78815469D01*
X152063099Y-78718179D01*
X151901312Y-78651164D01*
X151729559Y-78617000D01*
X151554441Y-78617000D01*
X151382688Y-78651164D01*
X151220901Y-78718179D01*
X151075296Y-78815469D01*
X150951469Y-78939296D01*
X150854179Y-79084901D01*
X150787164Y-79246688D01*
X150753000Y-79418441D01*
X141098990Y-79418441D01*
X140950359Y-79338997D01*
X140710963Y-79266377D01*
X140524380Y-79248000D01*
X139129620Y-79248000D01*
X138943037Y-79266377D01*
X138703641Y-79338997D01*
X138483012Y-79456925D01*
X138289630Y-79615630D01*
X138130925Y-79809012D01*
X138012997Y-80029641D01*
X137940377Y-80269037D01*
X137915856Y-80518000D01*
X120682201Y-80518000D01*
X120682201Y-76620441D01*
X151765000Y-76620441D01*
X151765000Y-76795559D01*
X151799164Y-76967312D01*
X151866179Y-77129099D01*
X151963469Y-77274704D01*
X152087296Y-77398531D01*
X152232901Y-77495821D01*
X152394688Y-77562836D01*
X152566441Y-77597000D01*
X152741559Y-77597000D01*
X152913312Y-77562836D01*
X153075099Y-77495821D01*
X153220704Y-77398531D01*
X153344531Y-77274704D01*
X153441821Y-77129099D01*
X153508836Y-76967312D01*
X153543000Y-76795559D01*
X153543000Y-76620441D01*
X162941000Y-76620441D01*
X162941000Y-76795559D01*
X162975164Y-76967312D01*
X163042179Y-77129099D01*
X163118801Y-77243772D01*
X163118800Y-77569229D01*
X163042179Y-77683901D01*
X162975164Y-77845688D01*
X162941000Y-78017441D01*
X162941000Y-78192559D01*
X162975164Y-78364312D01*
X163042179Y-78526099D01*
X163139469Y-78671704D01*
X163263296Y-78795531D01*
X163408901Y-78892821D01*
X163570688Y-78959836D01*
X163742441Y-78994000D01*
X163917559Y-78994000D01*
X164089312Y-78959836D01*
X164251099Y-78892821D01*
X164396704Y-78795531D01*
X164520531Y-78671704D01*
X164617821Y-78526099D01*
X164684836Y-78364312D01*
X164719000Y-78192559D01*
X164719000Y-78017441D01*
X164684836Y-77845688D01*
X164617821Y-77683901D01*
X164541200Y-77569229D01*
X164541200Y-77243771D01*
X164617821Y-77129099D01*
X164684836Y-76967312D01*
X164719000Y-76795559D01*
X164719000Y-76620441D01*
X187579000Y-76620441D01*
X187579000Y-76795559D01*
X187613164Y-76967312D01*
X187680179Y-77129099D01*
X187777469Y-77274704D01*
X187901296Y-77398531D01*
X188046901Y-77495821D01*
X188208688Y-77562836D01*
X188380441Y-77597000D01*
X188555559Y-77597000D01*
X188727312Y-77562836D01*
X188889099Y-77495821D01*
X189034704Y-77398531D01*
X189158531Y-77274704D01*
X189255821Y-77129099D01*
X189322836Y-76967312D01*
X189357000Y-76795559D01*
X189357000Y-76620441D01*
X189322836Y-76448688D01*
X189255821Y-76286901D01*
X189158531Y-76141296D01*
X189034704Y-76017469D01*
X188889099Y-75920179D01*
X188727312Y-75853164D01*
X188555559Y-75819000D01*
X188380441Y-75819000D01*
X188208688Y-75853164D01*
X188046901Y-75920179D01*
X187901296Y-76017469D01*
X187777469Y-76141296D01*
X187680179Y-76286901D01*
X187613164Y-76448688D01*
X187579000Y-76620441D01*
X164719000Y-76620441D01*
X164684836Y-76448688D01*
X164617821Y-76286901D01*
X164520531Y-76141296D01*
X164396704Y-76017469D01*
X164251099Y-75920179D01*
X164089312Y-75853164D01*
X163917559Y-75819000D01*
X163742441Y-75819000D01*
X163570688Y-75853164D01*
X163408901Y-75920179D01*
X163263296Y-76017469D01*
X163139469Y-76141296D01*
X163042179Y-76286901D01*
X162975164Y-76448688D01*
X162941000Y-76620441D01*
X153543000Y-76620441D01*
X153508836Y-76448688D01*
X153441821Y-76286901D01*
X153344531Y-76141296D01*
X153220704Y-76017469D01*
X153075099Y-75920179D01*
X152913312Y-75853164D01*
X152741559Y-75819000D01*
X152566441Y-75819000D01*
X152394688Y-75853164D01*
X152232901Y-75920179D01*
X152087296Y-76017469D01*
X151963469Y-76141296D01*
X151866179Y-76286901D01*
X151799164Y-76448688D01*
X151765000Y-76620441D01*
X120682201Y-76620441D01*
X120682201Y-74415052D01*
X128561000Y-74415052D01*
X128561000Y-74682948D01*
X128613264Y-74945697D01*
X128715784Y-75193201D01*
X128864619Y-75415949D01*
X129054051Y-75605381D01*
X129276799Y-75754216D01*
X129524303Y-75856736D01*
X129787052Y-75909000D01*
X130054948Y-75909000D01*
X130317697Y-75856736D01*
X130565201Y-75754216D01*
X130787949Y-75605381D01*
X130977381Y-75415949D01*
X131126216Y-75193201D01*
X131228736Y-74945697D01*
X131281000Y-74682948D01*
X131281000Y-74588441D01*
X173355000Y-74588441D01*
X173355000Y-74763559D01*
X173389164Y-74935312D01*
X173456179Y-75097099D01*
X173553469Y-75242704D01*
X173677296Y-75366531D01*
X173822901Y-75463821D01*
X173984688Y-75530836D01*
X174156441Y-75565000D01*
X174331559Y-75565000D01*
X174503312Y-75530836D01*
X174665099Y-75463821D01*
X174810704Y-75366531D01*
X174934531Y-75242704D01*
X175031821Y-75097099D01*
X175098836Y-74935312D01*
X175133000Y-74763559D01*
X175133000Y-74588441D01*
X175098836Y-74416688D01*
X175031821Y-74254901D01*
X174934531Y-74109296D01*
X174810704Y-73985469D01*
X174665099Y-73888179D01*
X174503312Y-73821164D01*
X174331559Y-73787000D01*
X174156441Y-73787000D01*
X173984688Y-73821164D01*
X173822901Y-73888179D01*
X173677296Y-73985469D01*
X173553469Y-74109296D01*
X173456179Y-74254901D01*
X173389164Y-74416688D01*
X173355000Y-74588441D01*
X131281000Y-74588441D01*
X131281000Y-74415052D01*
X131228736Y-74152303D01*
X131126216Y-73904799D01*
X130977381Y-73682051D01*
X130787949Y-73492619D01*
X130565201Y-73343784D01*
X130408487Y-73278871D01*
X130511100Y-73241609D01*
X130618035Y-73184450D01*
X130680528Y-72948133D01*
X129921000Y-72188605D01*
X129161472Y-72948133D01*
X129223965Y-73184450D01*
X129429560Y-73280508D01*
X129276799Y-73343784D01*
X129054051Y-73492619D01*
X128864619Y-73682051D01*
X128715784Y-73904799D01*
X128613264Y-74152303D01*
X128561000Y-74415052D01*
X120682201Y-74415052D01*
X120682201Y-72082482D01*
X128556396Y-72082482D01*
X128596952Y-72347291D01*
X128688391Y-72599100D01*
X128745550Y-72706035D01*
X128981867Y-72768528D01*
X129741395Y-72009000D01*
X130100605Y-72009000D01*
X130860133Y-72768528D01*
X131096450Y-72706035D01*
X131209850Y-72463322D01*
X131273719Y-72203151D01*
X131285604Y-71935518D01*
X131249691Y-71701024D01*
X143129000Y-71701024D01*
X143129000Y-71926176D01*
X143172925Y-72147001D01*
X143259087Y-72355013D01*
X143384174Y-72542220D01*
X143543380Y-72701426D01*
X143730587Y-72826513D01*
X143938599Y-72912675D01*
X144159424Y-72956600D01*
X144384576Y-72956600D01*
X144605401Y-72912675D01*
X144813413Y-72826513D01*
X145000620Y-72701426D01*
X145159826Y-72542220D01*
X145284913Y-72355013D01*
X145371075Y-72147001D01*
X145415000Y-71926176D01*
X145415000Y-71701024D01*
X145371075Y-71480199D01*
X145284913Y-71272187D01*
X145159826Y-71084980D01*
X145000620Y-70925774D01*
X144813413Y-70800687D01*
X144605401Y-70714525D01*
X144384576Y-70670600D01*
X144159424Y-70670600D01*
X143938599Y-70714525D01*
X143730587Y-70800687D01*
X143543380Y-70925774D01*
X143384174Y-71084980D01*
X143259087Y-71272187D01*
X143172925Y-71480199D01*
X143129000Y-71701024D01*
X131249691Y-71701024D01*
X131245048Y-71670709D01*
X131153609Y-71418900D01*
X131096450Y-71311965D01*
X130860133Y-71249472D01*
X130100605Y-72009000D01*
X129741395Y-72009000D01*
X128981867Y-71249472D01*
X128745550Y-71311965D01*
X128632150Y-71554678D01*
X128568281Y-71814849D01*
X128556396Y-72082482D01*
X120682201Y-72082482D01*
X120682201Y-66795052D01*
X128561000Y-66795052D01*
X128561000Y-67062948D01*
X128613264Y-67325697D01*
X128715784Y-67573201D01*
X128864619Y-67795949D01*
X129054051Y-67985381D01*
X129276799Y-68134216D01*
X129433201Y-68199000D01*
X129276799Y-68263784D01*
X129054051Y-68412619D01*
X128864619Y-68602051D01*
X128715784Y-68824799D01*
X128613264Y-69072303D01*
X128561000Y-69335052D01*
X128561000Y-69602948D01*
X128613264Y-69865697D01*
X128715784Y-70113201D01*
X128864619Y-70335949D01*
X129054051Y-70525381D01*
X129276799Y-70674216D01*
X129433513Y-70739129D01*
X129330900Y-70776391D01*
X129223965Y-70833550D01*
X129161472Y-71069867D01*
X129921000Y-71829395D01*
X130680528Y-71069867D01*
X130618035Y-70833550D01*
X130412440Y-70737492D01*
X130565201Y-70674216D01*
X130787949Y-70525381D01*
X130977381Y-70335949D01*
X131126216Y-70113201D01*
X131228736Y-69865697D01*
X131281000Y-69602948D01*
X131281000Y-69335052D01*
X131228736Y-69072303D01*
X131126216Y-68824799D01*
X130977381Y-68602051D01*
X130787949Y-68412619D01*
X130565201Y-68263784D01*
X130408799Y-68199000D01*
X130565201Y-68134216D01*
X130787949Y-67985381D01*
X130977381Y-67795949D01*
X131126216Y-67573201D01*
X131228736Y-67325697D01*
X131281000Y-67062948D01*
X131281000Y-66795052D01*
X131228736Y-66532303D01*
X131126216Y-66284799D01*
X130977381Y-66062051D01*
X130787949Y-65872619D01*
X130565201Y-65723784D01*
X130317697Y-65621264D01*
X130054948Y-65569000D01*
X129787052Y-65569000D01*
X129524303Y-65621264D01*
X129276799Y-65723784D01*
X129054051Y-65872619D01*
X128864619Y-66062051D01*
X128715784Y-66284799D01*
X128613264Y-66532303D01*
X128561000Y-66795052D01*
X120682201Y-66795052D01*
X120682201Y-65203463D01*
X120686009Y-65164800D01*
X120682201Y-65126137D01*
X120682201Y-65126128D01*
X120670807Y-65010444D01*
X120625783Y-64862018D01*
X120552667Y-64725229D01*
X120454270Y-64605332D01*
X120424235Y-64580683D01*
X120189816Y-64346264D01*
X120203513Y-64301111D01*
X120232185Y-64010000D01*
X120220901Y-63895424D01*
X143383000Y-63895424D01*
X143383000Y-64120576D01*
X143426925Y-64341401D01*
X143513087Y-64549413D01*
X143638174Y-64736620D01*
X143797380Y-64895826D01*
X143984587Y-65020913D01*
X144192599Y-65107075D01*
X144413424Y-65151000D01*
X144638576Y-65151000D01*
X144859401Y-65107075D01*
X145067413Y-65020913D01*
X145254620Y-64895826D01*
X145413826Y-64736620D01*
X145538913Y-64549413D01*
X145625075Y-64341401D01*
X145669000Y-64120576D01*
X145669000Y-63895424D01*
X145625075Y-63674599D01*
X145538913Y-63466587D01*
X145413826Y-63279380D01*
X145254620Y-63120174D01*
X145067413Y-62995087D01*
X144859401Y-62908925D01*
X144638576Y-62865000D01*
X144413424Y-62865000D01*
X144192599Y-62908925D01*
X143984587Y-62995087D01*
X143797380Y-63120174D01*
X143638174Y-63279380D01*
X143513087Y-63466587D01*
X143426925Y-63674599D01*
X143383000Y-63895424D01*
X120220901Y-63895424D01*
X120203513Y-63718889D01*
X120118599Y-63438966D01*
X119980706Y-63180986D01*
X119795134Y-62954866D01*
X119569014Y-62769294D01*
X119514209Y-62740000D01*
X119569014Y-62710706D01*
X119795134Y-62525134D01*
X119980706Y-62299014D01*
X120118599Y-62041034D01*
X120203513Y-61761111D01*
X120232185Y-61470000D01*
X120203513Y-61178889D01*
X120118599Y-60898966D01*
X119980706Y-60640986D01*
X119795134Y-60414866D01*
X119569014Y-60229294D01*
X119514209Y-60200000D01*
X119569014Y-60170706D01*
X119795134Y-59985134D01*
X119980706Y-59759014D01*
X120118599Y-59501034D01*
X120203513Y-59221111D01*
X120208049Y-59175052D01*
X128561000Y-59175052D01*
X128561000Y-59442948D01*
X128613264Y-59705697D01*
X128715784Y-59953201D01*
X128864619Y-60175949D01*
X129054051Y-60365381D01*
X129276799Y-60514216D01*
X129433201Y-60579000D01*
X129276799Y-60643784D01*
X129054051Y-60792619D01*
X128864619Y-60982051D01*
X128715784Y-61204799D01*
X128613264Y-61452303D01*
X128561000Y-61715052D01*
X128561000Y-61982948D01*
X128613264Y-62245697D01*
X128715784Y-62493201D01*
X128864619Y-62715949D01*
X129054051Y-62905381D01*
X129276799Y-63054216D01*
X129524303Y-63156736D01*
X129787052Y-63209000D01*
X130054948Y-63209000D01*
X130317697Y-63156736D01*
X130565201Y-63054216D01*
X130787949Y-62905381D01*
X130977381Y-62715949D01*
X131126216Y-62493201D01*
X131228736Y-62245697D01*
X131281000Y-61982948D01*
X131281000Y-61929872D01*
X151465000Y-61929872D01*
X151465000Y-62370128D01*
X151550890Y-62801925D01*
X151719369Y-63208669D01*
X151963962Y-63574729D01*
X152275271Y-63886038D01*
X152641331Y-64130631D01*
X153048075Y-64299110D01*
X153479872Y-64385000D01*
X153920128Y-64385000D01*
X154351925Y-64299110D01*
X154758669Y-64130631D01*
X155124729Y-63886038D01*
X155436038Y-63574729D01*
X155680631Y-63208669D01*
X155849110Y-62801925D01*
X155935000Y-62370128D01*
X155935000Y-62004947D01*
X163323000Y-62004947D01*
X163323000Y-62455053D01*
X163410811Y-62896510D01*
X163583059Y-63312353D01*
X163833125Y-63686603D01*
X164151397Y-64004875D01*
X164525647Y-64254941D01*
X164941490Y-64427189D01*
X165382947Y-64515000D01*
X165833053Y-64515000D01*
X166274510Y-64427189D01*
X166690353Y-64254941D01*
X167064603Y-64004875D01*
X167382875Y-63686603D01*
X167632941Y-63312353D01*
X167805189Y-62896510D01*
X167893000Y-62455053D01*
X167893000Y-62004947D01*
X167805189Y-61563490D01*
X167632941Y-61147647D01*
X167412464Y-60817680D01*
X169243000Y-60817680D01*
X169243000Y-61102320D01*
X169298530Y-61381491D01*
X169407457Y-61644464D01*
X169565595Y-61881134D01*
X169766866Y-62082405D01*
X169987757Y-62230000D01*
X169766866Y-62377595D01*
X169565595Y-62578866D01*
X169407457Y-62815536D01*
X169298530Y-63078509D01*
X169243000Y-63357680D01*
X169243000Y-63642320D01*
X169298530Y-63921491D01*
X169407457Y-64184464D01*
X169565595Y-64421134D01*
X169766866Y-64622405D01*
X170003536Y-64780543D01*
X170266509Y-64889470D01*
X170545680Y-64945000D01*
X170830320Y-64945000D01*
X171109491Y-64889470D01*
X171372464Y-64780543D01*
X171609134Y-64622405D01*
X171693841Y-64537698D01*
X171678000Y-64617338D01*
X171678000Y-64922662D01*
X171737565Y-65222118D01*
X171854408Y-65504200D01*
X172024036Y-65758068D01*
X172239932Y-65973964D01*
X172493800Y-66143592D01*
X172775882Y-66260435D01*
X173075338Y-66320000D01*
X173380662Y-66320000D01*
X173680118Y-66260435D01*
X173962200Y-66143592D01*
X174216068Y-65973964D01*
X174431964Y-65758068D01*
X174601592Y-65504200D01*
X174718435Y-65222118D01*
X174778000Y-64922662D01*
X174778000Y-64617338D01*
X174718435Y-64317882D01*
X174601592Y-64035800D01*
X174431964Y-63781932D01*
X174216068Y-63566036D01*
X173962200Y-63396408D01*
X173680118Y-63279565D01*
X173380662Y-63220000D01*
X173075338Y-63220000D01*
X172775882Y-63279565D01*
X172493800Y-63396408D01*
X172239932Y-63566036D01*
X172125390Y-63680578D01*
X172133000Y-63642320D01*
X172133000Y-63357680D01*
X172077470Y-63078509D01*
X171968543Y-62815536D01*
X171810405Y-62578866D01*
X171609134Y-62377595D01*
X171388243Y-62230000D01*
X171609134Y-62082405D01*
X171810405Y-61881134D01*
X171968543Y-61644464D01*
X172077470Y-61381491D01*
X172133000Y-61102320D01*
X172133000Y-60817680D01*
X172125390Y-60779422D01*
X172239932Y-60893964D01*
X172493800Y-61063592D01*
X172775882Y-61180435D01*
X173075338Y-61240000D01*
X173380662Y-61240000D01*
X173680118Y-61180435D01*
X173962200Y-61063592D01*
X174216068Y-60893964D01*
X174431964Y-60678068D01*
X174601592Y-60424200D01*
X174718435Y-60142118D01*
X174778000Y-59842662D01*
X174778000Y-59537338D01*
X174718435Y-59237882D01*
X174601592Y-58955800D01*
X174431964Y-58701932D01*
X174216068Y-58486036D01*
X173962200Y-58316408D01*
X173680118Y-58199565D01*
X173380662Y-58140000D01*
X173075338Y-58140000D01*
X172775882Y-58199565D01*
X172493800Y-58316408D01*
X172239932Y-58486036D01*
X172024036Y-58701932D01*
X171854408Y-58955800D01*
X171737565Y-59237882D01*
X171678000Y-59537338D01*
X171678000Y-59842662D01*
X171693841Y-59922302D01*
X171609134Y-59837595D01*
X171372464Y-59679457D01*
X171109491Y-59570530D01*
X170830320Y-59515000D01*
X170545680Y-59515000D01*
X170266509Y-59570530D01*
X170003536Y-59679457D01*
X169766866Y-59837595D01*
X169565595Y-60038866D01*
X169407457Y-60275536D01*
X169298530Y-60538509D01*
X169243000Y-60817680D01*
X167412464Y-60817680D01*
X167382875Y-60773397D01*
X167064603Y-60455125D01*
X166690353Y-60205059D01*
X166274510Y-60032811D01*
X165833053Y-59945000D01*
X165382947Y-59945000D01*
X164941490Y-60032811D01*
X164525647Y-60205059D01*
X164151397Y-60455125D01*
X163833125Y-60773397D01*
X163583059Y-61147647D01*
X163410811Y-61563490D01*
X163323000Y-62004947D01*
X155935000Y-62004947D01*
X155935000Y-61929872D01*
X155849110Y-61498075D01*
X155680631Y-61091331D01*
X155436038Y-60725271D01*
X155124729Y-60413962D01*
X154758669Y-60169369D01*
X154351925Y-60000890D01*
X153920128Y-59915000D01*
X153479872Y-59915000D01*
X153048075Y-60000890D01*
X152641331Y-60169369D01*
X152275271Y-60413962D01*
X151963962Y-60725271D01*
X151719369Y-61091331D01*
X151550890Y-61498075D01*
X151465000Y-61929872D01*
X131281000Y-61929872D01*
X131281000Y-61715052D01*
X131228736Y-61452303D01*
X131126216Y-61204799D01*
X130977381Y-60982051D01*
X130787949Y-60792619D01*
X130565201Y-60643784D01*
X130408799Y-60579000D01*
X130565201Y-60514216D01*
X130787949Y-60365381D01*
X130977381Y-60175949D01*
X131126216Y-59953201D01*
X131228736Y-59705697D01*
X131281000Y-59442948D01*
X131281000Y-59175052D01*
X131228736Y-58912303D01*
X131126216Y-58664799D01*
X130977381Y-58442051D01*
X130787949Y-58252619D01*
X130565201Y-58103784D01*
X130408487Y-58038871D01*
X130511100Y-58001609D01*
X130618035Y-57944450D01*
X130680528Y-57708133D01*
X129921000Y-56948605D01*
X129161472Y-57708133D01*
X129223965Y-57944450D01*
X129429560Y-58040508D01*
X129276799Y-58103784D01*
X129054051Y-58252619D01*
X128864619Y-58442051D01*
X128715784Y-58664799D01*
X128613264Y-58912303D01*
X128561000Y-59175052D01*
X120208049Y-59175052D01*
X120232185Y-58930000D01*
X120203513Y-58638889D01*
X120118599Y-58358966D01*
X119980706Y-58100986D01*
X119795134Y-57874866D01*
X119765313Y-57850393D01*
X119834180Y-57829502D01*
X119944494Y-57770537D01*
X120041185Y-57691185D01*
X120120537Y-57594494D01*
X120179502Y-57484180D01*
X120215812Y-57364482D01*
X120228072Y-57240000D01*
X120225908Y-56842482D01*
X128556396Y-56842482D01*
X128596952Y-57107291D01*
X128688391Y-57359100D01*
X128745550Y-57466035D01*
X128981867Y-57528528D01*
X129741395Y-56769000D01*
X130100605Y-56769000D01*
X130860133Y-57528528D01*
X131096450Y-57466035D01*
X131209850Y-57223322D01*
X131273719Y-56963151D01*
X131285604Y-56695518D01*
X131245048Y-56430709D01*
X131153609Y-56178900D01*
X131096450Y-56071965D01*
X130860133Y-56009472D01*
X130100605Y-56769000D01*
X129741395Y-56769000D01*
X128981867Y-56009472D01*
X128745550Y-56071965D01*
X128632150Y-56314678D01*
X128568281Y-56574849D01*
X128556396Y-56842482D01*
X120225908Y-56842482D01*
X120225000Y-56675750D01*
X120066250Y-56517000D01*
X118867000Y-56517000D01*
X118867000Y-56537000D01*
X118613000Y-56537000D01*
X118613000Y-56517000D01*
X117413750Y-56517000D01*
X117255000Y-56675750D01*
X117251928Y-57240000D01*
X117264188Y-57364482D01*
X117300498Y-57484180D01*
X117359463Y-57594494D01*
X117438815Y-57691185D01*
X117535506Y-57770537D01*
X117645820Y-57829502D01*
X117714687Y-57850393D01*
X117684866Y-57874866D01*
X117499294Y-58100986D01*
X117361401Y-58358966D01*
X117276487Y-58638889D01*
X117247815Y-58930000D01*
X117276487Y-59221111D01*
X117361401Y-59501034D01*
X117499294Y-59759014D01*
X117684866Y-59985134D01*
X117910986Y-60170706D01*
X117965791Y-60200000D01*
X117910986Y-60229294D01*
X117684866Y-60414866D01*
X117499294Y-60640986D01*
X117361401Y-60898966D01*
X117276487Y-61178889D01*
X117247815Y-61470000D01*
X117276487Y-61761111D01*
X117361401Y-62041034D01*
X117499294Y-62299014D01*
X117684866Y-62525134D01*
X117910986Y-62710706D01*
X117965791Y-62740000D01*
X117910986Y-62769294D01*
X117684866Y-62954866D01*
X117499294Y-63180986D01*
X117361401Y-63438966D01*
X117276487Y-63718889D01*
X117247815Y-64010000D01*
X117276487Y-64301111D01*
X117361401Y-64581034D01*
X117499294Y-64839014D01*
X117684866Y-65065134D01*
X117910986Y-65250706D01*
X117965791Y-65280000D01*
X117910986Y-65309294D01*
X117684866Y-65494866D01*
X117499294Y-65720986D01*
X117361401Y-65978966D01*
X117276487Y-66258889D01*
X117247815Y-66550000D01*
X117276487Y-66841111D01*
X117290184Y-66886265D01*
X116860000Y-67316450D01*
X116860000Y-55540000D01*
X117251928Y-55540000D01*
X117255000Y-56104250D01*
X117413750Y-56263000D01*
X118613000Y-56263000D01*
X118613000Y-55063750D01*
X118867000Y-55063750D01*
X118867000Y-56263000D01*
X120066250Y-56263000D01*
X120225000Y-56104250D01*
X120226493Y-55829867D01*
X129161472Y-55829867D01*
X129921000Y-56589395D01*
X130680528Y-55829867D01*
X130618035Y-55593550D01*
X130375322Y-55480150D01*
X130115151Y-55416281D01*
X129847518Y-55404396D01*
X129582709Y-55444952D01*
X129330900Y-55536391D01*
X129223965Y-55593550D01*
X129161472Y-55829867D01*
X120226493Y-55829867D01*
X120228072Y-55540000D01*
X120215812Y-55415518D01*
X120179502Y-55295820D01*
X120120537Y-55185506D01*
X120041185Y-55088815D01*
X119944494Y-55009463D01*
X119834180Y-54950498D01*
X119714482Y-54914188D01*
X119590000Y-54901928D01*
X119025750Y-54905000D01*
X118867000Y-55063750D01*
X118613000Y-55063750D01*
X118454250Y-54905000D01*
X117890000Y-54901928D01*
X117765518Y-54914188D01*
X117645820Y-54950498D01*
X117535506Y-55009463D01*
X117438815Y-55088815D01*
X117359463Y-55185506D01*
X117300498Y-55295820D01*
X117264188Y-55415518D01*
X117251928Y-55540000D01*
X116860000Y-55540000D01*
X116860000Y-54510000D01*
X190540000Y-54510000D01*
X190540001Y-137940000D01*
X190540001Y-137940000D01*
G37*
X190540001Y-137940000D02*
X116860000Y-137940000D01*
X116860000Y-130079872D01*
X151465000Y-130079872D01*
X151465000Y-130520128D01*
X151550890Y-130951925D01*
X151719369Y-131358669D01*
X151963962Y-131724729D01*
X152275271Y-132036038D01*
X152641331Y-132280631D01*
X153048075Y-132449110D01*
X153479872Y-132535000D01*
X153920128Y-132535000D01*
X154351925Y-132449110D01*
X154758669Y-132280631D01*
X155124729Y-132036038D01*
X155436038Y-131724729D01*
X155680631Y-131358669D01*
X155849110Y-130951925D01*
X155935000Y-130520128D01*
X155935000Y-130079872D01*
X155849110Y-129648075D01*
X155680631Y-129241331D01*
X155436038Y-128875271D01*
X155124729Y-128563962D01*
X154758669Y-128319369D01*
X154351925Y-128150890D01*
X153920128Y-128065000D01*
X153479872Y-128065000D01*
X153048075Y-128150890D01*
X152641331Y-128319369D01*
X152275271Y-128563962D01*
X151963962Y-128875271D01*
X151719369Y-129241331D01*
X151550890Y-129648075D01*
X151465000Y-130079872D01*
X116860000Y-130079872D01*
X116860000Y-122037551D01*
X117271881Y-122449433D01*
X117296531Y-122479469D01*
X117326567Y-122504119D01*
X117326570Y-122504122D01*
X117416427Y-122577866D01*
X117477539Y-122610531D01*
X117553217Y-122650982D01*
X117701643Y-122696006D01*
X117817327Y-122707400D01*
X117817335Y-122707400D01*
X117856000Y-122711208D01*
X117894665Y-122707400D01*
X144866271Y-122707400D01*
X144866901Y-122707821D01*
X145028688Y-122774836D01*
X145200441Y-122809000D01*
X145375559Y-122809000D01*
X145547312Y-122774836D01*
X145709099Y-122707821D01*
X145854704Y-122610531D01*
X145978531Y-122486704D01*
X146075821Y-122341099D01*
X146142836Y-122179312D01*
X146177000Y-122007559D01*
X146177000Y-121832441D01*
X146142836Y-121660688D01*
X146075821Y-121498901D01*
X145978531Y-121353296D01*
X145854704Y-121229469D01*
X145709099Y-121132179D01*
X145547312Y-121065164D01*
X145375559Y-121031000D01*
X145200441Y-121031000D01*
X145028688Y-121065164D01*
X144866901Y-121132179D01*
X144866271Y-121132600D01*
X118182151Y-121132600D01*
X117881400Y-120831849D01*
X117881400Y-112942441D01*
X156591000Y-112942441D01*
X156591000Y-113117559D01*
X156625164Y-113289312D01*
X156692179Y-113451099D01*
X156789469Y-113596704D01*
X156913296Y-113720531D01*
X157058901Y-113817821D01*
X157220688Y-113884836D01*
X157392441Y-113919000D01*
X157567559Y-113919000D01*
X157739312Y-113884836D01*
X157901099Y-113817821D01*
X158046704Y-113720531D01*
X158170531Y-113596704D01*
X158267821Y-113451099D01*
X158334836Y-113289312D01*
X158369000Y-113117559D01*
X158369000Y-112942441D01*
X158334836Y-112770688D01*
X158300768Y-112688441D01*
X159385000Y-112688441D01*
X159385000Y-112863559D01*
X159419164Y-113035312D01*
X159486179Y-113197099D01*
X159583469Y-113342704D01*
X159707296Y-113466531D01*
X159852901Y-113563821D01*
X160014688Y-113630836D01*
X160186441Y-113665000D01*
X160361559Y-113665000D01*
X160533312Y-113630836D01*
X160695099Y-113563821D01*
X160840704Y-113466531D01*
X160964531Y-113342704D01*
X161061821Y-113197099D01*
X161128836Y-113035312D01*
X161163000Y-112863559D01*
X161163000Y-112688441D01*
X161128836Y-112516688D01*
X161061821Y-112354901D01*
X160982669Y-112236441D01*
X162071600Y-112236441D01*
X162071600Y-112411559D01*
X162105764Y-112583312D01*
X162172779Y-112745099D01*
X162270069Y-112890704D01*
X162393896Y-113014531D01*
X162539501Y-113111821D01*
X162701288Y-113178836D01*
X162873041Y-113213000D01*
X163048159Y-113213000D01*
X163219912Y-113178836D01*
X163381699Y-113111821D01*
X163527304Y-113014531D01*
X163651131Y-112890704D01*
X163748421Y-112745099D01*
X163815436Y-112583312D01*
X163849600Y-112411559D01*
X163849600Y-112236441D01*
X163815436Y-112064688D01*
X163748421Y-111902901D01*
X163651131Y-111757296D01*
X163527304Y-111633469D01*
X163381699Y-111536179D01*
X163219912Y-111469164D01*
X163048159Y-111435000D01*
X162873041Y-111435000D01*
X162701288Y-111469164D01*
X162539501Y-111536179D01*
X162393896Y-111633469D01*
X162270069Y-111757296D01*
X162172779Y-111902901D01*
X162105764Y-112064688D01*
X162071600Y-112236441D01*
X160982669Y-112236441D01*
X160964531Y-112209296D01*
X160840704Y-112085469D01*
X160695099Y-111988179D01*
X160533312Y-111921164D01*
X160361559Y-111887000D01*
X160186441Y-111887000D01*
X160014688Y-111921164D01*
X159852901Y-111988179D01*
X159707296Y-112085469D01*
X159583469Y-112209296D01*
X159486179Y-112354901D01*
X159419164Y-112516688D01*
X159385000Y-112688441D01*
X158300768Y-112688441D01*
X158267821Y-112608901D01*
X158170531Y-112463296D01*
X158046704Y-112339469D01*
X157901099Y-112242179D01*
X157739312Y-112175164D01*
X157567559Y-112141000D01*
X157392441Y-112141000D01*
X157220688Y-112175164D01*
X157058901Y-112242179D01*
X156913296Y-112339469D01*
X156789469Y-112463296D01*
X156692179Y-112608901D01*
X156625164Y-112770688D01*
X156591000Y-112942441D01*
X117881400Y-112942441D01*
X117881400Y-110148441D01*
X166751000Y-110148441D01*
X166751000Y-110323559D01*
X166785164Y-110495312D01*
X166852179Y-110657099D01*
X166949469Y-110802704D01*
X167073296Y-110926531D01*
X167218901Y-111023821D01*
X167380688Y-111090836D01*
X167552441Y-111125000D01*
X167727559Y-111125000D01*
X167899312Y-111090836D01*
X168061099Y-111023821D01*
X168206704Y-110926531D01*
X168330531Y-110802704D01*
X168427821Y-110657099D01*
X168494836Y-110495312D01*
X168529000Y-110323559D01*
X168529000Y-110148441D01*
X168494836Y-109976688D01*
X168427821Y-109814901D01*
X168330531Y-109669296D01*
X168206704Y-109545469D01*
X168061099Y-109448179D01*
X167899312Y-109381164D01*
X167727559Y-109347000D01*
X167552441Y-109347000D01*
X167380688Y-109381164D01*
X167218901Y-109448179D01*
X167073296Y-109545469D01*
X166949469Y-109669296D01*
X166852179Y-109814901D01*
X166785164Y-109976688D01*
X166751000Y-110148441D01*
X117881400Y-110148441D01*
X117881400Y-107862441D01*
X144907000Y-107862441D01*
X144907000Y-108037559D01*
X144941164Y-108209312D01*
X145008179Y-108371099D01*
X145105469Y-108516704D01*
X145229296Y-108640531D01*
X145374901Y-108737821D01*
X145536688Y-108804836D01*
X145708441Y-108839000D01*
X145883559Y-108839000D01*
X146055312Y-108804836D01*
X146217099Y-108737821D01*
X146362704Y-108640531D01*
X146486531Y-108516704D01*
X146583821Y-108371099D01*
X146650836Y-108209312D01*
X146685000Y-108037559D01*
X146685000Y-107862441D01*
X146650836Y-107690688D01*
X146583821Y-107528901D01*
X146486531Y-107383296D01*
X146457676Y-107354441D01*
X157988000Y-107354441D01*
X157988000Y-107529559D01*
X158022164Y-107701312D01*
X158089179Y-107863099D01*
X158165801Y-107977771D01*
X158165801Y-108423065D01*
X158162360Y-108458000D01*
X158165801Y-108492936D01*
X158176092Y-108597420D01*
X158189170Y-108640531D01*
X158216759Y-108731481D01*
X158282798Y-108855032D01*
X158345830Y-108931836D01*
X158371674Y-108963327D01*
X158398810Y-108985597D01*
X158757258Y-109344046D01*
X158784164Y-109479312D01*
X158851179Y-109641099D01*
X158948469Y-109786704D01*
X159072296Y-109910531D01*
X159217901Y-110007821D01*
X159379688Y-110074836D01*
X159551441Y-110109000D01*
X159726559Y-110109000D01*
X159898312Y-110074836D01*
X160060099Y-110007821D01*
X160147000Y-109949756D01*
X160233901Y-110007821D01*
X160395688Y-110074836D01*
X160567441Y-110109000D01*
X160742559Y-110109000D01*
X160914312Y-110074836D01*
X161076099Y-110007821D01*
X161221704Y-109910531D01*
X161345531Y-109786704D01*
X161442821Y-109641099D01*
X161509836Y-109479312D01*
X161544000Y-109307559D01*
X161544000Y-109262431D01*
X161584099Y-109245821D01*
X161729704Y-109148531D01*
X161853531Y-109024704D01*
X161950821Y-108879099D01*
X162017836Y-108717312D01*
X162052000Y-108545559D01*
X162052000Y-108370441D01*
X162017836Y-108198688D01*
X161950821Y-108036901D01*
X161853531Y-107891296D01*
X161729704Y-107767469D01*
X161584099Y-107670179D01*
X161422312Y-107603164D01*
X161250559Y-107569000D01*
X161075441Y-107569000D01*
X160903688Y-107603164D01*
X160741901Y-107670179D01*
X160627229Y-107746800D01*
X160174771Y-107746800D01*
X160060099Y-107670179D01*
X159898312Y-107603164D01*
X159756952Y-107575046D01*
X159766000Y-107529559D01*
X159766000Y-107354441D01*
X159733132Y-107189200D01*
X162521759Y-107189200D01*
X162521759Y-107364318D01*
X162555923Y-107536071D01*
X162622938Y-107697858D01*
X162720228Y-107843463D01*
X162844055Y-107967290D01*
X162989660Y-108064580D01*
X163151447Y-108131595D01*
X163286713Y-108158501D01*
X163683407Y-108555196D01*
X163705673Y-108582327D01*
X163732804Y-108604593D01*
X163732809Y-108604598D01*
X163813967Y-108671202D01*
X163937518Y-108737242D01*
X164037368Y-108767531D01*
X164071580Y-108777909D01*
X164176064Y-108788200D01*
X164176071Y-108788200D01*
X164211000Y-108791640D01*
X164245928Y-108788200D01*
X164437229Y-108788200D01*
X164551901Y-108864821D01*
X164713688Y-108931836D01*
X164885441Y-108966000D01*
X165060559Y-108966000D01*
X165232312Y-108931836D01*
X165394099Y-108864821D01*
X165539704Y-108767531D01*
X165663531Y-108643704D01*
X165760821Y-108498099D01*
X165813699Y-108370441D01*
X169164000Y-108370441D01*
X169164000Y-108545559D01*
X169198164Y-108717312D01*
X169265179Y-108879099D01*
X169362469Y-109024704D01*
X169486296Y-109148531D01*
X169631901Y-109245821D01*
X169793688Y-109312836D01*
X169965441Y-109347000D01*
X170140559Y-109347000D01*
X170312312Y-109312836D01*
X170474099Y-109245821D01*
X170619704Y-109148531D01*
X170743531Y-109024704D01*
X170840821Y-108879099D01*
X170907836Y-108717312D01*
X170942000Y-108545559D01*
X170942000Y-108370441D01*
X170907836Y-108198688D01*
X170840821Y-108036901D01*
X170743531Y-107891296D01*
X170619704Y-107767469D01*
X170474099Y-107670179D01*
X170312312Y-107603164D01*
X170140559Y-107569000D01*
X169965441Y-107569000D01*
X169793688Y-107603164D01*
X169631901Y-107670179D01*
X169486296Y-107767469D01*
X169362469Y-107891296D01*
X169265179Y-108036901D01*
X169198164Y-108198688D01*
X169164000Y-108370441D01*
X165813699Y-108370441D01*
X165827836Y-108336312D01*
X165862000Y-108164559D01*
X165862000Y-107989441D01*
X165827836Y-107817688D01*
X165760821Y-107655901D01*
X165663531Y-107510296D01*
X165539704Y-107386469D01*
X165394099Y-107289179D01*
X165232312Y-107222164D01*
X165060559Y-107188000D01*
X164885441Y-107188000D01*
X164713688Y-107222164D01*
X164551901Y-107289179D01*
X164478208Y-107338419D01*
X164292501Y-107152713D01*
X164265595Y-107017447D01*
X164198580Y-106855660D01*
X164101290Y-106710055D01*
X163977463Y-106586228D01*
X163831858Y-106488938D01*
X163670071Y-106421923D01*
X163498318Y-106387759D01*
X163323200Y-106387759D01*
X163151447Y-106421923D01*
X162989660Y-106488938D01*
X162844055Y-106586228D01*
X162720228Y-106710055D01*
X162622938Y-106855660D01*
X162555923Y-107017447D01*
X162521759Y-107189200D01*
X159733132Y-107189200D01*
X159731836Y-107182688D01*
X159664821Y-107020901D01*
X159567531Y-106875296D01*
X159443704Y-106751469D01*
X159298099Y-106654179D01*
X159136312Y-106587164D01*
X158964559Y-106553000D01*
X158789441Y-106553000D01*
X158617688Y-106587164D01*
X158455901Y-106654179D01*
X158310296Y-106751469D01*
X158186469Y-106875296D01*
X158089179Y-107020901D01*
X158022164Y-107182688D01*
X157988000Y-107354441D01*
X146457676Y-107354441D01*
X146362704Y-107259469D01*
X146217099Y-107162179D01*
X146055312Y-107095164D01*
X145883559Y-107061000D01*
X145708441Y-107061000D01*
X145536688Y-107095164D01*
X145374901Y-107162179D01*
X145229296Y-107259469D01*
X145105469Y-107383296D01*
X145008179Y-107528901D01*
X144941164Y-107690688D01*
X144907000Y-107862441D01*
X117881400Y-107862441D01*
X117881400Y-106084441D01*
X153035000Y-106084441D01*
X153035000Y-106259559D01*
X153069164Y-106431312D01*
X153136179Y-106593099D01*
X153233469Y-106738704D01*
X153357296Y-106862531D01*
X153502901Y-106959821D01*
X153664688Y-107026836D01*
X153836441Y-107061000D01*
X154011559Y-107061000D01*
X154183312Y-107026836D01*
X154345099Y-106959821D01*
X154490704Y-106862531D01*
X154614531Y-106738704D01*
X154711821Y-106593099D01*
X154778836Y-106431312D01*
X154813000Y-106259559D01*
X154813000Y-106084441D01*
X154778836Y-105912688D01*
X154711821Y-105750901D01*
X154614531Y-105605296D01*
X154490704Y-105481469D01*
X154345099Y-105384179D01*
X154183312Y-105317164D01*
X154011559Y-105283000D01*
X153836441Y-105283000D01*
X153664688Y-105317164D01*
X153502901Y-105384179D01*
X153357296Y-105481469D01*
X153233469Y-105605296D01*
X153136179Y-105750901D01*
X153069164Y-105912688D01*
X153035000Y-106084441D01*
X117881400Y-106084441D01*
X117881400Y-103594733D01*
X117895000Y-103596072D01*
X118459250Y-103593000D01*
X118618000Y-103434250D01*
X118618000Y-102235000D01*
X118872000Y-102235000D01*
X118872000Y-103434250D01*
X119030750Y-103593000D01*
X119595000Y-103596072D01*
X119719482Y-103583812D01*
X119839180Y-103547502D01*
X119949494Y-103488537D01*
X120046185Y-103409185D01*
X120125537Y-103312494D01*
X120184502Y-103202180D01*
X120196253Y-103163441D01*
X167259000Y-103163441D01*
X167259000Y-103338559D01*
X167293164Y-103510312D01*
X167360179Y-103672099D01*
X167457469Y-103817704D01*
X167581296Y-103941531D01*
X167726901Y-104038821D01*
X167888688Y-104105836D01*
X168060441Y-104140000D01*
X168235559Y-104140000D01*
X168407312Y-104105836D01*
X168569099Y-104038821D01*
X168714704Y-103941531D01*
X168838531Y-103817704D01*
X168935821Y-103672099D01*
X169002836Y-103510312D01*
X169037000Y-103338559D01*
X169037000Y-103163441D01*
X169002836Y-102991688D01*
X168935821Y-102829901D01*
X168838531Y-102684296D01*
X168714704Y-102560469D01*
X168569099Y-102463179D01*
X168407312Y-102396164D01*
X168235559Y-102362000D01*
X168060441Y-102362000D01*
X167888688Y-102396164D01*
X167726901Y-102463179D01*
X167581296Y-102560469D01*
X167457469Y-102684296D01*
X167360179Y-102829901D01*
X167293164Y-102991688D01*
X167259000Y-103163441D01*
X120196253Y-103163441D01*
X120220812Y-103082482D01*
X120233072Y-102958000D01*
X120230000Y-102393750D01*
X120071250Y-102235000D01*
X118872000Y-102235000D01*
X118618000Y-102235000D01*
X118598000Y-102235000D01*
X118598000Y-101981000D01*
X118618000Y-101981000D01*
X118618000Y-101961000D01*
X118872000Y-101961000D01*
X118872000Y-101981000D01*
X120071250Y-101981000D01*
X120230000Y-101822250D01*
X120231686Y-101512441D01*
X160655000Y-101512441D01*
X160655000Y-101687559D01*
X160689164Y-101859312D01*
X160756179Y-102021099D01*
X160853469Y-102166704D01*
X160977296Y-102290531D01*
X161122901Y-102387821D01*
X161284688Y-102454836D01*
X161456441Y-102489000D01*
X161631559Y-102489000D01*
X161803312Y-102454836D01*
X161965099Y-102387821D01*
X162110704Y-102290531D01*
X162234531Y-102166704D01*
X162331821Y-102021099D01*
X162398836Y-101859312D01*
X162433000Y-101687559D01*
X162433000Y-101512441D01*
X162398836Y-101340688D01*
X162331821Y-101178901D01*
X162321491Y-101163441D01*
X170085000Y-101163441D01*
X170085000Y-101338559D01*
X170119164Y-101510312D01*
X170186179Y-101672099D01*
X170283469Y-101817704D01*
X170407296Y-101941531D01*
X170552901Y-102038821D01*
X170714688Y-102105836D01*
X170886441Y-102140000D01*
X171061559Y-102140000D01*
X171233312Y-102105836D01*
X171395099Y-102038821D01*
X171540704Y-101941531D01*
X171664531Y-101817704D01*
X171761821Y-101672099D01*
X171828836Y-101510312D01*
X171863000Y-101338559D01*
X171863000Y-101163441D01*
X171828836Y-100991688D01*
X171761821Y-100829901D01*
X171664531Y-100684296D01*
X171540704Y-100560469D01*
X171395099Y-100463179D01*
X171233312Y-100396164D01*
X171061559Y-100362000D01*
X170886441Y-100362000D01*
X170714688Y-100396164D01*
X170552901Y-100463179D01*
X170407296Y-100560469D01*
X170283469Y-100684296D01*
X170186179Y-100829901D01*
X170119164Y-100991688D01*
X170085000Y-101163441D01*
X162321491Y-101163441D01*
X162234531Y-101033296D01*
X162110704Y-100909469D01*
X161965099Y-100812179D01*
X161803312Y-100745164D01*
X161631559Y-100711000D01*
X161456441Y-100711000D01*
X161284688Y-100745164D01*
X161122901Y-100812179D01*
X160977296Y-100909469D01*
X160853469Y-101033296D01*
X160756179Y-101178901D01*
X160689164Y-101340688D01*
X160655000Y-101512441D01*
X120231686Y-101512441D01*
X120233072Y-101258000D01*
X120220812Y-101133518D01*
X120184502Y-101013820D01*
X120125537Y-100903506D01*
X120046185Y-100806815D01*
X119949494Y-100727463D01*
X119839180Y-100668498D01*
X119770313Y-100647607D01*
X119800134Y-100623134D01*
X119985706Y-100397014D01*
X120123599Y-100139034D01*
X120208513Y-99859111D01*
X120237185Y-99568000D01*
X120208513Y-99276889D01*
X120123599Y-98996966D01*
X119985706Y-98738986D01*
X119800134Y-98512866D01*
X119574014Y-98327294D01*
X119316034Y-98189401D01*
X119036111Y-98104487D01*
X118817950Y-98083000D01*
X118672050Y-98083000D01*
X118453889Y-98104487D01*
X118173966Y-98189401D01*
X117915986Y-98327294D01*
X117881400Y-98355678D01*
X117881400Y-95700322D01*
X117915986Y-95728706D01*
X118173966Y-95866599D01*
X118453889Y-95951513D01*
X118672050Y-95973000D01*
X118817950Y-95973000D01*
X119036111Y-95951513D01*
X119316034Y-95866599D01*
X119574014Y-95728706D01*
X119800134Y-95543134D01*
X119985706Y-95317014D01*
X120123599Y-95059034D01*
X120208513Y-94779111D01*
X120237185Y-94488000D01*
X120219810Y-94311589D01*
X122694000Y-94311589D01*
X122694000Y-94584411D01*
X122747225Y-94851989D01*
X122851629Y-95104043D01*
X123003201Y-95330886D01*
X123196114Y-95523799D01*
X123422957Y-95675371D01*
X123675011Y-95779775D01*
X123942589Y-95833000D01*
X124215411Y-95833000D01*
X124482989Y-95779775D01*
X124735043Y-95675371D01*
X124961886Y-95523799D01*
X125154799Y-95330886D01*
X125306371Y-95104043D01*
X125410775Y-94851989D01*
X125464000Y-94584411D01*
X125464000Y-94311589D01*
X125410775Y-94044011D01*
X125306371Y-93791957D01*
X125154799Y-93565114D01*
X124961886Y-93372201D01*
X124735043Y-93220629D01*
X124482989Y-93116225D01*
X124234973Y-93066891D01*
X146132519Y-93066891D01*
X146229843Y-93341252D01*
X146378822Y-93591355D01*
X146573731Y-93807588D01*
X146807080Y-93981641D01*
X147069901Y-94106825D01*
X147217110Y-94151476D01*
X147447000Y-94030155D01*
X147447000Y-92837000D01*
X146253186Y-92837000D01*
X146132519Y-93066891D01*
X124234973Y-93066891D01*
X124215411Y-93063000D01*
X123942589Y-93063000D01*
X123675011Y-93116225D01*
X123422957Y-93220629D01*
X123196114Y-93372201D01*
X123003201Y-93565114D01*
X122851629Y-93791957D01*
X122747225Y-94044011D01*
X122694000Y-94311589D01*
X120219810Y-94311589D01*
X120208513Y-94196889D01*
X120123599Y-93916966D01*
X119985706Y-93658986D01*
X119800134Y-93432866D01*
X119770313Y-93408393D01*
X119839180Y-93387502D01*
X119949494Y-93328537D01*
X120046185Y-93249185D01*
X120125537Y-93152494D01*
X120184502Y-93042180D01*
X120220812Y-92922482D01*
X120233072Y-92798000D01*
X120233072Y-92353109D01*
X146132519Y-92353109D01*
X146253186Y-92583000D01*
X147447000Y-92583000D01*
X147447000Y-91389845D01*
X147701000Y-91389845D01*
X147701000Y-92583000D01*
X147721000Y-92583000D01*
X147721000Y-92837000D01*
X147701000Y-92837000D01*
X147701000Y-94030155D01*
X147930890Y-94151476D01*
X148078099Y-94106825D01*
X148340920Y-93981641D01*
X148574269Y-93807588D01*
X148650034Y-93723534D01*
X148674498Y-93804180D01*
X148733463Y-93914494D01*
X148812815Y-94011185D01*
X148909506Y-94090537D01*
X149019820Y-94149502D01*
X149139518Y-94185812D01*
X149264000Y-94198072D01*
X150964000Y-94198072D01*
X151088482Y-94185812D01*
X151208180Y-94149502D01*
X151318494Y-94090537D01*
X151415185Y-94011185D01*
X151494537Y-93914494D01*
X151553502Y-93804180D01*
X151589812Y-93684482D01*
X151602072Y-93560000D01*
X151602072Y-93421200D01*
X154391413Y-93421200D01*
X158376258Y-97406047D01*
X158403164Y-97541312D01*
X158470179Y-97703099D01*
X158567469Y-97848704D01*
X158691296Y-97972531D01*
X158836901Y-98069821D01*
X158998688Y-98136836D01*
X159170441Y-98171000D01*
X159345559Y-98171000D01*
X159517312Y-98136836D01*
X159679099Y-98069821D01*
X159824704Y-97972531D01*
X159948531Y-97848704D01*
X160045821Y-97703099D01*
X160112836Y-97541312D01*
X160147000Y-97369559D01*
X160147000Y-97194441D01*
X160112836Y-97022688D01*
X160045821Y-96860901D01*
X159948531Y-96715296D01*
X159824704Y-96591469D01*
X159679099Y-96494179D01*
X159517312Y-96427164D01*
X159382047Y-96400258D01*
X156272229Y-93290441D01*
X170594000Y-93290441D01*
X170594000Y-93465559D01*
X170628164Y-93637312D01*
X170695179Y-93799099D01*
X170792469Y-93944704D01*
X170916296Y-94068531D01*
X171061901Y-94165821D01*
X171223688Y-94232836D01*
X171395441Y-94267000D01*
X171570559Y-94267000D01*
X171742312Y-94232836D01*
X171904099Y-94165821D01*
X172049704Y-94068531D01*
X172173531Y-93944704D01*
X172270821Y-93799099D01*
X172337836Y-93637312D01*
X172372000Y-93465559D01*
X172372000Y-93290441D01*
X172337836Y-93118688D01*
X172270821Y-92956901D01*
X172173531Y-92811296D01*
X172049704Y-92687469D01*
X171904099Y-92590179D01*
X171742312Y-92523164D01*
X171570559Y-92489000D01*
X171395441Y-92489000D01*
X171223688Y-92523164D01*
X171061901Y-92590179D01*
X170916296Y-92687469D01*
X170792469Y-92811296D01*
X170695179Y-92956901D01*
X170628164Y-93118688D01*
X170594000Y-93290441D01*
X156272229Y-93290441D01*
X155213602Y-92231815D01*
X155191327Y-92204673D01*
X155083033Y-92115798D01*
X154959481Y-92049758D01*
X154825420Y-92009091D01*
X154720936Y-91998800D01*
X154720926Y-91998800D01*
X154686000Y-91995360D01*
X154651074Y-91998800D01*
X151602072Y-91998800D01*
X151602072Y-91860000D01*
X151589812Y-91735518D01*
X151553502Y-91615820D01*
X151532186Y-91575941D01*
X161955500Y-91575941D01*
X161955500Y-91751059D01*
X161989664Y-91922812D01*
X162056679Y-92084599D01*
X162153969Y-92230204D01*
X162277796Y-92354031D01*
X162423401Y-92451321D01*
X162585188Y-92518336D01*
X162756941Y-92552500D01*
X162932059Y-92552500D01*
X163103812Y-92518336D01*
X163265599Y-92451321D01*
X163411204Y-92354031D01*
X163535031Y-92230204D01*
X163553876Y-92202000D01*
X178593815Y-92202000D01*
X178622487Y-92493111D01*
X178707401Y-92773034D01*
X178845294Y-93031014D01*
X179030866Y-93257134D01*
X179256986Y-93442706D01*
X179311791Y-93472000D01*
X179256986Y-93501294D01*
X179030866Y-93686866D01*
X178845294Y-93912986D01*
X178707401Y-94170966D01*
X178622487Y-94450889D01*
X178593815Y-94742000D01*
X178622487Y-95033111D01*
X178707401Y-95313034D01*
X178845294Y-95571014D01*
X179030866Y-95797134D01*
X179256986Y-95982706D01*
X179311791Y-96012000D01*
X179256986Y-96041294D01*
X179030866Y-96226866D01*
X178845294Y-96452986D01*
X178707401Y-96710966D01*
X178622487Y-96990889D01*
X178593815Y-97282000D01*
X178622487Y-97573111D01*
X178707401Y-97853034D01*
X178845294Y-98111014D01*
X179030866Y-98337134D01*
X179060687Y-98361607D01*
X178991820Y-98382498D01*
X178881506Y-98441463D01*
X178784815Y-98520815D01*
X178705463Y-98617506D01*
X178646498Y-98727820D01*
X178610188Y-98847518D01*
X178597928Y-98972000D01*
X178597928Y-100672000D01*
X178610188Y-100796482D01*
X178646498Y-100916180D01*
X178705463Y-101026494D01*
X178784815Y-101123185D01*
X178881506Y-101202537D01*
X178991820Y-101261502D01*
X179111518Y-101297812D01*
X179236000Y-101310072D01*
X180936000Y-101310072D01*
X181060482Y-101297812D01*
X181180180Y-101261502D01*
X181290494Y-101202537D01*
X181387185Y-101123185D01*
X181466537Y-101026494D01*
X181525502Y-100916180D01*
X181561812Y-100796482D01*
X181574072Y-100672000D01*
X181574072Y-98972000D01*
X181561812Y-98847518D01*
X181525502Y-98727820D01*
X181466537Y-98617506D01*
X181387185Y-98520815D01*
X181290494Y-98441463D01*
X181180180Y-98382498D01*
X181111313Y-98361607D01*
X181141134Y-98337134D01*
X181326706Y-98111014D01*
X181464599Y-97853034D01*
X181549513Y-97573111D01*
X181578185Y-97282000D01*
X181549513Y-96990889D01*
X181464599Y-96710966D01*
X181326706Y-96452986D01*
X181141134Y-96226866D01*
X180915014Y-96041294D01*
X180860209Y-96012000D01*
X180915014Y-95982706D01*
X181141134Y-95797134D01*
X181326706Y-95571014D01*
X181464599Y-95313034D01*
X181549513Y-95033111D01*
X181578185Y-94742000D01*
X181549513Y-94450889D01*
X181464599Y-94170966D01*
X181326706Y-93912986D01*
X181141134Y-93686866D01*
X180915014Y-93501294D01*
X180860209Y-93472000D01*
X180915014Y-93442706D01*
X181141134Y-93257134D01*
X181326706Y-93031014D01*
X181464599Y-92773034D01*
X181549513Y-92493111D01*
X181578185Y-92202000D01*
X181549513Y-91910889D01*
X181464599Y-91630966D01*
X181326706Y-91372986D01*
X181141134Y-91146866D01*
X180915014Y-90961294D01*
X180657034Y-90823401D01*
X180377111Y-90738487D01*
X180158950Y-90717000D01*
X180013050Y-90717000D01*
X179794889Y-90738487D01*
X179514966Y-90823401D01*
X179256986Y-90961294D01*
X179030866Y-91146866D01*
X178845294Y-91372986D01*
X178707401Y-91630966D01*
X178622487Y-91910889D01*
X178593815Y-92202000D01*
X163553876Y-92202000D01*
X163632321Y-92084599D01*
X163699336Y-91922812D01*
X163733500Y-91751059D01*
X163733500Y-91575941D01*
X163699336Y-91404188D01*
X163632321Y-91242401D01*
X163535031Y-91096796D01*
X163411204Y-90972969D01*
X163265599Y-90875679D01*
X163103812Y-90808664D01*
X162932059Y-90774500D01*
X162756941Y-90774500D01*
X162585188Y-90808664D01*
X162423401Y-90875679D01*
X162277796Y-90972969D01*
X162153969Y-91096796D01*
X162056679Y-91242401D01*
X161989664Y-91404188D01*
X161955500Y-91575941D01*
X151532186Y-91575941D01*
X151494537Y-91505506D01*
X151415185Y-91408815D01*
X151318494Y-91329463D01*
X151208180Y-91270498D01*
X151088482Y-91234188D01*
X150964000Y-91221928D01*
X149264000Y-91221928D01*
X149139518Y-91234188D01*
X149019820Y-91270498D01*
X148909506Y-91329463D01*
X148812815Y-91408815D01*
X148733463Y-91505506D01*
X148674498Y-91615820D01*
X148650034Y-91696466D01*
X148574269Y-91612412D01*
X148340920Y-91438359D01*
X148078099Y-91313175D01*
X147930890Y-91268524D01*
X147701000Y-91389845D01*
X147447000Y-91389845D01*
X147217110Y-91268524D01*
X147069901Y-91313175D01*
X146807080Y-91438359D01*
X146573731Y-91612412D01*
X146378822Y-91828645D01*
X146229843Y-92078748D01*
X146132519Y-92353109D01*
X120233072Y-92353109D01*
X120233072Y-91098000D01*
X120220812Y-90973518D01*
X120184502Y-90853820D01*
X120125537Y-90743506D01*
X120046185Y-90646815D01*
X119949494Y-90567463D01*
X119839180Y-90508498D01*
X119719482Y-90472188D01*
X119595000Y-90459928D01*
X117895000Y-90459928D01*
X117881400Y-90461267D01*
X117881400Y-89311589D01*
X122694000Y-89311589D01*
X122694000Y-89584411D01*
X122747225Y-89851989D01*
X122851629Y-90104043D01*
X123003201Y-90330886D01*
X123196114Y-90523799D01*
X123422957Y-90675371D01*
X123675011Y-90779775D01*
X123942589Y-90833000D01*
X124215411Y-90833000D01*
X124482989Y-90779775D01*
X124735043Y-90675371D01*
X124961886Y-90523799D01*
X125154799Y-90330886D01*
X125306371Y-90104043D01*
X125410775Y-89851989D01*
X125464000Y-89584411D01*
X125464000Y-89574441D01*
X162941000Y-89574441D01*
X162941000Y-89749559D01*
X162975164Y-89921312D01*
X163042179Y-90083099D01*
X163139469Y-90228704D01*
X163263296Y-90352531D01*
X163408901Y-90449821D01*
X163570688Y-90516836D01*
X163742441Y-90551000D01*
X163917559Y-90551000D01*
X164089312Y-90516836D01*
X164251099Y-90449821D01*
X164396704Y-90352531D01*
X164520531Y-90228704D01*
X164617821Y-90083099D01*
X164684836Y-89921312D01*
X164719000Y-89749559D01*
X164719000Y-89574441D01*
X164684836Y-89402688D01*
X164617821Y-89240901D01*
X164520531Y-89095296D01*
X164396704Y-88971469D01*
X164251099Y-88874179D01*
X164089312Y-88807164D01*
X163917559Y-88773000D01*
X163742441Y-88773000D01*
X163570688Y-88807164D01*
X163408901Y-88874179D01*
X163263296Y-88971469D01*
X163139469Y-89095296D01*
X163042179Y-89240901D01*
X162975164Y-89402688D01*
X162941000Y-89574441D01*
X125464000Y-89574441D01*
X125464000Y-89311589D01*
X125410775Y-89044011D01*
X125306371Y-88791957D01*
X125154799Y-88565114D01*
X124961886Y-88372201D01*
X124860477Y-88304441D01*
X147828000Y-88304441D01*
X147828000Y-88479559D01*
X147862164Y-88651312D01*
X147929179Y-88813099D01*
X148026469Y-88958704D01*
X148150296Y-89082531D01*
X148295901Y-89179821D01*
X148457688Y-89246836D01*
X148629441Y-89281000D01*
X148804559Y-89281000D01*
X148976312Y-89246836D01*
X149138099Y-89179821D01*
X149283704Y-89082531D01*
X149407531Y-88958704D01*
X149504821Y-88813099D01*
X149531417Y-88748891D01*
X168992519Y-88748891D01*
X169089843Y-89023252D01*
X169238822Y-89273355D01*
X169433731Y-89489588D01*
X169667080Y-89663641D01*
X169929901Y-89788825D01*
X170077110Y-89833476D01*
X170307000Y-89712155D01*
X170307000Y-88519000D01*
X169113186Y-88519000D01*
X168992519Y-88748891D01*
X149531417Y-88748891D01*
X149571836Y-88651312D01*
X149606000Y-88479559D01*
X149606000Y-88304441D01*
X149571836Y-88132688D01*
X149531418Y-88035109D01*
X168992519Y-88035109D01*
X169113186Y-88265000D01*
X170307000Y-88265000D01*
X170307000Y-87071845D01*
X170561000Y-87071845D01*
X170561000Y-88265000D01*
X170581000Y-88265000D01*
X170581000Y-88519000D01*
X170561000Y-88519000D01*
X170561000Y-89712155D01*
X170790890Y-89833476D01*
X170938099Y-89788825D01*
X171200920Y-89663641D01*
X171434269Y-89489588D01*
X171629178Y-89273355D01*
X171698799Y-89156477D01*
X171733294Y-89221014D01*
X171918866Y-89447134D01*
X172144986Y-89632706D01*
X172402966Y-89770599D01*
X172682889Y-89855513D01*
X172901050Y-89877000D01*
X173046950Y-89877000D01*
X173265111Y-89855513D01*
X173545034Y-89770599D01*
X173803014Y-89632706D01*
X174029134Y-89447134D01*
X174214706Y-89221014D01*
X174244000Y-89166209D01*
X174273294Y-89221014D01*
X174458866Y-89447134D01*
X174684986Y-89632706D01*
X174942966Y-89770599D01*
X175222889Y-89855513D01*
X175441050Y-89877000D01*
X175586950Y-89877000D01*
X175805111Y-89855513D01*
X176085034Y-89770599D01*
X176343014Y-89632706D01*
X176569134Y-89447134D01*
X176593607Y-89417313D01*
X176614498Y-89486180D01*
X176673463Y-89596494D01*
X176752815Y-89693185D01*
X176849506Y-89772537D01*
X176959820Y-89831502D01*
X177079518Y-89867812D01*
X177204000Y-89880072D01*
X178904000Y-89880072D01*
X179028482Y-89867812D01*
X179148180Y-89831502D01*
X179258494Y-89772537D01*
X179355185Y-89693185D01*
X179434537Y-89596494D01*
X179493502Y-89486180D01*
X179529812Y-89366482D01*
X179542072Y-89242000D01*
X179542072Y-87542000D01*
X179529812Y-87417518D01*
X179493502Y-87297820D01*
X179434537Y-87187506D01*
X179355185Y-87090815D01*
X179258494Y-87011463D01*
X179148180Y-86952498D01*
X179028482Y-86916188D01*
X178904000Y-86903928D01*
X177204000Y-86903928D01*
X177079518Y-86916188D01*
X176959820Y-86952498D01*
X176849506Y-87011463D01*
X176752815Y-87090815D01*
X176673463Y-87187506D01*
X176614498Y-87297820D01*
X176593607Y-87366687D01*
X176569134Y-87336866D01*
X176343014Y-87151294D01*
X176085034Y-87013401D01*
X175805111Y-86928487D01*
X175586950Y-86907000D01*
X175441050Y-86907000D01*
X175222889Y-86928487D01*
X174942966Y-87013401D01*
X174684986Y-87151294D01*
X174458866Y-87336866D01*
X174273294Y-87562986D01*
X174244000Y-87617791D01*
X174214706Y-87562986D01*
X174029134Y-87336866D01*
X173803014Y-87151294D01*
X173545034Y-87013401D01*
X173265111Y-86928487D01*
X173046950Y-86907000D01*
X172901050Y-86907000D01*
X172682889Y-86928487D01*
X172402966Y-87013401D01*
X172144986Y-87151294D01*
X171918866Y-87336866D01*
X171733294Y-87562986D01*
X171698799Y-87627523D01*
X171629178Y-87510645D01*
X171434269Y-87294412D01*
X171200920Y-87120359D01*
X170938099Y-86995175D01*
X170790890Y-86950524D01*
X170561000Y-87071845D01*
X170307000Y-87071845D01*
X170077110Y-86950524D01*
X169929901Y-86995175D01*
X169667080Y-87120359D01*
X169433731Y-87294412D01*
X169238822Y-87510645D01*
X169089843Y-87760748D01*
X168992519Y-88035109D01*
X149531418Y-88035109D01*
X149504821Y-87970901D01*
X149407531Y-87825296D01*
X149283704Y-87701469D01*
X149138099Y-87604179D01*
X148976312Y-87537164D01*
X148804559Y-87503000D01*
X148629441Y-87503000D01*
X148457688Y-87537164D01*
X148295901Y-87604179D01*
X148150296Y-87701469D01*
X148026469Y-87825296D01*
X147929179Y-87970901D01*
X147862164Y-88132688D01*
X147828000Y-88304441D01*
X124860477Y-88304441D01*
X124735043Y-88220629D01*
X124482989Y-88116225D01*
X124215411Y-88063000D01*
X123942589Y-88063000D01*
X123675011Y-88116225D01*
X123422957Y-88220629D01*
X123196114Y-88372201D01*
X123003201Y-88565114D01*
X122851629Y-88791957D01*
X122747225Y-89044011D01*
X122694000Y-89311589D01*
X117881400Y-89311589D01*
X117881400Y-88094019D01*
X118101048Y-88224857D01*
X118375409Y-88322181D01*
X118605300Y-88201514D01*
X118605300Y-87007700D01*
X118859300Y-87007700D01*
X118859300Y-88201514D01*
X119089191Y-88322181D01*
X119363552Y-88224857D01*
X119613655Y-88075878D01*
X119829888Y-87880969D01*
X120003941Y-87647620D01*
X120129125Y-87384799D01*
X120173776Y-87237590D01*
X120052455Y-87007700D01*
X118859300Y-87007700D01*
X118605300Y-87007700D01*
X118585300Y-87007700D01*
X118585300Y-86753700D01*
X118605300Y-86753700D01*
X118605300Y-86733700D01*
X118859300Y-86733700D01*
X118859300Y-86753700D01*
X120052455Y-86753700D01*
X120173776Y-86523810D01*
X120129125Y-86376601D01*
X120003941Y-86113780D01*
X119829888Y-85880431D01*
X119745834Y-85804666D01*
X119826480Y-85780202D01*
X119936794Y-85721237D01*
X120033485Y-85641885D01*
X120112837Y-85545194D01*
X120171802Y-85434880D01*
X120208112Y-85315182D01*
X120220372Y-85190700D01*
X120220372Y-84748441D01*
X156464000Y-84748441D01*
X156464000Y-84923559D01*
X156498164Y-85095312D01*
X156565179Y-85257099D01*
X156662469Y-85402704D01*
X156786296Y-85526531D01*
X156931901Y-85623821D01*
X157093688Y-85690836D01*
X157265441Y-85725000D01*
X157440559Y-85725000D01*
X157612312Y-85690836D01*
X157652474Y-85674200D01*
X166596229Y-85674200D01*
X166710901Y-85750821D01*
X166872688Y-85817836D01*
X167044441Y-85852000D01*
X167219559Y-85852000D01*
X167391312Y-85817836D01*
X167553099Y-85750821D01*
X167698704Y-85653531D01*
X167822531Y-85529704D01*
X167919821Y-85384099D01*
X167986836Y-85222312D01*
X168021000Y-85050559D01*
X168021000Y-84875441D01*
X167986836Y-84703688D01*
X167919821Y-84541901D01*
X167822531Y-84396296D01*
X167698704Y-84272469D01*
X167553099Y-84175179D01*
X167391312Y-84108164D01*
X167219559Y-84074000D01*
X167044441Y-84074000D01*
X166872688Y-84108164D01*
X166710901Y-84175179D01*
X166596229Y-84251800D01*
X158026035Y-84251800D01*
X157919704Y-84145469D01*
X157774099Y-84048179D01*
X157612312Y-83981164D01*
X157440559Y-83947000D01*
X157265441Y-83947000D01*
X157093688Y-83981164D01*
X156931901Y-84048179D01*
X156786296Y-84145469D01*
X156662469Y-84269296D01*
X156565179Y-84414901D01*
X156498164Y-84576688D01*
X156464000Y-84748441D01*
X120220372Y-84748441D01*
X120220372Y-83490700D01*
X120208112Y-83366218D01*
X120171802Y-83246520D01*
X120112837Y-83136206D01*
X120033485Y-83039515D01*
X120010829Y-83020922D01*
X120424234Y-82607518D01*
X120446260Y-82589441D01*
X166370000Y-82589441D01*
X166370000Y-82764559D01*
X166404164Y-82936312D01*
X166471179Y-83098099D01*
X166568469Y-83243704D01*
X166692296Y-83367531D01*
X166837901Y-83464821D01*
X166999688Y-83531836D01*
X167171441Y-83566000D01*
X167346559Y-83566000D01*
X167518312Y-83531836D01*
X167680099Y-83464821D01*
X167825704Y-83367531D01*
X167949531Y-83243704D01*
X168046821Y-83098099D01*
X168113836Y-82936312D01*
X168148000Y-82764559D01*
X168148000Y-82589441D01*
X168113836Y-82417688D01*
X168046821Y-82255901D01*
X167949531Y-82110296D01*
X167825704Y-81986469D01*
X167680099Y-81889179D01*
X167518312Y-81822164D01*
X167346559Y-81788000D01*
X167171441Y-81788000D01*
X166999688Y-81822164D01*
X166837901Y-81889179D01*
X166692296Y-81986469D01*
X166568469Y-82110296D01*
X166471179Y-82255901D01*
X166404164Y-82417688D01*
X166370000Y-82589441D01*
X120446260Y-82589441D01*
X120454270Y-82582868D01*
X120478920Y-82552832D01*
X120478923Y-82552829D01*
X120552667Y-82462971D01*
X120625783Y-82326182D01*
X120670807Y-82177756D01*
X120680228Y-82082099D01*
X120682201Y-82062072D01*
X120682201Y-82062064D01*
X120686009Y-82023399D01*
X120682201Y-81984734D01*
X120682201Y-80518000D01*
X137915856Y-80518000D01*
X137940377Y-80766963D01*
X138012997Y-81006359D01*
X138130925Y-81226988D01*
X138289630Y-81420370D01*
X138483012Y-81579075D01*
X138703641Y-81697003D01*
X138943037Y-81769623D01*
X139129620Y-81788000D01*
X140524380Y-81788000D01*
X140710963Y-81769623D01*
X140950359Y-81697003D01*
X141170988Y-81579075D01*
X141177853Y-81573441D01*
X159385000Y-81573441D01*
X159385000Y-81748559D01*
X159419164Y-81920312D01*
X159486179Y-82082099D01*
X159583469Y-82227704D01*
X159707296Y-82351531D01*
X159852901Y-82448821D01*
X160014688Y-82515836D01*
X160186441Y-82550000D01*
X160361559Y-82550000D01*
X160533312Y-82515836D01*
X160695099Y-82448821D01*
X160840704Y-82351531D01*
X160964531Y-82227704D01*
X161061821Y-82082099D01*
X161128836Y-81920312D01*
X161163000Y-81748559D01*
X161163000Y-81573441D01*
X161128836Y-81401688D01*
X161061821Y-81239901D01*
X160964531Y-81094296D01*
X160840704Y-80970469D01*
X160695099Y-80873179D01*
X160533312Y-80806164D01*
X160361559Y-80772000D01*
X160186441Y-80772000D01*
X160014688Y-80806164D01*
X159852901Y-80873179D01*
X159707296Y-80970469D01*
X159583469Y-81094296D01*
X159486179Y-81239901D01*
X159419164Y-81401688D01*
X159385000Y-81573441D01*
X141177853Y-81573441D01*
X141364370Y-81420370D01*
X141523075Y-81226988D01*
X141641003Y-81006359D01*
X141713623Y-80766963D01*
X141738144Y-80518000D01*
X141713623Y-80269037D01*
X141641003Y-80029641D01*
X141523075Y-79809012D01*
X141364370Y-79615630D01*
X141170988Y-79456925D01*
X141098990Y-79418441D01*
X150753000Y-79418441D01*
X150753000Y-79593559D01*
X150787164Y-79765312D01*
X150854179Y-79927099D01*
X150951469Y-80072704D01*
X151075296Y-80196531D01*
X151220901Y-80293821D01*
X151382688Y-80360836D01*
X151554441Y-80395000D01*
X151729559Y-80395000D01*
X151901312Y-80360836D01*
X152063099Y-80293821D01*
X152208704Y-80196531D01*
X152332531Y-80072704D01*
X152429821Y-79927099D01*
X152496836Y-79765312D01*
X152531000Y-79593559D01*
X152531000Y-79418441D01*
X152496836Y-79246688D01*
X152429821Y-79084901D01*
X152332531Y-78939296D01*
X152208704Y-78815469D01*
X152063099Y-78718179D01*
X151901312Y-78651164D01*
X151729559Y-78617000D01*
X151554441Y-78617000D01*
X151382688Y-78651164D01*
X151220901Y-78718179D01*
X151075296Y-78815469D01*
X150951469Y-78939296D01*
X150854179Y-79084901D01*
X150787164Y-79246688D01*
X150753000Y-79418441D01*
X141098990Y-79418441D01*
X140950359Y-79338997D01*
X140710963Y-79266377D01*
X140524380Y-79248000D01*
X139129620Y-79248000D01*
X138943037Y-79266377D01*
X138703641Y-79338997D01*
X138483012Y-79456925D01*
X138289630Y-79615630D01*
X138130925Y-79809012D01*
X138012997Y-80029641D01*
X137940377Y-80269037D01*
X137915856Y-80518000D01*
X120682201Y-80518000D01*
X120682201Y-76620441D01*
X151765000Y-76620441D01*
X151765000Y-76795559D01*
X151799164Y-76967312D01*
X151866179Y-77129099D01*
X151963469Y-77274704D01*
X152087296Y-77398531D01*
X152232901Y-77495821D01*
X152394688Y-77562836D01*
X152566441Y-77597000D01*
X152741559Y-77597000D01*
X152913312Y-77562836D01*
X153075099Y-77495821D01*
X153220704Y-77398531D01*
X153344531Y-77274704D01*
X153441821Y-77129099D01*
X153508836Y-76967312D01*
X153543000Y-76795559D01*
X153543000Y-76620441D01*
X162941000Y-76620441D01*
X162941000Y-76795559D01*
X162975164Y-76967312D01*
X163042179Y-77129099D01*
X163118801Y-77243772D01*
X163118800Y-77569229D01*
X163042179Y-77683901D01*
X162975164Y-77845688D01*
X162941000Y-78017441D01*
X162941000Y-78192559D01*
X162975164Y-78364312D01*
X163042179Y-78526099D01*
X163139469Y-78671704D01*
X163263296Y-78795531D01*
X163408901Y-78892821D01*
X163570688Y-78959836D01*
X163742441Y-78994000D01*
X163917559Y-78994000D01*
X164089312Y-78959836D01*
X164251099Y-78892821D01*
X164396704Y-78795531D01*
X164520531Y-78671704D01*
X164617821Y-78526099D01*
X164684836Y-78364312D01*
X164719000Y-78192559D01*
X164719000Y-78017441D01*
X164684836Y-77845688D01*
X164617821Y-77683901D01*
X164541200Y-77569229D01*
X164541200Y-77243771D01*
X164617821Y-77129099D01*
X164684836Y-76967312D01*
X164719000Y-76795559D01*
X164719000Y-76620441D01*
X187579000Y-76620441D01*
X187579000Y-76795559D01*
X187613164Y-76967312D01*
X187680179Y-77129099D01*
X187777469Y-77274704D01*
X187901296Y-77398531D01*
X188046901Y-77495821D01*
X188208688Y-77562836D01*
X188380441Y-77597000D01*
X188555559Y-77597000D01*
X188727312Y-77562836D01*
X188889099Y-77495821D01*
X189034704Y-77398531D01*
X189158531Y-77274704D01*
X189255821Y-77129099D01*
X189322836Y-76967312D01*
X189357000Y-76795559D01*
X189357000Y-76620441D01*
X189322836Y-76448688D01*
X189255821Y-76286901D01*
X189158531Y-76141296D01*
X189034704Y-76017469D01*
X188889099Y-75920179D01*
X188727312Y-75853164D01*
X188555559Y-75819000D01*
X188380441Y-75819000D01*
X188208688Y-75853164D01*
X188046901Y-75920179D01*
X187901296Y-76017469D01*
X187777469Y-76141296D01*
X187680179Y-76286901D01*
X187613164Y-76448688D01*
X187579000Y-76620441D01*
X164719000Y-76620441D01*
X164684836Y-76448688D01*
X164617821Y-76286901D01*
X164520531Y-76141296D01*
X164396704Y-76017469D01*
X164251099Y-75920179D01*
X164089312Y-75853164D01*
X163917559Y-75819000D01*
X163742441Y-75819000D01*
X163570688Y-75853164D01*
X163408901Y-75920179D01*
X163263296Y-76017469D01*
X163139469Y-76141296D01*
X163042179Y-76286901D01*
X162975164Y-76448688D01*
X162941000Y-76620441D01*
X153543000Y-76620441D01*
X153508836Y-76448688D01*
X153441821Y-76286901D01*
X153344531Y-76141296D01*
X153220704Y-76017469D01*
X153075099Y-75920179D01*
X152913312Y-75853164D01*
X152741559Y-75819000D01*
X152566441Y-75819000D01*
X152394688Y-75853164D01*
X152232901Y-75920179D01*
X152087296Y-76017469D01*
X151963469Y-76141296D01*
X151866179Y-76286901D01*
X151799164Y-76448688D01*
X151765000Y-76620441D01*
X120682201Y-76620441D01*
X120682201Y-74415052D01*
X128561000Y-74415052D01*
X128561000Y-74682948D01*
X128613264Y-74945697D01*
X128715784Y-75193201D01*
X128864619Y-75415949D01*
X129054051Y-75605381D01*
X129276799Y-75754216D01*
X129524303Y-75856736D01*
X129787052Y-75909000D01*
X130054948Y-75909000D01*
X130317697Y-75856736D01*
X130565201Y-75754216D01*
X130787949Y-75605381D01*
X130977381Y-75415949D01*
X131126216Y-75193201D01*
X131228736Y-74945697D01*
X131281000Y-74682948D01*
X131281000Y-74588441D01*
X173355000Y-74588441D01*
X173355000Y-74763559D01*
X173389164Y-74935312D01*
X173456179Y-75097099D01*
X173553469Y-75242704D01*
X173677296Y-75366531D01*
X173822901Y-75463821D01*
X173984688Y-75530836D01*
X174156441Y-75565000D01*
X174331559Y-75565000D01*
X174503312Y-75530836D01*
X174665099Y-75463821D01*
X174810704Y-75366531D01*
X174934531Y-75242704D01*
X175031821Y-75097099D01*
X175098836Y-74935312D01*
X175133000Y-74763559D01*
X175133000Y-74588441D01*
X175098836Y-74416688D01*
X175031821Y-74254901D01*
X174934531Y-74109296D01*
X174810704Y-73985469D01*
X174665099Y-73888179D01*
X174503312Y-73821164D01*
X174331559Y-73787000D01*
X174156441Y-73787000D01*
X173984688Y-73821164D01*
X173822901Y-73888179D01*
X173677296Y-73985469D01*
X173553469Y-74109296D01*
X173456179Y-74254901D01*
X173389164Y-74416688D01*
X173355000Y-74588441D01*
X131281000Y-74588441D01*
X131281000Y-74415052D01*
X131228736Y-74152303D01*
X131126216Y-73904799D01*
X130977381Y-73682051D01*
X130787949Y-73492619D01*
X130565201Y-73343784D01*
X130408487Y-73278871D01*
X130511100Y-73241609D01*
X130618035Y-73184450D01*
X130680528Y-72948133D01*
X129921000Y-72188605D01*
X129161472Y-72948133D01*
X129223965Y-73184450D01*
X129429560Y-73280508D01*
X129276799Y-73343784D01*
X129054051Y-73492619D01*
X128864619Y-73682051D01*
X128715784Y-73904799D01*
X128613264Y-74152303D01*
X128561000Y-74415052D01*
X120682201Y-74415052D01*
X120682201Y-72082482D01*
X128556396Y-72082482D01*
X128596952Y-72347291D01*
X128688391Y-72599100D01*
X128745550Y-72706035D01*
X128981867Y-72768528D01*
X129741395Y-72009000D01*
X130100605Y-72009000D01*
X130860133Y-72768528D01*
X131096450Y-72706035D01*
X131209850Y-72463322D01*
X131273719Y-72203151D01*
X131285604Y-71935518D01*
X131249691Y-71701024D01*
X143129000Y-71701024D01*
X143129000Y-71926176D01*
X143172925Y-72147001D01*
X143259087Y-72355013D01*
X143384174Y-72542220D01*
X143543380Y-72701426D01*
X143730587Y-72826513D01*
X143938599Y-72912675D01*
X144159424Y-72956600D01*
X144384576Y-72956600D01*
X144605401Y-72912675D01*
X144813413Y-72826513D01*
X145000620Y-72701426D01*
X145159826Y-72542220D01*
X145284913Y-72355013D01*
X145371075Y-72147001D01*
X145415000Y-71926176D01*
X145415000Y-71701024D01*
X145371075Y-71480199D01*
X145284913Y-71272187D01*
X145159826Y-71084980D01*
X145000620Y-70925774D01*
X144813413Y-70800687D01*
X144605401Y-70714525D01*
X144384576Y-70670600D01*
X144159424Y-70670600D01*
X143938599Y-70714525D01*
X143730587Y-70800687D01*
X143543380Y-70925774D01*
X143384174Y-71084980D01*
X143259087Y-71272187D01*
X143172925Y-71480199D01*
X143129000Y-71701024D01*
X131249691Y-71701024D01*
X131245048Y-71670709D01*
X131153609Y-71418900D01*
X131096450Y-71311965D01*
X130860133Y-71249472D01*
X130100605Y-72009000D01*
X129741395Y-72009000D01*
X128981867Y-71249472D01*
X128745550Y-71311965D01*
X128632150Y-71554678D01*
X128568281Y-71814849D01*
X128556396Y-72082482D01*
X120682201Y-72082482D01*
X120682201Y-66795052D01*
X128561000Y-66795052D01*
X128561000Y-67062948D01*
X128613264Y-67325697D01*
X128715784Y-67573201D01*
X128864619Y-67795949D01*
X129054051Y-67985381D01*
X129276799Y-68134216D01*
X129433201Y-68199000D01*
X129276799Y-68263784D01*
X129054051Y-68412619D01*
X128864619Y-68602051D01*
X128715784Y-68824799D01*
X128613264Y-69072303D01*
X128561000Y-69335052D01*
X128561000Y-69602948D01*
X128613264Y-69865697D01*
X128715784Y-70113201D01*
X128864619Y-70335949D01*
X129054051Y-70525381D01*
X129276799Y-70674216D01*
X129433513Y-70739129D01*
X129330900Y-70776391D01*
X129223965Y-70833550D01*
X129161472Y-71069867D01*
X129921000Y-71829395D01*
X130680528Y-71069867D01*
X130618035Y-70833550D01*
X130412440Y-70737492D01*
X130565201Y-70674216D01*
X130787949Y-70525381D01*
X130977381Y-70335949D01*
X131126216Y-70113201D01*
X131228736Y-69865697D01*
X131281000Y-69602948D01*
X131281000Y-69335052D01*
X131228736Y-69072303D01*
X131126216Y-68824799D01*
X130977381Y-68602051D01*
X130787949Y-68412619D01*
X130565201Y-68263784D01*
X130408799Y-68199000D01*
X130565201Y-68134216D01*
X130787949Y-67985381D01*
X130977381Y-67795949D01*
X131126216Y-67573201D01*
X131228736Y-67325697D01*
X131281000Y-67062948D01*
X131281000Y-66795052D01*
X131228736Y-66532303D01*
X131126216Y-66284799D01*
X130977381Y-66062051D01*
X130787949Y-65872619D01*
X130565201Y-65723784D01*
X130317697Y-65621264D01*
X130054948Y-65569000D01*
X129787052Y-65569000D01*
X129524303Y-65621264D01*
X129276799Y-65723784D01*
X129054051Y-65872619D01*
X128864619Y-66062051D01*
X128715784Y-66284799D01*
X128613264Y-66532303D01*
X128561000Y-66795052D01*
X120682201Y-66795052D01*
X120682201Y-65203463D01*
X120686009Y-65164800D01*
X120682201Y-65126137D01*
X120682201Y-65126128D01*
X120670807Y-65010444D01*
X120625783Y-64862018D01*
X120552667Y-64725229D01*
X120454270Y-64605332D01*
X120424235Y-64580683D01*
X120189816Y-64346264D01*
X120203513Y-64301111D01*
X120232185Y-64010000D01*
X120220901Y-63895424D01*
X143383000Y-63895424D01*
X143383000Y-64120576D01*
X143426925Y-64341401D01*
X143513087Y-64549413D01*
X143638174Y-64736620D01*
X143797380Y-64895826D01*
X143984587Y-65020913D01*
X144192599Y-65107075D01*
X144413424Y-65151000D01*
X144638576Y-65151000D01*
X144859401Y-65107075D01*
X145067413Y-65020913D01*
X145254620Y-64895826D01*
X145413826Y-64736620D01*
X145538913Y-64549413D01*
X145625075Y-64341401D01*
X145669000Y-64120576D01*
X145669000Y-63895424D01*
X145625075Y-63674599D01*
X145538913Y-63466587D01*
X145413826Y-63279380D01*
X145254620Y-63120174D01*
X145067413Y-62995087D01*
X144859401Y-62908925D01*
X144638576Y-62865000D01*
X144413424Y-62865000D01*
X144192599Y-62908925D01*
X143984587Y-62995087D01*
X143797380Y-63120174D01*
X143638174Y-63279380D01*
X143513087Y-63466587D01*
X143426925Y-63674599D01*
X143383000Y-63895424D01*
X120220901Y-63895424D01*
X120203513Y-63718889D01*
X120118599Y-63438966D01*
X119980706Y-63180986D01*
X119795134Y-62954866D01*
X119569014Y-62769294D01*
X119514209Y-62740000D01*
X119569014Y-62710706D01*
X119795134Y-62525134D01*
X119980706Y-62299014D01*
X120118599Y-62041034D01*
X120203513Y-61761111D01*
X120232185Y-61470000D01*
X120203513Y-61178889D01*
X120118599Y-60898966D01*
X119980706Y-60640986D01*
X119795134Y-60414866D01*
X119569014Y-60229294D01*
X119514209Y-60200000D01*
X119569014Y-60170706D01*
X119795134Y-59985134D01*
X119980706Y-59759014D01*
X120118599Y-59501034D01*
X120203513Y-59221111D01*
X120208049Y-59175052D01*
X128561000Y-59175052D01*
X128561000Y-59442948D01*
X128613264Y-59705697D01*
X128715784Y-59953201D01*
X128864619Y-60175949D01*
X129054051Y-60365381D01*
X129276799Y-60514216D01*
X129433201Y-60579000D01*
X129276799Y-60643784D01*
X129054051Y-60792619D01*
X128864619Y-60982051D01*
X128715784Y-61204799D01*
X128613264Y-61452303D01*
X128561000Y-61715052D01*
X128561000Y-61982948D01*
X128613264Y-62245697D01*
X128715784Y-62493201D01*
X128864619Y-62715949D01*
X129054051Y-62905381D01*
X129276799Y-63054216D01*
X129524303Y-63156736D01*
X129787052Y-63209000D01*
X130054948Y-63209000D01*
X130317697Y-63156736D01*
X130565201Y-63054216D01*
X130787949Y-62905381D01*
X130977381Y-62715949D01*
X131126216Y-62493201D01*
X131228736Y-62245697D01*
X131281000Y-61982948D01*
X131281000Y-61929872D01*
X151465000Y-61929872D01*
X151465000Y-62370128D01*
X151550890Y-62801925D01*
X151719369Y-63208669D01*
X151963962Y-63574729D01*
X152275271Y-63886038D01*
X152641331Y-64130631D01*
X153048075Y-64299110D01*
X153479872Y-64385000D01*
X153920128Y-64385000D01*
X154351925Y-64299110D01*
X154758669Y-64130631D01*
X155124729Y-63886038D01*
X155436038Y-63574729D01*
X155680631Y-63208669D01*
X155849110Y-62801925D01*
X155935000Y-62370128D01*
X155935000Y-62004947D01*
X163323000Y-62004947D01*
X163323000Y-62455053D01*
X163410811Y-62896510D01*
X163583059Y-63312353D01*
X163833125Y-63686603D01*
X164151397Y-64004875D01*
X164525647Y-64254941D01*
X164941490Y-64427189D01*
X165382947Y-64515000D01*
X165833053Y-64515000D01*
X166274510Y-64427189D01*
X166690353Y-64254941D01*
X167064603Y-64004875D01*
X167382875Y-63686603D01*
X167632941Y-63312353D01*
X167805189Y-62896510D01*
X167893000Y-62455053D01*
X167893000Y-62004947D01*
X167805189Y-61563490D01*
X167632941Y-61147647D01*
X167412464Y-60817680D01*
X169243000Y-60817680D01*
X169243000Y-61102320D01*
X169298530Y-61381491D01*
X169407457Y-61644464D01*
X169565595Y-61881134D01*
X169766866Y-62082405D01*
X169987757Y-62230000D01*
X169766866Y-62377595D01*
X169565595Y-62578866D01*
X169407457Y-62815536D01*
X169298530Y-63078509D01*
X169243000Y-63357680D01*
X169243000Y-63642320D01*
X169298530Y-63921491D01*
X169407457Y-64184464D01*
X169565595Y-64421134D01*
X169766866Y-64622405D01*
X170003536Y-64780543D01*
X170266509Y-64889470D01*
X170545680Y-64945000D01*
X170830320Y-64945000D01*
X171109491Y-64889470D01*
X171372464Y-64780543D01*
X171609134Y-64622405D01*
X171693841Y-64537698D01*
X171678000Y-64617338D01*
X171678000Y-64922662D01*
X171737565Y-65222118D01*
X171854408Y-65504200D01*
X172024036Y-65758068D01*
X172239932Y-65973964D01*
X172493800Y-66143592D01*
X172775882Y-66260435D01*
X173075338Y-66320000D01*
X173380662Y-66320000D01*
X173680118Y-66260435D01*
X173962200Y-66143592D01*
X174216068Y-65973964D01*
X174431964Y-65758068D01*
X174601592Y-65504200D01*
X174718435Y-65222118D01*
X174778000Y-64922662D01*
X174778000Y-64617338D01*
X174718435Y-64317882D01*
X174601592Y-64035800D01*
X174431964Y-63781932D01*
X174216068Y-63566036D01*
X173962200Y-63396408D01*
X173680118Y-63279565D01*
X173380662Y-63220000D01*
X173075338Y-63220000D01*
X172775882Y-63279565D01*
X172493800Y-63396408D01*
X172239932Y-63566036D01*
X172125390Y-63680578D01*
X172133000Y-63642320D01*
X172133000Y-63357680D01*
X172077470Y-63078509D01*
X171968543Y-62815536D01*
X171810405Y-62578866D01*
X171609134Y-62377595D01*
X171388243Y-62230000D01*
X171609134Y-62082405D01*
X171810405Y-61881134D01*
X171968543Y-61644464D01*
X172077470Y-61381491D01*
X172133000Y-61102320D01*
X172133000Y-60817680D01*
X172125390Y-60779422D01*
X172239932Y-60893964D01*
X172493800Y-61063592D01*
X172775882Y-61180435D01*
X173075338Y-61240000D01*
X173380662Y-61240000D01*
X173680118Y-61180435D01*
X173962200Y-61063592D01*
X174216068Y-60893964D01*
X174431964Y-60678068D01*
X174601592Y-60424200D01*
X174718435Y-60142118D01*
X174778000Y-59842662D01*
X174778000Y-59537338D01*
X174718435Y-59237882D01*
X174601592Y-58955800D01*
X174431964Y-58701932D01*
X174216068Y-58486036D01*
X173962200Y-58316408D01*
X173680118Y-58199565D01*
X173380662Y-58140000D01*
X173075338Y-58140000D01*
X172775882Y-58199565D01*
X172493800Y-58316408D01*
X172239932Y-58486036D01*
X172024036Y-58701932D01*
X171854408Y-58955800D01*
X171737565Y-59237882D01*
X171678000Y-59537338D01*
X171678000Y-59842662D01*
X171693841Y-59922302D01*
X171609134Y-59837595D01*
X171372464Y-59679457D01*
X171109491Y-59570530D01*
X170830320Y-59515000D01*
X170545680Y-59515000D01*
X170266509Y-59570530D01*
X170003536Y-59679457D01*
X169766866Y-59837595D01*
X169565595Y-60038866D01*
X169407457Y-60275536D01*
X169298530Y-60538509D01*
X169243000Y-60817680D01*
X167412464Y-60817680D01*
X167382875Y-60773397D01*
X167064603Y-60455125D01*
X166690353Y-60205059D01*
X166274510Y-60032811D01*
X165833053Y-59945000D01*
X165382947Y-59945000D01*
X164941490Y-60032811D01*
X164525647Y-60205059D01*
X164151397Y-60455125D01*
X163833125Y-60773397D01*
X163583059Y-61147647D01*
X163410811Y-61563490D01*
X163323000Y-62004947D01*
X155935000Y-62004947D01*
X155935000Y-61929872D01*
X155849110Y-61498075D01*
X155680631Y-61091331D01*
X155436038Y-60725271D01*
X155124729Y-60413962D01*
X154758669Y-60169369D01*
X154351925Y-60000890D01*
X153920128Y-59915000D01*
X153479872Y-59915000D01*
X153048075Y-60000890D01*
X152641331Y-60169369D01*
X152275271Y-60413962D01*
X151963962Y-60725271D01*
X151719369Y-61091331D01*
X151550890Y-61498075D01*
X151465000Y-61929872D01*
X131281000Y-61929872D01*
X131281000Y-61715052D01*
X131228736Y-61452303D01*
X131126216Y-61204799D01*
X130977381Y-60982051D01*
X130787949Y-60792619D01*
X130565201Y-60643784D01*
X130408799Y-60579000D01*
X130565201Y-60514216D01*
X130787949Y-60365381D01*
X130977381Y-60175949D01*
X131126216Y-59953201D01*
X131228736Y-59705697D01*
X131281000Y-59442948D01*
X131281000Y-59175052D01*
X131228736Y-58912303D01*
X131126216Y-58664799D01*
X130977381Y-58442051D01*
X130787949Y-58252619D01*
X130565201Y-58103784D01*
X130408487Y-58038871D01*
X130511100Y-58001609D01*
X130618035Y-57944450D01*
X130680528Y-57708133D01*
X129921000Y-56948605D01*
X129161472Y-57708133D01*
X129223965Y-57944450D01*
X129429560Y-58040508D01*
X129276799Y-58103784D01*
X129054051Y-58252619D01*
X128864619Y-58442051D01*
X128715784Y-58664799D01*
X128613264Y-58912303D01*
X128561000Y-59175052D01*
X120208049Y-59175052D01*
X120232185Y-58930000D01*
X120203513Y-58638889D01*
X120118599Y-58358966D01*
X119980706Y-58100986D01*
X119795134Y-57874866D01*
X119765313Y-57850393D01*
X119834180Y-57829502D01*
X119944494Y-57770537D01*
X120041185Y-57691185D01*
X120120537Y-57594494D01*
X120179502Y-57484180D01*
X120215812Y-57364482D01*
X120228072Y-57240000D01*
X120225908Y-56842482D01*
X128556396Y-56842482D01*
X128596952Y-57107291D01*
X128688391Y-57359100D01*
X128745550Y-57466035D01*
X128981867Y-57528528D01*
X129741395Y-56769000D01*
X130100605Y-56769000D01*
X130860133Y-57528528D01*
X131096450Y-57466035D01*
X131209850Y-57223322D01*
X131273719Y-56963151D01*
X131285604Y-56695518D01*
X131245048Y-56430709D01*
X131153609Y-56178900D01*
X131096450Y-56071965D01*
X130860133Y-56009472D01*
X130100605Y-56769000D01*
X129741395Y-56769000D01*
X128981867Y-56009472D01*
X128745550Y-56071965D01*
X128632150Y-56314678D01*
X128568281Y-56574849D01*
X128556396Y-56842482D01*
X120225908Y-56842482D01*
X120225000Y-56675750D01*
X120066250Y-56517000D01*
X118867000Y-56517000D01*
X118867000Y-56537000D01*
X118613000Y-56537000D01*
X118613000Y-56517000D01*
X117413750Y-56517000D01*
X117255000Y-56675750D01*
X117251928Y-57240000D01*
X117264188Y-57364482D01*
X117300498Y-57484180D01*
X117359463Y-57594494D01*
X117438815Y-57691185D01*
X117535506Y-57770537D01*
X117645820Y-57829502D01*
X117714687Y-57850393D01*
X117684866Y-57874866D01*
X117499294Y-58100986D01*
X117361401Y-58358966D01*
X117276487Y-58638889D01*
X117247815Y-58930000D01*
X117276487Y-59221111D01*
X117361401Y-59501034D01*
X117499294Y-59759014D01*
X117684866Y-59985134D01*
X117910986Y-60170706D01*
X117965791Y-60200000D01*
X117910986Y-60229294D01*
X117684866Y-60414866D01*
X117499294Y-60640986D01*
X117361401Y-60898966D01*
X117276487Y-61178889D01*
X117247815Y-61470000D01*
X117276487Y-61761111D01*
X117361401Y-62041034D01*
X117499294Y-62299014D01*
X117684866Y-62525134D01*
X117910986Y-62710706D01*
X117965791Y-62740000D01*
X117910986Y-62769294D01*
X117684866Y-62954866D01*
X117499294Y-63180986D01*
X117361401Y-63438966D01*
X117276487Y-63718889D01*
X117247815Y-64010000D01*
X117276487Y-64301111D01*
X117361401Y-64581034D01*
X117499294Y-64839014D01*
X117684866Y-65065134D01*
X117910986Y-65250706D01*
X117965791Y-65280000D01*
X117910986Y-65309294D01*
X117684866Y-65494866D01*
X117499294Y-65720986D01*
X117361401Y-65978966D01*
X117276487Y-66258889D01*
X117247815Y-66550000D01*
X117276487Y-66841111D01*
X117290184Y-66886265D01*
X116860000Y-67316450D01*
X116860000Y-55540000D01*
X117251928Y-55540000D01*
X117255000Y-56104250D01*
X117413750Y-56263000D01*
X118613000Y-56263000D01*
X118613000Y-55063750D01*
X118867000Y-55063750D01*
X118867000Y-56263000D01*
X120066250Y-56263000D01*
X120225000Y-56104250D01*
X120226493Y-55829867D01*
X129161472Y-55829867D01*
X129921000Y-56589395D01*
X130680528Y-55829867D01*
X130618035Y-55593550D01*
X130375322Y-55480150D01*
X130115151Y-55416281D01*
X129847518Y-55404396D01*
X129582709Y-55444952D01*
X129330900Y-55536391D01*
X129223965Y-55593550D01*
X129161472Y-55829867D01*
X120226493Y-55829867D01*
X120228072Y-55540000D01*
X120215812Y-55415518D01*
X120179502Y-55295820D01*
X120120537Y-55185506D01*
X120041185Y-55088815D01*
X119944494Y-55009463D01*
X119834180Y-54950498D01*
X119714482Y-54914188D01*
X119590000Y-54901928D01*
X119025750Y-54905000D01*
X118867000Y-55063750D01*
X118613000Y-55063750D01*
X118454250Y-54905000D01*
X117890000Y-54901928D01*
X117765518Y-54914188D01*
X117645820Y-54950498D01*
X117535506Y-55009463D01*
X117438815Y-55088815D01*
X117359463Y-55185506D01*
X117300498Y-55295820D01*
X117264188Y-55415518D01*
X117251928Y-55540000D01*
X116860000Y-55540000D01*
X116860000Y-54510000D01*
X190540000Y-54510000D01*
X190540001Y-137940000D01*
G36*
X118867000Y-68963000D02*
G01*
X118887000Y-68963000D01*
X118887000Y-69217000D01*
X118867000Y-69217000D01*
X118867000Y-69237000D01*
X118613000Y-69237000D01*
X118613000Y-69217000D01*
X118593000Y-69217000D01*
X118593000Y-68963000D01*
X118613000Y-68963000D01*
X118613000Y-68943000D01*
X118867000Y-68943000D01*
X118867000Y-68963000D01*
X118867000Y-68963000D01*
G37*
X118867000Y-68963000D02*
X118887000Y-68963000D01*
X118887000Y-69217000D01*
X118867000Y-69217000D01*
X118867000Y-69237000D01*
X118613000Y-69237000D01*
X118613000Y-69217000D01*
X118593000Y-69217000D01*
X118593000Y-68963000D01*
X118613000Y-68963000D01*
X118613000Y-68943000D01*
X118867000Y-68943000D01*
X118867000Y-68963000D01*
M02*
