G04 #@! TF.GenerationSoftware,KiCad,Pcbnew,(5.1.12)-1*
G04 #@! TF.CreationDate,2022-02-25T13:33:31-06:00*
G04 #@! TF.ProjectId,digital_pcb,64696769-7461-46c5-9f70-63622e6b6963,3.1*
G04 #@! TF.SameCoordinates,Original*
G04 #@! TF.FileFunction,Copper,L1,Top*
G04 #@! TF.FilePolarity,Positive*
%FSLAX46Y46*%
G04 Gerber Fmt 4.6, Leading zero omitted, Abs format (unit mm)*
G04 Created by KiCad (PCBNEW (5.1.12)-1) date 2022-02-25 13:33:31*
%MOMM*%
%LPD*%
G01*
G04 APERTURE LIST*
G04 #@! TA.AperFunction,ComponentPad*
%ADD10C,1.620000*%
G04 #@! TD*
G04 #@! TA.AperFunction,ComponentPad*
%ADD11C,1.500000*%
G04 #@! TD*
G04 #@! TA.AperFunction,SMDPad,CuDef*
%ADD12R,0.250000X1.300000*%
G04 #@! TD*
G04 #@! TA.AperFunction,SMDPad,CuDef*
%ADD13R,1.300000X0.250000*%
G04 #@! TD*
G04 #@! TA.AperFunction,SMDPad,CuDef*
%ADD14R,0.300000X0.525000*%
G04 #@! TD*
G04 #@! TA.AperFunction,SMDPad,CuDef*
%ADD15R,0.425000X0.300000*%
G04 #@! TD*
G04 #@! TA.AperFunction,SMDPad,CuDef*
%ADD16R,1.500000X0.450000*%
G04 #@! TD*
G04 #@! TA.AperFunction,SMDPad,CuDef*
%ADD17R,0.950000X1.050000*%
G04 #@! TD*
G04 #@! TA.AperFunction,SMDPad,CuDef*
%ADD18R,0.650000X1.560000*%
G04 #@! TD*
G04 #@! TA.AperFunction,SMDPad,CuDef*
%ADD19R,2.000000X1.500000*%
G04 #@! TD*
G04 #@! TA.AperFunction,SMDPad,CuDef*
%ADD20R,2.000000X3.800000*%
G04 #@! TD*
G04 #@! TA.AperFunction,ComponentPad*
%ADD21C,1.450000*%
G04 #@! TD*
G04 #@! TA.AperFunction,SMDPad,CuDef*
%ADD22R,1.560000X0.650000*%
G04 #@! TD*
G04 #@! TA.AperFunction,SMDPad,CuDef*
%ADD23R,2.000000X4.500000*%
G04 #@! TD*
G04 #@! TA.AperFunction,SMDPad,CuDef*
%ADD24C,1.000000*%
G04 #@! TD*
G04 #@! TA.AperFunction,SMDPad,CuDef*
%ADD25R,1.900000X1.300000*%
G04 #@! TD*
G04 #@! TA.AperFunction,SMDPad,CuDef*
%ADD26R,0.350000X0.500000*%
G04 #@! TD*
G04 #@! TA.AperFunction,ComponentPad*
%ADD27R,1.700000X1.700000*%
G04 #@! TD*
G04 #@! TA.AperFunction,ComponentPad*
%ADD28O,1.700000X1.700000*%
G04 #@! TD*
G04 #@! TA.AperFunction,SMDPad,CuDef*
%ADD29R,0.330800X0.654000*%
G04 #@! TD*
G04 #@! TA.AperFunction,SMDPad,CuDef*
%ADD30R,0.654000X0.330800*%
G04 #@! TD*
G04 #@! TA.AperFunction,SMDPad,CuDef*
%ADD31R,0.800000X0.900000*%
G04 #@! TD*
G04 #@! TA.AperFunction,SMDPad,CuDef*
%ADD32R,0.900000X0.800000*%
G04 #@! TD*
G04 #@! TA.AperFunction,ViaPad*
%ADD33C,0.508000*%
G04 #@! TD*
G04 #@! TA.AperFunction,ViaPad*
%ADD34C,1.016000*%
G04 #@! TD*
G04 #@! TA.AperFunction,Conductor*
%ADD35C,0.304800*%
G04 #@! TD*
G04 #@! TA.AperFunction,Conductor*
%ADD36C,0.152400*%
G04 #@! TD*
G04 #@! TA.AperFunction,Conductor*
%ADD37C,1.270000*%
G04 #@! TD*
G04 #@! TA.AperFunction,Conductor*
%ADD38C,0.635000*%
G04 #@! TD*
G04 #@! TA.AperFunction,Conductor*
%ADD39C,0.254000*%
G04 #@! TD*
G04 #@! TA.AperFunction,Conductor*
%ADD40C,0.100000*%
G04 #@! TD*
G04 APERTURE END LIST*
D10*
X170688000Y-60960000D03*
X170688000Y-63500000D03*
D11*
X124079000Y-89448000D03*
X124079000Y-94448000D03*
D12*
X163493000Y-92551000D03*
X163993000Y-92551000D03*
X164493000Y-92551000D03*
X164993000Y-92551000D03*
X165493000Y-92551000D03*
X165993000Y-92551000D03*
X166493000Y-92551000D03*
X166993000Y-92551000D03*
X167493000Y-92551000D03*
X167993000Y-92551000D03*
X168493000Y-92551000D03*
X168993000Y-92551000D03*
D13*
X170593000Y-94151000D03*
X170593000Y-94651000D03*
X170593000Y-95151000D03*
X170593000Y-95651000D03*
X170593000Y-96151000D03*
X170593000Y-96651000D03*
X170593000Y-97151000D03*
X170593000Y-97651000D03*
X170593000Y-98151000D03*
X170593000Y-98651000D03*
X170593000Y-99151000D03*
X170593000Y-99651000D03*
D12*
X168993000Y-101251000D03*
X168493000Y-101251000D03*
X167993000Y-101251000D03*
X167493000Y-101251000D03*
X166993000Y-101251000D03*
X166493000Y-101251000D03*
X165993000Y-101251000D03*
X165493000Y-101251000D03*
X164993000Y-101251000D03*
X164493000Y-101251000D03*
X163993000Y-101251000D03*
X163493000Y-101251000D03*
D13*
X161893000Y-99651000D03*
X161893000Y-99151000D03*
X161893000Y-98651000D03*
X161893000Y-98151000D03*
X161893000Y-97651000D03*
X161893000Y-97151000D03*
X161893000Y-96651000D03*
X161893000Y-96151000D03*
X161893000Y-95651000D03*
X161893000Y-95151000D03*
X161893000Y-94651000D03*
X161893000Y-94151000D03*
D14*
X153317000Y-78193500D03*
X153817000Y-78193500D03*
X154317000Y-78193500D03*
X154817000Y-78193500D03*
X155317000Y-78193500D03*
X155817000Y-78193500D03*
X156317000Y-78193500D03*
X156817000Y-78193500D03*
X157317000Y-78193500D03*
D15*
X157379500Y-79006000D03*
X157379500Y-79506000D03*
X157379500Y-80006000D03*
X157379500Y-80506000D03*
D14*
X157317000Y-81318500D03*
X156817000Y-81318500D03*
X156317000Y-81318500D03*
X155817000Y-81318500D03*
X155317000Y-81318500D03*
X154817000Y-81318500D03*
X154317000Y-81318500D03*
X153817000Y-81318500D03*
X153317000Y-81318500D03*
X152817000Y-81318500D03*
D15*
X152754500Y-80506000D03*
X152754500Y-80006000D03*
X152754500Y-79506000D03*
X152754500Y-79006000D03*
D14*
X152817000Y-78193500D03*
D16*
X161700000Y-110374000D03*
X161700000Y-111024000D03*
X161700000Y-111674000D03*
X161700000Y-112324000D03*
X161700000Y-112974000D03*
X161700000Y-113624000D03*
X161700000Y-114274000D03*
X161700000Y-114924000D03*
X155800000Y-114924000D03*
X155800000Y-114274000D03*
X155800000Y-113624000D03*
X155800000Y-112974000D03*
X155800000Y-112324000D03*
X155800000Y-111674000D03*
X155800000Y-111024000D03*
X155800000Y-110374000D03*
D17*
X151040000Y-107914000D03*
X151040000Y-109764000D03*
X152490000Y-109764000D03*
X152490000Y-107914000D03*
D18*
X187259000Y-71929000D03*
X186309000Y-71929000D03*
X185359000Y-71929000D03*
X185359000Y-74629000D03*
X187259000Y-74629000D03*
D19*
X131663000Y-83911000D03*
X131663000Y-79311000D03*
X131663000Y-81611000D03*
D20*
X125363000Y-81611000D03*
D21*
X129921000Y-56769000D03*
X129921000Y-59309000D03*
X129921000Y-61849000D03*
X129921000Y-66929000D03*
X129921000Y-69469000D03*
X129921000Y-72009000D03*
X129921000Y-74549000D03*
D22*
X140542000Y-64074000D03*
X140542000Y-65974000D03*
X137842000Y-65974000D03*
X137842000Y-65024000D03*
X137842000Y-64074000D03*
D23*
X156337000Y-100643000D03*
X156337000Y-92143000D03*
D24*
X118745000Y-136055100D03*
X153705000Y-136055100D03*
X153692300Y-56388000D03*
X188658500Y-136055100D03*
D25*
X160858000Y-74124000D03*
X157658000Y-74124000D03*
X160858000Y-68624000D03*
X157658000Y-68624000D03*
G04 #@! TA.AperFunction,SMDPad,CuDef*
G36*
G01*
X141138000Y-59880001D02*
X141138000Y-58229999D01*
G75*
G02*
X141387999Y-57980000I249999J0D01*
G01*
X142838001Y-57980000D01*
G75*
G02*
X143088000Y-58229999I0J-249999D01*
G01*
X143088000Y-59880001D01*
G75*
G02*
X142838001Y-60130000I-249999J0D01*
G01*
X141387999Y-60130000D01*
G75*
G02*
X141138000Y-59880001I0J249999D01*
G01*
G37*
G04 #@! TD.AperFunction*
G04 #@! TA.AperFunction,SMDPad,CuDef*
G36*
G01*
X139238000Y-58180000D02*
X139238000Y-57980000D01*
G75*
G02*
X139338000Y-57880000I100000J0D01*
G01*
X140588000Y-57880000D01*
G75*
G02*
X140688000Y-57980000I0J-100000D01*
G01*
X140688000Y-58180000D01*
G75*
G02*
X140588000Y-58280000I-100000J0D01*
G01*
X139338000Y-58280000D01*
G75*
G02*
X139238000Y-58180000I0J100000D01*
G01*
G37*
G04 #@! TD.AperFunction*
G04 #@! TA.AperFunction,SMDPad,CuDef*
G36*
G01*
X139238000Y-58830000D02*
X139238000Y-58630000D01*
G75*
G02*
X139338000Y-58530000I100000J0D01*
G01*
X140588000Y-58530000D01*
G75*
G02*
X140688000Y-58630000I0J-100000D01*
G01*
X140688000Y-58830000D01*
G75*
G02*
X140588000Y-58930000I-100000J0D01*
G01*
X139338000Y-58930000D01*
G75*
G02*
X139238000Y-58830000I0J100000D01*
G01*
G37*
G04 #@! TD.AperFunction*
G04 #@! TA.AperFunction,SMDPad,CuDef*
G36*
G01*
X139238000Y-59480000D02*
X139238000Y-59280000D01*
G75*
G02*
X139338000Y-59180000I100000J0D01*
G01*
X140588000Y-59180000D01*
G75*
G02*
X140688000Y-59280000I0J-100000D01*
G01*
X140688000Y-59480000D01*
G75*
G02*
X140588000Y-59580000I-100000J0D01*
G01*
X139338000Y-59580000D01*
G75*
G02*
X139238000Y-59480000I0J100000D01*
G01*
G37*
G04 #@! TD.AperFunction*
G04 #@! TA.AperFunction,SMDPad,CuDef*
G36*
G01*
X139238000Y-60130000D02*
X139238000Y-59930000D01*
G75*
G02*
X139338000Y-59830000I100000J0D01*
G01*
X140588000Y-59830000D01*
G75*
G02*
X140688000Y-59930000I0J-100000D01*
G01*
X140688000Y-60130000D01*
G75*
G02*
X140588000Y-60230000I-100000J0D01*
G01*
X139338000Y-60230000D01*
G75*
G02*
X139238000Y-60130000I0J100000D01*
G01*
G37*
G04 #@! TD.AperFunction*
G04 #@! TA.AperFunction,SMDPad,CuDef*
G36*
G01*
X143538000Y-60130000D02*
X143538000Y-59930000D01*
G75*
G02*
X143638000Y-59830000I100000J0D01*
G01*
X144888000Y-59830000D01*
G75*
G02*
X144988000Y-59930000I0J-100000D01*
G01*
X144988000Y-60130000D01*
G75*
G02*
X144888000Y-60230000I-100000J0D01*
G01*
X143638000Y-60230000D01*
G75*
G02*
X143538000Y-60130000I0J100000D01*
G01*
G37*
G04 #@! TD.AperFunction*
G04 #@! TA.AperFunction,SMDPad,CuDef*
G36*
G01*
X143538000Y-59480000D02*
X143538000Y-59280000D01*
G75*
G02*
X143638000Y-59180000I100000J0D01*
G01*
X144888000Y-59180000D01*
G75*
G02*
X144988000Y-59280000I0J-100000D01*
G01*
X144988000Y-59480000D01*
G75*
G02*
X144888000Y-59580000I-100000J0D01*
G01*
X143638000Y-59580000D01*
G75*
G02*
X143538000Y-59480000I0J100000D01*
G01*
G37*
G04 #@! TD.AperFunction*
G04 #@! TA.AperFunction,SMDPad,CuDef*
G36*
G01*
X143538000Y-58830000D02*
X143538000Y-58630000D01*
G75*
G02*
X143638000Y-58530000I100000J0D01*
G01*
X144888000Y-58530000D01*
G75*
G02*
X144988000Y-58630000I0J-100000D01*
G01*
X144988000Y-58830000D01*
G75*
G02*
X144888000Y-58930000I-100000J0D01*
G01*
X143638000Y-58930000D01*
G75*
G02*
X143538000Y-58830000I0J100000D01*
G01*
G37*
G04 #@! TD.AperFunction*
G04 #@! TA.AperFunction,SMDPad,CuDef*
G36*
G01*
X143538000Y-58180000D02*
X143538000Y-57980000D01*
G75*
G02*
X143638000Y-57880000I100000J0D01*
G01*
X144888000Y-57880000D01*
G75*
G02*
X144988000Y-57980000I0J-100000D01*
G01*
X144988000Y-58180000D01*
G75*
G02*
X144888000Y-58280000I-100000J0D01*
G01*
X143638000Y-58280000D01*
G75*
G02*
X143538000Y-58180000I0J100000D01*
G01*
G37*
G04 #@! TD.AperFunction*
G04 #@! TA.AperFunction,SMDPad,CuDef*
G36*
G01*
X164129000Y-79244000D02*
X164129000Y-78744000D01*
G75*
G02*
X164354000Y-78519000I225000J0D01*
G01*
X164804000Y-78519000D01*
G75*
G02*
X165029000Y-78744000I0J-225000D01*
G01*
X165029000Y-79244000D01*
G75*
G02*
X164804000Y-79469000I-225000J0D01*
G01*
X164354000Y-79469000D01*
G75*
G02*
X164129000Y-79244000I0J225000D01*
G01*
G37*
G04 #@! TD.AperFunction*
G04 #@! TA.AperFunction,SMDPad,CuDef*
G36*
G01*
X165679000Y-79244000D02*
X165679000Y-78744000D01*
G75*
G02*
X165904000Y-78519000I225000J0D01*
G01*
X166354000Y-78519000D01*
G75*
G02*
X166579000Y-78744000I0J-225000D01*
G01*
X166579000Y-79244000D01*
G75*
G02*
X166354000Y-79469000I-225000J0D01*
G01*
X165904000Y-79469000D01*
G75*
G02*
X165679000Y-79244000I0J225000D01*
G01*
G37*
G04 #@! TD.AperFunction*
G04 #@! TA.AperFunction,SMDPad,CuDef*
G36*
G01*
X167898000Y-82113000D02*
X168398000Y-82113000D01*
G75*
G02*
X168623000Y-82338000I0J-225000D01*
G01*
X168623000Y-82788000D01*
G75*
G02*
X168398000Y-83013000I-225000J0D01*
G01*
X167898000Y-83013000D01*
G75*
G02*
X167673000Y-82788000I0J225000D01*
G01*
X167673000Y-82338000D01*
G75*
G02*
X167898000Y-82113000I225000J0D01*
G01*
G37*
G04 #@! TD.AperFunction*
G04 #@! TA.AperFunction,SMDPad,CuDef*
G36*
G01*
X167898000Y-80563000D02*
X168398000Y-80563000D01*
G75*
G02*
X168623000Y-80788000I0J-225000D01*
G01*
X168623000Y-81238000D01*
G75*
G02*
X168398000Y-81463000I-225000J0D01*
G01*
X167898000Y-81463000D01*
G75*
G02*
X167673000Y-81238000I0J225000D01*
G01*
X167673000Y-80788000D01*
G75*
G02*
X167898000Y-80563000I225000J0D01*
G01*
G37*
G04 #@! TD.AperFunction*
D26*
X164467999Y-82771999D03*
X165117999Y-82771999D03*
X165767999Y-82771999D03*
X166417999Y-82771999D03*
X166417999Y-80721999D03*
X165767999Y-80721999D03*
X165117999Y-80721999D03*
X164467999Y-80721999D03*
G04 #@! TA.AperFunction,SMDPad,CuDef*
G36*
G01*
X173807000Y-92579000D02*
X173807000Y-92079000D01*
G75*
G02*
X174032000Y-91854000I225000J0D01*
G01*
X174482000Y-91854000D01*
G75*
G02*
X174707000Y-92079000I0J-225000D01*
G01*
X174707000Y-92579000D01*
G75*
G02*
X174482000Y-92804000I-225000J0D01*
G01*
X174032000Y-92804000D01*
G75*
G02*
X173807000Y-92579000I0J225000D01*
G01*
G37*
G04 #@! TD.AperFunction*
G04 #@! TA.AperFunction,SMDPad,CuDef*
G36*
G01*
X172257000Y-92579000D02*
X172257000Y-92079000D01*
G75*
G02*
X172482000Y-91854000I225000J0D01*
G01*
X172932000Y-91854000D01*
G75*
G02*
X173157000Y-92079000I0J-225000D01*
G01*
X173157000Y-92579000D01*
G75*
G02*
X172932000Y-92804000I-225000J0D01*
G01*
X172482000Y-92804000D01*
G75*
G02*
X172257000Y-92579000I0J225000D01*
G01*
G37*
G04 #@! TD.AperFunction*
G04 #@! TA.AperFunction,SMDPad,CuDef*
G36*
G01*
X162261000Y-90555000D02*
X162261000Y-91055000D01*
G75*
G02*
X162036000Y-91280000I-225000J0D01*
G01*
X161586000Y-91280000D01*
G75*
G02*
X161361000Y-91055000I0J225000D01*
G01*
X161361000Y-90555000D01*
G75*
G02*
X161586000Y-90330000I225000J0D01*
G01*
X162036000Y-90330000D01*
G75*
G02*
X162261000Y-90555000I0J-225000D01*
G01*
G37*
G04 #@! TD.AperFunction*
G04 #@! TA.AperFunction,SMDPad,CuDef*
G36*
G01*
X160711000Y-90555000D02*
X160711000Y-91055000D01*
G75*
G02*
X160486000Y-91280000I-225000J0D01*
G01*
X160036000Y-91280000D01*
G75*
G02*
X159811000Y-91055000I0J225000D01*
G01*
X159811000Y-90555000D01*
G75*
G02*
X160036000Y-90330000I225000J0D01*
G01*
X160486000Y-90330000D01*
G75*
G02*
X160711000Y-90555000I0J-225000D01*
G01*
G37*
G04 #@! TD.AperFunction*
G04 #@! TA.AperFunction,SMDPad,CuDef*
G36*
G01*
X172257000Y-101723000D02*
X172257000Y-101223000D01*
G75*
G02*
X172482000Y-100998000I225000J0D01*
G01*
X172932000Y-100998000D01*
G75*
G02*
X173157000Y-101223000I0J-225000D01*
G01*
X173157000Y-101723000D01*
G75*
G02*
X172932000Y-101948000I-225000J0D01*
G01*
X172482000Y-101948000D01*
G75*
G02*
X172257000Y-101723000I0J225000D01*
G01*
G37*
G04 #@! TD.AperFunction*
G04 #@! TA.AperFunction,SMDPad,CuDef*
G36*
G01*
X173807000Y-101723000D02*
X173807000Y-101223000D01*
G75*
G02*
X174032000Y-100998000I225000J0D01*
G01*
X174482000Y-100998000D01*
G75*
G02*
X174707000Y-101223000I0J-225000D01*
G01*
X174707000Y-101723000D01*
G75*
G02*
X174482000Y-101948000I-225000J0D01*
G01*
X174032000Y-101948000D01*
G75*
G02*
X173807000Y-101723000I0J225000D01*
G01*
G37*
G04 #@! TD.AperFunction*
G04 #@! TA.AperFunction,SMDPad,CuDef*
G36*
G01*
X161421000Y-104465000D02*
X161921000Y-104465000D01*
G75*
G02*
X162146000Y-104690000I0J-225000D01*
G01*
X162146000Y-105140000D01*
G75*
G02*
X161921000Y-105365000I-225000J0D01*
G01*
X161421000Y-105365000D01*
G75*
G02*
X161196000Y-105140000I0J225000D01*
G01*
X161196000Y-104690000D01*
G75*
G02*
X161421000Y-104465000I225000J0D01*
G01*
G37*
G04 #@! TD.AperFunction*
G04 #@! TA.AperFunction,SMDPad,CuDef*
G36*
G01*
X161421000Y-102915000D02*
X161921000Y-102915000D01*
G75*
G02*
X162146000Y-103140000I0J-225000D01*
G01*
X162146000Y-103590000D01*
G75*
G02*
X161921000Y-103815000I-225000J0D01*
G01*
X161421000Y-103815000D01*
G75*
G02*
X161196000Y-103590000I0J225000D01*
G01*
X161196000Y-103140000D01*
G75*
G02*
X161421000Y-102915000I225000J0D01*
G01*
G37*
G04 #@! TD.AperFunction*
G04 #@! TA.AperFunction,SMDPad,CuDef*
G36*
G01*
X155112000Y-88769000D02*
X155112000Y-88269000D01*
G75*
G02*
X155337000Y-88044000I225000J0D01*
G01*
X155787000Y-88044000D01*
G75*
G02*
X156012000Y-88269000I0J-225000D01*
G01*
X156012000Y-88769000D01*
G75*
G02*
X155787000Y-88994000I-225000J0D01*
G01*
X155337000Y-88994000D01*
G75*
G02*
X155112000Y-88769000I0J225000D01*
G01*
G37*
G04 #@! TD.AperFunction*
G04 #@! TA.AperFunction,SMDPad,CuDef*
G36*
G01*
X156662000Y-88769000D02*
X156662000Y-88269000D01*
G75*
G02*
X156887000Y-88044000I225000J0D01*
G01*
X157337000Y-88044000D01*
G75*
G02*
X157562000Y-88269000I0J-225000D01*
G01*
X157562000Y-88769000D01*
G75*
G02*
X157337000Y-88994000I-225000J0D01*
G01*
X156887000Y-88994000D01*
G75*
G02*
X156662000Y-88769000I0J225000D01*
G01*
G37*
G04 #@! TD.AperFunction*
G04 #@! TA.AperFunction,SMDPad,CuDef*
G36*
G01*
X151397001Y-90204001D02*
X151397001Y-89704001D01*
G75*
G02*
X151622001Y-89479001I225000J0D01*
G01*
X152072001Y-89479001D01*
G75*
G02*
X152297001Y-89704001I0J-225000D01*
G01*
X152297001Y-90204001D01*
G75*
G02*
X152072001Y-90429001I-225000J0D01*
G01*
X151622001Y-90429001D01*
G75*
G02*
X151397001Y-90204001I0J225000D01*
G01*
G37*
G04 #@! TD.AperFunction*
G04 #@! TA.AperFunction,SMDPad,CuDef*
G36*
G01*
X149847001Y-90204001D02*
X149847001Y-89704001D01*
G75*
G02*
X150072001Y-89479001I225000J0D01*
G01*
X150522001Y-89479001D01*
G75*
G02*
X150747001Y-89704001I0J-225000D01*
G01*
X150747001Y-90204001D01*
G75*
G02*
X150522001Y-90429001I-225000J0D01*
G01*
X150072001Y-90429001D01*
G75*
G02*
X149847001Y-90204001I0J225000D01*
G01*
G37*
G04 #@! TD.AperFunction*
G04 #@! TA.AperFunction,SMDPad,CuDef*
G36*
G01*
X155112000Y-104390000D02*
X155112000Y-103890000D01*
G75*
G02*
X155337000Y-103665000I225000J0D01*
G01*
X155787000Y-103665000D01*
G75*
G02*
X156012000Y-103890000I0J-225000D01*
G01*
X156012000Y-104390000D01*
G75*
G02*
X155787000Y-104615000I-225000J0D01*
G01*
X155337000Y-104615000D01*
G75*
G02*
X155112000Y-104390000I0J225000D01*
G01*
G37*
G04 #@! TD.AperFunction*
G04 #@! TA.AperFunction,SMDPad,CuDef*
G36*
G01*
X156662000Y-104390000D02*
X156662000Y-103890000D01*
G75*
G02*
X156887000Y-103665000I225000J0D01*
G01*
X157337000Y-103665000D01*
G75*
G02*
X157562000Y-103890000I0J-225000D01*
G01*
X157562000Y-104390000D01*
G75*
G02*
X157337000Y-104615000I-225000J0D01*
G01*
X156887000Y-104615000D01*
G75*
G02*
X156662000Y-104390000I0J225000D01*
G01*
G37*
G04 #@! TD.AperFunction*
G04 #@! TA.AperFunction,SMDPad,CuDef*
G36*
G01*
X150704000Y-79252000D02*
X150704000Y-79752000D01*
G75*
G02*
X150479000Y-79977000I-225000J0D01*
G01*
X150029000Y-79977000D01*
G75*
G02*
X149804000Y-79752000I0J225000D01*
G01*
X149804000Y-79252000D01*
G75*
G02*
X150029000Y-79027000I225000J0D01*
G01*
X150479000Y-79027000D01*
G75*
G02*
X150704000Y-79252000I0J-225000D01*
G01*
G37*
G04 #@! TD.AperFunction*
G04 #@! TA.AperFunction,SMDPad,CuDef*
G36*
G01*
X149154000Y-79252000D02*
X149154000Y-79752000D01*
G75*
G02*
X148929000Y-79977000I-225000J0D01*
G01*
X148479000Y-79977000D01*
G75*
G02*
X148254000Y-79752000I0J225000D01*
G01*
X148254000Y-79252000D01*
G75*
G02*
X148479000Y-79027000I225000J0D01*
G01*
X148929000Y-79027000D01*
G75*
G02*
X149154000Y-79252000I0J-225000D01*
G01*
G37*
G04 #@! TD.AperFunction*
G04 #@! TA.AperFunction,SMDPad,CuDef*
G36*
G01*
X151888000Y-75113000D02*
X151388000Y-75113000D01*
G75*
G02*
X151163000Y-74888000I0J225000D01*
G01*
X151163000Y-74438000D01*
G75*
G02*
X151388000Y-74213000I225000J0D01*
G01*
X151888000Y-74213000D01*
G75*
G02*
X152113000Y-74438000I0J-225000D01*
G01*
X152113000Y-74888000D01*
G75*
G02*
X151888000Y-75113000I-225000J0D01*
G01*
G37*
G04 #@! TD.AperFunction*
G04 #@! TA.AperFunction,SMDPad,CuDef*
G36*
G01*
X151888000Y-76663000D02*
X151388000Y-76663000D01*
G75*
G02*
X151163000Y-76438000I0J225000D01*
G01*
X151163000Y-75988000D01*
G75*
G02*
X151388000Y-75763000I225000J0D01*
G01*
X151888000Y-75763000D01*
G75*
G02*
X152113000Y-75988000I0J-225000D01*
G01*
X152113000Y-76438000D01*
G75*
G02*
X151888000Y-76663000I-225000J0D01*
G01*
G37*
G04 #@! TD.AperFunction*
G04 #@! TA.AperFunction,SMDPad,CuDef*
G36*
G01*
X167382000Y-73716000D02*
X166882000Y-73716000D01*
G75*
G02*
X166657000Y-73491000I0J225000D01*
G01*
X166657000Y-73041000D01*
G75*
G02*
X166882000Y-72816000I225000J0D01*
G01*
X167382000Y-72816000D01*
G75*
G02*
X167607000Y-73041000I0J-225000D01*
G01*
X167607000Y-73491000D01*
G75*
G02*
X167382000Y-73716000I-225000J0D01*
G01*
G37*
G04 #@! TD.AperFunction*
G04 #@! TA.AperFunction,SMDPad,CuDef*
G36*
G01*
X167382000Y-75266000D02*
X166882000Y-75266000D01*
G75*
G02*
X166657000Y-75041000I0J225000D01*
G01*
X166657000Y-74591000D01*
G75*
G02*
X166882000Y-74366000I225000J0D01*
G01*
X167382000Y-74366000D01*
G75*
G02*
X167607000Y-74591000I0J-225000D01*
G01*
X167607000Y-75041000D01*
G75*
G02*
X167382000Y-75266000I-225000J0D01*
G01*
G37*
G04 #@! TD.AperFunction*
G04 #@! TA.AperFunction,SMDPad,CuDef*
G36*
G01*
X149270000Y-72767000D02*
X149270000Y-72267000D01*
G75*
G02*
X149495000Y-72042000I225000J0D01*
G01*
X149945000Y-72042000D01*
G75*
G02*
X150170000Y-72267000I0J-225000D01*
G01*
X150170000Y-72767000D01*
G75*
G02*
X149945000Y-72992000I-225000J0D01*
G01*
X149495000Y-72992000D01*
G75*
G02*
X149270000Y-72767000I0J225000D01*
G01*
G37*
G04 #@! TD.AperFunction*
G04 #@! TA.AperFunction,SMDPad,CuDef*
G36*
G01*
X150820000Y-72767000D02*
X150820000Y-72267000D01*
G75*
G02*
X151045000Y-72042000I225000J0D01*
G01*
X151495000Y-72042000D01*
G75*
G02*
X151720000Y-72267000I0J-225000D01*
G01*
X151720000Y-72767000D01*
G75*
G02*
X151495000Y-72992000I-225000J0D01*
G01*
X151045000Y-72992000D01*
G75*
G02*
X150820000Y-72767000I0J225000D01*
G01*
G37*
G04 #@! TD.AperFunction*
G04 #@! TA.AperFunction,SMDPad,CuDef*
G36*
G01*
X154436000Y-84780000D02*
X154936000Y-84780000D01*
G75*
G02*
X155161000Y-85005000I0J-225000D01*
G01*
X155161000Y-85455000D01*
G75*
G02*
X154936000Y-85680000I-225000J0D01*
G01*
X154436000Y-85680000D01*
G75*
G02*
X154211000Y-85455000I0J225000D01*
G01*
X154211000Y-85005000D01*
G75*
G02*
X154436000Y-84780000I225000J0D01*
G01*
G37*
G04 #@! TD.AperFunction*
G04 #@! TA.AperFunction,SMDPad,CuDef*
G36*
G01*
X154436000Y-83230000D02*
X154936000Y-83230000D01*
G75*
G02*
X155161000Y-83455000I0J-225000D01*
G01*
X155161000Y-83905000D01*
G75*
G02*
X154936000Y-84130000I-225000J0D01*
G01*
X154436000Y-84130000D01*
G75*
G02*
X154211000Y-83905000I0J225000D01*
G01*
X154211000Y-83455000D01*
G75*
G02*
X154436000Y-83230000I225000J0D01*
G01*
G37*
G04 #@! TD.AperFunction*
G04 #@! TA.AperFunction,SMDPad,CuDef*
G36*
G01*
X163875000Y-112137000D02*
X163875000Y-111637000D01*
G75*
G02*
X164100000Y-111412000I225000J0D01*
G01*
X164550000Y-111412000D01*
G75*
G02*
X164775000Y-111637000I0J-225000D01*
G01*
X164775000Y-112137000D01*
G75*
G02*
X164550000Y-112362000I-225000J0D01*
G01*
X164100000Y-112362000D01*
G75*
G02*
X163875000Y-112137000I0J225000D01*
G01*
G37*
G04 #@! TD.AperFunction*
G04 #@! TA.AperFunction,SMDPad,CuDef*
G36*
G01*
X165425000Y-112137000D02*
X165425000Y-111637000D01*
G75*
G02*
X165650000Y-111412000I225000J0D01*
G01*
X166100000Y-111412000D01*
G75*
G02*
X166325000Y-111637000I0J-225000D01*
G01*
X166325000Y-112137000D01*
G75*
G02*
X166100000Y-112362000I-225000J0D01*
G01*
X165650000Y-112362000D01*
G75*
G02*
X165425000Y-112137000I0J225000D01*
G01*
G37*
G04 #@! TD.AperFunction*
G04 #@! TA.AperFunction,SMDPad,CuDef*
G36*
G01*
X165425000Y-113788000D02*
X165425000Y-113288000D01*
G75*
G02*
X165650000Y-113063000I225000J0D01*
G01*
X166100000Y-113063000D01*
G75*
G02*
X166325000Y-113288000I0J-225000D01*
G01*
X166325000Y-113788000D01*
G75*
G02*
X166100000Y-114013000I-225000J0D01*
G01*
X165650000Y-114013000D01*
G75*
G02*
X165425000Y-113788000I0J225000D01*
G01*
G37*
G04 #@! TD.AperFunction*
G04 #@! TA.AperFunction,SMDPad,CuDef*
G36*
G01*
X163875000Y-113788000D02*
X163875000Y-113288000D01*
G75*
G02*
X164100000Y-113063000I225000J0D01*
G01*
X164550000Y-113063000D01*
G75*
G02*
X164775000Y-113288000I0J-225000D01*
G01*
X164775000Y-113788000D01*
G75*
G02*
X164550000Y-114013000I-225000J0D01*
G01*
X164100000Y-114013000D01*
G75*
G02*
X163875000Y-113788000I0J225000D01*
G01*
G37*
G04 #@! TD.AperFunction*
G04 #@! TA.AperFunction,SMDPad,CuDef*
G36*
G01*
X161167000Y-118155000D02*
X161667000Y-118155000D01*
G75*
G02*
X161892000Y-118380000I0J-225000D01*
G01*
X161892000Y-118830000D01*
G75*
G02*
X161667000Y-119055000I-225000J0D01*
G01*
X161167000Y-119055000D01*
G75*
G02*
X160942000Y-118830000I0J225000D01*
G01*
X160942000Y-118380000D01*
G75*
G02*
X161167000Y-118155000I225000J0D01*
G01*
G37*
G04 #@! TD.AperFunction*
G04 #@! TA.AperFunction,SMDPad,CuDef*
G36*
G01*
X161167000Y-119705000D02*
X161667000Y-119705000D01*
G75*
G02*
X161892000Y-119930000I0J-225000D01*
G01*
X161892000Y-120380000D01*
G75*
G02*
X161667000Y-120605000I-225000J0D01*
G01*
X161167000Y-120605000D01*
G75*
G02*
X160942000Y-120380000I0J225000D01*
G01*
X160942000Y-119930000D01*
G75*
G02*
X161167000Y-119705000I225000J0D01*
G01*
G37*
G04 #@! TD.AperFunction*
G04 #@! TA.AperFunction,SMDPad,CuDef*
G36*
G01*
X158425000Y-116209000D02*
X158425000Y-116709000D01*
G75*
G02*
X158200000Y-116934000I-225000J0D01*
G01*
X157750000Y-116934000D01*
G75*
G02*
X157525000Y-116709000I0J225000D01*
G01*
X157525000Y-116209000D01*
G75*
G02*
X157750000Y-115984000I225000J0D01*
G01*
X158200000Y-115984000D01*
G75*
G02*
X158425000Y-116209000I0J-225000D01*
G01*
G37*
G04 #@! TD.AperFunction*
G04 #@! TA.AperFunction,SMDPad,CuDef*
G36*
G01*
X159975000Y-116209000D02*
X159975000Y-116709000D01*
G75*
G02*
X159750000Y-116934000I-225000J0D01*
G01*
X159300000Y-116934000D01*
G75*
G02*
X159075000Y-116709000I0J225000D01*
G01*
X159075000Y-116209000D01*
G75*
G02*
X159300000Y-115984000I225000J0D01*
G01*
X159750000Y-115984000D01*
G75*
G02*
X159975000Y-116209000I0J-225000D01*
G01*
G37*
G04 #@! TD.AperFunction*
G04 #@! TA.AperFunction,SMDPad,CuDef*
G36*
G01*
X155833000Y-119705000D02*
X156333000Y-119705000D01*
G75*
G02*
X156558000Y-119930000I0J-225000D01*
G01*
X156558000Y-120380000D01*
G75*
G02*
X156333000Y-120605000I-225000J0D01*
G01*
X155833000Y-120605000D01*
G75*
G02*
X155608000Y-120380000I0J225000D01*
G01*
X155608000Y-119930000D01*
G75*
G02*
X155833000Y-119705000I225000J0D01*
G01*
G37*
G04 #@! TD.AperFunction*
G04 #@! TA.AperFunction,SMDPad,CuDef*
G36*
G01*
X155833000Y-118155000D02*
X156333000Y-118155000D01*
G75*
G02*
X156558000Y-118380000I0J-225000D01*
G01*
X156558000Y-118830000D01*
G75*
G02*
X156333000Y-119055000I-225000J0D01*
G01*
X155833000Y-119055000D01*
G75*
G02*
X155608000Y-118830000I0J225000D01*
G01*
X155608000Y-118380000D01*
G75*
G02*
X155833000Y-118155000I225000J0D01*
G01*
G37*
G04 #@! TD.AperFunction*
G04 #@! TA.AperFunction,SMDPad,CuDef*
G36*
G01*
X153625000Y-112780000D02*
X153625000Y-113280000D01*
G75*
G02*
X153400000Y-113505000I-225000J0D01*
G01*
X152950000Y-113505000D01*
G75*
G02*
X152725000Y-113280000I0J225000D01*
G01*
X152725000Y-112780000D01*
G75*
G02*
X152950000Y-112555000I225000J0D01*
G01*
X153400000Y-112555000D01*
G75*
G02*
X153625000Y-112780000I0J-225000D01*
G01*
G37*
G04 #@! TD.AperFunction*
G04 #@! TA.AperFunction,SMDPad,CuDef*
G36*
G01*
X152075000Y-112780000D02*
X152075000Y-113280000D01*
G75*
G02*
X151850000Y-113505000I-225000J0D01*
G01*
X151400000Y-113505000D01*
G75*
G02*
X151175000Y-113280000I0J225000D01*
G01*
X151175000Y-112780000D01*
G75*
G02*
X151400000Y-112555000I225000J0D01*
G01*
X151850000Y-112555000D01*
G75*
G02*
X152075000Y-112780000I0J-225000D01*
G01*
G37*
G04 #@! TD.AperFunction*
G04 #@! TA.AperFunction,SMDPad,CuDef*
G36*
G01*
X152990000Y-105922000D02*
X152990000Y-106422000D01*
G75*
G02*
X152765000Y-106647000I-225000J0D01*
G01*
X152315000Y-106647000D01*
G75*
G02*
X152090000Y-106422000I0J225000D01*
G01*
X152090000Y-105922000D01*
G75*
G02*
X152315000Y-105697000I225000J0D01*
G01*
X152765000Y-105697000D01*
G75*
G02*
X152990000Y-105922000I0J-225000D01*
G01*
G37*
G04 #@! TD.AperFunction*
G04 #@! TA.AperFunction,SMDPad,CuDef*
G36*
G01*
X151440000Y-105922000D02*
X151440000Y-106422000D01*
G75*
G02*
X151215000Y-106647000I-225000J0D01*
G01*
X150765000Y-106647000D01*
G75*
G02*
X150540000Y-106422000I0J225000D01*
G01*
X150540000Y-105922000D01*
G75*
G02*
X150765000Y-105697000I225000J0D01*
G01*
X151215000Y-105697000D01*
G75*
G02*
X151440000Y-105922000I0J-225000D01*
G01*
G37*
G04 #@! TD.AperFunction*
G04 #@! TA.AperFunction,SMDPad,CuDef*
G36*
G01*
X172941000Y-69527000D02*
X171991000Y-69527000D01*
G75*
G02*
X171741000Y-69277000I0J250000D01*
G01*
X171741000Y-68777000D01*
G75*
G02*
X171991000Y-68527000I250000J0D01*
G01*
X172941000Y-68527000D01*
G75*
G02*
X173191000Y-68777000I0J-250000D01*
G01*
X173191000Y-69277000D01*
G75*
G02*
X172941000Y-69527000I-250000J0D01*
G01*
G37*
G04 #@! TD.AperFunction*
G04 #@! TA.AperFunction,SMDPad,CuDef*
G36*
G01*
X172941000Y-71427000D02*
X171991000Y-71427000D01*
G75*
G02*
X171741000Y-71177000I0J250000D01*
G01*
X171741000Y-70677000D01*
G75*
G02*
X171991000Y-70427000I250000J0D01*
G01*
X172941000Y-70427000D01*
G75*
G02*
X173191000Y-70677000I0J-250000D01*
G01*
X173191000Y-71177000D01*
G75*
G02*
X172941000Y-71427000I-250000J0D01*
G01*
G37*
G04 #@! TD.AperFunction*
G04 #@! TA.AperFunction,SMDPad,CuDef*
G36*
G01*
X187534000Y-76331000D02*
X187534000Y-76831000D01*
G75*
G02*
X187309000Y-77056000I-225000J0D01*
G01*
X186859000Y-77056000D01*
G75*
G02*
X186634000Y-76831000I0J225000D01*
G01*
X186634000Y-76331000D01*
G75*
G02*
X186859000Y-76106000I225000J0D01*
G01*
X187309000Y-76106000D01*
G75*
G02*
X187534000Y-76331000I0J-225000D01*
G01*
G37*
G04 #@! TD.AperFunction*
G04 #@! TA.AperFunction,SMDPad,CuDef*
G36*
G01*
X185984000Y-76331000D02*
X185984000Y-76831000D01*
G75*
G02*
X185759000Y-77056000I-225000J0D01*
G01*
X185309000Y-77056000D01*
G75*
G02*
X185084000Y-76831000I0J225000D01*
G01*
X185084000Y-76331000D01*
G75*
G02*
X185309000Y-76106000I225000J0D01*
G01*
X185759000Y-76106000D01*
G75*
G02*
X185984000Y-76331000I0J-225000D01*
G01*
G37*
G04 #@! TD.AperFunction*
G04 #@! TA.AperFunction,SMDPad,CuDef*
G36*
G01*
X137848000Y-56421000D02*
X137848000Y-57371000D01*
G75*
G02*
X137598000Y-57621000I-250000J0D01*
G01*
X137098000Y-57621000D01*
G75*
G02*
X136848000Y-57371000I0J250000D01*
G01*
X136848000Y-56421000D01*
G75*
G02*
X137098000Y-56171000I250000J0D01*
G01*
X137598000Y-56171000D01*
G75*
G02*
X137848000Y-56421000I0J-250000D01*
G01*
G37*
G04 #@! TD.AperFunction*
G04 #@! TA.AperFunction,SMDPad,CuDef*
G36*
G01*
X135948000Y-56421000D02*
X135948000Y-57371000D01*
G75*
G02*
X135698000Y-57621000I-250000J0D01*
G01*
X135198000Y-57621000D01*
G75*
G02*
X134948000Y-57371000I0J250000D01*
G01*
X134948000Y-56421000D01*
G75*
G02*
X135198000Y-56171000I250000J0D01*
G01*
X135698000Y-56171000D01*
G75*
G02*
X135948000Y-56421000I0J-250000D01*
G01*
G37*
G04 #@! TD.AperFunction*
G04 #@! TA.AperFunction,SMDPad,CuDef*
G36*
G01*
X136013000Y-75012000D02*
X135513000Y-75012000D01*
G75*
G02*
X135288000Y-74787000I0J225000D01*
G01*
X135288000Y-74337000D01*
G75*
G02*
X135513000Y-74112000I225000J0D01*
G01*
X136013000Y-74112000D01*
G75*
G02*
X136238000Y-74337000I0J-225000D01*
G01*
X136238000Y-74787000D01*
G75*
G02*
X136013000Y-75012000I-225000J0D01*
G01*
G37*
G04 #@! TD.AperFunction*
G04 #@! TA.AperFunction,SMDPad,CuDef*
G36*
G01*
X136013000Y-73462000D02*
X135513000Y-73462000D01*
G75*
G02*
X135288000Y-73237000I0J225000D01*
G01*
X135288000Y-72787000D01*
G75*
G02*
X135513000Y-72562000I225000J0D01*
G01*
X136013000Y-72562000D01*
G75*
G02*
X136238000Y-72787000I0J-225000D01*
G01*
X136238000Y-73237000D01*
G75*
G02*
X136013000Y-73462000I-225000J0D01*
G01*
G37*
G04 #@! TD.AperFunction*
G04 #@! TA.AperFunction,SMDPad,CuDef*
G36*
G01*
X138867000Y-70743000D02*
X138867000Y-71243000D01*
G75*
G02*
X138642000Y-71468000I-225000J0D01*
G01*
X138192000Y-71468000D01*
G75*
G02*
X137967000Y-71243000I0J225000D01*
G01*
X137967000Y-70743000D01*
G75*
G02*
X138192000Y-70518000I225000J0D01*
G01*
X138642000Y-70518000D01*
G75*
G02*
X138867000Y-70743000I0J-225000D01*
G01*
G37*
G04 #@! TD.AperFunction*
G04 #@! TA.AperFunction,SMDPad,CuDef*
G36*
G01*
X140417000Y-70743000D02*
X140417000Y-71243000D01*
G75*
G02*
X140192000Y-71468000I-225000J0D01*
G01*
X139742000Y-71468000D01*
G75*
G02*
X139517000Y-71243000I0J225000D01*
G01*
X139517000Y-70743000D01*
G75*
G02*
X139742000Y-70518000I225000J0D01*
G01*
X140192000Y-70518000D01*
G75*
G02*
X140417000Y-70743000I0J-225000D01*
G01*
G37*
G04 #@! TD.AperFunction*
G04 #@! TA.AperFunction,SMDPad,CuDef*
G36*
G01*
X137762000Y-85524000D02*
X136812000Y-85524000D01*
G75*
G02*
X136562000Y-85274000I0J250000D01*
G01*
X136562000Y-84774000D01*
G75*
G02*
X136812000Y-84524000I250000J0D01*
G01*
X137762000Y-84524000D01*
G75*
G02*
X138012000Y-84774000I0J-250000D01*
G01*
X138012000Y-85274000D01*
G75*
G02*
X137762000Y-85524000I-250000J0D01*
G01*
G37*
G04 #@! TD.AperFunction*
G04 #@! TA.AperFunction,SMDPad,CuDef*
G36*
G01*
X137762000Y-83624000D02*
X136812000Y-83624000D01*
G75*
G02*
X136562000Y-83374000I0J250000D01*
G01*
X136562000Y-82874000D01*
G75*
G02*
X136812000Y-82624000I250000J0D01*
G01*
X137762000Y-82624000D01*
G75*
G02*
X138012000Y-82874000I0J-250000D01*
G01*
X138012000Y-83374000D01*
G75*
G02*
X137762000Y-83624000I-250000J0D01*
G01*
G37*
G04 #@! TD.AperFunction*
G04 #@! TA.AperFunction,SMDPad,CuDef*
G36*
G01*
X135759000Y-83749000D02*
X135259000Y-83749000D01*
G75*
G02*
X135034000Y-83524000I0J225000D01*
G01*
X135034000Y-83074000D01*
G75*
G02*
X135259000Y-82849000I225000J0D01*
G01*
X135759000Y-82849000D01*
G75*
G02*
X135984000Y-83074000I0J-225000D01*
G01*
X135984000Y-83524000D01*
G75*
G02*
X135759000Y-83749000I-225000J0D01*
G01*
G37*
G04 #@! TD.AperFunction*
G04 #@! TA.AperFunction,SMDPad,CuDef*
G36*
G01*
X135759000Y-85299000D02*
X135259000Y-85299000D01*
G75*
G02*
X135034000Y-85074000I0J225000D01*
G01*
X135034000Y-84624000D01*
G75*
G02*
X135259000Y-84399000I225000J0D01*
G01*
X135759000Y-84399000D01*
G75*
G02*
X135984000Y-84624000I0J-225000D01*
G01*
X135984000Y-85074000D01*
G75*
G02*
X135759000Y-85299000I-225000J0D01*
G01*
G37*
G04 #@! TD.AperFunction*
G04 #@! TA.AperFunction,SMDPad,CuDef*
G36*
G01*
X134235000Y-83749000D02*
X133735000Y-83749000D01*
G75*
G02*
X133510000Y-83524000I0J225000D01*
G01*
X133510000Y-83074000D01*
G75*
G02*
X133735000Y-82849000I225000J0D01*
G01*
X134235000Y-82849000D01*
G75*
G02*
X134460000Y-83074000I0J-225000D01*
G01*
X134460000Y-83524000D01*
G75*
G02*
X134235000Y-83749000I-225000J0D01*
G01*
G37*
G04 #@! TD.AperFunction*
G04 #@! TA.AperFunction,SMDPad,CuDef*
G36*
G01*
X134235000Y-85299000D02*
X133735000Y-85299000D01*
G75*
G02*
X133510000Y-85074000I0J225000D01*
G01*
X133510000Y-84624000D01*
G75*
G02*
X133735000Y-84399000I225000J0D01*
G01*
X134235000Y-84399000D01*
G75*
G02*
X134460000Y-84624000I0J-225000D01*
G01*
X134460000Y-85074000D01*
G75*
G02*
X134235000Y-85299000I-225000J0D01*
G01*
G37*
G04 #@! TD.AperFunction*
G04 #@! TA.AperFunction,SMDPad,CuDef*
G36*
G01*
X137762000Y-80571000D02*
X136812000Y-80571000D01*
G75*
G02*
X136562000Y-80321000I0J250000D01*
G01*
X136562000Y-79821000D01*
G75*
G02*
X136812000Y-79571000I250000J0D01*
G01*
X137762000Y-79571000D01*
G75*
G02*
X138012000Y-79821000I0J-250000D01*
G01*
X138012000Y-80321000D01*
G75*
G02*
X137762000Y-80571000I-250000J0D01*
G01*
G37*
G04 #@! TD.AperFunction*
G04 #@! TA.AperFunction,SMDPad,CuDef*
G36*
G01*
X137762000Y-78671000D02*
X136812000Y-78671000D01*
G75*
G02*
X136562000Y-78421000I0J250000D01*
G01*
X136562000Y-77921000D01*
G75*
G02*
X136812000Y-77671000I250000J0D01*
G01*
X137762000Y-77671000D01*
G75*
G02*
X138012000Y-77921000I0J-250000D01*
G01*
X138012000Y-78421000D01*
G75*
G02*
X137762000Y-78671000I-250000J0D01*
G01*
G37*
G04 #@! TD.AperFunction*
G04 #@! TA.AperFunction,SMDPad,CuDef*
G36*
G01*
X135759000Y-78796000D02*
X135259000Y-78796000D01*
G75*
G02*
X135034000Y-78571000I0J225000D01*
G01*
X135034000Y-78121000D01*
G75*
G02*
X135259000Y-77896000I225000J0D01*
G01*
X135759000Y-77896000D01*
G75*
G02*
X135984000Y-78121000I0J-225000D01*
G01*
X135984000Y-78571000D01*
G75*
G02*
X135759000Y-78796000I-225000J0D01*
G01*
G37*
G04 #@! TD.AperFunction*
G04 #@! TA.AperFunction,SMDPad,CuDef*
G36*
G01*
X135759000Y-80346000D02*
X135259000Y-80346000D01*
G75*
G02*
X135034000Y-80121000I0J225000D01*
G01*
X135034000Y-79671000D01*
G75*
G02*
X135259000Y-79446000I225000J0D01*
G01*
X135759000Y-79446000D01*
G75*
G02*
X135984000Y-79671000I0J-225000D01*
G01*
X135984000Y-80121000D01*
G75*
G02*
X135759000Y-80346000I-225000J0D01*
G01*
G37*
G04 #@! TD.AperFunction*
G04 #@! TA.AperFunction,SMDPad,CuDef*
G36*
G01*
X134235000Y-78796000D02*
X133735000Y-78796000D01*
G75*
G02*
X133510000Y-78571000I0J225000D01*
G01*
X133510000Y-78121000D01*
G75*
G02*
X133735000Y-77896000I225000J0D01*
G01*
X134235000Y-77896000D01*
G75*
G02*
X134460000Y-78121000I0J-225000D01*
G01*
X134460000Y-78571000D01*
G75*
G02*
X134235000Y-78796000I-225000J0D01*
G01*
G37*
G04 #@! TD.AperFunction*
G04 #@! TA.AperFunction,SMDPad,CuDef*
G36*
G01*
X134235000Y-80346000D02*
X133735000Y-80346000D01*
G75*
G02*
X133510000Y-80121000I0J225000D01*
G01*
X133510000Y-79671000D01*
G75*
G02*
X133735000Y-79446000I225000J0D01*
G01*
X134235000Y-79446000D01*
G75*
G02*
X134460000Y-79671000I0J-225000D01*
G01*
X134460000Y-80121000D01*
G75*
G02*
X134235000Y-80346000I-225000J0D01*
G01*
G37*
G04 #@! TD.AperFunction*
G04 #@! TA.AperFunction,SMDPad,CuDef*
G36*
G01*
X142871000Y-75012000D02*
X142371000Y-75012000D01*
G75*
G02*
X142146000Y-74787000I0J225000D01*
G01*
X142146000Y-74337000D01*
G75*
G02*
X142371000Y-74112000I225000J0D01*
G01*
X142871000Y-74112000D01*
G75*
G02*
X143096000Y-74337000I0J-225000D01*
G01*
X143096000Y-74787000D01*
G75*
G02*
X142871000Y-75012000I-225000J0D01*
G01*
G37*
G04 #@! TD.AperFunction*
G04 #@! TA.AperFunction,SMDPad,CuDef*
G36*
G01*
X142871000Y-73462000D02*
X142371000Y-73462000D01*
G75*
G02*
X142146000Y-73237000I0J225000D01*
G01*
X142146000Y-72787000D01*
G75*
G02*
X142371000Y-72562000I225000J0D01*
G01*
X142871000Y-72562000D01*
G75*
G02*
X143096000Y-72787000I0J-225000D01*
G01*
X143096000Y-73237000D01*
G75*
G02*
X142871000Y-73462000I-225000J0D01*
G01*
G37*
G04 #@! TD.AperFunction*
G04 #@! TA.AperFunction,SMDPad,CuDef*
G36*
G01*
X136013000Y-66249000D02*
X135513000Y-66249000D01*
G75*
G02*
X135288000Y-66024000I0J225000D01*
G01*
X135288000Y-65574000D01*
G75*
G02*
X135513000Y-65349000I225000J0D01*
G01*
X136013000Y-65349000D01*
G75*
G02*
X136238000Y-65574000I0J-225000D01*
G01*
X136238000Y-66024000D01*
G75*
G02*
X136013000Y-66249000I-225000J0D01*
G01*
G37*
G04 #@! TD.AperFunction*
G04 #@! TA.AperFunction,SMDPad,CuDef*
G36*
G01*
X136013000Y-64699000D02*
X135513000Y-64699000D01*
G75*
G02*
X135288000Y-64474000I0J225000D01*
G01*
X135288000Y-64024000D01*
G75*
G02*
X135513000Y-63799000I225000J0D01*
G01*
X136013000Y-63799000D01*
G75*
G02*
X136238000Y-64024000I0J-225000D01*
G01*
X136238000Y-64474000D01*
G75*
G02*
X136013000Y-64699000I-225000J0D01*
G01*
G37*
G04 #@! TD.AperFunction*
G04 #@! TA.AperFunction,SMDPad,CuDef*
G36*
G01*
X142400000Y-65474000D02*
X143350000Y-65474000D01*
G75*
G02*
X143600000Y-65724000I0J-250000D01*
G01*
X143600000Y-66224000D01*
G75*
G02*
X143350000Y-66474000I-250000J0D01*
G01*
X142400000Y-66474000D01*
G75*
G02*
X142150000Y-66224000I0J250000D01*
G01*
X142150000Y-65724000D01*
G75*
G02*
X142400000Y-65474000I250000J0D01*
G01*
G37*
G04 #@! TD.AperFunction*
G04 #@! TA.AperFunction,SMDPad,CuDef*
G36*
G01*
X142400000Y-63574000D02*
X143350000Y-63574000D01*
G75*
G02*
X143600000Y-63824000I0J-250000D01*
G01*
X143600000Y-64324000D01*
G75*
G02*
X143350000Y-64574000I-250000J0D01*
G01*
X142400000Y-64574000D01*
G75*
G02*
X142150000Y-64324000I0J250000D01*
G01*
X142150000Y-63824000D01*
G75*
G02*
X142400000Y-63574000I250000J0D01*
G01*
G37*
G04 #@! TD.AperFunction*
G04 #@! TA.AperFunction,SMDPad,CuDef*
G36*
G01*
X140417000Y-67568000D02*
X140417000Y-68068000D01*
G75*
G02*
X140192000Y-68293000I-225000J0D01*
G01*
X139742000Y-68293000D01*
G75*
G02*
X139517000Y-68068000I0J225000D01*
G01*
X139517000Y-67568000D01*
G75*
G02*
X139742000Y-67343000I225000J0D01*
G01*
X140192000Y-67343000D01*
G75*
G02*
X140417000Y-67568000I0J-225000D01*
G01*
G37*
G04 #@! TD.AperFunction*
G04 #@! TA.AperFunction,SMDPad,CuDef*
G36*
G01*
X138867000Y-67568000D02*
X138867000Y-68068000D01*
G75*
G02*
X138642000Y-68293000I-225000J0D01*
G01*
X138192000Y-68293000D01*
G75*
G02*
X137967000Y-68068000I0J225000D01*
G01*
X137967000Y-67568000D01*
G75*
G02*
X138192000Y-67343000I225000J0D01*
G01*
X138642000Y-67343000D01*
G75*
G02*
X138867000Y-67568000I0J-225000D01*
G01*
G37*
G04 #@! TD.AperFunction*
D27*
X150114000Y-92710000D03*
D28*
X147574000Y-92710000D03*
D27*
X178054000Y-88392000D03*
D28*
X175514000Y-88392000D03*
X172974000Y-88392000D03*
X170434000Y-88392000D03*
X118732300Y-86880700D03*
D27*
X118732300Y-84340700D03*
D28*
X180086000Y-92202000D03*
X180086000Y-94742000D03*
X180086000Y-97282000D03*
D27*
X180086000Y-99822000D03*
X118740000Y-56390000D03*
D28*
X118740000Y-58930000D03*
X118740000Y-61470000D03*
X118740000Y-64010000D03*
X118740000Y-66550000D03*
X118740000Y-69090000D03*
X118740000Y-71630000D03*
X118740000Y-74170000D03*
X118740000Y-76710000D03*
X118740000Y-79250000D03*
X118745000Y-94488000D03*
D27*
X118745000Y-91948000D03*
X118745000Y-102108000D03*
D28*
X118745000Y-99568000D03*
G04 #@! TA.AperFunction,SMDPad,CuDef*
G36*
G01*
X163343000Y-86697000D02*
X162793000Y-86697000D01*
G75*
G02*
X162593000Y-86497000I0J200000D01*
G01*
X162593000Y-86097000D01*
G75*
G02*
X162793000Y-85897000I200000J0D01*
G01*
X163343000Y-85897000D01*
G75*
G02*
X163543000Y-86097000I0J-200000D01*
G01*
X163543000Y-86497000D01*
G75*
G02*
X163343000Y-86697000I-200000J0D01*
G01*
G37*
G04 #@! TD.AperFunction*
G04 #@! TA.AperFunction,SMDPad,CuDef*
G36*
G01*
X163343000Y-88347000D02*
X162793000Y-88347000D01*
G75*
G02*
X162593000Y-88147000I0J200000D01*
G01*
X162593000Y-87747000D01*
G75*
G02*
X162793000Y-87547000I200000J0D01*
G01*
X163343000Y-87547000D01*
G75*
G02*
X163543000Y-87747000I0J-200000D01*
G01*
X163543000Y-88147000D01*
G75*
G02*
X163343000Y-88347000I-200000J0D01*
G01*
G37*
G04 #@! TD.AperFunction*
G04 #@! TA.AperFunction,SMDPad,CuDef*
G36*
G01*
X167873000Y-104312000D02*
X168423000Y-104312000D01*
G75*
G02*
X168623000Y-104512000I0J-200000D01*
G01*
X168623000Y-104912000D01*
G75*
G02*
X168423000Y-105112000I-200000J0D01*
G01*
X167873000Y-105112000D01*
G75*
G02*
X167673000Y-104912000I0J200000D01*
G01*
X167673000Y-104512000D01*
G75*
G02*
X167873000Y-104312000I200000J0D01*
G01*
G37*
G04 #@! TD.AperFunction*
G04 #@! TA.AperFunction,SMDPad,CuDef*
G36*
G01*
X167873000Y-105962000D02*
X168423000Y-105962000D01*
G75*
G02*
X168623000Y-106162000I0J-200000D01*
G01*
X168623000Y-106562000D01*
G75*
G02*
X168423000Y-106762000I-200000J0D01*
G01*
X167873000Y-106762000D01*
G75*
G02*
X167673000Y-106562000I0J200000D01*
G01*
X167673000Y-106162000D01*
G75*
G02*
X167873000Y-105962000I200000J0D01*
G01*
G37*
G04 #@! TD.AperFunction*
G04 #@! TA.AperFunction,SMDPad,CuDef*
G36*
G01*
X164444000Y-87547000D02*
X164994000Y-87547000D01*
G75*
G02*
X165194000Y-87747000I0J-200000D01*
G01*
X165194000Y-88147000D01*
G75*
G02*
X164994000Y-88347000I-200000J0D01*
G01*
X164444000Y-88347000D01*
G75*
G02*
X164244000Y-88147000I0J200000D01*
G01*
X164244000Y-87747000D01*
G75*
G02*
X164444000Y-87547000I200000J0D01*
G01*
G37*
G04 #@! TD.AperFunction*
G04 #@! TA.AperFunction,SMDPad,CuDef*
G36*
G01*
X164444000Y-85897000D02*
X164994000Y-85897000D01*
G75*
G02*
X165194000Y-86097000I0J-200000D01*
G01*
X165194000Y-86497000D01*
G75*
G02*
X164994000Y-86697000I-200000J0D01*
G01*
X164444000Y-86697000D01*
G75*
G02*
X164244000Y-86497000I0J200000D01*
G01*
X164244000Y-86097000D01*
G75*
G02*
X164444000Y-85897000I200000J0D01*
G01*
G37*
G04 #@! TD.AperFunction*
G04 #@! TA.AperFunction,SMDPad,CuDef*
G36*
G01*
X166772000Y-106762000D02*
X166222000Y-106762000D01*
G75*
G02*
X166022000Y-106562000I0J200000D01*
G01*
X166022000Y-106162000D01*
G75*
G02*
X166222000Y-105962000I200000J0D01*
G01*
X166772000Y-105962000D01*
G75*
G02*
X166972000Y-106162000I0J-200000D01*
G01*
X166972000Y-106562000D01*
G75*
G02*
X166772000Y-106762000I-200000J0D01*
G01*
G37*
G04 #@! TD.AperFunction*
G04 #@! TA.AperFunction,SMDPad,CuDef*
G36*
G01*
X166772000Y-105112000D02*
X166222000Y-105112000D01*
G75*
G02*
X166022000Y-104912000I0J200000D01*
G01*
X166022000Y-104512000D01*
G75*
G02*
X166222000Y-104312000I200000J0D01*
G01*
X166772000Y-104312000D01*
G75*
G02*
X166972000Y-104512000I0J-200000D01*
G01*
X166972000Y-104912000D01*
G75*
G02*
X166772000Y-105112000I-200000J0D01*
G01*
G37*
G04 #@! TD.AperFunction*
G04 #@! TA.AperFunction,SMDPad,CuDef*
G36*
G01*
X161142000Y-87547000D02*
X161692000Y-87547000D01*
G75*
G02*
X161892000Y-87747000I0J-200000D01*
G01*
X161892000Y-88147000D01*
G75*
G02*
X161692000Y-88347000I-200000J0D01*
G01*
X161142000Y-88347000D01*
G75*
G02*
X160942000Y-88147000I0J200000D01*
G01*
X160942000Y-87747000D01*
G75*
G02*
X161142000Y-87547000I200000J0D01*
G01*
G37*
G04 #@! TD.AperFunction*
G04 #@! TA.AperFunction,SMDPad,CuDef*
G36*
G01*
X161142000Y-85897000D02*
X161692000Y-85897000D01*
G75*
G02*
X161892000Y-86097000I0J-200000D01*
G01*
X161892000Y-86497000D01*
G75*
G02*
X161692000Y-86697000I-200000J0D01*
G01*
X161142000Y-86697000D01*
G75*
G02*
X160942000Y-86497000I0J200000D01*
G01*
X160942000Y-86097000D01*
G75*
G02*
X161142000Y-85897000I200000J0D01*
G01*
G37*
G04 #@! TD.AperFunction*
G04 #@! TA.AperFunction,SMDPad,CuDef*
G36*
G01*
X170074000Y-106762000D02*
X169524000Y-106762000D01*
G75*
G02*
X169324000Y-106562000I0J200000D01*
G01*
X169324000Y-106162000D01*
G75*
G02*
X169524000Y-105962000I200000J0D01*
G01*
X170074000Y-105962000D01*
G75*
G02*
X170274000Y-106162000I0J-200000D01*
G01*
X170274000Y-106562000D01*
G75*
G02*
X170074000Y-106762000I-200000J0D01*
G01*
G37*
G04 #@! TD.AperFunction*
G04 #@! TA.AperFunction,SMDPad,CuDef*
G36*
G01*
X170074000Y-105112000D02*
X169524000Y-105112000D01*
G75*
G02*
X169324000Y-104912000I0J200000D01*
G01*
X169324000Y-104512000D01*
G75*
G02*
X169524000Y-104312000I200000J0D01*
G01*
X170074000Y-104312000D01*
G75*
G02*
X170274000Y-104512000I0J-200000D01*
G01*
X170274000Y-104912000D01*
G75*
G02*
X170074000Y-105112000I-200000J0D01*
G01*
G37*
G04 #@! TD.AperFunction*
G04 #@! TA.AperFunction,SMDPad,CuDef*
G36*
G01*
X149852001Y-88667000D02*
X149852001Y-88117000D01*
G75*
G02*
X150052001Y-87917000I200000J0D01*
G01*
X150452001Y-87917000D01*
G75*
G02*
X150652001Y-88117000I0J-200000D01*
G01*
X150652001Y-88667000D01*
G75*
G02*
X150452001Y-88867000I-200000J0D01*
G01*
X150052001Y-88867000D01*
G75*
G02*
X149852001Y-88667000I0J200000D01*
G01*
G37*
G04 #@! TD.AperFunction*
G04 #@! TA.AperFunction,SMDPad,CuDef*
G36*
G01*
X151502001Y-88667000D02*
X151502001Y-88117000D01*
G75*
G02*
X151702001Y-87917000I200000J0D01*
G01*
X152102001Y-87917000D01*
G75*
G02*
X152302001Y-88117000I0J-200000D01*
G01*
X152302001Y-88667000D01*
G75*
G02*
X152102001Y-88867000I-200000J0D01*
G01*
X151702001Y-88867000D01*
G75*
G02*
X151502001Y-88667000I0J200000D01*
G01*
G37*
G04 #@! TD.AperFunction*
G04 #@! TA.AperFunction,SMDPad,CuDef*
G36*
G01*
X152506000Y-96818000D02*
X153056000Y-96818000D01*
G75*
G02*
X153256000Y-97018000I0J-200000D01*
G01*
X153256000Y-97418000D01*
G75*
G02*
X153056000Y-97618000I-200000J0D01*
G01*
X152506000Y-97618000D01*
G75*
G02*
X152306000Y-97418000I0J200000D01*
G01*
X152306000Y-97018000D01*
G75*
G02*
X152506000Y-96818000I200000J0D01*
G01*
G37*
G04 #@! TD.AperFunction*
G04 #@! TA.AperFunction,SMDPad,CuDef*
G36*
G01*
X152506000Y-95168000D02*
X153056000Y-95168000D01*
G75*
G02*
X153256000Y-95368000I0J-200000D01*
G01*
X153256000Y-95768000D01*
G75*
G02*
X153056000Y-95968000I-200000J0D01*
G01*
X152506000Y-95968000D01*
G75*
G02*
X152306000Y-95768000I0J200000D01*
G01*
X152306000Y-95368000D01*
G75*
G02*
X152506000Y-95168000I200000J0D01*
G01*
G37*
G04 #@! TD.AperFunction*
G04 #@! TA.AperFunction,SMDPad,CuDef*
G36*
G01*
X172595999Y-77195000D02*
X172595999Y-77745000D01*
G75*
G02*
X172395999Y-77945000I-200000J0D01*
G01*
X171995999Y-77945000D01*
G75*
G02*
X171795999Y-77745000I0J200000D01*
G01*
X171795999Y-77195000D01*
G75*
G02*
X171995999Y-76995000I200000J0D01*
G01*
X172395999Y-76995000D01*
G75*
G02*
X172595999Y-77195000I0J-200000D01*
G01*
G37*
G04 #@! TD.AperFunction*
G04 #@! TA.AperFunction,SMDPad,CuDef*
G36*
G01*
X174245999Y-77195000D02*
X174245999Y-77745000D01*
G75*
G02*
X174045999Y-77945000I-200000J0D01*
G01*
X173645999Y-77945000D01*
G75*
G02*
X173445999Y-77745000I0J200000D01*
G01*
X173445999Y-77195000D01*
G75*
G02*
X173645999Y-76995000I200000J0D01*
G01*
X174045999Y-76995000D01*
G75*
G02*
X174245999Y-77195000I0J-200000D01*
G01*
G37*
G04 #@! TD.AperFunction*
G04 #@! TA.AperFunction,SMDPad,CuDef*
G36*
G01*
X172595999Y-75498999D02*
X172595999Y-76048999D01*
G75*
G02*
X172395999Y-76248999I-200000J0D01*
G01*
X171995999Y-76248999D01*
G75*
G02*
X171795999Y-76048999I0J200000D01*
G01*
X171795999Y-75498999D01*
G75*
G02*
X171995999Y-75298999I200000J0D01*
G01*
X172395999Y-75298999D01*
G75*
G02*
X172595999Y-75498999I0J-200000D01*
G01*
G37*
G04 #@! TD.AperFunction*
G04 #@! TA.AperFunction,SMDPad,CuDef*
G36*
G01*
X174245999Y-75498999D02*
X174245999Y-76048999D01*
G75*
G02*
X174045999Y-76248999I-200000J0D01*
G01*
X173645999Y-76248999D01*
G75*
G02*
X173445999Y-76048999I0J200000D01*
G01*
X173445999Y-75498999D01*
G75*
G02*
X173645999Y-75298999I200000J0D01*
G01*
X174045999Y-75298999D01*
G75*
G02*
X174245999Y-75498999I0J-200000D01*
G01*
G37*
G04 #@! TD.AperFunction*
G04 #@! TA.AperFunction,SMDPad,CuDef*
G36*
G01*
X164675000Y-109961000D02*
X164675000Y-110511000D01*
G75*
G02*
X164475000Y-110711000I-200000J0D01*
G01*
X164075000Y-110711000D01*
G75*
G02*
X163875000Y-110511000I0J200000D01*
G01*
X163875000Y-109961000D01*
G75*
G02*
X164075000Y-109761000I200000J0D01*
G01*
X164475000Y-109761000D01*
G75*
G02*
X164675000Y-109961000I0J-200000D01*
G01*
G37*
G04 #@! TD.AperFunction*
G04 #@! TA.AperFunction,SMDPad,CuDef*
G36*
G01*
X166325000Y-109961000D02*
X166325000Y-110511000D01*
G75*
G02*
X166125000Y-110711000I-200000J0D01*
G01*
X165725000Y-110711000D01*
G75*
G02*
X165525000Y-110511000I0J200000D01*
G01*
X165525000Y-109961000D01*
G75*
G02*
X165725000Y-109761000I200000J0D01*
G01*
X166125000Y-109761000D01*
G75*
G02*
X166325000Y-109961000I0J-200000D01*
G01*
G37*
G04 #@! TD.AperFunction*
G04 #@! TA.AperFunction,SMDPad,CuDef*
G36*
G01*
X168865000Y-108183000D02*
X168865000Y-108733000D01*
G75*
G02*
X168665000Y-108933000I-200000J0D01*
G01*
X168265000Y-108933000D01*
G75*
G02*
X168065000Y-108733000I0J200000D01*
G01*
X168065000Y-108183000D01*
G75*
G02*
X168265000Y-107983000I200000J0D01*
G01*
X168665000Y-107983000D01*
G75*
G02*
X168865000Y-108183000I0J-200000D01*
G01*
G37*
G04 #@! TD.AperFunction*
G04 #@! TA.AperFunction,SMDPad,CuDef*
G36*
G01*
X167215000Y-108183000D02*
X167215000Y-108733000D01*
G75*
G02*
X167015000Y-108933000I-200000J0D01*
G01*
X166615000Y-108933000D01*
G75*
G02*
X166415000Y-108733000I0J200000D01*
G01*
X166415000Y-108183000D01*
G75*
G02*
X166615000Y-107983000I200000J0D01*
G01*
X167015000Y-107983000D01*
G75*
G02*
X167215000Y-108183000I0J-200000D01*
G01*
G37*
G04 #@! TD.AperFunction*
G04 #@! TA.AperFunction,SMDPad,CuDef*
G36*
G01*
X156889000Y-108987000D02*
X156889000Y-108437000D01*
G75*
G02*
X157089000Y-108237000I200000J0D01*
G01*
X157489000Y-108237000D01*
G75*
G02*
X157689000Y-108437000I0J-200000D01*
G01*
X157689000Y-108987000D01*
G75*
G02*
X157489000Y-109187000I-200000J0D01*
G01*
X157089000Y-109187000D01*
G75*
G02*
X156889000Y-108987000I0J200000D01*
G01*
G37*
G04 #@! TD.AperFunction*
G04 #@! TA.AperFunction,SMDPad,CuDef*
G36*
G01*
X155239000Y-108987000D02*
X155239000Y-108437000D01*
G75*
G02*
X155439000Y-108237000I200000J0D01*
G01*
X155839000Y-108237000D01*
G75*
G02*
X156039000Y-108437000I0J-200000D01*
G01*
X156039000Y-108987000D01*
G75*
G02*
X155839000Y-109187000I-200000J0D01*
G01*
X155439000Y-109187000D01*
G75*
G02*
X155239000Y-108987000I0J200000D01*
G01*
G37*
G04 #@! TD.AperFunction*
G04 #@! TA.AperFunction,SMDPad,CuDef*
G36*
G01*
X155239000Y-107336000D02*
X155239000Y-106786000D01*
G75*
G02*
X155439000Y-106586000I200000J0D01*
G01*
X155839000Y-106586000D01*
G75*
G02*
X156039000Y-106786000I0J-200000D01*
G01*
X156039000Y-107336000D01*
G75*
G02*
X155839000Y-107536000I-200000J0D01*
G01*
X155439000Y-107536000D01*
G75*
G02*
X155239000Y-107336000I0J200000D01*
G01*
G37*
G04 #@! TD.AperFunction*
G04 #@! TA.AperFunction,SMDPad,CuDef*
G36*
G01*
X156889000Y-107336000D02*
X156889000Y-106786000D01*
G75*
G02*
X157089000Y-106586000I200000J0D01*
G01*
X157489000Y-106586000D01*
G75*
G02*
X157689000Y-106786000I0J-200000D01*
G01*
X157689000Y-107336000D01*
G75*
G02*
X157489000Y-107536000I-200000J0D01*
G01*
X157089000Y-107536000D01*
G75*
G02*
X156889000Y-107336000I0J200000D01*
G01*
G37*
G04 #@! TD.AperFunction*
G04 #@! TA.AperFunction,SMDPad,CuDef*
G36*
G01*
X159618000Y-105581000D02*
X160168000Y-105581000D01*
G75*
G02*
X160368000Y-105781000I0J-200000D01*
G01*
X160368000Y-106181000D01*
G75*
G02*
X160168000Y-106381000I-200000J0D01*
G01*
X159618000Y-106381000D01*
G75*
G02*
X159418000Y-106181000I0J200000D01*
G01*
X159418000Y-105781000D01*
G75*
G02*
X159618000Y-105581000I200000J0D01*
G01*
G37*
G04 #@! TD.AperFunction*
G04 #@! TA.AperFunction,SMDPad,CuDef*
G36*
G01*
X159618000Y-103931000D02*
X160168000Y-103931000D01*
G75*
G02*
X160368000Y-104131000I0J-200000D01*
G01*
X160368000Y-104531000D01*
G75*
G02*
X160168000Y-104731000I-200000J0D01*
G01*
X159618000Y-104731000D01*
G75*
G02*
X159418000Y-104531000I0J200000D01*
G01*
X159418000Y-104131000D01*
G75*
G02*
X159618000Y-103931000I200000J0D01*
G01*
G37*
G04 #@! TD.AperFunction*
G04 #@! TA.AperFunction,SMDPad,CuDef*
G36*
G01*
X153056000Y-85680000D02*
X152506000Y-85680000D01*
G75*
G02*
X152306000Y-85480000I0J200000D01*
G01*
X152306000Y-85080000D01*
G75*
G02*
X152506000Y-84880000I200000J0D01*
G01*
X153056000Y-84880000D01*
G75*
G02*
X153256000Y-85080000I0J-200000D01*
G01*
X153256000Y-85480000D01*
G75*
G02*
X153056000Y-85680000I-200000J0D01*
G01*
G37*
G04 #@! TD.AperFunction*
G04 #@! TA.AperFunction,SMDPad,CuDef*
G36*
G01*
X153056000Y-84030000D02*
X152506000Y-84030000D01*
G75*
G02*
X152306000Y-83830000I0J200000D01*
G01*
X152306000Y-83430000D01*
G75*
G02*
X152506000Y-83230000I200000J0D01*
G01*
X153056000Y-83230000D01*
G75*
G02*
X153256000Y-83430000I0J-200000D01*
G01*
X153256000Y-83830000D01*
G75*
G02*
X153056000Y-84030000I-200000J0D01*
G01*
G37*
G04 #@! TD.AperFunction*
G04 #@! TA.AperFunction,SMDPad,CuDef*
G36*
G01*
X149904000Y-81428000D02*
X149904000Y-80878000D01*
G75*
G02*
X150104000Y-80678000I200000J0D01*
G01*
X150504000Y-80678000D01*
G75*
G02*
X150704000Y-80878000I0J-200000D01*
G01*
X150704000Y-81428000D01*
G75*
G02*
X150504000Y-81628000I-200000J0D01*
G01*
X150104000Y-81628000D01*
G75*
G02*
X149904000Y-81428000I0J200000D01*
G01*
G37*
G04 #@! TD.AperFunction*
G04 #@! TA.AperFunction,SMDPad,CuDef*
G36*
G01*
X148254000Y-81428000D02*
X148254000Y-80878000D01*
G75*
G02*
X148454000Y-80678000I200000J0D01*
G01*
X148854000Y-80678000D01*
G75*
G02*
X149054000Y-80878000I0J-200000D01*
G01*
X149054000Y-81428000D01*
G75*
G02*
X148854000Y-81628000I-200000J0D01*
G01*
X148454000Y-81628000D01*
G75*
G02*
X148254000Y-81428000I0J200000D01*
G01*
G37*
G04 #@! TD.AperFunction*
G04 #@! TA.AperFunction,SMDPad,CuDef*
G36*
G01*
X157271000Y-83587000D02*
X157271000Y-83037000D01*
G75*
G02*
X157471000Y-82837000I200000J0D01*
G01*
X157871000Y-82837000D01*
G75*
G02*
X158071000Y-83037000I0J-200000D01*
G01*
X158071000Y-83587000D01*
G75*
G02*
X157871000Y-83787000I-200000J0D01*
G01*
X157471000Y-83787000D01*
G75*
G02*
X157271000Y-83587000I0J200000D01*
G01*
G37*
G04 #@! TD.AperFunction*
G04 #@! TA.AperFunction,SMDPad,CuDef*
G36*
G01*
X158921000Y-83587000D02*
X158921000Y-83037000D01*
G75*
G02*
X159121000Y-82837000I200000J0D01*
G01*
X159521000Y-82837000D01*
G75*
G02*
X159721000Y-83037000I0J-200000D01*
G01*
X159721000Y-83587000D01*
G75*
G02*
X159521000Y-83787000I-200000J0D01*
G01*
X159121000Y-83787000D01*
G75*
G02*
X158921000Y-83587000I0J200000D01*
G01*
G37*
G04 #@! TD.AperFunction*
G04 #@! TA.AperFunction,SMDPad,CuDef*
G36*
G01*
X152863000Y-118089000D02*
X152863000Y-118639000D01*
G75*
G02*
X152663000Y-118839000I-200000J0D01*
G01*
X152263000Y-118839000D01*
G75*
G02*
X152063000Y-118639000I0J200000D01*
G01*
X152063000Y-118089000D01*
G75*
G02*
X152263000Y-117889000I200000J0D01*
G01*
X152663000Y-117889000D01*
G75*
G02*
X152863000Y-118089000I0J-200000D01*
G01*
G37*
G04 #@! TD.AperFunction*
G04 #@! TA.AperFunction,SMDPad,CuDef*
G36*
G01*
X151213000Y-118089000D02*
X151213000Y-118639000D01*
G75*
G02*
X151013000Y-118839000I-200000J0D01*
G01*
X150613000Y-118839000D01*
G75*
G02*
X150413000Y-118639000I0J200000D01*
G01*
X150413000Y-118089000D01*
G75*
G02*
X150613000Y-117889000I200000J0D01*
G01*
X151013000Y-117889000D01*
G75*
G02*
X151213000Y-118089000I0J-200000D01*
G01*
G37*
G04 #@! TD.AperFunction*
G04 #@! TA.AperFunction,SMDPad,CuDef*
G36*
G01*
X159491000Y-119805000D02*
X160041000Y-119805000D01*
G75*
G02*
X160241000Y-120005000I0J-200000D01*
G01*
X160241000Y-120405000D01*
G75*
G02*
X160041000Y-120605000I-200000J0D01*
G01*
X159491000Y-120605000D01*
G75*
G02*
X159291000Y-120405000I0J200000D01*
G01*
X159291000Y-120005000D01*
G75*
G02*
X159491000Y-119805000I200000J0D01*
G01*
G37*
G04 #@! TD.AperFunction*
G04 #@! TA.AperFunction,SMDPad,CuDef*
G36*
G01*
X159491000Y-118155000D02*
X160041000Y-118155000D01*
G75*
G02*
X160241000Y-118355000I0J-200000D01*
G01*
X160241000Y-118755000D01*
G75*
G02*
X160041000Y-118955000I-200000J0D01*
G01*
X159491000Y-118955000D01*
G75*
G02*
X159291000Y-118755000I0J200000D01*
G01*
X159291000Y-118355000D01*
G75*
G02*
X159491000Y-118155000I200000J0D01*
G01*
G37*
G04 #@! TD.AperFunction*
G04 #@! TA.AperFunction,SMDPad,CuDef*
G36*
G01*
X163875000Y-115337000D02*
X163875000Y-114787000D01*
G75*
G02*
X164075000Y-114587000I200000J0D01*
G01*
X164475000Y-114587000D01*
G75*
G02*
X164675000Y-114787000I0J-200000D01*
G01*
X164675000Y-115337000D01*
G75*
G02*
X164475000Y-115537000I-200000J0D01*
G01*
X164075000Y-115537000D01*
G75*
G02*
X163875000Y-115337000I0J200000D01*
G01*
G37*
G04 #@! TD.AperFunction*
G04 #@! TA.AperFunction,SMDPad,CuDef*
G36*
G01*
X165525000Y-115337000D02*
X165525000Y-114787000D01*
G75*
G02*
X165725000Y-114587000I200000J0D01*
G01*
X166125000Y-114587000D01*
G75*
G02*
X166325000Y-114787000I0J-200000D01*
G01*
X166325000Y-115337000D01*
G75*
G02*
X166125000Y-115537000I-200000J0D01*
G01*
X165725000Y-115537000D01*
G75*
G02*
X165525000Y-115337000I0J200000D01*
G01*
G37*
G04 #@! TD.AperFunction*
G04 #@! TA.AperFunction,SMDPad,CuDef*
G36*
G01*
X152063000Y-120417000D02*
X152063000Y-119867000D01*
G75*
G02*
X152263000Y-119667000I200000J0D01*
G01*
X152663000Y-119667000D01*
G75*
G02*
X152863000Y-119867000I0J-200000D01*
G01*
X152863000Y-120417000D01*
G75*
G02*
X152663000Y-120617000I-200000J0D01*
G01*
X152263000Y-120617000D01*
G75*
G02*
X152063000Y-120417000I0J200000D01*
G01*
G37*
G04 #@! TD.AperFunction*
G04 #@! TA.AperFunction,SMDPad,CuDef*
G36*
G01*
X150413000Y-120417000D02*
X150413000Y-119867000D01*
G75*
G02*
X150613000Y-119667000I200000J0D01*
G01*
X151013000Y-119667000D01*
G75*
G02*
X151213000Y-119867000I0J-200000D01*
G01*
X151213000Y-120417000D01*
G75*
G02*
X151013000Y-120617000I-200000J0D01*
G01*
X150613000Y-120617000D01*
G75*
G02*
X150413000Y-120417000I0J200000D01*
G01*
G37*
G04 #@! TD.AperFunction*
G04 #@! TA.AperFunction,SMDPad,CuDef*
G36*
G01*
X153625000Y-114279000D02*
X153625000Y-114829000D01*
G75*
G02*
X153425000Y-115029000I-200000J0D01*
G01*
X153025000Y-115029000D01*
G75*
G02*
X152825000Y-114829000I0J200000D01*
G01*
X152825000Y-114279000D01*
G75*
G02*
X153025000Y-114079000I200000J0D01*
G01*
X153425000Y-114079000D01*
G75*
G02*
X153625000Y-114279000I0J-200000D01*
G01*
G37*
G04 #@! TD.AperFunction*
G04 #@! TA.AperFunction,SMDPad,CuDef*
G36*
G01*
X151975000Y-114279000D02*
X151975000Y-114829000D01*
G75*
G02*
X151775000Y-115029000I-200000J0D01*
G01*
X151375000Y-115029000D01*
G75*
G02*
X151175000Y-114829000I0J200000D01*
G01*
X151175000Y-114279000D01*
G75*
G02*
X151375000Y-114079000I200000J0D01*
G01*
X151775000Y-114079000D01*
G75*
G02*
X151975000Y-114279000I0J-200000D01*
G01*
G37*
G04 #@! TD.AperFunction*
G04 #@! TA.AperFunction,SMDPad,CuDef*
G36*
G01*
X157459000Y-118155000D02*
X158009000Y-118155000D01*
G75*
G02*
X158209000Y-118355000I0J-200000D01*
G01*
X158209000Y-118755000D01*
G75*
G02*
X158009000Y-118955000I-200000J0D01*
G01*
X157459000Y-118955000D01*
G75*
G02*
X157259000Y-118755000I0J200000D01*
G01*
X157259000Y-118355000D01*
G75*
G02*
X157459000Y-118155000I200000J0D01*
G01*
G37*
G04 #@! TD.AperFunction*
G04 #@! TA.AperFunction,SMDPad,CuDef*
G36*
G01*
X157459000Y-119805000D02*
X158009000Y-119805000D01*
G75*
G02*
X158209000Y-120005000I0J-200000D01*
G01*
X158209000Y-120405000D01*
G75*
G02*
X158009000Y-120605000I-200000J0D01*
G01*
X157459000Y-120605000D01*
G75*
G02*
X157259000Y-120405000I0J200000D01*
G01*
X157259000Y-120005000D01*
G75*
G02*
X157459000Y-119805000I200000J0D01*
G01*
G37*
G04 #@! TD.AperFunction*
G04 #@! TA.AperFunction,SMDPad,CuDef*
G36*
G01*
X147784000Y-107675000D02*
X147784000Y-108225000D01*
G75*
G02*
X147584000Y-108425000I-200000J0D01*
G01*
X147184000Y-108425000D01*
G75*
G02*
X146984000Y-108225000I0J200000D01*
G01*
X146984000Y-107675000D01*
G75*
G02*
X147184000Y-107475000I200000J0D01*
G01*
X147584000Y-107475000D01*
G75*
G02*
X147784000Y-107675000I0J-200000D01*
G01*
G37*
G04 #@! TD.AperFunction*
G04 #@! TA.AperFunction,SMDPad,CuDef*
G36*
G01*
X149434000Y-107675000D02*
X149434000Y-108225000D01*
G75*
G02*
X149234000Y-108425000I-200000J0D01*
G01*
X148834000Y-108425000D01*
G75*
G02*
X148634000Y-108225000I0J200000D01*
G01*
X148634000Y-107675000D01*
G75*
G02*
X148834000Y-107475000I200000J0D01*
G01*
X149234000Y-107475000D01*
G75*
G02*
X149434000Y-107675000I0J-200000D01*
G01*
G37*
G04 #@! TD.AperFunction*
G04 #@! TA.AperFunction,SMDPad,CuDef*
G36*
G01*
X149434000Y-109453000D02*
X149434000Y-110003000D01*
G75*
G02*
X149234000Y-110203000I-200000J0D01*
G01*
X148834000Y-110203000D01*
G75*
G02*
X148634000Y-110003000I0J200000D01*
G01*
X148634000Y-109453000D01*
G75*
G02*
X148834000Y-109253000I200000J0D01*
G01*
X149234000Y-109253000D01*
G75*
G02*
X149434000Y-109453000I0J-200000D01*
G01*
G37*
G04 #@! TD.AperFunction*
G04 #@! TA.AperFunction,SMDPad,CuDef*
G36*
G01*
X147784000Y-109453000D02*
X147784000Y-110003000D01*
G75*
G02*
X147584000Y-110203000I-200000J0D01*
G01*
X147184000Y-110203000D01*
G75*
G02*
X146984000Y-110003000I0J200000D01*
G01*
X146984000Y-109453000D01*
G75*
G02*
X147184000Y-109253000I200000J0D01*
G01*
X147584000Y-109253000D01*
G75*
G02*
X147784000Y-109453000I0J-200000D01*
G01*
G37*
G04 #@! TD.AperFunction*
G04 #@! TA.AperFunction,SMDPad,CuDef*
G36*
G01*
X152825000Y-111781000D02*
X152825000Y-111231000D01*
G75*
G02*
X153025000Y-111031000I200000J0D01*
G01*
X153425000Y-111031000D01*
G75*
G02*
X153625000Y-111231000I0J-200000D01*
G01*
X153625000Y-111781000D01*
G75*
G02*
X153425000Y-111981000I-200000J0D01*
G01*
X153025000Y-111981000D01*
G75*
G02*
X152825000Y-111781000I0J200000D01*
G01*
G37*
G04 #@! TD.AperFunction*
G04 #@! TA.AperFunction,SMDPad,CuDef*
G36*
G01*
X151175000Y-111781000D02*
X151175000Y-111231000D01*
G75*
G02*
X151375000Y-111031000I200000J0D01*
G01*
X151775000Y-111031000D01*
G75*
G02*
X151975000Y-111231000I0J-200000D01*
G01*
X151975000Y-111781000D01*
G75*
G02*
X151775000Y-111981000I-200000J0D01*
G01*
X151375000Y-111981000D01*
G75*
G02*
X151175000Y-111781000I0J200000D01*
G01*
G37*
G04 #@! TD.AperFunction*
G04 #@! TA.AperFunction,SMDPad,CuDef*
G36*
G01*
X169173998Y-68079000D02*
X170424002Y-68079000D01*
G75*
G02*
X170674000Y-68328998I0J-249998D01*
G01*
X170674000Y-68954002D01*
G75*
G02*
X170424002Y-69204000I-249998J0D01*
G01*
X169173998Y-69204000D01*
G75*
G02*
X168924000Y-68954002I0J249998D01*
G01*
X168924000Y-68328998D01*
G75*
G02*
X169173998Y-68079000I249998J0D01*
G01*
G37*
G04 #@! TD.AperFunction*
G04 #@! TA.AperFunction,SMDPad,CuDef*
G36*
G01*
X169173998Y-71004000D02*
X170424002Y-71004000D01*
G75*
G02*
X170674000Y-71253998I0J-249998D01*
G01*
X170674000Y-71879002D01*
G75*
G02*
X170424002Y-72129000I-249998J0D01*
G01*
X169173998Y-72129000D01*
G75*
G02*
X168924000Y-71879002I0J249998D01*
G01*
X168924000Y-71253998D01*
G75*
G02*
X169173998Y-71004000I249998J0D01*
G01*
G37*
G04 #@! TD.AperFunction*
G04 #@! TA.AperFunction,SMDPad,CuDef*
G36*
G01*
X183240000Y-72054000D02*
X183790000Y-72054000D01*
G75*
G02*
X183990000Y-72254000I0J-200000D01*
G01*
X183990000Y-72654000D01*
G75*
G02*
X183790000Y-72854000I-200000J0D01*
G01*
X183240000Y-72854000D01*
G75*
G02*
X183040000Y-72654000I0J200000D01*
G01*
X183040000Y-72254000D01*
G75*
G02*
X183240000Y-72054000I200000J0D01*
G01*
G37*
G04 #@! TD.AperFunction*
G04 #@! TA.AperFunction,SMDPad,CuDef*
G36*
G01*
X183240000Y-73704000D02*
X183790000Y-73704000D01*
G75*
G02*
X183990000Y-73904000I0J-200000D01*
G01*
X183990000Y-74304000D01*
G75*
G02*
X183790000Y-74504000I-200000J0D01*
G01*
X183240000Y-74504000D01*
G75*
G02*
X183040000Y-74304000I0J200000D01*
G01*
X183040000Y-73904000D01*
G75*
G02*
X183240000Y-73704000I200000J0D01*
G01*
G37*
G04 #@! TD.AperFunction*
G04 #@! TA.AperFunction,SMDPad,CuDef*
G36*
G01*
X182139000Y-72854000D02*
X181589000Y-72854000D01*
G75*
G02*
X181389000Y-72654000I0J200000D01*
G01*
X181389000Y-72254000D01*
G75*
G02*
X181589000Y-72054000I200000J0D01*
G01*
X182139000Y-72054000D01*
G75*
G02*
X182339000Y-72254000I0J-200000D01*
G01*
X182339000Y-72654000D01*
G75*
G02*
X182139000Y-72854000I-200000J0D01*
G01*
G37*
G04 #@! TD.AperFunction*
G04 #@! TA.AperFunction,SMDPad,CuDef*
G36*
G01*
X182139000Y-74504000D02*
X181589000Y-74504000D01*
G75*
G02*
X181389000Y-74304000I0J200000D01*
G01*
X181389000Y-73904000D01*
G75*
G02*
X181589000Y-73704000I200000J0D01*
G01*
X182139000Y-73704000D01*
G75*
G02*
X182339000Y-73904000I0J-200000D01*
G01*
X182339000Y-74304000D01*
G75*
G02*
X182139000Y-74504000I-200000J0D01*
G01*
G37*
G04 #@! TD.AperFunction*
G04 #@! TA.AperFunction,SMDPad,CuDef*
G36*
G01*
X146960000Y-58883000D02*
X146410000Y-58883000D01*
G75*
G02*
X146210000Y-58683000I0J200000D01*
G01*
X146210000Y-58283000D01*
G75*
G02*
X146410000Y-58083000I200000J0D01*
G01*
X146960000Y-58083000D01*
G75*
G02*
X147160000Y-58283000I0J-200000D01*
G01*
X147160000Y-58683000D01*
G75*
G02*
X146960000Y-58883000I-200000J0D01*
G01*
G37*
G04 #@! TD.AperFunction*
G04 #@! TA.AperFunction,SMDPad,CuDef*
G36*
G01*
X146960000Y-57233000D02*
X146410000Y-57233000D01*
G75*
G02*
X146210000Y-57033000I0J200000D01*
G01*
X146210000Y-56633000D01*
G75*
G02*
X146410000Y-56433000I200000J0D01*
G01*
X146960000Y-56433000D01*
G75*
G02*
X147160000Y-56633000I0J-200000D01*
G01*
X147160000Y-57033000D01*
G75*
G02*
X146960000Y-57233000I-200000J0D01*
G01*
G37*
G04 #@! TD.AperFunction*
G04 #@! TA.AperFunction,SMDPad,CuDef*
G36*
G01*
X142538000Y-56536000D02*
X142538000Y-55986000D01*
G75*
G02*
X142738000Y-55786000I200000J0D01*
G01*
X143138000Y-55786000D01*
G75*
G02*
X143338000Y-55986000I0J-200000D01*
G01*
X143338000Y-56536000D01*
G75*
G02*
X143138000Y-56736000I-200000J0D01*
G01*
X142738000Y-56736000D01*
G75*
G02*
X142538000Y-56536000I0J200000D01*
G01*
G37*
G04 #@! TD.AperFunction*
G04 #@! TA.AperFunction,SMDPad,CuDef*
G36*
G01*
X140888000Y-56536000D02*
X140888000Y-55986000D01*
G75*
G02*
X141088000Y-55786000I200000J0D01*
G01*
X141488000Y-55786000D01*
G75*
G02*
X141688000Y-55986000I0J-200000D01*
G01*
X141688000Y-56536000D01*
G75*
G02*
X141488000Y-56736000I-200000J0D01*
G01*
X141088000Y-56736000D01*
G75*
G02*
X140888000Y-56536000I0J200000D01*
G01*
G37*
G04 #@! TD.AperFunction*
G04 #@! TA.AperFunction,SMDPad,CuDef*
G36*
G01*
X137623000Y-58653000D02*
X137623000Y-59203000D01*
G75*
G02*
X137423000Y-59403000I-200000J0D01*
G01*
X137023000Y-59403000D01*
G75*
G02*
X136823000Y-59203000I0J200000D01*
G01*
X136823000Y-58653000D01*
G75*
G02*
X137023000Y-58453000I200000J0D01*
G01*
X137423000Y-58453000D01*
G75*
G02*
X137623000Y-58653000I0J-200000D01*
G01*
G37*
G04 #@! TD.AperFunction*
G04 #@! TA.AperFunction,SMDPad,CuDef*
G36*
G01*
X135973000Y-58653000D02*
X135973000Y-59203000D01*
G75*
G02*
X135773000Y-59403000I-200000J0D01*
G01*
X135373000Y-59403000D01*
G75*
G02*
X135173000Y-59203000I0J200000D01*
G01*
X135173000Y-58653000D01*
G75*
G02*
X135373000Y-58453000I200000J0D01*
G01*
X135773000Y-58453000D01*
G75*
G02*
X135973000Y-58653000I0J-200000D01*
G01*
G37*
G04 #@! TD.AperFunction*
D22*
X137842000Y-72837000D03*
X137842000Y-73787000D03*
X137842000Y-74737000D03*
X140542000Y-74737000D03*
X140542000Y-72837000D03*
G04 #@! TA.AperFunction,SMDPad,CuDef*
G36*
G01*
X186687750Y-79039000D02*
X187200250Y-79039000D01*
G75*
G02*
X187419000Y-79257750I0J-218750D01*
G01*
X187419000Y-79695250D01*
G75*
G02*
X187200250Y-79914000I-218750J0D01*
G01*
X186687750Y-79914000D01*
G75*
G02*
X186469000Y-79695250I0J218750D01*
G01*
X186469000Y-79257750D01*
G75*
G02*
X186687750Y-79039000I218750J0D01*
G01*
G37*
G04 #@! TD.AperFunction*
G04 #@! TA.AperFunction,SMDPad,CuDef*
G36*
G01*
X186687750Y-80614000D02*
X187200250Y-80614000D01*
G75*
G02*
X187419000Y-80832750I0J-218750D01*
G01*
X187419000Y-81270250D01*
G75*
G02*
X187200250Y-81489000I-218750J0D01*
G01*
X186687750Y-81489000D01*
G75*
G02*
X186469000Y-81270250I0J218750D01*
G01*
X186469000Y-80832750D01*
G75*
G02*
X186687750Y-80614000I218750J0D01*
G01*
G37*
G04 #@! TD.AperFunction*
G04 #@! TA.AperFunction,SMDPad,CuDef*
G36*
G01*
X181452000Y-84330250D02*
X181452000Y-83817750D01*
G75*
G02*
X181670750Y-83599000I218750J0D01*
G01*
X182108250Y-83599000D01*
G75*
G02*
X182327000Y-83817750I0J-218750D01*
G01*
X182327000Y-84330250D01*
G75*
G02*
X182108250Y-84549000I-218750J0D01*
G01*
X181670750Y-84549000D01*
G75*
G02*
X181452000Y-84330250I0J218750D01*
G01*
G37*
G04 #@! TD.AperFunction*
G04 #@! TA.AperFunction,SMDPad,CuDef*
G36*
G01*
X179877000Y-84330250D02*
X179877000Y-83817750D01*
G75*
G02*
X180095750Y-83599000I218750J0D01*
G01*
X180533250Y-83599000D01*
G75*
G02*
X180752000Y-83817750I0J-218750D01*
G01*
X180752000Y-84330250D01*
G75*
G02*
X180533250Y-84549000I-218750J0D01*
G01*
X180095750Y-84549000D01*
G75*
G02*
X179877000Y-84330250I0J218750D01*
G01*
G37*
G04 #@! TD.AperFunction*
G04 #@! TA.AperFunction,SMDPad,CuDef*
G36*
G01*
X179877000Y-82552250D02*
X179877000Y-82039750D01*
G75*
G02*
X180095750Y-81821000I218750J0D01*
G01*
X180533250Y-81821000D01*
G75*
G02*
X180752000Y-82039750I0J-218750D01*
G01*
X180752000Y-82552250D01*
G75*
G02*
X180533250Y-82771000I-218750J0D01*
G01*
X180095750Y-82771000D01*
G75*
G02*
X179877000Y-82552250I0J218750D01*
G01*
G37*
G04 #@! TD.AperFunction*
G04 #@! TA.AperFunction,SMDPad,CuDef*
G36*
G01*
X181452000Y-82552250D02*
X181452000Y-82039750D01*
G75*
G02*
X181670750Y-81821000I218750J0D01*
G01*
X182108250Y-81821000D01*
G75*
G02*
X182327000Y-82039750I0J-218750D01*
G01*
X182327000Y-82552250D01*
G75*
G02*
X182108250Y-82771000I-218750J0D01*
G01*
X181670750Y-82771000D01*
G75*
G02*
X181452000Y-82552250I0J218750D01*
G01*
G37*
G04 #@! TD.AperFunction*
G04 #@! TA.AperFunction,SMDPad,CuDef*
G36*
G01*
X184909750Y-80614000D02*
X185422250Y-80614000D01*
G75*
G02*
X185641000Y-80832750I0J-218750D01*
G01*
X185641000Y-81270250D01*
G75*
G02*
X185422250Y-81489000I-218750J0D01*
G01*
X184909750Y-81489000D01*
G75*
G02*
X184691000Y-81270250I0J218750D01*
G01*
X184691000Y-80832750D01*
G75*
G02*
X184909750Y-80614000I218750J0D01*
G01*
G37*
G04 #@! TD.AperFunction*
G04 #@! TA.AperFunction,SMDPad,CuDef*
G36*
G01*
X184909750Y-79039000D02*
X185422250Y-79039000D01*
G75*
G02*
X185641000Y-79257750I0J-218750D01*
G01*
X185641000Y-79695250D01*
G75*
G02*
X185422250Y-79914000I-218750J0D01*
G01*
X184909750Y-79914000D01*
G75*
G02*
X184691000Y-79695250I0J218750D01*
G01*
X184691000Y-79257750D01*
G75*
G02*
X184909750Y-79039000I218750J0D01*
G01*
G37*
G04 #@! TD.AperFunction*
G04 #@! TA.AperFunction,SMDPad,CuDef*
G36*
G01*
X183131750Y-79039000D02*
X183644250Y-79039000D01*
G75*
G02*
X183863000Y-79257750I0J-218750D01*
G01*
X183863000Y-79695250D01*
G75*
G02*
X183644250Y-79914000I-218750J0D01*
G01*
X183131750Y-79914000D01*
G75*
G02*
X182913000Y-79695250I0J218750D01*
G01*
X182913000Y-79257750D01*
G75*
G02*
X183131750Y-79039000I218750J0D01*
G01*
G37*
G04 #@! TD.AperFunction*
G04 #@! TA.AperFunction,SMDPad,CuDef*
G36*
G01*
X183131750Y-80614000D02*
X183644250Y-80614000D01*
G75*
G02*
X183863000Y-80832750I0J-218750D01*
G01*
X183863000Y-81270250D01*
G75*
G02*
X183644250Y-81489000I-218750J0D01*
G01*
X183131750Y-81489000D01*
G75*
G02*
X182913000Y-81270250I0J218750D01*
G01*
X182913000Y-80832750D01*
G75*
G02*
X183131750Y-80614000I218750J0D01*
G01*
G37*
G04 #@! TD.AperFunction*
G04 #@! TA.AperFunction,SMDPad,CuDef*
G36*
G01*
X188978250Y-81489000D02*
X188465750Y-81489000D01*
G75*
G02*
X188247000Y-81270250I0J218750D01*
G01*
X188247000Y-80832750D01*
G75*
G02*
X188465750Y-80614000I218750J0D01*
G01*
X188978250Y-80614000D01*
G75*
G02*
X189197000Y-80832750I0J-218750D01*
G01*
X189197000Y-81270250D01*
G75*
G02*
X188978250Y-81489000I-218750J0D01*
G01*
G37*
G04 #@! TD.AperFunction*
G04 #@! TA.AperFunction,SMDPad,CuDef*
G36*
G01*
X188978250Y-79914000D02*
X188465750Y-79914000D01*
G75*
G02*
X188247000Y-79695250I0J218750D01*
G01*
X188247000Y-79257750D01*
G75*
G02*
X188465750Y-79039000I218750J0D01*
G01*
X188978250Y-79039000D01*
G75*
G02*
X189197000Y-79257750I0J-218750D01*
G01*
X189197000Y-79695250D01*
G75*
G02*
X188978250Y-79914000I-218750J0D01*
G01*
G37*
G04 #@! TD.AperFunction*
G04 #@! TA.AperFunction,SMDPad,CuDef*
G36*
G01*
X182374250Y-87534000D02*
X181861750Y-87534000D01*
G75*
G02*
X181643000Y-87315250I0J218750D01*
G01*
X181643000Y-86877750D01*
G75*
G02*
X181861750Y-86659000I218750J0D01*
G01*
X182374250Y-86659000D01*
G75*
G02*
X182593000Y-86877750I0J-218750D01*
G01*
X182593000Y-87315250D01*
G75*
G02*
X182374250Y-87534000I-218750J0D01*
G01*
G37*
G04 #@! TD.AperFunction*
G04 #@! TA.AperFunction,SMDPad,CuDef*
G36*
G01*
X182374250Y-89109000D02*
X181861750Y-89109000D01*
G75*
G02*
X181643000Y-88890250I0J218750D01*
G01*
X181643000Y-88452750D01*
G75*
G02*
X181861750Y-88234000I218750J0D01*
G01*
X182374250Y-88234000D01*
G75*
G02*
X182593000Y-88452750I0J-218750D01*
G01*
X182593000Y-88890250D01*
G75*
G02*
X182374250Y-89109000I-218750J0D01*
G01*
G37*
G04 #@! TD.AperFunction*
G04 #@! TA.AperFunction,SMDPad,CuDef*
G36*
G01*
X184152250Y-89109000D02*
X183639750Y-89109000D01*
G75*
G02*
X183421000Y-88890250I0J218750D01*
G01*
X183421000Y-88452750D01*
G75*
G02*
X183639750Y-88234000I218750J0D01*
G01*
X184152250Y-88234000D01*
G75*
G02*
X184371000Y-88452750I0J-218750D01*
G01*
X184371000Y-88890250D01*
G75*
G02*
X184152250Y-89109000I-218750J0D01*
G01*
G37*
G04 #@! TD.AperFunction*
G04 #@! TA.AperFunction,SMDPad,CuDef*
G36*
G01*
X184152250Y-87534000D02*
X183639750Y-87534000D01*
G75*
G02*
X183421000Y-87315250I0J218750D01*
G01*
X183421000Y-86877750D01*
G75*
G02*
X183639750Y-86659000I218750J0D01*
G01*
X184152250Y-86659000D01*
G75*
G02*
X184371000Y-86877750I0J-218750D01*
G01*
X184371000Y-87315250D01*
G75*
G02*
X184152250Y-87534000I-218750J0D01*
G01*
G37*
G04 #@! TD.AperFunction*
G04 #@! TA.AperFunction,SMDPad,CuDef*
G36*
G01*
X187708250Y-89109000D02*
X187195750Y-89109000D01*
G75*
G02*
X186977000Y-88890250I0J218750D01*
G01*
X186977000Y-88452750D01*
G75*
G02*
X187195750Y-88234000I218750J0D01*
G01*
X187708250Y-88234000D01*
G75*
G02*
X187927000Y-88452750I0J-218750D01*
G01*
X187927000Y-88890250D01*
G75*
G02*
X187708250Y-89109000I-218750J0D01*
G01*
G37*
G04 #@! TD.AperFunction*
G04 #@! TA.AperFunction,SMDPad,CuDef*
G36*
G01*
X187708250Y-87534000D02*
X187195750Y-87534000D01*
G75*
G02*
X186977000Y-87315250I0J218750D01*
G01*
X186977000Y-86877750D01*
G75*
G02*
X187195750Y-86659000I218750J0D01*
G01*
X187708250Y-86659000D01*
G75*
G02*
X187927000Y-86877750I0J-218750D01*
G01*
X187927000Y-87315250D01*
G75*
G02*
X187708250Y-87534000I-218750J0D01*
G01*
G37*
G04 #@! TD.AperFunction*
G04 #@! TA.AperFunction,SMDPad,CuDef*
G36*
G01*
X185930250Y-87534000D02*
X185417750Y-87534000D01*
G75*
G02*
X185199000Y-87315250I0J218750D01*
G01*
X185199000Y-86877750D01*
G75*
G02*
X185417750Y-86659000I218750J0D01*
G01*
X185930250Y-86659000D01*
G75*
G02*
X186149000Y-86877750I0J-218750D01*
G01*
X186149000Y-87315250D01*
G75*
G02*
X185930250Y-87534000I-218750J0D01*
G01*
G37*
G04 #@! TD.AperFunction*
G04 #@! TA.AperFunction,SMDPad,CuDef*
G36*
G01*
X185930250Y-89109000D02*
X185417750Y-89109000D01*
G75*
G02*
X185199000Y-88890250I0J218750D01*
G01*
X185199000Y-88452750D01*
G75*
G02*
X185417750Y-88234000I218750J0D01*
G01*
X185930250Y-88234000D01*
G75*
G02*
X186149000Y-88452750I0J-218750D01*
G01*
X186149000Y-88890250D01*
G75*
G02*
X185930250Y-89109000I-218750J0D01*
G01*
G37*
G04 #@! TD.AperFunction*
G04 #@! TA.AperFunction,SMDPad,CuDef*
G36*
G01*
X189994250Y-85807000D02*
X189481750Y-85807000D01*
G75*
G02*
X189263000Y-85588250I0J218750D01*
G01*
X189263000Y-85150750D01*
G75*
G02*
X189481750Y-84932000I218750J0D01*
G01*
X189994250Y-84932000D01*
G75*
G02*
X190213000Y-85150750I0J-218750D01*
G01*
X190213000Y-85588250D01*
G75*
G02*
X189994250Y-85807000I-218750J0D01*
G01*
G37*
G04 #@! TD.AperFunction*
G04 #@! TA.AperFunction,SMDPad,CuDef*
G36*
G01*
X189994250Y-84232000D02*
X189481750Y-84232000D01*
G75*
G02*
X189263000Y-84013250I0J218750D01*
G01*
X189263000Y-83575750D01*
G75*
G02*
X189481750Y-83357000I218750J0D01*
G01*
X189994250Y-83357000D01*
G75*
G02*
X190213000Y-83575750I0J-218750D01*
G01*
X190213000Y-84013250D01*
G75*
G02*
X189994250Y-84232000I-218750J0D01*
G01*
G37*
G04 #@! TD.AperFunction*
D29*
X183802501Y-83156001D03*
X184232503Y-83156001D03*
X184662502Y-83156001D03*
X185092501Y-83156001D03*
X185522503Y-83156001D03*
X185952502Y-83156001D03*
X186382501Y-83156001D03*
X186812503Y-83156001D03*
D30*
X186757504Y-83711001D03*
X186757504Y-84141000D03*
X186757504Y-84571002D03*
X186757504Y-85001001D03*
D29*
X186812503Y-85556001D03*
X186382501Y-85556001D03*
X185952502Y-85556001D03*
X185522503Y-85556001D03*
X185092501Y-85556001D03*
X184662502Y-85556001D03*
X184232503Y-85556001D03*
X183802501Y-85556001D03*
D30*
X183857500Y-85001001D03*
X183857500Y-84571002D03*
X183857500Y-84141000D03*
X183857500Y-83711001D03*
G04 #@! TA.AperFunction,SMDPad,CuDef*
G36*
G01*
X183716000Y-113251000D02*
X183716000Y-112301000D01*
G75*
G02*
X183966000Y-112051000I250000J0D01*
G01*
X184466000Y-112051000D01*
G75*
G02*
X184716000Y-112301000I0J-250000D01*
G01*
X184716000Y-113251000D01*
G75*
G02*
X184466000Y-113501000I-250000J0D01*
G01*
X183966000Y-113501000D01*
G75*
G02*
X183716000Y-113251000I0J250000D01*
G01*
G37*
G04 #@! TD.AperFunction*
G04 #@! TA.AperFunction,SMDPad,CuDef*
G36*
G01*
X185616000Y-113251000D02*
X185616000Y-112301000D01*
G75*
G02*
X185866000Y-112051000I250000J0D01*
G01*
X186366000Y-112051000D01*
G75*
G02*
X186616000Y-112301000I0J-250000D01*
G01*
X186616000Y-113251000D01*
G75*
G02*
X186366000Y-113501000I-250000J0D01*
G01*
X185866000Y-113501000D01*
G75*
G02*
X185616000Y-113251000I0J250000D01*
G01*
G37*
G04 #@! TD.AperFunction*
G04 #@! TA.AperFunction,SMDPad,CuDef*
G36*
G01*
X188726000Y-104947000D02*
X189226000Y-104947000D01*
G75*
G02*
X189451000Y-105172000I0J-225000D01*
G01*
X189451000Y-105622000D01*
G75*
G02*
X189226000Y-105847000I-225000J0D01*
G01*
X188726000Y-105847000D01*
G75*
G02*
X188501000Y-105622000I0J225000D01*
G01*
X188501000Y-105172000D01*
G75*
G02*
X188726000Y-104947000I225000J0D01*
G01*
G37*
G04 #@! TD.AperFunction*
G04 #@! TA.AperFunction,SMDPad,CuDef*
G36*
G01*
X188726000Y-106497000D02*
X189226000Y-106497000D01*
G75*
G02*
X189451000Y-106722000I0J-225000D01*
G01*
X189451000Y-107172000D01*
G75*
G02*
X189226000Y-107397000I-225000J0D01*
G01*
X188726000Y-107397000D01*
G75*
G02*
X188501000Y-107172000I0J225000D01*
G01*
X188501000Y-106722000D01*
G75*
G02*
X188726000Y-106497000I225000J0D01*
G01*
G37*
G04 #@! TD.AperFunction*
G04 #@! TA.AperFunction,SMDPad,CuDef*
G36*
G01*
X181298000Y-109930250D02*
X181298000Y-109017750D01*
G75*
G02*
X181541750Y-108774000I243750J0D01*
G01*
X182029250Y-108774000D01*
G75*
G02*
X182273000Y-109017750I0J-243750D01*
G01*
X182273000Y-109930250D01*
G75*
G02*
X182029250Y-110174000I-243750J0D01*
G01*
X181541750Y-110174000D01*
G75*
G02*
X181298000Y-109930250I0J243750D01*
G01*
G37*
G04 #@! TD.AperFunction*
G04 #@! TA.AperFunction,SMDPad,CuDef*
G36*
G01*
X179423000Y-109930250D02*
X179423000Y-109017750D01*
G75*
G02*
X179666750Y-108774000I243750J0D01*
G01*
X180154250Y-108774000D01*
G75*
G02*
X180398000Y-109017750I0J-243750D01*
G01*
X180398000Y-109930250D01*
G75*
G02*
X180154250Y-110174000I-243750J0D01*
G01*
X179666750Y-110174000D01*
G75*
G02*
X179423000Y-109930250I0J243750D01*
G01*
G37*
G04 #@! TD.AperFunction*
D31*
X182499000Y-68342000D03*
X183449000Y-70342000D03*
X181549000Y-70342000D03*
D32*
X181848000Y-107122000D03*
X181848000Y-105222000D03*
X179848000Y-106172000D03*
G04 #@! TA.AperFunction,SMDPad,CuDef*
G36*
G01*
X182873000Y-111388999D02*
X182873000Y-112639001D01*
G75*
G02*
X182623001Y-112889000I-249999J0D01*
G01*
X181997999Y-112889000D01*
G75*
G02*
X181748000Y-112639001I0J249999D01*
G01*
X181748000Y-111388999D01*
G75*
G02*
X181997999Y-111139000I249999J0D01*
G01*
X182623001Y-111139000D01*
G75*
G02*
X182873000Y-111388999I0J-249999D01*
G01*
G37*
G04 #@! TD.AperFunction*
G04 #@! TA.AperFunction,SMDPad,CuDef*
G36*
G01*
X179948000Y-111388999D02*
X179948000Y-112639001D01*
G75*
G02*
X179698001Y-112889000I-249999J0D01*
G01*
X179072999Y-112889000D01*
G75*
G02*
X178823000Y-112639001I0J249999D01*
G01*
X178823000Y-111388999D01*
G75*
G02*
X179072999Y-111139000I249999J0D01*
G01*
X179698001Y-111139000D01*
G75*
G02*
X179948000Y-111388999I0J-249999D01*
G01*
G37*
G04 #@! TD.AperFunction*
G04 #@! TA.AperFunction,SMDPad,CuDef*
G36*
G01*
X183687000Y-109241000D02*
X183687000Y-108691000D01*
G75*
G02*
X183887000Y-108491000I200000J0D01*
G01*
X184287000Y-108491000D01*
G75*
G02*
X184487000Y-108691000I0J-200000D01*
G01*
X184487000Y-109241000D01*
G75*
G02*
X184287000Y-109441000I-200000J0D01*
G01*
X183887000Y-109441000D01*
G75*
G02*
X183687000Y-109241000I0J200000D01*
G01*
G37*
G04 #@! TD.AperFunction*
G04 #@! TA.AperFunction,SMDPad,CuDef*
G36*
G01*
X185337000Y-109241000D02*
X185337000Y-108691000D01*
G75*
G02*
X185537000Y-108491000I200000J0D01*
G01*
X185937000Y-108491000D01*
G75*
G02*
X186137000Y-108691000I0J-200000D01*
G01*
X186137000Y-109241000D01*
G75*
G02*
X185937000Y-109441000I-200000J0D01*
G01*
X185537000Y-109441000D01*
G75*
G02*
X185337000Y-109241000I0J200000D01*
G01*
G37*
G04 #@! TD.AperFunction*
G04 #@! TA.AperFunction,SMDPad,CuDef*
G36*
G01*
X184487000Y-110469000D02*
X184487000Y-111019000D01*
G75*
G02*
X184287000Y-111219000I-200000J0D01*
G01*
X183887000Y-111219000D01*
G75*
G02*
X183687000Y-111019000I0J200000D01*
G01*
X183687000Y-110469000D01*
G75*
G02*
X183887000Y-110269000I200000J0D01*
G01*
X184287000Y-110269000D01*
G75*
G02*
X184487000Y-110469000I0J-200000D01*
G01*
G37*
G04 #@! TD.AperFunction*
G04 #@! TA.AperFunction,SMDPad,CuDef*
G36*
G01*
X186137000Y-110469000D02*
X186137000Y-111019000D01*
G75*
G02*
X185937000Y-111219000I-200000J0D01*
G01*
X185537000Y-111219000D01*
G75*
G02*
X185337000Y-111019000I0J200000D01*
G01*
X185337000Y-110469000D01*
G75*
G02*
X185537000Y-110269000I200000J0D01*
G01*
X185937000Y-110269000D01*
G75*
G02*
X186137000Y-110469000I0J-200000D01*
G01*
G37*
G04 #@! TD.AperFunction*
D22*
X184324000Y-105222000D03*
X184324000Y-106172000D03*
X184324000Y-107122000D03*
X187024000Y-107122000D03*
X187024000Y-105222000D03*
D33*
X174371000Y-91313000D03*
X160020000Y-91948000D03*
X148844000Y-89916000D03*
X158496000Y-88519000D03*
X160274000Y-88265000D03*
X169799000Y-103251000D03*
X168529000Y-99949000D03*
X174498000Y-100330000D03*
X149987000Y-111506000D03*
X162560000Y-120269000D03*
X154940000Y-120269000D03*
X167386000Y-111887000D03*
X167132000Y-76327000D03*
X150495000Y-74168000D03*
X155429443Y-77348657D03*
X156591000Y-80518000D03*
X154813000Y-80518000D03*
X153543000Y-78994000D03*
X154813000Y-79121000D03*
X149479000Y-81153000D03*
X152781000Y-84455000D03*
X156591000Y-79502000D03*
X171958000Y-94107000D03*
X139065000Y-62230000D03*
X145796000Y-109728000D03*
X149352000Y-106172000D03*
X157226000Y-112268000D03*
X158750000Y-104140000D03*
X160528000Y-105156000D03*
X160528000Y-97633600D03*
X163576000Y-91186000D03*
X184704500Y-70819500D03*
X181864000Y-75692000D03*
X184150000Y-76708000D03*
X172212000Y-67564000D03*
D34*
X142748000Y-68072000D03*
X136652000Y-67818000D03*
X122428000Y-81026000D03*
X122428000Y-79756000D03*
D33*
X149098000Y-120142000D03*
X133985000Y-56896000D03*
X134366000Y-58928000D03*
X138557000Y-60198000D03*
X142113000Y-58420000D03*
X142113000Y-59817000D03*
X142748000Y-59055000D03*
X141478000Y-59055000D03*
X146050000Y-60071000D03*
X168148000Y-83820000D03*
X167386000Y-78994000D03*
X163576000Y-80772000D03*
X155956000Y-80010000D03*
X179070000Y-82296000D03*
X182118000Y-79502000D03*
X187960000Y-82042000D03*
X179070000Y-84074000D03*
X188976000Y-107950000D03*
X182880000Y-105156000D03*
X186944000Y-110744000D03*
X187198000Y-112776000D03*
X159258000Y-97282000D03*
X171483000Y-93378000D03*
X162844500Y-91663500D03*
X148717000Y-88392000D03*
X168148000Y-103251000D03*
X170974000Y-101251000D03*
X162960600Y-112324000D03*
X152654000Y-76708000D03*
X151642000Y-79506000D03*
X145796000Y-107950000D03*
X161544000Y-101600000D03*
X188468000Y-76708000D03*
D34*
X139192000Y-80518000D03*
X140462000Y-80518000D03*
D33*
X174244000Y-74676000D03*
X170053000Y-108458000D03*
X167640000Y-110236000D03*
X154559000Y-105410000D03*
X168148000Y-79756000D03*
X163322000Y-78994000D03*
X166116000Y-83794590D03*
X159258000Y-84480400D03*
X163068000Y-89154000D03*
X189484000Y-82804000D03*
X188722000Y-88646000D03*
X185928000Y-80264000D03*
X181864000Y-81026000D03*
X176784000Y-84328000D03*
X188976000Y-104140000D03*
D34*
X144272000Y-71813600D03*
D33*
X157480000Y-113030000D03*
D34*
X144526000Y-64008000D03*
D33*
X160274000Y-112776000D03*
X148590000Y-71120000D03*
X142791000Y-71077000D03*
X180594000Y-113792000D03*
X177292000Y-71120000D03*
X145288000Y-121920000D03*
X167132000Y-84963000D03*
X157353000Y-84836000D03*
X188214000Y-86106000D03*
X181356000Y-86106000D03*
X162052000Y-78232000D03*
X162052000Y-76200000D03*
X165354000Y-83794590D03*
X162560000Y-83820000D03*
X168148000Y-85090000D03*
X164973000Y-108077000D03*
X163410759Y-107276759D03*
X159639000Y-108458000D03*
X161163000Y-108458000D03*
X160655000Y-109220000D03*
X159639000Y-109220000D03*
X158877000Y-107442000D03*
D34*
X144907000Y-56261000D03*
X148463000Y-59563000D03*
D35*
X174432000Y-92329000D02*
X174432000Y-91374000D01*
X174432000Y-91374000D02*
X174371000Y-91313000D01*
X160086000Y-90805000D02*
X160086000Y-91882000D01*
X160086000Y-91882000D02*
X160020000Y-91948000D01*
D36*
X150122001Y-89954001D02*
X148882001Y-89954001D01*
X148882001Y-89954001D02*
X148844000Y-89916000D01*
X157287000Y-88519000D02*
X158496000Y-88519000D01*
X161417000Y-88222000D02*
X160317000Y-88222000D01*
X160317000Y-88222000D02*
X160274000Y-88265000D01*
X169799000Y-104437000D02*
X169799000Y-103251000D01*
X168493000Y-101251000D02*
X168493000Y-99985000D01*
X168493000Y-99985000D02*
X168529000Y-99949000D01*
D35*
X174432000Y-101473000D02*
X174432000Y-100396000D01*
X174432000Y-100396000D02*
X174498000Y-100330000D01*
D36*
X151450000Y-111656000D02*
X151300000Y-111506000D01*
X151450000Y-113030000D02*
X151450000Y-111656000D01*
X151040000Y-111246000D02*
X151300000Y-111506000D01*
X151040000Y-109764000D02*
X151040000Y-111246000D01*
X151300000Y-111506000D02*
X149987000Y-111506000D01*
X161417000Y-120330000D02*
X162499000Y-120330000D01*
X162499000Y-120330000D02*
X162560000Y-120269000D01*
X156083000Y-120330000D02*
X155001000Y-120330000D01*
X155001000Y-120330000D02*
X154940000Y-120269000D01*
X156233000Y-120480000D02*
X156083000Y-120330000D01*
X157734000Y-120480000D02*
X156233000Y-120480000D01*
X166050000Y-113538000D02*
X166050000Y-112141000D01*
X166050000Y-111887000D02*
X167386000Y-111887000D01*
X167132000Y-74991000D02*
X167132000Y-76327000D01*
X149545000Y-72517000D02*
X149545000Y-73218000D01*
X149545000Y-73218000D02*
X150495000Y-74168000D01*
X150815000Y-74488000D02*
X150495000Y-74168000D01*
X151638000Y-74488000D02*
X150815000Y-74488000D01*
X155246943Y-77348657D02*
X155429443Y-77348657D01*
X154817000Y-78193500D02*
X154817000Y-77778600D01*
X154817000Y-77778600D02*
X155246943Y-77348657D01*
X157317000Y-80568500D02*
X157379500Y-80506000D01*
X157317000Y-81318500D02*
X157317000Y-80568500D01*
X157379500Y-80506000D02*
X156603000Y-80506000D01*
X156603000Y-80506000D02*
X156591000Y-80518000D01*
X154817000Y-81318500D02*
X154817000Y-80522000D01*
X154817000Y-80522000D02*
X154813000Y-80518000D01*
X152754500Y-79006000D02*
X153531000Y-79006000D01*
X153531000Y-79006000D02*
X153543000Y-78994000D01*
X154817000Y-78193500D02*
X154817000Y-79117000D01*
X154817000Y-79117000D02*
X154813000Y-79121000D01*
X148529000Y-81003000D02*
X148379000Y-81153000D01*
X148529000Y-79502000D02*
X148529000Y-81003000D01*
X148379000Y-81153000D02*
X149479000Y-81153000D01*
X152931000Y-85405000D02*
X152781000Y-85555000D01*
X154686000Y-85405000D02*
X152931000Y-85405000D01*
X152781000Y-85555000D02*
X152781000Y-84455000D01*
X157379500Y-79506000D02*
X156595000Y-79506000D01*
X156595000Y-79506000D02*
X156591000Y-79502000D01*
X170593000Y-94651000D02*
X171414000Y-94651000D01*
X171414000Y-94651000D02*
X171958000Y-94107000D01*
D35*
X139065000Y-64885800D02*
X139065000Y-62230000D01*
X137842000Y-65024000D02*
X138926800Y-65024000D01*
X138926800Y-65024000D02*
X139065000Y-64885800D01*
X147109000Y-109728000D02*
X145796000Y-109728000D01*
X150815000Y-106172000D02*
X149352000Y-106172000D01*
D36*
X155800000Y-112324000D02*
X157170000Y-112324000D01*
X157170000Y-112324000D02*
X157226000Y-112268000D01*
D35*
X157287000Y-104140000D02*
X158750000Y-104140000D01*
X161671000Y-105090000D02*
X160594000Y-105090000D01*
X160594000Y-105090000D02*
X160528000Y-105156000D01*
D36*
X161893000Y-97651000D02*
X160545400Y-97651000D01*
X160545400Y-97651000D02*
X160528000Y-97633600D01*
X163993000Y-92551000D02*
X163993000Y-91603000D01*
X163993000Y-91603000D02*
X163576000Y-91186000D01*
X184001400Y-70342000D02*
X183449000Y-70342000D01*
X184227000Y-70342000D02*
X184001400Y-70342000D01*
X185359000Y-71929000D02*
X185359000Y-71474000D01*
X184704500Y-70819500D02*
X184227000Y-70342000D01*
X185359000Y-71474000D02*
X184704500Y-70819500D01*
X181864000Y-74379000D02*
X181864000Y-75692000D01*
X185359000Y-76581000D02*
X184277000Y-76581000D01*
X184277000Y-76581000D02*
X184150000Y-76708000D01*
X172466000Y-69027000D02*
X172466000Y-67818000D01*
X172466000Y-67818000D02*
X172212000Y-67564000D01*
D35*
X142875000Y-66274000D02*
X142875000Y-67945000D01*
X142875000Y-67945000D02*
X142748000Y-68072000D01*
X138242000Y-67818000D02*
X136652000Y-67818000D01*
X136713000Y-65024000D02*
X135763000Y-64074000D01*
X137842000Y-65024000D02*
X136713000Y-65024000D01*
X137842000Y-71393000D02*
X138242000Y-70993000D01*
X137842000Y-72837000D02*
X137842000Y-71393000D01*
D37*
X125363000Y-81611000D02*
X123013000Y-81611000D01*
X123013000Y-81611000D02*
X122428000Y-81026000D01*
D35*
X150538000Y-120142000D02*
X149098000Y-120142000D01*
X135373000Y-56896000D02*
X133985000Y-56896000D01*
X135523000Y-58928000D02*
X134366000Y-58928000D01*
X139963000Y-60030000D02*
X138725000Y-60030000D01*
X138725000Y-60030000D02*
X138557000Y-60198000D01*
X142113000Y-59055000D02*
X142113000Y-58420000D01*
X142113000Y-59055000D02*
X142113000Y-59817000D01*
X142113000Y-59055000D02*
X142748000Y-59055000D01*
X142113000Y-59055000D02*
X141478000Y-59055000D01*
D36*
X144263000Y-59380000D02*
X144263000Y-60030000D01*
X144263000Y-60030000D02*
X146009000Y-60030000D01*
X146009000Y-60030000D02*
X146050000Y-60071000D01*
X167939001Y-82771999D02*
X168148000Y-82563000D01*
X166417999Y-82771999D02*
X167939001Y-82771999D01*
X168148000Y-82563000D02*
X168148000Y-83820000D01*
X166129000Y-78994000D02*
X167386000Y-78994000D01*
X165767999Y-79355001D02*
X166129000Y-78994000D01*
X165767999Y-80721999D02*
X165767999Y-79355001D01*
X163626001Y-80721999D02*
X163576000Y-80772000D01*
X164467999Y-80721999D02*
X163626001Y-80721999D01*
X155960000Y-80006000D02*
X155956000Y-80010000D01*
X157379500Y-80006000D02*
X155960000Y-80006000D01*
X188722000Y-81051500D02*
X188722000Y-81246504D01*
X186757504Y-83711001D02*
X187560999Y-83711001D01*
X187560999Y-83711001D02*
X187706000Y-83566000D01*
X187706000Y-82296000D02*
X187689252Y-82279252D01*
X187706000Y-83566000D02*
X187706000Y-82296000D01*
X187689252Y-82279252D02*
X186812503Y-83156001D01*
X186757504Y-84141000D02*
X187639000Y-84141000D01*
X187639000Y-84141000D02*
X187706000Y-84074000D01*
X187706000Y-84074000D02*
X187706000Y-83566000D01*
X186757504Y-84571002D02*
X187462998Y-84571002D01*
X187706000Y-84328000D02*
X187706000Y-84074000D01*
X187462998Y-84571002D02*
X187706000Y-84328000D01*
X187706000Y-84328000D02*
X187706000Y-84836000D01*
X187541600Y-85000400D02*
X186757504Y-85000400D01*
X187706000Y-84836000D02*
X187541600Y-85000400D01*
X186382501Y-83156001D02*
X186382501Y-82603499D01*
X186706748Y-82279252D02*
X187689252Y-82279252D01*
X186382501Y-82603499D02*
X186706748Y-82279252D01*
X185952502Y-83156001D02*
X185952502Y-82525498D01*
X186198748Y-82279252D02*
X186706748Y-82279252D01*
X185952502Y-82525498D02*
X186198748Y-82279252D01*
X180314500Y-82296000D02*
X179070000Y-82296000D01*
X183388000Y-79476500D02*
X185166000Y-79476500D01*
X186944000Y-79476500D02*
X185166000Y-79476500D01*
X182143500Y-79476500D02*
X182118000Y-79502000D01*
X183388000Y-79476500D02*
X182143500Y-79476500D01*
X187943252Y-82025252D02*
X187960000Y-82042000D01*
X188722000Y-81246504D02*
X187943252Y-82025252D01*
X187943252Y-82025252D02*
X187689252Y-82279252D01*
X180314500Y-84074000D02*
X179070000Y-84074000D01*
X188976000Y-106947000D02*
X188976000Y-107950000D01*
X183748000Y-107122000D02*
X184324000Y-107122000D01*
X181848000Y-105222000D02*
X183748000Y-107122000D01*
X182814000Y-105222000D02*
X182880000Y-105156000D01*
X181848000Y-105222000D02*
X182814000Y-105222000D01*
X185737000Y-110744000D02*
X186944000Y-110744000D01*
X186116000Y-112776000D02*
X187198000Y-112776000D01*
X161893000Y-97151000D02*
X159389000Y-97151000D01*
X159389000Y-97151000D02*
X159258000Y-97282000D01*
X152177001Y-89799001D02*
X152022001Y-89954001D01*
X152177001Y-88392000D02*
X152177001Y-89799001D01*
X150114000Y-91707600D02*
X150114000Y-92710000D01*
X150114000Y-91637002D02*
X150114000Y-91707600D01*
X151797001Y-89954001D02*
X150114000Y-91637002D01*
X152022001Y-89954001D02*
X151797001Y-89954001D01*
D37*
X132423000Y-80071000D02*
X133985000Y-80071000D01*
X131663000Y-79311000D02*
X132423000Y-80071000D01*
X133985000Y-80071000D02*
X135509000Y-80071000D01*
X136987000Y-80071000D02*
X137287000Y-80371000D01*
X135509000Y-80071000D02*
X136987000Y-80071000D01*
D35*
X170593000Y-94151000D02*
X170710000Y-94151000D01*
X171610000Y-93251000D02*
X171483000Y-93378000D01*
X171610000Y-93251000D02*
X172532000Y-92329000D01*
X170710000Y-94151000D02*
X171610000Y-93251000D01*
X163493000Y-92551000D02*
X163493000Y-92312000D01*
X162844500Y-91663500D02*
X161986000Y-90805000D01*
X163493000Y-92312000D02*
X162844500Y-91663500D01*
D36*
X149977001Y-88392000D02*
X148717000Y-88392000D01*
X168148000Y-104437000D02*
X168148000Y-103251000D01*
D35*
X172310000Y-101251000D02*
X172532000Y-101473000D01*
X170974000Y-101251000D02*
X172310000Y-101251000D01*
X168993000Y-101251000D02*
X170974000Y-101251000D01*
D36*
X162602400Y-112324000D02*
X161700000Y-112324000D01*
X162960600Y-112324000D02*
X162602400Y-112324000D01*
X163397600Y-111887000D02*
X162960600Y-112324000D01*
X164150000Y-111887000D02*
X163397600Y-111887000D01*
X151638000Y-76388000D02*
X152334000Y-76388000D01*
X152334000Y-76388000D02*
X152654000Y-76708000D01*
X153317000Y-77371000D02*
X152654000Y-76708000D01*
X153317000Y-78193500D02*
X153317000Y-77371000D01*
X152754500Y-79506000D02*
X152754500Y-80006000D01*
X150433000Y-79506000D02*
X150429000Y-79502000D01*
X151515000Y-79506000D02*
X151642000Y-79506000D01*
X151515000Y-79506000D02*
X150433000Y-79506000D01*
X152754500Y-79506000D02*
X151515000Y-79506000D01*
D35*
X147109000Y-107950000D02*
X145796000Y-107950000D01*
X152490000Y-106397000D02*
X152715000Y-106172000D01*
X152490000Y-107914000D02*
X152490000Y-106397000D01*
X161671000Y-103190000D02*
X161671000Y-101727000D01*
X161671000Y-101727000D02*
X161544000Y-101600000D01*
D36*
X161797999Y-101346001D02*
X161544000Y-101600000D01*
X162771601Y-100372399D02*
X161797999Y-101346001D01*
X162771601Y-98227201D02*
X162771601Y-100372399D01*
X162695400Y-98151000D02*
X162771601Y-98227201D01*
X161893000Y-98151000D02*
X162695400Y-98151000D01*
X187259000Y-76053600D02*
X187259000Y-74629000D01*
X187259000Y-76581000D02*
X187259000Y-76053600D01*
X187259000Y-76581000D02*
X188341000Y-76581000D01*
X188341000Y-76581000D02*
X188468000Y-76708000D01*
D37*
X137287000Y-80371000D02*
X139045000Y-80371000D01*
X139045000Y-80371000D02*
X139192000Y-80518000D01*
D35*
X174120999Y-77470000D02*
X174120999Y-75773999D01*
X174120999Y-75773999D02*
X174120999Y-74799001D01*
X174120999Y-74799001D02*
X174244000Y-74676000D01*
D36*
X161671000Y-103415000D02*
X161671000Y-103190000D01*
X161030000Y-104056000D02*
X161671000Y-103415000D01*
X159893000Y-104056000D02*
X161030000Y-104056000D01*
X155364000Y-108109600D02*
X155364000Y-107061000D01*
X155364000Y-108712000D02*
X155364000Y-108109600D01*
X168740000Y-108458000D02*
X170053000Y-108458000D01*
X166200000Y-110236000D02*
X167640000Y-110236000D01*
D35*
X155364000Y-107061000D02*
X155364000Y-106215000D01*
X155364000Y-106215000D02*
X154559000Y-105410000D01*
X153477000Y-105410000D02*
X152715000Y-106172000D01*
X154559000Y-105410000D02*
X153477000Y-105410000D01*
D36*
X167856999Y-80721999D02*
X168148000Y-81013000D01*
X166417999Y-80721999D02*
X167856999Y-80721999D01*
X168148000Y-81013000D02*
X168148000Y-79756000D01*
X164579000Y-78994000D02*
X163322000Y-78994000D01*
X165117999Y-79532999D02*
X164579000Y-78994000D01*
X165117999Y-80721999D02*
X165117999Y-79532999D01*
X165767999Y-83446589D02*
X166116000Y-83794590D01*
X165767999Y-82771999D02*
X165767999Y-83446589D01*
X159321000Y-84417400D02*
X159258000Y-84480400D01*
X159321000Y-83312000D02*
X159321000Y-84417400D01*
X163068000Y-87947000D02*
X163068000Y-89154000D01*
X181956500Y-84141000D02*
X181889500Y-84074000D01*
X183857500Y-84141000D02*
X181956500Y-84141000D01*
X186564368Y-81051500D02*
X186944000Y-81051500D01*
X185092501Y-82523367D02*
X186564368Y-81051500D01*
X185092501Y-83156001D02*
X185092501Y-82523367D01*
X184662502Y-81554998D02*
X185166000Y-81051500D01*
X184662502Y-83156001D02*
X184662502Y-81554998D01*
X182947002Y-82296000D02*
X181889500Y-82296000D01*
X183802501Y-83151499D02*
X182947002Y-82296000D01*
X183802501Y-83156001D02*
X183802501Y-83151499D01*
X189738000Y-83058000D02*
X189484000Y-82804000D01*
X189738000Y-83794500D02*
X189738000Y-83058000D01*
X182118000Y-88671500D02*
X183896000Y-88671500D01*
X185674000Y-88671500D02*
X183896000Y-88671500D01*
X185674000Y-88671500D02*
X187452000Y-88671500D01*
X188696500Y-88671500D02*
X188722000Y-88646000D01*
X187452000Y-88671500D02*
X188696500Y-88671500D01*
X185166000Y-81051500D02*
X186944000Y-81051500D01*
X185166000Y-81026000D02*
X185928000Y-80264000D01*
X185166000Y-81051500D02*
X185166000Y-81026000D01*
X181889500Y-81051500D02*
X181864000Y-81026000D01*
X181889500Y-82296000D02*
X181889500Y-81051500D01*
X181185890Y-84777610D02*
X178757610Y-84777610D01*
X181889500Y-84074000D02*
X181185890Y-84777610D01*
X177233610Y-84777610D02*
X176784000Y-84328000D01*
X178757610Y-84777610D02*
X177233610Y-84777610D01*
X188801000Y-105222000D02*
X188976000Y-105397000D01*
X187024000Y-105222000D02*
X188801000Y-105222000D01*
X188976000Y-105397000D02*
X188976000Y-104140000D01*
X161232600Y-74041000D02*
X163635000Y-74041000D01*
X167132000Y-73316000D02*
X167132000Y-73091000D01*
X166407000Y-74041000D02*
X167132000Y-73316000D01*
X163635000Y-74041000D02*
X166407000Y-74041000D01*
X159965400Y-75819000D02*
X160858000Y-74926400D01*
X156244850Y-75819000D02*
X159965400Y-75819000D01*
X154317000Y-77746850D02*
X156244850Y-75819000D01*
X160858000Y-74926400D02*
X160858000Y-74124000D01*
X154317000Y-78193500D02*
X154317000Y-77746850D01*
X154317000Y-83136000D02*
X154686000Y-83505000D01*
X154317000Y-81318500D02*
X154317000Y-83136000D01*
D37*
X140542000Y-71393000D02*
X140142000Y-70993000D01*
X140542000Y-72837000D02*
X140542000Y-71393000D01*
D36*
X155744000Y-113030000D02*
X155800000Y-112974000D01*
X153350000Y-113030000D02*
X155744000Y-113030000D01*
D35*
X141867400Y-71813600D02*
X144272000Y-71813600D01*
X140142000Y-70993000D02*
X141046800Y-70993000D01*
X141046800Y-70993000D02*
X141867400Y-71813600D01*
X155800000Y-112974000D02*
X157424000Y-112974000D01*
X157424000Y-112974000D02*
X157480000Y-113030000D01*
D37*
X142575000Y-64074000D02*
X142875000Y-63774000D01*
X140542000Y-64074000D02*
X142575000Y-64074000D01*
D35*
X142875000Y-63774000D02*
X144292000Y-63774000D01*
X144292000Y-63774000D02*
X144526000Y-64008000D01*
X161700000Y-112974000D02*
X160472000Y-112974000D01*
X160472000Y-112974000D02*
X160274000Y-112776000D01*
D36*
X163761000Y-112974000D02*
X164325000Y-113538000D01*
X161700000Y-112974000D02*
X163761000Y-112974000D01*
D37*
X129921000Y-69469000D02*
X132268000Y-69469000D01*
X129279000Y-69469000D02*
X129921000Y-69469000D01*
X118740000Y-58930000D02*
X129279000Y-69469000D01*
D36*
X172316000Y-71077000D02*
X172466000Y-70927000D01*
D35*
X137842000Y-63444200D02*
X137389800Y-62992000D01*
X137842000Y-64074000D02*
X137842000Y-63444200D01*
X134650500Y-63662858D02*
X134650500Y-67086500D01*
X135321358Y-62992000D02*
X134650500Y-63662858D01*
X137389800Y-62992000D02*
X135321358Y-62992000D01*
D37*
X132268000Y-69469000D02*
X134650500Y-67086500D01*
X134650500Y-67086500D02*
X135763000Y-65974000D01*
D35*
X135763000Y-65974000D02*
X137842000Y-65974000D01*
D36*
X148633000Y-71077000D02*
X148590000Y-71120000D01*
D35*
X170388500Y-71002000D02*
X169799000Y-71591500D01*
X172466000Y-71002000D02*
X170388500Y-71002000D01*
X149061500Y-71591500D02*
X148590000Y-71120000D01*
X169799000Y-71591500D02*
X149061500Y-71591500D01*
X141523393Y-70823001D02*
X140169392Y-69469000D01*
X140169392Y-69469000D02*
X132268000Y-69469000D01*
X142537001Y-70823001D02*
X141523393Y-70823001D01*
X142791000Y-71077000D02*
X142537001Y-70823001D01*
D36*
X183717171Y-113274829D02*
X184216000Y-112776000D01*
X180646329Y-113274829D02*
X183717171Y-113274829D01*
X179385500Y-112014000D02*
X180646329Y-113274829D01*
X180646329Y-113739671D02*
X180594000Y-113792000D01*
X180646329Y-113274829D02*
X180646329Y-113739671D01*
X177099000Y-70927000D02*
X177292000Y-71120000D01*
X172466000Y-70927000D02*
X177099000Y-70927000D01*
D37*
X132776000Y-85024000D02*
X133985000Y-85024000D01*
X131663000Y-83911000D02*
X132776000Y-85024000D01*
X135809000Y-85324000D02*
X135509000Y-85024000D01*
X137287000Y-85324000D02*
X135809000Y-85324000D01*
X133985000Y-85024000D02*
X135509000Y-85024000D01*
X117260079Y-54752599D02*
X117102599Y-54910079D01*
X124339295Y-54752599D02*
X117260079Y-54752599D01*
X129921000Y-59309000D02*
X128895696Y-59309000D01*
X126992921Y-84298401D02*
X121807323Y-84298401D01*
X127380322Y-83911000D02*
X126992921Y-84298401D01*
X131663000Y-83911000D02*
X127380322Y-83911000D01*
D35*
X146488000Y-58730000D02*
X146685000Y-58533000D01*
X144263000Y-58730000D02*
X146488000Y-58730000D01*
D38*
X147160000Y-58533000D02*
X146685000Y-58533000D01*
X148209000Y-55499000D02*
X148209000Y-57484000D01*
X148209000Y-57484000D02*
X147160000Y-58533000D01*
X147574000Y-54864000D02*
X148209000Y-55499000D01*
X133477000Y-54864000D02*
X147574000Y-54864000D01*
X132588000Y-55753000D02*
X133477000Y-54864000D01*
X132588000Y-56642000D02*
X132588000Y-55753000D01*
X129921000Y-59309000D02*
X132588000Y-56642000D01*
D37*
X128895696Y-59309000D02*
X124339295Y-54752599D01*
X118491000Y-81788000D02*
X119253000Y-81788000D01*
X117102599Y-80255401D02*
X117102599Y-80399599D01*
X117102599Y-54910079D02*
X117102599Y-80255401D01*
X117102599Y-80399599D02*
X118491000Y-81788000D01*
X121807323Y-84298401D02*
X119253000Y-81788000D01*
X119253000Y-81788000D02*
X119415323Y-81906401D01*
X135575000Y-74549000D02*
X135763000Y-74737000D01*
X129921000Y-74549000D02*
X135575000Y-74549000D01*
X129196001Y-73824001D02*
X129921000Y-74549000D01*
X128408599Y-73036599D02*
X129196001Y-73824001D01*
X128408599Y-71255245D02*
X128408599Y-73036599D01*
X118740000Y-61586646D02*
X128408599Y-71255245D01*
X118740000Y-61470000D02*
X118740000Y-61586646D01*
X137842000Y-74737000D02*
X135763000Y-74737000D01*
X137842000Y-74737000D02*
X137842000Y-73949401D01*
D35*
X169799000Y-67904000D02*
X168529000Y-66634000D01*
X169799000Y-68616500D02*
X169799000Y-67904000D01*
X168529000Y-63119000D02*
X170688000Y-60960000D01*
X168529000Y-66634000D02*
X168529000Y-63119000D01*
X182499000Y-67587200D02*
X182499000Y-68342000D01*
X177601801Y-62690001D02*
X182499000Y-67587200D01*
X171497999Y-62690001D02*
X177601801Y-62690001D01*
X170688000Y-63500000D02*
X171497999Y-62690001D01*
D37*
X121579000Y-91948000D02*
X124079000Y-89448000D01*
X118745000Y-91948000D02*
X121579000Y-91948000D01*
X118959000Y-99568000D02*
X124079000Y-94448000D01*
X118745000Y-99568000D02*
X118959000Y-99568000D01*
D36*
X169714399Y-95074799D02*
X169714399Y-91735667D01*
X170593000Y-95151000D02*
X169790600Y-95151000D01*
X169790600Y-95151000D02*
X169714399Y-95074799D01*
X169714399Y-91735667D02*
X171788066Y-89662000D01*
X174244000Y-89662000D02*
X175514000Y-88392000D01*
X171788066Y-89662000D02*
X174244000Y-89662000D01*
X172627000Y-88392000D02*
X172974000Y-88392000D01*
X168993000Y-92026000D02*
X172627000Y-88392000D01*
X168993000Y-92551000D02*
X168993000Y-92026000D01*
D35*
X145288000Y-121920000D02*
X145288000Y-121412000D01*
X148336000Y-118364000D02*
X150538000Y-118364000D01*
X145288000Y-121412000D02*
X148336000Y-118364000D01*
D36*
X182912600Y-72179000D02*
X181864000Y-72179000D01*
X183515000Y-72179000D02*
X182912600Y-72179000D01*
X181549000Y-71864000D02*
X181864000Y-72179000D01*
X181549000Y-70342000D02*
X181549000Y-71864000D01*
X165481000Y-92539000D02*
X165493000Y-92551000D01*
X164719000Y-89027000D02*
X165481000Y-89789000D01*
X164719000Y-87947000D02*
X164719000Y-89027000D01*
X165481000Y-89789000D02*
X165481000Y-92539000D01*
X166497000Y-101255000D02*
X166493000Y-101251000D01*
X166497000Y-104437000D02*
X166497000Y-101255000D01*
X156817000Y-82733000D02*
X157396000Y-83312000D01*
X156817000Y-81318500D02*
X156817000Y-82733000D01*
X166993000Y-92551000D02*
X166993000Y-85102000D01*
X166993000Y-85102000D02*
X167132000Y-84963000D01*
X157353000Y-83355000D02*
X157396000Y-83312000D01*
X157353000Y-84836000D02*
X157353000Y-83355000D01*
X188208398Y-86111602D02*
X188214000Y-86106000D01*
X186028703Y-86111602D02*
X188208398Y-86111602D01*
X185952502Y-86035401D02*
X186028703Y-86111602D01*
X185952502Y-85556001D02*
X185952502Y-86035401D01*
X168275000Y-86106000D02*
X167132000Y-84963000D01*
X181356000Y-86106000D02*
X168275000Y-86106000D01*
X165993000Y-91748600D02*
X165993000Y-92551000D01*
X166159601Y-91581999D02*
X165993000Y-91748600D01*
X166159601Y-85186083D02*
X166159601Y-91581999D01*
X157619400Y-78193500D02*
X157317000Y-78193500D01*
X158596900Y-77216000D02*
X157619400Y-78193500D01*
X170328998Y-77216000D02*
X158596900Y-77216000D01*
X171770999Y-75773999D02*
X170328998Y-77216000D01*
X171920999Y-75773999D02*
X171770999Y-75773999D01*
X166159601Y-85186083D02*
X166159601Y-84879601D01*
X166159601Y-84879601D02*
X165862000Y-84582000D01*
X165862000Y-84582000D02*
X162306000Y-84582000D01*
X162306000Y-84582000D02*
X162052000Y-84328000D01*
X162052000Y-76200000D02*
X162052000Y-76708000D01*
X162052000Y-76708000D02*
X161544000Y-77216000D01*
X165117999Y-83558589D02*
X165354000Y-83794590D01*
X165117999Y-82771999D02*
X165117999Y-83558589D01*
X162560000Y-83820000D02*
X162052000Y-83312000D01*
X162052000Y-83312000D02*
X162052000Y-78232000D01*
X162052000Y-84328000D02*
X162052000Y-83312000D01*
X181981164Y-85090000D02*
X168148000Y-85090000D01*
X182500162Y-84571002D02*
X181981164Y-85090000D01*
X183857500Y-84571002D02*
X182500162Y-84571002D01*
X157744400Y-79006000D02*
X159229590Y-77520810D01*
X157379500Y-79006000D02*
X157744400Y-79006000D01*
X166493000Y-92551000D02*
X166493000Y-84890482D01*
X159229590Y-77520810D02*
X168579810Y-77520810D01*
X171168599Y-77470000D02*
X171920999Y-77470000D01*
X171117789Y-77520810D02*
X171168599Y-77470000D01*
X168579810Y-77520810D02*
X171117789Y-77520810D01*
X166493000Y-84887750D02*
X167052750Y-84328000D01*
X166493000Y-84890482D02*
X166493000Y-84887750D01*
X167052750Y-84328000D02*
X170942000Y-84328000D01*
X172195999Y-83074001D02*
X172195999Y-77470000D01*
X170942000Y-84328000D02*
X172195999Y-83074001D01*
X164467999Y-82771999D02*
X164467999Y-83645189D01*
X164467999Y-83645189D02*
X165100000Y-84277190D01*
X167001940Y-84277190D02*
X167052750Y-84328000D01*
X165100000Y-84277190D02*
X167001940Y-84277190D01*
X171899610Y-83370390D02*
X182430390Y-83370390D01*
X170942000Y-84328000D02*
X171899610Y-83370390D01*
X182771602Y-83711602D02*
X183857500Y-83711602D01*
X182430390Y-83370390D02*
X182771602Y-83711602D01*
X186309000Y-70485000D02*
X186309000Y-71929000D01*
X190500000Y-69596000D02*
X187198000Y-69596000D01*
X190946390Y-70042390D02*
X190500000Y-69596000D01*
X187198000Y-69596000D02*
X186309000Y-70485000D01*
X190946390Y-90231610D02*
X190946390Y-70042390D01*
X190465800Y-90712200D02*
X190946390Y-90231610D01*
X177834200Y-90712200D02*
X190465800Y-90712200D01*
X171395400Y-97151000D02*
X177834200Y-90712200D01*
X170593000Y-97151000D02*
X171395400Y-97151000D01*
X190946390Y-90231610D02*
X190946390Y-102169610D01*
X190946390Y-102169610D02*
X190246000Y-102870000D01*
X190246000Y-102870000D02*
X186944000Y-102870000D01*
X186944000Y-102870000D02*
X185674000Y-104140000D01*
X185674000Y-104140000D02*
X185674000Y-105664000D01*
X185166000Y-106172000D02*
X184324000Y-106172000D01*
X185674000Y-105664000D02*
X185166000Y-106172000D01*
X161700000Y-109996600D02*
X161700000Y-110374000D01*
X164712238Y-106984362D02*
X161700000Y-109996600D01*
X164712238Y-102834162D02*
X164712238Y-106984362D01*
X165493000Y-102053400D02*
X164712238Y-102834162D01*
X165493000Y-101251000D02*
X165493000Y-102053400D01*
X161838000Y-110236000D02*
X161700000Y-110374000D01*
X164000000Y-110236000D02*
X161838000Y-110236000D01*
X160797600Y-111024000D02*
X161700000Y-111024000D01*
X164993000Y-102064772D02*
X164407429Y-102650343D01*
X164993000Y-101251000D02*
X164993000Y-102064772D01*
X164407429Y-102650343D02*
X164407428Y-106280090D01*
X160721399Y-109966119D02*
X160721399Y-110947799D01*
X160721399Y-110947799D02*
X160797600Y-111024000D01*
X166540000Y-108458000D02*
X165354000Y-108458000D01*
X165354000Y-108458000D02*
X164973000Y-108077000D01*
X164407428Y-106280090D02*
X163410759Y-107276759D01*
X163410759Y-107276759D02*
X160721399Y-109966119D01*
X155800000Y-110374000D02*
X157723000Y-110374000D01*
X161163000Y-107873066D02*
X161163000Y-108458000D01*
X164102619Y-104933447D02*
X161163000Y-107873066D01*
X164102620Y-102489000D02*
X164102619Y-104933447D01*
X164493000Y-101251000D02*
X164493000Y-102098620D01*
X164493000Y-102098620D02*
X164102620Y-102489000D01*
X157850600Y-109601000D02*
X158496000Y-109601000D01*
X157564000Y-109314400D02*
X157850600Y-109601000D01*
X157564000Y-108712000D02*
X157564000Y-109314400D01*
X157723000Y-110374000D02*
X158496000Y-109601000D01*
X158496000Y-109601000D02*
X159639000Y-108458000D01*
X163797810Y-102132672D02*
X163797810Y-104807190D01*
X163993000Y-101251000D02*
X163993000Y-101937482D01*
X163993000Y-101937482D02*
X163797810Y-102132672D01*
X163797810Y-104807190D02*
X160655000Y-107950000D01*
X160655000Y-107950000D02*
X160655000Y-109220000D01*
X157835000Y-111024000D02*
X155800000Y-111024000D01*
X159639000Y-109220000D02*
X157835000Y-111024000D01*
X157564000Y-107061000D02*
X158496000Y-107061000D01*
X158496000Y-107061000D02*
X158877000Y-107442000D01*
X163493000Y-101251000D02*
X163493000Y-104654482D01*
X160797600Y-111674000D02*
X161700000Y-111674000D01*
X160147000Y-111023400D02*
X160797600Y-111674000D01*
X160147000Y-108000482D02*
X160147000Y-111023400D01*
X160500141Y-106260741D02*
X161886741Y-106260741D01*
X160495400Y-106256000D02*
X160500141Y-106260741D01*
X159893000Y-106256000D02*
X160495400Y-106256000D01*
X163493000Y-104654482D02*
X161886741Y-106260741D01*
X161886741Y-106260741D02*
X160147000Y-108000482D01*
X163487000Y-114274000D02*
X164275000Y-115062000D01*
X161700000Y-114274000D02*
X163487000Y-114274000D01*
D35*
X149309000Y-109728000D02*
X149309000Y-107950000D01*
X151004000Y-107950000D02*
X151040000Y-107914000D01*
X149309000Y-107950000D02*
X151004000Y-107950000D01*
D36*
X183765000Y-74629000D02*
X183515000Y-74379000D01*
X185359000Y-74629000D02*
X183765000Y-74629000D01*
X156337000Y-93393000D02*
X156337000Y-92143000D01*
X159095000Y-96151000D02*
X156337000Y-93393000D01*
X161893000Y-96151000D02*
X159095000Y-96151000D01*
X155781000Y-92143000D02*
X156337000Y-92143000D01*
X152781000Y-95143000D02*
X155781000Y-92143000D01*
X152781000Y-95293000D02*
X152781000Y-95143000D01*
X155387000Y-91193000D02*
X156337000Y-92143000D01*
X155387000Y-88519000D02*
X155387000Y-91193000D01*
X156337000Y-99393000D02*
X156337000Y-100643000D01*
X159079000Y-96651000D02*
X156337000Y-99393000D01*
X161893000Y-96651000D02*
X159079000Y-96651000D01*
X155781000Y-100643000D02*
X156337000Y-100643000D01*
X152781000Y-97643000D02*
X155781000Y-100643000D01*
X152781000Y-97493000D02*
X152781000Y-97643000D01*
X155387000Y-101593000D02*
X156337000Y-100643000D01*
X155387000Y-104140000D02*
X155387000Y-101593000D01*
X153817000Y-75359000D02*
X155135000Y-74041000D01*
X153817000Y-78193500D02*
X153817000Y-75359000D01*
X155135000Y-72888600D02*
X155135000Y-74041000D01*
X154763400Y-72517000D02*
X155135000Y-72888600D01*
X151445000Y-72517000D02*
X154763400Y-72517000D01*
X153817000Y-76862600D02*
X153817000Y-77778600D01*
X156555600Y-74124000D02*
X153817000Y-76862600D01*
X153817000Y-77778600D02*
X153817000Y-78193500D01*
X157658000Y-74124000D02*
X156555600Y-74124000D01*
X159700000Y-118214000D02*
X159766000Y-118280000D01*
X159700000Y-116459000D02*
X159700000Y-118214000D01*
X161267000Y-118280000D02*
X161417000Y-118430000D01*
X159766000Y-118280000D02*
X161267000Y-118280000D01*
X162382000Y-118605000D02*
X161417000Y-118605000D01*
X165925000Y-115062000D02*
X162382000Y-118605000D01*
X157800000Y-118214000D02*
X157734000Y-118280000D01*
X157800000Y-116459000D02*
X157800000Y-118214000D01*
X157584000Y-118430000D02*
X157734000Y-118280000D01*
X156083000Y-118430000D02*
X157584000Y-118430000D01*
X156083000Y-118430000D02*
X156083000Y-117221000D01*
X156083000Y-117221000D02*
X154686000Y-115824000D01*
X151967600Y-115824000D02*
X154686000Y-115824000D01*
X151300000Y-115156400D02*
X151967600Y-115824000D01*
X151300000Y-114554000D02*
X151300000Y-115156400D01*
D35*
X137423000Y-57596000D02*
X137423000Y-56896000D01*
X137907000Y-58080000D02*
X137423000Y-57596000D01*
X139963000Y-58080000D02*
X137907000Y-58080000D01*
X138058000Y-56261000D02*
X137423000Y-56896000D01*
X141238000Y-56261000D02*
X138058000Y-56261000D01*
D37*
X140542000Y-74737000D02*
X142621000Y-74737000D01*
X140142000Y-66374000D02*
X140542000Y-65974000D01*
X140142000Y-67818000D02*
X140142000Y-66374000D01*
D36*
X170593000Y-98151000D02*
X178023934Y-98151000D01*
X178023934Y-98151000D02*
X178511190Y-97663744D01*
X178511190Y-93776810D02*
X180086000Y-92202000D01*
X178511190Y-97663744D02*
X178511190Y-93776810D01*
X170593000Y-98651000D02*
X177955000Y-98651000D01*
X177955000Y-98651000D02*
X178816000Y-97790000D01*
X178816000Y-96012000D02*
X180086000Y-94742000D01*
X178816000Y-97790000D02*
X178816000Y-96012000D01*
X178217000Y-99151000D02*
X180086000Y-97282000D01*
X170593000Y-99151000D02*
X178217000Y-99151000D01*
X179915000Y-99651000D02*
X180086000Y-99822000D01*
X170593000Y-99651000D02*
X179915000Y-99651000D01*
D35*
X145388000Y-58080000D02*
X146685000Y-56783000D01*
X144263000Y-58080000D02*
X145388000Y-58080000D01*
X146163000Y-56261000D02*
X146685000Y-56783000D01*
D38*
X120180090Y-93052910D02*
X139992090Y-93052910D01*
X118745000Y-94488000D02*
X120180090Y-93052910D01*
X139992090Y-93052910D02*
X146685000Y-86360000D01*
X146685000Y-86360000D02*
X146685000Y-72771000D01*
X146685000Y-72771000D02*
X146685000Y-61341000D01*
X146685000Y-61341000D02*
X148463000Y-59563000D01*
D35*
X144907000Y-56261000D02*
X146163000Y-56261000D01*
X142988000Y-56261000D02*
X144907000Y-56261000D01*
D36*
X162019400Y-86022000D02*
X163068000Y-86022000D01*
X161417000Y-86022000D02*
X162019400Y-86022000D01*
X163670400Y-86022000D02*
X164719000Y-86022000D01*
X163068000Y-86022000D02*
X163670400Y-86022000D01*
X167099400Y-106637000D02*
X168148000Y-106637000D01*
X166497000Y-106637000D02*
X167099400Y-106637000D01*
X168750400Y-106637000D02*
X169799000Y-106637000D01*
X168148000Y-106637000D02*
X168750400Y-106637000D01*
X152781000Y-81354500D02*
X152817000Y-81318500D01*
X152781000Y-83355000D02*
X152781000Y-81354500D01*
X151978400Y-80506000D02*
X152754500Y-80506000D01*
X150579000Y-81153000D02*
X151331400Y-81153000D01*
X151331400Y-81153000D02*
X151978400Y-80506000D01*
D35*
X152738000Y-118364000D02*
X152738000Y-120142000D01*
X159766000Y-121920000D02*
X159766000Y-120480000D01*
X159258000Y-122428000D02*
X159766000Y-121920000D01*
X154269200Y-122428000D02*
X159258000Y-122428000D01*
X152738000Y-120142000D02*
X152738000Y-120896800D01*
X152738000Y-120896800D02*
X154269200Y-122428000D01*
D36*
X154897600Y-114274000D02*
X155800000Y-114274000D01*
X154532400Y-114274000D02*
X154897600Y-114274000D01*
X154252400Y-114554000D02*
X154532400Y-114274000D01*
X153500000Y-114554000D02*
X154252400Y-114554000D01*
X153668000Y-111674000D02*
X153500000Y-111506000D01*
X155800000Y-111674000D02*
X153668000Y-111674000D01*
X153117400Y-109764000D02*
X152490000Y-109764000D01*
X153500000Y-110146600D02*
X153117400Y-109764000D01*
X153500000Y-111506000D02*
X153500000Y-110146600D01*
X137471000Y-58730000D02*
X137273000Y-58928000D01*
X139963000Y-58730000D02*
X137471000Y-58730000D01*
X184232503Y-81896003D02*
X183388000Y-81051500D01*
X184232503Y-83156001D02*
X184232503Y-81896003D01*
X187706000Y-81397164D02*
X187706000Y-80492500D01*
X187128722Y-81974442D02*
X187706000Y-81397164D01*
X186072492Y-81974442D02*
X187128722Y-81974442D01*
X185522503Y-82524431D02*
X186072492Y-81974442D01*
X187706000Y-80492500D02*
X188722000Y-79476500D01*
X185522503Y-83156001D02*
X185522503Y-82524431D01*
X182118000Y-87096500D02*
X182118000Y-85852000D01*
X182969600Y-85000400D02*
X183857500Y-85000400D01*
X182118000Y-85852000D02*
X182969600Y-85000400D01*
X183802501Y-87003001D02*
X183896000Y-87096500D01*
X183802501Y-85556001D02*
X183802501Y-87003001D01*
X184662502Y-86035401D02*
X184987101Y-86360000D01*
X184662502Y-85556001D02*
X184662502Y-86035401D01*
X186785890Y-86430390D02*
X187452000Y-87096500D01*
X185744390Y-86430390D02*
X186785890Y-86430390D01*
X185674000Y-86360000D02*
X185744390Y-86430390D01*
X184987101Y-86360000D02*
X185674000Y-86360000D01*
X184232503Y-86325339D02*
X184658000Y-86750836D01*
X184232503Y-85556001D02*
X184232503Y-86325339D01*
X185328336Y-86750836D02*
X185674000Y-87096500D01*
X184658000Y-86750836D02*
X185328336Y-86750836D01*
X189551499Y-85556001D02*
X189738000Y-85369500D01*
X186812503Y-85556001D02*
X189551499Y-85556001D01*
X181785500Y-111489000D02*
X182310500Y-112014000D01*
X181785500Y-109474000D02*
X181785500Y-111489000D01*
X179848000Y-109411500D02*
X179910500Y-109474000D01*
X179848000Y-106172000D02*
X179848000Y-109411500D01*
X182243000Y-107122000D02*
X184087000Y-108966000D01*
X181848000Y-107122000D02*
X182243000Y-107122000D01*
X184087000Y-110744000D02*
X184087000Y-108966000D01*
X185737000Y-108409000D02*
X187024000Y-107122000D01*
X185737000Y-108966000D02*
X185737000Y-108409000D01*
D39*
X127138599Y-71781297D02*
X127138599Y-72974226D01*
X127132456Y-73036599D01*
X127138599Y-73098972D01*
X127138599Y-73098979D01*
X127146258Y-73176737D01*
X127156976Y-73285562D01*
X127214117Y-73473928D01*
X127229597Y-73524958D01*
X127347525Y-73745587D01*
X127506230Y-73938969D01*
X127554686Y-73978736D01*
X128678048Y-75102098D01*
X128715784Y-75193201D01*
X128864619Y-75415949D01*
X129054051Y-75605381D01*
X129276799Y-75754216D01*
X129524303Y-75856736D01*
X129787052Y-75909000D01*
X130054948Y-75909000D01*
X130317697Y-75856736D01*
X130408799Y-75819000D01*
X135093160Y-75819000D01*
X135274641Y-75916003D01*
X135514037Y-75988623D01*
X135700620Y-76007000D01*
X135700627Y-76007000D01*
X135762999Y-76013143D01*
X135825372Y-76007000D01*
X137779620Y-76007000D01*
X137842000Y-76013144D01*
X137904380Y-76007000D01*
X138090963Y-75988623D01*
X138330359Y-75916003D01*
X138550988Y-75798075D01*
X138677006Y-75694655D01*
X138746482Y-75687812D01*
X138866180Y-75651502D01*
X138976494Y-75592537D01*
X139073185Y-75513185D01*
X139152537Y-75416494D01*
X139192000Y-75342665D01*
X139231463Y-75416494D01*
X139310815Y-75513185D01*
X139407506Y-75592537D01*
X139517820Y-75651502D01*
X139637518Y-75687812D01*
X139706994Y-75694655D01*
X139833012Y-75798075D01*
X140053641Y-75916003D01*
X140293037Y-75988623D01*
X140479620Y-76007000D01*
X142683380Y-76007000D01*
X142869963Y-75988623D01*
X143109359Y-75916003D01*
X143329988Y-75798075D01*
X143523370Y-75639370D01*
X143682075Y-75445988D01*
X143800003Y-75225359D01*
X143872623Y-74985963D01*
X143897144Y-74737000D01*
X143872623Y-74488037D01*
X143800003Y-74248641D01*
X143682075Y-74028012D01*
X143670589Y-74014017D01*
X143668375Y-74006717D01*
X143590300Y-73860649D01*
X143626537Y-73816494D01*
X143685502Y-73706180D01*
X143721812Y-73586482D01*
X143734072Y-73462000D01*
X143731000Y-73297750D01*
X143572250Y-73139000D01*
X142748000Y-73139000D01*
X142748000Y-73159000D01*
X142494000Y-73159000D01*
X142494000Y-73139000D01*
X142474000Y-73139000D01*
X142474000Y-72885000D01*
X142494000Y-72885000D01*
X142494000Y-72865000D01*
X142748000Y-72865000D01*
X142748000Y-72885000D01*
X143572250Y-72885000D01*
X143670731Y-72786519D01*
X143730587Y-72826513D01*
X143938599Y-72912675D01*
X144159424Y-72956600D01*
X144384576Y-72956600D01*
X144605401Y-72912675D01*
X144813413Y-72826513D01*
X145000620Y-72701426D01*
X145159826Y-72542220D01*
X145284913Y-72355013D01*
X145288000Y-72347560D01*
X145288000Y-86409961D01*
X144829961Y-86868000D01*
X121412000Y-86868000D01*
X121412000Y-85505928D01*
X121443927Y-85515311D01*
X121558360Y-85550024D01*
X121563889Y-85550569D01*
X121569222Y-85552136D01*
X121688282Y-85562820D01*
X121744943Y-85568401D01*
X121750470Y-85568401D01*
X121818389Y-85574496D01*
X121875218Y-85568401D01*
X126930548Y-85568401D01*
X126992921Y-85574544D01*
X127055294Y-85568401D01*
X127055301Y-85568401D01*
X127241884Y-85550024D01*
X127481280Y-85477404D01*
X127701909Y-85359476D01*
X127895291Y-85200771D01*
X127911517Y-85181000D01*
X130295667Y-85181000D01*
X130308506Y-85191537D01*
X130418820Y-85250502D01*
X130538518Y-85286812D01*
X130663000Y-85299072D01*
X131255021Y-85299072D01*
X131833867Y-85877919D01*
X131873630Y-85926370D01*
X131922080Y-85966132D01*
X131922083Y-85966135D01*
X131955709Y-85993731D01*
X132067012Y-86085075D01*
X132287641Y-86203003D01*
X132527037Y-86275623D01*
X132776000Y-86300144D01*
X132838380Y-86294000D01*
X134989037Y-86294000D01*
X135100012Y-86385075D01*
X135320641Y-86503003D01*
X135504318Y-86558721D01*
X135560036Y-86575623D01*
X135585755Y-86578156D01*
X135746620Y-86594000D01*
X135746626Y-86594000D01*
X135808999Y-86600143D01*
X135871372Y-86594000D01*
X137349380Y-86594000D01*
X137535963Y-86575623D01*
X137775359Y-86503003D01*
X137995988Y-86385075D01*
X138189370Y-86226370D01*
X138348075Y-86032988D01*
X138466003Y-85812359D01*
X138467473Y-85807515D01*
X138500405Y-85767386D01*
X138582472Y-85613850D01*
X138633008Y-85447254D01*
X138650072Y-85274000D01*
X138650072Y-84774000D01*
X138633008Y-84600746D01*
X138582472Y-84434150D01*
X138500405Y-84280614D01*
X138389962Y-84146038D01*
X138383406Y-84140658D01*
X138463185Y-84075185D01*
X138542537Y-83978494D01*
X138601502Y-83868180D01*
X138637812Y-83748482D01*
X138650072Y-83624000D01*
X138647000Y-83409750D01*
X138488250Y-83251000D01*
X137414000Y-83251000D01*
X137414000Y-83271000D01*
X137160000Y-83271000D01*
X137160000Y-83251000D01*
X137140000Y-83251000D01*
X137140000Y-82997000D01*
X137160000Y-82997000D01*
X137160000Y-82147750D01*
X137414000Y-82147750D01*
X137414000Y-82997000D01*
X138488250Y-82997000D01*
X138647000Y-82838250D01*
X138650072Y-82624000D01*
X138637812Y-82499518D01*
X138601502Y-82379820D01*
X138542537Y-82269506D01*
X138463185Y-82172815D01*
X138366494Y-82093463D01*
X138256180Y-82034498D01*
X138136482Y-81998188D01*
X138012000Y-81985928D01*
X137572750Y-81989000D01*
X137414000Y-82147750D01*
X137160000Y-82147750D01*
X137001250Y-81989000D01*
X136562000Y-81985928D01*
X136437518Y-81998188D01*
X136317820Y-82034498D01*
X136207506Y-82093463D01*
X136110815Y-82172815D01*
X136072392Y-82219634D01*
X135984000Y-82210928D01*
X135794750Y-82214000D01*
X135636000Y-82372750D01*
X135636000Y-83172000D01*
X135656000Y-83172000D01*
X135656000Y-83426000D01*
X135636000Y-83426000D01*
X135636000Y-83446000D01*
X135382000Y-83446000D01*
X135382000Y-83426000D01*
X134112000Y-83426000D01*
X134112000Y-83446000D01*
X133858000Y-83446000D01*
X133858000Y-83426000D01*
X133838000Y-83426000D01*
X133838000Y-83172000D01*
X133858000Y-83172000D01*
X133858000Y-82372750D01*
X134112000Y-82372750D01*
X134112000Y-83172000D01*
X135382000Y-83172000D01*
X135382000Y-82372750D01*
X135223250Y-82214000D01*
X135034000Y-82210928D01*
X134909518Y-82223188D01*
X134789820Y-82259498D01*
X134747000Y-82282386D01*
X134704180Y-82259498D01*
X134584482Y-82223188D01*
X134460000Y-82210928D01*
X134270750Y-82214000D01*
X134112000Y-82372750D01*
X133858000Y-82372750D01*
X133699250Y-82214000D01*
X133510000Y-82210928D01*
X133385518Y-82223188D01*
X133300331Y-82249029D01*
X133298000Y-81896750D01*
X133139250Y-81738000D01*
X131790000Y-81738000D01*
X131790000Y-81758000D01*
X131536000Y-81758000D01*
X131536000Y-81738000D01*
X130186750Y-81738000D01*
X130028000Y-81896750D01*
X130024928Y-82361000D01*
X130037188Y-82485482D01*
X130073498Y-82605180D01*
X130092644Y-82641000D01*
X127442702Y-82641000D01*
X127380322Y-82634856D01*
X127317942Y-82641000D01*
X127131359Y-82659377D01*
X126999527Y-82699368D01*
X126998000Y-81896750D01*
X126839250Y-81738000D01*
X125490000Y-81738000D01*
X125490000Y-81758000D01*
X125236000Y-81758000D01*
X125236000Y-81738000D01*
X123886750Y-81738000D01*
X123728000Y-81896750D01*
X123725846Y-83028401D01*
X122326934Y-83028401D01*
X121412000Y-82129200D01*
X121412000Y-79711000D01*
X123724928Y-79711000D01*
X123728000Y-81325250D01*
X123886750Y-81484000D01*
X125236000Y-81484000D01*
X125236000Y-79234750D01*
X125490000Y-79234750D01*
X125490000Y-81484000D01*
X126839250Y-81484000D01*
X126998000Y-81325250D01*
X127001072Y-79711000D01*
X126988812Y-79586518D01*
X126952502Y-79466820D01*
X126893537Y-79356506D01*
X126814185Y-79259815D01*
X126717494Y-79180463D01*
X126607180Y-79121498D01*
X126487482Y-79085188D01*
X126363000Y-79072928D01*
X125648750Y-79076000D01*
X125490000Y-79234750D01*
X125236000Y-79234750D01*
X125077250Y-79076000D01*
X124363000Y-79072928D01*
X124238518Y-79085188D01*
X124118820Y-79121498D01*
X124008506Y-79180463D01*
X123911815Y-79259815D01*
X123832463Y-79356506D01*
X123773498Y-79466820D01*
X123737188Y-79586518D01*
X123724928Y-79711000D01*
X121412000Y-79711000D01*
X121412000Y-78561000D01*
X130024928Y-78561000D01*
X130024928Y-80061000D01*
X130037188Y-80185482D01*
X130073498Y-80305180D01*
X130132463Y-80415494D01*
X130169809Y-80461000D01*
X130132463Y-80506506D01*
X130073498Y-80616820D01*
X130037188Y-80736518D01*
X130024928Y-80861000D01*
X130028000Y-81325250D01*
X130186750Y-81484000D01*
X131536000Y-81484000D01*
X131536000Y-81464000D01*
X131790000Y-81464000D01*
X131790000Y-81484000D01*
X133139250Y-81484000D01*
X133282250Y-81341000D01*
X136467037Y-81341000D01*
X136578012Y-81432075D01*
X136798641Y-81550003D01*
X136982318Y-81605721D01*
X137038036Y-81622623D01*
X137063755Y-81625156D01*
X137224620Y-81641000D01*
X137224626Y-81641000D01*
X137286999Y-81647143D01*
X137349372Y-81641000D01*
X138598869Y-81641000D01*
X138703641Y-81697002D01*
X138943037Y-81769623D01*
X139191999Y-81794143D01*
X139440962Y-81769623D01*
X139680358Y-81697002D01*
X139900987Y-81579074D01*
X139946561Y-81541672D01*
X140128599Y-81617075D01*
X140349424Y-81661000D01*
X140574576Y-81661000D01*
X140795401Y-81617075D01*
X141003413Y-81530913D01*
X141190620Y-81405826D01*
X141349826Y-81246620D01*
X141474913Y-81059413D01*
X141561075Y-80851401D01*
X141605000Y-80630576D01*
X141605000Y-80405424D01*
X141561075Y-80184599D01*
X141474913Y-79976587D01*
X141349826Y-79789380D01*
X141190620Y-79630174D01*
X141003413Y-79505087D01*
X140795401Y-79418925D01*
X140574576Y-79375000D01*
X140349424Y-79375000D01*
X140128599Y-79418925D01*
X139962904Y-79487558D01*
X139947370Y-79468630D01*
X139753988Y-79309925D01*
X139533359Y-79191997D01*
X139293963Y-79119377D01*
X139107380Y-79101000D01*
X139107373Y-79101000D01*
X139045000Y-79094857D01*
X138982627Y-79101000D01*
X138480571Y-79101000D01*
X138542537Y-79025494D01*
X138601502Y-78915180D01*
X138637812Y-78795482D01*
X138650072Y-78671000D01*
X138647000Y-78456750D01*
X138488250Y-78298000D01*
X137414000Y-78298000D01*
X137414000Y-78318000D01*
X137160000Y-78318000D01*
X137160000Y-78298000D01*
X137140000Y-78298000D01*
X137140000Y-78044000D01*
X137160000Y-78044000D01*
X137160000Y-77194750D01*
X137414000Y-77194750D01*
X137414000Y-78044000D01*
X138488250Y-78044000D01*
X138647000Y-77885250D01*
X138650072Y-77671000D01*
X138637812Y-77546518D01*
X138601502Y-77426820D01*
X138542537Y-77316506D01*
X138463185Y-77219815D01*
X138366494Y-77140463D01*
X138256180Y-77081498D01*
X138136482Y-77045188D01*
X138012000Y-77032928D01*
X137572750Y-77036000D01*
X137414000Y-77194750D01*
X137160000Y-77194750D01*
X137001250Y-77036000D01*
X136562000Y-77032928D01*
X136437518Y-77045188D01*
X136317820Y-77081498D01*
X136207506Y-77140463D01*
X136110815Y-77219815D01*
X136072392Y-77266634D01*
X135984000Y-77257928D01*
X135794750Y-77261000D01*
X135636000Y-77419750D01*
X135636000Y-78219000D01*
X135656000Y-78219000D01*
X135656000Y-78473000D01*
X135636000Y-78473000D01*
X135636000Y-78493000D01*
X135382000Y-78493000D01*
X135382000Y-78473000D01*
X134112000Y-78473000D01*
X134112000Y-78493000D01*
X133858000Y-78493000D01*
X133858000Y-78473000D01*
X133838000Y-78473000D01*
X133838000Y-78219000D01*
X133858000Y-78219000D01*
X133858000Y-77419750D01*
X134112000Y-77419750D01*
X134112000Y-78219000D01*
X135382000Y-78219000D01*
X135382000Y-77419750D01*
X135223250Y-77261000D01*
X135034000Y-77257928D01*
X134909518Y-77270188D01*
X134789820Y-77306498D01*
X134747000Y-77329386D01*
X134704180Y-77306498D01*
X134584482Y-77270188D01*
X134460000Y-77257928D01*
X134270750Y-77261000D01*
X134112000Y-77419750D01*
X133858000Y-77419750D01*
X133699250Y-77261000D01*
X133510000Y-77257928D01*
X133385518Y-77270188D01*
X133265820Y-77306498D01*
X133155506Y-77365463D01*
X133058815Y-77444815D01*
X132979463Y-77541506D01*
X132920498Y-77651820D01*
X132884188Y-77771518D01*
X132871928Y-77896000D01*
X132873147Y-77961174D01*
X132787482Y-77935188D01*
X132663000Y-77922928D01*
X130663000Y-77922928D01*
X130538518Y-77935188D01*
X130418820Y-77971498D01*
X130308506Y-78030463D01*
X130211815Y-78109815D01*
X130132463Y-78206506D01*
X130073498Y-78316820D01*
X130037188Y-78436518D01*
X130024928Y-78561000D01*
X121412000Y-78561000D01*
X121412000Y-66054697D01*
X127138599Y-71781297D01*
G04 #@! TA.AperFunction,Conductor*
D40*
G36*
X127138599Y-71781297D02*
G01*
X127138599Y-72974226D01*
X127132456Y-73036599D01*
X127138599Y-73098972D01*
X127138599Y-73098979D01*
X127146258Y-73176737D01*
X127156976Y-73285562D01*
X127214117Y-73473928D01*
X127229597Y-73524958D01*
X127347525Y-73745587D01*
X127506230Y-73938969D01*
X127554686Y-73978736D01*
X128678048Y-75102098D01*
X128715784Y-75193201D01*
X128864619Y-75415949D01*
X129054051Y-75605381D01*
X129276799Y-75754216D01*
X129524303Y-75856736D01*
X129787052Y-75909000D01*
X130054948Y-75909000D01*
X130317697Y-75856736D01*
X130408799Y-75819000D01*
X135093160Y-75819000D01*
X135274641Y-75916003D01*
X135514037Y-75988623D01*
X135700620Y-76007000D01*
X135700627Y-76007000D01*
X135762999Y-76013143D01*
X135825372Y-76007000D01*
X137779620Y-76007000D01*
X137842000Y-76013144D01*
X137904380Y-76007000D01*
X138090963Y-75988623D01*
X138330359Y-75916003D01*
X138550988Y-75798075D01*
X138677006Y-75694655D01*
X138746482Y-75687812D01*
X138866180Y-75651502D01*
X138976494Y-75592537D01*
X139073185Y-75513185D01*
X139152537Y-75416494D01*
X139192000Y-75342665D01*
X139231463Y-75416494D01*
X139310815Y-75513185D01*
X139407506Y-75592537D01*
X139517820Y-75651502D01*
X139637518Y-75687812D01*
X139706994Y-75694655D01*
X139833012Y-75798075D01*
X140053641Y-75916003D01*
X140293037Y-75988623D01*
X140479620Y-76007000D01*
X142683380Y-76007000D01*
X142869963Y-75988623D01*
X143109359Y-75916003D01*
X143329988Y-75798075D01*
X143523370Y-75639370D01*
X143682075Y-75445988D01*
X143800003Y-75225359D01*
X143872623Y-74985963D01*
X143897144Y-74737000D01*
X143872623Y-74488037D01*
X143800003Y-74248641D01*
X143682075Y-74028012D01*
X143670589Y-74014017D01*
X143668375Y-74006717D01*
X143590300Y-73860649D01*
X143626537Y-73816494D01*
X143685502Y-73706180D01*
X143721812Y-73586482D01*
X143734072Y-73462000D01*
X143731000Y-73297750D01*
X143572250Y-73139000D01*
X142748000Y-73139000D01*
X142748000Y-73159000D01*
X142494000Y-73159000D01*
X142494000Y-73139000D01*
X142474000Y-73139000D01*
X142474000Y-72885000D01*
X142494000Y-72885000D01*
X142494000Y-72865000D01*
X142748000Y-72865000D01*
X142748000Y-72885000D01*
X143572250Y-72885000D01*
X143670731Y-72786519D01*
X143730587Y-72826513D01*
X143938599Y-72912675D01*
X144159424Y-72956600D01*
X144384576Y-72956600D01*
X144605401Y-72912675D01*
X144813413Y-72826513D01*
X145000620Y-72701426D01*
X145159826Y-72542220D01*
X145284913Y-72355013D01*
X145288000Y-72347560D01*
X145288000Y-86409961D01*
X144829961Y-86868000D01*
X121412000Y-86868000D01*
X121412000Y-85505928D01*
X121443927Y-85515311D01*
X121558360Y-85550024D01*
X121563889Y-85550569D01*
X121569222Y-85552136D01*
X121688282Y-85562820D01*
X121744943Y-85568401D01*
X121750470Y-85568401D01*
X121818389Y-85574496D01*
X121875218Y-85568401D01*
X126930548Y-85568401D01*
X126992921Y-85574544D01*
X127055294Y-85568401D01*
X127055301Y-85568401D01*
X127241884Y-85550024D01*
X127481280Y-85477404D01*
X127701909Y-85359476D01*
X127895291Y-85200771D01*
X127911517Y-85181000D01*
X130295667Y-85181000D01*
X130308506Y-85191537D01*
X130418820Y-85250502D01*
X130538518Y-85286812D01*
X130663000Y-85299072D01*
X131255021Y-85299072D01*
X131833867Y-85877919D01*
X131873630Y-85926370D01*
X131922080Y-85966132D01*
X131922083Y-85966135D01*
X131955709Y-85993731D01*
X132067012Y-86085075D01*
X132287641Y-86203003D01*
X132527037Y-86275623D01*
X132776000Y-86300144D01*
X132838380Y-86294000D01*
X134989037Y-86294000D01*
X135100012Y-86385075D01*
X135320641Y-86503003D01*
X135504318Y-86558721D01*
X135560036Y-86575623D01*
X135585755Y-86578156D01*
X135746620Y-86594000D01*
X135746626Y-86594000D01*
X135808999Y-86600143D01*
X135871372Y-86594000D01*
X137349380Y-86594000D01*
X137535963Y-86575623D01*
X137775359Y-86503003D01*
X137995988Y-86385075D01*
X138189370Y-86226370D01*
X138348075Y-86032988D01*
X138466003Y-85812359D01*
X138467473Y-85807515D01*
X138500405Y-85767386D01*
X138582472Y-85613850D01*
X138633008Y-85447254D01*
X138650072Y-85274000D01*
X138650072Y-84774000D01*
X138633008Y-84600746D01*
X138582472Y-84434150D01*
X138500405Y-84280614D01*
X138389962Y-84146038D01*
X138383406Y-84140658D01*
X138463185Y-84075185D01*
X138542537Y-83978494D01*
X138601502Y-83868180D01*
X138637812Y-83748482D01*
X138650072Y-83624000D01*
X138647000Y-83409750D01*
X138488250Y-83251000D01*
X137414000Y-83251000D01*
X137414000Y-83271000D01*
X137160000Y-83271000D01*
X137160000Y-83251000D01*
X137140000Y-83251000D01*
X137140000Y-82997000D01*
X137160000Y-82997000D01*
X137160000Y-82147750D01*
X137414000Y-82147750D01*
X137414000Y-82997000D01*
X138488250Y-82997000D01*
X138647000Y-82838250D01*
X138650072Y-82624000D01*
X138637812Y-82499518D01*
X138601502Y-82379820D01*
X138542537Y-82269506D01*
X138463185Y-82172815D01*
X138366494Y-82093463D01*
X138256180Y-82034498D01*
X138136482Y-81998188D01*
X138012000Y-81985928D01*
X137572750Y-81989000D01*
X137414000Y-82147750D01*
X137160000Y-82147750D01*
X137001250Y-81989000D01*
X136562000Y-81985928D01*
X136437518Y-81998188D01*
X136317820Y-82034498D01*
X136207506Y-82093463D01*
X136110815Y-82172815D01*
X136072392Y-82219634D01*
X135984000Y-82210928D01*
X135794750Y-82214000D01*
X135636000Y-82372750D01*
X135636000Y-83172000D01*
X135656000Y-83172000D01*
X135656000Y-83426000D01*
X135636000Y-83426000D01*
X135636000Y-83446000D01*
X135382000Y-83446000D01*
X135382000Y-83426000D01*
X134112000Y-83426000D01*
X134112000Y-83446000D01*
X133858000Y-83446000D01*
X133858000Y-83426000D01*
X133838000Y-83426000D01*
X133838000Y-83172000D01*
X133858000Y-83172000D01*
X133858000Y-82372750D01*
X134112000Y-82372750D01*
X134112000Y-83172000D01*
X135382000Y-83172000D01*
X135382000Y-82372750D01*
X135223250Y-82214000D01*
X135034000Y-82210928D01*
X134909518Y-82223188D01*
X134789820Y-82259498D01*
X134747000Y-82282386D01*
X134704180Y-82259498D01*
X134584482Y-82223188D01*
X134460000Y-82210928D01*
X134270750Y-82214000D01*
X134112000Y-82372750D01*
X133858000Y-82372750D01*
X133699250Y-82214000D01*
X133510000Y-82210928D01*
X133385518Y-82223188D01*
X133300331Y-82249029D01*
X133298000Y-81896750D01*
X133139250Y-81738000D01*
X131790000Y-81738000D01*
X131790000Y-81758000D01*
X131536000Y-81758000D01*
X131536000Y-81738000D01*
X130186750Y-81738000D01*
X130028000Y-81896750D01*
X130024928Y-82361000D01*
X130037188Y-82485482D01*
X130073498Y-82605180D01*
X130092644Y-82641000D01*
X127442702Y-82641000D01*
X127380322Y-82634856D01*
X127317942Y-82641000D01*
X127131359Y-82659377D01*
X126999527Y-82699368D01*
X126998000Y-81896750D01*
X126839250Y-81738000D01*
X125490000Y-81738000D01*
X125490000Y-81758000D01*
X125236000Y-81758000D01*
X125236000Y-81738000D01*
X123886750Y-81738000D01*
X123728000Y-81896750D01*
X123725846Y-83028401D01*
X122326934Y-83028401D01*
X121412000Y-82129200D01*
X121412000Y-79711000D01*
X123724928Y-79711000D01*
X123728000Y-81325250D01*
X123886750Y-81484000D01*
X125236000Y-81484000D01*
X125236000Y-79234750D01*
X125490000Y-79234750D01*
X125490000Y-81484000D01*
X126839250Y-81484000D01*
X126998000Y-81325250D01*
X127001072Y-79711000D01*
X126988812Y-79586518D01*
X126952502Y-79466820D01*
X126893537Y-79356506D01*
X126814185Y-79259815D01*
X126717494Y-79180463D01*
X126607180Y-79121498D01*
X126487482Y-79085188D01*
X126363000Y-79072928D01*
X125648750Y-79076000D01*
X125490000Y-79234750D01*
X125236000Y-79234750D01*
X125077250Y-79076000D01*
X124363000Y-79072928D01*
X124238518Y-79085188D01*
X124118820Y-79121498D01*
X124008506Y-79180463D01*
X123911815Y-79259815D01*
X123832463Y-79356506D01*
X123773498Y-79466820D01*
X123737188Y-79586518D01*
X123724928Y-79711000D01*
X121412000Y-79711000D01*
X121412000Y-78561000D01*
X130024928Y-78561000D01*
X130024928Y-80061000D01*
X130037188Y-80185482D01*
X130073498Y-80305180D01*
X130132463Y-80415494D01*
X130169809Y-80461000D01*
X130132463Y-80506506D01*
X130073498Y-80616820D01*
X130037188Y-80736518D01*
X130024928Y-80861000D01*
X130028000Y-81325250D01*
X130186750Y-81484000D01*
X131536000Y-81484000D01*
X131536000Y-81464000D01*
X131790000Y-81464000D01*
X131790000Y-81484000D01*
X133139250Y-81484000D01*
X133282250Y-81341000D01*
X136467037Y-81341000D01*
X136578012Y-81432075D01*
X136798641Y-81550003D01*
X136982318Y-81605721D01*
X137038036Y-81622623D01*
X137063755Y-81625156D01*
X137224620Y-81641000D01*
X137224626Y-81641000D01*
X137286999Y-81647143D01*
X137349372Y-81641000D01*
X138598869Y-81641000D01*
X138703641Y-81697002D01*
X138943037Y-81769623D01*
X139191999Y-81794143D01*
X139440962Y-81769623D01*
X139680358Y-81697002D01*
X139900987Y-81579074D01*
X139946561Y-81541672D01*
X140128599Y-81617075D01*
X140349424Y-81661000D01*
X140574576Y-81661000D01*
X140795401Y-81617075D01*
X141003413Y-81530913D01*
X141190620Y-81405826D01*
X141349826Y-81246620D01*
X141474913Y-81059413D01*
X141561075Y-80851401D01*
X141605000Y-80630576D01*
X141605000Y-80405424D01*
X141561075Y-80184599D01*
X141474913Y-79976587D01*
X141349826Y-79789380D01*
X141190620Y-79630174D01*
X141003413Y-79505087D01*
X140795401Y-79418925D01*
X140574576Y-79375000D01*
X140349424Y-79375000D01*
X140128599Y-79418925D01*
X139962904Y-79487558D01*
X139947370Y-79468630D01*
X139753988Y-79309925D01*
X139533359Y-79191997D01*
X139293963Y-79119377D01*
X139107380Y-79101000D01*
X139107373Y-79101000D01*
X139045000Y-79094857D01*
X138982627Y-79101000D01*
X138480571Y-79101000D01*
X138542537Y-79025494D01*
X138601502Y-78915180D01*
X138637812Y-78795482D01*
X138650072Y-78671000D01*
X138647000Y-78456750D01*
X138488250Y-78298000D01*
X137414000Y-78298000D01*
X137414000Y-78318000D01*
X137160000Y-78318000D01*
X137160000Y-78298000D01*
X137140000Y-78298000D01*
X137140000Y-78044000D01*
X137160000Y-78044000D01*
X137160000Y-77194750D01*
X137414000Y-77194750D01*
X137414000Y-78044000D01*
X138488250Y-78044000D01*
X138647000Y-77885250D01*
X138650072Y-77671000D01*
X138637812Y-77546518D01*
X138601502Y-77426820D01*
X138542537Y-77316506D01*
X138463185Y-77219815D01*
X138366494Y-77140463D01*
X138256180Y-77081498D01*
X138136482Y-77045188D01*
X138012000Y-77032928D01*
X137572750Y-77036000D01*
X137414000Y-77194750D01*
X137160000Y-77194750D01*
X137001250Y-77036000D01*
X136562000Y-77032928D01*
X136437518Y-77045188D01*
X136317820Y-77081498D01*
X136207506Y-77140463D01*
X136110815Y-77219815D01*
X136072392Y-77266634D01*
X135984000Y-77257928D01*
X135794750Y-77261000D01*
X135636000Y-77419750D01*
X135636000Y-78219000D01*
X135656000Y-78219000D01*
X135656000Y-78473000D01*
X135636000Y-78473000D01*
X135636000Y-78493000D01*
X135382000Y-78493000D01*
X135382000Y-78473000D01*
X134112000Y-78473000D01*
X134112000Y-78493000D01*
X133858000Y-78493000D01*
X133858000Y-78473000D01*
X133838000Y-78473000D01*
X133838000Y-78219000D01*
X133858000Y-78219000D01*
X133858000Y-77419750D01*
X134112000Y-77419750D01*
X134112000Y-78219000D01*
X135382000Y-78219000D01*
X135382000Y-77419750D01*
X135223250Y-77261000D01*
X135034000Y-77257928D01*
X134909518Y-77270188D01*
X134789820Y-77306498D01*
X134747000Y-77329386D01*
X134704180Y-77306498D01*
X134584482Y-77270188D01*
X134460000Y-77257928D01*
X134270750Y-77261000D01*
X134112000Y-77419750D01*
X133858000Y-77419750D01*
X133699250Y-77261000D01*
X133510000Y-77257928D01*
X133385518Y-77270188D01*
X133265820Y-77306498D01*
X133155506Y-77365463D01*
X133058815Y-77444815D01*
X132979463Y-77541506D01*
X132920498Y-77651820D01*
X132884188Y-77771518D01*
X132871928Y-77896000D01*
X132873147Y-77961174D01*
X132787482Y-77935188D01*
X132663000Y-77922928D01*
X130663000Y-77922928D01*
X130538518Y-77935188D01*
X130418820Y-77971498D01*
X130308506Y-78030463D01*
X130211815Y-78109815D01*
X130132463Y-78206506D01*
X130073498Y-78316820D01*
X130037188Y-78436518D01*
X130024928Y-78561000D01*
X121412000Y-78561000D01*
X121412000Y-66054697D01*
X127138599Y-71781297D01*
G37*
G04 #@! TD.AperFunction*
D39*
X137377498Y-70273820D02*
X137341188Y-70393518D01*
X137328928Y-70518000D01*
X137332000Y-70707250D01*
X137490750Y-70866000D01*
X138290000Y-70866000D01*
X138290000Y-70846000D01*
X138544000Y-70846000D01*
X138544000Y-70866000D01*
X138564000Y-70866000D01*
X138564000Y-71120000D01*
X138544000Y-71120000D01*
X138544000Y-71140000D01*
X138290000Y-71140000D01*
X138290000Y-71120000D01*
X137490750Y-71120000D01*
X137332000Y-71278750D01*
X137328928Y-71468000D01*
X137341188Y-71592482D01*
X137377498Y-71712180D01*
X137436463Y-71822494D01*
X137480810Y-71876531D01*
X137062000Y-71873928D01*
X136937518Y-71886188D01*
X136817820Y-71922498D01*
X136707506Y-71981463D01*
X136619537Y-72053657D01*
X136592494Y-72031463D01*
X136482180Y-71972498D01*
X136362482Y-71936188D01*
X136238000Y-71923928D01*
X136048750Y-71927000D01*
X135890000Y-72085750D01*
X135890000Y-72885000D01*
X135910000Y-72885000D01*
X135910000Y-73139000D01*
X135890000Y-73139000D01*
X135890000Y-73159000D01*
X135636000Y-73159000D01*
X135636000Y-73139000D01*
X134811750Y-73139000D01*
X134671750Y-73279000D01*
X130447050Y-73279000D01*
X130436682Y-73268632D01*
X130511100Y-73241609D01*
X130618035Y-73184450D01*
X130680528Y-72948133D01*
X129921000Y-72188605D01*
X129906858Y-72202748D01*
X129727253Y-72023143D01*
X129741395Y-72009000D01*
X130100605Y-72009000D01*
X130860133Y-72768528D01*
X131096450Y-72706035D01*
X131163745Y-72562000D01*
X134649928Y-72562000D01*
X134653000Y-72726250D01*
X134811750Y-72885000D01*
X135636000Y-72885000D01*
X135636000Y-72085750D01*
X135477250Y-71927000D01*
X135288000Y-71923928D01*
X135163518Y-71936188D01*
X135043820Y-71972498D01*
X134933506Y-72031463D01*
X134836815Y-72110815D01*
X134757463Y-72207506D01*
X134698498Y-72317820D01*
X134662188Y-72437518D01*
X134649928Y-72562000D01*
X131163745Y-72562000D01*
X131209850Y-72463322D01*
X131273719Y-72203151D01*
X131285604Y-71935518D01*
X131245048Y-71670709D01*
X131153609Y-71418900D01*
X131096450Y-71311965D01*
X130860133Y-71249472D01*
X130100605Y-72009000D01*
X129741395Y-72009000D01*
X129727253Y-71994858D01*
X129906858Y-71815253D01*
X129921000Y-71829395D01*
X130680528Y-71069867D01*
X130618035Y-70833550D01*
X130415667Y-70739000D01*
X132205627Y-70739000D01*
X132268000Y-70745143D01*
X132330373Y-70739000D01*
X132330380Y-70739000D01*
X132516963Y-70720623D01*
X132756359Y-70648003D01*
X132976988Y-70530075D01*
X133170370Y-70371370D01*
X133210141Y-70322909D01*
X133276650Y-70256400D01*
X137386809Y-70256400D01*
X137377498Y-70273820D01*
G04 #@! TA.AperFunction,Conductor*
D40*
G36*
X137377498Y-70273820D02*
G01*
X137341188Y-70393518D01*
X137328928Y-70518000D01*
X137332000Y-70707250D01*
X137490750Y-70866000D01*
X138290000Y-70866000D01*
X138290000Y-70846000D01*
X138544000Y-70846000D01*
X138544000Y-70866000D01*
X138564000Y-70866000D01*
X138564000Y-71120000D01*
X138544000Y-71120000D01*
X138544000Y-71140000D01*
X138290000Y-71140000D01*
X138290000Y-71120000D01*
X137490750Y-71120000D01*
X137332000Y-71278750D01*
X137328928Y-71468000D01*
X137341188Y-71592482D01*
X137377498Y-71712180D01*
X137436463Y-71822494D01*
X137480810Y-71876531D01*
X137062000Y-71873928D01*
X136937518Y-71886188D01*
X136817820Y-71922498D01*
X136707506Y-71981463D01*
X136619537Y-72053657D01*
X136592494Y-72031463D01*
X136482180Y-71972498D01*
X136362482Y-71936188D01*
X136238000Y-71923928D01*
X136048750Y-71927000D01*
X135890000Y-72085750D01*
X135890000Y-72885000D01*
X135910000Y-72885000D01*
X135910000Y-73139000D01*
X135890000Y-73139000D01*
X135890000Y-73159000D01*
X135636000Y-73159000D01*
X135636000Y-73139000D01*
X134811750Y-73139000D01*
X134671750Y-73279000D01*
X130447050Y-73279000D01*
X130436682Y-73268632D01*
X130511100Y-73241609D01*
X130618035Y-73184450D01*
X130680528Y-72948133D01*
X129921000Y-72188605D01*
X129906858Y-72202748D01*
X129727253Y-72023143D01*
X129741395Y-72009000D01*
X130100605Y-72009000D01*
X130860133Y-72768528D01*
X131096450Y-72706035D01*
X131163745Y-72562000D01*
X134649928Y-72562000D01*
X134653000Y-72726250D01*
X134811750Y-72885000D01*
X135636000Y-72885000D01*
X135636000Y-72085750D01*
X135477250Y-71927000D01*
X135288000Y-71923928D01*
X135163518Y-71936188D01*
X135043820Y-71972498D01*
X134933506Y-72031463D01*
X134836815Y-72110815D01*
X134757463Y-72207506D01*
X134698498Y-72317820D01*
X134662188Y-72437518D01*
X134649928Y-72562000D01*
X131163745Y-72562000D01*
X131209850Y-72463322D01*
X131273719Y-72203151D01*
X131285604Y-71935518D01*
X131245048Y-71670709D01*
X131153609Y-71418900D01*
X131096450Y-71311965D01*
X130860133Y-71249472D01*
X130100605Y-72009000D01*
X129741395Y-72009000D01*
X129727253Y-71994858D01*
X129906858Y-71815253D01*
X129921000Y-71829395D01*
X130680528Y-71069867D01*
X130618035Y-70833550D01*
X130415667Y-70739000D01*
X132205627Y-70739000D01*
X132268000Y-70745143D01*
X132330373Y-70739000D01*
X132330380Y-70739000D01*
X132516963Y-70720623D01*
X132756359Y-70648003D01*
X132976988Y-70530075D01*
X133170370Y-70371370D01*
X133210141Y-70322909D01*
X133276650Y-70256400D01*
X137386809Y-70256400D01*
X137377498Y-70273820D01*
G37*
G04 #@! TD.AperFunction*
D39*
X145288000Y-71279640D02*
X145284913Y-71272187D01*
X145159826Y-71084980D01*
X145000620Y-70925774D01*
X144813413Y-70800687D01*
X144605401Y-70714525D01*
X144384576Y-70670600D01*
X144159424Y-70670600D01*
X143938599Y-70714525D01*
X143730587Y-70800687D01*
X143652794Y-70852667D01*
X143645836Y-70817688D01*
X143578821Y-70655901D01*
X143481531Y-70510296D01*
X143357704Y-70386469D01*
X143212099Y-70289179D01*
X143050312Y-70222164D01*
X143044704Y-70221048D01*
X142976573Y-70165135D01*
X142839784Y-70092019D01*
X142691358Y-70046995D01*
X142575674Y-70035601D01*
X142575664Y-70035601D01*
X142537001Y-70031793D01*
X142498338Y-70035601D01*
X141849545Y-70035601D01*
X140753519Y-68939577D01*
X140748725Y-68933735D01*
X140850987Y-68879075D01*
X141044370Y-68720370D01*
X141203075Y-68526988D01*
X141321003Y-68306359D01*
X141393623Y-68066963D01*
X141412000Y-67880380D01*
X141412000Y-66928208D01*
X141446482Y-66924812D01*
X141566180Y-66888502D01*
X141637447Y-66850408D01*
X141698815Y-66925185D01*
X141795506Y-67004537D01*
X141905820Y-67063502D01*
X142025518Y-67099812D01*
X142150000Y-67112072D01*
X142589250Y-67109000D01*
X142748000Y-66950250D01*
X142748000Y-66101000D01*
X143002000Y-66101000D01*
X143002000Y-66950250D01*
X143160750Y-67109000D01*
X143600000Y-67112072D01*
X143724482Y-67099812D01*
X143844180Y-67063502D01*
X143954494Y-67004537D01*
X144051185Y-66925185D01*
X144130537Y-66828494D01*
X144189502Y-66718180D01*
X144225812Y-66598482D01*
X144238072Y-66474000D01*
X144235000Y-66259750D01*
X144076250Y-66101000D01*
X143002000Y-66101000D01*
X142748000Y-66101000D01*
X142728000Y-66101000D01*
X142728000Y-65847000D01*
X142748000Y-65847000D01*
X142748000Y-65827000D01*
X143002000Y-65827000D01*
X143002000Y-65847000D01*
X144076250Y-65847000D01*
X144235000Y-65688250D01*
X144238072Y-65474000D01*
X144225812Y-65349518D01*
X144189502Y-65229820D01*
X144130537Y-65119506D01*
X144083119Y-65061726D01*
X144192599Y-65107075D01*
X144413424Y-65151000D01*
X144638576Y-65151000D01*
X144859401Y-65107075D01*
X145067413Y-65020913D01*
X145254620Y-64895826D01*
X145288000Y-64862446D01*
X145288000Y-71279640D01*
G04 #@! TA.AperFunction,Conductor*
D40*
G36*
X145288000Y-71279640D02*
G01*
X145284913Y-71272187D01*
X145159826Y-71084980D01*
X145000620Y-70925774D01*
X144813413Y-70800687D01*
X144605401Y-70714525D01*
X144384576Y-70670600D01*
X144159424Y-70670600D01*
X143938599Y-70714525D01*
X143730587Y-70800687D01*
X143652794Y-70852667D01*
X143645836Y-70817688D01*
X143578821Y-70655901D01*
X143481531Y-70510296D01*
X143357704Y-70386469D01*
X143212099Y-70289179D01*
X143050312Y-70222164D01*
X143044704Y-70221048D01*
X142976573Y-70165135D01*
X142839784Y-70092019D01*
X142691358Y-70046995D01*
X142575674Y-70035601D01*
X142575664Y-70035601D01*
X142537001Y-70031793D01*
X142498338Y-70035601D01*
X141849545Y-70035601D01*
X140753519Y-68939577D01*
X140748725Y-68933735D01*
X140850987Y-68879075D01*
X141044370Y-68720370D01*
X141203075Y-68526988D01*
X141321003Y-68306359D01*
X141393623Y-68066963D01*
X141412000Y-67880380D01*
X141412000Y-66928208D01*
X141446482Y-66924812D01*
X141566180Y-66888502D01*
X141637447Y-66850408D01*
X141698815Y-66925185D01*
X141795506Y-67004537D01*
X141905820Y-67063502D01*
X142025518Y-67099812D01*
X142150000Y-67112072D01*
X142589250Y-67109000D01*
X142748000Y-66950250D01*
X142748000Y-66101000D01*
X143002000Y-66101000D01*
X143002000Y-66950250D01*
X143160750Y-67109000D01*
X143600000Y-67112072D01*
X143724482Y-67099812D01*
X143844180Y-67063502D01*
X143954494Y-67004537D01*
X144051185Y-66925185D01*
X144130537Y-66828494D01*
X144189502Y-66718180D01*
X144225812Y-66598482D01*
X144238072Y-66474000D01*
X144235000Y-66259750D01*
X144076250Y-66101000D01*
X143002000Y-66101000D01*
X142748000Y-66101000D01*
X142728000Y-66101000D01*
X142728000Y-65847000D01*
X142748000Y-65847000D01*
X142748000Y-65827000D01*
X143002000Y-65827000D01*
X143002000Y-65847000D01*
X144076250Y-65847000D01*
X144235000Y-65688250D01*
X144238072Y-65474000D01*
X144225812Y-65349518D01*
X144189502Y-65229820D01*
X144130537Y-65119506D01*
X144083119Y-65061726D01*
X144192599Y-65107075D01*
X144413424Y-65151000D01*
X144638576Y-65151000D01*
X144859401Y-65107075D01*
X145067413Y-65020913D01*
X145254620Y-64895826D01*
X145288000Y-64862446D01*
X145288000Y-71279640D01*
G37*
G04 #@! TD.AperFunction*
D39*
X136707506Y-66829537D02*
X136817820Y-66888502D01*
X136937518Y-66924812D01*
X137062000Y-66937072D01*
X137478674Y-66937072D01*
X137436463Y-66988506D01*
X137377498Y-67098820D01*
X137341188Y-67218518D01*
X137328928Y-67343000D01*
X137332000Y-67532250D01*
X137490750Y-67691000D01*
X138290000Y-67691000D01*
X138290000Y-67671000D01*
X138544000Y-67671000D01*
X138544000Y-67691000D01*
X138564000Y-67691000D01*
X138564000Y-67945000D01*
X138544000Y-67945000D01*
X138544000Y-67965000D01*
X138290000Y-67965000D01*
X138290000Y-67945000D01*
X137490750Y-67945000D01*
X137332000Y-68103750D01*
X137328928Y-68293000D01*
X137341188Y-68417482D01*
X137377498Y-68537180D01*
X137436463Y-68647494D01*
X137464453Y-68681600D01*
X134851451Y-68681600D01*
X135592635Y-67940417D01*
X135592644Y-67940406D01*
X136705135Y-66827916D01*
X136705294Y-66827722D01*
X136707506Y-66829537D01*
G04 #@! TA.AperFunction,Conductor*
D40*
G36*
X136707506Y-66829537D02*
G01*
X136817820Y-66888502D01*
X136937518Y-66924812D01*
X137062000Y-66937072D01*
X137478674Y-66937072D01*
X137436463Y-66988506D01*
X137377498Y-67098820D01*
X137341188Y-67218518D01*
X137328928Y-67343000D01*
X137332000Y-67532250D01*
X137490750Y-67691000D01*
X138290000Y-67691000D01*
X138290000Y-67671000D01*
X138544000Y-67671000D01*
X138544000Y-67691000D01*
X138564000Y-67691000D01*
X138564000Y-67945000D01*
X138544000Y-67945000D01*
X138544000Y-67965000D01*
X138290000Y-67965000D01*
X138290000Y-67945000D01*
X137490750Y-67945000D01*
X137332000Y-68103750D01*
X137328928Y-68293000D01*
X137341188Y-68417482D01*
X137377498Y-68537180D01*
X137436463Y-68647494D01*
X137464453Y-68681600D01*
X134851451Y-68681600D01*
X135592635Y-67940417D01*
X135592644Y-67940406D01*
X136705135Y-66827916D01*
X136705294Y-66827722D01*
X136707506Y-66829537D01*
G37*
G04 #@! TD.AperFunction*
D39*
X134417463Y-55816506D02*
X134358498Y-55926820D01*
X134322188Y-56046518D01*
X134309928Y-56171000D01*
X134313000Y-56610250D01*
X134471750Y-56769000D01*
X135321000Y-56769000D01*
X135321000Y-56749000D01*
X135575000Y-56749000D01*
X135575000Y-56769000D01*
X135595000Y-56769000D01*
X135595000Y-57023000D01*
X135575000Y-57023000D01*
X135575000Y-58097250D01*
X135700000Y-58222250D01*
X135700000Y-58801000D01*
X135720000Y-58801000D01*
X135720000Y-59055000D01*
X135700000Y-59055000D01*
X135700000Y-59879250D01*
X135858750Y-60038000D01*
X135973000Y-60041072D01*
X136097482Y-60028812D01*
X136217180Y-59992502D01*
X136327494Y-59933537D01*
X136424185Y-59854185D01*
X136455410Y-59816137D01*
X136557392Y-59899831D01*
X136702284Y-59977278D01*
X136859500Y-60024969D01*
X137023000Y-60041072D01*
X137423000Y-60041072D01*
X137586500Y-60024969D01*
X137743716Y-59977278D01*
X137888608Y-59899831D01*
X138015606Y-59795606D01*
X138119831Y-59668608D01*
X138197278Y-59523716D01*
X138222309Y-59441200D01*
X138599928Y-59441200D01*
X138599928Y-59480000D01*
X138614110Y-59623991D01*
X138625348Y-59661037D01*
X138614156Y-59696004D01*
X138603000Y-59798250D01*
X138761750Y-59957000D01*
X138779259Y-59957000D01*
X138816104Y-60001896D01*
X138927949Y-60093684D01*
X138945378Y-60103000D01*
X138761750Y-60103000D01*
X138603000Y-60261750D01*
X138614156Y-60363996D01*
X138652285Y-60483127D01*
X138712922Y-60592531D01*
X138793737Y-60688003D01*
X138891625Y-60765874D01*
X139002825Y-60823151D01*
X139123061Y-60857634D01*
X139247715Y-60867998D01*
X139677250Y-60865000D01*
X139836000Y-60706250D01*
X139836000Y-60218072D01*
X140090000Y-60218072D01*
X140090000Y-60706250D01*
X140248750Y-60865000D01*
X140678285Y-60867998D01*
X140802939Y-60857634D01*
X140923175Y-60823151D01*
X141034375Y-60765874D01*
X141043332Y-60758748D01*
X141138000Y-60768072D01*
X141827250Y-60765000D01*
X141986000Y-60606250D01*
X141986000Y-59182000D01*
X141966000Y-59182000D01*
X141966000Y-58928000D01*
X141986000Y-58928000D01*
X141986000Y-57503750D01*
X141827250Y-57345000D01*
X141696179Y-57344416D01*
X141808716Y-57310278D01*
X141953608Y-57232831D01*
X142080606Y-57128606D01*
X142113000Y-57089134D01*
X142145394Y-57128606D01*
X142272392Y-57232831D01*
X142417284Y-57310278D01*
X142529821Y-57344416D01*
X142398750Y-57345000D01*
X142240000Y-57503750D01*
X142240000Y-58928000D01*
X142260000Y-58928000D01*
X142260000Y-59182000D01*
X142240000Y-59182000D01*
X142240000Y-60606250D01*
X142398750Y-60765000D01*
X143088000Y-60768072D01*
X143182668Y-60758748D01*
X143191625Y-60765874D01*
X143302825Y-60823151D01*
X143423061Y-60857634D01*
X143547715Y-60867998D01*
X143977250Y-60865000D01*
X144136000Y-60706250D01*
X144136000Y-60103000D01*
X144116000Y-60103000D01*
X144116000Y-60076250D01*
X144136000Y-60056250D01*
X144136000Y-59883000D01*
X144390000Y-59883000D01*
X144390000Y-60056250D01*
X144410000Y-60076250D01*
X144410000Y-60103000D01*
X144390000Y-60103000D01*
X144390000Y-60706250D01*
X144548750Y-60865000D01*
X144978285Y-60867998D01*
X145102939Y-60857634D01*
X145223175Y-60823151D01*
X145288000Y-60789761D01*
X145288000Y-63153554D01*
X145254620Y-63120174D01*
X145067413Y-62995087D01*
X144859401Y-62908925D01*
X144638576Y-62865000D01*
X144413424Y-62865000D01*
X144192599Y-62908925D01*
X144005076Y-62986600D01*
X143871723Y-62986600D01*
X143777370Y-62871630D01*
X143583987Y-62712926D01*
X143363359Y-62594998D01*
X143123963Y-62522377D01*
X142874999Y-62497857D01*
X142626036Y-62522377D01*
X142386641Y-62594998D01*
X142166013Y-62712926D01*
X142055039Y-62804000D01*
X140479620Y-62804000D01*
X140293037Y-62822377D01*
X140053641Y-62894997D01*
X139833012Y-63012925D01*
X139706994Y-63116345D01*
X139637518Y-63123188D01*
X139517820Y-63159498D01*
X139407506Y-63218463D01*
X139310815Y-63297815D01*
X139231463Y-63394506D01*
X139192000Y-63468335D01*
X139152537Y-63394506D01*
X139073185Y-63297815D01*
X138976494Y-63218463D01*
X138866180Y-63159498D01*
X138746482Y-63123188D01*
X138622000Y-63110928D01*
X138556685Y-63110928D01*
X138499866Y-63004628D01*
X138401469Y-62884731D01*
X138371427Y-62860076D01*
X137973927Y-62462577D01*
X137949269Y-62432531D01*
X137829372Y-62334134D01*
X137692583Y-62261018D01*
X137544157Y-62215994D01*
X137428473Y-62204600D01*
X137428463Y-62204600D01*
X137389800Y-62200792D01*
X137351137Y-62204600D01*
X135360020Y-62204600D01*
X135321357Y-62200792D01*
X135282694Y-62204600D01*
X135282685Y-62204600D01*
X135167001Y-62215994D01*
X135018575Y-62261018D01*
X134881786Y-62334134D01*
X134881784Y-62334135D01*
X134881785Y-62334135D01*
X134791927Y-62407879D01*
X134791925Y-62407881D01*
X134761889Y-62432531D01*
X134737239Y-62462567D01*
X134121077Y-63078731D01*
X134091031Y-63103389D01*
X133992634Y-63223287D01*
X133919518Y-63360076D01*
X133874494Y-63508502D01*
X133863100Y-63624186D01*
X133863100Y-63624195D01*
X133859292Y-63662858D01*
X133863100Y-63701521D01*
X133863101Y-66077849D01*
X133796594Y-66144356D01*
X133796583Y-66144365D01*
X131741950Y-68199000D01*
X130408799Y-68199000D01*
X130565201Y-68134216D01*
X130787949Y-67985381D01*
X130977381Y-67795949D01*
X131126216Y-67573201D01*
X131228736Y-67325697D01*
X131281000Y-67062948D01*
X131281000Y-66795052D01*
X131228736Y-66532303D01*
X131126216Y-66284799D01*
X130977381Y-66062051D01*
X130787949Y-65872619D01*
X130565201Y-65723784D01*
X130317697Y-65621264D01*
X130054948Y-65569000D01*
X129787052Y-65569000D01*
X129524303Y-65621264D01*
X129276799Y-65723784D01*
X129054051Y-65872619D01*
X128864619Y-66062051D01*
X128715784Y-66284799D01*
X128613264Y-66532303D01*
X128561000Y-66795052D01*
X128561000Y-66954948D01*
X121412000Y-59805950D01*
X121412000Y-56022599D01*
X123813245Y-56022599D01*
X127953559Y-60162914D01*
X127993326Y-60211370D01*
X128186708Y-60370075D01*
X128407337Y-60488003D01*
X128574112Y-60538594D01*
X128646732Y-60560623D01*
X128672451Y-60563156D01*
X128833316Y-60579000D01*
X128833322Y-60579000D01*
X128895695Y-60585143D01*
X128958068Y-60579000D01*
X129433201Y-60579000D01*
X129276799Y-60643784D01*
X129054051Y-60792619D01*
X128864619Y-60982051D01*
X128715784Y-61204799D01*
X128613264Y-61452303D01*
X128561000Y-61715052D01*
X128561000Y-61982948D01*
X128613264Y-62245697D01*
X128715784Y-62493201D01*
X128864619Y-62715949D01*
X129054051Y-62905381D01*
X129276799Y-63054216D01*
X129524303Y-63156736D01*
X129787052Y-63209000D01*
X130054948Y-63209000D01*
X130317697Y-63156736D01*
X130565201Y-63054216D01*
X130787949Y-62905381D01*
X130977381Y-62715949D01*
X131126216Y-62493201D01*
X131228736Y-62245697D01*
X131281000Y-61982948D01*
X131281000Y-61715052D01*
X131228736Y-61452303D01*
X131126216Y-61204799D01*
X130977381Y-60982051D01*
X130787949Y-60792619D01*
X130565201Y-60643784D01*
X130408799Y-60579000D01*
X130565201Y-60514216D01*
X130787949Y-60365381D01*
X130977381Y-60175949D01*
X131126216Y-59953201D01*
X131228736Y-59705697D01*
X131281000Y-59442948D01*
X131281000Y-59403000D01*
X134534928Y-59403000D01*
X134547188Y-59527482D01*
X134583498Y-59647180D01*
X134642463Y-59757494D01*
X134721815Y-59854185D01*
X134818506Y-59933537D01*
X134928820Y-59992502D01*
X135048518Y-60028812D01*
X135173000Y-60041072D01*
X135287250Y-60038000D01*
X135446000Y-59879250D01*
X135446000Y-59055000D01*
X134696750Y-59055000D01*
X134538000Y-59213750D01*
X134534928Y-59403000D01*
X131281000Y-59403000D01*
X131281000Y-59296038D01*
X132956038Y-57621000D01*
X134309928Y-57621000D01*
X134322188Y-57745482D01*
X134358498Y-57865180D01*
X134417463Y-57975494D01*
X134496815Y-58072185D01*
X134593506Y-58151537D01*
X134609537Y-58160106D01*
X134583498Y-58208820D01*
X134547188Y-58328518D01*
X134534928Y-58453000D01*
X134538000Y-58642250D01*
X134696750Y-58801000D01*
X135446000Y-58801000D01*
X135446000Y-57976750D01*
X135321000Y-57851750D01*
X135321000Y-57023000D01*
X134471750Y-57023000D01*
X134313000Y-57181750D01*
X134309928Y-57621000D01*
X132956038Y-57621000D01*
X133228431Y-57348607D01*
X133264778Y-57318778D01*
X133383806Y-57173741D01*
X133472252Y-57008269D01*
X133526717Y-56828723D01*
X133540500Y-56688785D01*
X133540500Y-56688784D01*
X133545108Y-56642000D01*
X133540500Y-56595215D01*
X133540500Y-56147538D01*
X133871539Y-55816500D01*
X134417468Y-55816500D01*
X134417463Y-55816506D01*
G04 #@! TA.AperFunction,Conductor*
D40*
G36*
X134417463Y-55816506D02*
G01*
X134358498Y-55926820D01*
X134322188Y-56046518D01*
X134309928Y-56171000D01*
X134313000Y-56610250D01*
X134471750Y-56769000D01*
X135321000Y-56769000D01*
X135321000Y-56749000D01*
X135575000Y-56749000D01*
X135575000Y-56769000D01*
X135595000Y-56769000D01*
X135595000Y-57023000D01*
X135575000Y-57023000D01*
X135575000Y-58097250D01*
X135700000Y-58222250D01*
X135700000Y-58801000D01*
X135720000Y-58801000D01*
X135720000Y-59055000D01*
X135700000Y-59055000D01*
X135700000Y-59879250D01*
X135858750Y-60038000D01*
X135973000Y-60041072D01*
X136097482Y-60028812D01*
X136217180Y-59992502D01*
X136327494Y-59933537D01*
X136424185Y-59854185D01*
X136455410Y-59816137D01*
X136557392Y-59899831D01*
X136702284Y-59977278D01*
X136859500Y-60024969D01*
X137023000Y-60041072D01*
X137423000Y-60041072D01*
X137586500Y-60024969D01*
X137743716Y-59977278D01*
X137888608Y-59899831D01*
X138015606Y-59795606D01*
X138119831Y-59668608D01*
X138197278Y-59523716D01*
X138222309Y-59441200D01*
X138599928Y-59441200D01*
X138599928Y-59480000D01*
X138614110Y-59623991D01*
X138625348Y-59661037D01*
X138614156Y-59696004D01*
X138603000Y-59798250D01*
X138761750Y-59957000D01*
X138779259Y-59957000D01*
X138816104Y-60001896D01*
X138927949Y-60093684D01*
X138945378Y-60103000D01*
X138761750Y-60103000D01*
X138603000Y-60261750D01*
X138614156Y-60363996D01*
X138652285Y-60483127D01*
X138712922Y-60592531D01*
X138793737Y-60688003D01*
X138891625Y-60765874D01*
X139002825Y-60823151D01*
X139123061Y-60857634D01*
X139247715Y-60867998D01*
X139677250Y-60865000D01*
X139836000Y-60706250D01*
X139836000Y-60218072D01*
X140090000Y-60218072D01*
X140090000Y-60706250D01*
X140248750Y-60865000D01*
X140678285Y-60867998D01*
X140802939Y-60857634D01*
X140923175Y-60823151D01*
X141034375Y-60765874D01*
X141043332Y-60758748D01*
X141138000Y-60768072D01*
X141827250Y-60765000D01*
X141986000Y-60606250D01*
X141986000Y-59182000D01*
X141966000Y-59182000D01*
X141966000Y-58928000D01*
X141986000Y-58928000D01*
X141986000Y-57503750D01*
X141827250Y-57345000D01*
X141696179Y-57344416D01*
X141808716Y-57310278D01*
X141953608Y-57232831D01*
X142080606Y-57128606D01*
X142113000Y-57089134D01*
X142145394Y-57128606D01*
X142272392Y-57232831D01*
X142417284Y-57310278D01*
X142529821Y-57344416D01*
X142398750Y-57345000D01*
X142240000Y-57503750D01*
X142240000Y-58928000D01*
X142260000Y-58928000D01*
X142260000Y-59182000D01*
X142240000Y-59182000D01*
X142240000Y-60606250D01*
X142398750Y-60765000D01*
X143088000Y-60768072D01*
X143182668Y-60758748D01*
X143191625Y-60765874D01*
X143302825Y-60823151D01*
X143423061Y-60857634D01*
X143547715Y-60867998D01*
X143977250Y-60865000D01*
X144136000Y-60706250D01*
X144136000Y-60103000D01*
X144116000Y-60103000D01*
X144116000Y-60076250D01*
X144136000Y-60056250D01*
X144136000Y-59883000D01*
X144390000Y-59883000D01*
X144390000Y-60056250D01*
X144410000Y-60076250D01*
X144410000Y-60103000D01*
X144390000Y-60103000D01*
X144390000Y-60706250D01*
X144548750Y-60865000D01*
X144978285Y-60867998D01*
X145102939Y-60857634D01*
X145223175Y-60823151D01*
X145288000Y-60789761D01*
X145288000Y-63153554D01*
X145254620Y-63120174D01*
X145067413Y-62995087D01*
X144859401Y-62908925D01*
X144638576Y-62865000D01*
X144413424Y-62865000D01*
X144192599Y-62908925D01*
X144005076Y-62986600D01*
X143871723Y-62986600D01*
X143777370Y-62871630D01*
X143583987Y-62712926D01*
X143363359Y-62594998D01*
X143123963Y-62522377D01*
X142874999Y-62497857D01*
X142626036Y-62522377D01*
X142386641Y-62594998D01*
X142166013Y-62712926D01*
X142055039Y-62804000D01*
X140479620Y-62804000D01*
X140293037Y-62822377D01*
X140053641Y-62894997D01*
X139833012Y-63012925D01*
X139706994Y-63116345D01*
X139637518Y-63123188D01*
X139517820Y-63159498D01*
X139407506Y-63218463D01*
X139310815Y-63297815D01*
X139231463Y-63394506D01*
X139192000Y-63468335D01*
X139152537Y-63394506D01*
X139073185Y-63297815D01*
X138976494Y-63218463D01*
X138866180Y-63159498D01*
X138746482Y-63123188D01*
X138622000Y-63110928D01*
X138556685Y-63110928D01*
X138499866Y-63004628D01*
X138401469Y-62884731D01*
X138371427Y-62860076D01*
X137973927Y-62462577D01*
X137949269Y-62432531D01*
X137829372Y-62334134D01*
X137692583Y-62261018D01*
X137544157Y-62215994D01*
X137428473Y-62204600D01*
X137428463Y-62204600D01*
X137389800Y-62200792D01*
X137351137Y-62204600D01*
X135360020Y-62204600D01*
X135321357Y-62200792D01*
X135282694Y-62204600D01*
X135282685Y-62204600D01*
X135167001Y-62215994D01*
X135018575Y-62261018D01*
X134881786Y-62334134D01*
X134881784Y-62334135D01*
X134881785Y-62334135D01*
X134791927Y-62407879D01*
X134791925Y-62407881D01*
X134761889Y-62432531D01*
X134737239Y-62462567D01*
X134121077Y-63078731D01*
X134091031Y-63103389D01*
X133992634Y-63223287D01*
X133919518Y-63360076D01*
X133874494Y-63508502D01*
X133863100Y-63624186D01*
X133863100Y-63624195D01*
X133859292Y-63662858D01*
X133863100Y-63701521D01*
X133863101Y-66077849D01*
X133796594Y-66144356D01*
X133796583Y-66144365D01*
X131741950Y-68199000D01*
X130408799Y-68199000D01*
X130565201Y-68134216D01*
X130787949Y-67985381D01*
X130977381Y-67795949D01*
X131126216Y-67573201D01*
X131228736Y-67325697D01*
X131281000Y-67062948D01*
X131281000Y-66795052D01*
X131228736Y-66532303D01*
X131126216Y-66284799D01*
X130977381Y-66062051D01*
X130787949Y-65872619D01*
X130565201Y-65723784D01*
X130317697Y-65621264D01*
X130054948Y-65569000D01*
X129787052Y-65569000D01*
X129524303Y-65621264D01*
X129276799Y-65723784D01*
X129054051Y-65872619D01*
X128864619Y-66062051D01*
X128715784Y-66284799D01*
X128613264Y-66532303D01*
X128561000Y-66795052D01*
X128561000Y-66954948D01*
X121412000Y-59805950D01*
X121412000Y-56022599D01*
X123813245Y-56022599D01*
X127953559Y-60162914D01*
X127993326Y-60211370D01*
X128186708Y-60370075D01*
X128407337Y-60488003D01*
X128574112Y-60538594D01*
X128646732Y-60560623D01*
X128672451Y-60563156D01*
X128833316Y-60579000D01*
X128833322Y-60579000D01*
X128895695Y-60585143D01*
X128958068Y-60579000D01*
X129433201Y-60579000D01*
X129276799Y-60643784D01*
X129054051Y-60792619D01*
X128864619Y-60982051D01*
X128715784Y-61204799D01*
X128613264Y-61452303D01*
X128561000Y-61715052D01*
X128561000Y-61982948D01*
X128613264Y-62245697D01*
X128715784Y-62493201D01*
X128864619Y-62715949D01*
X129054051Y-62905381D01*
X129276799Y-63054216D01*
X129524303Y-63156736D01*
X129787052Y-63209000D01*
X130054948Y-63209000D01*
X130317697Y-63156736D01*
X130565201Y-63054216D01*
X130787949Y-62905381D01*
X130977381Y-62715949D01*
X131126216Y-62493201D01*
X131228736Y-62245697D01*
X131281000Y-61982948D01*
X131281000Y-61715052D01*
X131228736Y-61452303D01*
X131126216Y-61204799D01*
X130977381Y-60982051D01*
X130787949Y-60792619D01*
X130565201Y-60643784D01*
X130408799Y-60579000D01*
X130565201Y-60514216D01*
X130787949Y-60365381D01*
X130977381Y-60175949D01*
X131126216Y-59953201D01*
X131228736Y-59705697D01*
X131281000Y-59442948D01*
X131281000Y-59403000D01*
X134534928Y-59403000D01*
X134547188Y-59527482D01*
X134583498Y-59647180D01*
X134642463Y-59757494D01*
X134721815Y-59854185D01*
X134818506Y-59933537D01*
X134928820Y-59992502D01*
X135048518Y-60028812D01*
X135173000Y-60041072D01*
X135287250Y-60038000D01*
X135446000Y-59879250D01*
X135446000Y-59055000D01*
X134696750Y-59055000D01*
X134538000Y-59213750D01*
X134534928Y-59403000D01*
X131281000Y-59403000D01*
X131281000Y-59296038D01*
X132956038Y-57621000D01*
X134309928Y-57621000D01*
X134322188Y-57745482D01*
X134358498Y-57865180D01*
X134417463Y-57975494D01*
X134496815Y-58072185D01*
X134593506Y-58151537D01*
X134609537Y-58160106D01*
X134583498Y-58208820D01*
X134547188Y-58328518D01*
X134534928Y-58453000D01*
X134538000Y-58642250D01*
X134696750Y-58801000D01*
X135446000Y-58801000D01*
X135446000Y-57976750D01*
X135321000Y-57851750D01*
X135321000Y-57023000D01*
X134471750Y-57023000D01*
X134313000Y-57181750D01*
X134309928Y-57621000D01*
X132956038Y-57621000D01*
X133228431Y-57348607D01*
X133264778Y-57318778D01*
X133383806Y-57173741D01*
X133472252Y-57008269D01*
X133526717Y-56828723D01*
X133540500Y-56688785D01*
X133540500Y-56688784D01*
X133545108Y-56642000D01*
X133540500Y-56595215D01*
X133540500Y-56147538D01*
X133871539Y-55816500D01*
X134417468Y-55816500D01*
X134417463Y-55816506D01*
G37*
G04 #@! TD.AperFunction*
D39*
X139310815Y-64850185D02*
X139407506Y-64929537D01*
X139517820Y-64988502D01*
X139634841Y-65024000D01*
X139517820Y-65059498D01*
X139407506Y-65118463D01*
X139310815Y-65197815D01*
X139236103Y-65288853D01*
X139098250Y-65151000D01*
X139016141Y-65151000D01*
X138976494Y-65118463D01*
X138866180Y-65059498D01*
X138749159Y-65024000D01*
X138866180Y-64988502D01*
X138976494Y-64929537D01*
X139016141Y-64897000D01*
X139098250Y-64897000D01*
X139236103Y-64759147D01*
X139310815Y-64850185D01*
G04 #@! TA.AperFunction,Conductor*
D40*
G36*
X139310815Y-64850185D02*
G01*
X139407506Y-64929537D01*
X139517820Y-64988502D01*
X139634841Y-65024000D01*
X139517820Y-65059498D01*
X139407506Y-65118463D01*
X139310815Y-65197815D01*
X139236103Y-65288853D01*
X139098250Y-65151000D01*
X139016141Y-65151000D01*
X138976494Y-65118463D01*
X138866180Y-65059498D01*
X138749159Y-65024000D01*
X138866180Y-64988502D01*
X138976494Y-64929537D01*
X139016141Y-64897000D01*
X139098250Y-64897000D01*
X139236103Y-64759147D01*
X139310815Y-64850185D01*
G37*
G04 #@! TD.AperFunction*
D39*
X135890000Y-64122000D02*
X135910000Y-64122000D01*
X135910000Y-64376000D01*
X135890000Y-64376000D01*
X135890000Y-64396000D01*
X135636000Y-64396000D01*
X135636000Y-64376000D01*
X135616000Y-64376000D01*
X135616000Y-64122000D01*
X135636000Y-64122000D01*
X135636000Y-64102000D01*
X135890000Y-64102000D01*
X135890000Y-64122000D01*
G04 #@! TA.AperFunction,Conductor*
D40*
G36*
X135890000Y-64122000D02*
G01*
X135910000Y-64122000D01*
X135910000Y-64376000D01*
X135890000Y-64376000D01*
X135890000Y-64396000D01*
X135636000Y-64396000D01*
X135636000Y-64376000D01*
X135616000Y-64376000D01*
X135616000Y-64122000D01*
X135636000Y-64122000D01*
X135636000Y-64102000D01*
X135890000Y-64102000D01*
X135890000Y-64122000D01*
G37*
G04 #@! TD.AperFunction*
D39*
X131947564Y-55046398D02*
X131911223Y-55076222D01*
X131881399Y-55112563D01*
X131792194Y-55221260D01*
X131703749Y-55386731D01*
X131649283Y-55566278D01*
X131630892Y-55753000D01*
X131635500Y-55799785D01*
X131635500Y-56247462D01*
X131272567Y-56610395D01*
X131245048Y-56430709D01*
X131153609Y-56178900D01*
X131096450Y-56071965D01*
X130860133Y-56009472D01*
X130100605Y-56769000D01*
X130114748Y-56783143D01*
X129935143Y-56962748D01*
X129921000Y-56948605D01*
X129906858Y-56962748D01*
X129727253Y-56783143D01*
X129741395Y-56769000D01*
X128981867Y-56009472D01*
X128745550Y-56071965D01*
X128632150Y-56314678D01*
X128568281Y-56574849D01*
X128556396Y-56842482D01*
X128596952Y-57107291D01*
X128657912Y-57275165D01*
X127212614Y-55829867D01*
X129161472Y-55829867D01*
X129921000Y-56589395D01*
X130680528Y-55829867D01*
X130618035Y-55593550D01*
X130375322Y-55480150D01*
X130115151Y-55416281D01*
X129847518Y-55404396D01*
X129582709Y-55444952D01*
X129330900Y-55536391D01*
X129223965Y-55593550D01*
X129161472Y-55829867D01*
X127212614Y-55829867D01*
X126119746Y-54737000D01*
X132256962Y-54737000D01*
X131947564Y-55046398D01*
G04 #@! TA.AperFunction,Conductor*
D40*
G36*
X131947564Y-55046398D02*
G01*
X131911223Y-55076222D01*
X131881399Y-55112563D01*
X131792194Y-55221260D01*
X131703749Y-55386731D01*
X131649283Y-55566278D01*
X131630892Y-55753000D01*
X131635500Y-55799785D01*
X131635500Y-56247462D01*
X131272567Y-56610395D01*
X131245048Y-56430709D01*
X131153609Y-56178900D01*
X131096450Y-56071965D01*
X130860133Y-56009472D01*
X130100605Y-56769000D01*
X130114748Y-56783143D01*
X129935143Y-56962748D01*
X129921000Y-56948605D01*
X129906858Y-56962748D01*
X129727253Y-56783143D01*
X129741395Y-56769000D01*
X128981867Y-56009472D01*
X128745550Y-56071965D01*
X128632150Y-56314678D01*
X128568281Y-56574849D01*
X128556396Y-56842482D01*
X128596952Y-57107291D01*
X128657912Y-57275165D01*
X127212614Y-55829867D01*
X129161472Y-55829867D01*
X129921000Y-56589395D01*
X130680528Y-55829867D01*
X130618035Y-55593550D01*
X130375322Y-55480150D01*
X130115151Y-55416281D01*
X129847518Y-55404396D01*
X129582709Y-55444952D01*
X129330900Y-55536391D01*
X129223965Y-55593550D01*
X129161472Y-55829867D01*
X127212614Y-55829867D01*
X126119746Y-54737000D01*
X132256962Y-54737000D01*
X131947564Y-55046398D01*
G37*
G04 #@! TD.AperFunction*
M02*
