G04 #@! TF.GenerationSoftware,KiCad,Pcbnew,(5.1.4)-1*
G04 #@! TF.CreationDate,2019-12-30T13:26:32-06:00*
G04 #@! TF.ProjectId,digital_pcb,64696769-7461-46c5-9f70-63622e6b6963,rev?*
G04 #@! TF.SameCoordinates,Original*
G04 #@! TF.FileFunction,Soldermask,Top*
G04 #@! TF.FilePolarity,Negative*
%FSLAX46Y46*%
G04 Gerber Fmt 4.6, Leading zero omitted, Abs format (unit mm)*
G04 Created by KiCad (PCBNEW (5.1.4)-1) date 2019-12-30 13:26:32*
%MOMM*%
%LPD*%
G04 APERTURE LIST*
%ADD10R,1.301600X0.851600*%
%ADD11R,0.851600X1.301600*%
%ADD12R,1.351600X1.601600*%
%ADD13C,1.721600*%
%ADD14C,1.931600*%
%ADD15C,3.401600*%
%ADD16C,1.601600*%
%ADD17R,1.801600X1.801600*%
%ADD18O,1.801600X1.801600*%
%ADD19R,0.901600X1.001600*%
%ADD20R,1.001600X1.301600*%
%ADD21R,1.301600X1.001600*%
%ADD22R,0.351600X1.401600*%
%ADD23R,1.401600X0.351600*%
%ADD24R,0.401600X0.626600*%
%ADD25R,0.526600X0.401600*%
%ADD26R,1.601600X2.501600*%
%ADD27R,0.911600X0.521600*%
%ADD28R,1.601600X0.551600*%
%ADD29R,1.051600X1.151600*%
%ADD30R,0.751600X1.661600*%
%ADD31R,2.101600X1.601600*%
%ADD32R,2.101600X3.901600*%
%ADD33C,1.551600*%
%ADD34R,1.661600X0.751600*%
%ADD35R,2.101600X4.601600*%
%ADD36R,4.601600X2.101600*%
%ADD37C,2.000000*%
%ADD38C,3.301600*%
G04 APERTURE END LIST*
D10*
X150122001Y-89954001D03*
X152022001Y-89954001D03*
X155387000Y-88519000D03*
X157287000Y-88519000D03*
X157287000Y-104140000D03*
X155387000Y-104140000D03*
X174432000Y-92329000D03*
X172532000Y-92329000D03*
X172532000Y-101473000D03*
X174432000Y-101473000D03*
X160086000Y-90805000D03*
X161986000Y-90805000D03*
D11*
X161671000Y-105090000D03*
X161671000Y-103190000D03*
D10*
X150429000Y-79502000D03*
X148529000Y-79502000D03*
D11*
X151638000Y-76388000D03*
X151638000Y-74488000D03*
X154686000Y-85405000D03*
X154686000Y-83505000D03*
X167132000Y-74991000D03*
X167132000Y-73091000D03*
D10*
X151445000Y-72517000D03*
X149545000Y-72517000D03*
D11*
X168275000Y-79822000D03*
X168275000Y-81722000D03*
X161417000Y-120330000D03*
X161417000Y-118430000D03*
X156083000Y-120330000D03*
X156083000Y-118430000D03*
D10*
X159700000Y-116459000D03*
X157800000Y-116459000D03*
X164150000Y-111887000D03*
X166050000Y-111887000D03*
X151450000Y-113030000D03*
X153350000Y-113030000D03*
X152715000Y-106172000D03*
X150815000Y-106172000D03*
X164150000Y-113284000D03*
X166050000Y-113284000D03*
X187259000Y-76581000D03*
X185359000Y-76581000D03*
D11*
X172466000Y-69027000D03*
X172466000Y-70927000D03*
D12*
X137287000Y-85324000D03*
X137287000Y-82824000D03*
D11*
X135509000Y-83124000D03*
X135509000Y-85024000D03*
X133985000Y-85024000D03*
X133985000Y-83124000D03*
D12*
X137287000Y-77871000D03*
X137287000Y-80371000D03*
D11*
X135509000Y-78171000D03*
X135509000Y-80071000D03*
X133985000Y-80071000D03*
X133985000Y-78171000D03*
X135763000Y-72837000D03*
X135763000Y-74737000D03*
X135763000Y-65974000D03*
X135763000Y-64074000D03*
X142621000Y-74737000D03*
X142621000Y-72837000D03*
D10*
X138242000Y-67818000D03*
X140142000Y-67818000D03*
X138242000Y-70993000D03*
X140142000Y-70993000D03*
D12*
X142875000Y-66274000D03*
X142875000Y-63774000D03*
D13*
X170688000Y-63500000D03*
X170688000Y-60960000D03*
D14*
X173228000Y-59690000D03*
X173228000Y-64770000D03*
D15*
X165608000Y-62230000D03*
D16*
X124079000Y-89448000D03*
X124079000Y-94448000D03*
D17*
X178054000Y-88392000D03*
D18*
X175514000Y-88392000D03*
X172974000Y-88392000D03*
X170434000Y-88392000D03*
X118740000Y-79250000D03*
X118740000Y-76710000D03*
X118740000Y-74170000D03*
X118740000Y-71630000D03*
X118740000Y-69090000D03*
X118740000Y-66550000D03*
X118740000Y-64010000D03*
X118740000Y-61470000D03*
X118740000Y-58930000D03*
D17*
X118740000Y-56390000D03*
D18*
X147574000Y-92710000D03*
D17*
X150114000Y-92710000D03*
D18*
X118745000Y-94488000D03*
D17*
X118745000Y-91948000D03*
D19*
X182499000Y-68342000D03*
X183449000Y-70342000D03*
X181549000Y-70342000D03*
D20*
X165481000Y-88222000D03*
X165481000Y-86022000D03*
X166497000Y-106637000D03*
X166497000Y-104437000D03*
X163830000Y-86022000D03*
X163830000Y-88222000D03*
X162179000Y-88222000D03*
X162179000Y-86022000D03*
D21*
X152177001Y-88392000D03*
X149977001Y-88392000D03*
D20*
X168148000Y-104437000D03*
X168148000Y-106637000D03*
X169799000Y-106637000D03*
X169799000Y-104437000D03*
X152781000Y-97493000D03*
X152781000Y-95293000D03*
D21*
X161374000Y-81661000D03*
X159174000Y-81661000D03*
X161399999Y-79945999D03*
X159199999Y-79945999D03*
D20*
X152781000Y-85555000D03*
X152781000Y-83355000D03*
D21*
X150579000Y-81153000D03*
X148379000Y-81153000D03*
X157396000Y-83312000D03*
X159596000Y-83312000D03*
D20*
X159766000Y-118280000D03*
X159766000Y-120480000D03*
X157734000Y-120480000D03*
X157734000Y-118280000D03*
D21*
X164000000Y-114808000D03*
X166200000Y-114808000D03*
X151300000Y-114554000D03*
X153500000Y-114554000D03*
X149309000Y-107950000D03*
X147109000Y-107950000D03*
X147109000Y-109728000D03*
X149309000Y-109728000D03*
X151300000Y-111506000D03*
X153500000Y-111506000D03*
D20*
X183515000Y-74379000D03*
X183515000Y-72179000D03*
X181864000Y-74379000D03*
X181864000Y-72179000D03*
X170688000Y-71077000D03*
X170688000Y-68877000D03*
D22*
X163493000Y-92551000D03*
X163993000Y-92551000D03*
X164493000Y-92551000D03*
X164993000Y-92551000D03*
X165493000Y-92551000D03*
X165993000Y-92551000D03*
X166493000Y-92551000D03*
X166993000Y-92551000D03*
X167493000Y-92551000D03*
X167993000Y-92551000D03*
X168493000Y-92551000D03*
X168993000Y-92551000D03*
D23*
X170593000Y-94151000D03*
X170593000Y-94651000D03*
X170593000Y-95151000D03*
X170593000Y-95651000D03*
X170593000Y-96151000D03*
X170593000Y-96651000D03*
X170593000Y-97151000D03*
X170593000Y-97651000D03*
X170593000Y-98151000D03*
X170593000Y-98651000D03*
X170593000Y-99151000D03*
X170593000Y-99651000D03*
D22*
X168993000Y-101251000D03*
X168493000Y-101251000D03*
X167993000Y-101251000D03*
X167493000Y-101251000D03*
X166993000Y-101251000D03*
X166493000Y-101251000D03*
X165993000Y-101251000D03*
X165493000Y-101251000D03*
X164993000Y-101251000D03*
X164493000Y-101251000D03*
X163993000Y-101251000D03*
X163493000Y-101251000D03*
D23*
X161893000Y-99651000D03*
X161893000Y-99151000D03*
X161893000Y-98651000D03*
X161893000Y-98151000D03*
X161893000Y-97651000D03*
X161893000Y-97151000D03*
X161893000Y-96651000D03*
X161893000Y-96151000D03*
X161893000Y-95651000D03*
X161893000Y-95151000D03*
X161893000Y-94651000D03*
X161893000Y-94151000D03*
D24*
X153317000Y-78193500D03*
X153817000Y-78193500D03*
X154317000Y-78193500D03*
X154817000Y-78193500D03*
X155317000Y-78193500D03*
X155817000Y-78193500D03*
X156317000Y-78193500D03*
X156817000Y-78193500D03*
X157317000Y-78193500D03*
D25*
X157379500Y-79006000D03*
X157379500Y-79506000D03*
X157379500Y-80006000D03*
X157379500Y-80506000D03*
D24*
X157317000Y-81318500D03*
X156817000Y-81318500D03*
X156317000Y-81318500D03*
X155817000Y-81318500D03*
X155317000Y-81318500D03*
X154817000Y-81318500D03*
X154317000Y-81318500D03*
X153817000Y-81318500D03*
X153317000Y-81318500D03*
X152817000Y-81318500D03*
D25*
X152754500Y-80506000D03*
X152754500Y-80006000D03*
X152754500Y-79506000D03*
X152754500Y-79006000D03*
D24*
X152817000Y-78193500D03*
D26*
X165227000Y-80772000D03*
D27*
X166682000Y-79772000D03*
X166682000Y-80772000D03*
X166682000Y-81772000D03*
X163772000Y-81772000D03*
X163772000Y-80772000D03*
X163772000Y-79772000D03*
D28*
X161700000Y-110374000D03*
X161700000Y-111024000D03*
X161700000Y-111674000D03*
X161700000Y-112324000D03*
X161700000Y-112974000D03*
X161700000Y-113624000D03*
X161700000Y-114274000D03*
X161700000Y-114924000D03*
X155800000Y-114924000D03*
X155800000Y-114274000D03*
X155800000Y-113624000D03*
X155800000Y-112974000D03*
X155800000Y-112324000D03*
X155800000Y-111674000D03*
X155800000Y-111024000D03*
X155800000Y-110374000D03*
D29*
X151040000Y-107914000D03*
X151040000Y-109764000D03*
X152490000Y-109764000D03*
X152490000Y-107914000D03*
D30*
X187259000Y-71929000D03*
X186309000Y-71929000D03*
X185359000Y-71929000D03*
X185359000Y-74629000D03*
X187259000Y-74629000D03*
D31*
X131663000Y-83911000D03*
X131663000Y-79311000D03*
X131663000Y-81611000D03*
D32*
X125363000Y-81611000D03*
D33*
X129921000Y-56769000D03*
X129921000Y-59309000D03*
X129921000Y-61849000D03*
X129921000Y-66929000D03*
X129921000Y-69469000D03*
X129921000Y-72009000D03*
X129921000Y-74549000D03*
D34*
X140542000Y-72837000D03*
X140542000Y-74737000D03*
X137842000Y-74737000D03*
X137842000Y-73787000D03*
X137842000Y-72837000D03*
X140542000Y-64074000D03*
X140542000Y-65974000D03*
X137842000Y-65974000D03*
X137842000Y-65024000D03*
X137842000Y-64074000D03*
D35*
X156337000Y-100643000D03*
X156337000Y-92143000D03*
D36*
X163635000Y-74041000D03*
X155135000Y-74041000D03*
D37*
X118745000Y-136055100D03*
X153705000Y-136055100D03*
X153692300Y-56388000D03*
X188658500Y-136055100D03*
D38*
X153700000Y-130300000D03*
X153700000Y-62150000D03*
D18*
X180086000Y-92202000D03*
X180086000Y-94742000D03*
X180086000Y-97282000D03*
D17*
X180086000Y-99822000D03*
D18*
X118745000Y-99568000D03*
D17*
X118745000Y-102108000D03*
D18*
X118732300Y-86880700D03*
D17*
X118732300Y-84340700D03*
D21*
X171920999Y-77470000D03*
X174120999Y-77470000D03*
X174120999Y-75773999D03*
X171920999Y-75773999D03*
X150538000Y-118364000D03*
X152738000Y-118364000D03*
X150538000Y-120142000D03*
X152738000Y-120142000D03*
X164000000Y-110236000D03*
X166200000Y-110236000D03*
X166540000Y-108458000D03*
X168740000Y-108458000D03*
X155364000Y-108712000D03*
X157564000Y-108712000D03*
X157564000Y-107061000D03*
X155364000Y-107061000D03*
D20*
X159893000Y-104056000D03*
X159893000Y-106256000D03*
M02*
