G04 #@! TF.GenerationSoftware,KiCad,Pcbnew,(5.1.7)-1*
G04 #@! TF.CreationDate,2020-12-18T08:27:27-06:00*
G04 #@! TF.ProjectId,digital_pcb,64696769-7461-46c5-9f70-63622e6b6963,3.0*
G04 #@! TF.SameCoordinates,Original*
G04 #@! TF.FileFunction,Soldermask,Top*
G04 #@! TF.FilePolarity,Negative*
%FSLAX46Y46*%
G04 Gerber Fmt 4.6, Leading zero omitted, Abs format (unit mm)*
G04 Created by KiCad (PCBNEW (5.1.7)-1) date 2020-12-18 08:27:27*
%MOMM*%
%LPD*%
G01*
G04 APERTURE LIST*
%ADD10C,3.401600*%
%ADD11C,1.931600*%
%ADD12C,1.721600*%
%ADD13C,1.601600*%
%ADD14C,1.551600*%
%ADD15C,2.000000*%
%ADD16C,3.301600*%
%ADD17O,1.801600X1.801600*%
G04 APERTURE END LIST*
D10*
X165608000Y-62230000D03*
D11*
X173228000Y-64770000D03*
X173228000Y-59690000D03*
D12*
X170688000Y-60960000D03*
X170688000Y-63500000D03*
D13*
X124079000Y-89448000D03*
X124079000Y-94448000D03*
G36*
G01*
X182899000Y-68842800D02*
X182099000Y-68842800D01*
G75*
G02*
X182048200Y-68792000I0J50800D01*
G01*
X182048200Y-67892000D01*
G75*
G02*
X182099000Y-67841200I50800J0D01*
G01*
X182899000Y-67841200D01*
G75*
G02*
X182949800Y-67892000I0J-50800D01*
G01*
X182949800Y-68792000D01*
G75*
G02*
X182899000Y-68842800I-50800J0D01*
G01*
G37*
G36*
G01*
X183849000Y-70842800D02*
X183049000Y-70842800D01*
G75*
G02*
X182998200Y-70792000I0J50800D01*
G01*
X182998200Y-69892000D01*
G75*
G02*
X183049000Y-69841200I50800J0D01*
G01*
X183849000Y-69841200D01*
G75*
G02*
X183899800Y-69892000I0J-50800D01*
G01*
X183899800Y-70792000D01*
G75*
G02*
X183849000Y-70842800I-50800J0D01*
G01*
G37*
G36*
G01*
X181949000Y-70842800D02*
X181149000Y-70842800D01*
G75*
G02*
X181098200Y-70792000I0J50800D01*
G01*
X181098200Y-69892000D01*
G75*
G02*
X181149000Y-69841200I50800J0D01*
G01*
X181949000Y-69841200D01*
G75*
G02*
X181999800Y-69892000I0J-50800D01*
G01*
X181999800Y-70792000D01*
G75*
G02*
X181949000Y-70842800I-50800J0D01*
G01*
G37*
G36*
G01*
X163618000Y-93251800D02*
X163368000Y-93251800D01*
G75*
G02*
X163317200Y-93201000I0J50800D01*
G01*
X163317200Y-91901000D01*
G75*
G02*
X163368000Y-91850200I50800J0D01*
G01*
X163618000Y-91850200D01*
G75*
G02*
X163668800Y-91901000I0J-50800D01*
G01*
X163668800Y-93201000D01*
G75*
G02*
X163618000Y-93251800I-50800J0D01*
G01*
G37*
G36*
G01*
X164118000Y-93251800D02*
X163868000Y-93251800D01*
G75*
G02*
X163817200Y-93201000I0J50800D01*
G01*
X163817200Y-91901000D01*
G75*
G02*
X163868000Y-91850200I50800J0D01*
G01*
X164118000Y-91850200D01*
G75*
G02*
X164168800Y-91901000I0J-50800D01*
G01*
X164168800Y-93201000D01*
G75*
G02*
X164118000Y-93251800I-50800J0D01*
G01*
G37*
G36*
G01*
X164618000Y-93251800D02*
X164368000Y-93251800D01*
G75*
G02*
X164317200Y-93201000I0J50800D01*
G01*
X164317200Y-91901000D01*
G75*
G02*
X164368000Y-91850200I50800J0D01*
G01*
X164618000Y-91850200D01*
G75*
G02*
X164668800Y-91901000I0J-50800D01*
G01*
X164668800Y-93201000D01*
G75*
G02*
X164618000Y-93251800I-50800J0D01*
G01*
G37*
G36*
G01*
X165118000Y-93251800D02*
X164868000Y-93251800D01*
G75*
G02*
X164817200Y-93201000I0J50800D01*
G01*
X164817200Y-91901000D01*
G75*
G02*
X164868000Y-91850200I50800J0D01*
G01*
X165118000Y-91850200D01*
G75*
G02*
X165168800Y-91901000I0J-50800D01*
G01*
X165168800Y-93201000D01*
G75*
G02*
X165118000Y-93251800I-50800J0D01*
G01*
G37*
G36*
G01*
X165618000Y-93251800D02*
X165368000Y-93251800D01*
G75*
G02*
X165317200Y-93201000I0J50800D01*
G01*
X165317200Y-91901000D01*
G75*
G02*
X165368000Y-91850200I50800J0D01*
G01*
X165618000Y-91850200D01*
G75*
G02*
X165668800Y-91901000I0J-50800D01*
G01*
X165668800Y-93201000D01*
G75*
G02*
X165618000Y-93251800I-50800J0D01*
G01*
G37*
G36*
G01*
X166118000Y-93251800D02*
X165868000Y-93251800D01*
G75*
G02*
X165817200Y-93201000I0J50800D01*
G01*
X165817200Y-91901000D01*
G75*
G02*
X165868000Y-91850200I50800J0D01*
G01*
X166118000Y-91850200D01*
G75*
G02*
X166168800Y-91901000I0J-50800D01*
G01*
X166168800Y-93201000D01*
G75*
G02*
X166118000Y-93251800I-50800J0D01*
G01*
G37*
G36*
G01*
X166618000Y-93251800D02*
X166368000Y-93251800D01*
G75*
G02*
X166317200Y-93201000I0J50800D01*
G01*
X166317200Y-91901000D01*
G75*
G02*
X166368000Y-91850200I50800J0D01*
G01*
X166618000Y-91850200D01*
G75*
G02*
X166668800Y-91901000I0J-50800D01*
G01*
X166668800Y-93201000D01*
G75*
G02*
X166618000Y-93251800I-50800J0D01*
G01*
G37*
G36*
G01*
X167118000Y-93251800D02*
X166868000Y-93251800D01*
G75*
G02*
X166817200Y-93201000I0J50800D01*
G01*
X166817200Y-91901000D01*
G75*
G02*
X166868000Y-91850200I50800J0D01*
G01*
X167118000Y-91850200D01*
G75*
G02*
X167168800Y-91901000I0J-50800D01*
G01*
X167168800Y-93201000D01*
G75*
G02*
X167118000Y-93251800I-50800J0D01*
G01*
G37*
G36*
G01*
X167618000Y-93251800D02*
X167368000Y-93251800D01*
G75*
G02*
X167317200Y-93201000I0J50800D01*
G01*
X167317200Y-91901000D01*
G75*
G02*
X167368000Y-91850200I50800J0D01*
G01*
X167618000Y-91850200D01*
G75*
G02*
X167668800Y-91901000I0J-50800D01*
G01*
X167668800Y-93201000D01*
G75*
G02*
X167618000Y-93251800I-50800J0D01*
G01*
G37*
G36*
G01*
X168118000Y-93251800D02*
X167868000Y-93251800D01*
G75*
G02*
X167817200Y-93201000I0J50800D01*
G01*
X167817200Y-91901000D01*
G75*
G02*
X167868000Y-91850200I50800J0D01*
G01*
X168118000Y-91850200D01*
G75*
G02*
X168168800Y-91901000I0J-50800D01*
G01*
X168168800Y-93201000D01*
G75*
G02*
X168118000Y-93251800I-50800J0D01*
G01*
G37*
G36*
G01*
X168618000Y-93251800D02*
X168368000Y-93251800D01*
G75*
G02*
X168317200Y-93201000I0J50800D01*
G01*
X168317200Y-91901000D01*
G75*
G02*
X168368000Y-91850200I50800J0D01*
G01*
X168618000Y-91850200D01*
G75*
G02*
X168668800Y-91901000I0J-50800D01*
G01*
X168668800Y-93201000D01*
G75*
G02*
X168618000Y-93251800I-50800J0D01*
G01*
G37*
G36*
G01*
X169118000Y-93251800D02*
X168868000Y-93251800D01*
G75*
G02*
X168817200Y-93201000I0J50800D01*
G01*
X168817200Y-91901000D01*
G75*
G02*
X168868000Y-91850200I50800J0D01*
G01*
X169118000Y-91850200D01*
G75*
G02*
X169168800Y-91901000I0J-50800D01*
G01*
X169168800Y-93201000D01*
G75*
G02*
X169118000Y-93251800I-50800J0D01*
G01*
G37*
G36*
G01*
X169892200Y-94276000D02*
X169892200Y-94026000D01*
G75*
G02*
X169943000Y-93975200I50800J0D01*
G01*
X171243000Y-93975200D01*
G75*
G02*
X171293800Y-94026000I0J-50800D01*
G01*
X171293800Y-94276000D01*
G75*
G02*
X171243000Y-94326800I-50800J0D01*
G01*
X169943000Y-94326800D01*
G75*
G02*
X169892200Y-94276000I0J50800D01*
G01*
G37*
G36*
G01*
X169892200Y-94776000D02*
X169892200Y-94526000D01*
G75*
G02*
X169943000Y-94475200I50800J0D01*
G01*
X171243000Y-94475200D01*
G75*
G02*
X171293800Y-94526000I0J-50800D01*
G01*
X171293800Y-94776000D01*
G75*
G02*
X171243000Y-94826800I-50800J0D01*
G01*
X169943000Y-94826800D01*
G75*
G02*
X169892200Y-94776000I0J50800D01*
G01*
G37*
G36*
G01*
X169892200Y-95276000D02*
X169892200Y-95026000D01*
G75*
G02*
X169943000Y-94975200I50800J0D01*
G01*
X171243000Y-94975200D01*
G75*
G02*
X171293800Y-95026000I0J-50800D01*
G01*
X171293800Y-95276000D01*
G75*
G02*
X171243000Y-95326800I-50800J0D01*
G01*
X169943000Y-95326800D01*
G75*
G02*
X169892200Y-95276000I0J50800D01*
G01*
G37*
G36*
G01*
X169892200Y-95776000D02*
X169892200Y-95526000D01*
G75*
G02*
X169943000Y-95475200I50800J0D01*
G01*
X171243000Y-95475200D01*
G75*
G02*
X171293800Y-95526000I0J-50800D01*
G01*
X171293800Y-95776000D01*
G75*
G02*
X171243000Y-95826800I-50800J0D01*
G01*
X169943000Y-95826800D01*
G75*
G02*
X169892200Y-95776000I0J50800D01*
G01*
G37*
G36*
G01*
X169892200Y-96276000D02*
X169892200Y-96026000D01*
G75*
G02*
X169943000Y-95975200I50800J0D01*
G01*
X171243000Y-95975200D01*
G75*
G02*
X171293800Y-96026000I0J-50800D01*
G01*
X171293800Y-96276000D01*
G75*
G02*
X171243000Y-96326800I-50800J0D01*
G01*
X169943000Y-96326800D01*
G75*
G02*
X169892200Y-96276000I0J50800D01*
G01*
G37*
G36*
G01*
X169892200Y-96776000D02*
X169892200Y-96526000D01*
G75*
G02*
X169943000Y-96475200I50800J0D01*
G01*
X171243000Y-96475200D01*
G75*
G02*
X171293800Y-96526000I0J-50800D01*
G01*
X171293800Y-96776000D01*
G75*
G02*
X171243000Y-96826800I-50800J0D01*
G01*
X169943000Y-96826800D01*
G75*
G02*
X169892200Y-96776000I0J50800D01*
G01*
G37*
G36*
G01*
X169892200Y-97276000D02*
X169892200Y-97026000D01*
G75*
G02*
X169943000Y-96975200I50800J0D01*
G01*
X171243000Y-96975200D01*
G75*
G02*
X171293800Y-97026000I0J-50800D01*
G01*
X171293800Y-97276000D01*
G75*
G02*
X171243000Y-97326800I-50800J0D01*
G01*
X169943000Y-97326800D01*
G75*
G02*
X169892200Y-97276000I0J50800D01*
G01*
G37*
G36*
G01*
X169892200Y-97776000D02*
X169892200Y-97526000D01*
G75*
G02*
X169943000Y-97475200I50800J0D01*
G01*
X171243000Y-97475200D01*
G75*
G02*
X171293800Y-97526000I0J-50800D01*
G01*
X171293800Y-97776000D01*
G75*
G02*
X171243000Y-97826800I-50800J0D01*
G01*
X169943000Y-97826800D01*
G75*
G02*
X169892200Y-97776000I0J50800D01*
G01*
G37*
G36*
G01*
X169892200Y-98276000D02*
X169892200Y-98026000D01*
G75*
G02*
X169943000Y-97975200I50800J0D01*
G01*
X171243000Y-97975200D01*
G75*
G02*
X171293800Y-98026000I0J-50800D01*
G01*
X171293800Y-98276000D01*
G75*
G02*
X171243000Y-98326800I-50800J0D01*
G01*
X169943000Y-98326800D01*
G75*
G02*
X169892200Y-98276000I0J50800D01*
G01*
G37*
G36*
G01*
X169892200Y-98776000D02*
X169892200Y-98526000D01*
G75*
G02*
X169943000Y-98475200I50800J0D01*
G01*
X171243000Y-98475200D01*
G75*
G02*
X171293800Y-98526000I0J-50800D01*
G01*
X171293800Y-98776000D01*
G75*
G02*
X171243000Y-98826800I-50800J0D01*
G01*
X169943000Y-98826800D01*
G75*
G02*
X169892200Y-98776000I0J50800D01*
G01*
G37*
G36*
G01*
X169892200Y-99276000D02*
X169892200Y-99026000D01*
G75*
G02*
X169943000Y-98975200I50800J0D01*
G01*
X171243000Y-98975200D01*
G75*
G02*
X171293800Y-99026000I0J-50800D01*
G01*
X171293800Y-99276000D01*
G75*
G02*
X171243000Y-99326800I-50800J0D01*
G01*
X169943000Y-99326800D01*
G75*
G02*
X169892200Y-99276000I0J50800D01*
G01*
G37*
G36*
G01*
X169892200Y-99776000D02*
X169892200Y-99526000D01*
G75*
G02*
X169943000Y-99475200I50800J0D01*
G01*
X171243000Y-99475200D01*
G75*
G02*
X171293800Y-99526000I0J-50800D01*
G01*
X171293800Y-99776000D01*
G75*
G02*
X171243000Y-99826800I-50800J0D01*
G01*
X169943000Y-99826800D01*
G75*
G02*
X169892200Y-99776000I0J50800D01*
G01*
G37*
G36*
G01*
X169118000Y-101951800D02*
X168868000Y-101951800D01*
G75*
G02*
X168817200Y-101901000I0J50800D01*
G01*
X168817200Y-100601000D01*
G75*
G02*
X168868000Y-100550200I50800J0D01*
G01*
X169118000Y-100550200D01*
G75*
G02*
X169168800Y-100601000I0J-50800D01*
G01*
X169168800Y-101901000D01*
G75*
G02*
X169118000Y-101951800I-50800J0D01*
G01*
G37*
G36*
G01*
X168618000Y-101951800D02*
X168368000Y-101951800D01*
G75*
G02*
X168317200Y-101901000I0J50800D01*
G01*
X168317200Y-100601000D01*
G75*
G02*
X168368000Y-100550200I50800J0D01*
G01*
X168618000Y-100550200D01*
G75*
G02*
X168668800Y-100601000I0J-50800D01*
G01*
X168668800Y-101901000D01*
G75*
G02*
X168618000Y-101951800I-50800J0D01*
G01*
G37*
G36*
G01*
X168118000Y-101951800D02*
X167868000Y-101951800D01*
G75*
G02*
X167817200Y-101901000I0J50800D01*
G01*
X167817200Y-100601000D01*
G75*
G02*
X167868000Y-100550200I50800J0D01*
G01*
X168118000Y-100550200D01*
G75*
G02*
X168168800Y-100601000I0J-50800D01*
G01*
X168168800Y-101901000D01*
G75*
G02*
X168118000Y-101951800I-50800J0D01*
G01*
G37*
G36*
G01*
X167618000Y-101951800D02*
X167368000Y-101951800D01*
G75*
G02*
X167317200Y-101901000I0J50800D01*
G01*
X167317200Y-100601000D01*
G75*
G02*
X167368000Y-100550200I50800J0D01*
G01*
X167618000Y-100550200D01*
G75*
G02*
X167668800Y-100601000I0J-50800D01*
G01*
X167668800Y-101901000D01*
G75*
G02*
X167618000Y-101951800I-50800J0D01*
G01*
G37*
G36*
G01*
X167118000Y-101951800D02*
X166868000Y-101951800D01*
G75*
G02*
X166817200Y-101901000I0J50800D01*
G01*
X166817200Y-100601000D01*
G75*
G02*
X166868000Y-100550200I50800J0D01*
G01*
X167118000Y-100550200D01*
G75*
G02*
X167168800Y-100601000I0J-50800D01*
G01*
X167168800Y-101901000D01*
G75*
G02*
X167118000Y-101951800I-50800J0D01*
G01*
G37*
G36*
G01*
X166618000Y-101951800D02*
X166368000Y-101951800D01*
G75*
G02*
X166317200Y-101901000I0J50800D01*
G01*
X166317200Y-100601000D01*
G75*
G02*
X166368000Y-100550200I50800J0D01*
G01*
X166618000Y-100550200D01*
G75*
G02*
X166668800Y-100601000I0J-50800D01*
G01*
X166668800Y-101901000D01*
G75*
G02*
X166618000Y-101951800I-50800J0D01*
G01*
G37*
G36*
G01*
X166118000Y-101951800D02*
X165868000Y-101951800D01*
G75*
G02*
X165817200Y-101901000I0J50800D01*
G01*
X165817200Y-100601000D01*
G75*
G02*
X165868000Y-100550200I50800J0D01*
G01*
X166118000Y-100550200D01*
G75*
G02*
X166168800Y-100601000I0J-50800D01*
G01*
X166168800Y-101901000D01*
G75*
G02*
X166118000Y-101951800I-50800J0D01*
G01*
G37*
G36*
G01*
X165618000Y-101951800D02*
X165368000Y-101951800D01*
G75*
G02*
X165317200Y-101901000I0J50800D01*
G01*
X165317200Y-100601000D01*
G75*
G02*
X165368000Y-100550200I50800J0D01*
G01*
X165618000Y-100550200D01*
G75*
G02*
X165668800Y-100601000I0J-50800D01*
G01*
X165668800Y-101901000D01*
G75*
G02*
X165618000Y-101951800I-50800J0D01*
G01*
G37*
G36*
G01*
X165118000Y-101951800D02*
X164868000Y-101951800D01*
G75*
G02*
X164817200Y-101901000I0J50800D01*
G01*
X164817200Y-100601000D01*
G75*
G02*
X164868000Y-100550200I50800J0D01*
G01*
X165118000Y-100550200D01*
G75*
G02*
X165168800Y-100601000I0J-50800D01*
G01*
X165168800Y-101901000D01*
G75*
G02*
X165118000Y-101951800I-50800J0D01*
G01*
G37*
G36*
G01*
X164618000Y-101951800D02*
X164368000Y-101951800D01*
G75*
G02*
X164317200Y-101901000I0J50800D01*
G01*
X164317200Y-100601000D01*
G75*
G02*
X164368000Y-100550200I50800J0D01*
G01*
X164618000Y-100550200D01*
G75*
G02*
X164668800Y-100601000I0J-50800D01*
G01*
X164668800Y-101901000D01*
G75*
G02*
X164618000Y-101951800I-50800J0D01*
G01*
G37*
G36*
G01*
X164118000Y-101951800D02*
X163868000Y-101951800D01*
G75*
G02*
X163817200Y-101901000I0J50800D01*
G01*
X163817200Y-100601000D01*
G75*
G02*
X163868000Y-100550200I50800J0D01*
G01*
X164118000Y-100550200D01*
G75*
G02*
X164168800Y-100601000I0J-50800D01*
G01*
X164168800Y-101901000D01*
G75*
G02*
X164118000Y-101951800I-50800J0D01*
G01*
G37*
G36*
G01*
X163618000Y-101951800D02*
X163368000Y-101951800D01*
G75*
G02*
X163317200Y-101901000I0J50800D01*
G01*
X163317200Y-100601000D01*
G75*
G02*
X163368000Y-100550200I50800J0D01*
G01*
X163618000Y-100550200D01*
G75*
G02*
X163668800Y-100601000I0J-50800D01*
G01*
X163668800Y-101901000D01*
G75*
G02*
X163618000Y-101951800I-50800J0D01*
G01*
G37*
G36*
G01*
X161192200Y-99776000D02*
X161192200Y-99526000D01*
G75*
G02*
X161243000Y-99475200I50800J0D01*
G01*
X162543000Y-99475200D01*
G75*
G02*
X162593800Y-99526000I0J-50800D01*
G01*
X162593800Y-99776000D01*
G75*
G02*
X162543000Y-99826800I-50800J0D01*
G01*
X161243000Y-99826800D01*
G75*
G02*
X161192200Y-99776000I0J50800D01*
G01*
G37*
G36*
G01*
X161192200Y-99276000D02*
X161192200Y-99026000D01*
G75*
G02*
X161243000Y-98975200I50800J0D01*
G01*
X162543000Y-98975200D01*
G75*
G02*
X162593800Y-99026000I0J-50800D01*
G01*
X162593800Y-99276000D01*
G75*
G02*
X162543000Y-99326800I-50800J0D01*
G01*
X161243000Y-99326800D01*
G75*
G02*
X161192200Y-99276000I0J50800D01*
G01*
G37*
G36*
G01*
X161192200Y-98776000D02*
X161192200Y-98526000D01*
G75*
G02*
X161243000Y-98475200I50800J0D01*
G01*
X162543000Y-98475200D01*
G75*
G02*
X162593800Y-98526000I0J-50800D01*
G01*
X162593800Y-98776000D01*
G75*
G02*
X162543000Y-98826800I-50800J0D01*
G01*
X161243000Y-98826800D01*
G75*
G02*
X161192200Y-98776000I0J50800D01*
G01*
G37*
G36*
G01*
X161192200Y-98276000D02*
X161192200Y-98026000D01*
G75*
G02*
X161243000Y-97975200I50800J0D01*
G01*
X162543000Y-97975200D01*
G75*
G02*
X162593800Y-98026000I0J-50800D01*
G01*
X162593800Y-98276000D01*
G75*
G02*
X162543000Y-98326800I-50800J0D01*
G01*
X161243000Y-98326800D01*
G75*
G02*
X161192200Y-98276000I0J50800D01*
G01*
G37*
G36*
G01*
X161192200Y-97776000D02*
X161192200Y-97526000D01*
G75*
G02*
X161243000Y-97475200I50800J0D01*
G01*
X162543000Y-97475200D01*
G75*
G02*
X162593800Y-97526000I0J-50800D01*
G01*
X162593800Y-97776000D01*
G75*
G02*
X162543000Y-97826800I-50800J0D01*
G01*
X161243000Y-97826800D01*
G75*
G02*
X161192200Y-97776000I0J50800D01*
G01*
G37*
G36*
G01*
X161192200Y-97276000D02*
X161192200Y-97026000D01*
G75*
G02*
X161243000Y-96975200I50800J0D01*
G01*
X162543000Y-96975200D01*
G75*
G02*
X162593800Y-97026000I0J-50800D01*
G01*
X162593800Y-97276000D01*
G75*
G02*
X162543000Y-97326800I-50800J0D01*
G01*
X161243000Y-97326800D01*
G75*
G02*
X161192200Y-97276000I0J50800D01*
G01*
G37*
G36*
G01*
X161192200Y-96776000D02*
X161192200Y-96526000D01*
G75*
G02*
X161243000Y-96475200I50800J0D01*
G01*
X162543000Y-96475200D01*
G75*
G02*
X162593800Y-96526000I0J-50800D01*
G01*
X162593800Y-96776000D01*
G75*
G02*
X162543000Y-96826800I-50800J0D01*
G01*
X161243000Y-96826800D01*
G75*
G02*
X161192200Y-96776000I0J50800D01*
G01*
G37*
G36*
G01*
X161192200Y-96276000D02*
X161192200Y-96026000D01*
G75*
G02*
X161243000Y-95975200I50800J0D01*
G01*
X162543000Y-95975200D01*
G75*
G02*
X162593800Y-96026000I0J-50800D01*
G01*
X162593800Y-96276000D01*
G75*
G02*
X162543000Y-96326800I-50800J0D01*
G01*
X161243000Y-96326800D01*
G75*
G02*
X161192200Y-96276000I0J50800D01*
G01*
G37*
G36*
G01*
X161192200Y-95776000D02*
X161192200Y-95526000D01*
G75*
G02*
X161243000Y-95475200I50800J0D01*
G01*
X162543000Y-95475200D01*
G75*
G02*
X162593800Y-95526000I0J-50800D01*
G01*
X162593800Y-95776000D01*
G75*
G02*
X162543000Y-95826800I-50800J0D01*
G01*
X161243000Y-95826800D01*
G75*
G02*
X161192200Y-95776000I0J50800D01*
G01*
G37*
G36*
G01*
X161192200Y-95276000D02*
X161192200Y-95026000D01*
G75*
G02*
X161243000Y-94975200I50800J0D01*
G01*
X162543000Y-94975200D01*
G75*
G02*
X162593800Y-95026000I0J-50800D01*
G01*
X162593800Y-95276000D01*
G75*
G02*
X162543000Y-95326800I-50800J0D01*
G01*
X161243000Y-95326800D01*
G75*
G02*
X161192200Y-95276000I0J50800D01*
G01*
G37*
G36*
G01*
X161192200Y-94776000D02*
X161192200Y-94526000D01*
G75*
G02*
X161243000Y-94475200I50800J0D01*
G01*
X162543000Y-94475200D01*
G75*
G02*
X162593800Y-94526000I0J-50800D01*
G01*
X162593800Y-94776000D01*
G75*
G02*
X162543000Y-94826800I-50800J0D01*
G01*
X161243000Y-94826800D01*
G75*
G02*
X161192200Y-94776000I0J50800D01*
G01*
G37*
G36*
G01*
X161192200Y-94276000D02*
X161192200Y-94026000D01*
G75*
G02*
X161243000Y-93975200I50800J0D01*
G01*
X162543000Y-93975200D01*
G75*
G02*
X162593800Y-94026000I0J-50800D01*
G01*
X162593800Y-94276000D01*
G75*
G02*
X162543000Y-94326800I-50800J0D01*
G01*
X161243000Y-94326800D01*
G75*
G02*
X161192200Y-94276000I0J50800D01*
G01*
G37*
G36*
G01*
X153116200Y-78456000D02*
X153116200Y-77931000D01*
G75*
G02*
X153167000Y-77880200I50800J0D01*
G01*
X153467000Y-77880200D01*
G75*
G02*
X153517800Y-77931000I0J-50800D01*
G01*
X153517800Y-78456000D01*
G75*
G02*
X153467000Y-78506800I-50800J0D01*
G01*
X153167000Y-78506800D01*
G75*
G02*
X153116200Y-78456000I0J50800D01*
G01*
G37*
G36*
G01*
X153616200Y-78456000D02*
X153616200Y-77931000D01*
G75*
G02*
X153667000Y-77880200I50800J0D01*
G01*
X153967000Y-77880200D01*
G75*
G02*
X154017800Y-77931000I0J-50800D01*
G01*
X154017800Y-78456000D01*
G75*
G02*
X153967000Y-78506800I-50800J0D01*
G01*
X153667000Y-78506800D01*
G75*
G02*
X153616200Y-78456000I0J50800D01*
G01*
G37*
G36*
G01*
X154116200Y-78456000D02*
X154116200Y-77931000D01*
G75*
G02*
X154167000Y-77880200I50800J0D01*
G01*
X154467000Y-77880200D01*
G75*
G02*
X154517800Y-77931000I0J-50800D01*
G01*
X154517800Y-78456000D01*
G75*
G02*
X154467000Y-78506800I-50800J0D01*
G01*
X154167000Y-78506800D01*
G75*
G02*
X154116200Y-78456000I0J50800D01*
G01*
G37*
G36*
G01*
X154616200Y-78456000D02*
X154616200Y-77931000D01*
G75*
G02*
X154667000Y-77880200I50800J0D01*
G01*
X154967000Y-77880200D01*
G75*
G02*
X155017800Y-77931000I0J-50800D01*
G01*
X155017800Y-78456000D01*
G75*
G02*
X154967000Y-78506800I-50800J0D01*
G01*
X154667000Y-78506800D01*
G75*
G02*
X154616200Y-78456000I0J50800D01*
G01*
G37*
G36*
G01*
X155116200Y-78456000D02*
X155116200Y-77931000D01*
G75*
G02*
X155167000Y-77880200I50800J0D01*
G01*
X155467000Y-77880200D01*
G75*
G02*
X155517800Y-77931000I0J-50800D01*
G01*
X155517800Y-78456000D01*
G75*
G02*
X155467000Y-78506800I-50800J0D01*
G01*
X155167000Y-78506800D01*
G75*
G02*
X155116200Y-78456000I0J50800D01*
G01*
G37*
G36*
G01*
X155616200Y-78456000D02*
X155616200Y-77931000D01*
G75*
G02*
X155667000Y-77880200I50800J0D01*
G01*
X155967000Y-77880200D01*
G75*
G02*
X156017800Y-77931000I0J-50800D01*
G01*
X156017800Y-78456000D01*
G75*
G02*
X155967000Y-78506800I-50800J0D01*
G01*
X155667000Y-78506800D01*
G75*
G02*
X155616200Y-78456000I0J50800D01*
G01*
G37*
G36*
G01*
X156116200Y-78456000D02*
X156116200Y-77931000D01*
G75*
G02*
X156167000Y-77880200I50800J0D01*
G01*
X156467000Y-77880200D01*
G75*
G02*
X156517800Y-77931000I0J-50800D01*
G01*
X156517800Y-78456000D01*
G75*
G02*
X156467000Y-78506800I-50800J0D01*
G01*
X156167000Y-78506800D01*
G75*
G02*
X156116200Y-78456000I0J50800D01*
G01*
G37*
G36*
G01*
X156616200Y-78456000D02*
X156616200Y-77931000D01*
G75*
G02*
X156667000Y-77880200I50800J0D01*
G01*
X156967000Y-77880200D01*
G75*
G02*
X157017800Y-77931000I0J-50800D01*
G01*
X157017800Y-78456000D01*
G75*
G02*
X156967000Y-78506800I-50800J0D01*
G01*
X156667000Y-78506800D01*
G75*
G02*
X156616200Y-78456000I0J50800D01*
G01*
G37*
G36*
G01*
X157116200Y-78456000D02*
X157116200Y-77931000D01*
G75*
G02*
X157167000Y-77880200I50800J0D01*
G01*
X157467000Y-77880200D01*
G75*
G02*
X157517800Y-77931000I0J-50800D01*
G01*
X157517800Y-78456000D01*
G75*
G02*
X157467000Y-78506800I-50800J0D01*
G01*
X157167000Y-78506800D01*
G75*
G02*
X157116200Y-78456000I0J50800D01*
G01*
G37*
G36*
G01*
X157116200Y-79156000D02*
X157116200Y-78856000D01*
G75*
G02*
X157167000Y-78805200I50800J0D01*
G01*
X157592000Y-78805200D01*
G75*
G02*
X157642800Y-78856000I0J-50800D01*
G01*
X157642800Y-79156000D01*
G75*
G02*
X157592000Y-79206800I-50800J0D01*
G01*
X157167000Y-79206800D01*
G75*
G02*
X157116200Y-79156000I0J50800D01*
G01*
G37*
G36*
G01*
X157116200Y-79656000D02*
X157116200Y-79356000D01*
G75*
G02*
X157167000Y-79305200I50800J0D01*
G01*
X157592000Y-79305200D01*
G75*
G02*
X157642800Y-79356000I0J-50800D01*
G01*
X157642800Y-79656000D01*
G75*
G02*
X157592000Y-79706800I-50800J0D01*
G01*
X157167000Y-79706800D01*
G75*
G02*
X157116200Y-79656000I0J50800D01*
G01*
G37*
G36*
G01*
X157116200Y-80156000D02*
X157116200Y-79856000D01*
G75*
G02*
X157167000Y-79805200I50800J0D01*
G01*
X157592000Y-79805200D01*
G75*
G02*
X157642800Y-79856000I0J-50800D01*
G01*
X157642800Y-80156000D01*
G75*
G02*
X157592000Y-80206800I-50800J0D01*
G01*
X157167000Y-80206800D01*
G75*
G02*
X157116200Y-80156000I0J50800D01*
G01*
G37*
G36*
G01*
X157116200Y-80656000D02*
X157116200Y-80356000D01*
G75*
G02*
X157167000Y-80305200I50800J0D01*
G01*
X157592000Y-80305200D01*
G75*
G02*
X157642800Y-80356000I0J-50800D01*
G01*
X157642800Y-80656000D01*
G75*
G02*
X157592000Y-80706800I-50800J0D01*
G01*
X157167000Y-80706800D01*
G75*
G02*
X157116200Y-80656000I0J50800D01*
G01*
G37*
G36*
G01*
X157116200Y-81581000D02*
X157116200Y-81056000D01*
G75*
G02*
X157167000Y-81005200I50800J0D01*
G01*
X157467000Y-81005200D01*
G75*
G02*
X157517800Y-81056000I0J-50800D01*
G01*
X157517800Y-81581000D01*
G75*
G02*
X157467000Y-81631800I-50800J0D01*
G01*
X157167000Y-81631800D01*
G75*
G02*
X157116200Y-81581000I0J50800D01*
G01*
G37*
G36*
G01*
X156616200Y-81581000D02*
X156616200Y-81056000D01*
G75*
G02*
X156667000Y-81005200I50800J0D01*
G01*
X156967000Y-81005200D01*
G75*
G02*
X157017800Y-81056000I0J-50800D01*
G01*
X157017800Y-81581000D01*
G75*
G02*
X156967000Y-81631800I-50800J0D01*
G01*
X156667000Y-81631800D01*
G75*
G02*
X156616200Y-81581000I0J50800D01*
G01*
G37*
G36*
G01*
X156116200Y-81581000D02*
X156116200Y-81056000D01*
G75*
G02*
X156167000Y-81005200I50800J0D01*
G01*
X156467000Y-81005200D01*
G75*
G02*
X156517800Y-81056000I0J-50800D01*
G01*
X156517800Y-81581000D01*
G75*
G02*
X156467000Y-81631800I-50800J0D01*
G01*
X156167000Y-81631800D01*
G75*
G02*
X156116200Y-81581000I0J50800D01*
G01*
G37*
G36*
G01*
X155616200Y-81581000D02*
X155616200Y-81056000D01*
G75*
G02*
X155667000Y-81005200I50800J0D01*
G01*
X155967000Y-81005200D01*
G75*
G02*
X156017800Y-81056000I0J-50800D01*
G01*
X156017800Y-81581000D01*
G75*
G02*
X155967000Y-81631800I-50800J0D01*
G01*
X155667000Y-81631800D01*
G75*
G02*
X155616200Y-81581000I0J50800D01*
G01*
G37*
G36*
G01*
X155116200Y-81581000D02*
X155116200Y-81056000D01*
G75*
G02*
X155167000Y-81005200I50800J0D01*
G01*
X155467000Y-81005200D01*
G75*
G02*
X155517800Y-81056000I0J-50800D01*
G01*
X155517800Y-81581000D01*
G75*
G02*
X155467000Y-81631800I-50800J0D01*
G01*
X155167000Y-81631800D01*
G75*
G02*
X155116200Y-81581000I0J50800D01*
G01*
G37*
G36*
G01*
X154616200Y-81581000D02*
X154616200Y-81056000D01*
G75*
G02*
X154667000Y-81005200I50800J0D01*
G01*
X154967000Y-81005200D01*
G75*
G02*
X155017800Y-81056000I0J-50800D01*
G01*
X155017800Y-81581000D01*
G75*
G02*
X154967000Y-81631800I-50800J0D01*
G01*
X154667000Y-81631800D01*
G75*
G02*
X154616200Y-81581000I0J50800D01*
G01*
G37*
G36*
G01*
X154116200Y-81581000D02*
X154116200Y-81056000D01*
G75*
G02*
X154167000Y-81005200I50800J0D01*
G01*
X154467000Y-81005200D01*
G75*
G02*
X154517800Y-81056000I0J-50800D01*
G01*
X154517800Y-81581000D01*
G75*
G02*
X154467000Y-81631800I-50800J0D01*
G01*
X154167000Y-81631800D01*
G75*
G02*
X154116200Y-81581000I0J50800D01*
G01*
G37*
G36*
G01*
X153616200Y-81581000D02*
X153616200Y-81056000D01*
G75*
G02*
X153667000Y-81005200I50800J0D01*
G01*
X153967000Y-81005200D01*
G75*
G02*
X154017800Y-81056000I0J-50800D01*
G01*
X154017800Y-81581000D01*
G75*
G02*
X153967000Y-81631800I-50800J0D01*
G01*
X153667000Y-81631800D01*
G75*
G02*
X153616200Y-81581000I0J50800D01*
G01*
G37*
G36*
G01*
X153116200Y-81581000D02*
X153116200Y-81056000D01*
G75*
G02*
X153167000Y-81005200I50800J0D01*
G01*
X153467000Y-81005200D01*
G75*
G02*
X153517800Y-81056000I0J-50800D01*
G01*
X153517800Y-81581000D01*
G75*
G02*
X153467000Y-81631800I-50800J0D01*
G01*
X153167000Y-81631800D01*
G75*
G02*
X153116200Y-81581000I0J50800D01*
G01*
G37*
G36*
G01*
X152616200Y-81581000D02*
X152616200Y-81056000D01*
G75*
G02*
X152667000Y-81005200I50800J0D01*
G01*
X152967000Y-81005200D01*
G75*
G02*
X153017800Y-81056000I0J-50800D01*
G01*
X153017800Y-81581000D01*
G75*
G02*
X152967000Y-81631800I-50800J0D01*
G01*
X152667000Y-81631800D01*
G75*
G02*
X152616200Y-81581000I0J50800D01*
G01*
G37*
G36*
G01*
X152491200Y-80656000D02*
X152491200Y-80356000D01*
G75*
G02*
X152542000Y-80305200I50800J0D01*
G01*
X152967000Y-80305200D01*
G75*
G02*
X153017800Y-80356000I0J-50800D01*
G01*
X153017800Y-80656000D01*
G75*
G02*
X152967000Y-80706800I-50800J0D01*
G01*
X152542000Y-80706800D01*
G75*
G02*
X152491200Y-80656000I0J50800D01*
G01*
G37*
G36*
G01*
X152491200Y-80156000D02*
X152491200Y-79856000D01*
G75*
G02*
X152542000Y-79805200I50800J0D01*
G01*
X152967000Y-79805200D01*
G75*
G02*
X153017800Y-79856000I0J-50800D01*
G01*
X153017800Y-80156000D01*
G75*
G02*
X152967000Y-80206800I-50800J0D01*
G01*
X152542000Y-80206800D01*
G75*
G02*
X152491200Y-80156000I0J50800D01*
G01*
G37*
G36*
G01*
X152491200Y-79656000D02*
X152491200Y-79356000D01*
G75*
G02*
X152542000Y-79305200I50800J0D01*
G01*
X152967000Y-79305200D01*
G75*
G02*
X153017800Y-79356000I0J-50800D01*
G01*
X153017800Y-79656000D01*
G75*
G02*
X152967000Y-79706800I-50800J0D01*
G01*
X152542000Y-79706800D01*
G75*
G02*
X152491200Y-79656000I0J50800D01*
G01*
G37*
G36*
G01*
X152491200Y-79156000D02*
X152491200Y-78856000D01*
G75*
G02*
X152542000Y-78805200I50800J0D01*
G01*
X152967000Y-78805200D01*
G75*
G02*
X153017800Y-78856000I0J-50800D01*
G01*
X153017800Y-79156000D01*
G75*
G02*
X152967000Y-79206800I-50800J0D01*
G01*
X152542000Y-79206800D01*
G75*
G02*
X152491200Y-79156000I0J50800D01*
G01*
G37*
G36*
G01*
X152616200Y-78456000D02*
X152616200Y-77931000D01*
G75*
G02*
X152667000Y-77880200I50800J0D01*
G01*
X152967000Y-77880200D01*
G75*
G02*
X153017800Y-77931000I0J-50800D01*
G01*
X153017800Y-78456000D01*
G75*
G02*
X152967000Y-78506800I-50800J0D01*
G01*
X152667000Y-78506800D01*
G75*
G02*
X152616200Y-78456000I0J50800D01*
G01*
G37*
G36*
G01*
X160899200Y-110599000D02*
X160899200Y-110149000D01*
G75*
G02*
X160950000Y-110098200I50800J0D01*
G01*
X162450000Y-110098200D01*
G75*
G02*
X162500800Y-110149000I0J-50800D01*
G01*
X162500800Y-110599000D01*
G75*
G02*
X162450000Y-110649800I-50800J0D01*
G01*
X160950000Y-110649800D01*
G75*
G02*
X160899200Y-110599000I0J50800D01*
G01*
G37*
G36*
G01*
X160899200Y-111249000D02*
X160899200Y-110799000D01*
G75*
G02*
X160950000Y-110748200I50800J0D01*
G01*
X162450000Y-110748200D01*
G75*
G02*
X162500800Y-110799000I0J-50800D01*
G01*
X162500800Y-111249000D01*
G75*
G02*
X162450000Y-111299800I-50800J0D01*
G01*
X160950000Y-111299800D01*
G75*
G02*
X160899200Y-111249000I0J50800D01*
G01*
G37*
G36*
G01*
X160899200Y-111899000D02*
X160899200Y-111449000D01*
G75*
G02*
X160950000Y-111398200I50800J0D01*
G01*
X162450000Y-111398200D01*
G75*
G02*
X162500800Y-111449000I0J-50800D01*
G01*
X162500800Y-111899000D01*
G75*
G02*
X162450000Y-111949800I-50800J0D01*
G01*
X160950000Y-111949800D01*
G75*
G02*
X160899200Y-111899000I0J50800D01*
G01*
G37*
G36*
G01*
X160899200Y-112549000D02*
X160899200Y-112099000D01*
G75*
G02*
X160950000Y-112048200I50800J0D01*
G01*
X162450000Y-112048200D01*
G75*
G02*
X162500800Y-112099000I0J-50800D01*
G01*
X162500800Y-112549000D01*
G75*
G02*
X162450000Y-112599800I-50800J0D01*
G01*
X160950000Y-112599800D01*
G75*
G02*
X160899200Y-112549000I0J50800D01*
G01*
G37*
G36*
G01*
X160899200Y-113199000D02*
X160899200Y-112749000D01*
G75*
G02*
X160950000Y-112698200I50800J0D01*
G01*
X162450000Y-112698200D01*
G75*
G02*
X162500800Y-112749000I0J-50800D01*
G01*
X162500800Y-113199000D01*
G75*
G02*
X162450000Y-113249800I-50800J0D01*
G01*
X160950000Y-113249800D01*
G75*
G02*
X160899200Y-113199000I0J50800D01*
G01*
G37*
G36*
G01*
X160899200Y-113849000D02*
X160899200Y-113399000D01*
G75*
G02*
X160950000Y-113348200I50800J0D01*
G01*
X162450000Y-113348200D01*
G75*
G02*
X162500800Y-113399000I0J-50800D01*
G01*
X162500800Y-113849000D01*
G75*
G02*
X162450000Y-113899800I-50800J0D01*
G01*
X160950000Y-113899800D01*
G75*
G02*
X160899200Y-113849000I0J50800D01*
G01*
G37*
G36*
G01*
X160899200Y-114499000D02*
X160899200Y-114049000D01*
G75*
G02*
X160950000Y-113998200I50800J0D01*
G01*
X162450000Y-113998200D01*
G75*
G02*
X162500800Y-114049000I0J-50800D01*
G01*
X162500800Y-114499000D01*
G75*
G02*
X162450000Y-114549800I-50800J0D01*
G01*
X160950000Y-114549800D01*
G75*
G02*
X160899200Y-114499000I0J50800D01*
G01*
G37*
G36*
G01*
X160899200Y-115149000D02*
X160899200Y-114699000D01*
G75*
G02*
X160950000Y-114648200I50800J0D01*
G01*
X162450000Y-114648200D01*
G75*
G02*
X162500800Y-114699000I0J-50800D01*
G01*
X162500800Y-115149000D01*
G75*
G02*
X162450000Y-115199800I-50800J0D01*
G01*
X160950000Y-115199800D01*
G75*
G02*
X160899200Y-115149000I0J50800D01*
G01*
G37*
G36*
G01*
X154999200Y-115149000D02*
X154999200Y-114699000D01*
G75*
G02*
X155050000Y-114648200I50800J0D01*
G01*
X156550000Y-114648200D01*
G75*
G02*
X156600800Y-114699000I0J-50800D01*
G01*
X156600800Y-115149000D01*
G75*
G02*
X156550000Y-115199800I-50800J0D01*
G01*
X155050000Y-115199800D01*
G75*
G02*
X154999200Y-115149000I0J50800D01*
G01*
G37*
G36*
G01*
X154999200Y-114499000D02*
X154999200Y-114049000D01*
G75*
G02*
X155050000Y-113998200I50800J0D01*
G01*
X156550000Y-113998200D01*
G75*
G02*
X156600800Y-114049000I0J-50800D01*
G01*
X156600800Y-114499000D01*
G75*
G02*
X156550000Y-114549800I-50800J0D01*
G01*
X155050000Y-114549800D01*
G75*
G02*
X154999200Y-114499000I0J50800D01*
G01*
G37*
G36*
G01*
X154999200Y-113849000D02*
X154999200Y-113399000D01*
G75*
G02*
X155050000Y-113348200I50800J0D01*
G01*
X156550000Y-113348200D01*
G75*
G02*
X156600800Y-113399000I0J-50800D01*
G01*
X156600800Y-113849000D01*
G75*
G02*
X156550000Y-113899800I-50800J0D01*
G01*
X155050000Y-113899800D01*
G75*
G02*
X154999200Y-113849000I0J50800D01*
G01*
G37*
G36*
G01*
X154999200Y-113199000D02*
X154999200Y-112749000D01*
G75*
G02*
X155050000Y-112698200I50800J0D01*
G01*
X156550000Y-112698200D01*
G75*
G02*
X156600800Y-112749000I0J-50800D01*
G01*
X156600800Y-113199000D01*
G75*
G02*
X156550000Y-113249800I-50800J0D01*
G01*
X155050000Y-113249800D01*
G75*
G02*
X154999200Y-113199000I0J50800D01*
G01*
G37*
G36*
G01*
X154999200Y-112549000D02*
X154999200Y-112099000D01*
G75*
G02*
X155050000Y-112048200I50800J0D01*
G01*
X156550000Y-112048200D01*
G75*
G02*
X156600800Y-112099000I0J-50800D01*
G01*
X156600800Y-112549000D01*
G75*
G02*
X156550000Y-112599800I-50800J0D01*
G01*
X155050000Y-112599800D01*
G75*
G02*
X154999200Y-112549000I0J50800D01*
G01*
G37*
G36*
G01*
X154999200Y-111899000D02*
X154999200Y-111449000D01*
G75*
G02*
X155050000Y-111398200I50800J0D01*
G01*
X156550000Y-111398200D01*
G75*
G02*
X156600800Y-111449000I0J-50800D01*
G01*
X156600800Y-111899000D01*
G75*
G02*
X156550000Y-111949800I-50800J0D01*
G01*
X155050000Y-111949800D01*
G75*
G02*
X154999200Y-111899000I0J50800D01*
G01*
G37*
G36*
G01*
X154999200Y-111249000D02*
X154999200Y-110799000D01*
G75*
G02*
X155050000Y-110748200I50800J0D01*
G01*
X156550000Y-110748200D01*
G75*
G02*
X156600800Y-110799000I0J-50800D01*
G01*
X156600800Y-111249000D01*
G75*
G02*
X156550000Y-111299800I-50800J0D01*
G01*
X155050000Y-111299800D01*
G75*
G02*
X154999200Y-111249000I0J50800D01*
G01*
G37*
G36*
G01*
X154999200Y-110599000D02*
X154999200Y-110149000D01*
G75*
G02*
X155050000Y-110098200I50800J0D01*
G01*
X156550000Y-110098200D01*
G75*
G02*
X156600800Y-110149000I0J-50800D01*
G01*
X156600800Y-110599000D01*
G75*
G02*
X156550000Y-110649800I-50800J0D01*
G01*
X155050000Y-110649800D01*
G75*
G02*
X154999200Y-110599000I0J50800D01*
G01*
G37*
G36*
G01*
X150565000Y-107338200D02*
X151515000Y-107338200D01*
G75*
G02*
X151565800Y-107389000I0J-50800D01*
G01*
X151565800Y-108439000D01*
G75*
G02*
X151515000Y-108489800I-50800J0D01*
G01*
X150565000Y-108489800D01*
G75*
G02*
X150514200Y-108439000I0J50800D01*
G01*
X150514200Y-107389000D01*
G75*
G02*
X150565000Y-107338200I50800J0D01*
G01*
G37*
G36*
G01*
X150565000Y-109188200D02*
X151515000Y-109188200D01*
G75*
G02*
X151565800Y-109239000I0J-50800D01*
G01*
X151565800Y-110289000D01*
G75*
G02*
X151515000Y-110339800I-50800J0D01*
G01*
X150565000Y-110339800D01*
G75*
G02*
X150514200Y-110289000I0J50800D01*
G01*
X150514200Y-109239000D01*
G75*
G02*
X150565000Y-109188200I50800J0D01*
G01*
G37*
G36*
G01*
X152015000Y-109188200D02*
X152965000Y-109188200D01*
G75*
G02*
X153015800Y-109239000I0J-50800D01*
G01*
X153015800Y-110289000D01*
G75*
G02*
X152965000Y-110339800I-50800J0D01*
G01*
X152015000Y-110339800D01*
G75*
G02*
X151964200Y-110289000I0J50800D01*
G01*
X151964200Y-109239000D01*
G75*
G02*
X152015000Y-109188200I50800J0D01*
G01*
G37*
G36*
G01*
X152015000Y-107338200D02*
X152965000Y-107338200D01*
G75*
G02*
X153015800Y-107389000I0J-50800D01*
G01*
X153015800Y-108439000D01*
G75*
G02*
X152965000Y-108489800I-50800J0D01*
G01*
X152015000Y-108489800D01*
G75*
G02*
X151964200Y-108439000I0J50800D01*
G01*
X151964200Y-107389000D01*
G75*
G02*
X152015000Y-107338200I50800J0D01*
G01*
G37*
G36*
G01*
X186934000Y-71098200D02*
X187584000Y-71098200D01*
G75*
G02*
X187634800Y-71149000I0J-50800D01*
G01*
X187634800Y-72709000D01*
G75*
G02*
X187584000Y-72759800I-50800J0D01*
G01*
X186934000Y-72759800D01*
G75*
G02*
X186883200Y-72709000I0J50800D01*
G01*
X186883200Y-71149000D01*
G75*
G02*
X186934000Y-71098200I50800J0D01*
G01*
G37*
G36*
G01*
X185984000Y-71098200D02*
X186634000Y-71098200D01*
G75*
G02*
X186684800Y-71149000I0J-50800D01*
G01*
X186684800Y-72709000D01*
G75*
G02*
X186634000Y-72759800I-50800J0D01*
G01*
X185984000Y-72759800D01*
G75*
G02*
X185933200Y-72709000I0J50800D01*
G01*
X185933200Y-71149000D01*
G75*
G02*
X185984000Y-71098200I50800J0D01*
G01*
G37*
G36*
G01*
X185034000Y-71098200D02*
X185684000Y-71098200D01*
G75*
G02*
X185734800Y-71149000I0J-50800D01*
G01*
X185734800Y-72709000D01*
G75*
G02*
X185684000Y-72759800I-50800J0D01*
G01*
X185034000Y-72759800D01*
G75*
G02*
X184983200Y-72709000I0J50800D01*
G01*
X184983200Y-71149000D01*
G75*
G02*
X185034000Y-71098200I50800J0D01*
G01*
G37*
G36*
G01*
X185034000Y-73798200D02*
X185684000Y-73798200D01*
G75*
G02*
X185734800Y-73849000I0J-50800D01*
G01*
X185734800Y-75409000D01*
G75*
G02*
X185684000Y-75459800I-50800J0D01*
G01*
X185034000Y-75459800D01*
G75*
G02*
X184983200Y-75409000I0J50800D01*
G01*
X184983200Y-73849000D01*
G75*
G02*
X185034000Y-73798200I50800J0D01*
G01*
G37*
G36*
G01*
X186934000Y-73798200D02*
X187584000Y-73798200D01*
G75*
G02*
X187634800Y-73849000I0J-50800D01*
G01*
X187634800Y-75409000D01*
G75*
G02*
X187584000Y-75459800I-50800J0D01*
G01*
X186934000Y-75459800D01*
G75*
G02*
X186883200Y-75409000I0J50800D01*
G01*
X186883200Y-73849000D01*
G75*
G02*
X186934000Y-73798200I50800J0D01*
G01*
G37*
G36*
G01*
X132713800Y-83161000D02*
X132713800Y-84661000D01*
G75*
G02*
X132663000Y-84711800I-50800J0D01*
G01*
X130663000Y-84711800D01*
G75*
G02*
X130612200Y-84661000I0J50800D01*
G01*
X130612200Y-83161000D01*
G75*
G02*
X130663000Y-83110200I50800J0D01*
G01*
X132663000Y-83110200D01*
G75*
G02*
X132713800Y-83161000I0J-50800D01*
G01*
G37*
G36*
G01*
X132713800Y-78561000D02*
X132713800Y-80061000D01*
G75*
G02*
X132663000Y-80111800I-50800J0D01*
G01*
X130663000Y-80111800D01*
G75*
G02*
X130612200Y-80061000I0J50800D01*
G01*
X130612200Y-78561000D01*
G75*
G02*
X130663000Y-78510200I50800J0D01*
G01*
X132663000Y-78510200D01*
G75*
G02*
X132713800Y-78561000I0J-50800D01*
G01*
G37*
G36*
G01*
X132713800Y-80861000D02*
X132713800Y-82361000D01*
G75*
G02*
X132663000Y-82411800I-50800J0D01*
G01*
X130663000Y-82411800D01*
G75*
G02*
X130612200Y-82361000I0J50800D01*
G01*
X130612200Y-80861000D01*
G75*
G02*
X130663000Y-80810200I50800J0D01*
G01*
X132663000Y-80810200D01*
G75*
G02*
X132713800Y-80861000I0J-50800D01*
G01*
G37*
G36*
G01*
X126413800Y-79711000D02*
X126413800Y-83511000D01*
G75*
G02*
X126363000Y-83561800I-50800J0D01*
G01*
X124363000Y-83561800D01*
G75*
G02*
X124312200Y-83511000I0J50800D01*
G01*
X124312200Y-79711000D01*
G75*
G02*
X124363000Y-79660200I50800J0D01*
G01*
X126363000Y-79660200D01*
G75*
G02*
X126413800Y-79711000I0J-50800D01*
G01*
G37*
D14*
X129921000Y-56769000D03*
X129921000Y-59309000D03*
X129921000Y-61849000D03*
X129921000Y-66929000D03*
X129921000Y-69469000D03*
X129921000Y-72009000D03*
X129921000Y-74549000D03*
G36*
G01*
X139711200Y-64399000D02*
X139711200Y-63749000D01*
G75*
G02*
X139762000Y-63698200I50800J0D01*
G01*
X141322000Y-63698200D01*
G75*
G02*
X141372800Y-63749000I0J-50800D01*
G01*
X141372800Y-64399000D01*
G75*
G02*
X141322000Y-64449800I-50800J0D01*
G01*
X139762000Y-64449800D01*
G75*
G02*
X139711200Y-64399000I0J50800D01*
G01*
G37*
G36*
G01*
X139711200Y-66299000D02*
X139711200Y-65649000D01*
G75*
G02*
X139762000Y-65598200I50800J0D01*
G01*
X141322000Y-65598200D01*
G75*
G02*
X141372800Y-65649000I0J-50800D01*
G01*
X141372800Y-66299000D01*
G75*
G02*
X141322000Y-66349800I-50800J0D01*
G01*
X139762000Y-66349800D01*
G75*
G02*
X139711200Y-66299000I0J50800D01*
G01*
G37*
G36*
G01*
X137011200Y-66299000D02*
X137011200Y-65649000D01*
G75*
G02*
X137062000Y-65598200I50800J0D01*
G01*
X138622000Y-65598200D01*
G75*
G02*
X138672800Y-65649000I0J-50800D01*
G01*
X138672800Y-66299000D01*
G75*
G02*
X138622000Y-66349800I-50800J0D01*
G01*
X137062000Y-66349800D01*
G75*
G02*
X137011200Y-66299000I0J50800D01*
G01*
G37*
G36*
G01*
X137011200Y-65349000D02*
X137011200Y-64699000D01*
G75*
G02*
X137062000Y-64648200I50800J0D01*
G01*
X138622000Y-64648200D01*
G75*
G02*
X138672800Y-64699000I0J-50800D01*
G01*
X138672800Y-65349000D01*
G75*
G02*
X138622000Y-65399800I-50800J0D01*
G01*
X137062000Y-65399800D01*
G75*
G02*
X137011200Y-65349000I0J50800D01*
G01*
G37*
G36*
G01*
X137011200Y-64399000D02*
X137011200Y-63749000D01*
G75*
G02*
X137062000Y-63698200I50800J0D01*
G01*
X138622000Y-63698200D01*
G75*
G02*
X138672800Y-63749000I0J-50800D01*
G01*
X138672800Y-64399000D01*
G75*
G02*
X138622000Y-64449800I-50800J0D01*
G01*
X137062000Y-64449800D01*
G75*
G02*
X137011200Y-64399000I0J50800D01*
G01*
G37*
G36*
G01*
X155337000Y-98342200D02*
X157337000Y-98342200D01*
G75*
G02*
X157387800Y-98393000I0J-50800D01*
G01*
X157387800Y-102893000D01*
G75*
G02*
X157337000Y-102943800I-50800J0D01*
G01*
X155337000Y-102943800D01*
G75*
G02*
X155286200Y-102893000I0J50800D01*
G01*
X155286200Y-98393000D01*
G75*
G02*
X155337000Y-98342200I50800J0D01*
G01*
G37*
G36*
G01*
X155337000Y-89842200D02*
X157337000Y-89842200D01*
G75*
G02*
X157387800Y-89893000I0J-50800D01*
G01*
X157387800Y-94393000D01*
G75*
G02*
X157337000Y-94443800I-50800J0D01*
G01*
X155337000Y-94443800D01*
G75*
G02*
X155286200Y-94393000I0J50800D01*
G01*
X155286200Y-89893000D01*
G75*
G02*
X155337000Y-89842200I50800J0D01*
G01*
G37*
D15*
X118745000Y-136055100D03*
X153705000Y-136055100D03*
X153692300Y-56388000D03*
X188658500Y-136055100D03*
D16*
X153700000Y-130300000D03*
X153700000Y-62150000D03*
G36*
G01*
X161808000Y-74824800D02*
X159908000Y-74824800D01*
G75*
G02*
X159857200Y-74774000I0J50800D01*
G01*
X159857200Y-73474000D01*
G75*
G02*
X159908000Y-73423200I50800J0D01*
G01*
X161808000Y-73423200D01*
G75*
G02*
X161858800Y-73474000I0J-50800D01*
G01*
X161858800Y-74774000D01*
G75*
G02*
X161808000Y-74824800I-50800J0D01*
G01*
G37*
G36*
G01*
X158608000Y-74824800D02*
X156708000Y-74824800D01*
G75*
G02*
X156657200Y-74774000I0J50800D01*
G01*
X156657200Y-73474000D01*
G75*
G02*
X156708000Y-73423200I50800J0D01*
G01*
X158608000Y-73423200D01*
G75*
G02*
X158658800Y-73474000I0J-50800D01*
G01*
X158658800Y-74774000D01*
G75*
G02*
X158608000Y-74824800I-50800J0D01*
G01*
G37*
G36*
G01*
X161808000Y-69324800D02*
X159908000Y-69324800D01*
G75*
G02*
X159857200Y-69274000I0J50800D01*
G01*
X159857200Y-67974000D01*
G75*
G02*
X159908000Y-67923200I50800J0D01*
G01*
X161808000Y-67923200D01*
G75*
G02*
X161858800Y-67974000I0J-50800D01*
G01*
X161858800Y-69274000D01*
G75*
G02*
X161808000Y-69324800I-50800J0D01*
G01*
G37*
G36*
G01*
X158608000Y-69324800D02*
X156708000Y-69324800D01*
G75*
G02*
X156657200Y-69274000I0J50800D01*
G01*
X156657200Y-67974000D01*
G75*
G02*
X156708000Y-67923200I50800J0D01*
G01*
X158608000Y-67923200D01*
G75*
G02*
X158658800Y-67974000I0J-50800D01*
G01*
X158658800Y-69274000D01*
G75*
G02*
X158608000Y-69324800I-50800J0D01*
G01*
G37*
G36*
G01*
X141087200Y-59917776D02*
X141087200Y-58192224D01*
G75*
G02*
X141350224Y-57929200I263024J0D01*
G01*
X142875776Y-57929200D01*
G75*
G02*
X143138800Y-58192224I0J-263024D01*
G01*
X143138800Y-59917776D01*
G75*
G02*
X142875776Y-60180800I-263024J0D01*
G01*
X141350224Y-60180800D01*
G75*
G02*
X141087200Y-59917776I0J263024D01*
G01*
G37*
G36*
G01*
X139187200Y-58205400D02*
X139187200Y-57954600D01*
G75*
G02*
X139312600Y-57829200I125400J0D01*
G01*
X140613400Y-57829200D01*
G75*
G02*
X140738800Y-57954600I0J-125400D01*
G01*
X140738800Y-58205400D01*
G75*
G02*
X140613400Y-58330800I-125400J0D01*
G01*
X139312600Y-58330800D01*
G75*
G02*
X139187200Y-58205400I0J125400D01*
G01*
G37*
G36*
G01*
X139187200Y-58855400D02*
X139187200Y-58604600D01*
G75*
G02*
X139312600Y-58479200I125400J0D01*
G01*
X140613400Y-58479200D01*
G75*
G02*
X140738800Y-58604600I0J-125400D01*
G01*
X140738800Y-58855400D01*
G75*
G02*
X140613400Y-58980800I-125400J0D01*
G01*
X139312600Y-58980800D01*
G75*
G02*
X139187200Y-58855400I0J125400D01*
G01*
G37*
G36*
G01*
X139187200Y-59505400D02*
X139187200Y-59254600D01*
G75*
G02*
X139312600Y-59129200I125400J0D01*
G01*
X140613400Y-59129200D01*
G75*
G02*
X140738800Y-59254600I0J-125400D01*
G01*
X140738800Y-59505400D01*
G75*
G02*
X140613400Y-59630800I-125400J0D01*
G01*
X139312600Y-59630800D01*
G75*
G02*
X139187200Y-59505400I0J125400D01*
G01*
G37*
G36*
G01*
X139187200Y-60155400D02*
X139187200Y-59904600D01*
G75*
G02*
X139312600Y-59779200I125400J0D01*
G01*
X140613400Y-59779200D01*
G75*
G02*
X140738800Y-59904600I0J-125400D01*
G01*
X140738800Y-60155400D01*
G75*
G02*
X140613400Y-60280800I-125400J0D01*
G01*
X139312600Y-60280800D01*
G75*
G02*
X139187200Y-60155400I0J125400D01*
G01*
G37*
G36*
G01*
X143487200Y-60155400D02*
X143487200Y-59904600D01*
G75*
G02*
X143612600Y-59779200I125400J0D01*
G01*
X144913400Y-59779200D01*
G75*
G02*
X145038800Y-59904600I0J-125400D01*
G01*
X145038800Y-60155400D01*
G75*
G02*
X144913400Y-60280800I-125400J0D01*
G01*
X143612600Y-60280800D01*
G75*
G02*
X143487200Y-60155400I0J125400D01*
G01*
G37*
G36*
G01*
X143487200Y-59505400D02*
X143487200Y-59254600D01*
G75*
G02*
X143612600Y-59129200I125400J0D01*
G01*
X144913400Y-59129200D01*
G75*
G02*
X145038800Y-59254600I0J-125400D01*
G01*
X145038800Y-59505400D01*
G75*
G02*
X144913400Y-59630800I-125400J0D01*
G01*
X143612600Y-59630800D01*
G75*
G02*
X143487200Y-59505400I0J125400D01*
G01*
G37*
G36*
G01*
X143487200Y-58855400D02*
X143487200Y-58604600D01*
G75*
G02*
X143612600Y-58479200I125400J0D01*
G01*
X144913400Y-58479200D01*
G75*
G02*
X145038800Y-58604600I0J-125400D01*
G01*
X145038800Y-58855400D01*
G75*
G02*
X144913400Y-58980800I-125400J0D01*
G01*
X143612600Y-58980800D01*
G75*
G02*
X143487200Y-58855400I0J125400D01*
G01*
G37*
G36*
G01*
X143487200Y-58205400D02*
X143487200Y-57954600D01*
G75*
G02*
X143612600Y-57829200I125400J0D01*
G01*
X144913400Y-57829200D01*
G75*
G02*
X145038800Y-57954600I0J-125400D01*
G01*
X145038800Y-58205400D01*
G75*
G02*
X144913400Y-58330800I-125400J0D01*
G01*
X143612600Y-58330800D01*
G75*
G02*
X143487200Y-58205400I0J125400D01*
G01*
G37*
G36*
G01*
X164078200Y-79269400D02*
X164078200Y-78718600D01*
G75*
G02*
X164328600Y-78468200I250400J0D01*
G01*
X164829400Y-78468200D01*
G75*
G02*
X165079800Y-78718600I0J-250400D01*
G01*
X165079800Y-79269400D01*
G75*
G02*
X164829400Y-79519800I-250400J0D01*
G01*
X164328600Y-79519800D01*
G75*
G02*
X164078200Y-79269400I0J250400D01*
G01*
G37*
G36*
G01*
X165628200Y-79269400D02*
X165628200Y-78718600D01*
G75*
G02*
X165878600Y-78468200I250400J0D01*
G01*
X166379400Y-78468200D01*
G75*
G02*
X166629800Y-78718600I0J-250400D01*
G01*
X166629800Y-79269400D01*
G75*
G02*
X166379400Y-79519800I-250400J0D01*
G01*
X165878600Y-79519800D01*
G75*
G02*
X165628200Y-79269400I0J250400D01*
G01*
G37*
G36*
G01*
X167872600Y-82062200D02*
X168423400Y-82062200D01*
G75*
G02*
X168673800Y-82312600I0J-250400D01*
G01*
X168673800Y-82813400D01*
G75*
G02*
X168423400Y-83063800I-250400J0D01*
G01*
X167872600Y-83063800D01*
G75*
G02*
X167622200Y-82813400I0J250400D01*
G01*
X167622200Y-82312600D01*
G75*
G02*
X167872600Y-82062200I250400J0D01*
G01*
G37*
G36*
G01*
X167872600Y-80512200D02*
X168423400Y-80512200D01*
G75*
G02*
X168673800Y-80762600I0J-250400D01*
G01*
X168673800Y-81263400D01*
G75*
G02*
X168423400Y-81513800I-250400J0D01*
G01*
X167872600Y-81513800D01*
G75*
G02*
X167622200Y-81263400I0J250400D01*
G01*
X167622200Y-80762600D01*
G75*
G02*
X167872600Y-80512200I250400J0D01*
G01*
G37*
G36*
G01*
X164292999Y-82471199D02*
X164642999Y-82471199D01*
G75*
G02*
X164693799Y-82521999I0J-50800D01*
G01*
X164693799Y-83021999D01*
G75*
G02*
X164642999Y-83072799I-50800J0D01*
G01*
X164292999Y-83072799D01*
G75*
G02*
X164242199Y-83021999I0J50800D01*
G01*
X164242199Y-82521999D01*
G75*
G02*
X164292999Y-82471199I50800J0D01*
G01*
G37*
G36*
G01*
X164942999Y-82471199D02*
X165292999Y-82471199D01*
G75*
G02*
X165343799Y-82521999I0J-50800D01*
G01*
X165343799Y-83021999D01*
G75*
G02*
X165292999Y-83072799I-50800J0D01*
G01*
X164942999Y-83072799D01*
G75*
G02*
X164892199Y-83021999I0J50800D01*
G01*
X164892199Y-82521999D01*
G75*
G02*
X164942999Y-82471199I50800J0D01*
G01*
G37*
G36*
G01*
X165592999Y-82471199D02*
X165942999Y-82471199D01*
G75*
G02*
X165993799Y-82521999I0J-50800D01*
G01*
X165993799Y-83021999D01*
G75*
G02*
X165942999Y-83072799I-50800J0D01*
G01*
X165592999Y-83072799D01*
G75*
G02*
X165542199Y-83021999I0J50800D01*
G01*
X165542199Y-82521999D01*
G75*
G02*
X165592999Y-82471199I50800J0D01*
G01*
G37*
G36*
G01*
X166242999Y-82471199D02*
X166592999Y-82471199D01*
G75*
G02*
X166643799Y-82521999I0J-50800D01*
G01*
X166643799Y-83021999D01*
G75*
G02*
X166592999Y-83072799I-50800J0D01*
G01*
X166242999Y-83072799D01*
G75*
G02*
X166192199Y-83021999I0J50800D01*
G01*
X166192199Y-82521999D01*
G75*
G02*
X166242999Y-82471199I50800J0D01*
G01*
G37*
G36*
G01*
X166242999Y-80421199D02*
X166592999Y-80421199D01*
G75*
G02*
X166643799Y-80471999I0J-50800D01*
G01*
X166643799Y-80971999D01*
G75*
G02*
X166592999Y-81022799I-50800J0D01*
G01*
X166242999Y-81022799D01*
G75*
G02*
X166192199Y-80971999I0J50800D01*
G01*
X166192199Y-80471999D01*
G75*
G02*
X166242999Y-80421199I50800J0D01*
G01*
G37*
G36*
G01*
X165592999Y-80421199D02*
X165942999Y-80421199D01*
G75*
G02*
X165993799Y-80471999I0J-50800D01*
G01*
X165993799Y-80971999D01*
G75*
G02*
X165942999Y-81022799I-50800J0D01*
G01*
X165592999Y-81022799D01*
G75*
G02*
X165542199Y-80971999I0J50800D01*
G01*
X165542199Y-80471999D01*
G75*
G02*
X165592999Y-80421199I50800J0D01*
G01*
G37*
G36*
G01*
X164942999Y-80421199D02*
X165292999Y-80421199D01*
G75*
G02*
X165343799Y-80471999I0J-50800D01*
G01*
X165343799Y-80971999D01*
G75*
G02*
X165292999Y-81022799I-50800J0D01*
G01*
X164942999Y-81022799D01*
G75*
G02*
X164892199Y-80971999I0J50800D01*
G01*
X164892199Y-80471999D01*
G75*
G02*
X164942999Y-80421199I50800J0D01*
G01*
G37*
G36*
G01*
X164292999Y-80421199D02*
X164642999Y-80421199D01*
G75*
G02*
X164693799Y-80471999I0J-50800D01*
G01*
X164693799Y-80971999D01*
G75*
G02*
X164642999Y-81022799I-50800J0D01*
G01*
X164292999Y-81022799D01*
G75*
G02*
X164242199Y-80971999I0J50800D01*
G01*
X164242199Y-80471999D01*
G75*
G02*
X164292999Y-80421199I50800J0D01*
G01*
G37*
G36*
G01*
X173756200Y-92604400D02*
X173756200Y-92053600D01*
G75*
G02*
X174006600Y-91803200I250400J0D01*
G01*
X174507400Y-91803200D01*
G75*
G02*
X174757800Y-92053600I0J-250400D01*
G01*
X174757800Y-92604400D01*
G75*
G02*
X174507400Y-92854800I-250400J0D01*
G01*
X174006600Y-92854800D01*
G75*
G02*
X173756200Y-92604400I0J250400D01*
G01*
G37*
G36*
G01*
X172206200Y-92604400D02*
X172206200Y-92053600D01*
G75*
G02*
X172456600Y-91803200I250400J0D01*
G01*
X172957400Y-91803200D01*
G75*
G02*
X173207800Y-92053600I0J-250400D01*
G01*
X173207800Y-92604400D01*
G75*
G02*
X172957400Y-92854800I-250400J0D01*
G01*
X172456600Y-92854800D01*
G75*
G02*
X172206200Y-92604400I0J250400D01*
G01*
G37*
G36*
G01*
X162311800Y-90529600D02*
X162311800Y-91080400D01*
G75*
G02*
X162061400Y-91330800I-250400J0D01*
G01*
X161560600Y-91330800D01*
G75*
G02*
X161310200Y-91080400I0J250400D01*
G01*
X161310200Y-90529600D01*
G75*
G02*
X161560600Y-90279200I250400J0D01*
G01*
X162061400Y-90279200D01*
G75*
G02*
X162311800Y-90529600I0J-250400D01*
G01*
G37*
G36*
G01*
X160761800Y-90529600D02*
X160761800Y-91080400D01*
G75*
G02*
X160511400Y-91330800I-250400J0D01*
G01*
X160010600Y-91330800D01*
G75*
G02*
X159760200Y-91080400I0J250400D01*
G01*
X159760200Y-90529600D01*
G75*
G02*
X160010600Y-90279200I250400J0D01*
G01*
X160511400Y-90279200D01*
G75*
G02*
X160761800Y-90529600I0J-250400D01*
G01*
G37*
G36*
G01*
X172206200Y-101748400D02*
X172206200Y-101197600D01*
G75*
G02*
X172456600Y-100947200I250400J0D01*
G01*
X172957400Y-100947200D01*
G75*
G02*
X173207800Y-101197600I0J-250400D01*
G01*
X173207800Y-101748400D01*
G75*
G02*
X172957400Y-101998800I-250400J0D01*
G01*
X172456600Y-101998800D01*
G75*
G02*
X172206200Y-101748400I0J250400D01*
G01*
G37*
G36*
G01*
X173756200Y-101748400D02*
X173756200Y-101197600D01*
G75*
G02*
X174006600Y-100947200I250400J0D01*
G01*
X174507400Y-100947200D01*
G75*
G02*
X174757800Y-101197600I0J-250400D01*
G01*
X174757800Y-101748400D01*
G75*
G02*
X174507400Y-101998800I-250400J0D01*
G01*
X174006600Y-101998800D01*
G75*
G02*
X173756200Y-101748400I0J250400D01*
G01*
G37*
G36*
G01*
X161395600Y-104414200D02*
X161946400Y-104414200D01*
G75*
G02*
X162196800Y-104664600I0J-250400D01*
G01*
X162196800Y-105165400D01*
G75*
G02*
X161946400Y-105415800I-250400J0D01*
G01*
X161395600Y-105415800D01*
G75*
G02*
X161145200Y-105165400I0J250400D01*
G01*
X161145200Y-104664600D01*
G75*
G02*
X161395600Y-104414200I250400J0D01*
G01*
G37*
G36*
G01*
X161395600Y-102864200D02*
X161946400Y-102864200D01*
G75*
G02*
X162196800Y-103114600I0J-250400D01*
G01*
X162196800Y-103615400D01*
G75*
G02*
X161946400Y-103865800I-250400J0D01*
G01*
X161395600Y-103865800D01*
G75*
G02*
X161145200Y-103615400I0J250400D01*
G01*
X161145200Y-103114600D01*
G75*
G02*
X161395600Y-102864200I250400J0D01*
G01*
G37*
G36*
G01*
X155061200Y-88794400D02*
X155061200Y-88243600D01*
G75*
G02*
X155311600Y-87993200I250400J0D01*
G01*
X155812400Y-87993200D01*
G75*
G02*
X156062800Y-88243600I0J-250400D01*
G01*
X156062800Y-88794400D01*
G75*
G02*
X155812400Y-89044800I-250400J0D01*
G01*
X155311600Y-89044800D01*
G75*
G02*
X155061200Y-88794400I0J250400D01*
G01*
G37*
G36*
G01*
X156611200Y-88794400D02*
X156611200Y-88243600D01*
G75*
G02*
X156861600Y-87993200I250400J0D01*
G01*
X157362400Y-87993200D01*
G75*
G02*
X157612800Y-88243600I0J-250400D01*
G01*
X157612800Y-88794400D01*
G75*
G02*
X157362400Y-89044800I-250400J0D01*
G01*
X156861600Y-89044800D01*
G75*
G02*
X156611200Y-88794400I0J250400D01*
G01*
G37*
G36*
G01*
X151346201Y-90229401D02*
X151346201Y-89678601D01*
G75*
G02*
X151596601Y-89428201I250400J0D01*
G01*
X152097401Y-89428201D01*
G75*
G02*
X152347801Y-89678601I0J-250400D01*
G01*
X152347801Y-90229401D01*
G75*
G02*
X152097401Y-90479801I-250400J0D01*
G01*
X151596601Y-90479801D01*
G75*
G02*
X151346201Y-90229401I0J250400D01*
G01*
G37*
G36*
G01*
X149796201Y-90229401D02*
X149796201Y-89678601D01*
G75*
G02*
X150046601Y-89428201I250400J0D01*
G01*
X150547401Y-89428201D01*
G75*
G02*
X150797801Y-89678601I0J-250400D01*
G01*
X150797801Y-90229401D01*
G75*
G02*
X150547401Y-90479801I-250400J0D01*
G01*
X150046601Y-90479801D01*
G75*
G02*
X149796201Y-90229401I0J250400D01*
G01*
G37*
G36*
G01*
X155061200Y-104415400D02*
X155061200Y-103864600D01*
G75*
G02*
X155311600Y-103614200I250400J0D01*
G01*
X155812400Y-103614200D01*
G75*
G02*
X156062800Y-103864600I0J-250400D01*
G01*
X156062800Y-104415400D01*
G75*
G02*
X155812400Y-104665800I-250400J0D01*
G01*
X155311600Y-104665800D01*
G75*
G02*
X155061200Y-104415400I0J250400D01*
G01*
G37*
G36*
G01*
X156611200Y-104415400D02*
X156611200Y-103864600D01*
G75*
G02*
X156861600Y-103614200I250400J0D01*
G01*
X157362400Y-103614200D01*
G75*
G02*
X157612800Y-103864600I0J-250400D01*
G01*
X157612800Y-104415400D01*
G75*
G02*
X157362400Y-104665800I-250400J0D01*
G01*
X156861600Y-104665800D01*
G75*
G02*
X156611200Y-104415400I0J250400D01*
G01*
G37*
G36*
G01*
X150754800Y-79226600D02*
X150754800Y-79777400D01*
G75*
G02*
X150504400Y-80027800I-250400J0D01*
G01*
X150003600Y-80027800D01*
G75*
G02*
X149753200Y-79777400I0J250400D01*
G01*
X149753200Y-79226600D01*
G75*
G02*
X150003600Y-78976200I250400J0D01*
G01*
X150504400Y-78976200D01*
G75*
G02*
X150754800Y-79226600I0J-250400D01*
G01*
G37*
G36*
G01*
X149204800Y-79226600D02*
X149204800Y-79777400D01*
G75*
G02*
X148954400Y-80027800I-250400J0D01*
G01*
X148453600Y-80027800D01*
G75*
G02*
X148203200Y-79777400I0J250400D01*
G01*
X148203200Y-79226600D01*
G75*
G02*
X148453600Y-78976200I250400J0D01*
G01*
X148954400Y-78976200D01*
G75*
G02*
X149204800Y-79226600I0J-250400D01*
G01*
G37*
G36*
G01*
X151913400Y-75163800D02*
X151362600Y-75163800D01*
G75*
G02*
X151112200Y-74913400I0J250400D01*
G01*
X151112200Y-74412600D01*
G75*
G02*
X151362600Y-74162200I250400J0D01*
G01*
X151913400Y-74162200D01*
G75*
G02*
X152163800Y-74412600I0J-250400D01*
G01*
X152163800Y-74913400D01*
G75*
G02*
X151913400Y-75163800I-250400J0D01*
G01*
G37*
G36*
G01*
X151913400Y-76713800D02*
X151362600Y-76713800D01*
G75*
G02*
X151112200Y-76463400I0J250400D01*
G01*
X151112200Y-75962600D01*
G75*
G02*
X151362600Y-75712200I250400J0D01*
G01*
X151913400Y-75712200D01*
G75*
G02*
X152163800Y-75962600I0J-250400D01*
G01*
X152163800Y-76463400D01*
G75*
G02*
X151913400Y-76713800I-250400J0D01*
G01*
G37*
G36*
G01*
X167407400Y-73766800D02*
X166856600Y-73766800D01*
G75*
G02*
X166606200Y-73516400I0J250400D01*
G01*
X166606200Y-73015600D01*
G75*
G02*
X166856600Y-72765200I250400J0D01*
G01*
X167407400Y-72765200D01*
G75*
G02*
X167657800Y-73015600I0J-250400D01*
G01*
X167657800Y-73516400D01*
G75*
G02*
X167407400Y-73766800I-250400J0D01*
G01*
G37*
G36*
G01*
X167407400Y-75316800D02*
X166856600Y-75316800D01*
G75*
G02*
X166606200Y-75066400I0J250400D01*
G01*
X166606200Y-74565600D01*
G75*
G02*
X166856600Y-74315200I250400J0D01*
G01*
X167407400Y-74315200D01*
G75*
G02*
X167657800Y-74565600I0J-250400D01*
G01*
X167657800Y-75066400D01*
G75*
G02*
X167407400Y-75316800I-250400J0D01*
G01*
G37*
G36*
G01*
X149219200Y-72792400D02*
X149219200Y-72241600D01*
G75*
G02*
X149469600Y-71991200I250400J0D01*
G01*
X149970400Y-71991200D01*
G75*
G02*
X150220800Y-72241600I0J-250400D01*
G01*
X150220800Y-72792400D01*
G75*
G02*
X149970400Y-73042800I-250400J0D01*
G01*
X149469600Y-73042800D01*
G75*
G02*
X149219200Y-72792400I0J250400D01*
G01*
G37*
G36*
G01*
X150769200Y-72792400D02*
X150769200Y-72241600D01*
G75*
G02*
X151019600Y-71991200I250400J0D01*
G01*
X151520400Y-71991200D01*
G75*
G02*
X151770800Y-72241600I0J-250400D01*
G01*
X151770800Y-72792400D01*
G75*
G02*
X151520400Y-73042800I-250400J0D01*
G01*
X151019600Y-73042800D01*
G75*
G02*
X150769200Y-72792400I0J250400D01*
G01*
G37*
G36*
G01*
X154410600Y-84729200D02*
X154961400Y-84729200D01*
G75*
G02*
X155211800Y-84979600I0J-250400D01*
G01*
X155211800Y-85480400D01*
G75*
G02*
X154961400Y-85730800I-250400J0D01*
G01*
X154410600Y-85730800D01*
G75*
G02*
X154160200Y-85480400I0J250400D01*
G01*
X154160200Y-84979600D01*
G75*
G02*
X154410600Y-84729200I250400J0D01*
G01*
G37*
G36*
G01*
X154410600Y-83179200D02*
X154961400Y-83179200D01*
G75*
G02*
X155211800Y-83429600I0J-250400D01*
G01*
X155211800Y-83930400D01*
G75*
G02*
X154961400Y-84180800I-250400J0D01*
G01*
X154410600Y-84180800D01*
G75*
G02*
X154160200Y-83930400I0J250400D01*
G01*
X154160200Y-83429600D01*
G75*
G02*
X154410600Y-83179200I250400J0D01*
G01*
G37*
G36*
G01*
X163824200Y-112162400D02*
X163824200Y-111611600D01*
G75*
G02*
X164074600Y-111361200I250400J0D01*
G01*
X164575400Y-111361200D01*
G75*
G02*
X164825800Y-111611600I0J-250400D01*
G01*
X164825800Y-112162400D01*
G75*
G02*
X164575400Y-112412800I-250400J0D01*
G01*
X164074600Y-112412800D01*
G75*
G02*
X163824200Y-112162400I0J250400D01*
G01*
G37*
G36*
G01*
X165374200Y-112162400D02*
X165374200Y-111611600D01*
G75*
G02*
X165624600Y-111361200I250400J0D01*
G01*
X166125400Y-111361200D01*
G75*
G02*
X166375800Y-111611600I0J-250400D01*
G01*
X166375800Y-112162400D01*
G75*
G02*
X166125400Y-112412800I-250400J0D01*
G01*
X165624600Y-112412800D01*
G75*
G02*
X165374200Y-112162400I0J250400D01*
G01*
G37*
G36*
G01*
X165374200Y-113813400D02*
X165374200Y-113262600D01*
G75*
G02*
X165624600Y-113012200I250400J0D01*
G01*
X166125400Y-113012200D01*
G75*
G02*
X166375800Y-113262600I0J-250400D01*
G01*
X166375800Y-113813400D01*
G75*
G02*
X166125400Y-114063800I-250400J0D01*
G01*
X165624600Y-114063800D01*
G75*
G02*
X165374200Y-113813400I0J250400D01*
G01*
G37*
G36*
G01*
X163824200Y-113813400D02*
X163824200Y-113262600D01*
G75*
G02*
X164074600Y-113012200I250400J0D01*
G01*
X164575400Y-113012200D01*
G75*
G02*
X164825800Y-113262600I0J-250400D01*
G01*
X164825800Y-113813400D01*
G75*
G02*
X164575400Y-114063800I-250400J0D01*
G01*
X164074600Y-114063800D01*
G75*
G02*
X163824200Y-113813400I0J250400D01*
G01*
G37*
G36*
G01*
X161141600Y-118104200D02*
X161692400Y-118104200D01*
G75*
G02*
X161942800Y-118354600I0J-250400D01*
G01*
X161942800Y-118855400D01*
G75*
G02*
X161692400Y-119105800I-250400J0D01*
G01*
X161141600Y-119105800D01*
G75*
G02*
X160891200Y-118855400I0J250400D01*
G01*
X160891200Y-118354600D01*
G75*
G02*
X161141600Y-118104200I250400J0D01*
G01*
G37*
G36*
G01*
X161141600Y-119654200D02*
X161692400Y-119654200D01*
G75*
G02*
X161942800Y-119904600I0J-250400D01*
G01*
X161942800Y-120405400D01*
G75*
G02*
X161692400Y-120655800I-250400J0D01*
G01*
X161141600Y-120655800D01*
G75*
G02*
X160891200Y-120405400I0J250400D01*
G01*
X160891200Y-119904600D01*
G75*
G02*
X161141600Y-119654200I250400J0D01*
G01*
G37*
G36*
G01*
X158475800Y-116183600D02*
X158475800Y-116734400D01*
G75*
G02*
X158225400Y-116984800I-250400J0D01*
G01*
X157724600Y-116984800D01*
G75*
G02*
X157474200Y-116734400I0J250400D01*
G01*
X157474200Y-116183600D01*
G75*
G02*
X157724600Y-115933200I250400J0D01*
G01*
X158225400Y-115933200D01*
G75*
G02*
X158475800Y-116183600I0J-250400D01*
G01*
G37*
G36*
G01*
X160025800Y-116183600D02*
X160025800Y-116734400D01*
G75*
G02*
X159775400Y-116984800I-250400J0D01*
G01*
X159274600Y-116984800D01*
G75*
G02*
X159024200Y-116734400I0J250400D01*
G01*
X159024200Y-116183600D01*
G75*
G02*
X159274600Y-115933200I250400J0D01*
G01*
X159775400Y-115933200D01*
G75*
G02*
X160025800Y-116183600I0J-250400D01*
G01*
G37*
G36*
G01*
X155807600Y-119654200D02*
X156358400Y-119654200D01*
G75*
G02*
X156608800Y-119904600I0J-250400D01*
G01*
X156608800Y-120405400D01*
G75*
G02*
X156358400Y-120655800I-250400J0D01*
G01*
X155807600Y-120655800D01*
G75*
G02*
X155557200Y-120405400I0J250400D01*
G01*
X155557200Y-119904600D01*
G75*
G02*
X155807600Y-119654200I250400J0D01*
G01*
G37*
G36*
G01*
X155807600Y-118104200D02*
X156358400Y-118104200D01*
G75*
G02*
X156608800Y-118354600I0J-250400D01*
G01*
X156608800Y-118855400D01*
G75*
G02*
X156358400Y-119105800I-250400J0D01*
G01*
X155807600Y-119105800D01*
G75*
G02*
X155557200Y-118855400I0J250400D01*
G01*
X155557200Y-118354600D01*
G75*
G02*
X155807600Y-118104200I250400J0D01*
G01*
G37*
G36*
G01*
X153675800Y-112754600D02*
X153675800Y-113305400D01*
G75*
G02*
X153425400Y-113555800I-250400J0D01*
G01*
X152924600Y-113555800D01*
G75*
G02*
X152674200Y-113305400I0J250400D01*
G01*
X152674200Y-112754600D01*
G75*
G02*
X152924600Y-112504200I250400J0D01*
G01*
X153425400Y-112504200D01*
G75*
G02*
X153675800Y-112754600I0J-250400D01*
G01*
G37*
G36*
G01*
X152125800Y-112754600D02*
X152125800Y-113305400D01*
G75*
G02*
X151875400Y-113555800I-250400J0D01*
G01*
X151374600Y-113555800D01*
G75*
G02*
X151124200Y-113305400I0J250400D01*
G01*
X151124200Y-112754600D01*
G75*
G02*
X151374600Y-112504200I250400J0D01*
G01*
X151875400Y-112504200D01*
G75*
G02*
X152125800Y-112754600I0J-250400D01*
G01*
G37*
G36*
G01*
X153040800Y-105896600D02*
X153040800Y-106447400D01*
G75*
G02*
X152790400Y-106697800I-250400J0D01*
G01*
X152289600Y-106697800D01*
G75*
G02*
X152039200Y-106447400I0J250400D01*
G01*
X152039200Y-105896600D01*
G75*
G02*
X152289600Y-105646200I250400J0D01*
G01*
X152790400Y-105646200D01*
G75*
G02*
X153040800Y-105896600I0J-250400D01*
G01*
G37*
G36*
G01*
X151490800Y-105896600D02*
X151490800Y-106447400D01*
G75*
G02*
X151240400Y-106697800I-250400J0D01*
G01*
X150739600Y-106697800D01*
G75*
G02*
X150489200Y-106447400I0J250400D01*
G01*
X150489200Y-105896600D01*
G75*
G02*
X150739600Y-105646200I250400J0D01*
G01*
X151240400Y-105646200D01*
G75*
G02*
X151490800Y-105896600I0J-250400D01*
G01*
G37*
G36*
G01*
X172966400Y-69577800D02*
X171965600Y-69577800D01*
G75*
G02*
X171690200Y-69302400I0J275400D01*
G01*
X171690200Y-68751600D01*
G75*
G02*
X171965600Y-68476200I275400J0D01*
G01*
X172966400Y-68476200D01*
G75*
G02*
X173241800Y-68751600I0J-275400D01*
G01*
X173241800Y-69302400D01*
G75*
G02*
X172966400Y-69577800I-275400J0D01*
G01*
G37*
G36*
G01*
X172966400Y-71477800D02*
X171965600Y-71477800D01*
G75*
G02*
X171690200Y-71202400I0J275400D01*
G01*
X171690200Y-70651600D01*
G75*
G02*
X171965600Y-70376200I275400J0D01*
G01*
X172966400Y-70376200D01*
G75*
G02*
X173241800Y-70651600I0J-275400D01*
G01*
X173241800Y-71202400D01*
G75*
G02*
X172966400Y-71477800I-275400J0D01*
G01*
G37*
G36*
G01*
X187584800Y-76305600D02*
X187584800Y-76856400D01*
G75*
G02*
X187334400Y-77106800I-250400J0D01*
G01*
X186833600Y-77106800D01*
G75*
G02*
X186583200Y-76856400I0J250400D01*
G01*
X186583200Y-76305600D01*
G75*
G02*
X186833600Y-76055200I250400J0D01*
G01*
X187334400Y-76055200D01*
G75*
G02*
X187584800Y-76305600I0J-250400D01*
G01*
G37*
G36*
G01*
X186034800Y-76305600D02*
X186034800Y-76856400D01*
G75*
G02*
X185784400Y-77106800I-250400J0D01*
G01*
X185283600Y-77106800D01*
G75*
G02*
X185033200Y-76856400I0J250400D01*
G01*
X185033200Y-76305600D01*
G75*
G02*
X185283600Y-76055200I250400J0D01*
G01*
X185784400Y-76055200D01*
G75*
G02*
X186034800Y-76305600I0J-250400D01*
G01*
G37*
G36*
G01*
X137898800Y-56395600D02*
X137898800Y-57396400D01*
G75*
G02*
X137623400Y-57671800I-275400J0D01*
G01*
X137072600Y-57671800D01*
G75*
G02*
X136797200Y-57396400I0J275400D01*
G01*
X136797200Y-56395600D01*
G75*
G02*
X137072600Y-56120200I275400J0D01*
G01*
X137623400Y-56120200D01*
G75*
G02*
X137898800Y-56395600I0J-275400D01*
G01*
G37*
G36*
G01*
X135998800Y-56395600D02*
X135998800Y-57396400D01*
G75*
G02*
X135723400Y-57671800I-275400J0D01*
G01*
X135172600Y-57671800D01*
G75*
G02*
X134897200Y-57396400I0J275400D01*
G01*
X134897200Y-56395600D01*
G75*
G02*
X135172600Y-56120200I275400J0D01*
G01*
X135723400Y-56120200D01*
G75*
G02*
X135998800Y-56395600I0J-275400D01*
G01*
G37*
G36*
G01*
X136038400Y-75062800D02*
X135487600Y-75062800D01*
G75*
G02*
X135237200Y-74812400I0J250400D01*
G01*
X135237200Y-74311600D01*
G75*
G02*
X135487600Y-74061200I250400J0D01*
G01*
X136038400Y-74061200D01*
G75*
G02*
X136288800Y-74311600I0J-250400D01*
G01*
X136288800Y-74812400D01*
G75*
G02*
X136038400Y-75062800I-250400J0D01*
G01*
G37*
G36*
G01*
X136038400Y-73512800D02*
X135487600Y-73512800D01*
G75*
G02*
X135237200Y-73262400I0J250400D01*
G01*
X135237200Y-72761600D01*
G75*
G02*
X135487600Y-72511200I250400J0D01*
G01*
X136038400Y-72511200D01*
G75*
G02*
X136288800Y-72761600I0J-250400D01*
G01*
X136288800Y-73262400D01*
G75*
G02*
X136038400Y-73512800I-250400J0D01*
G01*
G37*
G36*
G01*
X138917800Y-70717600D02*
X138917800Y-71268400D01*
G75*
G02*
X138667400Y-71518800I-250400J0D01*
G01*
X138166600Y-71518800D01*
G75*
G02*
X137916200Y-71268400I0J250400D01*
G01*
X137916200Y-70717600D01*
G75*
G02*
X138166600Y-70467200I250400J0D01*
G01*
X138667400Y-70467200D01*
G75*
G02*
X138917800Y-70717600I0J-250400D01*
G01*
G37*
G36*
G01*
X140467800Y-70717600D02*
X140467800Y-71268400D01*
G75*
G02*
X140217400Y-71518800I-250400J0D01*
G01*
X139716600Y-71518800D01*
G75*
G02*
X139466200Y-71268400I0J250400D01*
G01*
X139466200Y-70717600D01*
G75*
G02*
X139716600Y-70467200I250400J0D01*
G01*
X140217400Y-70467200D01*
G75*
G02*
X140467800Y-70717600I0J-250400D01*
G01*
G37*
G36*
G01*
X137787400Y-85574800D02*
X136786600Y-85574800D01*
G75*
G02*
X136511200Y-85299400I0J275400D01*
G01*
X136511200Y-84748600D01*
G75*
G02*
X136786600Y-84473200I275400J0D01*
G01*
X137787400Y-84473200D01*
G75*
G02*
X138062800Y-84748600I0J-275400D01*
G01*
X138062800Y-85299400D01*
G75*
G02*
X137787400Y-85574800I-275400J0D01*
G01*
G37*
G36*
G01*
X137787400Y-83674800D02*
X136786600Y-83674800D01*
G75*
G02*
X136511200Y-83399400I0J275400D01*
G01*
X136511200Y-82848600D01*
G75*
G02*
X136786600Y-82573200I275400J0D01*
G01*
X137787400Y-82573200D01*
G75*
G02*
X138062800Y-82848600I0J-275400D01*
G01*
X138062800Y-83399400D01*
G75*
G02*
X137787400Y-83674800I-275400J0D01*
G01*
G37*
G36*
G01*
X135784400Y-83799800D02*
X135233600Y-83799800D01*
G75*
G02*
X134983200Y-83549400I0J250400D01*
G01*
X134983200Y-83048600D01*
G75*
G02*
X135233600Y-82798200I250400J0D01*
G01*
X135784400Y-82798200D01*
G75*
G02*
X136034800Y-83048600I0J-250400D01*
G01*
X136034800Y-83549400D01*
G75*
G02*
X135784400Y-83799800I-250400J0D01*
G01*
G37*
G36*
G01*
X135784400Y-85349800D02*
X135233600Y-85349800D01*
G75*
G02*
X134983200Y-85099400I0J250400D01*
G01*
X134983200Y-84598600D01*
G75*
G02*
X135233600Y-84348200I250400J0D01*
G01*
X135784400Y-84348200D01*
G75*
G02*
X136034800Y-84598600I0J-250400D01*
G01*
X136034800Y-85099400D01*
G75*
G02*
X135784400Y-85349800I-250400J0D01*
G01*
G37*
G36*
G01*
X134260400Y-83799800D02*
X133709600Y-83799800D01*
G75*
G02*
X133459200Y-83549400I0J250400D01*
G01*
X133459200Y-83048600D01*
G75*
G02*
X133709600Y-82798200I250400J0D01*
G01*
X134260400Y-82798200D01*
G75*
G02*
X134510800Y-83048600I0J-250400D01*
G01*
X134510800Y-83549400D01*
G75*
G02*
X134260400Y-83799800I-250400J0D01*
G01*
G37*
G36*
G01*
X134260400Y-85349800D02*
X133709600Y-85349800D01*
G75*
G02*
X133459200Y-85099400I0J250400D01*
G01*
X133459200Y-84598600D01*
G75*
G02*
X133709600Y-84348200I250400J0D01*
G01*
X134260400Y-84348200D01*
G75*
G02*
X134510800Y-84598600I0J-250400D01*
G01*
X134510800Y-85099400D01*
G75*
G02*
X134260400Y-85349800I-250400J0D01*
G01*
G37*
G36*
G01*
X137787400Y-80621800D02*
X136786600Y-80621800D01*
G75*
G02*
X136511200Y-80346400I0J275400D01*
G01*
X136511200Y-79795600D01*
G75*
G02*
X136786600Y-79520200I275400J0D01*
G01*
X137787400Y-79520200D01*
G75*
G02*
X138062800Y-79795600I0J-275400D01*
G01*
X138062800Y-80346400D01*
G75*
G02*
X137787400Y-80621800I-275400J0D01*
G01*
G37*
G36*
G01*
X137787400Y-78721800D02*
X136786600Y-78721800D01*
G75*
G02*
X136511200Y-78446400I0J275400D01*
G01*
X136511200Y-77895600D01*
G75*
G02*
X136786600Y-77620200I275400J0D01*
G01*
X137787400Y-77620200D01*
G75*
G02*
X138062800Y-77895600I0J-275400D01*
G01*
X138062800Y-78446400D01*
G75*
G02*
X137787400Y-78721800I-275400J0D01*
G01*
G37*
G36*
G01*
X135784400Y-78846800D02*
X135233600Y-78846800D01*
G75*
G02*
X134983200Y-78596400I0J250400D01*
G01*
X134983200Y-78095600D01*
G75*
G02*
X135233600Y-77845200I250400J0D01*
G01*
X135784400Y-77845200D01*
G75*
G02*
X136034800Y-78095600I0J-250400D01*
G01*
X136034800Y-78596400D01*
G75*
G02*
X135784400Y-78846800I-250400J0D01*
G01*
G37*
G36*
G01*
X135784400Y-80396800D02*
X135233600Y-80396800D01*
G75*
G02*
X134983200Y-80146400I0J250400D01*
G01*
X134983200Y-79645600D01*
G75*
G02*
X135233600Y-79395200I250400J0D01*
G01*
X135784400Y-79395200D01*
G75*
G02*
X136034800Y-79645600I0J-250400D01*
G01*
X136034800Y-80146400D01*
G75*
G02*
X135784400Y-80396800I-250400J0D01*
G01*
G37*
G36*
G01*
X134260400Y-78846800D02*
X133709600Y-78846800D01*
G75*
G02*
X133459200Y-78596400I0J250400D01*
G01*
X133459200Y-78095600D01*
G75*
G02*
X133709600Y-77845200I250400J0D01*
G01*
X134260400Y-77845200D01*
G75*
G02*
X134510800Y-78095600I0J-250400D01*
G01*
X134510800Y-78596400D01*
G75*
G02*
X134260400Y-78846800I-250400J0D01*
G01*
G37*
G36*
G01*
X134260400Y-80396800D02*
X133709600Y-80396800D01*
G75*
G02*
X133459200Y-80146400I0J250400D01*
G01*
X133459200Y-79645600D01*
G75*
G02*
X133709600Y-79395200I250400J0D01*
G01*
X134260400Y-79395200D01*
G75*
G02*
X134510800Y-79645600I0J-250400D01*
G01*
X134510800Y-80146400D01*
G75*
G02*
X134260400Y-80396800I-250400J0D01*
G01*
G37*
G36*
G01*
X142896400Y-75062800D02*
X142345600Y-75062800D01*
G75*
G02*
X142095200Y-74812400I0J250400D01*
G01*
X142095200Y-74311600D01*
G75*
G02*
X142345600Y-74061200I250400J0D01*
G01*
X142896400Y-74061200D01*
G75*
G02*
X143146800Y-74311600I0J-250400D01*
G01*
X143146800Y-74812400D01*
G75*
G02*
X142896400Y-75062800I-250400J0D01*
G01*
G37*
G36*
G01*
X142896400Y-73512800D02*
X142345600Y-73512800D01*
G75*
G02*
X142095200Y-73262400I0J250400D01*
G01*
X142095200Y-72761600D01*
G75*
G02*
X142345600Y-72511200I250400J0D01*
G01*
X142896400Y-72511200D01*
G75*
G02*
X143146800Y-72761600I0J-250400D01*
G01*
X143146800Y-73262400D01*
G75*
G02*
X142896400Y-73512800I-250400J0D01*
G01*
G37*
G36*
G01*
X136038400Y-66299800D02*
X135487600Y-66299800D01*
G75*
G02*
X135237200Y-66049400I0J250400D01*
G01*
X135237200Y-65548600D01*
G75*
G02*
X135487600Y-65298200I250400J0D01*
G01*
X136038400Y-65298200D01*
G75*
G02*
X136288800Y-65548600I0J-250400D01*
G01*
X136288800Y-66049400D01*
G75*
G02*
X136038400Y-66299800I-250400J0D01*
G01*
G37*
G36*
G01*
X136038400Y-64749800D02*
X135487600Y-64749800D01*
G75*
G02*
X135237200Y-64499400I0J250400D01*
G01*
X135237200Y-63998600D01*
G75*
G02*
X135487600Y-63748200I250400J0D01*
G01*
X136038400Y-63748200D01*
G75*
G02*
X136288800Y-63998600I0J-250400D01*
G01*
X136288800Y-64499400D01*
G75*
G02*
X136038400Y-64749800I-250400J0D01*
G01*
G37*
G36*
G01*
X142374600Y-65423200D02*
X143375400Y-65423200D01*
G75*
G02*
X143650800Y-65698600I0J-275400D01*
G01*
X143650800Y-66249400D01*
G75*
G02*
X143375400Y-66524800I-275400J0D01*
G01*
X142374600Y-66524800D01*
G75*
G02*
X142099200Y-66249400I0J275400D01*
G01*
X142099200Y-65698600D01*
G75*
G02*
X142374600Y-65423200I275400J0D01*
G01*
G37*
G36*
G01*
X142374600Y-63523200D02*
X143375400Y-63523200D01*
G75*
G02*
X143650800Y-63798600I0J-275400D01*
G01*
X143650800Y-64349400D01*
G75*
G02*
X143375400Y-64624800I-275400J0D01*
G01*
X142374600Y-64624800D01*
G75*
G02*
X142099200Y-64349400I0J275400D01*
G01*
X142099200Y-63798600D01*
G75*
G02*
X142374600Y-63523200I275400J0D01*
G01*
G37*
G36*
G01*
X140467800Y-67542600D02*
X140467800Y-68093400D01*
G75*
G02*
X140217400Y-68343800I-250400J0D01*
G01*
X139716600Y-68343800D01*
G75*
G02*
X139466200Y-68093400I0J250400D01*
G01*
X139466200Y-67542600D01*
G75*
G02*
X139716600Y-67292200I250400J0D01*
G01*
X140217400Y-67292200D01*
G75*
G02*
X140467800Y-67542600I0J-250400D01*
G01*
G37*
G36*
G01*
X138917800Y-67542600D02*
X138917800Y-68093400D01*
G75*
G02*
X138667400Y-68343800I-250400J0D01*
G01*
X138166600Y-68343800D01*
G75*
G02*
X137916200Y-68093400I0J250400D01*
G01*
X137916200Y-67542600D01*
G75*
G02*
X138166600Y-67292200I250400J0D01*
G01*
X138667400Y-67292200D01*
G75*
G02*
X138917800Y-67542600I0J-250400D01*
G01*
G37*
G36*
G01*
X149264000Y-91809200D02*
X150964000Y-91809200D01*
G75*
G02*
X151014800Y-91860000I0J-50800D01*
G01*
X151014800Y-93560000D01*
G75*
G02*
X150964000Y-93610800I-50800J0D01*
G01*
X149264000Y-93610800D01*
G75*
G02*
X149213200Y-93560000I0J50800D01*
G01*
X149213200Y-91860000D01*
G75*
G02*
X149264000Y-91809200I50800J0D01*
G01*
G37*
D17*
X147574000Y-92710000D03*
G36*
G01*
X177204000Y-87491200D02*
X178904000Y-87491200D01*
G75*
G02*
X178954800Y-87542000I0J-50800D01*
G01*
X178954800Y-89242000D01*
G75*
G02*
X178904000Y-89292800I-50800J0D01*
G01*
X177204000Y-89292800D01*
G75*
G02*
X177153200Y-89242000I0J50800D01*
G01*
X177153200Y-87542000D01*
G75*
G02*
X177204000Y-87491200I50800J0D01*
G01*
G37*
X175514000Y-88392000D03*
X172974000Y-88392000D03*
X170434000Y-88392000D03*
X118732300Y-86880700D03*
G36*
G01*
X117831500Y-85190700D02*
X117831500Y-83490700D01*
G75*
G02*
X117882300Y-83439900I50800J0D01*
G01*
X119582300Y-83439900D01*
G75*
G02*
X119633100Y-83490700I0J-50800D01*
G01*
X119633100Y-85190700D01*
G75*
G02*
X119582300Y-85241500I-50800J0D01*
G01*
X117882300Y-85241500D01*
G75*
G02*
X117831500Y-85190700I0J50800D01*
G01*
G37*
X180086000Y-92202000D03*
X180086000Y-94742000D03*
X180086000Y-97282000D03*
G36*
G01*
X180986800Y-98972000D02*
X180986800Y-100672000D01*
G75*
G02*
X180936000Y-100722800I-50800J0D01*
G01*
X179236000Y-100722800D01*
G75*
G02*
X179185200Y-100672000I0J50800D01*
G01*
X179185200Y-98972000D01*
G75*
G02*
X179236000Y-98921200I50800J0D01*
G01*
X180936000Y-98921200D01*
G75*
G02*
X180986800Y-98972000I0J-50800D01*
G01*
G37*
G36*
G01*
X117839200Y-57240000D02*
X117839200Y-55540000D01*
G75*
G02*
X117890000Y-55489200I50800J0D01*
G01*
X119590000Y-55489200D01*
G75*
G02*
X119640800Y-55540000I0J-50800D01*
G01*
X119640800Y-57240000D01*
G75*
G02*
X119590000Y-57290800I-50800J0D01*
G01*
X117890000Y-57290800D01*
G75*
G02*
X117839200Y-57240000I0J50800D01*
G01*
G37*
X118740000Y-58930000D03*
X118740000Y-61470000D03*
X118740000Y-64010000D03*
X118740000Y-66550000D03*
X118740000Y-69090000D03*
X118740000Y-71630000D03*
X118740000Y-74170000D03*
X118740000Y-76710000D03*
X118740000Y-79250000D03*
X118745000Y-94488000D03*
G36*
G01*
X117844200Y-92798000D02*
X117844200Y-91098000D01*
G75*
G02*
X117895000Y-91047200I50800J0D01*
G01*
X119595000Y-91047200D01*
G75*
G02*
X119645800Y-91098000I0J-50800D01*
G01*
X119645800Y-92798000D01*
G75*
G02*
X119595000Y-92848800I-50800J0D01*
G01*
X117895000Y-92848800D01*
G75*
G02*
X117844200Y-92798000I0J50800D01*
G01*
G37*
G36*
G01*
X119645800Y-101258000D02*
X119645800Y-102958000D01*
G75*
G02*
X119595000Y-103008800I-50800J0D01*
G01*
X117895000Y-103008800D01*
G75*
G02*
X117844200Y-102958000I0J50800D01*
G01*
X117844200Y-101258000D01*
G75*
G02*
X117895000Y-101207200I50800J0D01*
G01*
X119595000Y-101207200D01*
G75*
G02*
X119645800Y-101258000I0J-50800D01*
G01*
G37*
X118745000Y-99568000D03*
G36*
G01*
X163368400Y-86747800D02*
X162767600Y-86747800D01*
G75*
G02*
X162542200Y-86522400I0J225400D01*
G01*
X162542200Y-86071600D01*
G75*
G02*
X162767600Y-85846200I225400J0D01*
G01*
X163368400Y-85846200D01*
G75*
G02*
X163593800Y-86071600I0J-225400D01*
G01*
X163593800Y-86522400D01*
G75*
G02*
X163368400Y-86747800I-225400J0D01*
G01*
G37*
G36*
G01*
X163368400Y-88397800D02*
X162767600Y-88397800D01*
G75*
G02*
X162542200Y-88172400I0J225400D01*
G01*
X162542200Y-87721600D01*
G75*
G02*
X162767600Y-87496200I225400J0D01*
G01*
X163368400Y-87496200D01*
G75*
G02*
X163593800Y-87721600I0J-225400D01*
G01*
X163593800Y-88172400D01*
G75*
G02*
X163368400Y-88397800I-225400J0D01*
G01*
G37*
G36*
G01*
X167847600Y-104261200D02*
X168448400Y-104261200D01*
G75*
G02*
X168673800Y-104486600I0J-225400D01*
G01*
X168673800Y-104937400D01*
G75*
G02*
X168448400Y-105162800I-225400J0D01*
G01*
X167847600Y-105162800D01*
G75*
G02*
X167622200Y-104937400I0J225400D01*
G01*
X167622200Y-104486600D01*
G75*
G02*
X167847600Y-104261200I225400J0D01*
G01*
G37*
G36*
G01*
X167847600Y-105911200D02*
X168448400Y-105911200D01*
G75*
G02*
X168673800Y-106136600I0J-225400D01*
G01*
X168673800Y-106587400D01*
G75*
G02*
X168448400Y-106812800I-225400J0D01*
G01*
X167847600Y-106812800D01*
G75*
G02*
X167622200Y-106587400I0J225400D01*
G01*
X167622200Y-106136600D01*
G75*
G02*
X167847600Y-105911200I225400J0D01*
G01*
G37*
G36*
G01*
X164418600Y-87496200D02*
X165019400Y-87496200D01*
G75*
G02*
X165244800Y-87721600I0J-225400D01*
G01*
X165244800Y-88172400D01*
G75*
G02*
X165019400Y-88397800I-225400J0D01*
G01*
X164418600Y-88397800D01*
G75*
G02*
X164193200Y-88172400I0J225400D01*
G01*
X164193200Y-87721600D01*
G75*
G02*
X164418600Y-87496200I225400J0D01*
G01*
G37*
G36*
G01*
X164418600Y-85846200D02*
X165019400Y-85846200D01*
G75*
G02*
X165244800Y-86071600I0J-225400D01*
G01*
X165244800Y-86522400D01*
G75*
G02*
X165019400Y-86747800I-225400J0D01*
G01*
X164418600Y-86747800D01*
G75*
G02*
X164193200Y-86522400I0J225400D01*
G01*
X164193200Y-86071600D01*
G75*
G02*
X164418600Y-85846200I225400J0D01*
G01*
G37*
G36*
G01*
X166797400Y-106812800D02*
X166196600Y-106812800D01*
G75*
G02*
X165971200Y-106587400I0J225400D01*
G01*
X165971200Y-106136600D01*
G75*
G02*
X166196600Y-105911200I225400J0D01*
G01*
X166797400Y-105911200D01*
G75*
G02*
X167022800Y-106136600I0J-225400D01*
G01*
X167022800Y-106587400D01*
G75*
G02*
X166797400Y-106812800I-225400J0D01*
G01*
G37*
G36*
G01*
X166797400Y-105162800D02*
X166196600Y-105162800D01*
G75*
G02*
X165971200Y-104937400I0J225400D01*
G01*
X165971200Y-104486600D01*
G75*
G02*
X166196600Y-104261200I225400J0D01*
G01*
X166797400Y-104261200D01*
G75*
G02*
X167022800Y-104486600I0J-225400D01*
G01*
X167022800Y-104937400D01*
G75*
G02*
X166797400Y-105162800I-225400J0D01*
G01*
G37*
G36*
G01*
X161116600Y-87496200D02*
X161717400Y-87496200D01*
G75*
G02*
X161942800Y-87721600I0J-225400D01*
G01*
X161942800Y-88172400D01*
G75*
G02*
X161717400Y-88397800I-225400J0D01*
G01*
X161116600Y-88397800D01*
G75*
G02*
X160891200Y-88172400I0J225400D01*
G01*
X160891200Y-87721600D01*
G75*
G02*
X161116600Y-87496200I225400J0D01*
G01*
G37*
G36*
G01*
X161116600Y-85846200D02*
X161717400Y-85846200D01*
G75*
G02*
X161942800Y-86071600I0J-225400D01*
G01*
X161942800Y-86522400D01*
G75*
G02*
X161717400Y-86747800I-225400J0D01*
G01*
X161116600Y-86747800D01*
G75*
G02*
X160891200Y-86522400I0J225400D01*
G01*
X160891200Y-86071600D01*
G75*
G02*
X161116600Y-85846200I225400J0D01*
G01*
G37*
G36*
G01*
X170099400Y-106812800D02*
X169498600Y-106812800D01*
G75*
G02*
X169273200Y-106587400I0J225400D01*
G01*
X169273200Y-106136600D01*
G75*
G02*
X169498600Y-105911200I225400J0D01*
G01*
X170099400Y-105911200D01*
G75*
G02*
X170324800Y-106136600I0J-225400D01*
G01*
X170324800Y-106587400D01*
G75*
G02*
X170099400Y-106812800I-225400J0D01*
G01*
G37*
G36*
G01*
X170099400Y-105162800D02*
X169498600Y-105162800D01*
G75*
G02*
X169273200Y-104937400I0J225400D01*
G01*
X169273200Y-104486600D01*
G75*
G02*
X169498600Y-104261200I225400J0D01*
G01*
X170099400Y-104261200D01*
G75*
G02*
X170324800Y-104486600I0J-225400D01*
G01*
X170324800Y-104937400D01*
G75*
G02*
X170099400Y-105162800I-225400J0D01*
G01*
G37*
G36*
G01*
X149801201Y-88692400D02*
X149801201Y-88091600D01*
G75*
G02*
X150026601Y-87866200I225400J0D01*
G01*
X150477401Y-87866200D01*
G75*
G02*
X150702801Y-88091600I0J-225400D01*
G01*
X150702801Y-88692400D01*
G75*
G02*
X150477401Y-88917800I-225400J0D01*
G01*
X150026601Y-88917800D01*
G75*
G02*
X149801201Y-88692400I0J225400D01*
G01*
G37*
G36*
G01*
X151451201Y-88692400D02*
X151451201Y-88091600D01*
G75*
G02*
X151676601Y-87866200I225400J0D01*
G01*
X152127401Y-87866200D01*
G75*
G02*
X152352801Y-88091600I0J-225400D01*
G01*
X152352801Y-88692400D01*
G75*
G02*
X152127401Y-88917800I-225400J0D01*
G01*
X151676601Y-88917800D01*
G75*
G02*
X151451201Y-88692400I0J225400D01*
G01*
G37*
G36*
G01*
X152480600Y-96767200D02*
X153081400Y-96767200D01*
G75*
G02*
X153306800Y-96992600I0J-225400D01*
G01*
X153306800Y-97443400D01*
G75*
G02*
X153081400Y-97668800I-225400J0D01*
G01*
X152480600Y-97668800D01*
G75*
G02*
X152255200Y-97443400I0J225400D01*
G01*
X152255200Y-96992600D01*
G75*
G02*
X152480600Y-96767200I225400J0D01*
G01*
G37*
G36*
G01*
X152480600Y-95117200D02*
X153081400Y-95117200D01*
G75*
G02*
X153306800Y-95342600I0J-225400D01*
G01*
X153306800Y-95793400D01*
G75*
G02*
X153081400Y-96018800I-225400J0D01*
G01*
X152480600Y-96018800D01*
G75*
G02*
X152255200Y-95793400I0J225400D01*
G01*
X152255200Y-95342600D01*
G75*
G02*
X152480600Y-95117200I225400J0D01*
G01*
G37*
G36*
G01*
X172646799Y-77169600D02*
X172646799Y-77770400D01*
G75*
G02*
X172421399Y-77995800I-225400J0D01*
G01*
X171970599Y-77995800D01*
G75*
G02*
X171745199Y-77770400I0J225400D01*
G01*
X171745199Y-77169600D01*
G75*
G02*
X171970599Y-76944200I225400J0D01*
G01*
X172421399Y-76944200D01*
G75*
G02*
X172646799Y-77169600I0J-225400D01*
G01*
G37*
G36*
G01*
X174296799Y-77169600D02*
X174296799Y-77770400D01*
G75*
G02*
X174071399Y-77995800I-225400J0D01*
G01*
X173620599Y-77995800D01*
G75*
G02*
X173395199Y-77770400I0J225400D01*
G01*
X173395199Y-77169600D01*
G75*
G02*
X173620599Y-76944200I225400J0D01*
G01*
X174071399Y-76944200D01*
G75*
G02*
X174296799Y-77169600I0J-225400D01*
G01*
G37*
G36*
G01*
X172646799Y-75473599D02*
X172646799Y-76074399D01*
G75*
G02*
X172421399Y-76299799I-225400J0D01*
G01*
X171970599Y-76299799D01*
G75*
G02*
X171745199Y-76074399I0J225400D01*
G01*
X171745199Y-75473599D01*
G75*
G02*
X171970599Y-75248199I225400J0D01*
G01*
X172421399Y-75248199D01*
G75*
G02*
X172646799Y-75473599I0J-225400D01*
G01*
G37*
G36*
G01*
X174296799Y-75473599D02*
X174296799Y-76074399D01*
G75*
G02*
X174071399Y-76299799I-225400J0D01*
G01*
X173620599Y-76299799D01*
G75*
G02*
X173395199Y-76074399I0J225400D01*
G01*
X173395199Y-75473599D01*
G75*
G02*
X173620599Y-75248199I225400J0D01*
G01*
X174071399Y-75248199D01*
G75*
G02*
X174296799Y-75473599I0J-225400D01*
G01*
G37*
G36*
G01*
X164725800Y-109935600D02*
X164725800Y-110536400D01*
G75*
G02*
X164500400Y-110761800I-225400J0D01*
G01*
X164049600Y-110761800D01*
G75*
G02*
X163824200Y-110536400I0J225400D01*
G01*
X163824200Y-109935600D01*
G75*
G02*
X164049600Y-109710200I225400J0D01*
G01*
X164500400Y-109710200D01*
G75*
G02*
X164725800Y-109935600I0J-225400D01*
G01*
G37*
G36*
G01*
X166375800Y-109935600D02*
X166375800Y-110536400D01*
G75*
G02*
X166150400Y-110761800I-225400J0D01*
G01*
X165699600Y-110761800D01*
G75*
G02*
X165474200Y-110536400I0J225400D01*
G01*
X165474200Y-109935600D01*
G75*
G02*
X165699600Y-109710200I225400J0D01*
G01*
X166150400Y-109710200D01*
G75*
G02*
X166375800Y-109935600I0J-225400D01*
G01*
G37*
G36*
G01*
X168915800Y-108157600D02*
X168915800Y-108758400D01*
G75*
G02*
X168690400Y-108983800I-225400J0D01*
G01*
X168239600Y-108983800D01*
G75*
G02*
X168014200Y-108758400I0J225400D01*
G01*
X168014200Y-108157600D01*
G75*
G02*
X168239600Y-107932200I225400J0D01*
G01*
X168690400Y-107932200D01*
G75*
G02*
X168915800Y-108157600I0J-225400D01*
G01*
G37*
G36*
G01*
X167265800Y-108157600D02*
X167265800Y-108758400D01*
G75*
G02*
X167040400Y-108983800I-225400J0D01*
G01*
X166589600Y-108983800D01*
G75*
G02*
X166364200Y-108758400I0J225400D01*
G01*
X166364200Y-108157600D01*
G75*
G02*
X166589600Y-107932200I225400J0D01*
G01*
X167040400Y-107932200D01*
G75*
G02*
X167265800Y-108157600I0J-225400D01*
G01*
G37*
G36*
G01*
X156838200Y-109012400D02*
X156838200Y-108411600D01*
G75*
G02*
X157063600Y-108186200I225400J0D01*
G01*
X157514400Y-108186200D01*
G75*
G02*
X157739800Y-108411600I0J-225400D01*
G01*
X157739800Y-109012400D01*
G75*
G02*
X157514400Y-109237800I-225400J0D01*
G01*
X157063600Y-109237800D01*
G75*
G02*
X156838200Y-109012400I0J225400D01*
G01*
G37*
G36*
G01*
X155188200Y-109012400D02*
X155188200Y-108411600D01*
G75*
G02*
X155413600Y-108186200I225400J0D01*
G01*
X155864400Y-108186200D01*
G75*
G02*
X156089800Y-108411600I0J-225400D01*
G01*
X156089800Y-109012400D01*
G75*
G02*
X155864400Y-109237800I-225400J0D01*
G01*
X155413600Y-109237800D01*
G75*
G02*
X155188200Y-109012400I0J225400D01*
G01*
G37*
G36*
G01*
X155188200Y-107361400D02*
X155188200Y-106760600D01*
G75*
G02*
X155413600Y-106535200I225400J0D01*
G01*
X155864400Y-106535200D01*
G75*
G02*
X156089800Y-106760600I0J-225400D01*
G01*
X156089800Y-107361400D01*
G75*
G02*
X155864400Y-107586800I-225400J0D01*
G01*
X155413600Y-107586800D01*
G75*
G02*
X155188200Y-107361400I0J225400D01*
G01*
G37*
G36*
G01*
X156838200Y-107361400D02*
X156838200Y-106760600D01*
G75*
G02*
X157063600Y-106535200I225400J0D01*
G01*
X157514400Y-106535200D01*
G75*
G02*
X157739800Y-106760600I0J-225400D01*
G01*
X157739800Y-107361400D01*
G75*
G02*
X157514400Y-107586800I-225400J0D01*
G01*
X157063600Y-107586800D01*
G75*
G02*
X156838200Y-107361400I0J225400D01*
G01*
G37*
G36*
G01*
X159592600Y-105530200D02*
X160193400Y-105530200D01*
G75*
G02*
X160418800Y-105755600I0J-225400D01*
G01*
X160418800Y-106206400D01*
G75*
G02*
X160193400Y-106431800I-225400J0D01*
G01*
X159592600Y-106431800D01*
G75*
G02*
X159367200Y-106206400I0J225400D01*
G01*
X159367200Y-105755600D01*
G75*
G02*
X159592600Y-105530200I225400J0D01*
G01*
G37*
G36*
G01*
X159592600Y-103880200D02*
X160193400Y-103880200D01*
G75*
G02*
X160418800Y-104105600I0J-225400D01*
G01*
X160418800Y-104556400D01*
G75*
G02*
X160193400Y-104781800I-225400J0D01*
G01*
X159592600Y-104781800D01*
G75*
G02*
X159367200Y-104556400I0J225400D01*
G01*
X159367200Y-104105600D01*
G75*
G02*
X159592600Y-103880200I225400J0D01*
G01*
G37*
G36*
G01*
X153081400Y-85730800D02*
X152480600Y-85730800D01*
G75*
G02*
X152255200Y-85505400I0J225400D01*
G01*
X152255200Y-85054600D01*
G75*
G02*
X152480600Y-84829200I225400J0D01*
G01*
X153081400Y-84829200D01*
G75*
G02*
X153306800Y-85054600I0J-225400D01*
G01*
X153306800Y-85505400D01*
G75*
G02*
X153081400Y-85730800I-225400J0D01*
G01*
G37*
G36*
G01*
X153081400Y-84080800D02*
X152480600Y-84080800D01*
G75*
G02*
X152255200Y-83855400I0J225400D01*
G01*
X152255200Y-83404600D01*
G75*
G02*
X152480600Y-83179200I225400J0D01*
G01*
X153081400Y-83179200D01*
G75*
G02*
X153306800Y-83404600I0J-225400D01*
G01*
X153306800Y-83855400D01*
G75*
G02*
X153081400Y-84080800I-225400J0D01*
G01*
G37*
G36*
G01*
X149853200Y-81453400D02*
X149853200Y-80852600D01*
G75*
G02*
X150078600Y-80627200I225400J0D01*
G01*
X150529400Y-80627200D01*
G75*
G02*
X150754800Y-80852600I0J-225400D01*
G01*
X150754800Y-81453400D01*
G75*
G02*
X150529400Y-81678800I-225400J0D01*
G01*
X150078600Y-81678800D01*
G75*
G02*
X149853200Y-81453400I0J225400D01*
G01*
G37*
G36*
G01*
X148203200Y-81453400D02*
X148203200Y-80852600D01*
G75*
G02*
X148428600Y-80627200I225400J0D01*
G01*
X148879400Y-80627200D01*
G75*
G02*
X149104800Y-80852600I0J-225400D01*
G01*
X149104800Y-81453400D01*
G75*
G02*
X148879400Y-81678800I-225400J0D01*
G01*
X148428600Y-81678800D01*
G75*
G02*
X148203200Y-81453400I0J225400D01*
G01*
G37*
G36*
G01*
X157220200Y-83612400D02*
X157220200Y-83011600D01*
G75*
G02*
X157445600Y-82786200I225400J0D01*
G01*
X157896400Y-82786200D01*
G75*
G02*
X158121800Y-83011600I0J-225400D01*
G01*
X158121800Y-83612400D01*
G75*
G02*
X157896400Y-83837800I-225400J0D01*
G01*
X157445600Y-83837800D01*
G75*
G02*
X157220200Y-83612400I0J225400D01*
G01*
G37*
G36*
G01*
X158870200Y-83612400D02*
X158870200Y-83011600D01*
G75*
G02*
X159095600Y-82786200I225400J0D01*
G01*
X159546400Y-82786200D01*
G75*
G02*
X159771800Y-83011600I0J-225400D01*
G01*
X159771800Y-83612400D01*
G75*
G02*
X159546400Y-83837800I-225400J0D01*
G01*
X159095600Y-83837800D01*
G75*
G02*
X158870200Y-83612400I0J225400D01*
G01*
G37*
G36*
G01*
X152913800Y-118063600D02*
X152913800Y-118664400D01*
G75*
G02*
X152688400Y-118889800I-225400J0D01*
G01*
X152237600Y-118889800D01*
G75*
G02*
X152012200Y-118664400I0J225400D01*
G01*
X152012200Y-118063600D01*
G75*
G02*
X152237600Y-117838200I225400J0D01*
G01*
X152688400Y-117838200D01*
G75*
G02*
X152913800Y-118063600I0J-225400D01*
G01*
G37*
G36*
G01*
X151263800Y-118063600D02*
X151263800Y-118664400D01*
G75*
G02*
X151038400Y-118889800I-225400J0D01*
G01*
X150587600Y-118889800D01*
G75*
G02*
X150362200Y-118664400I0J225400D01*
G01*
X150362200Y-118063600D01*
G75*
G02*
X150587600Y-117838200I225400J0D01*
G01*
X151038400Y-117838200D01*
G75*
G02*
X151263800Y-118063600I0J-225400D01*
G01*
G37*
G36*
G01*
X159465600Y-119754200D02*
X160066400Y-119754200D01*
G75*
G02*
X160291800Y-119979600I0J-225400D01*
G01*
X160291800Y-120430400D01*
G75*
G02*
X160066400Y-120655800I-225400J0D01*
G01*
X159465600Y-120655800D01*
G75*
G02*
X159240200Y-120430400I0J225400D01*
G01*
X159240200Y-119979600D01*
G75*
G02*
X159465600Y-119754200I225400J0D01*
G01*
G37*
G36*
G01*
X159465600Y-118104200D02*
X160066400Y-118104200D01*
G75*
G02*
X160291800Y-118329600I0J-225400D01*
G01*
X160291800Y-118780400D01*
G75*
G02*
X160066400Y-119005800I-225400J0D01*
G01*
X159465600Y-119005800D01*
G75*
G02*
X159240200Y-118780400I0J225400D01*
G01*
X159240200Y-118329600D01*
G75*
G02*
X159465600Y-118104200I225400J0D01*
G01*
G37*
G36*
G01*
X163824200Y-115362400D02*
X163824200Y-114761600D01*
G75*
G02*
X164049600Y-114536200I225400J0D01*
G01*
X164500400Y-114536200D01*
G75*
G02*
X164725800Y-114761600I0J-225400D01*
G01*
X164725800Y-115362400D01*
G75*
G02*
X164500400Y-115587800I-225400J0D01*
G01*
X164049600Y-115587800D01*
G75*
G02*
X163824200Y-115362400I0J225400D01*
G01*
G37*
G36*
G01*
X165474200Y-115362400D02*
X165474200Y-114761600D01*
G75*
G02*
X165699600Y-114536200I225400J0D01*
G01*
X166150400Y-114536200D01*
G75*
G02*
X166375800Y-114761600I0J-225400D01*
G01*
X166375800Y-115362400D01*
G75*
G02*
X166150400Y-115587800I-225400J0D01*
G01*
X165699600Y-115587800D01*
G75*
G02*
X165474200Y-115362400I0J225400D01*
G01*
G37*
G36*
G01*
X152012200Y-120442400D02*
X152012200Y-119841600D01*
G75*
G02*
X152237600Y-119616200I225400J0D01*
G01*
X152688400Y-119616200D01*
G75*
G02*
X152913800Y-119841600I0J-225400D01*
G01*
X152913800Y-120442400D01*
G75*
G02*
X152688400Y-120667800I-225400J0D01*
G01*
X152237600Y-120667800D01*
G75*
G02*
X152012200Y-120442400I0J225400D01*
G01*
G37*
G36*
G01*
X150362200Y-120442400D02*
X150362200Y-119841600D01*
G75*
G02*
X150587600Y-119616200I225400J0D01*
G01*
X151038400Y-119616200D01*
G75*
G02*
X151263800Y-119841600I0J-225400D01*
G01*
X151263800Y-120442400D01*
G75*
G02*
X151038400Y-120667800I-225400J0D01*
G01*
X150587600Y-120667800D01*
G75*
G02*
X150362200Y-120442400I0J225400D01*
G01*
G37*
G36*
G01*
X153675800Y-114253600D02*
X153675800Y-114854400D01*
G75*
G02*
X153450400Y-115079800I-225400J0D01*
G01*
X152999600Y-115079800D01*
G75*
G02*
X152774200Y-114854400I0J225400D01*
G01*
X152774200Y-114253600D01*
G75*
G02*
X152999600Y-114028200I225400J0D01*
G01*
X153450400Y-114028200D01*
G75*
G02*
X153675800Y-114253600I0J-225400D01*
G01*
G37*
G36*
G01*
X152025800Y-114253600D02*
X152025800Y-114854400D01*
G75*
G02*
X151800400Y-115079800I-225400J0D01*
G01*
X151349600Y-115079800D01*
G75*
G02*
X151124200Y-114854400I0J225400D01*
G01*
X151124200Y-114253600D01*
G75*
G02*
X151349600Y-114028200I225400J0D01*
G01*
X151800400Y-114028200D01*
G75*
G02*
X152025800Y-114253600I0J-225400D01*
G01*
G37*
G36*
G01*
X157433600Y-118104200D02*
X158034400Y-118104200D01*
G75*
G02*
X158259800Y-118329600I0J-225400D01*
G01*
X158259800Y-118780400D01*
G75*
G02*
X158034400Y-119005800I-225400J0D01*
G01*
X157433600Y-119005800D01*
G75*
G02*
X157208200Y-118780400I0J225400D01*
G01*
X157208200Y-118329600D01*
G75*
G02*
X157433600Y-118104200I225400J0D01*
G01*
G37*
G36*
G01*
X157433600Y-119754200D02*
X158034400Y-119754200D01*
G75*
G02*
X158259800Y-119979600I0J-225400D01*
G01*
X158259800Y-120430400D01*
G75*
G02*
X158034400Y-120655800I-225400J0D01*
G01*
X157433600Y-120655800D01*
G75*
G02*
X157208200Y-120430400I0J225400D01*
G01*
X157208200Y-119979600D01*
G75*
G02*
X157433600Y-119754200I225400J0D01*
G01*
G37*
G36*
G01*
X147834800Y-107649600D02*
X147834800Y-108250400D01*
G75*
G02*
X147609400Y-108475800I-225400J0D01*
G01*
X147158600Y-108475800D01*
G75*
G02*
X146933200Y-108250400I0J225400D01*
G01*
X146933200Y-107649600D01*
G75*
G02*
X147158600Y-107424200I225400J0D01*
G01*
X147609400Y-107424200D01*
G75*
G02*
X147834800Y-107649600I0J-225400D01*
G01*
G37*
G36*
G01*
X149484800Y-107649600D02*
X149484800Y-108250400D01*
G75*
G02*
X149259400Y-108475800I-225400J0D01*
G01*
X148808600Y-108475800D01*
G75*
G02*
X148583200Y-108250400I0J225400D01*
G01*
X148583200Y-107649600D01*
G75*
G02*
X148808600Y-107424200I225400J0D01*
G01*
X149259400Y-107424200D01*
G75*
G02*
X149484800Y-107649600I0J-225400D01*
G01*
G37*
G36*
G01*
X149484800Y-109427600D02*
X149484800Y-110028400D01*
G75*
G02*
X149259400Y-110253800I-225400J0D01*
G01*
X148808600Y-110253800D01*
G75*
G02*
X148583200Y-110028400I0J225400D01*
G01*
X148583200Y-109427600D01*
G75*
G02*
X148808600Y-109202200I225400J0D01*
G01*
X149259400Y-109202200D01*
G75*
G02*
X149484800Y-109427600I0J-225400D01*
G01*
G37*
G36*
G01*
X147834800Y-109427600D02*
X147834800Y-110028400D01*
G75*
G02*
X147609400Y-110253800I-225400J0D01*
G01*
X147158600Y-110253800D01*
G75*
G02*
X146933200Y-110028400I0J225400D01*
G01*
X146933200Y-109427600D01*
G75*
G02*
X147158600Y-109202200I225400J0D01*
G01*
X147609400Y-109202200D01*
G75*
G02*
X147834800Y-109427600I0J-225400D01*
G01*
G37*
G36*
G01*
X152774200Y-111806400D02*
X152774200Y-111205600D01*
G75*
G02*
X152999600Y-110980200I225400J0D01*
G01*
X153450400Y-110980200D01*
G75*
G02*
X153675800Y-111205600I0J-225400D01*
G01*
X153675800Y-111806400D01*
G75*
G02*
X153450400Y-112031800I-225400J0D01*
G01*
X152999600Y-112031800D01*
G75*
G02*
X152774200Y-111806400I0J225400D01*
G01*
G37*
G36*
G01*
X151124200Y-111806400D02*
X151124200Y-111205600D01*
G75*
G02*
X151349600Y-110980200I225400J0D01*
G01*
X151800400Y-110980200D01*
G75*
G02*
X152025800Y-111205600I0J-225400D01*
G01*
X152025800Y-111806400D01*
G75*
G02*
X151800400Y-112031800I-225400J0D01*
G01*
X151349600Y-112031800D01*
G75*
G02*
X151124200Y-111806400I0J225400D01*
G01*
G37*
G36*
G01*
X169145776Y-68028200D02*
X170452224Y-68028200D01*
G75*
G02*
X170724800Y-68300776I0J-272576D01*
G01*
X170724800Y-68982224D01*
G75*
G02*
X170452224Y-69254800I-272576J0D01*
G01*
X169145776Y-69254800D01*
G75*
G02*
X168873200Y-68982224I0J272576D01*
G01*
X168873200Y-68300776D01*
G75*
G02*
X169145776Y-68028200I272576J0D01*
G01*
G37*
G36*
G01*
X169145776Y-70953200D02*
X170452224Y-70953200D01*
G75*
G02*
X170724800Y-71225776I0J-272576D01*
G01*
X170724800Y-71907224D01*
G75*
G02*
X170452224Y-72179800I-272576J0D01*
G01*
X169145776Y-72179800D01*
G75*
G02*
X168873200Y-71907224I0J272576D01*
G01*
X168873200Y-71225776D01*
G75*
G02*
X169145776Y-70953200I272576J0D01*
G01*
G37*
G36*
G01*
X183214600Y-72003200D02*
X183815400Y-72003200D01*
G75*
G02*
X184040800Y-72228600I0J-225400D01*
G01*
X184040800Y-72679400D01*
G75*
G02*
X183815400Y-72904800I-225400J0D01*
G01*
X183214600Y-72904800D01*
G75*
G02*
X182989200Y-72679400I0J225400D01*
G01*
X182989200Y-72228600D01*
G75*
G02*
X183214600Y-72003200I225400J0D01*
G01*
G37*
G36*
G01*
X183214600Y-73653200D02*
X183815400Y-73653200D01*
G75*
G02*
X184040800Y-73878600I0J-225400D01*
G01*
X184040800Y-74329400D01*
G75*
G02*
X183815400Y-74554800I-225400J0D01*
G01*
X183214600Y-74554800D01*
G75*
G02*
X182989200Y-74329400I0J225400D01*
G01*
X182989200Y-73878600D01*
G75*
G02*
X183214600Y-73653200I225400J0D01*
G01*
G37*
G36*
G01*
X182164400Y-72904800D02*
X181563600Y-72904800D01*
G75*
G02*
X181338200Y-72679400I0J225400D01*
G01*
X181338200Y-72228600D01*
G75*
G02*
X181563600Y-72003200I225400J0D01*
G01*
X182164400Y-72003200D01*
G75*
G02*
X182389800Y-72228600I0J-225400D01*
G01*
X182389800Y-72679400D01*
G75*
G02*
X182164400Y-72904800I-225400J0D01*
G01*
G37*
G36*
G01*
X182164400Y-74554800D02*
X181563600Y-74554800D01*
G75*
G02*
X181338200Y-74329400I0J225400D01*
G01*
X181338200Y-73878600D01*
G75*
G02*
X181563600Y-73653200I225400J0D01*
G01*
X182164400Y-73653200D01*
G75*
G02*
X182389800Y-73878600I0J-225400D01*
G01*
X182389800Y-74329400D01*
G75*
G02*
X182164400Y-74554800I-225400J0D01*
G01*
G37*
G36*
G01*
X146985400Y-58933800D02*
X146384600Y-58933800D01*
G75*
G02*
X146159200Y-58708400I0J225400D01*
G01*
X146159200Y-58257600D01*
G75*
G02*
X146384600Y-58032200I225400J0D01*
G01*
X146985400Y-58032200D01*
G75*
G02*
X147210800Y-58257600I0J-225400D01*
G01*
X147210800Y-58708400D01*
G75*
G02*
X146985400Y-58933800I-225400J0D01*
G01*
G37*
G36*
G01*
X146985400Y-57283800D02*
X146384600Y-57283800D01*
G75*
G02*
X146159200Y-57058400I0J225400D01*
G01*
X146159200Y-56607600D01*
G75*
G02*
X146384600Y-56382200I225400J0D01*
G01*
X146985400Y-56382200D01*
G75*
G02*
X147210800Y-56607600I0J-225400D01*
G01*
X147210800Y-57058400D01*
G75*
G02*
X146985400Y-57283800I-225400J0D01*
G01*
G37*
G36*
G01*
X142487200Y-56561400D02*
X142487200Y-55960600D01*
G75*
G02*
X142712600Y-55735200I225400J0D01*
G01*
X143163400Y-55735200D01*
G75*
G02*
X143388800Y-55960600I0J-225400D01*
G01*
X143388800Y-56561400D01*
G75*
G02*
X143163400Y-56786800I-225400J0D01*
G01*
X142712600Y-56786800D01*
G75*
G02*
X142487200Y-56561400I0J225400D01*
G01*
G37*
G36*
G01*
X140837200Y-56561400D02*
X140837200Y-55960600D01*
G75*
G02*
X141062600Y-55735200I225400J0D01*
G01*
X141513400Y-55735200D01*
G75*
G02*
X141738800Y-55960600I0J-225400D01*
G01*
X141738800Y-56561400D01*
G75*
G02*
X141513400Y-56786800I-225400J0D01*
G01*
X141062600Y-56786800D01*
G75*
G02*
X140837200Y-56561400I0J225400D01*
G01*
G37*
G36*
G01*
X137673800Y-58627600D02*
X137673800Y-59228400D01*
G75*
G02*
X137448400Y-59453800I-225400J0D01*
G01*
X136997600Y-59453800D01*
G75*
G02*
X136772200Y-59228400I0J225400D01*
G01*
X136772200Y-58627600D01*
G75*
G02*
X136997600Y-58402200I225400J0D01*
G01*
X137448400Y-58402200D01*
G75*
G02*
X137673800Y-58627600I0J-225400D01*
G01*
G37*
G36*
G01*
X136023800Y-58627600D02*
X136023800Y-59228400D01*
G75*
G02*
X135798400Y-59453800I-225400J0D01*
G01*
X135347600Y-59453800D01*
G75*
G02*
X135122200Y-59228400I0J225400D01*
G01*
X135122200Y-58627600D01*
G75*
G02*
X135347600Y-58402200I225400J0D01*
G01*
X135798400Y-58402200D01*
G75*
G02*
X136023800Y-58627600I0J-225400D01*
G01*
G37*
G36*
G01*
X137011200Y-73162000D02*
X137011200Y-72512000D01*
G75*
G02*
X137062000Y-72461200I50800J0D01*
G01*
X138622000Y-72461200D01*
G75*
G02*
X138672800Y-72512000I0J-50800D01*
G01*
X138672800Y-73162000D01*
G75*
G02*
X138622000Y-73212800I-50800J0D01*
G01*
X137062000Y-73212800D01*
G75*
G02*
X137011200Y-73162000I0J50800D01*
G01*
G37*
G36*
G01*
X137011200Y-74112000D02*
X137011200Y-73462000D01*
G75*
G02*
X137062000Y-73411200I50800J0D01*
G01*
X138622000Y-73411200D01*
G75*
G02*
X138672800Y-73462000I0J-50800D01*
G01*
X138672800Y-74112000D01*
G75*
G02*
X138622000Y-74162800I-50800J0D01*
G01*
X137062000Y-74162800D01*
G75*
G02*
X137011200Y-74112000I0J50800D01*
G01*
G37*
G36*
G01*
X137011200Y-75062000D02*
X137011200Y-74412000D01*
G75*
G02*
X137062000Y-74361200I50800J0D01*
G01*
X138622000Y-74361200D01*
G75*
G02*
X138672800Y-74412000I0J-50800D01*
G01*
X138672800Y-75062000D01*
G75*
G02*
X138622000Y-75112800I-50800J0D01*
G01*
X137062000Y-75112800D01*
G75*
G02*
X137011200Y-75062000I0J50800D01*
G01*
G37*
G36*
G01*
X139711200Y-75062000D02*
X139711200Y-74412000D01*
G75*
G02*
X139762000Y-74361200I50800J0D01*
G01*
X141322000Y-74361200D01*
G75*
G02*
X141372800Y-74412000I0J-50800D01*
G01*
X141372800Y-75062000D01*
G75*
G02*
X141322000Y-75112800I-50800J0D01*
G01*
X139762000Y-75112800D01*
G75*
G02*
X139711200Y-75062000I0J50800D01*
G01*
G37*
G36*
G01*
X139711200Y-73162000D02*
X139711200Y-72512000D01*
G75*
G02*
X139762000Y-72461200I50800J0D01*
G01*
X141322000Y-72461200D01*
G75*
G02*
X141372800Y-72512000I0J-50800D01*
G01*
X141372800Y-73162000D01*
G75*
G02*
X141322000Y-73212800I-50800J0D01*
G01*
X139762000Y-73212800D01*
G75*
G02*
X139711200Y-73162000I0J50800D01*
G01*
G37*
M02*
