G04 #@! TF.GenerationSoftware,KiCad,Pcbnew,(5.1.7)-1*
G04 #@! TF.CreationDate,2020-12-18T08:27:27-06:00*
G04 #@! TF.ProjectId,digital_pcb,64696769-7461-46c5-9f70-63622e6b6963,3.0*
G04 #@! TF.SameCoordinates,Original*
G04 #@! TF.FileFunction,Soldermask,Bot*
G04 #@! TF.FilePolarity,Negative*
%FSLAX46Y46*%
G04 Gerber Fmt 4.6, Leading zero omitted, Abs format (unit mm)*
G04 Created by KiCad (PCBNEW (5.1.7)-1) date 2020-12-18 08:27:27*
%MOMM*%
%LPD*%
G01*
G04 APERTURE LIST*
%ADD10C,3.401600*%
%ADD11C,1.931600*%
%ADD12C,1.721600*%
%ADD13C,1.601600*%
%ADD14C,1.551600*%
%ADD15C,3.301600*%
%ADD16O,1.801600X1.801600*%
G04 APERTURE END LIST*
D10*
X165608000Y-62230000D03*
D11*
X173228000Y-64770000D03*
X173228000Y-59690000D03*
D12*
X170688000Y-60960000D03*
X170688000Y-63500000D03*
D13*
X124079000Y-89448000D03*
X124079000Y-94448000D03*
D14*
X129921000Y-56769000D03*
X129921000Y-59309000D03*
X129921000Y-61849000D03*
X129921000Y-66929000D03*
X129921000Y-69469000D03*
X129921000Y-72009000D03*
X129921000Y-74549000D03*
D15*
X153700000Y-130300000D03*
X153700000Y-62150000D03*
G36*
G01*
X149264000Y-91809200D02*
X150964000Y-91809200D01*
G75*
G02*
X151014800Y-91860000I0J-50800D01*
G01*
X151014800Y-93560000D01*
G75*
G02*
X150964000Y-93610800I-50800J0D01*
G01*
X149264000Y-93610800D01*
G75*
G02*
X149213200Y-93560000I0J50800D01*
G01*
X149213200Y-91860000D01*
G75*
G02*
X149264000Y-91809200I50800J0D01*
G01*
G37*
D16*
X147574000Y-92710000D03*
G36*
G01*
X177204000Y-87491200D02*
X178904000Y-87491200D01*
G75*
G02*
X178954800Y-87542000I0J-50800D01*
G01*
X178954800Y-89242000D01*
G75*
G02*
X178904000Y-89292800I-50800J0D01*
G01*
X177204000Y-89292800D01*
G75*
G02*
X177153200Y-89242000I0J50800D01*
G01*
X177153200Y-87542000D01*
G75*
G02*
X177204000Y-87491200I50800J0D01*
G01*
G37*
X175514000Y-88392000D03*
X172974000Y-88392000D03*
X170434000Y-88392000D03*
X118732300Y-86880700D03*
G36*
G01*
X117831500Y-85190700D02*
X117831500Y-83490700D01*
G75*
G02*
X117882300Y-83439900I50800J0D01*
G01*
X119582300Y-83439900D01*
G75*
G02*
X119633100Y-83490700I0J-50800D01*
G01*
X119633100Y-85190700D01*
G75*
G02*
X119582300Y-85241500I-50800J0D01*
G01*
X117882300Y-85241500D01*
G75*
G02*
X117831500Y-85190700I0J50800D01*
G01*
G37*
X180086000Y-92202000D03*
X180086000Y-94742000D03*
X180086000Y-97282000D03*
G36*
G01*
X180986800Y-98972000D02*
X180986800Y-100672000D01*
G75*
G02*
X180936000Y-100722800I-50800J0D01*
G01*
X179236000Y-100722800D01*
G75*
G02*
X179185200Y-100672000I0J50800D01*
G01*
X179185200Y-98972000D01*
G75*
G02*
X179236000Y-98921200I50800J0D01*
G01*
X180936000Y-98921200D01*
G75*
G02*
X180986800Y-98972000I0J-50800D01*
G01*
G37*
G36*
G01*
X117839200Y-57240000D02*
X117839200Y-55540000D01*
G75*
G02*
X117890000Y-55489200I50800J0D01*
G01*
X119590000Y-55489200D01*
G75*
G02*
X119640800Y-55540000I0J-50800D01*
G01*
X119640800Y-57240000D01*
G75*
G02*
X119590000Y-57290800I-50800J0D01*
G01*
X117890000Y-57290800D01*
G75*
G02*
X117839200Y-57240000I0J50800D01*
G01*
G37*
X118740000Y-58930000D03*
X118740000Y-61470000D03*
X118740000Y-64010000D03*
X118740000Y-66550000D03*
X118740000Y-69090000D03*
X118740000Y-71630000D03*
X118740000Y-74170000D03*
X118740000Y-76710000D03*
X118740000Y-79250000D03*
X118745000Y-94488000D03*
G36*
G01*
X117844200Y-92798000D02*
X117844200Y-91098000D01*
G75*
G02*
X117895000Y-91047200I50800J0D01*
G01*
X119595000Y-91047200D01*
G75*
G02*
X119645800Y-91098000I0J-50800D01*
G01*
X119645800Y-92798000D01*
G75*
G02*
X119595000Y-92848800I-50800J0D01*
G01*
X117895000Y-92848800D01*
G75*
G02*
X117844200Y-92798000I0J50800D01*
G01*
G37*
G36*
G01*
X119645800Y-101258000D02*
X119645800Y-102958000D01*
G75*
G02*
X119595000Y-103008800I-50800J0D01*
G01*
X117895000Y-103008800D01*
G75*
G02*
X117844200Y-102958000I0J50800D01*
G01*
X117844200Y-101258000D01*
G75*
G02*
X117895000Y-101207200I50800J0D01*
G01*
X119595000Y-101207200D01*
G75*
G02*
X119645800Y-101258000I0J-50800D01*
G01*
G37*
X118745000Y-99568000D03*
M02*
