G04 #@! TF.GenerationSoftware,KiCad,Pcbnew,(5.1.4)-1*
G04 #@! TF.CreationDate,2019-12-30T13:26:31-06:00*
G04 #@! TF.ProjectId,digital_pcb,64696769-7461-46c5-9f70-63622e6b6963,rev?*
G04 #@! TF.SameCoordinates,Original*
G04 #@! TF.FileFunction,Copper,L1,Top*
G04 #@! TF.FilePolarity,Positive*
%FSLAX46Y46*%
G04 Gerber Fmt 4.6, Leading zero omitted, Abs format (unit mm)*
G04 Created by KiCad (PCBNEW (5.1.4)-1) date 2019-12-30 13:26:31*
%MOMM*%
%LPD*%
G04 APERTURE LIST*
%ADD10R,1.200000X0.750000*%
%ADD11R,0.750000X1.200000*%
%ADD12R,1.250000X1.500000*%
%ADD13C,1.620000*%
%ADD14C,1.500000*%
%ADD15R,1.700000X1.700000*%
%ADD16O,1.700000X1.700000*%
%ADD17R,0.800000X0.900000*%
%ADD18R,0.900000X1.200000*%
%ADD19R,1.200000X0.900000*%
%ADD20R,0.250000X1.300000*%
%ADD21R,1.300000X0.250000*%
%ADD22R,0.300000X0.525000*%
%ADD23R,0.425000X0.300000*%
%ADD24R,1.500000X2.400000*%
%ADD25R,0.810000X0.420000*%
%ADD26R,1.500000X0.450000*%
%ADD27R,0.950000X1.050000*%
%ADD28R,0.650000X1.560000*%
%ADD29R,2.000000X1.500000*%
%ADD30R,2.000000X3.800000*%
%ADD31C,1.450000*%
%ADD32R,1.560000X0.650000*%
%ADD33R,2.000000X4.500000*%
%ADD34R,4.500000X2.000000*%
%ADD35C,1.000000*%
%ADD36C,0.508000*%
%ADD37C,1.016000*%
%ADD38C,0.304800*%
%ADD39C,0.152400*%
%ADD40C,1.270000*%
%ADD41C,0.254000*%
G04 APERTURE END LIST*
D10*
X150122001Y-89954001D03*
X152022001Y-89954001D03*
X155387000Y-88519000D03*
X157287000Y-88519000D03*
X157287000Y-104140000D03*
X155387000Y-104140000D03*
X174432000Y-92329000D03*
X172532000Y-92329000D03*
X172532000Y-101473000D03*
X174432000Y-101473000D03*
X160086000Y-90805000D03*
X161986000Y-90805000D03*
D11*
X161671000Y-105090000D03*
X161671000Y-103190000D03*
D10*
X150429000Y-79502000D03*
X148529000Y-79502000D03*
D11*
X151638000Y-76388000D03*
X151638000Y-74488000D03*
X154686000Y-85405000D03*
X154686000Y-83505000D03*
X167132000Y-74991000D03*
X167132000Y-73091000D03*
D10*
X151445000Y-72517000D03*
X149545000Y-72517000D03*
D11*
X168275000Y-79822000D03*
X168275000Y-81722000D03*
X161417000Y-120330000D03*
X161417000Y-118430000D03*
X156083000Y-120330000D03*
X156083000Y-118430000D03*
D10*
X159700000Y-116459000D03*
X157800000Y-116459000D03*
X164150000Y-111887000D03*
X166050000Y-111887000D03*
X151450000Y-113030000D03*
X153350000Y-113030000D03*
X152715000Y-106172000D03*
X150815000Y-106172000D03*
X164150000Y-113284000D03*
X166050000Y-113284000D03*
X187259000Y-76581000D03*
X185359000Y-76581000D03*
D11*
X172466000Y-69027000D03*
X172466000Y-70927000D03*
D12*
X137287000Y-85324000D03*
X137287000Y-82824000D03*
D11*
X135509000Y-83124000D03*
X135509000Y-85024000D03*
X133985000Y-85024000D03*
X133985000Y-83124000D03*
D12*
X137287000Y-77871000D03*
X137287000Y-80371000D03*
D11*
X135509000Y-78171000D03*
X135509000Y-80071000D03*
X133985000Y-80071000D03*
X133985000Y-78171000D03*
X135763000Y-72837000D03*
X135763000Y-74737000D03*
X135763000Y-65974000D03*
X135763000Y-64074000D03*
X142621000Y-74737000D03*
X142621000Y-72837000D03*
D10*
X138242000Y-67818000D03*
X140142000Y-67818000D03*
X138242000Y-70993000D03*
X140142000Y-70993000D03*
D12*
X142875000Y-66274000D03*
X142875000Y-63774000D03*
D13*
X170688000Y-63500000D03*
X170688000Y-60960000D03*
D14*
X124079000Y-89448000D03*
X124079000Y-94448000D03*
D15*
X178054000Y-88392000D03*
D16*
X175514000Y-88392000D03*
X172974000Y-88392000D03*
X170434000Y-88392000D03*
X118740000Y-79250000D03*
X118740000Y-76710000D03*
X118740000Y-74170000D03*
X118740000Y-71630000D03*
X118740000Y-69090000D03*
X118740000Y-66550000D03*
X118740000Y-64010000D03*
X118740000Y-61470000D03*
X118740000Y-58930000D03*
D15*
X118740000Y-56390000D03*
D16*
X147574000Y-92710000D03*
D15*
X150114000Y-92710000D03*
D16*
X118745000Y-94488000D03*
D15*
X118745000Y-91948000D03*
D17*
X182499000Y-68342000D03*
X183449000Y-70342000D03*
X181549000Y-70342000D03*
D18*
X165481000Y-88222000D03*
X165481000Y-86022000D03*
X166497000Y-106637000D03*
X166497000Y-104437000D03*
X163830000Y-86022000D03*
X163830000Y-88222000D03*
X162179000Y-88222000D03*
X162179000Y-86022000D03*
D19*
X152177001Y-88392000D03*
X149977001Y-88392000D03*
D18*
X168148000Y-104437000D03*
X168148000Y-106637000D03*
X169799000Y-106637000D03*
X169799000Y-104437000D03*
X152781000Y-97493000D03*
X152781000Y-95293000D03*
D19*
X161374000Y-81661000D03*
X159174000Y-81661000D03*
X161399999Y-79945999D03*
X159199999Y-79945999D03*
D18*
X152781000Y-85555000D03*
X152781000Y-83355000D03*
D19*
X150579000Y-81153000D03*
X148379000Y-81153000D03*
X157396000Y-83312000D03*
X159596000Y-83312000D03*
D18*
X159766000Y-118280000D03*
X159766000Y-120480000D03*
X157734000Y-120480000D03*
X157734000Y-118280000D03*
D19*
X164000000Y-114808000D03*
X166200000Y-114808000D03*
X151300000Y-114554000D03*
X153500000Y-114554000D03*
X149309000Y-107950000D03*
X147109000Y-107950000D03*
X147109000Y-109728000D03*
X149309000Y-109728000D03*
X151300000Y-111506000D03*
X153500000Y-111506000D03*
D18*
X183515000Y-74379000D03*
X183515000Y-72179000D03*
X181864000Y-74379000D03*
X181864000Y-72179000D03*
X170688000Y-71077000D03*
X170688000Y-68877000D03*
D20*
X163493000Y-92551000D03*
X163993000Y-92551000D03*
X164493000Y-92551000D03*
X164993000Y-92551000D03*
X165493000Y-92551000D03*
X165993000Y-92551000D03*
X166493000Y-92551000D03*
X166993000Y-92551000D03*
X167493000Y-92551000D03*
X167993000Y-92551000D03*
X168493000Y-92551000D03*
X168993000Y-92551000D03*
D21*
X170593000Y-94151000D03*
X170593000Y-94651000D03*
X170593000Y-95151000D03*
X170593000Y-95651000D03*
X170593000Y-96151000D03*
X170593000Y-96651000D03*
X170593000Y-97151000D03*
X170593000Y-97651000D03*
X170593000Y-98151000D03*
X170593000Y-98651000D03*
X170593000Y-99151000D03*
X170593000Y-99651000D03*
D20*
X168993000Y-101251000D03*
X168493000Y-101251000D03*
X167993000Y-101251000D03*
X167493000Y-101251000D03*
X166993000Y-101251000D03*
X166493000Y-101251000D03*
X165993000Y-101251000D03*
X165493000Y-101251000D03*
X164993000Y-101251000D03*
X164493000Y-101251000D03*
X163993000Y-101251000D03*
X163493000Y-101251000D03*
D21*
X161893000Y-99651000D03*
X161893000Y-99151000D03*
X161893000Y-98651000D03*
X161893000Y-98151000D03*
X161893000Y-97651000D03*
X161893000Y-97151000D03*
X161893000Y-96651000D03*
X161893000Y-96151000D03*
X161893000Y-95651000D03*
X161893000Y-95151000D03*
X161893000Y-94651000D03*
X161893000Y-94151000D03*
D22*
X153317000Y-78193500D03*
X153817000Y-78193500D03*
X154317000Y-78193500D03*
X154817000Y-78193500D03*
X155317000Y-78193500D03*
X155817000Y-78193500D03*
X156317000Y-78193500D03*
X156817000Y-78193500D03*
X157317000Y-78193500D03*
D23*
X157379500Y-79006000D03*
X157379500Y-79506000D03*
X157379500Y-80006000D03*
X157379500Y-80506000D03*
D22*
X157317000Y-81318500D03*
X156817000Y-81318500D03*
X156317000Y-81318500D03*
X155817000Y-81318500D03*
X155317000Y-81318500D03*
X154817000Y-81318500D03*
X154317000Y-81318500D03*
X153817000Y-81318500D03*
X153317000Y-81318500D03*
X152817000Y-81318500D03*
D23*
X152754500Y-80506000D03*
X152754500Y-80006000D03*
X152754500Y-79506000D03*
X152754500Y-79006000D03*
D22*
X152817000Y-78193500D03*
D24*
X165227000Y-80772000D03*
D25*
X166682000Y-79772000D03*
X166682000Y-80772000D03*
X166682000Y-81772000D03*
X163772000Y-81772000D03*
X163772000Y-80772000D03*
X163772000Y-79772000D03*
D26*
X161700000Y-110374000D03*
X161700000Y-111024000D03*
X161700000Y-111674000D03*
X161700000Y-112324000D03*
X161700000Y-112974000D03*
X161700000Y-113624000D03*
X161700000Y-114274000D03*
X161700000Y-114924000D03*
X155800000Y-114924000D03*
X155800000Y-114274000D03*
X155800000Y-113624000D03*
X155800000Y-112974000D03*
X155800000Y-112324000D03*
X155800000Y-111674000D03*
X155800000Y-111024000D03*
X155800000Y-110374000D03*
D27*
X151040000Y-107914000D03*
X151040000Y-109764000D03*
X152490000Y-109764000D03*
X152490000Y-107914000D03*
D28*
X187259000Y-71929000D03*
X186309000Y-71929000D03*
X185359000Y-71929000D03*
X185359000Y-74629000D03*
X187259000Y-74629000D03*
D29*
X131663000Y-83911000D03*
X131663000Y-79311000D03*
X131663000Y-81611000D03*
D30*
X125363000Y-81611000D03*
D31*
X129921000Y-56769000D03*
X129921000Y-59309000D03*
X129921000Y-61849000D03*
X129921000Y-66929000D03*
X129921000Y-69469000D03*
X129921000Y-72009000D03*
X129921000Y-74549000D03*
D32*
X140542000Y-72837000D03*
X140542000Y-74737000D03*
X137842000Y-74737000D03*
X137842000Y-73787000D03*
X137842000Y-72837000D03*
X140542000Y-64074000D03*
X140542000Y-65974000D03*
X137842000Y-65974000D03*
X137842000Y-65024000D03*
X137842000Y-64074000D03*
D33*
X156337000Y-100643000D03*
X156337000Y-92143000D03*
D34*
X163635000Y-74041000D03*
X155135000Y-74041000D03*
D35*
X118745000Y-136055100D03*
X153705000Y-136055100D03*
X153692300Y-56388000D03*
X188658500Y-136055100D03*
D16*
X180086000Y-92202000D03*
X180086000Y-94742000D03*
X180086000Y-97282000D03*
D15*
X180086000Y-99822000D03*
D16*
X118745000Y-99568000D03*
D15*
X118745000Y-102108000D03*
D16*
X118732300Y-86880700D03*
D15*
X118732300Y-84340700D03*
D19*
X171920999Y-77470000D03*
X174120999Y-77470000D03*
X174120999Y-75773999D03*
X171920999Y-75773999D03*
X150538000Y-118364000D03*
X152738000Y-118364000D03*
X150538000Y-120142000D03*
X152738000Y-120142000D03*
X164000000Y-110236000D03*
X166200000Y-110236000D03*
X166540000Y-108458000D03*
X168740000Y-108458000D03*
X155364000Y-108712000D03*
X157564000Y-108712000D03*
X157564000Y-107061000D03*
X155364000Y-107061000D03*
D18*
X159893000Y-104056000D03*
X159893000Y-106256000D03*
D36*
X174371000Y-91313000D03*
X160020000Y-91948000D03*
X148844000Y-89916000D03*
X158496000Y-88519000D03*
X161036000Y-88265000D03*
X169799000Y-103251000D03*
X168529000Y-99949000D03*
X174498000Y-100330000D03*
X149987000Y-111506000D03*
X162560000Y-120269000D03*
X154940000Y-120269000D03*
X167386000Y-111887000D03*
X167132000Y-76327000D03*
X150495000Y-74168000D03*
X155429443Y-77348657D03*
X160274000Y-79883000D03*
X156591000Y-80518000D03*
X154813000Y-80518000D03*
X153543000Y-78994000D03*
X154813000Y-79121000D03*
X149479000Y-81153000D03*
X152781000Y-84455000D03*
X156591000Y-79502000D03*
X162687000Y-80772000D03*
X169418000Y-79756000D03*
X171958000Y-94107000D03*
X139065000Y-62230000D03*
X145796000Y-109728000D03*
X149352000Y-106172000D03*
X157226000Y-112268000D03*
X158750000Y-104140000D03*
X160528000Y-105156000D03*
X160528000Y-97633600D03*
X163576000Y-91186000D03*
X184704500Y-70819500D03*
X181864000Y-75692000D03*
X184150000Y-76708000D03*
X172212000Y-67564000D03*
D37*
X142748000Y-68072000D03*
X136652000Y-67818000D03*
X122428000Y-81026000D03*
X122428000Y-79756000D03*
D36*
X149098000Y-120142000D03*
X159258000Y-97282000D03*
X171483000Y-93378000D03*
X162844500Y-91663500D03*
X148717000Y-88392000D03*
X163830000Y-89662000D03*
X168148000Y-103251000D03*
X170974000Y-101251000D03*
X162960600Y-112324000D03*
X152654000Y-76708000D03*
X160274000Y-81661000D03*
X151642000Y-79506000D03*
X167259000Y-82677000D03*
X145796000Y-107950000D03*
X153924000Y-106172000D03*
X161544000Y-101600000D03*
X188468000Y-76708000D03*
D37*
X139192000Y-80518000D03*
X140462000Y-80518000D03*
D36*
X174244000Y-74676000D03*
X170053000Y-108458000D03*
X167640000Y-110236000D03*
D37*
X144272000Y-71813600D03*
D36*
X157480000Y-113030000D03*
D37*
X144526000Y-64008000D03*
D36*
X160274000Y-112776000D03*
X145288000Y-121920000D03*
X167132000Y-84963000D03*
X157353000Y-84836000D03*
X163830000Y-78105000D03*
X163830000Y-76708000D03*
X164973000Y-108077000D03*
X163410759Y-107276759D03*
X159639000Y-108458000D03*
X161163000Y-108458000D03*
X160655000Y-109220000D03*
X159639000Y-109220000D03*
X158877000Y-107442000D03*
D38*
X174432000Y-92329000D02*
X174432000Y-91374000D01*
X174432000Y-91374000D02*
X174371000Y-91313000D01*
X160086000Y-90805000D02*
X160086000Y-91882000D01*
X160086000Y-91882000D02*
X160020000Y-91948000D01*
D39*
X150122001Y-89954001D02*
X148882001Y-89954001D01*
X148882001Y-89954001D02*
X148844000Y-89916000D01*
X157287000Y-88519000D02*
X158496000Y-88519000D01*
X162179000Y-88222000D02*
X161079000Y-88222000D01*
X161079000Y-88222000D02*
X161036000Y-88265000D01*
X169799000Y-104437000D02*
X169799000Y-103251000D01*
X168493000Y-101251000D02*
X168493000Y-99985000D01*
X168493000Y-99985000D02*
X168529000Y-99949000D01*
D38*
X174432000Y-101473000D02*
X174432000Y-100396000D01*
X174432000Y-100396000D02*
X174498000Y-100330000D01*
D39*
X151450000Y-111656000D02*
X151300000Y-111506000D01*
X151450000Y-113030000D02*
X151450000Y-111656000D01*
X151040000Y-111246000D02*
X151300000Y-111506000D01*
X151040000Y-109764000D02*
X151040000Y-111246000D01*
X151300000Y-111506000D02*
X149987000Y-111506000D01*
X161417000Y-120330000D02*
X162499000Y-120330000D01*
X162499000Y-120330000D02*
X162560000Y-120269000D01*
X156083000Y-120330000D02*
X155001000Y-120330000D01*
X155001000Y-120330000D02*
X154940000Y-120269000D01*
X156233000Y-120480000D02*
X156083000Y-120330000D01*
X157734000Y-120480000D02*
X156233000Y-120480000D01*
X166050000Y-113284000D02*
X166050000Y-111887000D01*
X166050000Y-111887000D02*
X167386000Y-111887000D01*
X167132000Y-74991000D02*
X167132000Y-76327000D01*
X149545000Y-72517000D02*
X149545000Y-73218000D01*
X149545000Y-73218000D02*
X150495000Y-74168000D01*
X150815000Y-74488000D02*
X150495000Y-74168000D01*
X151638000Y-74488000D02*
X150815000Y-74488000D01*
X155246943Y-77348657D02*
X155429443Y-77348657D01*
X154817000Y-78193500D02*
X154817000Y-77778600D01*
X154817000Y-77778600D02*
X155246943Y-77348657D01*
X161399999Y-79945999D02*
X160336999Y-79945999D01*
X160336999Y-79945999D02*
X160274000Y-79883000D01*
X157317000Y-80568500D02*
X157379500Y-80506000D01*
X157317000Y-81318500D02*
X157317000Y-80568500D01*
X157379500Y-80506000D02*
X156603000Y-80506000D01*
X156603000Y-80506000D02*
X156591000Y-80518000D01*
X154817000Y-81318500D02*
X154817000Y-80522000D01*
X154817000Y-80522000D02*
X154813000Y-80518000D01*
X152754500Y-79006000D02*
X153531000Y-79006000D01*
X153531000Y-79006000D02*
X153543000Y-78994000D01*
X154817000Y-78193500D02*
X154817000Y-79117000D01*
X154817000Y-79117000D02*
X154813000Y-79121000D01*
X148529000Y-81003000D02*
X148379000Y-81153000D01*
X148529000Y-79502000D02*
X148529000Y-81003000D01*
X148379000Y-81153000D02*
X149479000Y-81153000D01*
X152931000Y-85405000D02*
X152781000Y-85555000D01*
X154686000Y-85405000D02*
X152931000Y-85405000D01*
X152781000Y-85555000D02*
X152781000Y-84455000D01*
X157379500Y-79506000D02*
X156595000Y-79506000D01*
X156595000Y-79506000D02*
X156591000Y-79502000D01*
X163772000Y-80772000D02*
X162687000Y-80772000D01*
X168275000Y-79822000D02*
X169352000Y-79822000D01*
X169352000Y-79822000D02*
X169418000Y-79756000D01*
X170593000Y-94651000D02*
X171414000Y-94651000D01*
X171414000Y-94651000D02*
X171958000Y-94107000D01*
D38*
X139065000Y-64885800D02*
X139065000Y-62230000D01*
X137842000Y-65024000D02*
X138926800Y-65024000D01*
X138926800Y-65024000D02*
X139065000Y-64885800D01*
X147109000Y-109728000D02*
X145796000Y-109728000D01*
X150815000Y-106172000D02*
X149352000Y-106172000D01*
D39*
X155800000Y-112324000D02*
X157170000Y-112324000D01*
X157170000Y-112324000D02*
X157226000Y-112268000D01*
D38*
X157287000Y-104140000D02*
X158750000Y-104140000D01*
X161671000Y-105090000D02*
X160594000Y-105090000D01*
X160594000Y-105090000D02*
X160528000Y-105156000D01*
D39*
X161893000Y-97651000D02*
X160545400Y-97651000D01*
X160545400Y-97651000D02*
X160528000Y-97633600D01*
X163993000Y-92551000D02*
X163993000Y-91603000D01*
X163993000Y-91603000D02*
X163576000Y-91186000D01*
X184001400Y-70342000D02*
X183449000Y-70342000D01*
X184227000Y-70342000D02*
X184001400Y-70342000D01*
X185359000Y-71929000D02*
X185359000Y-71474000D01*
X184704500Y-70819500D02*
X184227000Y-70342000D01*
X185359000Y-71474000D02*
X184704500Y-70819500D01*
X181864000Y-74379000D02*
X181864000Y-75692000D01*
X185359000Y-76581000D02*
X184277000Y-76581000D01*
X184277000Y-76581000D02*
X184150000Y-76708000D01*
X172466000Y-69027000D02*
X172466000Y-67818000D01*
X172466000Y-67818000D02*
X172212000Y-67564000D01*
D38*
X142875000Y-66274000D02*
X142875000Y-67945000D01*
X142875000Y-67945000D02*
X142748000Y-68072000D01*
X138242000Y-67818000D02*
X136652000Y-67818000D01*
X136713000Y-65024000D02*
X135763000Y-64074000D01*
X137842000Y-65024000D02*
X136713000Y-65024000D01*
X137842000Y-71393000D02*
X138242000Y-70993000D01*
X137842000Y-72837000D02*
X137842000Y-71393000D01*
D40*
X125363000Y-81611000D02*
X123013000Y-81611000D01*
X123013000Y-81611000D02*
X122428000Y-81026000D01*
D38*
X150538000Y-120142000D02*
X149098000Y-120142000D01*
D39*
X161893000Y-97151000D02*
X159389000Y-97151000D01*
X159389000Y-97151000D02*
X159258000Y-97282000D01*
X152177001Y-89799001D02*
X152022001Y-89954001D01*
X152177001Y-88392000D02*
X152177001Y-89799001D01*
X150114000Y-91707600D02*
X150114000Y-92710000D01*
X150114000Y-91637002D02*
X150114000Y-91707600D01*
X151797001Y-89954001D02*
X150114000Y-91637002D01*
X152022001Y-89954001D02*
X151797001Y-89954001D01*
X156337000Y-93393000D02*
X156337000Y-92143000D01*
X159095000Y-96151000D02*
X156337000Y-93393000D01*
X161893000Y-96151000D02*
X159095000Y-96151000D01*
X155781000Y-92143000D02*
X156337000Y-92143000D01*
X152781000Y-95143000D02*
X155781000Y-92143000D01*
X152781000Y-95293000D02*
X152781000Y-95143000D01*
X155387000Y-91193000D02*
X156337000Y-92143000D01*
X155387000Y-88519000D02*
X155387000Y-91193000D01*
X156337000Y-99393000D02*
X156337000Y-100643000D01*
X159079000Y-96651000D02*
X156337000Y-99393000D01*
X161893000Y-96651000D02*
X159079000Y-96651000D01*
X155781000Y-100643000D02*
X156337000Y-100643000D01*
X152781000Y-97643000D02*
X155781000Y-100643000D01*
X152781000Y-97493000D02*
X152781000Y-97643000D01*
X155387000Y-101593000D02*
X156337000Y-100643000D01*
X155387000Y-104140000D02*
X155387000Y-101593000D01*
D40*
X132423000Y-80071000D02*
X133985000Y-80071000D01*
X131663000Y-79311000D02*
X132423000Y-80071000D01*
X133985000Y-80071000D02*
X135509000Y-80071000D01*
X136987000Y-80071000D02*
X137287000Y-80371000D01*
X135509000Y-80071000D02*
X136987000Y-80071000D01*
D38*
X170593000Y-94151000D02*
X170710000Y-94151000D01*
X171610000Y-93251000D02*
X171483000Y-93378000D01*
X171610000Y-93251000D02*
X172532000Y-92329000D01*
X170710000Y-94151000D02*
X171610000Y-93251000D01*
X163493000Y-92551000D02*
X163493000Y-92312000D01*
X162844500Y-91663500D02*
X161986000Y-90805000D01*
X163493000Y-92312000D02*
X162844500Y-91663500D01*
D39*
X149977001Y-88392000D02*
X148717000Y-88392000D01*
X163830000Y-88222000D02*
X163830000Y-89662000D01*
X168148000Y-104437000D02*
X168148000Y-103251000D01*
D38*
X172310000Y-101251000D02*
X172532000Y-101473000D01*
X170974000Y-101251000D02*
X172310000Y-101251000D01*
X168993000Y-101251000D02*
X170974000Y-101251000D01*
D39*
X162602400Y-112324000D02*
X161700000Y-112324000D01*
X162960600Y-112324000D02*
X162602400Y-112324000D01*
X163397600Y-111887000D02*
X162960600Y-112324000D01*
X164150000Y-111887000D02*
X163397600Y-111887000D01*
X151638000Y-76388000D02*
X152334000Y-76388000D01*
X152334000Y-76388000D02*
X152654000Y-76708000D01*
X153317000Y-77371000D02*
X152654000Y-76708000D01*
X153317000Y-78193500D02*
X153317000Y-77371000D01*
X161374000Y-81661000D02*
X160274000Y-81661000D01*
X160274000Y-82020210D02*
X160274000Y-81661000D01*
X160274000Y-82031600D02*
X160274000Y-82020210D01*
X159596000Y-82709600D02*
X160274000Y-82031600D01*
X159596000Y-83312000D02*
X159596000Y-82709600D01*
X152754500Y-79506000D02*
X152754500Y-80006000D01*
X150433000Y-79506000D02*
X150429000Y-79502000D01*
X151515000Y-79506000D02*
X151642000Y-79506000D01*
X151515000Y-79506000D02*
X150433000Y-79506000D01*
X152754500Y-79506000D02*
X151515000Y-79506000D01*
X168275000Y-81497000D02*
X168275000Y-81722000D01*
X167550000Y-80772000D02*
X168275000Y-81497000D01*
X166682000Y-80772000D02*
X167550000Y-80772000D01*
X167545000Y-82677000D02*
X167259000Y-82677000D01*
X168275000Y-81722000D02*
X168275000Y-81947000D01*
X168275000Y-81947000D02*
X167545000Y-82677000D01*
D38*
X147109000Y-107950000D02*
X145796000Y-107950000D01*
X152490000Y-106397000D02*
X152715000Y-106172000D01*
X152490000Y-107914000D02*
X152490000Y-106397000D01*
X152715000Y-106172000D02*
X153924000Y-106172000D01*
X161671000Y-103190000D02*
X161671000Y-101727000D01*
X161671000Y-101727000D02*
X161544000Y-101600000D01*
D39*
X161797999Y-101346001D02*
X161544000Y-101600000D01*
X162771601Y-100372399D02*
X161797999Y-101346001D01*
X162771601Y-98227201D02*
X162771601Y-100372399D01*
X162695400Y-98151000D02*
X162771601Y-98227201D01*
X161893000Y-98151000D02*
X162695400Y-98151000D01*
X187259000Y-76053600D02*
X187259000Y-74629000D01*
X187259000Y-76581000D02*
X187259000Y-76053600D01*
X187259000Y-76581000D02*
X188341000Y-76581000D01*
X188341000Y-76581000D02*
X188468000Y-76708000D01*
D40*
X137287000Y-80371000D02*
X139045000Y-80371000D01*
X139045000Y-80371000D02*
X139192000Y-80518000D01*
D38*
X174120999Y-77470000D02*
X174120999Y-75773999D01*
X174120999Y-75773999D02*
X174120999Y-74799001D01*
X174120999Y-74799001D02*
X174244000Y-74676000D01*
D39*
X161671000Y-103415000D02*
X161671000Y-103190000D01*
X161030000Y-104056000D02*
X161671000Y-103415000D01*
X159893000Y-104056000D02*
X161030000Y-104056000D01*
X154283210Y-106172000D02*
X153924000Y-106172000D01*
X154325000Y-106172000D02*
X154283210Y-106172000D01*
X155214000Y-107061000D02*
X154325000Y-106172000D01*
X155364000Y-107061000D02*
X155214000Y-107061000D01*
X155364000Y-108109600D02*
X155364000Y-107061000D01*
X155364000Y-108712000D02*
X155364000Y-108109600D01*
X168740000Y-108458000D02*
X170053000Y-108458000D01*
X166200000Y-110236000D02*
X167640000Y-110236000D01*
X154317000Y-83136000D02*
X154686000Y-83505000D01*
X154317000Y-81318500D02*
X154317000Y-83136000D01*
X161232600Y-74041000D02*
X163635000Y-74041000D01*
X160003999Y-75269601D02*
X161232600Y-74041000D01*
X156825999Y-75269601D02*
X160003999Y-75269601D01*
X154317000Y-77778600D02*
X156825999Y-75269601D01*
X154317000Y-78193500D02*
X154317000Y-77778600D01*
X167132000Y-73316000D02*
X167132000Y-73091000D01*
X166407000Y-74041000D02*
X167132000Y-73316000D01*
X163635000Y-74041000D02*
X166407000Y-74041000D01*
X153817000Y-75359000D02*
X155135000Y-74041000D01*
X153817000Y-78193500D02*
X153817000Y-75359000D01*
X155135000Y-72888600D02*
X155135000Y-74041000D01*
X154763400Y-72517000D02*
X155135000Y-72888600D01*
X151445000Y-72517000D02*
X154763400Y-72517000D01*
X159700000Y-118214000D02*
X159766000Y-118280000D01*
X159700000Y-116459000D02*
X159700000Y-118214000D01*
X161267000Y-118280000D02*
X161417000Y-118430000D01*
X159766000Y-118280000D02*
X161267000Y-118280000D01*
X161417000Y-117677600D02*
X163270600Y-115824000D01*
X161417000Y-118430000D02*
X161417000Y-117677600D01*
X165786400Y-115824000D02*
X163270600Y-115824000D01*
X166200000Y-115410400D02*
X165786400Y-115824000D01*
X166200000Y-114808000D02*
X166200000Y-115410400D01*
X157800000Y-118214000D02*
X157734000Y-118280000D01*
X157800000Y-116459000D02*
X157800000Y-118214000D01*
X157584000Y-118430000D02*
X157734000Y-118280000D01*
X156083000Y-118430000D02*
X157584000Y-118430000D01*
X156083000Y-118430000D02*
X156083000Y-117221000D01*
X156083000Y-117221000D02*
X154686000Y-115824000D01*
X151967600Y-115824000D02*
X154686000Y-115824000D01*
X151300000Y-115156400D02*
X151967600Y-115824000D01*
X151300000Y-114554000D02*
X151300000Y-115156400D01*
D40*
X140542000Y-71393000D02*
X140142000Y-70993000D01*
X140542000Y-72837000D02*
X140542000Y-71393000D01*
D39*
X155744000Y-113030000D02*
X155800000Y-112974000D01*
X153350000Y-113030000D02*
X155744000Y-113030000D01*
D38*
X141867400Y-71813600D02*
X144272000Y-71813600D01*
X140142000Y-70993000D02*
X141046800Y-70993000D01*
X141046800Y-70993000D02*
X141867400Y-71813600D01*
X155800000Y-112974000D02*
X157424000Y-112974000D01*
X157424000Y-112974000D02*
X157480000Y-113030000D01*
D40*
X142575000Y-64074000D02*
X142875000Y-63774000D01*
X140542000Y-64074000D02*
X142575000Y-64074000D01*
D39*
X162602400Y-112974000D02*
X161700000Y-112974000D01*
X163087600Y-112974000D02*
X162602400Y-112974000D01*
X163397600Y-113284000D02*
X163087600Y-112974000D01*
X164150000Y-113284000D02*
X163397600Y-113284000D01*
D38*
X142875000Y-63774000D02*
X144292000Y-63774000D01*
X144292000Y-63774000D02*
X144526000Y-64008000D01*
X161700000Y-112974000D02*
X160472000Y-112974000D01*
X160472000Y-112974000D02*
X160274000Y-112776000D01*
D40*
X129921000Y-69469000D02*
X132268000Y-69469000D01*
X129279000Y-69469000D02*
X129921000Y-69469000D01*
X118740000Y-58930000D02*
X129279000Y-69469000D01*
D39*
X172316000Y-71077000D02*
X172466000Y-70927000D01*
X170688000Y-71077000D02*
X172316000Y-71077000D01*
X130946304Y-69469000D02*
X129921000Y-69469000D01*
X140571672Y-69469000D02*
X130946304Y-69469000D01*
X142179672Y-71077000D02*
X140571672Y-69469000D01*
X170688000Y-71077000D02*
X142179672Y-71077000D01*
D38*
X137842000Y-63444200D02*
X137389800Y-62992000D01*
X137842000Y-64074000D02*
X137842000Y-63444200D01*
X134650500Y-63662858D02*
X134650500Y-67086500D01*
X135321358Y-62992000D02*
X134650500Y-63662858D01*
X137389800Y-62992000D02*
X135321358Y-62992000D01*
D40*
X132268000Y-69469000D02*
X134650500Y-67086500D01*
X134650500Y-67086500D02*
X135763000Y-65974000D01*
D38*
X135763000Y-65974000D02*
X137842000Y-65974000D01*
D40*
X132776000Y-85024000D02*
X133985000Y-85024000D01*
X131663000Y-83911000D02*
X132776000Y-85024000D01*
X135809000Y-85324000D02*
X135509000Y-85024000D01*
X137287000Y-85324000D02*
X135809000Y-85324000D01*
X133985000Y-85024000D02*
X135509000Y-85024000D01*
X117260079Y-54752599D02*
X117102599Y-54910079D01*
X124339295Y-54752599D02*
X117260079Y-54752599D01*
X128895696Y-59309000D02*
X124339295Y-54752599D01*
X129921000Y-59309000D02*
X128895696Y-59309000D01*
X121807323Y-84298401D02*
X119415323Y-81906401D01*
X126992921Y-84298401D02*
X121807323Y-84298401D01*
X127380322Y-83911000D02*
X126992921Y-84298401D01*
X131663000Y-83911000D02*
X127380322Y-83911000D01*
X119415323Y-81906401D02*
X117102599Y-81906401D01*
X117102599Y-54910079D02*
X117102599Y-81906401D01*
X117012410Y-81996590D02*
X117102599Y-81906401D01*
X117895001Y-93638001D02*
X117604699Y-93638001D01*
X118745000Y-94488000D02*
X117895001Y-93638001D01*
X117604699Y-93638001D02*
X117102599Y-93135901D01*
X117102599Y-93135901D02*
X117102599Y-89264199D01*
X117102599Y-89264199D02*
X117012410Y-89174010D01*
X117012410Y-89174010D02*
X117012410Y-81996590D01*
X135575000Y-74549000D02*
X135763000Y-74737000D01*
X129921000Y-74549000D02*
X135575000Y-74549000D01*
X129196001Y-73824001D02*
X129921000Y-74549000D01*
X128408599Y-73036599D02*
X129196001Y-73824001D01*
X128408599Y-71255245D02*
X128408599Y-73036599D01*
X118740000Y-61586646D02*
X128408599Y-71255245D01*
X118740000Y-61470000D02*
X118740000Y-61586646D01*
X137842000Y-74737000D02*
X135763000Y-74737000D01*
X137842000Y-74737000D02*
X137842000Y-73949401D01*
X140542000Y-74737000D02*
X142621000Y-74737000D01*
X140142000Y-66374000D02*
X140542000Y-65974000D01*
X140142000Y-67818000D02*
X140142000Y-66374000D01*
D39*
X170688000Y-63500000D02*
X170688000Y-68877000D01*
X181946600Y-68342000D02*
X175580600Y-61976000D01*
X182499000Y-68342000D02*
X181946600Y-68342000D01*
X171704000Y-61976000D02*
X170688000Y-60960000D01*
X175580600Y-61976000D02*
X171704000Y-61976000D01*
D40*
X121579000Y-91948000D02*
X124079000Y-89448000D01*
X118745000Y-91948000D02*
X121579000Y-91948000D01*
X118959000Y-99568000D02*
X124079000Y-94448000D01*
X118745000Y-99568000D02*
X118959000Y-99568000D01*
D39*
X169714399Y-95074799D02*
X169714399Y-91735667D01*
X170593000Y-95151000D02*
X169790600Y-95151000D01*
X169790600Y-95151000D02*
X169714399Y-95074799D01*
X169714399Y-91735667D02*
X171788066Y-89662000D01*
X174244000Y-89662000D02*
X175514000Y-88392000D01*
X171788066Y-89662000D02*
X174244000Y-89662000D01*
X172627000Y-88392000D02*
X172974000Y-88392000D01*
X168993000Y-92026000D02*
X172627000Y-88392000D01*
X168993000Y-92551000D02*
X168993000Y-92026000D01*
D38*
X145288000Y-121920000D02*
X145288000Y-121412000D01*
X148336000Y-118364000D02*
X150538000Y-118364000D01*
X145288000Y-121412000D02*
X148336000Y-118364000D01*
D39*
X170593000Y-98151000D02*
X178023934Y-98151000D01*
X178023934Y-98151000D02*
X178511190Y-97663744D01*
X178511190Y-93776810D02*
X180086000Y-92202000D01*
X178511190Y-97663744D02*
X178511190Y-93776810D01*
X170593000Y-98651000D02*
X177955000Y-98651000D01*
X177955000Y-98651000D02*
X178816000Y-97790000D01*
X178816000Y-96012000D02*
X180086000Y-94742000D01*
X178816000Y-97790000D02*
X178816000Y-96012000D01*
X178217000Y-99151000D02*
X180086000Y-97282000D01*
X170593000Y-99151000D02*
X178217000Y-99151000D01*
X179915000Y-99651000D02*
X180086000Y-99822000D01*
X170593000Y-99651000D02*
X179915000Y-99651000D01*
X182912600Y-72179000D02*
X181864000Y-72179000D01*
X183515000Y-72179000D02*
X182912600Y-72179000D01*
X181549000Y-71864000D02*
X181864000Y-72179000D01*
X181549000Y-70342000D02*
X181549000Y-71864000D01*
X165481000Y-92539000D02*
X165493000Y-92551000D01*
X165481000Y-88222000D02*
X165481000Y-92539000D01*
X162781400Y-86022000D02*
X163830000Y-86022000D01*
X162179000Y-86022000D02*
X162781400Y-86022000D01*
X164432400Y-86022000D02*
X165481000Y-86022000D01*
X163830000Y-86022000D02*
X164432400Y-86022000D01*
X167099400Y-106637000D02*
X168148000Y-106637000D01*
X166497000Y-106637000D02*
X167099400Y-106637000D01*
X168750400Y-106637000D02*
X169799000Y-106637000D01*
X168148000Y-106637000D02*
X168750400Y-106637000D01*
X166497000Y-101255000D02*
X166493000Y-101251000D01*
X166497000Y-104437000D02*
X166497000Y-101255000D01*
X159139998Y-80006000D02*
X159199999Y-79945999D01*
X157379500Y-80006000D02*
X159139998Y-80006000D01*
X159199999Y-81635001D02*
X159174000Y-81661000D01*
X159199999Y-79945999D02*
X159199999Y-81635001D01*
X152781000Y-81354500D02*
X152817000Y-81318500D01*
X152781000Y-83355000D02*
X152781000Y-81354500D01*
X151978400Y-80506000D02*
X152754500Y-80506000D01*
X150579000Y-81153000D02*
X151331400Y-81153000D01*
X151331400Y-81153000D02*
X151978400Y-80506000D01*
X156817000Y-82733000D02*
X157396000Y-83312000D01*
X156817000Y-81318500D02*
X156817000Y-82733000D01*
X166993000Y-92551000D02*
X166993000Y-85102000D01*
X166993000Y-85102000D02*
X167132000Y-84963000D01*
X157353000Y-83355000D02*
X157396000Y-83312000D01*
X157353000Y-84836000D02*
X157353000Y-83355000D01*
X162602400Y-114274000D02*
X161700000Y-114274000D01*
X162713600Y-114274000D02*
X162602400Y-114274000D01*
X163247600Y-114808000D02*
X162713600Y-114274000D01*
X164000000Y-114808000D02*
X163247600Y-114808000D01*
X154897600Y-114274000D02*
X155800000Y-114274000D01*
X154532400Y-114274000D02*
X154897600Y-114274000D01*
X154252400Y-114554000D02*
X154532400Y-114274000D01*
X153500000Y-114554000D02*
X154252400Y-114554000D01*
D38*
X149309000Y-109728000D02*
X149309000Y-107950000D01*
X151004000Y-107950000D02*
X151040000Y-107914000D01*
X149309000Y-107950000D02*
X151004000Y-107950000D01*
D39*
X153668000Y-111674000D02*
X153500000Y-111506000D01*
X155800000Y-111674000D02*
X153668000Y-111674000D01*
X153117400Y-109764000D02*
X152490000Y-109764000D01*
X153500000Y-110146600D02*
X153117400Y-109764000D01*
X153500000Y-111506000D02*
X153500000Y-110146600D01*
X183765000Y-74629000D02*
X183515000Y-74379000D01*
X185359000Y-74629000D02*
X183765000Y-74629000D01*
X163772000Y-79772000D02*
X163772000Y-78163000D01*
X163772000Y-78163000D02*
X163830000Y-78105000D01*
X163830000Y-77067210D02*
X163978790Y-77216000D01*
X163830000Y-76708000D02*
X163830000Y-77067210D01*
X165993000Y-91748600D02*
X165993000Y-92551000D01*
X166159601Y-91581999D02*
X165993000Y-91748600D01*
X166159601Y-85186083D02*
X166159601Y-91581999D01*
X162204399Y-81230881D02*
X166159601Y-85186083D01*
X162306000Y-80438750D02*
X162204399Y-80540351D01*
X162306000Y-79269790D02*
X162306000Y-80438750D01*
X163470790Y-78105000D02*
X162306000Y-79269790D01*
X162204399Y-80540351D02*
X162204399Y-81230881D01*
X163830000Y-78105000D02*
X163470790Y-78105000D01*
X157619400Y-78193500D02*
X157317000Y-78193500D01*
X158596900Y-77216000D02*
X157619400Y-78193500D01*
X170328998Y-77216000D02*
X158596900Y-77216000D01*
X171770999Y-75773999D02*
X170328998Y-77216000D01*
X171920999Y-75773999D02*
X171770999Y-75773999D01*
X157744400Y-79006000D02*
X159229590Y-77520810D01*
X157379500Y-79006000D02*
X157744400Y-79006000D01*
X166682000Y-79409600D02*
X168570790Y-77520810D01*
X166682000Y-79772000D02*
X166682000Y-79409600D01*
X169900601Y-78841601D02*
X168579810Y-77520810D01*
X169900601Y-81482881D02*
X169900601Y-78841601D01*
X166493000Y-84890482D02*
X169900601Y-81482881D01*
X166493000Y-92551000D02*
X166493000Y-84890482D01*
X159229590Y-77520810D02*
X168579810Y-77520810D01*
X171168599Y-77470000D02*
X171920999Y-77470000D01*
X171117789Y-77520810D02*
X171168599Y-77470000D01*
X168579810Y-77520810D02*
X171117789Y-77520810D01*
X171395400Y-97151000D02*
X189484000Y-79062400D01*
X170593000Y-97151000D02*
X171395400Y-97151000D01*
X189484000Y-79062400D02*
X189484000Y-70612000D01*
X189484000Y-70612000D02*
X188468000Y-69596000D01*
X188468000Y-69596000D02*
X187198000Y-69596000D01*
X186309000Y-70485000D02*
X186309000Y-71929000D01*
X187198000Y-69596000D02*
X186309000Y-70485000D01*
X161700000Y-109996600D02*
X161700000Y-110374000D01*
X164712238Y-106984362D02*
X161700000Y-109996600D01*
X164712238Y-102834162D02*
X164712238Y-106984362D01*
X165493000Y-102053400D02*
X164712238Y-102834162D01*
X165493000Y-101251000D02*
X165493000Y-102053400D01*
X161838000Y-110236000D02*
X161700000Y-110374000D01*
X164000000Y-110236000D02*
X161838000Y-110236000D01*
X160797600Y-111024000D02*
X161700000Y-111024000D01*
X164993000Y-102064772D02*
X164407429Y-102650343D01*
X164993000Y-101251000D02*
X164993000Y-102064772D01*
X164407429Y-102650343D02*
X164407428Y-106280090D01*
X160721399Y-109966119D02*
X160721399Y-110947799D01*
X160721399Y-110947799D02*
X160797600Y-111024000D01*
X166540000Y-108458000D02*
X165354000Y-108458000D01*
X165354000Y-108458000D02*
X164973000Y-108077000D01*
X164407428Y-106280090D02*
X163410759Y-107276759D01*
X163410759Y-107276759D02*
X160721399Y-109966119D01*
X155800000Y-110374000D02*
X157723000Y-110374000D01*
X161163000Y-107873066D02*
X161163000Y-108458000D01*
X164102619Y-104933447D02*
X161163000Y-107873066D01*
X164102620Y-102489000D02*
X164102619Y-104933447D01*
X164493000Y-101251000D02*
X164493000Y-102098620D01*
X164493000Y-102098620D02*
X164102620Y-102489000D01*
X157850600Y-109601000D02*
X158496000Y-109601000D01*
X157564000Y-109314400D02*
X157850600Y-109601000D01*
X157564000Y-108712000D02*
X157564000Y-109314400D01*
X157723000Y-110374000D02*
X158496000Y-109601000D01*
X158496000Y-109601000D02*
X159639000Y-108458000D01*
X163797810Y-102132672D02*
X163797810Y-104807190D01*
X163993000Y-101251000D02*
X163993000Y-101937482D01*
X163993000Y-101937482D02*
X163797810Y-102132672D01*
X163797810Y-104807190D02*
X160655000Y-107950000D01*
X160655000Y-107950000D02*
X160655000Y-109220000D01*
X157835000Y-111024000D02*
X155800000Y-111024000D01*
X159639000Y-109220000D02*
X157835000Y-111024000D01*
X157564000Y-107061000D02*
X158496000Y-107061000D01*
X158496000Y-107061000D02*
X158877000Y-107442000D01*
X163493000Y-101251000D02*
X163493000Y-104654482D01*
X160797600Y-111674000D02*
X161700000Y-111674000D01*
X160147000Y-111023400D02*
X160797600Y-111674000D01*
X160147000Y-108000482D02*
X160147000Y-111023400D01*
X160500141Y-106260741D02*
X161886741Y-106260741D01*
X160495400Y-106256000D02*
X160500141Y-106260741D01*
X159893000Y-106256000D02*
X160495400Y-106256000D01*
X163493000Y-104654482D02*
X161886741Y-106260741D01*
X161886741Y-106260741D02*
X160147000Y-108000482D01*
D38*
X152738000Y-118364000D02*
X152738000Y-120142000D01*
X159766000Y-121920000D02*
X159766000Y-120480000D01*
X159258000Y-122428000D02*
X159766000Y-121920000D01*
X154269200Y-122428000D02*
X159258000Y-122428000D01*
X152738000Y-120142000D02*
X152738000Y-120896800D01*
X152738000Y-120896800D02*
X154269200Y-122428000D01*
D41*
G36*
X127138599Y-71781297D02*
G01*
X127138599Y-72974226D01*
X127132456Y-73036599D01*
X127138599Y-73098972D01*
X127138599Y-73098979D01*
X127146258Y-73176737D01*
X127156976Y-73285562D01*
X127217590Y-73485377D01*
X127229597Y-73524958D01*
X127347525Y-73745587D01*
X127506230Y-73938969D01*
X127554686Y-73978736D01*
X128678048Y-75102098D01*
X128715784Y-75193201D01*
X128864619Y-75415949D01*
X129054051Y-75605381D01*
X129276799Y-75754216D01*
X129524303Y-75856736D01*
X129787052Y-75909000D01*
X130054948Y-75909000D01*
X130317697Y-75856736D01*
X130408799Y-75819000D01*
X134974363Y-75819000D01*
X135033506Y-75867537D01*
X135143820Y-75926502D01*
X135263518Y-75962812D01*
X135388000Y-75975072D01*
X135469365Y-75975072D01*
X135514037Y-75988623D01*
X135700620Y-76007000D01*
X135700627Y-76007000D01*
X135762999Y-76013143D01*
X135825372Y-76007000D01*
X137779620Y-76007000D01*
X137842000Y-76013144D01*
X137904380Y-76007000D01*
X138090963Y-75988623D01*
X138330359Y-75916003D01*
X138550988Y-75798075D01*
X138677006Y-75694655D01*
X138746482Y-75687812D01*
X138866180Y-75651502D01*
X138976494Y-75592537D01*
X139073185Y-75513185D01*
X139152537Y-75416494D01*
X139192000Y-75342665D01*
X139231463Y-75416494D01*
X139310815Y-75513185D01*
X139407506Y-75592537D01*
X139517820Y-75651502D01*
X139637518Y-75687812D01*
X139706994Y-75694655D01*
X139833012Y-75798075D01*
X140053641Y-75916003D01*
X140293037Y-75988623D01*
X140479620Y-76007000D01*
X142683380Y-76007000D01*
X142869963Y-75988623D01*
X142914635Y-75975072D01*
X142996000Y-75975072D01*
X143120482Y-75962812D01*
X143240180Y-75926502D01*
X143350494Y-75867537D01*
X143447185Y-75788185D01*
X143526537Y-75691494D01*
X143585502Y-75581180D01*
X143593932Y-75553390D01*
X143682075Y-75445988D01*
X143800003Y-75225359D01*
X143872623Y-74985963D01*
X143897144Y-74737000D01*
X143872623Y-74488037D01*
X143800003Y-74248641D01*
X143682075Y-74028012D01*
X143593932Y-73920610D01*
X143585502Y-73892820D01*
X143528939Y-73787000D01*
X143585502Y-73681180D01*
X143621812Y-73561482D01*
X143634072Y-73437000D01*
X143631000Y-73122750D01*
X143472250Y-72964000D01*
X142748000Y-72964000D01*
X142748000Y-72984000D01*
X142494000Y-72984000D01*
X142494000Y-72964000D01*
X142474000Y-72964000D01*
X142474000Y-72710000D01*
X142494000Y-72710000D01*
X142494000Y-72690000D01*
X142748000Y-72690000D01*
X142748000Y-72710000D01*
X143472250Y-72710000D01*
X143512102Y-72670148D01*
X143543380Y-72701426D01*
X143730587Y-72826513D01*
X143938599Y-72912675D01*
X144159424Y-72956600D01*
X144384576Y-72956600D01*
X144605401Y-72912675D01*
X144813413Y-72826513D01*
X145000620Y-72701426D01*
X145159826Y-72542220D01*
X145284913Y-72355013D01*
X145288000Y-72347560D01*
X145288000Y-86868000D01*
X121412000Y-86868000D01*
X121412000Y-85505626D01*
X121558360Y-85550024D01*
X121807323Y-85574545D01*
X121869703Y-85568401D01*
X126930548Y-85568401D01*
X126992921Y-85574544D01*
X127055294Y-85568401D01*
X127055301Y-85568401D01*
X127241884Y-85550024D01*
X127481280Y-85477404D01*
X127701909Y-85359476D01*
X127895291Y-85200771D01*
X127911517Y-85181000D01*
X130295667Y-85181000D01*
X130308506Y-85191537D01*
X130418820Y-85250502D01*
X130538518Y-85286812D01*
X130663000Y-85299072D01*
X131255021Y-85299072D01*
X131833867Y-85877919D01*
X131873630Y-85926370D01*
X131922080Y-85966132D01*
X131922083Y-85966135D01*
X131937143Y-85978494D01*
X132067012Y-86085075D01*
X132279183Y-86198482D01*
X132287641Y-86203003D01*
X132527037Y-86275623D01*
X132776000Y-86300144D01*
X132838380Y-86294000D01*
X134989037Y-86294000D01*
X135100012Y-86385075D01*
X135320641Y-86503003D01*
X135504318Y-86558721D01*
X135560036Y-86575623D01*
X135585755Y-86578156D01*
X135746620Y-86594000D01*
X135746626Y-86594000D01*
X135808999Y-86600143D01*
X135871372Y-86594000D01*
X136294667Y-86594000D01*
X136307506Y-86604537D01*
X136417820Y-86663502D01*
X136537518Y-86699812D01*
X136662000Y-86712072D01*
X137912000Y-86712072D01*
X138036482Y-86699812D01*
X138156180Y-86663502D01*
X138266494Y-86604537D01*
X138363185Y-86525185D01*
X138442537Y-86428494D01*
X138501502Y-86318180D01*
X138537812Y-86198482D01*
X138550072Y-86074000D01*
X138550072Y-85456721D01*
X138563144Y-85324000D01*
X138550072Y-85191279D01*
X138550072Y-84574000D01*
X138537812Y-84449518D01*
X138501502Y-84329820D01*
X138442537Y-84219506D01*
X138363185Y-84122815D01*
X138303704Y-84074000D01*
X138363185Y-84025185D01*
X138442537Y-83928494D01*
X138501502Y-83818180D01*
X138537812Y-83698482D01*
X138550072Y-83574000D01*
X138547000Y-83109750D01*
X138388250Y-82951000D01*
X137414000Y-82951000D01*
X137414000Y-82971000D01*
X137160000Y-82971000D01*
X137160000Y-82951000D01*
X137140000Y-82951000D01*
X137140000Y-82697000D01*
X137160000Y-82697000D01*
X137160000Y-82677000D01*
X137414000Y-82677000D01*
X137414000Y-82697000D01*
X138388250Y-82697000D01*
X138547000Y-82538250D01*
X138550072Y-82074000D01*
X138537812Y-81949518D01*
X138501502Y-81829820D01*
X138442537Y-81719506D01*
X138378109Y-81641000D01*
X138598869Y-81641000D01*
X138703641Y-81697002D01*
X138943037Y-81769623D01*
X139191999Y-81794143D01*
X139440962Y-81769623D01*
X139680358Y-81697002D01*
X139900987Y-81579074D01*
X139946561Y-81541672D01*
X140128599Y-81617075D01*
X140349424Y-81661000D01*
X140574576Y-81661000D01*
X140795401Y-81617075D01*
X141003413Y-81530913D01*
X141190620Y-81405826D01*
X141349826Y-81246620D01*
X141474913Y-81059413D01*
X141561075Y-80851401D01*
X141605000Y-80630576D01*
X141605000Y-80405424D01*
X141561075Y-80184599D01*
X141474913Y-79976587D01*
X141349826Y-79789380D01*
X141190620Y-79630174D01*
X141003413Y-79505087D01*
X140795401Y-79418925D01*
X140574576Y-79375000D01*
X140349424Y-79375000D01*
X140128599Y-79418925D01*
X139962904Y-79487558D01*
X139947370Y-79468630D01*
X139753988Y-79309925D01*
X139533359Y-79191997D01*
X139293963Y-79119377D01*
X139107380Y-79101000D01*
X139107373Y-79101000D01*
X139045000Y-79094857D01*
X138982627Y-79101000D01*
X138328074Y-79101000D01*
X138363185Y-79072185D01*
X138442537Y-78975494D01*
X138501502Y-78865180D01*
X138537812Y-78745482D01*
X138550072Y-78621000D01*
X138547000Y-78156750D01*
X138388250Y-77998000D01*
X137414000Y-77998000D01*
X137414000Y-78018000D01*
X137160000Y-78018000D01*
X137160000Y-77998000D01*
X137140000Y-77998000D01*
X137140000Y-77744000D01*
X137160000Y-77744000D01*
X137160000Y-76644750D01*
X137414000Y-76644750D01*
X137414000Y-77744000D01*
X138388250Y-77744000D01*
X138547000Y-77585250D01*
X138550072Y-77121000D01*
X138537812Y-76996518D01*
X138501502Y-76876820D01*
X138442537Y-76766506D01*
X138363185Y-76669815D01*
X138266494Y-76590463D01*
X138156180Y-76531498D01*
X138036482Y-76495188D01*
X137912000Y-76482928D01*
X137572750Y-76486000D01*
X137414000Y-76644750D01*
X137160000Y-76644750D01*
X137001250Y-76486000D01*
X136662000Y-76482928D01*
X136537518Y-76495188D01*
X136417820Y-76531498D01*
X136307506Y-76590463D01*
X136210815Y-76669815D01*
X136131463Y-76766506D01*
X136072498Y-76876820D01*
X136048112Y-76957210D01*
X136008482Y-76945188D01*
X135884000Y-76932928D01*
X135794750Y-76936000D01*
X135636000Y-77094750D01*
X135636000Y-78044000D01*
X135656000Y-78044000D01*
X135656000Y-78298000D01*
X135636000Y-78298000D01*
X135636000Y-78318000D01*
X135382000Y-78318000D01*
X135382000Y-78298000D01*
X134112000Y-78298000D01*
X134112000Y-78318000D01*
X133858000Y-78318000D01*
X133858000Y-78298000D01*
X133838000Y-78298000D01*
X133838000Y-78044000D01*
X133858000Y-78044000D01*
X133858000Y-77094750D01*
X134112000Y-77094750D01*
X134112000Y-78044000D01*
X135382000Y-78044000D01*
X135382000Y-77094750D01*
X135223250Y-76936000D01*
X135134000Y-76932928D01*
X135009518Y-76945188D01*
X134889820Y-76981498D01*
X134779506Y-77040463D01*
X134747000Y-77067140D01*
X134714494Y-77040463D01*
X134604180Y-76981498D01*
X134484482Y-76945188D01*
X134360000Y-76932928D01*
X134270750Y-76936000D01*
X134112000Y-77094750D01*
X133858000Y-77094750D01*
X133699250Y-76936000D01*
X133610000Y-76932928D01*
X133485518Y-76945188D01*
X133365820Y-76981498D01*
X133255506Y-77040463D01*
X133158815Y-77119815D01*
X133079463Y-77216506D01*
X133020498Y-77326820D01*
X132984188Y-77446518D01*
X132971928Y-77571000D01*
X132975000Y-77885250D01*
X133133748Y-78043998D01*
X133033986Y-78043998D01*
X133017494Y-78030463D01*
X132907180Y-77971498D01*
X132787482Y-77935188D01*
X132663000Y-77922928D01*
X130663000Y-77922928D01*
X130538518Y-77935188D01*
X130418820Y-77971498D01*
X130308506Y-78030463D01*
X130211815Y-78109815D01*
X130132463Y-78206506D01*
X130073498Y-78316820D01*
X130037188Y-78436518D01*
X130024928Y-78561000D01*
X130024928Y-80061000D01*
X130037188Y-80185482D01*
X130073498Y-80305180D01*
X130132463Y-80415494D01*
X130169809Y-80461000D01*
X130132463Y-80506506D01*
X130073498Y-80616820D01*
X130037188Y-80736518D01*
X130024928Y-80861000D01*
X130028000Y-81325250D01*
X130186750Y-81484000D01*
X131536000Y-81484000D01*
X131536000Y-81464000D01*
X131790000Y-81464000D01*
X131790000Y-81484000D01*
X133139250Y-81484000D01*
X133282250Y-81341000D01*
X136065163Y-81341000D01*
X136072498Y-81365180D01*
X136131463Y-81475494D01*
X136210815Y-81572185D01*
X136241662Y-81597500D01*
X136210815Y-81622815D01*
X136131463Y-81719506D01*
X136072498Y-81829820D01*
X136048112Y-81910210D01*
X136008482Y-81898188D01*
X135884000Y-81885928D01*
X135794750Y-81889000D01*
X135636000Y-82047750D01*
X135636000Y-82997000D01*
X135656000Y-82997000D01*
X135656000Y-83251000D01*
X135636000Y-83251000D01*
X135636000Y-83271000D01*
X135382000Y-83271000D01*
X135382000Y-83251000D01*
X134112000Y-83251000D01*
X134112000Y-83271000D01*
X133858000Y-83271000D01*
X133858000Y-83251000D01*
X133838000Y-83251000D01*
X133838000Y-82997000D01*
X133858000Y-82997000D01*
X133858000Y-82047750D01*
X134112000Y-82047750D01*
X134112000Y-82997000D01*
X135382000Y-82997000D01*
X135382000Y-82047750D01*
X135223250Y-81889000D01*
X135134000Y-81885928D01*
X135009518Y-81898188D01*
X134889820Y-81934498D01*
X134779506Y-81993463D01*
X134747000Y-82020140D01*
X134714494Y-81993463D01*
X134604180Y-81934498D01*
X134484482Y-81898188D01*
X134360000Y-81885928D01*
X134270750Y-81889000D01*
X134112000Y-82047750D01*
X133858000Y-82047750D01*
X133699250Y-81889000D01*
X133610000Y-81885928D01*
X133485518Y-81898188D01*
X133365820Y-81934498D01*
X133298488Y-81970488D01*
X133298000Y-81896750D01*
X133139250Y-81738000D01*
X131790000Y-81738000D01*
X131790000Y-81758000D01*
X131536000Y-81758000D01*
X131536000Y-81738000D01*
X130186750Y-81738000D01*
X130028000Y-81896750D01*
X130024928Y-82361000D01*
X130037188Y-82485482D01*
X130073498Y-82605180D01*
X130092644Y-82641000D01*
X127442702Y-82641000D01*
X127380322Y-82634856D01*
X127317942Y-82641000D01*
X127131359Y-82659377D01*
X126999527Y-82699368D01*
X126998000Y-81896750D01*
X126839250Y-81738000D01*
X125490000Y-81738000D01*
X125490000Y-81758000D01*
X125236000Y-81758000D01*
X125236000Y-81738000D01*
X123886750Y-81738000D01*
X123728000Y-81896750D01*
X123725846Y-83028401D01*
X122333375Y-83028401D01*
X121412000Y-82107027D01*
X121412000Y-79711000D01*
X123724928Y-79711000D01*
X123728000Y-81325250D01*
X123886750Y-81484000D01*
X125236000Y-81484000D01*
X125236000Y-79234750D01*
X125490000Y-79234750D01*
X125490000Y-81484000D01*
X126839250Y-81484000D01*
X126998000Y-81325250D01*
X127001072Y-79711000D01*
X126988812Y-79586518D01*
X126952502Y-79466820D01*
X126893537Y-79356506D01*
X126814185Y-79259815D01*
X126717494Y-79180463D01*
X126607180Y-79121498D01*
X126487482Y-79085188D01*
X126363000Y-79072928D01*
X125648750Y-79076000D01*
X125490000Y-79234750D01*
X125236000Y-79234750D01*
X125077250Y-79076000D01*
X124363000Y-79072928D01*
X124238518Y-79085188D01*
X124118820Y-79121498D01*
X124008506Y-79180463D01*
X123911815Y-79259815D01*
X123832463Y-79356506D01*
X123773498Y-79466820D01*
X123737188Y-79586518D01*
X123724928Y-79711000D01*
X121412000Y-79711000D01*
X121412000Y-66054697D01*
X127138599Y-71781297D01*
X127138599Y-71781297D01*
G37*
X127138599Y-71781297D02*
X127138599Y-72974226D01*
X127132456Y-73036599D01*
X127138599Y-73098972D01*
X127138599Y-73098979D01*
X127146258Y-73176737D01*
X127156976Y-73285562D01*
X127217590Y-73485377D01*
X127229597Y-73524958D01*
X127347525Y-73745587D01*
X127506230Y-73938969D01*
X127554686Y-73978736D01*
X128678048Y-75102098D01*
X128715784Y-75193201D01*
X128864619Y-75415949D01*
X129054051Y-75605381D01*
X129276799Y-75754216D01*
X129524303Y-75856736D01*
X129787052Y-75909000D01*
X130054948Y-75909000D01*
X130317697Y-75856736D01*
X130408799Y-75819000D01*
X134974363Y-75819000D01*
X135033506Y-75867537D01*
X135143820Y-75926502D01*
X135263518Y-75962812D01*
X135388000Y-75975072D01*
X135469365Y-75975072D01*
X135514037Y-75988623D01*
X135700620Y-76007000D01*
X135700627Y-76007000D01*
X135762999Y-76013143D01*
X135825372Y-76007000D01*
X137779620Y-76007000D01*
X137842000Y-76013144D01*
X137904380Y-76007000D01*
X138090963Y-75988623D01*
X138330359Y-75916003D01*
X138550988Y-75798075D01*
X138677006Y-75694655D01*
X138746482Y-75687812D01*
X138866180Y-75651502D01*
X138976494Y-75592537D01*
X139073185Y-75513185D01*
X139152537Y-75416494D01*
X139192000Y-75342665D01*
X139231463Y-75416494D01*
X139310815Y-75513185D01*
X139407506Y-75592537D01*
X139517820Y-75651502D01*
X139637518Y-75687812D01*
X139706994Y-75694655D01*
X139833012Y-75798075D01*
X140053641Y-75916003D01*
X140293037Y-75988623D01*
X140479620Y-76007000D01*
X142683380Y-76007000D01*
X142869963Y-75988623D01*
X142914635Y-75975072D01*
X142996000Y-75975072D01*
X143120482Y-75962812D01*
X143240180Y-75926502D01*
X143350494Y-75867537D01*
X143447185Y-75788185D01*
X143526537Y-75691494D01*
X143585502Y-75581180D01*
X143593932Y-75553390D01*
X143682075Y-75445988D01*
X143800003Y-75225359D01*
X143872623Y-74985963D01*
X143897144Y-74737000D01*
X143872623Y-74488037D01*
X143800003Y-74248641D01*
X143682075Y-74028012D01*
X143593932Y-73920610D01*
X143585502Y-73892820D01*
X143528939Y-73787000D01*
X143585502Y-73681180D01*
X143621812Y-73561482D01*
X143634072Y-73437000D01*
X143631000Y-73122750D01*
X143472250Y-72964000D01*
X142748000Y-72964000D01*
X142748000Y-72984000D01*
X142494000Y-72984000D01*
X142494000Y-72964000D01*
X142474000Y-72964000D01*
X142474000Y-72710000D01*
X142494000Y-72710000D01*
X142494000Y-72690000D01*
X142748000Y-72690000D01*
X142748000Y-72710000D01*
X143472250Y-72710000D01*
X143512102Y-72670148D01*
X143543380Y-72701426D01*
X143730587Y-72826513D01*
X143938599Y-72912675D01*
X144159424Y-72956600D01*
X144384576Y-72956600D01*
X144605401Y-72912675D01*
X144813413Y-72826513D01*
X145000620Y-72701426D01*
X145159826Y-72542220D01*
X145284913Y-72355013D01*
X145288000Y-72347560D01*
X145288000Y-86868000D01*
X121412000Y-86868000D01*
X121412000Y-85505626D01*
X121558360Y-85550024D01*
X121807323Y-85574545D01*
X121869703Y-85568401D01*
X126930548Y-85568401D01*
X126992921Y-85574544D01*
X127055294Y-85568401D01*
X127055301Y-85568401D01*
X127241884Y-85550024D01*
X127481280Y-85477404D01*
X127701909Y-85359476D01*
X127895291Y-85200771D01*
X127911517Y-85181000D01*
X130295667Y-85181000D01*
X130308506Y-85191537D01*
X130418820Y-85250502D01*
X130538518Y-85286812D01*
X130663000Y-85299072D01*
X131255021Y-85299072D01*
X131833867Y-85877919D01*
X131873630Y-85926370D01*
X131922080Y-85966132D01*
X131922083Y-85966135D01*
X131937143Y-85978494D01*
X132067012Y-86085075D01*
X132279183Y-86198482D01*
X132287641Y-86203003D01*
X132527037Y-86275623D01*
X132776000Y-86300144D01*
X132838380Y-86294000D01*
X134989037Y-86294000D01*
X135100012Y-86385075D01*
X135320641Y-86503003D01*
X135504318Y-86558721D01*
X135560036Y-86575623D01*
X135585755Y-86578156D01*
X135746620Y-86594000D01*
X135746626Y-86594000D01*
X135808999Y-86600143D01*
X135871372Y-86594000D01*
X136294667Y-86594000D01*
X136307506Y-86604537D01*
X136417820Y-86663502D01*
X136537518Y-86699812D01*
X136662000Y-86712072D01*
X137912000Y-86712072D01*
X138036482Y-86699812D01*
X138156180Y-86663502D01*
X138266494Y-86604537D01*
X138363185Y-86525185D01*
X138442537Y-86428494D01*
X138501502Y-86318180D01*
X138537812Y-86198482D01*
X138550072Y-86074000D01*
X138550072Y-85456721D01*
X138563144Y-85324000D01*
X138550072Y-85191279D01*
X138550072Y-84574000D01*
X138537812Y-84449518D01*
X138501502Y-84329820D01*
X138442537Y-84219506D01*
X138363185Y-84122815D01*
X138303704Y-84074000D01*
X138363185Y-84025185D01*
X138442537Y-83928494D01*
X138501502Y-83818180D01*
X138537812Y-83698482D01*
X138550072Y-83574000D01*
X138547000Y-83109750D01*
X138388250Y-82951000D01*
X137414000Y-82951000D01*
X137414000Y-82971000D01*
X137160000Y-82971000D01*
X137160000Y-82951000D01*
X137140000Y-82951000D01*
X137140000Y-82697000D01*
X137160000Y-82697000D01*
X137160000Y-82677000D01*
X137414000Y-82677000D01*
X137414000Y-82697000D01*
X138388250Y-82697000D01*
X138547000Y-82538250D01*
X138550072Y-82074000D01*
X138537812Y-81949518D01*
X138501502Y-81829820D01*
X138442537Y-81719506D01*
X138378109Y-81641000D01*
X138598869Y-81641000D01*
X138703641Y-81697002D01*
X138943037Y-81769623D01*
X139191999Y-81794143D01*
X139440962Y-81769623D01*
X139680358Y-81697002D01*
X139900987Y-81579074D01*
X139946561Y-81541672D01*
X140128599Y-81617075D01*
X140349424Y-81661000D01*
X140574576Y-81661000D01*
X140795401Y-81617075D01*
X141003413Y-81530913D01*
X141190620Y-81405826D01*
X141349826Y-81246620D01*
X141474913Y-81059413D01*
X141561075Y-80851401D01*
X141605000Y-80630576D01*
X141605000Y-80405424D01*
X141561075Y-80184599D01*
X141474913Y-79976587D01*
X141349826Y-79789380D01*
X141190620Y-79630174D01*
X141003413Y-79505087D01*
X140795401Y-79418925D01*
X140574576Y-79375000D01*
X140349424Y-79375000D01*
X140128599Y-79418925D01*
X139962904Y-79487558D01*
X139947370Y-79468630D01*
X139753988Y-79309925D01*
X139533359Y-79191997D01*
X139293963Y-79119377D01*
X139107380Y-79101000D01*
X139107373Y-79101000D01*
X139045000Y-79094857D01*
X138982627Y-79101000D01*
X138328074Y-79101000D01*
X138363185Y-79072185D01*
X138442537Y-78975494D01*
X138501502Y-78865180D01*
X138537812Y-78745482D01*
X138550072Y-78621000D01*
X138547000Y-78156750D01*
X138388250Y-77998000D01*
X137414000Y-77998000D01*
X137414000Y-78018000D01*
X137160000Y-78018000D01*
X137160000Y-77998000D01*
X137140000Y-77998000D01*
X137140000Y-77744000D01*
X137160000Y-77744000D01*
X137160000Y-76644750D01*
X137414000Y-76644750D01*
X137414000Y-77744000D01*
X138388250Y-77744000D01*
X138547000Y-77585250D01*
X138550072Y-77121000D01*
X138537812Y-76996518D01*
X138501502Y-76876820D01*
X138442537Y-76766506D01*
X138363185Y-76669815D01*
X138266494Y-76590463D01*
X138156180Y-76531498D01*
X138036482Y-76495188D01*
X137912000Y-76482928D01*
X137572750Y-76486000D01*
X137414000Y-76644750D01*
X137160000Y-76644750D01*
X137001250Y-76486000D01*
X136662000Y-76482928D01*
X136537518Y-76495188D01*
X136417820Y-76531498D01*
X136307506Y-76590463D01*
X136210815Y-76669815D01*
X136131463Y-76766506D01*
X136072498Y-76876820D01*
X136048112Y-76957210D01*
X136008482Y-76945188D01*
X135884000Y-76932928D01*
X135794750Y-76936000D01*
X135636000Y-77094750D01*
X135636000Y-78044000D01*
X135656000Y-78044000D01*
X135656000Y-78298000D01*
X135636000Y-78298000D01*
X135636000Y-78318000D01*
X135382000Y-78318000D01*
X135382000Y-78298000D01*
X134112000Y-78298000D01*
X134112000Y-78318000D01*
X133858000Y-78318000D01*
X133858000Y-78298000D01*
X133838000Y-78298000D01*
X133838000Y-78044000D01*
X133858000Y-78044000D01*
X133858000Y-77094750D01*
X134112000Y-77094750D01*
X134112000Y-78044000D01*
X135382000Y-78044000D01*
X135382000Y-77094750D01*
X135223250Y-76936000D01*
X135134000Y-76932928D01*
X135009518Y-76945188D01*
X134889820Y-76981498D01*
X134779506Y-77040463D01*
X134747000Y-77067140D01*
X134714494Y-77040463D01*
X134604180Y-76981498D01*
X134484482Y-76945188D01*
X134360000Y-76932928D01*
X134270750Y-76936000D01*
X134112000Y-77094750D01*
X133858000Y-77094750D01*
X133699250Y-76936000D01*
X133610000Y-76932928D01*
X133485518Y-76945188D01*
X133365820Y-76981498D01*
X133255506Y-77040463D01*
X133158815Y-77119815D01*
X133079463Y-77216506D01*
X133020498Y-77326820D01*
X132984188Y-77446518D01*
X132971928Y-77571000D01*
X132975000Y-77885250D01*
X133133748Y-78043998D01*
X133033986Y-78043998D01*
X133017494Y-78030463D01*
X132907180Y-77971498D01*
X132787482Y-77935188D01*
X132663000Y-77922928D01*
X130663000Y-77922928D01*
X130538518Y-77935188D01*
X130418820Y-77971498D01*
X130308506Y-78030463D01*
X130211815Y-78109815D01*
X130132463Y-78206506D01*
X130073498Y-78316820D01*
X130037188Y-78436518D01*
X130024928Y-78561000D01*
X130024928Y-80061000D01*
X130037188Y-80185482D01*
X130073498Y-80305180D01*
X130132463Y-80415494D01*
X130169809Y-80461000D01*
X130132463Y-80506506D01*
X130073498Y-80616820D01*
X130037188Y-80736518D01*
X130024928Y-80861000D01*
X130028000Y-81325250D01*
X130186750Y-81484000D01*
X131536000Y-81484000D01*
X131536000Y-81464000D01*
X131790000Y-81464000D01*
X131790000Y-81484000D01*
X133139250Y-81484000D01*
X133282250Y-81341000D01*
X136065163Y-81341000D01*
X136072498Y-81365180D01*
X136131463Y-81475494D01*
X136210815Y-81572185D01*
X136241662Y-81597500D01*
X136210815Y-81622815D01*
X136131463Y-81719506D01*
X136072498Y-81829820D01*
X136048112Y-81910210D01*
X136008482Y-81898188D01*
X135884000Y-81885928D01*
X135794750Y-81889000D01*
X135636000Y-82047750D01*
X135636000Y-82997000D01*
X135656000Y-82997000D01*
X135656000Y-83251000D01*
X135636000Y-83251000D01*
X135636000Y-83271000D01*
X135382000Y-83271000D01*
X135382000Y-83251000D01*
X134112000Y-83251000D01*
X134112000Y-83271000D01*
X133858000Y-83271000D01*
X133858000Y-83251000D01*
X133838000Y-83251000D01*
X133838000Y-82997000D01*
X133858000Y-82997000D01*
X133858000Y-82047750D01*
X134112000Y-82047750D01*
X134112000Y-82997000D01*
X135382000Y-82997000D01*
X135382000Y-82047750D01*
X135223250Y-81889000D01*
X135134000Y-81885928D01*
X135009518Y-81898188D01*
X134889820Y-81934498D01*
X134779506Y-81993463D01*
X134747000Y-82020140D01*
X134714494Y-81993463D01*
X134604180Y-81934498D01*
X134484482Y-81898188D01*
X134360000Y-81885928D01*
X134270750Y-81889000D01*
X134112000Y-82047750D01*
X133858000Y-82047750D01*
X133699250Y-81889000D01*
X133610000Y-81885928D01*
X133485518Y-81898188D01*
X133365820Y-81934498D01*
X133298488Y-81970488D01*
X133298000Y-81896750D01*
X133139250Y-81738000D01*
X131790000Y-81738000D01*
X131790000Y-81758000D01*
X131536000Y-81758000D01*
X131536000Y-81738000D01*
X130186750Y-81738000D01*
X130028000Y-81896750D01*
X130024928Y-82361000D01*
X130037188Y-82485482D01*
X130073498Y-82605180D01*
X130092644Y-82641000D01*
X127442702Y-82641000D01*
X127380322Y-82634856D01*
X127317942Y-82641000D01*
X127131359Y-82659377D01*
X126999527Y-82699368D01*
X126998000Y-81896750D01*
X126839250Y-81738000D01*
X125490000Y-81738000D01*
X125490000Y-81758000D01*
X125236000Y-81758000D01*
X125236000Y-81738000D01*
X123886750Y-81738000D01*
X123728000Y-81896750D01*
X123725846Y-83028401D01*
X122333375Y-83028401D01*
X121412000Y-82107027D01*
X121412000Y-79711000D01*
X123724928Y-79711000D01*
X123728000Y-81325250D01*
X123886750Y-81484000D01*
X125236000Y-81484000D01*
X125236000Y-79234750D01*
X125490000Y-79234750D01*
X125490000Y-81484000D01*
X126839250Y-81484000D01*
X126998000Y-81325250D01*
X127001072Y-79711000D01*
X126988812Y-79586518D01*
X126952502Y-79466820D01*
X126893537Y-79356506D01*
X126814185Y-79259815D01*
X126717494Y-79180463D01*
X126607180Y-79121498D01*
X126487482Y-79085188D01*
X126363000Y-79072928D01*
X125648750Y-79076000D01*
X125490000Y-79234750D01*
X125236000Y-79234750D01*
X125077250Y-79076000D01*
X124363000Y-79072928D01*
X124238518Y-79085188D01*
X124118820Y-79121498D01*
X124008506Y-79180463D01*
X123911815Y-79259815D01*
X123832463Y-79356506D01*
X123773498Y-79466820D01*
X123737188Y-79586518D01*
X123724928Y-79711000D01*
X121412000Y-79711000D01*
X121412000Y-66054697D01*
X127138599Y-71781297D01*
G36*
X137111463Y-70263506D02*
G01*
X137052498Y-70373820D01*
X137016188Y-70493518D01*
X137003928Y-70618000D01*
X137007000Y-70707250D01*
X137165750Y-70866000D01*
X138115000Y-70866000D01*
X138115000Y-70846000D01*
X138369000Y-70846000D01*
X138369000Y-70866000D01*
X138389000Y-70866000D01*
X138389000Y-71120000D01*
X138369000Y-71120000D01*
X138369000Y-71140000D01*
X138115000Y-71140000D01*
X138115000Y-71120000D01*
X137165750Y-71120000D01*
X137007000Y-71278750D01*
X137003928Y-71368000D01*
X137016188Y-71492482D01*
X137052498Y-71612180D01*
X137111463Y-71722494D01*
X137190815Y-71819185D01*
X137259012Y-71875153D01*
X137062000Y-71873928D01*
X136937518Y-71886188D01*
X136817820Y-71922498D01*
X136718337Y-71975674D01*
X136668537Y-71882506D01*
X136589185Y-71785815D01*
X136492494Y-71706463D01*
X136382180Y-71647498D01*
X136262482Y-71611188D01*
X136138000Y-71598928D01*
X136048750Y-71602000D01*
X135890000Y-71760750D01*
X135890000Y-72710000D01*
X137552747Y-72710000D01*
X137353642Y-72770398D01*
X137253494Y-72823928D01*
X137062000Y-72823928D01*
X136937518Y-72836188D01*
X136817820Y-72872498D01*
X136707506Y-72931463D01*
X136667859Y-72964000D01*
X135890000Y-72964000D01*
X135890000Y-72984000D01*
X135636000Y-72984000D01*
X135636000Y-72964000D01*
X134911750Y-72964000D01*
X134753000Y-73122750D01*
X134751473Y-73279000D01*
X130447050Y-73279000D01*
X130436682Y-73268632D01*
X130511100Y-73241609D01*
X130618035Y-73184450D01*
X130680528Y-72948133D01*
X129921000Y-72188605D01*
X129906858Y-72202748D01*
X129727253Y-72023143D01*
X129741395Y-72009000D01*
X130100605Y-72009000D01*
X130860133Y-72768528D01*
X131096450Y-72706035D01*
X131209850Y-72463322D01*
X131265409Y-72237000D01*
X134749928Y-72237000D01*
X134753000Y-72551250D01*
X134911750Y-72710000D01*
X135636000Y-72710000D01*
X135636000Y-71760750D01*
X135477250Y-71602000D01*
X135388000Y-71598928D01*
X135263518Y-71611188D01*
X135143820Y-71647498D01*
X135033506Y-71706463D01*
X134936815Y-71785815D01*
X134857463Y-71882506D01*
X134798498Y-71992820D01*
X134762188Y-72112518D01*
X134749928Y-72237000D01*
X131265409Y-72237000D01*
X131273719Y-72203151D01*
X131285604Y-71935518D01*
X131245048Y-71670709D01*
X131153609Y-71418900D01*
X131096450Y-71311965D01*
X130860133Y-71249472D01*
X130100605Y-72009000D01*
X129741395Y-72009000D01*
X129727253Y-71994858D01*
X129906858Y-71815253D01*
X129921000Y-71829395D01*
X130680528Y-71069867D01*
X130618035Y-70833550D01*
X130415667Y-70739000D01*
X132205627Y-70739000D01*
X132268000Y-70745143D01*
X132330373Y-70739000D01*
X132330380Y-70739000D01*
X132516963Y-70720623D01*
X132756359Y-70648003D01*
X132976988Y-70530075D01*
X133170370Y-70371370D01*
X133210141Y-70322909D01*
X133352850Y-70180200D01*
X137179830Y-70180200D01*
X137111463Y-70263506D01*
X137111463Y-70263506D01*
G37*
X137111463Y-70263506D02*
X137052498Y-70373820D01*
X137016188Y-70493518D01*
X137003928Y-70618000D01*
X137007000Y-70707250D01*
X137165750Y-70866000D01*
X138115000Y-70866000D01*
X138115000Y-70846000D01*
X138369000Y-70846000D01*
X138369000Y-70866000D01*
X138389000Y-70866000D01*
X138389000Y-71120000D01*
X138369000Y-71120000D01*
X138369000Y-71140000D01*
X138115000Y-71140000D01*
X138115000Y-71120000D01*
X137165750Y-71120000D01*
X137007000Y-71278750D01*
X137003928Y-71368000D01*
X137016188Y-71492482D01*
X137052498Y-71612180D01*
X137111463Y-71722494D01*
X137190815Y-71819185D01*
X137259012Y-71875153D01*
X137062000Y-71873928D01*
X136937518Y-71886188D01*
X136817820Y-71922498D01*
X136718337Y-71975674D01*
X136668537Y-71882506D01*
X136589185Y-71785815D01*
X136492494Y-71706463D01*
X136382180Y-71647498D01*
X136262482Y-71611188D01*
X136138000Y-71598928D01*
X136048750Y-71602000D01*
X135890000Y-71760750D01*
X135890000Y-72710000D01*
X137552747Y-72710000D01*
X137353642Y-72770398D01*
X137253494Y-72823928D01*
X137062000Y-72823928D01*
X136937518Y-72836188D01*
X136817820Y-72872498D01*
X136707506Y-72931463D01*
X136667859Y-72964000D01*
X135890000Y-72964000D01*
X135890000Y-72984000D01*
X135636000Y-72984000D01*
X135636000Y-72964000D01*
X134911750Y-72964000D01*
X134753000Y-73122750D01*
X134751473Y-73279000D01*
X130447050Y-73279000D01*
X130436682Y-73268632D01*
X130511100Y-73241609D01*
X130618035Y-73184450D01*
X130680528Y-72948133D01*
X129921000Y-72188605D01*
X129906858Y-72202748D01*
X129727253Y-72023143D01*
X129741395Y-72009000D01*
X130100605Y-72009000D01*
X130860133Y-72768528D01*
X131096450Y-72706035D01*
X131209850Y-72463322D01*
X131265409Y-72237000D01*
X134749928Y-72237000D01*
X134753000Y-72551250D01*
X134911750Y-72710000D01*
X135636000Y-72710000D01*
X135636000Y-71760750D01*
X135477250Y-71602000D01*
X135388000Y-71598928D01*
X135263518Y-71611188D01*
X135143820Y-71647498D01*
X135033506Y-71706463D01*
X134936815Y-71785815D01*
X134857463Y-71882506D01*
X134798498Y-71992820D01*
X134762188Y-72112518D01*
X134749928Y-72237000D01*
X131265409Y-72237000D01*
X131273719Y-72203151D01*
X131285604Y-71935518D01*
X131245048Y-71670709D01*
X131153609Y-71418900D01*
X131096450Y-71311965D01*
X130860133Y-71249472D01*
X130100605Y-72009000D01*
X129741395Y-72009000D01*
X129727253Y-71994858D01*
X129906858Y-71815253D01*
X129921000Y-71829395D01*
X130680528Y-71069867D01*
X130618035Y-70833550D01*
X130415667Y-70739000D01*
X132205627Y-70739000D01*
X132268000Y-70745143D01*
X132330373Y-70739000D01*
X132330380Y-70739000D01*
X132516963Y-70720623D01*
X132756359Y-70648003D01*
X132976988Y-70530075D01*
X133170370Y-70371370D01*
X133210141Y-70322909D01*
X133352850Y-70180200D01*
X137179830Y-70180200D01*
X137111463Y-70263506D01*
G36*
X145288000Y-70365800D02*
G01*
X142474261Y-70365800D01*
X141099274Y-68990814D01*
X141076999Y-68963673D01*
X140968705Y-68874798D01*
X140900573Y-68838381D01*
X140958390Y-68790932D01*
X140986180Y-68782502D01*
X141096494Y-68723537D01*
X141193185Y-68644185D01*
X141272537Y-68547494D01*
X141331502Y-68437180D01*
X141367812Y-68317482D01*
X141380072Y-68193000D01*
X141380072Y-68111635D01*
X141393623Y-68066963D01*
X141412000Y-67880380D01*
X141412000Y-66928208D01*
X141446482Y-66924812D01*
X141566180Y-66888502D01*
X141612990Y-66863481D01*
X141611928Y-67024000D01*
X141624188Y-67148482D01*
X141660498Y-67268180D01*
X141719463Y-67378494D01*
X141798815Y-67475185D01*
X141895506Y-67554537D01*
X142005820Y-67613502D01*
X142125518Y-67649812D01*
X142250000Y-67662072D01*
X142589250Y-67659000D01*
X142748000Y-67500250D01*
X142748000Y-66401000D01*
X143002000Y-66401000D01*
X143002000Y-67500250D01*
X143160750Y-67659000D01*
X143500000Y-67662072D01*
X143624482Y-67649812D01*
X143744180Y-67613502D01*
X143854494Y-67554537D01*
X143951185Y-67475185D01*
X144030537Y-67378494D01*
X144089502Y-67268180D01*
X144125812Y-67148482D01*
X144138072Y-67024000D01*
X144135000Y-66559750D01*
X143976250Y-66401000D01*
X143002000Y-66401000D01*
X142748000Y-66401000D01*
X142728000Y-66401000D01*
X142728000Y-66147000D01*
X142748000Y-66147000D01*
X142748000Y-66127000D01*
X143002000Y-66127000D01*
X143002000Y-66147000D01*
X143976250Y-66147000D01*
X144135000Y-65988250D01*
X144138072Y-65524000D01*
X144125812Y-65399518D01*
X144089502Y-65279820D01*
X144030537Y-65169506D01*
X143951185Y-65072815D01*
X143891704Y-65024000D01*
X143935462Y-64988089D01*
X143984587Y-65020913D01*
X144192599Y-65107075D01*
X144413424Y-65151000D01*
X144638576Y-65151000D01*
X144859401Y-65107075D01*
X145067413Y-65020913D01*
X145254620Y-64895826D01*
X145288000Y-64862446D01*
X145288000Y-70365800D01*
X145288000Y-70365800D01*
G37*
X145288000Y-70365800D02*
X142474261Y-70365800D01*
X141099274Y-68990814D01*
X141076999Y-68963673D01*
X140968705Y-68874798D01*
X140900573Y-68838381D01*
X140958390Y-68790932D01*
X140986180Y-68782502D01*
X141096494Y-68723537D01*
X141193185Y-68644185D01*
X141272537Y-68547494D01*
X141331502Y-68437180D01*
X141367812Y-68317482D01*
X141380072Y-68193000D01*
X141380072Y-68111635D01*
X141393623Y-68066963D01*
X141412000Y-67880380D01*
X141412000Y-66928208D01*
X141446482Y-66924812D01*
X141566180Y-66888502D01*
X141612990Y-66863481D01*
X141611928Y-67024000D01*
X141624188Y-67148482D01*
X141660498Y-67268180D01*
X141719463Y-67378494D01*
X141798815Y-67475185D01*
X141895506Y-67554537D01*
X142005820Y-67613502D01*
X142125518Y-67649812D01*
X142250000Y-67662072D01*
X142589250Y-67659000D01*
X142748000Y-67500250D01*
X142748000Y-66401000D01*
X143002000Y-66401000D01*
X143002000Y-67500250D01*
X143160750Y-67659000D01*
X143500000Y-67662072D01*
X143624482Y-67649812D01*
X143744180Y-67613502D01*
X143854494Y-67554537D01*
X143951185Y-67475185D01*
X144030537Y-67378494D01*
X144089502Y-67268180D01*
X144125812Y-67148482D01*
X144138072Y-67024000D01*
X144135000Y-66559750D01*
X143976250Y-66401000D01*
X143002000Y-66401000D01*
X142748000Y-66401000D01*
X142728000Y-66401000D01*
X142728000Y-66147000D01*
X142748000Y-66147000D01*
X142748000Y-66127000D01*
X143002000Y-66127000D01*
X143002000Y-66147000D01*
X143976250Y-66147000D01*
X144135000Y-65988250D01*
X144138072Y-65524000D01*
X144125812Y-65399518D01*
X144089502Y-65279820D01*
X144030537Y-65169506D01*
X143951185Y-65072815D01*
X143891704Y-65024000D01*
X143935462Y-64988089D01*
X143984587Y-65020913D01*
X144192599Y-65107075D01*
X144413424Y-65151000D01*
X144638576Y-65151000D01*
X144859401Y-65107075D01*
X145067413Y-65020913D01*
X145254620Y-64895826D01*
X145288000Y-64862446D01*
X145288000Y-70365800D01*
G36*
X136817820Y-66888502D02*
G01*
X136937518Y-66924812D01*
X137062000Y-66937072D01*
X137257520Y-66937072D01*
X137190815Y-66991815D01*
X137111463Y-67088506D01*
X137052498Y-67198820D01*
X137016188Y-67318518D01*
X137003928Y-67443000D01*
X137007000Y-67532250D01*
X137165750Y-67691000D01*
X138115000Y-67691000D01*
X138115000Y-67671000D01*
X138369000Y-67671000D01*
X138369000Y-67691000D01*
X138389000Y-67691000D01*
X138389000Y-67945000D01*
X138369000Y-67945000D01*
X138369000Y-67965000D01*
X138115000Y-67965000D01*
X138115000Y-67945000D01*
X137165750Y-67945000D01*
X137007000Y-68103750D01*
X137003928Y-68193000D01*
X137016188Y-68317482D01*
X137052498Y-68437180D01*
X137111463Y-68547494D01*
X137190815Y-68644185D01*
X137287506Y-68723537D01*
X137351607Y-68757800D01*
X134775251Y-68757800D01*
X135592635Y-67940417D01*
X135592644Y-67940406D01*
X136364049Y-67169002D01*
X136382180Y-67163502D01*
X136492494Y-67104537D01*
X136589185Y-67025185D01*
X136668537Y-66928494D01*
X136718337Y-66835326D01*
X136817820Y-66888502D01*
X136817820Y-66888502D01*
G37*
X136817820Y-66888502D02*
X136937518Y-66924812D01*
X137062000Y-66937072D01*
X137257520Y-66937072D01*
X137190815Y-66991815D01*
X137111463Y-67088506D01*
X137052498Y-67198820D01*
X137016188Y-67318518D01*
X137003928Y-67443000D01*
X137007000Y-67532250D01*
X137165750Y-67691000D01*
X138115000Y-67691000D01*
X138115000Y-67671000D01*
X138369000Y-67671000D01*
X138369000Y-67691000D01*
X138389000Y-67691000D01*
X138389000Y-67945000D01*
X138369000Y-67945000D01*
X138369000Y-67965000D01*
X138115000Y-67965000D01*
X138115000Y-67945000D01*
X137165750Y-67945000D01*
X137007000Y-68103750D01*
X137003928Y-68193000D01*
X137016188Y-68317482D01*
X137052498Y-68437180D01*
X137111463Y-68547494D01*
X137190815Y-68644185D01*
X137287506Y-68723537D01*
X137351607Y-68757800D01*
X134775251Y-68757800D01*
X135592635Y-67940417D01*
X135592644Y-67940406D01*
X136364049Y-67169002D01*
X136382180Y-67163502D01*
X136492494Y-67104537D01*
X136589185Y-67025185D01*
X136668537Y-66928494D01*
X136718337Y-66835326D01*
X136817820Y-66888502D01*
G36*
X145288000Y-63153554D02*
G01*
X145254620Y-63120174D01*
X145067413Y-62995087D01*
X144859401Y-62908925D01*
X144638576Y-62865000D01*
X144413424Y-62865000D01*
X144192599Y-62908925D01*
X144129320Y-62935136D01*
X144125812Y-62899518D01*
X144089502Y-62779820D01*
X144030537Y-62669506D01*
X143951185Y-62572815D01*
X143854494Y-62493463D01*
X143744180Y-62434498D01*
X143624482Y-62398188D01*
X143500000Y-62385928D01*
X142250000Y-62385928D01*
X142125518Y-62398188D01*
X142005820Y-62434498D01*
X141895506Y-62493463D01*
X141798815Y-62572815D01*
X141719463Y-62669506D01*
X141660498Y-62779820D01*
X141653163Y-62804000D01*
X140479620Y-62804000D01*
X140293037Y-62822377D01*
X140053641Y-62894997D01*
X139833012Y-63012925D01*
X139706994Y-63116345D01*
X139637518Y-63123188D01*
X139517820Y-63159498D01*
X139407506Y-63218463D01*
X139310815Y-63297815D01*
X139231463Y-63394506D01*
X139192000Y-63468335D01*
X139152537Y-63394506D01*
X139073185Y-63297815D01*
X138976494Y-63218463D01*
X138866180Y-63159498D01*
X138746482Y-63123188D01*
X138622000Y-63110928D01*
X138556685Y-63110928D01*
X138499866Y-63004628D01*
X138401469Y-62884731D01*
X138371427Y-62860076D01*
X137973927Y-62462577D01*
X137949269Y-62432531D01*
X137829372Y-62334134D01*
X137692583Y-62261018D01*
X137544157Y-62215994D01*
X137428473Y-62204600D01*
X137428463Y-62204600D01*
X137389800Y-62200792D01*
X137351137Y-62204600D01*
X135360020Y-62204600D01*
X135321357Y-62200792D01*
X135282694Y-62204600D01*
X135282685Y-62204600D01*
X135167001Y-62215994D01*
X135018575Y-62261018D01*
X134881786Y-62334134D01*
X134881784Y-62334135D01*
X134881785Y-62334135D01*
X134791927Y-62407879D01*
X134791925Y-62407881D01*
X134761889Y-62432531D01*
X134737239Y-62462567D01*
X134121077Y-63078731D01*
X134091031Y-63103389D01*
X133992634Y-63223287D01*
X133919518Y-63360076D01*
X133874494Y-63508502D01*
X133863100Y-63624186D01*
X133863100Y-63624195D01*
X133859292Y-63662858D01*
X133863100Y-63701521D01*
X133863101Y-66077849D01*
X133796594Y-66144356D01*
X133796583Y-66144365D01*
X131741950Y-68199000D01*
X130408799Y-68199000D01*
X130565201Y-68134216D01*
X130787949Y-67985381D01*
X130977381Y-67795949D01*
X131126216Y-67573201D01*
X131228736Y-67325697D01*
X131281000Y-67062948D01*
X131281000Y-66795052D01*
X131228736Y-66532303D01*
X131126216Y-66284799D01*
X130977381Y-66062051D01*
X130787949Y-65872619D01*
X130565201Y-65723784D01*
X130317697Y-65621264D01*
X130054948Y-65569000D01*
X129787052Y-65569000D01*
X129524303Y-65621264D01*
X129276799Y-65723784D01*
X129054051Y-65872619D01*
X128864619Y-66062051D01*
X128715784Y-66284799D01*
X128613264Y-66532303D01*
X128561000Y-66795052D01*
X128561000Y-66954948D01*
X121412000Y-59805950D01*
X121412000Y-56022599D01*
X123813245Y-56022599D01*
X127953559Y-60162914D01*
X127993326Y-60211370D01*
X128186708Y-60370075D01*
X128407337Y-60488003D01*
X128574112Y-60538594D01*
X128646732Y-60560623D01*
X128672451Y-60563156D01*
X128833316Y-60579000D01*
X128833322Y-60579000D01*
X128895695Y-60585143D01*
X128958068Y-60579000D01*
X129433201Y-60579000D01*
X129276799Y-60643784D01*
X129054051Y-60792619D01*
X128864619Y-60982051D01*
X128715784Y-61204799D01*
X128613264Y-61452303D01*
X128561000Y-61715052D01*
X128561000Y-61982948D01*
X128613264Y-62245697D01*
X128715784Y-62493201D01*
X128864619Y-62715949D01*
X129054051Y-62905381D01*
X129276799Y-63054216D01*
X129524303Y-63156736D01*
X129787052Y-63209000D01*
X130054948Y-63209000D01*
X130317697Y-63156736D01*
X130565201Y-63054216D01*
X130787949Y-62905381D01*
X130977381Y-62715949D01*
X131126216Y-62493201D01*
X131228736Y-62245697D01*
X131281000Y-61982948D01*
X131281000Y-61715052D01*
X131228736Y-61452303D01*
X131126216Y-61204799D01*
X130977381Y-60982051D01*
X130787949Y-60792619D01*
X130565201Y-60643784D01*
X130408799Y-60579000D01*
X130565201Y-60514216D01*
X130787949Y-60365381D01*
X130977381Y-60175949D01*
X131126216Y-59953201D01*
X131228736Y-59705697D01*
X131281000Y-59442948D01*
X131281000Y-59175052D01*
X131228736Y-58912303D01*
X131126216Y-58664799D01*
X130977381Y-58442051D01*
X130787949Y-58252619D01*
X130565201Y-58103784D01*
X130408487Y-58038871D01*
X130511100Y-58001609D01*
X130618035Y-57944450D01*
X130680528Y-57708133D01*
X129921000Y-56948605D01*
X129906858Y-56962748D01*
X129727253Y-56783143D01*
X129741395Y-56769000D01*
X130100605Y-56769000D01*
X130860133Y-57528528D01*
X131096450Y-57466035D01*
X131209850Y-57223322D01*
X131273719Y-56963151D01*
X131285604Y-56695518D01*
X131245048Y-56430709D01*
X131153609Y-56178900D01*
X131096450Y-56071965D01*
X130860133Y-56009472D01*
X130100605Y-56769000D01*
X129741395Y-56769000D01*
X128981867Y-56009472D01*
X128745550Y-56071965D01*
X128632150Y-56314678D01*
X128568281Y-56574849D01*
X128556396Y-56842482D01*
X128596952Y-57107291D01*
X128657912Y-57275165D01*
X127212614Y-55829867D01*
X129161472Y-55829867D01*
X129921000Y-56589395D01*
X130680528Y-55829867D01*
X130618035Y-55593550D01*
X130375322Y-55480150D01*
X130115151Y-55416281D01*
X129847518Y-55404396D01*
X129582709Y-55444952D01*
X129330900Y-55536391D01*
X129223965Y-55593550D01*
X129161472Y-55829867D01*
X127212614Y-55829867D01*
X126119746Y-54737000D01*
X145288000Y-54737000D01*
X145288000Y-63153554D01*
X145288000Y-63153554D01*
G37*
X145288000Y-63153554D02*
X145254620Y-63120174D01*
X145067413Y-62995087D01*
X144859401Y-62908925D01*
X144638576Y-62865000D01*
X144413424Y-62865000D01*
X144192599Y-62908925D01*
X144129320Y-62935136D01*
X144125812Y-62899518D01*
X144089502Y-62779820D01*
X144030537Y-62669506D01*
X143951185Y-62572815D01*
X143854494Y-62493463D01*
X143744180Y-62434498D01*
X143624482Y-62398188D01*
X143500000Y-62385928D01*
X142250000Y-62385928D01*
X142125518Y-62398188D01*
X142005820Y-62434498D01*
X141895506Y-62493463D01*
X141798815Y-62572815D01*
X141719463Y-62669506D01*
X141660498Y-62779820D01*
X141653163Y-62804000D01*
X140479620Y-62804000D01*
X140293037Y-62822377D01*
X140053641Y-62894997D01*
X139833012Y-63012925D01*
X139706994Y-63116345D01*
X139637518Y-63123188D01*
X139517820Y-63159498D01*
X139407506Y-63218463D01*
X139310815Y-63297815D01*
X139231463Y-63394506D01*
X139192000Y-63468335D01*
X139152537Y-63394506D01*
X139073185Y-63297815D01*
X138976494Y-63218463D01*
X138866180Y-63159498D01*
X138746482Y-63123188D01*
X138622000Y-63110928D01*
X138556685Y-63110928D01*
X138499866Y-63004628D01*
X138401469Y-62884731D01*
X138371427Y-62860076D01*
X137973927Y-62462577D01*
X137949269Y-62432531D01*
X137829372Y-62334134D01*
X137692583Y-62261018D01*
X137544157Y-62215994D01*
X137428473Y-62204600D01*
X137428463Y-62204600D01*
X137389800Y-62200792D01*
X137351137Y-62204600D01*
X135360020Y-62204600D01*
X135321357Y-62200792D01*
X135282694Y-62204600D01*
X135282685Y-62204600D01*
X135167001Y-62215994D01*
X135018575Y-62261018D01*
X134881786Y-62334134D01*
X134881784Y-62334135D01*
X134881785Y-62334135D01*
X134791927Y-62407879D01*
X134791925Y-62407881D01*
X134761889Y-62432531D01*
X134737239Y-62462567D01*
X134121077Y-63078731D01*
X134091031Y-63103389D01*
X133992634Y-63223287D01*
X133919518Y-63360076D01*
X133874494Y-63508502D01*
X133863100Y-63624186D01*
X133863100Y-63624195D01*
X133859292Y-63662858D01*
X133863100Y-63701521D01*
X133863101Y-66077849D01*
X133796594Y-66144356D01*
X133796583Y-66144365D01*
X131741950Y-68199000D01*
X130408799Y-68199000D01*
X130565201Y-68134216D01*
X130787949Y-67985381D01*
X130977381Y-67795949D01*
X131126216Y-67573201D01*
X131228736Y-67325697D01*
X131281000Y-67062948D01*
X131281000Y-66795052D01*
X131228736Y-66532303D01*
X131126216Y-66284799D01*
X130977381Y-66062051D01*
X130787949Y-65872619D01*
X130565201Y-65723784D01*
X130317697Y-65621264D01*
X130054948Y-65569000D01*
X129787052Y-65569000D01*
X129524303Y-65621264D01*
X129276799Y-65723784D01*
X129054051Y-65872619D01*
X128864619Y-66062051D01*
X128715784Y-66284799D01*
X128613264Y-66532303D01*
X128561000Y-66795052D01*
X128561000Y-66954948D01*
X121412000Y-59805950D01*
X121412000Y-56022599D01*
X123813245Y-56022599D01*
X127953559Y-60162914D01*
X127993326Y-60211370D01*
X128186708Y-60370075D01*
X128407337Y-60488003D01*
X128574112Y-60538594D01*
X128646732Y-60560623D01*
X128672451Y-60563156D01*
X128833316Y-60579000D01*
X128833322Y-60579000D01*
X128895695Y-60585143D01*
X128958068Y-60579000D01*
X129433201Y-60579000D01*
X129276799Y-60643784D01*
X129054051Y-60792619D01*
X128864619Y-60982051D01*
X128715784Y-61204799D01*
X128613264Y-61452303D01*
X128561000Y-61715052D01*
X128561000Y-61982948D01*
X128613264Y-62245697D01*
X128715784Y-62493201D01*
X128864619Y-62715949D01*
X129054051Y-62905381D01*
X129276799Y-63054216D01*
X129524303Y-63156736D01*
X129787052Y-63209000D01*
X130054948Y-63209000D01*
X130317697Y-63156736D01*
X130565201Y-63054216D01*
X130787949Y-62905381D01*
X130977381Y-62715949D01*
X131126216Y-62493201D01*
X131228736Y-62245697D01*
X131281000Y-61982948D01*
X131281000Y-61715052D01*
X131228736Y-61452303D01*
X131126216Y-61204799D01*
X130977381Y-60982051D01*
X130787949Y-60792619D01*
X130565201Y-60643784D01*
X130408799Y-60579000D01*
X130565201Y-60514216D01*
X130787949Y-60365381D01*
X130977381Y-60175949D01*
X131126216Y-59953201D01*
X131228736Y-59705697D01*
X131281000Y-59442948D01*
X131281000Y-59175052D01*
X131228736Y-58912303D01*
X131126216Y-58664799D01*
X130977381Y-58442051D01*
X130787949Y-58252619D01*
X130565201Y-58103784D01*
X130408487Y-58038871D01*
X130511100Y-58001609D01*
X130618035Y-57944450D01*
X130680528Y-57708133D01*
X129921000Y-56948605D01*
X129906858Y-56962748D01*
X129727253Y-56783143D01*
X129741395Y-56769000D01*
X130100605Y-56769000D01*
X130860133Y-57528528D01*
X131096450Y-57466035D01*
X131209850Y-57223322D01*
X131273719Y-56963151D01*
X131285604Y-56695518D01*
X131245048Y-56430709D01*
X131153609Y-56178900D01*
X131096450Y-56071965D01*
X130860133Y-56009472D01*
X130100605Y-56769000D01*
X129741395Y-56769000D01*
X128981867Y-56009472D01*
X128745550Y-56071965D01*
X128632150Y-56314678D01*
X128568281Y-56574849D01*
X128556396Y-56842482D01*
X128596952Y-57107291D01*
X128657912Y-57275165D01*
X127212614Y-55829867D01*
X129161472Y-55829867D01*
X129921000Y-56589395D01*
X130680528Y-55829867D01*
X130618035Y-55593550D01*
X130375322Y-55480150D01*
X130115151Y-55416281D01*
X129847518Y-55404396D01*
X129582709Y-55444952D01*
X129330900Y-55536391D01*
X129223965Y-55593550D01*
X129161472Y-55829867D01*
X127212614Y-55829867D01*
X126119746Y-54737000D01*
X145288000Y-54737000D01*
X145288000Y-63153554D01*
G36*
X139310815Y-64850185D02*
G01*
X139407506Y-64929537D01*
X139517820Y-64988502D01*
X139634841Y-65024000D01*
X139517820Y-65059498D01*
X139407506Y-65118463D01*
X139310815Y-65197815D01*
X139236103Y-65288853D01*
X139098250Y-65151000D01*
X139016141Y-65151000D01*
X138976494Y-65118463D01*
X138866180Y-65059498D01*
X138749159Y-65024000D01*
X138866180Y-64988502D01*
X138976494Y-64929537D01*
X139016141Y-64897000D01*
X139098250Y-64897000D01*
X139236103Y-64759147D01*
X139310815Y-64850185D01*
X139310815Y-64850185D01*
G37*
X139310815Y-64850185D02*
X139407506Y-64929537D01*
X139517820Y-64988502D01*
X139634841Y-65024000D01*
X139517820Y-65059498D01*
X139407506Y-65118463D01*
X139310815Y-65197815D01*
X139236103Y-65288853D01*
X139098250Y-65151000D01*
X139016141Y-65151000D01*
X138976494Y-65118463D01*
X138866180Y-65059498D01*
X138749159Y-65024000D01*
X138866180Y-64988502D01*
X138976494Y-64929537D01*
X139016141Y-64897000D01*
X139098250Y-64897000D01*
X139236103Y-64759147D01*
X139310815Y-64850185D01*
G36*
X135890000Y-63947000D02*
G01*
X135910000Y-63947000D01*
X135910000Y-64201000D01*
X135890000Y-64201000D01*
X135890000Y-64221000D01*
X135636000Y-64221000D01*
X135636000Y-64201000D01*
X135616000Y-64201000D01*
X135616000Y-63947000D01*
X135636000Y-63947000D01*
X135636000Y-63927000D01*
X135890000Y-63927000D01*
X135890000Y-63947000D01*
X135890000Y-63947000D01*
G37*
X135890000Y-63947000D02*
X135910000Y-63947000D01*
X135910000Y-64201000D01*
X135890000Y-64201000D01*
X135890000Y-64221000D01*
X135636000Y-64221000D01*
X135636000Y-64201000D01*
X135616000Y-64201000D01*
X135616000Y-63947000D01*
X135636000Y-63947000D01*
X135636000Y-63927000D01*
X135890000Y-63927000D01*
X135890000Y-63947000D01*
M02*
