G04 #@! TF.GenerationSoftware,KiCad,Pcbnew,(5.1.5)-3*
G04 #@! TF.CreationDate,2020-03-31T12:47:09-05:00*
G04 #@! TF.ProjectId,digital_pcb,64696769-7461-46c5-9f70-63622e6b6963,rev?*
G04 #@! TF.SameCoordinates,Original*
G04 #@! TF.FileFunction,Legend,Bot*
G04 #@! TF.FilePolarity,Positive*
%FSLAX46Y46*%
G04 Gerber Fmt 4.6, Leading zero omitted, Abs format (unit mm)*
G04 Created by KiCad (PCBNEW (5.1.5)-3) date 2020-03-31 12:47:09*
%MOMM*%
%LPD*%
G04 APERTURE LIST*
%ADD10C,0.150000*%
G04 APERTURE END LIST*
D10*
X185597585Y-92628980D02*
X185597585Y-91628980D01*
X185216633Y-91628980D01*
X185121395Y-91676600D01*
X185073776Y-91724219D01*
X185026157Y-91819457D01*
X185026157Y-91962314D01*
X185073776Y-92057552D01*
X185121395Y-92105171D01*
X185216633Y-92152790D01*
X185597585Y-92152790D01*
X184264252Y-92105171D02*
X184121395Y-92152790D01*
X184073776Y-92200409D01*
X184026157Y-92295647D01*
X184026157Y-92438504D01*
X184073776Y-92533742D01*
X184121395Y-92581361D01*
X184216633Y-92628980D01*
X184597585Y-92628980D01*
X184597585Y-91628980D01*
X184264252Y-91628980D01*
X184169014Y-91676600D01*
X184121395Y-91724219D01*
X184073776Y-91819457D01*
X184073776Y-91914695D01*
X184121395Y-92009933D01*
X184169014Y-92057552D01*
X184264252Y-92105171D01*
X184597585Y-92105171D01*
X183073776Y-92628980D02*
X183645204Y-92628980D01*
X183359490Y-92628980D02*
X183359490Y-91628980D01*
X183454728Y-91771838D01*
X183549966Y-91867076D01*
X183645204Y-91914695D01*
X182169014Y-91628980D02*
X182645204Y-91628980D01*
X182692823Y-92105171D01*
X182645204Y-92057552D01*
X182549966Y-92009933D01*
X182311871Y-92009933D01*
X182216633Y-92057552D01*
X182169014Y-92105171D01*
X182121395Y-92200409D01*
X182121395Y-92438504D01*
X182169014Y-92533742D01*
X182216633Y-92581361D01*
X182311871Y-92628980D01*
X182549966Y-92628980D01*
X182645204Y-92581361D01*
X182692823Y-92533742D01*
X185597585Y-95181680D02*
X185597585Y-94181680D01*
X185216633Y-94181680D01*
X185121395Y-94229300D01*
X185073776Y-94276919D01*
X185026157Y-94372157D01*
X185026157Y-94515014D01*
X185073776Y-94610252D01*
X185121395Y-94657871D01*
X185216633Y-94705490D01*
X185597585Y-94705490D01*
X184264252Y-94657871D02*
X184121395Y-94705490D01*
X184073776Y-94753109D01*
X184026157Y-94848347D01*
X184026157Y-94991204D01*
X184073776Y-95086442D01*
X184121395Y-95134061D01*
X184216633Y-95181680D01*
X184597585Y-95181680D01*
X184597585Y-94181680D01*
X184264252Y-94181680D01*
X184169014Y-94229300D01*
X184121395Y-94276919D01*
X184073776Y-94372157D01*
X184073776Y-94467395D01*
X184121395Y-94562633D01*
X184169014Y-94610252D01*
X184264252Y-94657871D01*
X184597585Y-94657871D01*
X183073776Y-95181680D02*
X183645204Y-95181680D01*
X183359490Y-95181680D02*
X183359490Y-94181680D01*
X183454728Y-94324538D01*
X183549966Y-94419776D01*
X183645204Y-94467395D01*
X182216633Y-94515014D02*
X182216633Y-95181680D01*
X182454728Y-94134061D02*
X182692823Y-94848347D01*
X182073776Y-94848347D01*
X185597585Y-97747080D02*
X185597585Y-96747080D01*
X185216633Y-96747080D01*
X185121395Y-96794700D01*
X185073776Y-96842319D01*
X185026157Y-96937557D01*
X185026157Y-97080414D01*
X185073776Y-97175652D01*
X185121395Y-97223271D01*
X185216633Y-97270890D01*
X185597585Y-97270890D01*
X184264252Y-97223271D02*
X184121395Y-97270890D01*
X184073776Y-97318509D01*
X184026157Y-97413747D01*
X184026157Y-97556604D01*
X184073776Y-97651842D01*
X184121395Y-97699461D01*
X184216633Y-97747080D01*
X184597585Y-97747080D01*
X184597585Y-96747080D01*
X184264252Y-96747080D01*
X184169014Y-96794700D01*
X184121395Y-96842319D01*
X184073776Y-96937557D01*
X184073776Y-97032795D01*
X184121395Y-97128033D01*
X184169014Y-97175652D01*
X184264252Y-97223271D01*
X184597585Y-97223271D01*
X183073776Y-97747080D02*
X183645204Y-97747080D01*
X183359490Y-97747080D02*
X183359490Y-96747080D01*
X183454728Y-96889938D01*
X183549966Y-96985176D01*
X183645204Y-97032795D01*
X182740442Y-96747080D02*
X182121395Y-96747080D01*
X182454728Y-97128033D01*
X182311871Y-97128033D01*
X182216633Y-97175652D01*
X182169014Y-97223271D01*
X182121395Y-97318509D01*
X182121395Y-97556604D01*
X182169014Y-97651842D01*
X182216633Y-97699461D01*
X182311871Y-97747080D01*
X182597585Y-97747080D01*
X182692823Y-97699461D01*
X182740442Y-97651842D01*
X185597585Y-100274380D02*
X185597585Y-99274380D01*
X185216633Y-99274380D01*
X185121395Y-99322000D01*
X185073776Y-99369619D01*
X185026157Y-99464857D01*
X185026157Y-99607714D01*
X185073776Y-99702952D01*
X185121395Y-99750571D01*
X185216633Y-99798190D01*
X185597585Y-99798190D01*
X184264252Y-99750571D02*
X184121395Y-99798190D01*
X184073776Y-99845809D01*
X184026157Y-99941047D01*
X184026157Y-100083904D01*
X184073776Y-100179142D01*
X184121395Y-100226761D01*
X184216633Y-100274380D01*
X184597585Y-100274380D01*
X184597585Y-99274380D01*
X184264252Y-99274380D01*
X184169014Y-99322000D01*
X184121395Y-99369619D01*
X184073776Y-99464857D01*
X184073776Y-99560095D01*
X184121395Y-99655333D01*
X184169014Y-99702952D01*
X184264252Y-99750571D01*
X184597585Y-99750571D01*
X183073776Y-100274380D02*
X183645204Y-100274380D01*
X183359490Y-100274380D02*
X183359490Y-99274380D01*
X183454728Y-99417238D01*
X183549966Y-99512476D01*
X183645204Y-99560095D01*
X182692823Y-99369619D02*
X182645204Y-99322000D01*
X182549966Y-99274380D01*
X182311871Y-99274380D01*
X182216633Y-99322000D01*
X182169014Y-99369619D01*
X182121395Y-99464857D01*
X182121395Y-99560095D01*
X182169014Y-99702952D01*
X182740442Y-100274380D01*
X182121395Y-100274380D01*
X177544480Y-83915404D02*
X177544480Y-84534452D01*
X177925433Y-84201119D01*
X177925433Y-84343976D01*
X177973052Y-84439214D01*
X178020671Y-84486833D01*
X178115909Y-84534452D01*
X178354004Y-84534452D01*
X178449242Y-84486833D01*
X178496861Y-84439214D01*
X178544480Y-84343976D01*
X178544480Y-84058261D01*
X178496861Y-83963023D01*
X178449242Y-83915404D01*
X177544480Y-84820166D02*
X178544480Y-85153500D01*
X177544480Y-85486833D01*
X177544480Y-85724928D02*
X177544480Y-86343976D01*
X177925433Y-86010642D01*
X177925433Y-86153500D01*
X177973052Y-86248738D01*
X178020671Y-86296357D01*
X178115909Y-86343976D01*
X178354004Y-86343976D01*
X178449242Y-86296357D01*
X178496861Y-86248738D01*
X178544480Y-86153500D01*
X178544480Y-85867785D01*
X178496861Y-85772547D01*
X178449242Y-85724928D01*
X175931461Y-82158152D02*
X175979080Y-82301009D01*
X175979080Y-82539104D01*
X175931461Y-82634342D01*
X175883842Y-82681961D01*
X175788604Y-82729580D01*
X175693366Y-82729580D01*
X175598128Y-82681961D01*
X175550509Y-82634342D01*
X175502890Y-82539104D01*
X175455271Y-82348628D01*
X175407652Y-82253390D01*
X175360033Y-82205771D01*
X175264795Y-82158152D01*
X175169557Y-82158152D01*
X175074319Y-82205771D01*
X175026700Y-82253390D01*
X174979080Y-82348628D01*
X174979080Y-82586723D01*
X175026700Y-82729580D01*
X174979080Y-83062914D02*
X175979080Y-83301009D01*
X175264795Y-83491485D01*
X175979080Y-83681961D01*
X174979080Y-83920057D01*
X175979080Y-84301009D02*
X174979080Y-84301009D01*
X174979080Y-84539104D01*
X175026700Y-84681961D01*
X175121938Y-84777200D01*
X175217176Y-84824819D01*
X175407652Y-84872438D01*
X175550509Y-84872438D01*
X175740985Y-84824819D01*
X175836223Y-84777200D01*
X175931461Y-84681961D01*
X175979080Y-84539104D01*
X175979080Y-84301009D01*
X175979080Y-85301009D02*
X174979080Y-85301009D01*
X174979080Y-85967676D02*
X174979080Y-86158152D01*
X175026700Y-86253390D01*
X175121938Y-86348628D01*
X175312414Y-86396247D01*
X175645747Y-86396247D01*
X175836223Y-86348628D01*
X175931461Y-86253390D01*
X175979080Y-86158152D01*
X175979080Y-85967676D01*
X175931461Y-85872438D01*
X175836223Y-85777200D01*
X175645747Y-85729580D01*
X175312414Y-85729580D01*
X175121938Y-85777200D01*
X175026700Y-85872438D01*
X174979080Y-85967676D01*
X173378761Y-81862895D02*
X173426380Y-82005752D01*
X173426380Y-82243847D01*
X173378761Y-82339085D01*
X173331142Y-82386704D01*
X173235904Y-82434323D01*
X173140666Y-82434323D01*
X173045428Y-82386704D01*
X172997809Y-82339085D01*
X172950190Y-82243847D01*
X172902571Y-82053371D01*
X172854952Y-81958133D01*
X172807333Y-81910514D01*
X172712095Y-81862895D01*
X172616857Y-81862895D01*
X172521619Y-81910514D01*
X172474000Y-81958133D01*
X172426380Y-82053371D01*
X172426380Y-82291466D01*
X172474000Y-82434323D01*
X172426380Y-82767657D02*
X173426380Y-83005752D01*
X172712095Y-83196228D01*
X173426380Y-83386704D01*
X172426380Y-83624800D01*
X173331142Y-84577180D02*
X173378761Y-84529561D01*
X173426380Y-84386704D01*
X173426380Y-84291466D01*
X173378761Y-84148609D01*
X173283523Y-84053371D01*
X173188285Y-84005752D01*
X172997809Y-83958133D01*
X172854952Y-83958133D01*
X172664476Y-84005752D01*
X172569238Y-84053371D01*
X172474000Y-84148609D01*
X172426380Y-84291466D01*
X172426380Y-84386704D01*
X172474000Y-84529561D01*
X172521619Y-84577180D01*
X173426380Y-85481942D02*
X173426380Y-85005752D01*
X172426380Y-85005752D01*
X173426380Y-85815276D02*
X172426380Y-85815276D01*
X173426380Y-86386704D02*
X172854952Y-85958133D01*
X172426380Y-86386704D02*
X172997809Y-85815276D01*
X169946700Y-84289995D02*
X169899080Y-84194757D01*
X169899080Y-84051900D01*
X169946700Y-83909042D01*
X170041938Y-83813804D01*
X170137176Y-83766185D01*
X170327652Y-83718566D01*
X170470509Y-83718566D01*
X170660985Y-83766185D01*
X170756223Y-83813804D01*
X170851461Y-83909042D01*
X170899080Y-84051900D01*
X170899080Y-84147138D01*
X170851461Y-84289995D01*
X170803842Y-84337614D01*
X170470509Y-84337614D01*
X170470509Y-84147138D01*
X170899080Y-84766185D02*
X169899080Y-84766185D01*
X170899080Y-85337614D01*
X169899080Y-85337614D01*
X170899080Y-85813804D02*
X169899080Y-85813804D01*
X169899080Y-86051900D01*
X169946700Y-86194757D01*
X170041938Y-86289995D01*
X170137176Y-86337614D01*
X170327652Y-86385233D01*
X170470509Y-86385233D01*
X170660985Y-86337614D01*
X170756223Y-86289995D01*
X170851461Y-86194757D01*
X170899080Y-86051900D01*
X170899080Y-85813804D01*
X121851680Y-90329095D02*
X120851680Y-90329095D01*
X120851680Y-90710047D01*
X120899300Y-90805285D01*
X120946919Y-90852904D01*
X121042157Y-90900523D01*
X121185014Y-90900523D01*
X121280252Y-90852904D01*
X121327871Y-90805285D01*
X121375490Y-90710047D01*
X121375490Y-90329095D01*
X120851680Y-91233857D02*
X121851680Y-91471952D01*
X121137395Y-91662428D01*
X121851680Y-91852904D01*
X120851680Y-92091000D01*
X121851680Y-93043380D02*
X121375490Y-92710047D01*
X121851680Y-92471952D02*
X120851680Y-92471952D01*
X120851680Y-92852904D01*
X120899300Y-92948142D01*
X120946919Y-92995761D01*
X121042157Y-93043380D01*
X121185014Y-93043380D01*
X121280252Y-92995761D01*
X121327871Y-92948142D01*
X121375490Y-92852904D01*
X121375490Y-92471952D01*
X121804061Y-94186238D02*
X121851680Y-94329095D01*
X121851680Y-94567190D01*
X121804061Y-94662428D01*
X121756442Y-94710047D01*
X121661204Y-94757666D01*
X121565966Y-94757666D01*
X121470728Y-94710047D01*
X121423109Y-94662428D01*
X121375490Y-94567190D01*
X121327871Y-94376714D01*
X121280252Y-94281476D01*
X121232633Y-94233857D01*
X121137395Y-94186238D01*
X121042157Y-94186238D01*
X120946919Y-94233857D01*
X120899300Y-94281476D01*
X120851680Y-94376714D01*
X120851680Y-94614809D01*
X120899300Y-94757666D01*
X120851680Y-95091000D02*
X121851680Y-95329095D01*
X121137395Y-95519571D01*
X121851680Y-95710047D01*
X120851680Y-95948142D01*
X122658095Y-102074671D02*
X122515238Y-102122290D01*
X122467619Y-102169909D01*
X122420000Y-102265147D01*
X122420000Y-102408004D01*
X122467619Y-102503242D01*
X122515238Y-102550861D01*
X122610476Y-102598480D01*
X122991428Y-102598480D01*
X122991428Y-101598480D01*
X122658095Y-101598480D01*
X122562857Y-101646100D01*
X122515238Y-101693719D01*
X122467619Y-101788957D01*
X122467619Y-101884195D01*
X122515238Y-101979433D01*
X122562857Y-102027052D01*
X122658095Y-102074671D01*
X122991428Y-102074671D01*
X122039047Y-102312766D02*
X121562857Y-102312766D01*
X122134285Y-102598480D02*
X121800952Y-101598480D01*
X121467619Y-102598480D01*
X121277142Y-101598480D02*
X120705714Y-101598480D01*
X120991428Y-102598480D02*
X120991428Y-101598480D01*
X122885104Y-99093400D02*
X122980342Y-99045780D01*
X123123200Y-99045780D01*
X123266057Y-99093400D01*
X123361295Y-99188638D01*
X123408914Y-99283876D01*
X123456533Y-99474352D01*
X123456533Y-99617209D01*
X123408914Y-99807685D01*
X123361295Y-99902923D01*
X123266057Y-99998161D01*
X123123200Y-100045780D01*
X123027961Y-100045780D01*
X122885104Y-99998161D01*
X122837485Y-99950542D01*
X122837485Y-99617209D01*
X123027961Y-99617209D01*
X122408914Y-100045780D02*
X122408914Y-99045780D01*
X121837485Y-100045780D01*
X121837485Y-99045780D01*
X121361295Y-100045780D02*
X121361295Y-99045780D01*
X121123200Y-99045780D01*
X120980342Y-99093400D01*
X120885104Y-99188638D01*
X120837485Y-99283876D01*
X120789866Y-99474352D01*
X120789866Y-99617209D01*
X120837485Y-99807685D01*
X120885104Y-99902923D01*
X120980342Y-99998161D01*
X121123200Y-100045780D01*
X121361295Y-100045780D01*
X126834519Y-84608966D02*
X126358328Y-84608966D01*
X126929757Y-84894680D02*
X126596423Y-83894680D01*
X126263090Y-84894680D01*
X125929757Y-84894680D02*
X125929757Y-83894680D01*
X125358328Y-84894680D01*
X125358328Y-83894680D01*
X125024995Y-83894680D02*
X124453566Y-83894680D01*
X124739280Y-84894680D02*
X124739280Y-83894680D01*
X122834519Y-83942300D02*
X122929757Y-83894680D01*
X123072614Y-83894680D01*
X123215471Y-83942300D01*
X123310709Y-84037538D01*
X123358328Y-84132776D01*
X123405947Y-84323252D01*
X123405947Y-84466109D01*
X123358328Y-84656585D01*
X123310709Y-84751823D01*
X123215471Y-84847061D01*
X123072614Y-84894680D01*
X122977376Y-84894680D01*
X122834519Y-84847061D01*
X122786900Y-84799442D01*
X122786900Y-84466109D01*
X122977376Y-84466109D01*
X122358328Y-84894680D02*
X122358328Y-83894680D01*
X121786900Y-84894680D01*
X121786900Y-83894680D01*
X121310709Y-84894680D02*
X121310709Y-83894680D01*
X121072614Y-83894680D01*
X120929757Y-83942300D01*
X120834519Y-84037538D01*
X120786900Y-84132776D01*
X120739280Y-84323252D01*
X120739280Y-84466109D01*
X120786900Y-84656585D01*
X120834519Y-84751823D01*
X120929757Y-84847061D01*
X121072614Y-84894680D01*
X121310709Y-84894680D01*
X122821604Y-86495000D02*
X122916842Y-86447380D01*
X123059700Y-86447380D01*
X123202557Y-86495000D01*
X123297795Y-86590238D01*
X123345414Y-86685476D01*
X123393033Y-86875952D01*
X123393033Y-87018809D01*
X123345414Y-87209285D01*
X123297795Y-87304523D01*
X123202557Y-87399761D01*
X123059700Y-87447380D01*
X122964461Y-87447380D01*
X122821604Y-87399761D01*
X122773985Y-87352142D01*
X122773985Y-87018809D01*
X122964461Y-87018809D01*
X122345414Y-87447380D02*
X122345414Y-86447380D01*
X121773985Y-87447380D01*
X121773985Y-86447380D01*
X121297795Y-87447380D02*
X121297795Y-86447380D01*
X121059700Y-86447380D01*
X120916842Y-86495000D01*
X120821604Y-86590238D01*
X120773985Y-86685476D01*
X120726366Y-86875952D01*
X120726366Y-87018809D01*
X120773985Y-87209285D01*
X120821604Y-87304523D01*
X120916842Y-87399761D01*
X121059700Y-87447380D01*
X121297795Y-87447380D01*
X122375514Y-79713080D02*
X122375514Y-78713080D01*
X121804085Y-79713080D01*
X121804085Y-78713080D01*
X120756466Y-79617842D02*
X120804085Y-79665461D01*
X120946942Y-79713080D01*
X121042180Y-79713080D01*
X121185038Y-79665461D01*
X121280276Y-79570223D01*
X121327895Y-79474985D01*
X121375514Y-79284509D01*
X121375514Y-79141652D01*
X121327895Y-78951176D01*
X121280276Y-78855938D01*
X121185038Y-78760700D01*
X121042180Y-78713080D01*
X120946942Y-78713080D01*
X120804085Y-78760700D01*
X120756466Y-78808319D01*
X122375514Y-77173080D02*
X122375514Y-76173080D01*
X121804085Y-77173080D01*
X121804085Y-76173080D01*
X120756466Y-77077842D02*
X120804085Y-77125461D01*
X120946942Y-77173080D01*
X121042180Y-77173080D01*
X121185038Y-77125461D01*
X121280276Y-77030223D01*
X121327895Y-76934985D01*
X121375514Y-76744509D01*
X121375514Y-76601652D01*
X121327895Y-76411176D01*
X121280276Y-76315938D01*
X121185038Y-76220700D01*
X121042180Y-76173080D01*
X120946942Y-76173080D01*
X120804085Y-76220700D01*
X120756466Y-76268319D01*
X122375514Y-74607680D02*
X122375514Y-73607680D01*
X121804085Y-74607680D01*
X121804085Y-73607680D01*
X120756466Y-74512442D02*
X120804085Y-74560061D01*
X120946942Y-74607680D01*
X121042180Y-74607680D01*
X121185038Y-74560061D01*
X121280276Y-74464823D01*
X121327895Y-74369585D01*
X121375514Y-74179109D01*
X121375514Y-74036252D01*
X121327895Y-73845776D01*
X121280276Y-73750538D01*
X121185038Y-73655300D01*
X121042180Y-73607680D01*
X120946942Y-73607680D01*
X120804085Y-73655300D01*
X120756466Y-73702919D01*
X122375514Y-72080380D02*
X122375514Y-71080380D01*
X121804085Y-72080380D01*
X121804085Y-71080380D01*
X120756466Y-71985142D02*
X120804085Y-72032761D01*
X120946942Y-72080380D01*
X121042180Y-72080380D01*
X121185038Y-72032761D01*
X121280276Y-71937523D01*
X121327895Y-71842285D01*
X121375514Y-71651809D01*
X121375514Y-71508952D01*
X121327895Y-71318476D01*
X121280276Y-71223238D01*
X121185038Y-71128000D01*
X121042180Y-71080380D01*
X120946942Y-71080380D01*
X120804085Y-71128000D01*
X120756466Y-71175619D01*
X122859704Y-68588000D02*
X122954942Y-68540380D01*
X123097800Y-68540380D01*
X123240657Y-68588000D01*
X123335895Y-68683238D01*
X123383514Y-68778476D01*
X123431133Y-68968952D01*
X123431133Y-69111809D01*
X123383514Y-69302285D01*
X123335895Y-69397523D01*
X123240657Y-69492761D01*
X123097800Y-69540380D01*
X123002561Y-69540380D01*
X122859704Y-69492761D01*
X122812085Y-69445142D01*
X122812085Y-69111809D01*
X123002561Y-69111809D01*
X122383514Y-69540380D02*
X122383514Y-68540380D01*
X121812085Y-69540380D01*
X121812085Y-68540380D01*
X121335895Y-69540380D02*
X121335895Y-68540380D01*
X121097800Y-68540380D01*
X120954942Y-68588000D01*
X120859704Y-68683238D01*
X120812085Y-68778476D01*
X120764466Y-68968952D01*
X120764466Y-69111809D01*
X120812085Y-69302285D01*
X120859704Y-69397523D01*
X120954942Y-69492761D01*
X121097800Y-69540380D01*
X121335895Y-69540380D01*
X126944047Y-66701966D02*
X126467857Y-66701966D01*
X127039285Y-66987680D02*
X126705952Y-65987680D01*
X126372619Y-66987680D01*
X126039285Y-66987680D02*
X126039285Y-65987680D01*
X125705952Y-66701966D01*
X125372619Y-65987680D01*
X125372619Y-66987680D01*
X124896428Y-66987680D02*
X124896428Y-65987680D01*
X124515476Y-65987680D01*
X124420238Y-66035300D01*
X124372619Y-66082919D01*
X124325000Y-66178157D01*
X124325000Y-66321014D01*
X124372619Y-66416252D01*
X124420238Y-66463871D01*
X124515476Y-66511490D01*
X124896428Y-66511490D01*
X122944047Y-65987680D02*
X122753571Y-65987680D01*
X122658333Y-66035300D01*
X122563095Y-66130538D01*
X122515476Y-66321014D01*
X122515476Y-66654347D01*
X122563095Y-66844823D01*
X122658333Y-66940061D01*
X122753571Y-66987680D01*
X122944047Y-66987680D01*
X123039285Y-66940061D01*
X123134523Y-66844823D01*
X123182142Y-66654347D01*
X123182142Y-66321014D01*
X123134523Y-66130538D01*
X123039285Y-66035300D01*
X122944047Y-65987680D01*
X122086904Y-65987680D02*
X122086904Y-66797204D01*
X122039285Y-66892442D01*
X121991666Y-66940061D01*
X121896428Y-66987680D01*
X121705952Y-66987680D01*
X121610714Y-66940061D01*
X121563095Y-66892442D01*
X121515476Y-66797204D01*
X121515476Y-65987680D01*
X121182142Y-65987680D02*
X120610714Y-65987680D01*
X120896428Y-66987680D02*
X120896428Y-65987680D01*
X123177157Y-64187366D02*
X122700966Y-64187366D01*
X123272395Y-64473080D02*
X122939061Y-63473080D01*
X122605728Y-64473080D01*
X122272395Y-64473080D02*
X122272395Y-63473080D01*
X121700966Y-64473080D01*
X121700966Y-63473080D01*
X121367633Y-63473080D02*
X120796204Y-63473080D01*
X121081919Y-64473080D02*
X121081919Y-63473080D01*
X122535842Y-61552128D02*
X121773938Y-61552128D01*
X120821557Y-60933080D02*
X121297747Y-60933080D01*
X121345366Y-61409271D01*
X121297747Y-61361652D01*
X121202509Y-61314033D01*
X120964414Y-61314033D01*
X120869176Y-61361652D01*
X120821557Y-61409271D01*
X120773938Y-61504509D01*
X120773938Y-61742604D01*
X120821557Y-61837842D01*
X120869176Y-61885461D01*
X120964414Y-61933080D01*
X121202509Y-61933080D01*
X121297747Y-61885461D01*
X121345366Y-61837842D01*
X122485042Y-58999428D02*
X121723138Y-58999428D01*
X122104090Y-59380380D02*
X122104090Y-58618476D01*
X120770757Y-58380380D02*
X121246947Y-58380380D01*
X121294566Y-58856571D01*
X121246947Y-58808952D01*
X121151709Y-58761333D01*
X120913614Y-58761333D01*
X120818376Y-58808952D01*
X120770757Y-58856571D01*
X120723138Y-58951809D01*
X120723138Y-59189904D01*
X120770757Y-59285142D01*
X120818376Y-59332761D01*
X120913614Y-59380380D01*
X121151709Y-59380380D01*
X121246947Y-59332761D01*
X121294566Y-59285142D01*
X122783504Y-55913400D02*
X122878742Y-55865780D01*
X123021600Y-55865780D01*
X123164457Y-55913400D01*
X123259695Y-56008638D01*
X123307314Y-56103876D01*
X123354933Y-56294352D01*
X123354933Y-56437209D01*
X123307314Y-56627685D01*
X123259695Y-56722923D01*
X123164457Y-56818161D01*
X123021600Y-56865780D01*
X122926361Y-56865780D01*
X122783504Y-56818161D01*
X122735885Y-56770542D01*
X122735885Y-56437209D01*
X122926361Y-56437209D01*
X122307314Y-56865780D02*
X122307314Y-55865780D01*
X121735885Y-56865780D01*
X121735885Y-55865780D01*
X121259695Y-56865780D02*
X121259695Y-55865780D01*
X121021600Y-55865780D01*
X120878742Y-55913400D01*
X120783504Y-56008638D01*
X120735885Y-56103876D01*
X120688266Y-56294352D01*
X120688266Y-56437209D01*
X120735885Y-56627685D01*
X120783504Y-56722923D01*
X120878742Y-56818161D01*
X121021600Y-56865780D01*
X121259695Y-56865780D01*
M02*
