G04 #@! TF.GenerationSoftware,KiCad,Pcbnew,(5.1.5)-3*
G04 #@! TF.CreationDate,2020-03-31T14:54:24-05:00*
G04 #@! TF.ProjectId,digital_pcb,64696769-7461-46c5-9f70-63622e6b6963,rev?*
G04 #@! TF.SameCoordinates,Original*
G04 #@! TF.FileFunction,Paste,Top*
G04 #@! TF.FilePolarity,Positive*
%FSLAX46Y46*%
G04 Gerber Fmt 4.6, Leading zero omitted, Abs format (unit mm)*
G04 Created by KiCad (PCBNEW (5.1.5)-3) date 2020-03-31 14:54:24*
%MOMM*%
%LPD*%
G04 APERTURE LIST*
%ADD10C,0.010000*%
%ADD11R,1.200000X0.750000*%
%ADD12R,0.750000X1.200000*%
%ADD13R,1.250000X1.500000*%
%ADD14R,0.800000X0.900000*%
%ADD15R,0.900000X1.200000*%
%ADD16R,1.200000X0.900000*%
%ADD17R,0.250000X1.300000*%
%ADD18R,1.300000X0.250000*%
%ADD19R,0.300000X0.525000*%
%ADD20R,0.425000X0.300000*%
%ADD21R,0.810000X0.420000*%
%ADD22R,1.500000X0.450000*%
%ADD23R,0.950000X1.050000*%
%ADD24R,0.650000X1.560000*%
%ADD25R,2.000000X1.500000*%
%ADD26R,2.000000X3.800000*%
%ADD27R,1.560000X0.650000*%
%ADD28R,2.000000X4.500000*%
%ADD29R,1.900000X1.300000*%
%ADD30C,0.100000*%
G04 APERTURE END LIST*
D10*
G36*
X164752304Y-80013053D02*
G01*
X165701341Y-80013053D01*
X165701341Y-81531516D01*
X164752304Y-81531516D01*
X164752304Y-80013053D01*
G37*
X164752304Y-80013053D02*
X165701341Y-80013053D01*
X165701341Y-81531516D01*
X164752304Y-81531516D01*
X164752304Y-80013053D01*
D11*
X150122001Y-89954001D03*
X152022001Y-89954001D03*
X155387000Y-88519000D03*
X157287000Y-88519000D03*
X157287000Y-104140000D03*
X155387000Y-104140000D03*
X174432000Y-92329000D03*
X172532000Y-92329000D03*
X172532000Y-101473000D03*
X174432000Y-101473000D03*
X160086000Y-90805000D03*
X161986000Y-90805000D03*
D12*
X161671000Y-105090000D03*
X161671000Y-103190000D03*
D11*
X150429000Y-79502000D03*
X148529000Y-79502000D03*
D12*
X151638000Y-76388000D03*
X151638000Y-74488000D03*
X154686000Y-85405000D03*
X154686000Y-83505000D03*
X167132000Y-74991000D03*
X167132000Y-73091000D03*
D11*
X151445000Y-72517000D03*
X149545000Y-72517000D03*
D12*
X168275000Y-79822000D03*
X168275000Y-81722000D03*
X161417000Y-120330000D03*
X161417000Y-118430000D03*
X156083000Y-120330000D03*
X156083000Y-118430000D03*
D11*
X159700000Y-116459000D03*
X157800000Y-116459000D03*
X164150000Y-111887000D03*
X166050000Y-111887000D03*
X151450000Y-113030000D03*
X153350000Y-113030000D03*
X152715000Y-106172000D03*
X150815000Y-106172000D03*
X164150000Y-113284000D03*
X166050000Y-113284000D03*
X187259000Y-76581000D03*
X185359000Y-76581000D03*
D13*
X137287000Y-85324000D03*
X137287000Y-82824000D03*
D12*
X135509000Y-83124000D03*
X135509000Y-85024000D03*
X133985000Y-85024000D03*
X133985000Y-83124000D03*
D13*
X137287000Y-77871000D03*
X137287000Y-80371000D03*
D12*
X135509000Y-78171000D03*
X135509000Y-80071000D03*
X133985000Y-80071000D03*
X133985000Y-78171000D03*
X135763000Y-72837000D03*
X135763000Y-74737000D03*
X135763000Y-65974000D03*
X135763000Y-64074000D03*
X142621000Y-74737000D03*
X142621000Y-72837000D03*
D11*
X138242000Y-67818000D03*
X140142000Y-67818000D03*
X138242000Y-70993000D03*
X140142000Y-70993000D03*
D13*
X142875000Y-66274000D03*
X142875000Y-63774000D03*
D14*
X182499000Y-68342000D03*
X183449000Y-70342000D03*
X181549000Y-70342000D03*
D15*
X165481000Y-88222000D03*
X165481000Y-86022000D03*
X166497000Y-106637000D03*
X166497000Y-104437000D03*
X163830000Y-86022000D03*
X163830000Y-88222000D03*
X162179000Y-88222000D03*
X162179000Y-86022000D03*
D16*
X152177001Y-88392000D03*
X149977001Y-88392000D03*
D15*
X168148000Y-104437000D03*
X168148000Y-106637000D03*
X169799000Y-106637000D03*
X169799000Y-104437000D03*
X152781000Y-97493000D03*
X152781000Y-95293000D03*
D16*
X161374000Y-81661000D03*
X159174000Y-81661000D03*
X161399999Y-79945999D03*
X159199999Y-79945999D03*
D15*
X152781000Y-85555000D03*
X152781000Y-83355000D03*
D16*
X150579000Y-81153000D03*
X148379000Y-81153000D03*
X157396000Y-83312000D03*
X159596000Y-83312000D03*
D15*
X159766000Y-118280000D03*
X159766000Y-120480000D03*
X157734000Y-120480000D03*
X157734000Y-118280000D03*
D16*
X164000000Y-114808000D03*
X166200000Y-114808000D03*
X151300000Y-114554000D03*
X153500000Y-114554000D03*
X149309000Y-107950000D03*
X147109000Y-107950000D03*
X147109000Y-109728000D03*
X149309000Y-109728000D03*
X151300000Y-111506000D03*
X153500000Y-111506000D03*
D15*
X183515000Y-74379000D03*
X183515000Y-72179000D03*
X181864000Y-74379000D03*
X181864000Y-72179000D03*
D17*
X163493000Y-92551000D03*
X163993000Y-92551000D03*
X164493000Y-92551000D03*
X164993000Y-92551000D03*
X165493000Y-92551000D03*
X165993000Y-92551000D03*
X166493000Y-92551000D03*
X166993000Y-92551000D03*
X167493000Y-92551000D03*
X167993000Y-92551000D03*
X168493000Y-92551000D03*
X168993000Y-92551000D03*
D18*
X170593000Y-94151000D03*
X170593000Y-94651000D03*
X170593000Y-95151000D03*
X170593000Y-95651000D03*
X170593000Y-96151000D03*
X170593000Y-96651000D03*
X170593000Y-97151000D03*
X170593000Y-97651000D03*
X170593000Y-98151000D03*
X170593000Y-98651000D03*
X170593000Y-99151000D03*
X170593000Y-99651000D03*
D17*
X168993000Y-101251000D03*
X168493000Y-101251000D03*
X167993000Y-101251000D03*
X167493000Y-101251000D03*
X166993000Y-101251000D03*
X166493000Y-101251000D03*
X165993000Y-101251000D03*
X165493000Y-101251000D03*
X164993000Y-101251000D03*
X164493000Y-101251000D03*
X163993000Y-101251000D03*
X163493000Y-101251000D03*
D18*
X161893000Y-99651000D03*
X161893000Y-99151000D03*
X161893000Y-98651000D03*
X161893000Y-98151000D03*
X161893000Y-97651000D03*
X161893000Y-97151000D03*
X161893000Y-96651000D03*
X161893000Y-96151000D03*
X161893000Y-95651000D03*
X161893000Y-95151000D03*
X161893000Y-94651000D03*
X161893000Y-94151000D03*
D19*
X153317000Y-78193500D03*
X153817000Y-78193500D03*
X154317000Y-78193500D03*
X154817000Y-78193500D03*
X155317000Y-78193500D03*
X155817000Y-78193500D03*
X156317000Y-78193500D03*
X156817000Y-78193500D03*
X157317000Y-78193500D03*
D20*
X157379500Y-79006000D03*
X157379500Y-79506000D03*
X157379500Y-80006000D03*
X157379500Y-80506000D03*
D19*
X157317000Y-81318500D03*
X156817000Y-81318500D03*
X156317000Y-81318500D03*
X155817000Y-81318500D03*
X155317000Y-81318500D03*
X154817000Y-81318500D03*
X154317000Y-81318500D03*
X153817000Y-81318500D03*
X153317000Y-81318500D03*
X152817000Y-81318500D03*
D20*
X152754500Y-80506000D03*
X152754500Y-80006000D03*
X152754500Y-79506000D03*
X152754500Y-79006000D03*
D19*
X152817000Y-78193500D03*
D21*
X166682000Y-79772000D03*
X166682000Y-80772000D03*
X166682000Y-81772000D03*
X163772000Y-81772000D03*
X163772000Y-80772000D03*
X163772000Y-79772000D03*
D22*
X161700000Y-110374000D03*
X161700000Y-111024000D03*
X161700000Y-111674000D03*
X161700000Y-112324000D03*
X161700000Y-112974000D03*
X161700000Y-113624000D03*
X161700000Y-114274000D03*
X161700000Y-114924000D03*
X155800000Y-114924000D03*
X155800000Y-114274000D03*
X155800000Y-113624000D03*
X155800000Y-112974000D03*
X155800000Y-112324000D03*
X155800000Y-111674000D03*
X155800000Y-111024000D03*
X155800000Y-110374000D03*
D23*
X151040000Y-107914000D03*
X151040000Y-109764000D03*
X152490000Y-109764000D03*
X152490000Y-107914000D03*
D24*
X187259000Y-71929000D03*
X186309000Y-71929000D03*
X185359000Y-71929000D03*
X185359000Y-74629000D03*
X187259000Y-74629000D03*
D25*
X131663000Y-83911000D03*
X131663000Y-79311000D03*
X131663000Y-81611000D03*
D26*
X125363000Y-81611000D03*
D27*
X140542000Y-72837000D03*
X140542000Y-74737000D03*
X137842000Y-74737000D03*
X137842000Y-73787000D03*
X137842000Y-72837000D03*
X140542000Y-64074000D03*
X140542000Y-65974000D03*
X137842000Y-65974000D03*
X137842000Y-65024000D03*
X137842000Y-64074000D03*
D28*
X156337000Y-100643000D03*
X156337000Y-92143000D03*
D16*
X171920999Y-77470000D03*
X174120999Y-77470000D03*
X174120999Y-75773999D03*
X171920999Y-75773999D03*
X150538000Y-118364000D03*
X152738000Y-118364000D03*
X150538000Y-120142000D03*
X152738000Y-120142000D03*
X164000000Y-110236000D03*
X166200000Y-110236000D03*
X166540000Y-108458000D03*
X168740000Y-108458000D03*
X155364000Y-108712000D03*
X157564000Y-108712000D03*
X157564000Y-107061000D03*
X155364000Y-107061000D03*
D15*
X159893000Y-104056000D03*
X159893000Y-106256000D03*
D29*
X160858000Y-74124000D03*
X157658000Y-74124000D03*
X160858000Y-68624000D03*
X157658000Y-68624000D03*
D30*
G36*
X172940505Y-70428204D02*
G01*
X172964773Y-70431804D01*
X172988572Y-70437765D01*
X173011671Y-70446030D01*
X173033850Y-70456520D01*
X173054893Y-70469132D01*
X173074599Y-70483747D01*
X173092777Y-70500223D01*
X173109253Y-70518401D01*
X173123868Y-70538107D01*
X173136480Y-70559150D01*
X173146970Y-70581329D01*
X173155235Y-70604428D01*
X173161196Y-70628227D01*
X173164796Y-70652495D01*
X173166000Y-70676999D01*
X173166000Y-71327001D01*
X173164796Y-71351505D01*
X173161196Y-71375773D01*
X173155235Y-71399572D01*
X173146970Y-71422671D01*
X173136480Y-71444850D01*
X173123868Y-71465893D01*
X173109253Y-71485599D01*
X173092777Y-71503777D01*
X173074599Y-71520253D01*
X173054893Y-71534868D01*
X173033850Y-71547480D01*
X173011671Y-71557970D01*
X172988572Y-71566235D01*
X172964773Y-71572196D01*
X172940505Y-71575796D01*
X172916001Y-71577000D01*
X172015999Y-71577000D01*
X171991495Y-71575796D01*
X171967227Y-71572196D01*
X171943428Y-71566235D01*
X171920329Y-71557970D01*
X171898150Y-71547480D01*
X171877107Y-71534868D01*
X171857401Y-71520253D01*
X171839223Y-71503777D01*
X171822747Y-71485599D01*
X171808132Y-71465893D01*
X171795520Y-71444850D01*
X171785030Y-71422671D01*
X171776765Y-71399572D01*
X171770804Y-71375773D01*
X171767204Y-71351505D01*
X171766000Y-71327001D01*
X171766000Y-70676999D01*
X171767204Y-70652495D01*
X171770804Y-70628227D01*
X171776765Y-70604428D01*
X171785030Y-70581329D01*
X171795520Y-70559150D01*
X171808132Y-70538107D01*
X171822747Y-70518401D01*
X171839223Y-70500223D01*
X171857401Y-70483747D01*
X171877107Y-70469132D01*
X171898150Y-70456520D01*
X171920329Y-70446030D01*
X171943428Y-70437765D01*
X171967227Y-70431804D01*
X171991495Y-70428204D01*
X172015999Y-70427000D01*
X172916001Y-70427000D01*
X172940505Y-70428204D01*
G37*
G36*
X172940505Y-68378204D02*
G01*
X172964773Y-68381804D01*
X172988572Y-68387765D01*
X173011671Y-68396030D01*
X173033850Y-68406520D01*
X173054893Y-68419132D01*
X173074599Y-68433747D01*
X173092777Y-68450223D01*
X173109253Y-68468401D01*
X173123868Y-68488107D01*
X173136480Y-68509150D01*
X173146970Y-68531329D01*
X173155235Y-68554428D01*
X173161196Y-68578227D01*
X173164796Y-68602495D01*
X173166000Y-68626999D01*
X173166000Y-69277001D01*
X173164796Y-69301505D01*
X173161196Y-69325773D01*
X173155235Y-69349572D01*
X173146970Y-69372671D01*
X173136480Y-69394850D01*
X173123868Y-69415893D01*
X173109253Y-69435599D01*
X173092777Y-69453777D01*
X173074599Y-69470253D01*
X173054893Y-69484868D01*
X173033850Y-69497480D01*
X173011671Y-69507970D01*
X172988572Y-69516235D01*
X172964773Y-69522196D01*
X172940505Y-69525796D01*
X172916001Y-69527000D01*
X172015999Y-69527000D01*
X171991495Y-69525796D01*
X171967227Y-69522196D01*
X171943428Y-69516235D01*
X171920329Y-69507970D01*
X171898150Y-69497480D01*
X171877107Y-69484868D01*
X171857401Y-69470253D01*
X171839223Y-69453777D01*
X171822747Y-69435599D01*
X171808132Y-69415893D01*
X171795520Y-69394850D01*
X171785030Y-69372671D01*
X171776765Y-69349572D01*
X171770804Y-69325773D01*
X171767204Y-69301505D01*
X171766000Y-69277001D01*
X171766000Y-68626999D01*
X171767204Y-68602495D01*
X171770804Y-68578227D01*
X171776765Y-68554428D01*
X171785030Y-68531329D01*
X171795520Y-68509150D01*
X171808132Y-68488107D01*
X171822747Y-68468401D01*
X171839223Y-68450223D01*
X171857401Y-68433747D01*
X171877107Y-68419132D01*
X171898150Y-68406520D01*
X171920329Y-68396030D01*
X171943428Y-68387765D01*
X171967227Y-68381804D01*
X171991495Y-68378204D01*
X172015999Y-68377000D01*
X172916001Y-68377000D01*
X172940505Y-68378204D01*
G37*
G36*
X135722505Y-56197204D02*
G01*
X135746773Y-56200804D01*
X135770572Y-56206765D01*
X135793671Y-56215030D01*
X135815850Y-56225520D01*
X135836893Y-56238132D01*
X135856599Y-56252747D01*
X135874777Y-56269223D01*
X135891253Y-56287401D01*
X135905868Y-56307107D01*
X135918480Y-56328150D01*
X135928970Y-56350329D01*
X135937235Y-56373428D01*
X135943196Y-56397227D01*
X135946796Y-56421495D01*
X135948000Y-56445999D01*
X135948000Y-57346001D01*
X135946796Y-57370505D01*
X135943196Y-57394773D01*
X135937235Y-57418572D01*
X135928970Y-57441671D01*
X135918480Y-57463850D01*
X135905868Y-57484893D01*
X135891253Y-57504599D01*
X135874777Y-57522777D01*
X135856599Y-57539253D01*
X135836893Y-57553868D01*
X135815850Y-57566480D01*
X135793671Y-57576970D01*
X135770572Y-57585235D01*
X135746773Y-57591196D01*
X135722505Y-57594796D01*
X135698001Y-57596000D01*
X135047999Y-57596000D01*
X135023495Y-57594796D01*
X134999227Y-57591196D01*
X134975428Y-57585235D01*
X134952329Y-57576970D01*
X134930150Y-57566480D01*
X134909107Y-57553868D01*
X134889401Y-57539253D01*
X134871223Y-57522777D01*
X134854747Y-57504599D01*
X134840132Y-57484893D01*
X134827520Y-57463850D01*
X134817030Y-57441671D01*
X134808765Y-57418572D01*
X134802804Y-57394773D01*
X134799204Y-57370505D01*
X134798000Y-57346001D01*
X134798000Y-56445999D01*
X134799204Y-56421495D01*
X134802804Y-56397227D01*
X134808765Y-56373428D01*
X134817030Y-56350329D01*
X134827520Y-56328150D01*
X134840132Y-56307107D01*
X134854747Y-56287401D01*
X134871223Y-56269223D01*
X134889401Y-56252747D01*
X134909107Y-56238132D01*
X134930150Y-56225520D01*
X134952329Y-56215030D01*
X134975428Y-56206765D01*
X134999227Y-56200804D01*
X135023495Y-56197204D01*
X135047999Y-56196000D01*
X135698001Y-56196000D01*
X135722505Y-56197204D01*
G37*
G36*
X137772505Y-56197204D02*
G01*
X137796773Y-56200804D01*
X137820572Y-56206765D01*
X137843671Y-56215030D01*
X137865850Y-56225520D01*
X137886893Y-56238132D01*
X137906599Y-56252747D01*
X137924777Y-56269223D01*
X137941253Y-56287401D01*
X137955868Y-56307107D01*
X137968480Y-56328150D01*
X137978970Y-56350329D01*
X137987235Y-56373428D01*
X137993196Y-56397227D01*
X137996796Y-56421495D01*
X137998000Y-56445999D01*
X137998000Y-57346001D01*
X137996796Y-57370505D01*
X137993196Y-57394773D01*
X137987235Y-57418572D01*
X137978970Y-57441671D01*
X137968480Y-57463850D01*
X137955868Y-57484893D01*
X137941253Y-57504599D01*
X137924777Y-57522777D01*
X137906599Y-57539253D01*
X137886893Y-57553868D01*
X137865850Y-57566480D01*
X137843671Y-57576970D01*
X137820572Y-57585235D01*
X137796773Y-57591196D01*
X137772505Y-57594796D01*
X137748001Y-57596000D01*
X137097999Y-57596000D01*
X137073495Y-57594796D01*
X137049227Y-57591196D01*
X137025428Y-57585235D01*
X137002329Y-57576970D01*
X136980150Y-57566480D01*
X136959107Y-57553868D01*
X136939401Y-57539253D01*
X136921223Y-57522777D01*
X136904747Y-57504599D01*
X136890132Y-57484893D01*
X136877520Y-57463850D01*
X136867030Y-57441671D01*
X136858765Y-57418572D01*
X136852804Y-57394773D01*
X136849204Y-57370505D01*
X136848000Y-57346001D01*
X136848000Y-56445999D01*
X136849204Y-56421495D01*
X136852804Y-56397227D01*
X136858765Y-56373428D01*
X136867030Y-56350329D01*
X136877520Y-56328150D01*
X136890132Y-56307107D01*
X136904747Y-56287401D01*
X136921223Y-56269223D01*
X136939401Y-56252747D01*
X136959107Y-56238132D01*
X136980150Y-56225520D01*
X137002329Y-56215030D01*
X137025428Y-56206765D01*
X137049227Y-56200804D01*
X137073495Y-56197204D01*
X137097999Y-56196000D01*
X137748001Y-56196000D01*
X137772505Y-56197204D01*
G37*
G36*
X146945779Y-58009144D02*
G01*
X146968834Y-58012563D01*
X146991443Y-58018227D01*
X147013387Y-58026079D01*
X147034457Y-58036044D01*
X147054448Y-58048026D01*
X147073168Y-58061910D01*
X147090438Y-58077562D01*
X147106090Y-58094832D01*
X147119974Y-58113552D01*
X147131956Y-58133543D01*
X147141921Y-58154613D01*
X147149773Y-58176557D01*
X147155437Y-58199166D01*
X147158856Y-58222221D01*
X147160000Y-58245500D01*
X147160000Y-58820500D01*
X147158856Y-58843779D01*
X147155437Y-58866834D01*
X147149773Y-58889443D01*
X147141921Y-58911387D01*
X147131956Y-58932457D01*
X147119974Y-58952448D01*
X147106090Y-58971168D01*
X147090438Y-58988438D01*
X147073168Y-59004090D01*
X147054448Y-59017974D01*
X147034457Y-59029956D01*
X147013387Y-59039921D01*
X146991443Y-59047773D01*
X146968834Y-59053437D01*
X146945779Y-59056856D01*
X146922500Y-59058000D01*
X146447500Y-59058000D01*
X146424221Y-59056856D01*
X146401166Y-59053437D01*
X146378557Y-59047773D01*
X146356613Y-59039921D01*
X146335543Y-59029956D01*
X146315552Y-59017974D01*
X146296832Y-59004090D01*
X146279562Y-58988438D01*
X146263910Y-58971168D01*
X146250026Y-58952448D01*
X146238044Y-58932457D01*
X146228079Y-58911387D01*
X146220227Y-58889443D01*
X146214563Y-58866834D01*
X146211144Y-58843779D01*
X146210000Y-58820500D01*
X146210000Y-58245500D01*
X146211144Y-58222221D01*
X146214563Y-58199166D01*
X146220227Y-58176557D01*
X146228079Y-58154613D01*
X146238044Y-58133543D01*
X146250026Y-58113552D01*
X146263910Y-58094832D01*
X146279562Y-58077562D01*
X146296832Y-58061910D01*
X146315552Y-58048026D01*
X146335543Y-58036044D01*
X146356613Y-58026079D01*
X146378557Y-58018227D01*
X146401166Y-58012563D01*
X146424221Y-58009144D01*
X146447500Y-58008000D01*
X146922500Y-58008000D01*
X146945779Y-58009144D01*
G37*
G36*
X146945779Y-56259144D02*
G01*
X146968834Y-56262563D01*
X146991443Y-56268227D01*
X147013387Y-56276079D01*
X147034457Y-56286044D01*
X147054448Y-56298026D01*
X147073168Y-56311910D01*
X147090438Y-56327562D01*
X147106090Y-56344832D01*
X147119974Y-56363552D01*
X147131956Y-56383543D01*
X147141921Y-56404613D01*
X147149773Y-56426557D01*
X147155437Y-56449166D01*
X147158856Y-56472221D01*
X147160000Y-56495500D01*
X147160000Y-57070500D01*
X147158856Y-57093779D01*
X147155437Y-57116834D01*
X147149773Y-57139443D01*
X147141921Y-57161387D01*
X147131956Y-57182457D01*
X147119974Y-57202448D01*
X147106090Y-57221168D01*
X147090438Y-57238438D01*
X147073168Y-57254090D01*
X147054448Y-57267974D01*
X147034457Y-57279956D01*
X147013387Y-57289921D01*
X146991443Y-57297773D01*
X146968834Y-57303437D01*
X146945779Y-57306856D01*
X146922500Y-57308000D01*
X146447500Y-57308000D01*
X146424221Y-57306856D01*
X146401166Y-57303437D01*
X146378557Y-57297773D01*
X146356613Y-57289921D01*
X146335543Y-57279956D01*
X146315552Y-57267974D01*
X146296832Y-57254090D01*
X146279562Y-57238438D01*
X146263910Y-57221168D01*
X146250026Y-57202448D01*
X146238044Y-57182457D01*
X146228079Y-57161387D01*
X146220227Y-57139443D01*
X146214563Y-57116834D01*
X146211144Y-57093779D01*
X146210000Y-57070500D01*
X146210000Y-56495500D01*
X146211144Y-56472221D01*
X146214563Y-56449166D01*
X146220227Y-56426557D01*
X146228079Y-56404613D01*
X146238044Y-56383543D01*
X146250026Y-56363552D01*
X146263910Y-56344832D01*
X146279562Y-56327562D01*
X146296832Y-56311910D01*
X146315552Y-56298026D01*
X146335543Y-56286044D01*
X146356613Y-56276079D01*
X146378557Y-56268227D01*
X146401166Y-56262563D01*
X146424221Y-56259144D01*
X146447500Y-56258000D01*
X146922500Y-56258000D01*
X146945779Y-56259144D01*
G37*
G36*
X143298779Y-55787144D02*
G01*
X143321834Y-55790563D01*
X143344443Y-55796227D01*
X143366387Y-55804079D01*
X143387457Y-55814044D01*
X143407448Y-55826026D01*
X143426168Y-55839910D01*
X143443438Y-55855562D01*
X143459090Y-55872832D01*
X143472974Y-55891552D01*
X143484956Y-55911543D01*
X143494921Y-55932613D01*
X143502773Y-55954557D01*
X143508437Y-55977166D01*
X143511856Y-56000221D01*
X143513000Y-56023500D01*
X143513000Y-56498500D01*
X143511856Y-56521779D01*
X143508437Y-56544834D01*
X143502773Y-56567443D01*
X143494921Y-56589387D01*
X143484956Y-56610457D01*
X143472974Y-56630448D01*
X143459090Y-56649168D01*
X143443438Y-56666438D01*
X143426168Y-56682090D01*
X143407448Y-56695974D01*
X143387457Y-56707956D01*
X143366387Y-56717921D01*
X143344443Y-56725773D01*
X143321834Y-56731437D01*
X143298779Y-56734856D01*
X143275500Y-56736000D01*
X142700500Y-56736000D01*
X142677221Y-56734856D01*
X142654166Y-56731437D01*
X142631557Y-56725773D01*
X142609613Y-56717921D01*
X142588543Y-56707956D01*
X142568552Y-56695974D01*
X142549832Y-56682090D01*
X142532562Y-56666438D01*
X142516910Y-56649168D01*
X142503026Y-56630448D01*
X142491044Y-56610457D01*
X142481079Y-56589387D01*
X142473227Y-56567443D01*
X142467563Y-56544834D01*
X142464144Y-56521779D01*
X142463000Y-56498500D01*
X142463000Y-56023500D01*
X142464144Y-56000221D01*
X142467563Y-55977166D01*
X142473227Y-55954557D01*
X142481079Y-55932613D01*
X142491044Y-55911543D01*
X142503026Y-55891552D01*
X142516910Y-55872832D01*
X142532562Y-55855562D01*
X142549832Y-55839910D01*
X142568552Y-55826026D01*
X142588543Y-55814044D01*
X142609613Y-55804079D01*
X142631557Y-55796227D01*
X142654166Y-55790563D01*
X142677221Y-55787144D01*
X142700500Y-55786000D01*
X143275500Y-55786000D01*
X143298779Y-55787144D01*
G37*
G36*
X141548779Y-55787144D02*
G01*
X141571834Y-55790563D01*
X141594443Y-55796227D01*
X141616387Y-55804079D01*
X141637457Y-55814044D01*
X141657448Y-55826026D01*
X141676168Y-55839910D01*
X141693438Y-55855562D01*
X141709090Y-55872832D01*
X141722974Y-55891552D01*
X141734956Y-55911543D01*
X141744921Y-55932613D01*
X141752773Y-55954557D01*
X141758437Y-55977166D01*
X141761856Y-56000221D01*
X141763000Y-56023500D01*
X141763000Y-56498500D01*
X141761856Y-56521779D01*
X141758437Y-56544834D01*
X141752773Y-56567443D01*
X141744921Y-56589387D01*
X141734956Y-56610457D01*
X141722974Y-56630448D01*
X141709090Y-56649168D01*
X141693438Y-56666438D01*
X141676168Y-56682090D01*
X141657448Y-56695974D01*
X141637457Y-56707956D01*
X141616387Y-56717921D01*
X141594443Y-56725773D01*
X141571834Y-56731437D01*
X141548779Y-56734856D01*
X141525500Y-56736000D01*
X140950500Y-56736000D01*
X140927221Y-56734856D01*
X140904166Y-56731437D01*
X140881557Y-56725773D01*
X140859613Y-56717921D01*
X140838543Y-56707956D01*
X140818552Y-56695974D01*
X140799832Y-56682090D01*
X140782562Y-56666438D01*
X140766910Y-56649168D01*
X140753026Y-56630448D01*
X140741044Y-56610457D01*
X140731079Y-56589387D01*
X140723227Y-56567443D01*
X140717563Y-56544834D01*
X140714144Y-56521779D01*
X140713000Y-56498500D01*
X140713000Y-56023500D01*
X140714144Y-56000221D01*
X140717563Y-55977166D01*
X140723227Y-55954557D01*
X140731079Y-55932613D01*
X140741044Y-55911543D01*
X140753026Y-55891552D01*
X140766910Y-55872832D01*
X140782562Y-55855562D01*
X140799832Y-55839910D01*
X140818552Y-55826026D01*
X140838543Y-55814044D01*
X140859613Y-55804079D01*
X140881557Y-55796227D01*
X140904166Y-55790563D01*
X140927221Y-55787144D01*
X140950500Y-55786000D01*
X141525500Y-55786000D01*
X141548779Y-55787144D01*
G37*
G36*
X137583779Y-58454144D02*
G01*
X137606834Y-58457563D01*
X137629443Y-58463227D01*
X137651387Y-58471079D01*
X137672457Y-58481044D01*
X137692448Y-58493026D01*
X137711168Y-58506910D01*
X137728438Y-58522562D01*
X137744090Y-58539832D01*
X137757974Y-58558552D01*
X137769956Y-58578543D01*
X137779921Y-58599613D01*
X137787773Y-58621557D01*
X137793437Y-58644166D01*
X137796856Y-58667221D01*
X137798000Y-58690500D01*
X137798000Y-59165500D01*
X137796856Y-59188779D01*
X137793437Y-59211834D01*
X137787773Y-59234443D01*
X137779921Y-59256387D01*
X137769956Y-59277457D01*
X137757974Y-59297448D01*
X137744090Y-59316168D01*
X137728438Y-59333438D01*
X137711168Y-59349090D01*
X137692448Y-59362974D01*
X137672457Y-59374956D01*
X137651387Y-59384921D01*
X137629443Y-59392773D01*
X137606834Y-59398437D01*
X137583779Y-59401856D01*
X137560500Y-59403000D01*
X136985500Y-59403000D01*
X136962221Y-59401856D01*
X136939166Y-59398437D01*
X136916557Y-59392773D01*
X136894613Y-59384921D01*
X136873543Y-59374956D01*
X136853552Y-59362974D01*
X136834832Y-59349090D01*
X136817562Y-59333438D01*
X136801910Y-59316168D01*
X136788026Y-59297448D01*
X136776044Y-59277457D01*
X136766079Y-59256387D01*
X136758227Y-59234443D01*
X136752563Y-59211834D01*
X136749144Y-59188779D01*
X136748000Y-59165500D01*
X136748000Y-58690500D01*
X136749144Y-58667221D01*
X136752563Y-58644166D01*
X136758227Y-58621557D01*
X136766079Y-58599613D01*
X136776044Y-58578543D01*
X136788026Y-58558552D01*
X136801910Y-58539832D01*
X136817562Y-58522562D01*
X136834832Y-58506910D01*
X136853552Y-58493026D01*
X136873543Y-58481044D01*
X136894613Y-58471079D01*
X136916557Y-58463227D01*
X136939166Y-58457563D01*
X136962221Y-58454144D01*
X136985500Y-58453000D01*
X137560500Y-58453000D01*
X137583779Y-58454144D01*
G37*
G36*
X135833779Y-58454144D02*
G01*
X135856834Y-58457563D01*
X135879443Y-58463227D01*
X135901387Y-58471079D01*
X135922457Y-58481044D01*
X135942448Y-58493026D01*
X135961168Y-58506910D01*
X135978438Y-58522562D01*
X135994090Y-58539832D01*
X136007974Y-58558552D01*
X136019956Y-58578543D01*
X136029921Y-58599613D01*
X136037773Y-58621557D01*
X136043437Y-58644166D01*
X136046856Y-58667221D01*
X136048000Y-58690500D01*
X136048000Y-59165500D01*
X136046856Y-59188779D01*
X136043437Y-59211834D01*
X136037773Y-59234443D01*
X136029921Y-59256387D01*
X136019956Y-59277457D01*
X136007974Y-59297448D01*
X135994090Y-59316168D01*
X135978438Y-59333438D01*
X135961168Y-59349090D01*
X135942448Y-59362974D01*
X135922457Y-59374956D01*
X135901387Y-59384921D01*
X135879443Y-59392773D01*
X135856834Y-59398437D01*
X135833779Y-59401856D01*
X135810500Y-59403000D01*
X135235500Y-59403000D01*
X135212221Y-59401856D01*
X135189166Y-59398437D01*
X135166557Y-59392773D01*
X135144613Y-59384921D01*
X135123543Y-59374956D01*
X135103552Y-59362974D01*
X135084832Y-59349090D01*
X135067562Y-59333438D01*
X135051910Y-59316168D01*
X135038026Y-59297448D01*
X135026044Y-59277457D01*
X135016079Y-59256387D01*
X135008227Y-59234443D01*
X135002563Y-59211834D01*
X134999144Y-59188779D01*
X134998000Y-59165500D01*
X134998000Y-58690500D01*
X134999144Y-58667221D01*
X135002563Y-58644166D01*
X135008227Y-58621557D01*
X135016079Y-58599613D01*
X135026044Y-58578543D01*
X135038026Y-58558552D01*
X135051910Y-58539832D01*
X135067562Y-58522562D01*
X135084832Y-58506910D01*
X135103552Y-58493026D01*
X135123543Y-58481044D01*
X135144613Y-58471079D01*
X135166557Y-58463227D01*
X135189166Y-58457563D01*
X135212221Y-58454144D01*
X135235500Y-58453000D01*
X135810500Y-58453000D01*
X135833779Y-58454144D01*
G37*
G36*
X141839858Y-58080951D02*
G01*
X141859030Y-58083795D01*
X141877831Y-58088504D01*
X141896080Y-58095034D01*
X141913601Y-58103321D01*
X141930225Y-58113285D01*
X141945793Y-58124830D01*
X141960154Y-58137846D01*
X141973170Y-58152207D01*
X141984715Y-58167775D01*
X141994679Y-58184399D01*
X142002966Y-58201920D01*
X142009496Y-58220169D01*
X142014205Y-58238970D01*
X142017049Y-58258142D01*
X142018000Y-58277500D01*
X142018000Y-58752500D01*
X142017049Y-58771858D01*
X142014205Y-58791030D01*
X142009496Y-58809831D01*
X142002966Y-58828080D01*
X141994679Y-58845601D01*
X141984715Y-58862225D01*
X141973170Y-58877793D01*
X141960154Y-58892154D01*
X141945793Y-58905170D01*
X141930225Y-58916715D01*
X141913601Y-58926679D01*
X141896080Y-58934966D01*
X141877831Y-58941496D01*
X141859030Y-58946205D01*
X141839858Y-58949049D01*
X141820500Y-58950000D01*
X141425500Y-58950000D01*
X141406142Y-58949049D01*
X141386970Y-58946205D01*
X141368169Y-58941496D01*
X141349920Y-58934966D01*
X141332399Y-58926679D01*
X141315775Y-58916715D01*
X141300207Y-58905170D01*
X141285846Y-58892154D01*
X141272830Y-58877793D01*
X141261285Y-58862225D01*
X141251321Y-58845601D01*
X141243034Y-58828080D01*
X141236504Y-58809831D01*
X141231795Y-58791030D01*
X141228951Y-58771858D01*
X141228000Y-58752500D01*
X141228000Y-58277500D01*
X141228951Y-58258142D01*
X141231795Y-58238970D01*
X141236504Y-58220169D01*
X141243034Y-58201920D01*
X141251321Y-58184399D01*
X141261285Y-58167775D01*
X141272830Y-58152207D01*
X141285846Y-58137846D01*
X141300207Y-58124830D01*
X141315775Y-58113285D01*
X141332399Y-58103321D01*
X141349920Y-58095034D01*
X141368169Y-58088504D01*
X141386970Y-58083795D01*
X141406142Y-58080951D01*
X141425500Y-58080000D01*
X141820500Y-58080000D01*
X141839858Y-58080951D01*
G37*
G36*
X141839858Y-59160951D02*
G01*
X141859030Y-59163795D01*
X141877831Y-59168504D01*
X141896080Y-59175034D01*
X141913601Y-59183321D01*
X141930225Y-59193285D01*
X141945793Y-59204830D01*
X141960154Y-59217846D01*
X141973170Y-59232207D01*
X141984715Y-59247775D01*
X141994679Y-59264399D01*
X142002966Y-59281920D01*
X142009496Y-59300169D01*
X142014205Y-59318970D01*
X142017049Y-59338142D01*
X142018000Y-59357500D01*
X142018000Y-59832500D01*
X142017049Y-59851858D01*
X142014205Y-59871030D01*
X142009496Y-59889831D01*
X142002966Y-59908080D01*
X141994679Y-59925601D01*
X141984715Y-59942225D01*
X141973170Y-59957793D01*
X141960154Y-59972154D01*
X141945793Y-59985170D01*
X141930225Y-59996715D01*
X141913601Y-60006679D01*
X141896080Y-60014966D01*
X141877831Y-60021496D01*
X141859030Y-60026205D01*
X141839858Y-60029049D01*
X141820500Y-60030000D01*
X141425500Y-60030000D01*
X141406142Y-60029049D01*
X141386970Y-60026205D01*
X141368169Y-60021496D01*
X141349920Y-60014966D01*
X141332399Y-60006679D01*
X141315775Y-59996715D01*
X141300207Y-59985170D01*
X141285846Y-59972154D01*
X141272830Y-59957793D01*
X141261285Y-59942225D01*
X141251321Y-59925601D01*
X141243034Y-59908080D01*
X141236504Y-59889831D01*
X141231795Y-59871030D01*
X141228951Y-59851858D01*
X141228000Y-59832500D01*
X141228000Y-59357500D01*
X141228951Y-59338142D01*
X141231795Y-59318970D01*
X141236504Y-59300169D01*
X141243034Y-59281920D01*
X141251321Y-59264399D01*
X141261285Y-59247775D01*
X141272830Y-59232207D01*
X141285846Y-59217846D01*
X141300207Y-59204830D01*
X141315775Y-59193285D01*
X141332399Y-59183321D01*
X141349920Y-59175034D01*
X141368169Y-59168504D01*
X141386970Y-59163795D01*
X141406142Y-59160951D01*
X141425500Y-59160000D01*
X141820500Y-59160000D01*
X141839858Y-59160951D01*
G37*
G36*
X142819858Y-58080951D02*
G01*
X142839030Y-58083795D01*
X142857831Y-58088504D01*
X142876080Y-58095034D01*
X142893601Y-58103321D01*
X142910225Y-58113285D01*
X142925793Y-58124830D01*
X142940154Y-58137846D01*
X142953170Y-58152207D01*
X142964715Y-58167775D01*
X142974679Y-58184399D01*
X142982966Y-58201920D01*
X142989496Y-58220169D01*
X142994205Y-58238970D01*
X142997049Y-58258142D01*
X142998000Y-58277500D01*
X142998000Y-58752500D01*
X142997049Y-58771858D01*
X142994205Y-58791030D01*
X142989496Y-58809831D01*
X142982966Y-58828080D01*
X142974679Y-58845601D01*
X142964715Y-58862225D01*
X142953170Y-58877793D01*
X142940154Y-58892154D01*
X142925793Y-58905170D01*
X142910225Y-58916715D01*
X142893601Y-58926679D01*
X142876080Y-58934966D01*
X142857831Y-58941496D01*
X142839030Y-58946205D01*
X142819858Y-58949049D01*
X142800500Y-58950000D01*
X142405500Y-58950000D01*
X142386142Y-58949049D01*
X142366970Y-58946205D01*
X142348169Y-58941496D01*
X142329920Y-58934966D01*
X142312399Y-58926679D01*
X142295775Y-58916715D01*
X142280207Y-58905170D01*
X142265846Y-58892154D01*
X142252830Y-58877793D01*
X142241285Y-58862225D01*
X142231321Y-58845601D01*
X142223034Y-58828080D01*
X142216504Y-58809831D01*
X142211795Y-58791030D01*
X142208951Y-58771858D01*
X142208000Y-58752500D01*
X142208000Y-58277500D01*
X142208951Y-58258142D01*
X142211795Y-58238970D01*
X142216504Y-58220169D01*
X142223034Y-58201920D01*
X142231321Y-58184399D01*
X142241285Y-58167775D01*
X142252830Y-58152207D01*
X142265846Y-58137846D01*
X142280207Y-58124830D01*
X142295775Y-58113285D01*
X142312399Y-58103321D01*
X142329920Y-58095034D01*
X142348169Y-58088504D01*
X142366970Y-58083795D01*
X142386142Y-58080951D01*
X142405500Y-58080000D01*
X142800500Y-58080000D01*
X142819858Y-58080951D01*
G37*
G36*
X142819858Y-59160951D02*
G01*
X142839030Y-59163795D01*
X142857831Y-59168504D01*
X142876080Y-59175034D01*
X142893601Y-59183321D01*
X142910225Y-59193285D01*
X142925793Y-59204830D01*
X142940154Y-59217846D01*
X142953170Y-59232207D01*
X142964715Y-59247775D01*
X142974679Y-59264399D01*
X142982966Y-59281920D01*
X142989496Y-59300169D01*
X142994205Y-59318970D01*
X142997049Y-59338142D01*
X142998000Y-59357500D01*
X142998000Y-59832500D01*
X142997049Y-59851858D01*
X142994205Y-59871030D01*
X142989496Y-59889831D01*
X142982966Y-59908080D01*
X142974679Y-59925601D01*
X142964715Y-59942225D01*
X142953170Y-59957793D01*
X142940154Y-59972154D01*
X142925793Y-59985170D01*
X142910225Y-59996715D01*
X142893601Y-60006679D01*
X142876080Y-60014966D01*
X142857831Y-60021496D01*
X142839030Y-60026205D01*
X142819858Y-60029049D01*
X142800500Y-60030000D01*
X142405500Y-60030000D01*
X142386142Y-60029049D01*
X142366970Y-60026205D01*
X142348169Y-60021496D01*
X142329920Y-60014966D01*
X142312399Y-60006679D01*
X142295775Y-59996715D01*
X142280207Y-59985170D01*
X142265846Y-59972154D01*
X142252830Y-59957793D01*
X142241285Y-59942225D01*
X142231321Y-59925601D01*
X142223034Y-59908080D01*
X142216504Y-59889831D01*
X142211795Y-59871030D01*
X142208951Y-59851858D01*
X142208000Y-59832500D01*
X142208000Y-59357500D01*
X142208951Y-59338142D01*
X142211795Y-59318970D01*
X142216504Y-59300169D01*
X142223034Y-59281920D01*
X142231321Y-59264399D01*
X142241285Y-59247775D01*
X142252830Y-59232207D01*
X142265846Y-59217846D01*
X142280207Y-59204830D01*
X142295775Y-59193285D01*
X142312399Y-59183321D01*
X142329920Y-59175034D01*
X142348169Y-59168504D01*
X142366970Y-59163795D01*
X142386142Y-59160951D01*
X142405500Y-59160000D01*
X142800500Y-59160000D01*
X142819858Y-59160951D01*
G37*
G36*
X140597802Y-57880482D02*
G01*
X140607509Y-57881921D01*
X140617028Y-57884306D01*
X140626268Y-57887612D01*
X140635140Y-57891808D01*
X140643557Y-57896853D01*
X140651439Y-57902699D01*
X140658711Y-57909289D01*
X140665301Y-57916561D01*
X140671147Y-57924443D01*
X140676192Y-57932860D01*
X140680388Y-57941732D01*
X140683694Y-57950972D01*
X140686079Y-57960491D01*
X140687518Y-57970198D01*
X140688000Y-57980000D01*
X140688000Y-58180000D01*
X140687518Y-58189802D01*
X140686079Y-58199509D01*
X140683694Y-58209028D01*
X140680388Y-58218268D01*
X140676192Y-58227140D01*
X140671147Y-58235557D01*
X140665301Y-58243439D01*
X140658711Y-58250711D01*
X140651439Y-58257301D01*
X140643557Y-58263147D01*
X140635140Y-58268192D01*
X140626268Y-58272388D01*
X140617028Y-58275694D01*
X140607509Y-58278079D01*
X140597802Y-58279518D01*
X140588000Y-58280000D01*
X139338000Y-58280000D01*
X139328198Y-58279518D01*
X139318491Y-58278079D01*
X139308972Y-58275694D01*
X139299732Y-58272388D01*
X139290860Y-58268192D01*
X139282443Y-58263147D01*
X139274561Y-58257301D01*
X139267289Y-58250711D01*
X139260699Y-58243439D01*
X139254853Y-58235557D01*
X139249808Y-58227140D01*
X139245612Y-58218268D01*
X139242306Y-58209028D01*
X139239921Y-58199509D01*
X139238482Y-58189802D01*
X139238000Y-58180000D01*
X139238000Y-57980000D01*
X139238482Y-57970198D01*
X139239921Y-57960491D01*
X139242306Y-57950972D01*
X139245612Y-57941732D01*
X139249808Y-57932860D01*
X139254853Y-57924443D01*
X139260699Y-57916561D01*
X139267289Y-57909289D01*
X139274561Y-57902699D01*
X139282443Y-57896853D01*
X139290860Y-57891808D01*
X139299732Y-57887612D01*
X139308972Y-57884306D01*
X139318491Y-57881921D01*
X139328198Y-57880482D01*
X139338000Y-57880000D01*
X140588000Y-57880000D01*
X140597802Y-57880482D01*
G37*
G36*
X140597802Y-58530482D02*
G01*
X140607509Y-58531921D01*
X140617028Y-58534306D01*
X140626268Y-58537612D01*
X140635140Y-58541808D01*
X140643557Y-58546853D01*
X140651439Y-58552699D01*
X140658711Y-58559289D01*
X140665301Y-58566561D01*
X140671147Y-58574443D01*
X140676192Y-58582860D01*
X140680388Y-58591732D01*
X140683694Y-58600972D01*
X140686079Y-58610491D01*
X140687518Y-58620198D01*
X140688000Y-58630000D01*
X140688000Y-58830000D01*
X140687518Y-58839802D01*
X140686079Y-58849509D01*
X140683694Y-58859028D01*
X140680388Y-58868268D01*
X140676192Y-58877140D01*
X140671147Y-58885557D01*
X140665301Y-58893439D01*
X140658711Y-58900711D01*
X140651439Y-58907301D01*
X140643557Y-58913147D01*
X140635140Y-58918192D01*
X140626268Y-58922388D01*
X140617028Y-58925694D01*
X140607509Y-58928079D01*
X140597802Y-58929518D01*
X140588000Y-58930000D01*
X139338000Y-58930000D01*
X139328198Y-58929518D01*
X139318491Y-58928079D01*
X139308972Y-58925694D01*
X139299732Y-58922388D01*
X139290860Y-58918192D01*
X139282443Y-58913147D01*
X139274561Y-58907301D01*
X139267289Y-58900711D01*
X139260699Y-58893439D01*
X139254853Y-58885557D01*
X139249808Y-58877140D01*
X139245612Y-58868268D01*
X139242306Y-58859028D01*
X139239921Y-58849509D01*
X139238482Y-58839802D01*
X139238000Y-58830000D01*
X139238000Y-58630000D01*
X139238482Y-58620198D01*
X139239921Y-58610491D01*
X139242306Y-58600972D01*
X139245612Y-58591732D01*
X139249808Y-58582860D01*
X139254853Y-58574443D01*
X139260699Y-58566561D01*
X139267289Y-58559289D01*
X139274561Y-58552699D01*
X139282443Y-58546853D01*
X139290860Y-58541808D01*
X139299732Y-58537612D01*
X139308972Y-58534306D01*
X139318491Y-58531921D01*
X139328198Y-58530482D01*
X139338000Y-58530000D01*
X140588000Y-58530000D01*
X140597802Y-58530482D01*
G37*
G36*
X140597802Y-59180482D02*
G01*
X140607509Y-59181921D01*
X140617028Y-59184306D01*
X140626268Y-59187612D01*
X140635140Y-59191808D01*
X140643557Y-59196853D01*
X140651439Y-59202699D01*
X140658711Y-59209289D01*
X140665301Y-59216561D01*
X140671147Y-59224443D01*
X140676192Y-59232860D01*
X140680388Y-59241732D01*
X140683694Y-59250972D01*
X140686079Y-59260491D01*
X140687518Y-59270198D01*
X140688000Y-59280000D01*
X140688000Y-59480000D01*
X140687518Y-59489802D01*
X140686079Y-59499509D01*
X140683694Y-59509028D01*
X140680388Y-59518268D01*
X140676192Y-59527140D01*
X140671147Y-59535557D01*
X140665301Y-59543439D01*
X140658711Y-59550711D01*
X140651439Y-59557301D01*
X140643557Y-59563147D01*
X140635140Y-59568192D01*
X140626268Y-59572388D01*
X140617028Y-59575694D01*
X140607509Y-59578079D01*
X140597802Y-59579518D01*
X140588000Y-59580000D01*
X139338000Y-59580000D01*
X139328198Y-59579518D01*
X139318491Y-59578079D01*
X139308972Y-59575694D01*
X139299732Y-59572388D01*
X139290860Y-59568192D01*
X139282443Y-59563147D01*
X139274561Y-59557301D01*
X139267289Y-59550711D01*
X139260699Y-59543439D01*
X139254853Y-59535557D01*
X139249808Y-59527140D01*
X139245612Y-59518268D01*
X139242306Y-59509028D01*
X139239921Y-59499509D01*
X139238482Y-59489802D01*
X139238000Y-59480000D01*
X139238000Y-59280000D01*
X139238482Y-59270198D01*
X139239921Y-59260491D01*
X139242306Y-59250972D01*
X139245612Y-59241732D01*
X139249808Y-59232860D01*
X139254853Y-59224443D01*
X139260699Y-59216561D01*
X139267289Y-59209289D01*
X139274561Y-59202699D01*
X139282443Y-59196853D01*
X139290860Y-59191808D01*
X139299732Y-59187612D01*
X139308972Y-59184306D01*
X139318491Y-59181921D01*
X139328198Y-59180482D01*
X139338000Y-59180000D01*
X140588000Y-59180000D01*
X140597802Y-59180482D01*
G37*
G36*
X140597802Y-59830482D02*
G01*
X140607509Y-59831921D01*
X140617028Y-59834306D01*
X140626268Y-59837612D01*
X140635140Y-59841808D01*
X140643557Y-59846853D01*
X140651439Y-59852699D01*
X140658711Y-59859289D01*
X140665301Y-59866561D01*
X140671147Y-59874443D01*
X140676192Y-59882860D01*
X140680388Y-59891732D01*
X140683694Y-59900972D01*
X140686079Y-59910491D01*
X140687518Y-59920198D01*
X140688000Y-59930000D01*
X140688000Y-60130000D01*
X140687518Y-60139802D01*
X140686079Y-60149509D01*
X140683694Y-60159028D01*
X140680388Y-60168268D01*
X140676192Y-60177140D01*
X140671147Y-60185557D01*
X140665301Y-60193439D01*
X140658711Y-60200711D01*
X140651439Y-60207301D01*
X140643557Y-60213147D01*
X140635140Y-60218192D01*
X140626268Y-60222388D01*
X140617028Y-60225694D01*
X140607509Y-60228079D01*
X140597802Y-60229518D01*
X140588000Y-60230000D01*
X139338000Y-60230000D01*
X139328198Y-60229518D01*
X139318491Y-60228079D01*
X139308972Y-60225694D01*
X139299732Y-60222388D01*
X139290860Y-60218192D01*
X139282443Y-60213147D01*
X139274561Y-60207301D01*
X139267289Y-60200711D01*
X139260699Y-60193439D01*
X139254853Y-60185557D01*
X139249808Y-60177140D01*
X139245612Y-60168268D01*
X139242306Y-60159028D01*
X139239921Y-60149509D01*
X139238482Y-60139802D01*
X139238000Y-60130000D01*
X139238000Y-59930000D01*
X139238482Y-59920198D01*
X139239921Y-59910491D01*
X139242306Y-59900972D01*
X139245612Y-59891732D01*
X139249808Y-59882860D01*
X139254853Y-59874443D01*
X139260699Y-59866561D01*
X139267289Y-59859289D01*
X139274561Y-59852699D01*
X139282443Y-59846853D01*
X139290860Y-59841808D01*
X139299732Y-59837612D01*
X139308972Y-59834306D01*
X139318491Y-59831921D01*
X139328198Y-59830482D01*
X139338000Y-59830000D01*
X140588000Y-59830000D01*
X140597802Y-59830482D01*
G37*
G36*
X144897802Y-59830482D02*
G01*
X144907509Y-59831921D01*
X144917028Y-59834306D01*
X144926268Y-59837612D01*
X144935140Y-59841808D01*
X144943557Y-59846853D01*
X144951439Y-59852699D01*
X144958711Y-59859289D01*
X144965301Y-59866561D01*
X144971147Y-59874443D01*
X144976192Y-59882860D01*
X144980388Y-59891732D01*
X144983694Y-59900972D01*
X144986079Y-59910491D01*
X144987518Y-59920198D01*
X144988000Y-59930000D01*
X144988000Y-60130000D01*
X144987518Y-60139802D01*
X144986079Y-60149509D01*
X144983694Y-60159028D01*
X144980388Y-60168268D01*
X144976192Y-60177140D01*
X144971147Y-60185557D01*
X144965301Y-60193439D01*
X144958711Y-60200711D01*
X144951439Y-60207301D01*
X144943557Y-60213147D01*
X144935140Y-60218192D01*
X144926268Y-60222388D01*
X144917028Y-60225694D01*
X144907509Y-60228079D01*
X144897802Y-60229518D01*
X144888000Y-60230000D01*
X143638000Y-60230000D01*
X143628198Y-60229518D01*
X143618491Y-60228079D01*
X143608972Y-60225694D01*
X143599732Y-60222388D01*
X143590860Y-60218192D01*
X143582443Y-60213147D01*
X143574561Y-60207301D01*
X143567289Y-60200711D01*
X143560699Y-60193439D01*
X143554853Y-60185557D01*
X143549808Y-60177140D01*
X143545612Y-60168268D01*
X143542306Y-60159028D01*
X143539921Y-60149509D01*
X143538482Y-60139802D01*
X143538000Y-60130000D01*
X143538000Y-59930000D01*
X143538482Y-59920198D01*
X143539921Y-59910491D01*
X143542306Y-59900972D01*
X143545612Y-59891732D01*
X143549808Y-59882860D01*
X143554853Y-59874443D01*
X143560699Y-59866561D01*
X143567289Y-59859289D01*
X143574561Y-59852699D01*
X143582443Y-59846853D01*
X143590860Y-59841808D01*
X143599732Y-59837612D01*
X143608972Y-59834306D01*
X143618491Y-59831921D01*
X143628198Y-59830482D01*
X143638000Y-59830000D01*
X144888000Y-59830000D01*
X144897802Y-59830482D01*
G37*
G36*
X144897802Y-59180482D02*
G01*
X144907509Y-59181921D01*
X144917028Y-59184306D01*
X144926268Y-59187612D01*
X144935140Y-59191808D01*
X144943557Y-59196853D01*
X144951439Y-59202699D01*
X144958711Y-59209289D01*
X144965301Y-59216561D01*
X144971147Y-59224443D01*
X144976192Y-59232860D01*
X144980388Y-59241732D01*
X144983694Y-59250972D01*
X144986079Y-59260491D01*
X144987518Y-59270198D01*
X144988000Y-59280000D01*
X144988000Y-59480000D01*
X144987518Y-59489802D01*
X144986079Y-59499509D01*
X144983694Y-59509028D01*
X144980388Y-59518268D01*
X144976192Y-59527140D01*
X144971147Y-59535557D01*
X144965301Y-59543439D01*
X144958711Y-59550711D01*
X144951439Y-59557301D01*
X144943557Y-59563147D01*
X144935140Y-59568192D01*
X144926268Y-59572388D01*
X144917028Y-59575694D01*
X144907509Y-59578079D01*
X144897802Y-59579518D01*
X144888000Y-59580000D01*
X143638000Y-59580000D01*
X143628198Y-59579518D01*
X143618491Y-59578079D01*
X143608972Y-59575694D01*
X143599732Y-59572388D01*
X143590860Y-59568192D01*
X143582443Y-59563147D01*
X143574561Y-59557301D01*
X143567289Y-59550711D01*
X143560699Y-59543439D01*
X143554853Y-59535557D01*
X143549808Y-59527140D01*
X143545612Y-59518268D01*
X143542306Y-59509028D01*
X143539921Y-59499509D01*
X143538482Y-59489802D01*
X143538000Y-59480000D01*
X143538000Y-59280000D01*
X143538482Y-59270198D01*
X143539921Y-59260491D01*
X143542306Y-59250972D01*
X143545612Y-59241732D01*
X143549808Y-59232860D01*
X143554853Y-59224443D01*
X143560699Y-59216561D01*
X143567289Y-59209289D01*
X143574561Y-59202699D01*
X143582443Y-59196853D01*
X143590860Y-59191808D01*
X143599732Y-59187612D01*
X143608972Y-59184306D01*
X143618491Y-59181921D01*
X143628198Y-59180482D01*
X143638000Y-59180000D01*
X144888000Y-59180000D01*
X144897802Y-59180482D01*
G37*
G36*
X144897802Y-58530482D02*
G01*
X144907509Y-58531921D01*
X144917028Y-58534306D01*
X144926268Y-58537612D01*
X144935140Y-58541808D01*
X144943557Y-58546853D01*
X144951439Y-58552699D01*
X144958711Y-58559289D01*
X144965301Y-58566561D01*
X144971147Y-58574443D01*
X144976192Y-58582860D01*
X144980388Y-58591732D01*
X144983694Y-58600972D01*
X144986079Y-58610491D01*
X144987518Y-58620198D01*
X144988000Y-58630000D01*
X144988000Y-58830000D01*
X144987518Y-58839802D01*
X144986079Y-58849509D01*
X144983694Y-58859028D01*
X144980388Y-58868268D01*
X144976192Y-58877140D01*
X144971147Y-58885557D01*
X144965301Y-58893439D01*
X144958711Y-58900711D01*
X144951439Y-58907301D01*
X144943557Y-58913147D01*
X144935140Y-58918192D01*
X144926268Y-58922388D01*
X144917028Y-58925694D01*
X144907509Y-58928079D01*
X144897802Y-58929518D01*
X144888000Y-58930000D01*
X143638000Y-58930000D01*
X143628198Y-58929518D01*
X143618491Y-58928079D01*
X143608972Y-58925694D01*
X143599732Y-58922388D01*
X143590860Y-58918192D01*
X143582443Y-58913147D01*
X143574561Y-58907301D01*
X143567289Y-58900711D01*
X143560699Y-58893439D01*
X143554853Y-58885557D01*
X143549808Y-58877140D01*
X143545612Y-58868268D01*
X143542306Y-58859028D01*
X143539921Y-58849509D01*
X143538482Y-58839802D01*
X143538000Y-58830000D01*
X143538000Y-58630000D01*
X143538482Y-58620198D01*
X143539921Y-58610491D01*
X143542306Y-58600972D01*
X143545612Y-58591732D01*
X143549808Y-58582860D01*
X143554853Y-58574443D01*
X143560699Y-58566561D01*
X143567289Y-58559289D01*
X143574561Y-58552699D01*
X143582443Y-58546853D01*
X143590860Y-58541808D01*
X143599732Y-58537612D01*
X143608972Y-58534306D01*
X143618491Y-58531921D01*
X143628198Y-58530482D01*
X143638000Y-58530000D01*
X144888000Y-58530000D01*
X144897802Y-58530482D01*
G37*
G36*
X144897802Y-57880482D02*
G01*
X144907509Y-57881921D01*
X144917028Y-57884306D01*
X144926268Y-57887612D01*
X144935140Y-57891808D01*
X144943557Y-57896853D01*
X144951439Y-57902699D01*
X144958711Y-57909289D01*
X144965301Y-57916561D01*
X144971147Y-57924443D01*
X144976192Y-57932860D01*
X144980388Y-57941732D01*
X144983694Y-57950972D01*
X144986079Y-57960491D01*
X144987518Y-57970198D01*
X144988000Y-57980000D01*
X144988000Y-58180000D01*
X144987518Y-58189802D01*
X144986079Y-58199509D01*
X144983694Y-58209028D01*
X144980388Y-58218268D01*
X144976192Y-58227140D01*
X144971147Y-58235557D01*
X144965301Y-58243439D01*
X144958711Y-58250711D01*
X144951439Y-58257301D01*
X144943557Y-58263147D01*
X144935140Y-58268192D01*
X144926268Y-58272388D01*
X144917028Y-58275694D01*
X144907509Y-58278079D01*
X144897802Y-58279518D01*
X144888000Y-58280000D01*
X143638000Y-58280000D01*
X143628198Y-58279518D01*
X143618491Y-58278079D01*
X143608972Y-58275694D01*
X143599732Y-58272388D01*
X143590860Y-58268192D01*
X143582443Y-58263147D01*
X143574561Y-58257301D01*
X143567289Y-58250711D01*
X143560699Y-58243439D01*
X143554853Y-58235557D01*
X143549808Y-58227140D01*
X143545612Y-58218268D01*
X143542306Y-58209028D01*
X143539921Y-58199509D01*
X143538482Y-58189802D01*
X143538000Y-58180000D01*
X143538000Y-57980000D01*
X143538482Y-57970198D01*
X143539921Y-57960491D01*
X143542306Y-57950972D01*
X143545612Y-57941732D01*
X143549808Y-57932860D01*
X143554853Y-57924443D01*
X143560699Y-57916561D01*
X143567289Y-57909289D01*
X143574561Y-57902699D01*
X143582443Y-57896853D01*
X143590860Y-57891808D01*
X143599732Y-57887612D01*
X143608972Y-57884306D01*
X143618491Y-57881921D01*
X143628198Y-57880482D01*
X143638000Y-57880000D01*
X144888000Y-57880000D01*
X144897802Y-57880482D01*
G37*
G36*
X170448504Y-67905204D02*
G01*
X170472773Y-67908804D01*
X170496571Y-67914765D01*
X170519671Y-67923030D01*
X170541849Y-67933520D01*
X170562893Y-67946133D01*
X170582598Y-67960747D01*
X170600777Y-67977223D01*
X170617253Y-67995402D01*
X170631867Y-68015107D01*
X170644480Y-68036151D01*
X170654970Y-68058329D01*
X170663235Y-68081429D01*
X170669196Y-68105227D01*
X170672796Y-68129496D01*
X170674000Y-68154000D01*
X170674000Y-69079000D01*
X170672796Y-69103504D01*
X170669196Y-69127773D01*
X170663235Y-69151571D01*
X170654970Y-69174671D01*
X170644480Y-69196849D01*
X170631867Y-69217893D01*
X170617253Y-69237598D01*
X170600777Y-69255777D01*
X170582598Y-69272253D01*
X170562893Y-69286867D01*
X170541849Y-69299480D01*
X170519671Y-69309970D01*
X170496571Y-69318235D01*
X170472773Y-69324196D01*
X170448504Y-69327796D01*
X170424000Y-69329000D01*
X169174000Y-69329000D01*
X169149496Y-69327796D01*
X169125227Y-69324196D01*
X169101429Y-69318235D01*
X169078329Y-69309970D01*
X169056151Y-69299480D01*
X169035107Y-69286867D01*
X169015402Y-69272253D01*
X168997223Y-69255777D01*
X168980747Y-69237598D01*
X168966133Y-69217893D01*
X168953520Y-69196849D01*
X168943030Y-69174671D01*
X168934765Y-69151571D01*
X168928804Y-69127773D01*
X168925204Y-69103504D01*
X168924000Y-69079000D01*
X168924000Y-68154000D01*
X168925204Y-68129496D01*
X168928804Y-68105227D01*
X168934765Y-68081429D01*
X168943030Y-68058329D01*
X168953520Y-68036151D01*
X168966133Y-68015107D01*
X168980747Y-67995402D01*
X168997223Y-67977223D01*
X169015402Y-67960747D01*
X169035107Y-67946133D01*
X169056151Y-67933520D01*
X169078329Y-67923030D01*
X169101429Y-67914765D01*
X169125227Y-67908804D01*
X169149496Y-67905204D01*
X169174000Y-67904000D01*
X170424000Y-67904000D01*
X170448504Y-67905204D01*
G37*
G36*
X170448504Y-70880204D02*
G01*
X170472773Y-70883804D01*
X170496571Y-70889765D01*
X170519671Y-70898030D01*
X170541849Y-70908520D01*
X170562893Y-70921133D01*
X170582598Y-70935747D01*
X170600777Y-70952223D01*
X170617253Y-70970402D01*
X170631867Y-70990107D01*
X170644480Y-71011151D01*
X170654970Y-71033329D01*
X170663235Y-71056429D01*
X170669196Y-71080227D01*
X170672796Y-71104496D01*
X170674000Y-71129000D01*
X170674000Y-72054000D01*
X170672796Y-72078504D01*
X170669196Y-72102773D01*
X170663235Y-72126571D01*
X170654970Y-72149671D01*
X170644480Y-72171849D01*
X170631867Y-72192893D01*
X170617253Y-72212598D01*
X170600777Y-72230777D01*
X170582598Y-72247253D01*
X170562893Y-72261867D01*
X170541849Y-72274480D01*
X170519671Y-72284970D01*
X170496571Y-72293235D01*
X170472773Y-72299196D01*
X170448504Y-72302796D01*
X170424000Y-72304000D01*
X169174000Y-72304000D01*
X169149496Y-72302796D01*
X169125227Y-72299196D01*
X169101429Y-72293235D01*
X169078329Y-72284970D01*
X169056151Y-72274480D01*
X169035107Y-72261867D01*
X169015402Y-72247253D01*
X168997223Y-72230777D01*
X168980747Y-72212598D01*
X168966133Y-72192893D01*
X168953520Y-72171849D01*
X168943030Y-72149671D01*
X168934765Y-72126571D01*
X168928804Y-72102773D01*
X168925204Y-72078504D01*
X168924000Y-72054000D01*
X168924000Y-71129000D01*
X168925204Y-71104496D01*
X168928804Y-71080227D01*
X168934765Y-71056429D01*
X168943030Y-71033329D01*
X168953520Y-71011151D01*
X168966133Y-70990107D01*
X168980747Y-70970402D01*
X168997223Y-70952223D01*
X169015402Y-70935747D01*
X169035107Y-70921133D01*
X169056151Y-70908520D01*
X169078329Y-70898030D01*
X169101429Y-70889765D01*
X169125227Y-70883804D01*
X169149496Y-70880204D01*
X169174000Y-70879000D01*
X170424000Y-70879000D01*
X170448504Y-70880204D01*
G37*
M02*
