G04 #@! TF.GenerationSoftware,KiCad,Pcbnew,(5.1.4)-1*
G04 #@! TF.CreationDate,2019-12-30T13:26:31-06:00*
G04 #@! TF.ProjectId,digital_pcb,64696769-7461-46c5-9f70-63622e6b6963,rev?*
G04 #@! TF.SameCoordinates,Original*
G04 #@! TF.FileFunction,Paste,Top*
G04 #@! TF.FilePolarity,Positive*
%FSLAX46Y46*%
G04 Gerber Fmt 4.6, Leading zero omitted, Abs format (unit mm)*
G04 Created by KiCad (PCBNEW (5.1.4)-1) date 2019-12-30 13:26:31*
%MOMM*%
%LPD*%
G04 APERTURE LIST*
%ADD10C,0.010000*%
%ADD11R,1.200000X0.750000*%
%ADD12R,0.750000X1.200000*%
%ADD13R,1.250000X1.500000*%
%ADD14R,0.800000X0.900000*%
%ADD15R,0.900000X1.200000*%
%ADD16R,1.200000X0.900000*%
%ADD17R,0.250000X1.300000*%
%ADD18R,1.300000X0.250000*%
%ADD19R,0.300000X0.525000*%
%ADD20R,0.425000X0.300000*%
%ADD21R,0.810000X0.420000*%
%ADD22R,1.500000X0.450000*%
%ADD23R,0.950000X1.050000*%
%ADD24R,0.650000X1.560000*%
%ADD25R,2.000000X1.500000*%
%ADD26R,2.000000X3.800000*%
%ADD27R,1.560000X0.650000*%
%ADD28R,2.000000X4.500000*%
%ADD29R,4.500000X2.000000*%
G04 APERTURE END LIST*
D10*
G36*
X164752304Y-80013053D02*
G01*
X165701341Y-80013053D01*
X165701341Y-81531516D01*
X164752304Y-81531516D01*
X164752304Y-80013053D01*
G37*
X164752304Y-80013053D02*
X165701341Y-80013053D01*
X165701341Y-81531516D01*
X164752304Y-81531516D01*
X164752304Y-80013053D01*
D11*
X150122001Y-89954001D03*
X152022001Y-89954001D03*
X155387000Y-88519000D03*
X157287000Y-88519000D03*
X157287000Y-104140000D03*
X155387000Y-104140000D03*
X174432000Y-92329000D03*
X172532000Y-92329000D03*
X172532000Y-101473000D03*
X174432000Y-101473000D03*
X160086000Y-90805000D03*
X161986000Y-90805000D03*
D12*
X161671000Y-105090000D03*
X161671000Y-103190000D03*
D11*
X150429000Y-79502000D03*
X148529000Y-79502000D03*
D12*
X151638000Y-76388000D03*
X151638000Y-74488000D03*
X154686000Y-85405000D03*
X154686000Y-83505000D03*
X167132000Y-74991000D03*
X167132000Y-73091000D03*
D11*
X151445000Y-72517000D03*
X149545000Y-72517000D03*
D12*
X168275000Y-79822000D03*
X168275000Y-81722000D03*
X161417000Y-120330000D03*
X161417000Y-118430000D03*
X156083000Y-120330000D03*
X156083000Y-118430000D03*
D11*
X159700000Y-116459000D03*
X157800000Y-116459000D03*
X164150000Y-111887000D03*
X166050000Y-111887000D03*
X151450000Y-113030000D03*
X153350000Y-113030000D03*
X152715000Y-106172000D03*
X150815000Y-106172000D03*
X164150000Y-113284000D03*
X166050000Y-113284000D03*
X187259000Y-76581000D03*
X185359000Y-76581000D03*
D12*
X172466000Y-69027000D03*
X172466000Y-70927000D03*
D13*
X137287000Y-85324000D03*
X137287000Y-82824000D03*
D12*
X135509000Y-83124000D03*
X135509000Y-85024000D03*
X133985000Y-85024000D03*
X133985000Y-83124000D03*
D13*
X137287000Y-77871000D03*
X137287000Y-80371000D03*
D12*
X135509000Y-78171000D03*
X135509000Y-80071000D03*
X133985000Y-80071000D03*
X133985000Y-78171000D03*
X135763000Y-72837000D03*
X135763000Y-74737000D03*
X135763000Y-65974000D03*
X135763000Y-64074000D03*
X142621000Y-74737000D03*
X142621000Y-72837000D03*
D11*
X138242000Y-67818000D03*
X140142000Y-67818000D03*
X138242000Y-70993000D03*
X140142000Y-70993000D03*
D13*
X142875000Y-66274000D03*
X142875000Y-63774000D03*
D14*
X182499000Y-68342000D03*
X183449000Y-70342000D03*
X181549000Y-70342000D03*
D15*
X165481000Y-88222000D03*
X165481000Y-86022000D03*
X166497000Y-106637000D03*
X166497000Y-104437000D03*
X163830000Y-86022000D03*
X163830000Y-88222000D03*
X162179000Y-88222000D03*
X162179000Y-86022000D03*
D16*
X152177001Y-88392000D03*
X149977001Y-88392000D03*
D15*
X168148000Y-104437000D03*
X168148000Y-106637000D03*
X169799000Y-106637000D03*
X169799000Y-104437000D03*
X152781000Y-97493000D03*
X152781000Y-95293000D03*
D16*
X161374000Y-81661000D03*
X159174000Y-81661000D03*
X161399999Y-79945999D03*
X159199999Y-79945999D03*
D15*
X152781000Y-85555000D03*
X152781000Y-83355000D03*
D16*
X150579000Y-81153000D03*
X148379000Y-81153000D03*
X157396000Y-83312000D03*
X159596000Y-83312000D03*
D15*
X159766000Y-118280000D03*
X159766000Y-120480000D03*
X157734000Y-120480000D03*
X157734000Y-118280000D03*
D16*
X164000000Y-114808000D03*
X166200000Y-114808000D03*
X151300000Y-114554000D03*
X153500000Y-114554000D03*
X149309000Y-107950000D03*
X147109000Y-107950000D03*
X147109000Y-109728000D03*
X149309000Y-109728000D03*
X151300000Y-111506000D03*
X153500000Y-111506000D03*
D15*
X183515000Y-74379000D03*
X183515000Y-72179000D03*
X181864000Y-74379000D03*
X181864000Y-72179000D03*
X170688000Y-71077000D03*
X170688000Y-68877000D03*
D17*
X163493000Y-92551000D03*
X163993000Y-92551000D03*
X164493000Y-92551000D03*
X164993000Y-92551000D03*
X165493000Y-92551000D03*
X165993000Y-92551000D03*
X166493000Y-92551000D03*
X166993000Y-92551000D03*
X167493000Y-92551000D03*
X167993000Y-92551000D03*
X168493000Y-92551000D03*
X168993000Y-92551000D03*
D18*
X170593000Y-94151000D03*
X170593000Y-94651000D03*
X170593000Y-95151000D03*
X170593000Y-95651000D03*
X170593000Y-96151000D03*
X170593000Y-96651000D03*
X170593000Y-97151000D03*
X170593000Y-97651000D03*
X170593000Y-98151000D03*
X170593000Y-98651000D03*
X170593000Y-99151000D03*
X170593000Y-99651000D03*
D17*
X168993000Y-101251000D03*
X168493000Y-101251000D03*
X167993000Y-101251000D03*
X167493000Y-101251000D03*
X166993000Y-101251000D03*
X166493000Y-101251000D03*
X165993000Y-101251000D03*
X165493000Y-101251000D03*
X164993000Y-101251000D03*
X164493000Y-101251000D03*
X163993000Y-101251000D03*
X163493000Y-101251000D03*
D18*
X161893000Y-99651000D03*
X161893000Y-99151000D03*
X161893000Y-98651000D03*
X161893000Y-98151000D03*
X161893000Y-97651000D03*
X161893000Y-97151000D03*
X161893000Y-96651000D03*
X161893000Y-96151000D03*
X161893000Y-95651000D03*
X161893000Y-95151000D03*
X161893000Y-94651000D03*
X161893000Y-94151000D03*
D19*
X153317000Y-78193500D03*
X153817000Y-78193500D03*
X154317000Y-78193500D03*
X154817000Y-78193500D03*
X155317000Y-78193500D03*
X155817000Y-78193500D03*
X156317000Y-78193500D03*
X156817000Y-78193500D03*
X157317000Y-78193500D03*
D20*
X157379500Y-79006000D03*
X157379500Y-79506000D03*
X157379500Y-80006000D03*
X157379500Y-80506000D03*
D19*
X157317000Y-81318500D03*
X156817000Y-81318500D03*
X156317000Y-81318500D03*
X155817000Y-81318500D03*
X155317000Y-81318500D03*
X154817000Y-81318500D03*
X154317000Y-81318500D03*
X153817000Y-81318500D03*
X153317000Y-81318500D03*
X152817000Y-81318500D03*
D20*
X152754500Y-80506000D03*
X152754500Y-80006000D03*
X152754500Y-79506000D03*
X152754500Y-79006000D03*
D19*
X152817000Y-78193500D03*
D21*
X166682000Y-79772000D03*
X166682000Y-80772000D03*
X166682000Y-81772000D03*
X163772000Y-81772000D03*
X163772000Y-80772000D03*
X163772000Y-79772000D03*
D22*
X161700000Y-110374000D03*
X161700000Y-111024000D03*
X161700000Y-111674000D03*
X161700000Y-112324000D03*
X161700000Y-112974000D03*
X161700000Y-113624000D03*
X161700000Y-114274000D03*
X161700000Y-114924000D03*
X155800000Y-114924000D03*
X155800000Y-114274000D03*
X155800000Y-113624000D03*
X155800000Y-112974000D03*
X155800000Y-112324000D03*
X155800000Y-111674000D03*
X155800000Y-111024000D03*
X155800000Y-110374000D03*
D23*
X151040000Y-107914000D03*
X151040000Y-109764000D03*
X152490000Y-109764000D03*
X152490000Y-107914000D03*
D24*
X187259000Y-71929000D03*
X186309000Y-71929000D03*
X185359000Y-71929000D03*
X185359000Y-74629000D03*
X187259000Y-74629000D03*
D25*
X131663000Y-83911000D03*
X131663000Y-79311000D03*
X131663000Y-81611000D03*
D26*
X125363000Y-81611000D03*
D27*
X140542000Y-72837000D03*
X140542000Y-74737000D03*
X137842000Y-74737000D03*
X137842000Y-73787000D03*
X137842000Y-72837000D03*
X140542000Y-64074000D03*
X140542000Y-65974000D03*
X137842000Y-65974000D03*
X137842000Y-65024000D03*
X137842000Y-64074000D03*
D28*
X156337000Y-100643000D03*
X156337000Y-92143000D03*
D29*
X163635000Y-74041000D03*
X155135000Y-74041000D03*
D16*
X171920999Y-77470000D03*
X174120999Y-77470000D03*
X174120999Y-75773999D03*
X171920999Y-75773999D03*
X150538000Y-118364000D03*
X152738000Y-118364000D03*
X150538000Y-120142000D03*
X152738000Y-120142000D03*
X164000000Y-110236000D03*
X166200000Y-110236000D03*
X166540000Y-108458000D03*
X168740000Y-108458000D03*
X155364000Y-108712000D03*
X157564000Y-108712000D03*
X157564000Y-107061000D03*
X155364000Y-107061000D03*
D15*
X159893000Y-104056000D03*
X159893000Y-106256000D03*
M02*
