G04 #@! TF.GenerationSoftware,KiCad,Pcbnew,(5.1.4)-1*
G04 #@! TF.CreationDate,2019-12-03T14:04:10-06:00*
G04 #@! TF.ProjectId,cutdown,63757464-6f77-46e2-9e6b-696361645f70,rev?*
G04 #@! TF.SameCoordinates,Original*
G04 #@! TF.FileFunction,Legend,Top*
G04 #@! TF.FilePolarity,Positive*
%FSLAX46Y46*%
G04 Gerber Fmt 4.6, Leading zero omitted, Abs format (unit mm)*
G04 Created by KiCad (PCBNEW (5.1.4)-1) date 2019-12-03 14:04:10*
%MOMM*%
%LPD*%
G04 APERTURE LIST*
%ADD10C,0.150000*%
%ADD11C,0.120000*%
%ADD12C,0.100000*%
G04 APERTURE END LIST*
D10*
X192677270Y-86066469D02*
G75*
G02X192562000Y-100645000I-1415270J-7278531D01*
G01*
X189961999Y-100644999D02*
G75*
G02X189962001Y-86045001I1300001J7299999D01*
G01*
X197108000Y-54737000D02*
G75*
G03X197108000Y-54737000I-6100000J0D01*
G01*
D11*
X186249000Y-107629000D02*
X186249000Y-106299000D01*
X187579000Y-107629000D02*
X186249000Y-107629000D01*
X188849000Y-107629000D02*
X188849000Y-104969000D01*
X188849000Y-104969000D02*
X196529000Y-104969000D01*
X188849000Y-107629000D02*
X196529000Y-107629000D01*
X196529000Y-107629000D02*
X196529000Y-104969000D01*
X183978000Y-105021000D02*
X183978000Y-104021000D01*
X185338000Y-104021000D02*
X185338000Y-105021000D01*
X194318000Y-61677000D02*
X195318000Y-61677000D01*
X195318000Y-63037000D02*
X194318000Y-63037000D01*
X195318000Y-64688000D02*
X194318000Y-64688000D01*
X194318000Y-63328000D02*
X195318000Y-63328000D01*
X199091000Y-86733000D02*
X199091000Y-85733000D01*
X200451000Y-85733000D02*
X200451000Y-86733000D01*
X200615000Y-86733000D02*
X200615000Y-85733000D01*
X201975000Y-85733000D02*
X201975000Y-86733000D01*
D12*
X183135000Y-66676000D02*
X199135000Y-66676000D01*
X199135000Y-66676000D02*
X199135000Y-82676000D01*
X199135000Y-82676000D02*
X183135000Y-82676000D01*
X183135000Y-82676000D02*
X183135000Y-66676000D01*
D10*
X190476285Y-93146571D02*
X190619142Y-93194190D01*
X190666761Y-93241809D01*
X190714380Y-93337047D01*
X190714380Y-93479904D01*
X190666761Y-93575142D01*
X190619142Y-93622761D01*
X190523904Y-93670380D01*
X190142952Y-93670380D01*
X190142952Y-92670380D01*
X190476285Y-92670380D01*
X190571523Y-92718000D01*
X190619142Y-92765619D01*
X190666761Y-92860857D01*
X190666761Y-92956095D01*
X190619142Y-93051333D01*
X190571523Y-93098952D01*
X190476285Y-93146571D01*
X190142952Y-93146571D01*
X191000095Y-92670380D02*
X191571523Y-92670380D01*
X191285809Y-93670380D02*
X191285809Y-92670380D01*
X192428666Y-93670380D02*
X191857238Y-93670380D01*
X192142952Y-93670380D02*
X192142952Y-92670380D01*
X192047714Y-92813238D01*
X191952476Y-92908476D01*
X191857238Y-92956095D01*
X187833047Y-84653428D02*
X188594952Y-84653428D01*
X188214000Y-85034380D02*
X188214000Y-84272476D01*
X190127047Y-49966571D02*
X190269904Y-50014190D01*
X190317523Y-50061809D01*
X190365142Y-50157047D01*
X190365142Y-50299904D01*
X190317523Y-50395142D01*
X190269904Y-50442761D01*
X190174666Y-50490380D01*
X189793714Y-50490380D01*
X189793714Y-49490380D01*
X190127047Y-49490380D01*
X190222285Y-49538000D01*
X190269904Y-49585619D01*
X190317523Y-49680857D01*
X190317523Y-49776095D01*
X190269904Y-49871333D01*
X190222285Y-49918952D01*
X190127047Y-49966571D01*
X189793714Y-49966571D01*
X190698476Y-49490380D02*
X191365142Y-49490380D01*
X190698476Y-50490380D01*
X191365142Y-50490380D01*
X192269904Y-50490380D02*
X191698476Y-50490380D01*
X191984190Y-50490380D02*
X191984190Y-49490380D01*
X191888952Y-49633238D01*
X191793714Y-49728476D01*
X191698476Y-49776095D01*
X197659666Y-105751380D02*
X197659666Y-106465666D01*
X197612047Y-106608523D01*
X197516809Y-106703761D01*
X197373952Y-106751380D01*
X197278714Y-106751380D01*
X198659666Y-106751380D02*
X198088238Y-106751380D01*
X198373952Y-106751380D02*
X198373952Y-105751380D01*
X198278714Y-105894238D01*
X198183476Y-105989476D01*
X198088238Y-106037095D01*
X183660380Y-104687666D02*
X183184190Y-105021000D01*
X183660380Y-105259095D02*
X182660380Y-105259095D01*
X182660380Y-104878142D01*
X182708000Y-104782904D01*
X182755619Y-104735285D01*
X182850857Y-104687666D01*
X182993714Y-104687666D01*
X183088952Y-104735285D01*
X183136571Y-104782904D01*
X183184190Y-104878142D01*
X183184190Y-105259095D01*
X182660380Y-104354333D02*
X182660380Y-103735285D01*
X183041333Y-104068619D01*
X183041333Y-103925761D01*
X183088952Y-103830523D01*
X183136571Y-103782904D01*
X183231809Y-103735285D01*
X183469904Y-103735285D01*
X183565142Y-103782904D01*
X183612761Y-103830523D01*
X183660380Y-103925761D01*
X183660380Y-104211476D01*
X183612761Y-104306714D01*
X183565142Y-104354333D01*
X191603333Y-62809380D02*
X191270000Y-62333190D01*
X191031904Y-62809380D02*
X191031904Y-61809380D01*
X191412857Y-61809380D01*
X191508095Y-61857000D01*
X191555714Y-61904619D01*
X191603333Y-61999857D01*
X191603333Y-62142714D01*
X191555714Y-62237952D01*
X191508095Y-62285571D01*
X191412857Y-62333190D01*
X191031904Y-62333190D01*
X192460476Y-62142714D02*
X192460476Y-62809380D01*
X192222380Y-61761761D02*
X191984285Y-62476047D01*
X192603333Y-62476047D01*
X191603333Y-64460380D02*
X191270000Y-63984190D01*
X191031904Y-64460380D02*
X191031904Y-63460380D01*
X191412857Y-63460380D01*
X191508095Y-63508000D01*
X191555714Y-63555619D01*
X191603333Y-63650857D01*
X191603333Y-63793714D01*
X191555714Y-63888952D01*
X191508095Y-63936571D01*
X191412857Y-63984190D01*
X191031904Y-63984190D01*
X192508095Y-63460380D02*
X192031904Y-63460380D01*
X191984285Y-63936571D01*
X192031904Y-63888952D01*
X192127142Y-63841333D01*
X192365238Y-63841333D01*
X192460476Y-63888952D01*
X192508095Y-63936571D01*
X192555714Y-64031809D01*
X192555714Y-64269904D01*
X192508095Y-64365142D01*
X192460476Y-64412761D01*
X192365238Y-64460380D01*
X192127142Y-64460380D01*
X192031904Y-64412761D01*
X191984285Y-64365142D01*
X200223380Y-89447666D02*
X199747190Y-89781000D01*
X200223380Y-90019095D02*
X199223380Y-90019095D01*
X199223380Y-89638142D01*
X199271000Y-89542904D01*
X199318619Y-89495285D01*
X199413857Y-89447666D01*
X199556714Y-89447666D01*
X199651952Y-89495285D01*
X199699571Y-89542904D01*
X199747190Y-89638142D01*
X199747190Y-90019095D01*
X200223380Y-88971476D02*
X200223380Y-88781000D01*
X200175761Y-88685761D01*
X200128142Y-88638142D01*
X199985285Y-88542904D01*
X199794809Y-88495285D01*
X199413857Y-88495285D01*
X199318619Y-88542904D01*
X199271000Y-88590523D01*
X199223380Y-88685761D01*
X199223380Y-88876238D01*
X199271000Y-88971476D01*
X199318619Y-89019095D01*
X199413857Y-89066714D01*
X199651952Y-89066714D01*
X199747190Y-89019095D01*
X199794809Y-88971476D01*
X199842428Y-88876238D01*
X199842428Y-88685761D01*
X199794809Y-88590523D01*
X199747190Y-88542904D01*
X199651952Y-88495285D01*
X201747380Y-90431857D02*
X201271190Y-90765190D01*
X201747380Y-91003285D02*
X200747380Y-91003285D01*
X200747380Y-90622333D01*
X200795000Y-90527095D01*
X200842619Y-90479476D01*
X200937857Y-90431857D01*
X201080714Y-90431857D01*
X201175952Y-90479476D01*
X201223571Y-90527095D01*
X201271190Y-90622333D01*
X201271190Y-91003285D01*
X201747380Y-89479476D02*
X201747380Y-90050904D01*
X201747380Y-89765190D02*
X200747380Y-89765190D01*
X200890238Y-89860428D01*
X200985476Y-89955666D01*
X201033095Y-90050904D01*
X200747380Y-88860428D02*
X200747380Y-88765190D01*
X200795000Y-88669952D01*
X200842619Y-88622333D01*
X200937857Y-88574714D01*
X201128333Y-88527095D01*
X201366428Y-88527095D01*
X201556904Y-88574714D01*
X201652142Y-88622333D01*
X201699761Y-88669952D01*
X201747380Y-88765190D01*
X201747380Y-88860428D01*
X201699761Y-88955666D01*
X201652142Y-89003285D01*
X201556904Y-89050904D01*
X201366428Y-89098523D01*
X201128333Y-89098523D01*
X200937857Y-89050904D01*
X200842619Y-89003285D01*
X200795000Y-88955666D01*
X200747380Y-88860428D01*
X183261095Y-65238380D02*
X183261095Y-66047904D01*
X183308714Y-66143142D01*
X183356333Y-66190761D01*
X183451571Y-66238380D01*
X183642047Y-66238380D01*
X183737285Y-66190761D01*
X183784904Y-66143142D01*
X183832523Y-66047904D01*
X183832523Y-65238380D01*
X184213476Y-65238380D02*
X184832523Y-65238380D01*
X184499190Y-65619333D01*
X184642047Y-65619333D01*
X184737285Y-65666952D01*
X184784904Y-65714571D01*
X184832523Y-65809809D01*
X184832523Y-66047904D01*
X184784904Y-66143142D01*
X184737285Y-66190761D01*
X184642047Y-66238380D01*
X184356333Y-66238380D01*
X184261095Y-66190761D01*
X184213476Y-66143142D01*
M02*
