M48
; DRILL file {KiCad (5.1.4)-1} date 12/6/2019 10:27:54 AM
; FORMAT={-:-/ absolute / inch / decimal}
; #@! TF.CreationDate,2019-12-06T10:27:54-06:00
; #@! TF.GenerationSoftware,Kicad,Pcbnew,(5.1.4)-1
; #@! TF.FileFunction,Plated,1,4,PTH
FMAT,2
INCH
T1C0.0100
T2C0.0354
T3C0.0394
T4C0.0400
%
G90
G05
T1
X7.265Y-2.72
X7.315Y-2.675
X7.32Y-4.07
X7.325Y-3.005
X7.325Y-3.195
X7.345Y-2.93
X7.36Y-2.81
X7.435Y-2.81
X7.455Y-2.995
X7.485Y-2.425
X7.545Y-2.995
X7.585Y-2.75
X7.605Y-4.005
X7.615Y-3.335
X7.625Y-2.57
X7.625Y-3.37
X7.645Y-3.3
X7.66Y-2.75
X7.665Y-1.93
X7.67Y-2.45
X7.67Y-2.52
X7.67Y-3.5
X7.7102Y-3.4002
X7.725Y-3.085
X7.73Y-3.195
X7.735Y-2.675
X7.775Y-3.34
X7.78Y-2.385
X7.78Y-2.515
X7.79Y-2.725
X7.815Y-1.93
X7.815Y-3.34
X7.82Y-3.54
X7.835Y-2.7
X7.895Y-3.481
X7.925Y-3.395
X7.965Y-3.5
T2
X7.4216Y-2.155
X7.6184Y-2.155
T3
X7.385Y-4.185
X7.485Y-4.185
X7.585Y-4.185
X7.685Y-4.185
T4
X7.125Y-2.15
X7.125Y-2.25
X7.125Y-2.35
X7.125Y-2.45
X7.125Y-2.55
X7.125Y-2.65
X7.125Y-2.75
X7.125Y-2.85
X7.125Y-2.95
X7.125Y-3.05
X7.125Y-3.15
X7.125Y-3.25
X7.125Y-3.35
X7.125Y-3.45
X7.125Y-3.55
X7.125Y-3.65
X7.925Y-2.15
X7.925Y-2.25
X7.925Y-2.35
X7.925Y-2.45
X7.925Y-2.55
X7.925Y-2.65
X7.925Y-2.75
X7.925Y-2.85
X7.925Y-2.95
X7.925Y-3.05
X7.925Y-3.15
X7.925Y-3.25
T0
M30
