G04 #@! TF.GenerationSoftware,KiCad,Pcbnew,(5.1.7)-1*
G04 #@! TF.CreationDate,2021-11-09T10:37:56-06:00*
G04 #@! TF.ProjectId,cutdown,63757464-6f77-46e2-9e6b-696361645f70,3.1*
G04 #@! TF.SameCoordinates,Original*
G04 #@! TF.FileFunction,Copper,L4,Bot*
G04 #@! TF.FilePolarity,Positive*
%FSLAX46Y46*%
G04 Gerber Fmt 4.6, Leading zero omitted, Abs format (unit mm)*
G04 Created by KiCad (PCBNEW (5.1.7)-1) date 2021-11-09 10:37:56*
%MOMM*%
%LPD*%
G01*
G04 APERTURE LIST*
G04 #@! TA.AperFunction,ComponentPad*
%ADD10R,1.700000X1.700000*%
G04 #@! TD*
G04 #@! TA.AperFunction,ComponentPad*
%ADD11O,1.700000X1.700000*%
G04 #@! TD*
G04 #@! TA.AperFunction,ComponentPad*
%ADD12C,2.100000*%
G04 #@! TD*
G04 #@! TA.AperFunction,ComponentPad*
%ADD13R,2.625000X2.625000*%
G04 #@! TD*
G04 #@! TA.AperFunction,ComponentPad*
%ADD14C,2.625000*%
G04 #@! TD*
G04 #@! TA.AperFunction,ComponentPad*
%ADD15R,1.350000X1.350000*%
G04 #@! TD*
G04 #@! TA.AperFunction,ComponentPad*
%ADD16O,1.350000X1.350000*%
G04 #@! TD*
G04 #@! TA.AperFunction,ComponentPad*
%ADD17R,2.000000X1.905000*%
G04 #@! TD*
G04 #@! TA.AperFunction,ComponentPad*
%ADD18O,2.000000X1.905000*%
G04 #@! TD*
G04 #@! TA.AperFunction,SMDPad,CuDef*
%ADD19R,1.000000X3.500000*%
G04 #@! TD*
G04 #@! TA.AperFunction,SMDPad,CuDef*
%ADD20R,1.500000X3.400000*%
G04 #@! TD*
G04 #@! TA.AperFunction,ViaPad*
%ADD21C,0.508000*%
G04 #@! TD*
G04 #@! TA.AperFunction,ViaPad*
%ADD22C,1.016000*%
G04 #@! TD*
G04 #@! TA.AperFunction,Conductor*
%ADD23C,0.508000*%
G04 #@! TD*
G04 #@! TA.AperFunction,Conductor*
%ADD24C,0.304800*%
G04 #@! TD*
G04 #@! TA.AperFunction,Conductor*
%ADD25C,2.540000*%
G04 #@! TD*
G04 APERTURE END LIST*
D10*
X136398000Y-137414000D03*
D11*
X136398000Y-139954000D03*
X133858000Y-137414000D03*
X133858000Y-139954000D03*
X131318000Y-137414000D03*
X131318000Y-139954000D03*
D12*
X105029000Y-96111000D03*
X105029000Y-92611000D03*
D13*
X109700000Y-143944000D03*
D14*
X114300000Y-143944000D03*
D15*
X115062000Y-153338000D03*
D16*
X115062000Y-175338000D03*
X117062000Y-153338000D03*
X117062000Y-175338000D03*
X119062000Y-153338000D03*
X119062000Y-175338000D03*
X121062000Y-153338000D03*
X121062000Y-175338000D03*
X123062000Y-153338000D03*
X123062000Y-175338000D03*
X125062000Y-153338000D03*
X125062000Y-175338000D03*
X127062000Y-153338000D03*
X127062000Y-175338000D03*
X129062000Y-153338000D03*
X129062000Y-175338000D03*
X131062000Y-153338000D03*
X131062000Y-175338000D03*
X133062000Y-153338000D03*
X133062000Y-175338000D03*
D17*
X141605000Y-115824000D03*
D18*
X141605000Y-113284000D03*
X141605000Y-110744000D03*
D19*
X139462000Y-92075000D03*
X141462000Y-92075000D03*
D20*
X137112000Y-97825000D03*
X143812000Y-97825000D03*
G04 #@! TA.AperFunction,SMDPad,CuDef*
G36*
G01*
X124768000Y-27188200D02*
X124768000Y-25643800D01*
G75*
G02*
X124880800Y-25531000I112800J0D01*
G01*
X125595200Y-25531000D01*
G75*
G02*
X125708000Y-25643800I0J-112800D01*
G01*
X125708000Y-27188200D01*
G75*
G02*
X125595200Y-27301000I-112800J0D01*
G01*
X124880800Y-27301000D01*
G75*
G02*
X124768000Y-27188200I0J112800D01*
G01*
G37*
G04 #@! TD.AperFunction*
G04 #@! TA.AperFunction,SMDPad,CuDef*
G36*
G01*
X121688000Y-27170200D02*
X121688000Y-25661800D01*
G75*
G02*
X121818800Y-25531000I130800J0D01*
G01*
X122647200Y-25531000D01*
G75*
G02*
X122778000Y-25661800I0J-130800D01*
G01*
X122778000Y-27170200D01*
G75*
G02*
X122647200Y-27301000I-130800J0D01*
G01*
X121818800Y-27301000D01*
G75*
G02*
X121688000Y-27170200I0J130800D01*
G01*
G37*
G04 #@! TD.AperFunction*
G04 #@! TA.AperFunction,SMDPad,CuDef*
G36*
G01*
X121688000Y-80510200D02*
X121688000Y-79001800D01*
G75*
G02*
X121818800Y-78871000I130800J0D01*
G01*
X122647200Y-78871000D01*
G75*
G02*
X122778000Y-79001800I0J-130800D01*
G01*
X122778000Y-80510200D01*
G75*
G02*
X122647200Y-80641000I-130800J0D01*
G01*
X121818800Y-80641000D01*
G75*
G02*
X121688000Y-80510200I0J130800D01*
G01*
G37*
G04 #@! TD.AperFunction*
G04 #@! TA.AperFunction,SMDPad,CuDef*
G36*
G01*
X124768000Y-80528200D02*
X124768000Y-78983800D01*
G75*
G02*
X124880800Y-78871000I112800J0D01*
G01*
X125595200Y-78871000D01*
G75*
G02*
X125708000Y-78983800I0J-112800D01*
G01*
X125708000Y-80528200D01*
G75*
G02*
X125595200Y-80641000I-112800J0D01*
G01*
X124880800Y-80641000D01*
G75*
G02*
X124768000Y-80528200I0J112800D01*
G01*
G37*
G04 #@! TD.AperFunction*
G04 #@! TA.AperFunction,SMDPad,CuDef*
G36*
G01*
X124768000Y-133741200D02*
X124768000Y-132196800D01*
G75*
G02*
X124880800Y-132084000I112800J0D01*
G01*
X125595200Y-132084000D01*
G75*
G02*
X125708000Y-132196800I0J-112800D01*
G01*
X125708000Y-133741200D01*
G75*
G02*
X125595200Y-133854000I-112800J0D01*
G01*
X124880800Y-133854000D01*
G75*
G02*
X124768000Y-133741200I0J112800D01*
G01*
G37*
G04 #@! TD.AperFunction*
G04 #@! TA.AperFunction,SMDPad,CuDef*
G36*
G01*
X121688000Y-133723200D02*
X121688000Y-132214800D01*
G75*
G02*
X121818800Y-132084000I130800J0D01*
G01*
X122647200Y-132084000D01*
G75*
G02*
X122778000Y-132214800I0J-130800D01*
G01*
X122778000Y-133723200D01*
G75*
G02*
X122647200Y-133854000I-130800J0D01*
G01*
X121818800Y-133854000D01*
G75*
G02*
X121688000Y-133723200I0J130800D01*
G01*
G37*
G04 #@! TD.AperFunction*
G04 #@! TA.AperFunction,SMDPad,CuDef*
G36*
G01*
X124768000Y-109103200D02*
X124768000Y-107558800D01*
G75*
G02*
X124880800Y-107446000I112800J0D01*
G01*
X125595200Y-107446000D01*
G75*
G02*
X125708000Y-107558800I0J-112800D01*
G01*
X125708000Y-109103200D01*
G75*
G02*
X125595200Y-109216000I-112800J0D01*
G01*
X124880800Y-109216000D01*
G75*
G02*
X124768000Y-109103200I0J112800D01*
G01*
G37*
G04 #@! TD.AperFunction*
G04 #@! TA.AperFunction,SMDPad,CuDef*
G36*
G01*
X121688000Y-109085200D02*
X121688000Y-107576800D01*
G75*
G02*
X121818800Y-107446000I130800J0D01*
G01*
X122647200Y-107446000D01*
G75*
G02*
X122778000Y-107576800I0J-130800D01*
G01*
X122778000Y-109085200D01*
G75*
G02*
X122647200Y-109216000I-130800J0D01*
G01*
X121818800Y-109216000D01*
G75*
G02*
X121688000Y-109085200I0J130800D01*
G01*
G37*
G04 #@! TD.AperFunction*
D21*
X105664000Y-112268000D03*
X136144000Y-128270000D03*
X131572000Y-127762000D03*
X131572000Y-129286000D03*
X141732000Y-128270000D03*
X111887000Y-135763000D03*
X113919000Y-130175000D03*
X139192000Y-136652000D03*
X134874000Y-147066000D03*
X135382000Y-143764000D03*
X129540000Y-145288000D03*
X129540000Y-143510000D03*
X140208000Y-147066000D03*
X130048000Y-167640000D03*
X130048000Y-159766000D03*
X122174000Y-157480000D03*
X123698000Y-162306000D03*
X124206000Y-164846000D03*
X120650000Y-169926000D03*
X112014000Y-155448000D03*
X112014000Y-157480000D03*
X112014000Y-159258000D03*
X124968000Y-134874000D03*
X111887000Y-137795000D03*
X118999000Y-128143000D03*
X139954000Y-159512000D03*
X139954000Y-168148000D03*
X134874000Y-161290000D03*
D22*
X114046000Y-69469000D03*
X116332000Y-69469000D03*
X111633000Y-69469000D03*
D21*
X117348000Y-113411000D03*
X139446000Y-89535000D03*
X125349000Y-131318000D03*
X137414000Y-106680000D03*
X136652000Y-120650000D03*
X126746000Y-131318000D03*
X126746000Y-127000000D03*
X139192000Y-135128000D03*
X134112000Y-144018000D03*
X133604000Y-145288000D03*
X133350000Y-147320000D03*
X140208000Y-148844000D03*
X140208000Y-145288000D03*
X140208000Y-143510000D03*
X125222000Y-156210000D03*
X122174000Y-159004000D03*
X112014000Y-168402000D03*
X112014000Y-162814000D03*
X135001000Y-169037000D03*
X135001000Y-171323000D03*
X116078000Y-159258000D03*
X116078000Y-157480000D03*
X116078000Y-155448000D03*
X120650000Y-168402000D03*
X140208000Y-132334000D03*
X115951000Y-135001000D03*
X115824000Y-119888000D03*
X131572000Y-149733000D03*
X124206000Y-121412000D03*
X139700000Y-120142000D03*
X123952000Y-150622000D03*
X133858000Y-150622000D03*
X123291640Y-123952050D03*
X137668000Y-121666000D03*
X130302000Y-147066000D03*
X123240800Y-147320000D03*
X133096000Y-135109200D03*
X141732000Y-133604000D03*
X143510000Y-109982000D03*
X136652000Y-122174000D03*
X133858000Y-134366000D03*
X129540000Y-172466000D03*
X140970000Y-156464000D03*
X144526000Y-156464000D03*
X144526000Y-170434000D03*
X117094000Y-157988000D03*
X141986000Y-157226000D03*
X141986000Y-139700000D03*
X133604000Y-118872000D03*
X135604000Y-135668000D03*
X131826000Y-118872000D03*
X120015000Y-118872000D03*
X123190000Y-168656000D03*
X120904000Y-159512000D03*
X128778000Y-120650000D03*
X120664132Y-121270868D03*
X122936000Y-162560000D03*
X127241618Y-167398382D03*
X132588000Y-131318000D03*
X122834430Y-130810000D03*
X120192800Y-125984000D03*
X127762000Y-125984000D03*
X119634000Y-123190000D03*
X128524000Y-123190000D03*
X120650000Y-120269000D03*
X108966000Y-121666000D03*
X113538000Y-119888000D03*
X135001000Y-126746000D03*
X122428000Y-137668000D03*
X129032000Y-137668000D03*
X122428000Y-122174000D03*
X111506000Y-122174000D03*
X108966000Y-167132000D03*
D23*
X139462000Y-89551000D02*
X139446000Y-89535000D01*
X139462000Y-92075000D02*
X139462000Y-89551000D01*
D24*
X139649199Y-120091199D02*
X139700000Y-120142000D01*
X136383775Y-120091199D02*
X139649199Y-120091199D01*
X135062974Y-121412000D02*
X136383775Y-120091199D01*
X124206000Y-121412000D02*
X135062974Y-121412000D01*
X133858000Y-150622000D02*
X123952000Y-150622000D01*
X137617199Y-121615199D02*
X137668000Y-121666000D01*
X136383775Y-121615199D02*
X137617199Y-121615199D01*
X134046924Y-123952050D02*
X136383775Y-121615199D01*
X123291640Y-123952050D02*
X134046924Y-123952050D01*
X130048000Y-147320000D02*
X123240800Y-147320000D01*
X130302000Y-147066000D02*
X130048000Y-147320000D01*
X133096000Y-135109200D02*
X138194800Y-135109200D01*
X139700000Y-133604000D02*
X141732000Y-133604000D01*
X138194800Y-135109200D02*
X139700000Y-133604000D01*
X141462000Y-107934000D02*
X141462000Y-92075000D01*
X143510000Y-109982000D02*
X141462000Y-107934000D01*
X133858000Y-124968000D02*
X136652000Y-122174000D01*
X133858000Y-134366000D02*
X133858000Y-124968000D01*
X140970000Y-156464000D02*
X144526000Y-156464000D01*
X131572000Y-170434000D02*
X129540000Y-172466000D01*
X144526000Y-170434000D02*
X131572000Y-170434000D01*
X140970001Y-158241999D02*
X141986000Y-157226000D01*
X117347999Y-158241999D02*
X140970001Y-158241999D01*
X117094000Y-157988000D02*
X117347999Y-158241999D01*
X142290801Y-139395199D02*
X142290801Y-119938801D01*
X141986000Y-139700000D02*
X142290801Y-139395199D01*
X141224000Y-118872000D02*
X133604000Y-118872000D01*
X142290801Y-119938801D02*
X141224000Y-118872000D01*
X135012801Y-136259199D02*
X135604000Y-135668000D01*
X135012801Y-138799199D02*
X135012801Y-136259199D01*
X133858000Y-139954000D02*
X135012801Y-138799199D01*
X120904000Y-118872000D02*
X131826000Y-118872000D01*
X120015000Y-118872000D02*
X120904000Y-118872000D01*
X120904000Y-166370000D02*
X120904000Y-159512000D01*
X123190000Y-168656000D02*
X120904000Y-166370000D01*
X121285000Y-120650000D02*
X120664132Y-121270868D01*
X125857000Y-120650000D02*
X121285000Y-120650000D01*
X125857000Y-120650000D02*
X128778000Y-120650000D01*
X127241618Y-166865618D02*
X122936000Y-162560000D01*
X127241618Y-167398382D02*
X127241618Y-166865618D01*
X122885231Y-130759199D02*
X122834430Y-130810000D01*
X132029199Y-130759199D02*
X122885231Y-130759199D01*
X132588000Y-131318000D02*
X132029199Y-130759199D01*
X120192800Y-125984000D02*
X127762000Y-125984000D01*
X119634000Y-123190000D02*
X128524000Y-123190000D01*
X119506999Y-121412001D02*
X120650000Y-120269000D01*
X109219999Y-121412001D02*
X119506999Y-121412001D01*
X108966000Y-121666000D02*
X109219999Y-121412001D01*
D25*
X103979001Y-97160999D02*
X103979001Y-144492001D01*
X105029000Y-96111000D02*
X103979001Y-97160999D01*
X103979001Y-144492001D02*
X107696000Y-148209000D01*
X114300000Y-145800155D02*
X114300000Y-143944000D01*
X111891155Y-148209000D02*
X114300000Y-145800155D01*
X107696000Y-148209000D02*
X111891155Y-148209000D01*
D24*
X119329199Y-120446801D02*
X114096801Y-120446801D01*
X114096801Y-120446801D02*
X113538000Y-119888000D01*
X120192801Y-119583199D02*
X119329199Y-120446801D01*
X139968225Y-119583199D02*
X120192801Y-119583199D01*
X141478000Y-121092974D02*
X139968225Y-119583199D01*
X141478000Y-125603000D02*
X141478000Y-121092974D01*
X140335000Y-126746000D02*
X141478000Y-125603000D01*
X135001000Y-126746000D02*
X140335000Y-126746000D01*
D25*
X105029000Y-92611000D02*
X108486000Y-92611000D01*
X108486000Y-92611000D02*
X109728000Y-93853000D01*
X115428427Y-111607599D02*
X118778777Y-111607599D01*
X109728000Y-105907172D02*
X115428427Y-111607599D01*
X109728000Y-93853000D02*
X109728000Y-105907172D01*
X123422247Y-116456401D02*
X135257599Y-116456401D01*
X118778777Y-111812931D02*
X123422247Y-116456401D01*
X118778777Y-111607599D02*
X118778777Y-111812931D01*
X138430000Y-113284000D02*
X141605000Y-113284000D01*
X135257599Y-116456401D02*
X138430000Y-113284000D01*
D24*
X122428000Y-137668000D02*
X128270000Y-137668000D01*
X128270000Y-137668000D02*
X129032000Y-137668000D01*
X111506000Y-122174000D02*
X113284000Y-122174000D01*
X122428000Y-122174000D02*
X113284000Y-122174000D01*
X125062000Y-175338000D02*
X123460000Y-173736000D01*
X115570000Y-173736000D02*
X108966000Y-167132000D01*
X123460000Y-173736000D02*
X115570000Y-173736000D01*
X122233000Y-26416000D02*
X125238000Y-26416000D01*
X122233000Y-79756000D02*
X125238000Y-79756000D01*
X122233000Y-132969000D02*
X125238000Y-132969000D01*
X122233000Y-108331000D02*
X125238000Y-108331000D01*
M02*
