G04 #@! TF.GenerationSoftware,KiCad,Pcbnew,(5.1.7)-1*
G04 #@! TF.CreationDate,2020-12-22T17:15:22-06:00*
G04 #@! TF.ProjectId,cutdown,63757464-6f77-46e2-9e6b-696361645f70,3.0*
G04 #@! TF.SameCoordinates,Original*
G04 #@! TF.FileFunction,Copper,L1,Top*
G04 #@! TF.FilePolarity,Positive*
%FSLAX46Y46*%
G04 Gerber Fmt 4.6, Leading zero omitted, Abs format (unit mm)*
G04 Created by KiCad (PCBNEW (5.1.7)-1) date 2020-12-22 17:15:22*
%MOMM*%
%LPD*%
G01*
G04 APERTURE LIST*
G04 #@! TA.AperFunction,SMDPad,CuDef*
%ADD10R,2.300000X0.500000*%
G04 #@! TD*
G04 #@! TA.AperFunction,SMDPad,CuDef*
%ADD11R,2.500000X2.000000*%
G04 #@! TD*
G04 #@! TA.AperFunction,ComponentPad*
%ADD12R,1.700000X1.700000*%
G04 #@! TD*
G04 #@! TA.AperFunction,ComponentPad*
%ADD13O,1.700000X1.700000*%
G04 #@! TD*
G04 #@! TA.AperFunction,ComponentPad*
%ADD14C,2.100000*%
G04 #@! TD*
G04 #@! TA.AperFunction,SMDPad,CuDef*
%ADD15R,0.800000X0.900000*%
G04 #@! TD*
G04 #@! TA.AperFunction,ComponentPad*
%ADD16R,2.625000X2.625000*%
G04 #@! TD*
G04 #@! TA.AperFunction,ComponentPad*
%ADD17C,2.625000*%
G04 #@! TD*
G04 #@! TA.AperFunction,SMDPad,CuDef*
%ADD18R,0.400000X1.200000*%
G04 #@! TD*
G04 #@! TA.AperFunction,SMDPad,CuDef*
%ADD19R,1.060000X0.650000*%
G04 #@! TD*
G04 #@! TA.AperFunction,SMDPad,CuDef*
%ADD20R,1.600000X0.550000*%
G04 #@! TD*
G04 #@! TA.AperFunction,SMDPad,CuDef*
%ADD21R,0.550000X1.600000*%
G04 #@! TD*
G04 #@! TA.AperFunction,ComponentPad*
%ADD22R,1.350000X1.350000*%
G04 #@! TD*
G04 #@! TA.AperFunction,ComponentPad*
%ADD23O,1.350000X1.350000*%
G04 #@! TD*
G04 #@! TA.AperFunction,SMDPad,CuDef*
%ADD24R,0.350000X0.380000*%
G04 #@! TD*
G04 #@! TA.AperFunction,SMDPad,CuDef*
%ADD25R,1.900000X0.400000*%
G04 #@! TD*
G04 #@! TA.AperFunction,SMDPad,CuDef*
%ADD26R,1.100000X1.100000*%
G04 #@! TD*
G04 #@! TA.AperFunction,SMDPad,CuDef*
%ADD27R,0.508000X1.320800*%
G04 #@! TD*
G04 #@! TA.AperFunction,ComponentPad*
%ADD28R,2.000000X1.905000*%
G04 #@! TD*
G04 #@! TA.AperFunction,ComponentPad*
%ADD29O,2.000000X1.905000*%
G04 #@! TD*
G04 #@! TA.AperFunction,SMDPad,CuDef*
%ADD30C,1.000000*%
G04 #@! TD*
G04 #@! TA.AperFunction,ViaPad*
%ADD31C,0.508000*%
G04 #@! TD*
G04 #@! TA.AperFunction,ViaPad*
%ADD32C,1.016000*%
G04 #@! TD*
G04 #@! TA.AperFunction,Conductor*
%ADD33C,0.304800*%
G04 #@! TD*
G04 #@! TA.AperFunction,Conductor*
%ADD34C,2.540000*%
G04 #@! TD*
G04 #@! TA.AperFunction,Conductor*
%ADD35C,0.635000*%
G04 #@! TD*
G04 #@! TA.AperFunction,Conductor*
%ADD36C,0.152400*%
G04 #@! TD*
G04 #@! TA.AperFunction,Conductor*
%ADD37C,0.508000*%
G04 #@! TD*
G04 #@! TA.AperFunction,Conductor*
%ADD38C,1.270000*%
G04 #@! TD*
G04 APERTURE END LIST*
G04 #@! TA.AperFunction,SMDPad,CuDef*
G36*
G01*
X123700250Y-159467000D02*
X123187750Y-159467000D01*
G75*
G02*
X122969000Y-159248250I0J218750D01*
G01*
X122969000Y-158810750D01*
G75*
G02*
X123187750Y-158592000I218750J0D01*
G01*
X123700250Y-158592000D01*
G75*
G02*
X123919000Y-158810750I0J-218750D01*
G01*
X123919000Y-159248250D01*
G75*
G02*
X123700250Y-159467000I-218750J0D01*
G01*
G37*
G04 #@! TD.AperFunction*
G04 #@! TA.AperFunction,SMDPad,CuDef*
G36*
G01*
X123700250Y-157892000D02*
X123187750Y-157892000D01*
G75*
G02*
X122969000Y-157673250I0J218750D01*
G01*
X122969000Y-157235750D01*
G75*
G02*
X123187750Y-157017000I218750J0D01*
G01*
X123700250Y-157017000D01*
G75*
G02*
X123919000Y-157235750I0J-218750D01*
G01*
X123919000Y-157673250D01*
G75*
G02*
X123700250Y-157892000I-218750J0D01*
G01*
G37*
G04 #@! TD.AperFunction*
G04 #@! TA.AperFunction,SMDPad,CuDef*
G36*
G01*
X121663750Y-169260000D02*
X122176250Y-169260000D01*
G75*
G02*
X122395000Y-169478750I0J-218750D01*
G01*
X122395000Y-169916250D01*
G75*
G02*
X122176250Y-170135000I-218750J0D01*
G01*
X121663750Y-170135000D01*
G75*
G02*
X121445000Y-169916250I0J218750D01*
G01*
X121445000Y-169478750D01*
G75*
G02*
X121663750Y-169260000I218750J0D01*
G01*
G37*
G04 #@! TD.AperFunction*
G04 #@! TA.AperFunction,SMDPad,CuDef*
G36*
G01*
X121663750Y-167685000D02*
X122176250Y-167685000D01*
G75*
G02*
X122395000Y-167903750I0J-218750D01*
G01*
X122395000Y-168341250D01*
G75*
G02*
X122176250Y-168560000I-218750J0D01*
G01*
X121663750Y-168560000D01*
G75*
G02*
X121445000Y-168341250I0J218750D01*
G01*
X121445000Y-167903750D01*
G75*
G02*
X121663750Y-167685000I218750J0D01*
G01*
G37*
G04 #@! TD.AperFunction*
G04 #@! TA.AperFunction,SMDPad,CuDef*
G36*
G01*
X132060500Y-166113750D02*
X132060500Y-166626250D01*
G75*
G02*
X131841750Y-166845000I-218750J0D01*
G01*
X131404250Y-166845000D01*
G75*
G02*
X131185500Y-166626250I0J218750D01*
G01*
X131185500Y-166113750D01*
G75*
G02*
X131404250Y-165895000I218750J0D01*
G01*
X131841750Y-165895000D01*
G75*
G02*
X132060500Y-166113750I0J-218750D01*
G01*
G37*
G04 #@! TD.AperFunction*
G04 #@! TA.AperFunction,SMDPad,CuDef*
G36*
G01*
X130485500Y-166113750D02*
X130485500Y-166626250D01*
G75*
G02*
X130266750Y-166845000I-218750J0D01*
G01*
X129829250Y-166845000D01*
G75*
G02*
X129610500Y-166626250I0J218750D01*
G01*
X129610500Y-166113750D01*
G75*
G02*
X129829250Y-165895000I218750J0D01*
G01*
X130266750Y-165895000D01*
G75*
G02*
X130485500Y-166113750I0J-218750D01*
G01*
G37*
G04 #@! TD.AperFunction*
G04 #@! TA.AperFunction,SMDPad,CuDef*
G36*
G01*
X130460000Y-160779750D02*
X130460000Y-161292250D01*
G75*
G02*
X130241250Y-161511000I-218750J0D01*
G01*
X129803750Y-161511000D01*
G75*
G02*
X129585000Y-161292250I0J218750D01*
G01*
X129585000Y-160779750D01*
G75*
G02*
X129803750Y-160561000I218750J0D01*
G01*
X130241250Y-160561000D01*
G75*
G02*
X130460000Y-160779750I0J-218750D01*
G01*
G37*
G04 #@! TD.AperFunction*
G04 #@! TA.AperFunction,SMDPad,CuDef*
G36*
G01*
X132035000Y-160779750D02*
X132035000Y-161292250D01*
G75*
G02*
X131816250Y-161511000I-218750J0D01*
G01*
X131378750Y-161511000D01*
G75*
G02*
X131160000Y-161292250I0J218750D01*
G01*
X131160000Y-160779750D01*
G75*
G02*
X131378750Y-160561000I218750J0D01*
G01*
X131816250Y-160561000D01*
G75*
G02*
X132035000Y-160779750I0J-218750D01*
G01*
G37*
G04 #@! TD.AperFunction*
G04 #@! TA.AperFunction,SMDPad,CuDef*
G36*
G01*
X139745000Y-131320250D02*
X139745000Y-130807750D01*
G75*
G02*
X139963750Y-130589000I218750J0D01*
G01*
X140401250Y-130589000D01*
G75*
G02*
X140620000Y-130807750I0J-218750D01*
G01*
X140620000Y-131320250D01*
G75*
G02*
X140401250Y-131539000I-218750J0D01*
G01*
X139963750Y-131539000D01*
G75*
G02*
X139745000Y-131320250I0J218750D01*
G01*
G37*
G04 #@! TD.AperFunction*
G04 #@! TA.AperFunction,SMDPad,CuDef*
G36*
G01*
X141320000Y-131320250D02*
X141320000Y-130807750D01*
G75*
G02*
X141538750Y-130589000I218750J0D01*
G01*
X141976250Y-130589000D01*
G75*
G02*
X142195000Y-130807750I0J-218750D01*
G01*
X142195000Y-131320250D01*
G75*
G02*
X141976250Y-131539000I-218750J0D01*
G01*
X141538750Y-131539000D01*
G75*
G02*
X141320000Y-131320250I0J218750D01*
G01*
G37*
G04 #@! TD.AperFunction*
G04 #@! TA.AperFunction,SMDPad,CuDef*
G36*
G01*
X127463000Y-129791750D02*
X127463000Y-130304250D01*
G75*
G02*
X127244250Y-130523000I-218750J0D01*
G01*
X126806750Y-130523000D01*
G75*
G02*
X126588000Y-130304250I0J218750D01*
G01*
X126588000Y-129791750D01*
G75*
G02*
X126806750Y-129573000I218750J0D01*
G01*
X127244250Y-129573000D01*
G75*
G02*
X127463000Y-129791750I0J-218750D01*
G01*
G37*
G04 #@! TD.AperFunction*
G04 #@! TA.AperFunction,SMDPad,CuDef*
G36*
G01*
X125888000Y-129791750D02*
X125888000Y-130304250D01*
G75*
G02*
X125669250Y-130523000I-218750J0D01*
G01*
X125231750Y-130523000D01*
G75*
G02*
X125013000Y-130304250I0J218750D01*
G01*
X125013000Y-129791750D01*
G75*
G02*
X125231750Y-129573000I218750J0D01*
G01*
X125669250Y-129573000D01*
G75*
G02*
X125888000Y-129791750I0J-218750D01*
G01*
G37*
G04 #@! TD.AperFunction*
G04 #@! TA.AperFunction,SMDPad,CuDef*
G36*
G01*
X125888000Y-128013750D02*
X125888000Y-128526250D01*
G75*
G02*
X125669250Y-128745000I-218750J0D01*
G01*
X125231750Y-128745000D01*
G75*
G02*
X125013000Y-128526250I0J218750D01*
G01*
X125013000Y-128013750D01*
G75*
G02*
X125231750Y-127795000I218750J0D01*
G01*
X125669250Y-127795000D01*
G75*
G02*
X125888000Y-128013750I0J-218750D01*
G01*
G37*
G04 #@! TD.AperFunction*
G04 #@! TA.AperFunction,SMDPad,CuDef*
G36*
G01*
X127463000Y-128013750D02*
X127463000Y-128526250D01*
G75*
G02*
X127244250Y-128745000I-218750J0D01*
G01*
X126806750Y-128745000D01*
G75*
G02*
X126588000Y-128526250I0J218750D01*
G01*
X126588000Y-128013750D01*
G75*
G02*
X126806750Y-127795000I218750J0D01*
G01*
X127244250Y-127795000D01*
G75*
G02*
X127463000Y-128013750I0J-218750D01*
G01*
G37*
G04 #@! TD.AperFunction*
G04 #@! TA.AperFunction,SMDPad,CuDef*
G36*
G01*
X133860250Y-122637000D02*
X133347750Y-122637000D01*
G75*
G02*
X133129000Y-122418250I0J218750D01*
G01*
X133129000Y-121980750D01*
G75*
G02*
X133347750Y-121762000I218750J0D01*
G01*
X133860250Y-121762000D01*
G75*
G02*
X134079000Y-121980750I0J-218750D01*
G01*
X134079000Y-122418250D01*
G75*
G02*
X133860250Y-122637000I-218750J0D01*
G01*
G37*
G04 #@! TD.AperFunction*
G04 #@! TA.AperFunction,SMDPad,CuDef*
G36*
G01*
X133860250Y-121062000D02*
X133347750Y-121062000D01*
G75*
G02*
X133129000Y-120843250I0J218750D01*
G01*
X133129000Y-120405750D01*
G75*
G02*
X133347750Y-120187000I218750J0D01*
G01*
X133860250Y-120187000D01*
G75*
G02*
X134079000Y-120405750I0J-218750D01*
G01*
X134079000Y-120843250D01*
G75*
G02*
X133860250Y-121062000I-218750J0D01*
G01*
G37*
G04 #@! TD.AperFunction*
G04 #@! TA.AperFunction,SMDPad,CuDef*
G36*
G01*
X141320000Y-129542250D02*
X141320000Y-129029750D01*
G75*
G02*
X141538750Y-128811000I218750J0D01*
G01*
X141976250Y-128811000D01*
G75*
G02*
X142195000Y-129029750I0J-218750D01*
G01*
X142195000Y-129542250D01*
G75*
G02*
X141976250Y-129761000I-218750J0D01*
G01*
X141538750Y-129761000D01*
G75*
G02*
X141320000Y-129542250I0J218750D01*
G01*
G37*
G04 #@! TD.AperFunction*
G04 #@! TA.AperFunction,SMDPad,CuDef*
G36*
G01*
X139745000Y-129542250D02*
X139745000Y-129029750D01*
G75*
G02*
X139963750Y-128811000I218750J0D01*
G01*
X140401250Y-128811000D01*
G75*
G02*
X140620000Y-129029750I0J-218750D01*
G01*
X140620000Y-129542250D01*
G75*
G02*
X140401250Y-129761000I-218750J0D01*
G01*
X139963750Y-129761000D01*
G75*
G02*
X139745000Y-129542250I0J218750D01*
G01*
G37*
G04 #@! TD.AperFunction*
G04 #@! TA.AperFunction,SMDPad,CuDef*
G36*
G01*
X115471000Y-154991750D02*
X115471000Y-155904250D01*
G75*
G02*
X115227250Y-156148000I-243750J0D01*
G01*
X114739750Y-156148000D01*
G75*
G02*
X114496000Y-155904250I0J243750D01*
G01*
X114496000Y-154991750D01*
G75*
G02*
X114739750Y-154748000I243750J0D01*
G01*
X115227250Y-154748000D01*
G75*
G02*
X115471000Y-154991750I0J-243750D01*
G01*
G37*
G04 #@! TD.AperFunction*
G04 #@! TA.AperFunction,SMDPad,CuDef*
G36*
G01*
X113596000Y-154991750D02*
X113596000Y-155904250D01*
G75*
G02*
X113352250Y-156148000I-243750J0D01*
G01*
X112864750Y-156148000D01*
G75*
G02*
X112621000Y-155904250I0J243750D01*
G01*
X112621000Y-154991750D01*
G75*
G02*
X112864750Y-154748000I243750J0D01*
G01*
X113352250Y-154748000D01*
G75*
G02*
X113596000Y-154991750I0J-243750D01*
G01*
G37*
G04 #@! TD.AperFunction*
G04 #@! TA.AperFunction,SMDPad,CuDef*
G36*
G01*
X115271000Y-157223750D02*
X115271000Y-157736250D01*
G75*
G02*
X115052250Y-157955000I-218750J0D01*
G01*
X114614750Y-157955000D01*
G75*
G02*
X114396000Y-157736250I0J218750D01*
G01*
X114396000Y-157223750D01*
G75*
G02*
X114614750Y-157005000I218750J0D01*
G01*
X115052250Y-157005000D01*
G75*
G02*
X115271000Y-157223750I0J-218750D01*
G01*
G37*
G04 #@! TD.AperFunction*
G04 #@! TA.AperFunction,SMDPad,CuDef*
G36*
G01*
X113696000Y-157223750D02*
X113696000Y-157736250D01*
G75*
G02*
X113477250Y-157955000I-218750J0D01*
G01*
X113039750Y-157955000D01*
G75*
G02*
X112821000Y-157736250I0J218750D01*
G01*
X112821000Y-157223750D01*
G75*
G02*
X113039750Y-157005000I218750J0D01*
G01*
X113477250Y-157005000D01*
G75*
G02*
X113696000Y-157223750I0J-218750D01*
G01*
G37*
G04 #@! TD.AperFunction*
G04 #@! TA.AperFunction,SMDPad,CuDef*
G36*
G01*
X115271000Y-159001750D02*
X115271000Y-159514250D01*
G75*
G02*
X115052250Y-159733000I-218750J0D01*
G01*
X114614750Y-159733000D01*
G75*
G02*
X114396000Y-159514250I0J218750D01*
G01*
X114396000Y-159001750D01*
G75*
G02*
X114614750Y-158783000I218750J0D01*
G01*
X115052250Y-158783000D01*
G75*
G02*
X115271000Y-159001750I0J-218750D01*
G01*
G37*
G04 #@! TD.AperFunction*
G04 #@! TA.AperFunction,SMDPad,CuDef*
G36*
G01*
X113696000Y-159001750D02*
X113696000Y-159514250D01*
G75*
G02*
X113477250Y-159733000I-218750J0D01*
G01*
X113039750Y-159733000D01*
G75*
G02*
X112821000Y-159514250I0J218750D01*
G01*
X112821000Y-159001750D01*
G75*
G02*
X113039750Y-158783000I218750J0D01*
G01*
X113477250Y-158783000D01*
G75*
G02*
X113696000Y-159001750I0J-218750D01*
G01*
G37*
G04 #@! TD.AperFunction*
G04 #@! TA.AperFunction,SMDPad,CuDef*
G36*
G01*
X125572000Y-171960250D02*
X125572000Y-171447750D01*
G75*
G02*
X125790750Y-171229000I218750J0D01*
G01*
X126228250Y-171229000D01*
G75*
G02*
X126447000Y-171447750I0J-218750D01*
G01*
X126447000Y-171960250D01*
G75*
G02*
X126228250Y-172179000I-218750J0D01*
G01*
X125790750Y-172179000D01*
G75*
G02*
X125572000Y-171960250I0J218750D01*
G01*
G37*
G04 #@! TD.AperFunction*
G04 #@! TA.AperFunction,SMDPad,CuDef*
G36*
G01*
X123997000Y-171960250D02*
X123997000Y-171447750D01*
G75*
G02*
X124215750Y-171229000I218750J0D01*
G01*
X124653250Y-171229000D01*
G75*
G02*
X124872000Y-171447750I0J-218750D01*
G01*
X124872000Y-171960250D01*
G75*
G02*
X124653250Y-172179000I-218750J0D01*
G01*
X124215750Y-172179000D01*
G75*
G02*
X123997000Y-171960250I0J218750D01*
G01*
G37*
G04 #@! TD.AperFunction*
G04 #@! TA.AperFunction,SMDPad,CuDef*
G36*
G01*
X131247000Y-145038000D02*
X131247000Y-145538000D01*
G75*
G02*
X131022000Y-145763000I-225000J0D01*
G01*
X130572000Y-145763000D01*
G75*
G02*
X130347000Y-145538000I0J225000D01*
G01*
X130347000Y-145038000D01*
G75*
G02*
X130572000Y-144813000I225000J0D01*
G01*
X131022000Y-144813000D01*
G75*
G02*
X131247000Y-145038000I0J-225000D01*
G01*
G37*
G04 #@! TD.AperFunction*
G04 #@! TA.AperFunction,SMDPad,CuDef*
G36*
G01*
X132797000Y-145038000D02*
X132797000Y-145538000D01*
G75*
G02*
X132572000Y-145763000I-225000J0D01*
G01*
X132122000Y-145763000D01*
G75*
G02*
X131897000Y-145538000I0J225000D01*
G01*
X131897000Y-145038000D01*
G75*
G02*
X132122000Y-144813000I225000J0D01*
G01*
X132572000Y-144813000D01*
G75*
G02*
X132797000Y-145038000I0J-225000D01*
G01*
G37*
G04 #@! TD.AperFunction*
G04 #@! TA.AperFunction,SMDPad,CuDef*
G36*
G01*
X130347000Y-143760000D02*
X130347000Y-143260000D01*
G75*
G02*
X130572000Y-143035000I225000J0D01*
G01*
X131022000Y-143035000D01*
G75*
G02*
X131247000Y-143260000I0J-225000D01*
G01*
X131247000Y-143760000D01*
G75*
G02*
X131022000Y-143985000I-225000J0D01*
G01*
X130572000Y-143985000D01*
G75*
G02*
X130347000Y-143760000I0J225000D01*
G01*
G37*
G04 #@! TD.AperFunction*
G04 #@! TA.AperFunction,SMDPad,CuDef*
G36*
G01*
X131897000Y-143760000D02*
X131897000Y-143260000D01*
G75*
G02*
X132122000Y-143035000I225000J0D01*
G01*
X132572000Y-143035000D01*
G75*
G02*
X132797000Y-143260000I0J-225000D01*
G01*
X132797000Y-143760000D01*
G75*
G02*
X132572000Y-143985000I-225000J0D01*
G01*
X132122000Y-143985000D01*
G75*
G02*
X131897000Y-143760000I0J225000D01*
G01*
G37*
G04 #@! TD.AperFunction*
G04 #@! TA.AperFunction,SMDPad,CuDef*
G36*
G01*
X115367750Y-114750000D02*
X116280250Y-114750000D01*
G75*
G02*
X116524000Y-114993750I0J-243750D01*
G01*
X116524000Y-115481250D01*
G75*
G02*
X116280250Y-115725000I-243750J0D01*
G01*
X115367750Y-115725000D01*
G75*
G02*
X115124000Y-115481250I0J243750D01*
G01*
X115124000Y-114993750D01*
G75*
G02*
X115367750Y-114750000I243750J0D01*
G01*
G37*
G04 #@! TD.AperFunction*
G04 #@! TA.AperFunction,SMDPad,CuDef*
G36*
G01*
X115367750Y-112875000D02*
X116280250Y-112875000D01*
G75*
G02*
X116524000Y-113118750I0J-243750D01*
G01*
X116524000Y-113606250D01*
G75*
G02*
X116280250Y-113850000I-243750J0D01*
G01*
X115367750Y-113850000D01*
G75*
G02*
X115124000Y-113606250I0J243750D01*
G01*
X115124000Y-113118750D01*
G75*
G02*
X115367750Y-112875000I243750J0D01*
G01*
G37*
G04 #@! TD.AperFunction*
G04 #@! TA.AperFunction,SMDPad,CuDef*
G36*
G01*
X140150000Y-174700250D02*
X140150000Y-173787750D01*
G75*
G02*
X140393750Y-173544000I243750J0D01*
G01*
X140881250Y-173544000D01*
G75*
G02*
X141125000Y-173787750I0J-243750D01*
G01*
X141125000Y-174700250D01*
G75*
G02*
X140881250Y-174944000I-243750J0D01*
G01*
X140393750Y-174944000D01*
G75*
G02*
X140150000Y-174700250I0J243750D01*
G01*
G37*
G04 #@! TD.AperFunction*
G04 #@! TA.AperFunction,SMDPad,CuDef*
G36*
G01*
X138275000Y-174700250D02*
X138275000Y-173787750D01*
G75*
G02*
X138518750Y-173544000I243750J0D01*
G01*
X139006250Y-173544000D01*
G75*
G02*
X139250000Y-173787750I0J-243750D01*
G01*
X139250000Y-174700250D01*
G75*
G02*
X139006250Y-174944000I-243750J0D01*
G01*
X138518750Y-174944000D01*
G75*
G02*
X138275000Y-174700250I0J243750D01*
G01*
G37*
G04 #@! TD.AperFunction*
G04 #@! TA.AperFunction,SMDPad,CuDef*
G36*
G01*
X138275000Y-172414250D02*
X138275000Y-171501750D01*
G75*
G02*
X138518750Y-171258000I243750J0D01*
G01*
X139006250Y-171258000D01*
G75*
G02*
X139250000Y-171501750I0J-243750D01*
G01*
X139250000Y-172414250D01*
G75*
G02*
X139006250Y-172658000I-243750J0D01*
G01*
X138518750Y-172658000D01*
G75*
G02*
X138275000Y-172414250I0J243750D01*
G01*
G37*
G04 #@! TD.AperFunction*
G04 #@! TA.AperFunction,SMDPad,CuDef*
G36*
G01*
X140150000Y-172414250D02*
X140150000Y-171501750D01*
G75*
G02*
X140393750Y-171258000I243750J0D01*
G01*
X140881250Y-171258000D01*
G75*
G02*
X141125000Y-171501750I0J-243750D01*
G01*
X141125000Y-172414250D01*
G75*
G02*
X140881250Y-172658000I-243750J0D01*
G01*
X140393750Y-172658000D01*
G75*
G02*
X140150000Y-172414250I0J243750D01*
G01*
G37*
G04 #@! TD.AperFunction*
G04 #@! TA.AperFunction,SMDPad,CuDef*
G36*
G01*
X110795750Y-112875000D02*
X111708250Y-112875000D01*
G75*
G02*
X111952000Y-113118750I0J-243750D01*
G01*
X111952000Y-113606250D01*
G75*
G02*
X111708250Y-113850000I-243750J0D01*
G01*
X110795750Y-113850000D01*
G75*
G02*
X110552000Y-113606250I0J243750D01*
G01*
X110552000Y-113118750D01*
G75*
G02*
X110795750Y-112875000I243750J0D01*
G01*
G37*
G04 #@! TD.AperFunction*
G04 #@! TA.AperFunction,SMDPad,CuDef*
G36*
G01*
X110795750Y-114750000D02*
X111708250Y-114750000D01*
G75*
G02*
X111952000Y-114993750I0J-243750D01*
G01*
X111952000Y-115481250D01*
G75*
G02*
X111708250Y-115725000I-243750J0D01*
G01*
X110795750Y-115725000D01*
G75*
G02*
X110552000Y-115481250I0J243750D01*
G01*
X110552000Y-114993750D01*
G75*
G02*
X110795750Y-114750000I243750J0D01*
G01*
G37*
G04 #@! TD.AperFunction*
G04 #@! TA.AperFunction,SMDPad,CuDef*
G36*
G01*
X108509750Y-112875000D02*
X109422250Y-112875000D01*
G75*
G02*
X109666000Y-113118750I0J-243750D01*
G01*
X109666000Y-113606250D01*
G75*
G02*
X109422250Y-113850000I-243750J0D01*
G01*
X108509750Y-113850000D01*
G75*
G02*
X108266000Y-113606250I0J243750D01*
G01*
X108266000Y-113118750D01*
G75*
G02*
X108509750Y-112875000I243750J0D01*
G01*
G37*
G04 #@! TD.AperFunction*
G04 #@! TA.AperFunction,SMDPad,CuDef*
G36*
G01*
X108509750Y-114750000D02*
X109422250Y-114750000D01*
G75*
G02*
X109666000Y-114993750I0J-243750D01*
G01*
X109666000Y-115481250D01*
G75*
G02*
X109422250Y-115725000I-243750J0D01*
G01*
X108509750Y-115725000D01*
G75*
G02*
X108266000Y-115481250I0J243750D01*
G01*
X108266000Y-114993750D01*
G75*
G02*
X108509750Y-114750000I243750J0D01*
G01*
G37*
G04 #@! TD.AperFunction*
G04 #@! TA.AperFunction,SMDPad,CuDef*
G36*
G01*
X106223750Y-114750000D02*
X107136250Y-114750000D01*
G75*
G02*
X107380000Y-114993750I0J-243750D01*
G01*
X107380000Y-115481250D01*
G75*
G02*
X107136250Y-115725000I-243750J0D01*
G01*
X106223750Y-115725000D01*
G75*
G02*
X105980000Y-115481250I0J243750D01*
G01*
X105980000Y-114993750D01*
G75*
G02*
X106223750Y-114750000I243750J0D01*
G01*
G37*
G04 #@! TD.AperFunction*
G04 #@! TA.AperFunction,SMDPad,CuDef*
G36*
G01*
X106223750Y-112875000D02*
X107136250Y-112875000D01*
G75*
G02*
X107380000Y-113118750I0J-243750D01*
G01*
X107380000Y-113606250D01*
G75*
G02*
X107136250Y-113850000I-243750J0D01*
G01*
X106223750Y-113850000D01*
G75*
G02*
X105980000Y-113606250I0J243750D01*
G01*
X105980000Y-113118750D01*
G75*
G02*
X106223750Y-112875000I243750J0D01*
G01*
G37*
G04 #@! TD.AperFunction*
D10*
X136874000Y-162230000D03*
X136874000Y-163030000D03*
X136874000Y-163830000D03*
X136874000Y-164630000D03*
X136874000Y-165430000D03*
D11*
X136974000Y-159480000D03*
X142474000Y-159480000D03*
X136974000Y-168180000D03*
X142474000Y-168180000D03*
D12*
X136398000Y-137414000D03*
D13*
X136398000Y-139954000D03*
X133858000Y-137414000D03*
X133858000Y-139954000D03*
X131318000Y-137414000D03*
X131318000Y-139954000D03*
D14*
X105029000Y-92611000D03*
X105029000Y-96111000D03*
D15*
X113096000Y-166608000D03*
X114996000Y-166608000D03*
X114046000Y-164608000D03*
G04 #@! TA.AperFunction,SMDPad,CuDef*
G36*
G01*
X115567750Y-118206000D02*
X116080250Y-118206000D01*
G75*
G02*
X116299000Y-118424750I0J-218750D01*
G01*
X116299000Y-118862250D01*
G75*
G02*
X116080250Y-119081000I-218750J0D01*
G01*
X115567750Y-119081000D01*
G75*
G02*
X115349000Y-118862250I0J218750D01*
G01*
X115349000Y-118424750D01*
G75*
G02*
X115567750Y-118206000I218750J0D01*
G01*
G37*
G04 #@! TD.AperFunction*
G04 #@! TA.AperFunction,SMDPad,CuDef*
G36*
G01*
X115567750Y-116631000D02*
X116080250Y-116631000D01*
G75*
G02*
X116299000Y-116849750I0J-218750D01*
G01*
X116299000Y-117287250D01*
G75*
G02*
X116080250Y-117506000I-218750J0D01*
G01*
X115567750Y-117506000D01*
G75*
G02*
X115349000Y-117287250I0J218750D01*
G01*
X115349000Y-116849750D01*
G75*
G02*
X115567750Y-116631000I218750J0D01*
G01*
G37*
G04 #@! TD.AperFunction*
G04 #@! TA.AperFunction,SMDPad,CuDef*
G36*
G01*
X125478250Y-159467000D02*
X124965750Y-159467000D01*
G75*
G02*
X124747000Y-159248250I0J218750D01*
G01*
X124747000Y-158810750D01*
G75*
G02*
X124965750Y-158592000I218750J0D01*
G01*
X125478250Y-158592000D01*
G75*
G02*
X125697000Y-158810750I0J-218750D01*
G01*
X125697000Y-159248250D01*
G75*
G02*
X125478250Y-159467000I-218750J0D01*
G01*
G37*
G04 #@! TD.AperFunction*
G04 #@! TA.AperFunction,SMDPad,CuDef*
G36*
G01*
X125478250Y-157892000D02*
X124965750Y-157892000D01*
G75*
G02*
X124747000Y-157673250I0J218750D01*
G01*
X124747000Y-157235750D01*
G75*
G02*
X124965750Y-157017000I218750J0D01*
G01*
X125478250Y-157017000D01*
G75*
G02*
X125697000Y-157235750I0J-218750D01*
G01*
X125697000Y-157673250D01*
G75*
G02*
X125478250Y-157892000I-218750J0D01*
G01*
G37*
G04 #@! TD.AperFunction*
G04 #@! TA.AperFunction,SMDPad,CuDef*
G36*
G01*
X132082250Y-121062000D02*
X131569750Y-121062000D01*
G75*
G02*
X131351000Y-120843250I0J218750D01*
G01*
X131351000Y-120405750D01*
G75*
G02*
X131569750Y-120187000I218750J0D01*
G01*
X132082250Y-120187000D01*
G75*
G02*
X132301000Y-120405750I0J-218750D01*
G01*
X132301000Y-120843250D01*
G75*
G02*
X132082250Y-121062000I-218750J0D01*
G01*
G37*
G04 #@! TD.AperFunction*
G04 #@! TA.AperFunction,SMDPad,CuDef*
G36*
G01*
X132082250Y-122637000D02*
X131569750Y-122637000D01*
G75*
G02*
X131351000Y-122418250I0J218750D01*
G01*
X131351000Y-121980750D01*
G75*
G02*
X131569750Y-121762000I218750J0D01*
G01*
X132082250Y-121762000D01*
G75*
G02*
X132301000Y-121980750I0J-218750D01*
G01*
X132301000Y-122418250D01*
G75*
G02*
X132082250Y-122637000I-218750J0D01*
G01*
G37*
G04 #@! TD.AperFunction*
G04 #@! TA.AperFunction,SMDPad,CuDef*
G36*
G01*
X130304250Y-122637000D02*
X129791750Y-122637000D01*
G75*
G02*
X129573000Y-122418250I0J218750D01*
G01*
X129573000Y-121980750D01*
G75*
G02*
X129791750Y-121762000I218750J0D01*
G01*
X130304250Y-121762000D01*
G75*
G02*
X130523000Y-121980750I0J-218750D01*
G01*
X130523000Y-122418250D01*
G75*
G02*
X130304250Y-122637000I-218750J0D01*
G01*
G37*
G04 #@! TD.AperFunction*
G04 #@! TA.AperFunction,SMDPad,CuDef*
G36*
G01*
X130304250Y-121062000D02*
X129791750Y-121062000D01*
G75*
G02*
X129573000Y-120843250I0J218750D01*
G01*
X129573000Y-120405750D01*
G75*
G02*
X129791750Y-120187000I218750J0D01*
G01*
X130304250Y-120187000D01*
G75*
G02*
X130523000Y-120405750I0J-218750D01*
G01*
X130523000Y-120843250D01*
G75*
G02*
X130304250Y-121062000I-218750J0D01*
G01*
G37*
G04 #@! TD.AperFunction*
G04 #@! TA.AperFunction,SMDPad,CuDef*
G36*
G01*
X115271000Y-168145750D02*
X115271000Y-168658250D01*
G75*
G02*
X115052250Y-168877000I-218750J0D01*
G01*
X114614750Y-168877000D01*
G75*
G02*
X114396000Y-168658250I0J218750D01*
G01*
X114396000Y-168145750D01*
G75*
G02*
X114614750Y-167927000I218750J0D01*
G01*
X115052250Y-167927000D01*
G75*
G02*
X115271000Y-168145750I0J-218750D01*
G01*
G37*
G04 #@! TD.AperFunction*
G04 #@! TA.AperFunction,SMDPad,CuDef*
G36*
G01*
X113696000Y-168145750D02*
X113696000Y-168658250D01*
G75*
G02*
X113477250Y-168877000I-218750J0D01*
G01*
X113039750Y-168877000D01*
G75*
G02*
X112821000Y-168658250I0J218750D01*
G01*
X112821000Y-168145750D01*
G75*
G02*
X113039750Y-167927000I218750J0D01*
G01*
X113477250Y-167927000D01*
G75*
G02*
X113696000Y-168145750I0J-218750D01*
G01*
G37*
G04 #@! TD.AperFunction*
G04 #@! TA.AperFunction,SMDPad,CuDef*
G36*
G01*
X115271000Y-162557750D02*
X115271000Y-163070250D01*
G75*
G02*
X115052250Y-163289000I-218750J0D01*
G01*
X114614750Y-163289000D01*
G75*
G02*
X114396000Y-163070250I0J218750D01*
G01*
X114396000Y-162557750D01*
G75*
G02*
X114614750Y-162339000I218750J0D01*
G01*
X115052250Y-162339000D01*
G75*
G02*
X115271000Y-162557750I0J-218750D01*
G01*
G37*
G04 #@! TD.AperFunction*
G04 #@! TA.AperFunction,SMDPad,CuDef*
G36*
G01*
X113696000Y-162557750D02*
X113696000Y-163070250D01*
G75*
G02*
X113477250Y-163289000I-218750J0D01*
G01*
X113039750Y-163289000D01*
G75*
G02*
X112821000Y-163070250I0J218750D01*
G01*
X112821000Y-162557750D01*
G75*
G02*
X113039750Y-162339000I218750J0D01*
G01*
X113477250Y-162339000D01*
G75*
G02*
X113696000Y-162557750I0J-218750D01*
G01*
G37*
G04 #@! TD.AperFunction*
G04 #@! TA.AperFunction,SMDPad,CuDef*
G36*
G01*
X129585000Y-164848250D02*
X129585000Y-164335750D01*
G75*
G02*
X129803750Y-164117000I218750J0D01*
G01*
X130241250Y-164117000D01*
G75*
G02*
X130460000Y-164335750I0J-218750D01*
G01*
X130460000Y-164848250D01*
G75*
G02*
X130241250Y-165067000I-218750J0D01*
G01*
X129803750Y-165067000D01*
G75*
G02*
X129585000Y-164848250I0J218750D01*
G01*
G37*
G04 #@! TD.AperFunction*
G04 #@! TA.AperFunction,SMDPad,CuDef*
G36*
G01*
X131160000Y-164848250D02*
X131160000Y-164335750D01*
G75*
G02*
X131378750Y-164117000I218750J0D01*
G01*
X131816250Y-164117000D01*
G75*
G02*
X132035000Y-164335750I0J-218750D01*
G01*
X132035000Y-164848250D01*
G75*
G02*
X131816250Y-165067000I-218750J0D01*
G01*
X131378750Y-165067000D01*
G75*
G02*
X131160000Y-164848250I0J218750D01*
G01*
G37*
G04 #@! TD.AperFunction*
G04 #@! TA.AperFunction,SMDPad,CuDef*
G36*
G01*
X131160000Y-163070250D02*
X131160000Y-162557750D01*
G75*
G02*
X131378750Y-162339000I218750J0D01*
G01*
X131816250Y-162339000D01*
G75*
G02*
X132035000Y-162557750I0J-218750D01*
G01*
X132035000Y-163070250D01*
G75*
G02*
X131816250Y-163289000I-218750J0D01*
G01*
X131378750Y-163289000D01*
G75*
G02*
X131160000Y-163070250I0J218750D01*
G01*
G37*
G04 #@! TD.AperFunction*
G04 #@! TA.AperFunction,SMDPad,CuDef*
G36*
G01*
X129585000Y-163070250D02*
X129585000Y-162557750D01*
G75*
G02*
X129803750Y-162339000I218750J0D01*
G01*
X130241250Y-162339000D01*
G75*
G02*
X130460000Y-162557750I0J-218750D01*
G01*
X130460000Y-163070250D01*
G75*
G02*
X130241250Y-163289000I-218750J0D01*
G01*
X129803750Y-163289000D01*
G75*
G02*
X129585000Y-163070250I0J218750D01*
G01*
G37*
G04 #@! TD.AperFunction*
G04 #@! TA.AperFunction,SMDPad,CuDef*
G36*
G01*
X117096250Y-166833000D02*
X116583750Y-166833000D01*
G75*
G02*
X116365000Y-166614250I0J218750D01*
G01*
X116365000Y-166176750D01*
G75*
G02*
X116583750Y-165958000I218750J0D01*
G01*
X117096250Y-165958000D01*
G75*
G02*
X117315000Y-166176750I0J-218750D01*
G01*
X117315000Y-166614250D01*
G75*
G02*
X117096250Y-166833000I-218750J0D01*
G01*
G37*
G04 #@! TD.AperFunction*
G04 #@! TA.AperFunction,SMDPad,CuDef*
G36*
G01*
X117096250Y-165258000D02*
X116583750Y-165258000D01*
G75*
G02*
X116365000Y-165039250I0J218750D01*
G01*
X116365000Y-164601750D01*
G75*
G02*
X116583750Y-164383000I218750J0D01*
G01*
X117096250Y-164383000D01*
G75*
G02*
X117315000Y-164601750I0J-218750D01*
G01*
X117315000Y-165039250D01*
G75*
G02*
X117096250Y-165258000I-218750J0D01*
G01*
G37*
G04 #@! TD.AperFunction*
G04 #@! TA.AperFunction,SMDPad,CuDef*
G36*
G01*
X135794000Y-173987750D02*
X135794000Y-174500250D01*
G75*
G02*
X135575250Y-174719000I-218750J0D01*
G01*
X135137750Y-174719000D01*
G75*
G02*
X134919000Y-174500250I0J218750D01*
G01*
X134919000Y-173987750D01*
G75*
G02*
X135137750Y-173769000I218750J0D01*
G01*
X135575250Y-173769000D01*
G75*
G02*
X135794000Y-173987750I0J-218750D01*
G01*
G37*
G04 #@! TD.AperFunction*
G04 #@! TA.AperFunction,SMDPad,CuDef*
G36*
G01*
X137369000Y-173987750D02*
X137369000Y-174500250D01*
G75*
G02*
X137150250Y-174719000I-218750J0D01*
G01*
X136712750Y-174719000D01*
G75*
G02*
X136494000Y-174500250I0J218750D01*
G01*
X136494000Y-173987750D01*
G75*
G02*
X136712750Y-173769000I218750J0D01*
G01*
X137150250Y-173769000D01*
G75*
G02*
X137369000Y-173987750I0J-218750D01*
G01*
G37*
G04 #@! TD.AperFunction*
G04 #@! TA.AperFunction,SMDPad,CuDef*
G36*
G01*
X135794000Y-171701750D02*
X135794000Y-172214250D01*
G75*
G02*
X135575250Y-172433000I-218750J0D01*
G01*
X135137750Y-172433000D01*
G75*
G02*
X134919000Y-172214250I0J218750D01*
G01*
X134919000Y-171701750D01*
G75*
G02*
X135137750Y-171483000I218750J0D01*
G01*
X135575250Y-171483000D01*
G75*
G02*
X135794000Y-171701750I0J-218750D01*
G01*
G37*
G04 #@! TD.AperFunction*
G04 #@! TA.AperFunction,SMDPad,CuDef*
G36*
G01*
X137369000Y-171701750D02*
X137369000Y-172214250D01*
G75*
G02*
X137150250Y-172433000I-218750J0D01*
G01*
X136712750Y-172433000D01*
G75*
G02*
X136494000Y-172214250I0J218750D01*
G01*
X136494000Y-171701750D01*
G75*
G02*
X136712750Y-171483000I218750J0D01*
G01*
X137150250Y-171483000D01*
G75*
G02*
X137369000Y-171701750I0J-218750D01*
G01*
G37*
G04 #@! TD.AperFunction*
G04 #@! TA.AperFunction,SMDPad,CuDef*
G36*
G01*
X135125750Y-121762000D02*
X135638250Y-121762000D01*
G75*
G02*
X135857000Y-121980750I0J-218750D01*
G01*
X135857000Y-122418250D01*
G75*
G02*
X135638250Y-122637000I-218750J0D01*
G01*
X135125750Y-122637000D01*
G75*
G02*
X134907000Y-122418250I0J218750D01*
G01*
X134907000Y-121980750D01*
G75*
G02*
X135125750Y-121762000I218750J0D01*
G01*
G37*
G04 #@! TD.AperFunction*
G04 #@! TA.AperFunction,SMDPad,CuDef*
G36*
G01*
X135125750Y-120187000D02*
X135638250Y-120187000D01*
G75*
G02*
X135857000Y-120405750I0J-218750D01*
G01*
X135857000Y-120843250D01*
G75*
G02*
X135638250Y-121062000I-218750J0D01*
G01*
X135125750Y-121062000D01*
G75*
G02*
X134907000Y-120843250I0J218750D01*
G01*
X134907000Y-120405750D01*
G75*
G02*
X135125750Y-120187000I218750J0D01*
G01*
G37*
G04 #@! TD.AperFunction*
G04 #@! TA.AperFunction,SMDPad,CuDef*
G36*
G01*
X138005000Y-143235000D02*
X138005000Y-143785000D01*
G75*
G02*
X137805000Y-143985000I-200000J0D01*
G01*
X137405000Y-143985000D01*
G75*
G02*
X137205000Y-143785000I0J200000D01*
G01*
X137205000Y-143235000D01*
G75*
G02*
X137405000Y-143035000I200000J0D01*
G01*
X137805000Y-143035000D01*
G75*
G02*
X138005000Y-143235000I0J-200000D01*
G01*
G37*
G04 #@! TD.AperFunction*
G04 #@! TA.AperFunction,SMDPad,CuDef*
G36*
G01*
X139655000Y-143235000D02*
X139655000Y-143785000D01*
G75*
G02*
X139455000Y-143985000I-200000J0D01*
G01*
X139055000Y-143985000D01*
G75*
G02*
X138855000Y-143785000I0J200000D01*
G01*
X138855000Y-143235000D01*
G75*
G02*
X139055000Y-143035000I200000J0D01*
G01*
X139455000Y-143035000D01*
G75*
G02*
X139655000Y-143235000I0J-200000D01*
G01*
G37*
G04 #@! TD.AperFunction*
G04 #@! TA.AperFunction,SMDPad,CuDef*
G36*
G01*
X132887000Y-148865000D02*
X132887000Y-148315000D01*
G75*
G02*
X133087000Y-148115000I200000J0D01*
G01*
X133487000Y-148115000D01*
G75*
G02*
X133687000Y-148315000I0J-200000D01*
G01*
X133687000Y-148865000D01*
G75*
G02*
X133487000Y-149065000I-200000J0D01*
G01*
X133087000Y-149065000D01*
G75*
G02*
X132887000Y-148865000I0J200000D01*
G01*
G37*
G04 #@! TD.AperFunction*
G04 #@! TA.AperFunction,SMDPad,CuDef*
G36*
G01*
X134537000Y-148865000D02*
X134537000Y-148315000D01*
G75*
G02*
X134737000Y-148115000I200000J0D01*
G01*
X135137000Y-148115000D01*
G75*
G02*
X135337000Y-148315000I0J-200000D01*
G01*
X135337000Y-148865000D01*
G75*
G02*
X135137000Y-149065000I-200000J0D01*
G01*
X134737000Y-149065000D01*
G75*
G02*
X134537000Y-148865000I0J200000D01*
G01*
G37*
G04 #@! TD.AperFunction*
G04 #@! TA.AperFunction,SMDPad,CuDef*
G36*
G01*
X110995750Y-116631000D02*
X111508250Y-116631000D01*
G75*
G02*
X111727000Y-116849750I0J-218750D01*
G01*
X111727000Y-117287250D01*
G75*
G02*
X111508250Y-117506000I-218750J0D01*
G01*
X110995750Y-117506000D01*
G75*
G02*
X110777000Y-117287250I0J218750D01*
G01*
X110777000Y-116849750D01*
G75*
G02*
X110995750Y-116631000I218750J0D01*
G01*
G37*
G04 #@! TD.AperFunction*
G04 #@! TA.AperFunction,SMDPad,CuDef*
G36*
G01*
X110995750Y-118206000D02*
X111508250Y-118206000D01*
G75*
G02*
X111727000Y-118424750I0J-218750D01*
G01*
X111727000Y-118862250D01*
G75*
G02*
X111508250Y-119081000I-218750J0D01*
G01*
X110995750Y-119081000D01*
G75*
G02*
X110777000Y-118862250I0J218750D01*
G01*
X110777000Y-118424750D01*
G75*
G02*
X110995750Y-118206000I218750J0D01*
G01*
G37*
G04 #@! TD.AperFunction*
G04 #@! TA.AperFunction,SMDPad,CuDef*
G36*
G01*
X131847000Y-147403000D02*
X131297000Y-147403000D01*
G75*
G02*
X131097000Y-147203000I0J200000D01*
G01*
X131097000Y-146803000D01*
G75*
G02*
X131297000Y-146603000I200000J0D01*
G01*
X131847000Y-146603000D01*
G75*
G02*
X132047000Y-146803000I0J-200000D01*
G01*
X132047000Y-147203000D01*
G75*
G02*
X131847000Y-147403000I-200000J0D01*
G01*
G37*
G04 #@! TD.AperFunction*
G04 #@! TA.AperFunction,SMDPad,CuDef*
G36*
G01*
X131847000Y-149053000D02*
X131297000Y-149053000D01*
G75*
G02*
X131097000Y-148853000I0J200000D01*
G01*
X131097000Y-148453000D01*
G75*
G02*
X131297000Y-148253000I200000J0D01*
G01*
X131847000Y-148253000D01*
G75*
G02*
X132047000Y-148453000I0J-200000D01*
G01*
X132047000Y-148853000D01*
G75*
G02*
X131847000Y-149053000I-200000J0D01*
G01*
G37*
G04 #@! TD.AperFunction*
G04 #@! TA.AperFunction,SMDPad,CuDef*
G36*
G01*
X139745000Y-135149000D02*
X139745000Y-134599000D01*
G75*
G02*
X139945000Y-134399000I200000J0D01*
G01*
X140345000Y-134399000D01*
G75*
G02*
X140545000Y-134599000I0J-200000D01*
G01*
X140545000Y-135149000D01*
G75*
G02*
X140345000Y-135349000I-200000J0D01*
G01*
X139945000Y-135349000D01*
G75*
G02*
X139745000Y-135149000I0J200000D01*
G01*
G37*
G04 #@! TD.AperFunction*
G04 #@! TA.AperFunction,SMDPad,CuDef*
G36*
G01*
X141395000Y-135149000D02*
X141395000Y-134599000D01*
G75*
G02*
X141595000Y-134399000I200000J0D01*
G01*
X141995000Y-134399000D01*
G75*
G02*
X142195000Y-134599000I0J-200000D01*
G01*
X142195000Y-135149000D01*
G75*
G02*
X141995000Y-135349000I-200000J0D01*
G01*
X141595000Y-135349000D01*
G75*
G02*
X141395000Y-135149000I0J200000D01*
G01*
G37*
G04 #@! TD.AperFunction*
G04 #@! TA.AperFunction,SMDPad,CuDef*
G36*
G01*
X139745000Y-136927000D02*
X139745000Y-136377000D01*
G75*
G02*
X139945000Y-136177000I200000J0D01*
G01*
X140345000Y-136177000D01*
G75*
G02*
X140545000Y-136377000I0J-200000D01*
G01*
X140545000Y-136927000D01*
G75*
G02*
X140345000Y-137127000I-200000J0D01*
G01*
X139945000Y-137127000D01*
G75*
G02*
X139745000Y-136927000I0J200000D01*
G01*
G37*
G04 #@! TD.AperFunction*
G04 #@! TA.AperFunction,SMDPad,CuDef*
G36*
G01*
X141395000Y-136927000D02*
X141395000Y-136377000D01*
G75*
G02*
X141595000Y-136177000I200000J0D01*
G01*
X141995000Y-136177000D01*
G75*
G02*
X142195000Y-136377000I0J-200000D01*
G01*
X142195000Y-136927000D01*
G75*
G02*
X141995000Y-137127000I-200000J0D01*
G01*
X141595000Y-137127000D01*
G75*
G02*
X141395000Y-136927000I0J200000D01*
G01*
G37*
G04 #@! TD.AperFunction*
G04 #@! TA.AperFunction,SMDPad,CuDef*
G36*
G01*
X122270000Y-171960250D02*
X122270000Y-171447750D01*
G75*
G02*
X122488750Y-171229000I218750J0D01*
G01*
X122926250Y-171229000D01*
G75*
G02*
X123145000Y-171447750I0J-218750D01*
G01*
X123145000Y-171960250D01*
G75*
G02*
X122926250Y-172179000I-218750J0D01*
G01*
X122488750Y-172179000D01*
G75*
G02*
X122270000Y-171960250I0J218750D01*
G01*
G37*
G04 #@! TD.AperFunction*
G04 #@! TA.AperFunction,SMDPad,CuDef*
G36*
G01*
X120695000Y-171960250D02*
X120695000Y-171447750D01*
G75*
G02*
X120913750Y-171229000I218750J0D01*
G01*
X121351250Y-171229000D01*
G75*
G02*
X121570000Y-171447750I0J-218750D01*
G01*
X121570000Y-171960250D01*
G75*
G02*
X121351250Y-172179000I-218750J0D01*
G01*
X120913750Y-172179000D01*
G75*
G02*
X120695000Y-171960250I0J218750D01*
G01*
G37*
G04 #@! TD.AperFunction*
G04 #@! TA.AperFunction,SMDPad,CuDef*
G36*
G01*
X109222250Y-119081000D02*
X108709750Y-119081000D01*
G75*
G02*
X108491000Y-118862250I0J218750D01*
G01*
X108491000Y-118424750D01*
G75*
G02*
X108709750Y-118206000I218750J0D01*
G01*
X109222250Y-118206000D01*
G75*
G02*
X109441000Y-118424750I0J-218750D01*
G01*
X109441000Y-118862250D01*
G75*
G02*
X109222250Y-119081000I-218750J0D01*
G01*
G37*
G04 #@! TD.AperFunction*
G04 #@! TA.AperFunction,SMDPad,CuDef*
G36*
G01*
X109222250Y-117506000D02*
X108709750Y-117506000D01*
G75*
G02*
X108491000Y-117287250I0J218750D01*
G01*
X108491000Y-116849750D01*
G75*
G02*
X108709750Y-116631000I218750J0D01*
G01*
X109222250Y-116631000D01*
G75*
G02*
X109441000Y-116849750I0J-218750D01*
G01*
X109441000Y-117287250D01*
G75*
G02*
X109222250Y-117506000I-218750J0D01*
G01*
G37*
G04 #@! TD.AperFunction*
G04 #@! TA.AperFunction,SMDPad,CuDef*
G36*
G01*
X106423750Y-116631000D02*
X106936250Y-116631000D01*
G75*
G02*
X107155000Y-116849750I0J-218750D01*
G01*
X107155000Y-117287250D01*
G75*
G02*
X106936250Y-117506000I-218750J0D01*
G01*
X106423750Y-117506000D01*
G75*
G02*
X106205000Y-117287250I0J218750D01*
G01*
X106205000Y-116849750D01*
G75*
G02*
X106423750Y-116631000I218750J0D01*
G01*
G37*
G04 #@! TD.AperFunction*
G04 #@! TA.AperFunction,SMDPad,CuDef*
G36*
G01*
X106423750Y-118206000D02*
X106936250Y-118206000D01*
G75*
G02*
X107155000Y-118424750I0J-218750D01*
G01*
X107155000Y-118862250D01*
G75*
G02*
X106936250Y-119081000I-218750J0D01*
G01*
X106423750Y-119081000D01*
G75*
G02*
X106205000Y-118862250I0J218750D01*
G01*
X106205000Y-118424750D01*
G75*
G02*
X106423750Y-118206000I218750J0D01*
G01*
G37*
G04 #@! TD.AperFunction*
G04 #@! TA.AperFunction,SMDPad,CuDef*
G36*
G01*
X138005000Y-145013000D02*
X138005000Y-145563000D01*
G75*
G02*
X137805000Y-145763000I-200000J0D01*
G01*
X137405000Y-145763000D01*
G75*
G02*
X137205000Y-145563000I0J200000D01*
G01*
X137205000Y-145013000D01*
G75*
G02*
X137405000Y-144813000I200000J0D01*
G01*
X137805000Y-144813000D01*
G75*
G02*
X138005000Y-145013000I0J-200000D01*
G01*
G37*
G04 #@! TD.AperFunction*
G04 #@! TA.AperFunction,SMDPad,CuDef*
G36*
G01*
X139655000Y-145013000D02*
X139655000Y-145563000D01*
G75*
G02*
X139455000Y-145763000I-200000J0D01*
G01*
X139055000Y-145763000D01*
G75*
G02*
X138855000Y-145563000I0J200000D01*
G01*
X138855000Y-145013000D01*
G75*
G02*
X139055000Y-144813000I200000J0D01*
G01*
X139455000Y-144813000D01*
G75*
G02*
X139655000Y-145013000I0J-200000D01*
G01*
G37*
G04 #@! TD.AperFunction*
G04 #@! TA.AperFunction,SMDPad,CuDef*
G36*
G01*
X138005000Y-148569000D02*
X138005000Y-149119000D01*
G75*
G02*
X137805000Y-149319000I-200000J0D01*
G01*
X137405000Y-149319000D01*
G75*
G02*
X137205000Y-149119000I0J200000D01*
G01*
X137205000Y-148569000D01*
G75*
G02*
X137405000Y-148369000I200000J0D01*
G01*
X137805000Y-148369000D01*
G75*
G02*
X138005000Y-148569000I0J-200000D01*
G01*
G37*
G04 #@! TD.AperFunction*
G04 #@! TA.AperFunction,SMDPad,CuDef*
G36*
G01*
X139655000Y-148569000D02*
X139655000Y-149119000D01*
G75*
G02*
X139455000Y-149319000I-200000J0D01*
G01*
X139055000Y-149319000D01*
G75*
G02*
X138855000Y-149119000I0J200000D01*
G01*
X138855000Y-148569000D01*
G75*
G02*
X139055000Y-148369000I200000J0D01*
G01*
X139455000Y-148369000D01*
G75*
G02*
X139655000Y-148569000I0J-200000D01*
G01*
G37*
G04 #@! TD.AperFunction*
G04 #@! TA.AperFunction,SMDPad,CuDef*
G36*
G01*
X119631750Y-116936000D02*
X120144250Y-116936000D01*
G75*
G02*
X120363000Y-117154750I0J-218750D01*
G01*
X120363000Y-117592250D01*
G75*
G02*
X120144250Y-117811000I-218750J0D01*
G01*
X119631750Y-117811000D01*
G75*
G02*
X119413000Y-117592250I0J218750D01*
G01*
X119413000Y-117154750D01*
G75*
G02*
X119631750Y-116936000I218750J0D01*
G01*
G37*
G04 #@! TD.AperFunction*
G04 #@! TA.AperFunction,SMDPad,CuDef*
G36*
G01*
X119631750Y-115361000D02*
X120144250Y-115361000D01*
G75*
G02*
X120363000Y-115579750I0J-218750D01*
G01*
X120363000Y-116017250D01*
G75*
G02*
X120144250Y-116236000I-218750J0D01*
G01*
X119631750Y-116236000D01*
G75*
G02*
X119413000Y-116017250I0J218750D01*
G01*
X119413000Y-115579750D01*
G75*
G02*
X119631750Y-115361000I218750J0D01*
G01*
G37*
G04 #@! TD.AperFunction*
G04 #@! TA.AperFunction,SMDPad,CuDef*
G36*
G01*
X120144250Y-109124000D02*
X119631750Y-109124000D01*
G75*
G02*
X119413000Y-108905250I0J218750D01*
G01*
X119413000Y-108467750D01*
G75*
G02*
X119631750Y-108249000I218750J0D01*
G01*
X120144250Y-108249000D01*
G75*
G02*
X120363000Y-108467750I0J-218750D01*
G01*
X120363000Y-108905250D01*
G75*
G02*
X120144250Y-109124000I-218750J0D01*
G01*
G37*
G04 #@! TD.AperFunction*
G04 #@! TA.AperFunction,SMDPad,CuDef*
G36*
G01*
X120144250Y-110699000D02*
X119631750Y-110699000D01*
G75*
G02*
X119413000Y-110480250I0J218750D01*
G01*
X119413000Y-110042750D01*
G75*
G02*
X119631750Y-109824000I218750J0D01*
G01*
X120144250Y-109824000D01*
G75*
G02*
X120363000Y-110042750I0J-218750D01*
G01*
X120363000Y-110480250D01*
G75*
G02*
X120144250Y-110699000I-218750J0D01*
G01*
G37*
G04 #@! TD.AperFunction*
G04 #@! TA.AperFunction,SMDPad,CuDef*
G36*
G01*
X137205000Y-147341000D02*
X137205000Y-146791000D01*
G75*
G02*
X137405000Y-146591000I200000J0D01*
G01*
X137805000Y-146591000D01*
G75*
G02*
X138005000Y-146791000I0J-200000D01*
G01*
X138005000Y-147341000D01*
G75*
G02*
X137805000Y-147541000I-200000J0D01*
G01*
X137405000Y-147541000D01*
G75*
G02*
X137205000Y-147341000I0J200000D01*
G01*
G37*
G04 #@! TD.AperFunction*
G04 #@! TA.AperFunction,SMDPad,CuDef*
G36*
G01*
X138855000Y-147341000D02*
X138855000Y-146791000D01*
G75*
G02*
X139055000Y-146591000I200000J0D01*
G01*
X139455000Y-146591000D01*
G75*
G02*
X139655000Y-146791000I0J-200000D01*
G01*
X139655000Y-147341000D01*
G75*
G02*
X139455000Y-147541000I-200000J0D01*
G01*
X139055000Y-147541000D01*
G75*
G02*
X138855000Y-147341000I0J200000D01*
G01*
G37*
G04 #@! TD.AperFunction*
D16*
X109700000Y-143944000D03*
D17*
X114300000Y-143944000D03*
D18*
X121094500Y-166176000D03*
X121729500Y-166176000D03*
X122364500Y-166176000D03*
X122999500Y-166176000D03*
X123634500Y-166176000D03*
X124269500Y-166176000D03*
X124904500Y-166176000D03*
X125539500Y-166176000D03*
X126174500Y-166176000D03*
X126809500Y-166176000D03*
X126809500Y-160976000D03*
X126174500Y-160976000D03*
X125539500Y-160976000D03*
X124904500Y-160976000D03*
X124269500Y-160976000D03*
X123634500Y-160976000D03*
X122999500Y-160976000D03*
X122364500Y-160976000D03*
X121729500Y-160976000D03*
X121094500Y-160976000D03*
D19*
X110406000Y-135448000D03*
X110406000Y-136398000D03*
X110406000Y-137348000D03*
X112606000Y-137348000D03*
X112606000Y-135448000D03*
D20*
X129354000Y-125978000D03*
X129354000Y-126778000D03*
X129354000Y-127578000D03*
X129354000Y-128378000D03*
X129354000Y-129178000D03*
X129354000Y-129978000D03*
X129354000Y-130778000D03*
X129354000Y-131578000D03*
D21*
X130804000Y-133028000D03*
X131604000Y-133028000D03*
X132404000Y-133028000D03*
X133204000Y-133028000D03*
X134004000Y-133028000D03*
X134804000Y-133028000D03*
X135604000Y-133028000D03*
X136404000Y-133028000D03*
D20*
X137854000Y-131578000D03*
X137854000Y-130778000D03*
X137854000Y-129978000D03*
X137854000Y-129178000D03*
X137854000Y-128378000D03*
X137854000Y-127578000D03*
X137854000Y-126778000D03*
X137854000Y-125978000D03*
D21*
X136404000Y-124528000D03*
X135604000Y-124528000D03*
X134804000Y-124528000D03*
X134004000Y-124528000D03*
X133204000Y-124528000D03*
X132404000Y-124528000D03*
X131604000Y-124528000D03*
X130804000Y-124528000D03*
D22*
X115062000Y-153338000D03*
D23*
X115062000Y-175338000D03*
X117062000Y-153338000D03*
X117062000Y-175338000D03*
X119062000Y-153338000D03*
X119062000Y-175338000D03*
X121062000Y-153338000D03*
X121062000Y-175338000D03*
X123062000Y-153338000D03*
X123062000Y-175338000D03*
X125062000Y-153338000D03*
X125062000Y-175338000D03*
X127062000Y-153338000D03*
X127062000Y-175338000D03*
X129062000Y-153338000D03*
X129062000Y-175338000D03*
X131062000Y-153338000D03*
X131062000Y-175338000D03*
X133062000Y-153338000D03*
X133062000Y-175338000D03*
D24*
X134617000Y-145292000D03*
X134617000Y-145792000D03*
X134882000Y-146307000D03*
X135382000Y-146307000D03*
X135882000Y-146307000D03*
X136147000Y-145792000D03*
X136147000Y-145292000D03*
X135882000Y-144777000D03*
X135382000Y-144777000D03*
X134882000Y-144777000D03*
D25*
X127000000Y-133674000D03*
X127000000Y-134874000D03*
X127000000Y-136074000D03*
G04 #@! TA.AperFunction,SMDPad,CuDef*
G36*
G01*
X106738000Y-132385750D02*
X106738000Y-133298250D01*
G75*
G02*
X106494250Y-133542000I-243750J0D01*
G01*
X106006750Y-133542000D01*
G75*
G02*
X105763000Y-133298250I0J243750D01*
G01*
X105763000Y-132385750D01*
G75*
G02*
X106006750Y-132142000I243750J0D01*
G01*
X106494250Y-132142000D01*
G75*
G02*
X106738000Y-132385750I0J-243750D01*
G01*
G37*
G04 #@! TD.AperFunction*
G04 #@! TA.AperFunction,SMDPad,CuDef*
G36*
G01*
X108613000Y-132385750D02*
X108613000Y-133298250D01*
G75*
G02*
X108369250Y-133542000I-243750J0D01*
G01*
X107881750Y-133542000D01*
G75*
G02*
X107638000Y-133298250I0J243750D01*
G01*
X107638000Y-132385750D01*
G75*
G02*
X107881750Y-132142000I243750J0D01*
G01*
X108369250Y-132142000D01*
G75*
G02*
X108613000Y-132385750I0J-243750D01*
G01*
G37*
G04 #@! TD.AperFunction*
G04 #@! TA.AperFunction,SMDPad,CuDef*
G36*
G01*
X114351750Y-134973000D02*
X115264250Y-134973000D01*
G75*
G02*
X115508000Y-135216750I0J-243750D01*
G01*
X115508000Y-135704250D01*
G75*
G02*
X115264250Y-135948000I-243750J0D01*
G01*
X114351750Y-135948000D01*
G75*
G02*
X114108000Y-135704250I0J243750D01*
G01*
X114108000Y-135216750D01*
G75*
G02*
X114351750Y-134973000I243750J0D01*
G01*
G37*
G04 #@! TD.AperFunction*
G04 #@! TA.AperFunction,SMDPad,CuDef*
G36*
G01*
X114351750Y-136848000D02*
X115264250Y-136848000D01*
G75*
G02*
X115508000Y-137091750I0J-243750D01*
G01*
X115508000Y-137579250D01*
G75*
G02*
X115264250Y-137823000I-243750J0D01*
G01*
X114351750Y-137823000D01*
G75*
G02*
X114108000Y-137579250I0J243750D01*
G01*
X114108000Y-137091750D01*
G75*
G02*
X114351750Y-136848000I243750J0D01*
G01*
G37*
G04 #@! TD.AperFunction*
G04 #@! TA.AperFunction,SMDPad,CuDef*
G36*
G01*
X116583750Y-135173000D02*
X117096250Y-135173000D01*
G75*
G02*
X117315000Y-135391750I0J-218750D01*
G01*
X117315000Y-135829250D01*
G75*
G02*
X117096250Y-136048000I-218750J0D01*
G01*
X116583750Y-136048000D01*
G75*
G02*
X116365000Y-135829250I0J218750D01*
G01*
X116365000Y-135391750D01*
G75*
G02*
X116583750Y-135173000I218750J0D01*
G01*
G37*
G04 #@! TD.AperFunction*
G04 #@! TA.AperFunction,SMDPad,CuDef*
G36*
G01*
X116583750Y-136748000D02*
X117096250Y-136748000D01*
G75*
G02*
X117315000Y-136966750I0J-218750D01*
G01*
X117315000Y-137404250D01*
G75*
G02*
X117096250Y-137623000I-218750J0D01*
G01*
X116583750Y-137623000D01*
G75*
G02*
X116365000Y-137404250I0J218750D01*
G01*
X116365000Y-136966750D01*
G75*
G02*
X116583750Y-136748000I218750J0D01*
G01*
G37*
G04 #@! TD.AperFunction*
G04 #@! TA.AperFunction,SMDPad,CuDef*
G36*
G01*
X117907750Y-129639000D02*
X118820250Y-129639000D01*
G75*
G02*
X119064000Y-129882750I0J-243750D01*
G01*
X119064000Y-130370250D01*
G75*
G02*
X118820250Y-130614000I-243750J0D01*
G01*
X117907750Y-130614000D01*
G75*
G02*
X117664000Y-130370250I0J243750D01*
G01*
X117664000Y-129882750D01*
G75*
G02*
X117907750Y-129639000I243750J0D01*
G01*
G37*
G04 #@! TD.AperFunction*
G04 #@! TA.AperFunction,SMDPad,CuDef*
G36*
G01*
X117907750Y-131514000D02*
X118820250Y-131514000D01*
G75*
G02*
X119064000Y-131757750I0J-243750D01*
G01*
X119064000Y-132245250D01*
G75*
G02*
X118820250Y-132489000I-243750J0D01*
G01*
X117907750Y-132489000D01*
G75*
G02*
X117664000Y-132245250I0J243750D01*
G01*
X117664000Y-131757750D01*
G75*
G02*
X117907750Y-131514000I243750J0D01*
G01*
G37*
G04 #@! TD.AperFunction*
D26*
X110106000Y-132842000D03*
X112906000Y-132842000D03*
G04 #@! TA.AperFunction,SMDPad,CuDef*
G36*
G01*
X113081750Y-112875000D02*
X113994250Y-112875000D01*
G75*
G02*
X114238000Y-113118750I0J-243750D01*
G01*
X114238000Y-113606250D01*
G75*
G02*
X113994250Y-113850000I-243750J0D01*
G01*
X113081750Y-113850000D01*
G75*
G02*
X112838000Y-113606250I0J243750D01*
G01*
X112838000Y-113118750D01*
G75*
G02*
X113081750Y-112875000I243750J0D01*
G01*
G37*
G04 #@! TD.AperFunction*
G04 #@! TA.AperFunction,SMDPad,CuDef*
G36*
G01*
X113081750Y-114750000D02*
X113994250Y-114750000D01*
G75*
G02*
X114238000Y-114993750I0J-243750D01*
G01*
X114238000Y-115481250D01*
G75*
G02*
X113994250Y-115725000I-243750J0D01*
G01*
X113081750Y-115725000D01*
G75*
G02*
X112838000Y-115481250I0J243750D01*
G01*
X112838000Y-114993750D01*
G75*
G02*
X113081750Y-114750000I243750J0D01*
G01*
G37*
G04 #@! TD.AperFunction*
G04 #@! TA.AperFunction,SMDPad,CuDef*
G36*
G01*
X106931750Y-135173000D02*
X107444250Y-135173000D01*
G75*
G02*
X107663000Y-135391750I0J-218750D01*
G01*
X107663000Y-135829250D01*
G75*
G02*
X107444250Y-136048000I-218750J0D01*
G01*
X106931750Y-136048000D01*
G75*
G02*
X106713000Y-135829250I0J218750D01*
G01*
X106713000Y-135391750D01*
G75*
G02*
X106931750Y-135173000I218750J0D01*
G01*
G37*
G04 #@! TD.AperFunction*
G04 #@! TA.AperFunction,SMDPad,CuDef*
G36*
G01*
X106931750Y-136748000D02*
X107444250Y-136748000D01*
G75*
G02*
X107663000Y-136966750I0J-218750D01*
G01*
X107663000Y-137404250D01*
G75*
G02*
X107444250Y-137623000I-218750J0D01*
G01*
X106931750Y-137623000D01*
G75*
G02*
X106713000Y-137404250I0J218750D01*
G01*
X106713000Y-136966750D01*
G75*
G02*
X106931750Y-136748000I218750J0D01*
G01*
G37*
G04 #@! TD.AperFunction*
G04 #@! TA.AperFunction,SMDPad,CuDef*
G36*
G01*
X113794250Y-119081000D02*
X113281750Y-119081000D01*
G75*
G02*
X113063000Y-118862250I0J218750D01*
G01*
X113063000Y-118424750D01*
G75*
G02*
X113281750Y-118206000I218750J0D01*
G01*
X113794250Y-118206000D01*
G75*
G02*
X114013000Y-118424750I0J-218750D01*
G01*
X114013000Y-118862250D01*
G75*
G02*
X113794250Y-119081000I-218750J0D01*
G01*
G37*
G04 #@! TD.AperFunction*
G04 #@! TA.AperFunction,SMDPad,CuDef*
G36*
G01*
X113794250Y-117506000D02*
X113281750Y-117506000D01*
G75*
G02*
X113063000Y-117287250I0J218750D01*
G01*
X113063000Y-116849750D01*
G75*
G02*
X113281750Y-116631000I218750J0D01*
G01*
X113794250Y-116631000D01*
G75*
G02*
X114013000Y-116849750I0J-218750D01*
G01*
X114013000Y-117287250D01*
G75*
G02*
X113794250Y-117506000I-218750J0D01*
G01*
G37*
G04 #@! TD.AperFunction*
G04 #@! TA.AperFunction,SMDPad,CuDef*
G36*
G01*
X113747000Y-124457750D02*
X113747000Y-124970250D01*
G75*
G02*
X113528250Y-125189000I-218750J0D01*
G01*
X113090750Y-125189000D01*
G75*
G02*
X112872000Y-124970250I0J218750D01*
G01*
X112872000Y-124457750D01*
G75*
G02*
X113090750Y-124239000I218750J0D01*
G01*
X113528250Y-124239000D01*
G75*
G02*
X113747000Y-124457750I0J-218750D01*
G01*
G37*
G04 #@! TD.AperFunction*
G04 #@! TA.AperFunction,SMDPad,CuDef*
G36*
G01*
X112172000Y-124457750D02*
X112172000Y-124970250D01*
G75*
G02*
X111953250Y-125189000I-218750J0D01*
G01*
X111515750Y-125189000D01*
G75*
G02*
X111297000Y-124970250I0J218750D01*
G01*
X111297000Y-124457750D01*
G75*
G02*
X111515750Y-124239000I218750J0D01*
G01*
X111953250Y-124239000D01*
G75*
G02*
X112172000Y-124457750I0J-218750D01*
G01*
G37*
G04 #@! TD.AperFunction*
D27*
X114873999Y-126212600D03*
X116774001Y-126212600D03*
X116774001Y-128803400D03*
X115824000Y-128803400D03*
X114873999Y-128803400D03*
D28*
X122428000Y-110744000D03*
D29*
X122428000Y-113284000D03*
X122428000Y-115824000D03*
D30*
X143510000Y-26924000D03*
X103886000Y-175768000D03*
D31*
X105664000Y-112268000D03*
X117602000Y-113284000D03*
D32*
X114046000Y-69596000D03*
X114046000Y-67564000D03*
X114046000Y-65532000D03*
D31*
X136144000Y-128270000D03*
X131572000Y-127762000D03*
X131572000Y-129286000D03*
X125476000Y-127254000D03*
X141732000Y-128270000D03*
X114808000Y-138430000D03*
X109220000Y-136398000D03*
X139192000Y-136652000D03*
X134874000Y-147066000D03*
X135382000Y-143764000D03*
X129540000Y-145288000D03*
X129540000Y-143510000D03*
X140208000Y-147066000D03*
X130048000Y-167640000D03*
X130048000Y-159766000D03*
X122174000Y-157480000D03*
X123698000Y-162306000D03*
X124206000Y-164846000D03*
X120650000Y-169926000D03*
X115824000Y-130302000D03*
X118654856Y-108675144D03*
X112014000Y-155448000D03*
X112014000Y-157480000D03*
X112014000Y-159258000D03*
X124968000Y-134874000D03*
X116840000Y-138430000D03*
X107188000Y-131318000D03*
X116840000Y-131826000D03*
D32*
X116586000Y-122682000D03*
X117856000Y-122682000D03*
D31*
X110490000Y-124714000D03*
X127000000Y-108966000D03*
X139954000Y-159512000D03*
X139954000Y-168148000D03*
X134874000Y-161290000D03*
X115824000Y-119888000D03*
X136652000Y-120650000D03*
X126746000Y-131318000D03*
X126746000Y-127000000D03*
X114046000Y-134366000D03*
X139192000Y-135128000D03*
X134112000Y-144018000D03*
X133604000Y-145288000D03*
X131572000Y-149860000D03*
X133350000Y-147320000D03*
X140208000Y-148844000D03*
X140208000Y-145288000D03*
X140208000Y-143510000D03*
X125222000Y-156210000D03*
X122174000Y-159004000D03*
X112014000Y-168402000D03*
X112014000Y-162814000D03*
X141732000Y-171958000D03*
X141732000Y-174244000D03*
X116078000Y-159258000D03*
X116078000Y-157480000D03*
X116078000Y-155448000D03*
X120650000Y-168402000D03*
X140208000Y-132334000D03*
X133858000Y-150622000D03*
X124206000Y-121412000D03*
X139700000Y-120142000D03*
X123952000Y-150622000D03*
X123291640Y-123952050D03*
X137668000Y-121666000D03*
X130302000Y-147066000D03*
X123240800Y-147320000D03*
X133096000Y-135109200D03*
X141732000Y-133604000D03*
X143510000Y-109982000D03*
X136652000Y-122174000D03*
X133858000Y-134366000D03*
X129540000Y-172466000D03*
X140970000Y-156464000D03*
X144526000Y-156464000D03*
X144526000Y-170434000D03*
X117094000Y-157988000D03*
X141986000Y-157226000D03*
X141986000Y-139700000D03*
X133604000Y-118872000D03*
X135604000Y-135668000D03*
X120904000Y-118872000D03*
X131826000Y-118872000D03*
X123190000Y-168656000D03*
X120904000Y-159512000D03*
X121666000Y-120650000D03*
X128778000Y-120650000D03*
X127241618Y-167398382D03*
X122936000Y-162560000D03*
X132588000Y-131318000D03*
X122834430Y-130810000D03*
X120192800Y-125984000D03*
X127762000Y-125984000D03*
X119634000Y-123190000D03*
X128524000Y-123190000D03*
D32*
X118364000Y-124714000D03*
X116865401Y-130327401D03*
D31*
X133096000Y-166370000D03*
X105410000Y-131064000D03*
X111252000Y-126238000D03*
X111252000Y-128778000D03*
X122682000Y-122174000D03*
X122428000Y-137668000D03*
X129032000Y-137668000D03*
X110236000Y-119888000D03*
X122174000Y-119634000D03*
X108966000Y-119888000D03*
X105156000Y-128016000D03*
X106175875Y-170684125D03*
D33*
X106680000Y-113362500D02*
X108966000Y-113362500D01*
X108966000Y-113362500D02*
X111252000Y-113362500D01*
X106680000Y-113284000D02*
X105664000Y-112268000D01*
X106680000Y-113362500D02*
X106680000Y-113284000D01*
X117523500Y-113362500D02*
X117602000Y-113284000D01*
X115824000Y-113362500D02*
X117523500Y-113362500D01*
D34*
X114046000Y-69596000D02*
X114046000Y-67564000D01*
D33*
X136252000Y-128378000D02*
X136144000Y-128270000D01*
X137854000Y-128378000D02*
X136252000Y-128378000D01*
X131388000Y-127578000D02*
X131572000Y-127762000D01*
X129354000Y-127578000D02*
X131388000Y-127578000D01*
X131464000Y-129178000D02*
X131572000Y-129286000D01*
X129354000Y-129178000D02*
X131464000Y-129178000D01*
X125450500Y-130048000D02*
X125450500Y-128270000D01*
X125450500Y-127279500D02*
X125476000Y-127254000D01*
X125450500Y-128270000D02*
X125450500Y-127279500D01*
X141757500Y-131064000D02*
X141757500Y-129286000D01*
X141757500Y-128295500D02*
X141732000Y-128270000D01*
X141757500Y-129286000D02*
X141757500Y-128295500D01*
D35*
X114808000Y-137335500D02*
X114808000Y-138430000D01*
X110406000Y-136398000D02*
X109220000Y-136398000D01*
D33*
X140145000Y-136652000D02*
X139192000Y-136652000D01*
D36*
X134882000Y-147058000D02*
X134874000Y-147066000D01*
X134882000Y-146307000D02*
X134882000Y-147058000D01*
X135382000Y-144777000D02*
X135382000Y-143764000D01*
X135882000Y-144264000D02*
X135382000Y-143764000D01*
X135882000Y-144777000D02*
X135882000Y-144264000D01*
X130797000Y-145288000D02*
X129540000Y-145288000D01*
X130797000Y-143510000D02*
X129540000Y-143510000D01*
D33*
X139255000Y-147066000D02*
X140208000Y-147066000D01*
X137128000Y-159480000D02*
X137160000Y-159512000D01*
X137128000Y-168180000D02*
X137160000Y-168148000D01*
X130048000Y-166370000D02*
X130048000Y-167640000D01*
X130022500Y-159791500D02*
X130048000Y-159766000D01*
X130022500Y-161036000D02*
X130022500Y-159791500D01*
X122199500Y-157454500D02*
X122174000Y-157480000D01*
X123444000Y-157454500D02*
X122199500Y-157454500D01*
X123634500Y-162242500D02*
X123698000Y-162306000D01*
X123634500Y-160976000D02*
X123634500Y-162242500D01*
X124269500Y-164909500D02*
X124206000Y-164846000D01*
X124269500Y-166176000D02*
X124269500Y-164909500D01*
X120878500Y-169697500D02*
X120650000Y-169926000D01*
X121920000Y-169697500D02*
X120878500Y-169697500D01*
D35*
X115824000Y-128803400D02*
X115824000Y-130302000D01*
X118666212Y-108686500D02*
X118654856Y-108675144D01*
X119888000Y-108686500D02*
X118666212Y-108686500D01*
D33*
X113108500Y-155448000D02*
X112014000Y-155448000D01*
X113258500Y-157480000D02*
X112014000Y-157480000D01*
X113258500Y-159258000D02*
X112014000Y-159258000D01*
X127000000Y-134874000D02*
X124968000Y-134874000D01*
D37*
X116840000Y-137185500D02*
X116840000Y-138430000D01*
X106250500Y-132255500D02*
X107188000Y-131318000D01*
X106250500Y-132842000D02*
X106250500Y-132255500D01*
X117015500Y-132001500D02*
X116840000Y-131826000D01*
X118364000Y-132001500D02*
X117015500Y-132001500D01*
D38*
X116586000Y-122682000D02*
X117856000Y-122682000D01*
D35*
X111734500Y-124714000D02*
X110490000Y-124714000D01*
D33*
X139922000Y-159480000D02*
X139954000Y-159512000D01*
X136974000Y-159480000D02*
X139922000Y-159480000D01*
X139922000Y-159480000D02*
X142474000Y-159480000D01*
X136974000Y-168180000D02*
X139986000Y-168180000D01*
X139986000Y-168180000D02*
X139954000Y-168148000D01*
X139986000Y-168180000D02*
X142474000Y-168180000D01*
X135814000Y-162230000D02*
X134874000Y-161290000D01*
X136874000Y-162230000D02*
X135814000Y-162230000D01*
X115824000Y-118643500D02*
X115824000Y-119888000D01*
X136626500Y-120624500D02*
X136652000Y-120650000D01*
X135382000Y-120624500D02*
X136626500Y-120624500D01*
X127025500Y-131038500D02*
X126746000Y-131318000D01*
X127025500Y-130048000D02*
X127025500Y-131038500D01*
X127025500Y-127279500D02*
X126746000Y-127000000D01*
X127025500Y-128270000D02*
X127025500Y-127279500D01*
X127133500Y-128378000D02*
X127025500Y-128270000D01*
X129354000Y-128378000D02*
X127133500Y-128378000D01*
X127095500Y-129978000D02*
X127025500Y-130048000D01*
X129354000Y-129978000D02*
X127095500Y-129978000D01*
X139896500Y-130778000D02*
X140182500Y-131064000D01*
X137854000Y-130778000D02*
X139896500Y-130778000D01*
D35*
X114795500Y-135448000D02*
X114808000Y-135460500D01*
X112606000Y-135448000D02*
X114795500Y-135448000D01*
D37*
X114808000Y-135128000D02*
X114046000Y-134366000D01*
X114808000Y-135460500D02*
X114808000Y-135128000D01*
D33*
X139446000Y-134874000D02*
X139192000Y-135128000D01*
X140145000Y-134874000D02*
X139446000Y-134874000D01*
D36*
X134871000Y-144777000D02*
X134112000Y-144018000D01*
X134882000Y-144777000D02*
X134871000Y-144777000D01*
X133604000Y-143510000D02*
X134112000Y-144018000D01*
X132347000Y-143510000D02*
X133604000Y-143510000D01*
X134112000Y-145288000D02*
X134116000Y-145292000D01*
X134116000Y-145292000D02*
X134617000Y-145292000D01*
X132347000Y-145288000D02*
X133604000Y-145288000D01*
X133604000Y-145288000D02*
X134112000Y-145288000D01*
D33*
X131572000Y-148653000D02*
X131572000Y-149860000D01*
X133287000Y-147383000D02*
X133350000Y-147320000D01*
X133287000Y-148590000D02*
X133287000Y-147383000D01*
X139255000Y-148844000D02*
X140208000Y-148844000D01*
X139255000Y-145288000D02*
X140208000Y-145288000D01*
X139255000Y-143510000D02*
X140208000Y-143510000D01*
X125222000Y-157454500D02*
X125222000Y-156210000D01*
X122199500Y-159029500D02*
X122174000Y-159004000D01*
X123444000Y-159029500D02*
X122199500Y-159029500D01*
X124269500Y-159855000D02*
X123444000Y-159029500D01*
X124269500Y-160976000D02*
X124269500Y-159855000D01*
X122364500Y-167678000D02*
X121920000Y-168122500D01*
X122364500Y-166176000D02*
X122364500Y-167678000D01*
X113258500Y-166770500D02*
X113096000Y-166608000D01*
X113258500Y-168402000D02*
X113258500Y-166770500D01*
X113258500Y-168402000D02*
X112014000Y-168402000D01*
X113258500Y-162814000D02*
X112014000Y-162814000D01*
X140637500Y-171958000D02*
X141732000Y-171958000D01*
X140637500Y-174244000D02*
X141732000Y-174244000D01*
X114833500Y-159258000D02*
X116078000Y-159258000D01*
X114833500Y-157480000D02*
X116078000Y-157480000D01*
X114983500Y-155448000D02*
X116078000Y-155448000D01*
D35*
X114833500Y-159258000D02*
X114833500Y-157480000D01*
X114833500Y-155598000D02*
X114983500Y-155448000D01*
X114833500Y-157480000D02*
X114833500Y-155598000D01*
X115062000Y-155369500D02*
X114983500Y-155448000D01*
X115062000Y-153338000D02*
X115062000Y-155369500D01*
D33*
X120929500Y-168122500D02*
X120650000Y-168402000D01*
X121920000Y-168122500D02*
X120929500Y-168122500D01*
X140182500Y-132308500D02*
X140208000Y-132334000D01*
X140182500Y-131064000D02*
X140182500Y-132308500D01*
D37*
X116690000Y-135460500D02*
X116840000Y-135610500D01*
X114808000Y-135460500D02*
X116690000Y-135460500D01*
D36*
X135382000Y-148145000D02*
X134937000Y-148590000D01*
X135382000Y-146307000D02*
X135382000Y-148145000D01*
X134804000Y-123841518D02*
X135455518Y-123190000D01*
X134804000Y-124528000D02*
X134804000Y-123841518D01*
D33*
X134937000Y-149543000D02*
X133858000Y-150622000D01*
X134937000Y-148590000D02*
X134937000Y-149543000D01*
X123952000Y-140716000D02*
X123952000Y-140356790D01*
X123952000Y-121666000D02*
X124206000Y-121412000D01*
X123952000Y-140356790D02*
X123952000Y-121666000D01*
X139700000Y-120142000D02*
X140208000Y-120650000D01*
X140208000Y-120650000D02*
X140208000Y-122682000D01*
X139623800Y-123266200D02*
X139192000Y-123266200D01*
D36*
X139700000Y-123190000D02*
X139827000Y-123063000D01*
D33*
X139827000Y-123063000D02*
X139623800Y-123266200D01*
D36*
X135455518Y-123190000D02*
X139700000Y-123190000D01*
D33*
X140208000Y-122682000D02*
X139827000Y-123063000D01*
X123952000Y-150622000D02*
X123952000Y-140716000D01*
D36*
X134617000Y-145792000D02*
X133862000Y-145792000D01*
X132651000Y-147003000D02*
X131572000Y-147003000D01*
X133862000Y-145792000D02*
X132651000Y-147003000D01*
D33*
X136884220Y-122808990D02*
X136702810Y-122808990D01*
X137668000Y-122025210D02*
X136884220Y-122808990D01*
X137668000Y-121666000D02*
X137668000Y-122025210D01*
D36*
X136808020Y-122885190D02*
X136884220Y-122808990D01*
X134960328Y-122885190D02*
X136808020Y-122885190D01*
X134004000Y-123841518D02*
X134960328Y-122885190D01*
X134004000Y-124528000D02*
X134004000Y-123841518D01*
D33*
X130365000Y-147003000D02*
X130302000Y-147066000D01*
X131572000Y-147003000D02*
X130365000Y-147003000D01*
X123240800Y-145338800D02*
X123240800Y-147320000D01*
X123139210Y-145237210D02*
X123240800Y-145338800D01*
X123139210Y-137972790D02*
X123139210Y-145237210D01*
X123393231Y-137718769D02*
X123139210Y-137972790D01*
X123393231Y-124155231D02*
X123393231Y-137718769D01*
X123190050Y-123952050D02*
X123393231Y-124155231D01*
X123291640Y-123952050D02*
X123190050Y-123952050D01*
D36*
X137605000Y-143834000D02*
X137605000Y-143510000D01*
X136147000Y-145292000D02*
X137605000Y-143834000D01*
X124688601Y-126517399D02*
X129093399Y-126517399D01*
X124485399Y-126720601D02*
X124688601Y-126517399D01*
X124485399Y-141452601D02*
X124485399Y-126720601D01*
X125247399Y-142214601D02*
X124485399Y-141452601D01*
X129093399Y-126517399D02*
X129354000Y-126778000D01*
X136309601Y-142214601D02*
X125247399Y-142214601D01*
X137605000Y-143510000D02*
X136309601Y-142214601D01*
X133204000Y-135001200D02*
X133096000Y-135109200D01*
X133204000Y-133028000D02*
X133204000Y-135001200D01*
D33*
X141732000Y-134811000D02*
X141795000Y-134874000D01*
X141732000Y-133604000D02*
X141732000Y-134811000D01*
X141795000Y-136652000D02*
X141795000Y-134874000D01*
X143510000Y-109982000D02*
X143510000Y-132842000D01*
X142748000Y-133604000D02*
X141732000Y-133604000D01*
X143510000Y-132842000D02*
X142748000Y-133604000D01*
D36*
X128102400Y-136074000D02*
X127000000Y-136074000D01*
X129354000Y-134822400D02*
X128102400Y-136074000D01*
X129354000Y-131578000D02*
X129354000Y-134822400D01*
D33*
X131635500Y-164630000D02*
X131597500Y-164592000D01*
X131623000Y-164617500D02*
X131597500Y-164592000D01*
X131623000Y-166370000D02*
X131623000Y-164617500D01*
X136874000Y-164630000D02*
X134074000Y-164630000D01*
X134074000Y-164630000D02*
X131635500Y-164630000D01*
X134334000Y-164630000D02*
X134074000Y-164630000D01*
X131597500Y-161036000D02*
X131597500Y-162814000D01*
X132613500Y-163830000D02*
X131597500Y-162814000D01*
X136874000Y-163830000D02*
X132613500Y-163830000D01*
D36*
X133204000Y-122599500D02*
X133604000Y-122199500D01*
X133204000Y-124528000D02*
X133204000Y-122599500D01*
X135382000Y-122199500D02*
X133604000Y-122199500D01*
D33*
X133858000Y-137414000D02*
X133858000Y-134874000D01*
X135407500Y-122174000D02*
X135382000Y-122199500D01*
X136652000Y-122174000D02*
X135407500Y-122174000D01*
X133858000Y-134874000D02*
X133858000Y-134366000D01*
X128778000Y-171704000D02*
X129540000Y-172466000D01*
X126009500Y-171704000D02*
X128778000Y-171704000D01*
X140255216Y-142730190D02*
X141097000Y-143571974D01*
X135012801Y-140277907D02*
X137465084Y-142730190D01*
X135012801Y-138568801D02*
X135012801Y-140277907D01*
X137465084Y-142730190D02*
X140255216Y-142730190D01*
X133858000Y-137414000D02*
X135012801Y-138568801D01*
X144526000Y-156464000D02*
X144526000Y-170434000D01*
X141097000Y-155321000D02*
X141097000Y-156337000D01*
X141097000Y-143571974D02*
X141097000Y-155321000D01*
X141097000Y-156337000D02*
X140970000Y-156464000D01*
X114833500Y-163820500D02*
X114046000Y-164608000D01*
X114833500Y-162814000D02*
X114833500Y-163820500D01*
X114258500Y-164820500D02*
X114046000Y-164608000D01*
X116840000Y-164820500D02*
X114258500Y-164820500D01*
X117094000Y-160553500D02*
X117094000Y-157988000D01*
X114833500Y-162814000D02*
X117094000Y-160553500D01*
X141986000Y-157226000D02*
X141986000Y-139700000D01*
X133604000Y-118872000D02*
X133604000Y-120624500D01*
X140074500Y-129178000D02*
X140182500Y-129286000D01*
X137854000Y-129178000D02*
X140074500Y-129178000D01*
D35*
X107188000Y-133779500D02*
X108125500Y-132842000D01*
X107188000Y-135610500D02*
X107188000Y-133779500D01*
X110106000Y-132842000D02*
X108125500Y-132842000D01*
X110406000Y-133142000D02*
X110106000Y-132842000D01*
X110406000Y-135448000D02*
X110406000Y-133142000D01*
D33*
X122707500Y-171704000D02*
X124434500Y-171704000D01*
X115824000Y-117068500D02*
X115824000Y-115237500D01*
X136931500Y-174244000D02*
X138762500Y-174244000D01*
X136931500Y-171958000D02*
X138762500Y-171958000D01*
D37*
X118962410Y-139281590D02*
X118962410Y-134947444D01*
X114300000Y-143944000D02*
X118962410Y-139281590D01*
X116856966Y-132842000D02*
X112906000Y-132842000D01*
X118962410Y-134947444D02*
X116856966Y-132842000D01*
D33*
X111252000Y-117068500D02*
X111252000Y-115237500D01*
X136404000Y-137408000D02*
X136398000Y-137414000D01*
X136404000Y-133028000D02*
X136404000Y-137408000D01*
X137854000Y-138498000D02*
X137854000Y-131578000D01*
X136398000Y-139954000D02*
X137854000Y-138498000D01*
X135604000Y-133028000D02*
X135604000Y-135668000D01*
X116627500Y-166608000D02*
X116840000Y-166395500D01*
X114996000Y-166608000D02*
X116627500Y-166608000D01*
X121094500Y-166176000D02*
X121094500Y-166687500D01*
X121094500Y-166687500D02*
X120142000Y-167640000D01*
X118084500Y-167640000D02*
X116840000Y-166395500D01*
X120142000Y-167640000D02*
X118084500Y-167640000D01*
X114996000Y-168239500D02*
X114833500Y-168402000D01*
X114996000Y-166608000D02*
X114996000Y-168239500D01*
D35*
X121945500Y-110261500D02*
X122428000Y-110744000D01*
X119888000Y-110261500D02*
X121945500Y-110261500D01*
X119888000Y-115798500D02*
X119888000Y-110261500D01*
D33*
X125539500Y-159347000D02*
X125222000Y-159029500D01*
X125539500Y-160976000D02*
X125539500Y-159347000D01*
X120041801Y-140954791D02*
X120650010Y-140346582D01*
X120041801Y-159923301D02*
X120041801Y-140954791D01*
X121094500Y-160976000D02*
X120041801Y-159923301D01*
X120904000Y-140092592D02*
X120904000Y-118872000D01*
X120041801Y-140954791D02*
X120904000Y-140092592D01*
X131826000Y-118872000D02*
X131826000Y-120624500D01*
D36*
X132404000Y-122777500D02*
X131826000Y-122199500D01*
X132404000Y-124528000D02*
X132404000Y-122777500D01*
X130227900Y-122199500D02*
X130048000Y-122199500D01*
X131604000Y-123575600D02*
X130227900Y-122199500D01*
X131604000Y-124528000D02*
X131604000Y-123575600D01*
D33*
X122999500Y-168465500D02*
X123190000Y-168656000D01*
X122999500Y-166176000D02*
X122999500Y-168465500D01*
X122041801Y-140837801D02*
X121361210Y-140157210D01*
X122041801Y-153808305D02*
X122041801Y-140837801D01*
X120904000Y-154946106D02*
X122041801Y-153808305D01*
X120904000Y-159512000D02*
X120904000Y-154946106D01*
X121361210Y-120954790D02*
X121666000Y-120650000D01*
X121361210Y-140157210D02*
X121361210Y-120954790D01*
X130022500Y-120650000D02*
X130048000Y-120624500D01*
X128778000Y-120650000D02*
X130022500Y-120650000D01*
X126174500Y-160976000D02*
X126174500Y-163258500D01*
X127508000Y-164592000D02*
X130022500Y-164592000D01*
X126174500Y-163258500D02*
X127508000Y-164592000D01*
X126809500Y-160976000D02*
X126809500Y-161607500D01*
X128016000Y-162814000D02*
X130022500Y-162814000D01*
X126809500Y-161607500D02*
X128016000Y-162814000D01*
X135356500Y-174244000D02*
X134112000Y-174244000D01*
X127266382Y-167398382D02*
X127241618Y-167398382D01*
X134112000Y-174244000D02*
X127266382Y-167398382D01*
X122936000Y-161039500D02*
X122999500Y-160976000D01*
X122936000Y-162560000D02*
X122936000Y-161039500D01*
X132591500Y-171958000D02*
X126809500Y-166176000D01*
X135356500Y-171958000D02*
X132591500Y-171958000D01*
X133398800Y-131318000D02*
X132588000Y-131318000D01*
X134004000Y-131923200D02*
X133398800Y-131318000D01*
X134004000Y-133028000D02*
X134004000Y-131923200D01*
X120740526Y-117373500D02*
X119888000Y-117373500D01*
X123240801Y-119873775D02*
X120740526Y-117373500D01*
X122732840Y-123444000D02*
X123240801Y-122936039D01*
X122732840Y-130708410D02*
X122732840Y-123444000D01*
X123240801Y-122936039D02*
X123240801Y-119873775D01*
X122834430Y-130810000D02*
X122732840Y-130708410D01*
X119062000Y-153338000D02*
X119062000Y-141288000D01*
X120192800Y-140157200D02*
X120192800Y-125984000D01*
X119062000Y-141288000D02*
X120192800Y-140157200D01*
X129348000Y-125984000D02*
X129354000Y-125978000D01*
X127762000Y-125984000D02*
X129348000Y-125984000D01*
D36*
X127000000Y-132179600D02*
X127000000Y-133674000D01*
X128401600Y-130778000D02*
X127000000Y-132179600D01*
X129354000Y-130778000D02*
X128401600Y-130778000D01*
D33*
X117062000Y-153338000D02*
X117062000Y-142526000D01*
X119634000Y-139954000D02*
X119634000Y-123190000D01*
X117062000Y-142526000D02*
X119634000Y-139954000D01*
X129466000Y-123190000D02*
X130804000Y-124528000D01*
X128524000Y-123190000D02*
X129466000Y-123190000D01*
D38*
X118364000Y-124714000D02*
X118364000Y-130126500D01*
D37*
X116774001Y-130236001D02*
X116865401Y-130327401D01*
X116774001Y-128803400D02*
X116774001Y-130236001D01*
D38*
X117129811Y-130126500D02*
X116928910Y-130327401D01*
X118364000Y-130126500D02*
X117129811Y-130126500D01*
D33*
X108966000Y-117068500D02*
X108966000Y-115237500D01*
D35*
X115643700Y-127342901D02*
X116774001Y-126212600D01*
X109131099Y-127342901D02*
X115643700Y-127342901D01*
X105410000Y-131064000D02*
X109131099Y-127342901D01*
D33*
X109131099Y-122906823D02*
X109131099Y-127342901D01*
X112758190Y-119279732D02*
X109131099Y-122906823D01*
X112758190Y-116017310D02*
X112758190Y-119279732D01*
X113538000Y-115237500D02*
X112758190Y-116017310D01*
D35*
X134036000Y-165430000D02*
X133096000Y-166370000D01*
X136874000Y-165430000D02*
X134036000Y-165430000D01*
D33*
X114542810Y-114367310D02*
X113538000Y-113362500D01*
X114542810Y-116063690D02*
X114542810Y-114367310D01*
X113538000Y-117068500D02*
X114542810Y-116063690D01*
X106680000Y-117068500D02*
X106680000Y-115237500D01*
D35*
X107350500Y-137348000D02*
X110406000Y-137348000D01*
X107188000Y-137185500D02*
X107350500Y-137348000D01*
X113538000Y-119380000D02*
X111506000Y-121412000D01*
X113538000Y-118643500D02*
X113538000Y-119380000D01*
D37*
X109766090Y-123151910D02*
X109766090Y-125260090D01*
X111506000Y-121412000D02*
X109766090Y-123151910D01*
X110744000Y-126238000D02*
X111252000Y-126238000D01*
X109766090Y-125260090D02*
X110744000Y-126238000D01*
X114848599Y-128778000D02*
X114873999Y-128803400D01*
X111252000Y-128778000D02*
X114848599Y-128778000D01*
D35*
X114808100Y-126212600D02*
X113309500Y-124714000D01*
X114873999Y-126212600D02*
X114808100Y-126212600D01*
D33*
X111252000Y-118643500D02*
X111252000Y-119126000D01*
X122682000Y-122174000D02*
X122275630Y-122580370D01*
X122275630Y-122580370D02*
X122275630Y-133604000D01*
X122275630Y-137515630D02*
X122428000Y-137668000D01*
X122275630Y-133604000D02*
X122275630Y-137515630D01*
X131604000Y-135096000D02*
X131604000Y-133028000D01*
X129032000Y-137668000D02*
X131604000Y-135096000D01*
X111252000Y-118872000D02*
X110236000Y-119888000D01*
X111252000Y-118643500D02*
X111252000Y-118872000D01*
X121062000Y-171774500D02*
X121132500Y-171704000D01*
X121062000Y-175338000D02*
X121062000Y-171774500D01*
X125062000Y-153338000D02*
X122682000Y-150958000D01*
X122682000Y-150958000D02*
X122682000Y-148590000D01*
X122682000Y-148590000D02*
X122682000Y-140970000D01*
X122682000Y-140970000D02*
X122682000Y-140716000D01*
X122682000Y-140716000D02*
X121818420Y-139852420D01*
X121818420Y-139852420D02*
X121818420Y-121767580D01*
X122224801Y-119684801D02*
X122174000Y-119634000D01*
X122224801Y-121361199D02*
X122224801Y-119684801D01*
X121818420Y-121767580D02*
X122224801Y-121361199D01*
X108966000Y-119888000D02*
X108966000Y-118643500D01*
X106680000Y-118643500D02*
X106680000Y-126492000D01*
X106680000Y-126492000D02*
X105156000Y-128016000D01*
X106175875Y-170684125D02*
X111809551Y-176317801D01*
X125062000Y-175338000D02*
X123616000Y-176784000D01*
X112275750Y-176784000D02*
X111809551Y-176317801D01*
X123616000Y-176784000D02*
X112275750Y-176784000D01*
D36*
X137101000Y-145792000D02*
X137605000Y-145288000D01*
X136147000Y-145792000D02*
X137101000Y-145792000D01*
X136846000Y-146307000D02*
X137605000Y-147066000D01*
X135882000Y-146307000D02*
X136846000Y-146307000D01*
D33*
X137605000Y-147066000D02*
X137605000Y-148844000D01*
M02*
