G04 #@! TF.GenerationSoftware,KiCad,Pcbnew,(5.1.4)-1*
G04 #@! TF.CreationDate,2019-12-03T14:04:10-06:00*
G04 #@! TF.ProjectId,cutdown,63757464-6f77-46e2-9e6b-696361645f70,rev?*
G04 #@! TF.SameCoordinates,Original*
G04 #@! TF.FileFunction,Soldermask,Top*
G04 #@! TF.FilePolarity,Negative*
%FSLAX46Y46*%
G04 Gerber Fmt 4.6, Leading zero omitted, Abs format (unit mm)*
G04 Created by KiCad (PCBNEW (5.1.4)-1) date 2019-12-03 14:04:10*
%MOMM*%
%LPD*%
G04 APERTURE LIST*
%ADD10R,2.401600X4.601600*%
%ADD11C,1.151600*%
%ADD12C,1.401600*%
%ADD13C,1.701600*%
%ADD14O,1.801600X1.801600*%
%ADD15R,1.801600X1.801600*%
%ADD16R,1.001600X1.301600*%
%ADD17R,1.301600X1.001600*%
%ADD18O,2.133600X1.828800*%
%ADD19C,2.641600*%
%ADD20R,1.701600X2.001600*%
%ADD21R,2.001600X1.701600*%
G04 APERTURE END LIST*
D10*
X191262000Y-85370000D03*
X191262000Y-101770000D03*
D11*
X191262000Y-97070000D03*
D12*
X191262000Y-89620000D03*
D13*
X188508000Y-54737000D03*
X193508000Y-54737000D03*
D14*
X195199000Y-106299000D03*
X192659000Y-106299000D03*
X190119000Y-106299000D03*
D15*
X187579000Y-106299000D03*
D16*
X184658000Y-103421000D03*
X184658000Y-105621000D03*
D17*
X195918000Y-62357000D03*
X193718000Y-62357000D03*
X193718000Y-64008000D03*
X195918000Y-64008000D03*
D18*
X180975000Y-92710000D03*
X180975000Y-90170000D03*
X180975000Y-87630000D03*
X180975000Y-85090000D03*
X180975000Y-82550000D03*
X180975000Y-80010000D03*
X180975000Y-77470000D03*
X180975000Y-74930000D03*
X180975000Y-72390000D03*
X180975000Y-69850000D03*
X180975000Y-67310000D03*
X180975000Y-64770000D03*
X180975000Y-62230000D03*
X180975000Y-59690000D03*
X180975000Y-57150000D03*
X180975000Y-54610000D03*
X201295000Y-54610000D03*
X201295000Y-57150000D03*
X201295000Y-59690000D03*
X201295000Y-62230000D03*
X201295000Y-64770000D03*
X201295000Y-67310000D03*
X201295000Y-69850000D03*
X201295000Y-72390000D03*
X201295000Y-74930000D03*
X201295000Y-77470000D03*
X201295000Y-80010000D03*
X201295000Y-82550000D03*
D19*
X182245000Y-96520000D03*
X182245000Y-50800000D03*
X200025000Y-50800000D03*
X200025000Y-96520000D03*
D16*
X199771000Y-85133000D03*
X199771000Y-87333000D03*
X201295000Y-85133000D03*
X201295000Y-87333000D03*
D20*
X187335000Y-68076000D03*
D21*
X184535000Y-70876000D03*
X184535000Y-72776000D03*
X184535000Y-74676000D03*
X184535000Y-76576000D03*
X184535000Y-78476000D03*
X197735000Y-78476000D03*
X197735000Y-76576000D03*
X197735000Y-74676000D03*
X197735000Y-72776000D03*
X197735000Y-70876000D03*
D20*
X187335000Y-81276000D03*
X189235000Y-81276000D03*
X191135000Y-81276000D03*
X193035000Y-81276000D03*
X194935000Y-81276000D03*
X194935000Y-68076000D03*
X193035000Y-68076000D03*
X191135000Y-68076000D03*
X189235000Y-68076000D03*
M02*
