G04 #@! TF.GenerationSoftware,KiCad,Pcbnew,(5.1.4)-1*
G04 #@! TF.CreationDate,2019-12-06T10:27:52-06:00*
G04 #@! TF.ProjectId,cutdown,63757464-6f77-46e2-9e6b-696361645f70,rev?*
G04 #@! TF.SameCoordinates,Original*
G04 #@! TF.FileFunction,Copper,L2,Inr*
G04 #@! TF.FilePolarity,Positive*
%FSLAX46Y46*%
G04 Gerber Fmt 4.6, Leading zero omitted, Abs format (unit mm)*
G04 Created by KiCad (PCBNEW (5.1.4)-1) date 2019-12-06 10:27:52*
%MOMM*%
%LPD*%
G04 APERTURE LIST*
%ADD10C,1.600000*%
%ADD11O,1.700000X1.700000*%
%ADD12R,1.700000X1.700000*%
%ADD13O,2.032000X1.727200*%
%ADD14C,0.508000*%
%ADD15C,0.152400*%
%ADD16C,0.254000*%
G04 APERTURE END LIST*
D10*
X188508000Y-54737000D03*
X193508000Y-54737000D03*
D11*
X195199000Y-106299000D03*
X192659000Y-106299000D03*
X190119000Y-106299000D03*
D12*
X187579000Y-106299000D03*
D13*
X180975000Y-92710000D03*
X180975000Y-90170000D03*
X180975000Y-87630000D03*
X180975000Y-85090000D03*
X180975000Y-82550000D03*
X180975000Y-80010000D03*
X180975000Y-77470000D03*
X180975000Y-74930000D03*
X180975000Y-72390000D03*
X180975000Y-69850000D03*
X180975000Y-67310000D03*
X180975000Y-64770000D03*
X180975000Y-62230000D03*
X180975000Y-59690000D03*
X180975000Y-57150000D03*
X180975000Y-54610000D03*
X201295000Y-54610000D03*
X201295000Y-57150000D03*
X201295000Y-59690000D03*
X201295000Y-62230000D03*
X201295000Y-64770000D03*
X201295000Y-67310000D03*
X201295000Y-69850000D03*
X201295000Y-72390000D03*
X201295000Y-74930000D03*
X201295000Y-77470000D03*
X201295000Y-80010000D03*
X201295000Y-82550000D03*
D14*
X186563000Y-74422000D03*
X193421000Y-84709000D03*
X197866000Y-69215000D03*
X196469000Y-67945000D03*
X185801000Y-67945000D03*
X184531000Y-69088000D03*
X188849000Y-71374000D03*
X186055000Y-81153000D03*
X186055000Y-76327000D03*
X196342000Y-81153000D03*
X196215000Y-78359000D03*
X194564000Y-69850000D03*
X193167000Y-101727000D03*
X194691000Y-49022000D03*
X201295000Y-86233000D03*
X193675000Y-85598000D03*
X198628000Y-89916000D03*
X197612000Y-60579000D03*
X186944000Y-71374000D03*
X194818000Y-62230000D03*
X192659000Y-69850000D03*
X191643000Y-76073000D03*
X198501000Y-49022000D03*
X194818000Y-64008000D03*
X194818000Y-88900000D03*
X193675000Y-65278000D03*
X200532990Y-88417400D03*
X194183000Y-83820000D03*
X190119000Y-61595000D03*
X185928000Y-103378000D03*
X197485000Y-84836000D03*
X195838000Y-86364000D03*
X202311000Y-88900000D03*
X189357000Y-76073000D03*
X199009000Y-68580000D03*
X197612000Y-63881000D03*
X198501000Y-84836000D03*
D15*
X199009000Y-68580000D02*
X199009000Y-68961000D01*
X199898000Y-69850000D02*
X201295000Y-69850000D01*
X199009000Y-68961000D02*
X199898000Y-69850000D01*
D16*
G36*
X194124296Y-48331469D02*
G01*
X194000469Y-48455296D01*
X193903179Y-48600901D01*
X193836164Y-48762688D01*
X193802000Y-48934441D01*
X193802000Y-49109559D01*
X193836164Y-49281312D01*
X193903179Y-49443099D01*
X194000469Y-49588704D01*
X194124296Y-49712531D01*
X194269901Y-49809821D01*
X194431688Y-49876836D01*
X194603441Y-49911000D01*
X194778559Y-49911000D01*
X194950312Y-49876836D01*
X195112099Y-49809821D01*
X195257704Y-49712531D01*
X195381531Y-49588704D01*
X195478821Y-49443099D01*
X195545836Y-49281312D01*
X195580000Y-49109559D01*
X195580000Y-48934441D01*
X195545836Y-48762688D01*
X195478821Y-48600901D01*
X195381531Y-48455296D01*
X195257704Y-48331469D01*
X195188158Y-48285000D01*
X202540000Y-48285000D01*
X202540000Y-53579081D01*
X202512197Y-53545203D01*
X202284006Y-53357931D01*
X202023664Y-53218775D01*
X201741177Y-53133084D01*
X201521019Y-53111400D01*
X201068981Y-53111400D01*
X200848823Y-53133084D01*
X200566336Y-53218775D01*
X200305994Y-53357931D01*
X200077803Y-53545203D01*
X199890531Y-53773394D01*
X199751375Y-54033736D01*
X199665684Y-54316223D01*
X199636749Y-54610000D01*
X199665684Y-54903777D01*
X199751375Y-55186264D01*
X199890531Y-55446606D01*
X200077803Y-55674797D01*
X200305994Y-55862069D01*
X200339540Y-55880000D01*
X200305994Y-55897931D01*
X200077803Y-56085203D01*
X199890531Y-56313394D01*
X199751375Y-56573736D01*
X199665684Y-56856223D01*
X199636749Y-57150000D01*
X199665684Y-57443777D01*
X199751375Y-57726264D01*
X199890531Y-57986606D01*
X200077803Y-58214797D01*
X200305994Y-58402069D01*
X200339540Y-58420000D01*
X200305994Y-58437931D01*
X200077803Y-58625203D01*
X199890531Y-58853394D01*
X199751375Y-59113736D01*
X199665684Y-59396223D01*
X199636749Y-59690000D01*
X199665684Y-59983777D01*
X199751375Y-60266264D01*
X199890531Y-60526606D01*
X200077803Y-60754797D01*
X200305994Y-60942069D01*
X200339540Y-60960000D01*
X200305994Y-60977931D01*
X200077803Y-61165203D01*
X199890531Y-61393394D01*
X199751375Y-61653736D01*
X199665684Y-61936223D01*
X199636749Y-62230000D01*
X199665684Y-62523777D01*
X199751375Y-62806264D01*
X199890531Y-63066606D01*
X200077803Y-63294797D01*
X200305994Y-63482069D01*
X200339540Y-63500000D01*
X200305994Y-63517931D01*
X200077803Y-63705203D01*
X199890531Y-63933394D01*
X199751375Y-64193736D01*
X199665684Y-64476223D01*
X199636749Y-64770000D01*
X199665684Y-65063777D01*
X199751375Y-65346264D01*
X199890531Y-65606606D01*
X200077803Y-65834797D01*
X200305994Y-66022069D01*
X200339540Y-66040000D01*
X200305994Y-66057931D01*
X200077803Y-66245203D01*
X199890531Y-66473394D01*
X199751375Y-66733736D01*
X199665684Y-67016223D01*
X199636749Y-67310000D01*
X199665684Y-67603777D01*
X199751375Y-67886264D01*
X199890531Y-68146606D01*
X200077803Y-68374797D01*
X200305994Y-68562069D01*
X200339540Y-68580000D01*
X200305994Y-68597931D01*
X200077803Y-68785203D01*
X199970157Y-68916370D01*
X199868691Y-68814904D01*
X199898000Y-68667559D01*
X199898000Y-68492441D01*
X199863836Y-68320688D01*
X199796821Y-68158901D01*
X199699531Y-68013296D01*
X199575704Y-67889469D01*
X199430099Y-67792179D01*
X199268312Y-67725164D01*
X199096559Y-67691000D01*
X198921441Y-67691000D01*
X198749688Y-67725164D01*
X198587901Y-67792179D01*
X198442296Y-67889469D01*
X198318469Y-68013296D01*
X198221179Y-68158901D01*
X198154164Y-68320688D01*
X198144713Y-68368200D01*
X198125312Y-68360164D01*
X197953559Y-68326000D01*
X197778441Y-68326000D01*
X197606688Y-68360164D01*
X197444901Y-68427179D01*
X197299296Y-68524469D01*
X197175469Y-68648296D01*
X197078179Y-68793901D01*
X197011164Y-68955688D01*
X196977000Y-69127441D01*
X196977000Y-69302559D01*
X197011164Y-69474312D01*
X197078179Y-69636099D01*
X197175469Y-69781704D01*
X197299296Y-69905531D01*
X197444901Y-70002821D01*
X197606688Y-70069836D01*
X197778441Y-70104000D01*
X197953559Y-70104000D01*
X198125312Y-70069836D01*
X198287099Y-70002821D01*
X198432704Y-69905531D01*
X198556531Y-69781704D01*
X198653821Y-69636099D01*
X198660994Y-69618781D01*
X199370403Y-70328190D01*
X199392673Y-70355327D01*
X199500967Y-70444202D01*
X199624519Y-70510242D01*
X199758580Y-70550909D01*
X199821301Y-70557087D01*
X199890531Y-70686606D01*
X200077803Y-70914797D01*
X200305994Y-71102069D01*
X200339540Y-71120000D01*
X200305994Y-71137931D01*
X200077803Y-71325203D01*
X199890531Y-71553394D01*
X199751375Y-71813736D01*
X199665684Y-72096223D01*
X199636749Y-72390000D01*
X199665684Y-72683777D01*
X199751375Y-72966264D01*
X199890531Y-73226606D01*
X200077803Y-73454797D01*
X200305994Y-73642069D01*
X200339540Y-73660000D01*
X200305994Y-73677931D01*
X200077803Y-73865203D01*
X199890531Y-74093394D01*
X199751375Y-74353736D01*
X199665684Y-74636223D01*
X199636749Y-74930000D01*
X199665684Y-75223777D01*
X199751375Y-75506264D01*
X199890531Y-75766606D01*
X200077803Y-75994797D01*
X200305994Y-76182069D01*
X200339540Y-76200000D01*
X200305994Y-76217931D01*
X200077803Y-76405203D01*
X199890531Y-76633394D01*
X199751375Y-76893736D01*
X199665684Y-77176223D01*
X199636749Y-77470000D01*
X199665684Y-77763777D01*
X199751375Y-78046264D01*
X199890531Y-78306606D01*
X200077803Y-78534797D01*
X200305994Y-78722069D01*
X200339540Y-78740000D01*
X200305994Y-78757931D01*
X200077803Y-78945203D01*
X199890531Y-79173394D01*
X199751375Y-79433736D01*
X199665684Y-79716223D01*
X199636749Y-80010000D01*
X199665684Y-80303777D01*
X199751375Y-80586264D01*
X199890531Y-80846606D01*
X200077803Y-81074797D01*
X200305994Y-81262069D01*
X200339540Y-81280000D01*
X200305994Y-81297931D01*
X200077803Y-81485203D01*
X199890531Y-81713394D01*
X199751375Y-81973736D01*
X199665684Y-82256223D01*
X199636749Y-82550000D01*
X199665684Y-82843777D01*
X199751375Y-83126264D01*
X199890531Y-83386606D01*
X200077803Y-83614797D01*
X200305994Y-83802069D01*
X200566336Y-83941225D01*
X200848823Y-84026916D01*
X201068981Y-84048600D01*
X201521019Y-84048600D01*
X201741177Y-84026916D01*
X202023664Y-83941225D01*
X202284006Y-83802069D01*
X202512197Y-83614797D01*
X202540001Y-83580918D01*
X202540001Y-88039135D01*
X202398559Y-88011000D01*
X202223441Y-88011000D01*
X202051688Y-88045164D01*
X201889901Y-88112179D01*
X201744296Y-88209469D01*
X201620469Y-88333296D01*
X201523179Y-88478901D01*
X201456164Y-88640688D01*
X201422000Y-88812441D01*
X201422000Y-88987559D01*
X201456164Y-89159312D01*
X201523179Y-89321099D01*
X201620469Y-89466704D01*
X201744296Y-89590531D01*
X201889901Y-89687821D01*
X202051688Y-89754836D01*
X202223441Y-89789000D01*
X202398559Y-89789000D01*
X202540001Y-89760865D01*
X202540001Y-107290000D01*
X196306767Y-107290000D01*
X196439706Y-107128014D01*
X196577599Y-106870034D01*
X196662513Y-106590111D01*
X196691185Y-106299000D01*
X196662513Y-106007889D01*
X196577599Y-105727966D01*
X196439706Y-105469986D01*
X196254134Y-105243866D01*
X196028014Y-105058294D01*
X195770034Y-104920401D01*
X195490111Y-104835487D01*
X195271950Y-104814000D01*
X195126050Y-104814000D01*
X194907889Y-104835487D01*
X194627966Y-104920401D01*
X194369986Y-105058294D01*
X194143866Y-105243866D01*
X193958294Y-105469986D01*
X193929000Y-105524791D01*
X193899706Y-105469986D01*
X193714134Y-105243866D01*
X193488014Y-105058294D01*
X193230034Y-104920401D01*
X192950111Y-104835487D01*
X192731950Y-104814000D01*
X192586050Y-104814000D01*
X192367889Y-104835487D01*
X192087966Y-104920401D01*
X191829986Y-105058294D01*
X191603866Y-105243866D01*
X191418294Y-105469986D01*
X191389000Y-105524791D01*
X191359706Y-105469986D01*
X191174134Y-105243866D01*
X190948014Y-105058294D01*
X190690034Y-104920401D01*
X190410111Y-104835487D01*
X190191950Y-104814000D01*
X190046050Y-104814000D01*
X189827889Y-104835487D01*
X189547966Y-104920401D01*
X189289986Y-105058294D01*
X189063866Y-105243866D01*
X189039393Y-105273687D01*
X189018502Y-105204820D01*
X188959537Y-105094506D01*
X188880185Y-104997815D01*
X188783494Y-104918463D01*
X188673180Y-104859498D01*
X188553482Y-104823188D01*
X188429000Y-104810928D01*
X186729000Y-104810928D01*
X186604518Y-104823188D01*
X186484820Y-104859498D01*
X186374506Y-104918463D01*
X186277815Y-104997815D01*
X186198463Y-105094506D01*
X186139498Y-105204820D01*
X186103188Y-105324518D01*
X186090928Y-105449000D01*
X186090928Y-107149000D01*
X186103188Y-107273482D01*
X186108199Y-107290000D01*
X179730000Y-107290000D01*
X179730000Y-103290441D01*
X185039000Y-103290441D01*
X185039000Y-103465559D01*
X185073164Y-103637312D01*
X185140179Y-103799099D01*
X185237469Y-103944704D01*
X185361296Y-104068531D01*
X185506901Y-104165821D01*
X185668688Y-104232836D01*
X185840441Y-104267000D01*
X186015559Y-104267000D01*
X186187312Y-104232836D01*
X186349099Y-104165821D01*
X186494704Y-104068531D01*
X186618531Y-103944704D01*
X186715821Y-103799099D01*
X186782836Y-103637312D01*
X186817000Y-103465559D01*
X186817000Y-103290441D01*
X186782836Y-103118688D01*
X186715821Y-102956901D01*
X186618531Y-102811296D01*
X186494704Y-102687469D01*
X186349099Y-102590179D01*
X186187312Y-102523164D01*
X186015559Y-102489000D01*
X185840441Y-102489000D01*
X185668688Y-102523164D01*
X185506901Y-102590179D01*
X185361296Y-102687469D01*
X185237469Y-102811296D01*
X185140179Y-102956901D01*
X185073164Y-103118688D01*
X185039000Y-103290441D01*
X179730000Y-103290441D01*
X179730000Y-101639441D01*
X192278000Y-101639441D01*
X192278000Y-101814559D01*
X192312164Y-101986312D01*
X192379179Y-102148099D01*
X192476469Y-102293704D01*
X192600296Y-102417531D01*
X192745901Y-102514821D01*
X192907688Y-102581836D01*
X193079441Y-102616000D01*
X193254559Y-102616000D01*
X193426312Y-102581836D01*
X193588099Y-102514821D01*
X193733704Y-102417531D01*
X193857531Y-102293704D01*
X193954821Y-102148099D01*
X194021836Y-101986312D01*
X194056000Y-101814559D01*
X194056000Y-101639441D01*
X194021836Y-101467688D01*
X193954821Y-101305901D01*
X193857531Y-101160296D01*
X193733704Y-101036469D01*
X193588099Y-100939179D01*
X193426312Y-100872164D01*
X193254559Y-100838000D01*
X193079441Y-100838000D01*
X192907688Y-100872164D01*
X192745901Y-100939179D01*
X192600296Y-101036469D01*
X192476469Y-101160296D01*
X192379179Y-101305901D01*
X192312164Y-101467688D01*
X192278000Y-101639441D01*
X179730000Y-101639441D01*
X179730000Y-96332374D01*
X180340000Y-96332374D01*
X180340000Y-96707626D01*
X180413209Y-97075668D01*
X180556811Y-97422356D01*
X180765290Y-97734366D01*
X181030634Y-97999710D01*
X181342644Y-98208189D01*
X181689332Y-98351791D01*
X182057374Y-98425000D01*
X182432626Y-98425000D01*
X182800668Y-98351791D01*
X183147356Y-98208189D01*
X183459366Y-97999710D01*
X183724710Y-97734366D01*
X183933189Y-97422356D01*
X184076791Y-97075668D01*
X184100644Y-96955750D01*
X190102000Y-96955750D01*
X190102000Y-97184250D01*
X190146578Y-97408360D01*
X190234021Y-97619466D01*
X190360969Y-97809457D01*
X190522543Y-97971031D01*
X190712534Y-98097979D01*
X190923640Y-98185422D01*
X191147750Y-98230000D01*
X191376250Y-98230000D01*
X191600360Y-98185422D01*
X191811466Y-98097979D01*
X192001457Y-97971031D01*
X192163031Y-97809457D01*
X192289979Y-97619466D01*
X192377422Y-97408360D01*
X192422000Y-97184250D01*
X192422000Y-96955750D01*
X192377422Y-96731640D01*
X192289979Y-96520534D01*
X192164255Y-96332374D01*
X198120000Y-96332374D01*
X198120000Y-96707626D01*
X198193209Y-97075668D01*
X198336811Y-97422356D01*
X198545290Y-97734366D01*
X198810634Y-97999710D01*
X199122644Y-98208189D01*
X199469332Y-98351791D01*
X199837374Y-98425000D01*
X200212626Y-98425000D01*
X200580668Y-98351791D01*
X200927356Y-98208189D01*
X201239366Y-97999710D01*
X201504710Y-97734366D01*
X201713189Y-97422356D01*
X201856791Y-97075668D01*
X201930000Y-96707626D01*
X201930000Y-96332374D01*
X201856791Y-95964332D01*
X201713189Y-95617644D01*
X201504710Y-95305634D01*
X201239366Y-95040290D01*
X200927356Y-94831811D01*
X200580668Y-94688209D01*
X200212626Y-94615000D01*
X199837374Y-94615000D01*
X199469332Y-94688209D01*
X199122644Y-94831811D01*
X198810634Y-95040290D01*
X198545290Y-95305634D01*
X198336811Y-95617644D01*
X198193209Y-95964332D01*
X198120000Y-96332374D01*
X192164255Y-96332374D01*
X192163031Y-96330543D01*
X192001457Y-96168969D01*
X191811466Y-96042021D01*
X191600360Y-95954578D01*
X191376250Y-95910000D01*
X191147750Y-95910000D01*
X190923640Y-95954578D01*
X190712534Y-96042021D01*
X190522543Y-96168969D01*
X190360969Y-96330543D01*
X190234021Y-96520534D01*
X190146578Y-96731640D01*
X190102000Y-96955750D01*
X184100644Y-96955750D01*
X184150000Y-96707626D01*
X184150000Y-96332374D01*
X184076791Y-95964332D01*
X183933189Y-95617644D01*
X183724710Y-95305634D01*
X183459366Y-95040290D01*
X183147356Y-94831811D01*
X182800668Y-94688209D01*
X182432626Y-94615000D01*
X182057374Y-94615000D01*
X181689332Y-94688209D01*
X181342644Y-94831811D01*
X181030634Y-95040290D01*
X180765290Y-95305634D01*
X180556811Y-95617644D01*
X180413209Y-95964332D01*
X180340000Y-96332374D01*
X179730000Y-96332374D01*
X179730000Y-93740919D01*
X179757803Y-93774797D01*
X179985994Y-93962069D01*
X180246336Y-94101225D01*
X180528823Y-94186916D01*
X180748981Y-94208600D01*
X181201019Y-94208600D01*
X181421177Y-94186916D01*
X181703664Y-94101225D01*
X181964006Y-93962069D01*
X182192197Y-93774797D01*
X182379469Y-93546606D01*
X182518625Y-93286264D01*
X182604316Y-93003777D01*
X182633251Y-92710000D01*
X182604316Y-92416223D01*
X182518625Y-92133736D01*
X182379469Y-91873394D01*
X182192197Y-91645203D01*
X181964006Y-91457931D01*
X181924053Y-91436576D01*
X182126729Y-91288486D01*
X182325733Y-91072035D01*
X182478686Y-90820919D01*
X182579709Y-90544789D01*
X182582358Y-90529026D01*
X182461217Y-90297000D01*
X181102000Y-90297000D01*
X181102000Y-90317000D01*
X180848000Y-90317000D01*
X180848000Y-90297000D01*
X180828000Y-90297000D01*
X180828000Y-90043000D01*
X180848000Y-90043000D01*
X180848000Y-90023000D01*
X181102000Y-90023000D01*
X181102000Y-90043000D01*
X182461217Y-90043000D01*
X182582358Y-89810974D01*
X182579709Y-89795211D01*
X182478686Y-89519081D01*
X182463068Y-89493439D01*
X189977000Y-89493439D01*
X189977000Y-89746561D01*
X190026381Y-89994821D01*
X190123247Y-90228676D01*
X190263875Y-90439140D01*
X190442860Y-90618125D01*
X190653324Y-90758753D01*
X190887179Y-90855619D01*
X191135439Y-90905000D01*
X191388561Y-90905000D01*
X191636821Y-90855619D01*
X191870676Y-90758753D01*
X192081140Y-90618125D01*
X192260125Y-90439140D01*
X192400753Y-90228676D01*
X192497619Y-89994821D01*
X192530713Y-89828441D01*
X197739000Y-89828441D01*
X197739000Y-90003559D01*
X197773164Y-90175312D01*
X197840179Y-90337099D01*
X197937469Y-90482704D01*
X198061296Y-90606531D01*
X198206901Y-90703821D01*
X198368688Y-90770836D01*
X198540441Y-90805000D01*
X198715559Y-90805000D01*
X198887312Y-90770836D01*
X199049099Y-90703821D01*
X199194704Y-90606531D01*
X199318531Y-90482704D01*
X199415821Y-90337099D01*
X199482836Y-90175312D01*
X199517000Y-90003559D01*
X199517000Y-89828441D01*
X199482836Y-89656688D01*
X199415821Y-89494901D01*
X199318531Y-89349296D01*
X199194704Y-89225469D01*
X199049099Y-89128179D01*
X198887312Y-89061164D01*
X198715559Y-89027000D01*
X198540441Y-89027000D01*
X198368688Y-89061164D01*
X198206901Y-89128179D01*
X198061296Y-89225469D01*
X197937469Y-89349296D01*
X197840179Y-89494901D01*
X197773164Y-89656688D01*
X197739000Y-89828441D01*
X192530713Y-89828441D01*
X192547000Y-89746561D01*
X192547000Y-89493439D01*
X192497619Y-89245179D01*
X192400753Y-89011324D01*
X192260125Y-88800860D01*
X192081140Y-88621875D01*
X191870676Y-88481247D01*
X191636821Y-88384381D01*
X191388561Y-88335000D01*
X191135439Y-88335000D01*
X190887179Y-88384381D01*
X190653324Y-88481247D01*
X190442860Y-88621875D01*
X190263875Y-88800860D01*
X190123247Y-89011324D01*
X190026381Y-89245179D01*
X189977000Y-89493439D01*
X182463068Y-89493439D01*
X182325733Y-89267965D01*
X182126729Y-89051514D01*
X181924053Y-88903424D01*
X181964006Y-88882069D01*
X182192197Y-88694797D01*
X182379469Y-88466606D01*
X182518625Y-88206264D01*
X182604316Y-87923777D01*
X182633251Y-87630000D01*
X182604316Y-87336223D01*
X182518625Y-87053736D01*
X182379469Y-86793394D01*
X182192197Y-86565203D01*
X181964006Y-86377931D01*
X181930460Y-86360000D01*
X181964006Y-86342069D01*
X182192197Y-86154797D01*
X182379469Y-85926606D01*
X182518625Y-85666264D01*
X182604316Y-85383777D01*
X182633251Y-85090000D01*
X182604316Y-84796223D01*
X182551297Y-84621441D01*
X192532000Y-84621441D01*
X192532000Y-84796559D01*
X192566164Y-84968312D01*
X192633179Y-85130099D01*
X192730469Y-85275704D01*
X192815732Y-85360967D01*
X192786000Y-85510441D01*
X192786000Y-85685559D01*
X192820164Y-85857312D01*
X192887179Y-86019099D01*
X192984469Y-86164704D01*
X193108296Y-86288531D01*
X193253901Y-86385821D01*
X193415688Y-86452836D01*
X193587441Y-86487000D01*
X193762559Y-86487000D01*
X193934312Y-86452836D01*
X194096099Y-86385821D01*
X194241704Y-86288531D01*
X194253794Y-86276441D01*
X194949000Y-86276441D01*
X194949000Y-86451559D01*
X194983164Y-86623312D01*
X195050179Y-86785099D01*
X195147469Y-86930704D01*
X195271296Y-87054531D01*
X195416901Y-87151821D01*
X195578688Y-87218836D01*
X195750441Y-87253000D01*
X195925559Y-87253000D01*
X196097312Y-87218836D01*
X196259099Y-87151821D01*
X196404704Y-87054531D01*
X196528531Y-86930704D01*
X196625821Y-86785099D01*
X196692836Y-86623312D01*
X196727000Y-86451559D01*
X196727000Y-86276441D01*
X196700943Y-86145441D01*
X200406000Y-86145441D01*
X200406000Y-86320559D01*
X200440164Y-86492312D01*
X200507179Y-86654099D01*
X200604469Y-86799704D01*
X200728296Y-86923531D01*
X200873901Y-87020821D01*
X201035688Y-87087836D01*
X201207441Y-87122000D01*
X201382559Y-87122000D01*
X201554312Y-87087836D01*
X201716099Y-87020821D01*
X201861704Y-86923531D01*
X201985531Y-86799704D01*
X202082821Y-86654099D01*
X202149836Y-86492312D01*
X202184000Y-86320559D01*
X202184000Y-86145441D01*
X202149836Y-85973688D01*
X202082821Y-85811901D01*
X201985531Y-85666296D01*
X201861704Y-85542469D01*
X201716099Y-85445179D01*
X201554312Y-85378164D01*
X201382559Y-85344000D01*
X201207441Y-85344000D01*
X201035688Y-85378164D01*
X200873901Y-85445179D01*
X200728296Y-85542469D01*
X200604469Y-85666296D01*
X200507179Y-85811901D01*
X200440164Y-85973688D01*
X200406000Y-86145441D01*
X196700943Y-86145441D01*
X196692836Y-86104688D01*
X196625821Y-85942901D01*
X196528531Y-85797296D01*
X196404704Y-85673469D01*
X196259099Y-85576179D01*
X196097312Y-85509164D01*
X195925559Y-85475000D01*
X195750441Y-85475000D01*
X195578688Y-85509164D01*
X195416901Y-85576179D01*
X195271296Y-85673469D01*
X195147469Y-85797296D01*
X195050179Y-85942901D01*
X194983164Y-86104688D01*
X194949000Y-86276441D01*
X194253794Y-86276441D01*
X194365531Y-86164704D01*
X194462821Y-86019099D01*
X194529836Y-85857312D01*
X194564000Y-85685559D01*
X194564000Y-85510441D01*
X194529836Y-85338688D01*
X194462821Y-85176901D01*
X194365531Y-85031296D01*
X194280268Y-84946033D01*
X194310000Y-84796559D01*
X194310000Y-84748441D01*
X196596000Y-84748441D01*
X196596000Y-84923559D01*
X196630164Y-85095312D01*
X196697179Y-85257099D01*
X196794469Y-85402704D01*
X196918296Y-85526531D01*
X197063901Y-85623821D01*
X197225688Y-85690836D01*
X197397441Y-85725000D01*
X197572559Y-85725000D01*
X197744312Y-85690836D01*
X197906099Y-85623821D01*
X197993000Y-85565756D01*
X198079901Y-85623821D01*
X198241688Y-85690836D01*
X198413441Y-85725000D01*
X198588559Y-85725000D01*
X198760312Y-85690836D01*
X198922099Y-85623821D01*
X199067704Y-85526531D01*
X199191531Y-85402704D01*
X199288821Y-85257099D01*
X199355836Y-85095312D01*
X199390000Y-84923559D01*
X199390000Y-84748441D01*
X199355836Y-84576688D01*
X199288821Y-84414901D01*
X199191531Y-84269296D01*
X199067704Y-84145469D01*
X198922099Y-84048179D01*
X198760312Y-83981164D01*
X198588559Y-83947000D01*
X198413441Y-83947000D01*
X198241688Y-83981164D01*
X198079901Y-84048179D01*
X197993000Y-84106244D01*
X197906099Y-84048179D01*
X197744312Y-83981164D01*
X197572559Y-83947000D01*
X197397441Y-83947000D01*
X197225688Y-83981164D01*
X197063901Y-84048179D01*
X196918296Y-84145469D01*
X196794469Y-84269296D01*
X196697179Y-84414901D01*
X196630164Y-84576688D01*
X196596000Y-84748441D01*
X194310000Y-84748441D01*
X194310000Y-84621441D01*
X194275836Y-84449688D01*
X194208821Y-84287901D01*
X194111531Y-84142296D01*
X193987704Y-84018469D01*
X193842099Y-83921179D01*
X193680312Y-83854164D01*
X193508559Y-83820000D01*
X193333441Y-83820000D01*
X193161688Y-83854164D01*
X192999901Y-83921179D01*
X192854296Y-84018469D01*
X192730469Y-84142296D01*
X192633179Y-84287901D01*
X192566164Y-84449688D01*
X192532000Y-84621441D01*
X182551297Y-84621441D01*
X182518625Y-84513736D01*
X182379469Y-84253394D01*
X182192197Y-84025203D01*
X181964006Y-83837931D01*
X181930460Y-83820000D01*
X181964006Y-83802069D01*
X182192197Y-83614797D01*
X182379469Y-83386606D01*
X182518625Y-83126264D01*
X182604316Y-82843777D01*
X182633251Y-82550000D01*
X182604316Y-82256223D01*
X182518625Y-81973736D01*
X182379469Y-81713394D01*
X182192197Y-81485203D01*
X181964006Y-81297931D01*
X181930460Y-81280000D01*
X181964006Y-81262069D01*
X182192197Y-81074797D01*
X182199875Y-81065441D01*
X185166000Y-81065441D01*
X185166000Y-81240559D01*
X185200164Y-81412312D01*
X185267179Y-81574099D01*
X185364469Y-81719704D01*
X185488296Y-81843531D01*
X185633901Y-81940821D01*
X185795688Y-82007836D01*
X185967441Y-82042000D01*
X186142559Y-82042000D01*
X186314312Y-82007836D01*
X186476099Y-81940821D01*
X186621704Y-81843531D01*
X186745531Y-81719704D01*
X186842821Y-81574099D01*
X186909836Y-81412312D01*
X186944000Y-81240559D01*
X186944000Y-81065441D01*
X195453000Y-81065441D01*
X195453000Y-81240559D01*
X195487164Y-81412312D01*
X195554179Y-81574099D01*
X195651469Y-81719704D01*
X195775296Y-81843531D01*
X195920901Y-81940821D01*
X196082688Y-82007836D01*
X196254441Y-82042000D01*
X196429559Y-82042000D01*
X196601312Y-82007836D01*
X196763099Y-81940821D01*
X196908704Y-81843531D01*
X197032531Y-81719704D01*
X197129821Y-81574099D01*
X197196836Y-81412312D01*
X197231000Y-81240559D01*
X197231000Y-81065441D01*
X197196836Y-80893688D01*
X197129821Y-80731901D01*
X197032531Y-80586296D01*
X196908704Y-80462469D01*
X196763099Y-80365179D01*
X196601312Y-80298164D01*
X196429559Y-80264000D01*
X196254441Y-80264000D01*
X196082688Y-80298164D01*
X195920901Y-80365179D01*
X195775296Y-80462469D01*
X195651469Y-80586296D01*
X195554179Y-80731901D01*
X195487164Y-80893688D01*
X195453000Y-81065441D01*
X186944000Y-81065441D01*
X186909836Y-80893688D01*
X186842821Y-80731901D01*
X186745531Y-80586296D01*
X186621704Y-80462469D01*
X186476099Y-80365179D01*
X186314312Y-80298164D01*
X186142559Y-80264000D01*
X185967441Y-80264000D01*
X185795688Y-80298164D01*
X185633901Y-80365179D01*
X185488296Y-80462469D01*
X185364469Y-80586296D01*
X185267179Y-80731901D01*
X185200164Y-80893688D01*
X185166000Y-81065441D01*
X182199875Y-81065441D01*
X182379469Y-80846606D01*
X182518625Y-80586264D01*
X182604316Y-80303777D01*
X182633251Y-80010000D01*
X182604316Y-79716223D01*
X182518625Y-79433736D01*
X182379469Y-79173394D01*
X182192197Y-78945203D01*
X181964006Y-78757931D01*
X181930460Y-78740000D01*
X181964006Y-78722069D01*
X182192197Y-78534797D01*
X182379469Y-78306606D01*
X182398265Y-78271441D01*
X195326000Y-78271441D01*
X195326000Y-78446559D01*
X195360164Y-78618312D01*
X195427179Y-78780099D01*
X195524469Y-78925704D01*
X195648296Y-79049531D01*
X195793901Y-79146821D01*
X195955688Y-79213836D01*
X196127441Y-79248000D01*
X196302559Y-79248000D01*
X196474312Y-79213836D01*
X196636099Y-79146821D01*
X196781704Y-79049531D01*
X196905531Y-78925704D01*
X197002821Y-78780099D01*
X197069836Y-78618312D01*
X197104000Y-78446559D01*
X197104000Y-78271441D01*
X197069836Y-78099688D01*
X197002821Y-77937901D01*
X196905531Y-77792296D01*
X196781704Y-77668469D01*
X196636099Y-77571179D01*
X196474312Y-77504164D01*
X196302559Y-77470000D01*
X196127441Y-77470000D01*
X195955688Y-77504164D01*
X195793901Y-77571179D01*
X195648296Y-77668469D01*
X195524469Y-77792296D01*
X195427179Y-77937901D01*
X195360164Y-78099688D01*
X195326000Y-78271441D01*
X182398265Y-78271441D01*
X182518625Y-78046264D01*
X182604316Y-77763777D01*
X182633251Y-77470000D01*
X182604316Y-77176223D01*
X182518625Y-76893736D01*
X182379469Y-76633394D01*
X182192197Y-76405203D01*
X181990216Y-76239441D01*
X185166000Y-76239441D01*
X185166000Y-76414559D01*
X185200164Y-76586312D01*
X185267179Y-76748099D01*
X185364469Y-76893704D01*
X185488296Y-77017531D01*
X185633901Y-77114821D01*
X185795688Y-77181836D01*
X185967441Y-77216000D01*
X186142559Y-77216000D01*
X186314312Y-77181836D01*
X186476099Y-77114821D01*
X186621704Y-77017531D01*
X186745531Y-76893704D01*
X186842821Y-76748099D01*
X186909836Y-76586312D01*
X186944000Y-76414559D01*
X186944000Y-76239441D01*
X186909836Y-76067688D01*
X186875768Y-75985441D01*
X188468000Y-75985441D01*
X188468000Y-76160559D01*
X188502164Y-76332312D01*
X188569179Y-76494099D01*
X188666469Y-76639704D01*
X188790296Y-76763531D01*
X188935901Y-76860821D01*
X189097688Y-76927836D01*
X189269441Y-76962000D01*
X189444559Y-76962000D01*
X189616312Y-76927836D01*
X189778099Y-76860821D01*
X189923704Y-76763531D01*
X190047531Y-76639704D01*
X190144821Y-76494099D01*
X190211836Y-76332312D01*
X190246000Y-76160559D01*
X190246000Y-75985441D01*
X190211836Y-75813688D01*
X190144821Y-75651901D01*
X190047531Y-75506296D01*
X189923704Y-75382469D01*
X189778099Y-75285179D01*
X189616312Y-75218164D01*
X189444559Y-75184000D01*
X189269441Y-75184000D01*
X189097688Y-75218164D01*
X188935901Y-75285179D01*
X188790296Y-75382469D01*
X188666469Y-75506296D01*
X188569179Y-75651901D01*
X188502164Y-75813688D01*
X188468000Y-75985441D01*
X186875768Y-75985441D01*
X186842821Y-75905901D01*
X186745531Y-75760296D01*
X186621704Y-75636469D01*
X186476099Y-75539179D01*
X186314312Y-75472164D01*
X186142559Y-75438000D01*
X185967441Y-75438000D01*
X185795688Y-75472164D01*
X185633901Y-75539179D01*
X185488296Y-75636469D01*
X185364469Y-75760296D01*
X185267179Y-75905901D01*
X185200164Y-76067688D01*
X185166000Y-76239441D01*
X181990216Y-76239441D01*
X181964006Y-76217931D01*
X181930460Y-76200000D01*
X181964006Y-76182069D01*
X182192197Y-75994797D01*
X182379469Y-75766606D01*
X182518625Y-75506264D01*
X182604316Y-75223777D01*
X182633251Y-74930000D01*
X182604316Y-74636223D01*
X182518625Y-74353736D01*
X182508312Y-74334441D01*
X185674000Y-74334441D01*
X185674000Y-74509559D01*
X185708164Y-74681312D01*
X185775179Y-74843099D01*
X185872469Y-74988704D01*
X185996296Y-75112531D01*
X186141901Y-75209821D01*
X186303688Y-75276836D01*
X186475441Y-75311000D01*
X186650559Y-75311000D01*
X186822312Y-75276836D01*
X186984099Y-75209821D01*
X187129704Y-75112531D01*
X187253531Y-74988704D01*
X187350821Y-74843099D01*
X187417836Y-74681312D01*
X187452000Y-74509559D01*
X187452000Y-74334441D01*
X187417836Y-74162688D01*
X187350821Y-74000901D01*
X187253531Y-73855296D01*
X187129704Y-73731469D01*
X186984099Y-73634179D01*
X186822312Y-73567164D01*
X186650559Y-73533000D01*
X186475441Y-73533000D01*
X186303688Y-73567164D01*
X186141901Y-73634179D01*
X185996296Y-73731469D01*
X185872469Y-73855296D01*
X185775179Y-74000901D01*
X185708164Y-74162688D01*
X185674000Y-74334441D01*
X182508312Y-74334441D01*
X182379469Y-74093394D01*
X182192197Y-73865203D01*
X181964006Y-73677931D01*
X181930460Y-73660000D01*
X181964006Y-73642069D01*
X182192197Y-73454797D01*
X182379469Y-73226606D01*
X182518625Y-72966264D01*
X182604316Y-72683777D01*
X182633251Y-72390000D01*
X182604316Y-72096223D01*
X182518625Y-71813736D01*
X182379469Y-71553394D01*
X182192197Y-71325203D01*
X182144966Y-71286441D01*
X187960000Y-71286441D01*
X187960000Y-71461559D01*
X187994164Y-71633312D01*
X188061179Y-71795099D01*
X188158469Y-71940704D01*
X188282296Y-72064531D01*
X188427901Y-72161821D01*
X188589688Y-72228836D01*
X188761441Y-72263000D01*
X188936559Y-72263000D01*
X189108312Y-72228836D01*
X189270099Y-72161821D01*
X189415704Y-72064531D01*
X189539531Y-71940704D01*
X189636821Y-71795099D01*
X189703836Y-71633312D01*
X189738000Y-71461559D01*
X189738000Y-71286441D01*
X189703836Y-71114688D01*
X189636821Y-70952901D01*
X189539531Y-70807296D01*
X189415704Y-70683469D01*
X189270099Y-70586179D01*
X189108312Y-70519164D01*
X188936559Y-70485000D01*
X188761441Y-70485000D01*
X188589688Y-70519164D01*
X188427901Y-70586179D01*
X188282296Y-70683469D01*
X188158469Y-70807296D01*
X188061179Y-70952901D01*
X187994164Y-71114688D01*
X187960000Y-71286441D01*
X182144966Y-71286441D01*
X181964006Y-71137931D01*
X181930460Y-71120000D01*
X181964006Y-71102069D01*
X182192197Y-70914797D01*
X182379469Y-70686606D01*
X182518625Y-70426264D01*
X182604316Y-70143777D01*
X182633251Y-69850000D01*
X182604316Y-69556223D01*
X182518625Y-69273736D01*
X182379469Y-69013394D01*
X182368839Y-69000441D01*
X183642000Y-69000441D01*
X183642000Y-69175559D01*
X183676164Y-69347312D01*
X183743179Y-69509099D01*
X183840469Y-69654704D01*
X183964296Y-69778531D01*
X184109901Y-69875821D01*
X184271688Y-69942836D01*
X184443441Y-69977000D01*
X184618559Y-69977000D01*
X184790312Y-69942836D01*
X184952099Y-69875821D01*
X185097704Y-69778531D01*
X185113794Y-69762441D01*
X193675000Y-69762441D01*
X193675000Y-69937559D01*
X193709164Y-70109312D01*
X193776179Y-70271099D01*
X193873469Y-70416704D01*
X193997296Y-70540531D01*
X194142901Y-70637821D01*
X194304688Y-70704836D01*
X194476441Y-70739000D01*
X194651559Y-70739000D01*
X194823312Y-70704836D01*
X194985099Y-70637821D01*
X195130704Y-70540531D01*
X195254531Y-70416704D01*
X195351821Y-70271099D01*
X195418836Y-70109312D01*
X195453000Y-69937559D01*
X195453000Y-69762441D01*
X195418836Y-69590688D01*
X195351821Y-69428901D01*
X195254531Y-69283296D01*
X195130704Y-69159469D01*
X194985099Y-69062179D01*
X194823312Y-68995164D01*
X194651559Y-68961000D01*
X194476441Y-68961000D01*
X194304688Y-68995164D01*
X194142901Y-69062179D01*
X193997296Y-69159469D01*
X193873469Y-69283296D01*
X193776179Y-69428901D01*
X193709164Y-69590688D01*
X193675000Y-69762441D01*
X185113794Y-69762441D01*
X185221531Y-69654704D01*
X185318821Y-69509099D01*
X185385836Y-69347312D01*
X185420000Y-69175559D01*
X185420000Y-69000441D01*
X185385836Y-68828688D01*
X185333201Y-68701617D01*
X185379901Y-68732821D01*
X185541688Y-68799836D01*
X185713441Y-68834000D01*
X185888559Y-68834000D01*
X186060312Y-68799836D01*
X186222099Y-68732821D01*
X186367704Y-68635531D01*
X186491531Y-68511704D01*
X186588821Y-68366099D01*
X186655836Y-68204312D01*
X186690000Y-68032559D01*
X186690000Y-67857441D01*
X195580000Y-67857441D01*
X195580000Y-68032559D01*
X195614164Y-68204312D01*
X195681179Y-68366099D01*
X195778469Y-68511704D01*
X195902296Y-68635531D01*
X196047901Y-68732821D01*
X196209688Y-68799836D01*
X196381441Y-68834000D01*
X196556559Y-68834000D01*
X196728312Y-68799836D01*
X196890099Y-68732821D01*
X197035704Y-68635531D01*
X197159531Y-68511704D01*
X197256821Y-68366099D01*
X197323836Y-68204312D01*
X197358000Y-68032559D01*
X197358000Y-67857441D01*
X197323836Y-67685688D01*
X197256821Y-67523901D01*
X197159531Y-67378296D01*
X197035704Y-67254469D01*
X196890099Y-67157179D01*
X196728312Y-67090164D01*
X196556559Y-67056000D01*
X196381441Y-67056000D01*
X196209688Y-67090164D01*
X196047901Y-67157179D01*
X195902296Y-67254469D01*
X195778469Y-67378296D01*
X195681179Y-67523901D01*
X195614164Y-67685688D01*
X195580000Y-67857441D01*
X186690000Y-67857441D01*
X186655836Y-67685688D01*
X186588821Y-67523901D01*
X186491531Y-67378296D01*
X186367704Y-67254469D01*
X186222099Y-67157179D01*
X186060312Y-67090164D01*
X185888559Y-67056000D01*
X185713441Y-67056000D01*
X185541688Y-67090164D01*
X185379901Y-67157179D01*
X185234296Y-67254469D01*
X185110469Y-67378296D01*
X185013179Y-67523901D01*
X184946164Y-67685688D01*
X184912000Y-67857441D01*
X184912000Y-68032559D01*
X184946164Y-68204312D01*
X184998799Y-68331383D01*
X184952099Y-68300179D01*
X184790312Y-68233164D01*
X184618559Y-68199000D01*
X184443441Y-68199000D01*
X184271688Y-68233164D01*
X184109901Y-68300179D01*
X183964296Y-68397469D01*
X183840469Y-68521296D01*
X183743179Y-68666901D01*
X183676164Y-68828688D01*
X183642000Y-69000441D01*
X182368839Y-69000441D01*
X182192197Y-68785203D01*
X181964006Y-68597931D01*
X181930460Y-68580000D01*
X181964006Y-68562069D01*
X182192197Y-68374797D01*
X182379469Y-68146606D01*
X182518625Y-67886264D01*
X182604316Y-67603777D01*
X182633251Y-67310000D01*
X182604316Y-67016223D01*
X182518625Y-66733736D01*
X182379469Y-66473394D01*
X182192197Y-66245203D01*
X181964006Y-66057931D01*
X181930460Y-66040000D01*
X181964006Y-66022069D01*
X182192197Y-65834797D01*
X182379469Y-65606606D01*
X182518625Y-65346264D01*
X182604316Y-65063777D01*
X182633251Y-64770000D01*
X182604316Y-64476223D01*
X182518625Y-64193736D01*
X182379469Y-63933394D01*
X182264613Y-63793441D01*
X196723000Y-63793441D01*
X196723000Y-63968559D01*
X196757164Y-64140312D01*
X196824179Y-64302099D01*
X196921469Y-64447704D01*
X197045296Y-64571531D01*
X197190901Y-64668821D01*
X197352688Y-64735836D01*
X197524441Y-64770000D01*
X197699559Y-64770000D01*
X197871312Y-64735836D01*
X198033099Y-64668821D01*
X198178704Y-64571531D01*
X198302531Y-64447704D01*
X198399821Y-64302099D01*
X198466836Y-64140312D01*
X198501000Y-63968559D01*
X198501000Y-63793441D01*
X198466836Y-63621688D01*
X198399821Y-63459901D01*
X198302531Y-63314296D01*
X198178704Y-63190469D01*
X198033099Y-63093179D01*
X197871312Y-63026164D01*
X197699559Y-62992000D01*
X197524441Y-62992000D01*
X197352688Y-63026164D01*
X197190901Y-63093179D01*
X197045296Y-63190469D01*
X196921469Y-63314296D01*
X196824179Y-63459901D01*
X196757164Y-63621688D01*
X196723000Y-63793441D01*
X182264613Y-63793441D01*
X182192197Y-63705203D01*
X181964006Y-63517931D01*
X181930460Y-63500000D01*
X181964006Y-63482069D01*
X182192197Y-63294797D01*
X182379469Y-63066606D01*
X182518625Y-62806264D01*
X182604316Y-62523777D01*
X182633251Y-62230000D01*
X182604316Y-61936223D01*
X182518625Y-61653736D01*
X182440429Y-61507441D01*
X189230000Y-61507441D01*
X189230000Y-61682559D01*
X189264164Y-61854312D01*
X189331179Y-62016099D01*
X189428469Y-62161704D01*
X189552296Y-62285531D01*
X189697901Y-62382821D01*
X189859688Y-62449836D01*
X190031441Y-62484000D01*
X190206559Y-62484000D01*
X190378312Y-62449836D01*
X190540099Y-62382821D01*
X190685704Y-62285531D01*
X190809531Y-62161704D01*
X190906821Y-62016099D01*
X190973836Y-61854312D01*
X191008000Y-61682559D01*
X191008000Y-61507441D01*
X190973836Y-61335688D01*
X190906821Y-61173901D01*
X190809531Y-61028296D01*
X190685704Y-60904469D01*
X190540099Y-60807179D01*
X190378312Y-60740164D01*
X190206559Y-60706000D01*
X190031441Y-60706000D01*
X189859688Y-60740164D01*
X189697901Y-60807179D01*
X189552296Y-60904469D01*
X189428469Y-61028296D01*
X189331179Y-61173901D01*
X189264164Y-61335688D01*
X189230000Y-61507441D01*
X182440429Y-61507441D01*
X182379469Y-61393394D01*
X182192197Y-61165203D01*
X181964006Y-60977931D01*
X181930460Y-60960000D01*
X181964006Y-60942069D01*
X182192197Y-60754797D01*
X182379469Y-60526606D01*
X182398265Y-60491441D01*
X196723000Y-60491441D01*
X196723000Y-60666559D01*
X196757164Y-60838312D01*
X196824179Y-61000099D01*
X196921469Y-61145704D01*
X197045296Y-61269531D01*
X197190901Y-61366821D01*
X197352688Y-61433836D01*
X197524441Y-61468000D01*
X197699559Y-61468000D01*
X197871312Y-61433836D01*
X198033099Y-61366821D01*
X198178704Y-61269531D01*
X198302531Y-61145704D01*
X198399821Y-61000099D01*
X198466836Y-60838312D01*
X198501000Y-60666559D01*
X198501000Y-60491441D01*
X198466836Y-60319688D01*
X198399821Y-60157901D01*
X198302531Y-60012296D01*
X198178704Y-59888469D01*
X198033099Y-59791179D01*
X197871312Y-59724164D01*
X197699559Y-59690000D01*
X197524441Y-59690000D01*
X197352688Y-59724164D01*
X197190901Y-59791179D01*
X197045296Y-59888469D01*
X196921469Y-60012296D01*
X196824179Y-60157901D01*
X196757164Y-60319688D01*
X196723000Y-60491441D01*
X182398265Y-60491441D01*
X182518625Y-60266264D01*
X182604316Y-59983777D01*
X182633251Y-59690000D01*
X182604316Y-59396223D01*
X182518625Y-59113736D01*
X182379469Y-58853394D01*
X182192197Y-58625203D01*
X181964006Y-58437931D01*
X181930460Y-58420000D01*
X181964006Y-58402069D01*
X182192197Y-58214797D01*
X182379469Y-57986606D01*
X182518625Y-57726264D01*
X182604316Y-57443777D01*
X182633251Y-57150000D01*
X182604316Y-56856223D01*
X182518625Y-56573736D01*
X182379469Y-56313394D01*
X182192197Y-56085203D01*
X181964006Y-55897931D01*
X181930460Y-55880000D01*
X181964006Y-55862069D01*
X182125295Y-55729702D01*
X187694903Y-55729702D01*
X187766486Y-55973671D01*
X188021996Y-56094571D01*
X188296184Y-56163300D01*
X188578512Y-56177217D01*
X188858130Y-56135787D01*
X189124292Y-56040603D01*
X189249514Y-55973671D01*
X189321097Y-55729702D01*
X188508000Y-54916605D01*
X187694903Y-55729702D01*
X182125295Y-55729702D01*
X182192197Y-55674797D01*
X182379469Y-55446606D01*
X182518625Y-55186264D01*
X182604316Y-54903777D01*
X182613797Y-54807512D01*
X187067783Y-54807512D01*
X187109213Y-55087130D01*
X187204397Y-55353292D01*
X187271329Y-55478514D01*
X187515298Y-55550097D01*
X188328395Y-54737000D01*
X188687605Y-54737000D01*
X189500702Y-55550097D01*
X189744671Y-55478514D01*
X189865571Y-55223004D01*
X189934300Y-54948816D01*
X189948217Y-54666488D01*
X189937724Y-54595665D01*
X192073000Y-54595665D01*
X192073000Y-54878335D01*
X192128147Y-55155574D01*
X192236320Y-55416727D01*
X192393363Y-55651759D01*
X192593241Y-55851637D01*
X192828273Y-56008680D01*
X193089426Y-56116853D01*
X193366665Y-56172000D01*
X193649335Y-56172000D01*
X193926574Y-56116853D01*
X194187727Y-56008680D01*
X194422759Y-55851637D01*
X194622637Y-55651759D01*
X194779680Y-55416727D01*
X194887853Y-55155574D01*
X194943000Y-54878335D01*
X194943000Y-54595665D01*
X194887853Y-54318426D01*
X194779680Y-54057273D01*
X194622637Y-53822241D01*
X194422759Y-53622363D01*
X194187727Y-53465320D01*
X193926574Y-53357147D01*
X193649335Y-53302000D01*
X193366665Y-53302000D01*
X193089426Y-53357147D01*
X192828273Y-53465320D01*
X192593241Y-53622363D01*
X192393363Y-53822241D01*
X192236320Y-54057273D01*
X192128147Y-54318426D01*
X192073000Y-54595665D01*
X189937724Y-54595665D01*
X189906787Y-54386870D01*
X189811603Y-54120708D01*
X189744671Y-53995486D01*
X189500702Y-53923903D01*
X188687605Y-54737000D01*
X188328395Y-54737000D01*
X187515298Y-53923903D01*
X187271329Y-53995486D01*
X187150429Y-54250996D01*
X187081700Y-54525184D01*
X187067783Y-54807512D01*
X182613797Y-54807512D01*
X182633251Y-54610000D01*
X182604316Y-54316223D01*
X182518625Y-54033736D01*
X182379469Y-53773394D01*
X182355591Y-53744298D01*
X187694903Y-53744298D01*
X188508000Y-54557395D01*
X189321097Y-53744298D01*
X189249514Y-53500329D01*
X188994004Y-53379429D01*
X188719816Y-53310700D01*
X188437488Y-53296783D01*
X188157870Y-53338213D01*
X187891708Y-53433397D01*
X187766486Y-53500329D01*
X187694903Y-53744298D01*
X182355591Y-53744298D01*
X182192197Y-53545203D01*
X181964006Y-53357931D01*
X181703664Y-53218775D01*
X181421177Y-53133084D01*
X181201019Y-53111400D01*
X180748981Y-53111400D01*
X180528823Y-53133084D01*
X180246336Y-53218775D01*
X179985994Y-53357931D01*
X179757803Y-53545203D01*
X179730000Y-53579081D01*
X179730000Y-50612374D01*
X180340000Y-50612374D01*
X180340000Y-50987626D01*
X180413209Y-51355668D01*
X180556811Y-51702356D01*
X180765290Y-52014366D01*
X181030634Y-52279710D01*
X181342644Y-52488189D01*
X181689332Y-52631791D01*
X182057374Y-52705000D01*
X182432626Y-52705000D01*
X182800668Y-52631791D01*
X183147356Y-52488189D01*
X183459366Y-52279710D01*
X183724710Y-52014366D01*
X183933189Y-51702356D01*
X184076791Y-51355668D01*
X184150000Y-50987626D01*
X184150000Y-50612374D01*
X198120000Y-50612374D01*
X198120000Y-50987626D01*
X198193209Y-51355668D01*
X198336811Y-51702356D01*
X198545290Y-52014366D01*
X198810634Y-52279710D01*
X199122644Y-52488189D01*
X199469332Y-52631791D01*
X199837374Y-52705000D01*
X200212626Y-52705000D01*
X200580668Y-52631791D01*
X200927356Y-52488189D01*
X201239366Y-52279710D01*
X201504710Y-52014366D01*
X201713189Y-51702356D01*
X201856791Y-51355668D01*
X201930000Y-50987626D01*
X201930000Y-50612374D01*
X201856791Y-50244332D01*
X201713189Y-49897644D01*
X201504710Y-49585634D01*
X201239366Y-49320290D01*
X200927356Y-49111811D01*
X200580668Y-48968209D01*
X200212626Y-48895000D01*
X199837374Y-48895000D01*
X199469332Y-48968209D01*
X199122644Y-49111811D01*
X198810634Y-49320290D01*
X198545290Y-49585634D01*
X198336811Y-49897644D01*
X198193209Y-50244332D01*
X198120000Y-50612374D01*
X184150000Y-50612374D01*
X184076791Y-50244332D01*
X183933189Y-49897644D01*
X183724710Y-49585634D01*
X183459366Y-49320290D01*
X183147356Y-49111811D01*
X182800668Y-48968209D01*
X182432626Y-48895000D01*
X182057374Y-48895000D01*
X181689332Y-48968209D01*
X181342644Y-49111811D01*
X181030634Y-49320290D01*
X180765290Y-49585634D01*
X180556811Y-49897644D01*
X180413209Y-50244332D01*
X180340000Y-50612374D01*
X179730000Y-50612374D01*
X179730000Y-48285000D01*
X194193842Y-48285000D01*
X194124296Y-48331469D01*
X194124296Y-48331469D01*
G37*
X194124296Y-48331469D02*
X194000469Y-48455296D01*
X193903179Y-48600901D01*
X193836164Y-48762688D01*
X193802000Y-48934441D01*
X193802000Y-49109559D01*
X193836164Y-49281312D01*
X193903179Y-49443099D01*
X194000469Y-49588704D01*
X194124296Y-49712531D01*
X194269901Y-49809821D01*
X194431688Y-49876836D01*
X194603441Y-49911000D01*
X194778559Y-49911000D01*
X194950312Y-49876836D01*
X195112099Y-49809821D01*
X195257704Y-49712531D01*
X195381531Y-49588704D01*
X195478821Y-49443099D01*
X195545836Y-49281312D01*
X195580000Y-49109559D01*
X195580000Y-48934441D01*
X195545836Y-48762688D01*
X195478821Y-48600901D01*
X195381531Y-48455296D01*
X195257704Y-48331469D01*
X195188158Y-48285000D01*
X202540000Y-48285000D01*
X202540000Y-53579081D01*
X202512197Y-53545203D01*
X202284006Y-53357931D01*
X202023664Y-53218775D01*
X201741177Y-53133084D01*
X201521019Y-53111400D01*
X201068981Y-53111400D01*
X200848823Y-53133084D01*
X200566336Y-53218775D01*
X200305994Y-53357931D01*
X200077803Y-53545203D01*
X199890531Y-53773394D01*
X199751375Y-54033736D01*
X199665684Y-54316223D01*
X199636749Y-54610000D01*
X199665684Y-54903777D01*
X199751375Y-55186264D01*
X199890531Y-55446606D01*
X200077803Y-55674797D01*
X200305994Y-55862069D01*
X200339540Y-55880000D01*
X200305994Y-55897931D01*
X200077803Y-56085203D01*
X199890531Y-56313394D01*
X199751375Y-56573736D01*
X199665684Y-56856223D01*
X199636749Y-57150000D01*
X199665684Y-57443777D01*
X199751375Y-57726264D01*
X199890531Y-57986606D01*
X200077803Y-58214797D01*
X200305994Y-58402069D01*
X200339540Y-58420000D01*
X200305994Y-58437931D01*
X200077803Y-58625203D01*
X199890531Y-58853394D01*
X199751375Y-59113736D01*
X199665684Y-59396223D01*
X199636749Y-59690000D01*
X199665684Y-59983777D01*
X199751375Y-60266264D01*
X199890531Y-60526606D01*
X200077803Y-60754797D01*
X200305994Y-60942069D01*
X200339540Y-60960000D01*
X200305994Y-60977931D01*
X200077803Y-61165203D01*
X199890531Y-61393394D01*
X199751375Y-61653736D01*
X199665684Y-61936223D01*
X199636749Y-62230000D01*
X199665684Y-62523777D01*
X199751375Y-62806264D01*
X199890531Y-63066606D01*
X200077803Y-63294797D01*
X200305994Y-63482069D01*
X200339540Y-63500000D01*
X200305994Y-63517931D01*
X200077803Y-63705203D01*
X199890531Y-63933394D01*
X199751375Y-64193736D01*
X199665684Y-64476223D01*
X199636749Y-64770000D01*
X199665684Y-65063777D01*
X199751375Y-65346264D01*
X199890531Y-65606606D01*
X200077803Y-65834797D01*
X200305994Y-66022069D01*
X200339540Y-66040000D01*
X200305994Y-66057931D01*
X200077803Y-66245203D01*
X199890531Y-66473394D01*
X199751375Y-66733736D01*
X199665684Y-67016223D01*
X199636749Y-67310000D01*
X199665684Y-67603777D01*
X199751375Y-67886264D01*
X199890531Y-68146606D01*
X200077803Y-68374797D01*
X200305994Y-68562069D01*
X200339540Y-68580000D01*
X200305994Y-68597931D01*
X200077803Y-68785203D01*
X199970157Y-68916370D01*
X199868691Y-68814904D01*
X199898000Y-68667559D01*
X199898000Y-68492441D01*
X199863836Y-68320688D01*
X199796821Y-68158901D01*
X199699531Y-68013296D01*
X199575704Y-67889469D01*
X199430099Y-67792179D01*
X199268312Y-67725164D01*
X199096559Y-67691000D01*
X198921441Y-67691000D01*
X198749688Y-67725164D01*
X198587901Y-67792179D01*
X198442296Y-67889469D01*
X198318469Y-68013296D01*
X198221179Y-68158901D01*
X198154164Y-68320688D01*
X198144713Y-68368200D01*
X198125312Y-68360164D01*
X197953559Y-68326000D01*
X197778441Y-68326000D01*
X197606688Y-68360164D01*
X197444901Y-68427179D01*
X197299296Y-68524469D01*
X197175469Y-68648296D01*
X197078179Y-68793901D01*
X197011164Y-68955688D01*
X196977000Y-69127441D01*
X196977000Y-69302559D01*
X197011164Y-69474312D01*
X197078179Y-69636099D01*
X197175469Y-69781704D01*
X197299296Y-69905531D01*
X197444901Y-70002821D01*
X197606688Y-70069836D01*
X197778441Y-70104000D01*
X197953559Y-70104000D01*
X198125312Y-70069836D01*
X198287099Y-70002821D01*
X198432704Y-69905531D01*
X198556531Y-69781704D01*
X198653821Y-69636099D01*
X198660994Y-69618781D01*
X199370403Y-70328190D01*
X199392673Y-70355327D01*
X199500967Y-70444202D01*
X199624519Y-70510242D01*
X199758580Y-70550909D01*
X199821301Y-70557087D01*
X199890531Y-70686606D01*
X200077803Y-70914797D01*
X200305994Y-71102069D01*
X200339540Y-71120000D01*
X200305994Y-71137931D01*
X200077803Y-71325203D01*
X199890531Y-71553394D01*
X199751375Y-71813736D01*
X199665684Y-72096223D01*
X199636749Y-72390000D01*
X199665684Y-72683777D01*
X199751375Y-72966264D01*
X199890531Y-73226606D01*
X200077803Y-73454797D01*
X200305994Y-73642069D01*
X200339540Y-73660000D01*
X200305994Y-73677931D01*
X200077803Y-73865203D01*
X199890531Y-74093394D01*
X199751375Y-74353736D01*
X199665684Y-74636223D01*
X199636749Y-74930000D01*
X199665684Y-75223777D01*
X199751375Y-75506264D01*
X199890531Y-75766606D01*
X200077803Y-75994797D01*
X200305994Y-76182069D01*
X200339540Y-76200000D01*
X200305994Y-76217931D01*
X200077803Y-76405203D01*
X199890531Y-76633394D01*
X199751375Y-76893736D01*
X199665684Y-77176223D01*
X199636749Y-77470000D01*
X199665684Y-77763777D01*
X199751375Y-78046264D01*
X199890531Y-78306606D01*
X200077803Y-78534797D01*
X200305994Y-78722069D01*
X200339540Y-78740000D01*
X200305994Y-78757931D01*
X200077803Y-78945203D01*
X199890531Y-79173394D01*
X199751375Y-79433736D01*
X199665684Y-79716223D01*
X199636749Y-80010000D01*
X199665684Y-80303777D01*
X199751375Y-80586264D01*
X199890531Y-80846606D01*
X200077803Y-81074797D01*
X200305994Y-81262069D01*
X200339540Y-81280000D01*
X200305994Y-81297931D01*
X200077803Y-81485203D01*
X199890531Y-81713394D01*
X199751375Y-81973736D01*
X199665684Y-82256223D01*
X199636749Y-82550000D01*
X199665684Y-82843777D01*
X199751375Y-83126264D01*
X199890531Y-83386606D01*
X200077803Y-83614797D01*
X200305994Y-83802069D01*
X200566336Y-83941225D01*
X200848823Y-84026916D01*
X201068981Y-84048600D01*
X201521019Y-84048600D01*
X201741177Y-84026916D01*
X202023664Y-83941225D01*
X202284006Y-83802069D01*
X202512197Y-83614797D01*
X202540001Y-83580918D01*
X202540001Y-88039135D01*
X202398559Y-88011000D01*
X202223441Y-88011000D01*
X202051688Y-88045164D01*
X201889901Y-88112179D01*
X201744296Y-88209469D01*
X201620469Y-88333296D01*
X201523179Y-88478901D01*
X201456164Y-88640688D01*
X201422000Y-88812441D01*
X201422000Y-88987559D01*
X201456164Y-89159312D01*
X201523179Y-89321099D01*
X201620469Y-89466704D01*
X201744296Y-89590531D01*
X201889901Y-89687821D01*
X202051688Y-89754836D01*
X202223441Y-89789000D01*
X202398559Y-89789000D01*
X202540001Y-89760865D01*
X202540001Y-107290000D01*
X196306767Y-107290000D01*
X196439706Y-107128014D01*
X196577599Y-106870034D01*
X196662513Y-106590111D01*
X196691185Y-106299000D01*
X196662513Y-106007889D01*
X196577599Y-105727966D01*
X196439706Y-105469986D01*
X196254134Y-105243866D01*
X196028014Y-105058294D01*
X195770034Y-104920401D01*
X195490111Y-104835487D01*
X195271950Y-104814000D01*
X195126050Y-104814000D01*
X194907889Y-104835487D01*
X194627966Y-104920401D01*
X194369986Y-105058294D01*
X194143866Y-105243866D01*
X193958294Y-105469986D01*
X193929000Y-105524791D01*
X193899706Y-105469986D01*
X193714134Y-105243866D01*
X193488014Y-105058294D01*
X193230034Y-104920401D01*
X192950111Y-104835487D01*
X192731950Y-104814000D01*
X192586050Y-104814000D01*
X192367889Y-104835487D01*
X192087966Y-104920401D01*
X191829986Y-105058294D01*
X191603866Y-105243866D01*
X191418294Y-105469986D01*
X191389000Y-105524791D01*
X191359706Y-105469986D01*
X191174134Y-105243866D01*
X190948014Y-105058294D01*
X190690034Y-104920401D01*
X190410111Y-104835487D01*
X190191950Y-104814000D01*
X190046050Y-104814000D01*
X189827889Y-104835487D01*
X189547966Y-104920401D01*
X189289986Y-105058294D01*
X189063866Y-105243866D01*
X189039393Y-105273687D01*
X189018502Y-105204820D01*
X188959537Y-105094506D01*
X188880185Y-104997815D01*
X188783494Y-104918463D01*
X188673180Y-104859498D01*
X188553482Y-104823188D01*
X188429000Y-104810928D01*
X186729000Y-104810928D01*
X186604518Y-104823188D01*
X186484820Y-104859498D01*
X186374506Y-104918463D01*
X186277815Y-104997815D01*
X186198463Y-105094506D01*
X186139498Y-105204820D01*
X186103188Y-105324518D01*
X186090928Y-105449000D01*
X186090928Y-107149000D01*
X186103188Y-107273482D01*
X186108199Y-107290000D01*
X179730000Y-107290000D01*
X179730000Y-103290441D01*
X185039000Y-103290441D01*
X185039000Y-103465559D01*
X185073164Y-103637312D01*
X185140179Y-103799099D01*
X185237469Y-103944704D01*
X185361296Y-104068531D01*
X185506901Y-104165821D01*
X185668688Y-104232836D01*
X185840441Y-104267000D01*
X186015559Y-104267000D01*
X186187312Y-104232836D01*
X186349099Y-104165821D01*
X186494704Y-104068531D01*
X186618531Y-103944704D01*
X186715821Y-103799099D01*
X186782836Y-103637312D01*
X186817000Y-103465559D01*
X186817000Y-103290441D01*
X186782836Y-103118688D01*
X186715821Y-102956901D01*
X186618531Y-102811296D01*
X186494704Y-102687469D01*
X186349099Y-102590179D01*
X186187312Y-102523164D01*
X186015559Y-102489000D01*
X185840441Y-102489000D01*
X185668688Y-102523164D01*
X185506901Y-102590179D01*
X185361296Y-102687469D01*
X185237469Y-102811296D01*
X185140179Y-102956901D01*
X185073164Y-103118688D01*
X185039000Y-103290441D01*
X179730000Y-103290441D01*
X179730000Y-101639441D01*
X192278000Y-101639441D01*
X192278000Y-101814559D01*
X192312164Y-101986312D01*
X192379179Y-102148099D01*
X192476469Y-102293704D01*
X192600296Y-102417531D01*
X192745901Y-102514821D01*
X192907688Y-102581836D01*
X193079441Y-102616000D01*
X193254559Y-102616000D01*
X193426312Y-102581836D01*
X193588099Y-102514821D01*
X193733704Y-102417531D01*
X193857531Y-102293704D01*
X193954821Y-102148099D01*
X194021836Y-101986312D01*
X194056000Y-101814559D01*
X194056000Y-101639441D01*
X194021836Y-101467688D01*
X193954821Y-101305901D01*
X193857531Y-101160296D01*
X193733704Y-101036469D01*
X193588099Y-100939179D01*
X193426312Y-100872164D01*
X193254559Y-100838000D01*
X193079441Y-100838000D01*
X192907688Y-100872164D01*
X192745901Y-100939179D01*
X192600296Y-101036469D01*
X192476469Y-101160296D01*
X192379179Y-101305901D01*
X192312164Y-101467688D01*
X192278000Y-101639441D01*
X179730000Y-101639441D01*
X179730000Y-96332374D01*
X180340000Y-96332374D01*
X180340000Y-96707626D01*
X180413209Y-97075668D01*
X180556811Y-97422356D01*
X180765290Y-97734366D01*
X181030634Y-97999710D01*
X181342644Y-98208189D01*
X181689332Y-98351791D01*
X182057374Y-98425000D01*
X182432626Y-98425000D01*
X182800668Y-98351791D01*
X183147356Y-98208189D01*
X183459366Y-97999710D01*
X183724710Y-97734366D01*
X183933189Y-97422356D01*
X184076791Y-97075668D01*
X184100644Y-96955750D01*
X190102000Y-96955750D01*
X190102000Y-97184250D01*
X190146578Y-97408360D01*
X190234021Y-97619466D01*
X190360969Y-97809457D01*
X190522543Y-97971031D01*
X190712534Y-98097979D01*
X190923640Y-98185422D01*
X191147750Y-98230000D01*
X191376250Y-98230000D01*
X191600360Y-98185422D01*
X191811466Y-98097979D01*
X192001457Y-97971031D01*
X192163031Y-97809457D01*
X192289979Y-97619466D01*
X192377422Y-97408360D01*
X192422000Y-97184250D01*
X192422000Y-96955750D01*
X192377422Y-96731640D01*
X192289979Y-96520534D01*
X192164255Y-96332374D01*
X198120000Y-96332374D01*
X198120000Y-96707626D01*
X198193209Y-97075668D01*
X198336811Y-97422356D01*
X198545290Y-97734366D01*
X198810634Y-97999710D01*
X199122644Y-98208189D01*
X199469332Y-98351791D01*
X199837374Y-98425000D01*
X200212626Y-98425000D01*
X200580668Y-98351791D01*
X200927356Y-98208189D01*
X201239366Y-97999710D01*
X201504710Y-97734366D01*
X201713189Y-97422356D01*
X201856791Y-97075668D01*
X201930000Y-96707626D01*
X201930000Y-96332374D01*
X201856791Y-95964332D01*
X201713189Y-95617644D01*
X201504710Y-95305634D01*
X201239366Y-95040290D01*
X200927356Y-94831811D01*
X200580668Y-94688209D01*
X200212626Y-94615000D01*
X199837374Y-94615000D01*
X199469332Y-94688209D01*
X199122644Y-94831811D01*
X198810634Y-95040290D01*
X198545290Y-95305634D01*
X198336811Y-95617644D01*
X198193209Y-95964332D01*
X198120000Y-96332374D01*
X192164255Y-96332374D01*
X192163031Y-96330543D01*
X192001457Y-96168969D01*
X191811466Y-96042021D01*
X191600360Y-95954578D01*
X191376250Y-95910000D01*
X191147750Y-95910000D01*
X190923640Y-95954578D01*
X190712534Y-96042021D01*
X190522543Y-96168969D01*
X190360969Y-96330543D01*
X190234021Y-96520534D01*
X190146578Y-96731640D01*
X190102000Y-96955750D01*
X184100644Y-96955750D01*
X184150000Y-96707626D01*
X184150000Y-96332374D01*
X184076791Y-95964332D01*
X183933189Y-95617644D01*
X183724710Y-95305634D01*
X183459366Y-95040290D01*
X183147356Y-94831811D01*
X182800668Y-94688209D01*
X182432626Y-94615000D01*
X182057374Y-94615000D01*
X181689332Y-94688209D01*
X181342644Y-94831811D01*
X181030634Y-95040290D01*
X180765290Y-95305634D01*
X180556811Y-95617644D01*
X180413209Y-95964332D01*
X180340000Y-96332374D01*
X179730000Y-96332374D01*
X179730000Y-93740919D01*
X179757803Y-93774797D01*
X179985994Y-93962069D01*
X180246336Y-94101225D01*
X180528823Y-94186916D01*
X180748981Y-94208600D01*
X181201019Y-94208600D01*
X181421177Y-94186916D01*
X181703664Y-94101225D01*
X181964006Y-93962069D01*
X182192197Y-93774797D01*
X182379469Y-93546606D01*
X182518625Y-93286264D01*
X182604316Y-93003777D01*
X182633251Y-92710000D01*
X182604316Y-92416223D01*
X182518625Y-92133736D01*
X182379469Y-91873394D01*
X182192197Y-91645203D01*
X181964006Y-91457931D01*
X181924053Y-91436576D01*
X182126729Y-91288486D01*
X182325733Y-91072035D01*
X182478686Y-90820919D01*
X182579709Y-90544789D01*
X182582358Y-90529026D01*
X182461217Y-90297000D01*
X181102000Y-90297000D01*
X181102000Y-90317000D01*
X180848000Y-90317000D01*
X180848000Y-90297000D01*
X180828000Y-90297000D01*
X180828000Y-90043000D01*
X180848000Y-90043000D01*
X180848000Y-90023000D01*
X181102000Y-90023000D01*
X181102000Y-90043000D01*
X182461217Y-90043000D01*
X182582358Y-89810974D01*
X182579709Y-89795211D01*
X182478686Y-89519081D01*
X182463068Y-89493439D01*
X189977000Y-89493439D01*
X189977000Y-89746561D01*
X190026381Y-89994821D01*
X190123247Y-90228676D01*
X190263875Y-90439140D01*
X190442860Y-90618125D01*
X190653324Y-90758753D01*
X190887179Y-90855619D01*
X191135439Y-90905000D01*
X191388561Y-90905000D01*
X191636821Y-90855619D01*
X191870676Y-90758753D01*
X192081140Y-90618125D01*
X192260125Y-90439140D01*
X192400753Y-90228676D01*
X192497619Y-89994821D01*
X192530713Y-89828441D01*
X197739000Y-89828441D01*
X197739000Y-90003559D01*
X197773164Y-90175312D01*
X197840179Y-90337099D01*
X197937469Y-90482704D01*
X198061296Y-90606531D01*
X198206901Y-90703821D01*
X198368688Y-90770836D01*
X198540441Y-90805000D01*
X198715559Y-90805000D01*
X198887312Y-90770836D01*
X199049099Y-90703821D01*
X199194704Y-90606531D01*
X199318531Y-90482704D01*
X199415821Y-90337099D01*
X199482836Y-90175312D01*
X199517000Y-90003559D01*
X199517000Y-89828441D01*
X199482836Y-89656688D01*
X199415821Y-89494901D01*
X199318531Y-89349296D01*
X199194704Y-89225469D01*
X199049099Y-89128179D01*
X198887312Y-89061164D01*
X198715559Y-89027000D01*
X198540441Y-89027000D01*
X198368688Y-89061164D01*
X198206901Y-89128179D01*
X198061296Y-89225469D01*
X197937469Y-89349296D01*
X197840179Y-89494901D01*
X197773164Y-89656688D01*
X197739000Y-89828441D01*
X192530713Y-89828441D01*
X192547000Y-89746561D01*
X192547000Y-89493439D01*
X192497619Y-89245179D01*
X192400753Y-89011324D01*
X192260125Y-88800860D01*
X192081140Y-88621875D01*
X191870676Y-88481247D01*
X191636821Y-88384381D01*
X191388561Y-88335000D01*
X191135439Y-88335000D01*
X190887179Y-88384381D01*
X190653324Y-88481247D01*
X190442860Y-88621875D01*
X190263875Y-88800860D01*
X190123247Y-89011324D01*
X190026381Y-89245179D01*
X189977000Y-89493439D01*
X182463068Y-89493439D01*
X182325733Y-89267965D01*
X182126729Y-89051514D01*
X181924053Y-88903424D01*
X181964006Y-88882069D01*
X182192197Y-88694797D01*
X182379469Y-88466606D01*
X182518625Y-88206264D01*
X182604316Y-87923777D01*
X182633251Y-87630000D01*
X182604316Y-87336223D01*
X182518625Y-87053736D01*
X182379469Y-86793394D01*
X182192197Y-86565203D01*
X181964006Y-86377931D01*
X181930460Y-86360000D01*
X181964006Y-86342069D01*
X182192197Y-86154797D01*
X182379469Y-85926606D01*
X182518625Y-85666264D01*
X182604316Y-85383777D01*
X182633251Y-85090000D01*
X182604316Y-84796223D01*
X182551297Y-84621441D01*
X192532000Y-84621441D01*
X192532000Y-84796559D01*
X192566164Y-84968312D01*
X192633179Y-85130099D01*
X192730469Y-85275704D01*
X192815732Y-85360967D01*
X192786000Y-85510441D01*
X192786000Y-85685559D01*
X192820164Y-85857312D01*
X192887179Y-86019099D01*
X192984469Y-86164704D01*
X193108296Y-86288531D01*
X193253901Y-86385821D01*
X193415688Y-86452836D01*
X193587441Y-86487000D01*
X193762559Y-86487000D01*
X193934312Y-86452836D01*
X194096099Y-86385821D01*
X194241704Y-86288531D01*
X194253794Y-86276441D01*
X194949000Y-86276441D01*
X194949000Y-86451559D01*
X194983164Y-86623312D01*
X195050179Y-86785099D01*
X195147469Y-86930704D01*
X195271296Y-87054531D01*
X195416901Y-87151821D01*
X195578688Y-87218836D01*
X195750441Y-87253000D01*
X195925559Y-87253000D01*
X196097312Y-87218836D01*
X196259099Y-87151821D01*
X196404704Y-87054531D01*
X196528531Y-86930704D01*
X196625821Y-86785099D01*
X196692836Y-86623312D01*
X196727000Y-86451559D01*
X196727000Y-86276441D01*
X196700943Y-86145441D01*
X200406000Y-86145441D01*
X200406000Y-86320559D01*
X200440164Y-86492312D01*
X200507179Y-86654099D01*
X200604469Y-86799704D01*
X200728296Y-86923531D01*
X200873901Y-87020821D01*
X201035688Y-87087836D01*
X201207441Y-87122000D01*
X201382559Y-87122000D01*
X201554312Y-87087836D01*
X201716099Y-87020821D01*
X201861704Y-86923531D01*
X201985531Y-86799704D01*
X202082821Y-86654099D01*
X202149836Y-86492312D01*
X202184000Y-86320559D01*
X202184000Y-86145441D01*
X202149836Y-85973688D01*
X202082821Y-85811901D01*
X201985531Y-85666296D01*
X201861704Y-85542469D01*
X201716099Y-85445179D01*
X201554312Y-85378164D01*
X201382559Y-85344000D01*
X201207441Y-85344000D01*
X201035688Y-85378164D01*
X200873901Y-85445179D01*
X200728296Y-85542469D01*
X200604469Y-85666296D01*
X200507179Y-85811901D01*
X200440164Y-85973688D01*
X200406000Y-86145441D01*
X196700943Y-86145441D01*
X196692836Y-86104688D01*
X196625821Y-85942901D01*
X196528531Y-85797296D01*
X196404704Y-85673469D01*
X196259099Y-85576179D01*
X196097312Y-85509164D01*
X195925559Y-85475000D01*
X195750441Y-85475000D01*
X195578688Y-85509164D01*
X195416901Y-85576179D01*
X195271296Y-85673469D01*
X195147469Y-85797296D01*
X195050179Y-85942901D01*
X194983164Y-86104688D01*
X194949000Y-86276441D01*
X194253794Y-86276441D01*
X194365531Y-86164704D01*
X194462821Y-86019099D01*
X194529836Y-85857312D01*
X194564000Y-85685559D01*
X194564000Y-85510441D01*
X194529836Y-85338688D01*
X194462821Y-85176901D01*
X194365531Y-85031296D01*
X194280268Y-84946033D01*
X194310000Y-84796559D01*
X194310000Y-84748441D01*
X196596000Y-84748441D01*
X196596000Y-84923559D01*
X196630164Y-85095312D01*
X196697179Y-85257099D01*
X196794469Y-85402704D01*
X196918296Y-85526531D01*
X197063901Y-85623821D01*
X197225688Y-85690836D01*
X197397441Y-85725000D01*
X197572559Y-85725000D01*
X197744312Y-85690836D01*
X197906099Y-85623821D01*
X197993000Y-85565756D01*
X198079901Y-85623821D01*
X198241688Y-85690836D01*
X198413441Y-85725000D01*
X198588559Y-85725000D01*
X198760312Y-85690836D01*
X198922099Y-85623821D01*
X199067704Y-85526531D01*
X199191531Y-85402704D01*
X199288821Y-85257099D01*
X199355836Y-85095312D01*
X199390000Y-84923559D01*
X199390000Y-84748441D01*
X199355836Y-84576688D01*
X199288821Y-84414901D01*
X199191531Y-84269296D01*
X199067704Y-84145469D01*
X198922099Y-84048179D01*
X198760312Y-83981164D01*
X198588559Y-83947000D01*
X198413441Y-83947000D01*
X198241688Y-83981164D01*
X198079901Y-84048179D01*
X197993000Y-84106244D01*
X197906099Y-84048179D01*
X197744312Y-83981164D01*
X197572559Y-83947000D01*
X197397441Y-83947000D01*
X197225688Y-83981164D01*
X197063901Y-84048179D01*
X196918296Y-84145469D01*
X196794469Y-84269296D01*
X196697179Y-84414901D01*
X196630164Y-84576688D01*
X196596000Y-84748441D01*
X194310000Y-84748441D01*
X194310000Y-84621441D01*
X194275836Y-84449688D01*
X194208821Y-84287901D01*
X194111531Y-84142296D01*
X193987704Y-84018469D01*
X193842099Y-83921179D01*
X193680312Y-83854164D01*
X193508559Y-83820000D01*
X193333441Y-83820000D01*
X193161688Y-83854164D01*
X192999901Y-83921179D01*
X192854296Y-84018469D01*
X192730469Y-84142296D01*
X192633179Y-84287901D01*
X192566164Y-84449688D01*
X192532000Y-84621441D01*
X182551297Y-84621441D01*
X182518625Y-84513736D01*
X182379469Y-84253394D01*
X182192197Y-84025203D01*
X181964006Y-83837931D01*
X181930460Y-83820000D01*
X181964006Y-83802069D01*
X182192197Y-83614797D01*
X182379469Y-83386606D01*
X182518625Y-83126264D01*
X182604316Y-82843777D01*
X182633251Y-82550000D01*
X182604316Y-82256223D01*
X182518625Y-81973736D01*
X182379469Y-81713394D01*
X182192197Y-81485203D01*
X181964006Y-81297931D01*
X181930460Y-81280000D01*
X181964006Y-81262069D01*
X182192197Y-81074797D01*
X182199875Y-81065441D01*
X185166000Y-81065441D01*
X185166000Y-81240559D01*
X185200164Y-81412312D01*
X185267179Y-81574099D01*
X185364469Y-81719704D01*
X185488296Y-81843531D01*
X185633901Y-81940821D01*
X185795688Y-82007836D01*
X185967441Y-82042000D01*
X186142559Y-82042000D01*
X186314312Y-82007836D01*
X186476099Y-81940821D01*
X186621704Y-81843531D01*
X186745531Y-81719704D01*
X186842821Y-81574099D01*
X186909836Y-81412312D01*
X186944000Y-81240559D01*
X186944000Y-81065441D01*
X195453000Y-81065441D01*
X195453000Y-81240559D01*
X195487164Y-81412312D01*
X195554179Y-81574099D01*
X195651469Y-81719704D01*
X195775296Y-81843531D01*
X195920901Y-81940821D01*
X196082688Y-82007836D01*
X196254441Y-82042000D01*
X196429559Y-82042000D01*
X196601312Y-82007836D01*
X196763099Y-81940821D01*
X196908704Y-81843531D01*
X197032531Y-81719704D01*
X197129821Y-81574099D01*
X197196836Y-81412312D01*
X197231000Y-81240559D01*
X197231000Y-81065441D01*
X197196836Y-80893688D01*
X197129821Y-80731901D01*
X197032531Y-80586296D01*
X196908704Y-80462469D01*
X196763099Y-80365179D01*
X196601312Y-80298164D01*
X196429559Y-80264000D01*
X196254441Y-80264000D01*
X196082688Y-80298164D01*
X195920901Y-80365179D01*
X195775296Y-80462469D01*
X195651469Y-80586296D01*
X195554179Y-80731901D01*
X195487164Y-80893688D01*
X195453000Y-81065441D01*
X186944000Y-81065441D01*
X186909836Y-80893688D01*
X186842821Y-80731901D01*
X186745531Y-80586296D01*
X186621704Y-80462469D01*
X186476099Y-80365179D01*
X186314312Y-80298164D01*
X186142559Y-80264000D01*
X185967441Y-80264000D01*
X185795688Y-80298164D01*
X185633901Y-80365179D01*
X185488296Y-80462469D01*
X185364469Y-80586296D01*
X185267179Y-80731901D01*
X185200164Y-80893688D01*
X185166000Y-81065441D01*
X182199875Y-81065441D01*
X182379469Y-80846606D01*
X182518625Y-80586264D01*
X182604316Y-80303777D01*
X182633251Y-80010000D01*
X182604316Y-79716223D01*
X182518625Y-79433736D01*
X182379469Y-79173394D01*
X182192197Y-78945203D01*
X181964006Y-78757931D01*
X181930460Y-78740000D01*
X181964006Y-78722069D01*
X182192197Y-78534797D01*
X182379469Y-78306606D01*
X182398265Y-78271441D01*
X195326000Y-78271441D01*
X195326000Y-78446559D01*
X195360164Y-78618312D01*
X195427179Y-78780099D01*
X195524469Y-78925704D01*
X195648296Y-79049531D01*
X195793901Y-79146821D01*
X195955688Y-79213836D01*
X196127441Y-79248000D01*
X196302559Y-79248000D01*
X196474312Y-79213836D01*
X196636099Y-79146821D01*
X196781704Y-79049531D01*
X196905531Y-78925704D01*
X197002821Y-78780099D01*
X197069836Y-78618312D01*
X197104000Y-78446559D01*
X197104000Y-78271441D01*
X197069836Y-78099688D01*
X197002821Y-77937901D01*
X196905531Y-77792296D01*
X196781704Y-77668469D01*
X196636099Y-77571179D01*
X196474312Y-77504164D01*
X196302559Y-77470000D01*
X196127441Y-77470000D01*
X195955688Y-77504164D01*
X195793901Y-77571179D01*
X195648296Y-77668469D01*
X195524469Y-77792296D01*
X195427179Y-77937901D01*
X195360164Y-78099688D01*
X195326000Y-78271441D01*
X182398265Y-78271441D01*
X182518625Y-78046264D01*
X182604316Y-77763777D01*
X182633251Y-77470000D01*
X182604316Y-77176223D01*
X182518625Y-76893736D01*
X182379469Y-76633394D01*
X182192197Y-76405203D01*
X181990216Y-76239441D01*
X185166000Y-76239441D01*
X185166000Y-76414559D01*
X185200164Y-76586312D01*
X185267179Y-76748099D01*
X185364469Y-76893704D01*
X185488296Y-77017531D01*
X185633901Y-77114821D01*
X185795688Y-77181836D01*
X185967441Y-77216000D01*
X186142559Y-77216000D01*
X186314312Y-77181836D01*
X186476099Y-77114821D01*
X186621704Y-77017531D01*
X186745531Y-76893704D01*
X186842821Y-76748099D01*
X186909836Y-76586312D01*
X186944000Y-76414559D01*
X186944000Y-76239441D01*
X186909836Y-76067688D01*
X186875768Y-75985441D01*
X188468000Y-75985441D01*
X188468000Y-76160559D01*
X188502164Y-76332312D01*
X188569179Y-76494099D01*
X188666469Y-76639704D01*
X188790296Y-76763531D01*
X188935901Y-76860821D01*
X189097688Y-76927836D01*
X189269441Y-76962000D01*
X189444559Y-76962000D01*
X189616312Y-76927836D01*
X189778099Y-76860821D01*
X189923704Y-76763531D01*
X190047531Y-76639704D01*
X190144821Y-76494099D01*
X190211836Y-76332312D01*
X190246000Y-76160559D01*
X190246000Y-75985441D01*
X190211836Y-75813688D01*
X190144821Y-75651901D01*
X190047531Y-75506296D01*
X189923704Y-75382469D01*
X189778099Y-75285179D01*
X189616312Y-75218164D01*
X189444559Y-75184000D01*
X189269441Y-75184000D01*
X189097688Y-75218164D01*
X188935901Y-75285179D01*
X188790296Y-75382469D01*
X188666469Y-75506296D01*
X188569179Y-75651901D01*
X188502164Y-75813688D01*
X188468000Y-75985441D01*
X186875768Y-75985441D01*
X186842821Y-75905901D01*
X186745531Y-75760296D01*
X186621704Y-75636469D01*
X186476099Y-75539179D01*
X186314312Y-75472164D01*
X186142559Y-75438000D01*
X185967441Y-75438000D01*
X185795688Y-75472164D01*
X185633901Y-75539179D01*
X185488296Y-75636469D01*
X185364469Y-75760296D01*
X185267179Y-75905901D01*
X185200164Y-76067688D01*
X185166000Y-76239441D01*
X181990216Y-76239441D01*
X181964006Y-76217931D01*
X181930460Y-76200000D01*
X181964006Y-76182069D01*
X182192197Y-75994797D01*
X182379469Y-75766606D01*
X182518625Y-75506264D01*
X182604316Y-75223777D01*
X182633251Y-74930000D01*
X182604316Y-74636223D01*
X182518625Y-74353736D01*
X182508312Y-74334441D01*
X185674000Y-74334441D01*
X185674000Y-74509559D01*
X185708164Y-74681312D01*
X185775179Y-74843099D01*
X185872469Y-74988704D01*
X185996296Y-75112531D01*
X186141901Y-75209821D01*
X186303688Y-75276836D01*
X186475441Y-75311000D01*
X186650559Y-75311000D01*
X186822312Y-75276836D01*
X186984099Y-75209821D01*
X187129704Y-75112531D01*
X187253531Y-74988704D01*
X187350821Y-74843099D01*
X187417836Y-74681312D01*
X187452000Y-74509559D01*
X187452000Y-74334441D01*
X187417836Y-74162688D01*
X187350821Y-74000901D01*
X187253531Y-73855296D01*
X187129704Y-73731469D01*
X186984099Y-73634179D01*
X186822312Y-73567164D01*
X186650559Y-73533000D01*
X186475441Y-73533000D01*
X186303688Y-73567164D01*
X186141901Y-73634179D01*
X185996296Y-73731469D01*
X185872469Y-73855296D01*
X185775179Y-74000901D01*
X185708164Y-74162688D01*
X185674000Y-74334441D01*
X182508312Y-74334441D01*
X182379469Y-74093394D01*
X182192197Y-73865203D01*
X181964006Y-73677931D01*
X181930460Y-73660000D01*
X181964006Y-73642069D01*
X182192197Y-73454797D01*
X182379469Y-73226606D01*
X182518625Y-72966264D01*
X182604316Y-72683777D01*
X182633251Y-72390000D01*
X182604316Y-72096223D01*
X182518625Y-71813736D01*
X182379469Y-71553394D01*
X182192197Y-71325203D01*
X182144966Y-71286441D01*
X187960000Y-71286441D01*
X187960000Y-71461559D01*
X187994164Y-71633312D01*
X188061179Y-71795099D01*
X188158469Y-71940704D01*
X188282296Y-72064531D01*
X188427901Y-72161821D01*
X188589688Y-72228836D01*
X188761441Y-72263000D01*
X188936559Y-72263000D01*
X189108312Y-72228836D01*
X189270099Y-72161821D01*
X189415704Y-72064531D01*
X189539531Y-71940704D01*
X189636821Y-71795099D01*
X189703836Y-71633312D01*
X189738000Y-71461559D01*
X189738000Y-71286441D01*
X189703836Y-71114688D01*
X189636821Y-70952901D01*
X189539531Y-70807296D01*
X189415704Y-70683469D01*
X189270099Y-70586179D01*
X189108312Y-70519164D01*
X188936559Y-70485000D01*
X188761441Y-70485000D01*
X188589688Y-70519164D01*
X188427901Y-70586179D01*
X188282296Y-70683469D01*
X188158469Y-70807296D01*
X188061179Y-70952901D01*
X187994164Y-71114688D01*
X187960000Y-71286441D01*
X182144966Y-71286441D01*
X181964006Y-71137931D01*
X181930460Y-71120000D01*
X181964006Y-71102069D01*
X182192197Y-70914797D01*
X182379469Y-70686606D01*
X182518625Y-70426264D01*
X182604316Y-70143777D01*
X182633251Y-69850000D01*
X182604316Y-69556223D01*
X182518625Y-69273736D01*
X182379469Y-69013394D01*
X182368839Y-69000441D01*
X183642000Y-69000441D01*
X183642000Y-69175559D01*
X183676164Y-69347312D01*
X183743179Y-69509099D01*
X183840469Y-69654704D01*
X183964296Y-69778531D01*
X184109901Y-69875821D01*
X184271688Y-69942836D01*
X184443441Y-69977000D01*
X184618559Y-69977000D01*
X184790312Y-69942836D01*
X184952099Y-69875821D01*
X185097704Y-69778531D01*
X185113794Y-69762441D01*
X193675000Y-69762441D01*
X193675000Y-69937559D01*
X193709164Y-70109312D01*
X193776179Y-70271099D01*
X193873469Y-70416704D01*
X193997296Y-70540531D01*
X194142901Y-70637821D01*
X194304688Y-70704836D01*
X194476441Y-70739000D01*
X194651559Y-70739000D01*
X194823312Y-70704836D01*
X194985099Y-70637821D01*
X195130704Y-70540531D01*
X195254531Y-70416704D01*
X195351821Y-70271099D01*
X195418836Y-70109312D01*
X195453000Y-69937559D01*
X195453000Y-69762441D01*
X195418836Y-69590688D01*
X195351821Y-69428901D01*
X195254531Y-69283296D01*
X195130704Y-69159469D01*
X194985099Y-69062179D01*
X194823312Y-68995164D01*
X194651559Y-68961000D01*
X194476441Y-68961000D01*
X194304688Y-68995164D01*
X194142901Y-69062179D01*
X193997296Y-69159469D01*
X193873469Y-69283296D01*
X193776179Y-69428901D01*
X193709164Y-69590688D01*
X193675000Y-69762441D01*
X185113794Y-69762441D01*
X185221531Y-69654704D01*
X185318821Y-69509099D01*
X185385836Y-69347312D01*
X185420000Y-69175559D01*
X185420000Y-69000441D01*
X185385836Y-68828688D01*
X185333201Y-68701617D01*
X185379901Y-68732821D01*
X185541688Y-68799836D01*
X185713441Y-68834000D01*
X185888559Y-68834000D01*
X186060312Y-68799836D01*
X186222099Y-68732821D01*
X186367704Y-68635531D01*
X186491531Y-68511704D01*
X186588821Y-68366099D01*
X186655836Y-68204312D01*
X186690000Y-68032559D01*
X186690000Y-67857441D01*
X195580000Y-67857441D01*
X195580000Y-68032559D01*
X195614164Y-68204312D01*
X195681179Y-68366099D01*
X195778469Y-68511704D01*
X195902296Y-68635531D01*
X196047901Y-68732821D01*
X196209688Y-68799836D01*
X196381441Y-68834000D01*
X196556559Y-68834000D01*
X196728312Y-68799836D01*
X196890099Y-68732821D01*
X197035704Y-68635531D01*
X197159531Y-68511704D01*
X197256821Y-68366099D01*
X197323836Y-68204312D01*
X197358000Y-68032559D01*
X197358000Y-67857441D01*
X197323836Y-67685688D01*
X197256821Y-67523901D01*
X197159531Y-67378296D01*
X197035704Y-67254469D01*
X196890099Y-67157179D01*
X196728312Y-67090164D01*
X196556559Y-67056000D01*
X196381441Y-67056000D01*
X196209688Y-67090164D01*
X196047901Y-67157179D01*
X195902296Y-67254469D01*
X195778469Y-67378296D01*
X195681179Y-67523901D01*
X195614164Y-67685688D01*
X195580000Y-67857441D01*
X186690000Y-67857441D01*
X186655836Y-67685688D01*
X186588821Y-67523901D01*
X186491531Y-67378296D01*
X186367704Y-67254469D01*
X186222099Y-67157179D01*
X186060312Y-67090164D01*
X185888559Y-67056000D01*
X185713441Y-67056000D01*
X185541688Y-67090164D01*
X185379901Y-67157179D01*
X185234296Y-67254469D01*
X185110469Y-67378296D01*
X185013179Y-67523901D01*
X184946164Y-67685688D01*
X184912000Y-67857441D01*
X184912000Y-68032559D01*
X184946164Y-68204312D01*
X184998799Y-68331383D01*
X184952099Y-68300179D01*
X184790312Y-68233164D01*
X184618559Y-68199000D01*
X184443441Y-68199000D01*
X184271688Y-68233164D01*
X184109901Y-68300179D01*
X183964296Y-68397469D01*
X183840469Y-68521296D01*
X183743179Y-68666901D01*
X183676164Y-68828688D01*
X183642000Y-69000441D01*
X182368839Y-69000441D01*
X182192197Y-68785203D01*
X181964006Y-68597931D01*
X181930460Y-68580000D01*
X181964006Y-68562069D01*
X182192197Y-68374797D01*
X182379469Y-68146606D01*
X182518625Y-67886264D01*
X182604316Y-67603777D01*
X182633251Y-67310000D01*
X182604316Y-67016223D01*
X182518625Y-66733736D01*
X182379469Y-66473394D01*
X182192197Y-66245203D01*
X181964006Y-66057931D01*
X181930460Y-66040000D01*
X181964006Y-66022069D01*
X182192197Y-65834797D01*
X182379469Y-65606606D01*
X182518625Y-65346264D01*
X182604316Y-65063777D01*
X182633251Y-64770000D01*
X182604316Y-64476223D01*
X182518625Y-64193736D01*
X182379469Y-63933394D01*
X182264613Y-63793441D01*
X196723000Y-63793441D01*
X196723000Y-63968559D01*
X196757164Y-64140312D01*
X196824179Y-64302099D01*
X196921469Y-64447704D01*
X197045296Y-64571531D01*
X197190901Y-64668821D01*
X197352688Y-64735836D01*
X197524441Y-64770000D01*
X197699559Y-64770000D01*
X197871312Y-64735836D01*
X198033099Y-64668821D01*
X198178704Y-64571531D01*
X198302531Y-64447704D01*
X198399821Y-64302099D01*
X198466836Y-64140312D01*
X198501000Y-63968559D01*
X198501000Y-63793441D01*
X198466836Y-63621688D01*
X198399821Y-63459901D01*
X198302531Y-63314296D01*
X198178704Y-63190469D01*
X198033099Y-63093179D01*
X197871312Y-63026164D01*
X197699559Y-62992000D01*
X197524441Y-62992000D01*
X197352688Y-63026164D01*
X197190901Y-63093179D01*
X197045296Y-63190469D01*
X196921469Y-63314296D01*
X196824179Y-63459901D01*
X196757164Y-63621688D01*
X196723000Y-63793441D01*
X182264613Y-63793441D01*
X182192197Y-63705203D01*
X181964006Y-63517931D01*
X181930460Y-63500000D01*
X181964006Y-63482069D01*
X182192197Y-63294797D01*
X182379469Y-63066606D01*
X182518625Y-62806264D01*
X182604316Y-62523777D01*
X182633251Y-62230000D01*
X182604316Y-61936223D01*
X182518625Y-61653736D01*
X182440429Y-61507441D01*
X189230000Y-61507441D01*
X189230000Y-61682559D01*
X189264164Y-61854312D01*
X189331179Y-62016099D01*
X189428469Y-62161704D01*
X189552296Y-62285531D01*
X189697901Y-62382821D01*
X189859688Y-62449836D01*
X190031441Y-62484000D01*
X190206559Y-62484000D01*
X190378312Y-62449836D01*
X190540099Y-62382821D01*
X190685704Y-62285531D01*
X190809531Y-62161704D01*
X190906821Y-62016099D01*
X190973836Y-61854312D01*
X191008000Y-61682559D01*
X191008000Y-61507441D01*
X190973836Y-61335688D01*
X190906821Y-61173901D01*
X190809531Y-61028296D01*
X190685704Y-60904469D01*
X190540099Y-60807179D01*
X190378312Y-60740164D01*
X190206559Y-60706000D01*
X190031441Y-60706000D01*
X189859688Y-60740164D01*
X189697901Y-60807179D01*
X189552296Y-60904469D01*
X189428469Y-61028296D01*
X189331179Y-61173901D01*
X189264164Y-61335688D01*
X189230000Y-61507441D01*
X182440429Y-61507441D01*
X182379469Y-61393394D01*
X182192197Y-61165203D01*
X181964006Y-60977931D01*
X181930460Y-60960000D01*
X181964006Y-60942069D01*
X182192197Y-60754797D01*
X182379469Y-60526606D01*
X182398265Y-60491441D01*
X196723000Y-60491441D01*
X196723000Y-60666559D01*
X196757164Y-60838312D01*
X196824179Y-61000099D01*
X196921469Y-61145704D01*
X197045296Y-61269531D01*
X197190901Y-61366821D01*
X197352688Y-61433836D01*
X197524441Y-61468000D01*
X197699559Y-61468000D01*
X197871312Y-61433836D01*
X198033099Y-61366821D01*
X198178704Y-61269531D01*
X198302531Y-61145704D01*
X198399821Y-61000099D01*
X198466836Y-60838312D01*
X198501000Y-60666559D01*
X198501000Y-60491441D01*
X198466836Y-60319688D01*
X198399821Y-60157901D01*
X198302531Y-60012296D01*
X198178704Y-59888469D01*
X198033099Y-59791179D01*
X197871312Y-59724164D01*
X197699559Y-59690000D01*
X197524441Y-59690000D01*
X197352688Y-59724164D01*
X197190901Y-59791179D01*
X197045296Y-59888469D01*
X196921469Y-60012296D01*
X196824179Y-60157901D01*
X196757164Y-60319688D01*
X196723000Y-60491441D01*
X182398265Y-60491441D01*
X182518625Y-60266264D01*
X182604316Y-59983777D01*
X182633251Y-59690000D01*
X182604316Y-59396223D01*
X182518625Y-59113736D01*
X182379469Y-58853394D01*
X182192197Y-58625203D01*
X181964006Y-58437931D01*
X181930460Y-58420000D01*
X181964006Y-58402069D01*
X182192197Y-58214797D01*
X182379469Y-57986606D01*
X182518625Y-57726264D01*
X182604316Y-57443777D01*
X182633251Y-57150000D01*
X182604316Y-56856223D01*
X182518625Y-56573736D01*
X182379469Y-56313394D01*
X182192197Y-56085203D01*
X181964006Y-55897931D01*
X181930460Y-55880000D01*
X181964006Y-55862069D01*
X182125295Y-55729702D01*
X187694903Y-55729702D01*
X187766486Y-55973671D01*
X188021996Y-56094571D01*
X188296184Y-56163300D01*
X188578512Y-56177217D01*
X188858130Y-56135787D01*
X189124292Y-56040603D01*
X189249514Y-55973671D01*
X189321097Y-55729702D01*
X188508000Y-54916605D01*
X187694903Y-55729702D01*
X182125295Y-55729702D01*
X182192197Y-55674797D01*
X182379469Y-55446606D01*
X182518625Y-55186264D01*
X182604316Y-54903777D01*
X182613797Y-54807512D01*
X187067783Y-54807512D01*
X187109213Y-55087130D01*
X187204397Y-55353292D01*
X187271329Y-55478514D01*
X187515298Y-55550097D01*
X188328395Y-54737000D01*
X188687605Y-54737000D01*
X189500702Y-55550097D01*
X189744671Y-55478514D01*
X189865571Y-55223004D01*
X189934300Y-54948816D01*
X189948217Y-54666488D01*
X189937724Y-54595665D01*
X192073000Y-54595665D01*
X192073000Y-54878335D01*
X192128147Y-55155574D01*
X192236320Y-55416727D01*
X192393363Y-55651759D01*
X192593241Y-55851637D01*
X192828273Y-56008680D01*
X193089426Y-56116853D01*
X193366665Y-56172000D01*
X193649335Y-56172000D01*
X193926574Y-56116853D01*
X194187727Y-56008680D01*
X194422759Y-55851637D01*
X194622637Y-55651759D01*
X194779680Y-55416727D01*
X194887853Y-55155574D01*
X194943000Y-54878335D01*
X194943000Y-54595665D01*
X194887853Y-54318426D01*
X194779680Y-54057273D01*
X194622637Y-53822241D01*
X194422759Y-53622363D01*
X194187727Y-53465320D01*
X193926574Y-53357147D01*
X193649335Y-53302000D01*
X193366665Y-53302000D01*
X193089426Y-53357147D01*
X192828273Y-53465320D01*
X192593241Y-53622363D01*
X192393363Y-53822241D01*
X192236320Y-54057273D01*
X192128147Y-54318426D01*
X192073000Y-54595665D01*
X189937724Y-54595665D01*
X189906787Y-54386870D01*
X189811603Y-54120708D01*
X189744671Y-53995486D01*
X189500702Y-53923903D01*
X188687605Y-54737000D01*
X188328395Y-54737000D01*
X187515298Y-53923903D01*
X187271329Y-53995486D01*
X187150429Y-54250996D01*
X187081700Y-54525184D01*
X187067783Y-54807512D01*
X182613797Y-54807512D01*
X182633251Y-54610000D01*
X182604316Y-54316223D01*
X182518625Y-54033736D01*
X182379469Y-53773394D01*
X182355591Y-53744298D01*
X187694903Y-53744298D01*
X188508000Y-54557395D01*
X189321097Y-53744298D01*
X189249514Y-53500329D01*
X188994004Y-53379429D01*
X188719816Y-53310700D01*
X188437488Y-53296783D01*
X188157870Y-53338213D01*
X187891708Y-53433397D01*
X187766486Y-53500329D01*
X187694903Y-53744298D01*
X182355591Y-53744298D01*
X182192197Y-53545203D01*
X181964006Y-53357931D01*
X181703664Y-53218775D01*
X181421177Y-53133084D01*
X181201019Y-53111400D01*
X180748981Y-53111400D01*
X180528823Y-53133084D01*
X180246336Y-53218775D01*
X179985994Y-53357931D01*
X179757803Y-53545203D01*
X179730000Y-53579081D01*
X179730000Y-50612374D01*
X180340000Y-50612374D01*
X180340000Y-50987626D01*
X180413209Y-51355668D01*
X180556811Y-51702356D01*
X180765290Y-52014366D01*
X181030634Y-52279710D01*
X181342644Y-52488189D01*
X181689332Y-52631791D01*
X182057374Y-52705000D01*
X182432626Y-52705000D01*
X182800668Y-52631791D01*
X183147356Y-52488189D01*
X183459366Y-52279710D01*
X183724710Y-52014366D01*
X183933189Y-51702356D01*
X184076791Y-51355668D01*
X184150000Y-50987626D01*
X184150000Y-50612374D01*
X198120000Y-50612374D01*
X198120000Y-50987626D01*
X198193209Y-51355668D01*
X198336811Y-51702356D01*
X198545290Y-52014366D01*
X198810634Y-52279710D01*
X199122644Y-52488189D01*
X199469332Y-52631791D01*
X199837374Y-52705000D01*
X200212626Y-52705000D01*
X200580668Y-52631791D01*
X200927356Y-52488189D01*
X201239366Y-52279710D01*
X201504710Y-52014366D01*
X201713189Y-51702356D01*
X201856791Y-51355668D01*
X201930000Y-50987626D01*
X201930000Y-50612374D01*
X201856791Y-50244332D01*
X201713189Y-49897644D01*
X201504710Y-49585634D01*
X201239366Y-49320290D01*
X200927356Y-49111811D01*
X200580668Y-48968209D01*
X200212626Y-48895000D01*
X199837374Y-48895000D01*
X199469332Y-48968209D01*
X199122644Y-49111811D01*
X198810634Y-49320290D01*
X198545290Y-49585634D01*
X198336811Y-49897644D01*
X198193209Y-50244332D01*
X198120000Y-50612374D01*
X184150000Y-50612374D01*
X184076791Y-50244332D01*
X183933189Y-49897644D01*
X183724710Y-49585634D01*
X183459366Y-49320290D01*
X183147356Y-49111811D01*
X182800668Y-48968209D01*
X182432626Y-48895000D01*
X182057374Y-48895000D01*
X181689332Y-48968209D01*
X181342644Y-49111811D01*
X181030634Y-49320290D01*
X180765290Y-49585634D01*
X180556811Y-49897644D01*
X180413209Y-50244332D01*
X180340000Y-50612374D01*
X179730000Y-50612374D01*
X179730000Y-48285000D01*
X194193842Y-48285000D01*
X194124296Y-48331469D01*
M02*
