G04 #@! TF.GenerationSoftware,KiCad,Pcbnew,(5.1.7)-1*
G04 #@! TF.CreationDate,2020-12-22T17:15:22-06:00*
G04 #@! TF.ProjectId,cutdown,63757464-6f77-46e2-9e6b-696361645f70,3.0*
G04 #@! TF.SameCoordinates,Original*
G04 #@! TF.FileFunction,Copper,L4,Bot*
G04 #@! TF.FilePolarity,Positive*
%FSLAX46Y46*%
G04 Gerber Fmt 4.6, Leading zero omitted, Abs format (unit mm)*
G04 Created by KiCad (PCBNEW (5.1.7)-1) date 2020-12-22 17:15:22*
%MOMM*%
%LPD*%
G01*
G04 APERTURE LIST*
G04 #@! TA.AperFunction,SMDPad,CuDef*
%ADD10R,6.350000X7.340600*%
G04 #@! TD*
G04 #@! TA.AperFunction,ComponentPad*
%ADD11R,1.700000X1.700000*%
G04 #@! TD*
G04 #@! TA.AperFunction,ComponentPad*
%ADD12O,1.700000X1.700000*%
G04 #@! TD*
G04 #@! TA.AperFunction,ComponentPad*
%ADD13C,2.100000*%
G04 #@! TD*
G04 #@! TA.AperFunction,ComponentPad*
%ADD14R,2.625000X2.625000*%
G04 #@! TD*
G04 #@! TA.AperFunction,ComponentPad*
%ADD15C,2.625000*%
G04 #@! TD*
G04 #@! TA.AperFunction,ComponentPad*
%ADD16R,1.350000X1.350000*%
G04 #@! TD*
G04 #@! TA.AperFunction,ComponentPad*
%ADD17O,1.350000X1.350000*%
G04 #@! TD*
G04 #@! TA.AperFunction,ComponentPad*
%ADD18R,2.000000X1.905000*%
G04 #@! TD*
G04 #@! TA.AperFunction,ComponentPad*
%ADD19O,2.000000X1.905000*%
G04 #@! TD*
G04 #@! TA.AperFunction,SMDPad,CuDef*
%ADD20R,1.500000X3.400000*%
G04 #@! TD*
G04 #@! TA.AperFunction,SMDPad,CuDef*
%ADD21R,1.000000X3.500000*%
G04 #@! TD*
G04 #@! TA.AperFunction,ViaPad*
%ADD22C,0.508000*%
G04 #@! TD*
G04 #@! TA.AperFunction,ViaPad*
%ADD23C,1.016000*%
G04 #@! TD*
G04 #@! TA.AperFunction,Conductor*
%ADD24C,2.540000*%
G04 #@! TD*
G04 #@! TA.AperFunction,Conductor*
%ADD25C,1.270000*%
G04 #@! TD*
G04 #@! TA.AperFunction,Conductor*
%ADD26C,0.304800*%
G04 #@! TD*
G04 #@! TA.AperFunction,Conductor*
%ADD27C,0.635000*%
G04 #@! TD*
G04 #@! TA.AperFunction,Conductor*
%ADD28C,0.508000*%
G04 #@! TD*
G04 APERTURE END LIST*
D10*
X114046000Y-29629100D03*
X114046000Y-74510900D03*
X133350000Y-29629100D03*
X133350000Y-74510900D03*
D11*
X136398000Y-137414000D03*
D12*
X136398000Y-139954000D03*
X133858000Y-137414000D03*
X133858000Y-139954000D03*
X131318000Y-137414000D03*
X131318000Y-139954000D03*
D13*
X105029000Y-92611000D03*
X105029000Y-96111000D03*
D14*
X109700000Y-143944000D03*
D15*
X114300000Y-143944000D03*
D16*
X115062000Y-153338000D03*
D17*
X115062000Y-175338000D03*
X117062000Y-153338000D03*
X117062000Y-175338000D03*
X119062000Y-153338000D03*
X119062000Y-175338000D03*
X121062000Y-153338000D03*
X121062000Y-175338000D03*
X123062000Y-153338000D03*
X123062000Y-175338000D03*
X125062000Y-153338000D03*
X125062000Y-175338000D03*
X127062000Y-153338000D03*
X127062000Y-175338000D03*
X129062000Y-153338000D03*
X129062000Y-175338000D03*
X131062000Y-153338000D03*
X131062000Y-175338000D03*
X133062000Y-153338000D03*
X133062000Y-175338000D03*
D18*
X122428000Y-110744000D03*
D19*
X122428000Y-113284000D03*
X122428000Y-115824000D03*
D20*
X115872000Y-127924000D03*
X109172000Y-127924000D03*
D21*
X113522000Y-122174000D03*
X111522000Y-122174000D03*
X128286000Y-109982000D03*
X130286000Y-109982000D03*
D20*
X125936000Y-115732000D03*
X132636000Y-115732000D03*
D22*
X105664000Y-112268000D03*
X117602000Y-113284000D03*
D23*
X114046000Y-69596000D03*
X114046000Y-67564000D03*
X114046000Y-65532000D03*
D22*
X136144000Y-128270000D03*
X131572000Y-127762000D03*
X131572000Y-129286000D03*
X125476000Y-127254000D03*
X141732000Y-128270000D03*
X114808000Y-138430000D03*
X109220000Y-136398000D03*
X139192000Y-136652000D03*
X134874000Y-147066000D03*
X135382000Y-143764000D03*
X129540000Y-145288000D03*
X129540000Y-143510000D03*
X140208000Y-147066000D03*
X130048000Y-167640000D03*
X130048000Y-159766000D03*
X122174000Y-157480000D03*
X123698000Y-162306000D03*
X124206000Y-164846000D03*
X120650000Y-169926000D03*
X115824000Y-130302000D03*
X118654856Y-108675144D03*
X112014000Y-155448000D03*
X112014000Y-157480000D03*
X112014000Y-159258000D03*
X124968000Y-134874000D03*
X116840000Y-138430000D03*
X107188000Y-131318000D03*
X116840000Y-131826000D03*
D23*
X116586000Y-122682000D03*
X117856000Y-122682000D03*
D22*
X110490000Y-124714000D03*
X127000000Y-108966000D03*
X139954000Y-159512000D03*
X139954000Y-168148000D03*
X134874000Y-161290000D03*
X115824000Y-119888000D03*
X136652000Y-120650000D03*
X126746000Y-131318000D03*
X126746000Y-127000000D03*
X114046000Y-134366000D03*
X139192000Y-135128000D03*
X134112000Y-144018000D03*
X133604000Y-145288000D03*
X131572000Y-149860000D03*
X133350000Y-147320000D03*
X140208000Y-148844000D03*
X140208000Y-145288000D03*
X140208000Y-143510000D03*
X125222000Y-156210000D03*
X122174000Y-159004000D03*
X112014000Y-168402000D03*
X112014000Y-162814000D03*
X141732000Y-171958000D03*
X141732000Y-174244000D03*
X116078000Y-159258000D03*
X116078000Y-157480000D03*
X116078000Y-155448000D03*
X120650000Y-168402000D03*
X140208000Y-132334000D03*
X133858000Y-150622000D03*
X124206000Y-121412000D03*
X139700000Y-120142000D03*
X123952000Y-150622000D03*
X123291640Y-123952050D03*
X137668000Y-121666000D03*
X130302000Y-147066000D03*
X123240800Y-147320000D03*
X133096000Y-135109200D03*
X141732000Y-133604000D03*
X143510000Y-109982000D03*
X136652000Y-122174000D03*
X133858000Y-134366000D03*
X129540000Y-172466000D03*
X140970000Y-156464000D03*
X144526000Y-156464000D03*
X144526000Y-170434000D03*
X117094000Y-157988000D03*
X141986000Y-157226000D03*
X141986000Y-139700000D03*
X133604000Y-118872000D03*
X135604000Y-135668000D03*
X120904000Y-118872000D03*
X131826000Y-118872000D03*
X123190000Y-168656000D03*
X120904000Y-159512000D03*
X121666000Y-120650000D03*
X128778000Y-120650000D03*
X127241618Y-167398382D03*
X122936000Y-162560000D03*
X132588000Y-131318000D03*
X122834430Y-130810000D03*
X120192800Y-125984000D03*
X127762000Y-125984000D03*
X119634000Y-123190000D03*
X128524000Y-123190000D03*
D23*
X118364000Y-124714000D03*
X116865401Y-130327401D03*
D22*
X133096000Y-166370000D03*
X105410000Y-131064000D03*
X111252000Y-126238000D03*
X111252000Y-128778000D03*
X122682000Y-122174000D03*
X122428000Y-137668000D03*
X129032000Y-137668000D03*
X110236000Y-119888000D03*
X122174000Y-119634000D03*
X108966000Y-119888000D03*
X105156000Y-128016000D03*
X106175875Y-170684125D03*
D24*
X114046000Y-74510900D02*
X114046000Y-69596000D01*
X114046000Y-67564000D02*
X114046000Y-65532000D01*
D25*
X114158699Y-122810699D02*
X113522000Y-122174000D01*
X116457301Y-122810699D02*
X114158699Y-122810699D01*
X116586000Y-122682000D02*
X116457301Y-122810699D01*
D26*
X128016000Y-109982000D02*
X127000000Y-108966000D01*
X128286000Y-109982000D02*
X128016000Y-109982000D01*
X139649199Y-120091199D02*
X139700000Y-120142000D01*
X136383775Y-120091199D02*
X139649199Y-120091199D01*
X135062974Y-121412000D02*
X136383775Y-120091199D01*
X124206000Y-121412000D02*
X135062974Y-121412000D01*
X133858000Y-150622000D02*
X123952000Y-150622000D01*
X137617199Y-121615199D02*
X137668000Y-121666000D01*
X136383775Y-121615199D02*
X137617199Y-121615199D01*
X134046924Y-123952050D02*
X136383775Y-121615199D01*
X123291640Y-123952050D02*
X134046924Y-123952050D01*
X130048000Y-147320000D02*
X123240800Y-147320000D01*
X130302000Y-147066000D02*
X130048000Y-147320000D01*
X133096000Y-135109200D02*
X138194800Y-135109200D01*
X139700000Y-133604000D02*
X141732000Y-133604000D01*
X138194800Y-135109200D02*
X139700000Y-133604000D01*
X130286000Y-109982000D02*
X143510000Y-109982000D01*
D24*
X114046000Y-29629100D02*
X133350000Y-29629100D01*
X127850900Y-80010000D02*
X133350000Y-74510900D01*
X110998000Y-80010000D02*
X127850900Y-80010000D01*
X105029000Y-85979000D02*
X110998000Y-80010000D01*
X105029000Y-92611000D02*
X105029000Y-85979000D01*
D26*
X133858000Y-124968000D02*
X136652000Y-122174000D01*
X133858000Y-134366000D02*
X133858000Y-124968000D01*
X140970000Y-156464000D02*
X144526000Y-156464000D01*
X131572000Y-170434000D02*
X129540000Y-172466000D01*
X144526000Y-170434000D02*
X131572000Y-170434000D01*
X140970001Y-158241999D02*
X141986000Y-157226000D01*
X117347999Y-158241999D02*
X140970001Y-158241999D01*
X117094000Y-157988000D02*
X117347999Y-158241999D01*
X142290801Y-139395199D02*
X142290801Y-119938801D01*
X141986000Y-139700000D02*
X142290801Y-139395199D01*
X141224000Y-118872000D02*
X133604000Y-118872000D01*
X142290801Y-119938801D02*
X141224000Y-118872000D01*
X135604000Y-135668000D02*
X131540000Y-135668000D01*
X131318000Y-135890000D02*
X131318000Y-137414000D01*
X131540000Y-135668000D02*
X131318000Y-135890000D01*
X120904000Y-118872000D02*
X131826000Y-118872000D01*
X120904000Y-166370000D02*
X120904000Y-159512000D01*
X123190000Y-168656000D02*
X120904000Y-166370000D01*
X121666000Y-120650000D02*
X128778000Y-120650000D01*
X127241618Y-166865618D02*
X122936000Y-162560000D01*
X127241618Y-167398382D02*
X127241618Y-166865618D01*
X122885231Y-130759199D02*
X122834430Y-130810000D01*
X132029199Y-130759199D02*
X122885231Y-130759199D01*
X132588000Y-131318000D02*
X132029199Y-130759199D01*
X120192800Y-125984000D02*
X127762000Y-125984000D01*
X119634000Y-123190000D02*
X128524000Y-123190000D01*
D25*
X111522000Y-124204726D02*
X112031274Y-124714000D01*
X111522000Y-122174000D02*
X111522000Y-124204726D01*
X112031274Y-124714000D02*
X118364000Y-124714000D01*
D27*
X133096000Y-166370000D02*
X125984000Y-173482000D01*
X125984000Y-173482000D02*
X107950000Y-173482000D01*
X105410000Y-170942000D02*
X105410000Y-131064000D01*
X107950000Y-173482000D02*
X105410000Y-170942000D01*
D24*
X120892924Y-113284000D02*
X122428000Y-113284000D01*
X108146038Y-109543038D02*
X117151962Y-109543038D01*
X106934000Y-108331000D02*
X108146038Y-109543038D01*
X117151962Y-109543038D02*
X120892924Y-113284000D01*
X105029000Y-106426000D02*
X108146038Y-109543038D01*
X105029000Y-96111000D02*
X105029000Y-106426000D01*
D28*
X111252000Y-126238000D02*
X111252000Y-128778000D01*
D26*
X120788173Y-120599199D02*
X122362974Y-122174000D01*
X122362974Y-122174000D02*
X122682000Y-122174000D01*
X122428000Y-137668000D02*
X128270000Y-137668000D01*
X128270000Y-137668000D02*
X129032000Y-137668000D01*
X115708173Y-120599199D02*
X120788173Y-120599199D01*
X114996974Y-119888000D02*
X115708173Y-120599199D01*
X110236000Y-119888000D02*
X114996974Y-119888000D01*
X109524801Y-119329199D02*
X108966000Y-119888000D01*
X116092225Y-119329199D02*
X109524801Y-119329199D01*
X116397026Y-119634000D02*
X116092225Y-119329199D01*
X122174000Y-119634000D02*
X116397026Y-119634000D01*
X106175875Y-130237916D02*
X106175875Y-170684125D01*
X105156000Y-129218041D02*
X106175875Y-130237916D01*
X105156000Y-128016000D02*
X105156000Y-129218041D01*
M02*
