G04 #@! TF.GenerationSoftware,KiCad,Pcbnew,(5.1.7)-1*
G04 #@! TF.CreationDate,2020-12-22T17:15:22-06:00*
G04 #@! TF.ProjectId,cutdown,63757464-6f77-46e2-9e6b-696361645f70,3.0*
G04 #@! TF.SameCoordinates,Original*
G04 #@! TF.FileFunction,Legend,Top*
G04 #@! TF.FilePolarity,Positive*
%FSLAX46Y46*%
G04 Gerber Fmt 4.6, Leading zero omitted, Abs format (unit mm)*
G04 Created by KiCad (PCBNEW (5.1.7)-1) date 2020-12-22 17:15:22*
%MOMM*%
%LPD*%
G01*
G04 APERTURE LIST*
%ADD10C,0.635000*%
%ADD11C,0.381000*%
%ADD12C,0.508000*%
%ADD13C,0.300000*%
%ADD14C,0.120000*%
%ADD15C,0.150000*%
%ADD16C,0.127000*%
%ADD17C,0.200000*%
%ADD18C,0.152400*%
%ADD19C,0.015000*%
%ADD20C,0.050000*%
%ADD21C,0.254000*%
%ADD22C,0.100000*%
G04 APERTURE END LIST*
D10*
X106553000Y-56079571D02*
X106553000Y-52269571D01*
X108367285Y-56079571D02*
X108367285Y-52269571D01*
X109274428Y-52269571D01*
X109818714Y-52451000D01*
X110181571Y-52813857D01*
X110363000Y-53176714D01*
X110544428Y-53902428D01*
X110544428Y-54446714D01*
X110363000Y-55172428D01*
X110181571Y-55535285D01*
X109818714Y-55898142D01*
X109274428Y-56079571D01*
X108367285Y-56079571D01*
D11*
X112721571Y-38027428D02*
X112993714Y-38118142D01*
X113084428Y-38208857D01*
X113175142Y-38390285D01*
X113175142Y-38662428D01*
X113084428Y-38843857D01*
X112993714Y-38934571D01*
X112812285Y-39025285D01*
X112086571Y-39025285D01*
X112086571Y-37120285D01*
X112721571Y-37120285D01*
X112903000Y-37211000D01*
X112993714Y-37301714D01*
X113084428Y-37483142D01*
X113084428Y-37664571D01*
X112993714Y-37846000D01*
X112903000Y-37936714D01*
X112721571Y-38027428D01*
X112086571Y-38027428D01*
X114808000Y-39025285D02*
X114808000Y-38027428D01*
X114717285Y-37846000D01*
X114535857Y-37755285D01*
X114173000Y-37755285D01*
X113991571Y-37846000D01*
X114808000Y-38934571D02*
X114626571Y-39025285D01*
X114173000Y-39025285D01*
X113991571Y-38934571D01*
X113900857Y-38753142D01*
X113900857Y-38571714D01*
X113991571Y-38390285D01*
X114173000Y-38299571D01*
X114626571Y-38299571D01*
X114808000Y-38208857D01*
X115987285Y-39025285D02*
X115805857Y-38934571D01*
X115715142Y-38753142D01*
X115715142Y-37120285D01*
X116985142Y-39025285D02*
X116803714Y-38934571D01*
X116713000Y-38753142D01*
X116713000Y-37120285D01*
X117983000Y-39025285D02*
X117801571Y-38934571D01*
X117710857Y-38843857D01*
X117620142Y-38662428D01*
X117620142Y-38118142D01*
X117710857Y-37936714D01*
X117801571Y-37846000D01*
X117983000Y-37755285D01*
X118255142Y-37755285D01*
X118436571Y-37846000D01*
X118527285Y-37936714D01*
X118618000Y-38118142D01*
X118618000Y-38662428D01*
X118527285Y-38843857D01*
X118436571Y-38934571D01*
X118255142Y-39025285D01*
X117983000Y-39025285D01*
X119706571Y-39025285D02*
X119525142Y-38934571D01*
X119434428Y-38843857D01*
X119343714Y-38662428D01*
X119343714Y-38118142D01*
X119434428Y-37936714D01*
X119525142Y-37846000D01*
X119706571Y-37755285D01*
X119978714Y-37755285D01*
X120160142Y-37846000D01*
X120250857Y-37936714D01*
X120341571Y-38118142D01*
X120341571Y-38662428D01*
X120250857Y-38843857D01*
X120160142Y-38934571D01*
X119978714Y-39025285D01*
X119706571Y-39025285D01*
X121158000Y-37755285D02*
X121158000Y-39025285D01*
X121158000Y-37936714D02*
X121248714Y-37846000D01*
X121430142Y-37755285D01*
X121702285Y-37755285D01*
X121883714Y-37846000D01*
X121974428Y-38027428D01*
X121974428Y-39025285D01*
X125421571Y-38843857D02*
X125330857Y-38934571D01*
X125058714Y-39025285D01*
X124877285Y-39025285D01*
X124605142Y-38934571D01*
X124423714Y-38753142D01*
X124333000Y-38571714D01*
X124242285Y-38208857D01*
X124242285Y-37936714D01*
X124333000Y-37573857D01*
X124423714Y-37392428D01*
X124605142Y-37211000D01*
X124877285Y-37120285D01*
X125058714Y-37120285D01*
X125330857Y-37211000D01*
X125421571Y-37301714D01*
X127054428Y-37755285D02*
X127054428Y-39025285D01*
X126238000Y-37755285D02*
X126238000Y-38753142D01*
X126328714Y-38934571D01*
X126510142Y-39025285D01*
X126782285Y-39025285D01*
X126963714Y-38934571D01*
X127054428Y-38843857D01*
X127689428Y-37755285D02*
X128415142Y-37755285D01*
X127961571Y-37120285D02*
X127961571Y-38753142D01*
X128052285Y-38934571D01*
X128233714Y-39025285D01*
X128415142Y-39025285D01*
X129866571Y-39025285D02*
X129866571Y-37120285D01*
X129866571Y-38934571D02*
X129685142Y-39025285D01*
X129322285Y-39025285D01*
X129140857Y-38934571D01*
X129050142Y-38843857D01*
X128959428Y-38662428D01*
X128959428Y-38118142D01*
X129050142Y-37936714D01*
X129140857Y-37846000D01*
X129322285Y-37755285D01*
X129685142Y-37755285D01*
X129866571Y-37846000D01*
X131045857Y-39025285D02*
X130864428Y-38934571D01*
X130773714Y-38843857D01*
X130683000Y-38662428D01*
X130683000Y-38118142D01*
X130773714Y-37936714D01*
X130864428Y-37846000D01*
X131045857Y-37755285D01*
X131318000Y-37755285D01*
X131499428Y-37846000D01*
X131590142Y-37936714D01*
X131680857Y-38118142D01*
X131680857Y-38662428D01*
X131590142Y-38843857D01*
X131499428Y-38934571D01*
X131318000Y-39025285D01*
X131045857Y-39025285D01*
X132315857Y-37755285D02*
X132678714Y-39025285D01*
X133041571Y-38118142D01*
X133404428Y-39025285D01*
X133767285Y-37755285D01*
X134493000Y-37755285D02*
X134493000Y-39025285D01*
X134493000Y-37936714D02*
X134583714Y-37846000D01*
X134765142Y-37755285D01*
X135037285Y-37755285D01*
X135218714Y-37846000D01*
X135309428Y-38027428D01*
X135309428Y-39025285D01*
X119751928Y-42263785D02*
X119116928Y-41356642D01*
X118663357Y-42263785D02*
X118663357Y-40358785D01*
X119389071Y-40358785D01*
X119570500Y-40449500D01*
X119661214Y-40540214D01*
X119751928Y-40721642D01*
X119751928Y-40993785D01*
X119661214Y-41175214D01*
X119570500Y-41265928D01*
X119389071Y-41356642D01*
X118663357Y-41356642D01*
X121294071Y-42173071D02*
X121112642Y-42263785D01*
X120749785Y-42263785D01*
X120568357Y-42173071D01*
X120477642Y-41991642D01*
X120477642Y-41265928D01*
X120568357Y-41084500D01*
X120749785Y-40993785D01*
X121112642Y-40993785D01*
X121294071Y-41084500D01*
X121384785Y-41265928D01*
X121384785Y-41447357D01*
X120477642Y-41628785D01*
X122019785Y-40993785D02*
X122473357Y-42263785D01*
X122926928Y-40993785D01*
X124922642Y-40358785D02*
X126101928Y-40358785D01*
X125466928Y-41084500D01*
X125739071Y-41084500D01*
X125920500Y-41175214D01*
X126011214Y-41265928D01*
X126101928Y-41447357D01*
X126101928Y-41900928D01*
X126011214Y-42082357D01*
X125920500Y-42173071D01*
X125739071Y-42263785D01*
X125194785Y-42263785D01*
X125013357Y-42173071D01*
X124922642Y-42082357D01*
X126918357Y-42082357D02*
X127009071Y-42173071D01*
X126918357Y-42263785D01*
X126827642Y-42173071D01*
X126918357Y-42082357D01*
X126918357Y-42263785D01*
X128188357Y-40358785D02*
X128369785Y-40358785D01*
X128551214Y-40449500D01*
X128641928Y-40540214D01*
X128732642Y-40721642D01*
X128823357Y-41084500D01*
X128823357Y-41538071D01*
X128732642Y-41900928D01*
X128641928Y-42082357D01*
X128551214Y-42173071D01*
X128369785Y-42263785D01*
X128188357Y-42263785D01*
X128006928Y-42173071D01*
X127916214Y-42082357D01*
X127825500Y-41900928D01*
X127734785Y-41538071D01*
X127734785Y-41084500D01*
X127825500Y-40721642D01*
X127916214Y-40540214D01*
X128006928Y-40449500D01*
X128188357Y-40358785D01*
X115533714Y-43597285D02*
X116713000Y-43597285D01*
X116078000Y-44323000D01*
X116350142Y-44323000D01*
X116531571Y-44413714D01*
X116622285Y-44504428D01*
X116713000Y-44685857D01*
X116713000Y-45139428D01*
X116622285Y-45320857D01*
X116531571Y-45411571D01*
X116350142Y-45502285D01*
X115805857Y-45502285D01*
X115624428Y-45411571D01*
X115533714Y-45320857D01*
X117529428Y-44776571D02*
X118980857Y-44776571D01*
X120250857Y-43597285D02*
X120432285Y-43597285D01*
X120613714Y-43688000D01*
X120704428Y-43778714D01*
X120795142Y-43960142D01*
X120885857Y-44323000D01*
X120885857Y-44776571D01*
X120795142Y-45139428D01*
X120704428Y-45320857D01*
X120613714Y-45411571D01*
X120432285Y-45502285D01*
X120250857Y-45502285D01*
X120069428Y-45411571D01*
X119978714Y-45320857D01*
X119888000Y-45139428D01*
X119797285Y-44776571D01*
X119797285Y-44323000D01*
X119888000Y-43960142D01*
X119978714Y-43778714D01*
X120069428Y-43688000D01*
X120250857Y-43597285D01*
X122065142Y-43597285D02*
X122246571Y-43597285D01*
X122428000Y-43688000D01*
X122518714Y-43778714D01*
X122609428Y-43960142D01*
X122700142Y-44323000D01*
X122700142Y-44776571D01*
X122609428Y-45139428D01*
X122518714Y-45320857D01*
X122428000Y-45411571D01*
X122246571Y-45502285D01*
X122065142Y-45502285D01*
X121883714Y-45411571D01*
X121793000Y-45320857D01*
X121702285Y-45139428D01*
X121611571Y-44776571D01*
X121611571Y-44323000D01*
X121702285Y-43960142D01*
X121793000Y-43778714D01*
X121883714Y-43688000D01*
X122065142Y-43597285D01*
X123879428Y-43597285D02*
X124060857Y-43597285D01*
X124242285Y-43688000D01*
X124333000Y-43778714D01*
X124423714Y-43960142D01*
X124514428Y-44323000D01*
X124514428Y-44776571D01*
X124423714Y-45139428D01*
X124333000Y-45320857D01*
X124242285Y-45411571D01*
X124060857Y-45502285D01*
X123879428Y-45502285D01*
X123698000Y-45411571D01*
X123607285Y-45320857D01*
X123516571Y-45139428D01*
X123425857Y-44776571D01*
X123425857Y-44323000D01*
X123516571Y-43960142D01*
X123607285Y-43778714D01*
X123698000Y-43688000D01*
X123879428Y-43597285D01*
X125693714Y-43597285D02*
X125875142Y-43597285D01*
X126056571Y-43688000D01*
X126147285Y-43778714D01*
X126238000Y-43960142D01*
X126328714Y-44323000D01*
X126328714Y-44776571D01*
X126238000Y-45139428D01*
X126147285Y-45320857D01*
X126056571Y-45411571D01*
X125875142Y-45502285D01*
X125693714Y-45502285D01*
X125512285Y-45411571D01*
X125421571Y-45320857D01*
X125330857Y-45139428D01*
X125240142Y-44776571D01*
X125240142Y-44323000D01*
X125330857Y-43960142D01*
X125421571Y-43778714D01*
X125512285Y-43688000D01*
X125693714Y-43597285D01*
X127508000Y-43597285D02*
X127689428Y-43597285D01*
X127870857Y-43688000D01*
X127961571Y-43778714D01*
X128052285Y-43960142D01*
X128143000Y-44323000D01*
X128143000Y-44776571D01*
X128052285Y-45139428D01*
X127961571Y-45320857D01*
X127870857Y-45411571D01*
X127689428Y-45502285D01*
X127508000Y-45502285D01*
X127326571Y-45411571D01*
X127235857Y-45320857D01*
X127145142Y-45139428D01*
X127054428Y-44776571D01*
X127054428Y-44323000D01*
X127145142Y-43960142D01*
X127235857Y-43778714D01*
X127326571Y-43688000D01*
X127508000Y-43597285D01*
X128778000Y-43597285D02*
X130048000Y-43597285D01*
X129231571Y-45502285D01*
X131136571Y-43597285D02*
X131318000Y-43597285D01*
X131499428Y-43688000D01*
X131590142Y-43778714D01*
X131680857Y-43960142D01*
X131771571Y-44323000D01*
X131771571Y-44776571D01*
X131680857Y-45139428D01*
X131590142Y-45320857D01*
X131499428Y-45411571D01*
X131318000Y-45502285D01*
X131136571Y-45502285D01*
X130955142Y-45411571D01*
X130864428Y-45320857D01*
X130773714Y-45139428D01*
X130683000Y-44776571D01*
X130683000Y-44323000D01*
X130773714Y-43960142D01*
X130864428Y-43778714D01*
X130955142Y-43688000D01*
X131136571Y-43597285D01*
D12*
X102749047Y-146860380D02*
X102749047Y-146376571D01*
X102870000Y-146134666D01*
X103111904Y-145892761D01*
X103595714Y-145771809D01*
X104442380Y-145771809D01*
X104926190Y-145892761D01*
X105168095Y-146134666D01*
X105289047Y-146376571D01*
X105289047Y-146860380D01*
X105168095Y-147102285D01*
X104926190Y-147344190D01*
X104442380Y-147465142D01*
X103595714Y-147465142D01*
X103111904Y-147344190D01*
X102870000Y-147102285D01*
X102749047Y-146860380D01*
X105289047Y-144683238D02*
X102749047Y-144683238D01*
X105289047Y-143231809D01*
X102749047Y-143231809D01*
D13*
X116502571Y-112005857D02*
X115002571Y-112005857D01*
X115002571Y-111434428D01*
X115074000Y-111291571D01*
X115145428Y-111220142D01*
X115288285Y-111148714D01*
X115502571Y-111148714D01*
X115645428Y-111220142D01*
X115716857Y-111291571D01*
X115788285Y-111434428D01*
X115788285Y-112005857D01*
X115502571Y-110648714D02*
X116502571Y-110363000D01*
X115788285Y-110077285D01*
X116502571Y-109791571D01*
X115502571Y-109505857D01*
X116502571Y-108934428D02*
X115502571Y-108934428D01*
X115788285Y-108934428D02*
X115645428Y-108863000D01*
X115574000Y-108791571D01*
X115502571Y-108648714D01*
X115502571Y-108505857D01*
X114073714Y-111128857D02*
X114145142Y-111200285D01*
X114216571Y-111414571D01*
X114216571Y-111557428D01*
X114145142Y-111771714D01*
X114002285Y-111914571D01*
X113859428Y-111986000D01*
X113573714Y-112057428D01*
X113359428Y-112057428D01*
X113073714Y-111986000D01*
X112930857Y-111914571D01*
X112788000Y-111771714D01*
X112716571Y-111557428D01*
X112716571Y-111414571D01*
X112788000Y-111200285D01*
X112859428Y-111128857D01*
X114216571Y-110486000D02*
X112716571Y-110486000D01*
X114216571Y-109843142D02*
X113430857Y-109843142D01*
X113288000Y-109914571D01*
X113216571Y-110057428D01*
X113216571Y-110271714D01*
X113288000Y-110414571D01*
X113359428Y-110486000D01*
X113216571Y-108486000D02*
X114430857Y-108486000D01*
X114573714Y-108557428D01*
X114645142Y-108628857D01*
X114716571Y-108771714D01*
X114716571Y-108986000D01*
X114645142Y-109128857D01*
X114145142Y-108486000D02*
X114216571Y-108628857D01*
X114216571Y-108914571D01*
X114145142Y-109057428D01*
X114073714Y-109128857D01*
X113930857Y-109200285D01*
X113502285Y-109200285D01*
X113359428Y-109128857D01*
X113288000Y-109057428D01*
X113216571Y-108914571D01*
X113216571Y-108628857D01*
X113288000Y-108486000D01*
X111144857Y-111867000D02*
X111144857Y-111367000D01*
X111930571Y-111152714D02*
X111930571Y-111867000D01*
X110430571Y-111867000D01*
X110430571Y-111152714D01*
X111930571Y-110509857D02*
X110930571Y-110509857D01*
X111216285Y-110509857D02*
X111073428Y-110438428D01*
X111002000Y-110367000D01*
X110930571Y-110224142D01*
X110930571Y-110081285D01*
X111930571Y-109581285D02*
X110930571Y-109581285D01*
X111216285Y-109581285D02*
X111073428Y-109509857D01*
X111002000Y-109438428D01*
X110930571Y-109295571D01*
X110930571Y-109152714D01*
X109644571Y-111049428D02*
X108930285Y-111549428D01*
X109644571Y-111906571D02*
X108144571Y-111906571D01*
X108144571Y-111335142D01*
X108216000Y-111192285D01*
X108287428Y-111120857D01*
X108430285Y-111049428D01*
X108644571Y-111049428D01*
X108787428Y-111120857D01*
X108858857Y-111192285D01*
X108930285Y-111335142D01*
X108930285Y-111906571D01*
X109573142Y-110478000D02*
X109644571Y-110263714D01*
X109644571Y-109906571D01*
X109573142Y-109763714D01*
X109501714Y-109692285D01*
X109358857Y-109620857D01*
X109216000Y-109620857D01*
X109073142Y-109692285D01*
X109001714Y-109763714D01*
X108930285Y-109906571D01*
X108858857Y-110192285D01*
X108787428Y-110335142D01*
X108716000Y-110406571D01*
X108573142Y-110478000D01*
X108430285Y-110478000D01*
X108287428Y-110406571D01*
X108216000Y-110335142D01*
X108144571Y-110192285D01*
X108144571Y-109835142D01*
X108216000Y-109620857D01*
X109573142Y-109049428D02*
X109644571Y-108835142D01*
X109644571Y-108478000D01*
X109573142Y-108335142D01*
X109501714Y-108263714D01*
X109358857Y-108192285D01*
X109216000Y-108192285D01*
X109073142Y-108263714D01*
X109001714Y-108335142D01*
X108930285Y-108478000D01*
X108858857Y-108763714D01*
X108787428Y-108906571D01*
X108716000Y-108978000D01*
X108573142Y-109049428D01*
X108430285Y-109049428D01*
X108287428Y-108978000D01*
X108216000Y-108906571D01*
X108144571Y-108763714D01*
X108144571Y-108406571D01*
X108216000Y-108192285D01*
X109644571Y-107549428D02*
X108144571Y-107549428D01*
X106930000Y-111858857D02*
X106930000Y-111144571D01*
X107358571Y-112001714D02*
X105858571Y-111501714D01*
X107358571Y-111001714D01*
X107287142Y-110573142D02*
X107358571Y-110430285D01*
X107358571Y-110144571D01*
X107287142Y-110001714D01*
X107144285Y-109930285D01*
X107072857Y-109930285D01*
X106930000Y-110001714D01*
X106858571Y-110144571D01*
X106858571Y-110358857D01*
X106787142Y-110501714D01*
X106644285Y-110573142D01*
X106572857Y-110573142D01*
X106430000Y-110501714D01*
X106358571Y-110358857D01*
X106358571Y-110144571D01*
X106430000Y-110001714D01*
X107287142Y-109358857D02*
X107358571Y-109216000D01*
X107358571Y-108930285D01*
X107287142Y-108787428D01*
X107144285Y-108716000D01*
X107072857Y-108716000D01*
X106930000Y-108787428D01*
X106858571Y-108930285D01*
X106858571Y-109144571D01*
X106787142Y-109287428D01*
X106644285Y-109358857D01*
X106572857Y-109358857D01*
X106430000Y-109287428D01*
X106358571Y-109144571D01*
X106358571Y-108930285D01*
X106430000Y-108787428D01*
X107358571Y-107858857D02*
X107287142Y-108001714D01*
X107215714Y-108073142D01*
X107072857Y-108144571D01*
X106644285Y-108144571D01*
X106501428Y-108073142D01*
X106430000Y-108001714D01*
X106358571Y-107858857D01*
X106358571Y-107644571D01*
X106430000Y-107501714D01*
X106501428Y-107430285D01*
X106644285Y-107358857D01*
X107072857Y-107358857D01*
X107215714Y-107430285D01*
X107287142Y-107501714D01*
X107358571Y-107644571D01*
X107358571Y-107858857D01*
X107287142Y-106073142D02*
X107358571Y-106216000D01*
X107358571Y-106501714D01*
X107287142Y-106644571D01*
X107215714Y-106716000D01*
X107072857Y-106787428D01*
X106644285Y-106787428D01*
X106501428Y-106716000D01*
X106430000Y-106644571D01*
X106358571Y-106501714D01*
X106358571Y-106216000D01*
X106430000Y-106073142D01*
D14*
X123954000Y-158404779D02*
X123954000Y-158079221D01*
X122934000Y-158404779D02*
X122934000Y-158079221D01*
X122430000Y-168747221D02*
X122430000Y-169072779D01*
X121410000Y-168747221D02*
X121410000Y-169072779D01*
X130998279Y-165860000D02*
X130672721Y-165860000D01*
X130998279Y-166880000D02*
X130672721Y-166880000D01*
X130972779Y-161546000D02*
X130647221Y-161546000D01*
X130972779Y-160526000D02*
X130647221Y-160526000D01*
X140807221Y-131574000D02*
X141132779Y-131574000D01*
X140807221Y-130554000D02*
X141132779Y-130554000D01*
X126400779Y-129538000D02*
X126075221Y-129538000D01*
X126400779Y-130558000D02*
X126075221Y-130558000D01*
X126400779Y-128780000D02*
X126075221Y-128780000D01*
X126400779Y-127760000D02*
X126075221Y-127760000D01*
X134114000Y-121574779D02*
X134114000Y-121249221D01*
X133094000Y-121574779D02*
X133094000Y-121249221D01*
X140807221Y-128776000D02*
X141132779Y-128776000D01*
X140807221Y-129796000D02*
X141132779Y-129796000D01*
X114304578Y-154738000D02*
X113787422Y-154738000D01*
X114304578Y-156158000D02*
X113787422Y-156158000D01*
X114208779Y-156970000D02*
X113883221Y-156970000D01*
X114208779Y-157990000D02*
X113883221Y-157990000D01*
X114208779Y-158748000D02*
X113883221Y-158748000D01*
X114208779Y-159768000D02*
X113883221Y-159768000D01*
X125059221Y-171194000D02*
X125384779Y-171194000D01*
X125059221Y-172214000D02*
X125384779Y-172214000D01*
X131712580Y-145798000D02*
X131431420Y-145798000D01*
X131712580Y-144778000D02*
X131431420Y-144778000D01*
X131431420Y-144020000D02*
X131712580Y-144020000D01*
X131431420Y-143000000D02*
X131712580Y-143000000D01*
X116784000Y-115300000D02*
X116784000Y-112615000D01*
X116784000Y-112615000D02*
X114864000Y-112615000D01*
X114864000Y-112615000D02*
X114864000Y-115300000D01*
X140700000Y-173284000D02*
X138015000Y-173284000D01*
X138015000Y-173284000D02*
X138015000Y-175204000D01*
X138015000Y-175204000D02*
X140700000Y-175204000D01*
X138015000Y-172918000D02*
X140700000Y-172918000D01*
X138015000Y-170998000D02*
X138015000Y-172918000D01*
X140700000Y-170998000D02*
X138015000Y-170998000D01*
X110292000Y-112615000D02*
X110292000Y-115300000D01*
X112212000Y-112615000D02*
X110292000Y-112615000D01*
X112212000Y-115300000D02*
X112212000Y-112615000D01*
X108006000Y-112615000D02*
X108006000Y-115300000D01*
X109926000Y-112615000D02*
X108006000Y-112615000D01*
X109926000Y-115300000D02*
X109926000Y-112615000D01*
X107640000Y-115300000D02*
X107640000Y-112615000D01*
X107640000Y-112615000D02*
X105720000Y-112615000D01*
X105720000Y-112615000D02*
X105720000Y-115300000D01*
D15*
X141024000Y-159385000D02*
X138424000Y-159385000D01*
X141024000Y-168402000D02*
X138424000Y-168402000D01*
X145374000Y-168402000D02*
X143924000Y-168402000D01*
X145374000Y-168402000D02*
X145374000Y-159385000D01*
X145374000Y-159385000D02*
X143924000Y-159385000D01*
D14*
X137728000Y-136084000D02*
X137728000Y-137414000D01*
X136398000Y-136084000D02*
X137728000Y-136084000D01*
X137728000Y-138684000D02*
X137728000Y-141284000D01*
X135128000Y-138684000D02*
X137728000Y-138684000D01*
X135128000Y-136084000D02*
X135128000Y-138684000D01*
X137728000Y-141284000D02*
X129988000Y-141284000D01*
X135128000Y-136084000D02*
X129988000Y-136084000D01*
X129988000Y-136084000D02*
X129988000Y-141284000D01*
X103829000Y-98561000D02*
X113029000Y-98561000D01*
X103829000Y-90161000D02*
X103829000Y-98561000D01*
X113029000Y-90161000D02*
X103829000Y-90161000D01*
X113029000Y-98561000D02*
X113029000Y-90161000D01*
X115626000Y-164848000D02*
X115626000Y-166308000D01*
X112466000Y-164848000D02*
X112466000Y-167008000D01*
X112466000Y-164848000D02*
X113396000Y-164848000D01*
X115626000Y-164848000D02*
X114696000Y-164848000D01*
X116334000Y-117693221D02*
X116334000Y-118018779D01*
X115314000Y-117693221D02*
X115314000Y-118018779D01*
X125732000Y-158404779D02*
X125732000Y-158079221D01*
X124712000Y-158404779D02*
X124712000Y-158079221D01*
X131316000Y-121574779D02*
X131316000Y-121249221D01*
X132336000Y-121574779D02*
X132336000Y-121249221D01*
X130558000Y-121574779D02*
X130558000Y-121249221D01*
X129538000Y-121574779D02*
X129538000Y-121249221D01*
X114208779Y-167892000D02*
X113883221Y-167892000D01*
X114208779Y-168912000D02*
X113883221Y-168912000D01*
X114208779Y-162304000D02*
X113883221Y-162304000D01*
X114208779Y-163324000D02*
X113883221Y-163324000D01*
X130647221Y-165102000D02*
X130972779Y-165102000D01*
X130647221Y-164082000D02*
X130972779Y-164082000D01*
X130647221Y-162304000D02*
X130972779Y-162304000D01*
X130647221Y-163324000D02*
X130972779Y-163324000D01*
X117350000Y-165770779D02*
X117350000Y-165445221D01*
X116330000Y-165770779D02*
X116330000Y-165445221D01*
X136306779Y-174754000D02*
X135981221Y-174754000D01*
X136306779Y-173734000D02*
X135981221Y-173734000D01*
X136306779Y-172468000D02*
X135981221Y-172468000D01*
X136306779Y-171448000D02*
X135981221Y-171448000D01*
X135892000Y-121249221D02*
X135892000Y-121574779D01*
X134872000Y-121249221D02*
X134872000Y-121574779D01*
X138667258Y-144032500D02*
X138192742Y-144032500D01*
X138667258Y-142987500D02*
X138192742Y-142987500D01*
X133874742Y-149112500D02*
X134349258Y-149112500D01*
X133874742Y-148067500D02*
X134349258Y-148067500D01*
X110742000Y-117693221D02*
X110742000Y-118018779D01*
X111762000Y-117693221D02*
X111762000Y-118018779D01*
X131049500Y-148065258D02*
X131049500Y-147590742D01*
X132094500Y-148065258D02*
X132094500Y-147590742D01*
X140732742Y-135396500D02*
X141207258Y-135396500D01*
X140732742Y-134351500D02*
X141207258Y-134351500D01*
X140732742Y-137174500D02*
X141207258Y-137174500D01*
X140732742Y-136129500D02*
X141207258Y-136129500D01*
X121757221Y-171194000D02*
X122082779Y-171194000D01*
X121757221Y-172214000D02*
X122082779Y-172214000D01*
X109476000Y-118018779D02*
X109476000Y-117693221D01*
X108456000Y-118018779D02*
X108456000Y-117693221D01*
X106170000Y-117693221D02*
X106170000Y-118018779D01*
X107190000Y-117693221D02*
X107190000Y-118018779D01*
X138667258Y-145810500D02*
X138192742Y-145810500D01*
X138667258Y-144765500D02*
X138192742Y-144765500D01*
X138667258Y-149366500D02*
X138192742Y-149366500D01*
X138667258Y-148321500D02*
X138192742Y-148321500D01*
X120398000Y-116423221D02*
X120398000Y-116748779D01*
X119378000Y-116423221D02*
X119378000Y-116748779D01*
X119378000Y-109636779D02*
X119378000Y-109311221D01*
X120398000Y-109636779D02*
X120398000Y-109311221D01*
X138192742Y-147588500D02*
X138667258Y-147588500D01*
X138192742Y-146543500D02*
X138667258Y-146543500D01*
D16*
X122530000Y-139954000D02*
X106070000Y-139954000D01*
D17*
X105360000Y-143464000D02*
G75*
G03*
X105360000Y-143464000I-100000J0D01*
G01*
D16*
X122530000Y-139954000D02*
X122530000Y-150114000D01*
X122530000Y-141734000D02*
X122530000Y-143284000D01*
X106070000Y-150114000D02*
X106070000Y-139954000D01*
X122530000Y-150114000D02*
X106070000Y-150114000D01*
D15*
X120587000Y-165651000D02*
X120587000Y-166776000D01*
X128427000Y-165651000D02*
X128427000Y-161501000D01*
X119477000Y-165651000D02*
X119477000Y-161501000D01*
X128427000Y-165651000D02*
X127317000Y-165651000D01*
X128427000Y-161501000D02*
X127317000Y-161501000D01*
X119477000Y-161501000D02*
X120587000Y-161501000D01*
X120587000Y-165651000D02*
X119477000Y-165651000D01*
D14*
X112406000Y-134788000D02*
X109956000Y-134788000D01*
X110606000Y-138008000D02*
X112406000Y-138008000D01*
D15*
X129979000Y-125378000D02*
X128554000Y-125378000D01*
X137229000Y-125153000D02*
X136904000Y-125153000D01*
X137229000Y-132403000D02*
X136904000Y-132403000D01*
X129979000Y-132403000D02*
X130304000Y-132403000D01*
X129979000Y-125153000D02*
X130304000Y-125153000D01*
X129979000Y-132403000D02*
X129979000Y-132078000D01*
X137229000Y-132403000D02*
X137229000Y-132078000D01*
X137229000Y-125153000D02*
X137229000Y-125478000D01*
X129979000Y-125153000D02*
X129979000Y-125378000D01*
D17*
X133982000Y-145242000D02*
G75*
G03*
X133982000Y-145242000I-100000J0D01*
G01*
D16*
X136412000Y-146572000D02*
X136412000Y-146172000D01*
X136232000Y-146572000D02*
X136412000Y-146572000D01*
X136412000Y-144512000D02*
X136412000Y-144912000D01*
X136232000Y-144512000D02*
X136412000Y-144512000D01*
X134352000Y-144512000D02*
X134532000Y-144512000D01*
X134352000Y-144912000D02*
X134352000Y-144512000D01*
X134352000Y-146572000D02*
X134352000Y-146172000D01*
X134532000Y-146572000D02*
X134352000Y-146572000D01*
D14*
X125900000Y-133074000D02*
X125900000Y-133274000D01*
X128100000Y-133074000D02*
X125900000Y-133074000D01*
X128100000Y-133274000D02*
X128100000Y-133074000D01*
X125900000Y-133274000D02*
X128100000Y-133274000D01*
X125900000Y-136474000D02*
X125900000Y-133274000D01*
X128100000Y-136474000D02*
X125900000Y-136474000D01*
X128100000Y-133274000D02*
X128100000Y-136474000D01*
X107446578Y-133552000D02*
X106929422Y-133552000D01*
X107446578Y-132132000D02*
X106929422Y-132132000D01*
X114098000Y-136139422D02*
X114098000Y-136656578D01*
X115518000Y-136139422D02*
X115518000Y-136656578D01*
X116330000Y-136235221D02*
X116330000Y-136560779D01*
X117350000Y-136235221D02*
X117350000Y-136560779D01*
X117654000Y-130805422D02*
X117654000Y-131322578D01*
X119074000Y-130805422D02*
X119074000Y-131322578D01*
X109306000Y-131842000D02*
X113156000Y-131842000D01*
X109306000Y-133842000D02*
X113156000Y-133842000D01*
X109306000Y-131842000D02*
X109306000Y-133842000D01*
X112578000Y-112615000D02*
X112578000Y-115300000D01*
X114498000Y-112615000D02*
X112578000Y-112615000D01*
X114498000Y-115300000D02*
X114498000Y-112615000D01*
X106678000Y-136235221D02*
X106678000Y-136560779D01*
X107698000Y-136235221D02*
X107698000Y-136560779D01*
X114048000Y-118018779D02*
X114048000Y-117693221D01*
X113028000Y-118018779D02*
X113028000Y-117693221D01*
X112684779Y-124204000D02*
X112359221Y-124204000D01*
X112684779Y-125224000D02*
X112359221Y-125224000D01*
D18*
X114147600Y-126479300D02*
X114147600Y-128536700D01*
X116187261Y-126479300D02*
X115460739Y-126479300D01*
X117500400Y-128536700D02*
X117500400Y-126479300D01*
D14*
X126118000Y-115824000D02*
X123578000Y-115824000D01*
X126118000Y-113284000D02*
X123578000Y-113284000D01*
X126118000Y-110744000D02*
X123578000Y-110744000D01*
X142008000Y-118404000D02*
X126118000Y-118404000D01*
X142008000Y-108164000D02*
X126118000Y-108164000D01*
X142008000Y-108164000D02*
X142008000Y-118404000D01*
X126118000Y-108164000D02*
X126118000Y-118404000D01*
D15*
X123801142Y-155868666D02*
X123848761Y-155916285D01*
X123896380Y-156059142D01*
X123896380Y-156154380D01*
X123848761Y-156297238D01*
X123753523Y-156392476D01*
X123658285Y-156440095D01*
X123467809Y-156487714D01*
X123324952Y-156487714D01*
X123134476Y-156440095D01*
X123039238Y-156392476D01*
X122944000Y-156297238D01*
X122896380Y-156154380D01*
X122896380Y-156059142D01*
X122944000Y-155916285D01*
X122991619Y-155868666D01*
X123896380Y-154916285D02*
X123896380Y-155487714D01*
X123896380Y-155202000D02*
X122896380Y-155202000D01*
X123039238Y-155297238D01*
X123134476Y-155392476D01*
X123182095Y-155487714D01*
X123707142Y-169076666D02*
X123754761Y-169124285D01*
X123802380Y-169267142D01*
X123802380Y-169362380D01*
X123754761Y-169505238D01*
X123659523Y-169600476D01*
X123564285Y-169648095D01*
X123373809Y-169695714D01*
X123230952Y-169695714D01*
X123040476Y-169648095D01*
X122945238Y-169600476D01*
X122850000Y-169505238D01*
X122802380Y-169362380D01*
X122802380Y-169267142D01*
X122850000Y-169124285D01*
X122897619Y-169076666D01*
X122897619Y-168695714D02*
X122850000Y-168648095D01*
X122802380Y-168552857D01*
X122802380Y-168314761D01*
X122850000Y-168219523D01*
X122897619Y-168171904D01*
X122992857Y-168124285D01*
X123088095Y-168124285D01*
X123230952Y-168171904D01*
X123802380Y-168743333D01*
X123802380Y-168124285D01*
X130643333Y-169775142D02*
X130595714Y-169822761D01*
X130452857Y-169870380D01*
X130357619Y-169870380D01*
X130214761Y-169822761D01*
X130119523Y-169727523D01*
X130071904Y-169632285D01*
X130024285Y-169441809D01*
X130024285Y-169298952D01*
X130071904Y-169108476D01*
X130119523Y-169013238D01*
X130214761Y-168918000D01*
X130357619Y-168870380D01*
X130452857Y-168870380D01*
X130595714Y-168918000D01*
X130643333Y-168965619D01*
X130976666Y-168870380D02*
X131595714Y-168870380D01*
X131262380Y-169251333D01*
X131405238Y-169251333D01*
X131500476Y-169298952D01*
X131548095Y-169346571D01*
X131595714Y-169441809D01*
X131595714Y-169679904D01*
X131548095Y-169775142D01*
X131500476Y-169822761D01*
X131405238Y-169870380D01*
X131119523Y-169870380D01*
X131024285Y-169822761D01*
X130976666Y-169775142D01*
X130643333Y-158599142D02*
X130595714Y-158646761D01*
X130452857Y-158694380D01*
X130357619Y-158694380D01*
X130214761Y-158646761D01*
X130119523Y-158551523D01*
X130071904Y-158456285D01*
X130024285Y-158265809D01*
X130024285Y-158122952D01*
X130071904Y-157932476D01*
X130119523Y-157837238D01*
X130214761Y-157742000D01*
X130357619Y-157694380D01*
X130452857Y-157694380D01*
X130595714Y-157742000D01*
X130643333Y-157789619D01*
X131500476Y-158027714D02*
X131500476Y-158694380D01*
X131262380Y-157646761D02*
X131024285Y-158361047D01*
X131643333Y-158361047D01*
X140803333Y-132945142D02*
X140755714Y-132992761D01*
X140612857Y-133040380D01*
X140517619Y-133040380D01*
X140374761Y-132992761D01*
X140279523Y-132897523D01*
X140231904Y-132802285D01*
X140184285Y-132611809D01*
X140184285Y-132468952D01*
X140231904Y-132278476D01*
X140279523Y-132183238D01*
X140374761Y-132088000D01*
X140517619Y-132040380D01*
X140612857Y-132040380D01*
X140755714Y-132088000D01*
X140803333Y-132135619D01*
X141708095Y-132040380D02*
X141231904Y-132040380D01*
X141184285Y-132516571D01*
X141231904Y-132468952D01*
X141327142Y-132421333D01*
X141565238Y-132421333D01*
X141660476Y-132468952D01*
X141708095Y-132516571D01*
X141755714Y-132611809D01*
X141755714Y-132849904D01*
X141708095Y-132945142D01*
X141660476Y-132992761D01*
X141565238Y-133040380D01*
X141327142Y-133040380D01*
X141231904Y-132992761D01*
X141184285Y-132945142D01*
X123531333Y-130405142D02*
X123483714Y-130452761D01*
X123340857Y-130500380D01*
X123245619Y-130500380D01*
X123102761Y-130452761D01*
X123007523Y-130357523D01*
X122959904Y-130262285D01*
X122912285Y-130071809D01*
X122912285Y-129928952D01*
X122959904Y-129738476D01*
X123007523Y-129643238D01*
X123102761Y-129548000D01*
X123245619Y-129500380D01*
X123340857Y-129500380D01*
X123483714Y-129548000D01*
X123531333Y-129595619D01*
X124388476Y-129500380D02*
X124198000Y-129500380D01*
X124102761Y-129548000D01*
X124055142Y-129595619D01*
X123959904Y-129738476D01*
X123912285Y-129928952D01*
X123912285Y-130309904D01*
X123959904Y-130405142D01*
X124007523Y-130452761D01*
X124102761Y-130500380D01*
X124293238Y-130500380D01*
X124388476Y-130452761D01*
X124436095Y-130405142D01*
X124483714Y-130309904D01*
X124483714Y-130071809D01*
X124436095Y-129976571D01*
X124388476Y-129928952D01*
X124293238Y-129881333D01*
X124102761Y-129881333D01*
X124007523Y-129928952D01*
X123959904Y-129976571D01*
X123912285Y-130071809D01*
X123531333Y-128627142D02*
X123483714Y-128674761D01*
X123340857Y-128722380D01*
X123245619Y-128722380D01*
X123102761Y-128674761D01*
X123007523Y-128579523D01*
X122959904Y-128484285D01*
X122912285Y-128293809D01*
X122912285Y-128150952D01*
X122959904Y-127960476D01*
X123007523Y-127865238D01*
X123102761Y-127770000D01*
X123245619Y-127722380D01*
X123340857Y-127722380D01*
X123483714Y-127770000D01*
X123531333Y-127817619D01*
X123864666Y-127722380D02*
X124531333Y-127722380D01*
X124102761Y-128722380D01*
X137263142Y-121578666D02*
X137310761Y-121626285D01*
X137358380Y-121769142D01*
X137358380Y-121864380D01*
X137310761Y-122007238D01*
X137215523Y-122102476D01*
X137120285Y-122150095D01*
X136929809Y-122197714D01*
X136786952Y-122197714D01*
X136596476Y-122150095D01*
X136501238Y-122102476D01*
X136406000Y-122007238D01*
X136358380Y-121864380D01*
X136358380Y-121769142D01*
X136406000Y-121626285D01*
X136453619Y-121578666D01*
X136786952Y-121007238D02*
X136739333Y-121102476D01*
X136691714Y-121150095D01*
X136596476Y-121197714D01*
X136548857Y-121197714D01*
X136453619Y-121150095D01*
X136406000Y-121102476D01*
X136358380Y-121007238D01*
X136358380Y-120816761D01*
X136406000Y-120721523D01*
X136453619Y-120673904D01*
X136548857Y-120626285D01*
X136596476Y-120626285D01*
X136691714Y-120673904D01*
X136739333Y-120721523D01*
X136786952Y-120816761D01*
X136786952Y-121007238D01*
X136834571Y-121102476D01*
X136882190Y-121150095D01*
X136977428Y-121197714D01*
X137167904Y-121197714D01*
X137263142Y-121150095D01*
X137310761Y-121102476D01*
X137358380Y-121007238D01*
X137358380Y-120816761D01*
X137310761Y-120721523D01*
X137263142Y-120673904D01*
X137167904Y-120626285D01*
X136977428Y-120626285D01*
X136882190Y-120673904D01*
X136834571Y-120721523D01*
X136786952Y-120816761D01*
X140803333Y-128213142D02*
X140755714Y-128260761D01*
X140612857Y-128308380D01*
X140517619Y-128308380D01*
X140374761Y-128260761D01*
X140279523Y-128165523D01*
X140231904Y-128070285D01*
X140184285Y-127879809D01*
X140184285Y-127736952D01*
X140231904Y-127546476D01*
X140279523Y-127451238D01*
X140374761Y-127356000D01*
X140517619Y-127308380D01*
X140612857Y-127308380D01*
X140755714Y-127356000D01*
X140803333Y-127403619D01*
X141279523Y-128308380D02*
X141470000Y-128308380D01*
X141565238Y-128260761D01*
X141612857Y-128213142D01*
X141708095Y-128070285D01*
X141755714Y-127879809D01*
X141755714Y-127498857D01*
X141708095Y-127403619D01*
X141660476Y-127356000D01*
X141565238Y-127308380D01*
X141374761Y-127308380D01*
X141279523Y-127356000D01*
X141231904Y-127403619D01*
X141184285Y-127498857D01*
X141184285Y-127736952D01*
X141231904Y-127832190D01*
X141279523Y-127879809D01*
X141374761Y-127927428D01*
X141565238Y-127927428D01*
X141660476Y-127879809D01*
X141708095Y-127832190D01*
X141755714Y-127736952D01*
X110101142Y-155805142D02*
X110053523Y-155852761D01*
X109910666Y-155900380D01*
X109815428Y-155900380D01*
X109672571Y-155852761D01*
X109577333Y-155757523D01*
X109529714Y-155662285D01*
X109482095Y-155471809D01*
X109482095Y-155328952D01*
X109529714Y-155138476D01*
X109577333Y-155043238D01*
X109672571Y-154948000D01*
X109815428Y-154900380D01*
X109910666Y-154900380D01*
X110053523Y-154948000D01*
X110101142Y-154995619D01*
X111053523Y-155900380D02*
X110482095Y-155900380D01*
X110767809Y-155900380D02*
X110767809Y-154900380D01*
X110672571Y-155043238D01*
X110577333Y-155138476D01*
X110482095Y-155186095D01*
X111910666Y-155233714D02*
X111910666Y-155900380D01*
X111672571Y-154852761D02*
X111434476Y-155567047D01*
X112053523Y-155567047D01*
X110101142Y-157837142D02*
X110053523Y-157884761D01*
X109910666Y-157932380D01*
X109815428Y-157932380D01*
X109672571Y-157884761D01*
X109577333Y-157789523D01*
X109529714Y-157694285D01*
X109482095Y-157503809D01*
X109482095Y-157360952D01*
X109529714Y-157170476D01*
X109577333Y-157075238D01*
X109672571Y-156980000D01*
X109815428Y-156932380D01*
X109910666Y-156932380D01*
X110053523Y-156980000D01*
X110101142Y-157027619D01*
X111053523Y-157932380D02*
X110482095Y-157932380D01*
X110767809Y-157932380D02*
X110767809Y-156932380D01*
X110672571Y-157075238D01*
X110577333Y-157170476D01*
X110482095Y-157218095D01*
X111958285Y-156932380D02*
X111482095Y-156932380D01*
X111434476Y-157408571D01*
X111482095Y-157360952D01*
X111577333Y-157313333D01*
X111815428Y-157313333D01*
X111910666Y-157360952D01*
X111958285Y-157408571D01*
X112005904Y-157503809D01*
X112005904Y-157741904D01*
X111958285Y-157837142D01*
X111910666Y-157884761D01*
X111815428Y-157932380D01*
X111577333Y-157932380D01*
X111482095Y-157884761D01*
X111434476Y-157837142D01*
X110101142Y-159615142D02*
X110053523Y-159662761D01*
X109910666Y-159710380D01*
X109815428Y-159710380D01*
X109672571Y-159662761D01*
X109577333Y-159567523D01*
X109529714Y-159472285D01*
X109482095Y-159281809D01*
X109482095Y-159138952D01*
X109529714Y-158948476D01*
X109577333Y-158853238D01*
X109672571Y-158758000D01*
X109815428Y-158710380D01*
X109910666Y-158710380D01*
X110053523Y-158758000D01*
X110101142Y-158805619D01*
X111053523Y-159710380D02*
X110482095Y-159710380D01*
X110767809Y-159710380D02*
X110767809Y-158710380D01*
X110672571Y-158853238D01*
X110577333Y-158948476D01*
X110482095Y-158996095D01*
X111910666Y-158710380D02*
X111720190Y-158710380D01*
X111624952Y-158758000D01*
X111577333Y-158805619D01*
X111482095Y-158948476D01*
X111434476Y-159138952D01*
X111434476Y-159519904D01*
X111482095Y-159615142D01*
X111529714Y-159662761D01*
X111624952Y-159710380D01*
X111815428Y-159710380D01*
X111910666Y-159662761D01*
X111958285Y-159615142D01*
X112005904Y-159519904D01*
X112005904Y-159281809D01*
X111958285Y-159186571D01*
X111910666Y-159138952D01*
X111815428Y-159091333D01*
X111624952Y-159091333D01*
X111529714Y-159138952D01*
X111482095Y-159186571D01*
X111434476Y-159281809D01*
X124579142Y-173585142D02*
X124531523Y-173632761D01*
X124388666Y-173680380D01*
X124293428Y-173680380D01*
X124150571Y-173632761D01*
X124055333Y-173537523D01*
X124007714Y-173442285D01*
X123960095Y-173251809D01*
X123960095Y-173108952D01*
X124007714Y-172918476D01*
X124055333Y-172823238D01*
X124150571Y-172728000D01*
X124293428Y-172680380D01*
X124388666Y-172680380D01*
X124531523Y-172728000D01*
X124579142Y-172775619D01*
X125531523Y-173680380D02*
X124960095Y-173680380D01*
X125245809Y-173680380D02*
X125245809Y-172680380D01*
X125150571Y-172823238D01*
X125055333Y-172918476D01*
X124960095Y-172966095D01*
X125864857Y-172680380D02*
X126531523Y-172680380D01*
X126102952Y-173680380D01*
X127881142Y-145645142D02*
X127833523Y-145692761D01*
X127690666Y-145740380D01*
X127595428Y-145740380D01*
X127452571Y-145692761D01*
X127357333Y-145597523D01*
X127309714Y-145502285D01*
X127262095Y-145311809D01*
X127262095Y-145168952D01*
X127309714Y-144978476D01*
X127357333Y-144883238D01*
X127452571Y-144788000D01*
X127595428Y-144740380D01*
X127690666Y-144740380D01*
X127833523Y-144788000D01*
X127881142Y-144835619D01*
X128833523Y-145740380D02*
X128262095Y-145740380D01*
X128547809Y-145740380D02*
X128547809Y-144740380D01*
X128452571Y-144883238D01*
X128357333Y-144978476D01*
X128262095Y-145026095D01*
X129404952Y-145168952D02*
X129309714Y-145121333D01*
X129262095Y-145073714D01*
X129214476Y-144978476D01*
X129214476Y-144930857D01*
X129262095Y-144835619D01*
X129309714Y-144788000D01*
X129404952Y-144740380D01*
X129595428Y-144740380D01*
X129690666Y-144788000D01*
X129738285Y-144835619D01*
X129785904Y-144930857D01*
X129785904Y-144978476D01*
X129738285Y-145073714D01*
X129690666Y-145121333D01*
X129595428Y-145168952D01*
X129404952Y-145168952D01*
X129309714Y-145216571D01*
X129262095Y-145264190D01*
X129214476Y-145359428D01*
X129214476Y-145549904D01*
X129262095Y-145645142D01*
X129309714Y-145692761D01*
X129404952Y-145740380D01*
X129595428Y-145740380D01*
X129690666Y-145692761D01*
X129738285Y-145645142D01*
X129785904Y-145549904D01*
X129785904Y-145359428D01*
X129738285Y-145264190D01*
X129690666Y-145216571D01*
X129595428Y-145168952D01*
X127881142Y-143867142D02*
X127833523Y-143914761D01*
X127690666Y-143962380D01*
X127595428Y-143962380D01*
X127452571Y-143914761D01*
X127357333Y-143819523D01*
X127309714Y-143724285D01*
X127262095Y-143533809D01*
X127262095Y-143390952D01*
X127309714Y-143200476D01*
X127357333Y-143105238D01*
X127452571Y-143010000D01*
X127595428Y-142962380D01*
X127690666Y-142962380D01*
X127833523Y-143010000D01*
X127881142Y-143057619D01*
X128833523Y-143962380D02*
X128262095Y-143962380D01*
X128547809Y-143962380D02*
X128547809Y-142962380D01*
X128452571Y-143105238D01*
X128357333Y-143200476D01*
X128262095Y-143248095D01*
X129309714Y-143962380D02*
X129500190Y-143962380D01*
X129595428Y-143914761D01*
X129643047Y-143867142D01*
X129738285Y-143724285D01*
X129785904Y-143533809D01*
X129785904Y-143152857D01*
X129738285Y-143057619D01*
X129690666Y-143010000D01*
X129595428Y-142962380D01*
X129404952Y-142962380D01*
X129309714Y-143010000D01*
X129262095Y-143057619D01*
X129214476Y-143152857D01*
X129214476Y-143390952D01*
X129262095Y-143486190D01*
X129309714Y-143533809D01*
X129404952Y-143581428D01*
X129595428Y-143581428D01*
X129690666Y-143533809D01*
X129738285Y-143486190D01*
X129785904Y-143390952D01*
X138961904Y-176474380D02*
X138961904Y-175474380D01*
X139200000Y-175474380D01*
X139342857Y-175522000D01*
X139438095Y-175617238D01*
X139485714Y-175712476D01*
X139533333Y-175902952D01*
X139533333Y-176045809D01*
X139485714Y-176236285D01*
X139438095Y-176331523D01*
X139342857Y-176426761D01*
X139200000Y-176474380D01*
X138961904Y-176474380D01*
X139914285Y-175569619D02*
X139961904Y-175522000D01*
X140057142Y-175474380D01*
X140295238Y-175474380D01*
X140390476Y-175522000D01*
X140438095Y-175569619D01*
X140485714Y-175664857D01*
X140485714Y-175760095D01*
X140438095Y-175902952D01*
X139866666Y-176474380D01*
X140485714Y-176474380D01*
X138961904Y-170632380D02*
X138961904Y-169632380D01*
X139200000Y-169632380D01*
X139342857Y-169680000D01*
X139438095Y-169775238D01*
X139485714Y-169870476D01*
X139533333Y-170060952D01*
X139533333Y-170203809D01*
X139485714Y-170394285D01*
X139438095Y-170489523D01*
X139342857Y-170584761D01*
X139200000Y-170632380D01*
X138961904Y-170632380D01*
X139866666Y-169632380D02*
X140485714Y-169632380D01*
X140152380Y-170013333D01*
X140295238Y-170013333D01*
X140390476Y-170060952D01*
X140438095Y-170108571D01*
X140485714Y-170203809D01*
X140485714Y-170441904D01*
X140438095Y-170537142D01*
X140390476Y-170584761D01*
X140295238Y-170632380D01*
X140009523Y-170632380D01*
X139914285Y-170584761D01*
X139866666Y-170537142D01*
X128484380Y-140795333D02*
X129198666Y-140795333D01*
X129341523Y-140842952D01*
X129436761Y-140938190D01*
X129484380Y-141081047D01*
X129484380Y-141176285D01*
X128817714Y-139890571D02*
X129484380Y-139890571D01*
X128436761Y-140128666D02*
X129151047Y-140366761D01*
X129151047Y-139747714D01*
X104187666Y-88225380D02*
X104187666Y-88939666D01*
X104140047Y-89082523D01*
X104044809Y-89177761D01*
X103901952Y-89225380D01*
X103806714Y-89225380D01*
X105140047Y-88225380D02*
X104663857Y-88225380D01*
X104616238Y-88701571D01*
X104663857Y-88653952D01*
X104759095Y-88606333D01*
X104997190Y-88606333D01*
X105092428Y-88653952D01*
X105140047Y-88701571D01*
X105187666Y-88796809D01*
X105187666Y-89034904D01*
X105140047Y-89130142D01*
X105092428Y-89177761D01*
X104997190Y-89225380D01*
X104759095Y-89225380D01*
X104663857Y-89177761D01*
X104616238Y-89130142D01*
X112093619Y-165703238D02*
X112046000Y-165798476D01*
X111950761Y-165893714D01*
X111807904Y-166036571D01*
X111760285Y-166131809D01*
X111760285Y-166227047D01*
X111998380Y-166179428D02*
X111950761Y-166274666D01*
X111855523Y-166369904D01*
X111665047Y-166417523D01*
X111331714Y-166417523D01*
X111141238Y-166369904D01*
X111046000Y-166274666D01*
X110998380Y-166179428D01*
X110998380Y-165988952D01*
X111046000Y-165893714D01*
X111141238Y-165798476D01*
X111331714Y-165750857D01*
X111665047Y-165750857D01*
X111855523Y-165798476D01*
X111950761Y-165893714D01*
X111998380Y-165988952D01*
X111998380Y-166179428D01*
X111998380Y-164798476D02*
X111998380Y-165369904D01*
X111998380Y-165084190D02*
X110998380Y-165084190D01*
X111141238Y-165179428D01*
X111236476Y-165274666D01*
X111284095Y-165369904D01*
X125674380Y-155868666D02*
X125198190Y-156202000D01*
X125674380Y-156440095D02*
X124674380Y-156440095D01*
X124674380Y-156059142D01*
X124722000Y-155963904D01*
X124769619Y-155916285D01*
X124864857Y-155868666D01*
X125007714Y-155868666D01*
X125102952Y-155916285D01*
X125150571Y-155963904D01*
X125198190Y-156059142D01*
X125198190Y-156440095D01*
X124769619Y-155487714D02*
X124722000Y-155440095D01*
X124674380Y-155344857D01*
X124674380Y-155106761D01*
X124722000Y-155011523D01*
X124769619Y-154963904D01*
X124864857Y-154916285D01*
X124960095Y-154916285D01*
X125102952Y-154963904D01*
X125674380Y-155535333D01*
X125674380Y-154916285D01*
X128976380Y-121578666D02*
X128500190Y-121912000D01*
X128976380Y-122150095D02*
X127976380Y-122150095D01*
X127976380Y-121769142D01*
X128024000Y-121673904D01*
X128071619Y-121626285D01*
X128166857Y-121578666D01*
X128309714Y-121578666D01*
X128404952Y-121626285D01*
X128452571Y-121673904D01*
X128500190Y-121769142D01*
X128500190Y-122150095D01*
X127976380Y-121245333D02*
X127976380Y-120626285D01*
X128357333Y-120959619D01*
X128357333Y-120816761D01*
X128404952Y-120721523D01*
X128452571Y-120673904D01*
X128547809Y-120626285D01*
X128785904Y-120626285D01*
X128881142Y-120673904D01*
X128928761Y-120721523D01*
X128976380Y-120816761D01*
X128976380Y-121102476D01*
X128928761Y-121197714D01*
X128881142Y-121245333D01*
X127706380Y-121578666D02*
X127230190Y-121912000D01*
X127706380Y-122150095D02*
X126706380Y-122150095D01*
X126706380Y-121769142D01*
X126754000Y-121673904D01*
X126801619Y-121626285D01*
X126896857Y-121578666D01*
X127039714Y-121578666D01*
X127134952Y-121626285D01*
X127182571Y-121673904D01*
X127230190Y-121769142D01*
X127230190Y-122150095D01*
X127039714Y-120721523D02*
X127706380Y-120721523D01*
X126658761Y-120959619D02*
X127373047Y-121197714D01*
X127373047Y-120578666D01*
X113879333Y-170284380D02*
X113546000Y-169808190D01*
X113307904Y-170284380D02*
X113307904Y-169284380D01*
X113688857Y-169284380D01*
X113784095Y-169332000D01*
X113831714Y-169379619D01*
X113879333Y-169474857D01*
X113879333Y-169617714D01*
X113831714Y-169712952D01*
X113784095Y-169760571D01*
X113688857Y-169808190D01*
X113307904Y-169808190D01*
X114784095Y-169284380D02*
X114307904Y-169284380D01*
X114260285Y-169760571D01*
X114307904Y-169712952D01*
X114403142Y-169665333D01*
X114641238Y-169665333D01*
X114736476Y-169712952D01*
X114784095Y-169760571D01*
X114831714Y-169855809D01*
X114831714Y-170093904D01*
X114784095Y-170189142D01*
X114736476Y-170236761D01*
X114641238Y-170284380D01*
X114403142Y-170284380D01*
X114307904Y-170236761D01*
X114260285Y-170189142D01*
X116419333Y-163266380D02*
X116086000Y-162790190D01*
X115847904Y-163266380D02*
X115847904Y-162266380D01*
X116228857Y-162266380D01*
X116324095Y-162314000D01*
X116371714Y-162361619D01*
X116419333Y-162456857D01*
X116419333Y-162599714D01*
X116371714Y-162694952D01*
X116324095Y-162742571D01*
X116228857Y-162790190D01*
X115847904Y-162790190D01*
X117276476Y-162266380D02*
X117086000Y-162266380D01*
X116990761Y-162314000D01*
X116943142Y-162361619D01*
X116847904Y-162504476D01*
X116800285Y-162694952D01*
X116800285Y-163075904D01*
X116847904Y-163171142D01*
X116895523Y-163218761D01*
X116990761Y-163266380D01*
X117181238Y-163266380D01*
X117276476Y-163218761D01*
X117324095Y-163171142D01*
X117371714Y-163075904D01*
X117371714Y-162837809D01*
X117324095Y-162742571D01*
X117276476Y-162694952D01*
X117181238Y-162647333D01*
X116990761Y-162647333D01*
X116895523Y-162694952D01*
X116847904Y-162742571D01*
X116800285Y-162837809D01*
X130643333Y-168346380D02*
X130310000Y-167870190D01*
X130071904Y-168346380D02*
X130071904Y-167346380D01*
X130452857Y-167346380D01*
X130548095Y-167394000D01*
X130595714Y-167441619D01*
X130643333Y-167536857D01*
X130643333Y-167679714D01*
X130595714Y-167774952D01*
X130548095Y-167822571D01*
X130452857Y-167870190D01*
X130071904Y-167870190D01*
X130976666Y-167346380D02*
X131643333Y-167346380D01*
X131214761Y-168346380D01*
X130643333Y-159964380D02*
X130310000Y-159488190D01*
X130071904Y-159964380D02*
X130071904Y-158964380D01*
X130452857Y-158964380D01*
X130548095Y-159012000D01*
X130595714Y-159059619D01*
X130643333Y-159154857D01*
X130643333Y-159297714D01*
X130595714Y-159392952D01*
X130548095Y-159440571D01*
X130452857Y-159488190D01*
X130071904Y-159488190D01*
X131214761Y-159392952D02*
X131119523Y-159345333D01*
X131071904Y-159297714D01*
X131024285Y-159202476D01*
X131024285Y-159154857D01*
X131071904Y-159059619D01*
X131119523Y-159012000D01*
X131214761Y-158964380D01*
X131405238Y-158964380D01*
X131500476Y-159012000D01*
X131548095Y-159059619D01*
X131595714Y-159154857D01*
X131595714Y-159202476D01*
X131548095Y-159297714D01*
X131500476Y-159345333D01*
X131405238Y-159392952D01*
X131214761Y-159392952D01*
X131119523Y-159440571D01*
X131071904Y-159488190D01*
X131024285Y-159583428D01*
X131024285Y-159773904D01*
X131071904Y-159869142D01*
X131119523Y-159916761D01*
X131214761Y-159964380D01*
X131405238Y-159964380D01*
X131500476Y-159916761D01*
X131548095Y-159869142D01*
X131595714Y-159773904D01*
X131595714Y-159583428D01*
X131548095Y-159488190D01*
X131500476Y-159440571D01*
X131405238Y-159392952D01*
X117292380Y-168314666D02*
X116816190Y-168648000D01*
X117292380Y-168886095D02*
X116292380Y-168886095D01*
X116292380Y-168505142D01*
X116340000Y-168409904D01*
X116387619Y-168362285D01*
X116482857Y-168314666D01*
X116625714Y-168314666D01*
X116720952Y-168362285D01*
X116768571Y-168409904D01*
X116816190Y-168505142D01*
X116816190Y-168886095D01*
X117292380Y-167838476D02*
X117292380Y-167648000D01*
X117244761Y-167552761D01*
X117197142Y-167505142D01*
X117054285Y-167409904D01*
X116863809Y-167362285D01*
X116482857Y-167362285D01*
X116387619Y-167409904D01*
X116340000Y-167457523D01*
X116292380Y-167552761D01*
X116292380Y-167743238D01*
X116340000Y-167838476D01*
X116387619Y-167886095D01*
X116482857Y-167933714D01*
X116720952Y-167933714D01*
X116816190Y-167886095D01*
X116863809Y-167838476D01*
X116911428Y-167743238D01*
X116911428Y-167552761D01*
X116863809Y-167457523D01*
X116816190Y-167409904D01*
X116720952Y-167362285D01*
X132453142Y-174188380D02*
X132119809Y-173712190D01*
X131881714Y-174188380D02*
X131881714Y-173188380D01*
X132262666Y-173188380D01*
X132357904Y-173236000D01*
X132405523Y-173283619D01*
X132453142Y-173378857D01*
X132453142Y-173521714D01*
X132405523Y-173616952D01*
X132357904Y-173664571D01*
X132262666Y-173712190D01*
X131881714Y-173712190D01*
X133405523Y-174188380D02*
X132834095Y-174188380D01*
X133119809Y-174188380D02*
X133119809Y-173188380D01*
X133024571Y-173331238D01*
X132929333Y-173426476D01*
X132834095Y-173474095D01*
X134024571Y-173188380D02*
X134119809Y-173188380D01*
X134215047Y-173236000D01*
X134262666Y-173283619D01*
X134310285Y-173378857D01*
X134357904Y-173569333D01*
X134357904Y-173807428D01*
X134310285Y-173997904D01*
X134262666Y-174093142D01*
X134215047Y-174140761D01*
X134119809Y-174188380D01*
X134024571Y-174188380D01*
X133929333Y-174140761D01*
X133881714Y-174093142D01*
X133834095Y-173997904D01*
X133786476Y-173807428D01*
X133786476Y-173569333D01*
X133834095Y-173378857D01*
X133881714Y-173283619D01*
X133929333Y-173236000D01*
X134024571Y-173188380D01*
X132453142Y-172410380D02*
X132119809Y-171934190D01*
X131881714Y-172410380D02*
X131881714Y-171410380D01*
X132262666Y-171410380D01*
X132357904Y-171458000D01*
X132405523Y-171505619D01*
X132453142Y-171600857D01*
X132453142Y-171743714D01*
X132405523Y-171838952D01*
X132357904Y-171886571D01*
X132262666Y-171934190D01*
X131881714Y-171934190D01*
X133405523Y-172410380D02*
X132834095Y-172410380D01*
X133119809Y-172410380D02*
X133119809Y-171410380D01*
X133024571Y-171553238D01*
X132929333Y-171648476D01*
X132834095Y-171696095D01*
X134357904Y-172410380D02*
X133786476Y-172410380D01*
X134072190Y-172410380D02*
X134072190Y-171410380D01*
X133976952Y-171553238D01*
X133881714Y-171648476D01*
X133786476Y-171696095D01*
X138628380Y-122054857D02*
X138152190Y-122388190D01*
X138628380Y-122626285D02*
X137628380Y-122626285D01*
X137628380Y-122245333D01*
X137676000Y-122150095D01*
X137723619Y-122102476D01*
X137818857Y-122054857D01*
X137961714Y-122054857D01*
X138056952Y-122102476D01*
X138104571Y-122150095D01*
X138152190Y-122245333D01*
X138152190Y-122626285D01*
X138628380Y-121102476D02*
X138628380Y-121673904D01*
X138628380Y-121388190D02*
X137628380Y-121388190D01*
X137771238Y-121483428D01*
X137866476Y-121578666D01*
X137914095Y-121673904D01*
X137723619Y-120721523D02*
X137676000Y-120673904D01*
X137628380Y-120578666D01*
X137628380Y-120340571D01*
X137676000Y-120245333D01*
X137723619Y-120197714D01*
X137818857Y-120150095D01*
X137914095Y-120150095D01*
X138056952Y-120197714D01*
X138628380Y-120769142D01*
X138628380Y-120150095D01*
X140581142Y-143962380D02*
X140247809Y-143486190D01*
X140009714Y-143962380D02*
X140009714Y-142962380D01*
X140390666Y-142962380D01*
X140485904Y-143010000D01*
X140533523Y-143057619D01*
X140581142Y-143152857D01*
X140581142Y-143295714D01*
X140533523Y-143390952D01*
X140485904Y-143438571D01*
X140390666Y-143486190D01*
X140009714Y-143486190D01*
X141533523Y-143962380D02*
X140962095Y-143962380D01*
X141247809Y-143962380D02*
X141247809Y-142962380D01*
X141152571Y-143105238D01*
X141057333Y-143200476D01*
X140962095Y-143248095D01*
X142390666Y-142962380D02*
X142200190Y-142962380D01*
X142104952Y-143010000D01*
X142057333Y-143057619D01*
X141962095Y-143200476D01*
X141914476Y-143390952D01*
X141914476Y-143771904D01*
X141962095Y-143867142D01*
X142009714Y-143914761D01*
X142104952Y-143962380D01*
X142295428Y-143962380D01*
X142390666Y-143914761D01*
X142438285Y-143867142D01*
X142485904Y-143771904D01*
X142485904Y-143533809D01*
X142438285Y-143438571D01*
X142390666Y-143390952D01*
X142295428Y-143343333D01*
X142104952Y-143343333D01*
X142009714Y-143390952D01*
X141962095Y-143438571D01*
X141914476Y-143533809D01*
X133469142Y-150566380D02*
X133135809Y-150090190D01*
X132897714Y-150566380D02*
X132897714Y-149566380D01*
X133278666Y-149566380D01*
X133373904Y-149614000D01*
X133421523Y-149661619D01*
X133469142Y-149756857D01*
X133469142Y-149899714D01*
X133421523Y-149994952D01*
X133373904Y-150042571D01*
X133278666Y-150090190D01*
X132897714Y-150090190D01*
X134421523Y-150566380D02*
X133850095Y-150566380D01*
X134135809Y-150566380D02*
X134135809Y-149566380D01*
X134040571Y-149709238D01*
X133945333Y-149804476D01*
X133850095Y-149852095D01*
X134754857Y-149566380D02*
X135421523Y-149566380D01*
X134992952Y-150566380D01*
X130594380Y-148470857D02*
X130118190Y-148804190D01*
X130594380Y-149042285D02*
X129594380Y-149042285D01*
X129594380Y-148661333D01*
X129642000Y-148566095D01*
X129689619Y-148518476D01*
X129784857Y-148470857D01*
X129927714Y-148470857D01*
X130022952Y-148518476D01*
X130070571Y-148566095D01*
X130118190Y-148661333D01*
X130118190Y-149042285D01*
X130594380Y-147518476D02*
X130594380Y-148089904D01*
X130594380Y-147804190D02*
X129594380Y-147804190D01*
X129737238Y-147899428D01*
X129832476Y-147994666D01*
X129880095Y-148089904D01*
X130594380Y-147042285D02*
X130594380Y-146851809D01*
X130546761Y-146756571D01*
X130499142Y-146708952D01*
X130356285Y-146613714D01*
X130165809Y-146566095D01*
X129784857Y-146566095D01*
X129689619Y-146613714D01*
X129642000Y-146661333D01*
X129594380Y-146756571D01*
X129594380Y-146947047D01*
X129642000Y-147042285D01*
X129689619Y-147089904D01*
X129784857Y-147137523D01*
X130022952Y-147137523D01*
X130118190Y-147089904D01*
X130165809Y-147042285D01*
X130213428Y-146947047D01*
X130213428Y-146756571D01*
X130165809Y-146661333D01*
X130118190Y-146613714D01*
X130022952Y-146566095D01*
X140327142Y-138628380D02*
X139993809Y-138152190D01*
X139755714Y-138628380D02*
X139755714Y-137628380D01*
X140136666Y-137628380D01*
X140231904Y-137676000D01*
X140279523Y-137723619D01*
X140327142Y-137818857D01*
X140327142Y-137961714D01*
X140279523Y-138056952D01*
X140231904Y-138104571D01*
X140136666Y-138152190D01*
X139755714Y-138152190D01*
X140708095Y-137723619D02*
X140755714Y-137676000D01*
X140850952Y-137628380D01*
X141089047Y-137628380D01*
X141184285Y-137676000D01*
X141231904Y-137723619D01*
X141279523Y-137818857D01*
X141279523Y-137914095D01*
X141231904Y-138056952D01*
X140660476Y-138628380D01*
X141279523Y-138628380D01*
X141898571Y-137628380D02*
X141993809Y-137628380D01*
X142089047Y-137676000D01*
X142136666Y-137723619D01*
X142184285Y-137818857D01*
X142231904Y-138009333D01*
X142231904Y-138247428D01*
X142184285Y-138437904D01*
X142136666Y-138533142D01*
X142089047Y-138580761D01*
X141993809Y-138628380D01*
X141898571Y-138628380D01*
X141803333Y-138580761D01*
X141755714Y-138533142D01*
X141708095Y-138437904D01*
X141660476Y-138247428D01*
X141660476Y-138009333D01*
X141708095Y-137818857D01*
X141755714Y-137723619D01*
X141803333Y-137676000D01*
X141898571Y-137628380D01*
X140327142Y-139898380D02*
X139993809Y-139422190D01*
X139755714Y-139898380D02*
X139755714Y-138898380D01*
X140136666Y-138898380D01*
X140231904Y-138946000D01*
X140279523Y-138993619D01*
X140327142Y-139088857D01*
X140327142Y-139231714D01*
X140279523Y-139326952D01*
X140231904Y-139374571D01*
X140136666Y-139422190D01*
X139755714Y-139422190D01*
X140708095Y-138993619D02*
X140755714Y-138946000D01*
X140850952Y-138898380D01*
X141089047Y-138898380D01*
X141184285Y-138946000D01*
X141231904Y-138993619D01*
X141279523Y-139088857D01*
X141279523Y-139184095D01*
X141231904Y-139326952D01*
X140660476Y-139898380D01*
X141279523Y-139898380D01*
X142231904Y-139898380D02*
X141660476Y-139898380D01*
X141946190Y-139898380D02*
X141946190Y-138898380D01*
X141850952Y-139041238D01*
X141755714Y-139136476D01*
X141660476Y-139184095D01*
X121277142Y-173680380D02*
X120943809Y-173204190D01*
X120705714Y-173680380D02*
X120705714Y-172680380D01*
X121086666Y-172680380D01*
X121181904Y-172728000D01*
X121229523Y-172775619D01*
X121277142Y-172870857D01*
X121277142Y-173013714D01*
X121229523Y-173108952D01*
X121181904Y-173156571D01*
X121086666Y-173204190D01*
X120705714Y-173204190D01*
X121658095Y-172775619D02*
X121705714Y-172728000D01*
X121800952Y-172680380D01*
X122039047Y-172680380D01*
X122134285Y-172728000D01*
X122181904Y-172775619D01*
X122229523Y-172870857D01*
X122229523Y-172966095D01*
X122181904Y-173108952D01*
X121610476Y-173680380D01*
X122229523Y-173680380D01*
X122610476Y-172775619D02*
X122658095Y-172728000D01*
X122753333Y-172680380D01*
X122991428Y-172680380D01*
X123086666Y-172728000D01*
X123134285Y-172775619D01*
X123181904Y-172870857D01*
X123181904Y-172966095D01*
X123134285Y-173108952D01*
X122562857Y-173680380D01*
X123181904Y-173680380D01*
X140581142Y-145740380D02*
X140247809Y-145264190D01*
X140009714Y-145740380D02*
X140009714Y-144740380D01*
X140390666Y-144740380D01*
X140485904Y-144788000D01*
X140533523Y-144835619D01*
X140581142Y-144930857D01*
X140581142Y-145073714D01*
X140533523Y-145168952D01*
X140485904Y-145216571D01*
X140390666Y-145264190D01*
X140009714Y-145264190D01*
X140962095Y-144835619D02*
X141009714Y-144788000D01*
X141104952Y-144740380D01*
X141343047Y-144740380D01*
X141438285Y-144788000D01*
X141485904Y-144835619D01*
X141533523Y-144930857D01*
X141533523Y-145026095D01*
X141485904Y-145168952D01*
X140914476Y-145740380D01*
X141533523Y-145740380D01*
X142438285Y-144740380D02*
X141962095Y-144740380D01*
X141914476Y-145216571D01*
X141962095Y-145168952D01*
X142057333Y-145121333D01*
X142295428Y-145121333D01*
X142390666Y-145168952D01*
X142438285Y-145216571D01*
X142485904Y-145311809D01*
X142485904Y-145549904D01*
X142438285Y-145645142D01*
X142390666Y-145692761D01*
X142295428Y-145740380D01*
X142057333Y-145740380D01*
X141962095Y-145692761D01*
X141914476Y-145645142D01*
X140581142Y-149296380D02*
X140247809Y-148820190D01*
X140009714Y-149296380D02*
X140009714Y-148296380D01*
X140390666Y-148296380D01*
X140485904Y-148344000D01*
X140533523Y-148391619D01*
X140581142Y-148486857D01*
X140581142Y-148629714D01*
X140533523Y-148724952D01*
X140485904Y-148772571D01*
X140390666Y-148820190D01*
X140009714Y-148820190D01*
X140962095Y-148391619D02*
X141009714Y-148344000D01*
X141104952Y-148296380D01*
X141343047Y-148296380D01*
X141438285Y-148344000D01*
X141485904Y-148391619D01*
X141533523Y-148486857D01*
X141533523Y-148582095D01*
X141485904Y-148724952D01*
X140914476Y-149296380D01*
X141533523Y-149296380D01*
X142390666Y-148296380D02*
X142200190Y-148296380D01*
X142104952Y-148344000D01*
X142057333Y-148391619D01*
X141962095Y-148534476D01*
X141914476Y-148724952D01*
X141914476Y-149105904D01*
X141962095Y-149201142D01*
X142009714Y-149248761D01*
X142104952Y-149296380D01*
X142295428Y-149296380D01*
X142390666Y-149248761D01*
X142438285Y-149201142D01*
X142485904Y-149105904D01*
X142485904Y-148867809D01*
X142438285Y-148772571D01*
X142390666Y-148724952D01*
X142295428Y-148677333D01*
X142104952Y-148677333D01*
X142009714Y-148724952D01*
X141962095Y-148772571D01*
X141914476Y-148867809D01*
X118816380Y-117228857D02*
X118340190Y-117562190D01*
X118816380Y-117800285D02*
X117816380Y-117800285D01*
X117816380Y-117419333D01*
X117864000Y-117324095D01*
X117911619Y-117276476D01*
X118006857Y-117228857D01*
X118149714Y-117228857D01*
X118244952Y-117276476D01*
X118292571Y-117324095D01*
X118340190Y-117419333D01*
X118340190Y-117800285D01*
X117911619Y-116847904D02*
X117864000Y-116800285D01*
X117816380Y-116705047D01*
X117816380Y-116466952D01*
X117864000Y-116371714D01*
X117911619Y-116324095D01*
X118006857Y-116276476D01*
X118102095Y-116276476D01*
X118244952Y-116324095D01*
X118816380Y-116895523D01*
X118816380Y-116276476D01*
X117816380Y-115943142D02*
X117816380Y-115276476D01*
X118816380Y-115705047D01*
X118910380Y-110116857D02*
X118434190Y-110450190D01*
X118910380Y-110688285D02*
X117910380Y-110688285D01*
X117910380Y-110307333D01*
X117958000Y-110212095D01*
X118005619Y-110164476D01*
X118100857Y-110116857D01*
X118243714Y-110116857D01*
X118338952Y-110164476D01*
X118386571Y-110212095D01*
X118434190Y-110307333D01*
X118434190Y-110688285D01*
X118005619Y-109735904D02*
X117958000Y-109688285D01*
X117910380Y-109593047D01*
X117910380Y-109354952D01*
X117958000Y-109259714D01*
X118005619Y-109212095D01*
X118100857Y-109164476D01*
X118196095Y-109164476D01*
X118338952Y-109212095D01*
X118910380Y-109783523D01*
X118910380Y-109164476D01*
X118338952Y-108593047D02*
X118291333Y-108688285D01*
X118243714Y-108735904D01*
X118148476Y-108783523D01*
X118100857Y-108783523D01*
X118005619Y-108735904D01*
X117958000Y-108688285D01*
X117910380Y-108593047D01*
X117910380Y-108402571D01*
X117958000Y-108307333D01*
X118005619Y-108259714D01*
X118100857Y-108212095D01*
X118148476Y-108212095D01*
X118243714Y-108259714D01*
X118291333Y-108307333D01*
X118338952Y-108402571D01*
X118338952Y-108593047D01*
X118386571Y-108688285D01*
X118434190Y-108735904D01*
X118529428Y-108783523D01*
X118719904Y-108783523D01*
X118815142Y-108735904D01*
X118862761Y-108688285D01*
X118910380Y-108593047D01*
X118910380Y-108402571D01*
X118862761Y-108307333D01*
X118815142Y-108259714D01*
X118719904Y-108212095D01*
X118529428Y-108212095D01*
X118434190Y-108259714D01*
X118386571Y-108307333D01*
X118338952Y-108402571D01*
X140581142Y-147518380D02*
X140247809Y-147042190D01*
X140009714Y-147518380D02*
X140009714Y-146518380D01*
X140390666Y-146518380D01*
X140485904Y-146566000D01*
X140533523Y-146613619D01*
X140581142Y-146708857D01*
X140581142Y-146851714D01*
X140533523Y-146946952D01*
X140485904Y-146994571D01*
X140390666Y-147042190D01*
X140009714Y-147042190D01*
X140962095Y-146613619D02*
X141009714Y-146566000D01*
X141104952Y-146518380D01*
X141343047Y-146518380D01*
X141438285Y-146566000D01*
X141485904Y-146613619D01*
X141533523Y-146708857D01*
X141533523Y-146804095D01*
X141485904Y-146946952D01*
X140914476Y-147518380D01*
X141533523Y-147518380D01*
X142009714Y-147518380D02*
X142200190Y-147518380D01*
X142295428Y-147470761D01*
X142343047Y-147423142D01*
X142438285Y-147280285D01*
X142485904Y-147089809D01*
X142485904Y-146708857D01*
X142438285Y-146613619D01*
X142390666Y-146566000D01*
X142295428Y-146518380D01*
X142104952Y-146518380D01*
X142009714Y-146566000D01*
X141962095Y-146613619D01*
X141914476Y-146708857D01*
X141914476Y-146946952D01*
X141962095Y-147042190D01*
X142009714Y-147089809D01*
X142104952Y-147137428D01*
X142295428Y-147137428D01*
X142390666Y-147089809D01*
X142438285Y-147042190D01*
X142485904Y-146946952D01*
D19*
X112966666Y-146962761D02*
X113109523Y-147010380D01*
X113347619Y-147010380D01*
X113442857Y-146962761D01*
X113490476Y-146915142D01*
X113538095Y-146819904D01*
X113538095Y-146724666D01*
X113490476Y-146629428D01*
X113442857Y-146581809D01*
X113347619Y-146534190D01*
X113157142Y-146486571D01*
X113061904Y-146438952D01*
X113014285Y-146391333D01*
X112966666Y-146296095D01*
X112966666Y-146200857D01*
X113014285Y-146105619D01*
X113061904Y-146058000D01*
X113157142Y-146010380D01*
X113395238Y-146010380D01*
X113538095Y-146058000D01*
X113871428Y-146010380D02*
X114109523Y-147010380D01*
X114300000Y-146296095D01*
X114490476Y-147010380D01*
X114728571Y-146010380D01*
X115633333Y-147010380D02*
X115061904Y-147010380D01*
X115347619Y-147010380D02*
X115347619Y-146010380D01*
X115252380Y-146153238D01*
X115157142Y-146248476D01*
X115061904Y-146296095D01*
D15*
X118004380Y-164337904D02*
X118813904Y-164337904D01*
X118909142Y-164290285D01*
X118956761Y-164242666D01*
X119004380Y-164147428D01*
X119004380Y-163956952D01*
X118956761Y-163861714D01*
X118909142Y-163814095D01*
X118813904Y-163766476D01*
X118004380Y-163766476D01*
X119004380Y-162766476D02*
X119004380Y-163337904D01*
X119004380Y-163052190D02*
X118004380Y-163052190D01*
X118147238Y-163147428D01*
X118242476Y-163242666D01*
X118290095Y-163337904D01*
X110744095Y-138390380D02*
X110744095Y-139199904D01*
X110791714Y-139295142D01*
X110839333Y-139342761D01*
X110934571Y-139390380D01*
X111125047Y-139390380D01*
X111220285Y-139342761D01*
X111267904Y-139295142D01*
X111315523Y-139199904D01*
X111315523Y-138390380D01*
X111744095Y-138485619D02*
X111791714Y-138438000D01*
X111886952Y-138390380D01*
X112125047Y-138390380D01*
X112220285Y-138438000D01*
X112267904Y-138485619D01*
X112315523Y-138580857D01*
X112315523Y-138676095D01*
X112267904Y-138818952D01*
X111696476Y-139390380D01*
X112315523Y-139390380D01*
X137668095Y-123658380D02*
X137668095Y-124467904D01*
X137715714Y-124563142D01*
X137763333Y-124610761D01*
X137858571Y-124658380D01*
X138049047Y-124658380D01*
X138144285Y-124610761D01*
X138191904Y-124563142D01*
X138239523Y-124467904D01*
X138239523Y-123658380D01*
X138620476Y-123658380D02*
X139239523Y-123658380D01*
X138906190Y-124039333D01*
X139049047Y-124039333D01*
X139144285Y-124086952D01*
X139191904Y-124134571D01*
X139239523Y-124229809D01*
X139239523Y-124467904D01*
X139191904Y-124563142D01*
X139144285Y-124610761D01*
X139049047Y-124658380D01*
X138763333Y-124658380D01*
X138668095Y-124610761D01*
X138620476Y-124563142D01*
D20*
X134375859Y-143842524D02*
X134375859Y-144101923D01*
X134391118Y-144132440D01*
X134406377Y-144147699D01*
X134436894Y-144162958D01*
X134497929Y-144162958D01*
X134528447Y-144147699D01*
X134543706Y-144132440D01*
X134558964Y-144101923D01*
X134558964Y-143842524D01*
X134848881Y-143842524D02*
X134787846Y-143842524D01*
X134757328Y-143857783D01*
X134742070Y-143873041D01*
X134711552Y-143918818D01*
X134696293Y-143979853D01*
X134696293Y-144101923D01*
X134711552Y-144132440D01*
X134726811Y-144147699D01*
X134757328Y-144162958D01*
X134818363Y-144162958D01*
X134848881Y-144147699D01*
X134864140Y-144132440D01*
X134879398Y-144101923D01*
X134879398Y-144025629D01*
X134864140Y-143995111D01*
X134848881Y-143979853D01*
X134818363Y-143964594D01*
X134757328Y-143964594D01*
X134726811Y-143979853D01*
X134711552Y-143995111D01*
X134696293Y-144025629D01*
D15*
X126523809Y-137644190D02*
X126523809Y-138120380D01*
X126190476Y-137120380D02*
X126523809Y-137644190D01*
X126857142Y-137120380D01*
X127714285Y-138120380D02*
X127142857Y-138120380D01*
X127428571Y-138120380D02*
X127428571Y-137120380D01*
X127333333Y-137263238D01*
X127238095Y-137358476D01*
X127142857Y-137406095D01*
X115165142Y-133738857D02*
X115212761Y-133786476D01*
X115260380Y-133929333D01*
X115260380Y-134024571D01*
X115212761Y-134167428D01*
X115117523Y-134262666D01*
X115022285Y-134310285D01*
X114831809Y-134357904D01*
X114688952Y-134357904D01*
X114498476Y-134310285D01*
X114403238Y-134262666D01*
X114308000Y-134167428D01*
X114260380Y-134024571D01*
X114260380Y-133929333D01*
X114308000Y-133786476D01*
X114355619Y-133738857D01*
X115260380Y-132786476D02*
X115260380Y-133357904D01*
X115260380Y-133072190D02*
X114260380Y-133072190D01*
X114403238Y-133167428D01*
X114498476Y-133262666D01*
X114546095Y-133357904D01*
X115260380Y-131834095D02*
X115260380Y-132405523D01*
X115260380Y-132119809D02*
X114260380Y-132119809D01*
X114403238Y-132215047D01*
X114498476Y-132310285D01*
X114546095Y-132405523D01*
X117197142Y-140342857D02*
X117244761Y-140390476D01*
X117292380Y-140533333D01*
X117292380Y-140628571D01*
X117244761Y-140771428D01*
X117149523Y-140866666D01*
X117054285Y-140914285D01*
X116863809Y-140961904D01*
X116720952Y-140961904D01*
X116530476Y-140914285D01*
X116435238Y-140866666D01*
X116340000Y-140771428D01*
X116292380Y-140628571D01*
X116292380Y-140533333D01*
X116340000Y-140390476D01*
X116387619Y-140342857D01*
X117292380Y-139390476D02*
X117292380Y-139961904D01*
X117292380Y-139676190D02*
X116292380Y-139676190D01*
X116435238Y-139771428D01*
X116530476Y-139866666D01*
X116578095Y-139961904D01*
X116387619Y-139009523D02*
X116340000Y-138961904D01*
X116292380Y-138866666D01*
X116292380Y-138628571D01*
X116340000Y-138533333D01*
X116387619Y-138485714D01*
X116482857Y-138438095D01*
X116578095Y-138438095D01*
X116720952Y-138485714D01*
X117292380Y-139057142D01*
X117292380Y-138438095D01*
X118721142Y-135008857D02*
X118768761Y-135056476D01*
X118816380Y-135199333D01*
X118816380Y-135294571D01*
X118768761Y-135437428D01*
X118673523Y-135532666D01*
X118578285Y-135580285D01*
X118387809Y-135627904D01*
X118244952Y-135627904D01*
X118054476Y-135580285D01*
X117959238Y-135532666D01*
X117864000Y-135437428D01*
X117816380Y-135294571D01*
X117816380Y-135199333D01*
X117864000Y-135056476D01*
X117911619Y-135008857D01*
X118816380Y-134056476D02*
X118816380Y-134627904D01*
X118816380Y-134342190D02*
X117816380Y-134342190D01*
X117959238Y-134437428D01*
X118054476Y-134532666D01*
X118102095Y-134627904D01*
X117816380Y-133723142D02*
X117816380Y-133104095D01*
X118197333Y-133437428D01*
X118197333Y-133294571D01*
X118244952Y-133199333D01*
X118292571Y-133151714D01*
X118387809Y-133104095D01*
X118625904Y-133104095D01*
X118721142Y-133151714D01*
X118768761Y-133199333D01*
X118816380Y-133294571D01*
X118816380Y-133580285D01*
X118768761Y-133675523D01*
X118721142Y-133723142D01*
X107719904Y-131516380D02*
X107719904Y-130516380D01*
X107958000Y-130516380D01*
X108100857Y-130564000D01*
X108196095Y-130659238D01*
X108243714Y-130754476D01*
X108291333Y-130944952D01*
X108291333Y-131087809D01*
X108243714Y-131278285D01*
X108196095Y-131373523D01*
X108100857Y-131468761D01*
X107958000Y-131516380D01*
X107719904Y-131516380D01*
X109148476Y-130849714D02*
X109148476Y-131516380D01*
X108910380Y-130468761D02*
X108672285Y-131183047D01*
X109291333Y-131183047D01*
X106116380Y-137040857D02*
X105640190Y-137374190D01*
X106116380Y-137612285D02*
X105116380Y-137612285D01*
X105116380Y-137231333D01*
X105164000Y-137136095D01*
X105211619Y-137088476D01*
X105306857Y-137040857D01*
X105449714Y-137040857D01*
X105544952Y-137088476D01*
X105592571Y-137136095D01*
X105640190Y-137231333D01*
X105640190Y-137612285D01*
X106116380Y-136088476D02*
X106116380Y-136659904D01*
X106116380Y-136374190D02*
X105116380Y-136374190D01*
X105259238Y-136469428D01*
X105354476Y-136564666D01*
X105402095Y-136659904D01*
X105116380Y-135755142D02*
X105116380Y-135136095D01*
X105497333Y-135469428D01*
X105497333Y-135326571D01*
X105544952Y-135231333D01*
X105592571Y-135183714D01*
X105687809Y-135136095D01*
X105925904Y-135136095D01*
X106021142Y-135183714D01*
X106068761Y-135231333D01*
X106116380Y-135326571D01*
X106116380Y-135612285D01*
X106068761Y-135707523D01*
X106021142Y-135755142D01*
X108831142Y-125166380D02*
X108497809Y-124690190D01*
X108259714Y-125166380D02*
X108259714Y-124166380D01*
X108640666Y-124166380D01*
X108735904Y-124214000D01*
X108783523Y-124261619D01*
X108831142Y-124356857D01*
X108831142Y-124499714D01*
X108783523Y-124594952D01*
X108735904Y-124642571D01*
X108640666Y-124690190D01*
X108259714Y-124690190D01*
X109783523Y-125166380D02*
X109212095Y-125166380D01*
X109497809Y-125166380D02*
X109497809Y-124166380D01*
X109402571Y-124309238D01*
X109307333Y-124404476D01*
X109212095Y-124452095D01*
X110688285Y-124166380D02*
X110212095Y-124166380D01*
X110164476Y-124642571D01*
X110212095Y-124594952D01*
X110307333Y-124547333D01*
X110545428Y-124547333D01*
X110640666Y-124594952D01*
X110688285Y-124642571D01*
X110735904Y-124737809D01*
X110735904Y-124975904D01*
X110688285Y-125071142D01*
X110640666Y-125118761D01*
X110545428Y-125166380D01*
X110307333Y-125166380D01*
X110212095Y-125118761D01*
X110164476Y-125071142D01*
X118070380Y-128269904D02*
X118879904Y-128269904D01*
X118975142Y-128222285D01*
X119022761Y-128174666D01*
X119070380Y-128079428D01*
X119070380Y-127888952D01*
X119022761Y-127793714D01*
X118975142Y-127746095D01*
X118879904Y-127698476D01*
X118070380Y-127698476D01*
X118403714Y-126793714D02*
X119070380Y-126793714D01*
X118022761Y-127031809D02*
X118737047Y-127269904D01*
X118737047Y-126650857D01*
X140874761Y-107735619D02*
X140779523Y-107688000D01*
X140684285Y-107592761D01*
X140541428Y-107449904D01*
X140446190Y-107402285D01*
X140350952Y-107402285D01*
X140398571Y-107640380D02*
X140303333Y-107592761D01*
X140208095Y-107497523D01*
X140160476Y-107307047D01*
X140160476Y-106973714D01*
X140208095Y-106783238D01*
X140303333Y-106688000D01*
X140398571Y-106640380D01*
X140589047Y-106640380D01*
X140684285Y-106688000D01*
X140779523Y-106783238D01*
X140827142Y-106973714D01*
X140827142Y-107307047D01*
X140779523Y-107497523D01*
X140684285Y-107592761D01*
X140589047Y-107640380D01*
X140398571Y-107640380D01*
X141208095Y-106735619D02*
X141255714Y-106688000D01*
X141350952Y-106640380D01*
X141589047Y-106640380D01*
X141684285Y-106688000D01*
X141731904Y-106735619D01*
X141779523Y-106830857D01*
X141779523Y-106926095D01*
X141731904Y-107068952D01*
X141160476Y-107640380D01*
X141779523Y-107640380D01*
D21*
X142113000Y-59563000D02*
X113157000Y-59563000D01*
X113157000Y-49657000D01*
X142113000Y-49657000D01*
X142113000Y-59563000D01*
D22*
G36*
X142113000Y-59563000D02*
G01*
X113157000Y-59563000D01*
X113157000Y-49657000D01*
X142113000Y-49657000D01*
X142113000Y-59563000D01*
G37*
M02*
