G04 #@! TF.GenerationSoftware,KiCad,Pcbnew,(5.1.7)-1*
G04 #@! TF.CreationDate,2021-11-09T10:37:56-06:00*
G04 #@! TF.ProjectId,cutdown,63757464-6f77-46e2-9e6b-696361645f70,3.1*
G04 #@! TF.SameCoordinates,Original*
G04 #@! TF.FileFunction,Soldermask,Bot*
G04 #@! TF.FilePolarity,Negative*
%FSLAX46Y46*%
G04 Gerber Fmt 4.6, Leading zero omitted, Abs format (unit mm)*
G04 Created by KiCad (PCBNEW (5.1.7)-1) date 2021-11-09 10:37:56*
%MOMM*%
%LPD*%
G01*
G04 APERTURE LIST*
%ADD10C,1.981200*%
%ADD11C,1.100000*%
%ADD12R,1.700000X1.700000*%
%ADD13O,1.700000X1.700000*%
%ADD14C,2.100000*%
%ADD15R,2.625000X2.625000*%
%ADD16C,2.625000*%
%ADD17R,1.350000X1.350000*%
%ADD18O,1.350000X1.350000*%
%ADD19O,3.500000X3.500000*%
%ADD20R,2.000000X1.905000*%
%ADD21O,2.000000X1.905000*%
%ADD22R,1.000000X3.500000*%
%ADD23R,1.500000X3.400000*%
%ADD24C,3.200000*%
G04 APERTURE END LIST*
D10*
X122148600Y-33299400D03*
X125247400Y-70840600D03*
D11*
X139474000Y-166030000D03*
X139474000Y-161630000D03*
D12*
X136398000Y-137414000D03*
D13*
X136398000Y-139954000D03*
X133858000Y-137414000D03*
X133858000Y-139954000D03*
X131318000Y-137414000D03*
X131318000Y-139954000D03*
D14*
X105029000Y-96111000D03*
X105029000Y-92611000D03*
D15*
X109700000Y-143944000D03*
D16*
X114300000Y-143944000D03*
D17*
X115062000Y-153338000D03*
D18*
X115062000Y-175338000D03*
X117062000Y-153338000D03*
X117062000Y-175338000D03*
X119062000Y-153338000D03*
X119062000Y-175338000D03*
X121062000Y-153338000D03*
X121062000Y-175338000D03*
X123062000Y-153338000D03*
X123062000Y-175338000D03*
X125062000Y-153338000D03*
X125062000Y-175338000D03*
X127062000Y-153338000D03*
X127062000Y-175338000D03*
X129062000Y-153338000D03*
X129062000Y-175338000D03*
X131062000Y-153338000D03*
X131062000Y-175338000D03*
X133062000Y-153338000D03*
X133062000Y-175338000D03*
D19*
X124945000Y-113284000D03*
D20*
X141605000Y-115824000D03*
D21*
X141605000Y-113284000D03*
X141605000Y-110744000D03*
D22*
X139462000Y-92075000D03*
X141462000Y-92075000D03*
D23*
X137112000Y-97825000D03*
X143812000Y-97825000D03*
D24*
X105918000Y-173736000D03*
X141478000Y-82931000D03*
G36*
G01*
X124768000Y-27188200D02*
X124768000Y-25643800D01*
G75*
G02*
X124880800Y-25531000I112800J0D01*
G01*
X125595200Y-25531000D01*
G75*
G02*
X125708000Y-25643800I0J-112800D01*
G01*
X125708000Y-27188200D01*
G75*
G02*
X125595200Y-27301000I-112800J0D01*
G01*
X124880800Y-27301000D01*
G75*
G02*
X124768000Y-27188200I0J112800D01*
G01*
G37*
G36*
G01*
X121688000Y-27170200D02*
X121688000Y-25661800D01*
G75*
G02*
X121818800Y-25531000I130800J0D01*
G01*
X122647200Y-25531000D01*
G75*
G02*
X122778000Y-25661800I0J-130800D01*
G01*
X122778000Y-27170200D01*
G75*
G02*
X122647200Y-27301000I-130800J0D01*
G01*
X121818800Y-27301000D01*
G75*
G02*
X121688000Y-27170200I0J130800D01*
G01*
G37*
G36*
G01*
X121688000Y-80510200D02*
X121688000Y-79001800D01*
G75*
G02*
X121818800Y-78871000I130800J0D01*
G01*
X122647200Y-78871000D01*
G75*
G02*
X122778000Y-79001800I0J-130800D01*
G01*
X122778000Y-80510200D01*
G75*
G02*
X122647200Y-80641000I-130800J0D01*
G01*
X121818800Y-80641000D01*
G75*
G02*
X121688000Y-80510200I0J130800D01*
G01*
G37*
G36*
G01*
X124768000Y-80528200D02*
X124768000Y-78983800D01*
G75*
G02*
X124880800Y-78871000I112800J0D01*
G01*
X125595200Y-78871000D01*
G75*
G02*
X125708000Y-78983800I0J-112800D01*
G01*
X125708000Y-80528200D01*
G75*
G02*
X125595200Y-80641000I-112800J0D01*
G01*
X124880800Y-80641000D01*
G75*
G02*
X124768000Y-80528200I0J112800D01*
G01*
G37*
G36*
G01*
X124768000Y-133741200D02*
X124768000Y-132196800D01*
G75*
G02*
X124880800Y-132084000I112800J0D01*
G01*
X125595200Y-132084000D01*
G75*
G02*
X125708000Y-132196800I0J-112800D01*
G01*
X125708000Y-133741200D01*
G75*
G02*
X125595200Y-133854000I-112800J0D01*
G01*
X124880800Y-133854000D01*
G75*
G02*
X124768000Y-133741200I0J112800D01*
G01*
G37*
G36*
G01*
X121688000Y-133723200D02*
X121688000Y-132214800D01*
G75*
G02*
X121818800Y-132084000I130800J0D01*
G01*
X122647200Y-132084000D01*
G75*
G02*
X122778000Y-132214800I0J-130800D01*
G01*
X122778000Y-133723200D01*
G75*
G02*
X122647200Y-133854000I-130800J0D01*
G01*
X121818800Y-133854000D01*
G75*
G02*
X121688000Y-133723200I0J130800D01*
G01*
G37*
G36*
G01*
X124768000Y-109103200D02*
X124768000Y-107558800D01*
G75*
G02*
X124880800Y-107446000I112800J0D01*
G01*
X125595200Y-107446000D01*
G75*
G02*
X125708000Y-107558800I0J-112800D01*
G01*
X125708000Y-109103200D01*
G75*
G02*
X125595200Y-109216000I-112800J0D01*
G01*
X124880800Y-109216000D01*
G75*
G02*
X124768000Y-109103200I0J112800D01*
G01*
G37*
G36*
G01*
X121688000Y-109085200D02*
X121688000Y-107576800D01*
G75*
G02*
X121818800Y-107446000I130800J0D01*
G01*
X122647200Y-107446000D01*
G75*
G02*
X122778000Y-107576800I0J-130800D01*
G01*
X122778000Y-109085200D01*
G75*
G02*
X122647200Y-109216000I-130800J0D01*
G01*
X121818800Y-109216000D01*
G75*
G02*
X121688000Y-109085200I0J130800D01*
G01*
G37*
X105918000Y-82931000D03*
X141478000Y-173736000D03*
X105918000Y-154432000D03*
M02*
