G04 #@! TF.GenerationSoftware,KiCad,Pcbnew,(5.1.7)-1*
G04 #@! TF.CreationDate,2020-12-22T17:15:22-06:00*
G04 #@! TF.ProjectId,cutdown,63757464-6f77-46e2-9e6b-696361645f70,3.0*
G04 #@! TF.SameCoordinates,Original*
G04 #@! TF.FileFunction,Copper,L3,Inr*
G04 #@! TF.FilePolarity,Positive*
%FSLAX46Y46*%
G04 Gerber Fmt 4.6, Leading zero omitted, Abs format (unit mm)*
G04 Created by KiCad (PCBNEW (5.1.7)-1) date 2020-12-22 17:15:22*
%MOMM*%
%LPD*%
G01*
G04 APERTURE LIST*
G04 #@! TA.AperFunction,ComponentPad*
%ADD10R,1.700000X1.700000*%
G04 #@! TD*
G04 #@! TA.AperFunction,ComponentPad*
%ADD11O,1.700000X1.700000*%
G04 #@! TD*
G04 #@! TA.AperFunction,ComponentPad*
%ADD12C,2.100000*%
G04 #@! TD*
G04 #@! TA.AperFunction,ComponentPad*
%ADD13R,2.625000X2.625000*%
G04 #@! TD*
G04 #@! TA.AperFunction,ComponentPad*
%ADD14C,2.625000*%
G04 #@! TD*
G04 #@! TA.AperFunction,ComponentPad*
%ADD15R,1.350000X1.350000*%
G04 #@! TD*
G04 #@! TA.AperFunction,ComponentPad*
%ADD16O,1.350000X1.350000*%
G04 #@! TD*
G04 #@! TA.AperFunction,ComponentPad*
%ADD17R,2.000000X1.905000*%
G04 #@! TD*
G04 #@! TA.AperFunction,ComponentPad*
%ADD18O,2.000000X1.905000*%
G04 #@! TD*
G04 #@! TA.AperFunction,ViaPad*
%ADD19C,0.508000*%
G04 #@! TD*
G04 #@! TA.AperFunction,ViaPad*
%ADD20C,1.016000*%
G04 #@! TD*
G04 #@! TA.AperFunction,Conductor*
%ADD21C,0.254000*%
G04 #@! TD*
G04 #@! TA.AperFunction,Conductor*
%ADD22C,0.100000*%
G04 #@! TD*
G04 APERTURE END LIST*
D10*
X136398000Y-137414000D03*
D11*
X136398000Y-139954000D03*
X133858000Y-137414000D03*
X133858000Y-139954000D03*
X131318000Y-137414000D03*
X131318000Y-139954000D03*
D12*
X105029000Y-92611000D03*
X105029000Y-96111000D03*
D13*
X109700000Y-143944000D03*
D14*
X114300000Y-143944000D03*
D15*
X115062000Y-153338000D03*
D16*
X115062000Y-175338000D03*
X117062000Y-153338000D03*
X117062000Y-175338000D03*
X119062000Y-153338000D03*
X119062000Y-175338000D03*
X121062000Y-153338000D03*
X121062000Y-175338000D03*
X123062000Y-153338000D03*
X123062000Y-175338000D03*
X125062000Y-153338000D03*
X125062000Y-175338000D03*
X127062000Y-153338000D03*
X127062000Y-175338000D03*
X129062000Y-153338000D03*
X129062000Y-175338000D03*
X131062000Y-153338000D03*
X131062000Y-175338000D03*
X133062000Y-153338000D03*
X133062000Y-175338000D03*
D17*
X122428000Y-110744000D03*
D18*
X122428000Y-113284000D03*
X122428000Y-115824000D03*
D19*
X105664000Y-112268000D03*
X117602000Y-113284000D03*
D20*
X114046000Y-69596000D03*
X114046000Y-67564000D03*
X114046000Y-65532000D03*
D19*
X136144000Y-128270000D03*
X131572000Y-127762000D03*
X131572000Y-129286000D03*
X125476000Y-127254000D03*
X141732000Y-128270000D03*
X114808000Y-138430000D03*
X109220000Y-136398000D03*
X139192000Y-136652000D03*
X134874000Y-147066000D03*
X135382000Y-143764000D03*
X129540000Y-145288000D03*
X129540000Y-143510000D03*
X140208000Y-147066000D03*
X130048000Y-167640000D03*
X130048000Y-159766000D03*
X122174000Y-157480000D03*
X123698000Y-162306000D03*
X124206000Y-164846000D03*
X120650000Y-169926000D03*
X115824000Y-130302000D03*
X118654856Y-108675144D03*
X112014000Y-155448000D03*
X112014000Y-157480000D03*
X112014000Y-159258000D03*
X124968000Y-134874000D03*
X116840000Y-138430000D03*
X107188000Y-131318000D03*
X116840000Y-131826000D03*
D20*
X116586000Y-122682000D03*
X117856000Y-122682000D03*
D19*
X110490000Y-124714000D03*
X127000000Y-108966000D03*
X139954000Y-159512000D03*
X139954000Y-168148000D03*
X134874000Y-161290000D03*
X115824000Y-119888000D03*
X136652000Y-120650000D03*
X126746000Y-131318000D03*
X126746000Y-127000000D03*
X114046000Y-134366000D03*
X139192000Y-135128000D03*
X134112000Y-144018000D03*
X133604000Y-145288000D03*
X131572000Y-149860000D03*
X133350000Y-147320000D03*
X140208000Y-148844000D03*
X140208000Y-145288000D03*
X140208000Y-143510000D03*
X125222000Y-156210000D03*
X122174000Y-159004000D03*
X112014000Y-168402000D03*
X112014000Y-162814000D03*
X141732000Y-171958000D03*
X141732000Y-174244000D03*
X116078000Y-159258000D03*
X116078000Y-157480000D03*
X116078000Y-155448000D03*
X120650000Y-168402000D03*
X140208000Y-132334000D03*
X133858000Y-150622000D03*
X124206000Y-121412000D03*
X139700000Y-120142000D03*
X123952000Y-150622000D03*
X123291640Y-123952050D03*
X137668000Y-121666000D03*
X130302000Y-147066000D03*
X123240800Y-147320000D03*
X133096000Y-135109200D03*
X141732000Y-133604000D03*
X143510000Y-109982000D03*
X136652000Y-122174000D03*
X133858000Y-134366000D03*
X129540000Y-172466000D03*
X140970000Y-156464000D03*
X144526000Y-156464000D03*
X144526000Y-170434000D03*
X117094000Y-157988000D03*
X141986000Y-157226000D03*
X141986000Y-139700000D03*
X133604000Y-118872000D03*
X135604000Y-135668000D03*
X120904000Y-118872000D03*
X131826000Y-118872000D03*
X123190000Y-168656000D03*
X120904000Y-159512000D03*
X121666000Y-120650000D03*
X128778000Y-120650000D03*
X127241618Y-167398382D03*
X122936000Y-162560000D03*
X132588000Y-131318000D03*
X122834430Y-130810000D03*
X120192800Y-125984000D03*
X127762000Y-125984000D03*
X119634000Y-123190000D03*
X128524000Y-123190000D03*
D20*
X118364000Y-124714000D03*
X116865401Y-130327401D03*
D19*
X133096000Y-166370000D03*
X105410000Y-131064000D03*
X111252000Y-126238000D03*
X111252000Y-128778000D03*
X122682000Y-122174000D03*
X122428000Y-137668000D03*
X129032000Y-137668000D03*
X110236000Y-119888000D03*
X122174000Y-119634000D03*
X108966000Y-119888000D03*
X105156000Y-128016000D03*
X106175875Y-170684125D03*
D21*
X144628001Y-155577873D02*
X144613559Y-155575000D01*
X144438441Y-155575000D01*
X144266688Y-155609164D01*
X144104901Y-155676179D01*
X143959296Y-155773469D01*
X143835469Y-155897296D01*
X143738179Y-156042901D01*
X143671164Y-156204688D01*
X143637000Y-156376441D01*
X143637000Y-156551559D01*
X143671164Y-156723312D01*
X143738179Y-156885099D01*
X143835469Y-157030704D01*
X143959296Y-157154531D01*
X144104901Y-157251821D01*
X144266688Y-157318836D01*
X144438441Y-157353000D01*
X144613559Y-157353000D01*
X144628001Y-157350127D01*
X144628001Y-169547873D01*
X144613559Y-169545000D01*
X144438441Y-169545000D01*
X144266688Y-169579164D01*
X144104901Y-169646179D01*
X143959296Y-169743469D01*
X143835469Y-169867296D01*
X143738179Y-170012901D01*
X143671164Y-170174688D01*
X143637000Y-170346441D01*
X143637000Y-170521559D01*
X143671164Y-170693312D01*
X143738179Y-170855099D01*
X143835469Y-171000704D01*
X143959296Y-171124531D01*
X144104901Y-171221821D01*
X144266688Y-171288836D01*
X144438441Y-171323000D01*
X144613559Y-171323000D01*
X144628001Y-171320127D01*
X144628001Y-176886000D01*
X102768000Y-176886000D01*
X102768000Y-175208976D01*
X113752000Y-175208976D01*
X113752000Y-175467024D01*
X113802342Y-175720113D01*
X113901093Y-175958518D01*
X114044456Y-176173077D01*
X114226923Y-176355544D01*
X114441482Y-176498907D01*
X114679887Y-176597658D01*
X114932976Y-176648000D01*
X115191024Y-176648000D01*
X115444113Y-176597658D01*
X115682518Y-176498907D01*
X115897077Y-176355544D01*
X116062000Y-176190621D01*
X116226923Y-176355544D01*
X116441482Y-176498907D01*
X116679887Y-176597658D01*
X116932976Y-176648000D01*
X117191024Y-176648000D01*
X117444113Y-176597658D01*
X117682518Y-176498907D01*
X117897077Y-176355544D01*
X118062000Y-176190621D01*
X118226923Y-176355544D01*
X118441482Y-176498907D01*
X118679887Y-176597658D01*
X118932976Y-176648000D01*
X119191024Y-176648000D01*
X119444113Y-176597658D01*
X119682518Y-176498907D01*
X119897077Y-176355544D01*
X120062000Y-176190621D01*
X120226923Y-176355544D01*
X120441482Y-176498907D01*
X120679887Y-176597658D01*
X120932976Y-176648000D01*
X121191024Y-176648000D01*
X121444113Y-176597658D01*
X121682518Y-176498907D01*
X121897077Y-176355544D01*
X122062000Y-176190621D01*
X122226923Y-176355544D01*
X122441482Y-176498907D01*
X122679887Y-176597658D01*
X122932976Y-176648000D01*
X123191024Y-176648000D01*
X123444113Y-176597658D01*
X123682518Y-176498907D01*
X123897077Y-176355544D01*
X124062000Y-176190621D01*
X124226923Y-176355544D01*
X124441482Y-176498907D01*
X124679887Y-176597658D01*
X124932976Y-176648000D01*
X125191024Y-176648000D01*
X125444113Y-176597658D01*
X125682518Y-176498907D01*
X125897077Y-176355544D01*
X126062000Y-176190621D01*
X126226923Y-176355544D01*
X126441482Y-176498907D01*
X126679887Y-176597658D01*
X126932976Y-176648000D01*
X127191024Y-176648000D01*
X127444113Y-176597658D01*
X127682518Y-176498907D01*
X127897077Y-176355544D01*
X128062000Y-176190621D01*
X128226923Y-176355544D01*
X128441482Y-176498907D01*
X128679887Y-176597658D01*
X128932976Y-176648000D01*
X129191024Y-176648000D01*
X129444113Y-176597658D01*
X129682518Y-176498907D01*
X129897077Y-176355544D01*
X130062000Y-176190621D01*
X130226923Y-176355544D01*
X130441482Y-176498907D01*
X130679887Y-176597658D01*
X130932976Y-176648000D01*
X131191024Y-176648000D01*
X131444113Y-176597658D01*
X131682518Y-176498907D01*
X131897077Y-176355544D01*
X132062000Y-176190621D01*
X132226923Y-176355544D01*
X132441482Y-176498907D01*
X132679887Y-176597658D01*
X132932976Y-176648000D01*
X133191024Y-176648000D01*
X133444113Y-176597658D01*
X133682518Y-176498907D01*
X133897077Y-176355544D01*
X134079544Y-176173077D01*
X134222907Y-175958518D01*
X134321658Y-175720113D01*
X134372000Y-175467024D01*
X134372000Y-175208976D01*
X134321658Y-174955887D01*
X134222907Y-174717482D01*
X134079544Y-174502923D01*
X133897077Y-174320456D01*
X133682518Y-174177093D01*
X133632660Y-174156441D01*
X140843000Y-174156441D01*
X140843000Y-174331559D01*
X140877164Y-174503312D01*
X140944179Y-174665099D01*
X141041469Y-174810704D01*
X141165296Y-174934531D01*
X141310901Y-175031821D01*
X141472688Y-175098836D01*
X141644441Y-175133000D01*
X141819559Y-175133000D01*
X141991312Y-175098836D01*
X142153099Y-175031821D01*
X142298704Y-174934531D01*
X142422531Y-174810704D01*
X142519821Y-174665099D01*
X142586836Y-174503312D01*
X142621000Y-174331559D01*
X142621000Y-174156441D01*
X142586836Y-173984688D01*
X142519821Y-173822901D01*
X142422531Y-173677296D01*
X142298704Y-173553469D01*
X142153099Y-173456179D01*
X141991312Y-173389164D01*
X141819559Y-173355000D01*
X141644441Y-173355000D01*
X141472688Y-173389164D01*
X141310901Y-173456179D01*
X141165296Y-173553469D01*
X141041469Y-173677296D01*
X140944179Y-173822901D01*
X140877164Y-173984688D01*
X140843000Y-174156441D01*
X133632660Y-174156441D01*
X133444113Y-174078342D01*
X133191024Y-174028000D01*
X132932976Y-174028000D01*
X132679887Y-174078342D01*
X132441482Y-174177093D01*
X132226923Y-174320456D01*
X132062000Y-174485379D01*
X131897077Y-174320456D01*
X131682518Y-174177093D01*
X131444113Y-174078342D01*
X131191024Y-174028000D01*
X130932976Y-174028000D01*
X130679887Y-174078342D01*
X130441482Y-174177093D01*
X130226923Y-174320456D01*
X130062000Y-174485379D01*
X129897077Y-174320456D01*
X129682518Y-174177093D01*
X129444113Y-174078342D01*
X129191024Y-174028000D01*
X128932976Y-174028000D01*
X128679887Y-174078342D01*
X128441482Y-174177093D01*
X128226923Y-174320456D01*
X128062000Y-174485379D01*
X127897077Y-174320456D01*
X127682518Y-174177093D01*
X127444113Y-174078342D01*
X127191024Y-174028000D01*
X126932976Y-174028000D01*
X126679887Y-174078342D01*
X126441482Y-174177093D01*
X126226923Y-174320456D01*
X126062000Y-174485379D01*
X125897077Y-174320456D01*
X125682518Y-174177093D01*
X125444113Y-174078342D01*
X125191024Y-174028000D01*
X124932976Y-174028000D01*
X124679887Y-174078342D01*
X124441482Y-174177093D01*
X124226923Y-174320456D01*
X124062000Y-174485379D01*
X123897077Y-174320456D01*
X123682518Y-174177093D01*
X123444113Y-174078342D01*
X123191024Y-174028000D01*
X122932976Y-174028000D01*
X122679887Y-174078342D01*
X122441482Y-174177093D01*
X122226923Y-174320456D01*
X122062000Y-174485379D01*
X121897077Y-174320456D01*
X121682518Y-174177093D01*
X121444113Y-174078342D01*
X121191024Y-174028000D01*
X120932976Y-174028000D01*
X120679887Y-174078342D01*
X120441482Y-174177093D01*
X120226923Y-174320456D01*
X120062000Y-174485379D01*
X119897077Y-174320456D01*
X119682518Y-174177093D01*
X119444113Y-174078342D01*
X119191024Y-174028000D01*
X118932976Y-174028000D01*
X118679887Y-174078342D01*
X118441482Y-174177093D01*
X118226923Y-174320456D01*
X118062000Y-174485379D01*
X117897077Y-174320456D01*
X117682518Y-174177093D01*
X117444113Y-174078342D01*
X117191024Y-174028000D01*
X116932976Y-174028000D01*
X116679887Y-174078342D01*
X116441482Y-174177093D01*
X116226923Y-174320456D01*
X116062000Y-174485379D01*
X115897077Y-174320456D01*
X115682518Y-174177093D01*
X115444113Y-174078342D01*
X115191024Y-174028000D01*
X114932976Y-174028000D01*
X114679887Y-174078342D01*
X114441482Y-174177093D01*
X114226923Y-174320456D01*
X114044456Y-174502923D01*
X113901093Y-174717482D01*
X113802342Y-174955887D01*
X113752000Y-175208976D01*
X102768000Y-175208976D01*
X102768000Y-172378441D01*
X128651000Y-172378441D01*
X128651000Y-172553559D01*
X128685164Y-172725312D01*
X128752179Y-172887099D01*
X128849469Y-173032704D01*
X128973296Y-173156531D01*
X129118901Y-173253821D01*
X129280688Y-173320836D01*
X129452441Y-173355000D01*
X129627559Y-173355000D01*
X129799312Y-173320836D01*
X129961099Y-173253821D01*
X130106704Y-173156531D01*
X130230531Y-173032704D01*
X130327821Y-172887099D01*
X130394836Y-172725312D01*
X130429000Y-172553559D01*
X130429000Y-172378441D01*
X130394836Y-172206688D01*
X130327821Y-172044901D01*
X130230531Y-171899296D01*
X130201676Y-171870441D01*
X140843000Y-171870441D01*
X140843000Y-172045559D01*
X140877164Y-172217312D01*
X140944179Y-172379099D01*
X141041469Y-172524704D01*
X141165296Y-172648531D01*
X141310901Y-172745821D01*
X141472688Y-172812836D01*
X141644441Y-172847000D01*
X141819559Y-172847000D01*
X141991312Y-172812836D01*
X142153099Y-172745821D01*
X142298704Y-172648531D01*
X142422531Y-172524704D01*
X142519821Y-172379099D01*
X142586836Y-172217312D01*
X142621000Y-172045559D01*
X142621000Y-171870441D01*
X142586836Y-171698688D01*
X142519821Y-171536901D01*
X142422531Y-171391296D01*
X142298704Y-171267469D01*
X142153099Y-171170179D01*
X141991312Y-171103164D01*
X141819559Y-171069000D01*
X141644441Y-171069000D01*
X141472688Y-171103164D01*
X141310901Y-171170179D01*
X141165296Y-171267469D01*
X141041469Y-171391296D01*
X140944179Y-171536901D01*
X140877164Y-171698688D01*
X140843000Y-171870441D01*
X130201676Y-171870441D01*
X130106704Y-171775469D01*
X129961099Y-171678179D01*
X129799312Y-171611164D01*
X129627559Y-171577000D01*
X129452441Y-171577000D01*
X129280688Y-171611164D01*
X129118901Y-171678179D01*
X128973296Y-171775469D01*
X128849469Y-171899296D01*
X128752179Y-172044901D01*
X128685164Y-172206688D01*
X128651000Y-172378441D01*
X102768000Y-172378441D01*
X102768000Y-170596566D01*
X105286875Y-170596566D01*
X105286875Y-170771684D01*
X105321039Y-170943437D01*
X105388054Y-171105224D01*
X105485344Y-171250829D01*
X105609171Y-171374656D01*
X105754776Y-171471946D01*
X105916563Y-171538961D01*
X106088316Y-171573125D01*
X106263434Y-171573125D01*
X106435187Y-171538961D01*
X106596974Y-171471946D01*
X106742579Y-171374656D01*
X106866406Y-171250829D01*
X106963696Y-171105224D01*
X107030711Y-170943437D01*
X107064875Y-170771684D01*
X107064875Y-170596566D01*
X107030711Y-170424813D01*
X106963696Y-170263026D01*
X106866406Y-170117421D01*
X106742579Y-169993594D01*
X106596974Y-169896304D01*
X106435187Y-169829289D01*
X106263434Y-169795125D01*
X106088316Y-169795125D01*
X105916563Y-169829289D01*
X105754776Y-169896304D01*
X105609171Y-169993594D01*
X105485344Y-170117421D01*
X105388054Y-170263026D01*
X105321039Y-170424813D01*
X105286875Y-170596566D01*
X102768000Y-170596566D01*
X102768000Y-168314441D01*
X111125000Y-168314441D01*
X111125000Y-168489559D01*
X111159164Y-168661312D01*
X111226179Y-168823099D01*
X111323469Y-168968704D01*
X111447296Y-169092531D01*
X111592901Y-169189821D01*
X111754688Y-169256836D01*
X111926441Y-169291000D01*
X112101559Y-169291000D01*
X112273312Y-169256836D01*
X112435099Y-169189821D01*
X112580704Y-169092531D01*
X112704531Y-168968704D01*
X112801821Y-168823099D01*
X112868836Y-168661312D01*
X112903000Y-168489559D01*
X112903000Y-168314441D01*
X119761000Y-168314441D01*
X119761000Y-168489559D01*
X119795164Y-168661312D01*
X119862179Y-168823099D01*
X119959469Y-168968704D01*
X120083296Y-169092531D01*
X120228901Y-169189821D01*
X120390688Y-169256836D01*
X120562441Y-169291000D01*
X120737559Y-169291000D01*
X120909312Y-169256836D01*
X121071099Y-169189821D01*
X121216704Y-169092531D01*
X121340531Y-168968704D01*
X121437821Y-168823099D01*
X121504836Y-168661312D01*
X121523309Y-168568441D01*
X122301000Y-168568441D01*
X122301000Y-168743559D01*
X122335164Y-168915312D01*
X122402179Y-169077099D01*
X122499469Y-169222704D01*
X122623296Y-169346531D01*
X122768901Y-169443821D01*
X122930688Y-169510836D01*
X123102441Y-169545000D01*
X123277559Y-169545000D01*
X123449312Y-169510836D01*
X123611099Y-169443821D01*
X123756704Y-169346531D01*
X123880531Y-169222704D01*
X123977821Y-169077099D01*
X124044836Y-168915312D01*
X124079000Y-168743559D01*
X124079000Y-168568441D01*
X124044836Y-168396688D01*
X123977821Y-168234901D01*
X123880531Y-168089296D01*
X123756704Y-167965469D01*
X123611099Y-167868179D01*
X123449312Y-167801164D01*
X123277559Y-167767000D01*
X123102441Y-167767000D01*
X122930688Y-167801164D01*
X122768901Y-167868179D01*
X122623296Y-167965469D01*
X122499469Y-168089296D01*
X122402179Y-168234901D01*
X122335164Y-168396688D01*
X122301000Y-168568441D01*
X121523309Y-168568441D01*
X121539000Y-168489559D01*
X121539000Y-168314441D01*
X121504836Y-168142688D01*
X121437821Y-167980901D01*
X121340531Y-167835296D01*
X121216704Y-167711469D01*
X121071099Y-167614179D01*
X120909312Y-167547164D01*
X120737559Y-167513000D01*
X120562441Y-167513000D01*
X120390688Y-167547164D01*
X120228901Y-167614179D01*
X120083296Y-167711469D01*
X119959469Y-167835296D01*
X119862179Y-167980901D01*
X119795164Y-168142688D01*
X119761000Y-168314441D01*
X112903000Y-168314441D01*
X112868836Y-168142688D01*
X112801821Y-167980901D01*
X112704531Y-167835296D01*
X112580704Y-167711469D01*
X112435099Y-167614179D01*
X112273312Y-167547164D01*
X112101559Y-167513000D01*
X111926441Y-167513000D01*
X111754688Y-167547164D01*
X111592901Y-167614179D01*
X111447296Y-167711469D01*
X111323469Y-167835296D01*
X111226179Y-167980901D01*
X111159164Y-168142688D01*
X111125000Y-168314441D01*
X102768000Y-168314441D01*
X102768000Y-167310823D01*
X126352618Y-167310823D01*
X126352618Y-167485941D01*
X126386782Y-167657694D01*
X126453797Y-167819481D01*
X126551087Y-167965086D01*
X126674914Y-168088913D01*
X126820519Y-168186203D01*
X126982306Y-168253218D01*
X127154059Y-168287382D01*
X127329177Y-168287382D01*
X127500930Y-168253218D01*
X127662717Y-168186203D01*
X127808322Y-168088913D01*
X127932149Y-167965086D01*
X128029439Y-167819481D01*
X128096454Y-167657694D01*
X128130618Y-167485941D01*
X128130618Y-167310823D01*
X128096454Y-167139070D01*
X128029439Y-166977283D01*
X127932149Y-166831678D01*
X127808322Y-166707851D01*
X127662717Y-166610561D01*
X127500930Y-166543546D01*
X127329177Y-166509382D01*
X127154059Y-166509382D01*
X126982306Y-166543546D01*
X126820519Y-166610561D01*
X126674914Y-166707851D01*
X126551087Y-166831678D01*
X126453797Y-166977283D01*
X126386782Y-167139070D01*
X126352618Y-167310823D01*
X102768000Y-167310823D01*
X102768000Y-166282441D01*
X132207000Y-166282441D01*
X132207000Y-166457559D01*
X132241164Y-166629312D01*
X132308179Y-166791099D01*
X132405469Y-166936704D01*
X132529296Y-167060531D01*
X132674901Y-167157821D01*
X132836688Y-167224836D01*
X133008441Y-167259000D01*
X133183559Y-167259000D01*
X133355312Y-167224836D01*
X133517099Y-167157821D01*
X133662704Y-167060531D01*
X133786531Y-166936704D01*
X133883821Y-166791099D01*
X133950836Y-166629312D01*
X133985000Y-166457559D01*
X133985000Y-166282441D01*
X133950836Y-166110688D01*
X133883821Y-165948901D01*
X133860026Y-165913288D01*
X138289000Y-165913288D01*
X138289000Y-166146712D01*
X138334539Y-166375652D01*
X138423866Y-166591308D01*
X138553550Y-166785394D01*
X138718606Y-166950450D01*
X138912692Y-167080134D01*
X139128348Y-167169461D01*
X139357288Y-167215000D01*
X139590712Y-167215000D01*
X139819652Y-167169461D01*
X140035308Y-167080134D01*
X140229394Y-166950450D01*
X140394450Y-166785394D01*
X140524134Y-166591308D01*
X140613461Y-166375652D01*
X140659000Y-166146712D01*
X140659000Y-165913288D01*
X140613461Y-165684348D01*
X140524134Y-165468692D01*
X140394450Y-165274606D01*
X140229394Y-165109550D01*
X140035308Y-164979866D01*
X139819652Y-164890539D01*
X139590712Y-164845000D01*
X139357288Y-164845000D01*
X139128348Y-164890539D01*
X138912692Y-164979866D01*
X138718606Y-165109550D01*
X138553550Y-165274606D01*
X138423866Y-165468692D01*
X138334539Y-165684348D01*
X138289000Y-165913288D01*
X133860026Y-165913288D01*
X133786531Y-165803296D01*
X133662704Y-165679469D01*
X133517099Y-165582179D01*
X133355312Y-165515164D01*
X133183559Y-165481000D01*
X133008441Y-165481000D01*
X132836688Y-165515164D01*
X132674901Y-165582179D01*
X132529296Y-165679469D01*
X132405469Y-165803296D01*
X132308179Y-165948901D01*
X132241164Y-166110688D01*
X132207000Y-166282441D01*
X102768000Y-166282441D01*
X102768000Y-162726441D01*
X111125000Y-162726441D01*
X111125000Y-162901559D01*
X111159164Y-163073312D01*
X111226179Y-163235099D01*
X111323469Y-163380704D01*
X111447296Y-163504531D01*
X111592901Y-163601821D01*
X111754688Y-163668836D01*
X111926441Y-163703000D01*
X112101559Y-163703000D01*
X112273312Y-163668836D01*
X112435099Y-163601821D01*
X112580704Y-163504531D01*
X112704531Y-163380704D01*
X112801821Y-163235099D01*
X112868836Y-163073312D01*
X112903000Y-162901559D01*
X112903000Y-162726441D01*
X112868836Y-162554688D01*
X112834768Y-162472441D01*
X122047000Y-162472441D01*
X122047000Y-162647559D01*
X122081164Y-162819312D01*
X122148179Y-162981099D01*
X122245469Y-163126704D01*
X122369296Y-163250531D01*
X122514901Y-163347821D01*
X122676688Y-163414836D01*
X122848441Y-163449000D01*
X123023559Y-163449000D01*
X123195312Y-163414836D01*
X123357099Y-163347821D01*
X123502704Y-163250531D01*
X123626531Y-163126704D01*
X123723821Y-162981099D01*
X123790836Y-162819312D01*
X123825000Y-162647559D01*
X123825000Y-162472441D01*
X123790836Y-162300688D01*
X123723821Y-162138901D01*
X123626531Y-161993296D01*
X123502704Y-161869469D01*
X123357099Y-161772179D01*
X123195312Y-161705164D01*
X123023559Y-161671000D01*
X122848441Y-161671000D01*
X122676688Y-161705164D01*
X122514901Y-161772179D01*
X122369296Y-161869469D01*
X122245469Y-161993296D01*
X122148179Y-162138901D01*
X122081164Y-162300688D01*
X122047000Y-162472441D01*
X112834768Y-162472441D01*
X112801821Y-162392901D01*
X112704531Y-162247296D01*
X112580704Y-162123469D01*
X112435099Y-162026179D01*
X112273312Y-161959164D01*
X112101559Y-161925000D01*
X111926441Y-161925000D01*
X111754688Y-161959164D01*
X111592901Y-162026179D01*
X111447296Y-162123469D01*
X111323469Y-162247296D01*
X111226179Y-162392901D01*
X111159164Y-162554688D01*
X111125000Y-162726441D01*
X102768000Y-162726441D01*
X102768000Y-161513288D01*
X138289000Y-161513288D01*
X138289000Y-161746712D01*
X138334539Y-161975652D01*
X138423866Y-162191308D01*
X138553550Y-162385394D01*
X138718606Y-162550450D01*
X138912692Y-162680134D01*
X139128348Y-162769461D01*
X139357288Y-162815000D01*
X139590712Y-162815000D01*
X139819652Y-162769461D01*
X140035308Y-162680134D01*
X140229394Y-162550450D01*
X140394450Y-162385394D01*
X140524134Y-162191308D01*
X140613461Y-161975652D01*
X140659000Y-161746712D01*
X140659000Y-161513288D01*
X140613461Y-161284348D01*
X140524134Y-161068692D01*
X140394450Y-160874606D01*
X140229394Y-160709550D01*
X140035308Y-160579866D01*
X139819652Y-160490539D01*
X139590712Y-160445000D01*
X139357288Y-160445000D01*
X139128348Y-160490539D01*
X138912692Y-160579866D01*
X138718606Y-160709550D01*
X138553550Y-160874606D01*
X138423866Y-161068692D01*
X138334539Y-161284348D01*
X138289000Y-161513288D01*
X102768000Y-161513288D01*
X102768000Y-157392441D01*
X115189000Y-157392441D01*
X115189000Y-157567559D01*
X115223164Y-157739312D01*
X115290179Y-157901099D01*
X115387469Y-158046704D01*
X115511296Y-158170531D01*
X115656901Y-158267821D01*
X115818688Y-158334836D01*
X115990441Y-158369000D01*
X115818688Y-158403164D01*
X115656901Y-158470179D01*
X115511296Y-158567469D01*
X115387469Y-158691296D01*
X115290179Y-158836901D01*
X115223164Y-158998688D01*
X115189000Y-159170441D01*
X115189000Y-159345559D01*
X115223164Y-159517312D01*
X115290179Y-159679099D01*
X115387469Y-159824704D01*
X115511296Y-159948531D01*
X115656901Y-160045821D01*
X115818688Y-160112836D01*
X115990441Y-160147000D01*
X116165559Y-160147000D01*
X116337312Y-160112836D01*
X116499099Y-160045821D01*
X116644704Y-159948531D01*
X116768531Y-159824704D01*
X116865821Y-159679099D01*
X116932836Y-159517312D01*
X116951309Y-159424441D01*
X120015000Y-159424441D01*
X120015000Y-159599559D01*
X120049164Y-159771312D01*
X120116179Y-159933099D01*
X120213469Y-160078704D01*
X120337296Y-160202531D01*
X120482901Y-160299821D01*
X120644688Y-160366836D01*
X120816441Y-160401000D01*
X120991559Y-160401000D01*
X121163312Y-160366836D01*
X121325099Y-160299821D01*
X121470704Y-160202531D01*
X121594531Y-160078704D01*
X121691821Y-159933099D01*
X121750896Y-159790481D01*
X121752901Y-159791821D01*
X121914688Y-159858836D01*
X122086441Y-159893000D01*
X122261559Y-159893000D01*
X122433312Y-159858836D01*
X122595099Y-159791821D01*
X122740704Y-159694531D01*
X122864531Y-159570704D01*
X122961821Y-159425099D01*
X123028836Y-159263312D01*
X123063000Y-159091559D01*
X123063000Y-158916441D01*
X123028836Y-158744688D01*
X122961821Y-158582901D01*
X122864531Y-158437296D01*
X122740704Y-158313469D01*
X122595099Y-158216179D01*
X122433312Y-158149164D01*
X122261559Y-158115000D01*
X122086441Y-158115000D01*
X121914688Y-158149164D01*
X121752901Y-158216179D01*
X121607296Y-158313469D01*
X121483469Y-158437296D01*
X121386179Y-158582901D01*
X121327104Y-158725519D01*
X121325099Y-158724179D01*
X121163312Y-158657164D01*
X120991559Y-158623000D01*
X120816441Y-158623000D01*
X120644688Y-158657164D01*
X120482901Y-158724179D01*
X120337296Y-158821469D01*
X120213469Y-158945296D01*
X120116179Y-159090901D01*
X120049164Y-159252688D01*
X120015000Y-159424441D01*
X116951309Y-159424441D01*
X116967000Y-159345559D01*
X116967000Y-159170441D01*
X116932836Y-158998688D01*
X116871296Y-158850118D01*
X117006441Y-158877000D01*
X117181559Y-158877000D01*
X117353312Y-158842836D01*
X117515099Y-158775821D01*
X117660704Y-158678531D01*
X117784531Y-158554704D01*
X117881821Y-158409099D01*
X117948836Y-158247312D01*
X117983000Y-158075559D01*
X117983000Y-157900441D01*
X117948836Y-157728688D01*
X117881821Y-157566901D01*
X117784531Y-157421296D01*
X117660704Y-157297469D01*
X117515099Y-157200179D01*
X117353312Y-157133164D01*
X117181559Y-157099000D01*
X117006441Y-157099000D01*
X116891871Y-157121790D01*
X116865821Y-157058901D01*
X116768531Y-156913296D01*
X116644704Y-156789469D01*
X116499099Y-156692179D01*
X116337312Y-156625164D01*
X116165559Y-156591000D01*
X115990441Y-156591000D01*
X115818688Y-156625164D01*
X115656901Y-156692179D01*
X115511296Y-156789469D01*
X115387469Y-156913296D01*
X115290179Y-157058901D01*
X115223164Y-157220688D01*
X115189000Y-157392441D01*
X102768000Y-157392441D01*
X102768000Y-152663000D01*
X113748928Y-152663000D01*
X113748928Y-154013000D01*
X113761188Y-154137482D01*
X113797498Y-154257180D01*
X113856463Y-154367494D01*
X113935815Y-154464185D01*
X114032506Y-154543537D01*
X114142820Y-154602502D01*
X114262518Y-154638812D01*
X114387000Y-154651072D01*
X115678887Y-154651072D01*
X115656901Y-154660179D01*
X115511296Y-154757469D01*
X115387469Y-154881296D01*
X115290179Y-155026901D01*
X115223164Y-155188688D01*
X115189000Y-155360441D01*
X115189000Y-155535559D01*
X115223164Y-155707312D01*
X115290179Y-155869099D01*
X115387469Y-156014704D01*
X115511296Y-156138531D01*
X115656901Y-156235821D01*
X115818688Y-156302836D01*
X115990441Y-156337000D01*
X116165559Y-156337000D01*
X116337312Y-156302836D01*
X116499099Y-156235821D01*
X116644704Y-156138531D01*
X116660794Y-156122441D01*
X124333000Y-156122441D01*
X124333000Y-156297559D01*
X124367164Y-156469312D01*
X124434179Y-156631099D01*
X124531469Y-156776704D01*
X124655296Y-156900531D01*
X124800901Y-156997821D01*
X124962688Y-157064836D01*
X125134441Y-157099000D01*
X125309559Y-157099000D01*
X125481312Y-157064836D01*
X125643099Y-156997821D01*
X125788704Y-156900531D01*
X125912531Y-156776704D01*
X126009821Y-156631099D01*
X126076836Y-156469312D01*
X126095309Y-156376441D01*
X140081000Y-156376441D01*
X140081000Y-156551559D01*
X140115164Y-156723312D01*
X140182179Y-156885099D01*
X140279469Y-157030704D01*
X140403296Y-157154531D01*
X140548901Y-157251821D01*
X140710688Y-157318836D01*
X140882441Y-157353000D01*
X141057559Y-157353000D01*
X141103046Y-157343952D01*
X141131164Y-157485312D01*
X141198179Y-157647099D01*
X141295469Y-157792704D01*
X141419296Y-157916531D01*
X141564901Y-158013821D01*
X141726688Y-158080836D01*
X141898441Y-158115000D01*
X142073559Y-158115000D01*
X142245312Y-158080836D01*
X142407099Y-158013821D01*
X142552704Y-157916531D01*
X142676531Y-157792704D01*
X142773821Y-157647099D01*
X142840836Y-157485312D01*
X142875000Y-157313559D01*
X142875000Y-157138441D01*
X142840836Y-156966688D01*
X142773821Y-156804901D01*
X142676531Y-156659296D01*
X142552704Y-156535469D01*
X142407099Y-156438179D01*
X142245312Y-156371164D01*
X142073559Y-156337000D01*
X141898441Y-156337000D01*
X141852954Y-156346048D01*
X141824836Y-156204688D01*
X141757821Y-156042901D01*
X141660531Y-155897296D01*
X141536704Y-155773469D01*
X141391099Y-155676179D01*
X141229312Y-155609164D01*
X141057559Y-155575000D01*
X140882441Y-155575000D01*
X140710688Y-155609164D01*
X140548901Y-155676179D01*
X140403296Y-155773469D01*
X140279469Y-155897296D01*
X140182179Y-156042901D01*
X140115164Y-156204688D01*
X140081000Y-156376441D01*
X126095309Y-156376441D01*
X126111000Y-156297559D01*
X126111000Y-156122441D01*
X126076836Y-155950688D01*
X126009821Y-155788901D01*
X125912531Y-155643296D01*
X125788704Y-155519469D01*
X125643099Y-155422179D01*
X125481312Y-155355164D01*
X125309559Y-155321000D01*
X125134441Y-155321000D01*
X124962688Y-155355164D01*
X124800901Y-155422179D01*
X124655296Y-155519469D01*
X124531469Y-155643296D01*
X124434179Y-155788901D01*
X124367164Y-155950688D01*
X124333000Y-156122441D01*
X116660794Y-156122441D01*
X116768531Y-156014704D01*
X116865821Y-155869099D01*
X116932836Y-155707312D01*
X116967000Y-155535559D01*
X116967000Y-155360441D01*
X116932836Y-155188688D01*
X116865821Y-155026901D01*
X116768531Y-154881296D01*
X116644704Y-154757469D01*
X116499099Y-154660179D01*
X116337312Y-154593164D01*
X116165559Y-154559000D01*
X116062565Y-154559000D01*
X116091494Y-154543537D01*
X116188185Y-154464185D01*
X116259487Y-154377303D01*
X116441482Y-154498907D01*
X116679887Y-154597658D01*
X116932976Y-154648000D01*
X117191024Y-154648000D01*
X117444113Y-154597658D01*
X117682518Y-154498907D01*
X117897077Y-154355544D01*
X118062000Y-154190621D01*
X118226923Y-154355544D01*
X118441482Y-154498907D01*
X118679887Y-154597658D01*
X118932976Y-154648000D01*
X119191024Y-154648000D01*
X119444113Y-154597658D01*
X119682518Y-154498907D01*
X119897077Y-154355544D01*
X120062000Y-154190621D01*
X120226923Y-154355544D01*
X120441482Y-154498907D01*
X120679887Y-154597658D01*
X120932976Y-154648000D01*
X121191024Y-154648000D01*
X121444113Y-154597658D01*
X121682518Y-154498907D01*
X121897077Y-154355544D01*
X122062000Y-154190621D01*
X122226923Y-154355544D01*
X122441482Y-154498907D01*
X122679887Y-154597658D01*
X122932976Y-154648000D01*
X123191024Y-154648000D01*
X123444113Y-154597658D01*
X123682518Y-154498907D01*
X123897077Y-154355544D01*
X124062000Y-154190621D01*
X124226923Y-154355544D01*
X124441482Y-154498907D01*
X124679887Y-154597658D01*
X124932976Y-154648000D01*
X125191024Y-154648000D01*
X125444113Y-154597658D01*
X125682518Y-154498907D01*
X125897077Y-154355544D01*
X126062000Y-154190621D01*
X126226923Y-154355544D01*
X126441482Y-154498907D01*
X126679887Y-154597658D01*
X126932976Y-154648000D01*
X127191024Y-154648000D01*
X127444113Y-154597658D01*
X127682518Y-154498907D01*
X127897077Y-154355544D01*
X128062000Y-154190621D01*
X128226923Y-154355544D01*
X128441482Y-154498907D01*
X128679887Y-154597658D01*
X128932976Y-154648000D01*
X129191024Y-154648000D01*
X129444113Y-154597658D01*
X129682518Y-154498907D01*
X129897077Y-154355544D01*
X130062000Y-154190621D01*
X130226923Y-154355544D01*
X130441482Y-154498907D01*
X130679887Y-154597658D01*
X130932976Y-154648000D01*
X131191024Y-154648000D01*
X131444113Y-154597658D01*
X131682518Y-154498907D01*
X131897077Y-154355544D01*
X132068681Y-154183940D01*
X132190773Y-154316303D01*
X132398371Y-154467473D01*
X132631472Y-154575238D01*
X132732600Y-154605910D01*
X132935000Y-154482224D01*
X132935000Y-153465000D01*
X133189000Y-153465000D01*
X133189000Y-154482224D01*
X133391400Y-154605910D01*
X133492528Y-154575238D01*
X133725629Y-154467473D01*
X133933227Y-154316303D01*
X134107344Y-154127537D01*
X134241289Y-153908430D01*
X134329915Y-153667401D01*
X134207085Y-153465000D01*
X133189000Y-153465000D01*
X132935000Y-153465000D01*
X132915000Y-153465000D01*
X132915000Y-153211000D01*
X132935000Y-153211000D01*
X132935000Y-152193776D01*
X133189000Y-152193776D01*
X133189000Y-153211000D01*
X134207085Y-153211000D01*
X134329915Y-153008599D01*
X134241289Y-152767570D01*
X134107344Y-152548463D01*
X133933227Y-152359697D01*
X133725629Y-152208527D01*
X133492528Y-152100762D01*
X133391400Y-152070090D01*
X133189000Y-152193776D01*
X132935000Y-152193776D01*
X132732600Y-152070090D01*
X132631472Y-152100762D01*
X132398371Y-152208527D01*
X132190773Y-152359697D01*
X132068681Y-152492060D01*
X131897077Y-152320456D01*
X131682518Y-152177093D01*
X131444113Y-152078342D01*
X131191024Y-152028000D01*
X130932976Y-152028000D01*
X130679887Y-152078342D01*
X130441482Y-152177093D01*
X130226923Y-152320456D01*
X130062000Y-152485379D01*
X129897077Y-152320456D01*
X129682518Y-152177093D01*
X129444113Y-152078342D01*
X129191024Y-152028000D01*
X128932976Y-152028000D01*
X128679887Y-152078342D01*
X128441482Y-152177093D01*
X128226923Y-152320456D01*
X128062000Y-152485379D01*
X127897077Y-152320456D01*
X127682518Y-152177093D01*
X127444113Y-152078342D01*
X127191024Y-152028000D01*
X126932976Y-152028000D01*
X126679887Y-152078342D01*
X126441482Y-152177093D01*
X126226923Y-152320456D01*
X126062000Y-152485379D01*
X125897077Y-152320456D01*
X125682518Y-152177093D01*
X125444113Y-152078342D01*
X125191024Y-152028000D01*
X124932976Y-152028000D01*
X124679887Y-152078342D01*
X124441482Y-152177093D01*
X124226923Y-152320456D01*
X124062000Y-152485379D01*
X123897077Y-152320456D01*
X123682518Y-152177093D01*
X123444113Y-152078342D01*
X123191024Y-152028000D01*
X122932976Y-152028000D01*
X122679887Y-152078342D01*
X122441482Y-152177093D01*
X122226923Y-152320456D01*
X122062000Y-152485379D01*
X121897077Y-152320456D01*
X121682518Y-152177093D01*
X121444113Y-152078342D01*
X121191024Y-152028000D01*
X120932976Y-152028000D01*
X120679887Y-152078342D01*
X120441482Y-152177093D01*
X120226923Y-152320456D01*
X120062000Y-152485379D01*
X119897077Y-152320456D01*
X119682518Y-152177093D01*
X119444113Y-152078342D01*
X119191024Y-152028000D01*
X118932976Y-152028000D01*
X118679887Y-152078342D01*
X118441482Y-152177093D01*
X118226923Y-152320456D01*
X118062000Y-152485379D01*
X117897077Y-152320456D01*
X117682518Y-152177093D01*
X117444113Y-152078342D01*
X117191024Y-152028000D01*
X116932976Y-152028000D01*
X116679887Y-152078342D01*
X116441482Y-152177093D01*
X116259487Y-152298697D01*
X116188185Y-152211815D01*
X116091494Y-152132463D01*
X115981180Y-152073498D01*
X115861482Y-152037188D01*
X115737000Y-152024928D01*
X114387000Y-152024928D01*
X114262518Y-152037188D01*
X114142820Y-152073498D01*
X114032506Y-152132463D01*
X113935815Y-152211815D01*
X113856463Y-152308506D01*
X113797498Y-152418820D01*
X113761188Y-152538518D01*
X113748928Y-152663000D01*
X102768000Y-152663000D01*
X102768000Y-150534441D01*
X123063000Y-150534441D01*
X123063000Y-150709559D01*
X123097164Y-150881312D01*
X123164179Y-151043099D01*
X123261469Y-151188704D01*
X123385296Y-151312531D01*
X123530901Y-151409821D01*
X123692688Y-151476836D01*
X123864441Y-151511000D01*
X124039559Y-151511000D01*
X124211312Y-151476836D01*
X124373099Y-151409821D01*
X124518704Y-151312531D01*
X124642531Y-151188704D01*
X124739821Y-151043099D01*
X124806836Y-150881312D01*
X124841000Y-150709559D01*
X124841000Y-150534441D01*
X124806836Y-150362688D01*
X124739821Y-150200901D01*
X124642531Y-150055296D01*
X124518704Y-149931469D01*
X124373099Y-149834179D01*
X124224052Y-149772441D01*
X130683000Y-149772441D01*
X130683000Y-149947559D01*
X130717164Y-150119312D01*
X130784179Y-150281099D01*
X130881469Y-150426704D01*
X131005296Y-150550531D01*
X131150901Y-150647821D01*
X131312688Y-150714836D01*
X131484441Y-150749000D01*
X131659559Y-150749000D01*
X131831312Y-150714836D01*
X131993099Y-150647821D01*
X132138704Y-150550531D01*
X132154794Y-150534441D01*
X132969000Y-150534441D01*
X132969000Y-150709559D01*
X133003164Y-150881312D01*
X133070179Y-151043099D01*
X133167469Y-151188704D01*
X133291296Y-151312531D01*
X133436901Y-151409821D01*
X133598688Y-151476836D01*
X133770441Y-151511000D01*
X133945559Y-151511000D01*
X134117312Y-151476836D01*
X134279099Y-151409821D01*
X134424704Y-151312531D01*
X134548531Y-151188704D01*
X134645821Y-151043099D01*
X134712836Y-150881312D01*
X134747000Y-150709559D01*
X134747000Y-150534441D01*
X134712836Y-150362688D01*
X134645821Y-150200901D01*
X134548531Y-150055296D01*
X134424704Y-149931469D01*
X134279099Y-149834179D01*
X134117312Y-149767164D01*
X133945559Y-149733000D01*
X133770441Y-149733000D01*
X133598688Y-149767164D01*
X133436901Y-149834179D01*
X133291296Y-149931469D01*
X133167469Y-150055296D01*
X133070179Y-150200901D01*
X133003164Y-150362688D01*
X132969000Y-150534441D01*
X132154794Y-150534441D01*
X132262531Y-150426704D01*
X132359821Y-150281099D01*
X132426836Y-150119312D01*
X132461000Y-149947559D01*
X132461000Y-149772441D01*
X132426836Y-149600688D01*
X132359821Y-149438901D01*
X132262531Y-149293296D01*
X132138704Y-149169469D01*
X131993099Y-149072179D01*
X131831312Y-149005164D01*
X131659559Y-148971000D01*
X131484441Y-148971000D01*
X131312688Y-149005164D01*
X131150901Y-149072179D01*
X131005296Y-149169469D01*
X130881469Y-149293296D01*
X130784179Y-149438901D01*
X130717164Y-149600688D01*
X130683000Y-149772441D01*
X124224052Y-149772441D01*
X124211312Y-149767164D01*
X124039559Y-149733000D01*
X123864441Y-149733000D01*
X123692688Y-149767164D01*
X123530901Y-149834179D01*
X123385296Y-149931469D01*
X123261469Y-150055296D01*
X123164179Y-150200901D01*
X123097164Y-150362688D01*
X123063000Y-150534441D01*
X102768000Y-150534441D01*
X102768000Y-148756441D01*
X139319000Y-148756441D01*
X139319000Y-148931559D01*
X139353164Y-149103312D01*
X139420179Y-149265099D01*
X139517469Y-149410704D01*
X139641296Y-149534531D01*
X139786901Y-149631821D01*
X139948688Y-149698836D01*
X140120441Y-149733000D01*
X140295559Y-149733000D01*
X140467312Y-149698836D01*
X140629099Y-149631821D01*
X140774704Y-149534531D01*
X140898531Y-149410704D01*
X140995821Y-149265099D01*
X141062836Y-149103312D01*
X141097000Y-148931559D01*
X141097000Y-148756441D01*
X141062836Y-148584688D01*
X140995821Y-148422901D01*
X140898531Y-148277296D01*
X140774704Y-148153469D01*
X140629099Y-148056179D01*
X140467312Y-147989164D01*
X140295559Y-147955000D01*
X140120441Y-147955000D01*
X139948688Y-147989164D01*
X139786901Y-148056179D01*
X139641296Y-148153469D01*
X139517469Y-148277296D01*
X139420179Y-148422901D01*
X139353164Y-148584688D01*
X139319000Y-148756441D01*
X102768000Y-148756441D01*
X102768000Y-147232441D01*
X122351800Y-147232441D01*
X122351800Y-147407559D01*
X122385964Y-147579312D01*
X122452979Y-147741099D01*
X122550269Y-147886704D01*
X122674096Y-148010531D01*
X122819701Y-148107821D01*
X122981488Y-148174836D01*
X123153241Y-148209000D01*
X123328359Y-148209000D01*
X123500112Y-148174836D01*
X123661899Y-148107821D01*
X123807504Y-148010531D01*
X123931331Y-147886704D01*
X124028621Y-147741099D01*
X124095636Y-147579312D01*
X124129800Y-147407559D01*
X124129800Y-147232441D01*
X124095636Y-147060688D01*
X124061568Y-146978441D01*
X129413000Y-146978441D01*
X129413000Y-147153559D01*
X129447164Y-147325312D01*
X129514179Y-147487099D01*
X129611469Y-147632704D01*
X129735296Y-147756531D01*
X129880901Y-147853821D01*
X130042688Y-147920836D01*
X130214441Y-147955000D01*
X130389559Y-147955000D01*
X130561312Y-147920836D01*
X130723099Y-147853821D01*
X130868704Y-147756531D01*
X130992531Y-147632704D01*
X131089821Y-147487099D01*
X131156836Y-147325312D01*
X131175309Y-147232441D01*
X132461000Y-147232441D01*
X132461000Y-147407559D01*
X132495164Y-147579312D01*
X132562179Y-147741099D01*
X132659469Y-147886704D01*
X132783296Y-148010531D01*
X132928901Y-148107821D01*
X133090688Y-148174836D01*
X133262441Y-148209000D01*
X133437559Y-148209000D01*
X133609312Y-148174836D01*
X133771099Y-148107821D01*
X133916704Y-148010531D01*
X134040531Y-147886704D01*
X134137821Y-147741099D01*
X134204836Y-147579312D01*
X134239000Y-147407559D01*
X134239000Y-147232441D01*
X134204836Y-147060688D01*
X134137821Y-146898901D01*
X134040531Y-146753296D01*
X133916704Y-146629469D01*
X133771099Y-146532179D01*
X133609312Y-146465164D01*
X133437559Y-146431000D01*
X133262441Y-146431000D01*
X133090688Y-146465164D01*
X132928901Y-146532179D01*
X132783296Y-146629469D01*
X132659469Y-146753296D01*
X132562179Y-146898901D01*
X132495164Y-147060688D01*
X132461000Y-147232441D01*
X131175309Y-147232441D01*
X131191000Y-147153559D01*
X131191000Y-146978441D01*
X131156836Y-146806688D01*
X131089821Y-146644901D01*
X130992531Y-146499296D01*
X130868704Y-146375469D01*
X130723099Y-146278179D01*
X130561312Y-146211164D01*
X130389559Y-146177000D01*
X130214441Y-146177000D01*
X130042688Y-146211164D01*
X129880901Y-146278179D01*
X129735296Y-146375469D01*
X129611469Y-146499296D01*
X129514179Y-146644901D01*
X129447164Y-146806688D01*
X129413000Y-146978441D01*
X124061568Y-146978441D01*
X124028621Y-146898901D01*
X123931331Y-146753296D01*
X123807504Y-146629469D01*
X123661899Y-146532179D01*
X123500112Y-146465164D01*
X123328359Y-146431000D01*
X123153241Y-146431000D01*
X122981488Y-146465164D01*
X122819701Y-146532179D01*
X122674096Y-146629469D01*
X122550269Y-146753296D01*
X122452979Y-146898901D01*
X122385964Y-147060688D01*
X122351800Y-147232441D01*
X102768000Y-147232441D01*
X102768000Y-142631500D01*
X107749428Y-142631500D01*
X107749428Y-145256500D01*
X107761688Y-145380982D01*
X107797998Y-145500680D01*
X107856963Y-145610994D01*
X107936315Y-145707685D01*
X108033006Y-145787037D01*
X108143320Y-145846002D01*
X108263018Y-145882312D01*
X108387500Y-145894572D01*
X111012500Y-145894572D01*
X111136982Y-145882312D01*
X111256680Y-145846002D01*
X111366994Y-145787037D01*
X111463685Y-145707685D01*
X111543037Y-145610994D01*
X111602002Y-145500680D01*
X111638312Y-145380982D01*
X111650572Y-145256500D01*
X111650572Y-143752188D01*
X112352500Y-143752188D01*
X112352500Y-144135812D01*
X112427341Y-144512065D01*
X112574148Y-144866487D01*
X112787278Y-145185459D01*
X113058541Y-145456722D01*
X113377513Y-145669852D01*
X113731935Y-145816659D01*
X114108188Y-145891500D01*
X114491812Y-145891500D01*
X114868065Y-145816659D01*
X115222487Y-145669852D01*
X115541459Y-145456722D01*
X115797740Y-145200441D01*
X132715000Y-145200441D01*
X132715000Y-145375559D01*
X132749164Y-145547312D01*
X132816179Y-145709099D01*
X132913469Y-145854704D01*
X133037296Y-145978531D01*
X133182901Y-146075821D01*
X133344688Y-146142836D01*
X133516441Y-146177000D01*
X133691559Y-146177000D01*
X133863312Y-146142836D01*
X134025099Y-146075821D01*
X134170704Y-145978531D01*
X134294531Y-145854704D01*
X134391821Y-145709099D01*
X134458836Y-145547312D01*
X134493000Y-145375559D01*
X134493000Y-145200441D01*
X134458836Y-145028688D01*
X134391821Y-144866901D01*
X134390481Y-144864896D01*
X134533099Y-144805821D01*
X134678704Y-144708531D01*
X134802531Y-144584704D01*
X134899821Y-144439099D01*
X134966836Y-144277312D01*
X135001000Y-144105559D01*
X135001000Y-143930441D01*
X134966836Y-143758688D01*
X134899821Y-143596901D01*
X134802531Y-143451296D01*
X134773676Y-143422441D01*
X139319000Y-143422441D01*
X139319000Y-143597559D01*
X139353164Y-143769312D01*
X139420179Y-143931099D01*
X139517469Y-144076704D01*
X139641296Y-144200531D01*
X139786901Y-144297821D01*
X139948688Y-144364836D01*
X140120441Y-144399000D01*
X139948688Y-144433164D01*
X139786901Y-144500179D01*
X139641296Y-144597469D01*
X139517469Y-144721296D01*
X139420179Y-144866901D01*
X139353164Y-145028688D01*
X139319000Y-145200441D01*
X139319000Y-145375559D01*
X139353164Y-145547312D01*
X139420179Y-145709099D01*
X139517469Y-145854704D01*
X139641296Y-145978531D01*
X139786901Y-146075821D01*
X139948688Y-146142836D01*
X140120441Y-146177000D01*
X140295559Y-146177000D01*
X140467312Y-146142836D01*
X140629099Y-146075821D01*
X140774704Y-145978531D01*
X140898531Y-145854704D01*
X140995821Y-145709099D01*
X141062836Y-145547312D01*
X141097000Y-145375559D01*
X141097000Y-145200441D01*
X141062836Y-145028688D01*
X140995821Y-144866901D01*
X140898531Y-144721296D01*
X140774704Y-144597469D01*
X140629099Y-144500179D01*
X140467312Y-144433164D01*
X140295559Y-144399000D01*
X140467312Y-144364836D01*
X140629099Y-144297821D01*
X140774704Y-144200531D01*
X140898531Y-144076704D01*
X140995821Y-143931099D01*
X141062836Y-143769312D01*
X141097000Y-143597559D01*
X141097000Y-143422441D01*
X141062836Y-143250688D01*
X140995821Y-143088901D01*
X140898531Y-142943296D01*
X140774704Y-142819469D01*
X140629099Y-142722179D01*
X140467312Y-142655164D01*
X140295559Y-142621000D01*
X140120441Y-142621000D01*
X139948688Y-142655164D01*
X139786901Y-142722179D01*
X139641296Y-142819469D01*
X139517469Y-142943296D01*
X139420179Y-143088901D01*
X139353164Y-143250688D01*
X139319000Y-143422441D01*
X134773676Y-143422441D01*
X134678704Y-143327469D01*
X134533099Y-143230179D01*
X134371312Y-143163164D01*
X134199559Y-143129000D01*
X134024441Y-143129000D01*
X133852688Y-143163164D01*
X133690901Y-143230179D01*
X133545296Y-143327469D01*
X133421469Y-143451296D01*
X133324179Y-143596901D01*
X133257164Y-143758688D01*
X133223000Y-143930441D01*
X133223000Y-144105559D01*
X133257164Y-144277312D01*
X133324179Y-144439099D01*
X133325519Y-144441104D01*
X133182901Y-144500179D01*
X133037296Y-144597469D01*
X132913469Y-144721296D01*
X132816179Y-144866901D01*
X132749164Y-145028688D01*
X132715000Y-145200441D01*
X115797740Y-145200441D01*
X115812722Y-145185459D01*
X116025852Y-144866487D01*
X116172659Y-144512065D01*
X116247500Y-144135812D01*
X116247500Y-143752188D01*
X116172659Y-143375935D01*
X116025852Y-143021513D01*
X115812722Y-142702541D01*
X115541459Y-142431278D01*
X115222487Y-142218148D01*
X114868065Y-142071341D01*
X114491812Y-141996500D01*
X114108188Y-141996500D01*
X113731935Y-142071341D01*
X113377513Y-142218148D01*
X113058541Y-142431278D01*
X112787278Y-142702541D01*
X112574148Y-143021513D01*
X112427341Y-143375935D01*
X112352500Y-143752188D01*
X111650572Y-143752188D01*
X111650572Y-142631500D01*
X111638312Y-142507018D01*
X111602002Y-142387320D01*
X111543037Y-142277006D01*
X111463685Y-142180315D01*
X111366994Y-142100963D01*
X111256680Y-142041998D01*
X111136982Y-142005688D01*
X111012500Y-141993428D01*
X108387500Y-141993428D01*
X108263018Y-142005688D01*
X108143320Y-142041998D01*
X108033006Y-142100963D01*
X107936315Y-142180315D01*
X107856963Y-142277006D01*
X107797998Y-142387320D01*
X107761688Y-142507018D01*
X107749428Y-142631500D01*
X102768000Y-142631500D01*
X102768000Y-137580441D01*
X121539000Y-137580441D01*
X121539000Y-137755559D01*
X121573164Y-137927312D01*
X121640179Y-138089099D01*
X121737469Y-138234704D01*
X121861296Y-138358531D01*
X122006901Y-138455821D01*
X122168688Y-138522836D01*
X122340441Y-138557000D01*
X122515559Y-138557000D01*
X122687312Y-138522836D01*
X122849099Y-138455821D01*
X122994704Y-138358531D01*
X123118531Y-138234704D01*
X123215821Y-138089099D01*
X123282836Y-137927312D01*
X123317000Y-137755559D01*
X123317000Y-137580441D01*
X128143000Y-137580441D01*
X128143000Y-137755559D01*
X128177164Y-137927312D01*
X128244179Y-138089099D01*
X128341469Y-138234704D01*
X128465296Y-138358531D01*
X128610901Y-138455821D01*
X128772688Y-138522836D01*
X128944441Y-138557000D01*
X129119559Y-138557000D01*
X129291312Y-138522836D01*
X129453099Y-138455821D01*
X129598704Y-138358531D01*
X129722531Y-138234704D01*
X129819821Y-138089099D01*
X129886836Y-137927312D01*
X129898656Y-137867891D01*
X130002010Y-138117411D01*
X130164525Y-138360632D01*
X130371368Y-138567475D01*
X130545760Y-138684000D01*
X130371368Y-138800525D01*
X130164525Y-139007368D01*
X130002010Y-139250589D01*
X129890068Y-139520842D01*
X129833000Y-139807740D01*
X129833000Y-140100260D01*
X129890068Y-140387158D01*
X130002010Y-140657411D01*
X130164525Y-140900632D01*
X130371368Y-141107475D01*
X130614589Y-141269990D01*
X130884842Y-141381932D01*
X131171740Y-141439000D01*
X131464260Y-141439000D01*
X131751158Y-141381932D01*
X132021411Y-141269990D01*
X132264632Y-141107475D01*
X132471475Y-140900632D01*
X132593195Y-140718466D01*
X132662822Y-140835355D01*
X132857731Y-141051588D01*
X133091080Y-141225641D01*
X133353901Y-141350825D01*
X133501110Y-141395476D01*
X133731000Y-141274155D01*
X133731000Y-140081000D01*
X133711000Y-140081000D01*
X133711000Y-139827000D01*
X133731000Y-139827000D01*
X133731000Y-139807000D01*
X133985000Y-139807000D01*
X133985000Y-139827000D01*
X134005000Y-139827000D01*
X134005000Y-140081000D01*
X133985000Y-140081000D01*
X133985000Y-141274155D01*
X134214890Y-141395476D01*
X134362099Y-141350825D01*
X134624920Y-141225641D01*
X134858269Y-141051588D01*
X135053178Y-140835355D01*
X135122805Y-140718466D01*
X135244525Y-140900632D01*
X135451368Y-141107475D01*
X135694589Y-141269990D01*
X135964842Y-141381932D01*
X136251740Y-141439000D01*
X136544260Y-141439000D01*
X136831158Y-141381932D01*
X137101411Y-141269990D01*
X137344632Y-141107475D01*
X137551475Y-140900632D01*
X137713990Y-140657411D01*
X137825932Y-140387158D01*
X137883000Y-140100260D01*
X137883000Y-139807740D01*
X137844153Y-139612441D01*
X141097000Y-139612441D01*
X141097000Y-139787559D01*
X141131164Y-139959312D01*
X141198179Y-140121099D01*
X141295469Y-140266704D01*
X141419296Y-140390531D01*
X141564901Y-140487821D01*
X141726688Y-140554836D01*
X141898441Y-140589000D01*
X142073559Y-140589000D01*
X142245312Y-140554836D01*
X142407099Y-140487821D01*
X142552704Y-140390531D01*
X142676531Y-140266704D01*
X142773821Y-140121099D01*
X142840836Y-139959312D01*
X142875000Y-139787559D01*
X142875000Y-139612441D01*
X142840836Y-139440688D01*
X142773821Y-139278901D01*
X142676531Y-139133296D01*
X142552704Y-139009469D01*
X142407099Y-138912179D01*
X142245312Y-138845164D01*
X142073559Y-138811000D01*
X141898441Y-138811000D01*
X141726688Y-138845164D01*
X141564901Y-138912179D01*
X141419296Y-139009469D01*
X141295469Y-139133296D01*
X141198179Y-139278901D01*
X141131164Y-139440688D01*
X141097000Y-139612441D01*
X137844153Y-139612441D01*
X137825932Y-139520842D01*
X137713990Y-139250589D01*
X137551475Y-139007368D01*
X137419620Y-138875513D01*
X137492180Y-138853502D01*
X137602494Y-138794537D01*
X137699185Y-138715185D01*
X137778537Y-138618494D01*
X137837502Y-138508180D01*
X137873812Y-138388482D01*
X137886072Y-138264000D01*
X137886072Y-136564000D01*
X137873812Y-136439518D01*
X137837502Y-136319820D01*
X137778537Y-136209506D01*
X137699185Y-136112815D01*
X137602494Y-136033463D01*
X137492180Y-135974498D01*
X137372482Y-135938188D01*
X137248000Y-135925928D01*
X136459111Y-135925928D01*
X136493000Y-135755559D01*
X136493000Y-135580441D01*
X136458836Y-135408688D01*
X136391821Y-135246901D01*
X136294531Y-135101296D01*
X136233676Y-135040441D01*
X138303000Y-135040441D01*
X138303000Y-135215559D01*
X138337164Y-135387312D01*
X138404179Y-135549099D01*
X138501469Y-135694704D01*
X138625296Y-135818531D01*
X138770901Y-135915821D01*
X138932688Y-135982836D01*
X139104441Y-136017000D01*
X139279559Y-136017000D01*
X139451312Y-135982836D01*
X139613099Y-135915821D01*
X139758704Y-135818531D01*
X139882531Y-135694704D01*
X139979821Y-135549099D01*
X140046836Y-135387312D01*
X140081000Y-135215559D01*
X140081000Y-135040441D01*
X140046836Y-134868688D01*
X139979821Y-134706901D01*
X139882531Y-134561296D01*
X139758704Y-134437469D01*
X139613099Y-134340179D01*
X139451312Y-134273164D01*
X139279559Y-134239000D01*
X139104441Y-134239000D01*
X138932688Y-134273164D01*
X138770901Y-134340179D01*
X138625296Y-134437469D01*
X138501469Y-134561296D01*
X138404179Y-134706901D01*
X138337164Y-134868688D01*
X138303000Y-135040441D01*
X136233676Y-135040441D01*
X136170704Y-134977469D01*
X136025099Y-134880179D01*
X135863312Y-134813164D01*
X135691559Y-134779000D01*
X135516441Y-134779000D01*
X135344688Y-134813164D01*
X135182901Y-134880179D01*
X135037296Y-134977469D01*
X134913469Y-135101296D01*
X134816179Y-135246901D01*
X134749164Y-135408688D01*
X134715000Y-135580441D01*
X134715000Y-135755559D01*
X134749164Y-135927312D01*
X134816179Y-136089099D01*
X134913469Y-136234704D01*
X134972462Y-136293697D01*
X134958498Y-136319820D01*
X134936487Y-136392380D01*
X134804632Y-136260525D01*
X134561411Y-136098010D01*
X134291158Y-135986068D01*
X134004260Y-135929000D01*
X133711740Y-135929000D01*
X133424842Y-135986068D01*
X133154589Y-136098010D01*
X132911368Y-136260525D01*
X132704525Y-136467368D01*
X132588000Y-136641760D01*
X132471475Y-136467368D01*
X132264632Y-136260525D01*
X132021411Y-136098010D01*
X131751158Y-135986068D01*
X131464260Y-135929000D01*
X131171740Y-135929000D01*
X130884842Y-135986068D01*
X130614589Y-136098010D01*
X130371368Y-136260525D01*
X130164525Y-136467368D01*
X130002010Y-136710589D01*
X129890068Y-136980842D01*
X129833000Y-137267740D01*
X129833000Y-137278718D01*
X129819821Y-137246901D01*
X129722531Y-137101296D01*
X129598704Y-136977469D01*
X129453099Y-136880179D01*
X129291312Y-136813164D01*
X129119559Y-136779000D01*
X128944441Y-136779000D01*
X128772688Y-136813164D01*
X128610901Y-136880179D01*
X128465296Y-136977469D01*
X128341469Y-137101296D01*
X128244179Y-137246901D01*
X128177164Y-137408688D01*
X128143000Y-137580441D01*
X123317000Y-137580441D01*
X123282836Y-137408688D01*
X123215821Y-137246901D01*
X123118531Y-137101296D01*
X122994704Y-136977469D01*
X122849099Y-136880179D01*
X122687312Y-136813164D01*
X122515559Y-136779000D01*
X122340441Y-136779000D01*
X122168688Y-136813164D01*
X122006901Y-136880179D01*
X121861296Y-136977469D01*
X121737469Y-137101296D01*
X121640179Y-137246901D01*
X121573164Y-137408688D01*
X121539000Y-137580441D01*
X102768000Y-137580441D01*
X102768000Y-134278441D01*
X113157000Y-134278441D01*
X113157000Y-134453559D01*
X113191164Y-134625312D01*
X113258179Y-134787099D01*
X113355469Y-134932704D01*
X113479296Y-135056531D01*
X113624901Y-135153821D01*
X113786688Y-135220836D01*
X113958441Y-135255000D01*
X114133559Y-135255000D01*
X114305312Y-135220836D01*
X114467099Y-135153821D01*
X114612704Y-135056531D01*
X114647594Y-135021641D01*
X132207000Y-135021641D01*
X132207000Y-135196759D01*
X132241164Y-135368512D01*
X132308179Y-135530299D01*
X132405469Y-135675904D01*
X132529296Y-135799731D01*
X132674901Y-135897021D01*
X132836688Y-135964036D01*
X133008441Y-135998200D01*
X133183559Y-135998200D01*
X133355312Y-135964036D01*
X133517099Y-135897021D01*
X133662704Y-135799731D01*
X133786531Y-135675904D01*
X133883821Y-135530299D01*
X133950836Y-135368512D01*
X133974563Y-135249231D01*
X134117312Y-135220836D01*
X134279099Y-135153821D01*
X134424704Y-135056531D01*
X134548531Y-134932704D01*
X134645821Y-134787099D01*
X134712836Y-134625312D01*
X134747000Y-134453559D01*
X134747000Y-134278441D01*
X134712836Y-134106688D01*
X134645821Y-133944901D01*
X134548531Y-133799296D01*
X134424704Y-133675469D01*
X134279099Y-133578179D01*
X134130052Y-133516441D01*
X140843000Y-133516441D01*
X140843000Y-133691559D01*
X140877164Y-133863312D01*
X140944179Y-134025099D01*
X141041469Y-134170704D01*
X141165296Y-134294531D01*
X141310901Y-134391821D01*
X141472688Y-134458836D01*
X141644441Y-134493000D01*
X141819559Y-134493000D01*
X141991312Y-134458836D01*
X142153099Y-134391821D01*
X142298704Y-134294531D01*
X142422531Y-134170704D01*
X142519821Y-134025099D01*
X142586836Y-133863312D01*
X142621000Y-133691559D01*
X142621000Y-133516441D01*
X142586836Y-133344688D01*
X142519821Y-133182901D01*
X142422531Y-133037296D01*
X142298704Y-132913469D01*
X142153099Y-132816179D01*
X141991312Y-132749164D01*
X141819559Y-132715000D01*
X141644441Y-132715000D01*
X141472688Y-132749164D01*
X141310901Y-132816179D01*
X141165296Y-132913469D01*
X141041469Y-133037296D01*
X140944179Y-133182901D01*
X140877164Y-133344688D01*
X140843000Y-133516441D01*
X134130052Y-133516441D01*
X134117312Y-133511164D01*
X133945559Y-133477000D01*
X133770441Y-133477000D01*
X133598688Y-133511164D01*
X133436901Y-133578179D01*
X133291296Y-133675469D01*
X133167469Y-133799296D01*
X133070179Y-133944901D01*
X133003164Y-134106688D01*
X132979437Y-134225969D01*
X132836688Y-134254364D01*
X132674901Y-134321379D01*
X132529296Y-134418669D01*
X132405469Y-134542496D01*
X132308179Y-134688101D01*
X132241164Y-134849888D01*
X132207000Y-135021641D01*
X114647594Y-135021641D01*
X114736531Y-134932704D01*
X114833821Y-134787099D01*
X114900836Y-134625312D01*
X114935000Y-134453559D01*
X114935000Y-134278441D01*
X114900836Y-134106688D01*
X114833821Y-133944901D01*
X114736531Y-133799296D01*
X114612704Y-133675469D01*
X114467099Y-133578179D01*
X114305312Y-133511164D01*
X114133559Y-133477000D01*
X113958441Y-133477000D01*
X113786688Y-133511164D01*
X113624901Y-133578179D01*
X113479296Y-133675469D01*
X113355469Y-133799296D01*
X113258179Y-133944901D01*
X113191164Y-134106688D01*
X113157000Y-134278441D01*
X102768000Y-134278441D01*
X102768000Y-132246441D01*
X139319000Y-132246441D01*
X139319000Y-132421559D01*
X139353164Y-132593312D01*
X139420179Y-132755099D01*
X139517469Y-132900704D01*
X139641296Y-133024531D01*
X139786901Y-133121821D01*
X139948688Y-133188836D01*
X140120441Y-133223000D01*
X140295559Y-133223000D01*
X140467312Y-133188836D01*
X140629099Y-133121821D01*
X140774704Y-133024531D01*
X140898531Y-132900704D01*
X140995821Y-132755099D01*
X141062836Y-132593312D01*
X141097000Y-132421559D01*
X141097000Y-132246441D01*
X141062836Y-132074688D01*
X140995821Y-131912901D01*
X140898531Y-131767296D01*
X140774704Y-131643469D01*
X140629099Y-131546179D01*
X140467312Y-131479164D01*
X140295559Y-131445000D01*
X140120441Y-131445000D01*
X139948688Y-131479164D01*
X139786901Y-131546179D01*
X139641296Y-131643469D01*
X139517469Y-131767296D01*
X139420179Y-131912901D01*
X139353164Y-132074688D01*
X139319000Y-132246441D01*
X102768000Y-132246441D01*
X102768000Y-130976441D01*
X104521000Y-130976441D01*
X104521000Y-131151559D01*
X104555164Y-131323312D01*
X104622179Y-131485099D01*
X104719469Y-131630704D01*
X104843296Y-131754531D01*
X104988901Y-131851821D01*
X105150688Y-131918836D01*
X105322441Y-131953000D01*
X105497559Y-131953000D01*
X105669312Y-131918836D01*
X105831099Y-131851821D01*
X105976704Y-131754531D01*
X106100531Y-131630704D01*
X106197821Y-131485099D01*
X106264836Y-131323312D01*
X106299000Y-131151559D01*
X106299000Y-130976441D01*
X106264836Y-130804688D01*
X106197821Y-130642901D01*
X106100531Y-130497296D01*
X105976704Y-130373469D01*
X105831099Y-130276179D01*
X105682979Y-130214825D01*
X115722401Y-130214825D01*
X115722401Y-130439977D01*
X115766326Y-130660802D01*
X115852488Y-130868814D01*
X115977575Y-131056021D01*
X116136781Y-131215227D01*
X116323988Y-131340314D01*
X116532000Y-131426476D01*
X116752825Y-131470401D01*
X116977977Y-131470401D01*
X117198802Y-131426476D01*
X117406814Y-131340314D01*
X117594021Y-131215227D01*
X117753227Y-131056021D01*
X117878314Y-130868814D01*
X117938944Y-130722441D01*
X121945430Y-130722441D01*
X121945430Y-130897559D01*
X121979594Y-131069312D01*
X122046609Y-131231099D01*
X122143899Y-131376704D01*
X122267726Y-131500531D01*
X122413331Y-131597821D01*
X122575118Y-131664836D01*
X122746871Y-131699000D01*
X122921989Y-131699000D01*
X123093742Y-131664836D01*
X123255529Y-131597821D01*
X123401134Y-131500531D01*
X123524961Y-131376704D01*
X123622251Y-131231099D01*
X123622523Y-131230441D01*
X125857000Y-131230441D01*
X125857000Y-131405559D01*
X125891164Y-131577312D01*
X125958179Y-131739099D01*
X126055469Y-131884704D01*
X126179296Y-132008531D01*
X126324901Y-132105821D01*
X126486688Y-132172836D01*
X126658441Y-132207000D01*
X126833559Y-132207000D01*
X127005312Y-132172836D01*
X127167099Y-132105821D01*
X127312704Y-132008531D01*
X127436531Y-131884704D01*
X127533821Y-131739099D01*
X127600836Y-131577312D01*
X127635000Y-131405559D01*
X127635000Y-131230441D01*
X131699000Y-131230441D01*
X131699000Y-131405559D01*
X131733164Y-131577312D01*
X131800179Y-131739099D01*
X131897469Y-131884704D01*
X132021296Y-132008531D01*
X132166901Y-132105821D01*
X132328688Y-132172836D01*
X132500441Y-132207000D01*
X132675559Y-132207000D01*
X132847312Y-132172836D01*
X133009099Y-132105821D01*
X133154704Y-132008531D01*
X133278531Y-131884704D01*
X133375821Y-131739099D01*
X133442836Y-131577312D01*
X133477000Y-131405559D01*
X133477000Y-131230441D01*
X133442836Y-131058688D01*
X133375821Y-130896901D01*
X133278531Y-130751296D01*
X133154704Y-130627469D01*
X133009099Y-130530179D01*
X132847312Y-130463164D01*
X132675559Y-130429000D01*
X132500441Y-130429000D01*
X132328688Y-130463164D01*
X132166901Y-130530179D01*
X132021296Y-130627469D01*
X131897469Y-130751296D01*
X131800179Y-130896901D01*
X131733164Y-131058688D01*
X131699000Y-131230441D01*
X127635000Y-131230441D01*
X127600836Y-131058688D01*
X127533821Y-130896901D01*
X127436531Y-130751296D01*
X127312704Y-130627469D01*
X127167099Y-130530179D01*
X127005312Y-130463164D01*
X126833559Y-130429000D01*
X126658441Y-130429000D01*
X126486688Y-130463164D01*
X126324901Y-130530179D01*
X126179296Y-130627469D01*
X126055469Y-130751296D01*
X125958179Y-130896901D01*
X125891164Y-131058688D01*
X125857000Y-131230441D01*
X123622523Y-131230441D01*
X123689266Y-131069312D01*
X123723430Y-130897559D01*
X123723430Y-130722441D01*
X123689266Y-130550688D01*
X123622251Y-130388901D01*
X123524961Y-130243296D01*
X123401134Y-130119469D01*
X123255529Y-130022179D01*
X123093742Y-129955164D01*
X122921989Y-129921000D01*
X122746871Y-129921000D01*
X122575118Y-129955164D01*
X122413331Y-130022179D01*
X122267726Y-130119469D01*
X122143899Y-130243296D01*
X122046609Y-130388901D01*
X121979594Y-130550688D01*
X121945430Y-130722441D01*
X117938944Y-130722441D01*
X117964476Y-130660802D01*
X118008401Y-130439977D01*
X118008401Y-130214825D01*
X117964476Y-129994000D01*
X117878314Y-129785988D01*
X117753227Y-129598781D01*
X117594021Y-129439575D01*
X117406814Y-129314488D01*
X117198802Y-129228326D01*
X116977977Y-129184401D01*
X116752825Y-129184401D01*
X116532000Y-129228326D01*
X116323988Y-129314488D01*
X116136781Y-129439575D01*
X115977575Y-129598781D01*
X115852488Y-129785988D01*
X115766326Y-129994000D01*
X115722401Y-130214825D01*
X105682979Y-130214825D01*
X105669312Y-130209164D01*
X105497559Y-130175000D01*
X105322441Y-130175000D01*
X105150688Y-130209164D01*
X104988901Y-130276179D01*
X104843296Y-130373469D01*
X104719469Y-130497296D01*
X104622179Y-130642901D01*
X104555164Y-130804688D01*
X104521000Y-130976441D01*
X102768000Y-130976441D01*
X102768000Y-127928441D01*
X104267000Y-127928441D01*
X104267000Y-128103559D01*
X104301164Y-128275312D01*
X104368179Y-128437099D01*
X104465469Y-128582704D01*
X104589296Y-128706531D01*
X104734901Y-128803821D01*
X104896688Y-128870836D01*
X105068441Y-128905000D01*
X105243559Y-128905000D01*
X105415312Y-128870836D01*
X105577099Y-128803821D01*
X105722704Y-128706531D01*
X105738794Y-128690441D01*
X110363000Y-128690441D01*
X110363000Y-128865559D01*
X110397164Y-129037312D01*
X110464179Y-129199099D01*
X110561469Y-129344704D01*
X110685296Y-129468531D01*
X110830901Y-129565821D01*
X110992688Y-129632836D01*
X111164441Y-129667000D01*
X111339559Y-129667000D01*
X111511312Y-129632836D01*
X111673099Y-129565821D01*
X111818704Y-129468531D01*
X111942531Y-129344704D01*
X112039821Y-129199099D01*
X112106836Y-129037312D01*
X112141000Y-128865559D01*
X112141000Y-128690441D01*
X112106836Y-128518688D01*
X112039821Y-128356901D01*
X111942531Y-128211296D01*
X111818704Y-128087469D01*
X111673099Y-127990179D01*
X111511312Y-127923164D01*
X111339559Y-127889000D01*
X111164441Y-127889000D01*
X110992688Y-127923164D01*
X110830901Y-127990179D01*
X110685296Y-128087469D01*
X110561469Y-128211296D01*
X110464179Y-128356901D01*
X110397164Y-128518688D01*
X110363000Y-128690441D01*
X105738794Y-128690441D01*
X105846531Y-128582704D01*
X105943821Y-128437099D01*
X106010836Y-128275312D01*
X106045000Y-128103559D01*
X106045000Y-127928441D01*
X106010836Y-127756688D01*
X105943821Y-127594901D01*
X105846531Y-127449296D01*
X105722704Y-127325469D01*
X105577099Y-127228179D01*
X105415312Y-127161164D01*
X105243559Y-127127000D01*
X105068441Y-127127000D01*
X104896688Y-127161164D01*
X104734901Y-127228179D01*
X104589296Y-127325469D01*
X104465469Y-127449296D01*
X104368179Y-127594901D01*
X104301164Y-127756688D01*
X104267000Y-127928441D01*
X102768000Y-127928441D01*
X102768000Y-126150441D01*
X110363000Y-126150441D01*
X110363000Y-126325559D01*
X110397164Y-126497312D01*
X110464179Y-126659099D01*
X110561469Y-126804704D01*
X110685296Y-126928531D01*
X110830901Y-127025821D01*
X110992688Y-127092836D01*
X111164441Y-127127000D01*
X111339559Y-127127000D01*
X111511312Y-127092836D01*
X111673099Y-127025821D01*
X111818704Y-126928531D01*
X111834794Y-126912441D01*
X125857000Y-126912441D01*
X125857000Y-127087559D01*
X125891164Y-127259312D01*
X125958179Y-127421099D01*
X126055469Y-127566704D01*
X126179296Y-127690531D01*
X126324901Y-127787821D01*
X126486688Y-127854836D01*
X126658441Y-127889000D01*
X126833559Y-127889000D01*
X127005312Y-127854836D01*
X127167099Y-127787821D01*
X127312704Y-127690531D01*
X127436531Y-127566704D01*
X127533821Y-127421099D01*
X127600836Y-127259312D01*
X127635000Y-127087559D01*
X127635000Y-126912441D01*
X127625207Y-126863207D01*
X127674441Y-126873000D01*
X127849559Y-126873000D01*
X128021312Y-126838836D01*
X128183099Y-126771821D01*
X128328704Y-126674531D01*
X128452531Y-126550704D01*
X128549821Y-126405099D01*
X128616836Y-126243312D01*
X128651000Y-126071559D01*
X128651000Y-125896441D01*
X128616836Y-125724688D01*
X128549821Y-125562901D01*
X128452531Y-125417296D01*
X128328704Y-125293469D01*
X128183099Y-125196179D01*
X128021312Y-125129164D01*
X127849559Y-125095000D01*
X127674441Y-125095000D01*
X127502688Y-125129164D01*
X127340901Y-125196179D01*
X127195296Y-125293469D01*
X127071469Y-125417296D01*
X126974179Y-125562901D01*
X126907164Y-125724688D01*
X126873000Y-125896441D01*
X126873000Y-126071559D01*
X126882793Y-126120793D01*
X126833559Y-126111000D01*
X126658441Y-126111000D01*
X126486688Y-126145164D01*
X126324901Y-126212179D01*
X126179296Y-126309469D01*
X126055469Y-126433296D01*
X125958179Y-126578901D01*
X125891164Y-126740688D01*
X125857000Y-126912441D01*
X111834794Y-126912441D01*
X111942531Y-126804704D01*
X112039821Y-126659099D01*
X112106836Y-126497312D01*
X112141000Y-126325559D01*
X112141000Y-126150441D01*
X112106836Y-125978688D01*
X112072768Y-125896441D01*
X119303800Y-125896441D01*
X119303800Y-126071559D01*
X119337964Y-126243312D01*
X119404979Y-126405099D01*
X119502269Y-126550704D01*
X119626096Y-126674531D01*
X119771701Y-126771821D01*
X119933488Y-126838836D01*
X120105241Y-126873000D01*
X120280359Y-126873000D01*
X120452112Y-126838836D01*
X120613899Y-126771821D01*
X120759504Y-126674531D01*
X120883331Y-126550704D01*
X120980621Y-126405099D01*
X121047636Y-126243312D01*
X121081800Y-126071559D01*
X121081800Y-125896441D01*
X121047636Y-125724688D01*
X120980621Y-125562901D01*
X120883331Y-125417296D01*
X120759504Y-125293469D01*
X120613899Y-125196179D01*
X120452112Y-125129164D01*
X120280359Y-125095000D01*
X120105241Y-125095000D01*
X119933488Y-125129164D01*
X119771701Y-125196179D01*
X119626096Y-125293469D01*
X119502269Y-125417296D01*
X119404979Y-125562901D01*
X119337964Y-125724688D01*
X119303800Y-125896441D01*
X112072768Y-125896441D01*
X112039821Y-125816901D01*
X111942531Y-125671296D01*
X111818704Y-125547469D01*
X111673099Y-125450179D01*
X111511312Y-125383164D01*
X111339559Y-125349000D01*
X111164441Y-125349000D01*
X110992688Y-125383164D01*
X110830901Y-125450179D01*
X110685296Y-125547469D01*
X110561469Y-125671296D01*
X110464179Y-125816901D01*
X110397164Y-125978688D01*
X110363000Y-126150441D01*
X102768000Y-126150441D01*
X102768000Y-124601424D01*
X117221000Y-124601424D01*
X117221000Y-124826576D01*
X117264925Y-125047401D01*
X117351087Y-125255413D01*
X117476174Y-125442620D01*
X117635380Y-125601826D01*
X117822587Y-125726913D01*
X118030599Y-125813075D01*
X118251424Y-125857000D01*
X118476576Y-125857000D01*
X118697401Y-125813075D01*
X118905413Y-125726913D01*
X119092620Y-125601826D01*
X119251826Y-125442620D01*
X119376913Y-125255413D01*
X119463075Y-125047401D01*
X119507000Y-124826576D01*
X119507000Y-124601424D01*
X119463075Y-124380599D01*
X119376913Y-124172587D01*
X119259738Y-123997222D01*
X119374688Y-124044836D01*
X119546441Y-124079000D01*
X119721559Y-124079000D01*
X119893312Y-124044836D01*
X120055099Y-123977821D01*
X120200704Y-123880531D01*
X120216744Y-123864491D01*
X122402640Y-123864491D01*
X122402640Y-124039609D01*
X122436804Y-124211362D01*
X122503819Y-124373149D01*
X122601109Y-124518754D01*
X122724936Y-124642581D01*
X122870541Y-124739871D01*
X123032328Y-124806886D01*
X123204081Y-124841050D01*
X123379199Y-124841050D01*
X123550952Y-124806886D01*
X123712739Y-124739871D01*
X123858344Y-124642581D01*
X123982171Y-124518754D01*
X124079461Y-124373149D01*
X124146476Y-124211362D01*
X124180640Y-124039609D01*
X124180640Y-123864491D01*
X124146476Y-123692738D01*
X124079461Y-123530951D01*
X123982171Y-123385346D01*
X123858344Y-123261519D01*
X123712739Y-123164229D01*
X123563571Y-123102441D01*
X127635000Y-123102441D01*
X127635000Y-123277559D01*
X127669164Y-123449312D01*
X127736179Y-123611099D01*
X127833469Y-123756704D01*
X127957296Y-123880531D01*
X128102901Y-123977821D01*
X128264688Y-124044836D01*
X128436441Y-124079000D01*
X128611559Y-124079000D01*
X128783312Y-124044836D01*
X128945099Y-123977821D01*
X129090704Y-123880531D01*
X129214531Y-123756704D01*
X129311821Y-123611099D01*
X129378836Y-123449312D01*
X129413000Y-123277559D01*
X129413000Y-123102441D01*
X129378836Y-122930688D01*
X129311821Y-122768901D01*
X129214531Y-122623296D01*
X129090704Y-122499469D01*
X128945099Y-122402179D01*
X128783312Y-122335164D01*
X128611559Y-122301000D01*
X128436441Y-122301000D01*
X128264688Y-122335164D01*
X128102901Y-122402179D01*
X127957296Y-122499469D01*
X127833469Y-122623296D01*
X127736179Y-122768901D01*
X127669164Y-122930688D01*
X127635000Y-123102441D01*
X123563571Y-123102441D01*
X123550952Y-123097214D01*
X123379199Y-123063050D01*
X123204081Y-123063050D01*
X123032328Y-123097214D01*
X122870541Y-123164229D01*
X122724936Y-123261519D01*
X122601109Y-123385346D01*
X122503819Y-123530951D01*
X122436804Y-123692738D01*
X122402640Y-123864491D01*
X120216744Y-123864491D01*
X120324531Y-123756704D01*
X120421821Y-123611099D01*
X120488836Y-123449312D01*
X120523000Y-123277559D01*
X120523000Y-123102441D01*
X120488836Y-122930688D01*
X120421821Y-122768901D01*
X120324531Y-122623296D01*
X120200704Y-122499469D01*
X120055099Y-122402179D01*
X119893312Y-122335164D01*
X119721559Y-122301000D01*
X119546441Y-122301000D01*
X119374688Y-122335164D01*
X119212901Y-122402179D01*
X119067296Y-122499469D01*
X118943469Y-122623296D01*
X118846179Y-122768901D01*
X118779164Y-122930688D01*
X118745000Y-123102441D01*
X118745000Y-123277559D01*
X118779164Y-123449312D01*
X118846179Y-123611099D01*
X118907028Y-123702166D01*
X118905413Y-123701087D01*
X118697401Y-123614925D01*
X118476576Y-123571000D01*
X118251424Y-123571000D01*
X118030599Y-123614925D01*
X117822587Y-123701087D01*
X117635380Y-123826174D01*
X117476174Y-123985380D01*
X117351087Y-124172587D01*
X117264925Y-124380599D01*
X117221000Y-124601424D01*
X102768000Y-124601424D01*
X102768000Y-122086441D01*
X121793000Y-122086441D01*
X121793000Y-122261559D01*
X121827164Y-122433312D01*
X121894179Y-122595099D01*
X121991469Y-122740704D01*
X122115296Y-122864531D01*
X122260901Y-122961821D01*
X122422688Y-123028836D01*
X122594441Y-123063000D01*
X122769559Y-123063000D01*
X122941312Y-123028836D01*
X123103099Y-122961821D01*
X123248704Y-122864531D01*
X123372531Y-122740704D01*
X123469821Y-122595099D01*
X123536836Y-122433312D01*
X123571000Y-122261559D01*
X123571000Y-122086441D01*
X123558037Y-122021272D01*
X123639296Y-122102531D01*
X123784901Y-122199821D01*
X123946688Y-122266836D01*
X124118441Y-122301000D01*
X124293559Y-122301000D01*
X124465312Y-122266836D01*
X124627099Y-122199821D01*
X124772704Y-122102531D01*
X124896531Y-121978704D01*
X124993821Y-121833099D01*
X125060836Y-121671312D01*
X125095000Y-121499559D01*
X125095000Y-121324441D01*
X125060836Y-121152688D01*
X124993821Y-120990901D01*
X124896531Y-120845296D01*
X124772704Y-120721469D01*
X124627099Y-120624179D01*
X124478052Y-120562441D01*
X127889000Y-120562441D01*
X127889000Y-120737559D01*
X127923164Y-120909312D01*
X127990179Y-121071099D01*
X128087469Y-121216704D01*
X128211296Y-121340531D01*
X128356901Y-121437821D01*
X128518688Y-121504836D01*
X128690441Y-121539000D01*
X128865559Y-121539000D01*
X129037312Y-121504836D01*
X129199099Y-121437821D01*
X129344704Y-121340531D01*
X129468531Y-121216704D01*
X129565821Y-121071099D01*
X129632836Y-120909312D01*
X129667000Y-120737559D01*
X129667000Y-120562441D01*
X135763000Y-120562441D01*
X135763000Y-120737559D01*
X135797164Y-120909312D01*
X135864179Y-121071099D01*
X135961469Y-121216704D01*
X136085296Y-121340531D01*
X136192257Y-121412000D01*
X136085296Y-121483469D01*
X135961469Y-121607296D01*
X135864179Y-121752901D01*
X135797164Y-121914688D01*
X135763000Y-122086441D01*
X135763000Y-122261559D01*
X135797164Y-122433312D01*
X135864179Y-122595099D01*
X135961469Y-122740704D01*
X136085296Y-122864531D01*
X136230901Y-122961821D01*
X136392688Y-123028836D01*
X136564441Y-123063000D01*
X136739559Y-123063000D01*
X136911312Y-123028836D01*
X137073099Y-122961821D01*
X137218704Y-122864531D01*
X137342531Y-122740704D01*
X137439821Y-122595099D01*
X137465871Y-122532210D01*
X137580441Y-122555000D01*
X137755559Y-122555000D01*
X137927312Y-122520836D01*
X138089099Y-122453821D01*
X138234704Y-122356531D01*
X138358531Y-122232704D01*
X138455821Y-122087099D01*
X138522836Y-121925312D01*
X138557000Y-121753559D01*
X138557000Y-121578441D01*
X138522836Y-121406688D01*
X138455821Y-121244901D01*
X138358531Y-121099296D01*
X138234704Y-120975469D01*
X138089099Y-120878179D01*
X137927312Y-120811164D01*
X137755559Y-120777000D01*
X137580441Y-120777000D01*
X137531207Y-120786793D01*
X137541000Y-120737559D01*
X137541000Y-120562441D01*
X137506836Y-120390688D01*
X137439821Y-120228901D01*
X137342531Y-120083296D01*
X137313676Y-120054441D01*
X138811000Y-120054441D01*
X138811000Y-120229559D01*
X138845164Y-120401312D01*
X138912179Y-120563099D01*
X139009469Y-120708704D01*
X139133296Y-120832531D01*
X139278901Y-120929821D01*
X139440688Y-120996836D01*
X139612441Y-121031000D01*
X139787559Y-121031000D01*
X139959312Y-120996836D01*
X140121099Y-120929821D01*
X140266704Y-120832531D01*
X140390531Y-120708704D01*
X140487821Y-120563099D01*
X140554836Y-120401312D01*
X140589000Y-120229559D01*
X140589000Y-120054441D01*
X140554836Y-119882688D01*
X140487821Y-119720901D01*
X140390531Y-119575296D01*
X140266704Y-119451469D01*
X140121099Y-119354179D01*
X139959312Y-119287164D01*
X139787559Y-119253000D01*
X139612441Y-119253000D01*
X139440688Y-119287164D01*
X139278901Y-119354179D01*
X139133296Y-119451469D01*
X139009469Y-119575296D01*
X138912179Y-119720901D01*
X138845164Y-119882688D01*
X138811000Y-120054441D01*
X137313676Y-120054441D01*
X137218704Y-119959469D01*
X137073099Y-119862179D01*
X136911312Y-119795164D01*
X136739559Y-119761000D01*
X136564441Y-119761000D01*
X136392688Y-119795164D01*
X136230901Y-119862179D01*
X136085296Y-119959469D01*
X135961469Y-120083296D01*
X135864179Y-120228901D01*
X135797164Y-120390688D01*
X135763000Y-120562441D01*
X129667000Y-120562441D01*
X129632836Y-120390688D01*
X129565821Y-120228901D01*
X129468531Y-120083296D01*
X129344704Y-119959469D01*
X129199099Y-119862179D01*
X129037312Y-119795164D01*
X128865559Y-119761000D01*
X128690441Y-119761000D01*
X128518688Y-119795164D01*
X128356901Y-119862179D01*
X128211296Y-119959469D01*
X128087469Y-120083296D01*
X127990179Y-120228901D01*
X127923164Y-120390688D01*
X127889000Y-120562441D01*
X124478052Y-120562441D01*
X124465312Y-120557164D01*
X124293559Y-120523000D01*
X124118441Y-120523000D01*
X123946688Y-120557164D01*
X123784901Y-120624179D01*
X123639296Y-120721469D01*
X123515469Y-120845296D01*
X123418179Y-120990901D01*
X123351164Y-121152688D01*
X123317000Y-121324441D01*
X123317000Y-121499559D01*
X123329963Y-121564728D01*
X123248704Y-121483469D01*
X123103099Y-121386179D01*
X122941312Y-121319164D01*
X122769559Y-121285000D01*
X122594441Y-121285000D01*
X122422688Y-121319164D01*
X122260901Y-121386179D01*
X122115296Y-121483469D01*
X121991469Y-121607296D01*
X121894179Y-121752901D01*
X121827164Y-121914688D01*
X121793000Y-122086441D01*
X102768000Y-122086441D01*
X102768000Y-119800441D01*
X108077000Y-119800441D01*
X108077000Y-119975559D01*
X108111164Y-120147312D01*
X108178179Y-120309099D01*
X108275469Y-120454704D01*
X108399296Y-120578531D01*
X108544901Y-120675821D01*
X108706688Y-120742836D01*
X108878441Y-120777000D01*
X109053559Y-120777000D01*
X109225312Y-120742836D01*
X109387099Y-120675821D01*
X109532704Y-120578531D01*
X109601000Y-120510235D01*
X109669296Y-120578531D01*
X109814901Y-120675821D01*
X109976688Y-120742836D01*
X110148441Y-120777000D01*
X110323559Y-120777000D01*
X110495312Y-120742836D01*
X110657099Y-120675821D01*
X110802704Y-120578531D01*
X110926531Y-120454704D01*
X111023821Y-120309099D01*
X111090836Y-120147312D01*
X111125000Y-119975559D01*
X111125000Y-119800441D01*
X114935000Y-119800441D01*
X114935000Y-119975559D01*
X114969164Y-120147312D01*
X115036179Y-120309099D01*
X115133469Y-120454704D01*
X115257296Y-120578531D01*
X115402901Y-120675821D01*
X115564688Y-120742836D01*
X115736441Y-120777000D01*
X115911559Y-120777000D01*
X116083312Y-120742836D01*
X116245099Y-120675821D01*
X116390704Y-120578531D01*
X116514531Y-120454704D01*
X116611821Y-120309099D01*
X116678836Y-120147312D01*
X116713000Y-119975559D01*
X116713000Y-119800441D01*
X116678836Y-119628688D01*
X116611821Y-119466901D01*
X116514531Y-119321296D01*
X116390704Y-119197469D01*
X116245099Y-119100179D01*
X116083312Y-119033164D01*
X115911559Y-118999000D01*
X115736441Y-118999000D01*
X115564688Y-119033164D01*
X115402901Y-119100179D01*
X115257296Y-119197469D01*
X115133469Y-119321296D01*
X115036179Y-119466901D01*
X114969164Y-119628688D01*
X114935000Y-119800441D01*
X111125000Y-119800441D01*
X111090836Y-119628688D01*
X111023821Y-119466901D01*
X110926531Y-119321296D01*
X110802704Y-119197469D01*
X110657099Y-119100179D01*
X110495312Y-119033164D01*
X110323559Y-118999000D01*
X110148441Y-118999000D01*
X109976688Y-119033164D01*
X109814901Y-119100179D01*
X109669296Y-119197469D01*
X109601000Y-119265765D01*
X109532704Y-119197469D01*
X109387099Y-119100179D01*
X109225312Y-119033164D01*
X109053559Y-118999000D01*
X108878441Y-118999000D01*
X108706688Y-119033164D01*
X108544901Y-119100179D01*
X108399296Y-119197469D01*
X108275469Y-119321296D01*
X108178179Y-119466901D01*
X108111164Y-119628688D01*
X108077000Y-119800441D01*
X102768000Y-119800441D01*
X102768000Y-118784441D01*
X120015000Y-118784441D01*
X120015000Y-118959559D01*
X120049164Y-119131312D01*
X120116179Y-119293099D01*
X120213469Y-119438704D01*
X120337296Y-119562531D01*
X120482901Y-119659821D01*
X120644688Y-119726836D01*
X120816441Y-119761000D01*
X120991559Y-119761000D01*
X121163312Y-119726836D01*
X121285000Y-119676431D01*
X121285000Y-119721559D01*
X121307790Y-119836129D01*
X121244901Y-119862179D01*
X121099296Y-119959469D01*
X120975469Y-120083296D01*
X120878179Y-120228901D01*
X120811164Y-120390688D01*
X120777000Y-120562441D01*
X120777000Y-120737559D01*
X120811164Y-120909312D01*
X120878179Y-121071099D01*
X120975469Y-121216704D01*
X121099296Y-121340531D01*
X121244901Y-121437821D01*
X121406688Y-121504836D01*
X121578441Y-121539000D01*
X121753559Y-121539000D01*
X121925312Y-121504836D01*
X122087099Y-121437821D01*
X122232704Y-121340531D01*
X122356531Y-121216704D01*
X122453821Y-121071099D01*
X122520836Y-120909312D01*
X122555000Y-120737559D01*
X122555000Y-120562441D01*
X122532210Y-120447871D01*
X122595099Y-120421821D01*
X122740704Y-120324531D01*
X122864531Y-120200704D01*
X122961821Y-120055099D01*
X123028836Y-119893312D01*
X123063000Y-119721559D01*
X123063000Y-119546441D01*
X123028836Y-119374688D01*
X122961821Y-119212901D01*
X122864531Y-119067296D01*
X122740704Y-118943469D01*
X122595099Y-118846179D01*
X122446052Y-118784441D01*
X130937000Y-118784441D01*
X130937000Y-118959559D01*
X130971164Y-119131312D01*
X131038179Y-119293099D01*
X131135469Y-119438704D01*
X131259296Y-119562531D01*
X131404901Y-119659821D01*
X131566688Y-119726836D01*
X131738441Y-119761000D01*
X131913559Y-119761000D01*
X132085312Y-119726836D01*
X132247099Y-119659821D01*
X132392704Y-119562531D01*
X132516531Y-119438704D01*
X132613821Y-119293099D01*
X132680836Y-119131312D01*
X132715000Y-118959559D01*
X132749164Y-119131312D01*
X132816179Y-119293099D01*
X132913469Y-119438704D01*
X133037296Y-119562531D01*
X133182901Y-119659821D01*
X133344688Y-119726836D01*
X133516441Y-119761000D01*
X133691559Y-119761000D01*
X133863312Y-119726836D01*
X134025099Y-119659821D01*
X134170704Y-119562531D01*
X134294531Y-119438704D01*
X134391821Y-119293099D01*
X134458836Y-119131312D01*
X134493000Y-118959559D01*
X134493000Y-118784441D01*
X134458836Y-118612688D01*
X134391821Y-118450901D01*
X134294531Y-118305296D01*
X134170704Y-118181469D01*
X134025099Y-118084179D01*
X133863312Y-118017164D01*
X133691559Y-117983000D01*
X133516441Y-117983000D01*
X133344688Y-118017164D01*
X133182901Y-118084179D01*
X133037296Y-118181469D01*
X132913469Y-118305296D01*
X132816179Y-118450901D01*
X132749164Y-118612688D01*
X132715000Y-118784441D01*
X132680836Y-118612688D01*
X132613821Y-118450901D01*
X132516531Y-118305296D01*
X132392704Y-118181469D01*
X132247099Y-118084179D01*
X132085312Y-118017164D01*
X131913559Y-117983000D01*
X131738441Y-117983000D01*
X131566688Y-118017164D01*
X131404901Y-118084179D01*
X131259296Y-118181469D01*
X131135469Y-118305296D01*
X131038179Y-118450901D01*
X130971164Y-118612688D01*
X130937000Y-118784441D01*
X122446052Y-118784441D01*
X122433312Y-118779164D01*
X122261559Y-118745000D01*
X122086441Y-118745000D01*
X121914688Y-118779164D01*
X121793000Y-118829569D01*
X121793000Y-118784441D01*
X121758836Y-118612688D01*
X121691821Y-118450901D01*
X121594531Y-118305296D01*
X121470704Y-118181469D01*
X121325099Y-118084179D01*
X121163312Y-118017164D01*
X120991559Y-117983000D01*
X120816441Y-117983000D01*
X120644688Y-118017164D01*
X120482901Y-118084179D01*
X120337296Y-118181469D01*
X120213469Y-118305296D01*
X120116179Y-118450901D01*
X120049164Y-118612688D01*
X120015000Y-118784441D01*
X102768000Y-118784441D01*
X102768000Y-116196980D01*
X120837437Y-116196980D01*
X120908429Y-116415094D01*
X121052031Y-116690923D01*
X121246685Y-116933437D01*
X121484911Y-117133316D01*
X121757554Y-117282879D01*
X122054137Y-117376378D01*
X122301000Y-117249570D01*
X122301000Y-115951000D01*
X122555000Y-115951000D01*
X122555000Y-117249570D01*
X122801863Y-117376378D01*
X123098446Y-117282879D01*
X123371089Y-117133316D01*
X123609315Y-116933437D01*
X123803969Y-116690923D01*
X123947571Y-116415094D01*
X124018563Y-116196980D01*
X123898594Y-115951000D01*
X122555000Y-115951000D01*
X122301000Y-115951000D01*
X120957406Y-115951000D01*
X120837437Y-116196980D01*
X102768000Y-116196980D01*
X102768000Y-113284000D01*
X120785319Y-113284000D01*
X120815970Y-113595204D01*
X120906745Y-113894449D01*
X121054155Y-114170235D01*
X121252537Y-114411963D01*
X121431899Y-114559163D01*
X121246685Y-114714563D01*
X121052031Y-114957077D01*
X120908429Y-115232906D01*
X120837437Y-115451020D01*
X120957406Y-115697000D01*
X122301000Y-115697000D01*
X122301000Y-115677000D01*
X122555000Y-115677000D01*
X122555000Y-115697000D01*
X123898594Y-115697000D01*
X124018563Y-115451020D01*
X123947571Y-115232906D01*
X123803969Y-114957077D01*
X123609315Y-114714563D01*
X123424101Y-114559163D01*
X123603463Y-114411963D01*
X123801845Y-114170235D01*
X123949255Y-113894449D01*
X124040030Y-113595204D01*
X124070681Y-113284000D01*
X124047546Y-113049098D01*
X136703000Y-113049098D01*
X136703000Y-113518902D01*
X136794654Y-113979679D01*
X136974440Y-114413721D01*
X137235450Y-114804349D01*
X137567651Y-115136550D01*
X137958279Y-115397560D01*
X138392321Y-115577346D01*
X138853098Y-115669000D01*
X139322902Y-115669000D01*
X139783679Y-115577346D01*
X140217721Y-115397560D01*
X140608349Y-115136550D01*
X140940550Y-114804349D01*
X141201560Y-114413721D01*
X141381346Y-113979679D01*
X141473000Y-113518902D01*
X141473000Y-113049098D01*
X141381346Y-112588321D01*
X141201560Y-112154279D01*
X140940550Y-111763651D01*
X140608349Y-111431450D01*
X140217721Y-111170440D01*
X139783679Y-110990654D01*
X139322902Y-110899000D01*
X138853098Y-110899000D01*
X138392321Y-110990654D01*
X137958279Y-111170440D01*
X137567651Y-111431450D01*
X137235450Y-111763651D01*
X136974440Y-112154279D01*
X136794654Y-112588321D01*
X136703000Y-113049098D01*
X124047546Y-113049098D01*
X124040030Y-112972796D01*
X123949255Y-112673551D01*
X123801845Y-112397765D01*
X123698554Y-112271905D01*
X123782494Y-112227037D01*
X123879185Y-112147685D01*
X123958537Y-112050994D01*
X124017502Y-111940680D01*
X124053812Y-111820982D01*
X124066072Y-111696500D01*
X124066072Y-109894441D01*
X142621000Y-109894441D01*
X142621000Y-110069559D01*
X142655164Y-110241312D01*
X142722179Y-110403099D01*
X142819469Y-110548704D01*
X142943296Y-110672531D01*
X143088901Y-110769821D01*
X143250688Y-110836836D01*
X143422441Y-110871000D01*
X143597559Y-110871000D01*
X143769312Y-110836836D01*
X143931099Y-110769821D01*
X144076704Y-110672531D01*
X144200531Y-110548704D01*
X144297821Y-110403099D01*
X144364836Y-110241312D01*
X144399000Y-110069559D01*
X144399000Y-109894441D01*
X144364836Y-109722688D01*
X144297821Y-109560901D01*
X144200531Y-109415296D01*
X144076704Y-109291469D01*
X143931099Y-109194179D01*
X143769312Y-109127164D01*
X143597559Y-109093000D01*
X143422441Y-109093000D01*
X143250688Y-109127164D01*
X143088901Y-109194179D01*
X142943296Y-109291469D01*
X142819469Y-109415296D01*
X142722179Y-109560901D01*
X142655164Y-109722688D01*
X142621000Y-109894441D01*
X124066072Y-109894441D01*
X124066072Y-109791500D01*
X124053812Y-109667018D01*
X124017502Y-109547320D01*
X123958537Y-109437006D01*
X123879185Y-109340315D01*
X123782494Y-109260963D01*
X123672180Y-109201998D01*
X123552482Y-109165688D01*
X123428000Y-109153428D01*
X121428000Y-109153428D01*
X121303518Y-109165688D01*
X121183820Y-109201998D01*
X121073506Y-109260963D01*
X120976815Y-109340315D01*
X120897463Y-109437006D01*
X120838498Y-109547320D01*
X120802188Y-109667018D01*
X120789928Y-109791500D01*
X120789928Y-111696500D01*
X120802188Y-111820982D01*
X120838498Y-111940680D01*
X120897463Y-112050994D01*
X120976815Y-112147685D01*
X121073506Y-112227037D01*
X121157446Y-112271905D01*
X121054155Y-112397765D01*
X120906745Y-112673551D01*
X120815970Y-112972796D01*
X120785319Y-113284000D01*
X102768000Y-113284000D01*
X102768000Y-104426418D01*
X110719000Y-104426418D01*
X110721888Y-104455745D01*
X110721778Y-104471550D01*
X110722678Y-104480721D01*
X110774495Y-104973727D01*
X110786522Y-105032320D01*
X110797732Y-105091084D01*
X110800395Y-105099906D01*
X110946984Y-105573458D01*
X110970158Y-105628584D01*
X110992573Y-105684066D01*
X110996900Y-105692202D01*
X111232677Y-106128262D01*
X111266110Y-106177829D01*
X111298881Y-106227908D01*
X111304706Y-106235049D01*
X111620690Y-106617009D01*
X111663107Y-106659131D01*
X111704989Y-106701900D01*
X111712090Y-106707773D01*
X112096246Y-107021084D01*
X112146073Y-107054188D01*
X112195428Y-107087983D01*
X112203531Y-107092364D01*
X112203539Y-107092368D01*
X112641230Y-107325092D01*
X112696536Y-107347888D01*
X112751517Y-107371453D01*
X112760320Y-107374178D01*
X113234885Y-107517457D01*
X113293558Y-107529074D01*
X113352075Y-107541513D01*
X113361240Y-107542476D01*
X113854595Y-107590850D01*
X113854598Y-107590850D01*
X113886581Y-107594000D01*
X133001419Y-107594000D01*
X133030746Y-107591112D01*
X133046550Y-107591222D01*
X133055721Y-107590322D01*
X133548727Y-107538505D01*
X133607320Y-107526478D01*
X133666084Y-107515268D01*
X133674906Y-107512605D01*
X134148458Y-107366016D01*
X134203584Y-107342842D01*
X134259066Y-107320427D01*
X134267202Y-107316100D01*
X134703262Y-107080323D01*
X134752829Y-107046890D01*
X134802908Y-107014119D01*
X134810049Y-107008294D01*
X135192009Y-106692310D01*
X135234131Y-106649893D01*
X135276900Y-106608011D01*
X135282773Y-106600910D01*
X135596084Y-106216754D01*
X135629188Y-106166927D01*
X135662983Y-106117572D01*
X135667364Y-106109469D01*
X135667368Y-106109461D01*
X135900092Y-105671770D01*
X135922888Y-105616464D01*
X135946453Y-105561483D01*
X135949178Y-105552680D01*
X136092457Y-105078115D01*
X136104074Y-105019442D01*
X136116513Y-104960925D01*
X136117476Y-104951760D01*
X136165850Y-104458405D01*
X136165850Y-104458402D01*
X136169000Y-104426419D01*
X136169000Y-84041581D01*
X136166112Y-84012254D01*
X136166222Y-83996451D01*
X136165322Y-83987280D01*
X136113505Y-83494273D01*
X136101490Y-83435742D01*
X136090269Y-83376917D01*
X136087605Y-83368095D01*
X135941016Y-82894542D01*
X135917847Y-82839427D01*
X135895427Y-82783934D01*
X135891100Y-82775798D01*
X135655323Y-82339738D01*
X135621890Y-82290171D01*
X135589119Y-82240092D01*
X135583294Y-82232951D01*
X135267310Y-81850991D01*
X135224874Y-81808850D01*
X135183011Y-81766101D01*
X135175911Y-81760227D01*
X134791754Y-81446917D01*
X134741946Y-81413824D01*
X134692572Y-81380017D01*
X134684466Y-81375634D01*
X134246770Y-81142908D01*
X134191488Y-81120122D01*
X134136483Y-81096547D01*
X134127680Y-81093822D01*
X133653116Y-80950543D01*
X133594428Y-80938923D01*
X133535925Y-80926487D01*
X133526760Y-80925524D01*
X133033405Y-80877150D01*
X133033402Y-80877150D01*
X133001419Y-80874000D01*
X113886581Y-80874000D01*
X113857254Y-80876888D01*
X113841451Y-80876778D01*
X113832280Y-80877678D01*
X113339273Y-80929495D01*
X113280742Y-80941510D01*
X113221917Y-80952731D01*
X113213095Y-80955395D01*
X112739542Y-81101984D01*
X112684427Y-81125153D01*
X112628934Y-81147573D01*
X112620798Y-81151900D01*
X112184738Y-81387677D01*
X112135171Y-81421110D01*
X112085092Y-81453881D01*
X112077951Y-81459706D01*
X111695991Y-81775690D01*
X111653850Y-81818126D01*
X111611101Y-81859989D01*
X111605227Y-81867089D01*
X111291917Y-82251246D01*
X111258824Y-82301054D01*
X111225017Y-82350428D01*
X111220634Y-82358534D01*
X110987908Y-82796230D01*
X110965122Y-82851512D01*
X110941547Y-82906517D01*
X110938822Y-82915320D01*
X110795543Y-83389884D01*
X110783923Y-83448572D01*
X110771487Y-83507075D01*
X110770524Y-83516240D01*
X110722150Y-84009595D01*
X110722150Y-84009608D01*
X110719001Y-84041581D01*
X110719000Y-104426418D01*
X102768000Y-104426418D01*
X102768000Y-95945042D01*
X103344000Y-95945042D01*
X103344000Y-96276958D01*
X103408754Y-96602496D01*
X103535772Y-96909147D01*
X103720175Y-97185125D01*
X103954875Y-97419825D01*
X104230853Y-97604228D01*
X104537504Y-97731246D01*
X104863042Y-97796000D01*
X105194958Y-97796000D01*
X105520496Y-97731246D01*
X105827147Y-97604228D01*
X106103125Y-97419825D01*
X106337825Y-97185125D01*
X106522228Y-96909147D01*
X106649246Y-96602496D01*
X106714000Y-96276958D01*
X106714000Y-95945042D01*
X106649246Y-95619504D01*
X106522228Y-95312853D01*
X106337825Y-95036875D01*
X106103125Y-94802175D01*
X105827147Y-94617772D01*
X105520496Y-94490754D01*
X105194958Y-94426000D01*
X104863042Y-94426000D01*
X104537504Y-94490754D01*
X104230853Y-94617772D01*
X103954875Y-94802175D01*
X103720175Y-95036875D01*
X103535772Y-95312853D01*
X103408754Y-95619504D01*
X103344000Y-95945042D01*
X102768000Y-95945042D01*
X102768000Y-92445042D01*
X103344000Y-92445042D01*
X103344000Y-92776958D01*
X103408754Y-93102496D01*
X103535772Y-93409147D01*
X103720175Y-93685125D01*
X103954875Y-93919825D01*
X104230853Y-94104228D01*
X104537504Y-94231246D01*
X104863042Y-94296000D01*
X105194958Y-94296000D01*
X105520496Y-94231246D01*
X105827147Y-94104228D01*
X106103125Y-93919825D01*
X106337825Y-93685125D01*
X106522228Y-93409147D01*
X106649246Y-93102496D01*
X106714000Y-92776958D01*
X106714000Y-92445042D01*
X106649246Y-92119504D01*
X106522228Y-91812853D01*
X106337825Y-91536875D01*
X106103125Y-91302175D01*
X105827147Y-91117772D01*
X105520496Y-90990754D01*
X105194958Y-90926000D01*
X104863042Y-90926000D01*
X104537504Y-90990754D01*
X104230853Y-91117772D01*
X103954875Y-91302175D01*
X103720175Y-91536875D01*
X103535772Y-91812853D01*
X103408754Y-92119504D01*
X103344000Y-92445042D01*
X102768000Y-92445042D01*
X102768000Y-70680492D01*
X139827000Y-70680492D01*
X139827000Y-71000708D01*
X139889470Y-71314770D01*
X140012012Y-71610611D01*
X140189914Y-71876860D01*
X140416340Y-72103286D01*
X140682589Y-72281188D01*
X140978430Y-72403730D01*
X141292492Y-72466200D01*
X141612708Y-72466200D01*
X141926770Y-72403730D01*
X142222611Y-72281188D01*
X142488860Y-72103286D01*
X142715286Y-71876860D01*
X142893188Y-71610611D01*
X143015730Y-71314770D01*
X143078200Y-71000708D01*
X143078200Y-70680492D01*
X143015730Y-70366430D01*
X142893188Y-70070589D01*
X142715286Y-69804340D01*
X142488860Y-69577914D01*
X142222611Y-69400012D01*
X141926770Y-69277470D01*
X141612708Y-69215000D01*
X141292492Y-69215000D01*
X140978430Y-69277470D01*
X140682589Y-69400012D01*
X140416340Y-69577914D01*
X140189914Y-69804340D01*
X140012012Y-70070589D01*
X139889470Y-70366430D01*
X139827000Y-70680492D01*
X102768000Y-70680492D01*
X102768000Y-33139292D01*
X104317800Y-33139292D01*
X104317800Y-33459508D01*
X104380270Y-33773570D01*
X104502812Y-34069411D01*
X104680714Y-34335660D01*
X104907140Y-34562086D01*
X105173389Y-34739988D01*
X105469230Y-34862530D01*
X105783292Y-34925000D01*
X106103508Y-34925000D01*
X106417570Y-34862530D01*
X106713411Y-34739988D01*
X106979660Y-34562086D01*
X107206086Y-34335660D01*
X107383988Y-34069411D01*
X107506530Y-33773570D01*
X107569000Y-33459508D01*
X107569000Y-33139292D01*
X107506530Y-32825230D01*
X107383988Y-32529389D01*
X107206086Y-32263140D01*
X106979660Y-32036714D01*
X106713411Y-31858812D01*
X106417570Y-31736270D01*
X106103508Y-31673800D01*
X105783292Y-31673800D01*
X105469230Y-31736270D01*
X105173389Y-31858812D01*
X104907140Y-32036714D01*
X104680714Y-32263140D01*
X104502812Y-32529389D01*
X104380270Y-32825230D01*
X104317800Y-33139292D01*
X102768000Y-33139292D01*
X102768000Y-25806000D01*
X144628000Y-25806000D01*
X144628001Y-155577873D01*
G04 #@! TA.AperFunction,Conductor*
D22*
G36*
X144628001Y-155577873D02*
G01*
X144613559Y-155575000D01*
X144438441Y-155575000D01*
X144266688Y-155609164D01*
X144104901Y-155676179D01*
X143959296Y-155773469D01*
X143835469Y-155897296D01*
X143738179Y-156042901D01*
X143671164Y-156204688D01*
X143637000Y-156376441D01*
X143637000Y-156551559D01*
X143671164Y-156723312D01*
X143738179Y-156885099D01*
X143835469Y-157030704D01*
X143959296Y-157154531D01*
X144104901Y-157251821D01*
X144266688Y-157318836D01*
X144438441Y-157353000D01*
X144613559Y-157353000D01*
X144628001Y-157350127D01*
X144628001Y-169547873D01*
X144613559Y-169545000D01*
X144438441Y-169545000D01*
X144266688Y-169579164D01*
X144104901Y-169646179D01*
X143959296Y-169743469D01*
X143835469Y-169867296D01*
X143738179Y-170012901D01*
X143671164Y-170174688D01*
X143637000Y-170346441D01*
X143637000Y-170521559D01*
X143671164Y-170693312D01*
X143738179Y-170855099D01*
X143835469Y-171000704D01*
X143959296Y-171124531D01*
X144104901Y-171221821D01*
X144266688Y-171288836D01*
X144438441Y-171323000D01*
X144613559Y-171323000D01*
X144628001Y-171320127D01*
X144628001Y-176886000D01*
X102768000Y-176886000D01*
X102768000Y-175208976D01*
X113752000Y-175208976D01*
X113752000Y-175467024D01*
X113802342Y-175720113D01*
X113901093Y-175958518D01*
X114044456Y-176173077D01*
X114226923Y-176355544D01*
X114441482Y-176498907D01*
X114679887Y-176597658D01*
X114932976Y-176648000D01*
X115191024Y-176648000D01*
X115444113Y-176597658D01*
X115682518Y-176498907D01*
X115897077Y-176355544D01*
X116062000Y-176190621D01*
X116226923Y-176355544D01*
X116441482Y-176498907D01*
X116679887Y-176597658D01*
X116932976Y-176648000D01*
X117191024Y-176648000D01*
X117444113Y-176597658D01*
X117682518Y-176498907D01*
X117897077Y-176355544D01*
X118062000Y-176190621D01*
X118226923Y-176355544D01*
X118441482Y-176498907D01*
X118679887Y-176597658D01*
X118932976Y-176648000D01*
X119191024Y-176648000D01*
X119444113Y-176597658D01*
X119682518Y-176498907D01*
X119897077Y-176355544D01*
X120062000Y-176190621D01*
X120226923Y-176355544D01*
X120441482Y-176498907D01*
X120679887Y-176597658D01*
X120932976Y-176648000D01*
X121191024Y-176648000D01*
X121444113Y-176597658D01*
X121682518Y-176498907D01*
X121897077Y-176355544D01*
X122062000Y-176190621D01*
X122226923Y-176355544D01*
X122441482Y-176498907D01*
X122679887Y-176597658D01*
X122932976Y-176648000D01*
X123191024Y-176648000D01*
X123444113Y-176597658D01*
X123682518Y-176498907D01*
X123897077Y-176355544D01*
X124062000Y-176190621D01*
X124226923Y-176355544D01*
X124441482Y-176498907D01*
X124679887Y-176597658D01*
X124932976Y-176648000D01*
X125191024Y-176648000D01*
X125444113Y-176597658D01*
X125682518Y-176498907D01*
X125897077Y-176355544D01*
X126062000Y-176190621D01*
X126226923Y-176355544D01*
X126441482Y-176498907D01*
X126679887Y-176597658D01*
X126932976Y-176648000D01*
X127191024Y-176648000D01*
X127444113Y-176597658D01*
X127682518Y-176498907D01*
X127897077Y-176355544D01*
X128062000Y-176190621D01*
X128226923Y-176355544D01*
X128441482Y-176498907D01*
X128679887Y-176597658D01*
X128932976Y-176648000D01*
X129191024Y-176648000D01*
X129444113Y-176597658D01*
X129682518Y-176498907D01*
X129897077Y-176355544D01*
X130062000Y-176190621D01*
X130226923Y-176355544D01*
X130441482Y-176498907D01*
X130679887Y-176597658D01*
X130932976Y-176648000D01*
X131191024Y-176648000D01*
X131444113Y-176597658D01*
X131682518Y-176498907D01*
X131897077Y-176355544D01*
X132062000Y-176190621D01*
X132226923Y-176355544D01*
X132441482Y-176498907D01*
X132679887Y-176597658D01*
X132932976Y-176648000D01*
X133191024Y-176648000D01*
X133444113Y-176597658D01*
X133682518Y-176498907D01*
X133897077Y-176355544D01*
X134079544Y-176173077D01*
X134222907Y-175958518D01*
X134321658Y-175720113D01*
X134372000Y-175467024D01*
X134372000Y-175208976D01*
X134321658Y-174955887D01*
X134222907Y-174717482D01*
X134079544Y-174502923D01*
X133897077Y-174320456D01*
X133682518Y-174177093D01*
X133632660Y-174156441D01*
X140843000Y-174156441D01*
X140843000Y-174331559D01*
X140877164Y-174503312D01*
X140944179Y-174665099D01*
X141041469Y-174810704D01*
X141165296Y-174934531D01*
X141310901Y-175031821D01*
X141472688Y-175098836D01*
X141644441Y-175133000D01*
X141819559Y-175133000D01*
X141991312Y-175098836D01*
X142153099Y-175031821D01*
X142298704Y-174934531D01*
X142422531Y-174810704D01*
X142519821Y-174665099D01*
X142586836Y-174503312D01*
X142621000Y-174331559D01*
X142621000Y-174156441D01*
X142586836Y-173984688D01*
X142519821Y-173822901D01*
X142422531Y-173677296D01*
X142298704Y-173553469D01*
X142153099Y-173456179D01*
X141991312Y-173389164D01*
X141819559Y-173355000D01*
X141644441Y-173355000D01*
X141472688Y-173389164D01*
X141310901Y-173456179D01*
X141165296Y-173553469D01*
X141041469Y-173677296D01*
X140944179Y-173822901D01*
X140877164Y-173984688D01*
X140843000Y-174156441D01*
X133632660Y-174156441D01*
X133444113Y-174078342D01*
X133191024Y-174028000D01*
X132932976Y-174028000D01*
X132679887Y-174078342D01*
X132441482Y-174177093D01*
X132226923Y-174320456D01*
X132062000Y-174485379D01*
X131897077Y-174320456D01*
X131682518Y-174177093D01*
X131444113Y-174078342D01*
X131191024Y-174028000D01*
X130932976Y-174028000D01*
X130679887Y-174078342D01*
X130441482Y-174177093D01*
X130226923Y-174320456D01*
X130062000Y-174485379D01*
X129897077Y-174320456D01*
X129682518Y-174177093D01*
X129444113Y-174078342D01*
X129191024Y-174028000D01*
X128932976Y-174028000D01*
X128679887Y-174078342D01*
X128441482Y-174177093D01*
X128226923Y-174320456D01*
X128062000Y-174485379D01*
X127897077Y-174320456D01*
X127682518Y-174177093D01*
X127444113Y-174078342D01*
X127191024Y-174028000D01*
X126932976Y-174028000D01*
X126679887Y-174078342D01*
X126441482Y-174177093D01*
X126226923Y-174320456D01*
X126062000Y-174485379D01*
X125897077Y-174320456D01*
X125682518Y-174177093D01*
X125444113Y-174078342D01*
X125191024Y-174028000D01*
X124932976Y-174028000D01*
X124679887Y-174078342D01*
X124441482Y-174177093D01*
X124226923Y-174320456D01*
X124062000Y-174485379D01*
X123897077Y-174320456D01*
X123682518Y-174177093D01*
X123444113Y-174078342D01*
X123191024Y-174028000D01*
X122932976Y-174028000D01*
X122679887Y-174078342D01*
X122441482Y-174177093D01*
X122226923Y-174320456D01*
X122062000Y-174485379D01*
X121897077Y-174320456D01*
X121682518Y-174177093D01*
X121444113Y-174078342D01*
X121191024Y-174028000D01*
X120932976Y-174028000D01*
X120679887Y-174078342D01*
X120441482Y-174177093D01*
X120226923Y-174320456D01*
X120062000Y-174485379D01*
X119897077Y-174320456D01*
X119682518Y-174177093D01*
X119444113Y-174078342D01*
X119191024Y-174028000D01*
X118932976Y-174028000D01*
X118679887Y-174078342D01*
X118441482Y-174177093D01*
X118226923Y-174320456D01*
X118062000Y-174485379D01*
X117897077Y-174320456D01*
X117682518Y-174177093D01*
X117444113Y-174078342D01*
X117191024Y-174028000D01*
X116932976Y-174028000D01*
X116679887Y-174078342D01*
X116441482Y-174177093D01*
X116226923Y-174320456D01*
X116062000Y-174485379D01*
X115897077Y-174320456D01*
X115682518Y-174177093D01*
X115444113Y-174078342D01*
X115191024Y-174028000D01*
X114932976Y-174028000D01*
X114679887Y-174078342D01*
X114441482Y-174177093D01*
X114226923Y-174320456D01*
X114044456Y-174502923D01*
X113901093Y-174717482D01*
X113802342Y-174955887D01*
X113752000Y-175208976D01*
X102768000Y-175208976D01*
X102768000Y-172378441D01*
X128651000Y-172378441D01*
X128651000Y-172553559D01*
X128685164Y-172725312D01*
X128752179Y-172887099D01*
X128849469Y-173032704D01*
X128973296Y-173156531D01*
X129118901Y-173253821D01*
X129280688Y-173320836D01*
X129452441Y-173355000D01*
X129627559Y-173355000D01*
X129799312Y-173320836D01*
X129961099Y-173253821D01*
X130106704Y-173156531D01*
X130230531Y-173032704D01*
X130327821Y-172887099D01*
X130394836Y-172725312D01*
X130429000Y-172553559D01*
X130429000Y-172378441D01*
X130394836Y-172206688D01*
X130327821Y-172044901D01*
X130230531Y-171899296D01*
X130201676Y-171870441D01*
X140843000Y-171870441D01*
X140843000Y-172045559D01*
X140877164Y-172217312D01*
X140944179Y-172379099D01*
X141041469Y-172524704D01*
X141165296Y-172648531D01*
X141310901Y-172745821D01*
X141472688Y-172812836D01*
X141644441Y-172847000D01*
X141819559Y-172847000D01*
X141991312Y-172812836D01*
X142153099Y-172745821D01*
X142298704Y-172648531D01*
X142422531Y-172524704D01*
X142519821Y-172379099D01*
X142586836Y-172217312D01*
X142621000Y-172045559D01*
X142621000Y-171870441D01*
X142586836Y-171698688D01*
X142519821Y-171536901D01*
X142422531Y-171391296D01*
X142298704Y-171267469D01*
X142153099Y-171170179D01*
X141991312Y-171103164D01*
X141819559Y-171069000D01*
X141644441Y-171069000D01*
X141472688Y-171103164D01*
X141310901Y-171170179D01*
X141165296Y-171267469D01*
X141041469Y-171391296D01*
X140944179Y-171536901D01*
X140877164Y-171698688D01*
X140843000Y-171870441D01*
X130201676Y-171870441D01*
X130106704Y-171775469D01*
X129961099Y-171678179D01*
X129799312Y-171611164D01*
X129627559Y-171577000D01*
X129452441Y-171577000D01*
X129280688Y-171611164D01*
X129118901Y-171678179D01*
X128973296Y-171775469D01*
X128849469Y-171899296D01*
X128752179Y-172044901D01*
X128685164Y-172206688D01*
X128651000Y-172378441D01*
X102768000Y-172378441D01*
X102768000Y-170596566D01*
X105286875Y-170596566D01*
X105286875Y-170771684D01*
X105321039Y-170943437D01*
X105388054Y-171105224D01*
X105485344Y-171250829D01*
X105609171Y-171374656D01*
X105754776Y-171471946D01*
X105916563Y-171538961D01*
X106088316Y-171573125D01*
X106263434Y-171573125D01*
X106435187Y-171538961D01*
X106596974Y-171471946D01*
X106742579Y-171374656D01*
X106866406Y-171250829D01*
X106963696Y-171105224D01*
X107030711Y-170943437D01*
X107064875Y-170771684D01*
X107064875Y-170596566D01*
X107030711Y-170424813D01*
X106963696Y-170263026D01*
X106866406Y-170117421D01*
X106742579Y-169993594D01*
X106596974Y-169896304D01*
X106435187Y-169829289D01*
X106263434Y-169795125D01*
X106088316Y-169795125D01*
X105916563Y-169829289D01*
X105754776Y-169896304D01*
X105609171Y-169993594D01*
X105485344Y-170117421D01*
X105388054Y-170263026D01*
X105321039Y-170424813D01*
X105286875Y-170596566D01*
X102768000Y-170596566D01*
X102768000Y-168314441D01*
X111125000Y-168314441D01*
X111125000Y-168489559D01*
X111159164Y-168661312D01*
X111226179Y-168823099D01*
X111323469Y-168968704D01*
X111447296Y-169092531D01*
X111592901Y-169189821D01*
X111754688Y-169256836D01*
X111926441Y-169291000D01*
X112101559Y-169291000D01*
X112273312Y-169256836D01*
X112435099Y-169189821D01*
X112580704Y-169092531D01*
X112704531Y-168968704D01*
X112801821Y-168823099D01*
X112868836Y-168661312D01*
X112903000Y-168489559D01*
X112903000Y-168314441D01*
X119761000Y-168314441D01*
X119761000Y-168489559D01*
X119795164Y-168661312D01*
X119862179Y-168823099D01*
X119959469Y-168968704D01*
X120083296Y-169092531D01*
X120228901Y-169189821D01*
X120390688Y-169256836D01*
X120562441Y-169291000D01*
X120737559Y-169291000D01*
X120909312Y-169256836D01*
X121071099Y-169189821D01*
X121216704Y-169092531D01*
X121340531Y-168968704D01*
X121437821Y-168823099D01*
X121504836Y-168661312D01*
X121523309Y-168568441D01*
X122301000Y-168568441D01*
X122301000Y-168743559D01*
X122335164Y-168915312D01*
X122402179Y-169077099D01*
X122499469Y-169222704D01*
X122623296Y-169346531D01*
X122768901Y-169443821D01*
X122930688Y-169510836D01*
X123102441Y-169545000D01*
X123277559Y-169545000D01*
X123449312Y-169510836D01*
X123611099Y-169443821D01*
X123756704Y-169346531D01*
X123880531Y-169222704D01*
X123977821Y-169077099D01*
X124044836Y-168915312D01*
X124079000Y-168743559D01*
X124079000Y-168568441D01*
X124044836Y-168396688D01*
X123977821Y-168234901D01*
X123880531Y-168089296D01*
X123756704Y-167965469D01*
X123611099Y-167868179D01*
X123449312Y-167801164D01*
X123277559Y-167767000D01*
X123102441Y-167767000D01*
X122930688Y-167801164D01*
X122768901Y-167868179D01*
X122623296Y-167965469D01*
X122499469Y-168089296D01*
X122402179Y-168234901D01*
X122335164Y-168396688D01*
X122301000Y-168568441D01*
X121523309Y-168568441D01*
X121539000Y-168489559D01*
X121539000Y-168314441D01*
X121504836Y-168142688D01*
X121437821Y-167980901D01*
X121340531Y-167835296D01*
X121216704Y-167711469D01*
X121071099Y-167614179D01*
X120909312Y-167547164D01*
X120737559Y-167513000D01*
X120562441Y-167513000D01*
X120390688Y-167547164D01*
X120228901Y-167614179D01*
X120083296Y-167711469D01*
X119959469Y-167835296D01*
X119862179Y-167980901D01*
X119795164Y-168142688D01*
X119761000Y-168314441D01*
X112903000Y-168314441D01*
X112868836Y-168142688D01*
X112801821Y-167980901D01*
X112704531Y-167835296D01*
X112580704Y-167711469D01*
X112435099Y-167614179D01*
X112273312Y-167547164D01*
X112101559Y-167513000D01*
X111926441Y-167513000D01*
X111754688Y-167547164D01*
X111592901Y-167614179D01*
X111447296Y-167711469D01*
X111323469Y-167835296D01*
X111226179Y-167980901D01*
X111159164Y-168142688D01*
X111125000Y-168314441D01*
X102768000Y-168314441D01*
X102768000Y-167310823D01*
X126352618Y-167310823D01*
X126352618Y-167485941D01*
X126386782Y-167657694D01*
X126453797Y-167819481D01*
X126551087Y-167965086D01*
X126674914Y-168088913D01*
X126820519Y-168186203D01*
X126982306Y-168253218D01*
X127154059Y-168287382D01*
X127329177Y-168287382D01*
X127500930Y-168253218D01*
X127662717Y-168186203D01*
X127808322Y-168088913D01*
X127932149Y-167965086D01*
X128029439Y-167819481D01*
X128096454Y-167657694D01*
X128130618Y-167485941D01*
X128130618Y-167310823D01*
X128096454Y-167139070D01*
X128029439Y-166977283D01*
X127932149Y-166831678D01*
X127808322Y-166707851D01*
X127662717Y-166610561D01*
X127500930Y-166543546D01*
X127329177Y-166509382D01*
X127154059Y-166509382D01*
X126982306Y-166543546D01*
X126820519Y-166610561D01*
X126674914Y-166707851D01*
X126551087Y-166831678D01*
X126453797Y-166977283D01*
X126386782Y-167139070D01*
X126352618Y-167310823D01*
X102768000Y-167310823D01*
X102768000Y-166282441D01*
X132207000Y-166282441D01*
X132207000Y-166457559D01*
X132241164Y-166629312D01*
X132308179Y-166791099D01*
X132405469Y-166936704D01*
X132529296Y-167060531D01*
X132674901Y-167157821D01*
X132836688Y-167224836D01*
X133008441Y-167259000D01*
X133183559Y-167259000D01*
X133355312Y-167224836D01*
X133517099Y-167157821D01*
X133662704Y-167060531D01*
X133786531Y-166936704D01*
X133883821Y-166791099D01*
X133950836Y-166629312D01*
X133985000Y-166457559D01*
X133985000Y-166282441D01*
X133950836Y-166110688D01*
X133883821Y-165948901D01*
X133860026Y-165913288D01*
X138289000Y-165913288D01*
X138289000Y-166146712D01*
X138334539Y-166375652D01*
X138423866Y-166591308D01*
X138553550Y-166785394D01*
X138718606Y-166950450D01*
X138912692Y-167080134D01*
X139128348Y-167169461D01*
X139357288Y-167215000D01*
X139590712Y-167215000D01*
X139819652Y-167169461D01*
X140035308Y-167080134D01*
X140229394Y-166950450D01*
X140394450Y-166785394D01*
X140524134Y-166591308D01*
X140613461Y-166375652D01*
X140659000Y-166146712D01*
X140659000Y-165913288D01*
X140613461Y-165684348D01*
X140524134Y-165468692D01*
X140394450Y-165274606D01*
X140229394Y-165109550D01*
X140035308Y-164979866D01*
X139819652Y-164890539D01*
X139590712Y-164845000D01*
X139357288Y-164845000D01*
X139128348Y-164890539D01*
X138912692Y-164979866D01*
X138718606Y-165109550D01*
X138553550Y-165274606D01*
X138423866Y-165468692D01*
X138334539Y-165684348D01*
X138289000Y-165913288D01*
X133860026Y-165913288D01*
X133786531Y-165803296D01*
X133662704Y-165679469D01*
X133517099Y-165582179D01*
X133355312Y-165515164D01*
X133183559Y-165481000D01*
X133008441Y-165481000D01*
X132836688Y-165515164D01*
X132674901Y-165582179D01*
X132529296Y-165679469D01*
X132405469Y-165803296D01*
X132308179Y-165948901D01*
X132241164Y-166110688D01*
X132207000Y-166282441D01*
X102768000Y-166282441D01*
X102768000Y-162726441D01*
X111125000Y-162726441D01*
X111125000Y-162901559D01*
X111159164Y-163073312D01*
X111226179Y-163235099D01*
X111323469Y-163380704D01*
X111447296Y-163504531D01*
X111592901Y-163601821D01*
X111754688Y-163668836D01*
X111926441Y-163703000D01*
X112101559Y-163703000D01*
X112273312Y-163668836D01*
X112435099Y-163601821D01*
X112580704Y-163504531D01*
X112704531Y-163380704D01*
X112801821Y-163235099D01*
X112868836Y-163073312D01*
X112903000Y-162901559D01*
X112903000Y-162726441D01*
X112868836Y-162554688D01*
X112834768Y-162472441D01*
X122047000Y-162472441D01*
X122047000Y-162647559D01*
X122081164Y-162819312D01*
X122148179Y-162981099D01*
X122245469Y-163126704D01*
X122369296Y-163250531D01*
X122514901Y-163347821D01*
X122676688Y-163414836D01*
X122848441Y-163449000D01*
X123023559Y-163449000D01*
X123195312Y-163414836D01*
X123357099Y-163347821D01*
X123502704Y-163250531D01*
X123626531Y-163126704D01*
X123723821Y-162981099D01*
X123790836Y-162819312D01*
X123825000Y-162647559D01*
X123825000Y-162472441D01*
X123790836Y-162300688D01*
X123723821Y-162138901D01*
X123626531Y-161993296D01*
X123502704Y-161869469D01*
X123357099Y-161772179D01*
X123195312Y-161705164D01*
X123023559Y-161671000D01*
X122848441Y-161671000D01*
X122676688Y-161705164D01*
X122514901Y-161772179D01*
X122369296Y-161869469D01*
X122245469Y-161993296D01*
X122148179Y-162138901D01*
X122081164Y-162300688D01*
X122047000Y-162472441D01*
X112834768Y-162472441D01*
X112801821Y-162392901D01*
X112704531Y-162247296D01*
X112580704Y-162123469D01*
X112435099Y-162026179D01*
X112273312Y-161959164D01*
X112101559Y-161925000D01*
X111926441Y-161925000D01*
X111754688Y-161959164D01*
X111592901Y-162026179D01*
X111447296Y-162123469D01*
X111323469Y-162247296D01*
X111226179Y-162392901D01*
X111159164Y-162554688D01*
X111125000Y-162726441D01*
X102768000Y-162726441D01*
X102768000Y-161513288D01*
X138289000Y-161513288D01*
X138289000Y-161746712D01*
X138334539Y-161975652D01*
X138423866Y-162191308D01*
X138553550Y-162385394D01*
X138718606Y-162550450D01*
X138912692Y-162680134D01*
X139128348Y-162769461D01*
X139357288Y-162815000D01*
X139590712Y-162815000D01*
X139819652Y-162769461D01*
X140035308Y-162680134D01*
X140229394Y-162550450D01*
X140394450Y-162385394D01*
X140524134Y-162191308D01*
X140613461Y-161975652D01*
X140659000Y-161746712D01*
X140659000Y-161513288D01*
X140613461Y-161284348D01*
X140524134Y-161068692D01*
X140394450Y-160874606D01*
X140229394Y-160709550D01*
X140035308Y-160579866D01*
X139819652Y-160490539D01*
X139590712Y-160445000D01*
X139357288Y-160445000D01*
X139128348Y-160490539D01*
X138912692Y-160579866D01*
X138718606Y-160709550D01*
X138553550Y-160874606D01*
X138423866Y-161068692D01*
X138334539Y-161284348D01*
X138289000Y-161513288D01*
X102768000Y-161513288D01*
X102768000Y-157392441D01*
X115189000Y-157392441D01*
X115189000Y-157567559D01*
X115223164Y-157739312D01*
X115290179Y-157901099D01*
X115387469Y-158046704D01*
X115511296Y-158170531D01*
X115656901Y-158267821D01*
X115818688Y-158334836D01*
X115990441Y-158369000D01*
X115818688Y-158403164D01*
X115656901Y-158470179D01*
X115511296Y-158567469D01*
X115387469Y-158691296D01*
X115290179Y-158836901D01*
X115223164Y-158998688D01*
X115189000Y-159170441D01*
X115189000Y-159345559D01*
X115223164Y-159517312D01*
X115290179Y-159679099D01*
X115387469Y-159824704D01*
X115511296Y-159948531D01*
X115656901Y-160045821D01*
X115818688Y-160112836D01*
X115990441Y-160147000D01*
X116165559Y-160147000D01*
X116337312Y-160112836D01*
X116499099Y-160045821D01*
X116644704Y-159948531D01*
X116768531Y-159824704D01*
X116865821Y-159679099D01*
X116932836Y-159517312D01*
X116951309Y-159424441D01*
X120015000Y-159424441D01*
X120015000Y-159599559D01*
X120049164Y-159771312D01*
X120116179Y-159933099D01*
X120213469Y-160078704D01*
X120337296Y-160202531D01*
X120482901Y-160299821D01*
X120644688Y-160366836D01*
X120816441Y-160401000D01*
X120991559Y-160401000D01*
X121163312Y-160366836D01*
X121325099Y-160299821D01*
X121470704Y-160202531D01*
X121594531Y-160078704D01*
X121691821Y-159933099D01*
X121750896Y-159790481D01*
X121752901Y-159791821D01*
X121914688Y-159858836D01*
X122086441Y-159893000D01*
X122261559Y-159893000D01*
X122433312Y-159858836D01*
X122595099Y-159791821D01*
X122740704Y-159694531D01*
X122864531Y-159570704D01*
X122961821Y-159425099D01*
X123028836Y-159263312D01*
X123063000Y-159091559D01*
X123063000Y-158916441D01*
X123028836Y-158744688D01*
X122961821Y-158582901D01*
X122864531Y-158437296D01*
X122740704Y-158313469D01*
X122595099Y-158216179D01*
X122433312Y-158149164D01*
X122261559Y-158115000D01*
X122086441Y-158115000D01*
X121914688Y-158149164D01*
X121752901Y-158216179D01*
X121607296Y-158313469D01*
X121483469Y-158437296D01*
X121386179Y-158582901D01*
X121327104Y-158725519D01*
X121325099Y-158724179D01*
X121163312Y-158657164D01*
X120991559Y-158623000D01*
X120816441Y-158623000D01*
X120644688Y-158657164D01*
X120482901Y-158724179D01*
X120337296Y-158821469D01*
X120213469Y-158945296D01*
X120116179Y-159090901D01*
X120049164Y-159252688D01*
X120015000Y-159424441D01*
X116951309Y-159424441D01*
X116967000Y-159345559D01*
X116967000Y-159170441D01*
X116932836Y-158998688D01*
X116871296Y-158850118D01*
X117006441Y-158877000D01*
X117181559Y-158877000D01*
X117353312Y-158842836D01*
X117515099Y-158775821D01*
X117660704Y-158678531D01*
X117784531Y-158554704D01*
X117881821Y-158409099D01*
X117948836Y-158247312D01*
X117983000Y-158075559D01*
X117983000Y-157900441D01*
X117948836Y-157728688D01*
X117881821Y-157566901D01*
X117784531Y-157421296D01*
X117660704Y-157297469D01*
X117515099Y-157200179D01*
X117353312Y-157133164D01*
X117181559Y-157099000D01*
X117006441Y-157099000D01*
X116891871Y-157121790D01*
X116865821Y-157058901D01*
X116768531Y-156913296D01*
X116644704Y-156789469D01*
X116499099Y-156692179D01*
X116337312Y-156625164D01*
X116165559Y-156591000D01*
X115990441Y-156591000D01*
X115818688Y-156625164D01*
X115656901Y-156692179D01*
X115511296Y-156789469D01*
X115387469Y-156913296D01*
X115290179Y-157058901D01*
X115223164Y-157220688D01*
X115189000Y-157392441D01*
X102768000Y-157392441D01*
X102768000Y-152663000D01*
X113748928Y-152663000D01*
X113748928Y-154013000D01*
X113761188Y-154137482D01*
X113797498Y-154257180D01*
X113856463Y-154367494D01*
X113935815Y-154464185D01*
X114032506Y-154543537D01*
X114142820Y-154602502D01*
X114262518Y-154638812D01*
X114387000Y-154651072D01*
X115678887Y-154651072D01*
X115656901Y-154660179D01*
X115511296Y-154757469D01*
X115387469Y-154881296D01*
X115290179Y-155026901D01*
X115223164Y-155188688D01*
X115189000Y-155360441D01*
X115189000Y-155535559D01*
X115223164Y-155707312D01*
X115290179Y-155869099D01*
X115387469Y-156014704D01*
X115511296Y-156138531D01*
X115656901Y-156235821D01*
X115818688Y-156302836D01*
X115990441Y-156337000D01*
X116165559Y-156337000D01*
X116337312Y-156302836D01*
X116499099Y-156235821D01*
X116644704Y-156138531D01*
X116660794Y-156122441D01*
X124333000Y-156122441D01*
X124333000Y-156297559D01*
X124367164Y-156469312D01*
X124434179Y-156631099D01*
X124531469Y-156776704D01*
X124655296Y-156900531D01*
X124800901Y-156997821D01*
X124962688Y-157064836D01*
X125134441Y-157099000D01*
X125309559Y-157099000D01*
X125481312Y-157064836D01*
X125643099Y-156997821D01*
X125788704Y-156900531D01*
X125912531Y-156776704D01*
X126009821Y-156631099D01*
X126076836Y-156469312D01*
X126095309Y-156376441D01*
X140081000Y-156376441D01*
X140081000Y-156551559D01*
X140115164Y-156723312D01*
X140182179Y-156885099D01*
X140279469Y-157030704D01*
X140403296Y-157154531D01*
X140548901Y-157251821D01*
X140710688Y-157318836D01*
X140882441Y-157353000D01*
X141057559Y-157353000D01*
X141103046Y-157343952D01*
X141131164Y-157485312D01*
X141198179Y-157647099D01*
X141295469Y-157792704D01*
X141419296Y-157916531D01*
X141564901Y-158013821D01*
X141726688Y-158080836D01*
X141898441Y-158115000D01*
X142073559Y-158115000D01*
X142245312Y-158080836D01*
X142407099Y-158013821D01*
X142552704Y-157916531D01*
X142676531Y-157792704D01*
X142773821Y-157647099D01*
X142840836Y-157485312D01*
X142875000Y-157313559D01*
X142875000Y-157138441D01*
X142840836Y-156966688D01*
X142773821Y-156804901D01*
X142676531Y-156659296D01*
X142552704Y-156535469D01*
X142407099Y-156438179D01*
X142245312Y-156371164D01*
X142073559Y-156337000D01*
X141898441Y-156337000D01*
X141852954Y-156346048D01*
X141824836Y-156204688D01*
X141757821Y-156042901D01*
X141660531Y-155897296D01*
X141536704Y-155773469D01*
X141391099Y-155676179D01*
X141229312Y-155609164D01*
X141057559Y-155575000D01*
X140882441Y-155575000D01*
X140710688Y-155609164D01*
X140548901Y-155676179D01*
X140403296Y-155773469D01*
X140279469Y-155897296D01*
X140182179Y-156042901D01*
X140115164Y-156204688D01*
X140081000Y-156376441D01*
X126095309Y-156376441D01*
X126111000Y-156297559D01*
X126111000Y-156122441D01*
X126076836Y-155950688D01*
X126009821Y-155788901D01*
X125912531Y-155643296D01*
X125788704Y-155519469D01*
X125643099Y-155422179D01*
X125481312Y-155355164D01*
X125309559Y-155321000D01*
X125134441Y-155321000D01*
X124962688Y-155355164D01*
X124800901Y-155422179D01*
X124655296Y-155519469D01*
X124531469Y-155643296D01*
X124434179Y-155788901D01*
X124367164Y-155950688D01*
X124333000Y-156122441D01*
X116660794Y-156122441D01*
X116768531Y-156014704D01*
X116865821Y-155869099D01*
X116932836Y-155707312D01*
X116967000Y-155535559D01*
X116967000Y-155360441D01*
X116932836Y-155188688D01*
X116865821Y-155026901D01*
X116768531Y-154881296D01*
X116644704Y-154757469D01*
X116499099Y-154660179D01*
X116337312Y-154593164D01*
X116165559Y-154559000D01*
X116062565Y-154559000D01*
X116091494Y-154543537D01*
X116188185Y-154464185D01*
X116259487Y-154377303D01*
X116441482Y-154498907D01*
X116679887Y-154597658D01*
X116932976Y-154648000D01*
X117191024Y-154648000D01*
X117444113Y-154597658D01*
X117682518Y-154498907D01*
X117897077Y-154355544D01*
X118062000Y-154190621D01*
X118226923Y-154355544D01*
X118441482Y-154498907D01*
X118679887Y-154597658D01*
X118932976Y-154648000D01*
X119191024Y-154648000D01*
X119444113Y-154597658D01*
X119682518Y-154498907D01*
X119897077Y-154355544D01*
X120062000Y-154190621D01*
X120226923Y-154355544D01*
X120441482Y-154498907D01*
X120679887Y-154597658D01*
X120932976Y-154648000D01*
X121191024Y-154648000D01*
X121444113Y-154597658D01*
X121682518Y-154498907D01*
X121897077Y-154355544D01*
X122062000Y-154190621D01*
X122226923Y-154355544D01*
X122441482Y-154498907D01*
X122679887Y-154597658D01*
X122932976Y-154648000D01*
X123191024Y-154648000D01*
X123444113Y-154597658D01*
X123682518Y-154498907D01*
X123897077Y-154355544D01*
X124062000Y-154190621D01*
X124226923Y-154355544D01*
X124441482Y-154498907D01*
X124679887Y-154597658D01*
X124932976Y-154648000D01*
X125191024Y-154648000D01*
X125444113Y-154597658D01*
X125682518Y-154498907D01*
X125897077Y-154355544D01*
X126062000Y-154190621D01*
X126226923Y-154355544D01*
X126441482Y-154498907D01*
X126679887Y-154597658D01*
X126932976Y-154648000D01*
X127191024Y-154648000D01*
X127444113Y-154597658D01*
X127682518Y-154498907D01*
X127897077Y-154355544D01*
X128062000Y-154190621D01*
X128226923Y-154355544D01*
X128441482Y-154498907D01*
X128679887Y-154597658D01*
X128932976Y-154648000D01*
X129191024Y-154648000D01*
X129444113Y-154597658D01*
X129682518Y-154498907D01*
X129897077Y-154355544D01*
X130062000Y-154190621D01*
X130226923Y-154355544D01*
X130441482Y-154498907D01*
X130679887Y-154597658D01*
X130932976Y-154648000D01*
X131191024Y-154648000D01*
X131444113Y-154597658D01*
X131682518Y-154498907D01*
X131897077Y-154355544D01*
X132068681Y-154183940D01*
X132190773Y-154316303D01*
X132398371Y-154467473D01*
X132631472Y-154575238D01*
X132732600Y-154605910D01*
X132935000Y-154482224D01*
X132935000Y-153465000D01*
X133189000Y-153465000D01*
X133189000Y-154482224D01*
X133391400Y-154605910D01*
X133492528Y-154575238D01*
X133725629Y-154467473D01*
X133933227Y-154316303D01*
X134107344Y-154127537D01*
X134241289Y-153908430D01*
X134329915Y-153667401D01*
X134207085Y-153465000D01*
X133189000Y-153465000D01*
X132935000Y-153465000D01*
X132915000Y-153465000D01*
X132915000Y-153211000D01*
X132935000Y-153211000D01*
X132935000Y-152193776D01*
X133189000Y-152193776D01*
X133189000Y-153211000D01*
X134207085Y-153211000D01*
X134329915Y-153008599D01*
X134241289Y-152767570D01*
X134107344Y-152548463D01*
X133933227Y-152359697D01*
X133725629Y-152208527D01*
X133492528Y-152100762D01*
X133391400Y-152070090D01*
X133189000Y-152193776D01*
X132935000Y-152193776D01*
X132732600Y-152070090D01*
X132631472Y-152100762D01*
X132398371Y-152208527D01*
X132190773Y-152359697D01*
X132068681Y-152492060D01*
X131897077Y-152320456D01*
X131682518Y-152177093D01*
X131444113Y-152078342D01*
X131191024Y-152028000D01*
X130932976Y-152028000D01*
X130679887Y-152078342D01*
X130441482Y-152177093D01*
X130226923Y-152320456D01*
X130062000Y-152485379D01*
X129897077Y-152320456D01*
X129682518Y-152177093D01*
X129444113Y-152078342D01*
X129191024Y-152028000D01*
X128932976Y-152028000D01*
X128679887Y-152078342D01*
X128441482Y-152177093D01*
X128226923Y-152320456D01*
X128062000Y-152485379D01*
X127897077Y-152320456D01*
X127682518Y-152177093D01*
X127444113Y-152078342D01*
X127191024Y-152028000D01*
X126932976Y-152028000D01*
X126679887Y-152078342D01*
X126441482Y-152177093D01*
X126226923Y-152320456D01*
X126062000Y-152485379D01*
X125897077Y-152320456D01*
X125682518Y-152177093D01*
X125444113Y-152078342D01*
X125191024Y-152028000D01*
X124932976Y-152028000D01*
X124679887Y-152078342D01*
X124441482Y-152177093D01*
X124226923Y-152320456D01*
X124062000Y-152485379D01*
X123897077Y-152320456D01*
X123682518Y-152177093D01*
X123444113Y-152078342D01*
X123191024Y-152028000D01*
X122932976Y-152028000D01*
X122679887Y-152078342D01*
X122441482Y-152177093D01*
X122226923Y-152320456D01*
X122062000Y-152485379D01*
X121897077Y-152320456D01*
X121682518Y-152177093D01*
X121444113Y-152078342D01*
X121191024Y-152028000D01*
X120932976Y-152028000D01*
X120679887Y-152078342D01*
X120441482Y-152177093D01*
X120226923Y-152320456D01*
X120062000Y-152485379D01*
X119897077Y-152320456D01*
X119682518Y-152177093D01*
X119444113Y-152078342D01*
X119191024Y-152028000D01*
X118932976Y-152028000D01*
X118679887Y-152078342D01*
X118441482Y-152177093D01*
X118226923Y-152320456D01*
X118062000Y-152485379D01*
X117897077Y-152320456D01*
X117682518Y-152177093D01*
X117444113Y-152078342D01*
X117191024Y-152028000D01*
X116932976Y-152028000D01*
X116679887Y-152078342D01*
X116441482Y-152177093D01*
X116259487Y-152298697D01*
X116188185Y-152211815D01*
X116091494Y-152132463D01*
X115981180Y-152073498D01*
X115861482Y-152037188D01*
X115737000Y-152024928D01*
X114387000Y-152024928D01*
X114262518Y-152037188D01*
X114142820Y-152073498D01*
X114032506Y-152132463D01*
X113935815Y-152211815D01*
X113856463Y-152308506D01*
X113797498Y-152418820D01*
X113761188Y-152538518D01*
X113748928Y-152663000D01*
X102768000Y-152663000D01*
X102768000Y-150534441D01*
X123063000Y-150534441D01*
X123063000Y-150709559D01*
X123097164Y-150881312D01*
X123164179Y-151043099D01*
X123261469Y-151188704D01*
X123385296Y-151312531D01*
X123530901Y-151409821D01*
X123692688Y-151476836D01*
X123864441Y-151511000D01*
X124039559Y-151511000D01*
X124211312Y-151476836D01*
X124373099Y-151409821D01*
X124518704Y-151312531D01*
X124642531Y-151188704D01*
X124739821Y-151043099D01*
X124806836Y-150881312D01*
X124841000Y-150709559D01*
X124841000Y-150534441D01*
X124806836Y-150362688D01*
X124739821Y-150200901D01*
X124642531Y-150055296D01*
X124518704Y-149931469D01*
X124373099Y-149834179D01*
X124224052Y-149772441D01*
X130683000Y-149772441D01*
X130683000Y-149947559D01*
X130717164Y-150119312D01*
X130784179Y-150281099D01*
X130881469Y-150426704D01*
X131005296Y-150550531D01*
X131150901Y-150647821D01*
X131312688Y-150714836D01*
X131484441Y-150749000D01*
X131659559Y-150749000D01*
X131831312Y-150714836D01*
X131993099Y-150647821D01*
X132138704Y-150550531D01*
X132154794Y-150534441D01*
X132969000Y-150534441D01*
X132969000Y-150709559D01*
X133003164Y-150881312D01*
X133070179Y-151043099D01*
X133167469Y-151188704D01*
X133291296Y-151312531D01*
X133436901Y-151409821D01*
X133598688Y-151476836D01*
X133770441Y-151511000D01*
X133945559Y-151511000D01*
X134117312Y-151476836D01*
X134279099Y-151409821D01*
X134424704Y-151312531D01*
X134548531Y-151188704D01*
X134645821Y-151043099D01*
X134712836Y-150881312D01*
X134747000Y-150709559D01*
X134747000Y-150534441D01*
X134712836Y-150362688D01*
X134645821Y-150200901D01*
X134548531Y-150055296D01*
X134424704Y-149931469D01*
X134279099Y-149834179D01*
X134117312Y-149767164D01*
X133945559Y-149733000D01*
X133770441Y-149733000D01*
X133598688Y-149767164D01*
X133436901Y-149834179D01*
X133291296Y-149931469D01*
X133167469Y-150055296D01*
X133070179Y-150200901D01*
X133003164Y-150362688D01*
X132969000Y-150534441D01*
X132154794Y-150534441D01*
X132262531Y-150426704D01*
X132359821Y-150281099D01*
X132426836Y-150119312D01*
X132461000Y-149947559D01*
X132461000Y-149772441D01*
X132426836Y-149600688D01*
X132359821Y-149438901D01*
X132262531Y-149293296D01*
X132138704Y-149169469D01*
X131993099Y-149072179D01*
X131831312Y-149005164D01*
X131659559Y-148971000D01*
X131484441Y-148971000D01*
X131312688Y-149005164D01*
X131150901Y-149072179D01*
X131005296Y-149169469D01*
X130881469Y-149293296D01*
X130784179Y-149438901D01*
X130717164Y-149600688D01*
X130683000Y-149772441D01*
X124224052Y-149772441D01*
X124211312Y-149767164D01*
X124039559Y-149733000D01*
X123864441Y-149733000D01*
X123692688Y-149767164D01*
X123530901Y-149834179D01*
X123385296Y-149931469D01*
X123261469Y-150055296D01*
X123164179Y-150200901D01*
X123097164Y-150362688D01*
X123063000Y-150534441D01*
X102768000Y-150534441D01*
X102768000Y-148756441D01*
X139319000Y-148756441D01*
X139319000Y-148931559D01*
X139353164Y-149103312D01*
X139420179Y-149265099D01*
X139517469Y-149410704D01*
X139641296Y-149534531D01*
X139786901Y-149631821D01*
X139948688Y-149698836D01*
X140120441Y-149733000D01*
X140295559Y-149733000D01*
X140467312Y-149698836D01*
X140629099Y-149631821D01*
X140774704Y-149534531D01*
X140898531Y-149410704D01*
X140995821Y-149265099D01*
X141062836Y-149103312D01*
X141097000Y-148931559D01*
X141097000Y-148756441D01*
X141062836Y-148584688D01*
X140995821Y-148422901D01*
X140898531Y-148277296D01*
X140774704Y-148153469D01*
X140629099Y-148056179D01*
X140467312Y-147989164D01*
X140295559Y-147955000D01*
X140120441Y-147955000D01*
X139948688Y-147989164D01*
X139786901Y-148056179D01*
X139641296Y-148153469D01*
X139517469Y-148277296D01*
X139420179Y-148422901D01*
X139353164Y-148584688D01*
X139319000Y-148756441D01*
X102768000Y-148756441D01*
X102768000Y-147232441D01*
X122351800Y-147232441D01*
X122351800Y-147407559D01*
X122385964Y-147579312D01*
X122452979Y-147741099D01*
X122550269Y-147886704D01*
X122674096Y-148010531D01*
X122819701Y-148107821D01*
X122981488Y-148174836D01*
X123153241Y-148209000D01*
X123328359Y-148209000D01*
X123500112Y-148174836D01*
X123661899Y-148107821D01*
X123807504Y-148010531D01*
X123931331Y-147886704D01*
X124028621Y-147741099D01*
X124095636Y-147579312D01*
X124129800Y-147407559D01*
X124129800Y-147232441D01*
X124095636Y-147060688D01*
X124061568Y-146978441D01*
X129413000Y-146978441D01*
X129413000Y-147153559D01*
X129447164Y-147325312D01*
X129514179Y-147487099D01*
X129611469Y-147632704D01*
X129735296Y-147756531D01*
X129880901Y-147853821D01*
X130042688Y-147920836D01*
X130214441Y-147955000D01*
X130389559Y-147955000D01*
X130561312Y-147920836D01*
X130723099Y-147853821D01*
X130868704Y-147756531D01*
X130992531Y-147632704D01*
X131089821Y-147487099D01*
X131156836Y-147325312D01*
X131175309Y-147232441D01*
X132461000Y-147232441D01*
X132461000Y-147407559D01*
X132495164Y-147579312D01*
X132562179Y-147741099D01*
X132659469Y-147886704D01*
X132783296Y-148010531D01*
X132928901Y-148107821D01*
X133090688Y-148174836D01*
X133262441Y-148209000D01*
X133437559Y-148209000D01*
X133609312Y-148174836D01*
X133771099Y-148107821D01*
X133916704Y-148010531D01*
X134040531Y-147886704D01*
X134137821Y-147741099D01*
X134204836Y-147579312D01*
X134239000Y-147407559D01*
X134239000Y-147232441D01*
X134204836Y-147060688D01*
X134137821Y-146898901D01*
X134040531Y-146753296D01*
X133916704Y-146629469D01*
X133771099Y-146532179D01*
X133609312Y-146465164D01*
X133437559Y-146431000D01*
X133262441Y-146431000D01*
X133090688Y-146465164D01*
X132928901Y-146532179D01*
X132783296Y-146629469D01*
X132659469Y-146753296D01*
X132562179Y-146898901D01*
X132495164Y-147060688D01*
X132461000Y-147232441D01*
X131175309Y-147232441D01*
X131191000Y-147153559D01*
X131191000Y-146978441D01*
X131156836Y-146806688D01*
X131089821Y-146644901D01*
X130992531Y-146499296D01*
X130868704Y-146375469D01*
X130723099Y-146278179D01*
X130561312Y-146211164D01*
X130389559Y-146177000D01*
X130214441Y-146177000D01*
X130042688Y-146211164D01*
X129880901Y-146278179D01*
X129735296Y-146375469D01*
X129611469Y-146499296D01*
X129514179Y-146644901D01*
X129447164Y-146806688D01*
X129413000Y-146978441D01*
X124061568Y-146978441D01*
X124028621Y-146898901D01*
X123931331Y-146753296D01*
X123807504Y-146629469D01*
X123661899Y-146532179D01*
X123500112Y-146465164D01*
X123328359Y-146431000D01*
X123153241Y-146431000D01*
X122981488Y-146465164D01*
X122819701Y-146532179D01*
X122674096Y-146629469D01*
X122550269Y-146753296D01*
X122452979Y-146898901D01*
X122385964Y-147060688D01*
X122351800Y-147232441D01*
X102768000Y-147232441D01*
X102768000Y-142631500D01*
X107749428Y-142631500D01*
X107749428Y-145256500D01*
X107761688Y-145380982D01*
X107797998Y-145500680D01*
X107856963Y-145610994D01*
X107936315Y-145707685D01*
X108033006Y-145787037D01*
X108143320Y-145846002D01*
X108263018Y-145882312D01*
X108387500Y-145894572D01*
X111012500Y-145894572D01*
X111136982Y-145882312D01*
X111256680Y-145846002D01*
X111366994Y-145787037D01*
X111463685Y-145707685D01*
X111543037Y-145610994D01*
X111602002Y-145500680D01*
X111638312Y-145380982D01*
X111650572Y-145256500D01*
X111650572Y-143752188D01*
X112352500Y-143752188D01*
X112352500Y-144135812D01*
X112427341Y-144512065D01*
X112574148Y-144866487D01*
X112787278Y-145185459D01*
X113058541Y-145456722D01*
X113377513Y-145669852D01*
X113731935Y-145816659D01*
X114108188Y-145891500D01*
X114491812Y-145891500D01*
X114868065Y-145816659D01*
X115222487Y-145669852D01*
X115541459Y-145456722D01*
X115797740Y-145200441D01*
X132715000Y-145200441D01*
X132715000Y-145375559D01*
X132749164Y-145547312D01*
X132816179Y-145709099D01*
X132913469Y-145854704D01*
X133037296Y-145978531D01*
X133182901Y-146075821D01*
X133344688Y-146142836D01*
X133516441Y-146177000D01*
X133691559Y-146177000D01*
X133863312Y-146142836D01*
X134025099Y-146075821D01*
X134170704Y-145978531D01*
X134294531Y-145854704D01*
X134391821Y-145709099D01*
X134458836Y-145547312D01*
X134493000Y-145375559D01*
X134493000Y-145200441D01*
X134458836Y-145028688D01*
X134391821Y-144866901D01*
X134390481Y-144864896D01*
X134533099Y-144805821D01*
X134678704Y-144708531D01*
X134802531Y-144584704D01*
X134899821Y-144439099D01*
X134966836Y-144277312D01*
X135001000Y-144105559D01*
X135001000Y-143930441D01*
X134966836Y-143758688D01*
X134899821Y-143596901D01*
X134802531Y-143451296D01*
X134773676Y-143422441D01*
X139319000Y-143422441D01*
X139319000Y-143597559D01*
X139353164Y-143769312D01*
X139420179Y-143931099D01*
X139517469Y-144076704D01*
X139641296Y-144200531D01*
X139786901Y-144297821D01*
X139948688Y-144364836D01*
X140120441Y-144399000D01*
X139948688Y-144433164D01*
X139786901Y-144500179D01*
X139641296Y-144597469D01*
X139517469Y-144721296D01*
X139420179Y-144866901D01*
X139353164Y-145028688D01*
X139319000Y-145200441D01*
X139319000Y-145375559D01*
X139353164Y-145547312D01*
X139420179Y-145709099D01*
X139517469Y-145854704D01*
X139641296Y-145978531D01*
X139786901Y-146075821D01*
X139948688Y-146142836D01*
X140120441Y-146177000D01*
X140295559Y-146177000D01*
X140467312Y-146142836D01*
X140629099Y-146075821D01*
X140774704Y-145978531D01*
X140898531Y-145854704D01*
X140995821Y-145709099D01*
X141062836Y-145547312D01*
X141097000Y-145375559D01*
X141097000Y-145200441D01*
X141062836Y-145028688D01*
X140995821Y-144866901D01*
X140898531Y-144721296D01*
X140774704Y-144597469D01*
X140629099Y-144500179D01*
X140467312Y-144433164D01*
X140295559Y-144399000D01*
X140467312Y-144364836D01*
X140629099Y-144297821D01*
X140774704Y-144200531D01*
X140898531Y-144076704D01*
X140995821Y-143931099D01*
X141062836Y-143769312D01*
X141097000Y-143597559D01*
X141097000Y-143422441D01*
X141062836Y-143250688D01*
X140995821Y-143088901D01*
X140898531Y-142943296D01*
X140774704Y-142819469D01*
X140629099Y-142722179D01*
X140467312Y-142655164D01*
X140295559Y-142621000D01*
X140120441Y-142621000D01*
X139948688Y-142655164D01*
X139786901Y-142722179D01*
X139641296Y-142819469D01*
X139517469Y-142943296D01*
X139420179Y-143088901D01*
X139353164Y-143250688D01*
X139319000Y-143422441D01*
X134773676Y-143422441D01*
X134678704Y-143327469D01*
X134533099Y-143230179D01*
X134371312Y-143163164D01*
X134199559Y-143129000D01*
X134024441Y-143129000D01*
X133852688Y-143163164D01*
X133690901Y-143230179D01*
X133545296Y-143327469D01*
X133421469Y-143451296D01*
X133324179Y-143596901D01*
X133257164Y-143758688D01*
X133223000Y-143930441D01*
X133223000Y-144105559D01*
X133257164Y-144277312D01*
X133324179Y-144439099D01*
X133325519Y-144441104D01*
X133182901Y-144500179D01*
X133037296Y-144597469D01*
X132913469Y-144721296D01*
X132816179Y-144866901D01*
X132749164Y-145028688D01*
X132715000Y-145200441D01*
X115797740Y-145200441D01*
X115812722Y-145185459D01*
X116025852Y-144866487D01*
X116172659Y-144512065D01*
X116247500Y-144135812D01*
X116247500Y-143752188D01*
X116172659Y-143375935D01*
X116025852Y-143021513D01*
X115812722Y-142702541D01*
X115541459Y-142431278D01*
X115222487Y-142218148D01*
X114868065Y-142071341D01*
X114491812Y-141996500D01*
X114108188Y-141996500D01*
X113731935Y-142071341D01*
X113377513Y-142218148D01*
X113058541Y-142431278D01*
X112787278Y-142702541D01*
X112574148Y-143021513D01*
X112427341Y-143375935D01*
X112352500Y-143752188D01*
X111650572Y-143752188D01*
X111650572Y-142631500D01*
X111638312Y-142507018D01*
X111602002Y-142387320D01*
X111543037Y-142277006D01*
X111463685Y-142180315D01*
X111366994Y-142100963D01*
X111256680Y-142041998D01*
X111136982Y-142005688D01*
X111012500Y-141993428D01*
X108387500Y-141993428D01*
X108263018Y-142005688D01*
X108143320Y-142041998D01*
X108033006Y-142100963D01*
X107936315Y-142180315D01*
X107856963Y-142277006D01*
X107797998Y-142387320D01*
X107761688Y-142507018D01*
X107749428Y-142631500D01*
X102768000Y-142631500D01*
X102768000Y-137580441D01*
X121539000Y-137580441D01*
X121539000Y-137755559D01*
X121573164Y-137927312D01*
X121640179Y-138089099D01*
X121737469Y-138234704D01*
X121861296Y-138358531D01*
X122006901Y-138455821D01*
X122168688Y-138522836D01*
X122340441Y-138557000D01*
X122515559Y-138557000D01*
X122687312Y-138522836D01*
X122849099Y-138455821D01*
X122994704Y-138358531D01*
X123118531Y-138234704D01*
X123215821Y-138089099D01*
X123282836Y-137927312D01*
X123317000Y-137755559D01*
X123317000Y-137580441D01*
X128143000Y-137580441D01*
X128143000Y-137755559D01*
X128177164Y-137927312D01*
X128244179Y-138089099D01*
X128341469Y-138234704D01*
X128465296Y-138358531D01*
X128610901Y-138455821D01*
X128772688Y-138522836D01*
X128944441Y-138557000D01*
X129119559Y-138557000D01*
X129291312Y-138522836D01*
X129453099Y-138455821D01*
X129598704Y-138358531D01*
X129722531Y-138234704D01*
X129819821Y-138089099D01*
X129886836Y-137927312D01*
X129898656Y-137867891D01*
X130002010Y-138117411D01*
X130164525Y-138360632D01*
X130371368Y-138567475D01*
X130545760Y-138684000D01*
X130371368Y-138800525D01*
X130164525Y-139007368D01*
X130002010Y-139250589D01*
X129890068Y-139520842D01*
X129833000Y-139807740D01*
X129833000Y-140100260D01*
X129890068Y-140387158D01*
X130002010Y-140657411D01*
X130164525Y-140900632D01*
X130371368Y-141107475D01*
X130614589Y-141269990D01*
X130884842Y-141381932D01*
X131171740Y-141439000D01*
X131464260Y-141439000D01*
X131751158Y-141381932D01*
X132021411Y-141269990D01*
X132264632Y-141107475D01*
X132471475Y-140900632D01*
X132593195Y-140718466D01*
X132662822Y-140835355D01*
X132857731Y-141051588D01*
X133091080Y-141225641D01*
X133353901Y-141350825D01*
X133501110Y-141395476D01*
X133731000Y-141274155D01*
X133731000Y-140081000D01*
X133711000Y-140081000D01*
X133711000Y-139827000D01*
X133731000Y-139827000D01*
X133731000Y-139807000D01*
X133985000Y-139807000D01*
X133985000Y-139827000D01*
X134005000Y-139827000D01*
X134005000Y-140081000D01*
X133985000Y-140081000D01*
X133985000Y-141274155D01*
X134214890Y-141395476D01*
X134362099Y-141350825D01*
X134624920Y-141225641D01*
X134858269Y-141051588D01*
X135053178Y-140835355D01*
X135122805Y-140718466D01*
X135244525Y-140900632D01*
X135451368Y-141107475D01*
X135694589Y-141269990D01*
X135964842Y-141381932D01*
X136251740Y-141439000D01*
X136544260Y-141439000D01*
X136831158Y-141381932D01*
X137101411Y-141269990D01*
X137344632Y-141107475D01*
X137551475Y-140900632D01*
X137713990Y-140657411D01*
X137825932Y-140387158D01*
X137883000Y-140100260D01*
X137883000Y-139807740D01*
X137844153Y-139612441D01*
X141097000Y-139612441D01*
X141097000Y-139787559D01*
X141131164Y-139959312D01*
X141198179Y-140121099D01*
X141295469Y-140266704D01*
X141419296Y-140390531D01*
X141564901Y-140487821D01*
X141726688Y-140554836D01*
X141898441Y-140589000D01*
X142073559Y-140589000D01*
X142245312Y-140554836D01*
X142407099Y-140487821D01*
X142552704Y-140390531D01*
X142676531Y-140266704D01*
X142773821Y-140121099D01*
X142840836Y-139959312D01*
X142875000Y-139787559D01*
X142875000Y-139612441D01*
X142840836Y-139440688D01*
X142773821Y-139278901D01*
X142676531Y-139133296D01*
X142552704Y-139009469D01*
X142407099Y-138912179D01*
X142245312Y-138845164D01*
X142073559Y-138811000D01*
X141898441Y-138811000D01*
X141726688Y-138845164D01*
X141564901Y-138912179D01*
X141419296Y-139009469D01*
X141295469Y-139133296D01*
X141198179Y-139278901D01*
X141131164Y-139440688D01*
X141097000Y-139612441D01*
X137844153Y-139612441D01*
X137825932Y-139520842D01*
X137713990Y-139250589D01*
X137551475Y-139007368D01*
X137419620Y-138875513D01*
X137492180Y-138853502D01*
X137602494Y-138794537D01*
X137699185Y-138715185D01*
X137778537Y-138618494D01*
X137837502Y-138508180D01*
X137873812Y-138388482D01*
X137886072Y-138264000D01*
X137886072Y-136564000D01*
X137873812Y-136439518D01*
X137837502Y-136319820D01*
X137778537Y-136209506D01*
X137699185Y-136112815D01*
X137602494Y-136033463D01*
X137492180Y-135974498D01*
X137372482Y-135938188D01*
X137248000Y-135925928D01*
X136459111Y-135925928D01*
X136493000Y-135755559D01*
X136493000Y-135580441D01*
X136458836Y-135408688D01*
X136391821Y-135246901D01*
X136294531Y-135101296D01*
X136233676Y-135040441D01*
X138303000Y-135040441D01*
X138303000Y-135215559D01*
X138337164Y-135387312D01*
X138404179Y-135549099D01*
X138501469Y-135694704D01*
X138625296Y-135818531D01*
X138770901Y-135915821D01*
X138932688Y-135982836D01*
X139104441Y-136017000D01*
X139279559Y-136017000D01*
X139451312Y-135982836D01*
X139613099Y-135915821D01*
X139758704Y-135818531D01*
X139882531Y-135694704D01*
X139979821Y-135549099D01*
X140046836Y-135387312D01*
X140081000Y-135215559D01*
X140081000Y-135040441D01*
X140046836Y-134868688D01*
X139979821Y-134706901D01*
X139882531Y-134561296D01*
X139758704Y-134437469D01*
X139613099Y-134340179D01*
X139451312Y-134273164D01*
X139279559Y-134239000D01*
X139104441Y-134239000D01*
X138932688Y-134273164D01*
X138770901Y-134340179D01*
X138625296Y-134437469D01*
X138501469Y-134561296D01*
X138404179Y-134706901D01*
X138337164Y-134868688D01*
X138303000Y-135040441D01*
X136233676Y-135040441D01*
X136170704Y-134977469D01*
X136025099Y-134880179D01*
X135863312Y-134813164D01*
X135691559Y-134779000D01*
X135516441Y-134779000D01*
X135344688Y-134813164D01*
X135182901Y-134880179D01*
X135037296Y-134977469D01*
X134913469Y-135101296D01*
X134816179Y-135246901D01*
X134749164Y-135408688D01*
X134715000Y-135580441D01*
X134715000Y-135755559D01*
X134749164Y-135927312D01*
X134816179Y-136089099D01*
X134913469Y-136234704D01*
X134972462Y-136293697D01*
X134958498Y-136319820D01*
X134936487Y-136392380D01*
X134804632Y-136260525D01*
X134561411Y-136098010D01*
X134291158Y-135986068D01*
X134004260Y-135929000D01*
X133711740Y-135929000D01*
X133424842Y-135986068D01*
X133154589Y-136098010D01*
X132911368Y-136260525D01*
X132704525Y-136467368D01*
X132588000Y-136641760D01*
X132471475Y-136467368D01*
X132264632Y-136260525D01*
X132021411Y-136098010D01*
X131751158Y-135986068D01*
X131464260Y-135929000D01*
X131171740Y-135929000D01*
X130884842Y-135986068D01*
X130614589Y-136098010D01*
X130371368Y-136260525D01*
X130164525Y-136467368D01*
X130002010Y-136710589D01*
X129890068Y-136980842D01*
X129833000Y-137267740D01*
X129833000Y-137278718D01*
X129819821Y-137246901D01*
X129722531Y-137101296D01*
X129598704Y-136977469D01*
X129453099Y-136880179D01*
X129291312Y-136813164D01*
X129119559Y-136779000D01*
X128944441Y-136779000D01*
X128772688Y-136813164D01*
X128610901Y-136880179D01*
X128465296Y-136977469D01*
X128341469Y-137101296D01*
X128244179Y-137246901D01*
X128177164Y-137408688D01*
X128143000Y-137580441D01*
X123317000Y-137580441D01*
X123282836Y-137408688D01*
X123215821Y-137246901D01*
X123118531Y-137101296D01*
X122994704Y-136977469D01*
X122849099Y-136880179D01*
X122687312Y-136813164D01*
X122515559Y-136779000D01*
X122340441Y-136779000D01*
X122168688Y-136813164D01*
X122006901Y-136880179D01*
X121861296Y-136977469D01*
X121737469Y-137101296D01*
X121640179Y-137246901D01*
X121573164Y-137408688D01*
X121539000Y-137580441D01*
X102768000Y-137580441D01*
X102768000Y-134278441D01*
X113157000Y-134278441D01*
X113157000Y-134453559D01*
X113191164Y-134625312D01*
X113258179Y-134787099D01*
X113355469Y-134932704D01*
X113479296Y-135056531D01*
X113624901Y-135153821D01*
X113786688Y-135220836D01*
X113958441Y-135255000D01*
X114133559Y-135255000D01*
X114305312Y-135220836D01*
X114467099Y-135153821D01*
X114612704Y-135056531D01*
X114647594Y-135021641D01*
X132207000Y-135021641D01*
X132207000Y-135196759D01*
X132241164Y-135368512D01*
X132308179Y-135530299D01*
X132405469Y-135675904D01*
X132529296Y-135799731D01*
X132674901Y-135897021D01*
X132836688Y-135964036D01*
X133008441Y-135998200D01*
X133183559Y-135998200D01*
X133355312Y-135964036D01*
X133517099Y-135897021D01*
X133662704Y-135799731D01*
X133786531Y-135675904D01*
X133883821Y-135530299D01*
X133950836Y-135368512D01*
X133974563Y-135249231D01*
X134117312Y-135220836D01*
X134279099Y-135153821D01*
X134424704Y-135056531D01*
X134548531Y-134932704D01*
X134645821Y-134787099D01*
X134712836Y-134625312D01*
X134747000Y-134453559D01*
X134747000Y-134278441D01*
X134712836Y-134106688D01*
X134645821Y-133944901D01*
X134548531Y-133799296D01*
X134424704Y-133675469D01*
X134279099Y-133578179D01*
X134130052Y-133516441D01*
X140843000Y-133516441D01*
X140843000Y-133691559D01*
X140877164Y-133863312D01*
X140944179Y-134025099D01*
X141041469Y-134170704D01*
X141165296Y-134294531D01*
X141310901Y-134391821D01*
X141472688Y-134458836D01*
X141644441Y-134493000D01*
X141819559Y-134493000D01*
X141991312Y-134458836D01*
X142153099Y-134391821D01*
X142298704Y-134294531D01*
X142422531Y-134170704D01*
X142519821Y-134025099D01*
X142586836Y-133863312D01*
X142621000Y-133691559D01*
X142621000Y-133516441D01*
X142586836Y-133344688D01*
X142519821Y-133182901D01*
X142422531Y-133037296D01*
X142298704Y-132913469D01*
X142153099Y-132816179D01*
X141991312Y-132749164D01*
X141819559Y-132715000D01*
X141644441Y-132715000D01*
X141472688Y-132749164D01*
X141310901Y-132816179D01*
X141165296Y-132913469D01*
X141041469Y-133037296D01*
X140944179Y-133182901D01*
X140877164Y-133344688D01*
X140843000Y-133516441D01*
X134130052Y-133516441D01*
X134117312Y-133511164D01*
X133945559Y-133477000D01*
X133770441Y-133477000D01*
X133598688Y-133511164D01*
X133436901Y-133578179D01*
X133291296Y-133675469D01*
X133167469Y-133799296D01*
X133070179Y-133944901D01*
X133003164Y-134106688D01*
X132979437Y-134225969D01*
X132836688Y-134254364D01*
X132674901Y-134321379D01*
X132529296Y-134418669D01*
X132405469Y-134542496D01*
X132308179Y-134688101D01*
X132241164Y-134849888D01*
X132207000Y-135021641D01*
X114647594Y-135021641D01*
X114736531Y-134932704D01*
X114833821Y-134787099D01*
X114900836Y-134625312D01*
X114935000Y-134453559D01*
X114935000Y-134278441D01*
X114900836Y-134106688D01*
X114833821Y-133944901D01*
X114736531Y-133799296D01*
X114612704Y-133675469D01*
X114467099Y-133578179D01*
X114305312Y-133511164D01*
X114133559Y-133477000D01*
X113958441Y-133477000D01*
X113786688Y-133511164D01*
X113624901Y-133578179D01*
X113479296Y-133675469D01*
X113355469Y-133799296D01*
X113258179Y-133944901D01*
X113191164Y-134106688D01*
X113157000Y-134278441D01*
X102768000Y-134278441D01*
X102768000Y-132246441D01*
X139319000Y-132246441D01*
X139319000Y-132421559D01*
X139353164Y-132593312D01*
X139420179Y-132755099D01*
X139517469Y-132900704D01*
X139641296Y-133024531D01*
X139786901Y-133121821D01*
X139948688Y-133188836D01*
X140120441Y-133223000D01*
X140295559Y-133223000D01*
X140467312Y-133188836D01*
X140629099Y-133121821D01*
X140774704Y-133024531D01*
X140898531Y-132900704D01*
X140995821Y-132755099D01*
X141062836Y-132593312D01*
X141097000Y-132421559D01*
X141097000Y-132246441D01*
X141062836Y-132074688D01*
X140995821Y-131912901D01*
X140898531Y-131767296D01*
X140774704Y-131643469D01*
X140629099Y-131546179D01*
X140467312Y-131479164D01*
X140295559Y-131445000D01*
X140120441Y-131445000D01*
X139948688Y-131479164D01*
X139786901Y-131546179D01*
X139641296Y-131643469D01*
X139517469Y-131767296D01*
X139420179Y-131912901D01*
X139353164Y-132074688D01*
X139319000Y-132246441D01*
X102768000Y-132246441D01*
X102768000Y-130976441D01*
X104521000Y-130976441D01*
X104521000Y-131151559D01*
X104555164Y-131323312D01*
X104622179Y-131485099D01*
X104719469Y-131630704D01*
X104843296Y-131754531D01*
X104988901Y-131851821D01*
X105150688Y-131918836D01*
X105322441Y-131953000D01*
X105497559Y-131953000D01*
X105669312Y-131918836D01*
X105831099Y-131851821D01*
X105976704Y-131754531D01*
X106100531Y-131630704D01*
X106197821Y-131485099D01*
X106264836Y-131323312D01*
X106299000Y-131151559D01*
X106299000Y-130976441D01*
X106264836Y-130804688D01*
X106197821Y-130642901D01*
X106100531Y-130497296D01*
X105976704Y-130373469D01*
X105831099Y-130276179D01*
X105682979Y-130214825D01*
X115722401Y-130214825D01*
X115722401Y-130439977D01*
X115766326Y-130660802D01*
X115852488Y-130868814D01*
X115977575Y-131056021D01*
X116136781Y-131215227D01*
X116323988Y-131340314D01*
X116532000Y-131426476D01*
X116752825Y-131470401D01*
X116977977Y-131470401D01*
X117198802Y-131426476D01*
X117406814Y-131340314D01*
X117594021Y-131215227D01*
X117753227Y-131056021D01*
X117878314Y-130868814D01*
X117938944Y-130722441D01*
X121945430Y-130722441D01*
X121945430Y-130897559D01*
X121979594Y-131069312D01*
X122046609Y-131231099D01*
X122143899Y-131376704D01*
X122267726Y-131500531D01*
X122413331Y-131597821D01*
X122575118Y-131664836D01*
X122746871Y-131699000D01*
X122921989Y-131699000D01*
X123093742Y-131664836D01*
X123255529Y-131597821D01*
X123401134Y-131500531D01*
X123524961Y-131376704D01*
X123622251Y-131231099D01*
X123622523Y-131230441D01*
X125857000Y-131230441D01*
X125857000Y-131405559D01*
X125891164Y-131577312D01*
X125958179Y-131739099D01*
X126055469Y-131884704D01*
X126179296Y-132008531D01*
X126324901Y-132105821D01*
X126486688Y-132172836D01*
X126658441Y-132207000D01*
X126833559Y-132207000D01*
X127005312Y-132172836D01*
X127167099Y-132105821D01*
X127312704Y-132008531D01*
X127436531Y-131884704D01*
X127533821Y-131739099D01*
X127600836Y-131577312D01*
X127635000Y-131405559D01*
X127635000Y-131230441D01*
X131699000Y-131230441D01*
X131699000Y-131405559D01*
X131733164Y-131577312D01*
X131800179Y-131739099D01*
X131897469Y-131884704D01*
X132021296Y-132008531D01*
X132166901Y-132105821D01*
X132328688Y-132172836D01*
X132500441Y-132207000D01*
X132675559Y-132207000D01*
X132847312Y-132172836D01*
X133009099Y-132105821D01*
X133154704Y-132008531D01*
X133278531Y-131884704D01*
X133375821Y-131739099D01*
X133442836Y-131577312D01*
X133477000Y-131405559D01*
X133477000Y-131230441D01*
X133442836Y-131058688D01*
X133375821Y-130896901D01*
X133278531Y-130751296D01*
X133154704Y-130627469D01*
X133009099Y-130530179D01*
X132847312Y-130463164D01*
X132675559Y-130429000D01*
X132500441Y-130429000D01*
X132328688Y-130463164D01*
X132166901Y-130530179D01*
X132021296Y-130627469D01*
X131897469Y-130751296D01*
X131800179Y-130896901D01*
X131733164Y-131058688D01*
X131699000Y-131230441D01*
X127635000Y-131230441D01*
X127600836Y-131058688D01*
X127533821Y-130896901D01*
X127436531Y-130751296D01*
X127312704Y-130627469D01*
X127167099Y-130530179D01*
X127005312Y-130463164D01*
X126833559Y-130429000D01*
X126658441Y-130429000D01*
X126486688Y-130463164D01*
X126324901Y-130530179D01*
X126179296Y-130627469D01*
X126055469Y-130751296D01*
X125958179Y-130896901D01*
X125891164Y-131058688D01*
X125857000Y-131230441D01*
X123622523Y-131230441D01*
X123689266Y-131069312D01*
X123723430Y-130897559D01*
X123723430Y-130722441D01*
X123689266Y-130550688D01*
X123622251Y-130388901D01*
X123524961Y-130243296D01*
X123401134Y-130119469D01*
X123255529Y-130022179D01*
X123093742Y-129955164D01*
X122921989Y-129921000D01*
X122746871Y-129921000D01*
X122575118Y-129955164D01*
X122413331Y-130022179D01*
X122267726Y-130119469D01*
X122143899Y-130243296D01*
X122046609Y-130388901D01*
X121979594Y-130550688D01*
X121945430Y-130722441D01*
X117938944Y-130722441D01*
X117964476Y-130660802D01*
X118008401Y-130439977D01*
X118008401Y-130214825D01*
X117964476Y-129994000D01*
X117878314Y-129785988D01*
X117753227Y-129598781D01*
X117594021Y-129439575D01*
X117406814Y-129314488D01*
X117198802Y-129228326D01*
X116977977Y-129184401D01*
X116752825Y-129184401D01*
X116532000Y-129228326D01*
X116323988Y-129314488D01*
X116136781Y-129439575D01*
X115977575Y-129598781D01*
X115852488Y-129785988D01*
X115766326Y-129994000D01*
X115722401Y-130214825D01*
X105682979Y-130214825D01*
X105669312Y-130209164D01*
X105497559Y-130175000D01*
X105322441Y-130175000D01*
X105150688Y-130209164D01*
X104988901Y-130276179D01*
X104843296Y-130373469D01*
X104719469Y-130497296D01*
X104622179Y-130642901D01*
X104555164Y-130804688D01*
X104521000Y-130976441D01*
X102768000Y-130976441D01*
X102768000Y-127928441D01*
X104267000Y-127928441D01*
X104267000Y-128103559D01*
X104301164Y-128275312D01*
X104368179Y-128437099D01*
X104465469Y-128582704D01*
X104589296Y-128706531D01*
X104734901Y-128803821D01*
X104896688Y-128870836D01*
X105068441Y-128905000D01*
X105243559Y-128905000D01*
X105415312Y-128870836D01*
X105577099Y-128803821D01*
X105722704Y-128706531D01*
X105738794Y-128690441D01*
X110363000Y-128690441D01*
X110363000Y-128865559D01*
X110397164Y-129037312D01*
X110464179Y-129199099D01*
X110561469Y-129344704D01*
X110685296Y-129468531D01*
X110830901Y-129565821D01*
X110992688Y-129632836D01*
X111164441Y-129667000D01*
X111339559Y-129667000D01*
X111511312Y-129632836D01*
X111673099Y-129565821D01*
X111818704Y-129468531D01*
X111942531Y-129344704D01*
X112039821Y-129199099D01*
X112106836Y-129037312D01*
X112141000Y-128865559D01*
X112141000Y-128690441D01*
X112106836Y-128518688D01*
X112039821Y-128356901D01*
X111942531Y-128211296D01*
X111818704Y-128087469D01*
X111673099Y-127990179D01*
X111511312Y-127923164D01*
X111339559Y-127889000D01*
X111164441Y-127889000D01*
X110992688Y-127923164D01*
X110830901Y-127990179D01*
X110685296Y-128087469D01*
X110561469Y-128211296D01*
X110464179Y-128356901D01*
X110397164Y-128518688D01*
X110363000Y-128690441D01*
X105738794Y-128690441D01*
X105846531Y-128582704D01*
X105943821Y-128437099D01*
X106010836Y-128275312D01*
X106045000Y-128103559D01*
X106045000Y-127928441D01*
X106010836Y-127756688D01*
X105943821Y-127594901D01*
X105846531Y-127449296D01*
X105722704Y-127325469D01*
X105577099Y-127228179D01*
X105415312Y-127161164D01*
X105243559Y-127127000D01*
X105068441Y-127127000D01*
X104896688Y-127161164D01*
X104734901Y-127228179D01*
X104589296Y-127325469D01*
X104465469Y-127449296D01*
X104368179Y-127594901D01*
X104301164Y-127756688D01*
X104267000Y-127928441D01*
X102768000Y-127928441D01*
X102768000Y-126150441D01*
X110363000Y-126150441D01*
X110363000Y-126325559D01*
X110397164Y-126497312D01*
X110464179Y-126659099D01*
X110561469Y-126804704D01*
X110685296Y-126928531D01*
X110830901Y-127025821D01*
X110992688Y-127092836D01*
X111164441Y-127127000D01*
X111339559Y-127127000D01*
X111511312Y-127092836D01*
X111673099Y-127025821D01*
X111818704Y-126928531D01*
X111834794Y-126912441D01*
X125857000Y-126912441D01*
X125857000Y-127087559D01*
X125891164Y-127259312D01*
X125958179Y-127421099D01*
X126055469Y-127566704D01*
X126179296Y-127690531D01*
X126324901Y-127787821D01*
X126486688Y-127854836D01*
X126658441Y-127889000D01*
X126833559Y-127889000D01*
X127005312Y-127854836D01*
X127167099Y-127787821D01*
X127312704Y-127690531D01*
X127436531Y-127566704D01*
X127533821Y-127421099D01*
X127600836Y-127259312D01*
X127635000Y-127087559D01*
X127635000Y-126912441D01*
X127625207Y-126863207D01*
X127674441Y-126873000D01*
X127849559Y-126873000D01*
X128021312Y-126838836D01*
X128183099Y-126771821D01*
X128328704Y-126674531D01*
X128452531Y-126550704D01*
X128549821Y-126405099D01*
X128616836Y-126243312D01*
X128651000Y-126071559D01*
X128651000Y-125896441D01*
X128616836Y-125724688D01*
X128549821Y-125562901D01*
X128452531Y-125417296D01*
X128328704Y-125293469D01*
X128183099Y-125196179D01*
X128021312Y-125129164D01*
X127849559Y-125095000D01*
X127674441Y-125095000D01*
X127502688Y-125129164D01*
X127340901Y-125196179D01*
X127195296Y-125293469D01*
X127071469Y-125417296D01*
X126974179Y-125562901D01*
X126907164Y-125724688D01*
X126873000Y-125896441D01*
X126873000Y-126071559D01*
X126882793Y-126120793D01*
X126833559Y-126111000D01*
X126658441Y-126111000D01*
X126486688Y-126145164D01*
X126324901Y-126212179D01*
X126179296Y-126309469D01*
X126055469Y-126433296D01*
X125958179Y-126578901D01*
X125891164Y-126740688D01*
X125857000Y-126912441D01*
X111834794Y-126912441D01*
X111942531Y-126804704D01*
X112039821Y-126659099D01*
X112106836Y-126497312D01*
X112141000Y-126325559D01*
X112141000Y-126150441D01*
X112106836Y-125978688D01*
X112072768Y-125896441D01*
X119303800Y-125896441D01*
X119303800Y-126071559D01*
X119337964Y-126243312D01*
X119404979Y-126405099D01*
X119502269Y-126550704D01*
X119626096Y-126674531D01*
X119771701Y-126771821D01*
X119933488Y-126838836D01*
X120105241Y-126873000D01*
X120280359Y-126873000D01*
X120452112Y-126838836D01*
X120613899Y-126771821D01*
X120759504Y-126674531D01*
X120883331Y-126550704D01*
X120980621Y-126405099D01*
X121047636Y-126243312D01*
X121081800Y-126071559D01*
X121081800Y-125896441D01*
X121047636Y-125724688D01*
X120980621Y-125562901D01*
X120883331Y-125417296D01*
X120759504Y-125293469D01*
X120613899Y-125196179D01*
X120452112Y-125129164D01*
X120280359Y-125095000D01*
X120105241Y-125095000D01*
X119933488Y-125129164D01*
X119771701Y-125196179D01*
X119626096Y-125293469D01*
X119502269Y-125417296D01*
X119404979Y-125562901D01*
X119337964Y-125724688D01*
X119303800Y-125896441D01*
X112072768Y-125896441D01*
X112039821Y-125816901D01*
X111942531Y-125671296D01*
X111818704Y-125547469D01*
X111673099Y-125450179D01*
X111511312Y-125383164D01*
X111339559Y-125349000D01*
X111164441Y-125349000D01*
X110992688Y-125383164D01*
X110830901Y-125450179D01*
X110685296Y-125547469D01*
X110561469Y-125671296D01*
X110464179Y-125816901D01*
X110397164Y-125978688D01*
X110363000Y-126150441D01*
X102768000Y-126150441D01*
X102768000Y-124601424D01*
X117221000Y-124601424D01*
X117221000Y-124826576D01*
X117264925Y-125047401D01*
X117351087Y-125255413D01*
X117476174Y-125442620D01*
X117635380Y-125601826D01*
X117822587Y-125726913D01*
X118030599Y-125813075D01*
X118251424Y-125857000D01*
X118476576Y-125857000D01*
X118697401Y-125813075D01*
X118905413Y-125726913D01*
X119092620Y-125601826D01*
X119251826Y-125442620D01*
X119376913Y-125255413D01*
X119463075Y-125047401D01*
X119507000Y-124826576D01*
X119507000Y-124601424D01*
X119463075Y-124380599D01*
X119376913Y-124172587D01*
X119259738Y-123997222D01*
X119374688Y-124044836D01*
X119546441Y-124079000D01*
X119721559Y-124079000D01*
X119893312Y-124044836D01*
X120055099Y-123977821D01*
X120200704Y-123880531D01*
X120216744Y-123864491D01*
X122402640Y-123864491D01*
X122402640Y-124039609D01*
X122436804Y-124211362D01*
X122503819Y-124373149D01*
X122601109Y-124518754D01*
X122724936Y-124642581D01*
X122870541Y-124739871D01*
X123032328Y-124806886D01*
X123204081Y-124841050D01*
X123379199Y-124841050D01*
X123550952Y-124806886D01*
X123712739Y-124739871D01*
X123858344Y-124642581D01*
X123982171Y-124518754D01*
X124079461Y-124373149D01*
X124146476Y-124211362D01*
X124180640Y-124039609D01*
X124180640Y-123864491D01*
X124146476Y-123692738D01*
X124079461Y-123530951D01*
X123982171Y-123385346D01*
X123858344Y-123261519D01*
X123712739Y-123164229D01*
X123563571Y-123102441D01*
X127635000Y-123102441D01*
X127635000Y-123277559D01*
X127669164Y-123449312D01*
X127736179Y-123611099D01*
X127833469Y-123756704D01*
X127957296Y-123880531D01*
X128102901Y-123977821D01*
X128264688Y-124044836D01*
X128436441Y-124079000D01*
X128611559Y-124079000D01*
X128783312Y-124044836D01*
X128945099Y-123977821D01*
X129090704Y-123880531D01*
X129214531Y-123756704D01*
X129311821Y-123611099D01*
X129378836Y-123449312D01*
X129413000Y-123277559D01*
X129413000Y-123102441D01*
X129378836Y-122930688D01*
X129311821Y-122768901D01*
X129214531Y-122623296D01*
X129090704Y-122499469D01*
X128945099Y-122402179D01*
X128783312Y-122335164D01*
X128611559Y-122301000D01*
X128436441Y-122301000D01*
X128264688Y-122335164D01*
X128102901Y-122402179D01*
X127957296Y-122499469D01*
X127833469Y-122623296D01*
X127736179Y-122768901D01*
X127669164Y-122930688D01*
X127635000Y-123102441D01*
X123563571Y-123102441D01*
X123550952Y-123097214D01*
X123379199Y-123063050D01*
X123204081Y-123063050D01*
X123032328Y-123097214D01*
X122870541Y-123164229D01*
X122724936Y-123261519D01*
X122601109Y-123385346D01*
X122503819Y-123530951D01*
X122436804Y-123692738D01*
X122402640Y-123864491D01*
X120216744Y-123864491D01*
X120324531Y-123756704D01*
X120421821Y-123611099D01*
X120488836Y-123449312D01*
X120523000Y-123277559D01*
X120523000Y-123102441D01*
X120488836Y-122930688D01*
X120421821Y-122768901D01*
X120324531Y-122623296D01*
X120200704Y-122499469D01*
X120055099Y-122402179D01*
X119893312Y-122335164D01*
X119721559Y-122301000D01*
X119546441Y-122301000D01*
X119374688Y-122335164D01*
X119212901Y-122402179D01*
X119067296Y-122499469D01*
X118943469Y-122623296D01*
X118846179Y-122768901D01*
X118779164Y-122930688D01*
X118745000Y-123102441D01*
X118745000Y-123277559D01*
X118779164Y-123449312D01*
X118846179Y-123611099D01*
X118907028Y-123702166D01*
X118905413Y-123701087D01*
X118697401Y-123614925D01*
X118476576Y-123571000D01*
X118251424Y-123571000D01*
X118030599Y-123614925D01*
X117822587Y-123701087D01*
X117635380Y-123826174D01*
X117476174Y-123985380D01*
X117351087Y-124172587D01*
X117264925Y-124380599D01*
X117221000Y-124601424D01*
X102768000Y-124601424D01*
X102768000Y-122086441D01*
X121793000Y-122086441D01*
X121793000Y-122261559D01*
X121827164Y-122433312D01*
X121894179Y-122595099D01*
X121991469Y-122740704D01*
X122115296Y-122864531D01*
X122260901Y-122961821D01*
X122422688Y-123028836D01*
X122594441Y-123063000D01*
X122769559Y-123063000D01*
X122941312Y-123028836D01*
X123103099Y-122961821D01*
X123248704Y-122864531D01*
X123372531Y-122740704D01*
X123469821Y-122595099D01*
X123536836Y-122433312D01*
X123571000Y-122261559D01*
X123571000Y-122086441D01*
X123558037Y-122021272D01*
X123639296Y-122102531D01*
X123784901Y-122199821D01*
X123946688Y-122266836D01*
X124118441Y-122301000D01*
X124293559Y-122301000D01*
X124465312Y-122266836D01*
X124627099Y-122199821D01*
X124772704Y-122102531D01*
X124896531Y-121978704D01*
X124993821Y-121833099D01*
X125060836Y-121671312D01*
X125095000Y-121499559D01*
X125095000Y-121324441D01*
X125060836Y-121152688D01*
X124993821Y-120990901D01*
X124896531Y-120845296D01*
X124772704Y-120721469D01*
X124627099Y-120624179D01*
X124478052Y-120562441D01*
X127889000Y-120562441D01*
X127889000Y-120737559D01*
X127923164Y-120909312D01*
X127990179Y-121071099D01*
X128087469Y-121216704D01*
X128211296Y-121340531D01*
X128356901Y-121437821D01*
X128518688Y-121504836D01*
X128690441Y-121539000D01*
X128865559Y-121539000D01*
X129037312Y-121504836D01*
X129199099Y-121437821D01*
X129344704Y-121340531D01*
X129468531Y-121216704D01*
X129565821Y-121071099D01*
X129632836Y-120909312D01*
X129667000Y-120737559D01*
X129667000Y-120562441D01*
X135763000Y-120562441D01*
X135763000Y-120737559D01*
X135797164Y-120909312D01*
X135864179Y-121071099D01*
X135961469Y-121216704D01*
X136085296Y-121340531D01*
X136192257Y-121412000D01*
X136085296Y-121483469D01*
X135961469Y-121607296D01*
X135864179Y-121752901D01*
X135797164Y-121914688D01*
X135763000Y-122086441D01*
X135763000Y-122261559D01*
X135797164Y-122433312D01*
X135864179Y-122595099D01*
X135961469Y-122740704D01*
X136085296Y-122864531D01*
X136230901Y-122961821D01*
X136392688Y-123028836D01*
X136564441Y-123063000D01*
X136739559Y-123063000D01*
X136911312Y-123028836D01*
X137073099Y-122961821D01*
X137218704Y-122864531D01*
X137342531Y-122740704D01*
X137439821Y-122595099D01*
X137465871Y-122532210D01*
X137580441Y-122555000D01*
X137755559Y-122555000D01*
X137927312Y-122520836D01*
X138089099Y-122453821D01*
X138234704Y-122356531D01*
X138358531Y-122232704D01*
X138455821Y-122087099D01*
X138522836Y-121925312D01*
X138557000Y-121753559D01*
X138557000Y-121578441D01*
X138522836Y-121406688D01*
X138455821Y-121244901D01*
X138358531Y-121099296D01*
X138234704Y-120975469D01*
X138089099Y-120878179D01*
X137927312Y-120811164D01*
X137755559Y-120777000D01*
X137580441Y-120777000D01*
X137531207Y-120786793D01*
X137541000Y-120737559D01*
X137541000Y-120562441D01*
X137506836Y-120390688D01*
X137439821Y-120228901D01*
X137342531Y-120083296D01*
X137313676Y-120054441D01*
X138811000Y-120054441D01*
X138811000Y-120229559D01*
X138845164Y-120401312D01*
X138912179Y-120563099D01*
X139009469Y-120708704D01*
X139133296Y-120832531D01*
X139278901Y-120929821D01*
X139440688Y-120996836D01*
X139612441Y-121031000D01*
X139787559Y-121031000D01*
X139959312Y-120996836D01*
X140121099Y-120929821D01*
X140266704Y-120832531D01*
X140390531Y-120708704D01*
X140487821Y-120563099D01*
X140554836Y-120401312D01*
X140589000Y-120229559D01*
X140589000Y-120054441D01*
X140554836Y-119882688D01*
X140487821Y-119720901D01*
X140390531Y-119575296D01*
X140266704Y-119451469D01*
X140121099Y-119354179D01*
X139959312Y-119287164D01*
X139787559Y-119253000D01*
X139612441Y-119253000D01*
X139440688Y-119287164D01*
X139278901Y-119354179D01*
X139133296Y-119451469D01*
X139009469Y-119575296D01*
X138912179Y-119720901D01*
X138845164Y-119882688D01*
X138811000Y-120054441D01*
X137313676Y-120054441D01*
X137218704Y-119959469D01*
X137073099Y-119862179D01*
X136911312Y-119795164D01*
X136739559Y-119761000D01*
X136564441Y-119761000D01*
X136392688Y-119795164D01*
X136230901Y-119862179D01*
X136085296Y-119959469D01*
X135961469Y-120083296D01*
X135864179Y-120228901D01*
X135797164Y-120390688D01*
X135763000Y-120562441D01*
X129667000Y-120562441D01*
X129632836Y-120390688D01*
X129565821Y-120228901D01*
X129468531Y-120083296D01*
X129344704Y-119959469D01*
X129199099Y-119862179D01*
X129037312Y-119795164D01*
X128865559Y-119761000D01*
X128690441Y-119761000D01*
X128518688Y-119795164D01*
X128356901Y-119862179D01*
X128211296Y-119959469D01*
X128087469Y-120083296D01*
X127990179Y-120228901D01*
X127923164Y-120390688D01*
X127889000Y-120562441D01*
X124478052Y-120562441D01*
X124465312Y-120557164D01*
X124293559Y-120523000D01*
X124118441Y-120523000D01*
X123946688Y-120557164D01*
X123784901Y-120624179D01*
X123639296Y-120721469D01*
X123515469Y-120845296D01*
X123418179Y-120990901D01*
X123351164Y-121152688D01*
X123317000Y-121324441D01*
X123317000Y-121499559D01*
X123329963Y-121564728D01*
X123248704Y-121483469D01*
X123103099Y-121386179D01*
X122941312Y-121319164D01*
X122769559Y-121285000D01*
X122594441Y-121285000D01*
X122422688Y-121319164D01*
X122260901Y-121386179D01*
X122115296Y-121483469D01*
X121991469Y-121607296D01*
X121894179Y-121752901D01*
X121827164Y-121914688D01*
X121793000Y-122086441D01*
X102768000Y-122086441D01*
X102768000Y-119800441D01*
X108077000Y-119800441D01*
X108077000Y-119975559D01*
X108111164Y-120147312D01*
X108178179Y-120309099D01*
X108275469Y-120454704D01*
X108399296Y-120578531D01*
X108544901Y-120675821D01*
X108706688Y-120742836D01*
X108878441Y-120777000D01*
X109053559Y-120777000D01*
X109225312Y-120742836D01*
X109387099Y-120675821D01*
X109532704Y-120578531D01*
X109601000Y-120510235D01*
X109669296Y-120578531D01*
X109814901Y-120675821D01*
X109976688Y-120742836D01*
X110148441Y-120777000D01*
X110323559Y-120777000D01*
X110495312Y-120742836D01*
X110657099Y-120675821D01*
X110802704Y-120578531D01*
X110926531Y-120454704D01*
X111023821Y-120309099D01*
X111090836Y-120147312D01*
X111125000Y-119975559D01*
X111125000Y-119800441D01*
X114935000Y-119800441D01*
X114935000Y-119975559D01*
X114969164Y-120147312D01*
X115036179Y-120309099D01*
X115133469Y-120454704D01*
X115257296Y-120578531D01*
X115402901Y-120675821D01*
X115564688Y-120742836D01*
X115736441Y-120777000D01*
X115911559Y-120777000D01*
X116083312Y-120742836D01*
X116245099Y-120675821D01*
X116390704Y-120578531D01*
X116514531Y-120454704D01*
X116611821Y-120309099D01*
X116678836Y-120147312D01*
X116713000Y-119975559D01*
X116713000Y-119800441D01*
X116678836Y-119628688D01*
X116611821Y-119466901D01*
X116514531Y-119321296D01*
X116390704Y-119197469D01*
X116245099Y-119100179D01*
X116083312Y-119033164D01*
X115911559Y-118999000D01*
X115736441Y-118999000D01*
X115564688Y-119033164D01*
X115402901Y-119100179D01*
X115257296Y-119197469D01*
X115133469Y-119321296D01*
X115036179Y-119466901D01*
X114969164Y-119628688D01*
X114935000Y-119800441D01*
X111125000Y-119800441D01*
X111090836Y-119628688D01*
X111023821Y-119466901D01*
X110926531Y-119321296D01*
X110802704Y-119197469D01*
X110657099Y-119100179D01*
X110495312Y-119033164D01*
X110323559Y-118999000D01*
X110148441Y-118999000D01*
X109976688Y-119033164D01*
X109814901Y-119100179D01*
X109669296Y-119197469D01*
X109601000Y-119265765D01*
X109532704Y-119197469D01*
X109387099Y-119100179D01*
X109225312Y-119033164D01*
X109053559Y-118999000D01*
X108878441Y-118999000D01*
X108706688Y-119033164D01*
X108544901Y-119100179D01*
X108399296Y-119197469D01*
X108275469Y-119321296D01*
X108178179Y-119466901D01*
X108111164Y-119628688D01*
X108077000Y-119800441D01*
X102768000Y-119800441D01*
X102768000Y-118784441D01*
X120015000Y-118784441D01*
X120015000Y-118959559D01*
X120049164Y-119131312D01*
X120116179Y-119293099D01*
X120213469Y-119438704D01*
X120337296Y-119562531D01*
X120482901Y-119659821D01*
X120644688Y-119726836D01*
X120816441Y-119761000D01*
X120991559Y-119761000D01*
X121163312Y-119726836D01*
X121285000Y-119676431D01*
X121285000Y-119721559D01*
X121307790Y-119836129D01*
X121244901Y-119862179D01*
X121099296Y-119959469D01*
X120975469Y-120083296D01*
X120878179Y-120228901D01*
X120811164Y-120390688D01*
X120777000Y-120562441D01*
X120777000Y-120737559D01*
X120811164Y-120909312D01*
X120878179Y-121071099D01*
X120975469Y-121216704D01*
X121099296Y-121340531D01*
X121244901Y-121437821D01*
X121406688Y-121504836D01*
X121578441Y-121539000D01*
X121753559Y-121539000D01*
X121925312Y-121504836D01*
X122087099Y-121437821D01*
X122232704Y-121340531D01*
X122356531Y-121216704D01*
X122453821Y-121071099D01*
X122520836Y-120909312D01*
X122555000Y-120737559D01*
X122555000Y-120562441D01*
X122532210Y-120447871D01*
X122595099Y-120421821D01*
X122740704Y-120324531D01*
X122864531Y-120200704D01*
X122961821Y-120055099D01*
X123028836Y-119893312D01*
X123063000Y-119721559D01*
X123063000Y-119546441D01*
X123028836Y-119374688D01*
X122961821Y-119212901D01*
X122864531Y-119067296D01*
X122740704Y-118943469D01*
X122595099Y-118846179D01*
X122446052Y-118784441D01*
X130937000Y-118784441D01*
X130937000Y-118959559D01*
X130971164Y-119131312D01*
X131038179Y-119293099D01*
X131135469Y-119438704D01*
X131259296Y-119562531D01*
X131404901Y-119659821D01*
X131566688Y-119726836D01*
X131738441Y-119761000D01*
X131913559Y-119761000D01*
X132085312Y-119726836D01*
X132247099Y-119659821D01*
X132392704Y-119562531D01*
X132516531Y-119438704D01*
X132613821Y-119293099D01*
X132680836Y-119131312D01*
X132715000Y-118959559D01*
X132749164Y-119131312D01*
X132816179Y-119293099D01*
X132913469Y-119438704D01*
X133037296Y-119562531D01*
X133182901Y-119659821D01*
X133344688Y-119726836D01*
X133516441Y-119761000D01*
X133691559Y-119761000D01*
X133863312Y-119726836D01*
X134025099Y-119659821D01*
X134170704Y-119562531D01*
X134294531Y-119438704D01*
X134391821Y-119293099D01*
X134458836Y-119131312D01*
X134493000Y-118959559D01*
X134493000Y-118784441D01*
X134458836Y-118612688D01*
X134391821Y-118450901D01*
X134294531Y-118305296D01*
X134170704Y-118181469D01*
X134025099Y-118084179D01*
X133863312Y-118017164D01*
X133691559Y-117983000D01*
X133516441Y-117983000D01*
X133344688Y-118017164D01*
X133182901Y-118084179D01*
X133037296Y-118181469D01*
X132913469Y-118305296D01*
X132816179Y-118450901D01*
X132749164Y-118612688D01*
X132715000Y-118784441D01*
X132680836Y-118612688D01*
X132613821Y-118450901D01*
X132516531Y-118305296D01*
X132392704Y-118181469D01*
X132247099Y-118084179D01*
X132085312Y-118017164D01*
X131913559Y-117983000D01*
X131738441Y-117983000D01*
X131566688Y-118017164D01*
X131404901Y-118084179D01*
X131259296Y-118181469D01*
X131135469Y-118305296D01*
X131038179Y-118450901D01*
X130971164Y-118612688D01*
X130937000Y-118784441D01*
X122446052Y-118784441D01*
X122433312Y-118779164D01*
X122261559Y-118745000D01*
X122086441Y-118745000D01*
X121914688Y-118779164D01*
X121793000Y-118829569D01*
X121793000Y-118784441D01*
X121758836Y-118612688D01*
X121691821Y-118450901D01*
X121594531Y-118305296D01*
X121470704Y-118181469D01*
X121325099Y-118084179D01*
X121163312Y-118017164D01*
X120991559Y-117983000D01*
X120816441Y-117983000D01*
X120644688Y-118017164D01*
X120482901Y-118084179D01*
X120337296Y-118181469D01*
X120213469Y-118305296D01*
X120116179Y-118450901D01*
X120049164Y-118612688D01*
X120015000Y-118784441D01*
X102768000Y-118784441D01*
X102768000Y-116196980D01*
X120837437Y-116196980D01*
X120908429Y-116415094D01*
X121052031Y-116690923D01*
X121246685Y-116933437D01*
X121484911Y-117133316D01*
X121757554Y-117282879D01*
X122054137Y-117376378D01*
X122301000Y-117249570D01*
X122301000Y-115951000D01*
X122555000Y-115951000D01*
X122555000Y-117249570D01*
X122801863Y-117376378D01*
X123098446Y-117282879D01*
X123371089Y-117133316D01*
X123609315Y-116933437D01*
X123803969Y-116690923D01*
X123947571Y-116415094D01*
X124018563Y-116196980D01*
X123898594Y-115951000D01*
X122555000Y-115951000D01*
X122301000Y-115951000D01*
X120957406Y-115951000D01*
X120837437Y-116196980D01*
X102768000Y-116196980D01*
X102768000Y-113284000D01*
X120785319Y-113284000D01*
X120815970Y-113595204D01*
X120906745Y-113894449D01*
X121054155Y-114170235D01*
X121252537Y-114411963D01*
X121431899Y-114559163D01*
X121246685Y-114714563D01*
X121052031Y-114957077D01*
X120908429Y-115232906D01*
X120837437Y-115451020D01*
X120957406Y-115697000D01*
X122301000Y-115697000D01*
X122301000Y-115677000D01*
X122555000Y-115677000D01*
X122555000Y-115697000D01*
X123898594Y-115697000D01*
X124018563Y-115451020D01*
X123947571Y-115232906D01*
X123803969Y-114957077D01*
X123609315Y-114714563D01*
X123424101Y-114559163D01*
X123603463Y-114411963D01*
X123801845Y-114170235D01*
X123949255Y-113894449D01*
X124040030Y-113595204D01*
X124070681Y-113284000D01*
X124047546Y-113049098D01*
X136703000Y-113049098D01*
X136703000Y-113518902D01*
X136794654Y-113979679D01*
X136974440Y-114413721D01*
X137235450Y-114804349D01*
X137567651Y-115136550D01*
X137958279Y-115397560D01*
X138392321Y-115577346D01*
X138853098Y-115669000D01*
X139322902Y-115669000D01*
X139783679Y-115577346D01*
X140217721Y-115397560D01*
X140608349Y-115136550D01*
X140940550Y-114804349D01*
X141201560Y-114413721D01*
X141381346Y-113979679D01*
X141473000Y-113518902D01*
X141473000Y-113049098D01*
X141381346Y-112588321D01*
X141201560Y-112154279D01*
X140940550Y-111763651D01*
X140608349Y-111431450D01*
X140217721Y-111170440D01*
X139783679Y-110990654D01*
X139322902Y-110899000D01*
X138853098Y-110899000D01*
X138392321Y-110990654D01*
X137958279Y-111170440D01*
X137567651Y-111431450D01*
X137235450Y-111763651D01*
X136974440Y-112154279D01*
X136794654Y-112588321D01*
X136703000Y-113049098D01*
X124047546Y-113049098D01*
X124040030Y-112972796D01*
X123949255Y-112673551D01*
X123801845Y-112397765D01*
X123698554Y-112271905D01*
X123782494Y-112227037D01*
X123879185Y-112147685D01*
X123958537Y-112050994D01*
X124017502Y-111940680D01*
X124053812Y-111820982D01*
X124066072Y-111696500D01*
X124066072Y-109894441D01*
X142621000Y-109894441D01*
X142621000Y-110069559D01*
X142655164Y-110241312D01*
X142722179Y-110403099D01*
X142819469Y-110548704D01*
X142943296Y-110672531D01*
X143088901Y-110769821D01*
X143250688Y-110836836D01*
X143422441Y-110871000D01*
X143597559Y-110871000D01*
X143769312Y-110836836D01*
X143931099Y-110769821D01*
X144076704Y-110672531D01*
X144200531Y-110548704D01*
X144297821Y-110403099D01*
X144364836Y-110241312D01*
X144399000Y-110069559D01*
X144399000Y-109894441D01*
X144364836Y-109722688D01*
X144297821Y-109560901D01*
X144200531Y-109415296D01*
X144076704Y-109291469D01*
X143931099Y-109194179D01*
X143769312Y-109127164D01*
X143597559Y-109093000D01*
X143422441Y-109093000D01*
X143250688Y-109127164D01*
X143088901Y-109194179D01*
X142943296Y-109291469D01*
X142819469Y-109415296D01*
X142722179Y-109560901D01*
X142655164Y-109722688D01*
X142621000Y-109894441D01*
X124066072Y-109894441D01*
X124066072Y-109791500D01*
X124053812Y-109667018D01*
X124017502Y-109547320D01*
X123958537Y-109437006D01*
X123879185Y-109340315D01*
X123782494Y-109260963D01*
X123672180Y-109201998D01*
X123552482Y-109165688D01*
X123428000Y-109153428D01*
X121428000Y-109153428D01*
X121303518Y-109165688D01*
X121183820Y-109201998D01*
X121073506Y-109260963D01*
X120976815Y-109340315D01*
X120897463Y-109437006D01*
X120838498Y-109547320D01*
X120802188Y-109667018D01*
X120789928Y-109791500D01*
X120789928Y-111696500D01*
X120802188Y-111820982D01*
X120838498Y-111940680D01*
X120897463Y-112050994D01*
X120976815Y-112147685D01*
X121073506Y-112227037D01*
X121157446Y-112271905D01*
X121054155Y-112397765D01*
X120906745Y-112673551D01*
X120815970Y-112972796D01*
X120785319Y-113284000D01*
X102768000Y-113284000D01*
X102768000Y-104426418D01*
X110719000Y-104426418D01*
X110721888Y-104455745D01*
X110721778Y-104471550D01*
X110722678Y-104480721D01*
X110774495Y-104973727D01*
X110786522Y-105032320D01*
X110797732Y-105091084D01*
X110800395Y-105099906D01*
X110946984Y-105573458D01*
X110970158Y-105628584D01*
X110992573Y-105684066D01*
X110996900Y-105692202D01*
X111232677Y-106128262D01*
X111266110Y-106177829D01*
X111298881Y-106227908D01*
X111304706Y-106235049D01*
X111620690Y-106617009D01*
X111663107Y-106659131D01*
X111704989Y-106701900D01*
X111712090Y-106707773D01*
X112096246Y-107021084D01*
X112146073Y-107054188D01*
X112195428Y-107087983D01*
X112203531Y-107092364D01*
X112203539Y-107092368D01*
X112641230Y-107325092D01*
X112696536Y-107347888D01*
X112751517Y-107371453D01*
X112760320Y-107374178D01*
X113234885Y-107517457D01*
X113293558Y-107529074D01*
X113352075Y-107541513D01*
X113361240Y-107542476D01*
X113854595Y-107590850D01*
X113854598Y-107590850D01*
X113886581Y-107594000D01*
X133001419Y-107594000D01*
X133030746Y-107591112D01*
X133046550Y-107591222D01*
X133055721Y-107590322D01*
X133548727Y-107538505D01*
X133607320Y-107526478D01*
X133666084Y-107515268D01*
X133674906Y-107512605D01*
X134148458Y-107366016D01*
X134203584Y-107342842D01*
X134259066Y-107320427D01*
X134267202Y-107316100D01*
X134703262Y-107080323D01*
X134752829Y-107046890D01*
X134802908Y-107014119D01*
X134810049Y-107008294D01*
X135192009Y-106692310D01*
X135234131Y-106649893D01*
X135276900Y-106608011D01*
X135282773Y-106600910D01*
X135596084Y-106216754D01*
X135629188Y-106166927D01*
X135662983Y-106117572D01*
X135667364Y-106109469D01*
X135667368Y-106109461D01*
X135900092Y-105671770D01*
X135922888Y-105616464D01*
X135946453Y-105561483D01*
X135949178Y-105552680D01*
X136092457Y-105078115D01*
X136104074Y-105019442D01*
X136116513Y-104960925D01*
X136117476Y-104951760D01*
X136165850Y-104458405D01*
X136165850Y-104458402D01*
X136169000Y-104426419D01*
X136169000Y-84041581D01*
X136166112Y-84012254D01*
X136166222Y-83996451D01*
X136165322Y-83987280D01*
X136113505Y-83494273D01*
X136101490Y-83435742D01*
X136090269Y-83376917D01*
X136087605Y-83368095D01*
X135941016Y-82894542D01*
X135917847Y-82839427D01*
X135895427Y-82783934D01*
X135891100Y-82775798D01*
X135655323Y-82339738D01*
X135621890Y-82290171D01*
X135589119Y-82240092D01*
X135583294Y-82232951D01*
X135267310Y-81850991D01*
X135224874Y-81808850D01*
X135183011Y-81766101D01*
X135175911Y-81760227D01*
X134791754Y-81446917D01*
X134741946Y-81413824D01*
X134692572Y-81380017D01*
X134684466Y-81375634D01*
X134246770Y-81142908D01*
X134191488Y-81120122D01*
X134136483Y-81096547D01*
X134127680Y-81093822D01*
X133653116Y-80950543D01*
X133594428Y-80938923D01*
X133535925Y-80926487D01*
X133526760Y-80925524D01*
X133033405Y-80877150D01*
X133033402Y-80877150D01*
X133001419Y-80874000D01*
X113886581Y-80874000D01*
X113857254Y-80876888D01*
X113841451Y-80876778D01*
X113832280Y-80877678D01*
X113339273Y-80929495D01*
X113280742Y-80941510D01*
X113221917Y-80952731D01*
X113213095Y-80955395D01*
X112739542Y-81101984D01*
X112684427Y-81125153D01*
X112628934Y-81147573D01*
X112620798Y-81151900D01*
X112184738Y-81387677D01*
X112135171Y-81421110D01*
X112085092Y-81453881D01*
X112077951Y-81459706D01*
X111695991Y-81775690D01*
X111653850Y-81818126D01*
X111611101Y-81859989D01*
X111605227Y-81867089D01*
X111291917Y-82251246D01*
X111258824Y-82301054D01*
X111225017Y-82350428D01*
X111220634Y-82358534D01*
X110987908Y-82796230D01*
X110965122Y-82851512D01*
X110941547Y-82906517D01*
X110938822Y-82915320D01*
X110795543Y-83389884D01*
X110783923Y-83448572D01*
X110771487Y-83507075D01*
X110770524Y-83516240D01*
X110722150Y-84009595D01*
X110722150Y-84009608D01*
X110719001Y-84041581D01*
X110719000Y-104426418D01*
X102768000Y-104426418D01*
X102768000Y-95945042D01*
X103344000Y-95945042D01*
X103344000Y-96276958D01*
X103408754Y-96602496D01*
X103535772Y-96909147D01*
X103720175Y-97185125D01*
X103954875Y-97419825D01*
X104230853Y-97604228D01*
X104537504Y-97731246D01*
X104863042Y-97796000D01*
X105194958Y-97796000D01*
X105520496Y-97731246D01*
X105827147Y-97604228D01*
X106103125Y-97419825D01*
X106337825Y-97185125D01*
X106522228Y-96909147D01*
X106649246Y-96602496D01*
X106714000Y-96276958D01*
X106714000Y-95945042D01*
X106649246Y-95619504D01*
X106522228Y-95312853D01*
X106337825Y-95036875D01*
X106103125Y-94802175D01*
X105827147Y-94617772D01*
X105520496Y-94490754D01*
X105194958Y-94426000D01*
X104863042Y-94426000D01*
X104537504Y-94490754D01*
X104230853Y-94617772D01*
X103954875Y-94802175D01*
X103720175Y-95036875D01*
X103535772Y-95312853D01*
X103408754Y-95619504D01*
X103344000Y-95945042D01*
X102768000Y-95945042D01*
X102768000Y-92445042D01*
X103344000Y-92445042D01*
X103344000Y-92776958D01*
X103408754Y-93102496D01*
X103535772Y-93409147D01*
X103720175Y-93685125D01*
X103954875Y-93919825D01*
X104230853Y-94104228D01*
X104537504Y-94231246D01*
X104863042Y-94296000D01*
X105194958Y-94296000D01*
X105520496Y-94231246D01*
X105827147Y-94104228D01*
X106103125Y-93919825D01*
X106337825Y-93685125D01*
X106522228Y-93409147D01*
X106649246Y-93102496D01*
X106714000Y-92776958D01*
X106714000Y-92445042D01*
X106649246Y-92119504D01*
X106522228Y-91812853D01*
X106337825Y-91536875D01*
X106103125Y-91302175D01*
X105827147Y-91117772D01*
X105520496Y-90990754D01*
X105194958Y-90926000D01*
X104863042Y-90926000D01*
X104537504Y-90990754D01*
X104230853Y-91117772D01*
X103954875Y-91302175D01*
X103720175Y-91536875D01*
X103535772Y-91812853D01*
X103408754Y-92119504D01*
X103344000Y-92445042D01*
X102768000Y-92445042D01*
X102768000Y-70680492D01*
X139827000Y-70680492D01*
X139827000Y-71000708D01*
X139889470Y-71314770D01*
X140012012Y-71610611D01*
X140189914Y-71876860D01*
X140416340Y-72103286D01*
X140682589Y-72281188D01*
X140978430Y-72403730D01*
X141292492Y-72466200D01*
X141612708Y-72466200D01*
X141926770Y-72403730D01*
X142222611Y-72281188D01*
X142488860Y-72103286D01*
X142715286Y-71876860D01*
X142893188Y-71610611D01*
X143015730Y-71314770D01*
X143078200Y-71000708D01*
X143078200Y-70680492D01*
X143015730Y-70366430D01*
X142893188Y-70070589D01*
X142715286Y-69804340D01*
X142488860Y-69577914D01*
X142222611Y-69400012D01*
X141926770Y-69277470D01*
X141612708Y-69215000D01*
X141292492Y-69215000D01*
X140978430Y-69277470D01*
X140682589Y-69400012D01*
X140416340Y-69577914D01*
X140189914Y-69804340D01*
X140012012Y-70070589D01*
X139889470Y-70366430D01*
X139827000Y-70680492D01*
X102768000Y-70680492D01*
X102768000Y-33139292D01*
X104317800Y-33139292D01*
X104317800Y-33459508D01*
X104380270Y-33773570D01*
X104502812Y-34069411D01*
X104680714Y-34335660D01*
X104907140Y-34562086D01*
X105173389Y-34739988D01*
X105469230Y-34862530D01*
X105783292Y-34925000D01*
X106103508Y-34925000D01*
X106417570Y-34862530D01*
X106713411Y-34739988D01*
X106979660Y-34562086D01*
X107206086Y-34335660D01*
X107383988Y-34069411D01*
X107506530Y-33773570D01*
X107569000Y-33459508D01*
X107569000Y-33139292D01*
X107506530Y-32825230D01*
X107383988Y-32529389D01*
X107206086Y-32263140D01*
X106979660Y-32036714D01*
X106713411Y-31858812D01*
X106417570Y-31736270D01*
X106103508Y-31673800D01*
X105783292Y-31673800D01*
X105469230Y-31736270D01*
X105173389Y-31858812D01*
X104907140Y-32036714D01*
X104680714Y-32263140D01*
X104502812Y-32529389D01*
X104380270Y-32825230D01*
X104317800Y-33139292D01*
X102768000Y-33139292D01*
X102768000Y-25806000D01*
X144628000Y-25806000D01*
X144628001Y-155577873D01*
G37*
G04 #@! TD.AperFunction*
M02*
