G04 #@! TF.GenerationSoftware,KiCad,Pcbnew,(5.1.4)-1*
G04 #@! TF.CreationDate,2019-12-06T10:27:53-06:00*
G04 #@! TF.ProjectId,cutdown,63757464-6f77-46e2-9e6b-696361645f70,rev?*
G04 #@! TF.SameCoordinates,Original*
G04 #@! TF.FileFunction,Soldermask,Bot*
G04 #@! TF.FilePolarity,Negative*
%FSLAX46Y46*%
G04 Gerber Fmt 4.6, Leading zero omitted, Abs format (unit mm)*
G04 Created by KiCad (PCBNEW (5.1.4)-1) date 2019-12-06 10:27:53*
%MOMM*%
%LPD*%
G04 APERTURE LIST*
%ADD10R,1.301600X0.851600*%
%ADD11C,1.151600*%
%ADD12C,1.401600*%
%ADD13C,1.701600*%
%ADD14R,0.851600X1.301600*%
%ADD15O,1.801600X1.801600*%
%ADD16R,1.801600X1.801600*%
%ADD17R,0.901600X1.001600*%
%ADD18R,1.301600X1.001600*%
%ADD19O,2.133600X1.828800*%
%ADD20C,2.641600*%
%ADD21R,1.001600X1.301600*%
%ADD22R,0.451600X0.481600*%
G04 APERTURE END LIST*
D10*
X198435000Y-88900000D03*
X196535000Y-88900000D03*
D11*
X191262000Y-97070000D03*
D12*
X191262000Y-89620000D03*
D13*
X188508000Y-54737000D03*
X193508000Y-54737000D03*
D14*
X194691000Y-85537000D03*
X194691000Y-87437000D03*
D10*
X194625000Y-71120000D03*
X192725000Y-71120000D03*
X186883000Y-72771000D03*
X188783000Y-72771000D03*
D15*
X195199000Y-106299000D03*
X192659000Y-106299000D03*
X190119000Y-106299000D03*
D16*
X187579000Y-106299000D03*
D17*
X196614001Y-63630999D03*
X197564001Y-61630999D03*
X195664001Y-61630999D03*
D18*
X197696000Y-65278000D03*
X195496000Y-65278000D03*
X196766000Y-66802000D03*
X198966000Y-66802000D03*
D19*
X180975000Y-92710000D03*
X180975000Y-90170000D03*
X180975000Y-87630000D03*
X180975000Y-85090000D03*
X180975000Y-82550000D03*
X180975000Y-80010000D03*
X180975000Y-77470000D03*
X180975000Y-74930000D03*
X180975000Y-72390000D03*
X180975000Y-69850000D03*
X180975000Y-67310000D03*
X180975000Y-64770000D03*
X180975000Y-62230000D03*
X180975000Y-59690000D03*
X180975000Y-57150000D03*
X180975000Y-54610000D03*
X201295000Y-54610000D03*
X201295000Y-57150000D03*
X201295000Y-59690000D03*
X201295000Y-62230000D03*
X201295000Y-64770000D03*
X201295000Y-67310000D03*
X201295000Y-69850000D03*
X201295000Y-72390000D03*
X201295000Y-74930000D03*
X201295000Y-77470000D03*
X201295000Y-80010000D03*
X201295000Y-82550000D03*
D20*
X182245000Y-96520000D03*
X182245000Y-50800000D03*
X200025000Y-50800000D03*
X200025000Y-96520000D03*
D18*
X189400000Y-74930000D03*
X191600000Y-74930000D03*
D21*
X197485000Y-49573000D03*
X197485000Y-51773000D03*
X195834000Y-51773000D03*
X195834000Y-49573000D03*
D18*
X191559000Y-61595000D03*
X193759000Y-61595000D03*
X189908000Y-53213000D03*
X192108000Y-53213000D03*
D22*
X196720000Y-86864000D03*
X196720000Y-86364000D03*
X196985000Y-85849000D03*
X197485000Y-85849000D03*
X197985000Y-85849000D03*
X198250000Y-86364000D03*
X198250000Y-86864000D03*
X197985000Y-87379000D03*
X197485000Y-87379000D03*
X196985000Y-87379000D03*
D18*
X197696000Y-83820000D03*
X195496000Y-83820000D03*
M02*
