M48
; DRILL file {KiCad (5.1.7)-1} date 11/09/21 10:37:58
; FORMAT={-:-/ absolute / inch / decimal}
; #@! TF.CreationDate,2021-11-09T10:37:58-06:00
; #@! TF.GenerationSoftware,Kicad,Pcbnew,(5.1.7)-1
; #@! TF.FileFunction,Plated,1,4,PTH
FMAT,2
INCH
T1C0.0100
T2C0.0200
T3C0.0315
T4C0.0394
T5C0.0433
T6C0.0512
T7C0.0689
%
G90
G05
T1
X4.16Y-4.42
X4.29Y-4.79
X4.29Y-6.58
X4.39Y-4.81
X4.405Y-5.345
X4.405Y-5.425
X4.41Y-6.12
X4.41Y-6.2
X4.41Y-6.27
X4.41Y-6.41
X4.41Y-6.63
X4.47Y-4.72
X4.485Y-5.125
X4.56Y-4.72
X4.565Y-5.315
X4.57Y-6.12
X4.57Y-6.2
X4.57Y-6.27
X4.61Y-6.22
X4.62Y-4.465
X4.685Y-5.045
X4.71Y-4.85
X4.725Y-4.68
X4.732Y-4.96
X4.75Y-4.735
X4.75Y-6.63
X4.75Y-6.69
X4.7506Y-4.7744
X4.76Y-6.28
X4.81Y-6.2
X4.81Y-6.26
X4.82Y-4.81
X4.82Y-5.42
X4.836Y-5.15
X4.84Y-6.4
X4.85Y-6.64
X4.852Y-5.8
X4.854Y-4.88
X4.87Y-6.39
X4.88Y-5.93
X4.89Y-4.78
X4.89Y-6.49
X4.92Y-5.31
X4.93Y-6.15
X4.935Y-5.17
X4.99Y-5.0
X4.99Y-5.17
X5.0095Y-6.5905
X5.03Y-4.96
X5.06Y-4.85
X5.07Y-4.75
X5.08Y-5.42
X5.1Y-5.65
X5.1Y-5.72
X5.1Y-6.79
X5.12Y-6.29
X5.12Y-6.6
X5.13Y-5.79
X5.18Y-5.03
X5.18Y-5.09
X5.18Y-5.895
X5.19Y-4.68
X5.22Y-5.17
X5.24Y-5.3193
X5.25Y-5.8
X5.26Y-4.68
X5.26Y-5.72
X5.27Y-5.29
X5.27Y-5.93
X5.28Y-5.67
X5.31Y-5.79
X5.31Y-6.35
X5.315Y-4.99
X5.315Y-6.655
X5.315Y-6.745
X5.33Y-5.66
X5.3387Y-5.3413
X5.36Y-5.05
X5.38Y-4.75
X5.38Y-4.81
X5.41Y-4.2
X5.42Y-4.79
X5.48Y-5.32
X5.48Y-5.38
X5.49Y-3.525
X5.5Y-4.73
X5.51Y-6.28
X5.51Y-6.62
X5.52Y-5.21
X5.52Y-5.65
X5.52Y-5.72
X5.52Y-5.79
X5.52Y-5.86
X5.55Y-6.16
X5.58Y-5.05
X5.58Y-5.26
X5.59Y-5.5
X5.59Y-6.19
X5.65Y-4.33
X5.69Y-6.16
X5.69Y-6.71
T2
X4.395Y-2.735
X4.49Y-2.735
X4.58Y-2.735
T3
X4.53Y-6.0369
X4.53Y-6.9031
X4.6087Y-6.0369
X4.6087Y-6.9031
X4.6875Y-6.0369
X4.6875Y-6.9031
X4.7662Y-6.0369
X4.7662Y-6.9031
X4.845Y-6.0369
X4.845Y-6.9031
X4.9237Y-6.0369
X4.9237Y-6.9031
X5.0024Y-6.0369
X5.0024Y-6.9031
X5.0812Y-6.0369
X5.0812Y-6.9031
X5.1599Y-6.0369
X5.1599Y-6.9031
X5.2387Y-6.0369
X5.2387Y-6.9031
T4
X5.17Y-5.41
X5.17Y-5.51
X5.27Y-5.41
X5.27Y-5.51
X5.37Y-5.41
X5.37Y-5.51
T5
X5.575Y-4.36
X5.575Y-4.46
X5.575Y-4.56
T6
X4.135Y-3.6461
X4.135Y-3.7839
T7
X4.3189Y-5.6671
X4.5Y-5.6671
T0
M30
