G04 #@! TF.GenerationSoftware,KiCad,Pcbnew,(5.1.7)-1*
G04 #@! TF.CreationDate,2021-04-19T08:47:41-05:00*
G04 #@! TF.ProjectId,analog_pcb,616e616c-6f67-45f7-9063-622e6b696361,2.1*
G04 #@! TF.SameCoordinates,Original*
G04 #@! TF.FileFunction,Legend,Top*
G04 #@! TF.FilePolarity,Positive*
%FSLAX46Y46*%
G04 Gerber Fmt 4.6, Leading zero omitted, Abs format (unit mm)*
G04 Created by KiCad (PCBNEW (5.1.7)-1) date 2021-04-19 08:47:41*
%MOMM*%
%LPD*%
G01*
G04 APERTURE LIST*
%ADD10C,0.177800*%
%ADD11C,0.120000*%
%ADD12C,0.150000*%
G04 APERTURE END LIST*
D10*
X155741914Y-90460285D02*
X155379057Y-90714285D01*
X155741914Y-90895714D02*
X154979914Y-90895714D01*
X154979914Y-90605428D01*
X155016200Y-90532857D01*
X155052485Y-90496571D01*
X155125057Y-90460285D01*
X155233914Y-90460285D01*
X155306485Y-90496571D01*
X155342771Y-90532857D01*
X155379057Y-90605428D01*
X155379057Y-90895714D01*
X155741914Y-90024857D02*
X155705628Y-90097428D01*
X155669342Y-90133714D01*
X155596771Y-90170000D01*
X155379057Y-90170000D01*
X155306485Y-90133714D01*
X155270200Y-90097428D01*
X155233914Y-90024857D01*
X155233914Y-89916000D01*
X155270200Y-89843428D01*
X155306485Y-89807142D01*
X155379057Y-89770857D01*
X155596771Y-89770857D01*
X155669342Y-89807142D01*
X155705628Y-89843428D01*
X155741914Y-89916000D01*
X155741914Y-90024857D01*
X155233914Y-89553142D02*
X155233914Y-89262857D01*
X154979914Y-89444285D02*
X155633057Y-89444285D01*
X155705628Y-89408000D01*
X155741914Y-89335428D01*
X155741914Y-89262857D01*
X155741914Y-88682285D02*
X155342771Y-88682285D01*
X155270200Y-88718571D01*
X155233914Y-88791142D01*
X155233914Y-88936285D01*
X155270200Y-89008857D01*
X155705628Y-88682285D02*
X155741914Y-88754857D01*
X155741914Y-88936285D01*
X155705628Y-89008857D01*
X155633057Y-89045142D01*
X155560485Y-89045142D01*
X155487914Y-89008857D01*
X155451628Y-88936285D01*
X155451628Y-88754857D01*
X155415342Y-88682285D01*
X155233914Y-88428285D02*
X155233914Y-88138000D01*
X154979914Y-88319428D02*
X155633057Y-88319428D01*
X155705628Y-88283142D01*
X155741914Y-88210571D01*
X155741914Y-88138000D01*
X155741914Y-87884000D02*
X155233914Y-87884000D01*
X154979914Y-87884000D02*
X155016200Y-87920285D01*
X155052485Y-87884000D01*
X155016200Y-87847714D01*
X154979914Y-87884000D01*
X155052485Y-87884000D01*
X155233914Y-87521142D02*
X155741914Y-87521142D01*
X155306485Y-87521142D02*
X155270200Y-87484857D01*
X155233914Y-87412285D01*
X155233914Y-87303428D01*
X155270200Y-87230857D01*
X155342771Y-87194571D01*
X155741914Y-87194571D01*
X155233914Y-86505142D02*
X155850771Y-86505142D01*
X155923342Y-86541428D01*
X155959628Y-86577714D01*
X155995914Y-86650285D01*
X155995914Y-86759142D01*
X155959628Y-86831714D01*
X155705628Y-86505142D02*
X155741914Y-86577714D01*
X155741914Y-86722857D01*
X155705628Y-86795428D01*
X155669342Y-86831714D01*
X155596771Y-86868000D01*
X155379057Y-86868000D01*
X155306485Y-86831714D01*
X155270200Y-86795428D01*
X155233914Y-86722857D01*
X155233914Y-86577714D01*
X155270200Y-86505142D01*
X155524200Y-85598000D02*
X155524200Y-85235142D01*
X155741914Y-85670571D02*
X154979914Y-85416571D01*
X155741914Y-85162571D01*
X155233914Y-84908571D02*
X155741914Y-84908571D01*
X155306485Y-84908571D02*
X155270200Y-84872285D01*
X155233914Y-84799714D01*
X155233914Y-84690857D01*
X155270200Y-84618285D01*
X155342771Y-84582000D01*
X155741914Y-84582000D01*
X155741914Y-83892571D02*
X155342771Y-83892571D01*
X155270200Y-83928857D01*
X155233914Y-84001428D01*
X155233914Y-84146571D01*
X155270200Y-84219142D01*
X155705628Y-83892571D02*
X155741914Y-83965142D01*
X155741914Y-84146571D01*
X155705628Y-84219142D01*
X155633057Y-84255428D01*
X155560485Y-84255428D01*
X155487914Y-84219142D01*
X155451628Y-84146571D01*
X155451628Y-83965142D01*
X155415342Y-83892571D01*
X155741914Y-83420857D02*
X155705628Y-83493428D01*
X155633057Y-83529714D01*
X154979914Y-83529714D01*
X155741914Y-83021714D02*
X155705628Y-83094285D01*
X155669342Y-83130571D01*
X155596771Y-83166857D01*
X155379057Y-83166857D01*
X155306485Y-83130571D01*
X155270200Y-83094285D01*
X155233914Y-83021714D01*
X155233914Y-82912857D01*
X155270200Y-82840285D01*
X155306485Y-82804000D01*
X155379057Y-82767714D01*
X155596771Y-82767714D01*
X155669342Y-82804000D01*
X155705628Y-82840285D01*
X155741914Y-82912857D01*
X155741914Y-83021714D01*
X155233914Y-82114571D02*
X155850771Y-82114571D01*
X155923342Y-82150857D01*
X155959628Y-82187142D01*
X155995914Y-82259714D01*
X155995914Y-82368571D01*
X155959628Y-82441142D01*
X155705628Y-82114571D02*
X155741914Y-82187142D01*
X155741914Y-82332285D01*
X155705628Y-82404857D01*
X155669342Y-82441142D01*
X155596771Y-82477428D01*
X155379057Y-82477428D01*
X155306485Y-82441142D01*
X155270200Y-82404857D01*
X155233914Y-82332285D01*
X155233914Y-82187142D01*
X155270200Y-82114571D01*
X155342771Y-81171142D02*
X155342771Y-80917142D01*
X155741914Y-80808285D02*
X155741914Y-81171142D01*
X154979914Y-81171142D01*
X154979914Y-80808285D01*
X155741914Y-80372857D02*
X155705628Y-80445428D01*
X155633057Y-80481714D01*
X154979914Y-80481714D01*
X155705628Y-79792285D02*
X155741914Y-79864857D01*
X155741914Y-80010000D01*
X155705628Y-80082571D01*
X155633057Y-80118857D01*
X155342771Y-80118857D01*
X155270200Y-80082571D01*
X155233914Y-80010000D01*
X155233914Y-79864857D01*
X155270200Y-79792285D01*
X155342771Y-79756000D01*
X155415342Y-79756000D01*
X155487914Y-80118857D01*
X155705628Y-79102857D02*
X155741914Y-79175428D01*
X155741914Y-79320571D01*
X155705628Y-79393142D01*
X155669342Y-79429428D01*
X155596771Y-79465714D01*
X155379057Y-79465714D01*
X155306485Y-79429428D01*
X155270200Y-79393142D01*
X155233914Y-79320571D01*
X155233914Y-79175428D01*
X155270200Y-79102857D01*
X155233914Y-78885142D02*
X155233914Y-78594857D01*
X154979914Y-78776285D02*
X155633057Y-78776285D01*
X155705628Y-78740000D01*
X155741914Y-78667428D01*
X155741914Y-78594857D01*
X155741914Y-78340857D02*
X155233914Y-78340857D01*
X155379057Y-78340857D02*
X155306485Y-78304571D01*
X155270200Y-78268285D01*
X155233914Y-78195714D01*
X155233914Y-78123142D01*
X155741914Y-77760285D02*
X155705628Y-77832857D01*
X155669342Y-77869142D01*
X155596771Y-77905428D01*
X155379057Y-77905428D01*
X155306485Y-77869142D01*
X155270200Y-77832857D01*
X155233914Y-77760285D01*
X155233914Y-77651428D01*
X155270200Y-77578857D01*
X155306485Y-77542571D01*
X155379057Y-77506285D01*
X155596771Y-77506285D01*
X155669342Y-77542571D01*
X155705628Y-77578857D01*
X155741914Y-77651428D01*
X155741914Y-77760285D01*
X155233914Y-77179714D02*
X155741914Y-77179714D01*
X155306485Y-77179714D02*
X155270200Y-77143428D01*
X155233914Y-77070857D01*
X155233914Y-76962000D01*
X155270200Y-76889428D01*
X155342771Y-76853142D01*
X155741914Y-76853142D01*
X155741914Y-76490285D02*
X155233914Y-76490285D01*
X154979914Y-76490285D02*
X155016200Y-76526571D01*
X155052485Y-76490285D01*
X155016200Y-76454000D01*
X154979914Y-76490285D01*
X155052485Y-76490285D01*
X155705628Y-75800857D02*
X155741914Y-75873428D01*
X155741914Y-76018571D01*
X155705628Y-76091142D01*
X155669342Y-76127428D01*
X155596771Y-76163714D01*
X155379057Y-76163714D01*
X155306485Y-76127428D01*
X155270200Y-76091142D01*
X155233914Y-76018571D01*
X155233914Y-75873428D01*
X155270200Y-75800857D01*
X155705628Y-75510571D02*
X155741914Y-75438000D01*
X155741914Y-75292857D01*
X155705628Y-75220285D01*
X155633057Y-75184000D01*
X155596771Y-75184000D01*
X155524200Y-75220285D01*
X155487914Y-75292857D01*
X155487914Y-75401714D01*
X155451628Y-75474285D01*
X155379057Y-75510571D01*
X155342771Y-75510571D01*
X155270200Y-75474285D01*
X155233914Y-75401714D01*
X155233914Y-75292857D01*
X155270200Y-75220285D01*
X157062714Y-84636428D02*
X156699857Y-84890428D01*
X157062714Y-85071857D02*
X156300714Y-85071857D01*
X156300714Y-84781571D01*
X156337000Y-84709000D01*
X156373285Y-84672714D01*
X156445857Y-84636428D01*
X156554714Y-84636428D01*
X156627285Y-84672714D01*
X156663571Y-84709000D01*
X156699857Y-84781571D01*
X156699857Y-85071857D01*
X157026428Y-84019571D02*
X157062714Y-84092142D01*
X157062714Y-84237285D01*
X157026428Y-84309857D01*
X156953857Y-84346142D01*
X156663571Y-84346142D01*
X156591000Y-84309857D01*
X156554714Y-84237285D01*
X156554714Y-84092142D01*
X156591000Y-84019571D01*
X156663571Y-83983285D01*
X156736142Y-83983285D01*
X156808714Y-84346142D01*
X156554714Y-83729285D02*
X157062714Y-83547857D01*
X156554714Y-83366428D01*
X156373285Y-82531857D02*
X156337000Y-82495571D01*
X156300714Y-82423000D01*
X156300714Y-82241571D01*
X156337000Y-82169000D01*
X156373285Y-82132714D01*
X156445857Y-82096428D01*
X156518428Y-82096428D01*
X156627285Y-82132714D01*
X157062714Y-82568142D01*
X157062714Y-82096428D01*
X156990142Y-81769857D02*
X157026428Y-81733571D01*
X157062714Y-81769857D01*
X157026428Y-81806142D01*
X156990142Y-81769857D01*
X157062714Y-81769857D01*
X157062714Y-81007857D02*
X157062714Y-81443285D01*
X157062714Y-81225571D02*
X156300714Y-81225571D01*
X156409571Y-81298142D01*
X156482142Y-81370714D01*
X156518428Y-81443285D01*
X157621514Y-90097428D02*
X157621514Y-89625714D01*
X157911800Y-89879714D01*
X157911800Y-89770857D01*
X157948085Y-89698285D01*
X157984371Y-89662000D01*
X158056942Y-89625714D01*
X158238371Y-89625714D01*
X158310942Y-89662000D01*
X158347228Y-89698285D01*
X158383514Y-89770857D01*
X158383514Y-89988571D01*
X158347228Y-90061142D01*
X158310942Y-90097428D01*
X158093228Y-89299142D02*
X158093228Y-88718571D01*
X157621514Y-88210571D02*
X157621514Y-88138000D01*
X157657800Y-88065428D01*
X157694085Y-88029142D01*
X157766657Y-87992857D01*
X157911800Y-87956571D01*
X158093228Y-87956571D01*
X158238371Y-87992857D01*
X158310942Y-88029142D01*
X158347228Y-88065428D01*
X158383514Y-88138000D01*
X158383514Y-88210571D01*
X158347228Y-88283142D01*
X158310942Y-88319428D01*
X158238371Y-88355714D01*
X158093228Y-88392000D01*
X157911800Y-88392000D01*
X157766657Y-88355714D01*
X157694085Y-88319428D01*
X157657800Y-88283142D01*
X157621514Y-88210571D01*
X157621514Y-87484857D02*
X157621514Y-87412285D01*
X157657800Y-87339714D01*
X157694085Y-87303428D01*
X157766657Y-87267142D01*
X157911800Y-87230857D01*
X158093228Y-87230857D01*
X158238371Y-87267142D01*
X158310942Y-87303428D01*
X158347228Y-87339714D01*
X158383514Y-87412285D01*
X158383514Y-87484857D01*
X158347228Y-87557428D01*
X158310942Y-87593714D01*
X158238371Y-87630000D01*
X158093228Y-87666285D01*
X157911800Y-87666285D01*
X157766657Y-87630000D01*
X157694085Y-87593714D01*
X157657800Y-87557428D01*
X157621514Y-87484857D01*
X157621514Y-86759142D02*
X157621514Y-86686571D01*
X157657800Y-86614000D01*
X157694085Y-86577714D01*
X157766657Y-86541428D01*
X157911800Y-86505142D01*
X158093228Y-86505142D01*
X158238371Y-86541428D01*
X158310942Y-86577714D01*
X158347228Y-86614000D01*
X158383514Y-86686571D01*
X158383514Y-86759142D01*
X158347228Y-86831714D01*
X158310942Y-86868000D01*
X158238371Y-86904285D01*
X158093228Y-86940571D01*
X157911800Y-86940571D01*
X157766657Y-86904285D01*
X157694085Y-86868000D01*
X157657800Y-86831714D01*
X157621514Y-86759142D01*
X157621514Y-86033428D02*
X157621514Y-85960857D01*
X157657800Y-85888285D01*
X157694085Y-85852000D01*
X157766657Y-85815714D01*
X157911800Y-85779428D01*
X158093228Y-85779428D01*
X158238371Y-85815714D01*
X158310942Y-85852000D01*
X158347228Y-85888285D01*
X158383514Y-85960857D01*
X158383514Y-86033428D01*
X158347228Y-86106000D01*
X158310942Y-86142285D01*
X158238371Y-86178571D01*
X158093228Y-86214857D01*
X157911800Y-86214857D01*
X157766657Y-86178571D01*
X157694085Y-86142285D01*
X157657800Y-86106000D01*
X157621514Y-86033428D01*
X157621514Y-85307714D02*
X157621514Y-85235142D01*
X157657800Y-85162571D01*
X157694085Y-85126285D01*
X157766657Y-85090000D01*
X157911800Y-85053714D01*
X158093228Y-85053714D01*
X158238371Y-85090000D01*
X158310942Y-85126285D01*
X158347228Y-85162571D01*
X158383514Y-85235142D01*
X158383514Y-85307714D01*
X158347228Y-85380285D01*
X158310942Y-85416571D01*
X158238371Y-85452857D01*
X158093228Y-85489142D01*
X157911800Y-85489142D01*
X157766657Y-85452857D01*
X157694085Y-85416571D01*
X157657800Y-85380285D01*
X157621514Y-85307714D01*
X157948085Y-84618285D02*
X157911800Y-84690857D01*
X157875514Y-84727142D01*
X157802942Y-84763428D01*
X157766657Y-84763428D01*
X157694085Y-84727142D01*
X157657800Y-84690857D01*
X157621514Y-84618285D01*
X157621514Y-84473142D01*
X157657800Y-84400571D01*
X157694085Y-84364285D01*
X157766657Y-84328000D01*
X157802942Y-84328000D01*
X157875514Y-84364285D01*
X157911800Y-84400571D01*
X157948085Y-84473142D01*
X157948085Y-84618285D01*
X157984371Y-84690857D01*
X158020657Y-84727142D01*
X158093228Y-84763428D01*
X158238371Y-84763428D01*
X158310942Y-84727142D01*
X158347228Y-84690857D01*
X158383514Y-84618285D01*
X158383514Y-84473142D01*
X158347228Y-84400571D01*
X158310942Y-84364285D01*
X158238371Y-84328000D01*
X158093228Y-84328000D01*
X158020657Y-84364285D01*
X157984371Y-84400571D01*
X157948085Y-84473142D01*
X158383514Y-83602285D02*
X158383514Y-84037714D01*
X158383514Y-83820000D02*
X157621514Y-83820000D01*
X157730371Y-83892571D01*
X157802942Y-83965142D01*
X157839228Y-84037714D01*
X157585228Y-82731428D02*
X158564942Y-83384571D01*
X157621514Y-82550000D02*
X157621514Y-82042000D01*
X158383514Y-82368571D01*
X158093228Y-81751714D02*
X158093228Y-81171142D01*
X157621514Y-80663142D02*
X157621514Y-80590571D01*
X157657800Y-80518000D01*
X157694085Y-80481714D01*
X157766657Y-80445428D01*
X157911800Y-80409142D01*
X158093228Y-80409142D01*
X158238371Y-80445428D01*
X158310942Y-80481714D01*
X158347228Y-80518000D01*
X158383514Y-80590571D01*
X158383514Y-80663142D01*
X158347228Y-80735714D01*
X158310942Y-80772000D01*
X158238371Y-80808285D01*
X158093228Y-80844571D01*
X157911800Y-80844571D01*
X157766657Y-80808285D01*
X157694085Y-80772000D01*
X157657800Y-80735714D01*
X157621514Y-80663142D01*
X157621514Y-79937428D02*
X157621514Y-79864857D01*
X157657800Y-79792285D01*
X157694085Y-79756000D01*
X157766657Y-79719714D01*
X157911800Y-79683428D01*
X158093228Y-79683428D01*
X158238371Y-79719714D01*
X158310942Y-79756000D01*
X158347228Y-79792285D01*
X158383514Y-79864857D01*
X158383514Y-79937428D01*
X158347228Y-80010000D01*
X158310942Y-80046285D01*
X158238371Y-80082571D01*
X158093228Y-80118857D01*
X157911800Y-80118857D01*
X157766657Y-80082571D01*
X157694085Y-80046285D01*
X157657800Y-80010000D01*
X157621514Y-79937428D01*
X157621514Y-79211714D02*
X157621514Y-79139142D01*
X157657800Y-79066571D01*
X157694085Y-79030285D01*
X157766657Y-78994000D01*
X157911800Y-78957714D01*
X158093228Y-78957714D01*
X158238371Y-78994000D01*
X158310942Y-79030285D01*
X158347228Y-79066571D01*
X158383514Y-79139142D01*
X158383514Y-79211714D01*
X158347228Y-79284285D01*
X158310942Y-79320571D01*
X158238371Y-79356857D01*
X158093228Y-79393142D01*
X157911800Y-79393142D01*
X157766657Y-79356857D01*
X157694085Y-79320571D01*
X157657800Y-79284285D01*
X157621514Y-79211714D01*
X157621514Y-78486000D02*
X157621514Y-78413428D01*
X157657800Y-78340857D01*
X157694085Y-78304571D01*
X157766657Y-78268285D01*
X157911800Y-78232000D01*
X158093228Y-78232000D01*
X158238371Y-78268285D01*
X158310942Y-78304571D01*
X158347228Y-78340857D01*
X158383514Y-78413428D01*
X158383514Y-78486000D01*
X158347228Y-78558571D01*
X158310942Y-78594857D01*
X158238371Y-78631142D01*
X158093228Y-78667428D01*
X157911800Y-78667428D01*
X157766657Y-78631142D01*
X157694085Y-78594857D01*
X157657800Y-78558571D01*
X157621514Y-78486000D01*
X157621514Y-77760285D02*
X157621514Y-77687714D01*
X157657800Y-77615142D01*
X157694085Y-77578857D01*
X157766657Y-77542571D01*
X157911800Y-77506285D01*
X158093228Y-77506285D01*
X158238371Y-77542571D01*
X158310942Y-77578857D01*
X158347228Y-77615142D01*
X158383514Y-77687714D01*
X158383514Y-77760285D01*
X158347228Y-77832857D01*
X158310942Y-77869142D01*
X158238371Y-77905428D01*
X158093228Y-77941714D01*
X157911800Y-77941714D01*
X157766657Y-77905428D01*
X157694085Y-77869142D01*
X157657800Y-77832857D01*
X157621514Y-77760285D01*
X157621514Y-77252285D02*
X157621514Y-76780571D01*
X157911800Y-77034571D01*
X157911800Y-76925714D01*
X157948085Y-76853142D01*
X157984371Y-76816857D01*
X158056942Y-76780571D01*
X158238371Y-76780571D01*
X158310942Y-76816857D01*
X158347228Y-76853142D01*
X158383514Y-76925714D01*
X158383514Y-77143428D01*
X158347228Y-77216000D01*
X158310942Y-77252285D01*
X157621514Y-76526571D02*
X157621514Y-76018571D01*
X158383514Y-76345142D01*
D11*
X128746700Y-69531300D02*
X127046700Y-69531300D01*
X127046700Y-69531300D02*
X127046700Y-72081300D01*
X128746700Y-69531300D02*
X128746700Y-72081300D01*
X125014700Y-72531300D02*
X125014700Y-69981300D01*
X126714700Y-72531300D02*
X126714700Y-69981300D01*
X125014700Y-72531300D02*
X126714700Y-72531300D01*
X115610000Y-65510000D02*
X116940000Y-65510000D01*
X115610000Y-66840000D02*
X115610000Y-65510000D01*
X115610000Y-68110000D02*
X118270000Y-68110000D01*
X118270000Y-68110000D02*
X118270000Y-91030000D01*
X115610000Y-68110000D02*
X115610000Y-91030000D01*
X115610000Y-91030000D02*
X118270000Y-91030000D01*
X138999700Y-75365300D02*
X138999700Y-77365300D01*
X136859700Y-77365300D02*
X136859700Y-75365300D01*
D12*
X130774700Y-70411300D02*
X129374700Y-70411300D01*
X130774700Y-75511300D02*
X134924700Y-75511300D01*
X130774700Y-70361300D02*
X134924700Y-70361300D01*
X130774700Y-75511300D02*
X130774700Y-75366300D01*
X134924700Y-75511300D02*
X134924700Y-75366300D01*
X134924700Y-70361300D02*
X134924700Y-70506300D01*
X130774700Y-70361300D02*
X130774700Y-70411300D01*
X123404700Y-84013300D02*
X122004700Y-84013300D01*
X123404700Y-89113300D02*
X127554700Y-89113300D01*
X123404700Y-83963300D02*
X127554700Y-83963300D01*
X123404700Y-89113300D02*
X123404700Y-88968300D01*
X127554700Y-89113300D02*
X127554700Y-88968300D01*
X127554700Y-83963300D02*
X127554700Y-84108300D01*
X123404700Y-83963300D02*
X123404700Y-84013300D01*
D11*
X129403120Y-90858300D02*
X129684280Y-90858300D01*
X129403120Y-89838300D02*
X129684280Y-89838300D01*
X121529120Y-89838300D02*
X121810280Y-89838300D01*
X121529120Y-90858300D02*
X121810280Y-90858300D01*
X129403120Y-91362300D02*
X129684280Y-91362300D01*
X129403120Y-92382300D02*
X129684280Y-92382300D01*
X121529120Y-92382300D02*
X121810280Y-92382300D01*
X121529120Y-91362300D02*
X121810280Y-91362300D01*
X125747280Y-89838300D02*
X125466120Y-89838300D01*
X125747280Y-90858300D02*
X125466120Y-90858300D01*
X141526000Y-83422000D02*
X141526000Y-65422000D01*
X147526000Y-83422000D02*
X141526000Y-83422000D01*
X147526000Y-65422000D02*
X147526000Y-83422000D01*
X141526000Y-65422000D02*
X147526000Y-65422000D01*
X120528700Y-70890720D02*
X120528700Y-71171880D01*
X121548700Y-70890720D02*
X121548700Y-71171880D01*
X123576700Y-71171880D02*
X123576700Y-70890720D01*
X124596700Y-71171880D02*
X124596700Y-70890720D01*
X152005420Y-84834000D02*
X152286580Y-84834000D01*
X152005420Y-85854000D02*
X152286580Y-85854000D01*
X152005420Y-87632000D02*
X152286580Y-87632000D01*
X152005420Y-86612000D02*
X152286580Y-86612000D01*
X138551120Y-70140300D02*
X138832280Y-70140300D01*
X138551120Y-71160300D02*
X138832280Y-71160300D01*
X138551120Y-71664300D02*
X138832280Y-71664300D01*
X138551120Y-72684300D02*
X138832280Y-72684300D01*
X127148280Y-74585300D02*
X126867120Y-74585300D01*
X127148280Y-75605300D02*
X126867120Y-75605300D01*
X127148280Y-74081300D02*
X126867120Y-74081300D01*
X127148280Y-73061300D02*
X126867120Y-73061300D01*
X122040200Y-71268558D02*
X122040200Y-70794042D01*
X123085200Y-71268558D02*
X123085200Y-70794042D01*
X131685958Y-86650800D02*
X131211442Y-86650800D01*
X131685958Y-87695800D02*
X131211442Y-87695800D01*
X152148000Y-93358580D02*
X152148000Y-93077420D01*
X151128000Y-93358580D02*
X151128000Y-93077420D01*
X137158000Y-93358580D02*
X137158000Y-93077420D01*
X138178000Y-93358580D02*
X138178000Y-93077420D01*
X147751000Y-90693000D02*
X141501000Y-90693000D01*
X147751000Y-95743000D02*
X141501000Y-95743000D01*
X147751000Y-90693000D02*
G75*
G02*
X147751000Y-95743000I0J-2525000D01*
G01*
X141501000Y-90693000D02*
G75*
G03*
X141501000Y-95743000I0J-2525000D01*
G01*
X144614382Y-90129001D02*
X147361882Y-90129001D01*
X147361882Y-90129001D02*
X147361882Y-89846501D01*
X144614382Y-90129001D02*
X141866882Y-90129001D01*
X141866882Y-90129001D02*
X141866882Y-89846501D01*
X144614382Y-84634001D02*
X147361882Y-84634001D01*
X147361882Y-84634001D02*
X147361882Y-84916501D01*
X144614382Y-84634001D02*
X141866882Y-84634001D01*
X141866882Y-84634001D02*
X141866882Y-84916501D01*
X141866882Y-84916501D02*
X140214382Y-84916501D01*
D12*
X128352380Y-68838095D02*
X127352380Y-68838095D01*
X127352380Y-68600000D01*
X127400000Y-68457142D01*
X127495238Y-68361904D01*
X127590476Y-68314285D01*
X127780952Y-68266666D01*
X127923809Y-68266666D01*
X128114285Y-68314285D01*
X128209523Y-68361904D01*
X128304761Y-68457142D01*
X128352380Y-68600000D01*
X128352380Y-68838095D01*
X128352380Y-67314285D02*
X128352380Y-67885714D01*
X128352380Y-67600000D02*
X127352380Y-67600000D01*
X127495238Y-67695238D01*
X127590476Y-67790476D01*
X127638095Y-67885714D01*
X126352380Y-68888095D02*
X125352380Y-68888095D01*
X125352380Y-68650000D01*
X125400000Y-68507142D01*
X125495238Y-68411904D01*
X125590476Y-68364285D01*
X125780952Y-68316666D01*
X125923809Y-68316666D01*
X126114285Y-68364285D01*
X126209523Y-68411904D01*
X126304761Y-68507142D01*
X126352380Y-68650000D01*
X126352380Y-68888095D01*
X125447619Y-67935714D02*
X125400000Y-67888095D01*
X125352380Y-67792857D01*
X125352380Y-67554761D01*
X125400000Y-67459523D01*
X125447619Y-67411904D01*
X125542857Y-67364285D01*
X125638095Y-67364285D01*
X125780952Y-67411904D01*
X126352380Y-67983333D01*
X126352380Y-67364285D01*
X119466666Y-65302380D02*
X119466666Y-66016666D01*
X119419047Y-66159523D01*
X119323809Y-66254761D01*
X119180952Y-66302380D01*
X119085714Y-66302380D01*
X120466666Y-66302380D02*
X119895238Y-66302380D01*
X120180952Y-66302380D02*
X120180952Y-65302380D01*
X120085714Y-65445238D01*
X119990476Y-65540476D01*
X119895238Y-65588095D01*
X138374380Y-80938666D02*
X137898190Y-81272000D01*
X138374380Y-81510095D02*
X137374380Y-81510095D01*
X137374380Y-81129142D01*
X137422000Y-81033904D01*
X137469619Y-80986285D01*
X137564857Y-80938666D01*
X137707714Y-80938666D01*
X137802952Y-80986285D01*
X137850571Y-81033904D01*
X137898190Y-81129142D01*
X137898190Y-81510095D01*
X138374380Y-79986285D02*
X138374380Y-80557714D01*
X138374380Y-80272000D02*
X137374380Y-80272000D01*
X137517238Y-80367238D01*
X137612476Y-80462476D01*
X137660095Y-80557714D01*
X135136095Y-88606380D02*
X135707523Y-88606380D01*
X135421809Y-89606380D02*
X135421809Y-88606380D01*
X136040857Y-89606380D02*
X136040857Y-88606380D01*
X136421809Y-88606380D01*
X136517047Y-88654000D01*
X136564666Y-88701619D01*
X136612285Y-88796857D01*
X136612285Y-88939714D01*
X136564666Y-89034952D01*
X136517047Y-89082571D01*
X136421809Y-89130190D01*
X136040857Y-89130190D01*
X137517047Y-88606380D02*
X137040857Y-88606380D01*
X136993238Y-89082571D01*
X137040857Y-89034952D01*
X137136095Y-88987333D01*
X137374190Y-88987333D01*
X137469428Y-89034952D01*
X137517047Y-89082571D01*
X137564666Y-89177809D01*
X137564666Y-89415904D01*
X137517047Y-89511142D01*
X137469428Y-89558761D01*
X137374190Y-89606380D01*
X137136095Y-89606380D01*
X137040857Y-89558761D01*
X136993238Y-89511142D01*
X123338095Y-65202380D02*
X123909523Y-65202380D01*
X123623809Y-66202380D02*
X123623809Y-65202380D01*
X124242857Y-66202380D02*
X124242857Y-65202380D01*
X124623809Y-65202380D01*
X124719047Y-65250000D01*
X124766666Y-65297619D01*
X124814285Y-65392857D01*
X124814285Y-65535714D01*
X124766666Y-65630952D01*
X124719047Y-65678571D01*
X124623809Y-65726190D01*
X124242857Y-65726190D01*
X125766666Y-66202380D02*
X125195238Y-66202380D01*
X125480952Y-66202380D02*
X125480952Y-65202380D01*
X125385714Y-65345238D01*
X125290476Y-65440476D01*
X125195238Y-65488095D01*
X131338095Y-77802380D02*
X131909523Y-77802380D01*
X131623809Y-78802380D02*
X131623809Y-77802380D01*
X132242857Y-78802380D02*
X132242857Y-77802380D01*
X132623809Y-77802380D01*
X132719047Y-77850000D01*
X132766666Y-77897619D01*
X132814285Y-77992857D01*
X132814285Y-78135714D01*
X132766666Y-78230952D01*
X132719047Y-78278571D01*
X132623809Y-78326190D01*
X132242857Y-78326190D01*
X133195238Y-77897619D02*
X133242857Y-77850000D01*
X133338095Y-77802380D01*
X133576190Y-77802380D01*
X133671428Y-77850000D01*
X133719047Y-77897619D01*
X133766666Y-77992857D01*
X133766666Y-78088095D01*
X133719047Y-78230952D01*
X133147619Y-78802380D01*
X133766666Y-78802380D01*
X134882095Y-66254380D02*
X135453523Y-66254380D01*
X135167809Y-67254380D02*
X135167809Y-66254380D01*
X135786857Y-67254380D02*
X135786857Y-66254380D01*
X136167809Y-66254380D01*
X136263047Y-66302000D01*
X136310666Y-66349619D01*
X136358285Y-66444857D01*
X136358285Y-66587714D01*
X136310666Y-66682952D01*
X136263047Y-66730571D01*
X136167809Y-66778190D01*
X135786857Y-66778190D01*
X137215428Y-66587714D02*
X137215428Y-67254380D01*
X136977333Y-66206761D02*
X136739238Y-66921047D01*
X137358285Y-66921047D01*
X119088095Y-74890380D02*
X119659523Y-74890380D01*
X119373809Y-75890380D02*
X119373809Y-74890380D01*
X119992857Y-75890380D02*
X119992857Y-74890380D01*
X120373809Y-74890380D01*
X120469047Y-74938000D01*
X120516666Y-74985619D01*
X120564285Y-75080857D01*
X120564285Y-75223714D01*
X120516666Y-75318952D01*
X120469047Y-75366571D01*
X120373809Y-75414190D01*
X119992857Y-75414190D01*
X120897619Y-74890380D02*
X121516666Y-74890380D01*
X121183333Y-75271333D01*
X121326190Y-75271333D01*
X121421428Y-75318952D01*
X121469047Y-75366571D01*
X121516666Y-75461809D01*
X121516666Y-75699904D01*
X121469047Y-75795142D01*
X121421428Y-75842761D01*
X121326190Y-75890380D01*
X121040476Y-75890380D01*
X120945238Y-75842761D01*
X120897619Y-75795142D01*
X132087795Y-68888680D02*
X132087795Y-69698204D01*
X132135414Y-69793442D01*
X132183033Y-69841061D01*
X132278271Y-69888680D01*
X132468747Y-69888680D01*
X132563985Y-69841061D01*
X132611604Y-69793442D01*
X132659223Y-69698204D01*
X132659223Y-68888680D01*
X133659223Y-69888680D02*
X133087795Y-69888680D01*
X133373509Y-69888680D02*
X133373509Y-68888680D01*
X133278271Y-69031538D01*
X133183033Y-69126776D01*
X133087795Y-69174395D01*
X124717795Y-82490680D02*
X124717795Y-83300204D01*
X124765414Y-83395442D01*
X124813033Y-83443061D01*
X124908271Y-83490680D01*
X125098747Y-83490680D01*
X125193985Y-83443061D01*
X125241604Y-83395442D01*
X125289223Y-83300204D01*
X125289223Y-82490680D01*
X125717795Y-82585919D02*
X125765414Y-82538300D01*
X125860652Y-82490680D01*
X126098747Y-82490680D01*
X126193985Y-82538300D01*
X126241604Y-82585919D01*
X126289223Y-82681157D01*
X126289223Y-82776395D01*
X126241604Y-82919252D01*
X125670176Y-83490680D01*
X126289223Y-83490680D01*
X129373333Y-93829142D02*
X129325714Y-93876761D01*
X129182857Y-93924380D01*
X129087619Y-93924380D01*
X128944761Y-93876761D01*
X128849523Y-93781523D01*
X128801904Y-93686285D01*
X128754285Y-93495809D01*
X128754285Y-93352952D01*
X128801904Y-93162476D01*
X128849523Y-93067238D01*
X128944761Y-92972000D01*
X129087619Y-92924380D01*
X129182857Y-92924380D01*
X129325714Y-92972000D01*
X129373333Y-93019619D01*
X130325714Y-93924380D02*
X129754285Y-93924380D01*
X130040000Y-93924380D02*
X130040000Y-92924380D01*
X129944761Y-93067238D01*
X129849523Y-93162476D01*
X129754285Y-93210095D01*
X121499333Y-93829142D02*
X121451714Y-93876761D01*
X121308857Y-93924380D01*
X121213619Y-93924380D01*
X121070761Y-93876761D01*
X120975523Y-93781523D01*
X120927904Y-93686285D01*
X120880285Y-93495809D01*
X120880285Y-93352952D01*
X120927904Y-93162476D01*
X120975523Y-93067238D01*
X121070761Y-92972000D01*
X121213619Y-92924380D01*
X121308857Y-92924380D01*
X121451714Y-92972000D01*
X121499333Y-93019619D01*
X121880285Y-93019619D02*
X121927904Y-92972000D01*
X122023142Y-92924380D01*
X122261238Y-92924380D01*
X122356476Y-92972000D01*
X122404095Y-93019619D01*
X122451714Y-93114857D01*
X122451714Y-93210095D01*
X122404095Y-93352952D01*
X121832666Y-93924380D01*
X122451714Y-93924380D01*
X129373333Y-95353142D02*
X129325714Y-95400761D01*
X129182857Y-95448380D01*
X129087619Y-95448380D01*
X128944761Y-95400761D01*
X128849523Y-95305523D01*
X128801904Y-95210285D01*
X128754285Y-95019809D01*
X128754285Y-94876952D01*
X128801904Y-94686476D01*
X128849523Y-94591238D01*
X128944761Y-94496000D01*
X129087619Y-94448380D01*
X129182857Y-94448380D01*
X129325714Y-94496000D01*
X129373333Y-94543619D01*
X129706666Y-94448380D02*
X130325714Y-94448380D01*
X129992380Y-94829333D01*
X130135238Y-94829333D01*
X130230476Y-94876952D01*
X130278095Y-94924571D01*
X130325714Y-95019809D01*
X130325714Y-95257904D01*
X130278095Y-95353142D01*
X130230476Y-95400761D01*
X130135238Y-95448380D01*
X129849523Y-95448380D01*
X129754285Y-95400761D01*
X129706666Y-95353142D01*
X121503033Y-95353142D02*
X121455414Y-95400761D01*
X121312557Y-95448380D01*
X121217319Y-95448380D01*
X121074461Y-95400761D01*
X120979223Y-95305523D01*
X120931604Y-95210285D01*
X120883985Y-95019809D01*
X120883985Y-94876952D01*
X120931604Y-94686476D01*
X120979223Y-94591238D01*
X121074461Y-94496000D01*
X121217319Y-94448380D01*
X121312557Y-94448380D01*
X121455414Y-94496000D01*
X121503033Y-94543619D01*
X122360176Y-94781714D02*
X122360176Y-95448380D01*
X122122080Y-94400761D02*
X121883985Y-95115047D01*
X122503033Y-95115047D01*
X125440033Y-92135442D02*
X125392414Y-92183061D01*
X125249557Y-92230680D01*
X125154319Y-92230680D01*
X125011461Y-92183061D01*
X124916223Y-92087823D01*
X124868604Y-91992585D01*
X124820985Y-91802109D01*
X124820985Y-91659252D01*
X124868604Y-91468776D01*
X124916223Y-91373538D01*
X125011461Y-91278300D01*
X125154319Y-91230680D01*
X125249557Y-91230680D01*
X125392414Y-91278300D01*
X125440033Y-91325919D01*
X126344795Y-91230680D02*
X125868604Y-91230680D01*
X125820985Y-91706871D01*
X125868604Y-91659252D01*
X125963842Y-91611633D01*
X126201938Y-91611633D01*
X126297176Y-91659252D01*
X126344795Y-91706871D01*
X126392414Y-91802109D01*
X126392414Y-92040204D01*
X126344795Y-92135442D01*
X126297176Y-92183061D01*
X126201938Y-92230680D01*
X125963842Y-92230680D01*
X125868604Y-92183061D01*
X125820985Y-92135442D01*
X148947142Y-82716666D02*
X148994761Y-82764285D01*
X149042380Y-82907142D01*
X149042380Y-83002380D01*
X148994761Y-83145238D01*
X148899523Y-83240476D01*
X148804285Y-83288095D01*
X148613809Y-83335714D01*
X148470952Y-83335714D01*
X148280476Y-83288095D01*
X148185238Y-83240476D01*
X148090000Y-83145238D01*
X148042380Y-83002380D01*
X148042380Y-82907142D01*
X148090000Y-82764285D01*
X148137619Y-82716666D01*
X148042380Y-81859523D02*
X148042380Y-82050000D01*
X148090000Y-82145238D01*
X148137619Y-82192857D01*
X148280476Y-82288095D01*
X148470952Y-82335714D01*
X148851904Y-82335714D01*
X148947142Y-82288095D01*
X148994761Y-82240476D01*
X149042380Y-82145238D01*
X149042380Y-81954761D01*
X148994761Y-81859523D01*
X148947142Y-81811904D01*
X148851904Y-81764285D01*
X148613809Y-81764285D01*
X148518571Y-81811904D01*
X148470952Y-81859523D01*
X148423333Y-81954761D01*
X148423333Y-82145238D01*
X148470952Y-82240476D01*
X148518571Y-82288095D01*
X148613809Y-82335714D01*
X121515142Y-68746666D02*
X121562761Y-68794285D01*
X121610380Y-68937142D01*
X121610380Y-69032380D01*
X121562761Y-69175238D01*
X121467523Y-69270476D01*
X121372285Y-69318095D01*
X121181809Y-69365714D01*
X121038952Y-69365714D01*
X120848476Y-69318095D01*
X120753238Y-69270476D01*
X120658000Y-69175238D01*
X120610380Y-69032380D01*
X120610380Y-68937142D01*
X120658000Y-68794285D01*
X120705619Y-68746666D01*
X120610380Y-68413333D02*
X120610380Y-67746666D01*
X121610380Y-68175238D01*
X124563142Y-68746666D02*
X124610761Y-68794285D01*
X124658380Y-68937142D01*
X124658380Y-69032380D01*
X124610761Y-69175238D01*
X124515523Y-69270476D01*
X124420285Y-69318095D01*
X124229809Y-69365714D01*
X124086952Y-69365714D01*
X123896476Y-69318095D01*
X123801238Y-69270476D01*
X123706000Y-69175238D01*
X123658380Y-69032380D01*
X123658380Y-68937142D01*
X123706000Y-68794285D01*
X123753619Y-68746666D01*
X124086952Y-68175238D02*
X124039333Y-68270476D01*
X123991714Y-68318095D01*
X123896476Y-68365714D01*
X123848857Y-68365714D01*
X123753619Y-68318095D01*
X123706000Y-68270476D01*
X123658380Y-68175238D01*
X123658380Y-67984761D01*
X123706000Y-67889523D01*
X123753619Y-67841904D01*
X123848857Y-67794285D01*
X123896476Y-67794285D01*
X123991714Y-67841904D01*
X124039333Y-67889523D01*
X124086952Y-67984761D01*
X124086952Y-68175238D01*
X124134571Y-68270476D01*
X124182190Y-68318095D01*
X124277428Y-68365714D01*
X124467904Y-68365714D01*
X124563142Y-68318095D01*
X124610761Y-68270476D01*
X124658380Y-68175238D01*
X124658380Y-67984761D01*
X124610761Y-67889523D01*
X124563142Y-67841904D01*
X124467904Y-67794285D01*
X124277428Y-67794285D01*
X124182190Y-67841904D01*
X124134571Y-67889523D01*
X124086952Y-67984761D01*
X151979333Y-84177142D02*
X151931714Y-84224761D01*
X151788857Y-84272380D01*
X151693619Y-84272380D01*
X151550761Y-84224761D01*
X151455523Y-84129523D01*
X151407904Y-84034285D01*
X151360285Y-83843809D01*
X151360285Y-83700952D01*
X151407904Y-83510476D01*
X151455523Y-83415238D01*
X151550761Y-83320000D01*
X151693619Y-83272380D01*
X151788857Y-83272380D01*
X151931714Y-83320000D01*
X151979333Y-83367619D01*
X152455523Y-84272380D02*
X152646000Y-84272380D01*
X152741238Y-84224761D01*
X152788857Y-84177142D01*
X152884095Y-84034285D01*
X152931714Y-83843809D01*
X152931714Y-83462857D01*
X152884095Y-83367619D01*
X152836476Y-83320000D01*
X152741238Y-83272380D01*
X152550761Y-83272380D01*
X152455523Y-83320000D01*
X152407904Y-83367619D01*
X152360285Y-83462857D01*
X152360285Y-83700952D01*
X152407904Y-83796190D01*
X152455523Y-83843809D01*
X152550761Y-83891428D01*
X152741238Y-83891428D01*
X152836476Y-83843809D01*
X152884095Y-83796190D01*
X152931714Y-83700952D01*
X151503142Y-89003142D02*
X151455523Y-89050761D01*
X151312666Y-89098380D01*
X151217428Y-89098380D01*
X151074571Y-89050761D01*
X150979333Y-88955523D01*
X150931714Y-88860285D01*
X150884095Y-88669809D01*
X150884095Y-88526952D01*
X150931714Y-88336476D01*
X150979333Y-88241238D01*
X151074571Y-88146000D01*
X151217428Y-88098380D01*
X151312666Y-88098380D01*
X151455523Y-88146000D01*
X151503142Y-88193619D01*
X152455523Y-89098380D02*
X151884095Y-89098380D01*
X152169809Y-89098380D02*
X152169809Y-88098380D01*
X152074571Y-88241238D01*
X151979333Y-88336476D01*
X151884095Y-88384095D01*
X153074571Y-88098380D02*
X153169809Y-88098380D01*
X153265047Y-88146000D01*
X153312666Y-88193619D01*
X153360285Y-88288857D01*
X153407904Y-88479333D01*
X153407904Y-88717428D01*
X153360285Y-88907904D01*
X153312666Y-89003142D01*
X153265047Y-89050761D01*
X153169809Y-89098380D01*
X153074571Y-89098380D01*
X152979333Y-89050761D01*
X152931714Y-89003142D01*
X152884095Y-88907904D01*
X152836476Y-88717428D01*
X152836476Y-88479333D01*
X152884095Y-88288857D01*
X152931714Y-88193619D01*
X152979333Y-88146000D01*
X153074571Y-88098380D01*
X138048842Y-69577442D02*
X138001223Y-69625061D01*
X137858366Y-69672680D01*
X137763128Y-69672680D01*
X137620271Y-69625061D01*
X137525033Y-69529823D01*
X137477414Y-69434585D01*
X137429795Y-69244109D01*
X137429795Y-69101252D01*
X137477414Y-68910776D01*
X137525033Y-68815538D01*
X137620271Y-68720300D01*
X137763128Y-68672680D01*
X137858366Y-68672680D01*
X138001223Y-68720300D01*
X138048842Y-68767919D01*
X139001223Y-69672680D02*
X138429795Y-69672680D01*
X138715509Y-69672680D02*
X138715509Y-68672680D01*
X138620271Y-68815538D01*
X138525033Y-68910776D01*
X138429795Y-68958395D01*
X139953604Y-69672680D02*
X139382176Y-69672680D01*
X139667890Y-69672680D02*
X139667890Y-68672680D01*
X139572652Y-68815538D01*
X139477414Y-68910776D01*
X139382176Y-68958395D01*
X126357142Y-79097142D02*
X126309523Y-79144761D01*
X126166666Y-79192380D01*
X126071428Y-79192380D01*
X125928571Y-79144761D01*
X125833333Y-79049523D01*
X125785714Y-78954285D01*
X125738095Y-78763809D01*
X125738095Y-78620952D01*
X125785714Y-78430476D01*
X125833333Y-78335238D01*
X125928571Y-78240000D01*
X126071428Y-78192380D01*
X126166666Y-78192380D01*
X126309523Y-78240000D01*
X126357142Y-78287619D01*
X127309523Y-79192380D02*
X126738095Y-79192380D01*
X127023809Y-79192380D02*
X127023809Y-78192380D01*
X126928571Y-78335238D01*
X126833333Y-78430476D01*
X126738095Y-78478095D01*
X128166666Y-78525714D02*
X128166666Y-79192380D01*
X127928571Y-78144761D02*
X127690476Y-78859047D01*
X128309523Y-78859047D01*
X126357142Y-77573142D02*
X126309523Y-77620761D01*
X126166666Y-77668380D01*
X126071428Y-77668380D01*
X125928571Y-77620761D01*
X125833333Y-77525523D01*
X125785714Y-77430285D01*
X125738095Y-77239809D01*
X125738095Y-77096952D01*
X125785714Y-76906476D01*
X125833333Y-76811238D01*
X125928571Y-76716000D01*
X126071428Y-76668380D01*
X126166666Y-76668380D01*
X126309523Y-76716000D01*
X126357142Y-76763619D01*
X127309523Y-77668380D02*
X126738095Y-77668380D01*
X127023809Y-77668380D02*
X127023809Y-76668380D01*
X126928571Y-76811238D01*
X126833333Y-76906476D01*
X126738095Y-76954095D01*
X128166666Y-76668380D02*
X127976190Y-76668380D01*
X127880952Y-76716000D01*
X127833333Y-76763619D01*
X127738095Y-76906476D01*
X127690476Y-77096952D01*
X127690476Y-77477904D01*
X127738095Y-77573142D01*
X127785714Y-77620761D01*
X127880952Y-77668380D01*
X128071428Y-77668380D01*
X128166666Y-77620761D01*
X128214285Y-77573142D01*
X128261904Y-77477904D01*
X128261904Y-77239809D01*
X128214285Y-77144571D01*
X128166666Y-77096952D01*
X128071428Y-77049333D01*
X127880952Y-77049333D01*
X127785714Y-77096952D01*
X127738095Y-77144571D01*
X127690476Y-77239809D01*
X123134380Y-68746666D02*
X122658190Y-69080000D01*
X123134380Y-69318095D02*
X122134380Y-69318095D01*
X122134380Y-68937142D01*
X122182000Y-68841904D01*
X122229619Y-68794285D01*
X122324857Y-68746666D01*
X122467714Y-68746666D01*
X122562952Y-68794285D01*
X122610571Y-68841904D01*
X122658190Y-68937142D01*
X122658190Y-69318095D01*
X122229619Y-68365714D02*
X122182000Y-68318095D01*
X122134380Y-68222857D01*
X122134380Y-67984761D01*
X122182000Y-67889523D01*
X122229619Y-67841904D01*
X122324857Y-67794285D01*
X122420095Y-67794285D01*
X122562952Y-67841904D01*
X123134380Y-68413333D01*
X123134380Y-67794285D01*
X131282033Y-89055680D02*
X130948700Y-88579490D01*
X130710604Y-89055680D02*
X130710604Y-88055680D01*
X131091557Y-88055680D01*
X131186795Y-88103300D01*
X131234414Y-88150919D01*
X131282033Y-88246157D01*
X131282033Y-88389014D01*
X131234414Y-88484252D01*
X131186795Y-88531871D01*
X131091557Y-88579490D01*
X130710604Y-88579490D01*
X131615366Y-88055680D02*
X132234414Y-88055680D01*
X131901080Y-88436633D01*
X132043938Y-88436633D01*
X132139176Y-88484252D01*
X132186795Y-88531871D01*
X132234414Y-88627109D01*
X132234414Y-88865204D01*
X132186795Y-88960442D01*
X132139176Y-89008061D01*
X132043938Y-89055680D01*
X131758223Y-89055680D01*
X131662985Y-89008061D01*
X131615366Y-88960442D01*
X153519142Y-93860857D02*
X153566761Y-93908476D01*
X153614380Y-94051333D01*
X153614380Y-94146571D01*
X153566761Y-94289428D01*
X153471523Y-94384666D01*
X153376285Y-94432285D01*
X153185809Y-94479904D01*
X153042952Y-94479904D01*
X152852476Y-94432285D01*
X152757238Y-94384666D01*
X152662000Y-94289428D01*
X152614380Y-94146571D01*
X152614380Y-94051333D01*
X152662000Y-93908476D01*
X152709619Y-93860857D01*
X153614380Y-92908476D02*
X153614380Y-93479904D01*
X153614380Y-93194190D02*
X152614380Y-93194190D01*
X152757238Y-93289428D01*
X152852476Y-93384666D01*
X152900095Y-93479904D01*
X152614380Y-92575142D02*
X152614380Y-91956095D01*
X152995333Y-92289428D01*
X152995333Y-92146571D01*
X153042952Y-92051333D01*
X153090571Y-92003714D01*
X153185809Y-91956095D01*
X153423904Y-91956095D01*
X153519142Y-92003714D01*
X153566761Y-92051333D01*
X153614380Y-92146571D01*
X153614380Y-92432285D01*
X153566761Y-92527523D01*
X153519142Y-92575142D01*
X136595142Y-93860857D02*
X136642761Y-93908476D01*
X136690380Y-94051333D01*
X136690380Y-94146571D01*
X136642761Y-94289428D01*
X136547523Y-94384666D01*
X136452285Y-94432285D01*
X136261809Y-94479904D01*
X136118952Y-94479904D01*
X135928476Y-94432285D01*
X135833238Y-94384666D01*
X135738000Y-94289428D01*
X135690380Y-94146571D01*
X135690380Y-94051333D01*
X135738000Y-93908476D01*
X135785619Y-93860857D01*
X136690380Y-92908476D02*
X136690380Y-93479904D01*
X136690380Y-93194190D02*
X135690380Y-93194190D01*
X135833238Y-93289428D01*
X135928476Y-93384666D01*
X135976095Y-93479904D01*
X135690380Y-92003714D02*
X135690380Y-92479904D01*
X136166571Y-92527523D01*
X136118952Y-92479904D01*
X136071333Y-92384666D01*
X136071333Y-92146571D01*
X136118952Y-92051333D01*
X136166571Y-92003714D01*
X136261809Y-91956095D01*
X136499904Y-91956095D01*
X136595142Y-92003714D01*
X136642761Y-92051333D01*
X136690380Y-92146571D01*
X136690380Y-92384666D01*
X136642761Y-92479904D01*
X136595142Y-92527523D01*
X151161809Y-90908190D02*
X151161809Y-91384380D01*
X150828476Y-90384380D02*
X151161809Y-90908190D01*
X151495142Y-90384380D01*
X152352285Y-91384380D02*
X151780857Y-91384380D01*
X152066571Y-91384380D02*
X152066571Y-90384380D01*
X151971333Y-90527238D01*
X151876095Y-90622476D01*
X151780857Y-90670095D01*
X138176095Y-84542380D02*
X138176095Y-85351904D01*
X138223714Y-85447142D01*
X138271333Y-85494761D01*
X138366571Y-85542380D01*
X138557047Y-85542380D01*
X138652285Y-85494761D01*
X138699904Y-85447142D01*
X138747523Y-85351904D01*
X138747523Y-84542380D01*
X139128476Y-84542380D02*
X139747523Y-84542380D01*
X139414190Y-84923333D01*
X139557047Y-84923333D01*
X139652285Y-84970952D01*
X139699904Y-85018571D01*
X139747523Y-85113809D01*
X139747523Y-85351904D01*
X139699904Y-85447142D01*
X139652285Y-85494761D01*
X139557047Y-85542380D01*
X139271333Y-85542380D01*
X139176095Y-85494761D01*
X139128476Y-85447142D01*
M02*
