G04 #@! TF.GenerationSoftware,KiCad,Pcbnew,(5.1.4)-1*
G04 #@! TF.CreationDate,2019-12-30T10:40:50-06:00*
G04 #@! TF.ProjectId,analog_pcb,616e616c-6f67-45f7-9063-622e6b696361,rev?*
G04 #@! TF.SameCoordinates,Original*
G04 #@! TF.FileFunction,Copper,L2,Inr*
G04 #@! TF.FilePolarity,Positive*
%FSLAX46Y46*%
G04 Gerber Fmt 4.6, Leading zero omitted, Abs format (unit mm)*
G04 Created by KiCad (PCBNEW (5.1.4)-1) date 2019-12-30 10:40:50*
%MOMM*%
%LPD*%
G04 APERTURE LIST*
%ADD10O,1.700000X1.700000*%
%ADD11R,1.700000X1.700000*%
%ADD12C,0.508000*%
%ADD13C,0.254000*%
G04 APERTURE END LIST*
D10*
X116940000Y-89700000D03*
X116940000Y-87160000D03*
X116940000Y-84620000D03*
X116940000Y-82080000D03*
X116940000Y-79540000D03*
X116940000Y-77000000D03*
X116940000Y-74460000D03*
X116940000Y-71920000D03*
X116940000Y-69380000D03*
D11*
X116940000Y-66840000D03*
D12*
X120904000Y-86360000D03*
X120650000Y-88900000D03*
X130302000Y-89154000D03*
X140208000Y-69342000D03*
X131572000Y-73660000D03*
X124968000Y-68834000D03*
X120904000Y-73406000D03*
X125984000Y-76200000D03*
X139192000Y-81026000D03*
X140462000Y-91440000D03*
X149606000Y-88646000D03*
X137160000Y-84328000D03*
X137414000Y-69342000D03*
X143764000Y-81026000D03*
X149098000Y-86868000D03*
X137160000Y-88900000D03*
X127254000Y-91948000D03*
X128016000Y-76200000D03*
X132588000Y-86106000D03*
X123952000Y-91948000D03*
X142240000Y-74422000D03*
X121158000Y-84582000D03*
D13*
G36*
X158190000Y-95390000D02*
G01*
X115060000Y-95390000D01*
X115060000Y-91860441D01*
X123063000Y-91860441D01*
X123063000Y-92035559D01*
X123097164Y-92207312D01*
X123164179Y-92369099D01*
X123261469Y-92514704D01*
X123385296Y-92638531D01*
X123530901Y-92735821D01*
X123692688Y-92802836D01*
X123864441Y-92837000D01*
X124039559Y-92837000D01*
X124211312Y-92802836D01*
X124373099Y-92735821D01*
X124518704Y-92638531D01*
X124642531Y-92514704D01*
X124739821Y-92369099D01*
X124806836Y-92207312D01*
X124841000Y-92035559D01*
X124841000Y-91860441D01*
X126365000Y-91860441D01*
X126365000Y-92035559D01*
X126399164Y-92207312D01*
X126466179Y-92369099D01*
X126563469Y-92514704D01*
X126687296Y-92638531D01*
X126832901Y-92735821D01*
X126994688Y-92802836D01*
X127166441Y-92837000D01*
X127341559Y-92837000D01*
X127513312Y-92802836D01*
X127675099Y-92735821D01*
X127820704Y-92638531D01*
X127944531Y-92514704D01*
X128041821Y-92369099D01*
X128108836Y-92207312D01*
X128143000Y-92035559D01*
X128143000Y-91860441D01*
X128108836Y-91688688D01*
X128041821Y-91526901D01*
X127944531Y-91381296D01*
X127820704Y-91257469D01*
X127675099Y-91160179D01*
X127513312Y-91093164D01*
X127341559Y-91059000D01*
X127166441Y-91059000D01*
X126994688Y-91093164D01*
X126832901Y-91160179D01*
X126687296Y-91257469D01*
X126563469Y-91381296D01*
X126466179Y-91526901D01*
X126399164Y-91688688D01*
X126365000Y-91860441D01*
X124841000Y-91860441D01*
X124806836Y-91688688D01*
X124739821Y-91526901D01*
X124642531Y-91381296D01*
X124518704Y-91257469D01*
X124373099Y-91160179D01*
X124211312Y-91093164D01*
X124039559Y-91059000D01*
X123864441Y-91059000D01*
X123692688Y-91093164D01*
X123530901Y-91160179D01*
X123385296Y-91257469D01*
X123261469Y-91381296D01*
X123164179Y-91526901D01*
X123097164Y-91688688D01*
X123063000Y-91860441D01*
X115060000Y-91860441D01*
X115060000Y-82080000D01*
X115447815Y-82080000D01*
X115476487Y-82371111D01*
X115561401Y-82651034D01*
X115699294Y-82909014D01*
X115884866Y-83135134D01*
X116110986Y-83320706D01*
X116165791Y-83350000D01*
X116110986Y-83379294D01*
X115884866Y-83564866D01*
X115699294Y-83790986D01*
X115561401Y-84048966D01*
X115476487Y-84328889D01*
X115447815Y-84620000D01*
X115476487Y-84911111D01*
X115561401Y-85191034D01*
X115699294Y-85449014D01*
X115884866Y-85675134D01*
X116110986Y-85860706D01*
X116165791Y-85890000D01*
X116110986Y-85919294D01*
X115884866Y-86104866D01*
X115699294Y-86330986D01*
X115561401Y-86588966D01*
X115476487Y-86868889D01*
X115447815Y-87160000D01*
X115476487Y-87451111D01*
X115561401Y-87731034D01*
X115699294Y-87989014D01*
X115884866Y-88215134D01*
X116110986Y-88400706D01*
X116165791Y-88430000D01*
X116110986Y-88459294D01*
X115884866Y-88644866D01*
X115699294Y-88870986D01*
X115561401Y-89128966D01*
X115476487Y-89408889D01*
X115447815Y-89700000D01*
X115476487Y-89991111D01*
X115561401Y-90271034D01*
X115699294Y-90529014D01*
X115884866Y-90755134D01*
X116110986Y-90940706D01*
X116368966Y-91078599D01*
X116648889Y-91163513D01*
X116867050Y-91185000D01*
X117012950Y-91185000D01*
X117231111Y-91163513D01*
X117511034Y-91078599D01*
X117769014Y-90940706D01*
X117995134Y-90755134D01*
X118180706Y-90529014D01*
X118318599Y-90271034D01*
X118403513Y-89991111D01*
X118432185Y-89700000D01*
X118403513Y-89408889D01*
X118318599Y-89128966D01*
X118180706Y-88870986D01*
X118132660Y-88812441D01*
X136271000Y-88812441D01*
X136271000Y-88987559D01*
X136305164Y-89159312D01*
X136372179Y-89321099D01*
X136469469Y-89466704D01*
X136593296Y-89590531D01*
X136738901Y-89687821D01*
X136900688Y-89754836D01*
X137072441Y-89789000D01*
X137247559Y-89789000D01*
X137419312Y-89754836D01*
X137581099Y-89687821D01*
X137726704Y-89590531D01*
X137850531Y-89466704D01*
X137947821Y-89321099D01*
X138014836Y-89159312D01*
X138049000Y-88987559D01*
X138049000Y-88812441D01*
X138014836Y-88640688D01*
X137947821Y-88478901D01*
X137850531Y-88333296D01*
X137726704Y-88209469D01*
X137581099Y-88112179D01*
X137419312Y-88045164D01*
X137247559Y-88011000D01*
X137072441Y-88011000D01*
X136900688Y-88045164D01*
X136738901Y-88112179D01*
X136593296Y-88209469D01*
X136469469Y-88333296D01*
X136372179Y-88478901D01*
X136305164Y-88640688D01*
X136271000Y-88812441D01*
X118132660Y-88812441D01*
X117995134Y-88644866D01*
X117769014Y-88459294D01*
X117714209Y-88430000D01*
X117769014Y-88400706D01*
X117995134Y-88215134D01*
X118180706Y-87989014D01*
X118318599Y-87731034D01*
X118403513Y-87451111D01*
X118432185Y-87160000D01*
X118403513Y-86868889D01*
X118318599Y-86588966D01*
X118180706Y-86330986D01*
X117995134Y-86104866D01*
X117889825Y-86018441D01*
X131699000Y-86018441D01*
X131699000Y-86193559D01*
X131733164Y-86365312D01*
X131800179Y-86527099D01*
X131897469Y-86672704D01*
X132021296Y-86796531D01*
X132166901Y-86893821D01*
X132328688Y-86960836D01*
X132500441Y-86995000D01*
X132675559Y-86995000D01*
X132847312Y-86960836D01*
X133009099Y-86893821D01*
X133154704Y-86796531D01*
X133170794Y-86780441D01*
X148209000Y-86780441D01*
X148209000Y-86955559D01*
X148243164Y-87127312D01*
X148310179Y-87289099D01*
X148407469Y-87434704D01*
X148531296Y-87558531D01*
X148676901Y-87655821D01*
X148838688Y-87722836D01*
X149010441Y-87757000D01*
X149185559Y-87757000D01*
X149357312Y-87722836D01*
X149519099Y-87655821D01*
X149664704Y-87558531D01*
X149788531Y-87434704D01*
X149885821Y-87289099D01*
X149952836Y-87127312D01*
X149987000Y-86955559D01*
X149987000Y-86780441D01*
X149952836Y-86608688D01*
X149885821Y-86446901D01*
X149788531Y-86301296D01*
X149664704Y-86177469D01*
X149519099Y-86080179D01*
X149357312Y-86013164D01*
X149185559Y-85979000D01*
X149010441Y-85979000D01*
X148838688Y-86013164D01*
X148676901Y-86080179D01*
X148531296Y-86177469D01*
X148407469Y-86301296D01*
X148310179Y-86446901D01*
X148243164Y-86608688D01*
X148209000Y-86780441D01*
X133170794Y-86780441D01*
X133278531Y-86672704D01*
X133375821Y-86527099D01*
X133442836Y-86365312D01*
X133477000Y-86193559D01*
X133477000Y-86018441D01*
X133442836Y-85846688D01*
X133375821Y-85684901D01*
X133278531Y-85539296D01*
X133154704Y-85415469D01*
X133009099Y-85318179D01*
X132847312Y-85251164D01*
X132675559Y-85217000D01*
X132500441Y-85217000D01*
X132328688Y-85251164D01*
X132166901Y-85318179D01*
X132021296Y-85415469D01*
X131897469Y-85539296D01*
X131800179Y-85684901D01*
X131733164Y-85846688D01*
X131699000Y-86018441D01*
X117889825Y-86018441D01*
X117769014Y-85919294D01*
X117714209Y-85890000D01*
X117769014Y-85860706D01*
X117995134Y-85675134D01*
X118180706Y-85449014D01*
X118318599Y-85191034D01*
X118403513Y-84911111D01*
X118432185Y-84620000D01*
X118419819Y-84494441D01*
X120269000Y-84494441D01*
X120269000Y-84669559D01*
X120303164Y-84841312D01*
X120370179Y-85003099D01*
X120467469Y-85148704D01*
X120591296Y-85272531D01*
X120736901Y-85369821D01*
X120898688Y-85436836D01*
X121070441Y-85471000D01*
X121245559Y-85471000D01*
X121417312Y-85436836D01*
X121579099Y-85369821D01*
X121724704Y-85272531D01*
X121848531Y-85148704D01*
X121945821Y-85003099D01*
X122012836Y-84841312D01*
X122047000Y-84669559D01*
X122047000Y-84494441D01*
X122012836Y-84322688D01*
X121945821Y-84160901D01*
X121848531Y-84015296D01*
X121724704Y-83891469D01*
X121579099Y-83794179D01*
X121417312Y-83727164D01*
X121245559Y-83693000D01*
X121070441Y-83693000D01*
X120898688Y-83727164D01*
X120736901Y-83794179D01*
X120591296Y-83891469D01*
X120467469Y-84015296D01*
X120370179Y-84160901D01*
X120303164Y-84322688D01*
X120269000Y-84494441D01*
X118419819Y-84494441D01*
X118403513Y-84328889D01*
X118318599Y-84048966D01*
X118180706Y-83790986D01*
X117995134Y-83564866D01*
X117769014Y-83379294D01*
X117714209Y-83350000D01*
X117769014Y-83320706D01*
X117995134Y-83135134D01*
X118180706Y-82909014D01*
X118318599Y-82651034D01*
X118403513Y-82371111D01*
X118432185Y-82080000D01*
X118403513Y-81788889D01*
X118318599Y-81508966D01*
X118180706Y-81250986D01*
X117995134Y-81024866D01*
X117889825Y-80938441D01*
X142875000Y-80938441D01*
X142875000Y-81113559D01*
X142909164Y-81285312D01*
X142976179Y-81447099D01*
X143073469Y-81592704D01*
X143197296Y-81716531D01*
X143342901Y-81813821D01*
X143504688Y-81880836D01*
X143676441Y-81915000D01*
X143851559Y-81915000D01*
X144023312Y-81880836D01*
X144185099Y-81813821D01*
X144330704Y-81716531D01*
X144454531Y-81592704D01*
X144551821Y-81447099D01*
X144618836Y-81285312D01*
X144653000Y-81113559D01*
X144653000Y-80938441D01*
X144618836Y-80766688D01*
X144551821Y-80604901D01*
X144454531Y-80459296D01*
X144330704Y-80335469D01*
X144185099Y-80238179D01*
X144023312Y-80171164D01*
X143851559Y-80137000D01*
X143676441Y-80137000D01*
X143504688Y-80171164D01*
X143342901Y-80238179D01*
X143197296Y-80335469D01*
X143073469Y-80459296D01*
X142976179Y-80604901D01*
X142909164Y-80766688D01*
X142875000Y-80938441D01*
X117889825Y-80938441D01*
X117769014Y-80839294D01*
X117704477Y-80804799D01*
X117821355Y-80735178D01*
X118037588Y-80540269D01*
X118211641Y-80306920D01*
X118336825Y-80044099D01*
X118381476Y-79896890D01*
X118260155Y-79667000D01*
X117067000Y-79667000D01*
X117067000Y-79687000D01*
X116813000Y-79687000D01*
X116813000Y-79667000D01*
X115619845Y-79667000D01*
X115498524Y-79896890D01*
X115543175Y-80044099D01*
X115668359Y-80306920D01*
X115842412Y-80540269D01*
X116058645Y-80735178D01*
X116175523Y-80804799D01*
X116110986Y-80839294D01*
X115884866Y-81024866D01*
X115699294Y-81250986D01*
X115561401Y-81508966D01*
X115476487Y-81788889D01*
X115447815Y-82080000D01*
X115060000Y-82080000D01*
X115060000Y-69380000D01*
X115447815Y-69380000D01*
X115476487Y-69671111D01*
X115561401Y-69951034D01*
X115699294Y-70209014D01*
X115884866Y-70435134D01*
X116110986Y-70620706D01*
X116165791Y-70650000D01*
X116110986Y-70679294D01*
X115884866Y-70864866D01*
X115699294Y-71090986D01*
X115561401Y-71348966D01*
X115476487Y-71628889D01*
X115447815Y-71920000D01*
X115476487Y-72211111D01*
X115561401Y-72491034D01*
X115699294Y-72749014D01*
X115884866Y-72975134D01*
X116110986Y-73160706D01*
X116165791Y-73190000D01*
X116110986Y-73219294D01*
X115884866Y-73404866D01*
X115699294Y-73630986D01*
X115561401Y-73888966D01*
X115476487Y-74168889D01*
X115447815Y-74460000D01*
X115476487Y-74751111D01*
X115561401Y-75031034D01*
X115699294Y-75289014D01*
X115884866Y-75515134D01*
X116110986Y-75700706D01*
X116165791Y-75730000D01*
X116110986Y-75759294D01*
X115884866Y-75944866D01*
X115699294Y-76170986D01*
X115561401Y-76428966D01*
X115476487Y-76708889D01*
X115447815Y-77000000D01*
X115476487Y-77291111D01*
X115561401Y-77571034D01*
X115699294Y-77829014D01*
X115884866Y-78055134D01*
X116110986Y-78240706D01*
X116175523Y-78275201D01*
X116058645Y-78344822D01*
X115842412Y-78539731D01*
X115668359Y-78773080D01*
X115543175Y-79035901D01*
X115498524Y-79183110D01*
X115619845Y-79413000D01*
X116813000Y-79413000D01*
X116813000Y-79393000D01*
X117067000Y-79393000D01*
X117067000Y-79413000D01*
X118260155Y-79413000D01*
X118381476Y-79183110D01*
X118336825Y-79035901D01*
X118211641Y-78773080D01*
X118037588Y-78539731D01*
X117821355Y-78344822D01*
X117704477Y-78275201D01*
X117769014Y-78240706D01*
X117995134Y-78055134D01*
X118180706Y-77829014D01*
X118318599Y-77571034D01*
X118403513Y-77291111D01*
X118432185Y-77000000D01*
X118403513Y-76708889D01*
X118318599Y-76428966D01*
X118180706Y-76170986D01*
X118132660Y-76112441D01*
X127127000Y-76112441D01*
X127127000Y-76287559D01*
X127161164Y-76459312D01*
X127228179Y-76621099D01*
X127325469Y-76766704D01*
X127449296Y-76890531D01*
X127594901Y-76987821D01*
X127756688Y-77054836D01*
X127928441Y-77089000D01*
X128103559Y-77089000D01*
X128275312Y-77054836D01*
X128437099Y-76987821D01*
X128582704Y-76890531D01*
X128706531Y-76766704D01*
X128803821Y-76621099D01*
X128870836Y-76459312D01*
X128905000Y-76287559D01*
X128905000Y-76112441D01*
X128870836Y-75940688D01*
X128803821Y-75778901D01*
X128706531Y-75633296D01*
X128582704Y-75509469D01*
X128437099Y-75412179D01*
X128275312Y-75345164D01*
X128103559Y-75311000D01*
X127928441Y-75311000D01*
X127756688Y-75345164D01*
X127594901Y-75412179D01*
X127449296Y-75509469D01*
X127325469Y-75633296D01*
X127228179Y-75778901D01*
X127161164Y-75940688D01*
X127127000Y-76112441D01*
X118132660Y-76112441D01*
X117995134Y-75944866D01*
X117769014Y-75759294D01*
X117714209Y-75730000D01*
X117769014Y-75700706D01*
X117995134Y-75515134D01*
X118180706Y-75289014D01*
X118318599Y-75031034D01*
X118403513Y-74751111D01*
X118432185Y-74460000D01*
X118419819Y-74334441D01*
X141351000Y-74334441D01*
X141351000Y-74509559D01*
X141385164Y-74681312D01*
X141452179Y-74843099D01*
X141549469Y-74988704D01*
X141673296Y-75112531D01*
X141818901Y-75209821D01*
X141980688Y-75276836D01*
X142152441Y-75311000D01*
X142327559Y-75311000D01*
X142499312Y-75276836D01*
X142661099Y-75209821D01*
X142806704Y-75112531D01*
X142930531Y-74988704D01*
X143027821Y-74843099D01*
X143094836Y-74681312D01*
X143129000Y-74509559D01*
X143129000Y-74334441D01*
X143094836Y-74162688D01*
X143027821Y-74000901D01*
X142930531Y-73855296D01*
X142806704Y-73731469D01*
X142661099Y-73634179D01*
X142499312Y-73567164D01*
X142327559Y-73533000D01*
X142152441Y-73533000D01*
X141980688Y-73567164D01*
X141818901Y-73634179D01*
X141673296Y-73731469D01*
X141549469Y-73855296D01*
X141452179Y-74000901D01*
X141385164Y-74162688D01*
X141351000Y-74334441D01*
X118419819Y-74334441D01*
X118403513Y-74168889D01*
X118318599Y-73888966D01*
X118180706Y-73630986D01*
X117995134Y-73404866D01*
X117769014Y-73219294D01*
X117714209Y-73190000D01*
X117769014Y-73160706D01*
X117995134Y-72975134D01*
X118180706Y-72749014D01*
X118318599Y-72491034D01*
X118352319Y-72379872D01*
X149665000Y-72379872D01*
X149665000Y-72820128D01*
X149750890Y-73251925D01*
X149919369Y-73658669D01*
X150163962Y-74024729D01*
X150475271Y-74336038D01*
X150841331Y-74580631D01*
X151248075Y-74749110D01*
X151679872Y-74835000D01*
X152120128Y-74835000D01*
X152551925Y-74749110D01*
X152958669Y-74580631D01*
X153324729Y-74336038D01*
X153636038Y-74024729D01*
X153880631Y-73658669D01*
X154049110Y-73251925D01*
X154135000Y-72820128D01*
X154135000Y-72379872D01*
X154049110Y-71948075D01*
X153880631Y-71541331D01*
X153636038Y-71175271D01*
X153324729Y-70863962D01*
X152958669Y-70619369D01*
X152551925Y-70450890D01*
X152120128Y-70365000D01*
X151679872Y-70365000D01*
X151248075Y-70450890D01*
X150841331Y-70619369D01*
X150475271Y-70863962D01*
X150163962Y-71175271D01*
X149919369Y-71541331D01*
X149750890Y-71948075D01*
X149665000Y-72379872D01*
X118352319Y-72379872D01*
X118403513Y-72211111D01*
X118432185Y-71920000D01*
X118403513Y-71628889D01*
X118318599Y-71348966D01*
X118180706Y-71090986D01*
X117995134Y-70864866D01*
X117769014Y-70679294D01*
X117714209Y-70650000D01*
X117769014Y-70620706D01*
X117995134Y-70435134D01*
X118180706Y-70209014D01*
X118318599Y-69951034D01*
X118403513Y-69671111D01*
X118432185Y-69380000D01*
X118419819Y-69254441D01*
X136525000Y-69254441D01*
X136525000Y-69429559D01*
X136559164Y-69601312D01*
X136626179Y-69763099D01*
X136723469Y-69908704D01*
X136847296Y-70032531D01*
X136992901Y-70129821D01*
X137154688Y-70196836D01*
X137326441Y-70231000D01*
X137501559Y-70231000D01*
X137673312Y-70196836D01*
X137835099Y-70129821D01*
X137980704Y-70032531D01*
X138104531Y-69908704D01*
X138201821Y-69763099D01*
X138268836Y-69601312D01*
X138303000Y-69429559D01*
X138303000Y-69254441D01*
X138268836Y-69082688D01*
X138201821Y-68920901D01*
X138104531Y-68775296D01*
X137980704Y-68651469D01*
X137835099Y-68554179D01*
X137673312Y-68487164D01*
X137501559Y-68453000D01*
X137326441Y-68453000D01*
X137154688Y-68487164D01*
X136992901Y-68554179D01*
X136847296Y-68651469D01*
X136723469Y-68775296D01*
X136626179Y-68920901D01*
X136559164Y-69082688D01*
X136525000Y-69254441D01*
X118419819Y-69254441D01*
X118403513Y-69088889D01*
X118318599Y-68808966D01*
X118180706Y-68550986D01*
X117995134Y-68324866D01*
X117965313Y-68300393D01*
X118034180Y-68279502D01*
X118144494Y-68220537D01*
X118241185Y-68141185D01*
X118320537Y-68044494D01*
X118379502Y-67934180D01*
X118415812Y-67814482D01*
X118428072Y-67690000D01*
X118425000Y-67125750D01*
X118266250Y-66967000D01*
X117067000Y-66967000D01*
X117067000Y-66987000D01*
X116813000Y-66987000D01*
X116813000Y-66967000D01*
X115613750Y-66967000D01*
X115455000Y-67125750D01*
X115451928Y-67690000D01*
X115464188Y-67814482D01*
X115500498Y-67934180D01*
X115559463Y-68044494D01*
X115638815Y-68141185D01*
X115735506Y-68220537D01*
X115845820Y-68279502D01*
X115914687Y-68300393D01*
X115884866Y-68324866D01*
X115699294Y-68550986D01*
X115561401Y-68808966D01*
X115476487Y-69088889D01*
X115447815Y-69380000D01*
X115060000Y-69380000D01*
X115060000Y-65990000D01*
X115451928Y-65990000D01*
X115455000Y-66554250D01*
X115613750Y-66713000D01*
X116813000Y-66713000D01*
X116813000Y-65513750D01*
X117067000Y-65513750D01*
X117067000Y-66713000D01*
X118266250Y-66713000D01*
X118425000Y-66554250D01*
X118428072Y-65990000D01*
X118415812Y-65865518D01*
X118379502Y-65745820D01*
X118320537Y-65635506D01*
X118241185Y-65538815D01*
X118144494Y-65459463D01*
X118034180Y-65400498D01*
X117914482Y-65364188D01*
X117790000Y-65351928D01*
X117225750Y-65355000D01*
X117067000Y-65513750D01*
X116813000Y-65513750D01*
X116654250Y-65355000D01*
X116090000Y-65351928D01*
X115965518Y-65364188D01*
X115845820Y-65400498D01*
X115735506Y-65459463D01*
X115638815Y-65538815D01*
X115559463Y-65635506D01*
X115500498Y-65745820D01*
X115464188Y-65865518D01*
X115451928Y-65990000D01*
X115060000Y-65990000D01*
X115060000Y-64960000D01*
X158190001Y-64960000D01*
X158190000Y-95390000D01*
X158190000Y-95390000D01*
G37*
X158190000Y-95390000D02*
X115060000Y-95390000D01*
X115060000Y-91860441D01*
X123063000Y-91860441D01*
X123063000Y-92035559D01*
X123097164Y-92207312D01*
X123164179Y-92369099D01*
X123261469Y-92514704D01*
X123385296Y-92638531D01*
X123530901Y-92735821D01*
X123692688Y-92802836D01*
X123864441Y-92837000D01*
X124039559Y-92837000D01*
X124211312Y-92802836D01*
X124373099Y-92735821D01*
X124518704Y-92638531D01*
X124642531Y-92514704D01*
X124739821Y-92369099D01*
X124806836Y-92207312D01*
X124841000Y-92035559D01*
X124841000Y-91860441D01*
X126365000Y-91860441D01*
X126365000Y-92035559D01*
X126399164Y-92207312D01*
X126466179Y-92369099D01*
X126563469Y-92514704D01*
X126687296Y-92638531D01*
X126832901Y-92735821D01*
X126994688Y-92802836D01*
X127166441Y-92837000D01*
X127341559Y-92837000D01*
X127513312Y-92802836D01*
X127675099Y-92735821D01*
X127820704Y-92638531D01*
X127944531Y-92514704D01*
X128041821Y-92369099D01*
X128108836Y-92207312D01*
X128143000Y-92035559D01*
X128143000Y-91860441D01*
X128108836Y-91688688D01*
X128041821Y-91526901D01*
X127944531Y-91381296D01*
X127820704Y-91257469D01*
X127675099Y-91160179D01*
X127513312Y-91093164D01*
X127341559Y-91059000D01*
X127166441Y-91059000D01*
X126994688Y-91093164D01*
X126832901Y-91160179D01*
X126687296Y-91257469D01*
X126563469Y-91381296D01*
X126466179Y-91526901D01*
X126399164Y-91688688D01*
X126365000Y-91860441D01*
X124841000Y-91860441D01*
X124806836Y-91688688D01*
X124739821Y-91526901D01*
X124642531Y-91381296D01*
X124518704Y-91257469D01*
X124373099Y-91160179D01*
X124211312Y-91093164D01*
X124039559Y-91059000D01*
X123864441Y-91059000D01*
X123692688Y-91093164D01*
X123530901Y-91160179D01*
X123385296Y-91257469D01*
X123261469Y-91381296D01*
X123164179Y-91526901D01*
X123097164Y-91688688D01*
X123063000Y-91860441D01*
X115060000Y-91860441D01*
X115060000Y-82080000D01*
X115447815Y-82080000D01*
X115476487Y-82371111D01*
X115561401Y-82651034D01*
X115699294Y-82909014D01*
X115884866Y-83135134D01*
X116110986Y-83320706D01*
X116165791Y-83350000D01*
X116110986Y-83379294D01*
X115884866Y-83564866D01*
X115699294Y-83790986D01*
X115561401Y-84048966D01*
X115476487Y-84328889D01*
X115447815Y-84620000D01*
X115476487Y-84911111D01*
X115561401Y-85191034D01*
X115699294Y-85449014D01*
X115884866Y-85675134D01*
X116110986Y-85860706D01*
X116165791Y-85890000D01*
X116110986Y-85919294D01*
X115884866Y-86104866D01*
X115699294Y-86330986D01*
X115561401Y-86588966D01*
X115476487Y-86868889D01*
X115447815Y-87160000D01*
X115476487Y-87451111D01*
X115561401Y-87731034D01*
X115699294Y-87989014D01*
X115884866Y-88215134D01*
X116110986Y-88400706D01*
X116165791Y-88430000D01*
X116110986Y-88459294D01*
X115884866Y-88644866D01*
X115699294Y-88870986D01*
X115561401Y-89128966D01*
X115476487Y-89408889D01*
X115447815Y-89700000D01*
X115476487Y-89991111D01*
X115561401Y-90271034D01*
X115699294Y-90529014D01*
X115884866Y-90755134D01*
X116110986Y-90940706D01*
X116368966Y-91078599D01*
X116648889Y-91163513D01*
X116867050Y-91185000D01*
X117012950Y-91185000D01*
X117231111Y-91163513D01*
X117511034Y-91078599D01*
X117769014Y-90940706D01*
X117995134Y-90755134D01*
X118180706Y-90529014D01*
X118318599Y-90271034D01*
X118403513Y-89991111D01*
X118432185Y-89700000D01*
X118403513Y-89408889D01*
X118318599Y-89128966D01*
X118180706Y-88870986D01*
X118132660Y-88812441D01*
X136271000Y-88812441D01*
X136271000Y-88987559D01*
X136305164Y-89159312D01*
X136372179Y-89321099D01*
X136469469Y-89466704D01*
X136593296Y-89590531D01*
X136738901Y-89687821D01*
X136900688Y-89754836D01*
X137072441Y-89789000D01*
X137247559Y-89789000D01*
X137419312Y-89754836D01*
X137581099Y-89687821D01*
X137726704Y-89590531D01*
X137850531Y-89466704D01*
X137947821Y-89321099D01*
X138014836Y-89159312D01*
X138049000Y-88987559D01*
X138049000Y-88812441D01*
X138014836Y-88640688D01*
X137947821Y-88478901D01*
X137850531Y-88333296D01*
X137726704Y-88209469D01*
X137581099Y-88112179D01*
X137419312Y-88045164D01*
X137247559Y-88011000D01*
X137072441Y-88011000D01*
X136900688Y-88045164D01*
X136738901Y-88112179D01*
X136593296Y-88209469D01*
X136469469Y-88333296D01*
X136372179Y-88478901D01*
X136305164Y-88640688D01*
X136271000Y-88812441D01*
X118132660Y-88812441D01*
X117995134Y-88644866D01*
X117769014Y-88459294D01*
X117714209Y-88430000D01*
X117769014Y-88400706D01*
X117995134Y-88215134D01*
X118180706Y-87989014D01*
X118318599Y-87731034D01*
X118403513Y-87451111D01*
X118432185Y-87160000D01*
X118403513Y-86868889D01*
X118318599Y-86588966D01*
X118180706Y-86330986D01*
X117995134Y-86104866D01*
X117889825Y-86018441D01*
X131699000Y-86018441D01*
X131699000Y-86193559D01*
X131733164Y-86365312D01*
X131800179Y-86527099D01*
X131897469Y-86672704D01*
X132021296Y-86796531D01*
X132166901Y-86893821D01*
X132328688Y-86960836D01*
X132500441Y-86995000D01*
X132675559Y-86995000D01*
X132847312Y-86960836D01*
X133009099Y-86893821D01*
X133154704Y-86796531D01*
X133170794Y-86780441D01*
X148209000Y-86780441D01*
X148209000Y-86955559D01*
X148243164Y-87127312D01*
X148310179Y-87289099D01*
X148407469Y-87434704D01*
X148531296Y-87558531D01*
X148676901Y-87655821D01*
X148838688Y-87722836D01*
X149010441Y-87757000D01*
X149185559Y-87757000D01*
X149357312Y-87722836D01*
X149519099Y-87655821D01*
X149664704Y-87558531D01*
X149788531Y-87434704D01*
X149885821Y-87289099D01*
X149952836Y-87127312D01*
X149987000Y-86955559D01*
X149987000Y-86780441D01*
X149952836Y-86608688D01*
X149885821Y-86446901D01*
X149788531Y-86301296D01*
X149664704Y-86177469D01*
X149519099Y-86080179D01*
X149357312Y-86013164D01*
X149185559Y-85979000D01*
X149010441Y-85979000D01*
X148838688Y-86013164D01*
X148676901Y-86080179D01*
X148531296Y-86177469D01*
X148407469Y-86301296D01*
X148310179Y-86446901D01*
X148243164Y-86608688D01*
X148209000Y-86780441D01*
X133170794Y-86780441D01*
X133278531Y-86672704D01*
X133375821Y-86527099D01*
X133442836Y-86365312D01*
X133477000Y-86193559D01*
X133477000Y-86018441D01*
X133442836Y-85846688D01*
X133375821Y-85684901D01*
X133278531Y-85539296D01*
X133154704Y-85415469D01*
X133009099Y-85318179D01*
X132847312Y-85251164D01*
X132675559Y-85217000D01*
X132500441Y-85217000D01*
X132328688Y-85251164D01*
X132166901Y-85318179D01*
X132021296Y-85415469D01*
X131897469Y-85539296D01*
X131800179Y-85684901D01*
X131733164Y-85846688D01*
X131699000Y-86018441D01*
X117889825Y-86018441D01*
X117769014Y-85919294D01*
X117714209Y-85890000D01*
X117769014Y-85860706D01*
X117995134Y-85675134D01*
X118180706Y-85449014D01*
X118318599Y-85191034D01*
X118403513Y-84911111D01*
X118432185Y-84620000D01*
X118419819Y-84494441D01*
X120269000Y-84494441D01*
X120269000Y-84669559D01*
X120303164Y-84841312D01*
X120370179Y-85003099D01*
X120467469Y-85148704D01*
X120591296Y-85272531D01*
X120736901Y-85369821D01*
X120898688Y-85436836D01*
X121070441Y-85471000D01*
X121245559Y-85471000D01*
X121417312Y-85436836D01*
X121579099Y-85369821D01*
X121724704Y-85272531D01*
X121848531Y-85148704D01*
X121945821Y-85003099D01*
X122012836Y-84841312D01*
X122047000Y-84669559D01*
X122047000Y-84494441D01*
X122012836Y-84322688D01*
X121945821Y-84160901D01*
X121848531Y-84015296D01*
X121724704Y-83891469D01*
X121579099Y-83794179D01*
X121417312Y-83727164D01*
X121245559Y-83693000D01*
X121070441Y-83693000D01*
X120898688Y-83727164D01*
X120736901Y-83794179D01*
X120591296Y-83891469D01*
X120467469Y-84015296D01*
X120370179Y-84160901D01*
X120303164Y-84322688D01*
X120269000Y-84494441D01*
X118419819Y-84494441D01*
X118403513Y-84328889D01*
X118318599Y-84048966D01*
X118180706Y-83790986D01*
X117995134Y-83564866D01*
X117769014Y-83379294D01*
X117714209Y-83350000D01*
X117769014Y-83320706D01*
X117995134Y-83135134D01*
X118180706Y-82909014D01*
X118318599Y-82651034D01*
X118403513Y-82371111D01*
X118432185Y-82080000D01*
X118403513Y-81788889D01*
X118318599Y-81508966D01*
X118180706Y-81250986D01*
X117995134Y-81024866D01*
X117889825Y-80938441D01*
X142875000Y-80938441D01*
X142875000Y-81113559D01*
X142909164Y-81285312D01*
X142976179Y-81447099D01*
X143073469Y-81592704D01*
X143197296Y-81716531D01*
X143342901Y-81813821D01*
X143504688Y-81880836D01*
X143676441Y-81915000D01*
X143851559Y-81915000D01*
X144023312Y-81880836D01*
X144185099Y-81813821D01*
X144330704Y-81716531D01*
X144454531Y-81592704D01*
X144551821Y-81447099D01*
X144618836Y-81285312D01*
X144653000Y-81113559D01*
X144653000Y-80938441D01*
X144618836Y-80766688D01*
X144551821Y-80604901D01*
X144454531Y-80459296D01*
X144330704Y-80335469D01*
X144185099Y-80238179D01*
X144023312Y-80171164D01*
X143851559Y-80137000D01*
X143676441Y-80137000D01*
X143504688Y-80171164D01*
X143342901Y-80238179D01*
X143197296Y-80335469D01*
X143073469Y-80459296D01*
X142976179Y-80604901D01*
X142909164Y-80766688D01*
X142875000Y-80938441D01*
X117889825Y-80938441D01*
X117769014Y-80839294D01*
X117704477Y-80804799D01*
X117821355Y-80735178D01*
X118037588Y-80540269D01*
X118211641Y-80306920D01*
X118336825Y-80044099D01*
X118381476Y-79896890D01*
X118260155Y-79667000D01*
X117067000Y-79667000D01*
X117067000Y-79687000D01*
X116813000Y-79687000D01*
X116813000Y-79667000D01*
X115619845Y-79667000D01*
X115498524Y-79896890D01*
X115543175Y-80044099D01*
X115668359Y-80306920D01*
X115842412Y-80540269D01*
X116058645Y-80735178D01*
X116175523Y-80804799D01*
X116110986Y-80839294D01*
X115884866Y-81024866D01*
X115699294Y-81250986D01*
X115561401Y-81508966D01*
X115476487Y-81788889D01*
X115447815Y-82080000D01*
X115060000Y-82080000D01*
X115060000Y-69380000D01*
X115447815Y-69380000D01*
X115476487Y-69671111D01*
X115561401Y-69951034D01*
X115699294Y-70209014D01*
X115884866Y-70435134D01*
X116110986Y-70620706D01*
X116165791Y-70650000D01*
X116110986Y-70679294D01*
X115884866Y-70864866D01*
X115699294Y-71090986D01*
X115561401Y-71348966D01*
X115476487Y-71628889D01*
X115447815Y-71920000D01*
X115476487Y-72211111D01*
X115561401Y-72491034D01*
X115699294Y-72749014D01*
X115884866Y-72975134D01*
X116110986Y-73160706D01*
X116165791Y-73190000D01*
X116110986Y-73219294D01*
X115884866Y-73404866D01*
X115699294Y-73630986D01*
X115561401Y-73888966D01*
X115476487Y-74168889D01*
X115447815Y-74460000D01*
X115476487Y-74751111D01*
X115561401Y-75031034D01*
X115699294Y-75289014D01*
X115884866Y-75515134D01*
X116110986Y-75700706D01*
X116165791Y-75730000D01*
X116110986Y-75759294D01*
X115884866Y-75944866D01*
X115699294Y-76170986D01*
X115561401Y-76428966D01*
X115476487Y-76708889D01*
X115447815Y-77000000D01*
X115476487Y-77291111D01*
X115561401Y-77571034D01*
X115699294Y-77829014D01*
X115884866Y-78055134D01*
X116110986Y-78240706D01*
X116175523Y-78275201D01*
X116058645Y-78344822D01*
X115842412Y-78539731D01*
X115668359Y-78773080D01*
X115543175Y-79035901D01*
X115498524Y-79183110D01*
X115619845Y-79413000D01*
X116813000Y-79413000D01*
X116813000Y-79393000D01*
X117067000Y-79393000D01*
X117067000Y-79413000D01*
X118260155Y-79413000D01*
X118381476Y-79183110D01*
X118336825Y-79035901D01*
X118211641Y-78773080D01*
X118037588Y-78539731D01*
X117821355Y-78344822D01*
X117704477Y-78275201D01*
X117769014Y-78240706D01*
X117995134Y-78055134D01*
X118180706Y-77829014D01*
X118318599Y-77571034D01*
X118403513Y-77291111D01*
X118432185Y-77000000D01*
X118403513Y-76708889D01*
X118318599Y-76428966D01*
X118180706Y-76170986D01*
X118132660Y-76112441D01*
X127127000Y-76112441D01*
X127127000Y-76287559D01*
X127161164Y-76459312D01*
X127228179Y-76621099D01*
X127325469Y-76766704D01*
X127449296Y-76890531D01*
X127594901Y-76987821D01*
X127756688Y-77054836D01*
X127928441Y-77089000D01*
X128103559Y-77089000D01*
X128275312Y-77054836D01*
X128437099Y-76987821D01*
X128582704Y-76890531D01*
X128706531Y-76766704D01*
X128803821Y-76621099D01*
X128870836Y-76459312D01*
X128905000Y-76287559D01*
X128905000Y-76112441D01*
X128870836Y-75940688D01*
X128803821Y-75778901D01*
X128706531Y-75633296D01*
X128582704Y-75509469D01*
X128437099Y-75412179D01*
X128275312Y-75345164D01*
X128103559Y-75311000D01*
X127928441Y-75311000D01*
X127756688Y-75345164D01*
X127594901Y-75412179D01*
X127449296Y-75509469D01*
X127325469Y-75633296D01*
X127228179Y-75778901D01*
X127161164Y-75940688D01*
X127127000Y-76112441D01*
X118132660Y-76112441D01*
X117995134Y-75944866D01*
X117769014Y-75759294D01*
X117714209Y-75730000D01*
X117769014Y-75700706D01*
X117995134Y-75515134D01*
X118180706Y-75289014D01*
X118318599Y-75031034D01*
X118403513Y-74751111D01*
X118432185Y-74460000D01*
X118419819Y-74334441D01*
X141351000Y-74334441D01*
X141351000Y-74509559D01*
X141385164Y-74681312D01*
X141452179Y-74843099D01*
X141549469Y-74988704D01*
X141673296Y-75112531D01*
X141818901Y-75209821D01*
X141980688Y-75276836D01*
X142152441Y-75311000D01*
X142327559Y-75311000D01*
X142499312Y-75276836D01*
X142661099Y-75209821D01*
X142806704Y-75112531D01*
X142930531Y-74988704D01*
X143027821Y-74843099D01*
X143094836Y-74681312D01*
X143129000Y-74509559D01*
X143129000Y-74334441D01*
X143094836Y-74162688D01*
X143027821Y-74000901D01*
X142930531Y-73855296D01*
X142806704Y-73731469D01*
X142661099Y-73634179D01*
X142499312Y-73567164D01*
X142327559Y-73533000D01*
X142152441Y-73533000D01*
X141980688Y-73567164D01*
X141818901Y-73634179D01*
X141673296Y-73731469D01*
X141549469Y-73855296D01*
X141452179Y-74000901D01*
X141385164Y-74162688D01*
X141351000Y-74334441D01*
X118419819Y-74334441D01*
X118403513Y-74168889D01*
X118318599Y-73888966D01*
X118180706Y-73630986D01*
X117995134Y-73404866D01*
X117769014Y-73219294D01*
X117714209Y-73190000D01*
X117769014Y-73160706D01*
X117995134Y-72975134D01*
X118180706Y-72749014D01*
X118318599Y-72491034D01*
X118352319Y-72379872D01*
X149665000Y-72379872D01*
X149665000Y-72820128D01*
X149750890Y-73251925D01*
X149919369Y-73658669D01*
X150163962Y-74024729D01*
X150475271Y-74336038D01*
X150841331Y-74580631D01*
X151248075Y-74749110D01*
X151679872Y-74835000D01*
X152120128Y-74835000D01*
X152551925Y-74749110D01*
X152958669Y-74580631D01*
X153324729Y-74336038D01*
X153636038Y-74024729D01*
X153880631Y-73658669D01*
X154049110Y-73251925D01*
X154135000Y-72820128D01*
X154135000Y-72379872D01*
X154049110Y-71948075D01*
X153880631Y-71541331D01*
X153636038Y-71175271D01*
X153324729Y-70863962D01*
X152958669Y-70619369D01*
X152551925Y-70450890D01*
X152120128Y-70365000D01*
X151679872Y-70365000D01*
X151248075Y-70450890D01*
X150841331Y-70619369D01*
X150475271Y-70863962D01*
X150163962Y-71175271D01*
X149919369Y-71541331D01*
X149750890Y-71948075D01*
X149665000Y-72379872D01*
X118352319Y-72379872D01*
X118403513Y-72211111D01*
X118432185Y-71920000D01*
X118403513Y-71628889D01*
X118318599Y-71348966D01*
X118180706Y-71090986D01*
X117995134Y-70864866D01*
X117769014Y-70679294D01*
X117714209Y-70650000D01*
X117769014Y-70620706D01*
X117995134Y-70435134D01*
X118180706Y-70209014D01*
X118318599Y-69951034D01*
X118403513Y-69671111D01*
X118432185Y-69380000D01*
X118419819Y-69254441D01*
X136525000Y-69254441D01*
X136525000Y-69429559D01*
X136559164Y-69601312D01*
X136626179Y-69763099D01*
X136723469Y-69908704D01*
X136847296Y-70032531D01*
X136992901Y-70129821D01*
X137154688Y-70196836D01*
X137326441Y-70231000D01*
X137501559Y-70231000D01*
X137673312Y-70196836D01*
X137835099Y-70129821D01*
X137980704Y-70032531D01*
X138104531Y-69908704D01*
X138201821Y-69763099D01*
X138268836Y-69601312D01*
X138303000Y-69429559D01*
X138303000Y-69254441D01*
X138268836Y-69082688D01*
X138201821Y-68920901D01*
X138104531Y-68775296D01*
X137980704Y-68651469D01*
X137835099Y-68554179D01*
X137673312Y-68487164D01*
X137501559Y-68453000D01*
X137326441Y-68453000D01*
X137154688Y-68487164D01*
X136992901Y-68554179D01*
X136847296Y-68651469D01*
X136723469Y-68775296D01*
X136626179Y-68920901D01*
X136559164Y-69082688D01*
X136525000Y-69254441D01*
X118419819Y-69254441D01*
X118403513Y-69088889D01*
X118318599Y-68808966D01*
X118180706Y-68550986D01*
X117995134Y-68324866D01*
X117965313Y-68300393D01*
X118034180Y-68279502D01*
X118144494Y-68220537D01*
X118241185Y-68141185D01*
X118320537Y-68044494D01*
X118379502Y-67934180D01*
X118415812Y-67814482D01*
X118428072Y-67690000D01*
X118425000Y-67125750D01*
X118266250Y-66967000D01*
X117067000Y-66967000D01*
X117067000Y-66987000D01*
X116813000Y-66987000D01*
X116813000Y-66967000D01*
X115613750Y-66967000D01*
X115455000Y-67125750D01*
X115451928Y-67690000D01*
X115464188Y-67814482D01*
X115500498Y-67934180D01*
X115559463Y-68044494D01*
X115638815Y-68141185D01*
X115735506Y-68220537D01*
X115845820Y-68279502D01*
X115914687Y-68300393D01*
X115884866Y-68324866D01*
X115699294Y-68550986D01*
X115561401Y-68808966D01*
X115476487Y-69088889D01*
X115447815Y-69380000D01*
X115060000Y-69380000D01*
X115060000Y-65990000D01*
X115451928Y-65990000D01*
X115455000Y-66554250D01*
X115613750Y-66713000D01*
X116813000Y-66713000D01*
X116813000Y-65513750D01*
X117067000Y-65513750D01*
X117067000Y-66713000D01*
X118266250Y-66713000D01*
X118425000Y-66554250D01*
X118428072Y-65990000D01*
X118415812Y-65865518D01*
X118379502Y-65745820D01*
X118320537Y-65635506D01*
X118241185Y-65538815D01*
X118144494Y-65459463D01*
X118034180Y-65400498D01*
X117914482Y-65364188D01*
X117790000Y-65351928D01*
X117225750Y-65355000D01*
X117067000Y-65513750D01*
X116813000Y-65513750D01*
X116654250Y-65355000D01*
X116090000Y-65351928D01*
X115965518Y-65364188D01*
X115845820Y-65400498D01*
X115735506Y-65459463D01*
X115638815Y-65538815D01*
X115559463Y-65635506D01*
X115500498Y-65745820D01*
X115464188Y-65865518D01*
X115451928Y-65990000D01*
X115060000Y-65990000D01*
X115060000Y-64960000D01*
X158190001Y-64960000D01*
X158190000Y-95390000D01*
M02*
