M48
; DRILL file {KiCad (5.1.7)-1} date 04/19/21 08:47:42
; FORMAT={-:-/ absolute / inch / decimal}
; #@! TF.CreationDate,2021-04-19T08:47:42-05:00
; #@! TF.GenerationSoftware,Kicad,Pcbnew,(5.1.7)-1
; #@! TF.FileFunction,Plated,1,4,PTH
FMAT,2
INCH
T1C0.0100
T2C0.0315
T3C0.0394
T4C0.0413
%
G90
G05
T1
X4.75Y-3.5
X4.76Y-2.89
X4.76Y-3.4
X4.77Y-3.33
X4.88Y-3.62
X4.92Y-2.71
X4.96Y-3.0
X5.01Y-3.62
X5.04Y-3.0
X5.13Y-3.51
X5.18Y-2.9
X5.22Y-3.39
X5.37Y-3.7
X5.41Y-2.73
X5.44Y-3.43
X5.48Y-3.49
X5.5Y-2.73
X5.6Y-2.93
X5.92Y-3.51
X5.96Y-3.31
X6.02Y-3.31
X6.02Y-3.7
T2
X5.5979Y-3.67
X5.79Y-3.67
T3
X4.6039Y-2.6315
X4.6039Y-2.7315
X4.6039Y-2.8315
X4.6039Y-2.9315
X4.6039Y-3.0315
X4.6039Y-3.1315
X4.6039Y-3.2315
X4.6039Y-3.3315
X4.6039Y-3.4315
X4.6039Y-3.5315
T4
X5.69Y-2.6347
X5.69Y-3.2253
T0
M30
