G04 #@! TF.GenerationSoftware,KiCad,Pcbnew,(5.1.4)-1*
G04 #@! TF.CreationDate,2019-12-30T10:40:51-06:00*
G04 #@! TF.ProjectId,analog_pcb,616e616c-6f67-45f7-9063-622e6b696361,rev?*
G04 #@! TF.SameCoordinates,Original*
G04 #@! TF.FileFunction,Soldermask,Bot*
G04 #@! TF.FilePolarity,Negative*
%FSLAX46Y46*%
G04 Gerber Fmt 4.6, Leading zero omitted, Abs format (unit mm)*
G04 Created by KiCad (PCBNEW (5.1.4)-1) date 2019-12-30 10:40:51*
%MOMM*%
%LPD*%
G04 APERTURE LIST*
%ADD10C,0.100000*%
G04 APERTURE END LIST*
D10*
G36*
X117050442Y-88805518D02*
G01*
X117116627Y-88812037D01*
X117286466Y-88863557D01*
X117442991Y-88947222D01*
X117478729Y-88976552D01*
X117580186Y-89059814D01*
X117663448Y-89161271D01*
X117692778Y-89197009D01*
X117776443Y-89353534D01*
X117827963Y-89523373D01*
X117845359Y-89700000D01*
X117827963Y-89876627D01*
X117776443Y-90046466D01*
X117692778Y-90202991D01*
X117663448Y-90238729D01*
X117580186Y-90340186D01*
X117478729Y-90423448D01*
X117442991Y-90452778D01*
X117286466Y-90536443D01*
X117116627Y-90587963D01*
X117050442Y-90594482D01*
X116984260Y-90601000D01*
X116895740Y-90601000D01*
X116829558Y-90594482D01*
X116763373Y-90587963D01*
X116593534Y-90536443D01*
X116437009Y-90452778D01*
X116401271Y-90423448D01*
X116299814Y-90340186D01*
X116216552Y-90238729D01*
X116187222Y-90202991D01*
X116103557Y-90046466D01*
X116052037Y-89876627D01*
X116034641Y-89700000D01*
X116052037Y-89523373D01*
X116103557Y-89353534D01*
X116187222Y-89197009D01*
X116216552Y-89161271D01*
X116299814Y-89059814D01*
X116401271Y-88976552D01*
X116437009Y-88947222D01*
X116593534Y-88863557D01*
X116763373Y-88812037D01*
X116829558Y-88805518D01*
X116895740Y-88799000D01*
X116984260Y-88799000D01*
X117050442Y-88805518D01*
X117050442Y-88805518D01*
G37*
G36*
X117050443Y-86265519D02*
G01*
X117116627Y-86272037D01*
X117286466Y-86323557D01*
X117442991Y-86407222D01*
X117478729Y-86436552D01*
X117580186Y-86519814D01*
X117663448Y-86621271D01*
X117692778Y-86657009D01*
X117776443Y-86813534D01*
X117827963Y-86983373D01*
X117845359Y-87160000D01*
X117827963Y-87336627D01*
X117776443Y-87506466D01*
X117692778Y-87662991D01*
X117663448Y-87698729D01*
X117580186Y-87800186D01*
X117478729Y-87883448D01*
X117442991Y-87912778D01*
X117286466Y-87996443D01*
X117116627Y-88047963D01*
X117050442Y-88054482D01*
X116984260Y-88061000D01*
X116895740Y-88061000D01*
X116829558Y-88054482D01*
X116763373Y-88047963D01*
X116593534Y-87996443D01*
X116437009Y-87912778D01*
X116401271Y-87883448D01*
X116299814Y-87800186D01*
X116216552Y-87698729D01*
X116187222Y-87662991D01*
X116103557Y-87506466D01*
X116052037Y-87336627D01*
X116034641Y-87160000D01*
X116052037Y-86983373D01*
X116103557Y-86813534D01*
X116187222Y-86657009D01*
X116216552Y-86621271D01*
X116299814Y-86519814D01*
X116401271Y-86436552D01*
X116437009Y-86407222D01*
X116593534Y-86323557D01*
X116763373Y-86272037D01*
X116829557Y-86265519D01*
X116895740Y-86259000D01*
X116984260Y-86259000D01*
X117050443Y-86265519D01*
X117050443Y-86265519D01*
G37*
G36*
X117050443Y-83725519D02*
G01*
X117116627Y-83732037D01*
X117286466Y-83783557D01*
X117442991Y-83867222D01*
X117478729Y-83896552D01*
X117580186Y-83979814D01*
X117663448Y-84081271D01*
X117692778Y-84117009D01*
X117776443Y-84273534D01*
X117827963Y-84443373D01*
X117845359Y-84620000D01*
X117827963Y-84796627D01*
X117776443Y-84966466D01*
X117692778Y-85122991D01*
X117663448Y-85158729D01*
X117580186Y-85260186D01*
X117478729Y-85343448D01*
X117442991Y-85372778D01*
X117286466Y-85456443D01*
X117116627Y-85507963D01*
X117050443Y-85514481D01*
X116984260Y-85521000D01*
X116895740Y-85521000D01*
X116829557Y-85514481D01*
X116763373Y-85507963D01*
X116593534Y-85456443D01*
X116437009Y-85372778D01*
X116401271Y-85343448D01*
X116299814Y-85260186D01*
X116216552Y-85158729D01*
X116187222Y-85122991D01*
X116103557Y-84966466D01*
X116052037Y-84796627D01*
X116034641Y-84620000D01*
X116052037Y-84443373D01*
X116103557Y-84273534D01*
X116187222Y-84117009D01*
X116216552Y-84081271D01*
X116299814Y-83979814D01*
X116401271Y-83896552D01*
X116437009Y-83867222D01*
X116593534Y-83783557D01*
X116763373Y-83732037D01*
X116829557Y-83725519D01*
X116895740Y-83719000D01*
X116984260Y-83719000D01*
X117050443Y-83725519D01*
X117050443Y-83725519D01*
G37*
G36*
X117050443Y-81185519D02*
G01*
X117116627Y-81192037D01*
X117286466Y-81243557D01*
X117442991Y-81327222D01*
X117478729Y-81356552D01*
X117580186Y-81439814D01*
X117663448Y-81541271D01*
X117692778Y-81577009D01*
X117776443Y-81733534D01*
X117827963Y-81903373D01*
X117845359Y-82080000D01*
X117827963Y-82256627D01*
X117776443Y-82426466D01*
X117692778Y-82582991D01*
X117663448Y-82618729D01*
X117580186Y-82720186D01*
X117478729Y-82803448D01*
X117442991Y-82832778D01*
X117286466Y-82916443D01*
X117116627Y-82967963D01*
X117050443Y-82974481D01*
X116984260Y-82981000D01*
X116895740Y-82981000D01*
X116829557Y-82974481D01*
X116763373Y-82967963D01*
X116593534Y-82916443D01*
X116437009Y-82832778D01*
X116401271Y-82803448D01*
X116299814Y-82720186D01*
X116216552Y-82618729D01*
X116187222Y-82582991D01*
X116103557Y-82426466D01*
X116052037Y-82256627D01*
X116034641Y-82080000D01*
X116052037Y-81903373D01*
X116103557Y-81733534D01*
X116187222Y-81577009D01*
X116216552Y-81541271D01*
X116299814Y-81439814D01*
X116401271Y-81356552D01*
X116437009Y-81327222D01*
X116593534Y-81243557D01*
X116763373Y-81192037D01*
X116829557Y-81185519D01*
X116895740Y-81179000D01*
X116984260Y-81179000D01*
X117050443Y-81185519D01*
X117050443Y-81185519D01*
G37*
G36*
X117050442Y-78645518D02*
G01*
X117116627Y-78652037D01*
X117286466Y-78703557D01*
X117442991Y-78787222D01*
X117478729Y-78816552D01*
X117580186Y-78899814D01*
X117663448Y-79001271D01*
X117692778Y-79037009D01*
X117776443Y-79193534D01*
X117827963Y-79363373D01*
X117845359Y-79540000D01*
X117827963Y-79716627D01*
X117776443Y-79886466D01*
X117692778Y-80042991D01*
X117663448Y-80078729D01*
X117580186Y-80180186D01*
X117478729Y-80263448D01*
X117442991Y-80292778D01*
X117286466Y-80376443D01*
X117116627Y-80427963D01*
X117050442Y-80434482D01*
X116984260Y-80441000D01*
X116895740Y-80441000D01*
X116829558Y-80434482D01*
X116763373Y-80427963D01*
X116593534Y-80376443D01*
X116437009Y-80292778D01*
X116401271Y-80263448D01*
X116299814Y-80180186D01*
X116216552Y-80078729D01*
X116187222Y-80042991D01*
X116103557Y-79886466D01*
X116052037Y-79716627D01*
X116034641Y-79540000D01*
X116052037Y-79363373D01*
X116103557Y-79193534D01*
X116187222Y-79037009D01*
X116216552Y-79001271D01*
X116299814Y-78899814D01*
X116401271Y-78816552D01*
X116437009Y-78787222D01*
X116593534Y-78703557D01*
X116763373Y-78652037D01*
X116829558Y-78645518D01*
X116895740Y-78639000D01*
X116984260Y-78639000D01*
X117050442Y-78645518D01*
X117050442Y-78645518D01*
G37*
G36*
X117050443Y-76105519D02*
G01*
X117116627Y-76112037D01*
X117286466Y-76163557D01*
X117442991Y-76247222D01*
X117478729Y-76276552D01*
X117580186Y-76359814D01*
X117663448Y-76461271D01*
X117692778Y-76497009D01*
X117776443Y-76653534D01*
X117827963Y-76823373D01*
X117845359Y-77000000D01*
X117827963Y-77176627D01*
X117776443Y-77346466D01*
X117692778Y-77502991D01*
X117663448Y-77538729D01*
X117580186Y-77640186D01*
X117478729Y-77723448D01*
X117442991Y-77752778D01*
X117286466Y-77836443D01*
X117116627Y-77887963D01*
X117050442Y-77894482D01*
X116984260Y-77901000D01*
X116895740Y-77901000D01*
X116829558Y-77894482D01*
X116763373Y-77887963D01*
X116593534Y-77836443D01*
X116437009Y-77752778D01*
X116401271Y-77723448D01*
X116299814Y-77640186D01*
X116216552Y-77538729D01*
X116187222Y-77502991D01*
X116103557Y-77346466D01*
X116052037Y-77176627D01*
X116034641Y-77000000D01*
X116052037Y-76823373D01*
X116103557Y-76653534D01*
X116187222Y-76497009D01*
X116216552Y-76461271D01*
X116299814Y-76359814D01*
X116401271Y-76276552D01*
X116437009Y-76247222D01*
X116593534Y-76163557D01*
X116763373Y-76112037D01*
X116829557Y-76105519D01*
X116895740Y-76099000D01*
X116984260Y-76099000D01*
X117050443Y-76105519D01*
X117050443Y-76105519D01*
G37*
G36*
X117050442Y-73565518D02*
G01*
X117116627Y-73572037D01*
X117286466Y-73623557D01*
X117442991Y-73707222D01*
X117478729Y-73736552D01*
X117580186Y-73819814D01*
X117631561Y-73882416D01*
X117692778Y-73957009D01*
X117776443Y-74113534D01*
X117827963Y-74283373D01*
X117845359Y-74460000D01*
X117827963Y-74636627D01*
X117776443Y-74806466D01*
X117692778Y-74962991D01*
X117663448Y-74998729D01*
X117580186Y-75100186D01*
X117478729Y-75183448D01*
X117442991Y-75212778D01*
X117286466Y-75296443D01*
X117116627Y-75347963D01*
X117050443Y-75354481D01*
X116984260Y-75361000D01*
X116895740Y-75361000D01*
X116829557Y-75354481D01*
X116763373Y-75347963D01*
X116593534Y-75296443D01*
X116437009Y-75212778D01*
X116401271Y-75183448D01*
X116299814Y-75100186D01*
X116216552Y-74998729D01*
X116187222Y-74962991D01*
X116103557Y-74806466D01*
X116052037Y-74636627D01*
X116034641Y-74460000D01*
X116052037Y-74283373D01*
X116103557Y-74113534D01*
X116187222Y-73957009D01*
X116248439Y-73882416D01*
X116299814Y-73819814D01*
X116401271Y-73736552D01*
X116437009Y-73707222D01*
X116593534Y-73623557D01*
X116763373Y-73572037D01*
X116829558Y-73565518D01*
X116895740Y-73559000D01*
X116984260Y-73559000D01*
X117050442Y-73565518D01*
X117050442Y-73565518D01*
G37*
G36*
X152275256Y-70991298D02*
G01*
X152381579Y-71012447D01*
X152682042Y-71136903D01*
X152952451Y-71317585D01*
X153182415Y-71547549D01*
X153363097Y-71817958D01*
X153478526Y-72096627D01*
X153487553Y-72118422D01*
X153551000Y-72437389D01*
X153551000Y-72762611D01*
X153508702Y-72975256D01*
X153487553Y-73081579D01*
X153363097Y-73382042D01*
X153182415Y-73652451D01*
X152952451Y-73882415D01*
X152682042Y-74063097D01*
X152381579Y-74187553D01*
X152275256Y-74208702D01*
X152062611Y-74251000D01*
X151737389Y-74251000D01*
X151524744Y-74208702D01*
X151418421Y-74187553D01*
X151117958Y-74063097D01*
X150847549Y-73882415D01*
X150617585Y-73652451D01*
X150436903Y-73382042D01*
X150312447Y-73081579D01*
X150291298Y-72975256D01*
X150249000Y-72762611D01*
X150249000Y-72437389D01*
X150312447Y-72118422D01*
X150321475Y-72096627D01*
X150436903Y-71817958D01*
X150617585Y-71547549D01*
X150847549Y-71317585D01*
X151117958Y-71136903D01*
X151418421Y-71012447D01*
X151524744Y-70991298D01*
X151737389Y-70949000D01*
X152062611Y-70949000D01*
X152275256Y-70991298D01*
X152275256Y-70991298D01*
G37*
G36*
X117050443Y-71025519D02*
G01*
X117116627Y-71032037D01*
X117286466Y-71083557D01*
X117442991Y-71167222D01*
X117478729Y-71196552D01*
X117580186Y-71279814D01*
X117663448Y-71381271D01*
X117692778Y-71417009D01*
X117776443Y-71573534D01*
X117827963Y-71743373D01*
X117845359Y-71920000D01*
X117827963Y-72096627D01*
X117776443Y-72266466D01*
X117692778Y-72422991D01*
X117680960Y-72437391D01*
X117580186Y-72560186D01*
X117478729Y-72643448D01*
X117442991Y-72672778D01*
X117286466Y-72756443D01*
X117116627Y-72807963D01*
X117050443Y-72814481D01*
X116984260Y-72821000D01*
X116895740Y-72821000D01*
X116829557Y-72814481D01*
X116763373Y-72807963D01*
X116593534Y-72756443D01*
X116437009Y-72672778D01*
X116401271Y-72643448D01*
X116299814Y-72560186D01*
X116199040Y-72437391D01*
X116187222Y-72422991D01*
X116103557Y-72266466D01*
X116052037Y-72096627D01*
X116034641Y-71920000D01*
X116052037Y-71743373D01*
X116103557Y-71573534D01*
X116187222Y-71417009D01*
X116216552Y-71381271D01*
X116299814Y-71279814D01*
X116401271Y-71196552D01*
X116437009Y-71167222D01*
X116593534Y-71083557D01*
X116763373Y-71032037D01*
X116829557Y-71025519D01*
X116895740Y-71019000D01*
X116984260Y-71019000D01*
X117050443Y-71025519D01*
X117050443Y-71025519D01*
G37*
G36*
X117050443Y-68485519D02*
G01*
X117116627Y-68492037D01*
X117286466Y-68543557D01*
X117442991Y-68627222D01*
X117478729Y-68656552D01*
X117580186Y-68739814D01*
X117663448Y-68841271D01*
X117692778Y-68877009D01*
X117776443Y-69033534D01*
X117827963Y-69203373D01*
X117845359Y-69380000D01*
X117827963Y-69556627D01*
X117776443Y-69726466D01*
X117692778Y-69882991D01*
X117663448Y-69918729D01*
X117580186Y-70020186D01*
X117478729Y-70103448D01*
X117442991Y-70132778D01*
X117286466Y-70216443D01*
X117116627Y-70267963D01*
X117050442Y-70274482D01*
X116984260Y-70281000D01*
X116895740Y-70281000D01*
X116829558Y-70274482D01*
X116763373Y-70267963D01*
X116593534Y-70216443D01*
X116437009Y-70132778D01*
X116401271Y-70103448D01*
X116299814Y-70020186D01*
X116216552Y-69918729D01*
X116187222Y-69882991D01*
X116103557Y-69726466D01*
X116052037Y-69556627D01*
X116034641Y-69380000D01*
X116052037Y-69203373D01*
X116103557Y-69033534D01*
X116187222Y-68877009D01*
X116216552Y-68841271D01*
X116299814Y-68739814D01*
X116401271Y-68656552D01*
X116437009Y-68627222D01*
X116593534Y-68543557D01*
X116763373Y-68492037D01*
X116829557Y-68485519D01*
X116895740Y-68479000D01*
X116984260Y-68479000D01*
X117050443Y-68485519D01*
X117050443Y-68485519D01*
G37*
G36*
X117841000Y-67741000D02*
G01*
X116039000Y-67741000D01*
X116039000Y-65939000D01*
X117841000Y-65939000D01*
X117841000Y-67741000D01*
X117841000Y-67741000D01*
G37*
M02*
