G04 #@! TF.GenerationSoftware,KiCad,Pcbnew,(5.1.7)-1*
G04 #@! TF.CreationDate,2021-04-19T08:47:41-05:00*
G04 #@! TF.ProjectId,analog_pcb,616e616c-6f67-45f7-9063-622e6b696361,2.1*
G04 #@! TF.SameCoordinates,Original*
G04 #@! TF.FileFunction,Copper,L3,Inr*
G04 #@! TF.FilePolarity,Positive*
%FSLAX46Y46*%
G04 Gerber Fmt 4.6, Leading zero omitted, Abs format (unit mm)*
G04 Created by KiCad (PCBNEW (5.1.7)-1) date 2021-04-19 08:47:41*
%MOMM*%
%LPD*%
G01*
G04 APERTURE LIST*
G04 #@! TA.AperFunction,ComponentPad*
%ADD10O,1.700000X1.700000*%
G04 #@! TD*
G04 #@! TA.AperFunction,ComponentPad*
%ADD11R,1.700000X1.700000*%
G04 #@! TD*
G04 #@! TA.AperFunction,ComponentPad*
%ADD12C,1.750000*%
G04 #@! TD*
G04 #@! TA.AperFunction,ComponentPad*
%ADD13C,1.500000*%
G04 #@! TD*
G04 #@! TA.AperFunction,ViaPad*
%ADD14C,0.508000*%
G04 #@! TD*
G04 #@! TA.AperFunction,Conductor*
%ADD15C,0.254000*%
G04 #@! TD*
G04 #@! TA.AperFunction,Conductor*
%ADD16C,0.100000*%
G04 #@! TD*
G04 APERTURE END LIST*
D10*
X116940000Y-89700000D03*
X116940000Y-87160000D03*
X116940000Y-84620000D03*
X116940000Y-82080000D03*
X116940000Y-79540000D03*
X116940000Y-77000000D03*
X116940000Y-74460000D03*
X116940000Y-71920000D03*
X116940000Y-69380000D03*
D11*
X116940000Y-66840000D03*
D12*
X144526000Y-81922000D03*
X144526000Y-66922000D03*
D13*
X147066000Y-93218000D03*
X142186000Y-93218000D03*
D14*
X120904000Y-86360000D03*
X120650000Y-88900000D03*
X130302000Y-89154000D03*
X131572000Y-73660000D03*
X124968000Y-68834000D03*
X120904000Y-73406000D03*
X125984000Y-76200000D03*
X139700000Y-69342000D03*
X152908000Y-93980000D03*
X136398000Y-93980000D03*
X139192000Y-88646000D03*
X152908000Y-84074000D03*
X137414000Y-69342000D03*
X127254000Y-91948000D03*
X151384000Y-84074000D03*
X128016000Y-76200000D03*
X132588000Y-86106000D03*
X123952000Y-91948000D03*
X138176000Y-87122000D03*
X150368000Y-89154000D03*
X142240000Y-74422000D03*
X121158000Y-84582000D03*
D15*
X158190000Y-95390000D02*
X115060000Y-95390000D01*
X115060000Y-93892441D01*
X135509000Y-93892441D01*
X135509000Y-94067559D01*
X135543164Y-94239312D01*
X135610179Y-94401099D01*
X135707469Y-94546704D01*
X135831296Y-94670531D01*
X135976901Y-94767821D01*
X136138688Y-94834836D01*
X136310441Y-94869000D01*
X136485559Y-94869000D01*
X136657312Y-94834836D01*
X136819099Y-94767821D01*
X136964704Y-94670531D01*
X137088531Y-94546704D01*
X137185821Y-94401099D01*
X137252836Y-94239312D01*
X137287000Y-94067559D01*
X137287000Y-93892441D01*
X137252836Y-93720688D01*
X137185821Y-93558901D01*
X137088531Y-93413296D01*
X136964704Y-93289469D01*
X136819099Y-93192179D01*
X136657312Y-93125164D01*
X136485559Y-93091000D01*
X136310441Y-93091000D01*
X136138688Y-93125164D01*
X135976901Y-93192179D01*
X135831296Y-93289469D01*
X135707469Y-93413296D01*
X135610179Y-93558901D01*
X135543164Y-93720688D01*
X135509000Y-93892441D01*
X115060000Y-93892441D01*
X115060000Y-93081589D01*
X140801000Y-93081589D01*
X140801000Y-93354411D01*
X140854225Y-93621989D01*
X140958629Y-93874043D01*
X141110201Y-94100886D01*
X141303114Y-94293799D01*
X141529957Y-94445371D01*
X141782011Y-94549775D01*
X142049589Y-94603000D01*
X142322411Y-94603000D01*
X142589989Y-94549775D01*
X142842043Y-94445371D01*
X143068886Y-94293799D01*
X143261799Y-94100886D01*
X143413371Y-93874043D01*
X143517775Y-93621989D01*
X143571000Y-93354411D01*
X143571000Y-93081589D01*
X145681000Y-93081589D01*
X145681000Y-93354411D01*
X145734225Y-93621989D01*
X145838629Y-93874043D01*
X145990201Y-94100886D01*
X146183114Y-94293799D01*
X146409957Y-94445371D01*
X146662011Y-94549775D01*
X146929589Y-94603000D01*
X147202411Y-94603000D01*
X147469989Y-94549775D01*
X147722043Y-94445371D01*
X147948886Y-94293799D01*
X148141799Y-94100886D01*
X148281077Y-93892441D01*
X152019000Y-93892441D01*
X152019000Y-94067559D01*
X152053164Y-94239312D01*
X152120179Y-94401099D01*
X152217469Y-94546704D01*
X152341296Y-94670531D01*
X152486901Y-94767821D01*
X152648688Y-94834836D01*
X152820441Y-94869000D01*
X152995559Y-94869000D01*
X153167312Y-94834836D01*
X153329099Y-94767821D01*
X153474704Y-94670531D01*
X153598531Y-94546704D01*
X153695821Y-94401099D01*
X153762836Y-94239312D01*
X153797000Y-94067559D01*
X153797000Y-93892441D01*
X153762836Y-93720688D01*
X153695821Y-93558901D01*
X153598531Y-93413296D01*
X153474704Y-93289469D01*
X153329099Y-93192179D01*
X153167312Y-93125164D01*
X152995559Y-93091000D01*
X152820441Y-93091000D01*
X152648688Y-93125164D01*
X152486901Y-93192179D01*
X152341296Y-93289469D01*
X152217469Y-93413296D01*
X152120179Y-93558901D01*
X152053164Y-93720688D01*
X152019000Y-93892441D01*
X148281077Y-93892441D01*
X148293371Y-93874043D01*
X148397775Y-93621989D01*
X148451000Y-93354411D01*
X148451000Y-93081589D01*
X148397775Y-92814011D01*
X148293371Y-92561957D01*
X148141799Y-92335114D01*
X147948886Y-92142201D01*
X147722043Y-91990629D01*
X147469989Y-91886225D01*
X147202411Y-91833000D01*
X146929589Y-91833000D01*
X146662011Y-91886225D01*
X146409957Y-91990629D01*
X146183114Y-92142201D01*
X145990201Y-92335114D01*
X145838629Y-92561957D01*
X145734225Y-92814011D01*
X145681000Y-93081589D01*
X143571000Y-93081589D01*
X143517775Y-92814011D01*
X143413371Y-92561957D01*
X143261799Y-92335114D01*
X143068886Y-92142201D01*
X142842043Y-91990629D01*
X142589989Y-91886225D01*
X142322411Y-91833000D01*
X142049589Y-91833000D01*
X141782011Y-91886225D01*
X141529957Y-91990629D01*
X141303114Y-92142201D01*
X141110201Y-92335114D01*
X140958629Y-92561957D01*
X140854225Y-92814011D01*
X140801000Y-93081589D01*
X115060000Y-93081589D01*
X115060000Y-91860441D01*
X123063000Y-91860441D01*
X123063000Y-92035559D01*
X123097164Y-92207312D01*
X123164179Y-92369099D01*
X123261469Y-92514704D01*
X123385296Y-92638531D01*
X123530901Y-92735821D01*
X123692688Y-92802836D01*
X123864441Y-92837000D01*
X124039559Y-92837000D01*
X124211312Y-92802836D01*
X124373099Y-92735821D01*
X124518704Y-92638531D01*
X124642531Y-92514704D01*
X124739821Y-92369099D01*
X124806836Y-92207312D01*
X124841000Y-92035559D01*
X124841000Y-91860441D01*
X124806836Y-91688688D01*
X124739821Y-91526901D01*
X124642531Y-91381296D01*
X124518704Y-91257469D01*
X124373099Y-91160179D01*
X124211312Y-91093164D01*
X124039559Y-91059000D01*
X123864441Y-91059000D01*
X123692688Y-91093164D01*
X123530901Y-91160179D01*
X123385296Y-91257469D01*
X123261469Y-91381296D01*
X123164179Y-91526901D01*
X123097164Y-91688688D01*
X123063000Y-91860441D01*
X115060000Y-91860441D01*
X115060000Y-71773740D01*
X115455000Y-71773740D01*
X115455000Y-72066260D01*
X115512068Y-72353158D01*
X115624010Y-72623411D01*
X115786525Y-72866632D01*
X115993368Y-73073475D01*
X116167760Y-73190000D01*
X115993368Y-73306525D01*
X115786525Y-73513368D01*
X115624010Y-73756589D01*
X115512068Y-74026842D01*
X115455000Y-74313740D01*
X115455000Y-74606260D01*
X115512068Y-74893158D01*
X115624010Y-75163411D01*
X115786525Y-75406632D01*
X115993368Y-75613475D01*
X116167760Y-75730000D01*
X115993368Y-75846525D01*
X115786525Y-76053368D01*
X115624010Y-76296589D01*
X115512068Y-76566842D01*
X115455000Y-76853740D01*
X115455000Y-77146260D01*
X115512068Y-77433158D01*
X115624010Y-77703411D01*
X115786525Y-77946632D01*
X115993368Y-78153475D01*
X116167760Y-78270000D01*
X115993368Y-78386525D01*
X115786525Y-78593368D01*
X115624010Y-78836589D01*
X115512068Y-79106842D01*
X115455000Y-79393740D01*
X115455000Y-79686260D01*
X115512068Y-79973158D01*
X115624010Y-80243411D01*
X115786525Y-80486632D01*
X115993368Y-80693475D01*
X116167760Y-80810000D01*
X115993368Y-80926525D01*
X115786525Y-81133368D01*
X115624010Y-81376589D01*
X115512068Y-81646842D01*
X115455000Y-81933740D01*
X115455000Y-82226260D01*
X115512068Y-82513158D01*
X115624010Y-82783411D01*
X115786525Y-83026632D01*
X115993368Y-83233475D01*
X116167760Y-83350000D01*
X115993368Y-83466525D01*
X115786525Y-83673368D01*
X115624010Y-83916589D01*
X115512068Y-84186842D01*
X115455000Y-84473740D01*
X115455000Y-84766260D01*
X115512068Y-85053158D01*
X115624010Y-85323411D01*
X115786525Y-85566632D01*
X115993368Y-85773475D01*
X116167760Y-85890000D01*
X115993368Y-86006525D01*
X115786525Y-86213368D01*
X115624010Y-86456589D01*
X115512068Y-86726842D01*
X115455000Y-87013740D01*
X115455000Y-87306260D01*
X115512068Y-87593158D01*
X115624010Y-87863411D01*
X115786525Y-88106632D01*
X115993368Y-88313475D01*
X116167760Y-88430000D01*
X115993368Y-88546525D01*
X115786525Y-88753368D01*
X115624010Y-88996589D01*
X115512068Y-89266842D01*
X115455000Y-89553740D01*
X115455000Y-89846260D01*
X115512068Y-90133158D01*
X115624010Y-90403411D01*
X115786525Y-90646632D01*
X115993368Y-90853475D01*
X116236589Y-91015990D01*
X116506842Y-91127932D01*
X116793740Y-91185000D01*
X117086260Y-91185000D01*
X117373158Y-91127932D01*
X117643411Y-91015990D01*
X117886632Y-90853475D01*
X118093475Y-90646632D01*
X118255990Y-90403411D01*
X118367932Y-90133158D01*
X118425000Y-89846260D01*
X118425000Y-89553740D01*
X118367932Y-89266842D01*
X118255990Y-88996589D01*
X118132947Y-88812441D01*
X119761000Y-88812441D01*
X119761000Y-88987559D01*
X119795164Y-89159312D01*
X119862179Y-89321099D01*
X119959469Y-89466704D01*
X120083296Y-89590531D01*
X120228901Y-89687821D01*
X120390688Y-89754836D01*
X120562441Y-89789000D01*
X120737559Y-89789000D01*
X120909312Y-89754836D01*
X121071099Y-89687821D01*
X121216704Y-89590531D01*
X121340531Y-89466704D01*
X121437821Y-89321099D01*
X121504836Y-89159312D01*
X121523309Y-89066441D01*
X129413000Y-89066441D01*
X129413000Y-89241559D01*
X129447164Y-89413312D01*
X129514179Y-89575099D01*
X129611469Y-89720704D01*
X129735296Y-89844531D01*
X129880901Y-89941821D01*
X130042688Y-90008836D01*
X130214441Y-90043000D01*
X130389559Y-90043000D01*
X130561312Y-90008836D01*
X130723099Y-89941821D01*
X130868704Y-89844531D01*
X130992531Y-89720704D01*
X131089821Y-89575099D01*
X131156836Y-89413312D01*
X131191000Y-89241559D01*
X131191000Y-89066441D01*
X131156836Y-88894688D01*
X131089821Y-88732901D01*
X130992531Y-88587296D01*
X130963676Y-88558441D01*
X138303000Y-88558441D01*
X138303000Y-88733559D01*
X138337164Y-88905312D01*
X138404179Y-89067099D01*
X138501469Y-89212704D01*
X138625296Y-89336531D01*
X138770901Y-89433821D01*
X138932688Y-89500836D01*
X139104441Y-89535000D01*
X139279559Y-89535000D01*
X139451312Y-89500836D01*
X139613099Y-89433821D01*
X139758704Y-89336531D01*
X139882531Y-89212704D01*
X139979821Y-89067099D01*
X139980093Y-89066441D01*
X149479000Y-89066441D01*
X149479000Y-89241559D01*
X149513164Y-89413312D01*
X149580179Y-89575099D01*
X149677469Y-89720704D01*
X149801296Y-89844531D01*
X149946901Y-89941821D01*
X150108688Y-90008836D01*
X150280441Y-90043000D01*
X150455559Y-90043000D01*
X150627312Y-90008836D01*
X150789099Y-89941821D01*
X150934704Y-89844531D01*
X151058531Y-89720704D01*
X151155821Y-89575099D01*
X151222836Y-89413312D01*
X151257000Y-89241559D01*
X151257000Y-89066441D01*
X151222836Y-88894688D01*
X151155821Y-88732901D01*
X151058531Y-88587296D01*
X150934704Y-88463469D01*
X150789099Y-88366179D01*
X150627312Y-88299164D01*
X150455559Y-88265000D01*
X150280441Y-88265000D01*
X150108688Y-88299164D01*
X149946901Y-88366179D01*
X149801296Y-88463469D01*
X149677469Y-88587296D01*
X149580179Y-88732901D01*
X149513164Y-88894688D01*
X149479000Y-89066441D01*
X139980093Y-89066441D01*
X140046836Y-88905312D01*
X140081000Y-88733559D01*
X140081000Y-88558441D01*
X140046836Y-88386688D01*
X139979821Y-88224901D01*
X139882531Y-88079296D01*
X139758704Y-87955469D01*
X139613099Y-87858179D01*
X139451312Y-87791164D01*
X139279559Y-87757000D01*
X139104441Y-87757000D01*
X138932688Y-87791164D01*
X138770901Y-87858179D01*
X138625296Y-87955469D01*
X138501469Y-88079296D01*
X138404179Y-88224901D01*
X138337164Y-88386688D01*
X138303000Y-88558441D01*
X130963676Y-88558441D01*
X130868704Y-88463469D01*
X130723099Y-88366179D01*
X130561312Y-88299164D01*
X130389559Y-88265000D01*
X130214441Y-88265000D01*
X130042688Y-88299164D01*
X129880901Y-88366179D01*
X129735296Y-88463469D01*
X129611469Y-88587296D01*
X129514179Y-88732901D01*
X129447164Y-88894688D01*
X129413000Y-89066441D01*
X121523309Y-89066441D01*
X121539000Y-88987559D01*
X121539000Y-88812441D01*
X121504836Y-88640688D01*
X121437821Y-88478901D01*
X121340531Y-88333296D01*
X121216704Y-88209469D01*
X121071099Y-88112179D01*
X120909312Y-88045164D01*
X120737559Y-88011000D01*
X120562441Y-88011000D01*
X120390688Y-88045164D01*
X120228901Y-88112179D01*
X120083296Y-88209469D01*
X119959469Y-88333296D01*
X119862179Y-88478901D01*
X119795164Y-88640688D01*
X119761000Y-88812441D01*
X118132947Y-88812441D01*
X118093475Y-88753368D01*
X117886632Y-88546525D01*
X117712240Y-88430000D01*
X117886632Y-88313475D01*
X118093475Y-88106632D01*
X118255990Y-87863411D01*
X118367932Y-87593158D01*
X118425000Y-87306260D01*
X118425000Y-87013740D01*
X118367932Y-86726842D01*
X118255990Y-86456589D01*
X118132947Y-86272441D01*
X120015000Y-86272441D01*
X120015000Y-86447559D01*
X120049164Y-86619312D01*
X120116179Y-86781099D01*
X120213469Y-86926704D01*
X120337296Y-87050531D01*
X120482901Y-87147821D01*
X120644688Y-87214836D01*
X120816441Y-87249000D01*
X120991559Y-87249000D01*
X121163312Y-87214836D01*
X121325099Y-87147821D01*
X121470704Y-87050531D01*
X121486794Y-87034441D01*
X137287000Y-87034441D01*
X137287000Y-87209559D01*
X137321164Y-87381312D01*
X137388179Y-87543099D01*
X137485469Y-87688704D01*
X137609296Y-87812531D01*
X137754901Y-87909821D01*
X137916688Y-87976836D01*
X138088441Y-88011000D01*
X138263559Y-88011000D01*
X138435312Y-87976836D01*
X138597099Y-87909821D01*
X138742704Y-87812531D01*
X138866531Y-87688704D01*
X138963821Y-87543099D01*
X139030836Y-87381312D01*
X139065000Y-87209559D01*
X139065000Y-87034441D01*
X139030836Y-86862688D01*
X138963821Y-86700901D01*
X138866531Y-86555296D01*
X138742704Y-86431469D01*
X138597099Y-86334179D01*
X138435312Y-86267164D01*
X138263559Y-86233000D01*
X138088441Y-86233000D01*
X137916688Y-86267164D01*
X137754901Y-86334179D01*
X137609296Y-86431469D01*
X137485469Y-86555296D01*
X137388179Y-86700901D01*
X137321164Y-86862688D01*
X137287000Y-87034441D01*
X121486794Y-87034441D01*
X121594531Y-86926704D01*
X121691821Y-86781099D01*
X121758836Y-86619312D01*
X121793000Y-86447559D01*
X121793000Y-86272441D01*
X121758836Y-86100688D01*
X121724768Y-86018441D01*
X131699000Y-86018441D01*
X131699000Y-86193559D01*
X131733164Y-86365312D01*
X131800179Y-86527099D01*
X131897469Y-86672704D01*
X132021296Y-86796531D01*
X132166901Y-86893821D01*
X132328688Y-86960836D01*
X132500441Y-86995000D01*
X132675559Y-86995000D01*
X132847312Y-86960836D01*
X133009099Y-86893821D01*
X133154704Y-86796531D01*
X133278531Y-86672704D01*
X133375821Y-86527099D01*
X133442836Y-86365312D01*
X133477000Y-86193559D01*
X133477000Y-86018441D01*
X133442836Y-85846688D01*
X133375821Y-85684901D01*
X133278531Y-85539296D01*
X133154704Y-85415469D01*
X133009099Y-85318179D01*
X132847312Y-85251164D01*
X132675559Y-85217000D01*
X132500441Y-85217000D01*
X132328688Y-85251164D01*
X132166901Y-85318179D01*
X132021296Y-85415469D01*
X131897469Y-85539296D01*
X131800179Y-85684901D01*
X131733164Y-85846688D01*
X131699000Y-86018441D01*
X121724768Y-86018441D01*
X121691821Y-85938901D01*
X121594531Y-85793296D01*
X121470704Y-85669469D01*
X121325099Y-85572179D01*
X121163312Y-85505164D01*
X120991559Y-85471000D01*
X120816441Y-85471000D01*
X120644688Y-85505164D01*
X120482901Y-85572179D01*
X120337296Y-85669469D01*
X120213469Y-85793296D01*
X120116179Y-85938901D01*
X120049164Y-86100688D01*
X120015000Y-86272441D01*
X118132947Y-86272441D01*
X118093475Y-86213368D01*
X117886632Y-86006525D01*
X117712240Y-85890000D01*
X117886632Y-85773475D01*
X118093475Y-85566632D01*
X118255990Y-85323411D01*
X118367932Y-85053158D01*
X118425000Y-84766260D01*
X118425000Y-84494441D01*
X120269000Y-84494441D01*
X120269000Y-84669559D01*
X120303164Y-84841312D01*
X120370179Y-85003099D01*
X120467469Y-85148704D01*
X120591296Y-85272531D01*
X120736901Y-85369821D01*
X120898688Y-85436836D01*
X121070441Y-85471000D01*
X121245559Y-85471000D01*
X121417312Y-85436836D01*
X121579099Y-85369821D01*
X121724704Y-85272531D01*
X121848531Y-85148704D01*
X121945821Y-85003099D01*
X122012836Y-84841312D01*
X122047000Y-84669559D01*
X122047000Y-84494441D01*
X122012836Y-84322688D01*
X121945821Y-84160901D01*
X121848531Y-84015296D01*
X121819676Y-83986441D01*
X152019000Y-83986441D01*
X152019000Y-84161559D01*
X152053164Y-84333312D01*
X152120179Y-84495099D01*
X152217469Y-84640704D01*
X152341296Y-84764531D01*
X152486901Y-84861821D01*
X152648688Y-84928836D01*
X152820441Y-84963000D01*
X152995559Y-84963000D01*
X153167312Y-84928836D01*
X153329099Y-84861821D01*
X153474704Y-84764531D01*
X153598531Y-84640704D01*
X153695821Y-84495099D01*
X153762836Y-84333312D01*
X153797000Y-84161559D01*
X153797000Y-83986441D01*
X153762836Y-83814688D01*
X153695821Y-83652901D01*
X153598531Y-83507296D01*
X153474704Y-83383469D01*
X153329099Y-83286179D01*
X153167312Y-83219164D01*
X152995559Y-83185000D01*
X152820441Y-83185000D01*
X152648688Y-83219164D01*
X152486901Y-83286179D01*
X152341296Y-83383469D01*
X152217469Y-83507296D01*
X152120179Y-83652901D01*
X152053164Y-83814688D01*
X152019000Y-83986441D01*
X121819676Y-83986441D01*
X121724704Y-83891469D01*
X121579099Y-83794179D01*
X121417312Y-83727164D01*
X121245559Y-83693000D01*
X121070441Y-83693000D01*
X120898688Y-83727164D01*
X120736901Y-83794179D01*
X120591296Y-83891469D01*
X120467469Y-84015296D01*
X120370179Y-84160901D01*
X120303164Y-84322688D01*
X120269000Y-84494441D01*
X118425000Y-84494441D01*
X118425000Y-84473740D01*
X118367932Y-84186842D01*
X118255990Y-83916589D01*
X118093475Y-83673368D01*
X117886632Y-83466525D01*
X117712240Y-83350000D01*
X117886632Y-83233475D01*
X118093475Y-83026632D01*
X118255990Y-82783411D01*
X118367932Y-82513158D01*
X118425000Y-82226260D01*
X118425000Y-81933740D01*
X118393082Y-81773278D01*
X143016000Y-81773278D01*
X143016000Y-82070722D01*
X143074029Y-82362451D01*
X143187856Y-82637253D01*
X143353107Y-82884569D01*
X143563431Y-83094893D01*
X143810747Y-83260144D01*
X144085549Y-83373971D01*
X144377278Y-83432000D01*
X144674722Y-83432000D01*
X144966451Y-83373971D01*
X145241253Y-83260144D01*
X145488569Y-83094893D01*
X145698893Y-82884569D01*
X145864144Y-82637253D01*
X145977971Y-82362451D01*
X146036000Y-82070722D01*
X146036000Y-81773278D01*
X145977971Y-81481549D01*
X145864144Y-81206747D01*
X145698893Y-80959431D01*
X145488569Y-80749107D01*
X145241253Y-80583856D01*
X144966451Y-80470029D01*
X144674722Y-80412000D01*
X144377278Y-80412000D01*
X144085549Y-80470029D01*
X143810747Y-80583856D01*
X143563431Y-80749107D01*
X143353107Y-80959431D01*
X143187856Y-81206747D01*
X143074029Y-81481549D01*
X143016000Y-81773278D01*
X118393082Y-81773278D01*
X118367932Y-81646842D01*
X118255990Y-81376589D01*
X118093475Y-81133368D01*
X117886632Y-80926525D01*
X117712240Y-80810000D01*
X117886632Y-80693475D01*
X118093475Y-80486632D01*
X118255990Y-80243411D01*
X118367932Y-79973158D01*
X118425000Y-79686260D01*
X118425000Y-79393740D01*
X118367932Y-79106842D01*
X118255990Y-78836589D01*
X118093475Y-78593368D01*
X117886632Y-78386525D01*
X117712240Y-78270000D01*
X117886632Y-78153475D01*
X118093475Y-77946632D01*
X118255990Y-77703411D01*
X118367932Y-77433158D01*
X118425000Y-77146260D01*
X118425000Y-76853740D01*
X118367932Y-76566842D01*
X118255990Y-76296589D01*
X118132947Y-76112441D01*
X125095000Y-76112441D01*
X125095000Y-76287559D01*
X125129164Y-76459312D01*
X125196179Y-76621099D01*
X125293469Y-76766704D01*
X125417296Y-76890531D01*
X125562901Y-76987821D01*
X125724688Y-77054836D01*
X125896441Y-77089000D01*
X126071559Y-77089000D01*
X126243312Y-77054836D01*
X126405099Y-76987821D01*
X126550704Y-76890531D01*
X126674531Y-76766704D01*
X126771821Y-76621099D01*
X126838836Y-76459312D01*
X126873000Y-76287559D01*
X126873000Y-76112441D01*
X127127000Y-76112441D01*
X127127000Y-76287559D01*
X127161164Y-76459312D01*
X127228179Y-76621099D01*
X127325469Y-76766704D01*
X127449296Y-76890531D01*
X127594901Y-76987821D01*
X127756688Y-77054836D01*
X127928441Y-77089000D01*
X128103559Y-77089000D01*
X128275312Y-77054836D01*
X128437099Y-76987821D01*
X128582704Y-76890531D01*
X128706531Y-76766704D01*
X128803821Y-76621099D01*
X128870836Y-76459312D01*
X128905000Y-76287559D01*
X128905000Y-76112441D01*
X128870836Y-75940688D01*
X128803821Y-75778901D01*
X128706531Y-75633296D01*
X128582704Y-75509469D01*
X128437099Y-75412179D01*
X128275312Y-75345164D01*
X128103559Y-75311000D01*
X127928441Y-75311000D01*
X127756688Y-75345164D01*
X127594901Y-75412179D01*
X127449296Y-75509469D01*
X127325469Y-75633296D01*
X127228179Y-75778901D01*
X127161164Y-75940688D01*
X127127000Y-76112441D01*
X126873000Y-76112441D01*
X126838836Y-75940688D01*
X126771821Y-75778901D01*
X126674531Y-75633296D01*
X126550704Y-75509469D01*
X126405099Y-75412179D01*
X126243312Y-75345164D01*
X126071559Y-75311000D01*
X125896441Y-75311000D01*
X125724688Y-75345164D01*
X125562901Y-75412179D01*
X125417296Y-75509469D01*
X125293469Y-75633296D01*
X125196179Y-75778901D01*
X125129164Y-75940688D01*
X125095000Y-76112441D01*
X118132947Y-76112441D01*
X118093475Y-76053368D01*
X117886632Y-75846525D01*
X117712240Y-75730000D01*
X117886632Y-75613475D01*
X118093475Y-75406632D01*
X118255990Y-75163411D01*
X118367932Y-74893158D01*
X118425000Y-74606260D01*
X118425000Y-74313740D01*
X118367932Y-74026842D01*
X118255990Y-73756589D01*
X118093475Y-73513368D01*
X117898548Y-73318441D01*
X120015000Y-73318441D01*
X120015000Y-73493559D01*
X120049164Y-73665312D01*
X120116179Y-73827099D01*
X120213469Y-73972704D01*
X120337296Y-74096531D01*
X120482901Y-74193821D01*
X120644688Y-74260836D01*
X120816441Y-74295000D01*
X120991559Y-74295000D01*
X121163312Y-74260836D01*
X121325099Y-74193821D01*
X121470704Y-74096531D01*
X121594531Y-73972704D01*
X121691821Y-73827099D01*
X121758836Y-73665312D01*
X121777309Y-73572441D01*
X130683000Y-73572441D01*
X130683000Y-73747559D01*
X130717164Y-73919312D01*
X130784179Y-74081099D01*
X130881469Y-74226704D01*
X131005296Y-74350531D01*
X131150901Y-74447821D01*
X131312688Y-74514836D01*
X131484441Y-74549000D01*
X131659559Y-74549000D01*
X131831312Y-74514836D01*
X131993099Y-74447821D01*
X132138704Y-74350531D01*
X132154794Y-74334441D01*
X141351000Y-74334441D01*
X141351000Y-74509559D01*
X141385164Y-74681312D01*
X141452179Y-74843099D01*
X141549469Y-74988704D01*
X141673296Y-75112531D01*
X141818901Y-75209821D01*
X141980688Y-75276836D01*
X142152441Y-75311000D01*
X142327559Y-75311000D01*
X142499312Y-75276836D01*
X142661099Y-75209821D01*
X142806704Y-75112531D01*
X142930531Y-74988704D01*
X143027821Y-74843099D01*
X143094836Y-74681312D01*
X143129000Y-74509559D01*
X143129000Y-74334441D01*
X143094836Y-74162688D01*
X143027821Y-74000901D01*
X142930531Y-73855296D01*
X142806704Y-73731469D01*
X142661099Y-73634179D01*
X142499312Y-73567164D01*
X142327559Y-73533000D01*
X142152441Y-73533000D01*
X141980688Y-73567164D01*
X141818901Y-73634179D01*
X141673296Y-73731469D01*
X141549469Y-73855296D01*
X141452179Y-74000901D01*
X141385164Y-74162688D01*
X141351000Y-74334441D01*
X132154794Y-74334441D01*
X132262531Y-74226704D01*
X132359821Y-74081099D01*
X132426836Y-73919312D01*
X132461000Y-73747559D01*
X132461000Y-73572441D01*
X132426836Y-73400688D01*
X132359821Y-73238901D01*
X132262531Y-73093296D01*
X132138704Y-72969469D01*
X131993099Y-72872179D01*
X131831312Y-72805164D01*
X131659559Y-72771000D01*
X131484441Y-72771000D01*
X131312688Y-72805164D01*
X131150901Y-72872179D01*
X131005296Y-72969469D01*
X130881469Y-73093296D01*
X130784179Y-73238901D01*
X130717164Y-73400688D01*
X130683000Y-73572441D01*
X121777309Y-73572441D01*
X121793000Y-73493559D01*
X121793000Y-73318441D01*
X121758836Y-73146688D01*
X121691821Y-72984901D01*
X121594531Y-72839296D01*
X121470704Y-72715469D01*
X121325099Y-72618179D01*
X121163312Y-72551164D01*
X120991559Y-72517000D01*
X120816441Y-72517000D01*
X120644688Y-72551164D01*
X120482901Y-72618179D01*
X120337296Y-72715469D01*
X120213469Y-72839296D01*
X120116179Y-72984901D01*
X120049164Y-73146688D01*
X120015000Y-73318441D01*
X117898548Y-73318441D01*
X117886632Y-73306525D01*
X117712240Y-73190000D01*
X117886632Y-73073475D01*
X118093475Y-72866632D01*
X118255990Y-72623411D01*
X118356866Y-72379872D01*
X149665000Y-72379872D01*
X149665000Y-72820128D01*
X149750890Y-73251925D01*
X149919369Y-73658669D01*
X150163962Y-74024729D01*
X150475271Y-74336038D01*
X150841331Y-74580631D01*
X151248075Y-74749110D01*
X151679872Y-74835000D01*
X152120128Y-74835000D01*
X152551925Y-74749110D01*
X152958669Y-74580631D01*
X153324729Y-74336038D01*
X153636038Y-74024729D01*
X153880631Y-73658669D01*
X154049110Y-73251925D01*
X154135000Y-72820128D01*
X154135000Y-72379872D01*
X154049110Y-71948075D01*
X153880631Y-71541331D01*
X153636038Y-71175271D01*
X153324729Y-70863962D01*
X152958669Y-70619369D01*
X152551925Y-70450890D01*
X152120128Y-70365000D01*
X151679872Y-70365000D01*
X151248075Y-70450890D01*
X150841331Y-70619369D01*
X150475271Y-70863962D01*
X150163962Y-71175271D01*
X149919369Y-71541331D01*
X149750890Y-71948075D01*
X149665000Y-72379872D01*
X118356866Y-72379872D01*
X118367932Y-72353158D01*
X118425000Y-72066260D01*
X118425000Y-71773740D01*
X118367932Y-71486842D01*
X118255990Y-71216589D01*
X118093475Y-70973368D01*
X117886632Y-70766525D01*
X117704466Y-70644805D01*
X117821355Y-70575178D01*
X118037588Y-70380269D01*
X118211641Y-70146920D01*
X118336825Y-69884099D01*
X118381476Y-69736890D01*
X118260155Y-69507000D01*
X117067000Y-69507000D01*
X117067000Y-69527000D01*
X116813000Y-69527000D01*
X116813000Y-69507000D01*
X115619845Y-69507000D01*
X115498524Y-69736890D01*
X115543175Y-69884099D01*
X115668359Y-70146920D01*
X115842412Y-70380269D01*
X116058645Y-70575178D01*
X116175534Y-70644805D01*
X115993368Y-70766525D01*
X115786525Y-70973368D01*
X115624010Y-71216589D01*
X115512068Y-71486842D01*
X115455000Y-71773740D01*
X115060000Y-71773740D01*
X115060000Y-65990000D01*
X115451928Y-65990000D01*
X115451928Y-67690000D01*
X115464188Y-67814482D01*
X115500498Y-67934180D01*
X115559463Y-68044494D01*
X115638815Y-68141185D01*
X115735506Y-68220537D01*
X115845820Y-68279502D01*
X115926466Y-68303966D01*
X115842412Y-68379731D01*
X115668359Y-68613080D01*
X115543175Y-68875901D01*
X115498524Y-69023110D01*
X115619845Y-69253000D01*
X116813000Y-69253000D01*
X116813000Y-69233000D01*
X117067000Y-69233000D01*
X117067000Y-69253000D01*
X118260155Y-69253000D01*
X118381476Y-69023110D01*
X118336825Y-68875901D01*
X118275163Y-68746441D01*
X124079000Y-68746441D01*
X124079000Y-68921559D01*
X124113164Y-69093312D01*
X124180179Y-69255099D01*
X124277469Y-69400704D01*
X124401296Y-69524531D01*
X124546901Y-69621821D01*
X124708688Y-69688836D01*
X124880441Y-69723000D01*
X125055559Y-69723000D01*
X125227312Y-69688836D01*
X125389099Y-69621821D01*
X125534704Y-69524531D01*
X125658531Y-69400704D01*
X125755821Y-69255099D01*
X125756093Y-69254441D01*
X138811000Y-69254441D01*
X138811000Y-69429559D01*
X138845164Y-69601312D01*
X138912179Y-69763099D01*
X139009469Y-69908704D01*
X139133296Y-70032531D01*
X139278901Y-70129821D01*
X139440688Y-70196836D01*
X139612441Y-70231000D01*
X139787559Y-70231000D01*
X139959312Y-70196836D01*
X140121099Y-70129821D01*
X140266704Y-70032531D01*
X140390531Y-69908704D01*
X140487821Y-69763099D01*
X140554836Y-69601312D01*
X140589000Y-69429559D01*
X140589000Y-69254441D01*
X140554836Y-69082688D01*
X140487821Y-68920901D01*
X140390531Y-68775296D01*
X140266704Y-68651469D01*
X140121099Y-68554179D01*
X139959312Y-68487164D01*
X139787559Y-68453000D01*
X139612441Y-68453000D01*
X139440688Y-68487164D01*
X139278901Y-68554179D01*
X139133296Y-68651469D01*
X139009469Y-68775296D01*
X138912179Y-68920901D01*
X138845164Y-69082688D01*
X138811000Y-69254441D01*
X125756093Y-69254441D01*
X125822836Y-69093312D01*
X125857000Y-68921559D01*
X125857000Y-68746441D01*
X125822836Y-68574688D01*
X125755821Y-68412901D01*
X125658531Y-68267296D01*
X125534704Y-68143469D01*
X125389099Y-68046179D01*
X125227312Y-67979164D01*
X125055559Y-67945000D01*
X124880441Y-67945000D01*
X124708688Y-67979164D01*
X124546901Y-68046179D01*
X124401296Y-68143469D01*
X124277469Y-68267296D01*
X124180179Y-68412901D01*
X124113164Y-68574688D01*
X124079000Y-68746441D01*
X118275163Y-68746441D01*
X118211641Y-68613080D01*
X118037588Y-68379731D01*
X117953534Y-68303966D01*
X118034180Y-68279502D01*
X118144494Y-68220537D01*
X118241185Y-68141185D01*
X118320537Y-68044494D01*
X118379502Y-67934180D01*
X118415812Y-67814482D01*
X118428072Y-67690000D01*
X118428072Y-66773278D01*
X143016000Y-66773278D01*
X143016000Y-67070722D01*
X143074029Y-67362451D01*
X143187856Y-67637253D01*
X143353107Y-67884569D01*
X143563431Y-68094893D01*
X143810747Y-68260144D01*
X144085549Y-68373971D01*
X144377278Y-68432000D01*
X144674722Y-68432000D01*
X144966451Y-68373971D01*
X145241253Y-68260144D01*
X145488569Y-68094893D01*
X145698893Y-67884569D01*
X145864144Y-67637253D01*
X145977971Y-67362451D01*
X146036000Y-67070722D01*
X146036000Y-66773278D01*
X145977971Y-66481549D01*
X145864144Y-66206747D01*
X145698893Y-65959431D01*
X145488569Y-65749107D01*
X145241253Y-65583856D01*
X144966451Y-65470029D01*
X144674722Y-65412000D01*
X144377278Y-65412000D01*
X144085549Y-65470029D01*
X143810747Y-65583856D01*
X143563431Y-65749107D01*
X143353107Y-65959431D01*
X143187856Y-66206747D01*
X143074029Y-66481549D01*
X143016000Y-66773278D01*
X118428072Y-66773278D01*
X118428072Y-65990000D01*
X118415812Y-65865518D01*
X118379502Y-65745820D01*
X118320537Y-65635506D01*
X118241185Y-65538815D01*
X118144494Y-65459463D01*
X118034180Y-65400498D01*
X117914482Y-65364188D01*
X117790000Y-65351928D01*
X116090000Y-65351928D01*
X115965518Y-65364188D01*
X115845820Y-65400498D01*
X115735506Y-65459463D01*
X115638815Y-65538815D01*
X115559463Y-65635506D01*
X115500498Y-65745820D01*
X115464188Y-65865518D01*
X115451928Y-65990000D01*
X115060000Y-65990000D01*
X115060000Y-64960000D01*
X158190001Y-64960000D01*
X158190000Y-95390000D01*
G04 #@! TA.AperFunction,Conductor*
D16*
G36*
X158190000Y-95390000D02*
G01*
X115060000Y-95390000D01*
X115060000Y-93892441D01*
X135509000Y-93892441D01*
X135509000Y-94067559D01*
X135543164Y-94239312D01*
X135610179Y-94401099D01*
X135707469Y-94546704D01*
X135831296Y-94670531D01*
X135976901Y-94767821D01*
X136138688Y-94834836D01*
X136310441Y-94869000D01*
X136485559Y-94869000D01*
X136657312Y-94834836D01*
X136819099Y-94767821D01*
X136964704Y-94670531D01*
X137088531Y-94546704D01*
X137185821Y-94401099D01*
X137252836Y-94239312D01*
X137287000Y-94067559D01*
X137287000Y-93892441D01*
X137252836Y-93720688D01*
X137185821Y-93558901D01*
X137088531Y-93413296D01*
X136964704Y-93289469D01*
X136819099Y-93192179D01*
X136657312Y-93125164D01*
X136485559Y-93091000D01*
X136310441Y-93091000D01*
X136138688Y-93125164D01*
X135976901Y-93192179D01*
X135831296Y-93289469D01*
X135707469Y-93413296D01*
X135610179Y-93558901D01*
X135543164Y-93720688D01*
X135509000Y-93892441D01*
X115060000Y-93892441D01*
X115060000Y-93081589D01*
X140801000Y-93081589D01*
X140801000Y-93354411D01*
X140854225Y-93621989D01*
X140958629Y-93874043D01*
X141110201Y-94100886D01*
X141303114Y-94293799D01*
X141529957Y-94445371D01*
X141782011Y-94549775D01*
X142049589Y-94603000D01*
X142322411Y-94603000D01*
X142589989Y-94549775D01*
X142842043Y-94445371D01*
X143068886Y-94293799D01*
X143261799Y-94100886D01*
X143413371Y-93874043D01*
X143517775Y-93621989D01*
X143571000Y-93354411D01*
X143571000Y-93081589D01*
X145681000Y-93081589D01*
X145681000Y-93354411D01*
X145734225Y-93621989D01*
X145838629Y-93874043D01*
X145990201Y-94100886D01*
X146183114Y-94293799D01*
X146409957Y-94445371D01*
X146662011Y-94549775D01*
X146929589Y-94603000D01*
X147202411Y-94603000D01*
X147469989Y-94549775D01*
X147722043Y-94445371D01*
X147948886Y-94293799D01*
X148141799Y-94100886D01*
X148281077Y-93892441D01*
X152019000Y-93892441D01*
X152019000Y-94067559D01*
X152053164Y-94239312D01*
X152120179Y-94401099D01*
X152217469Y-94546704D01*
X152341296Y-94670531D01*
X152486901Y-94767821D01*
X152648688Y-94834836D01*
X152820441Y-94869000D01*
X152995559Y-94869000D01*
X153167312Y-94834836D01*
X153329099Y-94767821D01*
X153474704Y-94670531D01*
X153598531Y-94546704D01*
X153695821Y-94401099D01*
X153762836Y-94239312D01*
X153797000Y-94067559D01*
X153797000Y-93892441D01*
X153762836Y-93720688D01*
X153695821Y-93558901D01*
X153598531Y-93413296D01*
X153474704Y-93289469D01*
X153329099Y-93192179D01*
X153167312Y-93125164D01*
X152995559Y-93091000D01*
X152820441Y-93091000D01*
X152648688Y-93125164D01*
X152486901Y-93192179D01*
X152341296Y-93289469D01*
X152217469Y-93413296D01*
X152120179Y-93558901D01*
X152053164Y-93720688D01*
X152019000Y-93892441D01*
X148281077Y-93892441D01*
X148293371Y-93874043D01*
X148397775Y-93621989D01*
X148451000Y-93354411D01*
X148451000Y-93081589D01*
X148397775Y-92814011D01*
X148293371Y-92561957D01*
X148141799Y-92335114D01*
X147948886Y-92142201D01*
X147722043Y-91990629D01*
X147469989Y-91886225D01*
X147202411Y-91833000D01*
X146929589Y-91833000D01*
X146662011Y-91886225D01*
X146409957Y-91990629D01*
X146183114Y-92142201D01*
X145990201Y-92335114D01*
X145838629Y-92561957D01*
X145734225Y-92814011D01*
X145681000Y-93081589D01*
X143571000Y-93081589D01*
X143517775Y-92814011D01*
X143413371Y-92561957D01*
X143261799Y-92335114D01*
X143068886Y-92142201D01*
X142842043Y-91990629D01*
X142589989Y-91886225D01*
X142322411Y-91833000D01*
X142049589Y-91833000D01*
X141782011Y-91886225D01*
X141529957Y-91990629D01*
X141303114Y-92142201D01*
X141110201Y-92335114D01*
X140958629Y-92561957D01*
X140854225Y-92814011D01*
X140801000Y-93081589D01*
X115060000Y-93081589D01*
X115060000Y-91860441D01*
X123063000Y-91860441D01*
X123063000Y-92035559D01*
X123097164Y-92207312D01*
X123164179Y-92369099D01*
X123261469Y-92514704D01*
X123385296Y-92638531D01*
X123530901Y-92735821D01*
X123692688Y-92802836D01*
X123864441Y-92837000D01*
X124039559Y-92837000D01*
X124211312Y-92802836D01*
X124373099Y-92735821D01*
X124518704Y-92638531D01*
X124642531Y-92514704D01*
X124739821Y-92369099D01*
X124806836Y-92207312D01*
X124841000Y-92035559D01*
X124841000Y-91860441D01*
X124806836Y-91688688D01*
X124739821Y-91526901D01*
X124642531Y-91381296D01*
X124518704Y-91257469D01*
X124373099Y-91160179D01*
X124211312Y-91093164D01*
X124039559Y-91059000D01*
X123864441Y-91059000D01*
X123692688Y-91093164D01*
X123530901Y-91160179D01*
X123385296Y-91257469D01*
X123261469Y-91381296D01*
X123164179Y-91526901D01*
X123097164Y-91688688D01*
X123063000Y-91860441D01*
X115060000Y-91860441D01*
X115060000Y-71773740D01*
X115455000Y-71773740D01*
X115455000Y-72066260D01*
X115512068Y-72353158D01*
X115624010Y-72623411D01*
X115786525Y-72866632D01*
X115993368Y-73073475D01*
X116167760Y-73190000D01*
X115993368Y-73306525D01*
X115786525Y-73513368D01*
X115624010Y-73756589D01*
X115512068Y-74026842D01*
X115455000Y-74313740D01*
X115455000Y-74606260D01*
X115512068Y-74893158D01*
X115624010Y-75163411D01*
X115786525Y-75406632D01*
X115993368Y-75613475D01*
X116167760Y-75730000D01*
X115993368Y-75846525D01*
X115786525Y-76053368D01*
X115624010Y-76296589D01*
X115512068Y-76566842D01*
X115455000Y-76853740D01*
X115455000Y-77146260D01*
X115512068Y-77433158D01*
X115624010Y-77703411D01*
X115786525Y-77946632D01*
X115993368Y-78153475D01*
X116167760Y-78270000D01*
X115993368Y-78386525D01*
X115786525Y-78593368D01*
X115624010Y-78836589D01*
X115512068Y-79106842D01*
X115455000Y-79393740D01*
X115455000Y-79686260D01*
X115512068Y-79973158D01*
X115624010Y-80243411D01*
X115786525Y-80486632D01*
X115993368Y-80693475D01*
X116167760Y-80810000D01*
X115993368Y-80926525D01*
X115786525Y-81133368D01*
X115624010Y-81376589D01*
X115512068Y-81646842D01*
X115455000Y-81933740D01*
X115455000Y-82226260D01*
X115512068Y-82513158D01*
X115624010Y-82783411D01*
X115786525Y-83026632D01*
X115993368Y-83233475D01*
X116167760Y-83350000D01*
X115993368Y-83466525D01*
X115786525Y-83673368D01*
X115624010Y-83916589D01*
X115512068Y-84186842D01*
X115455000Y-84473740D01*
X115455000Y-84766260D01*
X115512068Y-85053158D01*
X115624010Y-85323411D01*
X115786525Y-85566632D01*
X115993368Y-85773475D01*
X116167760Y-85890000D01*
X115993368Y-86006525D01*
X115786525Y-86213368D01*
X115624010Y-86456589D01*
X115512068Y-86726842D01*
X115455000Y-87013740D01*
X115455000Y-87306260D01*
X115512068Y-87593158D01*
X115624010Y-87863411D01*
X115786525Y-88106632D01*
X115993368Y-88313475D01*
X116167760Y-88430000D01*
X115993368Y-88546525D01*
X115786525Y-88753368D01*
X115624010Y-88996589D01*
X115512068Y-89266842D01*
X115455000Y-89553740D01*
X115455000Y-89846260D01*
X115512068Y-90133158D01*
X115624010Y-90403411D01*
X115786525Y-90646632D01*
X115993368Y-90853475D01*
X116236589Y-91015990D01*
X116506842Y-91127932D01*
X116793740Y-91185000D01*
X117086260Y-91185000D01*
X117373158Y-91127932D01*
X117643411Y-91015990D01*
X117886632Y-90853475D01*
X118093475Y-90646632D01*
X118255990Y-90403411D01*
X118367932Y-90133158D01*
X118425000Y-89846260D01*
X118425000Y-89553740D01*
X118367932Y-89266842D01*
X118255990Y-88996589D01*
X118132947Y-88812441D01*
X119761000Y-88812441D01*
X119761000Y-88987559D01*
X119795164Y-89159312D01*
X119862179Y-89321099D01*
X119959469Y-89466704D01*
X120083296Y-89590531D01*
X120228901Y-89687821D01*
X120390688Y-89754836D01*
X120562441Y-89789000D01*
X120737559Y-89789000D01*
X120909312Y-89754836D01*
X121071099Y-89687821D01*
X121216704Y-89590531D01*
X121340531Y-89466704D01*
X121437821Y-89321099D01*
X121504836Y-89159312D01*
X121523309Y-89066441D01*
X129413000Y-89066441D01*
X129413000Y-89241559D01*
X129447164Y-89413312D01*
X129514179Y-89575099D01*
X129611469Y-89720704D01*
X129735296Y-89844531D01*
X129880901Y-89941821D01*
X130042688Y-90008836D01*
X130214441Y-90043000D01*
X130389559Y-90043000D01*
X130561312Y-90008836D01*
X130723099Y-89941821D01*
X130868704Y-89844531D01*
X130992531Y-89720704D01*
X131089821Y-89575099D01*
X131156836Y-89413312D01*
X131191000Y-89241559D01*
X131191000Y-89066441D01*
X131156836Y-88894688D01*
X131089821Y-88732901D01*
X130992531Y-88587296D01*
X130963676Y-88558441D01*
X138303000Y-88558441D01*
X138303000Y-88733559D01*
X138337164Y-88905312D01*
X138404179Y-89067099D01*
X138501469Y-89212704D01*
X138625296Y-89336531D01*
X138770901Y-89433821D01*
X138932688Y-89500836D01*
X139104441Y-89535000D01*
X139279559Y-89535000D01*
X139451312Y-89500836D01*
X139613099Y-89433821D01*
X139758704Y-89336531D01*
X139882531Y-89212704D01*
X139979821Y-89067099D01*
X139980093Y-89066441D01*
X149479000Y-89066441D01*
X149479000Y-89241559D01*
X149513164Y-89413312D01*
X149580179Y-89575099D01*
X149677469Y-89720704D01*
X149801296Y-89844531D01*
X149946901Y-89941821D01*
X150108688Y-90008836D01*
X150280441Y-90043000D01*
X150455559Y-90043000D01*
X150627312Y-90008836D01*
X150789099Y-89941821D01*
X150934704Y-89844531D01*
X151058531Y-89720704D01*
X151155821Y-89575099D01*
X151222836Y-89413312D01*
X151257000Y-89241559D01*
X151257000Y-89066441D01*
X151222836Y-88894688D01*
X151155821Y-88732901D01*
X151058531Y-88587296D01*
X150934704Y-88463469D01*
X150789099Y-88366179D01*
X150627312Y-88299164D01*
X150455559Y-88265000D01*
X150280441Y-88265000D01*
X150108688Y-88299164D01*
X149946901Y-88366179D01*
X149801296Y-88463469D01*
X149677469Y-88587296D01*
X149580179Y-88732901D01*
X149513164Y-88894688D01*
X149479000Y-89066441D01*
X139980093Y-89066441D01*
X140046836Y-88905312D01*
X140081000Y-88733559D01*
X140081000Y-88558441D01*
X140046836Y-88386688D01*
X139979821Y-88224901D01*
X139882531Y-88079296D01*
X139758704Y-87955469D01*
X139613099Y-87858179D01*
X139451312Y-87791164D01*
X139279559Y-87757000D01*
X139104441Y-87757000D01*
X138932688Y-87791164D01*
X138770901Y-87858179D01*
X138625296Y-87955469D01*
X138501469Y-88079296D01*
X138404179Y-88224901D01*
X138337164Y-88386688D01*
X138303000Y-88558441D01*
X130963676Y-88558441D01*
X130868704Y-88463469D01*
X130723099Y-88366179D01*
X130561312Y-88299164D01*
X130389559Y-88265000D01*
X130214441Y-88265000D01*
X130042688Y-88299164D01*
X129880901Y-88366179D01*
X129735296Y-88463469D01*
X129611469Y-88587296D01*
X129514179Y-88732901D01*
X129447164Y-88894688D01*
X129413000Y-89066441D01*
X121523309Y-89066441D01*
X121539000Y-88987559D01*
X121539000Y-88812441D01*
X121504836Y-88640688D01*
X121437821Y-88478901D01*
X121340531Y-88333296D01*
X121216704Y-88209469D01*
X121071099Y-88112179D01*
X120909312Y-88045164D01*
X120737559Y-88011000D01*
X120562441Y-88011000D01*
X120390688Y-88045164D01*
X120228901Y-88112179D01*
X120083296Y-88209469D01*
X119959469Y-88333296D01*
X119862179Y-88478901D01*
X119795164Y-88640688D01*
X119761000Y-88812441D01*
X118132947Y-88812441D01*
X118093475Y-88753368D01*
X117886632Y-88546525D01*
X117712240Y-88430000D01*
X117886632Y-88313475D01*
X118093475Y-88106632D01*
X118255990Y-87863411D01*
X118367932Y-87593158D01*
X118425000Y-87306260D01*
X118425000Y-87013740D01*
X118367932Y-86726842D01*
X118255990Y-86456589D01*
X118132947Y-86272441D01*
X120015000Y-86272441D01*
X120015000Y-86447559D01*
X120049164Y-86619312D01*
X120116179Y-86781099D01*
X120213469Y-86926704D01*
X120337296Y-87050531D01*
X120482901Y-87147821D01*
X120644688Y-87214836D01*
X120816441Y-87249000D01*
X120991559Y-87249000D01*
X121163312Y-87214836D01*
X121325099Y-87147821D01*
X121470704Y-87050531D01*
X121486794Y-87034441D01*
X137287000Y-87034441D01*
X137287000Y-87209559D01*
X137321164Y-87381312D01*
X137388179Y-87543099D01*
X137485469Y-87688704D01*
X137609296Y-87812531D01*
X137754901Y-87909821D01*
X137916688Y-87976836D01*
X138088441Y-88011000D01*
X138263559Y-88011000D01*
X138435312Y-87976836D01*
X138597099Y-87909821D01*
X138742704Y-87812531D01*
X138866531Y-87688704D01*
X138963821Y-87543099D01*
X139030836Y-87381312D01*
X139065000Y-87209559D01*
X139065000Y-87034441D01*
X139030836Y-86862688D01*
X138963821Y-86700901D01*
X138866531Y-86555296D01*
X138742704Y-86431469D01*
X138597099Y-86334179D01*
X138435312Y-86267164D01*
X138263559Y-86233000D01*
X138088441Y-86233000D01*
X137916688Y-86267164D01*
X137754901Y-86334179D01*
X137609296Y-86431469D01*
X137485469Y-86555296D01*
X137388179Y-86700901D01*
X137321164Y-86862688D01*
X137287000Y-87034441D01*
X121486794Y-87034441D01*
X121594531Y-86926704D01*
X121691821Y-86781099D01*
X121758836Y-86619312D01*
X121793000Y-86447559D01*
X121793000Y-86272441D01*
X121758836Y-86100688D01*
X121724768Y-86018441D01*
X131699000Y-86018441D01*
X131699000Y-86193559D01*
X131733164Y-86365312D01*
X131800179Y-86527099D01*
X131897469Y-86672704D01*
X132021296Y-86796531D01*
X132166901Y-86893821D01*
X132328688Y-86960836D01*
X132500441Y-86995000D01*
X132675559Y-86995000D01*
X132847312Y-86960836D01*
X133009099Y-86893821D01*
X133154704Y-86796531D01*
X133278531Y-86672704D01*
X133375821Y-86527099D01*
X133442836Y-86365312D01*
X133477000Y-86193559D01*
X133477000Y-86018441D01*
X133442836Y-85846688D01*
X133375821Y-85684901D01*
X133278531Y-85539296D01*
X133154704Y-85415469D01*
X133009099Y-85318179D01*
X132847312Y-85251164D01*
X132675559Y-85217000D01*
X132500441Y-85217000D01*
X132328688Y-85251164D01*
X132166901Y-85318179D01*
X132021296Y-85415469D01*
X131897469Y-85539296D01*
X131800179Y-85684901D01*
X131733164Y-85846688D01*
X131699000Y-86018441D01*
X121724768Y-86018441D01*
X121691821Y-85938901D01*
X121594531Y-85793296D01*
X121470704Y-85669469D01*
X121325099Y-85572179D01*
X121163312Y-85505164D01*
X120991559Y-85471000D01*
X120816441Y-85471000D01*
X120644688Y-85505164D01*
X120482901Y-85572179D01*
X120337296Y-85669469D01*
X120213469Y-85793296D01*
X120116179Y-85938901D01*
X120049164Y-86100688D01*
X120015000Y-86272441D01*
X118132947Y-86272441D01*
X118093475Y-86213368D01*
X117886632Y-86006525D01*
X117712240Y-85890000D01*
X117886632Y-85773475D01*
X118093475Y-85566632D01*
X118255990Y-85323411D01*
X118367932Y-85053158D01*
X118425000Y-84766260D01*
X118425000Y-84494441D01*
X120269000Y-84494441D01*
X120269000Y-84669559D01*
X120303164Y-84841312D01*
X120370179Y-85003099D01*
X120467469Y-85148704D01*
X120591296Y-85272531D01*
X120736901Y-85369821D01*
X120898688Y-85436836D01*
X121070441Y-85471000D01*
X121245559Y-85471000D01*
X121417312Y-85436836D01*
X121579099Y-85369821D01*
X121724704Y-85272531D01*
X121848531Y-85148704D01*
X121945821Y-85003099D01*
X122012836Y-84841312D01*
X122047000Y-84669559D01*
X122047000Y-84494441D01*
X122012836Y-84322688D01*
X121945821Y-84160901D01*
X121848531Y-84015296D01*
X121819676Y-83986441D01*
X152019000Y-83986441D01*
X152019000Y-84161559D01*
X152053164Y-84333312D01*
X152120179Y-84495099D01*
X152217469Y-84640704D01*
X152341296Y-84764531D01*
X152486901Y-84861821D01*
X152648688Y-84928836D01*
X152820441Y-84963000D01*
X152995559Y-84963000D01*
X153167312Y-84928836D01*
X153329099Y-84861821D01*
X153474704Y-84764531D01*
X153598531Y-84640704D01*
X153695821Y-84495099D01*
X153762836Y-84333312D01*
X153797000Y-84161559D01*
X153797000Y-83986441D01*
X153762836Y-83814688D01*
X153695821Y-83652901D01*
X153598531Y-83507296D01*
X153474704Y-83383469D01*
X153329099Y-83286179D01*
X153167312Y-83219164D01*
X152995559Y-83185000D01*
X152820441Y-83185000D01*
X152648688Y-83219164D01*
X152486901Y-83286179D01*
X152341296Y-83383469D01*
X152217469Y-83507296D01*
X152120179Y-83652901D01*
X152053164Y-83814688D01*
X152019000Y-83986441D01*
X121819676Y-83986441D01*
X121724704Y-83891469D01*
X121579099Y-83794179D01*
X121417312Y-83727164D01*
X121245559Y-83693000D01*
X121070441Y-83693000D01*
X120898688Y-83727164D01*
X120736901Y-83794179D01*
X120591296Y-83891469D01*
X120467469Y-84015296D01*
X120370179Y-84160901D01*
X120303164Y-84322688D01*
X120269000Y-84494441D01*
X118425000Y-84494441D01*
X118425000Y-84473740D01*
X118367932Y-84186842D01*
X118255990Y-83916589D01*
X118093475Y-83673368D01*
X117886632Y-83466525D01*
X117712240Y-83350000D01*
X117886632Y-83233475D01*
X118093475Y-83026632D01*
X118255990Y-82783411D01*
X118367932Y-82513158D01*
X118425000Y-82226260D01*
X118425000Y-81933740D01*
X118393082Y-81773278D01*
X143016000Y-81773278D01*
X143016000Y-82070722D01*
X143074029Y-82362451D01*
X143187856Y-82637253D01*
X143353107Y-82884569D01*
X143563431Y-83094893D01*
X143810747Y-83260144D01*
X144085549Y-83373971D01*
X144377278Y-83432000D01*
X144674722Y-83432000D01*
X144966451Y-83373971D01*
X145241253Y-83260144D01*
X145488569Y-83094893D01*
X145698893Y-82884569D01*
X145864144Y-82637253D01*
X145977971Y-82362451D01*
X146036000Y-82070722D01*
X146036000Y-81773278D01*
X145977971Y-81481549D01*
X145864144Y-81206747D01*
X145698893Y-80959431D01*
X145488569Y-80749107D01*
X145241253Y-80583856D01*
X144966451Y-80470029D01*
X144674722Y-80412000D01*
X144377278Y-80412000D01*
X144085549Y-80470029D01*
X143810747Y-80583856D01*
X143563431Y-80749107D01*
X143353107Y-80959431D01*
X143187856Y-81206747D01*
X143074029Y-81481549D01*
X143016000Y-81773278D01*
X118393082Y-81773278D01*
X118367932Y-81646842D01*
X118255990Y-81376589D01*
X118093475Y-81133368D01*
X117886632Y-80926525D01*
X117712240Y-80810000D01*
X117886632Y-80693475D01*
X118093475Y-80486632D01*
X118255990Y-80243411D01*
X118367932Y-79973158D01*
X118425000Y-79686260D01*
X118425000Y-79393740D01*
X118367932Y-79106842D01*
X118255990Y-78836589D01*
X118093475Y-78593368D01*
X117886632Y-78386525D01*
X117712240Y-78270000D01*
X117886632Y-78153475D01*
X118093475Y-77946632D01*
X118255990Y-77703411D01*
X118367932Y-77433158D01*
X118425000Y-77146260D01*
X118425000Y-76853740D01*
X118367932Y-76566842D01*
X118255990Y-76296589D01*
X118132947Y-76112441D01*
X125095000Y-76112441D01*
X125095000Y-76287559D01*
X125129164Y-76459312D01*
X125196179Y-76621099D01*
X125293469Y-76766704D01*
X125417296Y-76890531D01*
X125562901Y-76987821D01*
X125724688Y-77054836D01*
X125896441Y-77089000D01*
X126071559Y-77089000D01*
X126243312Y-77054836D01*
X126405099Y-76987821D01*
X126550704Y-76890531D01*
X126674531Y-76766704D01*
X126771821Y-76621099D01*
X126838836Y-76459312D01*
X126873000Y-76287559D01*
X126873000Y-76112441D01*
X127127000Y-76112441D01*
X127127000Y-76287559D01*
X127161164Y-76459312D01*
X127228179Y-76621099D01*
X127325469Y-76766704D01*
X127449296Y-76890531D01*
X127594901Y-76987821D01*
X127756688Y-77054836D01*
X127928441Y-77089000D01*
X128103559Y-77089000D01*
X128275312Y-77054836D01*
X128437099Y-76987821D01*
X128582704Y-76890531D01*
X128706531Y-76766704D01*
X128803821Y-76621099D01*
X128870836Y-76459312D01*
X128905000Y-76287559D01*
X128905000Y-76112441D01*
X128870836Y-75940688D01*
X128803821Y-75778901D01*
X128706531Y-75633296D01*
X128582704Y-75509469D01*
X128437099Y-75412179D01*
X128275312Y-75345164D01*
X128103559Y-75311000D01*
X127928441Y-75311000D01*
X127756688Y-75345164D01*
X127594901Y-75412179D01*
X127449296Y-75509469D01*
X127325469Y-75633296D01*
X127228179Y-75778901D01*
X127161164Y-75940688D01*
X127127000Y-76112441D01*
X126873000Y-76112441D01*
X126838836Y-75940688D01*
X126771821Y-75778901D01*
X126674531Y-75633296D01*
X126550704Y-75509469D01*
X126405099Y-75412179D01*
X126243312Y-75345164D01*
X126071559Y-75311000D01*
X125896441Y-75311000D01*
X125724688Y-75345164D01*
X125562901Y-75412179D01*
X125417296Y-75509469D01*
X125293469Y-75633296D01*
X125196179Y-75778901D01*
X125129164Y-75940688D01*
X125095000Y-76112441D01*
X118132947Y-76112441D01*
X118093475Y-76053368D01*
X117886632Y-75846525D01*
X117712240Y-75730000D01*
X117886632Y-75613475D01*
X118093475Y-75406632D01*
X118255990Y-75163411D01*
X118367932Y-74893158D01*
X118425000Y-74606260D01*
X118425000Y-74313740D01*
X118367932Y-74026842D01*
X118255990Y-73756589D01*
X118093475Y-73513368D01*
X117898548Y-73318441D01*
X120015000Y-73318441D01*
X120015000Y-73493559D01*
X120049164Y-73665312D01*
X120116179Y-73827099D01*
X120213469Y-73972704D01*
X120337296Y-74096531D01*
X120482901Y-74193821D01*
X120644688Y-74260836D01*
X120816441Y-74295000D01*
X120991559Y-74295000D01*
X121163312Y-74260836D01*
X121325099Y-74193821D01*
X121470704Y-74096531D01*
X121594531Y-73972704D01*
X121691821Y-73827099D01*
X121758836Y-73665312D01*
X121777309Y-73572441D01*
X130683000Y-73572441D01*
X130683000Y-73747559D01*
X130717164Y-73919312D01*
X130784179Y-74081099D01*
X130881469Y-74226704D01*
X131005296Y-74350531D01*
X131150901Y-74447821D01*
X131312688Y-74514836D01*
X131484441Y-74549000D01*
X131659559Y-74549000D01*
X131831312Y-74514836D01*
X131993099Y-74447821D01*
X132138704Y-74350531D01*
X132154794Y-74334441D01*
X141351000Y-74334441D01*
X141351000Y-74509559D01*
X141385164Y-74681312D01*
X141452179Y-74843099D01*
X141549469Y-74988704D01*
X141673296Y-75112531D01*
X141818901Y-75209821D01*
X141980688Y-75276836D01*
X142152441Y-75311000D01*
X142327559Y-75311000D01*
X142499312Y-75276836D01*
X142661099Y-75209821D01*
X142806704Y-75112531D01*
X142930531Y-74988704D01*
X143027821Y-74843099D01*
X143094836Y-74681312D01*
X143129000Y-74509559D01*
X143129000Y-74334441D01*
X143094836Y-74162688D01*
X143027821Y-74000901D01*
X142930531Y-73855296D01*
X142806704Y-73731469D01*
X142661099Y-73634179D01*
X142499312Y-73567164D01*
X142327559Y-73533000D01*
X142152441Y-73533000D01*
X141980688Y-73567164D01*
X141818901Y-73634179D01*
X141673296Y-73731469D01*
X141549469Y-73855296D01*
X141452179Y-74000901D01*
X141385164Y-74162688D01*
X141351000Y-74334441D01*
X132154794Y-74334441D01*
X132262531Y-74226704D01*
X132359821Y-74081099D01*
X132426836Y-73919312D01*
X132461000Y-73747559D01*
X132461000Y-73572441D01*
X132426836Y-73400688D01*
X132359821Y-73238901D01*
X132262531Y-73093296D01*
X132138704Y-72969469D01*
X131993099Y-72872179D01*
X131831312Y-72805164D01*
X131659559Y-72771000D01*
X131484441Y-72771000D01*
X131312688Y-72805164D01*
X131150901Y-72872179D01*
X131005296Y-72969469D01*
X130881469Y-73093296D01*
X130784179Y-73238901D01*
X130717164Y-73400688D01*
X130683000Y-73572441D01*
X121777309Y-73572441D01*
X121793000Y-73493559D01*
X121793000Y-73318441D01*
X121758836Y-73146688D01*
X121691821Y-72984901D01*
X121594531Y-72839296D01*
X121470704Y-72715469D01*
X121325099Y-72618179D01*
X121163312Y-72551164D01*
X120991559Y-72517000D01*
X120816441Y-72517000D01*
X120644688Y-72551164D01*
X120482901Y-72618179D01*
X120337296Y-72715469D01*
X120213469Y-72839296D01*
X120116179Y-72984901D01*
X120049164Y-73146688D01*
X120015000Y-73318441D01*
X117898548Y-73318441D01*
X117886632Y-73306525D01*
X117712240Y-73190000D01*
X117886632Y-73073475D01*
X118093475Y-72866632D01*
X118255990Y-72623411D01*
X118356866Y-72379872D01*
X149665000Y-72379872D01*
X149665000Y-72820128D01*
X149750890Y-73251925D01*
X149919369Y-73658669D01*
X150163962Y-74024729D01*
X150475271Y-74336038D01*
X150841331Y-74580631D01*
X151248075Y-74749110D01*
X151679872Y-74835000D01*
X152120128Y-74835000D01*
X152551925Y-74749110D01*
X152958669Y-74580631D01*
X153324729Y-74336038D01*
X153636038Y-74024729D01*
X153880631Y-73658669D01*
X154049110Y-73251925D01*
X154135000Y-72820128D01*
X154135000Y-72379872D01*
X154049110Y-71948075D01*
X153880631Y-71541331D01*
X153636038Y-71175271D01*
X153324729Y-70863962D01*
X152958669Y-70619369D01*
X152551925Y-70450890D01*
X152120128Y-70365000D01*
X151679872Y-70365000D01*
X151248075Y-70450890D01*
X150841331Y-70619369D01*
X150475271Y-70863962D01*
X150163962Y-71175271D01*
X149919369Y-71541331D01*
X149750890Y-71948075D01*
X149665000Y-72379872D01*
X118356866Y-72379872D01*
X118367932Y-72353158D01*
X118425000Y-72066260D01*
X118425000Y-71773740D01*
X118367932Y-71486842D01*
X118255990Y-71216589D01*
X118093475Y-70973368D01*
X117886632Y-70766525D01*
X117704466Y-70644805D01*
X117821355Y-70575178D01*
X118037588Y-70380269D01*
X118211641Y-70146920D01*
X118336825Y-69884099D01*
X118381476Y-69736890D01*
X118260155Y-69507000D01*
X117067000Y-69507000D01*
X117067000Y-69527000D01*
X116813000Y-69527000D01*
X116813000Y-69507000D01*
X115619845Y-69507000D01*
X115498524Y-69736890D01*
X115543175Y-69884099D01*
X115668359Y-70146920D01*
X115842412Y-70380269D01*
X116058645Y-70575178D01*
X116175534Y-70644805D01*
X115993368Y-70766525D01*
X115786525Y-70973368D01*
X115624010Y-71216589D01*
X115512068Y-71486842D01*
X115455000Y-71773740D01*
X115060000Y-71773740D01*
X115060000Y-65990000D01*
X115451928Y-65990000D01*
X115451928Y-67690000D01*
X115464188Y-67814482D01*
X115500498Y-67934180D01*
X115559463Y-68044494D01*
X115638815Y-68141185D01*
X115735506Y-68220537D01*
X115845820Y-68279502D01*
X115926466Y-68303966D01*
X115842412Y-68379731D01*
X115668359Y-68613080D01*
X115543175Y-68875901D01*
X115498524Y-69023110D01*
X115619845Y-69253000D01*
X116813000Y-69253000D01*
X116813000Y-69233000D01*
X117067000Y-69233000D01*
X117067000Y-69253000D01*
X118260155Y-69253000D01*
X118381476Y-69023110D01*
X118336825Y-68875901D01*
X118275163Y-68746441D01*
X124079000Y-68746441D01*
X124079000Y-68921559D01*
X124113164Y-69093312D01*
X124180179Y-69255099D01*
X124277469Y-69400704D01*
X124401296Y-69524531D01*
X124546901Y-69621821D01*
X124708688Y-69688836D01*
X124880441Y-69723000D01*
X125055559Y-69723000D01*
X125227312Y-69688836D01*
X125389099Y-69621821D01*
X125534704Y-69524531D01*
X125658531Y-69400704D01*
X125755821Y-69255099D01*
X125756093Y-69254441D01*
X138811000Y-69254441D01*
X138811000Y-69429559D01*
X138845164Y-69601312D01*
X138912179Y-69763099D01*
X139009469Y-69908704D01*
X139133296Y-70032531D01*
X139278901Y-70129821D01*
X139440688Y-70196836D01*
X139612441Y-70231000D01*
X139787559Y-70231000D01*
X139959312Y-70196836D01*
X140121099Y-70129821D01*
X140266704Y-70032531D01*
X140390531Y-69908704D01*
X140487821Y-69763099D01*
X140554836Y-69601312D01*
X140589000Y-69429559D01*
X140589000Y-69254441D01*
X140554836Y-69082688D01*
X140487821Y-68920901D01*
X140390531Y-68775296D01*
X140266704Y-68651469D01*
X140121099Y-68554179D01*
X139959312Y-68487164D01*
X139787559Y-68453000D01*
X139612441Y-68453000D01*
X139440688Y-68487164D01*
X139278901Y-68554179D01*
X139133296Y-68651469D01*
X139009469Y-68775296D01*
X138912179Y-68920901D01*
X138845164Y-69082688D01*
X138811000Y-69254441D01*
X125756093Y-69254441D01*
X125822836Y-69093312D01*
X125857000Y-68921559D01*
X125857000Y-68746441D01*
X125822836Y-68574688D01*
X125755821Y-68412901D01*
X125658531Y-68267296D01*
X125534704Y-68143469D01*
X125389099Y-68046179D01*
X125227312Y-67979164D01*
X125055559Y-67945000D01*
X124880441Y-67945000D01*
X124708688Y-67979164D01*
X124546901Y-68046179D01*
X124401296Y-68143469D01*
X124277469Y-68267296D01*
X124180179Y-68412901D01*
X124113164Y-68574688D01*
X124079000Y-68746441D01*
X118275163Y-68746441D01*
X118211641Y-68613080D01*
X118037588Y-68379731D01*
X117953534Y-68303966D01*
X118034180Y-68279502D01*
X118144494Y-68220537D01*
X118241185Y-68141185D01*
X118320537Y-68044494D01*
X118379502Y-67934180D01*
X118415812Y-67814482D01*
X118428072Y-67690000D01*
X118428072Y-66773278D01*
X143016000Y-66773278D01*
X143016000Y-67070722D01*
X143074029Y-67362451D01*
X143187856Y-67637253D01*
X143353107Y-67884569D01*
X143563431Y-68094893D01*
X143810747Y-68260144D01*
X144085549Y-68373971D01*
X144377278Y-68432000D01*
X144674722Y-68432000D01*
X144966451Y-68373971D01*
X145241253Y-68260144D01*
X145488569Y-68094893D01*
X145698893Y-67884569D01*
X145864144Y-67637253D01*
X145977971Y-67362451D01*
X146036000Y-67070722D01*
X146036000Y-66773278D01*
X145977971Y-66481549D01*
X145864144Y-66206747D01*
X145698893Y-65959431D01*
X145488569Y-65749107D01*
X145241253Y-65583856D01*
X144966451Y-65470029D01*
X144674722Y-65412000D01*
X144377278Y-65412000D01*
X144085549Y-65470029D01*
X143810747Y-65583856D01*
X143563431Y-65749107D01*
X143353107Y-65959431D01*
X143187856Y-66206747D01*
X143074029Y-66481549D01*
X143016000Y-66773278D01*
X118428072Y-66773278D01*
X118428072Y-65990000D01*
X118415812Y-65865518D01*
X118379502Y-65745820D01*
X118320537Y-65635506D01*
X118241185Y-65538815D01*
X118144494Y-65459463D01*
X118034180Y-65400498D01*
X117914482Y-65364188D01*
X117790000Y-65351928D01*
X116090000Y-65351928D01*
X115965518Y-65364188D01*
X115845820Y-65400498D01*
X115735506Y-65459463D01*
X115638815Y-65538815D01*
X115559463Y-65635506D01*
X115500498Y-65745820D01*
X115464188Y-65865518D01*
X115451928Y-65990000D01*
X115060000Y-65990000D01*
X115060000Y-64960000D01*
X158190001Y-64960000D01*
X158190000Y-95390000D01*
G37*
G04 #@! TD.AperFunction*
M02*
