G04 #@! TF.GenerationSoftware,KiCad,Pcbnew,(5.1.4)-1*
G04 #@! TF.CreationDate,2019-12-30T10:40:50-06:00*
G04 #@! TF.ProjectId,analog_pcb,616e616c-6f67-45f7-9063-622e6b696361,rev?*
G04 #@! TF.SameCoordinates,Original*
G04 #@! TF.FileFunction,Copper,L4,Bot*
G04 #@! TF.FilePolarity,Positive*
%FSLAX46Y46*%
G04 Gerber Fmt 4.6, Leading zero omitted, Abs format (unit mm)*
G04 Created by KiCad (PCBNEW (5.1.4)-1) date 2019-12-30 10:40:50*
%MOMM*%
%LPD*%
G04 APERTURE LIST*
%ADD10O,1.700000X1.700000*%
%ADD11R,1.700000X1.700000*%
%ADD12C,0.508000*%
%ADD13C,0.508000*%
%ADD14C,0.304800*%
G04 APERTURE END LIST*
D10*
X116940000Y-89700000D03*
X116940000Y-87160000D03*
X116940000Y-84620000D03*
X116940000Y-82080000D03*
X116940000Y-79540000D03*
X116940000Y-77000000D03*
X116940000Y-74460000D03*
X116940000Y-71920000D03*
X116940000Y-69380000D03*
D11*
X116940000Y-66840000D03*
D12*
X120904000Y-86360000D03*
X120650000Y-88900000D03*
X130302000Y-89154000D03*
X140208000Y-69342000D03*
X131572000Y-73660000D03*
X124968000Y-68834000D03*
X120904000Y-73406000D03*
X125984000Y-76200000D03*
X139192000Y-81026000D03*
X140462000Y-91440000D03*
X149606000Y-88646000D03*
X137160000Y-84328000D03*
X137414000Y-69342000D03*
X143764000Y-81026000D03*
X149098000Y-86868000D03*
X137160000Y-88900000D03*
X127254000Y-91948000D03*
X128016000Y-76200000D03*
X132588000Y-86106000D03*
X123952000Y-91948000D03*
X142240000Y-74422000D03*
X121158000Y-84582000D03*
D13*
X123736000Y-71920000D02*
X128016000Y-76200000D01*
X120243599Y-72872401D02*
X121196000Y-71920000D01*
X120243599Y-86676993D02*
X120243599Y-72872401D01*
X123952000Y-90385394D02*
X120243599Y-86676993D01*
X123952000Y-91948000D02*
X123952000Y-90385394D01*
X116940000Y-71920000D02*
X121196000Y-71920000D01*
X121196000Y-71920000D02*
X123736000Y-71920000D01*
X129794000Y-86106000D02*
X123952000Y-91948000D01*
X132588000Y-86106000D02*
X129794000Y-86106000D01*
D14*
X142240000Y-74422000D02*
X132080000Y-84582000D01*
X132080000Y-84582000D02*
X121158000Y-84582000D01*
M02*
