G04 #@! TF.GenerationSoftware,KiCad,Pcbnew,(5.1.4)-1*
G04 #@! TF.CreationDate,2019-12-30T10:40:50-06:00*
G04 #@! TF.ProjectId,analog_pcb,616e616c-6f67-45f7-9063-622e6b696361,rev?*
G04 #@! TF.SameCoordinates,Original*
G04 #@! TF.FileFunction,Paste,Top*
G04 #@! TF.FilePolarity,Positive*
%FSLAX46Y46*%
G04 Gerber Fmt 4.6, Leading zero omitted, Abs format (unit mm)*
G04 Created by KiCad (PCBNEW (5.1.4)-1) date 2019-12-30 10:40:50*
%MOMM*%
%LPD*%
G04 APERTURE LIST*
%ADD10R,1.200000X0.750000*%
%ADD11R,0.750000X1.200000*%
%ADD12R,1.600000X2.000000*%
%ADD13R,0.500000X0.500000*%
%ADD14R,0.900000X1.200000*%
%ADD15R,1.700000X2.000000*%
%ADD16R,1.200000X0.900000*%
%ADD17R,1.550000X0.600000*%
G04 APERTURE END LIST*
D10*
X142350000Y-90150000D03*
X140450000Y-90150000D03*
X148339700Y-88550300D03*
X146439700Y-88550300D03*
X140434300Y-82670700D03*
X142334300Y-82670700D03*
X142334300Y-81146700D03*
X140434300Y-81146700D03*
D11*
X121038700Y-71981300D03*
X121038700Y-70081300D03*
X124086700Y-70081300D03*
X124086700Y-71981300D03*
D10*
X137741700Y-70650300D03*
X139641700Y-70650300D03*
X137741700Y-72174300D03*
X139641700Y-72174300D03*
X126057700Y-75095300D03*
X127957700Y-75095300D03*
X126057700Y-73571300D03*
X127957700Y-73571300D03*
D12*
X140342700Y-78365300D03*
X140342700Y-74365300D03*
D10*
X130493700Y-90348300D03*
X128593700Y-90348300D03*
X130493700Y-91872300D03*
X128593700Y-91872300D03*
X126556700Y-90348300D03*
X124656700Y-90348300D03*
X120719700Y-90348300D03*
X122619700Y-90348300D03*
X120719700Y-91872300D03*
X122619700Y-91872300D03*
D13*
X127896700Y-69931300D03*
X127896700Y-72131300D03*
X125864700Y-69931300D03*
X125864700Y-72131300D03*
D14*
X147900000Y-86850000D03*
X147900000Y-84650000D03*
X146300000Y-86850000D03*
X146300000Y-84650000D03*
X122562700Y-69931300D03*
X122562700Y-72131300D03*
D15*
X137929700Y-78365300D03*
X137929700Y-74365300D03*
D16*
X132548700Y-87173300D03*
X130348700Y-87173300D03*
D17*
X138720700Y-84613300D03*
X138720700Y-85883300D03*
X138720700Y-87153300D03*
X138720700Y-88423300D03*
X144120700Y-88423300D03*
X144120700Y-87153300D03*
X144120700Y-85883300D03*
X144120700Y-84613300D03*
X135549700Y-71031300D03*
X135549700Y-72301300D03*
X135549700Y-73571300D03*
X135549700Y-74841300D03*
X130149700Y-74841300D03*
X130149700Y-73571300D03*
X130149700Y-72301300D03*
X130149700Y-71031300D03*
X128179700Y-84633300D03*
X128179700Y-85903300D03*
X128179700Y-87173300D03*
X128179700Y-88443300D03*
X122779700Y-88443300D03*
X122779700Y-87173300D03*
X122779700Y-85903300D03*
X122779700Y-84633300D03*
M02*
