G04 #@! TF.GenerationSoftware,KiCad,Pcbnew,(5.1.4)-1*
G04 #@! TF.CreationDate,2019-12-30T10:40:50-06:00*
G04 #@! TF.ProjectId,analog_pcb,616e616c-6f67-45f7-9063-622e6b696361,rev?*
G04 #@! TF.SameCoordinates,Original*
G04 #@! TF.FileFunction,Legend,Top*
G04 #@! TF.FilePolarity,Positive*
%FSLAX46Y46*%
G04 Gerber Fmt 4.6, Leading zero omitted, Abs format (unit mm)*
G04 Created by KiCad (PCBNEW (5.1.4)-1) date 2019-12-30 10:40:50*
%MOMM*%
%LPD*%
G04 APERTURE LIST*
%ADD10C,0.177800*%
%ADD11C,0.120000*%
%ADD12C,0.150000*%
G04 APERTURE END LIST*
D10*
X137377714Y-93003914D02*
X137123714Y-92641057D01*
X136942285Y-93003914D02*
X136942285Y-92241914D01*
X137232571Y-92241914D01*
X137305142Y-92278200D01*
X137341428Y-92314485D01*
X137377714Y-92387057D01*
X137377714Y-92495914D01*
X137341428Y-92568485D01*
X137305142Y-92604771D01*
X137232571Y-92641057D01*
X136942285Y-92641057D01*
X137813142Y-93003914D02*
X137740571Y-92967628D01*
X137704285Y-92931342D01*
X137668000Y-92858771D01*
X137668000Y-92641057D01*
X137704285Y-92568485D01*
X137740571Y-92532200D01*
X137813142Y-92495914D01*
X137922000Y-92495914D01*
X137994571Y-92532200D01*
X138030857Y-92568485D01*
X138067142Y-92641057D01*
X138067142Y-92858771D01*
X138030857Y-92931342D01*
X137994571Y-92967628D01*
X137922000Y-93003914D01*
X137813142Y-93003914D01*
X138284857Y-92495914D02*
X138575142Y-92495914D01*
X138393714Y-92241914D02*
X138393714Y-92895057D01*
X138430000Y-92967628D01*
X138502571Y-93003914D01*
X138575142Y-93003914D01*
X139155714Y-93003914D02*
X139155714Y-92604771D01*
X139119428Y-92532200D01*
X139046857Y-92495914D01*
X138901714Y-92495914D01*
X138829142Y-92532200D01*
X139155714Y-92967628D02*
X139083142Y-93003914D01*
X138901714Y-93003914D01*
X138829142Y-92967628D01*
X138792857Y-92895057D01*
X138792857Y-92822485D01*
X138829142Y-92749914D01*
X138901714Y-92713628D01*
X139083142Y-92713628D01*
X139155714Y-92677342D01*
X139409714Y-92495914D02*
X139700000Y-92495914D01*
X139518571Y-92241914D02*
X139518571Y-92895057D01*
X139554857Y-92967628D01*
X139627428Y-93003914D01*
X139700000Y-93003914D01*
X139954000Y-93003914D02*
X139954000Y-92495914D01*
X139954000Y-92241914D02*
X139917714Y-92278200D01*
X139954000Y-92314485D01*
X139990285Y-92278200D01*
X139954000Y-92241914D01*
X139954000Y-92314485D01*
X140316857Y-92495914D02*
X140316857Y-93003914D01*
X140316857Y-92568485D02*
X140353142Y-92532200D01*
X140425714Y-92495914D01*
X140534571Y-92495914D01*
X140607142Y-92532200D01*
X140643428Y-92604771D01*
X140643428Y-93003914D01*
X141332857Y-92495914D02*
X141332857Y-93112771D01*
X141296571Y-93185342D01*
X141260285Y-93221628D01*
X141187714Y-93257914D01*
X141078857Y-93257914D01*
X141006285Y-93221628D01*
X141332857Y-92967628D02*
X141260285Y-93003914D01*
X141115142Y-93003914D01*
X141042571Y-92967628D01*
X141006285Y-92931342D01*
X140970000Y-92858771D01*
X140970000Y-92641057D01*
X141006285Y-92568485D01*
X141042571Y-92532200D01*
X141115142Y-92495914D01*
X141260285Y-92495914D01*
X141332857Y-92532200D01*
X142240000Y-92786200D02*
X142602857Y-92786200D01*
X142167428Y-93003914D02*
X142421428Y-92241914D01*
X142675428Y-93003914D01*
X142929428Y-92495914D02*
X142929428Y-93003914D01*
X142929428Y-92568485D02*
X142965714Y-92532200D01*
X143038285Y-92495914D01*
X143147142Y-92495914D01*
X143219714Y-92532200D01*
X143256000Y-92604771D01*
X143256000Y-93003914D01*
X143945428Y-93003914D02*
X143945428Y-92604771D01*
X143909142Y-92532200D01*
X143836571Y-92495914D01*
X143691428Y-92495914D01*
X143618857Y-92532200D01*
X143945428Y-92967628D02*
X143872857Y-93003914D01*
X143691428Y-93003914D01*
X143618857Y-92967628D01*
X143582571Y-92895057D01*
X143582571Y-92822485D01*
X143618857Y-92749914D01*
X143691428Y-92713628D01*
X143872857Y-92713628D01*
X143945428Y-92677342D01*
X144417142Y-93003914D02*
X144344571Y-92967628D01*
X144308285Y-92895057D01*
X144308285Y-92241914D01*
X144816285Y-93003914D02*
X144743714Y-92967628D01*
X144707428Y-92931342D01*
X144671142Y-92858771D01*
X144671142Y-92641057D01*
X144707428Y-92568485D01*
X144743714Y-92532200D01*
X144816285Y-92495914D01*
X144925142Y-92495914D01*
X144997714Y-92532200D01*
X145034000Y-92568485D01*
X145070285Y-92641057D01*
X145070285Y-92858771D01*
X145034000Y-92931342D01*
X144997714Y-92967628D01*
X144925142Y-93003914D01*
X144816285Y-93003914D01*
X145723428Y-92495914D02*
X145723428Y-93112771D01*
X145687142Y-93185342D01*
X145650857Y-93221628D01*
X145578285Y-93257914D01*
X145469428Y-93257914D01*
X145396857Y-93221628D01*
X145723428Y-92967628D02*
X145650857Y-93003914D01*
X145505714Y-93003914D01*
X145433142Y-92967628D01*
X145396857Y-92931342D01*
X145360571Y-92858771D01*
X145360571Y-92641057D01*
X145396857Y-92568485D01*
X145433142Y-92532200D01*
X145505714Y-92495914D01*
X145650857Y-92495914D01*
X145723428Y-92532200D01*
X146666857Y-92604771D02*
X146920857Y-92604771D01*
X147029714Y-93003914D02*
X146666857Y-93003914D01*
X146666857Y-92241914D01*
X147029714Y-92241914D01*
X147465142Y-93003914D02*
X147392571Y-92967628D01*
X147356285Y-92895057D01*
X147356285Y-92241914D01*
X148045714Y-92967628D02*
X147973142Y-93003914D01*
X147828000Y-93003914D01*
X147755428Y-92967628D01*
X147719142Y-92895057D01*
X147719142Y-92604771D01*
X147755428Y-92532200D01*
X147828000Y-92495914D01*
X147973142Y-92495914D01*
X148045714Y-92532200D01*
X148082000Y-92604771D01*
X148082000Y-92677342D01*
X147719142Y-92749914D01*
X148735142Y-92967628D02*
X148662571Y-93003914D01*
X148517428Y-93003914D01*
X148444857Y-92967628D01*
X148408571Y-92931342D01*
X148372285Y-92858771D01*
X148372285Y-92641057D01*
X148408571Y-92568485D01*
X148444857Y-92532200D01*
X148517428Y-92495914D01*
X148662571Y-92495914D01*
X148735142Y-92532200D01*
X148952857Y-92495914D02*
X149243142Y-92495914D01*
X149061714Y-92241914D02*
X149061714Y-92895057D01*
X149098000Y-92967628D01*
X149170571Y-93003914D01*
X149243142Y-93003914D01*
X149497142Y-93003914D02*
X149497142Y-92495914D01*
X149497142Y-92641057D02*
X149533428Y-92568485D01*
X149569714Y-92532200D01*
X149642285Y-92495914D01*
X149714857Y-92495914D01*
X150077714Y-93003914D02*
X150005142Y-92967628D01*
X149968857Y-92931342D01*
X149932571Y-92858771D01*
X149932571Y-92641057D01*
X149968857Y-92568485D01*
X150005142Y-92532200D01*
X150077714Y-92495914D01*
X150186571Y-92495914D01*
X150259142Y-92532200D01*
X150295428Y-92568485D01*
X150331714Y-92641057D01*
X150331714Y-92858771D01*
X150295428Y-92931342D01*
X150259142Y-92967628D01*
X150186571Y-93003914D01*
X150077714Y-93003914D01*
X150658285Y-92495914D02*
X150658285Y-93003914D01*
X150658285Y-92568485D02*
X150694571Y-92532200D01*
X150767142Y-92495914D01*
X150876000Y-92495914D01*
X150948571Y-92532200D01*
X150984857Y-92604771D01*
X150984857Y-93003914D01*
X151347714Y-93003914D02*
X151347714Y-92495914D01*
X151347714Y-92241914D02*
X151311428Y-92278200D01*
X151347714Y-92314485D01*
X151384000Y-92278200D01*
X151347714Y-92241914D01*
X151347714Y-92314485D01*
X152037142Y-92967628D02*
X151964571Y-93003914D01*
X151819428Y-93003914D01*
X151746857Y-92967628D01*
X151710571Y-92931342D01*
X151674285Y-92858771D01*
X151674285Y-92641057D01*
X151710571Y-92568485D01*
X151746857Y-92532200D01*
X151819428Y-92495914D01*
X151964571Y-92495914D01*
X152037142Y-92532200D01*
X152327428Y-92967628D02*
X152400000Y-93003914D01*
X152545142Y-93003914D01*
X152617714Y-92967628D01*
X152654000Y-92895057D01*
X152654000Y-92858771D01*
X152617714Y-92786200D01*
X152545142Y-92749914D01*
X152436285Y-92749914D01*
X152363714Y-92713628D01*
X152327428Y-92641057D01*
X152327428Y-92604771D01*
X152363714Y-92532200D01*
X152436285Y-92495914D01*
X152545142Y-92495914D01*
X152617714Y-92532200D01*
X138393714Y-94324714D02*
X138139714Y-93961857D01*
X137958285Y-94324714D02*
X137958285Y-93562714D01*
X138248571Y-93562714D01*
X138321142Y-93599000D01*
X138357428Y-93635285D01*
X138393714Y-93707857D01*
X138393714Y-93816714D01*
X138357428Y-93889285D01*
X138321142Y-93925571D01*
X138248571Y-93961857D01*
X137958285Y-93961857D01*
X139010571Y-94288428D02*
X138938000Y-94324714D01*
X138792857Y-94324714D01*
X138720285Y-94288428D01*
X138684000Y-94215857D01*
X138684000Y-93925571D01*
X138720285Y-93853000D01*
X138792857Y-93816714D01*
X138938000Y-93816714D01*
X139010571Y-93853000D01*
X139046857Y-93925571D01*
X139046857Y-93998142D01*
X138684000Y-94070714D01*
X139300857Y-93816714D02*
X139482285Y-94324714D01*
X139663714Y-93816714D01*
X140933714Y-94324714D02*
X140498285Y-94324714D01*
X140716000Y-94324714D02*
X140716000Y-93562714D01*
X140643428Y-93671571D01*
X140570857Y-93744142D01*
X140498285Y-93780428D01*
X141260285Y-94252142D02*
X141296571Y-94288428D01*
X141260285Y-94324714D01*
X141224000Y-94288428D01*
X141260285Y-94252142D01*
X141260285Y-94324714D01*
X141768285Y-93562714D02*
X141840857Y-93562714D01*
X141913428Y-93599000D01*
X141949714Y-93635285D01*
X141986000Y-93707857D01*
X142022285Y-93853000D01*
X142022285Y-94034428D01*
X141986000Y-94179571D01*
X141949714Y-94252142D01*
X141913428Y-94288428D01*
X141840857Y-94324714D01*
X141768285Y-94324714D01*
X141695714Y-94288428D01*
X141659428Y-94252142D01*
X141623142Y-94179571D01*
X141586857Y-94034428D01*
X141586857Y-93853000D01*
X141623142Y-93707857D01*
X141659428Y-93635285D01*
X141695714Y-93599000D01*
X141768285Y-93562714D01*
X142929428Y-94324714D02*
X142929428Y-93562714D01*
X143110857Y-93562714D01*
X143219714Y-93599000D01*
X143292285Y-93671571D01*
X143328571Y-93744142D01*
X143364857Y-93889285D01*
X143364857Y-93998142D01*
X143328571Y-94143285D01*
X143292285Y-94215857D01*
X143219714Y-94288428D01*
X143110857Y-94324714D01*
X142929428Y-94324714D01*
X143981714Y-94288428D02*
X143909142Y-94324714D01*
X143764000Y-94324714D01*
X143691428Y-94288428D01*
X143655142Y-94215857D01*
X143655142Y-93925571D01*
X143691428Y-93853000D01*
X143764000Y-93816714D01*
X143909142Y-93816714D01*
X143981714Y-93853000D01*
X144018000Y-93925571D01*
X144018000Y-93998142D01*
X143655142Y-94070714D01*
X144671142Y-94288428D02*
X144598571Y-94324714D01*
X144453428Y-94324714D01*
X144380857Y-94288428D01*
X144344571Y-94252142D01*
X144308285Y-94179571D01*
X144308285Y-93961857D01*
X144344571Y-93889285D01*
X144380857Y-93853000D01*
X144453428Y-93816714D01*
X144598571Y-93816714D01*
X144671142Y-93853000D01*
X145288000Y-94288428D02*
X145215428Y-94324714D01*
X145070285Y-94324714D01*
X144997714Y-94288428D01*
X144961428Y-94215857D01*
X144961428Y-93925571D01*
X144997714Y-93853000D01*
X145070285Y-93816714D01*
X145215428Y-93816714D01*
X145288000Y-93853000D01*
X145324285Y-93925571D01*
X145324285Y-93998142D01*
X144961428Y-94070714D01*
X145650857Y-94324714D02*
X145650857Y-93816714D01*
X145650857Y-93889285D02*
X145687142Y-93853000D01*
X145759714Y-93816714D01*
X145868571Y-93816714D01*
X145941142Y-93853000D01*
X145977428Y-93925571D01*
X145977428Y-94324714D01*
X145977428Y-93925571D02*
X146013714Y-93853000D01*
X146086285Y-93816714D01*
X146195142Y-93816714D01*
X146267714Y-93853000D01*
X146304000Y-93925571D01*
X146304000Y-94324714D01*
X146666857Y-94324714D02*
X146666857Y-93562714D01*
X146666857Y-93853000D02*
X146739428Y-93816714D01*
X146884571Y-93816714D01*
X146957142Y-93853000D01*
X146993428Y-93889285D01*
X147029714Y-93961857D01*
X147029714Y-94179571D01*
X146993428Y-94252142D01*
X146957142Y-94288428D01*
X146884571Y-94324714D01*
X146739428Y-94324714D01*
X146666857Y-94288428D01*
X147646571Y-94288428D02*
X147574000Y-94324714D01*
X147428857Y-94324714D01*
X147356285Y-94288428D01*
X147320000Y-94215857D01*
X147320000Y-93925571D01*
X147356285Y-93853000D01*
X147428857Y-93816714D01*
X147574000Y-93816714D01*
X147646571Y-93853000D01*
X147682857Y-93925571D01*
X147682857Y-93998142D01*
X147320000Y-94070714D01*
X148009428Y-94324714D02*
X148009428Y-93816714D01*
X148009428Y-93961857D02*
X148045714Y-93889285D01*
X148082000Y-93853000D01*
X148154571Y-93816714D01*
X148227142Y-93816714D01*
X149025428Y-93635285D02*
X149061714Y-93599000D01*
X149134285Y-93562714D01*
X149315714Y-93562714D01*
X149388285Y-93599000D01*
X149424571Y-93635285D01*
X149460857Y-93707857D01*
X149460857Y-93780428D01*
X149424571Y-93889285D01*
X148989142Y-94324714D01*
X149460857Y-94324714D01*
X149932571Y-93562714D02*
X150005142Y-93562714D01*
X150077714Y-93599000D01*
X150114000Y-93635285D01*
X150150285Y-93707857D01*
X150186571Y-93853000D01*
X150186571Y-94034428D01*
X150150285Y-94179571D01*
X150114000Y-94252142D01*
X150077714Y-94288428D01*
X150005142Y-94324714D01*
X149932571Y-94324714D01*
X149860000Y-94288428D01*
X149823714Y-94252142D01*
X149787428Y-94179571D01*
X149751142Y-94034428D01*
X149751142Y-93853000D01*
X149787428Y-93707857D01*
X149823714Y-93635285D01*
X149860000Y-93599000D01*
X149932571Y-93562714D01*
X150912285Y-94324714D02*
X150476857Y-94324714D01*
X150694571Y-94324714D02*
X150694571Y-93562714D01*
X150622000Y-93671571D01*
X150549428Y-93744142D01*
X150476857Y-93780428D01*
X151275142Y-94324714D02*
X151420285Y-94324714D01*
X151492857Y-94288428D01*
X151529142Y-94252142D01*
X151601714Y-94143285D01*
X151638000Y-93998142D01*
X151638000Y-93707857D01*
X151601714Y-93635285D01*
X151565428Y-93599000D01*
X151492857Y-93562714D01*
X151347714Y-93562714D01*
X151275142Y-93599000D01*
X151238857Y-93635285D01*
X151202571Y-93707857D01*
X151202571Y-93889285D01*
X151238857Y-93961857D01*
X151275142Y-93998142D01*
X151347714Y-94034428D01*
X151492857Y-94034428D01*
X151565428Y-93998142D01*
X151601714Y-93961857D01*
X151638000Y-93889285D01*
X140117285Y-95645514D02*
X140117285Y-94883514D01*
X140407571Y-94883514D01*
X140480142Y-94919800D01*
X140516428Y-94956085D01*
X140552714Y-95028657D01*
X140552714Y-95137514D01*
X140516428Y-95210085D01*
X140480142Y-95246371D01*
X140407571Y-95282657D01*
X140117285Y-95282657D01*
X141423571Y-94847228D02*
X140770428Y-95826942D01*
X141677571Y-95645514D02*
X141677571Y-94883514D01*
X142113000Y-95645514D01*
X142113000Y-94883514D01*
X142983857Y-94883514D02*
X143455571Y-94883514D01*
X143201571Y-95173800D01*
X143310428Y-95173800D01*
X143383000Y-95210085D01*
X143419285Y-95246371D01*
X143455571Y-95318942D01*
X143455571Y-95500371D01*
X143419285Y-95572942D01*
X143383000Y-95609228D01*
X143310428Y-95645514D01*
X143092714Y-95645514D01*
X143020142Y-95609228D01*
X142983857Y-95572942D01*
X143782142Y-95355228D02*
X144362714Y-95355228D01*
X144870714Y-94883514D02*
X144943285Y-94883514D01*
X145015857Y-94919800D01*
X145052142Y-94956085D01*
X145088428Y-95028657D01*
X145124714Y-95173800D01*
X145124714Y-95355228D01*
X145088428Y-95500371D01*
X145052142Y-95572942D01*
X145015857Y-95609228D01*
X144943285Y-95645514D01*
X144870714Y-95645514D01*
X144798142Y-95609228D01*
X144761857Y-95572942D01*
X144725571Y-95500371D01*
X144689285Y-95355228D01*
X144689285Y-95173800D01*
X144725571Y-95028657D01*
X144761857Y-94956085D01*
X144798142Y-94919800D01*
X144870714Y-94883514D01*
X145596428Y-94883514D02*
X145669000Y-94883514D01*
X145741571Y-94919800D01*
X145777857Y-94956085D01*
X145814142Y-95028657D01*
X145850428Y-95173800D01*
X145850428Y-95355228D01*
X145814142Y-95500371D01*
X145777857Y-95572942D01*
X145741571Y-95609228D01*
X145669000Y-95645514D01*
X145596428Y-95645514D01*
X145523857Y-95609228D01*
X145487571Y-95572942D01*
X145451285Y-95500371D01*
X145415000Y-95355228D01*
X145415000Y-95173800D01*
X145451285Y-95028657D01*
X145487571Y-94956085D01*
X145523857Y-94919800D01*
X145596428Y-94883514D01*
X146322142Y-94883514D02*
X146394714Y-94883514D01*
X146467285Y-94919800D01*
X146503571Y-94956085D01*
X146539857Y-95028657D01*
X146576142Y-95173800D01*
X146576142Y-95355228D01*
X146539857Y-95500371D01*
X146503571Y-95572942D01*
X146467285Y-95609228D01*
X146394714Y-95645514D01*
X146322142Y-95645514D01*
X146249571Y-95609228D01*
X146213285Y-95572942D01*
X146177000Y-95500371D01*
X146140714Y-95355228D01*
X146140714Y-95173800D01*
X146177000Y-95028657D01*
X146213285Y-94956085D01*
X146249571Y-94919800D01*
X146322142Y-94883514D01*
X147047857Y-94883514D02*
X147120428Y-94883514D01*
X147193000Y-94919800D01*
X147229285Y-94956085D01*
X147265571Y-95028657D01*
X147301857Y-95173800D01*
X147301857Y-95355228D01*
X147265571Y-95500371D01*
X147229285Y-95572942D01*
X147193000Y-95609228D01*
X147120428Y-95645514D01*
X147047857Y-95645514D01*
X146975285Y-95609228D01*
X146939000Y-95572942D01*
X146902714Y-95500371D01*
X146866428Y-95355228D01*
X146866428Y-95173800D01*
X146902714Y-95028657D01*
X146939000Y-94956085D01*
X146975285Y-94919800D01*
X147047857Y-94883514D01*
X147773571Y-94883514D02*
X147846142Y-94883514D01*
X147918714Y-94919800D01*
X147955000Y-94956085D01*
X147991285Y-95028657D01*
X148027571Y-95173800D01*
X148027571Y-95355228D01*
X147991285Y-95500371D01*
X147955000Y-95572942D01*
X147918714Y-95609228D01*
X147846142Y-95645514D01*
X147773571Y-95645514D01*
X147701000Y-95609228D01*
X147664714Y-95572942D01*
X147628428Y-95500371D01*
X147592142Y-95355228D01*
X147592142Y-95173800D01*
X147628428Y-95028657D01*
X147664714Y-94956085D01*
X147701000Y-94919800D01*
X147773571Y-94883514D01*
X148317857Y-94956085D02*
X148354142Y-94919800D01*
X148426714Y-94883514D01*
X148608142Y-94883514D01*
X148680714Y-94919800D01*
X148717000Y-94956085D01*
X148753285Y-95028657D01*
X148753285Y-95101228D01*
X148717000Y-95210085D01*
X148281571Y-95645514D01*
X148753285Y-95645514D01*
X149406428Y-95137514D02*
X149406428Y-95645514D01*
X149225000Y-94847228D02*
X149043571Y-95391514D01*
X149515285Y-95391514D01*
D11*
X141750000Y-90750000D02*
X141050000Y-90750000D01*
X141050000Y-89550000D02*
X141750000Y-89550000D01*
X147739700Y-89150300D02*
X147039700Y-89150300D01*
X147039700Y-87950300D02*
X147739700Y-87950300D01*
X141034300Y-82070700D02*
X141734300Y-82070700D01*
X141734300Y-83270700D02*
X141034300Y-83270700D01*
X141734300Y-81746700D02*
X141034300Y-81746700D01*
X141034300Y-80546700D02*
X141734300Y-80546700D01*
X120438700Y-71381300D02*
X120438700Y-70681300D01*
X121638700Y-70681300D02*
X121638700Y-71381300D01*
X124686700Y-70681300D02*
X124686700Y-71381300D01*
X123486700Y-71381300D02*
X123486700Y-70681300D01*
X138341700Y-70050300D02*
X139041700Y-70050300D01*
X139041700Y-71250300D02*
X138341700Y-71250300D01*
X138341700Y-71574300D02*
X139041700Y-71574300D01*
X139041700Y-72774300D02*
X138341700Y-72774300D01*
X126657700Y-74495300D02*
X127357700Y-74495300D01*
X127357700Y-75695300D02*
X126657700Y-75695300D01*
X126657700Y-72971300D02*
X127357700Y-72971300D01*
X127357700Y-74171300D02*
X126657700Y-74171300D01*
X139322700Y-75365300D02*
X139322700Y-77365300D01*
X141362700Y-77365300D02*
X141362700Y-75365300D01*
X129893700Y-90948300D02*
X129193700Y-90948300D01*
X129193700Y-89748300D02*
X129893700Y-89748300D01*
X129893700Y-92472300D02*
X129193700Y-92472300D01*
X129193700Y-91272300D02*
X129893700Y-91272300D01*
X125956700Y-90948300D02*
X125256700Y-90948300D01*
X125256700Y-89748300D02*
X125956700Y-89748300D01*
X121319700Y-89748300D02*
X122019700Y-89748300D01*
X122019700Y-90948300D02*
X121319700Y-90948300D01*
X121319700Y-91272300D02*
X122019700Y-91272300D01*
X122019700Y-92472300D02*
X121319700Y-92472300D01*
X128746700Y-69531300D02*
X127046700Y-69531300D01*
X127046700Y-69531300D02*
X127046700Y-72081300D01*
X128746700Y-69531300D02*
X128746700Y-72081300D01*
X125014700Y-72531300D02*
X125014700Y-69981300D01*
X126714700Y-72531300D02*
X126714700Y-69981300D01*
X125014700Y-72531300D02*
X126714700Y-72531300D01*
X115610000Y-65510000D02*
X116940000Y-65510000D01*
X115610000Y-66840000D02*
X115610000Y-65510000D01*
X115610000Y-68110000D02*
X118270000Y-68110000D01*
X118270000Y-68110000D02*
X118270000Y-91030000D01*
X115610000Y-68110000D02*
X115610000Y-91030000D01*
X115610000Y-91030000D02*
X118270000Y-91030000D01*
X148580000Y-85250000D02*
X148580000Y-86250000D01*
X147220000Y-86250000D02*
X147220000Y-85250000D01*
X146980000Y-85250000D02*
X146980000Y-86250000D01*
X145620000Y-86250000D02*
X145620000Y-85250000D01*
X121882700Y-71531300D02*
X121882700Y-70531300D01*
X123242700Y-70531300D02*
X123242700Y-71531300D01*
X138999700Y-75365300D02*
X138999700Y-77365300D01*
X136859700Y-77365300D02*
X136859700Y-75365300D01*
X130948700Y-86493300D02*
X131948700Y-86493300D01*
X131948700Y-87853300D02*
X130948700Y-87853300D01*
D12*
X139345700Y-83943300D02*
X139345700Y-83993300D01*
X143495700Y-83943300D02*
X143495700Y-84088300D01*
X143495700Y-89093300D02*
X143495700Y-88948300D01*
X139345700Y-89093300D02*
X139345700Y-88948300D01*
X139345700Y-83943300D02*
X143495700Y-83943300D01*
X139345700Y-89093300D02*
X143495700Y-89093300D01*
X139345700Y-83993300D02*
X137945700Y-83993300D01*
X130774700Y-70411300D02*
X129374700Y-70411300D01*
X130774700Y-75511300D02*
X134924700Y-75511300D01*
X130774700Y-70361300D02*
X134924700Y-70361300D01*
X130774700Y-75511300D02*
X130774700Y-75366300D01*
X134924700Y-75511300D02*
X134924700Y-75366300D01*
X134924700Y-70361300D02*
X134924700Y-70506300D01*
X130774700Y-70361300D02*
X130774700Y-70411300D01*
X123404700Y-84013300D02*
X122004700Y-84013300D01*
X123404700Y-89113300D02*
X127554700Y-89113300D01*
X123404700Y-83963300D02*
X127554700Y-83963300D01*
X123404700Y-89113300D02*
X123404700Y-88968300D01*
X127554700Y-89113300D02*
X127554700Y-88968300D01*
X127554700Y-83963300D02*
X127554700Y-84108300D01*
X123404700Y-83963300D02*
X123404700Y-84013300D01*
X138483333Y-90507142D02*
X138435714Y-90554761D01*
X138292857Y-90602380D01*
X138197619Y-90602380D01*
X138054761Y-90554761D01*
X137959523Y-90459523D01*
X137911904Y-90364285D01*
X137864285Y-90173809D01*
X137864285Y-90030952D01*
X137911904Y-89840476D01*
X137959523Y-89745238D01*
X138054761Y-89650000D01*
X138197619Y-89602380D01*
X138292857Y-89602380D01*
X138435714Y-89650000D01*
X138483333Y-89697619D01*
X139435714Y-90602380D02*
X138864285Y-90602380D01*
X139150000Y-90602380D02*
X139150000Y-89602380D01*
X139054761Y-89745238D01*
X138959523Y-89840476D01*
X138864285Y-89888095D01*
X147223033Y-90273142D02*
X147175414Y-90320761D01*
X147032557Y-90368380D01*
X146937319Y-90368380D01*
X146794461Y-90320761D01*
X146699223Y-90225523D01*
X146651604Y-90130285D01*
X146603985Y-89939809D01*
X146603985Y-89796952D01*
X146651604Y-89606476D01*
X146699223Y-89511238D01*
X146794461Y-89416000D01*
X146937319Y-89368380D01*
X147032557Y-89368380D01*
X147175414Y-89416000D01*
X147223033Y-89463619D01*
X147603985Y-89463619D02*
X147651604Y-89416000D01*
X147746842Y-89368380D01*
X147984938Y-89368380D01*
X148080176Y-89416000D01*
X148127795Y-89463619D01*
X148175414Y-89558857D01*
X148175414Y-89654095D01*
X148127795Y-89796952D01*
X147556366Y-90368380D01*
X148175414Y-90368380D01*
X138383333Y-83007142D02*
X138335714Y-83054761D01*
X138192857Y-83102380D01*
X138097619Y-83102380D01*
X137954761Y-83054761D01*
X137859523Y-82959523D01*
X137811904Y-82864285D01*
X137764285Y-82673809D01*
X137764285Y-82530952D01*
X137811904Y-82340476D01*
X137859523Y-82245238D01*
X137954761Y-82150000D01*
X138097619Y-82102380D01*
X138192857Y-82102380D01*
X138335714Y-82150000D01*
X138383333Y-82197619D01*
X138716666Y-82102380D02*
X139335714Y-82102380D01*
X139002380Y-82483333D01*
X139145238Y-82483333D01*
X139240476Y-82530952D01*
X139288095Y-82578571D01*
X139335714Y-82673809D01*
X139335714Y-82911904D01*
X139288095Y-83007142D01*
X139240476Y-83054761D01*
X139145238Y-83102380D01*
X138859523Y-83102380D01*
X138764285Y-83054761D01*
X138716666Y-83007142D01*
X138383333Y-81507142D02*
X138335714Y-81554761D01*
X138192857Y-81602380D01*
X138097619Y-81602380D01*
X137954761Y-81554761D01*
X137859523Y-81459523D01*
X137811904Y-81364285D01*
X137764285Y-81173809D01*
X137764285Y-81030952D01*
X137811904Y-80840476D01*
X137859523Y-80745238D01*
X137954761Y-80650000D01*
X138097619Y-80602380D01*
X138192857Y-80602380D01*
X138335714Y-80650000D01*
X138383333Y-80697619D01*
X139240476Y-80935714D02*
X139240476Y-81602380D01*
X139002380Y-80554761D02*
X138764285Y-81269047D01*
X139383333Y-81269047D01*
X121407142Y-68316666D02*
X121454761Y-68364285D01*
X121502380Y-68507142D01*
X121502380Y-68602380D01*
X121454761Y-68745238D01*
X121359523Y-68840476D01*
X121264285Y-68888095D01*
X121073809Y-68935714D01*
X120930952Y-68935714D01*
X120740476Y-68888095D01*
X120645238Y-68840476D01*
X120550000Y-68745238D01*
X120502380Y-68602380D01*
X120502380Y-68507142D01*
X120550000Y-68364285D01*
X120597619Y-68316666D01*
X120502380Y-67411904D02*
X120502380Y-67888095D01*
X120978571Y-67935714D01*
X120930952Y-67888095D01*
X120883333Y-67792857D01*
X120883333Y-67554761D01*
X120930952Y-67459523D01*
X120978571Y-67411904D01*
X121073809Y-67364285D01*
X121311904Y-67364285D01*
X121407142Y-67411904D01*
X121454761Y-67459523D01*
X121502380Y-67554761D01*
X121502380Y-67792857D01*
X121454761Y-67888095D01*
X121407142Y-67935714D01*
X124357142Y-68316666D02*
X124404761Y-68364285D01*
X124452380Y-68507142D01*
X124452380Y-68602380D01*
X124404761Y-68745238D01*
X124309523Y-68840476D01*
X124214285Y-68888095D01*
X124023809Y-68935714D01*
X123880952Y-68935714D01*
X123690476Y-68888095D01*
X123595238Y-68840476D01*
X123500000Y-68745238D01*
X123452380Y-68602380D01*
X123452380Y-68507142D01*
X123500000Y-68364285D01*
X123547619Y-68316666D01*
X123452380Y-67459523D02*
X123452380Y-67650000D01*
X123500000Y-67745238D01*
X123547619Y-67792857D01*
X123690476Y-67888095D01*
X123880952Y-67935714D01*
X124261904Y-67935714D01*
X124357142Y-67888095D01*
X124404761Y-67840476D01*
X124452380Y-67745238D01*
X124452380Y-67554761D01*
X124404761Y-67459523D01*
X124357142Y-67411904D01*
X124261904Y-67364285D01*
X124023809Y-67364285D01*
X123928571Y-67411904D01*
X123880952Y-67459523D01*
X123833333Y-67554761D01*
X123833333Y-67745238D01*
X123880952Y-67840476D01*
X123928571Y-67888095D01*
X124023809Y-67935714D01*
X138525033Y-68429142D02*
X138477414Y-68476761D01*
X138334557Y-68524380D01*
X138239319Y-68524380D01*
X138096461Y-68476761D01*
X138001223Y-68381523D01*
X137953604Y-68286285D01*
X137905985Y-68095809D01*
X137905985Y-67952952D01*
X137953604Y-67762476D01*
X138001223Y-67667238D01*
X138096461Y-67572000D01*
X138239319Y-67524380D01*
X138334557Y-67524380D01*
X138477414Y-67572000D01*
X138525033Y-67619619D01*
X138858366Y-67524380D02*
X139525033Y-67524380D01*
X139096461Y-68524380D01*
X138525033Y-69699142D02*
X138477414Y-69746761D01*
X138334557Y-69794380D01*
X138239319Y-69794380D01*
X138096461Y-69746761D01*
X138001223Y-69651523D01*
X137953604Y-69556285D01*
X137905985Y-69365809D01*
X137905985Y-69222952D01*
X137953604Y-69032476D01*
X138001223Y-68937238D01*
X138096461Y-68842000D01*
X138239319Y-68794380D01*
X138334557Y-68794380D01*
X138477414Y-68842000D01*
X138525033Y-68889619D01*
X139096461Y-69222952D02*
X139001223Y-69175333D01*
X138953604Y-69127714D01*
X138905985Y-69032476D01*
X138905985Y-68984857D01*
X138953604Y-68889619D01*
X139001223Y-68842000D01*
X139096461Y-68794380D01*
X139286938Y-68794380D01*
X139382176Y-68842000D01*
X139429795Y-68889619D01*
X139477414Y-68984857D01*
X139477414Y-69032476D01*
X139429795Y-69127714D01*
X139382176Y-69175333D01*
X139286938Y-69222952D01*
X139096461Y-69222952D01*
X139001223Y-69270571D01*
X138953604Y-69318190D01*
X138905985Y-69413428D01*
X138905985Y-69603904D01*
X138953604Y-69699142D01*
X139001223Y-69746761D01*
X139096461Y-69794380D01*
X139286938Y-69794380D01*
X139382176Y-69746761D01*
X139429795Y-69699142D01*
X139477414Y-69603904D01*
X139477414Y-69413428D01*
X139429795Y-69318190D01*
X139382176Y-69270571D01*
X139286938Y-69222952D01*
X124033333Y-75507142D02*
X123985714Y-75554761D01*
X123842857Y-75602380D01*
X123747619Y-75602380D01*
X123604761Y-75554761D01*
X123509523Y-75459523D01*
X123461904Y-75364285D01*
X123414285Y-75173809D01*
X123414285Y-75030952D01*
X123461904Y-74840476D01*
X123509523Y-74745238D01*
X123604761Y-74650000D01*
X123747619Y-74602380D01*
X123842857Y-74602380D01*
X123985714Y-74650000D01*
X124033333Y-74697619D01*
X124509523Y-75602380D02*
X124700000Y-75602380D01*
X124795238Y-75554761D01*
X124842857Y-75507142D01*
X124938095Y-75364285D01*
X124985714Y-75173809D01*
X124985714Y-74792857D01*
X124938095Y-74697619D01*
X124890476Y-74650000D01*
X124795238Y-74602380D01*
X124604761Y-74602380D01*
X124509523Y-74650000D01*
X124461904Y-74697619D01*
X124414285Y-74792857D01*
X124414285Y-75030952D01*
X124461904Y-75126190D01*
X124509523Y-75173809D01*
X124604761Y-75221428D01*
X124795238Y-75221428D01*
X124890476Y-75173809D01*
X124938095Y-75126190D01*
X124985714Y-75030952D01*
X123107142Y-74107142D02*
X123059523Y-74154761D01*
X122916666Y-74202380D01*
X122821428Y-74202380D01*
X122678571Y-74154761D01*
X122583333Y-74059523D01*
X122535714Y-73964285D01*
X122488095Y-73773809D01*
X122488095Y-73630952D01*
X122535714Y-73440476D01*
X122583333Y-73345238D01*
X122678571Y-73250000D01*
X122821428Y-73202380D01*
X122916666Y-73202380D01*
X123059523Y-73250000D01*
X123107142Y-73297619D01*
X124059523Y-74202380D02*
X123488095Y-74202380D01*
X123773809Y-74202380D02*
X123773809Y-73202380D01*
X123678571Y-73345238D01*
X123583333Y-73440476D01*
X123488095Y-73488095D01*
X124678571Y-73202380D02*
X124773809Y-73202380D01*
X124869047Y-73250000D01*
X124916666Y-73297619D01*
X124964285Y-73392857D01*
X125011904Y-73583333D01*
X125011904Y-73821428D01*
X124964285Y-74011904D01*
X124916666Y-74107142D01*
X124869047Y-74154761D01*
X124773809Y-74202380D01*
X124678571Y-74202380D01*
X124583333Y-74154761D01*
X124535714Y-74107142D01*
X124488095Y-74011904D01*
X124440476Y-73821428D01*
X124440476Y-73583333D01*
X124488095Y-73392857D01*
X124535714Y-73297619D01*
X124583333Y-73250000D01*
X124678571Y-73202380D01*
X144107142Y-76992857D02*
X144154761Y-77040476D01*
X144202380Y-77183333D01*
X144202380Y-77278571D01*
X144154761Y-77421428D01*
X144059523Y-77516666D01*
X143964285Y-77564285D01*
X143773809Y-77611904D01*
X143630952Y-77611904D01*
X143440476Y-77564285D01*
X143345238Y-77516666D01*
X143250000Y-77421428D01*
X143202380Y-77278571D01*
X143202380Y-77183333D01*
X143250000Y-77040476D01*
X143297619Y-76992857D01*
X144202380Y-76040476D02*
X144202380Y-76611904D01*
X144202380Y-76326190D02*
X143202380Y-76326190D01*
X143345238Y-76421428D01*
X143440476Y-76516666D01*
X143488095Y-76611904D01*
X144202380Y-75088095D02*
X144202380Y-75659523D01*
X144202380Y-75373809D02*
X143202380Y-75373809D01*
X143345238Y-75469047D01*
X143440476Y-75564285D01*
X143488095Y-75659523D01*
X128900842Y-93607142D02*
X128853223Y-93654761D01*
X128710366Y-93702380D01*
X128615128Y-93702380D01*
X128472271Y-93654761D01*
X128377033Y-93559523D01*
X128329414Y-93464285D01*
X128281795Y-93273809D01*
X128281795Y-93130952D01*
X128329414Y-92940476D01*
X128377033Y-92845238D01*
X128472271Y-92750000D01*
X128615128Y-92702380D01*
X128710366Y-92702380D01*
X128853223Y-92750000D01*
X128900842Y-92797619D01*
X129853223Y-93702380D02*
X129281795Y-93702380D01*
X129567509Y-93702380D02*
X129567509Y-92702380D01*
X129472271Y-92845238D01*
X129377033Y-92940476D01*
X129281795Y-92988095D01*
X130234176Y-92797619D02*
X130281795Y-92750000D01*
X130377033Y-92702380D01*
X130615128Y-92702380D01*
X130710366Y-92750000D01*
X130757985Y-92797619D01*
X130805604Y-92892857D01*
X130805604Y-92988095D01*
X130757985Y-93130952D01*
X130186557Y-93702380D01*
X130805604Y-93702380D01*
X128907142Y-94907142D02*
X128859523Y-94954761D01*
X128716666Y-95002380D01*
X128621428Y-95002380D01*
X128478571Y-94954761D01*
X128383333Y-94859523D01*
X128335714Y-94764285D01*
X128288095Y-94573809D01*
X128288095Y-94430952D01*
X128335714Y-94240476D01*
X128383333Y-94145238D01*
X128478571Y-94050000D01*
X128621428Y-94002380D01*
X128716666Y-94002380D01*
X128859523Y-94050000D01*
X128907142Y-94097619D01*
X129859523Y-95002380D02*
X129288095Y-95002380D01*
X129573809Y-95002380D02*
X129573809Y-94002380D01*
X129478571Y-94145238D01*
X129383333Y-94240476D01*
X129288095Y-94288095D01*
X130192857Y-94002380D02*
X130811904Y-94002380D01*
X130478571Y-94383333D01*
X130621428Y-94383333D01*
X130716666Y-94430952D01*
X130764285Y-94478571D01*
X130811904Y-94573809D01*
X130811904Y-94811904D01*
X130764285Y-94907142D01*
X130716666Y-94954761D01*
X130621428Y-95002380D01*
X130335714Y-95002380D01*
X130240476Y-94954761D01*
X130192857Y-94907142D01*
X124963842Y-92157142D02*
X124916223Y-92204761D01*
X124773366Y-92252380D01*
X124678128Y-92252380D01*
X124535271Y-92204761D01*
X124440033Y-92109523D01*
X124392414Y-92014285D01*
X124344795Y-91823809D01*
X124344795Y-91680952D01*
X124392414Y-91490476D01*
X124440033Y-91395238D01*
X124535271Y-91300000D01*
X124678128Y-91252380D01*
X124773366Y-91252380D01*
X124916223Y-91300000D01*
X124963842Y-91347619D01*
X125916223Y-92252380D02*
X125344795Y-92252380D01*
X125630509Y-92252380D02*
X125630509Y-91252380D01*
X125535271Y-91395238D01*
X125440033Y-91490476D01*
X125344795Y-91538095D01*
X126773366Y-91585714D02*
X126773366Y-92252380D01*
X126535271Y-91204761D02*
X126297176Y-91919047D01*
X126916223Y-91919047D01*
X121026842Y-93607142D02*
X120979223Y-93654761D01*
X120836366Y-93702380D01*
X120741128Y-93702380D01*
X120598271Y-93654761D01*
X120503033Y-93559523D01*
X120455414Y-93464285D01*
X120407795Y-93273809D01*
X120407795Y-93130952D01*
X120455414Y-92940476D01*
X120503033Y-92845238D01*
X120598271Y-92750000D01*
X120741128Y-92702380D01*
X120836366Y-92702380D01*
X120979223Y-92750000D01*
X121026842Y-92797619D01*
X121979223Y-93702380D02*
X121407795Y-93702380D01*
X121693509Y-93702380D02*
X121693509Y-92702380D01*
X121598271Y-92845238D01*
X121503033Y-92940476D01*
X121407795Y-92988095D01*
X122883985Y-92702380D02*
X122407795Y-92702380D01*
X122360176Y-93178571D01*
X122407795Y-93130952D01*
X122503033Y-93083333D01*
X122741128Y-93083333D01*
X122836366Y-93130952D01*
X122883985Y-93178571D01*
X122931604Y-93273809D01*
X122931604Y-93511904D01*
X122883985Y-93607142D01*
X122836366Y-93654761D01*
X122741128Y-93702380D01*
X122503033Y-93702380D01*
X122407795Y-93654761D01*
X122360176Y-93607142D01*
X121057142Y-94907142D02*
X121009523Y-94954761D01*
X120866666Y-95002380D01*
X120771428Y-95002380D01*
X120628571Y-94954761D01*
X120533333Y-94859523D01*
X120485714Y-94764285D01*
X120438095Y-94573809D01*
X120438095Y-94430952D01*
X120485714Y-94240476D01*
X120533333Y-94145238D01*
X120628571Y-94050000D01*
X120771428Y-94002380D01*
X120866666Y-94002380D01*
X121009523Y-94050000D01*
X121057142Y-94097619D01*
X122009523Y-95002380D02*
X121438095Y-95002380D01*
X121723809Y-95002380D02*
X121723809Y-94002380D01*
X121628571Y-94145238D01*
X121533333Y-94240476D01*
X121438095Y-94288095D01*
X122866666Y-94002380D02*
X122676190Y-94002380D01*
X122580952Y-94050000D01*
X122533333Y-94097619D01*
X122438095Y-94240476D01*
X122390476Y-94430952D01*
X122390476Y-94811904D01*
X122438095Y-94907142D01*
X122485714Y-94954761D01*
X122580952Y-95002380D01*
X122771428Y-95002380D01*
X122866666Y-94954761D01*
X122914285Y-94907142D01*
X122961904Y-94811904D01*
X122961904Y-94573809D01*
X122914285Y-94478571D01*
X122866666Y-94430952D01*
X122771428Y-94383333D01*
X122580952Y-94383333D01*
X122485714Y-94430952D01*
X122438095Y-94478571D01*
X122390476Y-94573809D01*
X128352380Y-68838095D02*
X127352380Y-68838095D01*
X127352380Y-68600000D01*
X127400000Y-68457142D01*
X127495238Y-68361904D01*
X127590476Y-68314285D01*
X127780952Y-68266666D01*
X127923809Y-68266666D01*
X128114285Y-68314285D01*
X128209523Y-68361904D01*
X128304761Y-68457142D01*
X128352380Y-68600000D01*
X128352380Y-68838095D01*
X128352380Y-67314285D02*
X128352380Y-67885714D01*
X128352380Y-67600000D02*
X127352380Y-67600000D01*
X127495238Y-67695238D01*
X127590476Y-67790476D01*
X127638095Y-67885714D01*
X126352380Y-68888095D02*
X125352380Y-68888095D01*
X125352380Y-68650000D01*
X125400000Y-68507142D01*
X125495238Y-68411904D01*
X125590476Y-68364285D01*
X125780952Y-68316666D01*
X125923809Y-68316666D01*
X126114285Y-68364285D01*
X126209523Y-68411904D01*
X126304761Y-68507142D01*
X126352380Y-68650000D01*
X126352380Y-68888095D01*
X125447619Y-67935714D02*
X125400000Y-67888095D01*
X125352380Y-67792857D01*
X125352380Y-67554761D01*
X125400000Y-67459523D01*
X125447619Y-67411904D01*
X125542857Y-67364285D01*
X125638095Y-67364285D01*
X125780952Y-67411904D01*
X126352380Y-67983333D01*
X126352380Y-67364285D01*
X119466666Y-65302380D02*
X119466666Y-66016666D01*
X119419047Y-66159523D01*
X119323809Y-66254761D01*
X119180952Y-66302380D01*
X119085714Y-66302380D01*
X120466666Y-66302380D02*
X119895238Y-66302380D01*
X120180952Y-66302380D02*
X120180952Y-65302380D01*
X120085714Y-65445238D01*
X119990476Y-65540476D01*
X119895238Y-65588095D01*
X148352380Y-82966666D02*
X147876190Y-83300000D01*
X148352380Y-83538095D02*
X147352380Y-83538095D01*
X147352380Y-83157142D01*
X147400000Y-83061904D01*
X147447619Y-83014285D01*
X147542857Y-82966666D01*
X147685714Y-82966666D01*
X147780952Y-83014285D01*
X147828571Y-83061904D01*
X147876190Y-83157142D01*
X147876190Y-83538095D01*
X148352380Y-82014285D02*
X148352380Y-82585714D01*
X148352380Y-82300000D02*
X147352380Y-82300000D01*
X147495238Y-82395238D01*
X147590476Y-82490476D01*
X147638095Y-82585714D01*
X146752380Y-83016666D02*
X146276190Y-83350000D01*
X146752380Y-83588095D02*
X145752380Y-83588095D01*
X145752380Y-83207142D01*
X145800000Y-83111904D01*
X145847619Y-83064285D01*
X145942857Y-83016666D01*
X146085714Y-83016666D01*
X146180952Y-83064285D01*
X146228571Y-83111904D01*
X146276190Y-83207142D01*
X146276190Y-83588095D01*
X145847619Y-82635714D02*
X145800000Y-82588095D01*
X145752380Y-82492857D01*
X145752380Y-82254761D01*
X145800000Y-82159523D01*
X145847619Y-82111904D01*
X145942857Y-82064285D01*
X146038095Y-82064285D01*
X146180952Y-82111904D01*
X146752380Y-82683333D01*
X146752380Y-82064285D01*
X123002380Y-68316666D02*
X122526190Y-68650000D01*
X123002380Y-68888095D02*
X122002380Y-68888095D01*
X122002380Y-68507142D01*
X122050000Y-68411904D01*
X122097619Y-68364285D01*
X122192857Y-68316666D01*
X122335714Y-68316666D01*
X122430952Y-68364285D01*
X122478571Y-68411904D01*
X122526190Y-68507142D01*
X122526190Y-68888095D01*
X122002380Y-67983333D02*
X122002380Y-67364285D01*
X122383333Y-67697619D01*
X122383333Y-67554761D01*
X122430952Y-67459523D01*
X122478571Y-67411904D01*
X122573809Y-67364285D01*
X122811904Y-67364285D01*
X122907142Y-67411904D01*
X122954761Y-67459523D01*
X123002380Y-67554761D01*
X123002380Y-67840476D01*
X122954761Y-67935714D01*
X122907142Y-67983333D01*
X142752380Y-76531966D02*
X142276190Y-76865300D01*
X142752380Y-77103395D02*
X141752380Y-77103395D01*
X141752380Y-76722442D01*
X141800000Y-76627204D01*
X141847619Y-76579585D01*
X141942857Y-76531966D01*
X142085714Y-76531966D01*
X142180952Y-76579585D01*
X142228571Y-76627204D01*
X142276190Y-76722442D01*
X142276190Y-77103395D01*
X142085714Y-75674823D02*
X142752380Y-75674823D01*
X141704761Y-75912919D02*
X142419047Y-76151014D01*
X142419047Y-75531966D01*
X131282033Y-89075680D02*
X130948700Y-88599490D01*
X130710604Y-89075680D02*
X130710604Y-88075680D01*
X131091557Y-88075680D01*
X131186795Y-88123300D01*
X131234414Y-88170919D01*
X131282033Y-88266157D01*
X131282033Y-88409014D01*
X131234414Y-88504252D01*
X131186795Y-88551871D01*
X131091557Y-88599490D01*
X130710604Y-88599490D01*
X132186795Y-88075680D02*
X131710604Y-88075680D01*
X131662985Y-88551871D01*
X131710604Y-88504252D01*
X131805842Y-88456633D01*
X132043938Y-88456633D01*
X132139176Y-88504252D01*
X132186795Y-88551871D01*
X132234414Y-88647109D01*
X132234414Y-88885204D01*
X132186795Y-88980442D01*
X132139176Y-89028061D01*
X132043938Y-89075680D01*
X131805842Y-89075680D01*
X131710604Y-89028061D01*
X131662985Y-88980442D01*
X135088095Y-84796380D02*
X135659523Y-84796380D01*
X135373809Y-85796380D02*
X135373809Y-84796380D01*
X135992857Y-85796380D02*
X135992857Y-84796380D01*
X136373809Y-84796380D01*
X136469047Y-84844000D01*
X136516666Y-84891619D01*
X136564285Y-84986857D01*
X136564285Y-85129714D01*
X136516666Y-85224952D01*
X136469047Y-85272571D01*
X136373809Y-85320190D01*
X135992857Y-85320190D01*
X137516666Y-85796380D02*
X136945238Y-85796380D01*
X137230952Y-85796380D02*
X137230952Y-84796380D01*
X137135714Y-84939238D01*
X137040476Y-85034476D01*
X136945238Y-85082095D01*
X123338095Y-65202380D02*
X123909523Y-65202380D01*
X123623809Y-66202380D02*
X123623809Y-65202380D01*
X124242857Y-66202380D02*
X124242857Y-65202380D01*
X124623809Y-65202380D01*
X124719047Y-65250000D01*
X124766666Y-65297619D01*
X124814285Y-65392857D01*
X124814285Y-65535714D01*
X124766666Y-65630952D01*
X124719047Y-65678571D01*
X124623809Y-65726190D01*
X124242857Y-65726190D01*
X125195238Y-65297619D02*
X125242857Y-65250000D01*
X125338095Y-65202380D01*
X125576190Y-65202380D01*
X125671428Y-65250000D01*
X125719047Y-65297619D01*
X125766666Y-65392857D01*
X125766666Y-65488095D01*
X125719047Y-65630952D01*
X125147619Y-66202380D01*
X125766666Y-66202380D01*
X131338095Y-77802380D02*
X131909523Y-77802380D01*
X131623809Y-78802380D02*
X131623809Y-77802380D01*
X132242857Y-78802380D02*
X132242857Y-77802380D01*
X132623809Y-77802380D01*
X132719047Y-77850000D01*
X132766666Y-77897619D01*
X132814285Y-77992857D01*
X132814285Y-78135714D01*
X132766666Y-78230952D01*
X132719047Y-78278571D01*
X132623809Y-78326190D01*
X132242857Y-78326190D01*
X133147619Y-77802380D02*
X133766666Y-77802380D01*
X133433333Y-78183333D01*
X133576190Y-78183333D01*
X133671428Y-78230952D01*
X133719047Y-78278571D01*
X133766666Y-78373809D01*
X133766666Y-78611904D01*
X133719047Y-78707142D01*
X133671428Y-78754761D01*
X133576190Y-78802380D01*
X133290476Y-78802380D01*
X133195238Y-78754761D01*
X133147619Y-78707142D01*
X142909395Y-71069080D02*
X143480823Y-71069080D01*
X143195109Y-72069080D02*
X143195109Y-71069080D01*
X143814157Y-72069080D02*
X143814157Y-71069080D01*
X144195109Y-71069080D01*
X144290347Y-71116700D01*
X144337966Y-71164319D01*
X144385585Y-71259557D01*
X144385585Y-71402414D01*
X144337966Y-71497652D01*
X144290347Y-71545271D01*
X144195109Y-71592890D01*
X143814157Y-71592890D01*
X145242728Y-71402414D02*
X145242728Y-72069080D01*
X145004633Y-71021461D02*
X144766538Y-71735747D01*
X145385585Y-71735747D01*
X119088095Y-74452380D02*
X119659523Y-74452380D01*
X119373809Y-75452380D02*
X119373809Y-74452380D01*
X119992857Y-75452380D02*
X119992857Y-74452380D01*
X120373809Y-74452380D01*
X120469047Y-74500000D01*
X120516666Y-74547619D01*
X120564285Y-74642857D01*
X120564285Y-74785714D01*
X120516666Y-74880952D01*
X120469047Y-74928571D01*
X120373809Y-74976190D01*
X119992857Y-74976190D01*
X121469047Y-74452380D02*
X120992857Y-74452380D01*
X120945238Y-74928571D01*
X120992857Y-74880952D01*
X121088095Y-74833333D01*
X121326190Y-74833333D01*
X121421428Y-74880952D01*
X121469047Y-74928571D01*
X121516666Y-75023809D01*
X121516666Y-75261904D01*
X121469047Y-75357142D01*
X121421428Y-75404761D01*
X121326190Y-75452380D01*
X121088095Y-75452380D01*
X120992857Y-75404761D01*
X120945238Y-75357142D01*
X143438095Y-82552380D02*
X143438095Y-83361904D01*
X143485714Y-83457142D01*
X143533333Y-83504761D01*
X143628571Y-83552380D01*
X143819047Y-83552380D01*
X143914285Y-83504761D01*
X143961904Y-83457142D01*
X144009523Y-83361904D01*
X144009523Y-82552380D01*
X145009523Y-83552380D02*
X144438095Y-83552380D01*
X144723809Y-83552380D02*
X144723809Y-82552380D01*
X144628571Y-82695238D01*
X144533333Y-82790476D01*
X144438095Y-82838095D01*
X132087795Y-68888680D02*
X132087795Y-69698204D01*
X132135414Y-69793442D01*
X132183033Y-69841061D01*
X132278271Y-69888680D01*
X132468747Y-69888680D01*
X132563985Y-69841061D01*
X132611604Y-69793442D01*
X132659223Y-69698204D01*
X132659223Y-68888680D01*
X133087795Y-68983919D02*
X133135414Y-68936300D01*
X133230652Y-68888680D01*
X133468747Y-68888680D01*
X133563985Y-68936300D01*
X133611604Y-68983919D01*
X133659223Y-69079157D01*
X133659223Y-69174395D01*
X133611604Y-69317252D01*
X133040176Y-69888680D01*
X133659223Y-69888680D01*
X124717795Y-82490680D02*
X124717795Y-83300204D01*
X124765414Y-83395442D01*
X124813033Y-83443061D01*
X124908271Y-83490680D01*
X125098747Y-83490680D01*
X125193985Y-83443061D01*
X125241604Y-83395442D01*
X125289223Y-83300204D01*
X125289223Y-82490680D01*
X125670176Y-82490680D02*
X126289223Y-82490680D01*
X125955890Y-82871633D01*
X126098747Y-82871633D01*
X126193985Y-82919252D01*
X126241604Y-82966871D01*
X126289223Y-83062109D01*
X126289223Y-83300204D01*
X126241604Y-83395442D01*
X126193985Y-83443061D01*
X126098747Y-83490680D01*
X125813033Y-83490680D01*
X125717795Y-83443061D01*
X125670176Y-83395442D01*
M02*
