M48
; DRILL file {KiCad (5.1.4)-1} date 12/30/2019 10:40:52 AM
; FORMAT={-:-/ absolute / inch / decimal}
; #@! TF.CreationDate,2019-12-30T10:40:52-06:00
; #@! TF.GenerationSoftware,Kicad,Pcbnew,(5.1.4)-1
; #@! TF.FileFunction,Plated,1,4,PTH
FMAT,2
INCH
T1C0.0100
T2C0.0394
%
G90
G05
T1
X4.75Y-3.5
X4.76Y-2.89
X4.76Y-3.4
X4.77Y-3.33
X4.88Y-3.62
X4.92Y-2.71
X4.96Y-3.0
X5.01Y-3.62
X5.04Y-3.0
X5.13Y-3.51
X5.18Y-2.9
X5.22Y-3.39
X5.4Y-3.32
X5.4Y-3.5
X5.41Y-2.73
X5.48Y-3.19
X5.52Y-2.73
X5.53Y-3.6
X5.6Y-2.93
X5.66Y-3.19
X5.87Y-3.42
X5.89Y-3.49
T2
X4.6039Y-2.6315
X4.6039Y-2.7315
X4.6039Y-2.8315
X4.6039Y-2.9315
X4.6039Y-3.0315
X4.6039Y-3.1315
X4.6039Y-3.2315
X4.6039Y-3.3315
X4.6039Y-3.4315
X4.6039Y-3.5315
T0
M30
