G04 #@! TF.GenerationSoftware,KiCad,Pcbnew,(5.1.4)-1*
G04 #@! TF.CreationDate,2019-12-06T13:38:35-06:00*
G04 #@! TF.ProjectId,control_pcb,636f6e74-726f-46c5-9f70-63622e6b6963,rev?*
G04 #@! TF.SameCoordinates,Original*
G04 #@! TF.FileFunction,Copper,L1,Top*
G04 #@! TF.FilePolarity,Positive*
%FSLAX46Y46*%
G04 Gerber Fmt 4.6, Leading zero omitted, Abs format (unit mm)*
G04 Created by KiCad (PCBNEW (5.1.4)-1) date 2019-12-06 13:38:35*
%MOMM*%
%LPD*%
G04 APERTURE LIST*
%ADD10C,2.300000*%
%ADD11R,2.300000X4.500000*%
%ADD12R,0.750000X1.200000*%
%ADD13R,1.200000X0.750000*%
%ADD14C,1.500000*%
%ADD15O,1.700000X1.700000*%
%ADD16R,1.700000X1.700000*%
%ADD17R,0.700000X2.000000*%
%ADD18R,1.000000X2.600000*%
%ADD19R,1.500000X2.600000*%
%ADD20R,2.700000X1.400000*%
%ADD21R,1.200000X1.200000*%
%ADD22R,0.900000X1.200000*%
%ADD23R,1.200000X0.900000*%
%ADD24R,4.900000X2.000000*%
%ADD25R,0.250000X1.300000*%
%ADD26R,1.300000X0.250000*%
%ADD27R,1.168400X0.355600*%
%ADD28C,1.700000*%
%ADD29C,1.620000*%
%ADD30R,0.800000X0.550000*%
%ADD31R,0.700000X1.800000*%
%ADD32R,0.800000X1.800000*%
%ADD33R,2.000000X7.875000*%
%ADD34C,0.750000*%
%ADD35C,5.700000*%
%ADD36R,1.500000X0.450000*%
%ADD37R,1.100000X1.500000*%
%ADD38R,0.800000X0.900000*%
%ADD39C,0.508000*%
%ADD40C,1.016000*%
%ADD41C,0.347980*%
%ADD42C,0.304800*%
%ADD43C,0.508000*%
%ADD44C,0.152400*%
%ADD45C,1.270000*%
G04 APERTURE END LIST*
D10*
X87884000Y-165735000D03*
X85344000Y-163195000D03*
X90424000Y-163195000D03*
X85344000Y-168275000D03*
X90424000Y-168275000D03*
X97790000Y-168275000D03*
X97790000Y-163195000D03*
X102870000Y-168275000D03*
X102870000Y-163195000D03*
X100330000Y-165735000D03*
D11*
X100965000Y-134975000D03*
X100965000Y-118575000D03*
D12*
X131318000Y-125161000D03*
X131318000Y-127061000D03*
D13*
X116525000Y-148590000D03*
X118425000Y-148590000D03*
X118425000Y-150495000D03*
X116525000Y-150495000D03*
D12*
X125476000Y-112207000D03*
X125476000Y-114107000D03*
X101981000Y-159827000D03*
X101981000Y-157927000D03*
X98679000Y-157927000D03*
X98679000Y-159827000D03*
D14*
X144185000Y-125222000D03*
X149185000Y-125222000D03*
D15*
X133604000Y-132461000D03*
D16*
X131064000Y-132461000D03*
X138684000Y-132461000D03*
D15*
X141224000Y-132461000D03*
X143764000Y-132461000D03*
X146304000Y-132461000D03*
X154432000Y-142240000D03*
X154432000Y-139700000D03*
X154432000Y-137160000D03*
D16*
X154432000Y-134620000D03*
D17*
X126042001Y-170195001D03*
X127142001Y-170195001D03*
X128242001Y-170195001D03*
X129342001Y-170195001D03*
X130442001Y-170195001D03*
X131542001Y-170195001D03*
X132642001Y-170195001D03*
X133742001Y-170195001D03*
D18*
X123942001Y-169695001D03*
D19*
X137292001Y-169695001D03*
D20*
X132342001Y-157495001D03*
X127442001Y-157495001D03*
D21*
X135392001Y-157395001D03*
D15*
X154432000Y-114300000D03*
D16*
X154432000Y-116840000D03*
X154432000Y-124460000D03*
D15*
X154432000Y-121920000D03*
D22*
X100330000Y-157777000D03*
X100330000Y-159977000D03*
D23*
X133561000Y-114046000D03*
X131361000Y-114046000D03*
X131361000Y-112395000D03*
X133561000Y-112395000D03*
D22*
X106045000Y-142324000D03*
X106045000Y-140124000D03*
D24*
X96520000Y-155366000D03*
X96520000Y-151466000D03*
D25*
X137966000Y-137890000D03*
X138466000Y-137890000D03*
X138966000Y-137890000D03*
X139466000Y-137890000D03*
X139966000Y-137890000D03*
X140466000Y-137890000D03*
X140966000Y-137890000D03*
X141466000Y-137890000D03*
X141966000Y-137890000D03*
X142466000Y-137890000D03*
X142966000Y-137890000D03*
X143466000Y-137890000D03*
D26*
X145066000Y-139490000D03*
X145066000Y-139990000D03*
X145066000Y-140490000D03*
X145066000Y-140990000D03*
X145066000Y-141490000D03*
X145066000Y-141990000D03*
X145066000Y-142490000D03*
X145066000Y-142990000D03*
X145066000Y-143490000D03*
X145066000Y-143990000D03*
X145066000Y-144490000D03*
X145066000Y-144990000D03*
D25*
X143466000Y-146590000D03*
X142966000Y-146590000D03*
X142466000Y-146590000D03*
X141966000Y-146590000D03*
X141466000Y-146590000D03*
X140966000Y-146590000D03*
X140466000Y-146590000D03*
X139966000Y-146590000D03*
X139466000Y-146590000D03*
X138966000Y-146590000D03*
X138466000Y-146590000D03*
X137966000Y-146590000D03*
D26*
X136366000Y-144990000D03*
X136366000Y-144490000D03*
X136366000Y-143990000D03*
X136366000Y-143490000D03*
X136366000Y-142990000D03*
X136366000Y-142490000D03*
X136366000Y-141990000D03*
X136366000Y-141490000D03*
X136366000Y-140990000D03*
X136366000Y-140490000D03*
X136366000Y-139990000D03*
X136366000Y-139490000D03*
D27*
X129120900Y-124826001D03*
X129120900Y-125476000D03*
X129120900Y-126125999D03*
X127165100Y-126125999D03*
X127165100Y-125476000D03*
X127165100Y-124826001D03*
D28*
X117465000Y-153015000D03*
X107315000Y-102255000D03*
X104775000Y-102255000D03*
X99695000Y-102255000D03*
X112395000Y-102255000D03*
X109855000Y-102255000D03*
X97155000Y-102255000D03*
X117465000Y-155555000D03*
X84465000Y-150475000D03*
X84465000Y-155555000D03*
X102235000Y-102255000D03*
X92075000Y-102255000D03*
X89535000Y-102255000D03*
X84465000Y-153015000D03*
X94615000Y-102255000D03*
D29*
X129797001Y-101887001D03*
X127892001Y-101887001D03*
X125987001Y-101887001D03*
D30*
X129550000Y-114114001D03*
X129550000Y-113164001D03*
X129550000Y-112214001D03*
X127150000Y-112214001D03*
X127150000Y-114114001D03*
D31*
X109683000Y-145364000D03*
D32*
X108583000Y-145364000D03*
X107483000Y-145364000D03*
X106383000Y-145364000D03*
X105283000Y-145364000D03*
X104183000Y-145364000D03*
X103083000Y-145364000D03*
X101983000Y-145364000D03*
D31*
X100883000Y-145364000D03*
X100883000Y-154864000D03*
D32*
X101983000Y-154864000D03*
X103083000Y-154864000D03*
X104183000Y-154864000D03*
X105283000Y-154864000D03*
X106383000Y-154864000D03*
X107483000Y-154864000D03*
X108583000Y-154864000D03*
D31*
X109683000Y-154864000D03*
D33*
X125984000Y-147669500D03*
X125984000Y-135794500D03*
D34*
X76200000Y-106680000D03*
X76200000Y-162560000D03*
X153670000Y-162560000D03*
X153670000Y-106680000D03*
D35*
X77470000Y-168910000D03*
D13*
X123124000Y-116967000D03*
X121224000Y-116967000D03*
D36*
X131093000Y-117359000D03*
X131093000Y-118009000D03*
X131093000Y-118659000D03*
X131093000Y-119309000D03*
X131093000Y-119959000D03*
X131093000Y-120609000D03*
X131093000Y-121259000D03*
X131093000Y-121909000D03*
X125193000Y-121909000D03*
X125193000Y-121259000D03*
X125193000Y-120609000D03*
X125193000Y-119959000D03*
X125193000Y-119309000D03*
X125193000Y-118659000D03*
X125193000Y-118009000D03*
X125193000Y-117359000D03*
D37*
X141732000Y-164597000D03*
X144272000Y-164597000D03*
X146812000Y-164597000D03*
X146812000Y-155697000D03*
X144272000Y-155697000D03*
X141732000Y-155697000D03*
D38*
X134239000Y-107807000D03*
X133289000Y-105807000D03*
X135189000Y-105807000D03*
D23*
X135339000Y-104013000D03*
X133139000Y-104013000D03*
D39*
X129540000Y-111125000D03*
X125476000Y-110871000D03*
X131318000Y-128397000D03*
X123190000Y-105156000D03*
D40*
X109728000Y-142748000D03*
X103632000Y-157480000D03*
X99187000Y-153416000D03*
X97409000Y-161036000D03*
D39*
X119761000Y-148590000D03*
X128143000Y-168656000D03*
X130429000Y-164084000D03*
X129413000Y-157480000D03*
X136652000Y-157353000D03*
X122555000Y-169672000D03*
X138684000Y-169672000D03*
X138811000Y-136652000D03*
X147320000Y-138557000D03*
D40*
X98552000Y-118491000D03*
D39*
X134112000Y-145090402D03*
X147320000Y-148082000D03*
X127508000Y-148717000D03*
X127508000Y-134874000D03*
X123698000Y-130683000D03*
X142367000Y-124079000D03*
X133858000Y-138684000D03*
X140716000Y-150114000D03*
X146558000Y-139954000D03*
X143383000Y-147828000D03*
X137668000Y-143002000D03*
X127254000Y-118999000D03*
X128016000Y-116205000D03*
X132588000Y-117348000D03*
X140462000Y-164592000D03*
X125730000Y-125476000D03*
X137922000Y-141224000D03*
X131064000Y-140149400D03*
X124714000Y-140716000D03*
X134874000Y-141478000D03*
X124714000Y-142875000D03*
X134874000Y-142621000D03*
D40*
X144018000Y-115443000D03*
X145415000Y-115443000D03*
X103251000Y-142748000D03*
X101727000Y-142748000D03*
X96520000Y-153416000D03*
D39*
X106045000Y-141224000D03*
X130429000Y-168529000D03*
X122809000Y-165227000D03*
X138684000Y-165227000D03*
X129413000Y-159258000D03*
X138811000Y-135001000D03*
X145415000Y-138811000D03*
X135001000Y-143510000D03*
X144145000Y-146939000D03*
X122809000Y-132207000D03*
X136271000Y-138557000D03*
X139065000Y-150114000D03*
X132588000Y-116205000D03*
X131318000Y-123825000D03*
X143045000Y-161247000D03*
X134239000Y-104013000D03*
D40*
X124694599Y-110216599D03*
X135235600Y-109708600D03*
X135255000Y-121793000D03*
D39*
X142494000Y-136271000D03*
X151257000Y-136271000D03*
X141986000Y-135763000D03*
X151765000Y-135763000D03*
X141478000Y-136271000D03*
X151257000Y-135255000D03*
X140995400Y-135742678D03*
X125603000Y-166370000D03*
X127254000Y-166370000D03*
X137947410Y-151003000D03*
X136982210Y-151003000D03*
X128905000Y-166370000D03*
X131953000Y-166370000D03*
X133604000Y-166370000D03*
X139647560Y-151077560D03*
X148971000Y-151130000D03*
X148717000Y-145542000D03*
X148717000Y-141478000D03*
X135255000Y-166370000D03*
X134366000Y-159258000D03*
X149479000Y-145472600D03*
X149479000Y-143002000D03*
X149479000Y-153162000D03*
X134366000Y-153543011D03*
X139954000Y-139573000D03*
X140970000Y-147701000D03*
X136144000Y-126263400D03*
X140462000Y-145161000D03*
X132461000Y-149225000D03*
X137922000Y-149352000D03*
X107188000Y-142367000D03*
X146558000Y-140970000D03*
X149987000Y-141986000D03*
X111760000Y-145542000D03*
X148209000Y-142494000D03*
X112522000Y-145034000D03*
X139319000Y-152273000D03*
X120523000Y-151892000D03*
X121005600Y-151363678D03*
X135128000Y-151790400D03*
X122047000Y-119761000D03*
X122046550Y-118999450D03*
X126619000Y-117328598D03*
X123971402Y-120523000D03*
X132588000Y-119761000D03*
X123698000Y-122047000D03*
X141732000Y-157480000D03*
X144272000Y-157480000D03*
X146939000Y-157480000D03*
X135382000Y-108585000D03*
D41*
X87884000Y-156434000D02*
X84465000Y-153015000D01*
X87884000Y-165735000D02*
X87884000Y-156434000D01*
D42*
X129550000Y-112214001D02*
X129550000Y-111135000D01*
X129550000Y-111135000D02*
X129540000Y-111125000D01*
X125476000Y-112207000D02*
X125476000Y-110871000D01*
D43*
X131318000Y-127061000D02*
X131318000Y-128397000D01*
X109683000Y-145364000D02*
X109683000Y-142793000D01*
X109683000Y-142793000D02*
X109728000Y-142748000D01*
X103083000Y-154864000D02*
X103083000Y-156931000D01*
X103083000Y-156931000D02*
X103632000Y-157480000D01*
X100883000Y-154864000D02*
X100635000Y-154864000D01*
X100635000Y-154864000D02*
X99187000Y-153416000D01*
X98679000Y-159827000D02*
X98618000Y-159827000D01*
X98618000Y-159827000D02*
X97409000Y-161036000D01*
X118425000Y-148590000D02*
X118425000Y-150495000D01*
X118425000Y-148590000D02*
X119761000Y-148590000D01*
D44*
X128242001Y-170195001D02*
X128242001Y-168755001D01*
X128242001Y-168755001D02*
X128143000Y-168656000D01*
D42*
X127442001Y-157495001D02*
X129397999Y-157495001D01*
X129397999Y-157495001D02*
X129413000Y-157480000D01*
X135392001Y-157395001D02*
X136609999Y-157395001D01*
X136609999Y-157395001D02*
X136652000Y-157353000D01*
X123942001Y-169695001D02*
X122578001Y-169695001D01*
X122578001Y-169695001D02*
X122555000Y-169672000D01*
X137292001Y-169695001D02*
X138660999Y-169695001D01*
X138660999Y-169695001D02*
X138684000Y-169672000D01*
D43*
X100965000Y-118575000D02*
X98636000Y-118575000D01*
X98636000Y-118575000D02*
X98552000Y-118491000D01*
D44*
X138466000Y-136997000D02*
X138811000Y-136652000D01*
X138466000Y-137890000D02*
X138466000Y-136997000D01*
X145066000Y-139990000D02*
X146522000Y-139990000D01*
X146522000Y-139990000D02*
X146558000Y-139954000D01*
X142966000Y-146590000D02*
X142966000Y-147411000D01*
X142966000Y-147411000D02*
X143383000Y-147828000D01*
X136366000Y-142990000D02*
X137656000Y-142990000D01*
X137656000Y-142990000D02*
X137668000Y-143002000D01*
D42*
X131093000Y-118009000D02*
X131927000Y-118009000D01*
X131927000Y-118009000D02*
X132588000Y-117348000D01*
D44*
X146109600Y-164597000D02*
X144272000Y-164597000D01*
X146812000Y-164597000D02*
X146109600Y-164597000D01*
X144272000Y-164597000D02*
X141732000Y-164597000D01*
X141732000Y-164597000D02*
X140467000Y-164597000D01*
X140467000Y-164597000D02*
X140462000Y-164592000D01*
X127165100Y-125476000D02*
X125730000Y-125476000D01*
D41*
X100330000Y-165735000D02*
X100330000Y-159977000D01*
X101831000Y-159977000D02*
X101981000Y-159827000D01*
X100330000Y-159977000D02*
X101831000Y-159977000D01*
D42*
X104183000Y-144159200D02*
X104183000Y-145364000D01*
X104183000Y-140747800D02*
X104183000Y-144159200D01*
X100965000Y-137529800D02*
X104183000Y-140747800D01*
X100965000Y-134975000D02*
X100965000Y-137529800D01*
D44*
X137922000Y-141736400D02*
X137922000Y-141224000D01*
X136366000Y-142490000D02*
X137168400Y-142490000D01*
X137168400Y-142490000D02*
X137922000Y-141736400D01*
X131064000Y-140149400D02*
X131064000Y-132461000D01*
D42*
X125304800Y-140716000D02*
X124714000Y-140716000D01*
X125984000Y-135794500D02*
X125984000Y-140036800D01*
X125984000Y-140036800D02*
X125304800Y-140716000D01*
D44*
X136354000Y-141478000D02*
X136366000Y-141490000D01*
X134874000Y-141478000D02*
X136354000Y-141478000D01*
D42*
X125984000Y-143427200D02*
X125431800Y-142875000D01*
X125984000Y-147669500D02*
X125984000Y-143427200D01*
X125431800Y-142875000D02*
X124714000Y-142875000D01*
D44*
X135505000Y-141990000D02*
X136366000Y-141990000D01*
X134874000Y-142621000D02*
X135505000Y-141990000D01*
D43*
X131003000Y-125476000D02*
X131318000Y-125161000D01*
X129120900Y-125476000D02*
X131003000Y-125476000D01*
D45*
X144018000Y-115443000D02*
X145415000Y-115443000D01*
D43*
X103083000Y-145364000D02*
X103083000Y-142916000D01*
X103083000Y-142916000D02*
X103251000Y-142748000D01*
X101983000Y-145364000D02*
X101983000Y-143004000D01*
X101983000Y-143004000D02*
X101727000Y-142748000D01*
X96520000Y-151466000D02*
X96520000Y-153416000D01*
D42*
X106045000Y-140124000D02*
X106045000Y-141224000D01*
D44*
X130442001Y-170195001D02*
X130442001Y-168542001D01*
X130442001Y-168542001D02*
X130429000Y-168529000D01*
D42*
X145066000Y-139490000D02*
X145066000Y-139160000D01*
X145066000Y-139160000D02*
X145415000Y-138811000D01*
X136346000Y-143510000D02*
X136366000Y-143490000D01*
X135001000Y-143510000D02*
X136346000Y-143510000D01*
X143815000Y-146939000D02*
X143466000Y-146590000D01*
X144145000Y-146939000D02*
X143815000Y-146939000D01*
X137299000Y-138557000D02*
X137966000Y-137890000D01*
X136271000Y-138557000D02*
X137299000Y-138557000D01*
X131434000Y-117359000D02*
X132588000Y-116205000D01*
X131093000Y-117359000D02*
X131434000Y-117359000D01*
X131318000Y-125161000D02*
X131318000Y-123825000D01*
D44*
X135189000Y-104163000D02*
X135339000Y-104013000D01*
X135189000Y-105807000D02*
X135189000Y-104163000D01*
X135339000Y-104013000D02*
X134239000Y-104013000D01*
D42*
X125483001Y-114114001D02*
X125476000Y-114107000D01*
X127150000Y-114114001D02*
X125483001Y-114114001D01*
D45*
X116525000Y-148590000D02*
X116525000Y-150495000D01*
X116525000Y-152075000D02*
X117465000Y-153015000D01*
X116525000Y-150495000D02*
X116525000Y-152075000D01*
D43*
X125177002Y-102697000D02*
X125987001Y-101887001D01*
X124694599Y-103179403D02*
X125177002Y-102697000D01*
X125476000Y-113882000D02*
X124694599Y-113100599D01*
X125476000Y-114107000D02*
X125476000Y-113882000D01*
X124694599Y-110216599D02*
X124694599Y-103179403D01*
X124694599Y-113100599D02*
X124694599Y-110216599D01*
X135235600Y-121773600D02*
X135255000Y-121793000D01*
X135235600Y-109708600D02*
X135235600Y-121773600D01*
D41*
X101981000Y-154866000D02*
X101983000Y-154864000D01*
X101981000Y-157927000D02*
X101981000Y-154866000D01*
X98829000Y-157777000D02*
X98679000Y-157927000D01*
X100330000Y-157777000D02*
X98829000Y-157777000D01*
X97956020Y-157927000D02*
X98679000Y-157927000D01*
X97733020Y-157927000D02*
X97956020Y-157927000D01*
X96520000Y-156713980D02*
X97733020Y-157927000D01*
X96520000Y-155366000D02*
X96520000Y-156713980D01*
D44*
X144281729Y-131382399D02*
X142302601Y-131382399D01*
X144086720Y-140490000D02*
X143637000Y-140040280D01*
X145066000Y-140490000D02*
X144086720Y-140490000D01*
X143637000Y-140040280D02*
X143637000Y-139732518D01*
X143637000Y-139732518D02*
X144842601Y-138526917D01*
X142302601Y-131382399D02*
X141224000Y-132461000D01*
X144842601Y-138526917D02*
X144842601Y-131943271D01*
X144842601Y-131943271D02*
X144281729Y-131382399D01*
X143466000Y-132759000D02*
X143764000Y-132461000D01*
X143466000Y-137890000D02*
X143466000Y-132759000D01*
X142466000Y-137890000D02*
X142466000Y-136299000D01*
X142466000Y-136299000D02*
X142494000Y-136271000D01*
X151892000Y-142240000D02*
X154432000Y-142240000D01*
X151257000Y-136271000D02*
X151257000Y-141605000D01*
X151257000Y-141605000D02*
X151892000Y-142240000D01*
X141966000Y-137890000D02*
X141966000Y-135783000D01*
X141966000Y-135783000D02*
X141986000Y-135763000D01*
X151765000Y-135763000D02*
X151765000Y-139573000D01*
X151892000Y-139700000D02*
X154432000Y-139700000D01*
X151765000Y-139573000D02*
X151892000Y-139700000D01*
X141466000Y-137890000D02*
X141466000Y-136283000D01*
X141466000Y-136283000D02*
X141478000Y-136271000D01*
X151971250Y-135255000D02*
X152273000Y-135556750D01*
X151257000Y-135255000D02*
X151971250Y-135255000D01*
X152273000Y-135556750D02*
X152273000Y-136906000D01*
X152527000Y-137160000D02*
X154432000Y-137160000D01*
X152273000Y-136906000D02*
X152527000Y-137160000D01*
X140966000Y-137890000D02*
X140966000Y-135772078D01*
X140966000Y-135772078D02*
X140995400Y-135742678D01*
X126042001Y-170195001D02*
X126042001Y-166809001D01*
X126042001Y-166809001D02*
X125603000Y-166370000D01*
X127142001Y-170195001D02*
X127142001Y-166481999D01*
X127142001Y-166481999D02*
X127254000Y-166370000D01*
X139466000Y-148998750D02*
X137922000Y-150542750D01*
X139466000Y-146590000D02*
X139466000Y-148998750D01*
X137922000Y-150542750D02*
X137922000Y-150977590D01*
X137922000Y-150977590D02*
X137947410Y-151003000D01*
X127254000Y-166010790D02*
X127254000Y-166370000D01*
X136982210Y-151003000D02*
X136982210Y-151362210D01*
X136982210Y-151362210D02*
X137160000Y-151540000D01*
X137160000Y-151540000D02*
X137160000Y-157559250D01*
X137160000Y-157559250D02*
X134572250Y-160147000D01*
X134572250Y-160147000D02*
X133117790Y-160147000D01*
X133117790Y-160147000D02*
X127254000Y-166010790D01*
X129342001Y-170195001D02*
X129342001Y-166807001D01*
X129342001Y-166807001D02*
X128905000Y-166370000D01*
X138966000Y-146590000D02*
X138966000Y-149022250D01*
X138966000Y-149022250D02*
X137464810Y-150523440D01*
X128905000Y-164790856D02*
X128905000Y-166370000D01*
X137464810Y-150523440D02*
X137464810Y-157685506D01*
X137464810Y-157685506D02*
X134698507Y-160451809D01*
X134698507Y-160451809D02*
X133244046Y-160451810D01*
X133244046Y-160451810D02*
X128905000Y-164790856D01*
X131542001Y-170195001D02*
X131542001Y-166780999D01*
X131542001Y-166780999D02*
X131953000Y-166370000D01*
X139966000Y-150076620D02*
X137795000Y-152247620D01*
X131953000Y-162173922D02*
X131953000Y-166370000D01*
X139966000Y-146590000D02*
X139966000Y-150076620D01*
X137795000Y-157786382D02*
X134824764Y-160756618D01*
X134824764Y-160756618D02*
X133370304Y-160756618D01*
X137795000Y-152247620D02*
X137795000Y-157786382D01*
X133370304Y-160756618D02*
X131953000Y-162173922D01*
X132642001Y-170195001D02*
X132642001Y-167331999D01*
X132642001Y-167331999D02*
X133604000Y-166370000D01*
X133604000Y-166370000D02*
X133604000Y-166010790D01*
X133705572Y-161061428D02*
X134951021Y-161061427D01*
X133604000Y-166010790D02*
X133604000Y-161163000D01*
X133604000Y-161163000D02*
X133705572Y-161061428D01*
X134951021Y-161061427D02*
X138099810Y-157912638D01*
X138099810Y-157912638D02*
X138099810Y-156464000D01*
X138099810Y-156464000D02*
X138099810Y-152625310D01*
X138099810Y-152625310D02*
X139647560Y-151077560D01*
X148971000Y-151130000D02*
X148971000Y-145796000D01*
X148971000Y-145796000D02*
X148717000Y-145542000D01*
X145078000Y-141478000D02*
X145066000Y-141490000D01*
X148717000Y-141478000D02*
X145078000Y-141478000D01*
X133742001Y-170195001D02*
X133742001Y-167882999D01*
X133742001Y-167882999D02*
X135255000Y-166370000D01*
D42*
X134105000Y-159258000D02*
X132342001Y-157495001D01*
X134366000Y-159258000D02*
X134105000Y-159258000D01*
D44*
X145078000Y-143002000D02*
X145066000Y-142990000D01*
X149479000Y-143002000D02*
X145078000Y-143002000D01*
X149479000Y-152781000D02*
X149479000Y-153162000D01*
X149479000Y-152781000D02*
X149479000Y-145472600D01*
X134366000Y-153543011D02*
X134366000Y-159258000D01*
D45*
X154432000Y-116840000D02*
X154432000Y-121920000D01*
D44*
X139954000Y-137902000D02*
X139966000Y-137890000D01*
X139954000Y-139573000D02*
X139954000Y-137902000D01*
X140970000Y-146594000D02*
X140966000Y-146590000D01*
X140970000Y-147701000D02*
X140970000Y-146594000D01*
X140466000Y-146590000D02*
X140466000Y-145165000D01*
X140466000Y-145165000D02*
X140462000Y-145161000D01*
X133561000Y-130907670D02*
X132461000Y-132007670D01*
X132461000Y-132007670D02*
X132461000Y-149225000D01*
X137922000Y-146634000D02*
X137966000Y-146590000D01*
X137922000Y-149352000D02*
X137922000Y-146634000D01*
X133289000Y-104163000D02*
X133139000Y-104013000D01*
X133289000Y-105807000D02*
X133289000Y-104163000D01*
X133561000Y-115507482D02*
X132461000Y-114407482D01*
X133561000Y-130907670D02*
X133561000Y-115507482D01*
X133289000Y-106409400D02*
X133289000Y-105807000D01*
X132461000Y-107237400D02*
X133289000Y-106409400D01*
X132461000Y-114407482D02*
X132461000Y-107237400D01*
D42*
X131361000Y-114046000D02*
X131211000Y-114046000D01*
X130606200Y-114800800D02*
X131361000Y-114046000D01*
X129013157Y-114800800D02*
X130606200Y-114800800D01*
X127150000Y-112214001D02*
X127150000Y-112937643D01*
X127150000Y-112937643D02*
X129013157Y-114800800D01*
X130591999Y-113164001D02*
X131361000Y-112395000D01*
X129550000Y-113164001D02*
X130591999Y-113164001D01*
D43*
X131361000Y-105356000D02*
X127892001Y-101887001D01*
X131361000Y-112395000D02*
X131361000Y-105356000D01*
D42*
X106383000Y-142662000D02*
X106045000Y-142324000D01*
X106383000Y-145364000D02*
X106383000Y-142662000D01*
D44*
X106045000Y-142324000D02*
X107145000Y-142324000D01*
X107145000Y-142324000D02*
X107188000Y-142367000D01*
X145086000Y-140970000D02*
X145066000Y-140990000D01*
X146558000Y-140970000D02*
X145086000Y-140970000D01*
X145066000Y-141990000D02*
X149983000Y-141990000D01*
X149983000Y-141990000D02*
X149987000Y-141986000D01*
X108583000Y-142802830D02*
X108583000Y-145364000D01*
X111760000Y-145542000D02*
X111760000Y-145182790D01*
X111760000Y-145182790D02*
X111633000Y-145055790D01*
X111633000Y-145055790D02*
X111633000Y-143562830D01*
X110081569Y-142011399D02*
X109374431Y-142011399D01*
X111633000Y-143562830D02*
X110081569Y-142011399D01*
X109374431Y-142011399D02*
X108583000Y-142802830D01*
X145066000Y-142490000D02*
X148205000Y-142490000D01*
X148205000Y-142490000D02*
X148209000Y-142494000D01*
X107483000Y-143471764D02*
X107483000Y-145364000D01*
X112162790Y-145034000D02*
X111937810Y-144809020D01*
X111937810Y-144809020D02*
X111937810Y-143436574D01*
X111937810Y-143436574D02*
X110207826Y-141706590D01*
X110207826Y-141706590D02*
X109248175Y-141706589D01*
X112522000Y-145034000D02*
X112162790Y-145034000D01*
X109248175Y-141706589D02*
X107483000Y-143471764D01*
X139319000Y-152225250D02*
X139319000Y-152273000D01*
X141466000Y-146590000D02*
X141466000Y-150078250D01*
X141466000Y-150078250D02*
X139319000Y-152225250D01*
X120523000Y-148209000D02*
X120523000Y-151892000D01*
X117170190Y-146253190D02*
X117983000Y-147066000D01*
X117983000Y-147066000D02*
X119380000Y-147066000D01*
X119380000Y-147066000D02*
X120523000Y-148209000D01*
X118632999Y-124826001D02*
X117170190Y-126288810D01*
X127165100Y-124826001D02*
X118632999Y-124826001D01*
X117170190Y-126288810D02*
X117170190Y-146253190D01*
X119506257Y-146761191D02*
X120827810Y-148082744D01*
X117475000Y-146126934D02*
X118109256Y-146761190D01*
X118109256Y-146761190D02*
X119506257Y-146761191D01*
X120827810Y-148082744D02*
X120827810Y-151185888D01*
X120827810Y-151185888D02*
X121005600Y-151363678D01*
X135128000Y-151790400D02*
X135128000Y-145288000D01*
X135426000Y-144990000D02*
X136366000Y-144990000D01*
X135128000Y-145288000D02*
X135426000Y-144990000D01*
X125842001Y-126125999D02*
X118222001Y-126125999D01*
X125842001Y-126125999D02*
X125697486Y-126125999D01*
X127165100Y-126125999D02*
X125842001Y-126125999D01*
X117475000Y-126873000D02*
X117475000Y-145034000D01*
X118222001Y-126125999D02*
X117475000Y-126873000D01*
X117475000Y-144907000D02*
X117475000Y-145034000D01*
X117475000Y-145034000D02*
X117475000Y-146126934D01*
X128714500Y-124826001D02*
X129120900Y-124826001D01*
X129527300Y-124826001D02*
X132588000Y-121765301D01*
X129120900Y-124826001D02*
X129527300Y-124826001D01*
X132588000Y-120949000D02*
X132248000Y-120609000D01*
X132588000Y-121765301D02*
X132588000Y-120949000D01*
X131093000Y-120609000D02*
X132248000Y-120609000D01*
X128384300Y-126125999D02*
X129120900Y-126125999D01*
X128308099Y-126049798D02*
X128384300Y-126125999D01*
X130190600Y-121259000D02*
X131093000Y-121259000D01*
X128308099Y-123141501D02*
X130190600Y-121259000D01*
X128308099Y-124929901D02*
X128308099Y-123141501D01*
X128308099Y-124929901D02*
X128308099Y-126049798D01*
X128308099Y-124850666D02*
X128308099Y-124929901D01*
X123516000Y-117359000D02*
X123124000Y-116967000D01*
X125193000Y-117359000D02*
X123516000Y-117359000D01*
X121224000Y-117494400D02*
X121224000Y-116967000D01*
X122388600Y-118659000D02*
X121224000Y-117494400D01*
X125193000Y-118659000D02*
X122388600Y-118659000D01*
X125193000Y-119959000D02*
X122245000Y-119959000D01*
X122245000Y-119959000D02*
X122047000Y-119761000D01*
X125193000Y-119309000D02*
X122356100Y-119309000D01*
X122356100Y-119309000D02*
X122046550Y-118999450D01*
X126619000Y-117485400D02*
X126619000Y-117328598D01*
X125193000Y-118009000D02*
X126095400Y-118009000D01*
X126095400Y-118009000D02*
X126619000Y-117485400D01*
X125107000Y-120523000D02*
X125193000Y-120609000D01*
X123971402Y-120523000D02*
X125107000Y-120523000D01*
X131995400Y-119309000D02*
X132447400Y-119761000D01*
X131093000Y-119309000D02*
X131995400Y-119309000D01*
X132447400Y-119761000D02*
X132588000Y-119761000D01*
X125193000Y-121909000D02*
X123836000Y-121909000D01*
X123836000Y-121909000D02*
X123698000Y-122047000D01*
X131093000Y-118659000D02*
X129755750Y-118659000D01*
X129755750Y-118659000D02*
X126920750Y-115824000D01*
X113264000Y-115824000D02*
X99695000Y-102255000D01*
X126920750Y-115824000D02*
X113264000Y-115824000D01*
X112416919Y-121259000D02*
X120422000Y-121259000D01*
X94615000Y-103457081D02*
X112416919Y-121259000D01*
X94615000Y-102255000D02*
X94615000Y-103457081D01*
X125193000Y-121259000D02*
X120422000Y-121259000D01*
X120422000Y-121259000D02*
X120223000Y-121259000D01*
X145066000Y-144490000D02*
X149737468Y-144490000D01*
X141732000Y-154432000D02*
X141732000Y-155697000D01*
X142240000Y-153924000D02*
X141732000Y-154432000D01*
X149431250Y-153924000D02*
X142240000Y-153924000D01*
X149961601Y-153393649D02*
X149431250Y-153924000D01*
X149737468Y-144490000D02*
X149961601Y-144714133D01*
X149961601Y-144714133D02*
X149961601Y-153393649D01*
X141732000Y-157120790D02*
X141732000Y-155697000D01*
X141732000Y-157480000D02*
X141732000Y-157120790D01*
X145066000Y-143990000D02*
X149668534Y-143990000D01*
X150266410Y-153519906D02*
X149481316Y-154305000D01*
X149668534Y-143990000D02*
X150266411Y-144587877D01*
X150266411Y-144587877D02*
X150266410Y-153519906D01*
X149481316Y-154305000D02*
X144653000Y-154305000D01*
X144272000Y-154686000D02*
X144272000Y-155697000D01*
X144653000Y-154305000D02*
X144272000Y-154686000D01*
X144272000Y-157480000D02*
X144272000Y-155697000D01*
X147514400Y-155697000D02*
X146812000Y-155697000D01*
X148520382Y-155697000D02*
X147514400Y-155697000D01*
X150571219Y-153646163D02*
X148520382Y-155697000D01*
X150571220Y-144461622D02*
X150571219Y-153646163D01*
X149599600Y-143490000D02*
X150571220Y-144461622D01*
X145066000Y-143490000D02*
X149599600Y-143490000D01*
X146939000Y-155824000D02*
X146812000Y-155697000D01*
X146939000Y-157480000D02*
X146939000Y-155824000D01*
X134239000Y-107807000D02*
X134604000Y-107807000D01*
X134604000Y-107807000D02*
X135382000Y-108585000D01*
X133561000Y-113443600D02*
X133561000Y-112395000D01*
X133561000Y-114046000D02*
X133561000Y-113443600D01*
X133686600Y-107807000D02*
X134239000Y-107807000D01*
X133561000Y-107932600D02*
X133686600Y-107807000D01*
X133561000Y-112395000D02*
X133561000Y-107932600D01*
M02*
