G04 #@! TF.GenerationSoftware,KiCad,Pcbnew,(5.1.7)-1*
G04 #@! TF.CreationDate,2020-12-30T08:09:56-06:00*
G04 #@! TF.ProjectId,control_pcb,636f6e74-726f-46c5-9f70-63622e6b6963,3.0*
G04 #@! TF.SameCoordinates,Original*
G04 #@! TF.FileFunction,Soldermask,Top*
G04 #@! TF.FilePolarity,Negative*
%FSLAX46Y46*%
G04 Gerber Fmt 4.6, Leading zero omitted, Abs format (unit mm)*
G04 Created by KiCad (PCBNEW (5.1.7)-1) date 2020-12-30 08:09:56*
%MOMM*%
%LPD*%
G01*
G04 APERTURE LIST*
%ADD10C,0.100000*%
%ADD11R,0.250000X1.300000*%
%ADD12R,1.300000X0.250000*%
%ADD13R,0.700000X2.000000*%
%ADD14R,1.000000X2.600000*%
%ADD15R,1.500000X2.600000*%
%ADD16R,2.700000X1.400000*%
%ADD17R,1.200000X1.200000*%
%ADD18C,2.300000*%
%ADD19C,1.050000*%
%ADD20C,1.300000*%
%ADD21C,1.500000*%
%ADD22O,1.700000X1.700000*%
%ADD23R,1.700000X1.700000*%
%ADD24R,1.200000X0.900000*%
%ADD25C,1.620000*%
%ADD26C,1.830000*%
%ADD27C,3.300000*%
%ADD28R,0.800000X0.550000*%
%ADD29R,1.800000X0.700000*%
%ADD30R,1.800000X0.800000*%
%ADD31C,3.200000*%
%ADD32C,5.700000*%
%ADD33R,1.100000X1.500000*%
%ADD34R,0.800000X0.900000*%
%ADD35R,1.100000X1.100000*%
%ADD36R,1.600000X0.550000*%
%ADD37R,0.550000X1.600000*%
%ADD38R,0.650000X1.060000*%
%ADD39R,1.900000X0.400000*%
%ADD40C,2.000000*%
%ADD41R,1.060000X0.650000*%
G04 APERTURE END LIST*
D10*
G36*
X99274000Y-118161000D02*
G01*
X97474000Y-118161000D01*
X97474000Y-117461000D01*
X99274000Y-117461000D01*
X99274000Y-118161000D01*
G37*
G36*
X99274000Y-117111000D02*
G01*
X97474000Y-117111000D01*
X97474000Y-116311000D01*
X99274000Y-116311000D01*
X99274000Y-117111000D01*
G37*
G36*
X99274000Y-116011000D02*
G01*
X97474000Y-116011000D01*
X97474000Y-115211000D01*
X99274000Y-115211000D01*
X99274000Y-116011000D01*
G37*
G36*
X99274000Y-114911000D02*
G01*
X97474000Y-114911000D01*
X97474000Y-114111000D01*
X99274000Y-114111000D01*
X99274000Y-114911000D01*
G37*
G36*
X99274000Y-113811000D02*
G01*
X97474000Y-113811000D01*
X97474000Y-113011000D01*
X99274000Y-113011000D01*
X99274000Y-113811000D01*
G37*
G36*
X99274000Y-112711000D02*
G01*
X97474000Y-112711000D01*
X97474000Y-111911000D01*
X99274000Y-111911000D01*
X99274000Y-112711000D01*
G37*
G36*
X99274000Y-111611000D02*
G01*
X97474000Y-111611000D01*
X97474000Y-110811000D01*
X99274000Y-110811000D01*
X99274000Y-111611000D01*
G37*
G36*
X99274000Y-110511000D02*
G01*
X97474000Y-110511000D01*
X97474000Y-109711000D01*
X99274000Y-109711000D01*
X99274000Y-110511000D01*
G37*
G36*
X99274000Y-109361000D02*
G01*
X97474000Y-109361000D01*
X97474000Y-108661000D01*
X99274000Y-108661000D01*
X99274000Y-109361000D01*
G37*
G36*
X108774000Y-109361000D02*
G01*
X106974000Y-109361000D01*
X106974000Y-108661000D01*
X108774000Y-108661000D01*
X108774000Y-109361000D01*
G37*
G36*
X108774000Y-110511000D02*
G01*
X106974000Y-110511000D01*
X106974000Y-109711000D01*
X108774000Y-109711000D01*
X108774000Y-110511000D01*
G37*
G36*
X108774000Y-111611000D02*
G01*
X106974000Y-111611000D01*
X106974000Y-110811000D01*
X108774000Y-110811000D01*
X108774000Y-111611000D01*
G37*
G36*
X108774000Y-112711000D02*
G01*
X106974000Y-112711000D01*
X106974000Y-111911000D01*
X108774000Y-111911000D01*
X108774000Y-112711000D01*
G37*
G36*
X108774000Y-113811000D02*
G01*
X106974000Y-113811000D01*
X106974000Y-113011000D01*
X108774000Y-113011000D01*
X108774000Y-113811000D01*
G37*
G36*
X108774000Y-114911000D02*
G01*
X106974000Y-114911000D01*
X106974000Y-114111000D01*
X108774000Y-114111000D01*
X108774000Y-114911000D01*
G37*
G36*
X108774000Y-116011000D02*
G01*
X106974000Y-116011000D01*
X106974000Y-115211000D01*
X108774000Y-115211000D01*
X108774000Y-116011000D01*
G37*
G36*
X108774000Y-117111000D02*
G01*
X106974000Y-117111000D01*
X106974000Y-116311000D01*
X108774000Y-116311000D01*
X108774000Y-117111000D01*
G37*
G36*
X108774000Y-118161000D02*
G01*
X106974000Y-118161000D01*
X106974000Y-117461000D01*
X108774000Y-117461000D01*
X108774000Y-118161000D01*
G37*
D11*
X137966000Y-137890000D03*
X138466000Y-137890000D03*
X138966000Y-137890000D03*
X139466000Y-137890000D03*
X139966000Y-137890000D03*
X140466000Y-137890000D03*
X140966000Y-137890000D03*
X141466000Y-137890000D03*
X141966000Y-137890000D03*
X142466000Y-137890000D03*
X142966000Y-137890000D03*
X143466000Y-137890000D03*
D12*
X145066000Y-139490000D03*
X145066000Y-139990000D03*
X145066000Y-140490000D03*
X145066000Y-140990000D03*
X145066000Y-141490000D03*
X145066000Y-141990000D03*
X145066000Y-142490000D03*
X145066000Y-142990000D03*
X145066000Y-143490000D03*
X145066000Y-143990000D03*
X145066000Y-144490000D03*
X145066000Y-144990000D03*
D11*
X143466000Y-146590000D03*
X142966000Y-146590000D03*
X142466000Y-146590000D03*
X141966000Y-146590000D03*
X141466000Y-146590000D03*
X140966000Y-146590000D03*
X140466000Y-146590000D03*
X139966000Y-146590000D03*
X139466000Y-146590000D03*
X138966000Y-146590000D03*
X138466000Y-146590000D03*
X137966000Y-146590000D03*
D12*
X136366000Y-144990000D03*
X136366000Y-144490000D03*
X136366000Y-143990000D03*
X136366000Y-143490000D03*
X136366000Y-142990000D03*
X136366000Y-142490000D03*
X136366000Y-141990000D03*
X136366000Y-141490000D03*
X136366000Y-140990000D03*
X136366000Y-140490000D03*
X136366000Y-139990000D03*
X136366000Y-139490000D03*
D13*
X126042001Y-170195001D03*
X127142001Y-170195001D03*
X128242001Y-170195001D03*
X129342001Y-170195001D03*
X130442001Y-170195001D03*
X131542001Y-170195001D03*
X132642001Y-170195001D03*
X133742001Y-170195001D03*
D14*
X123942001Y-169695001D03*
D15*
X137292001Y-169695001D03*
D16*
X132342001Y-157495001D03*
X127442001Y-157495001D03*
D17*
X135392001Y-157395001D03*
G36*
G01*
X129409000Y-155530000D02*
X128909000Y-155530000D01*
G75*
G02*
X128684000Y-155305000I0J225000D01*
G01*
X128684000Y-154855000D01*
G75*
G02*
X128909000Y-154630000I225000J0D01*
G01*
X129409000Y-154630000D01*
G75*
G02*
X129634000Y-154855000I0J-225000D01*
G01*
X129634000Y-155305000D01*
G75*
G02*
X129409000Y-155530000I-225000J0D01*
G01*
G37*
G36*
G01*
X129409000Y-153980000D02*
X128909000Y-153980000D01*
G75*
G02*
X128684000Y-153755000I0J225000D01*
G01*
X128684000Y-153305000D01*
G75*
G02*
X128909000Y-153080000I225000J0D01*
G01*
X129409000Y-153080000D01*
G75*
G02*
X129634000Y-153305000I0J-225000D01*
G01*
X129634000Y-153755000D01*
G75*
G02*
X129409000Y-153980000I-225000J0D01*
G01*
G37*
G36*
G01*
X124608000Y-153753000D02*
X124058000Y-153753000D01*
G75*
G02*
X123858000Y-153553000I0J200000D01*
G01*
X123858000Y-153153000D01*
G75*
G02*
X124058000Y-152953000I200000J0D01*
G01*
X124608000Y-152953000D01*
G75*
G02*
X124808000Y-153153000I0J-200000D01*
G01*
X124808000Y-153553000D01*
G75*
G02*
X124608000Y-153753000I-200000J0D01*
G01*
G37*
G36*
G01*
X124608000Y-155403000D02*
X124058000Y-155403000D01*
G75*
G02*
X123858000Y-155203000I0J200000D01*
G01*
X123858000Y-154803000D01*
G75*
G02*
X124058000Y-154603000I200000J0D01*
G01*
X124608000Y-154603000D01*
G75*
G02*
X124808000Y-154803000I0J-200000D01*
G01*
X124808000Y-155203000D01*
G75*
G02*
X124608000Y-155403000I-200000J0D01*
G01*
G37*
G36*
G01*
X127910000Y-153753000D02*
X127360000Y-153753000D01*
G75*
G02*
X127160000Y-153553000I0J200000D01*
G01*
X127160000Y-153153000D01*
G75*
G02*
X127360000Y-152953000I200000J0D01*
G01*
X127910000Y-152953000D01*
G75*
G02*
X128110000Y-153153000I0J-200000D01*
G01*
X128110000Y-153553000D01*
G75*
G02*
X127910000Y-153753000I-200000J0D01*
G01*
G37*
G36*
G01*
X127910000Y-155403000D02*
X127360000Y-155403000D01*
G75*
G02*
X127160000Y-155203000I0J200000D01*
G01*
X127160000Y-154803000D01*
G75*
G02*
X127360000Y-154603000I200000J0D01*
G01*
X127910000Y-154603000D01*
G75*
G02*
X128110000Y-154803000I0J-200000D01*
G01*
X128110000Y-155203000D01*
G75*
G02*
X127910000Y-155403000I-200000J0D01*
G01*
G37*
G36*
G01*
X130958000Y-153753000D02*
X130408000Y-153753000D01*
G75*
G02*
X130208000Y-153553000I0J200000D01*
G01*
X130208000Y-153153000D01*
G75*
G02*
X130408000Y-152953000I200000J0D01*
G01*
X130958000Y-152953000D01*
G75*
G02*
X131158000Y-153153000I0J-200000D01*
G01*
X131158000Y-153553000D01*
G75*
G02*
X130958000Y-153753000I-200000J0D01*
G01*
G37*
G36*
G01*
X130958000Y-155403000D02*
X130408000Y-155403000D01*
G75*
G02*
X130208000Y-155203000I0J200000D01*
G01*
X130208000Y-154803000D01*
G75*
G02*
X130408000Y-154603000I200000J0D01*
G01*
X130958000Y-154603000D01*
G75*
G02*
X131158000Y-154803000I0J-200000D01*
G01*
X131158000Y-155203000D01*
G75*
G02*
X130958000Y-155403000I-200000J0D01*
G01*
G37*
G36*
G01*
X132609000Y-155403000D02*
X132059000Y-155403000D01*
G75*
G02*
X131859000Y-155203000I0J200000D01*
G01*
X131859000Y-154803000D01*
G75*
G02*
X132059000Y-154603000I200000J0D01*
G01*
X132609000Y-154603000D01*
G75*
G02*
X132809000Y-154803000I0J-200000D01*
G01*
X132809000Y-155203000D01*
G75*
G02*
X132609000Y-155403000I-200000J0D01*
G01*
G37*
G36*
G01*
X132609000Y-153753000D02*
X132059000Y-153753000D01*
G75*
G02*
X131859000Y-153553000I0J200000D01*
G01*
X131859000Y-153153000D01*
G75*
G02*
X132059000Y-152953000I200000J0D01*
G01*
X132609000Y-152953000D01*
G75*
G02*
X132809000Y-153153000I0J-200000D01*
G01*
X132809000Y-153553000D01*
G75*
G02*
X132609000Y-153753000I-200000J0D01*
G01*
G37*
G36*
G01*
X126259000Y-155403000D02*
X125709000Y-155403000D01*
G75*
G02*
X125509000Y-155203000I0J200000D01*
G01*
X125509000Y-154803000D01*
G75*
G02*
X125709000Y-154603000I200000J0D01*
G01*
X126259000Y-154603000D01*
G75*
G02*
X126459000Y-154803000I0J-200000D01*
G01*
X126459000Y-155203000D01*
G75*
G02*
X126259000Y-155403000I-200000J0D01*
G01*
G37*
G36*
G01*
X126259000Y-153753000D02*
X125709000Y-153753000D01*
G75*
G02*
X125509000Y-153553000I0J200000D01*
G01*
X125509000Y-153153000D01*
G75*
G02*
X125709000Y-152953000I200000J0D01*
G01*
X126259000Y-152953000D01*
G75*
G02*
X126459000Y-153153000I0J-200000D01*
G01*
X126459000Y-153553000D01*
G75*
G02*
X126259000Y-153753000I-200000J0D01*
G01*
G37*
G36*
G01*
X134260000Y-155403000D02*
X133710000Y-155403000D01*
G75*
G02*
X133510000Y-155203000I0J200000D01*
G01*
X133510000Y-154803000D01*
G75*
G02*
X133710000Y-154603000I200000J0D01*
G01*
X134260000Y-154603000D01*
G75*
G02*
X134460000Y-154803000I0J-200000D01*
G01*
X134460000Y-155203000D01*
G75*
G02*
X134260000Y-155403000I-200000J0D01*
G01*
G37*
G36*
G01*
X134260000Y-153753000D02*
X133710000Y-153753000D01*
G75*
G02*
X133510000Y-153553000I0J200000D01*
G01*
X133510000Y-153153000D01*
G75*
G02*
X133710000Y-152953000I200000J0D01*
G01*
X134260000Y-152953000D01*
G75*
G02*
X134460000Y-153153000I0J-200000D01*
G01*
X134460000Y-153553000D01*
G75*
G02*
X134260000Y-153753000I-200000J0D01*
G01*
G37*
G36*
G01*
X133837000Y-139745000D02*
X134387000Y-139745000D01*
G75*
G02*
X134587000Y-139945000I0J-200000D01*
G01*
X134587000Y-140345000D01*
G75*
G02*
X134387000Y-140545000I-200000J0D01*
G01*
X133837000Y-140545000D01*
G75*
G02*
X133637000Y-140345000I0J200000D01*
G01*
X133637000Y-139945000D01*
G75*
G02*
X133837000Y-139745000I200000J0D01*
G01*
G37*
G36*
G01*
X133837000Y-141395000D02*
X134387000Y-141395000D01*
G75*
G02*
X134587000Y-141595000I0J-200000D01*
G01*
X134587000Y-141995000D01*
G75*
G02*
X134387000Y-142195000I-200000J0D01*
G01*
X133837000Y-142195000D01*
G75*
G02*
X133637000Y-141995000I0J200000D01*
G01*
X133637000Y-141595000D01*
G75*
G02*
X133837000Y-141395000I200000J0D01*
G01*
G37*
G36*
G01*
X130485000Y-124718000D02*
X130485000Y-125218000D01*
G75*
G02*
X130260000Y-125443000I-225000J0D01*
G01*
X129810000Y-125443000D01*
G75*
G02*
X129585000Y-125218000I0J225000D01*
G01*
X129585000Y-124718000D01*
G75*
G02*
X129810000Y-124493000I225000J0D01*
G01*
X130260000Y-124493000D01*
G75*
G02*
X130485000Y-124718000I0J-225000D01*
G01*
G37*
G36*
G01*
X132035000Y-124718000D02*
X132035000Y-125218000D01*
G75*
G02*
X131810000Y-125443000I-225000J0D01*
G01*
X131360000Y-125443000D01*
G75*
G02*
X131135000Y-125218000I0J225000D01*
G01*
X131135000Y-124718000D01*
G75*
G02*
X131360000Y-124493000I225000J0D01*
G01*
X131810000Y-124493000D01*
G75*
G02*
X132035000Y-124718000I0J-225000D01*
G01*
G37*
G36*
G01*
X149307000Y-138434000D02*
X149307000Y-138934000D01*
G75*
G02*
X149082000Y-139159000I-225000J0D01*
G01*
X148632000Y-139159000D01*
G75*
G02*
X148407000Y-138934000I0J225000D01*
G01*
X148407000Y-138434000D01*
G75*
G02*
X148632000Y-138209000I225000J0D01*
G01*
X149082000Y-138209000D01*
G75*
G02*
X149307000Y-138434000I0J-225000D01*
G01*
G37*
G36*
G01*
X147757000Y-138434000D02*
X147757000Y-138934000D01*
G75*
G02*
X147532000Y-139159000I-225000J0D01*
G01*
X147082000Y-139159000D01*
G75*
G02*
X146857000Y-138934000I0J225000D01*
G01*
X146857000Y-138434000D01*
G75*
G02*
X147082000Y-138209000I225000J0D01*
G01*
X147532000Y-138209000D01*
G75*
G02*
X147757000Y-138434000I0J-225000D01*
G01*
G37*
G36*
G01*
X137266000Y-153588000D02*
X137816000Y-153588000D01*
G75*
G02*
X138016000Y-153788000I0J-200000D01*
G01*
X138016000Y-154188000D01*
G75*
G02*
X137816000Y-154388000I-200000J0D01*
G01*
X137266000Y-154388000D01*
G75*
G02*
X137066000Y-154188000I0J200000D01*
G01*
X137066000Y-153788000D01*
G75*
G02*
X137266000Y-153588000I200000J0D01*
G01*
G37*
G36*
G01*
X137266000Y-155238000D02*
X137816000Y-155238000D01*
G75*
G02*
X138016000Y-155438000I0J-200000D01*
G01*
X138016000Y-155838000D01*
G75*
G02*
X137816000Y-156038000I-200000J0D01*
G01*
X137266000Y-156038000D01*
G75*
G02*
X137066000Y-155838000I0J200000D01*
G01*
X137066000Y-155438000D01*
G75*
G02*
X137266000Y-155238000I200000J0D01*
G01*
G37*
D18*
X84963000Y-105918000D03*
X90043000Y-105918000D03*
X84963000Y-110998000D03*
X90043000Y-110998000D03*
X87503000Y-108458000D03*
D19*
X86868000Y-144695000D03*
D20*
X86868000Y-137245000D03*
D21*
X144185000Y-125222000D03*
X149185000Y-125222000D03*
D22*
X133604000Y-129413000D03*
D23*
X131064000Y-129413000D03*
X138684000Y-129540000D03*
D22*
X141224000Y-129540000D03*
X143764000Y-129540000D03*
X146304000Y-129540000D03*
X154432000Y-142240000D03*
X154432000Y-139700000D03*
X154432000Y-137160000D03*
D23*
X154432000Y-134620000D03*
D24*
X95461000Y-108458000D03*
X93261000Y-108458000D03*
D25*
X129797001Y-101887001D03*
X127892001Y-101887001D03*
X125987001Y-101887001D03*
D26*
X125352001Y-99347001D03*
X130432001Y-99347001D03*
D27*
X127892001Y-106967001D03*
D28*
X129550000Y-114114001D03*
X129550000Y-113164001D03*
X129550000Y-112214001D03*
X127150000Y-112214001D03*
X127150000Y-114114001D03*
D29*
X107874000Y-117811000D03*
D30*
X107874000Y-116711000D03*
X107874000Y-115611000D03*
X107874000Y-114511000D03*
X107874000Y-113411000D03*
X107874000Y-112311000D03*
X107874000Y-111211000D03*
X107874000Y-110111000D03*
D29*
X107874000Y-109011000D03*
X98374000Y-109011000D03*
D30*
X98374000Y-110111000D03*
X98374000Y-111211000D03*
X98374000Y-112311000D03*
X98374000Y-113411000D03*
X98374000Y-114511000D03*
X98374000Y-115611000D03*
X98374000Y-116711000D03*
D29*
X98374000Y-117811000D03*
D31*
X77470000Y-100330000D03*
X152400000Y-100330000D03*
X152400000Y-168910000D03*
D32*
X77470000Y-168910000D03*
D33*
X141732000Y-164597000D03*
X144272000Y-164597000D03*
X146812000Y-164597000D03*
X146812000Y-155697000D03*
X144272000Y-155697000D03*
X141732000Y-155697000D03*
D34*
X134239000Y-107807000D03*
X133289000Y-105807000D03*
X135189000Y-105807000D03*
G36*
G01*
X108489000Y-133093750D02*
X108489000Y-133606250D01*
G75*
G02*
X108270250Y-133825000I-218750J0D01*
G01*
X107832750Y-133825000D01*
G75*
G02*
X107614000Y-133606250I0J218750D01*
G01*
X107614000Y-133093750D01*
G75*
G02*
X107832750Y-132875000I218750J0D01*
G01*
X108270250Y-132875000D01*
G75*
G02*
X108489000Y-133093750I0J-218750D01*
G01*
G37*
G36*
G01*
X110064000Y-133093750D02*
X110064000Y-133606250D01*
G75*
G02*
X109845250Y-133825000I-218750J0D01*
G01*
X109407750Y-133825000D01*
G75*
G02*
X109189000Y-133606250I0J218750D01*
G01*
X109189000Y-133093750D01*
G75*
G02*
X109407750Y-132875000I218750J0D01*
G01*
X109845250Y-132875000D01*
G75*
G02*
X110064000Y-133093750I0J-218750D01*
G01*
G37*
G36*
G01*
X122092000Y-135511250D02*
X122092000Y-134998750D01*
G75*
G02*
X122310750Y-134780000I218750J0D01*
G01*
X122748250Y-134780000D01*
G75*
G02*
X122967000Y-134998750I0J-218750D01*
G01*
X122967000Y-135511250D01*
G75*
G02*
X122748250Y-135730000I-218750J0D01*
G01*
X122310750Y-135730000D01*
G75*
G02*
X122092000Y-135511250I0J218750D01*
G01*
G37*
G36*
G01*
X123667000Y-135511250D02*
X123667000Y-134998750D01*
G75*
G02*
X123885750Y-134780000I218750J0D01*
G01*
X124323250Y-134780000D01*
G75*
G02*
X124542000Y-134998750I0J-218750D01*
G01*
X124542000Y-135511250D01*
G75*
G02*
X124323250Y-135730000I-218750J0D01*
G01*
X123885750Y-135730000D01*
G75*
G02*
X123667000Y-135511250I0J218750D01*
G01*
G37*
G36*
G01*
X108489000Y-131315750D02*
X108489000Y-131828250D01*
G75*
G02*
X108270250Y-132047000I-218750J0D01*
G01*
X107832750Y-132047000D01*
G75*
G02*
X107614000Y-131828250I0J218750D01*
G01*
X107614000Y-131315750D01*
G75*
G02*
X107832750Y-131097000I218750J0D01*
G01*
X108270250Y-131097000D01*
G75*
G02*
X108489000Y-131315750I0J-218750D01*
G01*
G37*
G36*
G01*
X110064000Y-131315750D02*
X110064000Y-131828250D01*
G75*
G02*
X109845250Y-132047000I-218750J0D01*
G01*
X109407750Y-132047000D01*
G75*
G02*
X109189000Y-131828250I0J218750D01*
G01*
X109189000Y-131315750D01*
G75*
G02*
X109407750Y-131097000I218750J0D01*
G01*
X109845250Y-131097000D01*
G75*
G02*
X110064000Y-131315750I0J-218750D01*
G01*
G37*
G36*
G01*
X123667000Y-133606250D02*
X123667000Y-133093750D01*
G75*
G02*
X123885750Y-132875000I218750J0D01*
G01*
X124323250Y-132875000D01*
G75*
G02*
X124542000Y-133093750I0J-218750D01*
G01*
X124542000Y-133606250D01*
G75*
G02*
X124323250Y-133825000I-218750J0D01*
G01*
X123885750Y-133825000D01*
G75*
G02*
X123667000Y-133606250I0J218750D01*
G01*
G37*
G36*
G01*
X122092000Y-133606250D02*
X122092000Y-133093750D01*
G75*
G02*
X122310750Y-132875000I218750J0D01*
G01*
X122748250Y-132875000D01*
G75*
G02*
X122967000Y-133093750I0J-218750D01*
G01*
X122967000Y-133606250D01*
G75*
G02*
X122748250Y-133825000I-218750J0D01*
G01*
X122310750Y-133825000D01*
G75*
G02*
X122092000Y-133606250I0J218750D01*
G01*
G37*
G36*
G01*
X105238000Y-158874750D02*
X105238000Y-159387250D01*
G75*
G02*
X105019250Y-159606000I-218750J0D01*
G01*
X104581750Y-159606000D01*
G75*
G02*
X104363000Y-159387250I0J218750D01*
G01*
X104363000Y-158874750D01*
G75*
G02*
X104581750Y-158656000I218750J0D01*
G01*
X105019250Y-158656000D01*
G75*
G02*
X105238000Y-158874750I0J-218750D01*
G01*
G37*
G36*
G01*
X103663000Y-158874750D02*
X103663000Y-159387250D01*
G75*
G02*
X103444250Y-159606000I-218750J0D01*
G01*
X103006750Y-159606000D01*
G75*
G02*
X102788000Y-159387250I0J218750D01*
G01*
X102788000Y-158874750D01*
G75*
G02*
X103006750Y-158656000I218750J0D01*
G01*
X103444250Y-158656000D01*
G75*
G02*
X103663000Y-158874750I0J-218750D01*
G01*
G37*
G36*
G01*
X119095000Y-162435250D02*
X119095000Y-161922750D01*
G75*
G02*
X119313750Y-161704000I218750J0D01*
G01*
X119751250Y-161704000D01*
G75*
G02*
X119970000Y-161922750I0J-218750D01*
G01*
X119970000Y-162435250D01*
G75*
G02*
X119751250Y-162654000I-218750J0D01*
G01*
X119313750Y-162654000D01*
G75*
G02*
X119095000Y-162435250I0J218750D01*
G01*
G37*
G36*
G01*
X117520000Y-162435250D02*
X117520000Y-161922750D01*
G75*
G02*
X117738750Y-161704000I218750J0D01*
G01*
X118176250Y-161704000D01*
G75*
G02*
X118395000Y-161922750I0J-218750D01*
G01*
X118395000Y-162435250D01*
G75*
G02*
X118176250Y-162654000I-218750J0D01*
G01*
X117738750Y-162654000D01*
G75*
G02*
X117520000Y-162435250I0J218750D01*
G01*
G37*
G36*
G01*
X105238000Y-160525750D02*
X105238000Y-161038250D01*
G75*
G02*
X105019250Y-161257000I-218750J0D01*
G01*
X104581750Y-161257000D01*
G75*
G02*
X104363000Y-161038250I0J218750D01*
G01*
X104363000Y-160525750D01*
G75*
G02*
X104581750Y-160307000I218750J0D01*
G01*
X105019250Y-160307000D01*
G75*
G02*
X105238000Y-160525750I0J-218750D01*
G01*
G37*
G36*
G01*
X103663000Y-160525750D02*
X103663000Y-161038250D01*
G75*
G02*
X103444250Y-161257000I-218750J0D01*
G01*
X103006750Y-161257000D01*
G75*
G02*
X102788000Y-161038250I0J218750D01*
G01*
X102788000Y-160525750D01*
G75*
G02*
X103006750Y-160307000I218750J0D01*
G01*
X103444250Y-160307000D01*
G75*
G02*
X103663000Y-160525750I0J-218750D01*
G01*
G37*
G36*
G01*
X117520000Y-160657250D02*
X117520000Y-160144750D01*
G75*
G02*
X117738750Y-159926000I218750J0D01*
G01*
X118176250Y-159926000D01*
G75*
G02*
X118395000Y-160144750I0J-218750D01*
G01*
X118395000Y-160657250D01*
G75*
G02*
X118176250Y-160876000I-218750J0D01*
G01*
X117738750Y-160876000D01*
G75*
G02*
X117520000Y-160657250I0J218750D01*
G01*
G37*
G36*
G01*
X119095000Y-160657250D02*
X119095000Y-160144750D01*
G75*
G02*
X119313750Y-159926000I218750J0D01*
G01*
X119751250Y-159926000D01*
G75*
G02*
X119970000Y-160144750I0J-218750D01*
G01*
X119970000Y-160657250D01*
G75*
G02*
X119751250Y-160876000I-218750J0D01*
G01*
X119313750Y-160876000D01*
G75*
G02*
X119095000Y-160657250I0J218750D01*
G01*
G37*
G36*
G01*
X129007550Y-118590000D02*
X129920050Y-118590000D01*
G75*
G02*
X130163800Y-118833750I0J-243750D01*
G01*
X130163800Y-119321250D01*
G75*
G02*
X129920050Y-119565000I-243750J0D01*
G01*
X129007550Y-119565000D01*
G75*
G02*
X128763800Y-119321250I0J243750D01*
G01*
X128763800Y-118833750D01*
G75*
G02*
X129007550Y-118590000I243750J0D01*
G01*
G37*
G36*
G01*
X129007550Y-120465000D02*
X129920050Y-120465000D01*
G75*
G02*
X130163800Y-120708750I0J-243750D01*
G01*
X130163800Y-121196250D01*
G75*
G02*
X129920050Y-121440000I-243750J0D01*
G01*
X129007550Y-121440000D01*
G75*
G02*
X128763800Y-121196250I0J243750D01*
G01*
X128763800Y-120708750D01*
G75*
G02*
X129007550Y-120465000I243750J0D01*
G01*
G37*
G36*
G01*
X125915000Y-122733750D02*
X125915000Y-123646250D01*
G75*
G02*
X125671250Y-123890000I-243750J0D01*
G01*
X125183750Y-123890000D01*
G75*
G02*
X124940000Y-123646250I0J243750D01*
G01*
X124940000Y-122733750D01*
G75*
G02*
X125183750Y-122490000I243750J0D01*
G01*
X125671250Y-122490000D01*
G75*
G02*
X125915000Y-122733750I0J-243750D01*
G01*
G37*
G36*
G01*
X127790000Y-122733750D02*
X127790000Y-123646250D01*
G75*
G02*
X127546250Y-123890000I-243750J0D01*
G01*
X127058750Y-123890000D01*
G75*
G02*
X126815000Y-123646250I0J243750D01*
G01*
X126815000Y-122733750D01*
G75*
G02*
X127058750Y-122490000I243750J0D01*
G01*
X127546250Y-122490000D01*
G75*
G02*
X127790000Y-122733750I0J-243750D01*
G01*
G37*
G36*
G01*
X127590000Y-124838750D02*
X127590000Y-125351250D01*
G75*
G02*
X127371250Y-125570000I-218750J0D01*
G01*
X126933750Y-125570000D01*
G75*
G02*
X126715000Y-125351250I0J218750D01*
G01*
X126715000Y-124838750D01*
G75*
G02*
X126933750Y-124620000I218750J0D01*
G01*
X127371250Y-124620000D01*
G75*
G02*
X127590000Y-124838750I0J-218750D01*
G01*
G37*
G36*
G01*
X126015000Y-124838750D02*
X126015000Y-125351250D01*
G75*
G02*
X125796250Y-125570000I-218750J0D01*
G01*
X125358750Y-125570000D01*
G75*
G02*
X125140000Y-125351250I0J218750D01*
G01*
X125140000Y-124838750D01*
G75*
G02*
X125358750Y-124620000I218750J0D01*
G01*
X125796250Y-124620000D01*
G75*
G02*
X126015000Y-124838750I0J-218750D01*
G01*
G37*
G36*
G01*
X134562000Y-149046250D02*
X134562000Y-148133750D01*
G75*
G02*
X134805750Y-147890000I243750J0D01*
G01*
X135293250Y-147890000D01*
G75*
G02*
X135537000Y-148133750I0J-243750D01*
G01*
X135537000Y-149046250D01*
G75*
G02*
X135293250Y-149290000I-243750J0D01*
G01*
X134805750Y-149290000D01*
G75*
G02*
X134562000Y-149046250I0J243750D01*
G01*
G37*
G36*
G01*
X132687000Y-149046250D02*
X132687000Y-148133750D01*
G75*
G02*
X132930750Y-147890000I243750J0D01*
G01*
X133418250Y-147890000D01*
G75*
G02*
X133662000Y-148133750I0J-243750D01*
G01*
X133662000Y-149046250D01*
G75*
G02*
X133418250Y-149290000I-243750J0D01*
G01*
X132930750Y-149290000D01*
G75*
G02*
X132687000Y-149046250I0J243750D01*
G01*
G37*
G36*
G01*
X134562000Y-151332250D02*
X134562000Y-150419750D01*
G75*
G02*
X134805750Y-150176000I243750J0D01*
G01*
X135293250Y-150176000D01*
G75*
G02*
X135537000Y-150419750I0J-243750D01*
G01*
X135537000Y-151332250D01*
G75*
G02*
X135293250Y-151576000I-243750J0D01*
G01*
X134805750Y-151576000D01*
G75*
G02*
X134562000Y-151332250I0J243750D01*
G01*
G37*
G36*
G01*
X132687000Y-151332250D02*
X132687000Y-150419750D01*
G75*
G02*
X132930750Y-150176000I243750J0D01*
G01*
X133418250Y-150176000D01*
G75*
G02*
X133662000Y-150419750I0J-243750D01*
G01*
X133662000Y-151332250D01*
G75*
G02*
X133418250Y-151576000I-243750J0D01*
G01*
X132930750Y-151576000D01*
G75*
G02*
X132687000Y-151332250I0J243750D01*
G01*
G37*
G36*
G01*
X138783000Y-101040250D02*
X138783000Y-100127750D01*
G75*
G02*
X139026750Y-99884000I243750J0D01*
G01*
X139514250Y-99884000D01*
G75*
G02*
X139758000Y-100127750I0J-243750D01*
G01*
X139758000Y-101040250D01*
G75*
G02*
X139514250Y-101284000I-243750J0D01*
G01*
X139026750Y-101284000D01*
G75*
G02*
X138783000Y-101040250I0J243750D01*
G01*
G37*
G36*
G01*
X140658000Y-101040250D02*
X140658000Y-100127750D01*
G75*
G02*
X140901750Y-99884000I243750J0D01*
G01*
X141389250Y-99884000D01*
G75*
G02*
X141633000Y-100127750I0J-243750D01*
G01*
X141633000Y-101040250D01*
G75*
G02*
X141389250Y-101284000I-243750J0D01*
G01*
X140901750Y-101284000D01*
G75*
G02*
X140658000Y-101040250I0J243750D01*
G01*
G37*
G36*
G01*
X111835250Y-143314000D02*
X110922750Y-143314000D01*
G75*
G02*
X110679000Y-143070250I0J243750D01*
G01*
X110679000Y-142582750D01*
G75*
G02*
X110922750Y-142339000I243750J0D01*
G01*
X111835250Y-142339000D01*
G75*
G02*
X112079000Y-142582750I0J-243750D01*
G01*
X112079000Y-143070250D01*
G75*
G02*
X111835250Y-143314000I-243750J0D01*
G01*
G37*
G36*
G01*
X111835250Y-145189000D02*
X110922750Y-145189000D01*
G75*
G02*
X110679000Y-144945250I0J243750D01*
G01*
X110679000Y-144457750D01*
G75*
G02*
X110922750Y-144214000I243750J0D01*
G01*
X111835250Y-144214000D01*
G75*
G02*
X112079000Y-144457750I0J-243750D01*
G01*
X112079000Y-144945250D01*
G75*
G02*
X111835250Y-145189000I-243750J0D01*
G01*
G37*
G36*
G01*
X114248250Y-145189000D02*
X113335750Y-145189000D01*
G75*
G02*
X113092000Y-144945250I0J243750D01*
G01*
X113092000Y-144457750D01*
G75*
G02*
X113335750Y-144214000I243750J0D01*
G01*
X114248250Y-144214000D01*
G75*
G02*
X114492000Y-144457750I0J-243750D01*
G01*
X114492000Y-144945250D01*
G75*
G02*
X114248250Y-145189000I-243750J0D01*
G01*
G37*
G36*
G01*
X114248250Y-143314000D02*
X113335750Y-143314000D01*
G75*
G02*
X113092000Y-143070250I0J243750D01*
G01*
X113092000Y-142582750D01*
G75*
G02*
X113335750Y-142339000I243750J0D01*
G01*
X114248250Y-142339000D01*
G75*
G02*
X114492000Y-142582750I0J-243750D01*
G01*
X114492000Y-143070250D01*
G75*
G02*
X114248250Y-143314000I-243750J0D01*
G01*
G37*
G36*
G01*
X105438000Y-154864750D02*
X105438000Y-155777250D01*
G75*
G02*
X105194250Y-156021000I-243750J0D01*
G01*
X104706750Y-156021000D01*
G75*
G02*
X104463000Y-155777250I0J243750D01*
G01*
X104463000Y-154864750D01*
G75*
G02*
X104706750Y-154621000I243750J0D01*
G01*
X105194250Y-154621000D01*
G75*
G02*
X105438000Y-154864750I0J-243750D01*
G01*
G37*
G36*
G01*
X103563000Y-154864750D02*
X103563000Y-155777250D01*
G75*
G02*
X103319250Y-156021000I-243750J0D01*
G01*
X102831750Y-156021000D01*
G75*
G02*
X102588000Y-155777250I0J243750D01*
G01*
X102588000Y-154864750D01*
G75*
G02*
X102831750Y-154621000I243750J0D01*
G01*
X103319250Y-154621000D01*
G75*
G02*
X103563000Y-154864750I0J-243750D01*
G01*
G37*
G36*
G01*
X108740000Y-167945750D02*
X108740000Y-168858250D01*
G75*
G02*
X108496250Y-169102000I-243750J0D01*
G01*
X108008750Y-169102000D01*
G75*
G02*
X107765000Y-168858250I0J243750D01*
G01*
X107765000Y-167945750D01*
G75*
G02*
X108008750Y-167702000I243750J0D01*
G01*
X108496250Y-167702000D01*
G75*
G02*
X108740000Y-167945750I0J-243750D01*
G01*
G37*
G36*
G01*
X106865000Y-167945750D02*
X106865000Y-168858250D01*
G75*
G02*
X106621250Y-169102000I-243750J0D01*
G01*
X106133750Y-169102000D01*
G75*
G02*
X105890000Y-168858250I0J243750D01*
G01*
X105890000Y-167945750D01*
G75*
G02*
X106133750Y-167702000I243750J0D01*
G01*
X106621250Y-167702000D01*
G75*
G02*
X106865000Y-167945750I0J-243750D01*
G01*
G37*
D35*
X131927600Y-118615000D03*
X131927600Y-121415000D03*
D23*
X122555000Y-140843000D03*
D22*
X122555000Y-143383000D03*
X120015000Y-140843000D03*
X120015000Y-143383000D03*
X117475000Y-140843000D03*
X117475000Y-143383000D03*
X112522000Y-170307000D03*
X112522000Y-167767000D03*
X115062000Y-170307000D03*
X115062000Y-167767000D03*
X117602000Y-170307000D03*
D23*
X117602000Y-167767000D03*
G36*
G01*
X138347000Y-149119000D02*
X138347000Y-148569000D01*
G75*
G02*
X138547000Y-148369000I200000J0D01*
G01*
X138947000Y-148369000D01*
G75*
G02*
X139147000Y-148569000I0J-200000D01*
G01*
X139147000Y-149119000D01*
G75*
G02*
X138947000Y-149319000I-200000J0D01*
G01*
X138547000Y-149319000D01*
G75*
G02*
X138347000Y-149119000I0J200000D01*
G01*
G37*
G36*
G01*
X136697000Y-149119000D02*
X136697000Y-148569000D01*
G75*
G02*
X136897000Y-148369000I200000J0D01*
G01*
X137297000Y-148369000D01*
G75*
G02*
X137497000Y-148569000I0J-200000D01*
G01*
X137497000Y-149119000D01*
G75*
G02*
X137297000Y-149319000I-200000J0D01*
G01*
X136897000Y-149319000D01*
G75*
G02*
X136697000Y-149119000I0J200000D01*
G01*
G37*
G36*
G01*
X136697000Y-150897000D02*
X136697000Y-150347000D01*
G75*
G02*
X136897000Y-150147000I200000J0D01*
G01*
X137297000Y-150147000D01*
G75*
G02*
X137497000Y-150347000I0J-200000D01*
G01*
X137497000Y-150897000D01*
G75*
G02*
X137297000Y-151097000I-200000J0D01*
G01*
X136897000Y-151097000D01*
G75*
G02*
X136697000Y-150897000I0J200000D01*
G01*
G37*
G36*
G01*
X138347000Y-150897000D02*
X138347000Y-150347000D01*
G75*
G02*
X138547000Y-150147000I200000J0D01*
G01*
X138947000Y-150147000D01*
G75*
G02*
X139147000Y-150347000I0J-200000D01*
G01*
X139147000Y-150897000D01*
G75*
G02*
X138947000Y-151097000I-200000J0D01*
G01*
X138547000Y-151097000D01*
G75*
G02*
X138347000Y-150897000I0J200000D01*
G01*
G37*
G36*
G01*
X132035000Y-133601750D02*
X132035000Y-134114250D01*
G75*
G02*
X131816250Y-134333000I-218750J0D01*
G01*
X131378750Y-134333000D01*
G75*
G02*
X131160000Y-134114250I0J218750D01*
G01*
X131160000Y-133601750D01*
G75*
G02*
X131378750Y-133383000I218750J0D01*
G01*
X131816250Y-133383000D01*
G75*
G02*
X132035000Y-133601750I0J-218750D01*
G01*
G37*
G36*
G01*
X130460000Y-133601750D02*
X130460000Y-134114250D01*
G75*
G02*
X130241250Y-134333000I-218750J0D01*
G01*
X129803750Y-134333000D01*
G75*
G02*
X129585000Y-134114250I0J218750D01*
G01*
X129585000Y-133601750D01*
G75*
G02*
X129803750Y-133383000I218750J0D01*
G01*
X130241250Y-133383000D01*
G75*
G02*
X130460000Y-133601750I0J-218750D01*
G01*
G37*
G36*
G01*
X132035000Y-135379750D02*
X132035000Y-135892250D01*
G75*
G02*
X131816250Y-136111000I-218750J0D01*
G01*
X131378750Y-136111000D01*
G75*
G02*
X131160000Y-135892250I0J218750D01*
G01*
X131160000Y-135379750D01*
G75*
G02*
X131378750Y-135161000I218750J0D01*
G01*
X131816250Y-135161000D01*
G75*
G02*
X132035000Y-135379750I0J-218750D01*
G01*
G37*
G36*
G01*
X130460000Y-135379750D02*
X130460000Y-135892250D01*
G75*
G02*
X130241250Y-136111000I-218750J0D01*
G01*
X129803750Y-136111000D01*
G75*
G02*
X129585000Y-135892250I0J218750D01*
G01*
X129585000Y-135379750D01*
G75*
G02*
X129803750Y-135161000I218750J0D01*
G01*
X130241250Y-135161000D01*
G75*
G02*
X130460000Y-135379750I0J-218750D01*
G01*
G37*
G36*
G01*
X142539000Y-100859000D02*
X142539000Y-100309000D01*
G75*
G02*
X142739000Y-100109000I200000J0D01*
G01*
X143139000Y-100109000D01*
G75*
G02*
X143339000Y-100309000I0J-200000D01*
G01*
X143339000Y-100859000D01*
G75*
G02*
X143139000Y-101059000I-200000J0D01*
G01*
X142739000Y-101059000D01*
G75*
G02*
X142539000Y-100859000I0J200000D01*
G01*
G37*
G36*
G01*
X144189000Y-100859000D02*
X144189000Y-100309000D01*
G75*
G02*
X144389000Y-100109000I200000J0D01*
G01*
X144789000Y-100109000D01*
G75*
G02*
X144989000Y-100309000I0J-200000D01*
G01*
X144989000Y-100859000D01*
G75*
G02*
X144789000Y-101059000I-200000J0D01*
G01*
X144389000Y-101059000D01*
G75*
G02*
X144189000Y-100859000I0J200000D01*
G01*
G37*
G36*
G01*
X116075750Y-124378000D02*
X116588250Y-124378000D01*
G75*
G02*
X116807000Y-124596750I0J-218750D01*
G01*
X116807000Y-125034250D01*
G75*
G02*
X116588250Y-125253000I-218750J0D01*
G01*
X116075750Y-125253000D01*
G75*
G02*
X115857000Y-125034250I0J218750D01*
G01*
X115857000Y-124596750D01*
G75*
G02*
X116075750Y-124378000I218750J0D01*
G01*
G37*
G36*
G01*
X116075750Y-125953000D02*
X116588250Y-125953000D01*
G75*
G02*
X116807000Y-126171750I0J-218750D01*
G01*
X116807000Y-126609250D01*
G75*
G02*
X116588250Y-126828000I-218750J0D01*
G01*
X116075750Y-126828000D01*
G75*
G02*
X115857000Y-126609250I0J218750D01*
G01*
X115857000Y-126171750D01*
G75*
G02*
X116075750Y-125953000I218750J0D01*
G01*
G37*
G36*
G01*
X114297750Y-125953000D02*
X114810250Y-125953000D01*
G75*
G02*
X115029000Y-126171750I0J-218750D01*
G01*
X115029000Y-126609250D01*
G75*
G02*
X114810250Y-126828000I-218750J0D01*
G01*
X114297750Y-126828000D01*
G75*
G02*
X114079000Y-126609250I0J218750D01*
G01*
X114079000Y-126171750D01*
G75*
G02*
X114297750Y-125953000I218750J0D01*
G01*
G37*
G36*
G01*
X114297750Y-124378000D02*
X114810250Y-124378000D01*
G75*
G02*
X115029000Y-124596750I0J-218750D01*
G01*
X115029000Y-125034250D01*
G75*
G02*
X114810250Y-125253000I-218750J0D01*
G01*
X114297750Y-125253000D01*
G75*
G02*
X114079000Y-125034250I0J218750D01*
G01*
X114079000Y-124596750D01*
G75*
G02*
X114297750Y-124378000I218750J0D01*
G01*
G37*
G36*
G01*
X112519750Y-124378000D02*
X113032250Y-124378000D01*
G75*
G02*
X113251000Y-124596750I0J-218750D01*
G01*
X113251000Y-125034250D01*
G75*
G02*
X113032250Y-125253000I-218750J0D01*
G01*
X112519750Y-125253000D01*
G75*
G02*
X112301000Y-125034250I0J218750D01*
G01*
X112301000Y-124596750D01*
G75*
G02*
X112519750Y-124378000I218750J0D01*
G01*
G37*
G36*
G01*
X112519750Y-125953000D02*
X113032250Y-125953000D01*
G75*
G02*
X113251000Y-126171750I0J-218750D01*
G01*
X113251000Y-126609250D01*
G75*
G02*
X113032250Y-126828000I-218750J0D01*
G01*
X112519750Y-126828000D01*
G75*
G02*
X112301000Y-126609250I0J218750D01*
G01*
X112301000Y-126171750D01*
G75*
G02*
X112519750Y-125953000I218750J0D01*
G01*
G37*
G36*
G01*
X109189000Y-130050250D02*
X109189000Y-129537750D01*
G75*
G02*
X109407750Y-129319000I218750J0D01*
G01*
X109845250Y-129319000D01*
G75*
G02*
X110064000Y-129537750I0J-218750D01*
G01*
X110064000Y-130050250D01*
G75*
G02*
X109845250Y-130269000I-218750J0D01*
G01*
X109407750Y-130269000D01*
G75*
G02*
X109189000Y-130050250I0J218750D01*
G01*
G37*
G36*
G01*
X107614000Y-130050250D02*
X107614000Y-129537750D01*
G75*
G02*
X107832750Y-129319000I218750J0D01*
G01*
X108270250Y-129319000D01*
G75*
G02*
X108489000Y-129537750I0J-218750D01*
G01*
X108489000Y-130050250D01*
G75*
G02*
X108270250Y-130269000I-218750J0D01*
G01*
X107832750Y-130269000D01*
G75*
G02*
X107614000Y-130050250I0J218750D01*
G01*
G37*
G36*
G01*
X111654000Y-139656000D02*
X111104000Y-139656000D01*
G75*
G02*
X110904000Y-139456000I0J200000D01*
G01*
X110904000Y-139056000D01*
G75*
G02*
X111104000Y-138856000I200000J0D01*
G01*
X111654000Y-138856000D01*
G75*
G02*
X111854000Y-139056000I0J-200000D01*
G01*
X111854000Y-139456000D01*
G75*
G02*
X111654000Y-139656000I-200000J0D01*
G01*
G37*
G36*
G01*
X111654000Y-141306000D02*
X111104000Y-141306000D01*
G75*
G02*
X110904000Y-141106000I0J200000D01*
G01*
X110904000Y-140706000D01*
G75*
G02*
X111104000Y-140506000I200000J0D01*
G01*
X111654000Y-140506000D01*
G75*
G02*
X111854000Y-140706000I0J-200000D01*
G01*
X111854000Y-141106000D01*
G75*
G02*
X111654000Y-141306000I-200000J0D01*
G01*
G37*
G36*
G01*
X114067000Y-141306000D02*
X113517000Y-141306000D01*
G75*
G02*
X113317000Y-141106000I0J200000D01*
G01*
X113317000Y-140706000D01*
G75*
G02*
X113517000Y-140506000I200000J0D01*
G01*
X114067000Y-140506000D01*
G75*
G02*
X114267000Y-140706000I0J-200000D01*
G01*
X114267000Y-141106000D01*
G75*
G02*
X114067000Y-141306000I-200000J0D01*
G01*
G37*
G36*
G01*
X114067000Y-139656000D02*
X113517000Y-139656000D01*
G75*
G02*
X113317000Y-139456000I0J200000D01*
G01*
X113317000Y-139056000D01*
G75*
G02*
X113517000Y-138856000I200000J0D01*
G01*
X114067000Y-138856000D01*
G75*
G02*
X114267000Y-139056000I0J-200000D01*
G01*
X114267000Y-139456000D01*
G75*
G02*
X114067000Y-139656000I-200000J0D01*
G01*
G37*
G36*
G01*
X112265750Y-153004000D02*
X112778250Y-153004000D01*
G75*
G02*
X112997000Y-153222750I0J-218750D01*
G01*
X112997000Y-153660250D01*
G75*
G02*
X112778250Y-153879000I-218750J0D01*
G01*
X112265750Y-153879000D01*
G75*
G02*
X112047000Y-153660250I0J218750D01*
G01*
X112047000Y-153222750D01*
G75*
G02*
X112265750Y-153004000I218750J0D01*
G01*
G37*
G36*
G01*
X112265750Y-151429000D02*
X112778250Y-151429000D01*
G75*
G02*
X112997000Y-151647750I0J-218750D01*
G01*
X112997000Y-152085250D01*
G75*
G02*
X112778250Y-152304000I-218750J0D01*
G01*
X112265750Y-152304000D01*
G75*
G02*
X112047000Y-152085250I0J218750D01*
G01*
X112047000Y-151647750D01*
G75*
G02*
X112265750Y-151429000I218750J0D01*
G01*
G37*
G36*
G01*
X110487750Y-151429000D02*
X111000250Y-151429000D01*
G75*
G02*
X111219000Y-151647750I0J-218750D01*
G01*
X111219000Y-152085250D01*
G75*
G02*
X111000250Y-152304000I-218750J0D01*
G01*
X110487750Y-152304000D01*
G75*
G02*
X110269000Y-152085250I0J218750D01*
G01*
X110269000Y-151647750D01*
G75*
G02*
X110487750Y-151429000I218750J0D01*
G01*
G37*
G36*
G01*
X110487750Y-153004000D02*
X111000250Y-153004000D01*
G75*
G02*
X111219000Y-153222750I0J-218750D01*
G01*
X111219000Y-153660250D01*
G75*
G02*
X111000250Y-153879000I-218750J0D01*
G01*
X110487750Y-153879000D01*
G75*
G02*
X110269000Y-153660250I0J218750D01*
G01*
X110269000Y-153222750D01*
G75*
G02*
X110487750Y-153004000I218750J0D01*
G01*
G37*
G36*
G01*
X108709750Y-153004000D02*
X109222250Y-153004000D01*
G75*
G02*
X109441000Y-153222750I0J-218750D01*
G01*
X109441000Y-153660250D01*
G75*
G02*
X109222250Y-153879000I-218750J0D01*
G01*
X108709750Y-153879000D01*
G75*
G02*
X108491000Y-153660250I0J218750D01*
G01*
X108491000Y-153222750D01*
G75*
G02*
X108709750Y-153004000I218750J0D01*
G01*
G37*
G36*
G01*
X108709750Y-151429000D02*
X109222250Y-151429000D01*
G75*
G02*
X109441000Y-151647750I0J-218750D01*
G01*
X109441000Y-152085250D01*
G75*
G02*
X109222250Y-152304000I-218750J0D01*
G01*
X108709750Y-152304000D01*
G75*
G02*
X108491000Y-152085250I0J218750D01*
G01*
X108491000Y-151647750D01*
G75*
G02*
X108709750Y-151429000I218750J0D01*
G01*
G37*
G36*
G01*
X104438000Y-157755000D02*
X104438000Y-157205000D01*
G75*
G02*
X104638000Y-157005000I200000J0D01*
G01*
X105038000Y-157005000D01*
G75*
G02*
X105238000Y-157205000I0J-200000D01*
G01*
X105238000Y-157755000D01*
G75*
G02*
X105038000Y-157955000I-200000J0D01*
G01*
X104638000Y-157955000D01*
G75*
G02*
X104438000Y-157755000I0J200000D01*
G01*
G37*
G36*
G01*
X102788000Y-157755000D02*
X102788000Y-157205000D01*
G75*
G02*
X102988000Y-157005000I200000J0D01*
G01*
X103388000Y-157005000D01*
G75*
G02*
X103588000Y-157205000I0J-200000D01*
G01*
X103588000Y-157755000D01*
G75*
G02*
X103388000Y-157955000I-200000J0D01*
G01*
X102988000Y-157955000D01*
G75*
G02*
X102788000Y-157755000I0J200000D01*
G01*
G37*
G36*
G01*
X106090000Y-166645000D02*
X106090000Y-166095000D01*
G75*
G02*
X106290000Y-165895000I200000J0D01*
G01*
X106690000Y-165895000D01*
G75*
G02*
X106890000Y-166095000I0J-200000D01*
G01*
X106890000Y-166645000D01*
G75*
G02*
X106690000Y-166845000I-200000J0D01*
G01*
X106290000Y-166845000D01*
G75*
G02*
X106090000Y-166645000I0J200000D01*
G01*
G37*
G36*
G01*
X107740000Y-166645000D02*
X107740000Y-166095000D01*
G75*
G02*
X107940000Y-165895000I200000J0D01*
G01*
X108340000Y-165895000D01*
G75*
G02*
X108540000Y-166095000I0J-200000D01*
G01*
X108540000Y-166645000D01*
G75*
G02*
X108340000Y-166845000I-200000J0D01*
G01*
X107940000Y-166845000D01*
G75*
G02*
X107740000Y-166645000I0J200000D01*
G01*
G37*
G36*
G01*
X127590000Y-115821750D02*
X127590000Y-116334250D01*
G75*
G02*
X127371250Y-116553000I-218750J0D01*
G01*
X126933750Y-116553000D01*
G75*
G02*
X126715000Y-116334250I0J218750D01*
G01*
X126715000Y-115821750D01*
G75*
G02*
X126933750Y-115603000I218750J0D01*
G01*
X127371250Y-115603000D01*
G75*
G02*
X127590000Y-115821750I0J-218750D01*
G01*
G37*
G36*
G01*
X126015000Y-115821750D02*
X126015000Y-116334250D01*
G75*
G02*
X125796250Y-116553000I-218750J0D01*
G01*
X125358750Y-116553000D01*
G75*
G02*
X125140000Y-116334250I0J218750D01*
G01*
X125140000Y-115821750D01*
G75*
G02*
X125358750Y-115603000I218750J0D01*
G01*
X125796250Y-115603000D01*
G75*
G02*
X126015000Y-115821750I0J-218750D01*
G01*
G37*
D36*
X111955000Y-130169000D03*
X111955000Y-130969000D03*
X111955000Y-131769000D03*
X111955000Y-132569000D03*
X111955000Y-133369000D03*
X111955000Y-134169000D03*
X111955000Y-134969000D03*
X111955000Y-135769000D03*
D37*
X113405000Y-137219000D03*
X114205000Y-137219000D03*
X115005000Y-137219000D03*
X115805000Y-137219000D03*
X116605000Y-137219000D03*
X117405000Y-137219000D03*
X118205000Y-137219000D03*
X119005000Y-137219000D03*
D36*
X120455000Y-135769000D03*
X120455000Y-134969000D03*
X120455000Y-134169000D03*
X120455000Y-133369000D03*
X120455000Y-132569000D03*
X120455000Y-131769000D03*
X120455000Y-130969000D03*
X120455000Y-130169000D03*
D37*
X119005000Y-128719000D03*
X118205000Y-128719000D03*
X117405000Y-128719000D03*
X116605000Y-128719000D03*
X115805000Y-128719000D03*
X115005000Y-128719000D03*
X114205000Y-128719000D03*
X113405000Y-128719000D03*
X108579000Y-155643000D03*
X109379000Y-155643000D03*
X110179000Y-155643000D03*
X110979000Y-155643000D03*
X111779000Y-155643000D03*
X112579000Y-155643000D03*
X113379000Y-155643000D03*
X114179000Y-155643000D03*
D36*
X115629000Y-157093000D03*
X115629000Y-157893000D03*
X115629000Y-158693000D03*
X115629000Y-159493000D03*
X115629000Y-160293000D03*
X115629000Y-161093000D03*
X115629000Y-161893000D03*
X115629000Y-162693000D03*
D37*
X114179000Y-164143000D03*
X113379000Y-164143000D03*
X112579000Y-164143000D03*
X111779000Y-164143000D03*
X110979000Y-164143000D03*
X110179000Y-164143000D03*
X109379000Y-164143000D03*
X108579000Y-164143000D03*
D36*
X107129000Y-162693000D03*
X107129000Y-161893000D03*
X107129000Y-161093000D03*
X107129000Y-160293000D03*
X107129000Y-159493000D03*
X107129000Y-158693000D03*
X107129000Y-157893000D03*
X107129000Y-157093000D03*
D38*
X127315000Y-118915000D03*
X126365000Y-118915000D03*
X125415000Y-118915000D03*
X125415000Y-121115000D03*
X127315000Y-121115000D03*
D39*
X131064000Y-139770000D03*
X131064000Y-140970000D03*
X131064000Y-142170000D03*
X108839000Y-135198000D03*
X108839000Y-136398000D03*
X108839000Y-137598000D03*
X104013000Y-165030000D03*
X104013000Y-163830000D03*
X104013000Y-162630000D03*
G36*
G01*
X136215000Y-136394000D02*
X136215000Y-135894000D01*
G75*
G02*
X136440000Y-135669000I225000J0D01*
G01*
X136890000Y-135669000D01*
G75*
G02*
X137115000Y-135894000I0J-225000D01*
G01*
X137115000Y-136394000D01*
G75*
G02*
X136890000Y-136619000I-225000J0D01*
G01*
X136440000Y-136619000D01*
G75*
G02*
X136215000Y-136394000I0J225000D01*
G01*
G37*
G36*
G01*
X134665000Y-136394000D02*
X134665000Y-135894000D01*
G75*
G02*
X134890000Y-135669000I225000J0D01*
G01*
X135340000Y-135669000D01*
G75*
G02*
X135565000Y-135894000I0J-225000D01*
G01*
X135565000Y-136394000D01*
G75*
G02*
X135340000Y-136619000I-225000J0D01*
G01*
X134890000Y-136619000D01*
G75*
G02*
X134665000Y-136394000I0J225000D01*
G01*
G37*
G36*
G01*
X146487000Y-148848000D02*
X146487000Y-149348000D01*
G75*
G02*
X146262000Y-149573000I-225000J0D01*
G01*
X145812000Y-149573000D01*
G75*
G02*
X145587000Y-149348000I0J225000D01*
G01*
X145587000Y-148848000D01*
G75*
G02*
X145812000Y-148623000I225000J0D01*
G01*
X146262000Y-148623000D01*
G75*
G02*
X146487000Y-148848000I0J-225000D01*
G01*
G37*
G36*
G01*
X148037000Y-148848000D02*
X148037000Y-149348000D01*
G75*
G02*
X147812000Y-149573000I-225000J0D01*
G01*
X147362000Y-149573000D01*
G75*
G02*
X147137000Y-149348000I0J225000D01*
G01*
X147137000Y-148848000D01*
G75*
G02*
X147362000Y-148623000I225000J0D01*
G01*
X147812000Y-148623000D01*
G75*
G02*
X148037000Y-148848000I0J-225000D01*
G01*
G37*
G36*
G01*
X132125000Y-144522000D02*
X132125000Y-144022000D01*
G75*
G02*
X132350000Y-143797000I225000J0D01*
G01*
X132800000Y-143797000D01*
G75*
G02*
X133025000Y-144022000I0J-225000D01*
G01*
X133025000Y-144522000D01*
G75*
G02*
X132800000Y-144747000I-225000J0D01*
G01*
X132350000Y-144747000D01*
G75*
G02*
X132125000Y-144522000I0J225000D01*
G01*
G37*
G36*
G01*
X133675000Y-144522000D02*
X133675000Y-144022000D01*
G75*
G02*
X133900000Y-143797000I225000J0D01*
G01*
X134350000Y-143797000D01*
G75*
G02*
X134575000Y-144022000I0J-225000D01*
G01*
X134575000Y-144522000D01*
G75*
G02*
X134350000Y-144747000I-225000J0D01*
G01*
X133900000Y-144747000D01*
G75*
G02*
X133675000Y-144522000I0J225000D01*
G01*
G37*
G36*
G01*
X102874000Y-152852000D02*
X103374000Y-152852000D01*
G75*
G02*
X103599000Y-153077000I0J-225000D01*
G01*
X103599000Y-153527000D01*
G75*
G02*
X103374000Y-153752000I-225000J0D01*
G01*
X102874000Y-153752000D01*
G75*
G02*
X102649000Y-153527000I0J225000D01*
G01*
X102649000Y-153077000D01*
G75*
G02*
X102874000Y-152852000I225000J0D01*
G01*
G37*
G36*
G01*
X102874000Y-151302000D02*
X103374000Y-151302000D01*
G75*
G02*
X103599000Y-151527000I0J-225000D01*
G01*
X103599000Y-151977000D01*
G75*
G02*
X103374000Y-152202000I-225000J0D01*
G01*
X102874000Y-152202000D01*
G75*
G02*
X102649000Y-151977000I0J225000D01*
G01*
X102649000Y-151527000D01*
G75*
G02*
X102874000Y-151302000I225000J0D01*
G01*
G37*
G36*
G01*
X100969000Y-151302000D02*
X101469000Y-151302000D01*
G75*
G02*
X101694000Y-151527000I0J-225000D01*
G01*
X101694000Y-151977000D01*
G75*
G02*
X101469000Y-152202000I-225000J0D01*
G01*
X100969000Y-152202000D01*
G75*
G02*
X100744000Y-151977000I0J225000D01*
G01*
X100744000Y-151527000D01*
G75*
G02*
X100969000Y-151302000I225000J0D01*
G01*
G37*
G36*
G01*
X100969000Y-152852000D02*
X101469000Y-152852000D01*
G75*
G02*
X101694000Y-153077000I0J-225000D01*
G01*
X101694000Y-153527000D01*
G75*
G02*
X101469000Y-153752000I-225000J0D01*
G01*
X100969000Y-153752000D01*
G75*
G02*
X100744000Y-153527000I0J225000D01*
G01*
X100744000Y-153077000D01*
G75*
G02*
X100969000Y-152852000I225000J0D01*
G01*
G37*
G36*
G01*
X122686000Y-102433000D02*
X123186000Y-102433000D01*
G75*
G02*
X123411000Y-102658000I0J-225000D01*
G01*
X123411000Y-103108000D01*
G75*
G02*
X123186000Y-103333000I-225000J0D01*
G01*
X122686000Y-103333000D01*
G75*
G02*
X122461000Y-103108000I0J225000D01*
G01*
X122461000Y-102658000D01*
G75*
G02*
X122686000Y-102433000I225000J0D01*
G01*
G37*
G36*
G01*
X122686000Y-100883000D02*
X123186000Y-100883000D01*
G75*
G02*
X123411000Y-101108000I0J-225000D01*
G01*
X123411000Y-101558000D01*
G75*
G02*
X123186000Y-101783000I-225000J0D01*
G01*
X122686000Y-101783000D01*
G75*
G02*
X122461000Y-101558000I0J225000D01*
G01*
X122461000Y-101108000D01*
G75*
G02*
X122686000Y-100883000I225000J0D01*
G01*
G37*
G36*
G01*
X125726000Y-112832000D02*
X125226000Y-112832000D01*
G75*
G02*
X125001000Y-112607000I0J225000D01*
G01*
X125001000Y-112157000D01*
G75*
G02*
X125226000Y-111932000I225000J0D01*
G01*
X125726000Y-111932000D01*
G75*
G02*
X125951000Y-112157000I0J-225000D01*
G01*
X125951000Y-112607000D01*
G75*
G02*
X125726000Y-112832000I-225000J0D01*
G01*
G37*
G36*
G01*
X125726000Y-114382000D02*
X125226000Y-114382000D01*
G75*
G02*
X125001000Y-114157000I0J225000D01*
G01*
X125001000Y-113707000D01*
G75*
G02*
X125226000Y-113482000I225000J0D01*
G01*
X125726000Y-113482000D01*
G75*
G02*
X125951000Y-113707000I0J-225000D01*
G01*
X125951000Y-114157000D01*
G75*
G02*
X125726000Y-114382000I-225000J0D01*
G01*
G37*
G36*
G01*
X93136000Y-110359000D02*
X93136000Y-109859000D01*
G75*
G02*
X93361000Y-109634000I225000J0D01*
G01*
X93811000Y-109634000D01*
G75*
G02*
X94036000Y-109859000I0J-225000D01*
G01*
X94036000Y-110359000D01*
G75*
G02*
X93811000Y-110584000I-225000J0D01*
G01*
X93361000Y-110584000D01*
G75*
G02*
X93136000Y-110359000I0J225000D01*
G01*
G37*
G36*
G01*
X94686000Y-110359000D02*
X94686000Y-109859000D01*
G75*
G02*
X94911000Y-109634000I225000J0D01*
G01*
X95361000Y-109634000D01*
G75*
G02*
X95586000Y-109859000I0J-225000D01*
G01*
X95586000Y-110359000D01*
G75*
G02*
X95361000Y-110584000I-225000J0D01*
G01*
X94911000Y-110584000D01*
G75*
G02*
X94686000Y-110359000I0J225000D01*
G01*
G37*
G36*
G01*
X93136000Y-107057000D02*
X93136000Y-106557000D01*
G75*
G02*
X93361000Y-106332000I225000J0D01*
G01*
X93811000Y-106332000D01*
G75*
G02*
X94036000Y-106557000I0J-225000D01*
G01*
X94036000Y-107057000D01*
G75*
G02*
X93811000Y-107282000I-225000J0D01*
G01*
X93361000Y-107282000D01*
G75*
G02*
X93136000Y-107057000I0J225000D01*
G01*
G37*
G36*
G01*
X94686000Y-107057000D02*
X94686000Y-106557000D01*
G75*
G02*
X94911000Y-106332000I225000J0D01*
G01*
X95361000Y-106332000D01*
G75*
G02*
X95586000Y-106557000I0J-225000D01*
G01*
X95586000Y-107057000D01*
G75*
G02*
X95361000Y-107282000I-225000J0D01*
G01*
X94911000Y-107282000D01*
G75*
G02*
X94686000Y-107057000I0J225000D01*
G01*
G37*
D40*
X154178000Y-106680000D03*
X76200000Y-162560000D03*
D23*
X154432000Y-124460000D03*
D22*
X154432000Y-121920000D03*
X154432000Y-114300000D03*
D23*
X154432000Y-116840000D03*
G36*
G01*
X131235000Y-127021000D02*
X131235000Y-126471000D01*
G75*
G02*
X131435000Y-126271000I200000J0D01*
G01*
X131835000Y-126271000D01*
G75*
G02*
X132035000Y-126471000I0J-200000D01*
G01*
X132035000Y-127021000D01*
G75*
G02*
X131835000Y-127221000I-200000J0D01*
G01*
X131435000Y-127221000D01*
G75*
G02*
X131235000Y-127021000I0J200000D01*
G01*
G37*
G36*
G01*
X129585000Y-127021000D02*
X129585000Y-126471000D01*
G75*
G02*
X129785000Y-126271000I200000J0D01*
G01*
X130185000Y-126271000D01*
G75*
G02*
X130385000Y-126471000I0J-200000D01*
G01*
X130385000Y-127021000D01*
G75*
G02*
X130185000Y-127221000I-200000J0D01*
G01*
X129785000Y-127221000D01*
G75*
G02*
X129585000Y-127021000I0J200000D01*
G01*
G37*
G36*
G01*
X140163000Y-123804000D02*
X140163000Y-124354000D01*
G75*
G02*
X139963000Y-124554000I-200000J0D01*
G01*
X139563000Y-124554000D01*
G75*
G02*
X139363000Y-124354000I0J200000D01*
G01*
X139363000Y-123804000D01*
G75*
G02*
X139563000Y-123604000I200000J0D01*
G01*
X139963000Y-123604000D01*
G75*
G02*
X140163000Y-123804000I0J-200000D01*
G01*
G37*
G36*
G01*
X138513000Y-123804000D02*
X138513000Y-124354000D01*
G75*
G02*
X138313000Y-124554000I-200000J0D01*
G01*
X137913000Y-124554000D01*
G75*
G02*
X137713000Y-124354000I0J200000D01*
G01*
X137713000Y-123804000D01*
G75*
G02*
X137913000Y-123604000I200000J0D01*
G01*
X138313000Y-123604000D01*
G75*
G02*
X138513000Y-123804000I0J-200000D01*
G01*
G37*
G36*
G01*
X139379001Y-126009001D02*
X139379001Y-125459001D01*
G75*
G02*
X139579001Y-125259001I200000J0D01*
G01*
X139979001Y-125259001D01*
G75*
G02*
X140179001Y-125459001I0J-200000D01*
G01*
X140179001Y-126009001D01*
G75*
G02*
X139979001Y-126209001I-200000J0D01*
G01*
X139579001Y-126209001D01*
G75*
G02*
X139379001Y-126009001I0J200000D01*
G01*
G37*
G36*
G01*
X137729001Y-126009001D02*
X137729001Y-125459001D01*
G75*
G02*
X137929001Y-125259001I200000J0D01*
G01*
X138329001Y-125259001D01*
G75*
G02*
X138529001Y-125459001I0J-200000D01*
G01*
X138529001Y-126009001D01*
G75*
G02*
X138329001Y-126209001I-200000J0D01*
G01*
X137929001Y-126209001D01*
G75*
G02*
X137729001Y-126009001I0J200000D01*
G01*
G37*
G36*
G01*
X137901000Y-132633000D02*
X138451000Y-132633000D01*
G75*
G02*
X138651000Y-132833000I0J-200000D01*
G01*
X138651000Y-133233000D01*
G75*
G02*
X138451000Y-133433000I-200000J0D01*
G01*
X137901000Y-133433000D01*
G75*
G02*
X137701000Y-133233000I0J200000D01*
G01*
X137701000Y-132833000D01*
G75*
G02*
X137901000Y-132633000I200000J0D01*
G01*
G37*
G36*
G01*
X137901000Y-134283000D02*
X138451000Y-134283000D01*
G75*
G02*
X138651000Y-134483000I0J-200000D01*
G01*
X138651000Y-134883000D01*
G75*
G02*
X138451000Y-135083000I-200000J0D01*
G01*
X137901000Y-135083000D01*
G75*
G02*
X137701000Y-134883000I0J200000D01*
G01*
X137701000Y-134483000D01*
G75*
G02*
X137901000Y-134283000I200000J0D01*
G01*
G37*
G36*
G01*
X144293000Y-149435000D02*
X143743000Y-149435000D01*
G75*
G02*
X143543000Y-149235000I0J200000D01*
G01*
X143543000Y-148835000D01*
G75*
G02*
X143743000Y-148635000I200000J0D01*
G01*
X144293000Y-148635000D01*
G75*
G02*
X144493000Y-148835000I0J-200000D01*
G01*
X144493000Y-149235000D01*
G75*
G02*
X144293000Y-149435000I-200000J0D01*
G01*
G37*
G36*
G01*
X144293000Y-151085000D02*
X143743000Y-151085000D01*
G75*
G02*
X143543000Y-150885000I0J200000D01*
G01*
X143543000Y-150485000D01*
G75*
G02*
X143743000Y-150285000I200000J0D01*
G01*
X144293000Y-150285000D01*
G75*
G02*
X144493000Y-150485000I0J-200000D01*
G01*
X144493000Y-150885000D01*
G75*
G02*
X144293000Y-151085000I-200000J0D01*
G01*
G37*
G36*
G01*
X139679000Y-134283000D02*
X140229000Y-134283000D01*
G75*
G02*
X140429000Y-134483000I0J-200000D01*
G01*
X140429000Y-134883000D01*
G75*
G02*
X140229000Y-135083000I-200000J0D01*
G01*
X139679000Y-135083000D01*
G75*
G02*
X139479000Y-134883000I0J200000D01*
G01*
X139479000Y-134483000D01*
G75*
G02*
X139679000Y-134283000I200000J0D01*
G01*
G37*
G36*
G01*
X139679000Y-132633000D02*
X140229000Y-132633000D01*
G75*
G02*
X140429000Y-132833000I0J-200000D01*
G01*
X140429000Y-133233000D01*
G75*
G02*
X140229000Y-133433000I-200000J0D01*
G01*
X139679000Y-133433000D01*
G75*
G02*
X139479000Y-133233000I0J200000D01*
G01*
X139479000Y-132833000D01*
G75*
G02*
X139679000Y-132633000I200000J0D01*
G01*
G37*
G36*
G01*
X142515000Y-151085000D02*
X141965000Y-151085000D01*
G75*
G02*
X141765000Y-150885000I0J200000D01*
G01*
X141765000Y-150485000D01*
G75*
G02*
X141965000Y-150285000I200000J0D01*
G01*
X142515000Y-150285000D01*
G75*
G02*
X142715000Y-150485000I0J-200000D01*
G01*
X142715000Y-150885000D01*
G75*
G02*
X142515000Y-151085000I-200000J0D01*
G01*
G37*
G36*
G01*
X142515000Y-149435000D02*
X141965000Y-149435000D01*
G75*
G02*
X141765000Y-149235000I0J200000D01*
G01*
X141765000Y-148835000D01*
G75*
G02*
X141965000Y-148635000I200000J0D01*
G01*
X142515000Y-148635000D01*
G75*
G02*
X142715000Y-148835000I0J-200000D01*
G01*
X142715000Y-149235000D01*
G75*
G02*
X142515000Y-149435000I-200000J0D01*
G01*
G37*
G36*
G01*
X136673000Y-133433000D02*
X136123000Y-133433000D01*
G75*
G02*
X135923000Y-133233000I0J200000D01*
G01*
X135923000Y-132833000D01*
G75*
G02*
X136123000Y-132633000I200000J0D01*
G01*
X136673000Y-132633000D01*
G75*
G02*
X136873000Y-132833000I0J-200000D01*
G01*
X136873000Y-133233000D01*
G75*
G02*
X136673000Y-133433000I-200000J0D01*
G01*
G37*
G36*
G01*
X136673000Y-135083000D02*
X136123000Y-135083000D01*
G75*
G02*
X135923000Y-134883000I0J200000D01*
G01*
X135923000Y-134483000D01*
G75*
G02*
X136123000Y-134283000I200000J0D01*
G01*
X136673000Y-134283000D01*
G75*
G02*
X136873000Y-134483000I0J-200000D01*
G01*
X136873000Y-134883000D01*
G75*
G02*
X136673000Y-135083000I-200000J0D01*
G01*
G37*
G36*
G01*
X140187000Y-148635000D02*
X140737000Y-148635000D01*
G75*
G02*
X140937000Y-148835000I0J-200000D01*
G01*
X140937000Y-149235000D01*
G75*
G02*
X140737000Y-149435000I-200000J0D01*
G01*
X140187000Y-149435000D01*
G75*
G02*
X139987000Y-149235000I0J200000D01*
G01*
X139987000Y-148835000D01*
G75*
G02*
X140187000Y-148635000I200000J0D01*
G01*
G37*
G36*
G01*
X140187000Y-150285000D02*
X140737000Y-150285000D01*
G75*
G02*
X140937000Y-150485000I0J-200000D01*
G01*
X140937000Y-150885000D01*
G75*
G02*
X140737000Y-151085000I-200000J0D01*
G01*
X140187000Y-151085000D01*
G75*
G02*
X139987000Y-150885000I0J200000D01*
G01*
X139987000Y-150485000D01*
G75*
G02*
X140187000Y-150285000I200000J0D01*
G01*
G37*
G36*
G01*
X149077000Y-155238000D02*
X149627000Y-155238000D01*
G75*
G02*
X149827000Y-155438000I0J-200000D01*
G01*
X149827000Y-155838000D01*
G75*
G02*
X149627000Y-156038000I-200000J0D01*
G01*
X149077000Y-156038000D01*
G75*
G02*
X148877000Y-155838000I0J200000D01*
G01*
X148877000Y-155438000D01*
G75*
G02*
X149077000Y-155238000I200000J0D01*
G01*
G37*
G36*
G01*
X149077000Y-153588000D02*
X149627000Y-153588000D01*
G75*
G02*
X149827000Y-153788000I0J-200000D01*
G01*
X149827000Y-154188000D01*
G75*
G02*
X149627000Y-154388000I-200000J0D01*
G01*
X149077000Y-154388000D01*
G75*
G02*
X148877000Y-154188000I0J200000D01*
G01*
X148877000Y-153788000D01*
G75*
G02*
X149077000Y-153588000I200000J0D01*
G01*
G37*
G36*
G01*
X139171000Y-153588000D02*
X139721000Y-153588000D01*
G75*
G02*
X139921000Y-153788000I0J-200000D01*
G01*
X139921000Y-154188000D01*
G75*
G02*
X139721000Y-154388000I-200000J0D01*
G01*
X139171000Y-154388000D01*
G75*
G02*
X138971000Y-154188000I0J200000D01*
G01*
X138971000Y-153788000D01*
G75*
G02*
X139171000Y-153588000I200000J0D01*
G01*
G37*
G36*
G01*
X139171000Y-155238000D02*
X139721000Y-155238000D01*
G75*
G02*
X139921000Y-155438000I0J-200000D01*
G01*
X139921000Y-155838000D01*
G75*
G02*
X139721000Y-156038000I-200000J0D01*
G01*
X139171000Y-156038000D01*
G75*
G02*
X138971000Y-155838000I0J200000D01*
G01*
X138971000Y-155438000D01*
G75*
G02*
X139171000Y-155238000I200000J0D01*
G01*
G37*
G36*
G01*
X135911000Y-155403000D02*
X135361000Y-155403000D01*
G75*
G02*
X135161000Y-155203000I0J200000D01*
G01*
X135161000Y-154803000D01*
G75*
G02*
X135361000Y-154603000I200000J0D01*
G01*
X135911000Y-154603000D01*
G75*
G02*
X136111000Y-154803000I0J-200000D01*
G01*
X136111000Y-155203000D01*
G75*
G02*
X135911000Y-155403000I-200000J0D01*
G01*
G37*
G36*
G01*
X135911000Y-153753000D02*
X135361000Y-153753000D01*
G75*
G02*
X135161000Y-153553000I0J200000D01*
G01*
X135161000Y-153153000D01*
G75*
G02*
X135361000Y-152953000I200000J0D01*
G01*
X135911000Y-152953000D01*
G75*
G02*
X136111000Y-153153000I0J-200000D01*
G01*
X136111000Y-153553000D01*
G75*
G02*
X135911000Y-153753000I-200000J0D01*
G01*
G37*
G36*
G01*
X123211000Y-106889000D02*
X122661000Y-106889000D01*
G75*
G02*
X122461000Y-106689000I0J200000D01*
G01*
X122461000Y-106289000D01*
G75*
G02*
X122661000Y-106089000I200000J0D01*
G01*
X123211000Y-106089000D01*
G75*
G02*
X123411000Y-106289000I0J-200000D01*
G01*
X123411000Y-106689000D01*
G75*
G02*
X123211000Y-106889000I-200000J0D01*
G01*
G37*
G36*
G01*
X123211000Y-105239000D02*
X122661000Y-105239000D01*
G75*
G02*
X122461000Y-105039000I0J200000D01*
G01*
X122461000Y-104639000D01*
G75*
G02*
X122661000Y-104439000I200000J0D01*
G01*
X123211000Y-104439000D01*
G75*
G02*
X123411000Y-104639000I0J-200000D01*
G01*
X123411000Y-105039000D01*
G75*
G02*
X123211000Y-105239000I-200000J0D01*
G01*
G37*
G36*
G01*
X137054000Y-109557000D02*
X136504000Y-109557000D01*
G75*
G02*
X136304000Y-109357000I0J200000D01*
G01*
X136304000Y-108957000D01*
G75*
G02*
X136504000Y-108757000I200000J0D01*
G01*
X137054000Y-108757000D01*
G75*
G02*
X137254000Y-108957000I0J-200000D01*
G01*
X137254000Y-109357000D01*
G75*
G02*
X137054000Y-109557000I-200000J0D01*
G01*
G37*
G36*
G01*
X137054000Y-111207000D02*
X136504000Y-111207000D01*
G75*
G02*
X136304000Y-111007000I0J200000D01*
G01*
X136304000Y-110607000D01*
G75*
G02*
X136504000Y-110407000I200000J0D01*
G01*
X137054000Y-110407000D01*
G75*
G02*
X137254000Y-110607000I0J-200000D01*
G01*
X137254000Y-111007000D01*
G75*
G02*
X137054000Y-111207000I-200000J0D01*
G01*
G37*
G36*
G01*
X135464000Y-103738000D02*
X135464000Y-104288000D01*
G75*
G02*
X135264000Y-104488000I-200000J0D01*
G01*
X134864000Y-104488000D01*
G75*
G02*
X134664000Y-104288000I0J200000D01*
G01*
X134664000Y-103738000D01*
G75*
G02*
X134864000Y-103538000I200000J0D01*
G01*
X135264000Y-103538000D01*
G75*
G02*
X135464000Y-103738000I0J-200000D01*
G01*
G37*
G36*
G01*
X133814000Y-103738000D02*
X133814000Y-104288000D01*
G75*
G02*
X133614000Y-104488000I-200000J0D01*
G01*
X133214000Y-104488000D01*
G75*
G02*
X133014000Y-104288000I0J200000D01*
G01*
X133014000Y-103738000D01*
G75*
G02*
X133214000Y-103538000I200000J0D01*
G01*
X133614000Y-103538000D01*
G75*
G02*
X133814000Y-103738000I0J-200000D01*
G01*
G37*
G36*
G01*
X133686000Y-113771000D02*
X133686000Y-114321000D01*
G75*
G02*
X133486000Y-114521000I-200000J0D01*
G01*
X133086000Y-114521000D01*
G75*
G02*
X132886000Y-114321000I0J200000D01*
G01*
X132886000Y-113771000D01*
G75*
G02*
X133086000Y-113571000I200000J0D01*
G01*
X133486000Y-113571000D01*
G75*
G02*
X133686000Y-113771000I0J-200000D01*
G01*
G37*
G36*
G01*
X132036000Y-113771000D02*
X132036000Y-114321000D01*
G75*
G02*
X131836000Y-114521000I-200000J0D01*
G01*
X131436000Y-114521000D01*
G75*
G02*
X131236000Y-114321000I0J200000D01*
G01*
X131236000Y-113771000D01*
G75*
G02*
X131436000Y-113571000I200000J0D01*
G01*
X131836000Y-113571000D01*
G75*
G02*
X132036000Y-113771000I0J-200000D01*
G01*
G37*
G36*
G01*
X132036000Y-112120000D02*
X132036000Y-112670000D01*
G75*
G02*
X131836000Y-112870000I-200000J0D01*
G01*
X131436000Y-112870000D01*
G75*
G02*
X131236000Y-112670000I0J200000D01*
G01*
X131236000Y-112120000D01*
G75*
G02*
X131436000Y-111920000I200000J0D01*
G01*
X131836000Y-111920000D01*
G75*
G02*
X132036000Y-112120000I0J-200000D01*
G01*
G37*
G36*
G01*
X133686000Y-112120000D02*
X133686000Y-112670000D01*
G75*
G02*
X133486000Y-112870000I-200000J0D01*
G01*
X133086000Y-112870000D01*
G75*
G02*
X132886000Y-112670000I0J200000D01*
G01*
X132886000Y-112120000D01*
G75*
G02*
X133086000Y-111920000I200000J0D01*
G01*
X133486000Y-111920000D01*
G75*
G02*
X133686000Y-112120000I0J-200000D01*
G01*
G37*
G36*
G01*
X94913000Y-105177000D02*
X94913000Y-104627000D01*
G75*
G02*
X95113000Y-104427000I200000J0D01*
G01*
X95513000Y-104427000D01*
G75*
G02*
X95713000Y-104627000I0J-200000D01*
G01*
X95713000Y-105177000D01*
G75*
G02*
X95513000Y-105377000I-200000J0D01*
G01*
X95113000Y-105377000D01*
G75*
G02*
X94913000Y-105177000I0J200000D01*
G01*
G37*
G36*
G01*
X93263000Y-105177000D02*
X93263000Y-104627000D01*
G75*
G02*
X93463000Y-104427000I200000J0D01*
G01*
X93863000Y-104427000D01*
G75*
G02*
X94063000Y-104627000I0J-200000D01*
G01*
X94063000Y-105177000D01*
G75*
G02*
X93863000Y-105377000I-200000J0D01*
G01*
X93463000Y-105377000D01*
G75*
G02*
X93263000Y-105177000I0J200000D01*
G01*
G37*
G36*
G01*
X112439000Y-114448000D02*
X112439000Y-113898000D01*
G75*
G02*
X112639000Y-113698000I200000J0D01*
G01*
X113039000Y-113698000D01*
G75*
G02*
X113239000Y-113898000I0J-200000D01*
G01*
X113239000Y-114448000D01*
G75*
G02*
X113039000Y-114648000I-200000J0D01*
G01*
X112639000Y-114648000D01*
G75*
G02*
X112439000Y-114448000I0J200000D01*
G01*
G37*
G36*
G01*
X110789000Y-114448000D02*
X110789000Y-113898000D01*
G75*
G02*
X110989000Y-113698000I200000J0D01*
G01*
X111389000Y-113698000D01*
G75*
G02*
X111589000Y-113898000I0J-200000D01*
G01*
X111589000Y-114448000D01*
G75*
G02*
X111389000Y-114648000I-200000J0D01*
G01*
X110989000Y-114648000D01*
G75*
G02*
X110789000Y-114448000I0J200000D01*
G01*
G37*
X105410000Y-148844000D03*
D22*
X102870000Y-148844000D03*
X105410000Y-146304000D03*
X102870000Y-146304000D03*
X105410000Y-143764000D03*
X102870000Y-143764000D03*
X105410000Y-141224000D03*
X102870000Y-141224000D03*
G36*
G01*
X99372000Y-150314000D02*
X99372000Y-151530000D01*
G75*
G02*
X99220000Y-151682000I-152000J0D01*
G01*
X96724000Y-151682000D01*
G75*
G02*
X96572000Y-151530000I0J152000D01*
G01*
X96572000Y-150314000D01*
G75*
G02*
X96724000Y-150162000I152000J0D01*
G01*
X99220000Y-150162000D01*
G75*
G02*
X99372000Y-150314000I0J-152000D01*
G01*
G37*
G36*
G01*
X99372000Y-148314000D02*
X99372000Y-149530000D01*
G75*
G02*
X99220000Y-149682000I-152000J0D01*
G01*
X96724000Y-149682000D01*
G75*
G02*
X96572000Y-149530000I0J152000D01*
G01*
X96572000Y-148314000D01*
G75*
G02*
X96724000Y-148162000I152000J0D01*
G01*
X99220000Y-148162000D01*
G75*
G02*
X99372000Y-148314000I0J-152000D01*
G01*
G37*
G36*
G01*
X99372000Y-146314000D02*
X99372000Y-147530000D01*
G75*
G02*
X99220000Y-147682000I-152000J0D01*
G01*
X96724000Y-147682000D01*
G75*
G02*
X96572000Y-147530000I0J152000D01*
G01*
X96572000Y-146314000D01*
G75*
G02*
X96724000Y-146162000I152000J0D01*
G01*
X99220000Y-146162000D01*
G75*
G02*
X99372000Y-146314000I0J-152000D01*
G01*
G37*
G36*
G01*
X99372000Y-144314000D02*
X99372000Y-145530000D01*
G75*
G02*
X99220000Y-145682000I-152000J0D01*
G01*
X96724000Y-145682000D01*
G75*
G02*
X96572000Y-145530000I0J152000D01*
G01*
X96572000Y-144314000D01*
G75*
G02*
X96724000Y-144162000I152000J0D01*
G01*
X99220000Y-144162000D01*
G75*
G02*
X99372000Y-144314000I0J-152000D01*
G01*
G37*
G36*
G01*
X99372000Y-142314000D02*
X99372000Y-143530000D01*
G75*
G02*
X99220000Y-143682000I-152000J0D01*
G01*
X96724000Y-143682000D01*
G75*
G02*
X96572000Y-143530000I0J152000D01*
G01*
X96572000Y-142314000D01*
G75*
G02*
X96724000Y-142162000I152000J0D01*
G01*
X99220000Y-142162000D01*
G75*
G02*
X99372000Y-142314000I0J-152000D01*
G01*
G37*
G36*
G01*
X99372000Y-140314000D02*
X99372000Y-141530000D01*
G75*
G02*
X99220000Y-141682000I-152000J0D01*
G01*
X96724000Y-141682000D01*
G75*
G02*
X96572000Y-141530000I0J152000D01*
G01*
X96572000Y-140314000D01*
G75*
G02*
X96724000Y-140162000I152000J0D01*
G01*
X99220000Y-140162000D01*
G75*
G02*
X99372000Y-140314000I0J-152000D01*
G01*
G37*
G36*
G01*
X99372000Y-138314000D02*
X99372000Y-139530000D01*
G75*
G02*
X99220000Y-139682000I-152000J0D01*
G01*
X96724000Y-139682000D01*
G75*
G02*
X96572000Y-139530000I0J152000D01*
G01*
X96572000Y-138314000D01*
G75*
G02*
X96724000Y-138162000I152000J0D01*
G01*
X99220000Y-138162000D01*
G75*
G02*
X99372000Y-138314000I0J-152000D01*
G01*
G37*
G36*
G01*
X99372000Y-136314000D02*
X99372000Y-137530000D01*
G75*
G02*
X99220000Y-137682000I-152000J0D01*
G01*
X96724000Y-137682000D01*
G75*
G02*
X96572000Y-137530000I0J152000D01*
G01*
X96572000Y-136314000D01*
G75*
G02*
X96724000Y-136162000I152000J0D01*
G01*
X99220000Y-136162000D01*
G75*
G02*
X99372000Y-136314000I0J-152000D01*
G01*
G37*
G36*
G01*
X99372000Y-134314000D02*
X99372000Y-135530000D01*
G75*
G02*
X99220000Y-135682000I-152000J0D01*
G01*
X96724000Y-135682000D01*
G75*
G02*
X96572000Y-135530000I0J152000D01*
G01*
X96572000Y-134314000D01*
G75*
G02*
X96724000Y-134162000I152000J0D01*
G01*
X99220000Y-134162000D01*
G75*
G02*
X99372000Y-134314000I0J-152000D01*
G01*
G37*
G36*
G01*
X99372000Y-132314000D02*
X99372000Y-133530000D01*
G75*
G02*
X99220000Y-133682000I-152000J0D01*
G01*
X96724000Y-133682000D01*
G75*
G02*
X96572000Y-133530000I0J152000D01*
G01*
X96572000Y-132314000D01*
G75*
G02*
X96724000Y-132162000I152000J0D01*
G01*
X99220000Y-132162000D01*
G75*
G02*
X99372000Y-132314000I0J-152000D01*
G01*
G37*
G36*
G01*
X99372000Y-130314000D02*
X99372000Y-131530000D01*
G75*
G02*
X99220000Y-131682000I-152000J0D01*
G01*
X96724000Y-131682000D01*
G75*
G02*
X96572000Y-131530000I0J152000D01*
G01*
X96572000Y-130314000D01*
G75*
G02*
X96724000Y-130162000I152000J0D01*
G01*
X99220000Y-130162000D01*
G75*
G02*
X99372000Y-130314000I0J-152000D01*
G01*
G37*
G36*
G01*
X99372000Y-128314000D02*
X99372000Y-129530000D01*
G75*
G02*
X99220000Y-129682000I-152000J0D01*
G01*
X96724000Y-129682000D01*
G75*
G02*
X96572000Y-129530000I0J152000D01*
G01*
X96572000Y-128314000D01*
G75*
G02*
X96724000Y-128162000I152000J0D01*
G01*
X99220000Y-128162000D01*
G75*
G02*
X99372000Y-128314000I0J-152000D01*
G01*
G37*
G36*
G01*
X99372000Y-126314000D02*
X99372000Y-127530000D01*
G75*
G02*
X99220000Y-127682000I-152000J0D01*
G01*
X96724000Y-127682000D01*
G75*
G02*
X96572000Y-127530000I0J152000D01*
G01*
X96572000Y-126314000D01*
G75*
G02*
X96724000Y-126162000I152000J0D01*
G01*
X99220000Y-126162000D01*
G75*
G02*
X99372000Y-126314000I0J-152000D01*
G01*
G37*
G36*
G01*
X77672000Y-126314000D02*
X77672000Y-127530000D01*
G75*
G02*
X77520000Y-127682000I-152000J0D01*
G01*
X75024000Y-127682000D01*
G75*
G02*
X74872000Y-127530000I0J152000D01*
G01*
X74872000Y-126314000D01*
G75*
G02*
X75024000Y-126162000I152000J0D01*
G01*
X77520000Y-126162000D01*
G75*
G02*
X77672000Y-126314000I0J-152000D01*
G01*
G37*
G36*
G01*
X77672000Y-128314000D02*
X77672000Y-129530000D01*
G75*
G02*
X77520000Y-129682000I-152000J0D01*
G01*
X75024000Y-129682000D01*
G75*
G02*
X74872000Y-129530000I0J152000D01*
G01*
X74872000Y-128314000D01*
G75*
G02*
X75024000Y-128162000I152000J0D01*
G01*
X77520000Y-128162000D01*
G75*
G02*
X77672000Y-128314000I0J-152000D01*
G01*
G37*
G36*
G01*
X77672000Y-130314000D02*
X77672000Y-131530000D01*
G75*
G02*
X77520000Y-131682000I-152000J0D01*
G01*
X75024000Y-131682000D01*
G75*
G02*
X74872000Y-131530000I0J152000D01*
G01*
X74872000Y-130314000D01*
G75*
G02*
X75024000Y-130162000I152000J0D01*
G01*
X77520000Y-130162000D01*
G75*
G02*
X77672000Y-130314000I0J-152000D01*
G01*
G37*
G36*
G01*
X77672000Y-132314000D02*
X77672000Y-133530000D01*
G75*
G02*
X77520000Y-133682000I-152000J0D01*
G01*
X75024000Y-133682000D01*
G75*
G02*
X74872000Y-133530000I0J152000D01*
G01*
X74872000Y-132314000D01*
G75*
G02*
X75024000Y-132162000I152000J0D01*
G01*
X77520000Y-132162000D01*
G75*
G02*
X77672000Y-132314000I0J-152000D01*
G01*
G37*
G36*
G01*
X77672000Y-134314000D02*
X77672000Y-135530000D01*
G75*
G02*
X77520000Y-135682000I-152000J0D01*
G01*
X75024000Y-135682000D01*
G75*
G02*
X74872000Y-135530000I0J152000D01*
G01*
X74872000Y-134314000D01*
G75*
G02*
X75024000Y-134162000I152000J0D01*
G01*
X77520000Y-134162000D01*
G75*
G02*
X77672000Y-134314000I0J-152000D01*
G01*
G37*
G36*
G01*
X77672000Y-136314000D02*
X77672000Y-137530000D01*
G75*
G02*
X77520000Y-137682000I-152000J0D01*
G01*
X75024000Y-137682000D01*
G75*
G02*
X74872000Y-137530000I0J152000D01*
G01*
X74872000Y-136314000D01*
G75*
G02*
X75024000Y-136162000I152000J0D01*
G01*
X77520000Y-136162000D01*
G75*
G02*
X77672000Y-136314000I0J-152000D01*
G01*
G37*
G36*
G01*
X77672000Y-138314000D02*
X77672000Y-139530000D01*
G75*
G02*
X77520000Y-139682000I-152000J0D01*
G01*
X75024000Y-139682000D01*
G75*
G02*
X74872000Y-139530000I0J152000D01*
G01*
X74872000Y-138314000D01*
G75*
G02*
X75024000Y-138162000I152000J0D01*
G01*
X77520000Y-138162000D01*
G75*
G02*
X77672000Y-138314000I0J-152000D01*
G01*
G37*
G36*
G01*
X77672000Y-140314000D02*
X77672000Y-141530000D01*
G75*
G02*
X77520000Y-141682000I-152000J0D01*
G01*
X75024000Y-141682000D01*
G75*
G02*
X74872000Y-141530000I0J152000D01*
G01*
X74872000Y-140314000D01*
G75*
G02*
X75024000Y-140162000I152000J0D01*
G01*
X77520000Y-140162000D01*
G75*
G02*
X77672000Y-140314000I0J-152000D01*
G01*
G37*
G36*
G01*
X77672000Y-142314000D02*
X77672000Y-143530000D01*
G75*
G02*
X77520000Y-143682000I-152000J0D01*
G01*
X75024000Y-143682000D01*
G75*
G02*
X74872000Y-143530000I0J152000D01*
G01*
X74872000Y-142314000D01*
G75*
G02*
X75024000Y-142162000I152000J0D01*
G01*
X77520000Y-142162000D01*
G75*
G02*
X77672000Y-142314000I0J-152000D01*
G01*
G37*
G36*
G01*
X77672000Y-144314000D02*
X77672000Y-145530000D01*
G75*
G02*
X77520000Y-145682000I-152000J0D01*
G01*
X75024000Y-145682000D01*
G75*
G02*
X74872000Y-145530000I0J152000D01*
G01*
X74872000Y-144314000D01*
G75*
G02*
X75024000Y-144162000I152000J0D01*
G01*
X77520000Y-144162000D01*
G75*
G02*
X77672000Y-144314000I0J-152000D01*
G01*
G37*
G36*
G01*
X77672000Y-146314000D02*
X77672000Y-147530000D01*
G75*
G02*
X77520000Y-147682000I-152000J0D01*
G01*
X75024000Y-147682000D01*
G75*
G02*
X74872000Y-147530000I0J152000D01*
G01*
X74872000Y-146314000D01*
G75*
G02*
X75024000Y-146162000I152000J0D01*
G01*
X77520000Y-146162000D01*
G75*
G02*
X77672000Y-146314000I0J-152000D01*
G01*
G37*
G36*
G01*
X77672000Y-148314000D02*
X77672000Y-149530000D01*
G75*
G02*
X77520000Y-149682000I-152000J0D01*
G01*
X75024000Y-149682000D01*
G75*
G02*
X74872000Y-149530000I0J152000D01*
G01*
X74872000Y-148314000D01*
G75*
G02*
X75024000Y-148162000I152000J0D01*
G01*
X77520000Y-148162000D01*
G75*
G02*
X77672000Y-148314000I0J-152000D01*
G01*
G37*
G36*
G01*
X77672000Y-150314000D02*
X77672000Y-151530000D01*
G75*
G02*
X77520000Y-151682000I-152000J0D01*
G01*
X75024000Y-151682000D01*
G75*
G02*
X74872000Y-151530000I0J152000D01*
G01*
X74872000Y-150314000D01*
G75*
G02*
X75024000Y-150162000I152000J0D01*
G01*
X77520000Y-150162000D01*
G75*
G02*
X77672000Y-150314000I0J-152000D01*
G01*
G37*
G36*
G01*
X77672000Y-152314000D02*
X77672000Y-153530000D01*
G75*
G02*
X77520000Y-153682000I-152000J0D01*
G01*
X75024000Y-153682000D01*
G75*
G02*
X74872000Y-153530000I0J152000D01*
G01*
X74872000Y-152314000D01*
G75*
G02*
X75024000Y-152162000I152000J0D01*
G01*
X77520000Y-152162000D01*
G75*
G02*
X77672000Y-152314000I0J-152000D01*
G01*
G37*
G36*
G01*
X77672000Y-154314000D02*
X77672000Y-155530000D01*
G75*
G02*
X77520000Y-155682000I-152000J0D01*
G01*
X75024000Y-155682000D01*
G75*
G02*
X74872000Y-155530000I0J152000D01*
G01*
X74872000Y-154314000D01*
G75*
G02*
X75024000Y-154162000I152000J0D01*
G01*
X77520000Y-154162000D01*
G75*
G02*
X77672000Y-154314000I0J-152000D01*
G01*
G37*
G36*
G01*
X77672000Y-156314000D02*
X77672000Y-157530000D01*
G75*
G02*
X77520000Y-157682000I-152000J0D01*
G01*
X75024000Y-157682000D01*
G75*
G02*
X74872000Y-157530000I0J152000D01*
G01*
X74872000Y-156314000D01*
G75*
G02*
X75024000Y-156162000I152000J0D01*
G01*
X77520000Y-156162000D01*
G75*
G02*
X77672000Y-156314000I0J-152000D01*
G01*
G37*
G36*
G01*
X94882000Y-123594000D02*
X94882000Y-126090000D01*
G75*
G02*
X94730000Y-126242000I-152000J0D01*
G01*
X93514000Y-126242000D01*
G75*
G02*
X93362000Y-126090000I0J152000D01*
G01*
X93362000Y-123594000D01*
G75*
G02*
X93514000Y-123442000I152000J0D01*
G01*
X94730000Y-123442000D01*
G75*
G02*
X94882000Y-123594000I0J-152000D01*
G01*
G37*
G36*
G01*
X92882000Y-123594000D02*
X92882000Y-126090000D01*
G75*
G02*
X92730000Y-126242000I-152000J0D01*
G01*
X91514000Y-126242000D01*
G75*
G02*
X91362000Y-126090000I0J152000D01*
G01*
X91362000Y-123594000D01*
G75*
G02*
X91514000Y-123442000I152000J0D01*
G01*
X92730000Y-123442000D01*
G75*
G02*
X92882000Y-123594000I0J-152000D01*
G01*
G37*
G36*
G01*
X90882000Y-123594000D02*
X90882000Y-126090000D01*
G75*
G02*
X90730000Y-126242000I-152000J0D01*
G01*
X89514000Y-126242000D01*
G75*
G02*
X89362000Y-126090000I0J152000D01*
G01*
X89362000Y-123594000D01*
G75*
G02*
X89514000Y-123442000I152000J0D01*
G01*
X90730000Y-123442000D01*
G75*
G02*
X90882000Y-123594000I0J-152000D01*
G01*
G37*
G36*
G01*
X88882000Y-123594000D02*
X88882000Y-126090000D01*
G75*
G02*
X88730000Y-126242000I-152000J0D01*
G01*
X87514000Y-126242000D01*
G75*
G02*
X87362000Y-126090000I0J152000D01*
G01*
X87362000Y-123594000D01*
G75*
G02*
X87514000Y-123442000I152000J0D01*
G01*
X88730000Y-123442000D01*
G75*
G02*
X88882000Y-123594000I0J-152000D01*
G01*
G37*
G36*
G01*
X86882000Y-123594000D02*
X86882000Y-126090000D01*
G75*
G02*
X86730000Y-126242000I-152000J0D01*
G01*
X85514000Y-126242000D01*
G75*
G02*
X85362000Y-126090000I0J152000D01*
G01*
X85362000Y-123594000D01*
G75*
G02*
X85514000Y-123442000I152000J0D01*
G01*
X86730000Y-123442000D01*
G75*
G02*
X86882000Y-123594000I0J-152000D01*
G01*
G37*
G36*
G01*
X84882000Y-123594000D02*
X84882000Y-126090000D01*
G75*
G02*
X84730000Y-126242000I-152000J0D01*
G01*
X83514000Y-126242000D01*
G75*
G02*
X83362000Y-126090000I0J152000D01*
G01*
X83362000Y-123594000D01*
G75*
G02*
X83514000Y-123442000I152000J0D01*
G01*
X84730000Y-123442000D01*
G75*
G02*
X84882000Y-123594000I0J-152000D01*
G01*
G37*
G36*
G01*
X82882000Y-123594000D02*
X82882000Y-126090000D01*
G75*
G02*
X82730000Y-126242000I-152000J0D01*
G01*
X81514000Y-126242000D01*
G75*
G02*
X81362000Y-126090000I0J152000D01*
G01*
X81362000Y-123594000D01*
G75*
G02*
X81514000Y-123442000I152000J0D01*
G01*
X82730000Y-123442000D01*
G75*
G02*
X82882000Y-123594000I0J-152000D01*
G01*
G37*
G36*
G01*
X80882000Y-123594000D02*
X80882000Y-126090000D01*
G75*
G02*
X80730000Y-126242000I-152000J0D01*
G01*
X79514000Y-126242000D01*
G75*
G02*
X79362000Y-126090000I0J152000D01*
G01*
X79362000Y-123594000D01*
G75*
G02*
X79514000Y-123442000I152000J0D01*
G01*
X80730000Y-123442000D01*
G75*
G02*
X80882000Y-123594000I0J-152000D01*
G01*
G37*
G36*
G01*
X93272000Y-146841000D02*
X93272000Y-149073000D01*
G75*
G02*
X92993000Y-149352000I-279000J0D01*
G01*
X90761000Y-149352000D01*
G75*
G02*
X90482000Y-149073000I0J279000D01*
G01*
X90482000Y-146841000D01*
G75*
G02*
X90761000Y-146562000I279000J0D01*
G01*
X92993000Y-146562000D01*
G75*
G02*
X93272000Y-146841000I0J-279000D01*
G01*
G37*
G36*
G01*
X145697000Y-106985750D02*
X145697000Y-107898250D01*
G75*
G02*
X145453250Y-108142000I-243750J0D01*
G01*
X144965750Y-108142000D01*
G75*
G02*
X144722000Y-107898250I0J243750D01*
G01*
X144722000Y-106985750D01*
G75*
G02*
X144965750Y-106742000I243750J0D01*
G01*
X145453250Y-106742000D01*
G75*
G02*
X145697000Y-106985750I0J-243750D01*
G01*
G37*
G36*
G01*
X143822000Y-106985750D02*
X143822000Y-107898250D01*
G75*
G02*
X143578250Y-108142000I-243750J0D01*
G01*
X143090750Y-108142000D01*
G75*
G02*
X142847000Y-107898250I0J243750D01*
G01*
X142847000Y-106985750D01*
G75*
G02*
X143090750Y-106742000I243750J0D01*
G01*
X143578250Y-106742000D01*
G75*
G02*
X143822000Y-106985750I0J-243750D01*
G01*
G37*
G36*
G01*
X141426250Y-103944000D02*
X140513750Y-103944000D01*
G75*
G02*
X140270000Y-103700250I0J243750D01*
G01*
X140270000Y-103212750D01*
G75*
G02*
X140513750Y-102969000I243750J0D01*
G01*
X141426250Y-102969000D01*
G75*
G02*
X141670000Y-103212750I0J-243750D01*
G01*
X141670000Y-103700250D01*
G75*
G02*
X141426250Y-103944000I-243750J0D01*
G01*
G37*
G36*
G01*
X141426250Y-105819000D02*
X140513750Y-105819000D01*
G75*
G02*
X140270000Y-105575250I0J243750D01*
G01*
X140270000Y-105087750D01*
G75*
G02*
X140513750Y-104844000I243750J0D01*
G01*
X141426250Y-104844000D01*
G75*
G02*
X141670000Y-105087750I0J-243750D01*
G01*
X141670000Y-105575250D01*
G75*
G02*
X141426250Y-105819000I-243750J0D01*
G01*
G37*
G36*
G01*
X139194250Y-105619000D02*
X138681750Y-105619000D01*
G75*
G02*
X138463000Y-105400250I0J218750D01*
G01*
X138463000Y-104962750D01*
G75*
G02*
X138681750Y-104744000I218750J0D01*
G01*
X139194250Y-104744000D01*
G75*
G02*
X139413000Y-104962750I0J-218750D01*
G01*
X139413000Y-105400250D01*
G75*
G02*
X139194250Y-105619000I-218750J0D01*
G01*
G37*
G36*
G01*
X139194250Y-104044000D02*
X138681750Y-104044000D01*
G75*
G02*
X138463000Y-103825250I0J218750D01*
G01*
X138463000Y-103387750D01*
G75*
G02*
X138681750Y-103169000I218750J0D01*
G01*
X139194250Y-103169000D01*
G75*
G02*
X139413000Y-103387750I0J-218750D01*
G01*
X139413000Y-103825250D01*
G75*
G02*
X139194250Y-104044000I-218750J0D01*
G01*
G37*
G36*
G01*
X147830250Y-105619000D02*
X147317750Y-105619000D01*
G75*
G02*
X147099000Y-105400250I0J218750D01*
G01*
X147099000Y-104962750D01*
G75*
G02*
X147317750Y-104744000I218750J0D01*
G01*
X147830250Y-104744000D01*
G75*
G02*
X148049000Y-104962750I0J-218750D01*
G01*
X148049000Y-105400250D01*
G75*
G02*
X147830250Y-105619000I-218750J0D01*
G01*
G37*
G36*
G01*
X147830250Y-104044000D02*
X147317750Y-104044000D01*
G75*
G02*
X147099000Y-103825250I0J218750D01*
G01*
X147099000Y-103387750D01*
G75*
G02*
X147317750Y-103169000I218750J0D01*
G01*
X147830250Y-103169000D01*
G75*
G02*
X148049000Y-103387750I0J-218750D01*
G01*
X148049000Y-103825250D01*
G75*
G02*
X147830250Y-104044000I-218750J0D01*
G01*
G37*
D41*
X145372000Y-105344000D03*
X145372000Y-104394000D03*
X145372000Y-103444000D03*
X143172000Y-103444000D03*
X143172000Y-105344000D03*
M02*
