G04 #@! TF.GenerationSoftware,KiCad,Pcbnew,(5.1.5)-3*
G04 #@! TF.CreationDate,2020-03-31T13:56:33-05:00*
G04 #@! TF.ProjectId,control_pcb,636f6e74-726f-46c5-9f70-63622e6b6963,rev?*
G04 #@! TF.SameCoordinates,Original*
G04 #@! TF.FileFunction,Paste,Top*
G04 #@! TF.FilePolarity,Positive*
%FSLAX46Y46*%
G04 Gerber Fmt 4.6, Leading zero omitted, Abs format (unit mm)*
G04 Created by KiCad (PCBNEW (5.1.5)-3) date 2020-03-31 13:56:33*
%MOMM*%
%LPD*%
G04 APERTURE LIST*
%ADD10C,0.000100*%
%ADD11R,2.300000X4.500000*%
%ADD12R,0.750000X1.200000*%
%ADD13R,1.200000X0.750000*%
%ADD14R,0.700000X2.000000*%
%ADD15R,1.000000X2.600000*%
%ADD16R,1.500000X2.600000*%
%ADD17R,2.700000X1.400000*%
%ADD18R,1.200000X1.200000*%
%ADD19R,0.900000X1.200000*%
%ADD20R,1.200000X0.900000*%
%ADD21R,4.900000X2.000000*%
%ADD22R,0.250000X1.300000*%
%ADD23R,1.300000X0.250000*%
%ADD24R,1.168400X0.355600*%
%ADD25R,0.800000X0.550000*%
%ADD26R,0.700000X1.800000*%
%ADD27R,0.800000X1.800000*%
%ADD28R,2.000000X7.875000*%
%ADD29R,1.500000X0.450000*%
%ADD30R,1.100000X1.500000*%
%ADD31R,0.800000X0.900000*%
%ADD32C,0.100000*%
G04 APERTURE END LIST*
D10*
G36*
X101233000Y-143864000D02*
G01*
X101233000Y-145264000D01*
X101133000Y-145264000D01*
X101133000Y-146164000D01*
X100633000Y-146164000D01*
X100633000Y-145264000D01*
X100533000Y-145264000D01*
X100533000Y-143864000D01*
X101233000Y-143864000D01*
G37*
X101233000Y-143864000D02*
X101233000Y-145264000D01*
X101133000Y-145264000D01*
X101133000Y-146164000D01*
X100633000Y-146164000D01*
X100633000Y-145264000D01*
X100533000Y-145264000D01*
X100533000Y-143864000D01*
X101233000Y-143864000D01*
G36*
X102383000Y-143864000D02*
G01*
X102383000Y-145264000D01*
X102283000Y-145264000D01*
X102283000Y-146164000D01*
X101683000Y-146164000D01*
X101683000Y-145264000D01*
X101583000Y-145264000D01*
X101583000Y-143864000D01*
X102383000Y-143864000D01*
G37*
X102383000Y-143864000D02*
X102383000Y-145264000D01*
X102283000Y-145264000D01*
X102283000Y-146164000D01*
X101683000Y-146164000D01*
X101683000Y-145264000D01*
X101583000Y-145264000D01*
X101583000Y-143864000D01*
X102383000Y-143864000D01*
G36*
X103483000Y-143864000D02*
G01*
X103483000Y-145264000D01*
X103383000Y-145264000D01*
X103383000Y-146164000D01*
X102783000Y-146164000D01*
X102783000Y-145264000D01*
X102683000Y-145264000D01*
X102683000Y-143864000D01*
X103483000Y-143864000D01*
G37*
X103483000Y-143864000D02*
X103483000Y-145264000D01*
X103383000Y-145264000D01*
X103383000Y-146164000D01*
X102783000Y-146164000D01*
X102783000Y-145264000D01*
X102683000Y-145264000D01*
X102683000Y-143864000D01*
X103483000Y-143864000D01*
G36*
X104583000Y-143864000D02*
G01*
X104583000Y-145264000D01*
X104483000Y-145264000D01*
X104483000Y-146164000D01*
X103883000Y-146164000D01*
X103883000Y-145264000D01*
X103783000Y-145264000D01*
X103783000Y-143864000D01*
X104583000Y-143864000D01*
G37*
X104583000Y-143864000D02*
X104583000Y-145264000D01*
X104483000Y-145264000D01*
X104483000Y-146164000D01*
X103883000Y-146164000D01*
X103883000Y-145264000D01*
X103783000Y-145264000D01*
X103783000Y-143864000D01*
X104583000Y-143864000D01*
G36*
X105683000Y-143864000D02*
G01*
X105683000Y-145264000D01*
X105583000Y-145264000D01*
X105583000Y-146164000D01*
X104983000Y-146164000D01*
X104983000Y-145264000D01*
X104883000Y-145264000D01*
X104883000Y-143864000D01*
X105683000Y-143864000D01*
G37*
X105683000Y-143864000D02*
X105683000Y-145264000D01*
X105583000Y-145264000D01*
X105583000Y-146164000D01*
X104983000Y-146164000D01*
X104983000Y-145264000D01*
X104883000Y-145264000D01*
X104883000Y-143864000D01*
X105683000Y-143864000D01*
G36*
X106783000Y-143864000D02*
G01*
X106783000Y-145264000D01*
X106683000Y-145264000D01*
X106683000Y-146164000D01*
X106083000Y-146164000D01*
X106083000Y-145264000D01*
X105983000Y-145264000D01*
X105983000Y-143864000D01*
X106783000Y-143864000D01*
G37*
X106783000Y-143864000D02*
X106783000Y-145264000D01*
X106683000Y-145264000D01*
X106683000Y-146164000D01*
X106083000Y-146164000D01*
X106083000Y-145264000D01*
X105983000Y-145264000D01*
X105983000Y-143864000D01*
X106783000Y-143864000D01*
G36*
X107883000Y-143864000D02*
G01*
X107883000Y-145264000D01*
X107783000Y-145264000D01*
X107783000Y-146164000D01*
X107183000Y-146164000D01*
X107183000Y-145264000D01*
X107083000Y-145264000D01*
X107083000Y-143864000D01*
X107883000Y-143864000D01*
G37*
X107883000Y-143864000D02*
X107883000Y-145264000D01*
X107783000Y-145264000D01*
X107783000Y-146164000D01*
X107183000Y-146164000D01*
X107183000Y-145264000D01*
X107083000Y-145264000D01*
X107083000Y-143864000D01*
X107883000Y-143864000D01*
G36*
X108983000Y-143864000D02*
G01*
X108983000Y-145264000D01*
X108883000Y-145264000D01*
X108883000Y-146164000D01*
X108283000Y-146164000D01*
X108283000Y-145264000D01*
X108183000Y-145264000D01*
X108183000Y-143864000D01*
X108983000Y-143864000D01*
G37*
X108983000Y-143864000D02*
X108983000Y-145264000D01*
X108883000Y-145264000D01*
X108883000Y-146164000D01*
X108283000Y-146164000D01*
X108283000Y-145264000D01*
X108183000Y-145264000D01*
X108183000Y-143864000D01*
X108983000Y-143864000D01*
G36*
X110033000Y-143864000D02*
G01*
X110033000Y-145264000D01*
X109933000Y-145264000D01*
X109933000Y-146164000D01*
X109433000Y-146164000D01*
X109433000Y-145264000D01*
X109333000Y-145264000D01*
X109333000Y-143864000D01*
X110033000Y-143864000D01*
G37*
X110033000Y-143864000D02*
X110033000Y-145264000D01*
X109933000Y-145264000D01*
X109933000Y-146164000D01*
X109433000Y-146164000D01*
X109433000Y-145264000D01*
X109333000Y-145264000D01*
X109333000Y-143864000D01*
X110033000Y-143864000D01*
G36*
X109333000Y-156364000D02*
G01*
X109333000Y-154964000D01*
X109433000Y-154964000D01*
X109433000Y-154064000D01*
X109933000Y-154064000D01*
X109933000Y-154964000D01*
X110033000Y-154964000D01*
X110033000Y-156364000D01*
X109333000Y-156364000D01*
G37*
X109333000Y-156364000D02*
X109333000Y-154964000D01*
X109433000Y-154964000D01*
X109433000Y-154064000D01*
X109933000Y-154064000D01*
X109933000Y-154964000D01*
X110033000Y-154964000D01*
X110033000Y-156364000D01*
X109333000Y-156364000D01*
G36*
X108183000Y-156364000D02*
G01*
X108183000Y-154964000D01*
X108283000Y-154964000D01*
X108283000Y-154064000D01*
X108883000Y-154064000D01*
X108883000Y-154964000D01*
X108983000Y-154964000D01*
X108983000Y-156364000D01*
X108183000Y-156364000D01*
G37*
X108183000Y-156364000D02*
X108183000Y-154964000D01*
X108283000Y-154964000D01*
X108283000Y-154064000D01*
X108883000Y-154064000D01*
X108883000Y-154964000D01*
X108983000Y-154964000D01*
X108983000Y-156364000D01*
X108183000Y-156364000D01*
G36*
X107083000Y-156364000D02*
G01*
X107083000Y-154964000D01*
X107183000Y-154964000D01*
X107183000Y-154064000D01*
X107783000Y-154064000D01*
X107783000Y-154964000D01*
X107883000Y-154964000D01*
X107883000Y-156364000D01*
X107083000Y-156364000D01*
G37*
X107083000Y-156364000D02*
X107083000Y-154964000D01*
X107183000Y-154964000D01*
X107183000Y-154064000D01*
X107783000Y-154064000D01*
X107783000Y-154964000D01*
X107883000Y-154964000D01*
X107883000Y-156364000D01*
X107083000Y-156364000D01*
G36*
X105983000Y-156364000D02*
G01*
X105983000Y-154964000D01*
X106083000Y-154964000D01*
X106083000Y-154064000D01*
X106683000Y-154064000D01*
X106683000Y-154964000D01*
X106783000Y-154964000D01*
X106783000Y-156364000D01*
X105983000Y-156364000D01*
G37*
X105983000Y-156364000D02*
X105983000Y-154964000D01*
X106083000Y-154964000D01*
X106083000Y-154064000D01*
X106683000Y-154064000D01*
X106683000Y-154964000D01*
X106783000Y-154964000D01*
X106783000Y-156364000D01*
X105983000Y-156364000D01*
G36*
X104883000Y-156364000D02*
G01*
X104883000Y-154964000D01*
X104983000Y-154964000D01*
X104983000Y-154064000D01*
X105583000Y-154064000D01*
X105583000Y-154964000D01*
X105683000Y-154964000D01*
X105683000Y-156364000D01*
X104883000Y-156364000D01*
G37*
X104883000Y-156364000D02*
X104883000Y-154964000D01*
X104983000Y-154964000D01*
X104983000Y-154064000D01*
X105583000Y-154064000D01*
X105583000Y-154964000D01*
X105683000Y-154964000D01*
X105683000Y-156364000D01*
X104883000Y-156364000D01*
G36*
X103783000Y-156364000D02*
G01*
X103783000Y-154964000D01*
X103883000Y-154964000D01*
X103883000Y-154064000D01*
X104483000Y-154064000D01*
X104483000Y-154964000D01*
X104583000Y-154964000D01*
X104583000Y-156364000D01*
X103783000Y-156364000D01*
G37*
X103783000Y-156364000D02*
X103783000Y-154964000D01*
X103883000Y-154964000D01*
X103883000Y-154064000D01*
X104483000Y-154064000D01*
X104483000Y-154964000D01*
X104583000Y-154964000D01*
X104583000Y-156364000D01*
X103783000Y-156364000D01*
G36*
X102683000Y-156364000D02*
G01*
X102683000Y-154964000D01*
X102783000Y-154964000D01*
X102783000Y-154064000D01*
X103383000Y-154064000D01*
X103383000Y-154964000D01*
X103483000Y-154964000D01*
X103483000Y-156364000D01*
X102683000Y-156364000D01*
G37*
X102683000Y-156364000D02*
X102683000Y-154964000D01*
X102783000Y-154964000D01*
X102783000Y-154064000D01*
X103383000Y-154064000D01*
X103383000Y-154964000D01*
X103483000Y-154964000D01*
X103483000Y-156364000D01*
X102683000Y-156364000D01*
G36*
X101583000Y-156364000D02*
G01*
X101583000Y-154964000D01*
X101683000Y-154964000D01*
X101683000Y-154064000D01*
X102283000Y-154064000D01*
X102283000Y-154964000D01*
X102383000Y-154964000D01*
X102383000Y-156364000D01*
X101583000Y-156364000D01*
G37*
X101583000Y-156364000D02*
X101583000Y-154964000D01*
X101683000Y-154964000D01*
X101683000Y-154064000D01*
X102283000Y-154064000D01*
X102283000Y-154964000D01*
X102383000Y-154964000D01*
X102383000Y-156364000D01*
X101583000Y-156364000D01*
G36*
X100533000Y-156364000D02*
G01*
X100533000Y-154964000D01*
X100633000Y-154964000D01*
X100633000Y-154064000D01*
X101133000Y-154064000D01*
X101133000Y-154964000D01*
X101233000Y-154964000D01*
X101233000Y-156364000D01*
X100533000Y-156364000D01*
G37*
X100533000Y-156364000D02*
X100533000Y-154964000D01*
X100633000Y-154964000D01*
X100633000Y-154064000D01*
X101133000Y-154064000D01*
X101133000Y-154964000D01*
X101233000Y-154964000D01*
X101233000Y-156364000D01*
X100533000Y-156364000D01*
D11*
X100965000Y-134975000D03*
X100965000Y-118575000D03*
D12*
X131318000Y-125161000D03*
X131318000Y-127061000D03*
D13*
X116525000Y-148590000D03*
X118425000Y-148590000D03*
X118425000Y-150495000D03*
X116525000Y-150495000D03*
D12*
X125476000Y-112207000D03*
X125476000Y-114107000D03*
X101981000Y-159827000D03*
X101981000Y-157927000D03*
X98679000Y-157927000D03*
X98679000Y-159827000D03*
D14*
X126042001Y-170195001D03*
X127142001Y-170195001D03*
X128242001Y-170195001D03*
X129342001Y-170195001D03*
X130442001Y-170195001D03*
X131542001Y-170195001D03*
X132642001Y-170195001D03*
X133742001Y-170195001D03*
D15*
X123942001Y-169695001D03*
D16*
X137292001Y-169695001D03*
D17*
X132342001Y-157495001D03*
X127442001Y-157495001D03*
D18*
X135392001Y-157395001D03*
D19*
X100330000Y-157777000D03*
X100330000Y-159977000D03*
D20*
X133561000Y-114046000D03*
X131361000Y-114046000D03*
X131361000Y-112395000D03*
X133561000Y-112395000D03*
D19*
X106045000Y-142324000D03*
X106045000Y-140124000D03*
D21*
X96520000Y-155366000D03*
X96520000Y-151466000D03*
D22*
X137966000Y-137890000D03*
X138466000Y-137890000D03*
X138966000Y-137890000D03*
X139466000Y-137890000D03*
X139966000Y-137890000D03*
X140466000Y-137890000D03*
X140966000Y-137890000D03*
X141466000Y-137890000D03*
X141966000Y-137890000D03*
X142466000Y-137890000D03*
X142966000Y-137890000D03*
X143466000Y-137890000D03*
D23*
X145066000Y-139490000D03*
X145066000Y-139990000D03*
X145066000Y-140490000D03*
X145066000Y-140990000D03*
X145066000Y-141490000D03*
X145066000Y-141990000D03*
X145066000Y-142490000D03*
X145066000Y-142990000D03*
X145066000Y-143490000D03*
X145066000Y-143990000D03*
X145066000Y-144490000D03*
X145066000Y-144990000D03*
D22*
X143466000Y-146590000D03*
X142966000Y-146590000D03*
X142466000Y-146590000D03*
X141966000Y-146590000D03*
X141466000Y-146590000D03*
X140966000Y-146590000D03*
X140466000Y-146590000D03*
X139966000Y-146590000D03*
X139466000Y-146590000D03*
X138966000Y-146590000D03*
X138466000Y-146590000D03*
X137966000Y-146590000D03*
D23*
X136366000Y-144990000D03*
X136366000Y-144490000D03*
X136366000Y-143990000D03*
X136366000Y-143490000D03*
X136366000Y-142990000D03*
X136366000Y-142490000D03*
X136366000Y-141990000D03*
X136366000Y-141490000D03*
X136366000Y-140990000D03*
X136366000Y-140490000D03*
X136366000Y-139990000D03*
X136366000Y-139490000D03*
D24*
X129120900Y-124826001D03*
X129120900Y-125476000D03*
X129120900Y-126125999D03*
X127165100Y-126125999D03*
X127165100Y-125476000D03*
X127165100Y-124826001D03*
D25*
X129550000Y-114114001D03*
X129550000Y-113164001D03*
X129550000Y-112214001D03*
X127150000Y-112214001D03*
X127150000Y-114114001D03*
D26*
X109683000Y-145364000D03*
D27*
X108583000Y-145364000D03*
X107483000Y-145364000D03*
X106383000Y-145364000D03*
X105283000Y-145364000D03*
X104183000Y-145364000D03*
X103083000Y-145364000D03*
X101983000Y-145364000D03*
D26*
X100883000Y-145364000D03*
X100883000Y-154864000D03*
D27*
X101983000Y-154864000D03*
X103083000Y-154864000D03*
X104183000Y-154864000D03*
X105283000Y-154864000D03*
X106383000Y-154864000D03*
X107483000Y-154864000D03*
X108583000Y-154864000D03*
D26*
X109683000Y-154864000D03*
D28*
X125984000Y-147669500D03*
X125984000Y-135794500D03*
D13*
X123124000Y-116967000D03*
X121224000Y-116967000D03*
D29*
X131093000Y-117359000D03*
X131093000Y-118009000D03*
X131093000Y-118659000D03*
X131093000Y-119309000D03*
X131093000Y-119959000D03*
X131093000Y-120609000D03*
X131093000Y-121259000D03*
X131093000Y-121909000D03*
X125193000Y-121909000D03*
X125193000Y-121259000D03*
X125193000Y-120609000D03*
X125193000Y-119959000D03*
X125193000Y-119309000D03*
X125193000Y-118659000D03*
X125193000Y-118009000D03*
X125193000Y-117359000D03*
D30*
X141732000Y-164597000D03*
X144272000Y-164597000D03*
X146812000Y-164597000D03*
X146812000Y-155697000D03*
X144272000Y-155697000D03*
X141732000Y-155697000D03*
D31*
X134239000Y-107807000D03*
X133289000Y-105807000D03*
X135189000Y-105807000D03*
D20*
X135339000Y-104013000D03*
X133139000Y-104013000D03*
D32*
G36*
X87799779Y-105444144D02*
G01*
X87822834Y-105447563D01*
X87845443Y-105453227D01*
X87867387Y-105461079D01*
X87888457Y-105471044D01*
X87908448Y-105483026D01*
X87927168Y-105496910D01*
X87944438Y-105512562D01*
X87960090Y-105529832D01*
X87973974Y-105548552D01*
X87985956Y-105568543D01*
X87995921Y-105589613D01*
X88003773Y-105611557D01*
X88009437Y-105634166D01*
X88012856Y-105657221D01*
X88014000Y-105680500D01*
X88014000Y-106155500D01*
X88012856Y-106178779D01*
X88009437Y-106201834D01*
X88003773Y-106224443D01*
X87995921Y-106246387D01*
X87985956Y-106267457D01*
X87973974Y-106287448D01*
X87960090Y-106306168D01*
X87944438Y-106323438D01*
X87927168Y-106339090D01*
X87908448Y-106352974D01*
X87888457Y-106364956D01*
X87867387Y-106374921D01*
X87845443Y-106382773D01*
X87822834Y-106388437D01*
X87799779Y-106391856D01*
X87776500Y-106393000D01*
X87201500Y-106393000D01*
X87178221Y-106391856D01*
X87155166Y-106388437D01*
X87132557Y-106382773D01*
X87110613Y-106374921D01*
X87089543Y-106364956D01*
X87069552Y-106352974D01*
X87050832Y-106339090D01*
X87033562Y-106323438D01*
X87017910Y-106306168D01*
X87004026Y-106287448D01*
X86992044Y-106267457D01*
X86982079Y-106246387D01*
X86974227Y-106224443D01*
X86968563Y-106201834D01*
X86965144Y-106178779D01*
X86964000Y-106155500D01*
X86964000Y-105680500D01*
X86965144Y-105657221D01*
X86968563Y-105634166D01*
X86974227Y-105611557D01*
X86982079Y-105589613D01*
X86992044Y-105568543D01*
X87004026Y-105548552D01*
X87017910Y-105529832D01*
X87033562Y-105512562D01*
X87050832Y-105496910D01*
X87069552Y-105483026D01*
X87089543Y-105471044D01*
X87110613Y-105461079D01*
X87132557Y-105453227D01*
X87155166Y-105447563D01*
X87178221Y-105444144D01*
X87201500Y-105443000D01*
X87776500Y-105443000D01*
X87799779Y-105444144D01*
G37*
G36*
X86049779Y-105444144D02*
G01*
X86072834Y-105447563D01*
X86095443Y-105453227D01*
X86117387Y-105461079D01*
X86138457Y-105471044D01*
X86158448Y-105483026D01*
X86177168Y-105496910D01*
X86194438Y-105512562D01*
X86210090Y-105529832D01*
X86223974Y-105548552D01*
X86235956Y-105568543D01*
X86245921Y-105589613D01*
X86253773Y-105611557D01*
X86259437Y-105634166D01*
X86262856Y-105657221D01*
X86264000Y-105680500D01*
X86264000Y-106155500D01*
X86262856Y-106178779D01*
X86259437Y-106201834D01*
X86253773Y-106224443D01*
X86245921Y-106246387D01*
X86235956Y-106267457D01*
X86223974Y-106287448D01*
X86210090Y-106306168D01*
X86194438Y-106323438D01*
X86177168Y-106339090D01*
X86158448Y-106352974D01*
X86138457Y-106364956D01*
X86117387Y-106374921D01*
X86095443Y-106382773D01*
X86072834Y-106388437D01*
X86049779Y-106391856D01*
X86026500Y-106393000D01*
X85451500Y-106393000D01*
X85428221Y-106391856D01*
X85405166Y-106388437D01*
X85382557Y-106382773D01*
X85360613Y-106374921D01*
X85339543Y-106364956D01*
X85319552Y-106352974D01*
X85300832Y-106339090D01*
X85283562Y-106323438D01*
X85267910Y-106306168D01*
X85254026Y-106287448D01*
X85242044Y-106267457D01*
X85232079Y-106246387D01*
X85224227Y-106224443D01*
X85218563Y-106201834D01*
X85215144Y-106178779D01*
X85214000Y-106155500D01*
X85214000Y-105680500D01*
X85215144Y-105657221D01*
X85218563Y-105634166D01*
X85224227Y-105611557D01*
X85232079Y-105589613D01*
X85242044Y-105568543D01*
X85254026Y-105548552D01*
X85267910Y-105529832D01*
X85283562Y-105512562D01*
X85300832Y-105496910D01*
X85319552Y-105483026D01*
X85339543Y-105471044D01*
X85360613Y-105461079D01*
X85382557Y-105453227D01*
X85405166Y-105447563D01*
X85428221Y-105444144D01*
X85451500Y-105443000D01*
X86026500Y-105443000D01*
X86049779Y-105444144D01*
G37*
M02*
