G04 #@! TF.GenerationSoftware,KiCad,Pcbnew,(5.1.7)-1*
G04 #@! TF.CreationDate,2021-11-22T15:07:37-06:00*
G04 #@! TF.ProjectId,control_pcb,636f6e74-726f-46c5-9f70-63622e6b6963,3.1*
G04 #@! TF.SameCoordinates,Original*
G04 #@! TF.FileFunction,Copper,L1,Top*
G04 #@! TF.FilePolarity,Positive*
%FSLAX46Y46*%
G04 Gerber Fmt 4.6, Leading zero omitted, Abs format (unit mm)*
G04 Created by KiCad (PCBNEW (5.1.7)-1) date 2021-11-22 15:07:37*
%MOMM*%
%LPD*%
G01*
G04 APERTURE LIST*
G04 #@! TA.AperFunction,ComponentPad*
%ADD10O,1.700000X1.700000*%
G04 #@! TD*
G04 #@! TA.AperFunction,ComponentPad*
%ADD11R,1.700000X1.700000*%
G04 #@! TD*
G04 #@! TA.AperFunction,SMDPad,CuDef*
%ADD12R,0.250000X1.300000*%
G04 #@! TD*
G04 #@! TA.AperFunction,SMDPad,CuDef*
%ADD13R,1.300000X0.250000*%
G04 #@! TD*
G04 #@! TA.AperFunction,SMDPad,CuDef*
%ADD14R,0.700000X2.000000*%
G04 #@! TD*
G04 #@! TA.AperFunction,SMDPad,CuDef*
%ADD15R,1.000000X2.600000*%
G04 #@! TD*
G04 #@! TA.AperFunction,SMDPad,CuDef*
%ADD16R,1.500000X2.600000*%
G04 #@! TD*
G04 #@! TA.AperFunction,SMDPad,CuDef*
%ADD17R,2.700000X1.400000*%
G04 #@! TD*
G04 #@! TA.AperFunction,SMDPad,CuDef*
%ADD18R,1.200000X1.200000*%
G04 #@! TD*
G04 #@! TA.AperFunction,ComponentPad*
%ADD19C,2.300000*%
G04 #@! TD*
G04 #@! TA.AperFunction,ComponentPad*
%ADD20C,1.500000*%
G04 #@! TD*
G04 #@! TA.AperFunction,SMDPad,CuDef*
%ADD21R,1.200000X0.900000*%
G04 #@! TD*
G04 #@! TA.AperFunction,ComponentPad*
%ADD22C,1.620000*%
G04 #@! TD*
G04 #@! TA.AperFunction,SMDPad,CuDef*
%ADD23R,0.800000X0.550000*%
G04 #@! TD*
G04 #@! TA.AperFunction,SMDPad,CuDef*
%ADD24R,1.800000X0.700000*%
G04 #@! TD*
G04 #@! TA.AperFunction,SMDPad,CuDef*
%ADD25R,1.800000X0.800000*%
G04 #@! TD*
G04 #@! TA.AperFunction,ComponentPad*
%ADD26C,5.700000*%
G04 #@! TD*
G04 #@! TA.AperFunction,SMDPad,CuDef*
%ADD27R,1.100000X1.500000*%
G04 #@! TD*
G04 #@! TA.AperFunction,SMDPad,CuDef*
%ADD28R,0.800000X0.900000*%
G04 #@! TD*
G04 #@! TA.AperFunction,SMDPad,CuDef*
%ADD29R,1.100000X1.100000*%
G04 #@! TD*
G04 #@! TA.AperFunction,SMDPad,CuDef*
%ADD30R,1.600000X0.550000*%
G04 #@! TD*
G04 #@! TA.AperFunction,SMDPad,CuDef*
%ADD31R,0.550000X1.600000*%
G04 #@! TD*
G04 #@! TA.AperFunction,SMDPad,CuDef*
%ADD32R,0.650000X1.060000*%
G04 #@! TD*
G04 #@! TA.AperFunction,SMDPad,CuDef*
%ADD33R,1.900000X0.400000*%
G04 #@! TD*
G04 #@! TA.AperFunction,SMDPad,CuDef*
%ADD34C,1.000000*%
G04 #@! TD*
G04 #@! TA.AperFunction,ComponentPad*
%ADD35R,1.800000X1.800000*%
G04 #@! TD*
G04 #@! TA.AperFunction,ComponentPad*
%ADD36C,1.800000*%
G04 #@! TD*
G04 #@! TA.AperFunction,ComponentPad*
%ADD37C,1.509000*%
G04 #@! TD*
G04 #@! TA.AperFunction,ViaPad*
%ADD38C,0.508000*%
G04 #@! TD*
G04 #@! TA.AperFunction,ViaPad*
%ADD39C,1.016000*%
G04 #@! TD*
G04 #@! TA.AperFunction,Conductor*
%ADD40C,0.304800*%
G04 #@! TD*
G04 #@! TA.AperFunction,Conductor*
%ADD41C,0.508000*%
G04 #@! TD*
G04 #@! TA.AperFunction,Conductor*
%ADD42C,0.152400*%
G04 #@! TD*
G04 #@! TA.AperFunction,Conductor*
%ADD43C,0.635000*%
G04 #@! TD*
G04 #@! TA.AperFunction,Conductor*
%ADD44C,0.347980*%
G04 #@! TD*
G04 #@! TA.AperFunction,Conductor*
%ADD45C,1.270000*%
G04 #@! TD*
G04 APERTURE END LIST*
D10*
X154432000Y-135890000D03*
X154432000Y-133350000D03*
X154432000Y-130810000D03*
D11*
X154432000Y-128270000D03*
D12*
X137966000Y-137890000D03*
X138466000Y-137890000D03*
X138966000Y-137890000D03*
X139466000Y-137890000D03*
X139966000Y-137890000D03*
X140466000Y-137890000D03*
X140966000Y-137890000D03*
X141466000Y-137890000D03*
X141966000Y-137890000D03*
X142466000Y-137890000D03*
X142966000Y-137890000D03*
X143466000Y-137890000D03*
D13*
X145066000Y-139490000D03*
X145066000Y-139990000D03*
X145066000Y-140490000D03*
X145066000Y-140990000D03*
X145066000Y-141490000D03*
X145066000Y-141990000D03*
X145066000Y-142490000D03*
X145066000Y-142990000D03*
X145066000Y-143490000D03*
X145066000Y-143990000D03*
X145066000Y-144490000D03*
X145066000Y-144990000D03*
D12*
X143466000Y-146590000D03*
X142966000Y-146590000D03*
X142466000Y-146590000D03*
X141966000Y-146590000D03*
X141466000Y-146590000D03*
X140966000Y-146590000D03*
X140466000Y-146590000D03*
X139966000Y-146590000D03*
X139466000Y-146590000D03*
X138966000Y-146590000D03*
X138466000Y-146590000D03*
X137966000Y-146590000D03*
D13*
X136366000Y-144990000D03*
X136366000Y-144490000D03*
X136366000Y-143990000D03*
X136366000Y-143490000D03*
X136366000Y-142990000D03*
X136366000Y-142490000D03*
X136366000Y-141990000D03*
X136366000Y-141490000D03*
X136366000Y-140990000D03*
X136366000Y-140490000D03*
X136366000Y-139990000D03*
X136366000Y-139490000D03*
D14*
X126042001Y-170195001D03*
X127142001Y-170195001D03*
X128242001Y-170195001D03*
X129342001Y-170195001D03*
X130442001Y-170195001D03*
X131542001Y-170195001D03*
X132642001Y-170195001D03*
X133742001Y-170195001D03*
D15*
X123942001Y-169695001D03*
D16*
X137292001Y-169695001D03*
D17*
X132342001Y-157495001D03*
X127442001Y-157495001D03*
D18*
X135392001Y-157395001D03*
G04 #@! TA.AperFunction,SMDPad,CuDef*
G36*
G01*
X129409000Y-155530000D02*
X128909000Y-155530000D01*
G75*
G02*
X128684000Y-155305000I0J225000D01*
G01*
X128684000Y-154855000D01*
G75*
G02*
X128909000Y-154630000I225000J0D01*
G01*
X129409000Y-154630000D01*
G75*
G02*
X129634000Y-154855000I0J-225000D01*
G01*
X129634000Y-155305000D01*
G75*
G02*
X129409000Y-155530000I-225000J0D01*
G01*
G37*
G04 #@! TD.AperFunction*
G04 #@! TA.AperFunction,SMDPad,CuDef*
G36*
G01*
X129409000Y-153980000D02*
X128909000Y-153980000D01*
G75*
G02*
X128684000Y-153755000I0J225000D01*
G01*
X128684000Y-153305000D01*
G75*
G02*
X128909000Y-153080000I225000J0D01*
G01*
X129409000Y-153080000D01*
G75*
G02*
X129634000Y-153305000I0J-225000D01*
G01*
X129634000Y-153755000D01*
G75*
G02*
X129409000Y-153980000I-225000J0D01*
G01*
G37*
G04 #@! TD.AperFunction*
G04 #@! TA.AperFunction,SMDPad,CuDef*
G36*
G01*
X124608000Y-153753000D02*
X124058000Y-153753000D01*
G75*
G02*
X123858000Y-153553000I0J200000D01*
G01*
X123858000Y-153153000D01*
G75*
G02*
X124058000Y-152953000I200000J0D01*
G01*
X124608000Y-152953000D01*
G75*
G02*
X124808000Y-153153000I0J-200000D01*
G01*
X124808000Y-153553000D01*
G75*
G02*
X124608000Y-153753000I-200000J0D01*
G01*
G37*
G04 #@! TD.AperFunction*
G04 #@! TA.AperFunction,SMDPad,CuDef*
G36*
G01*
X124608000Y-155403000D02*
X124058000Y-155403000D01*
G75*
G02*
X123858000Y-155203000I0J200000D01*
G01*
X123858000Y-154803000D01*
G75*
G02*
X124058000Y-154603000I200000J0D01*
G01*
X124608000Y-154603000D01*
G75*
G02*
X124808000Y-154803000I0J-200000D01*
G01*
X124808000Y-155203000D01*
G75*
G02*
X124608000Y-155403000I-200000J0D01*
G01*
G37*
G04 #@! TD.AperFunction*
G04 #@! TA.AperFunction,SMDPad,CuDef*
G36*
G01*
X127910000Y-153753000D02*
X127360000Y-153753000D01*
G75*
G02*
X127160000Y-153553000I0J200000D01*
G01*
X127160000Y-153153000D01*
G75*
G02*
X127360000Y-152953000I200000J0D01*
G01*
X127910000Y-152953000D01*
G75*
G02*
X128110000Y-153153000I0J-200000D01*
G01*
X128110000Y-153553000D01*
G75*
G02*
X127910000Y-153753000I-200000J0D01*
G01*
G37*
G04 #@! TD.AperFunction*
G04 #@! TA.AperFunction,SMDPad,CuDef*
G36*
G01*
X127910000Y-155403000D02*
X127360000Y-155403000D01*
G75*
G02*
X127160000Y-155203000I0J200000D01*
G01*
X127160000Y-154803000D01*
G75*
G02*
X127360000Y-154603000I200000J0D01*
G01*
X127910000Y-154603000D01*
G75*
G02*
X128110000Y-154803000I0J-200000D01*
G01*
X128110000Y-155203000D01*
G75*
G02*
X127910000Y-155403000I-200000J0D01*
G01*
G37*
G04 #@! TD.AperFunction*
G04 #@! TA.AperFunction,SMDPad,CuDef*
G36*
G01*
X130958000Y-153753000D02*
X130408000Y-153753000D01*
G75*
G02*
X130208000Y-153553000I0J200000D01*
G01*
X130208000Y-153153000D01*
G75*
G02*
X130408000Y-152953000I200000J0D01*
G01*
X130958000Y-152953000D01*
G75*
G02*
X131158000Y-153153000I0J-200000D01*
G01*
X131158000Y-153553000D01*
G75*
G02*
X130958000Y-153753000I-200000J0D01*
G01*
G37*
G04 #@! TD.AperFunction*
G04 #@! TA.AperFunction,SMDPad,CuDef*
G36*
G01*
X130958000Y-155403000D02*
X130408000Y-155403000D01*
G75*
G02*
X130208000Y-155203000I0J200000D01*
G01*
X130208000Y-154803000D01*
G75*
G02*
X130408000Y-154603000I200000J0D01*
G01*
X130958000Y-154603000D01*
G75*
G02*
X131158000Y-154803000I0J-200000D01*
G01*
X131158000Y-155203000D01*
G75*
G02*
X130958000Y-155403000I-200000J0D01*
G01*
G37*
G04 #@! TD.AperFunction*
G04 #@! TA.AperFunction,SMDPad,CuDef*
G36*
G01*
X132609000Y-155403000D02*
X132059000Y-155403000D01*
G75*
G02*
X131859000Y-155203000I0J200000D01*
G01*
X131859000Y-154803000D01*
G75*
G02*
X132059000Y-154603000I200000J0D01*
G01*
X132609000Y-154603000D01*
G75*
G02*
X132809000Y-154803000I0J-200000D01*
G01*
X132809000Y-155203000D01*
G75*
G02*
X132609000Y-155403000I-200000J0D01*
G01*
G37*
G04 #@! TD.AperFunction*
G04 #@! TA.AperFunction,SMDPad,CuDef*
G36*
G01*
X132609000Y-153753000D02*
X132059000Y-153753000D01*
G75*
G02*
X131859000Y-153553000I0J200000D01*
G01*
X131859000Y-153153000D01*
G75*
G02*
X132059000Y-152953000I200000J0D01*
G01*
X132609000Y-152953000D01*
G75*
G02*
X132809000Y-153153000I0J-200000D01*
G01*
X132809000Y-153553000D01*
G75*
G02*
X132609000Y-153753000I-200000J0D01*
G01*
G37*
G04 #@! TD.AperFunction*
G04 #@! TA.AperFunction,SMDPad,CuDef*
G36*
G01*
X126259000Y-155403000D02*
X125709000Y-155403000D01*
G75*
G02*
X125509000Y-155203000I0J200000D01*
G01*
X125509000Y-154803000D01*
G75*
G02*
X125709000Y-154603000I200000J0D01*
G01*
X126259000Y-154603000D01*
G75*
G02*
X126459000Y-154803000I0J-200000D01*
G01*
X126459000Y-155203000D01*
G75*
G02*
X126259000Y-155403000I-200000J0D01*
G01*
G37*
G04 #@! TD.AperFunction*
G04 #@! TA.AperFunction,SMDPad,CuDef*
G36*
G01*
X126259000Y-153753000D02*
X125709000Y-153753000D01*
G75*
G02*
X125509000Y-153553000I0J200000D01*
G01*
X125509000Y-153153000D01*
G75*
G02*
X125709000Y-152953000I200000J0D01*
G01*
X126259000Y-152953000D01*
G75*
G02*
X126459000Y-153153000I0J-200000D01*
G01*
X126459000Y-153553000D01*
G75*
G02*
X126259000Y-153753000I-200000J0D01*
G01*
G37*
G04 #@! TD.AperFunction*
G04 #@! TA.AperFunction,SMDPad,CuDef*
G36*
G01*
X134260000Y-155403000D02*
X133710000Y-155403000D01*
G75*
G02*
X133510000Y-155203000I0J200000D01*
G01*
X133510000Y-154803000D01*
G75*
G02*
X133710000Y-154603000I200000J0D01*
G01*
X134260000Y-154603000D01*
G75*
G02*
X134460000Y-154803000I0J-200000D01*
G01*
X134460000Y-155203000D01*
G75*
G02*
X134260000Y-155403000I-200000J0D01*
G01*
G37*
G04 #@! TD.AperFunction*
G04 #@! TA.AperFunction,SMDPad,CuDef*
G36*
G01*
X134260000Y-153753000D02*
X133710000Y-153753000D01*
G75*
G02*
X133510000Y-153553000I0J200000D01*
G01*
X133510000Y-153153000D01*
G75*
G02*
X133710000Y-152953000I200000J0D01*
G01*
X134260000Y-152953000D01*
G75*
G02*
X134460000Y-153153000I0J-200000D01*
G01*
X134460000Y-153553000D01*
G75*
G02*
X134260000Y-153753000I-200000J0D01*
G01*
G37*
G04 #@! TD.AperFunction*
G04 #@! TA.AperFunction,SMDPad,CuDef*
G36*
G01*
X133837000Y-139745000D02*
X134387000Y-139745000D01*
G75*
G02*
X134587000Y-139945000I0J-200000D01*
G01*
X134587000Y-140345000D01*
G75*
G02*
X134387000Y-140545000I-200000J0D01*
G01*
X133837000Y-140545000D01*
G75*
G02*
X133637000Y-140345000I0J200000D01*
G01*
X133637000Y-139945000D01*
G75*
G02*
X133837000Y-139745000I200000J0D01*
G01*
G37*
G04 #@! TD.AperFunction*
G04 #@! TA.AperFunction,SMDPad,CuDef*
G36*
G01*
X133837000Y-141395000D02*
X134387000Y-141395000D01*
G75*
G02*
X134587000Y-141595000I0J-200000D01*
G01*
X134587000Y-141995000D01*
G75*
G02*
X134387000Y-142195000I-200000J0D01*
G01*
X133837000Y-142195000D01*
G75*
G02*
X133637000Y-141995000I0J200000D01*
G01*
X133637000Y-141595000D01*
G75*
G02*
X133837000Y-141395000I200000J0D01*
G01*
G37*
G04 #@! TD.AperFunction*
G04 #@! TA.AperFunction,SMDPad,CuDef*
G36*
G01*
X130485000Y-124718000D02*
X130485000Y-125218000D01*
G75*
G02*
X130260000Y-125443000I-225000J0D01*
G01*
X129810000Y-125443000D01*
G75*
G02*
X129585000Y-125218000I0J225000D01*
G01*
X129585000Y-124718000D01*
G75*
G02*
X129810000Y-124493000I225000J0D01*
G01*
X130260000Y-124493000D01*
G75*
G02*
X130485000Y-124718000I0J-225000D01*
G01*
G37*
G04 #@! TD.AperFunction*
G04 #@! TA.AperFunction,SMDPad,CuDef*
G36*
G01*
X132035000Y-124718000D02*
X132035000Y-125218000D01*
G75*
G02*
X131810000Y-125443000I-225000J0D01*
G01*
X131360000Y-125443000D01*
G75*
G02*
X131135000Y-125218000I0J225000D01*
G01*
X131135000Y-124718000D01*
G75*
G02*
X131360000Y-124493000I225000J0D01*
G01*
X131810000Y-124493000D01*
G75*
G02*
X132035000Y-124718000I0J-225000D01*
G01*
G37*
G04 #@! TD.AperFunction*
G04 #@! TA.AperFunction,SMDPad,CuDef*
G36*
G01*
X149307000Y-138434000D02*
X149307000Y-138934000D01*
G75*
G02*
X149082000Y-139159000I-225000J0D01*
G01*
X148632000Y-139159000D01*
G75*
G02*
X148407000Y-138934000I0J225000D01*
G01*
X148407000Y-138434000D01*
G75*
G02*
X148632000Y-138209000I225000J0D01*
G01*
X149082000Y-138209000D01*
G75*
G02*
X149307000Y-138434000I0J-225000D01*
G01*
G37*
G04 #@! TD.AperFunction*
G04 #@! TA.AperFunction,SMDPad,CuDef*
G36*
G01*
X147757000Y-138434000D02*
X147757000Y-138934000D01*
G75*
G02*
X147532000Y-139159000I-225000J0D01*
G01*
X147082000Y-139159000D01*
G75*
G02*
X146857000Y-138934000I0J225000D01*
G01*
X146857000Y-138434000D01*
G75*
G02*
X147082000Y-138209000I225000J0D01*
G01*
X147532000Y-138209000D01*
G75*
G02*
X147757000Y-138434000I0J-225000D01*
G01*
G37*
G04 #@! TD.AperFunction*
G04 #@! TA.AperFunction,SMDPad,CuDef*
G36*
G01*
X137266000Y-153588000D02*
X137816000Y-153588000D01*
G75*
G02*
X138016000Y-153788000I0J-200000D01*
G01*
X138016000Y-154188000D01*
G75*
G02*
X137816000Y-154388000I-200000J0D01*
G01*
X137266000Y-154388000D01*
G75*
G02*
X137066000Y-154188000I0J200000D01*
G01*
X137066000Y-153788000D01*
G75*
G02*
X137266000Y-153588000I200000J0D01*
G01*
G37*
G04 #@! TD.AperFunction*
G04 #@! TA.AperFunction,SMDPad,CuDef*
G36*
G01*
X137266000Y-155238000D02*
X137816000Y-155238000D01*
G75*
G02*
X138016000Y-155438000I0J-200000D01*
G01*
X138016000Y-155838000D01*
G75*
G02*
X137816000Y-156038000I-200000J0D01*
G01*
X137266000Y-156038000D01*
G75*
G02*
X137066000Y-155838000I0J200000D01*
G01*
X137066000Y-155438000D01*
G75*
G02*
X137266000Y-155238000I200000J0D01*
G01*
G37*
G04 #@! TD.AperFunction*
D19*
X84963000Y-105918000D03*
X90043000Y-105918000D03*
X84963000Y-110998000D03*
X90043000Y-110998000D03*
X87503000Y-108458000D03*
D20*
X144185000Y-125222000D03*
X149185000Y-125222000D03*
D10*
X133604000Y-129413000D03*
D11*
X131064000Y-129413000D03*
X138684000Y-129540000D03*
D10*
X141224000Y-129540000D03*
X143764000Y-129540000D03*
X146304000Y-129540000D03*
D21*
X95461000Y-108458000D03*
X93261000Y-108458000D03*
D22*
X129797001Y-101887001D03*
X127892001Y-101887001D03*
X125987001Y-101887001D03*
D23*
X129550000Y-114114001D03*
X129550000Y-113164001D03*
X129550000Y-112214001D03*
X127150000Y-112214001D03*
X127150000Y-114114001D03*
D24*
X107874000Y-117811000D03*
D25*
X107874000Y-116711000D03*
X107874000Y-115611000D03*
X107874000Y-114511000D03*
X107874000Y-113411000D03*
X107874000Y-112311000D03*
X107874000Y-111211000D03*
X107874000Y-110111000D03*
D24*
X107874000Y-109011000D03*
X98374000Y-109011000D03*
D25*
X98374000Y-110111000D03*
X98374000Y-111211000D03*
X98374000Y-112311000D03*
X98374000Y-113411000D03*
X98374000Y-114511000D03*
X98374000Y-115611000D03*
X98374000Y-116711000D03*
D24*
X98374000Y-117811000D03*
D26*
X77470000Y-168910000D03*
D27*
X141732000Y-164597000D03*
X144272000Y-164597000D03*
X146812000Y-164597000D03*
X146812000Y-155697000D03*
X144272000Y-155697000D03*
X141732000Y-155697000D03*
D28*
X134239000Y-107807000D03*
X133289000Y-105807000D03*
X135189000Y-105807000D03*
G04 #@! TA.AperFunction,SMDPad,CuDef*
G36*
G01*
X108489000Y-133093750D02*
X108489000Y-133606250D01*
G75*
G02*
X108270250Y-133825000I-218750J0D01*
G01*
X107832750Y-133825000D01*
G75*
G02*
X107614000Y-133606250I0J218750D01*
G01*
X107614000Y-133093750D01*
G75*
G02*
X107832750Y-132875000I218750J0D01*
G01*
X108270250Y-132875000D01*
G75*
G02*
X108489000Y-133093750I0J-218750D01*
G01*
G37*
G04 #@! TD.AperFunction*
G04 #@! TA.AperFunction,SMDPad,CuDef*
G36*
G01*
X110064000Y-133093750D02*
X110064000Y-133606250D01*
G75*
G02*
X109845250Y-133825000I-218750J0D01*
G01*
X109407750Y-133825000D01*
G75*
G02*
X109189000Y-133606250I0J218750D01*
G01*
X109189000Y-133093750D01*
G75*
G02*
X109407750Y-132875000I218750J0D01*
G01*
X109845250Y-132875000D01*
G75*
G02*
X110064000Y-133093750I0J-218750D01*
G01*
G37*
G04 #@! TD.AperFunction*
G04 #@! TA.AperFunction,SMDPad,CuDef*
G36*
G01*
X122092000Y-135511250D02*
X122092000Y-134998750D01*
G75*
G02*
X122310750Y-134780000I218750J0D01*
G01*
X122748250Y-134780000D01*
G75*
G02*
X122967000Y-134998750I0J-218750D01*
G01*
X122967000Y-135511250D01*
G75*
G02*
X122748250Y-135730000I-218750J0D01*
G01*
X122310750Y-135730000D01*
G75*
G02*
X122092000Y-135511250I0J218750D01*
G01*
G37*
G04 #@! TD.AperFunction*
G04 #@! TA.AperFunction,SMDPad,CuDef*
G36*
G01*
X123667000Y-135511250D02*
X123667000Y-134998750D01*
G75*
G02*
X123885750Y-134780000I218750J0D01*
G01*
X124323250Y-134780000D01*
G75*
G02*
X124542000Y-134998750I0J-218750D01*
G01*
X124542000Y-135511250D01*
G75*
G02*
X124323250Y-135730000I-218750J0D01*
G01*
X123885750Y-135730000D01*
G75*
G02*
X123667000Y-135511250I0J218750D01*
G01*
G37*
G04 #@! TD.AperFunction*
G04 #@! TA.AperFunction,SMDPad,CuDef*
G36*
G01*
X108489000Y-131315750D02*
X108489000Y-131828250D01*
G75*
G02*
X108270250Y-132047000I-218750J0D01*
G01*
X107832750Y-132047000D01*
G75*
G02*
X107614000Y-131828250I0J218750D01*
G01*
X107614000Y-131315750D01*
G75*
G02*
X107832750Y-131097000I218750J0D01*
G01*
X108270250Y-131097000D01*
G75*
G02*
X108489000Y-131315750I0J-218750D01*
G01*
G37*
G04 #@! TD.AperFunction*
G04 #@! TA.AperFunction,SMDPad,CuDef*
G36*
G01*
X110064000Y-131315750D02*
X110064000Y-131828250D01*
G75*
G02*
X109845250Y-132047000I-218750J0D01*
G01*
X109407750Y-132047000D01*
G75*
G02*
X109189000Y-131828250I0J218750D01*
G01*
X109189000Y-131315750D01*
G75*
G02*
X109407750Y-131097000I218750J0D01*
G01*
X109845250Y-131097000D01*
G75*
G02*
X110064000Y-131315750I0J-218750D01*
G01*
G37*
G04 #@! TD.AperFunction*
G04 #@! TA.AperFunction,SMDPad,CuDef*
G36*
G01*
X123667000Y-133606250D02*
X123667000Y-133093750D01*
G75*
G02*
X123885750Y-132875000I218750J0D01*
G01*
X124323250Y-132875000D01*
G75*
G02*
X124542000Y-133093750I0J-218750D01*
G01*
X124542000Y-133606250D01*
G75*
G02*
X124323250Y-133825000I-218750J0D01*
G01*
X123885750Y-133825000D01*
G75*
G02*
X123667000Y-133606250I0J218750D01*
G01*
G37*
G04 #@! TD.AperFunction*
G04 #@! TA.AperFunction,SMDPad,CuDef*
G36*
G01*
X122092000Y-133606250D02*
X122092000Y-133093750D01*
G75*
G02*
X122310750Y-132875000I218750J0D01*
G01*
X122748250Y-132875000D01*
G75*
G02*
X122967000Y-133093750I0J-218750D01*
G01*
X122967000Y-133606250D01*
G75*
G02*
X122748250Y-133825000I-218750J0D01*
G01*
X122310750Y-133825000D01*
G75*
G02*
X122092000Y-133606250I0J218750D01*
G01*
G37*
G04 #@! TD.AperFunction*
G04 #@! TA.AperFunction,SMDPad,CuDef*
G36*
G01*
X105238000Y-158874750D02*
X105238000Y-159387250D01*
G75*
G02*
X105019250Y-159606000I-218750J0D01*
G01*
X104581750Y-159606000D01*
G75*
G02*
X104363000Y-159387250I0J218750D01*
G01*
X104363000Y-158874750D01*
G75*
G02*
X104581750Y-158656000I218750J0D01*
G01*
X105019250Y-158656000D01*
G75*
G02*
X105238000Y-158874750I0J-218750D01*
G01*
G37*
G04 #@! TD.AperFunction*
G04 #@! TA.AperFunction,SMDPad,CuDef*
G36*
G01*
X103663000Y-158874750D02*
X103663000Y-159387250D01*
G75*
G02*
X103444250Y-159606000I-218750J0D01*
G01*
X103006750Y-159606000D01*
G75*
G02*
X102788000Y-159387250I0J218750D01*
G01*
X102788000Y-158874750D01*
G75*
G02*
X103006750Y-158656000I218750J0D01*
G01*
X103444250Y-158656000D01*
G75*
G02*
X103663000Y-158874750I0J-218750D01*
G01*
G37*
G04 #@! TD.AperFunction*
G04 #@! TA.AperFunction,SMDPad,CuDef*
G36*
G01*
X119095000Y-162435250D02*
X119095000Y-161922750D01*
G75*
G02*
X119313750Y-161704000I218750J0D01*
G01*
X119751250Y-161704000D01*
G75*
G02*
X119970000Y-161922750I0J-218750D01*
G01*
X119970000Y-162435250D01*
G75*
G02*
X119751250Y-162654000I-218750J0D01*
G01*
X119313750Y-162654000D01*
G75*
G02*
X119095000Y-162435250I0J218750D01*
G01*
G37*
G04 #@! TD.AperFunction*
G04 #@! TA.AperFunction,SMDPad,CuDef*
G36*
G01*
X117520000Y-162435250D02*
X117520000Y-161922750D01*
G75*
G02*
X117738750Y-161704000I218750J0D01*
G01*
X118176250Y-161704000D01*
G75*
G02*
X118395000Y-161922750I0J-218750D01*
G01*
X118395000Y-162435250D01*
G75*
G02*
X118176250Y-162654000I-218750J0D01*
G01*
X117738750Y-162654000D01*
G75*
G02*
X117520000Y-162435250I0J218750D01*
G01*
G37*
G04 #@! TD.AperFunction*
G04 #@! TA.AperFunction,SMDPad,CuDef*
G36*
G01*
X105238000Y-160525750D02*
X105238000Y-161038250D01*
G75*
G02*
X105019250Y-161257000I-218750J0D01*
G01*
X104581750Y-161257000D01*
G75*
G02*
X104363000Y-161038250I0J218750D01*
G01*
X104363000Y-160525750D01*
G75*
G02*
X104581750Y-160307000I218750J0D01*
G01*
X105019250Y-160307000D01*
G75*
G02*
X105238000Y-160525750I0J-218750D01*
G01*
G37*
G04 #@! TD.AperFunction*
G04 #@! TA.AperFunction,SMDPad,CuDef*
G36*
G01*
X103663000Y-160525750D02*
X103663000Y-161038250D01*
G75*
G02*
X103444250Y-161257000I-218750J0D01*
G01*
X103006750Y-161257000D01*
G75*
G02*
X102788000Y-161038250I0J218750D01*
G01*
X102788000Y-160525750D01*
G75*
G02*
X103006750Y-160307000I218750J0D01*
G01*
X103444250Y-160307000D01*
G75*
G02*
X103663000Y-160525750I0J-218750D01*
G01*
G37*
G04 #@! TD.AperFunction*
G04 #@! TA.AperFunction,SMDPad,CuDef*
G36*
G01*
X117520000Y-160657250D02*
X117520000Y-160144750D01*
G75*
G02*
X117738750Y-159926000I218750J0D01*
G01*
X118176250Y-159926000D01*
G75*
G02*
X118395000Y-160144750I0J-218750D01*
G01*
X118395000Y-160657250D01*
G75*
G02*
X118176250Y-160876000I-218750J0D01*
G01*
X117738750Y-160876000D01*
G75*
G02*
X117520000Y-160657250I0J218750D01*
G01*
G37*
G04 #@! TD.AperFunction*
G04 #@! TA.AperFunction,SMDPad,CuDef*
G36*
G01*
X119095000Y-160657250D02*
X119095000Y-160144750D01*
G75*
G02*
X119313750Y-159926000I218750J0D01*
G01*
X119751250Y-159926000D01*
G75*
G02*
X119970000Y-160144750I0J-218750D01*
G01*
X119970000Y-160657250D01*
G75*
G02*
X119751250Y-160876000I-218750J0D01*
G01*
X119313750Y-160876000D01*
G75*
G02*
X119095000Y-160657250I0J218750D01*
G01*
G37*
G04 #@! TD.AperFunction*
G04 #@! TA.AperFunction,SMDPad,CuDef*
G36*
G01*
X129007550Y-118590000D02*
X129920050Y-118590000D01*
G75*
G02*
X130163800Y-118833750I0J-243750D01*
G01*
X130163800Y-119321250D01*
G75*
G02*
X129920050Y-119565000I-243750J0D01*
G01*
X129007550Y-119565000D01*
G75*
G02*
X128763800Y-119321250I0J243750D01*
G01*
X128763800Y-118833750D01*
G75*
G02*
X129007550Y-118590000I243750J0D01*
G01*
G37*
G04 #@! TD.AperFunction*
G04 #@! TA.AperFunction,SMDPad,CuDef*
G36*
G01*
X129007550Y-120465000D02*
X129920050Y-120465000D01*
G75*
G02*
X130163800Y-120708750I0J-243750D01*
G01*
X130163800Y-121196250D01*
G75*
G02*
X129920050Y-121440000I-243750J0D01*
G01*
X129007550Y-121440000D01*
G75*
G02*
X128763800Y-121196250I0J243750D01*
G01*
X128763800Y-120708750D01*
G75*
G02*
X129007550Y-120465000I243750J0D01*
G01*
G37*
G04 #@! TD.AperFunction*
G04 #@! TA.AperFunction,SMDPad,CuDef*
G36*
G01*
X125915000Y-122733750D02*
X125915000Y-123646250D01*
G75*
G02*
X125671250Y-123890000I-243750J0D01*
G01*
X125183750Y-123890000D01*
G75*
G02*
X124940000Y-123646250I0J243750D01*
G01*
X124940000Y-122733750D01*
G75*
G02*
X125183750Y-122490000I243750J0D01*
G01*
X125671250Y-122490000D01*
G75*
G02*
X125915000Y-122733750I0J-243750D01*
G01*
G37*
G04 #@! TD.AperFunction*
G04 #@! TA.AperFunction,SMDPad,CuDef*
G36*
G01*
X127790000Y-122733750D02*
X127790000Y-123646250D01*
G75*
G02*
X127546250Y-123890000I-243750J0D01*
G01*
X127058750Y-123890000D01*
G75*
G02*
X126815000Y-123646250I0J243750D01*
G01*
X126815000Y-122733750D01*
G75*
G02*
X127058750Y-122490000I243750J0D01*
G01*
X127546250Y-122490000D01*
G75*
G02*
X127790000Y-122733750I0J-243750D01*
G01*
G37*
G04 #@! TD.AperFunction*
G04 #@! TA.AperFunction,SMDPad,CuDef*
G36*
G01*
X127590000Y-124838750D02*
X127590000Y-125351250D01*
G75*
G02*
X127371250Y-125570000I-218750J0D01*
G01*
X126933750Y-125570000D01*
G75*
G02*
X126715000Y-125351250I0J218750D01*
G01*
X126715000Y-124838750D01*
G75*
G02*
X126933750Y-124620000I218750J0D01*
G01*
X127371250Y-124620000D01*
G75*
G02*
X127590000Y-124838750I0J-218750D01*
G01*
G37*
G04 #@! TD.AperFunction*
G04 #@! TA.AperFunction,SMDPad,CuDef*
G36*
G01*
X126015000Y-124838750D02*
X126015000Y-125351250D01*
G75*
G02*
X125796250Y-125570000I-218750J0D01*
G01*
X125358750Y-125570000D01*
G75*
G02*
X125140000Y-125351250I0J218750D01*
G01*
X125140000Y-124838750D01*
G75*
G02*
X125358750Y-124620000I218750J0D01*
G01*
X125796250Y-124620000D01*
G75*
G02*
X126015000Y-124838750I0J-218750D01*
G01*
G37*
G04 #@! TD.AperFunction*
D29*
X131927600Y-118615000D03*
X131927600Y-121415000D03*
D11*
X122555000Y-140843000D03*
D10*
X122555000Y-143383000D03*
X120015000Y-140843000D03*
X120015000Y-143383000D03*
X117475000Y-140843000D03*
X117475000Y-143383000D03*
X112522000Y-170307000D03*
X112522000Y-167767000D03*
X115062000Y-170307000D03*
X115062000Y-167767000D03*
X117602000Y-170307000D03*
D11*
X117602000Y-167767000D03*
G04 #@! TA.AperFunction,SMDPad,CuDef*
G36*
G01*
X138347000Y-149119000D02*
X138347000Y-148569000D01*
G75*
G02*
X138547000Y-148369000I200000J0D01*
G01*
X138947000Y-148369000D01*
G75*
G02*
X139147000Y-148569000I0J-200000D01*
G01*
X139147000Y-149119000D01*
G75*
G02*
X138947000Y-149319000I-200000J0D01*
G01*
X138547000Y-149319000D01*
G75*
G02*
X138347000Y-149119000I0J200000D01*
G01*
G37*
G04 #@! TD.AperFunction*
G04 #@! TA.AperFunction,SMDPad,CuDef*
G36*
G01*
X136697000Y-149119000D02*
X136697000Y-148569000D01*
G75*
G02*
X136897000Y-148369000I200000J0D01*
G01*
X137297000Y-148369000D01*
G75*
G02*
X137497000Y-148569000I0J-200000D01*
G01*
X137497000Y-149119000D01*
G75*
G02*
X137297000Y-149319000I-200000J0D01*
G01*
X136897000Y-149319000D01*
G75*
G02*
X136697000Y-149119000I0J200000D01*
G01*
G37*
G04 #@! TD.AperFunction*
G04 #@! TA.AperFunction,SMDPad,CuDef*
G36*
G01*
X136697000Y-150897000D02*
X136697000Y-150347000D01*
G75*
G02*
X136897000Y-150147000I200000J0D01*
G01*
X137297000Y-150147000D01*
G75*
G02*
X137497000Y-150347000I0J-200000D01*
G01*
X137497000Y-150897000D01*
G75*
G02*
X137297000Y-151097000I-200000J0D01*
G01*
X136897000Y-151097000D01*
G75*
G02*
X136697000Y-150897000I0J200000D01*
G01*
G37*
G04 #@! TD.AperFunction*
G04 #@! TA.AperFunction,SMDPad,CuDef*
G36*
G01*
X138347000Y-150897000D02*
X138347000Y-150347000D01*
G75*
G02*
X138547000Y-150147000I200000J0D01*
G01*
X138947000Y-150147000D01*
G75*
G02*
X139147000Y-150347000I0J-200000D01*
G01*
X139147000Y-150897000D01*
G75*
G02*
X138947000Y-151097000I-200000J0D01*
G01*
X138547000Y-151097000D01*
G75*
G02*
X138347000Y-150897000I0J200000D01*
G01*
G37*
G04 #@! TD.AperFunction*
G04 #@! TA.AperFunction,SMDPad,CuDef*
G36*
G01*
X132035000Y-133601750D02*
X132035000Y-134114250D01*
G75*
G02*
X131816250Y-134333000I-218750J0D01*
G01*
X131378750Y-134333000D01*
G75*
G02*
X131160000Y-134114250I0J218750D01*
G01*
X131160000Y-133601750D01*
G75*
G02*
X131378750Y-133383000I218750J0D01*
G01*
X131816250Y-133383000D01*
G75*
G02*
X132035000Y-133601750I0J-218750D01*
G01*
G37*
G04 #@! TD.AperFunction*
G04 #@! TA.AperFunction,SMDPad,CuDef*
G36*
G01*
X130460000Y-133601750D02*
X130460000Y-134114250D01*
G75*
G02*
X130241250Y-134333000I-218750J0D01*
G01*
X129803750Y-134333000D01*
G75*
G02*
X129585000Y-134114250I0J218750D01*
G01*
X129585000Y-133601750D01*
G75*
G02*
X129803750Y-133383000I218750J0D01*
G01*
X130241250Y-133383000D01*
G75*
G02*
X130460000Y-133601750I0J-218750D01*
G01*
G37*
G04 #@! TD.AperFunction*
G04 #@! TA.AperFunction,SMDPad,CuDef*
G36*
G01*
X132035000Y-135379750D02*
X132035000Y-135892250D01*
G75*
G02*
X131816250Y-136111000I-218750J0D01*
G01*
X131378750Y-136111000D01*
G75*
G02*
X131160000Y-135892250I0J218750D01*
G01*
X131160000Y-135379750D01*
G75*
G02*
X131378750Y-135161000I218750J0D01*
G01*
X131816250Y-135161000D01*
G75*
G02*
X132035000Y-135379750I0J-218750D01*
G01*
G37*
G04 #@! TD.AperFunction*
G04 #@! TA.AperFunction,SMDPad,CuDef*
G36*
G01*
X130460000Y-135379750D02*
X130460000Y-135892250D01*
G75*
G02*
X130241250Y-136111000I-218750J0D01*
G01*
X129803750Y-136111000D01*
G75*
G02*
X129585000Y-135892250I0J218750D01*
G01*
X129585000Y-135379750D01*
G75*
G02*
X129803750Y-135161000I218750J0D01*
G01*
X130241250Y-135161000D01*
G75*
G02*
X130460000Y-135379750I0J-218750D01*
G01*
G37*
G04 #@! TD.AperFunction*
G04 #@! TA.AperFunction,SMDPad,CuDef*
G36*
G01*
X142539000Y-100859000D02*
X142539000Y-100309000D01*
G75*
G02*
X142739000Y-100109000I200000J0D01*
G01*
X143139000Y-100109000D01*
G75*
G02*
X143339000Y-100309000I0J-200000D01*
G01*
X143339000Y-100859000D01*
G75*
G02*
X143139000Y-101059000I-200000J0D01*
G01*
X142739000Y-101059000D01*
G75*
G02*
X142539000Y-100859000I0J200000D01*
G01*
G37*
G04 #@! TD.AperFunction*
G04 #@! TA.AperFunction,SMDPad,CuDef*
G36*
G01*
X144189000Y-100859000D02*
X144189000Y-100309000D01*
G75*
G02*
X144389000Y-100109000I200000J0D01*
G01*
X144789000Y-100109000D01*
G75*
G02*
X144989000Y-100309000I0J-200000D01*
G01*
X144989000Y-100859000D01*
G75*
G02*
X144789000Y-101059000I-200000J0D01*
G01*
X144389000Y-101059000D01*
G75*
G02*
X144189000Y-100859000I0J200000D01*
G01*
G37*
G04 #@! TD.AperFunction*
G04 #@! TA.AperFunction,SMDPad,CuDef*
G36*
G01*
X116075750Y-124378000D02*
X116588250Y-124378000D01*
G75*
G02*
X116807000Y-124596750I0J-218750D01*
G01*
X116807000Y-125034250D01*
G75*
G02*
X116588250Y-125253000I-218750J0D01*
G01*
X116075750Y-125253000D01*
G75*
G02*
X115857000Y-125034250I0J218750D01*
G01*
X115857000Y-124596750D01*
G75*
G02*
X116075750Y-124378000I218750J0D01*
G01*
G37*
G04 #@! TD.AperFunction*
G04 #@! TA.AperFunction,SMDPad,CuDef*
G36*
G01*
X116075750Y-125953000D02*
X116588250Y-125953000D01*
G75*
G02*
X116807000Y-126171750I0J-218750D01*
G01*
X116807000Y-126609250D01*
G75*
G02*
X116588250Y-126828000I-218750J0D01*
G01*
X116075750Y-126828000D01*
G75*
G02*
X115857000Y-126609250I0J218750D01*
G01*
X115857000Y-126171750D01*
G75*
G02*
X116075750Y-125953000I218750J0D01*
G01*
G37*
G04 #@! TD.AperFunction*
G04 #@! TA.AperFunction,SMDPad,CuDef*
G36*
G01*
X114297750Y-125953000D02*
X114810250Y-125953000D01*
G75*
G02*
X115029000Y-126171750I0J-218750D01*
G01*
X115029000Y-126609250D01*
G75*
G02*
X114810250Y-126828000I-218750J0D01*
G01*
X114297750Y-126828000D01*
G75*
G02*
X114079000Y-126609250I0J218750D01*
G01*
X114079000Y-126171750D01*
G75*
G02*
X114297750Y-125953000I218750J0D01*
G01*
G37*
G04 #@! TD.AperFunction*
G04 #@! TA.AperFunction,SMDPad,CuDef*
G36*
G01*
X114297750Y-124378000D02*
X114810250Y-124378000D01*
G75*
G02*
X115029000Y-124596750I0J-218750D01*
G01*
X115029000Y-125034250D01*
G75*
G02*
X114810250Y-125253000I-218750J0D01*
G01*
X114297750Y-125253000D01*
G75*
G02*
X114079000Y-125034250I0J218750D01*
G01*
X114079000Y-124596750D01*
G75*
G02*
X114297750Y-124378000I218750J0D01*
G01*
G37*
G04 #@! TD.AperFunction*
G04 #@! TA.AperFunction,SMDPad,CuDef*
G36*
G01*
X112519750Y-124378000D02*
X113032250Y-124378000D01*
G75*
G02*
X113251000Y-124596750I0J-218750D01*
G01*
X113251000Y-125034250D01*
G75*
G02*
X113032250Y-125253000I-218750J0D01*
G01*
X112519750Y-125253000D01*
G75*
G02*
X112301000Y-125034250I0J218750D01*
G01*
X112301000Y-124596750D01*
G75*
G02*
X112519750Y-124378000I218750J0D01*
G01*
G37*
G04 #@! TD.AperFunction*
G04 #@! TA.AperFunction,SMDPad,CuDef*
G36*
G01*
X112519750Y-125953000D02*
X113032250Y-125953000D01*
G75*
G02*
X113251000Y-126171750I0J-218750D01*
G01*
X113251000Y-126609250D01*
G75*
G02*
X113032250Y-126828000I-218750J0D01*
G01*
X112519750Y-126828000D01*
G75*
G02*
X112301000Y-126609250I0J218750D01*
G01*
X112301000Y-126171750D01*
G75*
G02*
X112519750Y-125953000I218750J0D01*
G01*
G37*
G04 #@! TD.AperFunction*
G04 #@! TA.AperFunction,SMDPad,CuDef*
G36*
G01*
X109189000Y-130050250D02*
X109189000Y-129537750D01*
G75*
G02*
X109407750Y-129319000I218750J0D01*
G01*
X109845250Y-129319000D01*
G75*
G02*
X110064000Y-129537750I0J-218750D01*
G01*
X110064000Y-130050250D01*
G75*
G02*
X109845250Y-130269000I-218750J0D01*
G01*
X109407750Y-130269000D01*
G75*
G02*
X109189000Y-130050250I0J218750D01*
G01*
G37*
G04 #@! TD.AperFunction*
G04 #@! TA.AperFunction,SMDPad,CuDef*
G36*
G01*
X107614000Y-130050250D02*
X107614000Y-129537750D01*
G75*
G02*
X107832750Y-129319000I218750J0D01*
G01*
X108270250Y-129319000D01*
G75*
G02*
X108489000Y-129537750I0J-218750D01*
G01*
X108489000Y-130050250D01*
G75*
G02*
X108270250Y-130269000I-218750J0D01*
G01*
X107832750Y-130269000D01*
G75*
G02*
X107614000Y-130050250I0J218750D01*
G01*
G37*
G04 #@! TD.AperFunction*
G04 #@! TA.AperFunction,SMDPad,CuDef*
G36*
G01*
X111654000Y-139656000D02*
X111104000Y-139656000D01*
G75*
G02*
X110904000Y-139456000I0J200000D01*
G01*
X110904000Y-139056000D01*
G75*
G02*
X111104000Y-138856000I200000J0D01*
G01*
X111654000Y-138856000D01*
G75*
G02*
X111854000Y-139056000I0J-200000D01*
G01*
X111854000Y-139456000D01*
G75*
G02*
X111654000Y-139656000I-200000J0D01*
G01*
G37*
G04 #@! TD.AperFunction*
G04 #@! TA.AperFunction,SMDPad,CuDef*
G36*
G01*
X111654000Y-141306000D02*
X111104000Y-141306000D01*
G75*
G02*
X110904000Y-141106000I0J200000D01*
G01*
X110904000Y-140706000D01*
G75*
G02*
X111104000Y-140506000I200000J0D01*
G01*
X111654000Y-140506000D01*
G75*
G02*
X111854000Y-140706000I0J-200000D01*
G01*
X111854000Y-141106000D01*
G75*
G02*
X111654000Y-141306000I-200000J0D01*
G01*
G37*
G04 #@! TD.AperFunction*
G04 #@! TA.AperFunction,SMDPad,CuDef*
G36*
G01*
X114067000Y-141306000D02*
X113517000Y-141306000D01*
G75*
G02*
X113317000Y-141106000I0J200000D01*
G01*
X113317000Y-140706000D01*
G75*
G02*
X113517000Y-140506000I200000J0D01*
G01*
X114067000Y-140506000D01*
G75*
G02*
X114267000Y-140706000I0J-200000D01*
G01*
X114267000Y-141106000D01*
G75*
G02*
X114067000Y-141306000I-200000J0D01*
G01*
G37*
G04 #@! TD.AperFunction*
G04 #@! TA.AperFunction,SMDPad,CuDef*
G36*
G01*
X114067000Y-139656000D02*
X113517000Y-139656000D01*
G75*
G02*
X113317000Y-139456000I0J200000D01*
G01*
X113317000Y-139056000D01*
G75*
G02*
X113517000Y-138856000I200000J0D01*
G01*
X114067000Y-138856000D01*
G75*
G02*
X114267000Y-139056000I0J-200000D01*
G01*
X114267000Y-139456000D01*
G75*
G02*
X114067000Y-139656000I-200000J0D01*
G01*
G37*
G04 #@! TD.AperFunction*
G04 #@! TA.AperFunction,SMDPad,CuDef*
G36*
G01*
X112265750Y-153004000D02*
X112778250Y-153004000D01*
G75*
G02*
X112997000Y-153222750I0J-218750D01*
G01*
X112997000Y-153660250D01*
G75*
G02*
X112778250Y-153879000I-218750J0D01*
G01*
X112265750Y-153879000D01*
G75*
G02*
X112047000Y-153660250I0J218750D01*
G01*
X112047000Y-153222750D01*
G75*
G02*
X112265750Y-153004000I218750J0D01*
G01*
G37*
G04 #@! TD.AperFunction*
G04 #@! TA.AperFunction,SMDPad,CuDef*
G36*
G01*
X112265750Y-151429000D02*
X112778250Y-151429000D01*
G75*
G02*
X112997000Y-151647750I0J-218750D01*
G01*
X112997000Y-152085250D01*
G75*
G02*
X112778250Y-152304000I-218750J0D01*
G01*
X112265750Y-152304000D01*
G75*
G02*
X112047000Y-152085250I0J218750D01*
G01*
X112047000Y-151647750D01*
G75*
G02*
X112265750Y-151429000I218750J0D01*
G01*
G37*
G04 #@! TD.AperFunction*
G04 #@! TA.AperFunction,SMDPad,CuDef*
G36*
G01*
X110487750Y-151429000D02*
X111000250Y-151429000D01*
G75*
G02*
X111219000Y-151647750I0J-218750D01*
G01*
X111219000Y-152085250D01*
G75*
G02*
X111000250Y-152304000I-218750J0D01*
G01*
X110487750Y-152304000D01*
G75*
G02*
X110269000Y-152085250I0J218750D01*
G01*
X110269000Y-151647750D01*
G75*
G02*
X110487750Y-151429000I218750J0D01*
G01*
G37*
G04 #@! TD.AperFunction*
G04 #@! TA.AperFunction,SMDPad,CuDef*
G36*
G01*
X110487750Y-153004000D02*
X111000250Y-153004000D01*
G75*
G02*
X111219000Y-153222750I0J-218750D01*
G01*
X111219000Y-153660250D01*
G75*
G02*
X111000250Y-153879000I-218750J0D01*
G01*
X110487750Y-153879000D01*
G75*
G02*
X110269000Y-153660250I0J218750D01*
G01*
X110269000Y-153222750D01*
G75*
G02*
X110487750Y-153004000I218750J0D01*
G01*
G37*
G04 #@! TD.AperFunction*
G04 #@! TA.AperFunction,SMDPad,CuDef*
G36*
G01*
X108709750Y-153004000D02*
X109222250Y-153004000D01*
G75*
G02*
X109441000Y-153222750I0J-218750D01*
G01*
X109441000Y-153660250D01*
G75*
G02*
X109222250Y-153879000I-218750J0D01*
G01*
X108709750Y-153879000D01*
G75*
G02*
X108491000Y-153660250I0J218750D01*
G01*
X108491000Y-153222750D01*
G75*
G02*
X108709750Y-153004000I218750J0D01*
G01*
G37*
G04 #@! TD.AperFunction*
G04 #@! TA.AperFunction,SMDPad,CuDef*
G36*
G01*
X108709750Y-151429000D02*
X109222250Y-151429000D01*
G75*
G02*
X109441000Y-151647750I0J-218750D01*
G01*
X109441000Y-152085250D01*
G75*
G02*
X109222250Y-152304000I-218750J0D01*
G01*
X108709750Y-152304000D01*
G75*
G02*
X108491000Y-152085250I0J218750D01*
G01*
X108491000Y-151647750D01*
G75*
G02*
X108709750Y-151429000I218750J0D01*
G01*
G37*
G04 #@! TD.AperFunction*
G04 #@! TA.AperFunction,SMDPad,CuDef*
G36*
G01*
X104438000Y-157755000D02*
X104438000Y-157205000D01*
G75*
G02*
X104638000Y-157005000I200000J0D01*
G01*
X105038000Y-157005000D01*
G75*
G02*
X105238000Y-157205000I0J-200000D01*
G01*
X105238000Y-157755000D01*
G75*
G02*
X105038000Y-157955000I-200000J0D01*
G01*
X104638000Y-157955000D01*
G75*
G02*
X104438000Y-157755000I0J200000D01*
G01*
G37*
G04 #@! TD.AperFunction*
G04 #@! TA.AperFunction,SMDPad,CuDef*
G36*
G01*
X102788000Y-157755000D02*
X102788000Y-157205000D01*
G75*
G02*
X102988000Y-157005000I200000J0D01*
G01*
X103388000Y-157005000D01*
G75*
G02*
X103588000Y-157205000I0J-200000D01*
G01*
X103588000Y-157755000D01*
G75*
G02*
X103388000Y-157955000I-200000J0D01*
G01*
X102988000Y-157955000D01*
G75*
G02*
X102788000Y-157755000I0J200000D01*
G01*
G37*
G04 #@! TD.AperFunction*
G04 #@! TA.AperFunction,SMDPad,CuDef*
G36*
G01*
X106090000Y-166645000D02*
X106090000Y-166095000D01*
G75*
G02*
X106290000Y-165895000I200000J0D01*
G01*
X106690000Y-165895000D01*
G75*
G02*
X106890000Y-166095000I0J-200000D01*
G01*
X106890000Y-166645000D01*
G75*
G02*
X106690000Y-166845000I-200000J0D01*
G01*
X106290000Y-166845000D01*
G75*
G02*
X106090000Y-166645000I0J200000D01*
G01*
G37*
G04 #@! TD.AperFunction*
G04 #@! TA.AperFunction,SMDPad,CuDef*
G36*
G01*
X107740000Y-166645000D02*
X107740000Y-166095000D01*
G75*
G02*
X107940000Y-165895000I200000J0D01*
G01*
X108340000Y-165895000D01*
G75*
G02*
X108540000Y-166095000I0J-200000D01*
G01*
X108540000Y-166645000D01*
G75*
G02*
X108340000Y-166845000I-200000J0D01*
G01*
X107940000Y-166845000D01*
G75*
G02*
X107740000Y-166645000I0J200000D01*
G01*
G37*
G04 #@! TD.AperFunction*
G04 #@! TA.AperFunction,SMDPad,CuDef*
G36*
G01*
X127590000Y-115821750D02*
X127590000Y-116334250D01*
G75*
G02*
X127371250Y-116553000I-218750J0D01*
G01*
X126933750Y-116553000D01*
G75*
G02*
X126715000Y-116334250I0J218750D01*
G01*
X126715000Y-115821750D01*
G75*
G02*
X126933750Y-115603000I218750J0D01*
G01*
X127371250Y-115603000D01*
G75*
G02*
X127590000Y-115821750I0J-218750D01*
G01*
G37*
G04 #@! TD.AperFunction*
G04 #@! TA.AperFunction,SMDPad,CuDef*
G36*
G01*
X126015000Y-115821750D02*
X126015000Y-116334250D01*
G75*
G02*
X125796250Y-116553000I-218750J0D01*
G01*
X125358750Y-116553000D01*
G75*
G02*
X125140000Y-116334250I0J218750D01*
G01*
X125140000Y-115821750D01*
G75*
G02*
X125358750Y-115603000I218750J0D01*
G01*
X125796250Y-115603000D01*
G75*
G02*
X126015000Y-115821750I0J-218750D01*
G01*
G37*
G04 #@! TD.AperFunction*
D30*
X111955000Y-130169000D03*
X111955000Y-130969000D03*
X111955000Y-131769000D03*
X111955000Y-132569000D03*
X111955000Y-133369000D03*
X111955000Y-134169000D03*
X111955000Y-134969000D03*
X111955000Y-135769000D03*
D31*
X113405000Y-137219000D03*
X114205000Y-137219000D03*
X115005000Y-137219000D03*
X115805000Y-137219000D03*
X116605000Y-137219000D03*
X117405000Y-137219000D03*
X118205000Y-137219000D03*
X119005000Y-137219000D03*
D30*
X120455000Y-135769000D03*
X120455000Y-134969000D03*
X120455000Y-134169000D03*
X120455000Y-133369000D03*
X120455000Y-132569000D03*
X120455000Y-131769000D03*
X120455000Y-130969000D03*
X120455000Y-130169000D03*
D31*
X119005000Y-128719000D03*
X118205000Y-128719000D03*
X117405000Y-128719000D03*
X116605000Y-128719000D03*
X115805000Y-128719000D03*
X115005000Y-128719000D03*
X114205000Y-128719000D03*
X113405000Y-128719000D03*
X108579000Y-155643000D03*
X109379000Y-155643000D03*
X110179000Y-155643000D03*
X110979000Y-155643000D03*
X111779000Y-155643000D03*
X112579000Y-155643000D03*
X113379000Y-155643000D03*
X114179000Y-155643000D03*
D30*
X115629000Y-157093000D03*
X115629000Y-157893000D03*
X115629000Y-158693000D03*
X115629000Y-159493000D03*
X115629000Y-160293000D03*
X115629000Y-161093000D03*
X115629000Y-161893000D03*
X115629000Y-162693000D03*
D31*
X114179000Y-164143000D03*
X113379000Y-164143000D03*
X112579000Y-164143000D03*
X111779000Y-164143000D03*
X110979000Y-164143000D03*
X110179000Y-164143000D03*
X109379000Y-164143000D03*
X108579000Y-164143000D03*
D30*
X107129000Y-162693000D03*
X107129000Y-161893000D03*
X107129000Y-161093000D03*
X107129000Y-160293000D03*
X107129000Y-159493000D03*
X107129000Y-158693000D03*
X107129000Y-157893000D03*
X107129000Y-157093000D03*
D32*
X127315000Y-118915000D03*
X126365000Y-118915000D03*
X125415000Y-118915000D03*
X125415000Y-121115000D03*
X127315000Y-121115000D03*
D33*
X131064000Y-139770000D03*
X131064000Y-140970000D03*
X131064000Y-142170000D03*
X108839000Y-135198000D03*
X108839000Y-136398000D03*
X108839000Y-137598000D03*
X104013000Y-165030000D03*
X104013000Y-163830000D03*
X104013000Y-162630000D03*
G04 #@! TA.AperFunction,SMDPad,CuDef*
G36*
G01*
X136215000Y-136394000D02*
X136215000Y-135894000D01*
G75*
G02*
X136440000Y-135669000I225000J0D01*
G01*
X136890000Y-135669000D01*
G75*
G02*
X137115000Y-135894000I0J-225000D01*
G01*
X137115000Y-136394000D01*
G75*
G02*
X136890000Y-136619000I-225000J0D01*
G01*
X136440000Y-136619000D01*
G75*
G02*
X136215000Y-136394000I0J225000D01*
G01*
G37*
G04 #@! TD.AperFunction*
G04 #@! TA.AperFunction,SMDPad,CuDef*
G36*
G01*
X134665000Y-136394000D02*
X134665000Y-135894000D01*
G75*
G02*
X134890000Y-135669000I225000J0D01*
G01*
X135340000Y-135669000D01*
G75*
G02*
X135565000Y-135894000I0J-225000D01*
G01*
X135565000Y-136394000D01*
G75*
G02*
X135340000Y-136619000I-225000J0D01*
G01*
X134890000Y-136619000D01*
G75*
G02*
X134665000Y-136394000I0J225000D01*
G01*
G37*
G04 #@! TD.AperFunction*
G04 #@! TA.AperFunction,SMDPad,CuDef*
G36*
G01*
X146487000Y-148848000D02*
X146487000Y-149348000D01*
G75*
G02*
X146262000Y-149573000I-225000J0D01*
G01*
X145812000Y-149573000D01*
G75*
G02*
X145587000Y-149348000I0J225000D01*
G01*
X145587000Y-148848000D01*
G75*
G02*
X145812000Y-148623000I225000J0D01*
G01*
X146262000Y-148623000D01*
G75*
G02*
X146487000Y-148848000I0J-225000D01*
G01*
G37*
G04 #@! TD.AperFunction*
G04 #@! TA.AperFunction,SMDPad,CuDef*
G36*
G01*
X148037000Y-148848000D02*
X148037000Y-149348000D01*
G75*
G02*
X147812000Y-149573000I-225000J0D01*
G01*
X147362000Y-149573000D01*
G75*
G02*
X147137000Y-149348000I0J225000D01*
G01*
X147137000Y-148848000D01*
G75*
G02*
X147362000Y-148623000I225000J0D01*
G01*
X147812000Y-148623000D01*
G75*
G02*
X148037000Y-148848000I0J-225000D01*
G01*
G37*
G04 #@! TD.AperFunction*
G04 #@! TA.AperFunction,SMDPad,CuDef*
G36*
G01*
X132125000Y-144522000D02*
X132125000Y-144022000D01*
G75*
G02*
X132350000Y-143797000I225000J0D01*
G01*
X132800000Y-143797000D01*
G75*
G02*
X133025000Y-144022000I0J-225000D01*
G01*
X133025000Y-144522000D01*
G75*
G02*
X132800000Y-144747000I-225000J0D01*
G01*
X132350000Y-144747000D01*
G75*
G02*
X132125000Y-144522000I0J225000D01*
G01*
G37*
G04 #@! TD.AperFunction*
G04 #@! TA.AperFunction,SMDPad,CuDef*
G36*
G01*
X133675000Y-144522000D02*
X133675000Y-144022000D01*
G75*
G02*
X133900000Y-143797000I225000J0D01*
G01*
X134350000Y-143797000D01*
G75*
G02*
X134575000Y-144022000I0J-225000D01*
G01*
X134575000Y-144522000D01*
G75*
G02*
X134350000Y-144747000I-225000J0D01*
G01*
X133900000Y-144747000D01*
G75*
G02*
X133675000Y-144522000I0J225000D01*
G01*
G37*
G04 #@! TD.AperFunction*
G04 #@! TA.AperFunction,SMDPad,CuDef*
G36*
G01*
X102874000Y-152852000D02*
X103374000Y-152852000D01*
G75*
G02*
X103599000Y-153077000I0J-225000D01*
G01*
X103599000Y-153527000D01*
G75*
G02*
X103374000Y-153752000I-225000J0D01*
G01*
X102874000Y-153752000D01*
G75*
G02*
X102649000Y-153527000I0J225000D01*
G01*
X102649000Y-153077000D01*
G75*
G02*
X102874000Y-152852000I225000J0D01*
G01*
G37*
G04 #@! TD.AperFunction*
G04 #@! TA.AperFunction,SMDPad,CuDef*
G36*
G01*
X102874000Y-151302000D02*
X103374000Y-151302000D01*
G75*
G02*
X103599000Y-151527000I0J-225000D01*
G01*
X103599000Y-151977000D01*
G75*
G02*
X103374000Y-152202000I-225000J0D01*
G01*
X102874000Y-152202000D01*
G75*
G02*
X102649000Y-151977000I0J225000D01*
G01*
X102649000Y-151527000D01*
G75*
G02*
X102874000Y-151302000I225000J0D01*
G01*
G37*
G04 #@! TD.AperFunction*
G04 #@! TA.AperFunction,SMDPad,CuDef*
G36*
G01*
X100969000Y-151302000D02*
X101469000Y-151302000D01*
G75*
G02*
X101694000Y-151527000I0J-225000D01*
G01*
X101694000Y-151977000D01*
G75*
G02*
X101469000Y-152202000I-225000J0D01*
G01*
X100969000Y-152202000D01*
G75*
G02*
X100744000Y-151977000I0J225000D01*
G01*
X100744000Y-151527000D01*
G75*
G02*
X100969000Y-151302000I225000J0D01*
G01*
G37*
G04 #@! TD.AperFunction*
G04 #@! TA.AperFunction,SMDPad,CuDef*
G36*
G01*
X100969000Y-152852000D02*
X101469000Y-152852000D01*
G75*
G02*
X101694000Y-153077000I0J-225000D01*
G01*
X101694000Y-153527000D01*
G75*
G02*
X101469000Y-153752000I-225000J0D01*
G01*
X100969000Y-153752000D01*
G75*
G02*
X100744000Y-153527000I0J225000D01*
G01*
X100744000Y-153077000D01*
G75*
G02*
X100969000Y-152852000I225000J0D01*
G01*
G37*
G04 #@! TD.AperFunction*
G04 #@! TA.AperFunction,SMDPad,CuDef*
G36*
G01*
X122686000Y-102433000D02*
X123186000Y-102433000D01*
G75*
G02*
X123411000Y-102658000I0J-225000D01*
G01*
X123411000Y-103108000D01*
G75*
G02*
X123186000Y-103333000I-225000J0D01*
G01*
X122686000Y-103333000D01*
G75*
G02*
X122461000Y-103108000I0J225000D01*
G01*
X122461000Y-102658000D01*
G75*
G02*
X122686000Y-102433000I225000J0D01*
G01*
G37*
G04 #@! TD.AperFunction*
G04 #@! TA.AperFunction,SMDPad,CuDef*
G36*
G01*
X122686000Y-100883000D02*
X123186000Y-100883000D01*
G75*
G02*
X123411000Y-101108000I0J-225000D01*
G01*
X123411000Y-101558000D01*
G75*
G02*
X123186000Y-101783000I-225000J0D01*
G01*
X122686000Y-101783000D01*
G75*
G02*
X122461000Y-101558000I0J225000D01*
G01*
X122461000Y-101108000D01*
G75*
G02*
X122686000Y-100883000I225000J0D01*
G01*
G37*
G04 #@! TD.AperFunction*
G04 #@! TA.AperFunction,SMDPad,CuDef*
G36*
G01*
X125726000Y-112832000D02*
X125226000Y-112832000D01*
G75*
G02*
X125001000Y-112607000I0J225000D01*
G01*
X125001000Y-112157000D01*
G75*
G02*
X125226000Y-111932000I225000J0D01*
G01*
X125726000Y-111932000D01*
G75*
G02*
X125951000Y-112157000I0J-225000D01*
G01*
X125951000Y-112607000D01*
G75*
G02*
X125726000Y-112832000I-225000J0D01*
G01*
G37*
G04 #@! TD.AperFunction*
G04 #@! TA.AperFunction,SMDPad,CuDef*
G36*
G01*
X125726000Y-114382000D02*
X125226000Y-114382000D01*
G75*
G02*
X125001000Y-114157000I0J225000D01*
G01*
X125001000Y-113707000D01*
G75*
G02*
X125226000Y-113482000I225000J0D01*
G01*
X125726000Y-113482000D01*
G75*
G02*
X125951000Y-113707000I0J-225000D01*
G01*
X125951000Y-114157000D01*
G75*
G02*
X125726000Y-114382000I-225000J0D01*
G01*
G37*
G04 #@! TD.AperFunction*
G04 #@! TA.AperFunction,SMDPad,CuDef*
G36*
G01*
X93136000Y-110359000D02*
X93136000Y-109859000D01*
G75*
G02*
X93361000Y-109634000I225000J0D01*
G01*
X93811000Y-109634000D01*
G75*
G02*
X94036000Y-109859000I0J-225000D01*
G01*
X94036000Y-110359000D01*
G75*
G02*
X93811000Y-110584000I-225000J0D01*
G01*
X93361000Y-110584000D01*
G75*
G02*
X93136000Y-110359000I0J225000D01*
G01*
G37*
G04 #@! TD.AperFunction*
G04 #@! TA.AperFunction,SMDPad,CuDef*
G36*
G01*
X94686000Y-110359000D02*
X94686000Y-109859000D01*
G75*
G02*
X94911000Y-109634000I225000J0D01*
G01*
X95361000Y-109634000D01*
G75*
G02*
X95586000Y-109859000I0J-225000D01*
G01*
X95586000Y-110359000D01*
G75*
G02*
X95361000Y-110584000I-225000J0D01*
G01*
X94911000Y-110584000D01*
G75*
G02*
X94686000Y-110359000I0J225000D01*
G01*
G37*
G04 #@! TD.AperFunction*
G04 #@! TA.AperFunction,SMDPad,CuDef*
G36*
G01*
X93136000Y-107057000D02*
X93136000Y-106557000D01*
G75*
G02*
X93361000Y-106332000I225000J0D01*
G01*
X93811000Y-106332000D01*
G75*
G02*
X94036000Y-106557000I0J-225000D01*
G01*
X94036000Y-107057000D01*
G75*
G02*
X93811000Y-107282000I-225000J0D01*
G01*
X93361000Y-107282000D01*
G75*
G02*
X93136000Y-107057000I0J225000D01*
G01*
G37*
G04 #@! TD.AperFunction*
G04 #@! TA.AperFunction,SMDPad,CuDef*
G36*
G01*
X94686000Y-107057000D02*
X94686000Y-106557000D01*
G75*
G02*
X94911000Y-106332000I225000J0D01*
G01*
X95361000Y-106332000D01*
G75*
G02*
X95586000Y-106557000I0J-225000D01*
G01*
X95586000Y-107057000D01*
G75*
G02*
X95361000Y-107282000I-225000J0D01*
G01*
X94911000Y-107282000D01*
G75*
G02*
X94686000Y-107057000I0J225000D01*
G01*
G37*
G04 #@! TD.AperFunction*
D34*
X154178000Y-106680000D03*
X76200000Y-162560000D03*
D11*
X154432000Y-124460000D03*
D10*
X154432000Y-121920000D03*
X154432000Y-114300000D03*
D11*
X154432000Y-116840000D03*
G04 #@! TA.AperFunction,SMDPad,CuDef*
G36*
G01*
X131235000Y-127021000D02*
X131235000Y-126471000D01*
G75*
G02*
X131435000Y-126271000I200000J0D01*
G01*
X131835000Y-126271000D01*
G75*
G02*
X132035000Y-126471000I0J-200000D01*
G01*
X132035000Y-127021000D01*
G75*
G02*
X131835000Y-127221000I-200000J0D01*
G01*
X131435000Y-127221000D01*
G75*
G02*
X131235000Y-127021000I0J200000D01*
G01*
G37*
G04 #@! TD.AperFunction*
G04 #@! TA.AperFunction,SMDPad,CuDef*
G36*
G01*
X129585000Y-127021000D02*
X129585000Y-126471000D01*
G75*
G02*
X129785000Y-126271000I200000J0D01*
G01*
X130185000Y-126271000D01*
G75*
G02*
X130385000Y-126471000I0J-200000D01*
G01*
X130385000Y-127021000D01*
G75*
G02*
X130185000Y-127221000I-200000J0D01*
G01*
X129785000Y-127221000D01*
G75*
G02*
X129585000Y-127021000I0J200000D01*
G01*
G37*
G04 #@! TD.AperFunction*
G04 #@! TA.AperFunction,SMDPad,CuDef*
G36*
G01*
X140163000Y-123804000D02*
X140163000Y-124354000D01*
G75*
G02*
X139963000Y-124554000I-200000J0D01*
G01*
X139563000Y-124554000D01*
G75*
G02*
X139363000Y-124354000I0J200000D01*
G01*
X139363000Y-123804000D01*
G75*
G02*
X139563000Y-123604000I200000J0D01*
G01*
X139963000Y-123604000D01*
G75*
G02*
X140163000Y-123804000I0J-200000D01*
G01*
G37*
G04 #@! TD.AperFunction*
G04 #@! TA.AperFunction,SMDPad,CuDef*
G36*
G01*
X138513000Y-123804000D02*
X138513000Y-124354000D01*
G75*
G02*
X138313000Y-124554000I-200000J0D01*
G01*
X137913000Y-124554000D01*
G75*
G02*
X137713000Y-124354000I0J200000D01*
G01*
X137713000Y-123804000D01*
G75*
G02*
X137913000Y-123604000I200000J0D01*
G01*
X138313000Y-123604000D01*
G75*
G02*
X138513000Y-123804000I0J-200000D01*
G01*
G37*
G04 #@! TD.AperFunction*
G04 #@! TA.AperFunction,SMDPad,CuDef*
G36*
G01*
X139379001Y-126009001D02*
X139379001Y-125459001D01*
G75*
G02*
X139579001Y-125259001I200000J0D01*
G01*
X139979001Y-125259001D01*
G75*
G02*
X140179001Y-125459001I0J-200000D01*
G01*
X140179001Y-126009001D01*
G75*
G02*
X139979001Y-126209001I-200000J0D01*
G01*
X139579001Y-126209001D01*
G75*
G02*
X139379001Y-126009001I0J200000D01*
G01*
G37*
G04 #@! TD.AperFunction*
G04 #@! TA.AperFunction,SMDPad,CuDef*
G36*
G01*
X137729001Y-126009001D02*
X137729001Y-125459001D01*
G75*
G02*
X137929001Y-125259001I200000J0D01*
G01*
X138329001Y-125259001D01*
G75*
G02*
X138529001Y-125459001I0J-200000D01*
G01*
X138529001Y-126009001D01*
G75*
G02*
X138329001Y-126209001I-200000J0D01*
G01*
X137929001Y-126209001D01*
G75*
G02*
X137729001Y-126009001I0J200000D01*
G01*
G37*
G04 #@! TD.AperFunction*
G04 #@! TA.AperFunction,SMDPad,CuDef*
G36*
G01*
X137901000Y-132633000D02*
X138451000Y-132633000D01*
G75*
G02*
X138651000Y-132833000I0J-200000D01*
G01*
X138651000Y-133233000D01*
G75*
G02*
X138451000Y-133433000I-200000J0D01*
G01*
X137901000Y-133433000D01*
G75*
G02*
X137701000Y-133233000I0J200000D01*
G01*
X137701000Y-132833000D01*
G75*
G02*
X137901000Y-132633000I200000J0D01*
G01*
G37*
G04 #@! TD.AperFunction*
G04 #@! TA.AperFunction,SMDPad,CuDef*
G36*
G01*
X137901000Y-134283000D02*
X138451000Y-134283000D01*
G75*
G02*
X138651000Y-134483000I0J-200000D01*
G01*
X138651000Y-134883000D01*
G75*
G02*
X138451000Y-135083000I-200000J0D01*
G01*
X137901000Y-135083000D01*
G75*
G02*
X137701000Y-134883000I0J200000D01*
G01*
X137701000Y-134483000D01*
G75*
G02*
X137901000Y-134283000I200000J0D01*
G01*
G37*
G04 #@! TD.AperFunction*
G04 #@! TA.AperFunction,SMDPad,CuDef*
G36*
G01*
X144293000Y-149435000D02*
X143743000Y-149435000D01*
G75*
G02*
X143543000Y-149235000I0J200000D01*
G01*
X143543000Y-148835000D01*
G75*
G02*
X143743000Y-148635000I200000J0D01*
G01*
X144293000Y-148635000D01*
G75*
G02*
X144493000Y-148835000I0J-200000D01*
G01*
X144493000Y-149235000D01*
G75*
G02*
X144293000Y-149435000I-200000J0D01*
G01*
G37*
G04 #@! TD.AperFunction*
G04 #@! TA.AperFunction,SMDPad,CuDef*
G36*
G01*
X144293000Y-151085000D02*
X143743000Y-151085000D01*
G75*
G02*
X143543000Y-150885000I0J200000D01*
G01*
X143543000Y-150485000D01*
G75*
G02*
X143743000Y-150285000I200000J0D01*
G01*
X144293000Y-150285000D01*
G75*
G02*
X144493000Y-150485000I0J-200000D01*
G01*
X144493000Y-150885000D01*
G75*
G02*
X144293000Y-151085000I-200000J0D01*
G01*
G37*
G04 #@! TD.AperFunction*
G04 #@! TA.AperFunction,SMDPad,CuDef*
G36*
G01*
X139679000Y-134283000D02*
X140229000Y-134283000D01*
G75*
G02*
X140429000Y-134483000I0J-200000D01*
G01*
X140429000Y-134883000D01*
G75*
G02*
X140229000Y-135083000I-200000J0D01*
G01*
X139679000Y-135083000D01*
G75*
G02*
X139479000Y-134883000I0J200000D01*
G01*
X139479000Y-134483000D01*
G75*
G02*
X139679000Y-134283000I200000J0D01*
G01*
G37*
G04 #@! TD.AperFunction*
G04 #@! TA.AperFunction,SMDPad,CuDef*
G36*
G01*
X139679000Y-132633000D02*
X140229000Y-132633000D01*
G75*
G02*
X140429000Y-132833000I0J-200000D01*
G01*
X140429000Y-133233000D01*
G75*
G02*
X140229000Y-133433000I-200000J0D01*
G01*
X139679000Y-133433000D01*
G75*
G02*
X139479000Y-133233000I0J200000D01*
G01*
X139479000Y-132833000D01*
G75*
G02*
X139679000Y-132633000I200000J0D01*
G01*
G37*
G04 #@! TD.AperFunction*
G04 #@! TA.AperFunction,SMDPad,CuDef*
G36*
G01*
X142515000Y-151085000D02*
X141965000Y-151085000D01*
G75*
G02*
X141765000Y-150885000I0J200000D01*
G01*
X141765000Y-150485000D01*
G75*
G02*
X141965000Y-150285000I200000J0D01*
G01*
X142515000Y-150285000D01*
G75*
G02*
X142715000Y-150485000I0J-200000D01*
G01*
X142715000Y-150885000D01*
G75*
G02*
X142515000Y-151085000I-200000J0D01*
G01*
G37*
G04 #@! TD.AperFunction*
G04 #@! TA.AperFunction,SMDPad,CuDef*
G36*
G01*
X142515000Y-149435000D02*
X141965000Y-149435000D01*
G75*
G02*
X141765000Y-149235000I0J200000D01*
G01*
X141765000Y-148835000D01*
G75*
G02*
X141965000Y-148635000I200000J0D01*
G01*
X142515000Y-148635000D01*
G75*
G02*
X142715000Y-148835000I0J-200000D01*
G01*
X142715000Y-149235000D01*
G75*
G02*
X142515000Y-149435000I-200000J0D01*
G01*
G37*
G04 #@! TD.AperFunction*
G04 #@! TA.AperFunction,SMDPad,CuDef*
G36*
G01*
X136673000Y-133433000D02*
X136123000Y-133433000D01*
G75*
G02*
X135923000Y-133233000I0J200000D01*
G01*
X135923000Y-132833000D01*
G75*
G02*
X136123000Y-132633000I200000J0D01*
G01*
X136673000Y-132633000D01*
G75*
G02*
X136873000Y-132833000I0J-200000D01*
G01*
X136873000Y-133233000D01*
G75*
G02*
X136673000Y-133433000I-200000J0D01*
G01*
G37*
G04 #@! TD.AperFunction*
G04 #@! TA.AperFunction,SMDPad,CuDef*
G36*
G01*
X136673000Y-135083000D02*
X136123000Y-135083000D01*
G75*
G02*
X135923000Y-134883000I0J200000D01*
G01*
X135923000Y-134483000D01*
G75*
G02*
X136123000Y-134283000I200000J0D01*
G01*
X136673000Y-134283000D01*
G75*
G02*
X136873000Y-134483000I0J-200000D01*
G01*
X136873000Y-134883000D01*
G75*
G02*
X136673000Y-135083000I-200000J0D01*
G01*
G37*
G04 #@! TD.AperFunction*
G04 #@! TA.AperFunction,SMDPad,CuDef*
G36*
G01*
X140187000Y-148635000D02*
X140737000Y-148635000D01*
G75*
G02*
X140937000Y-148835000I0J-200000D01*
G01*
X140937000Y-149235000D01*
G75*
G02*
X140737000Y-149435000I-200000J0D01*
G01*
X140187000Y-149435000D01*
G75*
G02*
X139987000Y-149235000I0J200000D01*
G01*
X139987000Y-148835000D01*
G75*
G02*
X140187000Y-148635000I200000J0D01*
G01*
G37*
G04 #@! TD.AperFunction*
G04 #@! TA.AperFunction,SMDPad,CuDef*
G36*
G01*
X140187000Y-150285000D02*
X140737000Y-150285000D01*
G75*
G02*
X140937000Y-150485000I0J-200000D01*
G01*
X140937000Y-150885000D01*
G75*
G02*
X140737000Y-151085000I-200000J0D01*
G01*
X140187000Y-151085000D01*
G75*
G02*
X139987000Y-150885000I0J200000D01*
G01*
X139987000Y-150485000D01*
G75*
G02*
X140187000Y-150285000I200000J0D01*
G01*
G37*
G04 #@! TD.AperFunction*
G04 #@! TA.AperFunction,SMDPad,CuDef*
G36*
G01*
X149077000Y-155238000D02*
X149627000Y-155238000D01*
G75*
G02*
X149827000Y-155438000I0J-200000D01*
G01*
X149827000Y-155838000D01*
G75*
G02*
X149627000Y-156038000I-200000J0D01*
G01*
X149077000Y-156038000D01*
G75*
G02*
X148877000Y-155838000I0J200000D01*
G01*
X148877000Y-155438000D01*
G75*
G02*
X149077000Y-155238000I200000J0D01*
G01*
G37*
G04 #@! TD.AperFunction*
G04 #@! TA.AperFunction,SMDPad,CuDef*
G36*
G01*
X149077000Y-153588000D02*
X149627000Y-153588000D01*
G75*
G02*
X149827000Y-153788000I0J-200000D01*
G01*
X149827000Y-154188000D01*
G75*
G02*
X149627000Y-154388000I-200000J0D01*
G01*
X149077000Y-154388000D01*
G75*
G02*
X148877000Y-154188000I0J200000D01*
G01*
X148877000Y-153788000D01*
G75*
G02*
X149077000Y-153588000I200000J0D01*
G01*
G37*
G04 #@! TD.AperFunction*
G04 #@! TA.AperFunction,SMDPad,CuDef*
G36*
G01*
X139171000Y-153588000D02*
X139721000Y-153588000D01*
G75*
G02*
X139921000Y-153788000I0J-200000D01*
G01*
X139921000Y-154188000D01*
G75*
G02*
X139721000Y-154388000I-200000J0D01*
G01*
X139171000Y-154388000D01*
G75*
G02*
X138971000Y-154188000I0J200000D01*
G01*
X138971000Y-153788000D01*
G75*
G02*
X139171000Y-153588000I200000J0D01*
G01*
G37*
G04 #@! TD.AperFunction*
G04 #@! TA.AperFunction,SMDPad,CuDef*
G36*
G01*
X139171000Y-155238000D02*
X139721000Y-155238000D01*
G75*
G02*
X139921000Y-155438000I0J-200000D01*
G01*
X139921000Y-155838000D01*
G75*
G02*
X139721000Y-156038000I-200000J0D01*
G01*
X139171000Y-156038000D01*
G75*
G02*
X138971000Y-155838000I0J200000D01*
G01*
X138971000Y-155438000D01*
G75*
G02*
X139171000Y-155238000I200000J0D01*
G01*
G37*
G04 #@! TD.AperFunction*
G04 #@! TA.AperFunction,SMDPad,CuDef*
G36*
G01*
X135911000Y-155403000D02*
X135361000Y-155403000D01*
G75*
G02*
X135161000Y-155203000I0J200000D01*
G01*
X135161000Y-154803000D01*
G75*
G02*
X135361000Y-154603000I200000J0D01*
G01*
X135911000Y-154603000D01*
G75*
G02*
X136111000Y-154803000I0J-200000D01*
G01*
X136111000Y-155203000D01*
G75*
G02*
X135911000Y-155403000I-200000J0D01*
G01*
G37*
G04 #@! TD.AperFunction*
G04 #@! TA.AperFunction,SMDPad,CuDef*
G36*
G01*
X135911000Y-153753000D02*
X135361000Y-153753000D01*
G75*
G02*
X135161000Y-153553000I0J200000D01*
G01*
X135161000Y-153153000D01*
G75*
G02*
X135361000Y-152953000I200000J0D01*
G01*
X135911000Y-152953000D01*
G75*
G02*
X136111000Y-153153000I0J-200000D01*
G01*
X136111000Y-153553000D01*
G75*
G02*
X135911000Y-153753000I-200000J0D01*
G01*
G37*
G04 #@! TD.AperFunction*
G04 #@! TA.AperFunction,SMDPad,CuDef*
G36*
G01*
X123211000Y-106889000D02*
X122661000Y-106889000D01*
G75*
G02*
X122461000Y-106689000I0J200000D01*
G01*
X122461000Y-106289000D01*
G75*
G02*
X122661000Y-106089000I200000J0D01*
G01*
X123211000Y-106089000D01*
G75*
G02*
X123411000Y-106289000I0J-200000D01*
G01*
X123411000Y-106689000D01*
G75*
G02*
X123211000Y-106889000I-200000J0D01*
G01*
G37*
G04 #@! TD.AperFunction*
G04 #@! TA.AperFunction,SMDPad,CuDef*
G36*
G01*
X123211000Y-105239000D02*
X122661000Y-105239000D01*
G75*
G02*
X122461000Y-105039000I0J200000D01*
G01*
X122461000Y-104639000D01*
G75*
G02*
X122661000Y-104439000I200000J0D01*
G01*
X123211000Y-104439000D01*
G75*
G02*
X123411000Y-104639000I0J-200000D01*
G01*
X123411000Y-105039000D01*
G75*
G02*
X123211000Y-105239000I-200000J0D01*
G01*
G37*
G04 #@! TD.AperFunction*
G04 #@! TA.AperFunction,SMDPad,CuDef*
G36*
G01*
X137054000Y-109557000D02*
X136504000Y-109557000D01*
G75*
G02*
X136304000Y-109357000I0J200000D01*
G01*
X136304000Y-108957000D01*
G75*
G02*
X136504000Y-108757000I200000J0D01*
G01*
X137054000Y-108757000D01*
G75*
G02*
X137254000Y-108957000I0J-200000D01*
G01*
X137254000Y-109357000D01*
G75*
G02*
X137054000Y-109557000I-200000J0D01*
G01*
G37*
G04 #@! TD.AperFunction*
G04 #@! TA.AperFunction,SMDPad,CuDef*
G36*
G01*
X137054000Y-111207000D02*
X136504000Y-111207000D01*
G75*
G02*
X136304000Y-111007000I0J200000D01*
G01*
X136304000Y-110607000D01*
G75*
G02*
X136504000Y-110407000I200000J0D01*
G01*
X137054000Y-110407000D01*
G75*
G02*
X137254000Y-110607000I0J-200000D01*
G01*
X137254000Y-111007000D01*
G75*
G02*
X137054000Y-111207000I-200000J0D01*
G01*
G37*
G04 #@! TD.AperFunction*
G04 #@! TA.AperFunction,SMDPad,CuDef*
G36*
G01*
X135464000Y-103738000D02*
X135464000Y-104288000D01*
G75*
G02*
X135264000Y-104488000I-200000J0D01*
G01*
X134864000Y-104488000D01*
G75*
G02*
X134664000Y-104288000I0J200000D01*
G01*
X134664000Y-103738000D01*
G75*
G02*
X134864000Y-103538000I200000J0D01*
G01*
X135264000Y-103538000D01*
G75*
G02*
X135464000Y-103738000I0J-200000D01*
G01*
G37*
G04 #@! TD.AperFunction*
G04 #@! TA.AperFunction,SMDPad,CuDef*
G36*
G01*
X133814000Y-103738000D02*
X133814000Y-104288000D01*
G75*
G02*
X133614000Y-104488000I-200000J0D01*
G01*
X133214000Y-104488000D01*
G75*
G02*
X133014000Y-104288000I0J200000D01*
G01*
X133014000Y-103738000D01*
G75*
G02*
X133214000Y-103538000I200000J0D01*
G01*
X133614000Y-103538000D01*
G75*
G02*
X133814000Y-103738000I0J-200000D01*
G01*
G37*
G04 #@! TD.AperFunction*
G04 #@! TA.AperFunction,SMDPad,CuDef*
G36*
G01*
X133686000Y-113771000D02*
X133686000Y-114321000D01*
G75*
G02*
X133486000Y-114521000I-200000J0D01*
G01*
X133086000Y-114521000D01*
G75*
G02*
X132886000Y-114321000I0J200000D01*
G01*
X132886000Y-113771000D01*
G75*
G02*
X133086000Y-113571000I200000J0D01*
G01*
X133486000Y-113571000D01*
G75*
G02*
X133686000Y-113771000I0J-200000D01*
G01*
G37*
G04 #@! TD.AperFunction*
G04 #@! TA.AperFunction,SMDPad,CuDef*
G36*
G01*
X132036000Y-113771000D02*
X132036000Y-114321000D01*
G75*
G02*
X131836000Y-114521000I-200000J0D01*
G01*
X131436000Y-114521000D01*
G75*
G02*
X131236000Y-114321000I0J200000D01*
G01*
X131236000Y-113771000D01*
G75*
G02*
X131436000Y-113571000I200000J0D01*
G01*
X131836000Y-113571000D01*
G75*
G02*
X132036000Y-113771000I0J-200000D01*
G01*
G37*
G04 #@! TD.AperFunction*
G04 #@! TA.AperFunction,SMDPad,CuDef*
G36*
G01*
X132036000Y-112120000D02*
X132036000Y-112670000D01*
G75*
G02*
X131836000Y-112870000I-200000J0D01*
G01*
X131436000Y-112870000D01*
G75*
G02*
X131236000Y-112670000I0J200000D01*
G01*
X131236000Y-112120000D01*
G75*
G02*
X131436000Y-111920000I200000J0D01*
G01*
X131836000Y-111920000D01*
G75*
G02*
X132036000Y-112120000I0J-200000D01*
G01*
G37*
G04 #@! TD.AperFunction*
G04 #@! TA.AperFunction,SMDPad,CuDef*
G36*
G01*
X133686000Y-112120000D02*
X133686000Y-112670000D01*
G75*
G02*
X133486000Y-112870000I-200000J0D01*
G01*
X133086000Y-112870000D01*
G75*
G02*
X132886000Y-112670000I0J200000D01*
G01*
X132886000Y-112120000D01*
G75*
G02*
X133086000Y-111920000I200000J0D01*
G01*
X133486000Y-111920000D01*
G75*
G02*
X133686000Y-112120000I0J-200000D01*
G01*
G37*
G04 #@! TD.AperFunction*
G04 #@! TA.AperFunction,SMDPad,CuDef*
G36*
G01*
X94913000Y-105177000D02*
X94913000Y-104627000D01*
G75*
G02*
X95113000Y-104427000I200000J0D01*
G01*
X95513000Y-104427000D01*
G75*
G02*
X95713000Y-104627000I0J-200000D01*
G01*
X95713000Y-105177000D01*
G75*
G02*
X95513000Y-105377000I-200000J0D01*
G01*
X95113000Y-105377000D01*
G75*
G02*
X94913000Y-105177000I0J200000D01*
G01*
G37*
G04 #@! TD.AperFunction*
G04 #@! TA.AperFunction,SMDPad,CuDef*
G36*
G01*
X93263000Y-105177000D02*
X93263000Y-104627000D01*
G75*
G02*
X93463000Y-104427000I200000J0D01*
G01*
X93863000Y-104427000D01*
G75*
G02*
X94063000Y-104627000I0J-200000D01*
G01*
X94063000Y-105177000D01*
G75*
G02*
X93863000Y-105377000I-200000J0D01*
G01*
X93463000Y-105377000D01*
G75*
G02*
X93263000Y-105177000I0J200000D01*
G01*
G37*
G04 #@! TD.AperFunction*
G04 #@! TA.AperFunction,SMDPad,CuDef*
G36*
G01*
X112439000Y-114448000D02*
X112439000Y-113898000D01*
G75*
G02*
X112639000Y-113698000I200000J0D01*
G01*
X113039000Y-113698000D01*
G75*
G02*
X113239000Y-113898000I0J-200000D01*
G01*
X113239000Y-114448000D01*
G75*
G02*
X113039000Y-114648000I-200000J0D01*
G01*
X112639000Y-114648000D01*
G75*
G02*
X112439000Y-114448000I0J200000D01*
G01*
G37*
G04 #@! TD.AperFunction*
G04 #@! TA.AperFunction,SMDPad,CuDef*
G36*
G01*
X110789000Y-114448000D02*
X110789000Y-113898000D01*
G75*
G02*
X110989000Y-113698000I200000J0D01*
G01*
X111389000Y-113698000D01*
G75*
G02*
X111589000Y-113898000I0J-200000D01*
G01*
X111589000Y-114448000D01*
G75*
G02*
X111389000Y-114648000I-200000J0D01*
G01*
X110989000Y-114648000D01*
G75*
G02*
X110789000Y-114448000I0J200000D01*
G01*
G37*
G04 #@! TD.AperFunction*
X105410000Y-148844000D03*
D10*
X102870000Y-148844000D03*
X105410000Y-146304000D03*
X102870000Y-146304000D03*
X105410000Y-143764000D03*
X102870000Y-143764000D03*
X105410000Y-141224000D03*
X102870000Y-141224000D03*
G04 #@! TA.AperFunction,SMDPad,CuDef*
G36*
G01*
X99372000Y-150314000D02*
X99372000Y-151530000D01*
G75*
G02*
X99220000Y-151682000I-152000J0D01*
G01*
X96724000Y-151682000D01*
G75*
G02*
X96572000Y-151530000I0J152000D01*
G01*
X96572000Y-150314000D01*
G75*
G02*
X96724000Y-150162000I152000J0D01*
G01*
X99220000Y-150162000D01*
G75*
G02*
X99372000Y-150314000I0J-152000D01*
G01*
G37*
G04 #@! TD.AperFunction*
G04 #@! TA.AperFunction,SMDPad,CuDef*
G36*
G01*
X99372000Y-148314000D02*
X99372000Y-149530000D01*
G75*
G02*
X99220000Y-149682000I-152000J0D01*
G01*
X96724000Y-149682000D01*
G75*
G02*
X96572000Y-149530000I0J152000D01*
G01*
X96572000Y-148314000D01*
G75*
G02*
X96724000Y-148162000I152000J0D01*
G01*
X99220000Y-148162000D01*
G75*
G02*
X99372000Y-148314000I0J-152000D01*
G01*
G37*
G04 #@! TD.AperFunction*
G04 #@! TA.AperFunction,SMDPad,CuDef*
G36*
G01*
X99372000Y-146314000D02*
X99372000Y-147530000D01*
G75*
G02*
X99220000Y-147682000I-152000J0D01*
G01*
X96724000Y-147682000D01*
G75*
G02*
X96572000Y-147530000I0J152000D01*
G01*
X96572000Y-146314000D01*
G75*
G02*
X96724000Y-146162000I152000J0D01*
G01*
X99220000Y-146162000D01*
G75*
G02*
X99372000Y-146314000I0J-152000D01*
G01*
G37*
G04 #@! TD.AperFunction*
G04 #@! TA.AperFunction,SMDPad,CuDef*
G36*
G01*
X99372000Y-144314000D02*
X99372000Y-145530000D01*
G75*
G02*
X99220000Y-145682000I-152000J0D01*
G01*
X96724000Y-145682000D01*
G75*
G02*
X96572000Y-145530000I0J152000D01*
G01*
X96572000Y-144314000D01*
G75*
G02*
X96724000Y-144162000I152000J0D01*
G01*
X99220000Y-144162000D01*
G75*
G02*
X99372000Y-144314000I0J-152000D01*
G01*
G37*
G04 #@! TD.AperFunction*
G04 #@! TA.AperFunction,SMDPad,CuDef*
G36*
G01*
X99372000Y-142314000D02*
X99372000Y-143530000D01*
G75*
G02*
X99220000Y-143682000I-152000J0D01*
G01*
X96724000Y-143682000D01*
G75*
G02*
X96572000Y-143530000I0J152000D01*
G01*
X96572000Y-142314000D01*
G75*
G02*
X96724000Y-142162000I152000J0D01*
G01*
X99220000Y-142162000D01*
G75*
G02*
X99372000Y-142314000I0J-152000D01*
G01*
G37*
G04 #@! TD.AperFunction*
G04 #@! TA.AperFunction,SMDPad,CuDef*
G36*
G01*
X99372000Y-140314000D02*
X99372000Y-141530000D01*
G75*
G02*
X99220000Y-141682000I-152000J0D01*
G01*
X96724000Y-141682000D01*
G75*
G02*
X96572000Y-141530000I0J152000D01*
G01*
X96572000Y-140314000D01*
G75*
G02*
X96724000Y-140162000I152000J0D01*
G01*
X99220000Y-140162000D01*
G75*
G02*
X99372000Y-140314000I0J-152000D01*
G01*
G37*
G04 #@! TD.AperFunction*
G04 #@! TA.AperFunction,SMDPad,CuDef*
G36*
G01*
X99372000Y-138314000D02*
X99372000Y-139530000D01*
G75*
G02*
X99220000Y-139682000I-152000J0D01*
G01*
X96724000Y-139682000D01*
G75*
G02*
X96572000Y-139530000I0J152000D01*
G01*
X96572000Y-138314000D01*
G75*
G02*
X96724000Y-138162000I152000J0D01*
G01*
X99220000Y-138162000D01*
G75*
G02*
X99372000Y-138314000I0J-152000D01*
G01*
G37*
G04 #@! TD.AperFunction*
G04 #@! TA.AperFunction,SMDPad,CuDef*
G36*
G01*
X99372000Y-136314000D02*
X99372000Y-137530000D01*
G75*
G02*
X99220000Y-137682000I-152000J0D01*
G01*
X96724000Y-137682000D01*
G75*
G02*
X96572000Y-137530000I0J152000D01*
G01*
X96572000Y-136314000D01*
G75*
G02*
X96724000Y-136162000I152000J0D01*
G01*
X99220000Y-136162000D01*
G75*
G02*
X99372000Y-136314000I0J-152000D01*
G01*
G37*
G04 #@! TD.AperFunction*
G04 #@! TA.AperFunction,SMDPad,CuDef*
G36*
G01*
X99372000Y-134314000D02*
X99372000Y-135530000D01*
G75*
G02*
X99220000Y-135682000I-152000J0D01*
G01*
X96724000Y-135682000D01*
G75*
G02*
X96572000Y-135530000I0J152000D01*
G01*
X96572000Y-134314000D01*
G75*
G02*
X96724000Y-134162000I152000J0D01*
G01*
X99220000Y-134162000D01*
G75*
G02*
X99372000Y-134314000I0J-152000D01*
G01*
G37*
G04 #@! TD.AperFunction*
G04 #@! TA.AperFunction,SMDPad,CuDef*
G36*
G01*
X99372000Y-132314000D02*
X99372000Y-133530000D01*
G75*
G02*
X99220000Y-133682000I-152000J0D01*
G01*
X96724000Y-133682000D01*
G75*
G02*
X96572000Y-133530000I0J152000D01*
G01*
X96572000Y-132314000D01*
G75*
G02*
X96724000Y-132162000I152000J0D01*
G01*
X99220000Y-132162000D01*
G75*
G02*
X99372000Y-132314000I0J-152000D01*
G01*
G37*
G04 #@! TD.AperFunction*
G04 #@! TA.AperFunction,SMDPad,CuDef*
G36*
G01*
X99372000Y-130314000D02*
X99372000Y-131530000D01*
G75*
G02*
X99220000Y-131682000I-152000J0D01*
G01*
X96724000Y-131682000D01*
G75*
G02*
X96572000Y-131530000I0J152000D01*
G01*
X96572000Y-130314000D01*
G75*
G02*
X96724000Y-130162000I152000J0D01*
G01*
X99220000Y-130162000D01*
G75*
G02*
X99372000Y-130314000I0J-152000D01*
G01*
G37*
G04 #@! TD.AperFunction*
G04 #@! TA.AperFunction,SMDPad,CuDef*
G36*
G01*
X99372000Y-128314000D02*
X99372000Y-129530000D01*
G75*
G02*
X99220000Y-129682000I-152000J0D01*
G01*
X96724000Y-129682000D01*
G75*
G02*
X96572000Y-129530000I0J152000D01*
G01*
X96572000Y-128314000D01*
G75*
G02*
X96724000Y-128162000I152000J0D01*
G01*
X99220000Y-128162000D01*
G75*
G02*
X99372000Y-128314000I0J-152000D01*
G01*
G37*
G04 #@! TD.AperFunction*
G04 #@! TA.AperFunction,SMDPad,CuDef*
G36*
G01*
X99372000Y-126314000D02*
X99372000Y-127530000D01*
G75*
G02*
X99220000Y-127682000I-152000J0D01*
G01*
X96724000Y-127682000D01*
G75*
G02*
X96572000Y-127530000I0J152000D01*
G01*
X96572000Y-126314000D01*
G75*
G02*
X96724000Y-126162000I152000J0D01*
G01*
X99220000Y-126162000D01*
G75*
G02*
X99372000Y-126314000I0J-152000D01*
G01*
G37*
G04 #@! TD.AperFunction*
G04 #@! TA.AperFunction,SMDPad,CuDef*
G36*
G01*
X77672000Y-126314000D02*
X77672000Y-127530000D01*
G75*
G02*
X77520000Y-127682000I-152000J0D01*
G01*
X75024000Y-127682000D01*
G75*
G02*
X74872000Y-127530000I0J152000D01*
G01*
X74872000Y-126314000D01*
G75*
G02*
X75024000Y-126162000I152000J0D01*
G01*
X77520000Y-126162000D01*
G75*
G02*
X77672000Y-126314000I0J-152000D01*
G01*
G37*
G04 #@! TD.AperFunction*
G04 #@! TA.AperFunction,SMDPad,CuDef*
G36*
G01*
X77672000Y-128314000D02*
X77672000Y-129530000D01*
G75*
G02*
X77520000Y-129682000I-152000J0D01*
G01*
X75024000Y-129682000D01*
G75*
G02*
X74872000Y-129530000I0J152000D01*
G01*
X74872000Y-128314000D01*
G75*
G02*
X75024000Y-128162000I152000J0D01*
G01*
X77520000Y-128162000D01*
G75*
G02*
X77672000Y-128314000I0J-152000D01*
G01*
G37*
G04 #@! TD.AperFunction*
G04 #@! TA.AperFunction,SMDPad,CuDef*
G36*
G01*
X77672000Y-130314000D02*
X77672000Y-131530000D01*
G75*
G02*
X77520000Y-131682000I-152000J0D01*
G01*
X75024000Y-131682000D01*
G75*
G02*
X74872000Y-131530000I0J152000D01*
G01*
X74872000Y-130314000D01*
G75*
G02*
X75024000Y-130162000I152000J0D01*
G01*
X77520000Y-130162000D01*
G75*
G02*
X77672000Y-130314000I0J-152000D01*
G01*
G37*
G04 #@! TD.AperFunction*
G04 #@! TA.AperFunction,SMDPad,CuDef*
G36*
G01*
X77672000Y-132314000D02*
X77672000Y-133530000D01*
G75*
G02*
X77520000Y-133682000I-152000J0D01*
G01*
X75024000Y-133682000D01*
G75*
G02*
X74872000Y-133530000I0J152000D01*
G01*
X74872000Y-132314000D01*
G75*
G02*
X75024000Y-132162000I152000J0D01*
G01*
X77520000Y-132162000D01*
G75*
G02*
X77672000Y-132314000I0J-152000D01*
G01*
G37*
G04 #@! TD.AperFunction*
G04 #@! TA.AperFunction,SMDPad,CuDef*
G36*
G01*
X77672000Y-134314000D02*
X77672000Y-135530000D01*
G75*
G02*
X77520000Y-135682000I-152000J0D01*
G01*
X75024000Y-135682000D01*
G75*
G02*
X74872000Y-135530000I0J152000D01*
G01*
X74872000Y-134314000D01*
G75*
G02*
X75024000Y-134162000I152000J0D01*
G01*
X77520000Y-134162000D01*
G75*
G02*
X77672000Y-134314000I0J-152000D01*
G01*
G37*
G04 #@! TD.AperFunction*
G04 #@! TA.AperFunction,SMDPad,CuDef*
G36*
G01*
X77672000Y-136314000D02*
X77672000Y-137530000D01*
G75*
G02*
X77520000Y-137682000I-152000J0D01*
G01*
X75024000Y-137682000D01*
G75*
G02*
X74872000Y-137530000I0J152000D01*
G01*
X74872000Y-136314000D01*
G75*
G02*
X75024000Y-136162000I152000J0D01*
G01*
X77520000Y-136162000D01*
G75*
G02*
X77672000Y-136314000I0J-152000D01*
G01*
G37*
G04 #@! TD.AperFunction*
G04 #@! TA.AperFunction,SMDPad,CuDef*
G36*
G01*
X77672000Y-138314000D02*
X77672000Y-139530000D01*
G75*
G02*
X77520000Y-139682000I-152000J0D01*
G01*
X75024000Y-139682000D01*
G75*
G02*
X74872000Y-139530000I0J152000D01*
G01*
X74872000Y-138314000D01*
G75*
G02*
X75024000Y-138162000I152000J0D01*
G01*
X77520000Y-138162000D01*
G75*
G02*
X77672000Y-138314000I0J-152000D01*
G01*
G37*
G04 #@! TD.AperFunction*
G04 #@! TA.AperFunction,SMDPad,CuDef*
G36*
G01*
X77672000Y-140314000D02*
X77672000Y-141530000D01*
G75*
G02*
X77520000Y-141682000I-152000J0D01*
G01*
X75024000Y-141682000D01*
G75*
G02*
X74872000Y-141530000I0J152000D01*
G01*
X74872000Y-140314000D01*
G75*
G02*
X75024000Y-140162000I152000J0D01*
G01*
X77520000Y-140162000D01*
G75*
G02*
X77672000Y-140314000I0J-152000D01*
G01*
G37*
G04 #@! TD.AperFunction*
G04 #@! TA.AperFunction,SMDPad,CuDef*
G36*
G01*
X77672000Y-142314000D02*
X77672000Y-143530000D01*
G75*
G02*
X77520000Y-143682000I-152000J0D01*
G01*
X75024000Y-143682000D01*
G75*
G02*
X74872000Y-143530000I0J152000D01*
G01*
X74872000Y-142314000D01*
G75*
G02*
X75024000Y-142162000I152000J0D01*
G01*
X77520000Y-142162000D01*
G75*
G02*
X77672000Y-142314000I0J-152000D01*
G01*
G37*
G04 #@! TD.AperFunction*
G04 #@! TA.AperFunction,SMDPad,CuDef*
G36*
G01*
X77672000Y-144314000D02*
X77672000Y-145530000D01*
G75*
G02*
X77520000Y-145682000I-152000J0D01*
G01*
X75024000Y-145682000D01*
G75*
G02*
X74872000Y-145530000I0J152000D01*
G01*
X74872000Y-144314000D01*
G75*
G02*
X75024000Y-144162000I152000J0D01*
G01*
X77520000Y-144162000D01*
G75*
G02*
X77672000Y-144314000I0J-152000D01*
G01*
G37*
G04 #@! TD.AperFunction*
G04 #@! TA.AperFunction,SMDPad,CuDef*
G36*
G01*
X77672000Y-146314000D02*
X77672000Y-147530000D01*
G75*
G02*
X77520000Y-147682000I-152000J0D01*
G01*
X75024000Y-147682000D01*
G75*
G02*
X74872000Y-147530000I0J152000D01*
G01*
X74872000Y-146314000D01*
G75*
G02*
X75024000Y-146162000I152000J0D01*
G01*
X77520000Y-146162000D01*
G75*
G02*
X77672000Y-146314000I0J-152000D01*
G01*
G37*
G04 #@! TD.AperFunction*
G04 #@! TA.AperFunction,SMDPad,CuDef*
G36*
G01*
X77672000Y-148314000D02*
X77672000Y-149530000D01*
G75*
G02*
X77520000Y-149682000I-152000J0D01*
G01*
X75024000Y-149682000D01*
G75*
G02*
X74872000Y-149530000I0J152000D01*
G01*
X74872000Y-148314000D01*
G75*
G02*
X75024000Y-148162000I152000J0D01*
G01*
X77520000Y-148162000D01*
G75*
G02*
X77672000Y-148314000I0J-152000D01*
G01*
G37*
G04 #@! TD.AperFunction*
G04 #@! TA.AperFunction,SMDPad,CuDef*
G36*
G01*
X77672000Y-150314000D02*
X77672000Y-151530000D01*
G75*
G02*
X77520000Y-151682000I-152000J0D01*
G01*
X75024000Y-151682000D01*
G75*
G02*
X74872000Y-151530000I0J152000D01*
G01*
X74872000Y-150314000D01*
G75*
G02*
X75024000Y-150162000I152000J0D01*
G01*
X77520000Y-150162000D01*
G75*
G02*
X77672000Y-150314000I0J-152000D01*
G01*
G37*
G04 #@! TD.AperFunction*
G04 #@! TA.AperFunction,SMDPad,CuDef*
G36*
G01*
X77672000Y-152314000D02*
X77672000Y-153530000D01*
G75*
G02*
X77520000Y-153682000I-152000J0D01*
G01*
X75024000Y-153682000D01*
G75*
G02*
X74872000Y-153530000I0J152000D01*
G01*
X74872000Y-152314000D01*
G75*
G02*
X75024000Y-152162000I152000J0D01*
G01*
X77520000Y-152162000D01*
G75*
G02*
X77672000Y-152314000I0J-152000D01*
G01*
G37*
G04 #@! TD.AperFunction*
G04 #@! TA.AperFunction,SMDPad,CuDef*
G36*
G01*
X77672000Y-154314000D02*
X77672000Y-155530000D01*
G75*
G02*
X77520000Y-155682000I-152000J0D01*
G01*
X75024000Y-155682000D01*
G75*
G02*
X74872000Y-155530000I0J152000D01*
G01*
X74872000Y-154314000D01*
G75*
G02*
X75024000Y-154162000I152000J0D01*
G01*
X77520000Y-154162000D01*
G75*
G02*
X77672000Y-154314000I0J-152000D01*
G01*
G37*
G04 #@! TD.AperFunction*
G04 #@! TA.AperFunction,SMDPad,CuDef*
G36*
G01*
X77672000Y-156314000D02*
X77672000Y-157530000D01*
G75*
G02*
X77520000Y-157682000I-152000J0D01*
G01*
X75024000Y-157682000D01*
G75*
G02*
X74872000Y-157530000I0J152000D01*
G01*
X74872000Y-156314000D01*
G75*
G02*
X75024000Y-156162000I152000J0D01*
G01*
X77520000Y-156162000D01*
G75*
G02*
X77672000Y-156314000I0J-152000D01*
G01*
G37*
G04 #@! TD.AperFunction*
G04 #@! TA.AperFunction,SMDPad,CuDef*
G36*
G01*
X94882000Y-123594000D02*
X94882000Y-126090000D01*
G75*
G02*
X94730000Y-126242000I-152000J0D01*
G01*
X93514000Y-126242000D01*
G75*
G02*
X93362000Y-126090000I0J152000D01*
G01*
X93362000Y-123594000D01*
G75*
G02*
X93514000Y-123442000I152000J0D01*
G01*
X94730000Y-123442000D01*
G75*
G02*
X94882000Y-123594000I0J-152000D01*
G01*
G37*
G04 #@! TD.AperFunction*
G04 #@! TA.AperFunction,SMDPad,CuDef*
G36*
G01*
X92882000Y-123594000D02*
X92882000Y-126090000D01*
G75*
G02*
X92730000Y-126242000I-152000J0D01*
G01*
X91514000Y-126242000D01*
G75*
G02*
X91362000Y-126090000I0J152000D01*
G01*
X91362000Y-123594000D01*
G75*
G02*
X91514000Y-123442000I152000J0D01*
G01*
X92730000Y-123442000D01*
G75*
G02*
X92882000Y-123594000I0J-152000D01*
G01*
G37*
G04 #@! TD.AperFunction*
G04 #@! TA.AperFunction,SMDPad,CuDef*
G36*
G01*
X90882000Y-123594000D02*
X90882000Y-126090000D01*
G75*
G02*
X90730000Y-126242000I-152000J0D01*
G01*
X89514000Y-126242000D01*
G75*
G02*
X89362000Y-126090000I0J152000D01*
G01*
X89362000Y-123594000D01*
G75*
G02*
X89514000Y-123442000I152000J0D01*
G01*
X90730000Y-123442000D01*
G75*
G02*
X90882000Y-123594000I0J-152000D01*
G01*
G37*
G04 #@! TD.AperFunction*
G04 #@! TA.AperFunction,SMDPad,CuDef*
G36*
G01*
X88882000Y-123594000D02*
X88882000Y-126090000D01*
G75*
G02*
X88730000Y-126242000I-152000J0D01*
G01*
X87514000Y-126242000D01*
G75*
G02*
X87362000Y-126090000I0J152000D01*
G01*
X87362000Y-123594000D01*
G75*
G02*
X87514000Y-123442000I152000J0D01*
G01*
X88730000Y-123442000D01*
G75*
G02*
X88882000Y-123594000I0J-152000D01*
G01*
G37*
G04 #@! TD.AperFunction*
G04 #@! TA.AperFunction,SMDPad,CuDef*
G36*
G01*
X86882000Y-123594000D02*
X86882000Y-126090000D01*
G75*
G02*
X86730000Y-126242000I-152000J0D01*
G01*
X85514000Y-126242000D01*
G75*
G02*
X85362000Y-126090000I0J152000D01*
G01*
X85362000Y-123594000D01*
G75*
G02*
X85514000Y-123442000I152000J0D01*
G01*
X86730000Y-123442000D01*
G75*
G02*
X86882000Y-123594000I0J-152000D01*
G01*
G37*
G04 #@! TD.AperFunction*
G04 #@! TA.AperFunction,SMDPad,CuDef*
G36*
G01*
X84882000Y-123594000D02*
X84882000Y-126090000D01*
G75*
G02*
X84730000Y-126242000I-152000J0D01*
G01*
X83514000Y-126242000D01*
G75*
G02*
X83362000Y-126090000I0J152000D01*
G01*
X83362000Y-123594000D01*
G75*
G02*
X83514000Y-123442000I152000J0D01*
G01*
X84730000Y-123442000D01*
G75*
G02*
X84882000Y-123594000I0J-152000D01*
G01*
G37*
G04 #@! TD.AperFunction*
G04 #@! TA.AperFunction,SMDPad,CuDef*
G36*
G01*
X82882000Y-123594000D02*
X82882000Y-126090000D01*
G75*
G02*
X82730000Y-126242000I-152000J0D01*
G01*
X81514000Y-126242000D01*
G75*
G02*
X81362000Y-126090000I0J152000D01*
G01*
X81362000Y-123594000D01*
G75*
G02*
X81514000Y-123442000I152000J0D01*
G01*
X82730000Y-123442000D01*
G75*
G02*
X82882000Y-123594000I0J-152000D01*
G01*
G37*
G04 #@! TD.AperFunction*
G04 #@! TA.AperFunction,SMDPad,CuDef*
G36*
G01*
X80882000Y-123594000D02*
X80882000Y-126090000D01*
G75*
G02*
X80730000Y-126242000I-152000J0D01*
G01*
X79514000Y-126242000D01*
G75*
G02*
X79362000Y-126090000I0J152000D01*
G01*
X79362000Y-123594000D01*
G75*
G02*
X79514000Y-123442000I152000J0D01*
G01*
X80730000Y-123442000D01*
G75*
G02*
X80882000Y-123594000I0J-152000D01*
G01*
G37*
G04 #@! TD.AperFunction*
G04 #@! TA.AperFunction,SMDPad,CuDef*
G36*
G01*
X93272000Y-146841000D02*
X93272000Y-149073000D01*
G75*
G02*
X92993000Y-149352000I-279000J0D01*
G01*
X90761000Y-149352000D01*
G75*
G02*
X90482000Y-149073000I0J279000D01*
G01*
X90482000Y-146841000D01*
G75*
G02*
X90761000Y-146562000I279000J0D01*
G01*
X92993000Y-146562000D01*
G75*
G02*
X93272000Y-146841000I0J-279000D01*
G01*
G37*
G04 #@! TD.AperFunction*
G04 #@! TA.AperFunction,SMDPad,CuDef*
G36*
G01*
X96571750Y-120088600D02*
X97484250Y-120088600D01*
G75*
G02*
X97728000Y-120332350I0J-243750D01*
G01*
X97728000Y-120819850D01*
G75*
G02*
X97484250Y-121063600I-243750J0D01*
G01*
X96571750Y-121063600D01*
G75*
G02*
X96328000Y-120819850I0J243750D01*
G01*
X96328000Y-120332350D01*
G75*
G02*
X96571750Y-120088600I243750J0D01*
G01*
G37*
G04 #@! TD.AperFunction*
G04 #@! TA.AperFunction,SMDPad,CuDef*
G36*
G01*
X96571750Y-121963600D02*
X97484250Y-121963600D01*
G75*
G02*
X97728000Y-122207350I0J-243750D01*
G01*
X97728000Y-122694850D01*
G75*
G02*
X97484250Y-122938600I-243750J0D01*
G01*
X96571750Y-122938600D01*
G75*
G02*
X96328000Y-122694850I0J243750D01*
G01*
X96328000Y-122207350D01*
G75*
G02*
X96571750Y-121963600I243750J0D01*
G01*
G37*
G04 #@! TD.AperFunction*
G04 #@! TA.AperFunction,SMDPad,CuDef*
G36*
G01*
X79509200Y-111964150D02*
X79509200Y-112876650D01*
G75*
G02*
X79265450Y-113120400I-243750J0D01*
G01*
X78777950Y-113120400D01*
G75*
G02*
X78534200Y-112876650I0J243750D01*
G01*
X78534200Y-111964150D01*
G75*
G02*
X78777950Y-111720400I243750J0D01*
G01*
X79265450Y-111720400D01*
G75*
G02*
X79509200Y-111964150I0J-243750D01*
G01*
G37*
G04 #@! TD.AperFunction*
G04 #@! TA.AperFunction,SMDPad,CuDef*
G36*
G01*
X81384200Y-111964150D02*
X81384200Y-112876650D01*
G75*
G02*
X81140450Y-113120400I-243750J0D01*
G01*
X80652950Y-113120400D01*
G75*
G02*
X80409200Y-112876650I0J243750D01*
G01*
X80409200Y-111964150D01*
G75*
G02*
X80652950Y-111720400I243750J0D01*
G01*
X81140450Y-111720400D01*
G75*
G02*
X81384200Y-111964150I0J-243750D01*
G01*
G37*
G04 #@! TD.AperFunction*
G04 #@! TA.AperFunction,SMDPad,CuDef*
G36*
G01*
X81184200Y-110284550D02*
X81184200Y-110797050D01*
G75*
G02*
X80965450Y-111015800I-218750J0D01*
G01*
X80527950Y-111015800D01*
G75*
G02*
X80309200Y-110797050I0J218750D01*
G01*
X80309200Y-110284550D01*
G75*
G02*
X80527950Y-110065800I218750J0D01*
G01*
X80965450Y-110065800D01*
G75*
G02*
X81184200Y-110284550I0J-218750D01*
G01*
G37*
G04 #@! TD.AperFunction*
G04 #@! TA.AperFunction,SMDPad,CuDef*
G36*
G01*
X79609200Y-110284550D02*
X79609200Y-110797050D01*
G75*
G02*
X79390450Y-111015800I-218750J0D01*
G01*
X78952950Y-111015800D01*
G75*
G02*
X78734200Y-110797050I0J218750D01*
G01*
X78734200Y-110284550D01*
G75*
G02*
X78952950Y-110065800I218750J0D01*
G01*
X79390450Y-110065800D01*
G75*
G02*
X79609200Y-110284550I0J-218750D01*
G01*
G37*
G04 #@! TD.AperFunction*
D35*
X153924000Y-141605000D03*
D36*
X153924000Y-139065000D03*
X153924000Y-144145000D03*
D35*
X153924000Y-146685000D03*
X141478000Y-98044000D03*
D36*
X138938000Y-98044000D03*
D35*
X153924000Y-156845000D03*
D36*
X153924000Y-154305000D03*
X153924000Y-149225000D03*
D35*
X153924000Y-151765000D03*
X153924000Y-167005000D03*
D36*
X153924000Y-164465000D03*
X153924000Y-159385000D03*
D35*
X153924000Y-161925000D03*
D37*
X93446000Y-119533200D03*
X90906000Y-119533200D03*
X88366000Y-119533200D03*
X83286000Y-119533200D03*
X80746000Y-119533200D03*
X78206000Y-119533200D03*
X75666000Y-119533200D03*
D38*
X129540000Y-111125000D03*
D39*
X110490000Y-117856000D03*
X95758000Y-111760000D03*
X99822000Y-107315000D03*
X92202000Y-105537000D03*
D38*
X128143000Y-168656000D03*
X129413000Y-157480000D03*
X136652000Y-157353000D03*
X122555000Y-169672000D03*
X138684000Y-169672000D03*
X146558000Y-139954000D03*
X137668000Y-143002000D03*
X140462000Y-164592000D03*
X127127000Y-110998000D03*
X125222000Y-133350000D03*
X125222000Y-135255000D03*
X110617000Y-136398000D03*
X113665000Y-133477000D03*
X113665000Y-131826000D03*
X118745000Y-132588000D03*
X106807000Y-131572000D03*
X106807000Y-133350000D03*
X108712000Y-158750000D03*
X108712000Y-160274000D03*
X102108000Y-160782000D03*
X102108000Y-159004000D03*
X105813868Y-163217868D03*
X120904000Y-160528000D03*
X120904000Y-162052000D03*
X113792000Y-159512000D03*
X121666000Y-102870000D03*
X126365000Y-117475000D03*
X129540000Y-122174000D03*
X124460000Y-125095000D03*
X128905000Y-124968000D03*
X148844000Y-139954000D03*
X131318000Y-144272000D03*
X140335000Y-147955000D03*
X147320000Y-147828000D03*
X100076000Y-150876000D03*
X91186000Y-148844000D03*
X91877000Y-147957000D03*
X84836000Y-149352000D03*
X78486000Y-152908000D03*
X135128000Y-134620000D03*
X133096000Y-140970000D03*
X140970000Y-126263400D03*
X75438000Y-125476000D03*
X99060000Y-125476000D03*
X100076000Y-130810000D03*
X143002000Y-145034000D03*
X138938000Y-136144000D03*
X100076000Y-153416000D03*
X98602800Y-122478800D03*
X79146400Y-109321600D03*
X78384400Y-109321600D03*
X98602800Y-121666000D03*
X110490000Y-112522000D03*
X125476000Y-142748000D03*
X124714000Y-129540000D03*
D39*
X110490000Y-111379000D03*
X110490000Y-109855000D03*
D38*
X112014000Y-114173000D03*
X134239000Y-104013000D03*
X117602000Y-124714000D03*
X118745000Y-135001000D03*
X113792000Y-151892000D03*
X113792000Y-162052000D03*
X128524000Y-123190000D03*
X128905000Y-126314199D03*
X145542000Y-138938000D03*
X144018000Y-147955000D03*
X137922000Y-136144000D03*
X145796000Y-100584000D03*
X131572000Y-154178000D03*
X129032000Y-152400000D03*
X123190000Y-155194000D03*
X109982000Y-159512000D03*
X109982000Y-161036000D03*
X130556000Y-168656000D03*
X114808000Y-132588000D03*
X114808000Y-134112000D03*
X134112000Y-145542000D03*
X92456000Y-104394000D03*
X139573000Y-152908000D03*
X150495000Y-153924000D03*
D39*
X124694599Y-110216599D03*
X135235600Y-109708600D03*
D38*
X150622000Y-131318000D03*
X142448600Y-136525000D03*
X142009750Y-135786750D03*
X152273000Y-135255000D03*
X141478000Y-136271000D03*
X151586388Y-135198676D03*
X140995400Y-135742678D03*
X151104600Y-134747000D03*
X133604000Y-168402000D03*
X134112000Y-152146000D03*
X140462000Y-145034000D03*
X137922000Y-122682000D03*
X124968000Y-146558000D03*
X132080000Y-103886000D03*
X138176000Y-140970000D03*
X129794000Y-138176000D03*
X127254000Y-138176000D03*
X127254000Y-115062000D03*
X138176000Y-141630403D03*
X129286000Y-138684000D03*
X126746000Y-138684000D03*
X123952000Y-116840000D03*
X126746000Y-127508000D03*
X123952000Y-127762000D03*
X138176000Y-142290806D03*
X129133600Y-140462000D03*
X126238000Y-140462000D03*
X123926600Y-115874801D03*
X135890000Y-148844000D03*
X148971000Y-148844000D03*
X135890000Y-150622000D03*
X149225000Y-150622000D03*
X134493000Y-147701000D03*
X149860000Y-151257000D03*
X134874000Y-147072600D03*
X150241000Y-147193000D03*
X101536500Y-157543500D03*
X105664000Y-124968000D03*
X104140000Y-129794000D03*
X100330000Y-143764000D03*
X78740000Y-140970000D03*
X120142000Y-138176000D03*
X117602000Y-126492000D03*
X125984000Y-168656000D03*
X124206000Y-152146000D03*
X126746000Y-168656000D03*
X125984000Y-152146000D03*
X129286000Y-168656000D03*
X127508000Y-163576000D03*
X127508000Y-152146000D03*
X115570000Y-164846000D03*
X131572000Y-168402000D03*
X130556000Y-152146000D03*
X119888000Y-167259000D03*
X119888000Y-168249600D03*
X132588000Y-168402000D03*
X132334000Y-152146000D03*
X110998000Y-162560000D03*
X120650000Y-164084000D03*
X111760000Y-162560000D03*
X118110000Y-159004000D03*
X122174000Y-153924000D03*
X122174000Y-168402000D03*
X121412000Y-169672000D03*
X133350000Y-135890000D03*
X141986000Y-145034000D03*
X141986000Y-140462000D03*
X138684000Y-140462000D03*
X128016000Y-150368000D03*
X128016000Y-133858000D03*
X127762000Y-126314199D03*
X142494000Y-144272000D03*
X142748000Y-139700000D03*
X128574800Y-149606000D03*
X128778000Y-135636000D03*
X118999000Y-126492000D03*
X120777000Y-159512000D03*
X123952000Y-104775000D03*
X100076000Y-148844000D03*
X100076000Y-149860000D03*
X122809000Y-130175000D03*
X121539000Y-161417000D03*
X144399000Y-161290000D03*
X144272000Y-157480000D03*
X122555000Y-131445000D03*
X122809000Y-162560000D03*
X141859000Y-162687000D03*
X141859000Y-157607000D03*
D40*
X129550000Y-112214001D02*
X129550000Y-111135000D01*
X129550000Y-111135000D02*
X129540000Y-111125000D01*
D41*
X107874000Y-117811000D02*
X110445000Y-117811000D01*
X110445000Y-117811000D02*
X110490000Y-117856000D01*
X98374000Y-111211000D02*
X96307000Y-111211000D01*
X96307000Y-111211000D02*
X95758000Y-111760000D01*
X98374000Y-109011000D02*
X98374000Y-108763000D01*
X98374000Y-108763000D02*
X99822000Y-107315000D01*
X93411000Y-106807000D02*
X93411000Y-106746000D01*
X93411000Y-106746000D02*
X92202000Y-105537000D01*
D42*
X128242001Y-170195001D02*
X128242001Y-168755001D01*
X128242001Y-168755001D02*
X128143000Y-168656000D01*
D40*
X127442001Y-157495001D02*
X129397999Y-157495001D01*
X129397999Y-157495001D02*
X129413000Y-157480000D01*
X135392001Y-157395001D02*
X136609999Y-157395001D01*
X136609999Y-157395001D02*
X136652000Y-157353000D01*
X123942001Y-169695001D02*
X122578001Y-169695001D01*
X122578001Y-169695001D02*
X122555000Y-169672000D01*
X137292001Y-169695001D02*
X138660999Y-169695001D01*
X138660999Y-169695001D02*
X138684000Y-169672000D01*
D42*
X145066000Y-139990000D02*
X146522000Y-139990000D01*
X146522000Y-139990000D02*
X146558000Y-139954000D01*
X136366000Y-142990000D02*
X137656000Y-142990000D01*
X137656000Y-142990000D02*
X137668000Y-143002000D01*
X146109600Y-164597000D02*
X144272000Y-164597000D01*
X146812000Y-164597000D02*
X146109600Y-164597000D01*
X144272000Y-164597000D02*
X141732000Y-164597000D01*
X141732000Y-164597000D02*
X140467000Y-164597000D01*
X140467000Y-164597000D02*
X140462000Y-164592000D01*
D40*
X125476000Y-112207000D02*
X125918000Y-112207000D01*
X125918000Y-112207000D02*
X127127000Y-110998000D01*
X124104500Y-133350000D02*
X125222000Y-133350000D01*
X124104500Y-135255000D02*
X125222000Y-135255000D01*
X108839000Y-136398000D02*
X110617000Y-136398000D01*
X113557000Y-133369000D02*
X113665000Y-133477000D01*
X111955000Y-133369000D02*
X113557000Y-133369000D01*
X113608000Y-131769000D02*
X113665000Y-131826000D01*
X111955000Y-131769000D02*
X113608000Y-131769000D01*
X118764000Y-132569000D02*
X118745000Y-132588000D01*
X120455000Y-132569000D02*
X118764000Y-132569000D01*
X108051500Y-131572000D02*
X106807000Y-131572000D01*
X108051500Y-133350000D02*
X106807000Y-133350000D01*
X108655000Y-158693000D02*
X108712000Y-158750000D01*
X107129000Y-158693000D02*
X108655000Y-158693000D01*
X108693000Y-160293000D02*
X108712000Y-160274000D01*
X107129000Y-160293000D02*
X108693000Y-160293000D01*
X103225500Y-160782000D02*
X102108000Y-160782000D01*
X102235000Y-159131000D02*
X102108000Y-159004000D01*
X103225500Y-159131000D02*
X102235000Y-159131000D01*
X105201736Y-163830000D02*
X105813868Y-163217868D01*
X104013000Y-163830000D02*
X105201736Y-163830000D01*
X120777000Y-160401000D02*
X120904000Y-160528000D01*
X119532500Y-160401000D02*
X120777000Y-160401000D01*
X120777000Y-162179000D02*
X120904000Y-162052000D01*
X119532500Y-162179000D02*
X120777000Y-162179000D01*
X113811000Y-159493000D02*
X113792000Y-159512000D01*
X115629000Y-159493000D02*
X113811000Y-159493000D01*
X121679000Y-102883000D02*
X121666000Y-102870000D01*
X122936000Y-102883000D02*
X121679000Y-102883000D01*
D43*
X126365000Y-118915000D02*
X126365000Y-117475000D01*
X129463800Y-122097800D02*
X129540000Y-122174000D01*
X129463800Y-120952500D02*
X129463800Y-122097800D01*
X125577500Y-123340000D02*
X125427500Y-123190000D01*
X125577500Y-125095000D02*
X125577500Y-123340000D01*
X125577500Y-125095000D02*
X124460000Y-125095000D01*
X130035000Y-124968000D02*
X128905000Y-124968000D01*
D40*
X148857000Y-139941000D02*
X148844000Y-139954000D01*
X148857000Y-138684000D02*
X148857000Y-139941000D01*
X132575000Y-144272000D02*
X131318000Y-144272000D01*
X140462000Y-148082000D02*
X140335000Y-147955000D01*
X140462000Y-149035000D02*
X140462000Y-148082000D01*
X147587000Y-148095000D02*
X147320000Y-147828000D01*
X147587000Y-149098000D02*
X147587000Y-148095000D01*
D43*
X100030000Y-150922000D02*
X100076000Y-150876000D01*
X97972000Y-150922000D02*
X100030000Y-150922000D01*
X91877000Y-148153000D02*
X91186000Y-148844000D01*
X91877000Y-147957000D02*
X91877000Y-148153000D01*
X78472000Y-152922000D02*
X78486000Y-152908000D01*
X76272000Y-152922000D02*
X78472000Y-152922000D01*
D40*
X135115000Y-134633000D02*
X135128000Y-134620000D01*
X135115000Y-136144000D02*
X135115000Y-134633000D01*
X135191000Y-134683000D02*
X135128000Y-134620000D01*
X136398000Y-134683000D02*
X135191000Y-134683000D01*
X131064000Y-140970000D02*
X133096000Y-140970000D01*
D42*
X129159000Y-155080000D02*
X129159000Y-157607000D01*
D40*
X140440601Y-125734001D02*
X140970000Y-126263400D01*
X139779001Y-125734001D02*
X140440601Y-125734001D01*
X76272000Y-126310000D02*
X75438000Y-125476000D01*
X76272000Y-126922000D02*
X76272000Y-126310000D01*
X97972000Y-126564000D02*
X99060000Y-125476000D01*
X97972000Y-126922000D02*
X97972000Y-126564000D01*
X99964000Y-130922000D02*
X100076000Y-130810000D01*
X97972000Y-130922000D02*
X99964000Y-130922000D01*
D42*
X142966000Y-145070000D02*
X143002000Y-145034000D01*
X142966000Y-146590000D02*
X142966000Y-145070000D01*
X138466000Y-136616000D02*
X138938000Y-136144000D01*
X138466000Y-137890000D02*
X138466000Y-136616000D01*
D43*
X101219000Y-153302000D02*
X103124000Y-153302000D01*
X100190000Y-153302000D02*
X100076000Y-153416000D01*
X101219000Y-153302000D02*
X100190000Y-153302000D01*
X98575100Y-122451100D02*
X98602800Y-122478800D01*
X97028000Y-122451100D02*
X98575100Y-122451100D01*
X79021700Y-110690800D02*
X79171700Y-110540800D01*
X79021700Y-112420400D02*
X79021700Y-110690800D01*
X79171700Y-109346900D02*
X79146400Y-109321600D01*
X79171700Y-110540800D02*
X79171700Y-109346900D01*
D40*
X108085000Y-112522000D02*
X107874000Y-112311000D01*
X110490000Y-112522000D02*
X108085000Y-112522000D01*
D43*
X131635000Y-125018000D02*
X131585000Y-124968000D01*
X131635000Y-126746000D02*
X131635000Y-125018000D01*
X131064000Y-127317000D02*
X131635000Y-126746000D01*
X131064000Y-129413000D02*
X131064000Y-127317000D01*
D42*
X135368171Y-142490000D02*
X135110171Y-142748000D01*
X136366000Y-142490000D02*
X135368171Y-142490000D01*
X135110171Y-142748000D02*
X125476000Y-142748000D01*
X130937000Y-129540000D02*
X131064000Y-129413000D01*
X124714000Y-129540000D02*
X130937000Y-129540000D01*
D41*
X107874000Y-111211000D02*
X110322000Y-111211000D01*
X110322000Y-111211000D02*
X110490000Y-111379000D01*
X107874000Y-110111000D02*
X110234000Y-110111000D01*
X110234000Y-110111000D02*
X110490000Y-109855000D01*
D40*
X113114000Y-114173000D02*
X112014000Y-114173000D01*
X117500500Y-124815500D02*
X117602000Y-124714000D01*
X116332000Y-124815500D02*
X117500500Y-124815500D01*
X122243500Y-134969000D02*
X122529500Y-135255000D01*
X120455000Y-134969000D02*
X122243500Y-134969000D01*
X110445500Y-134169000D02*
X109626500Y-133350000D01*
X111955000Y-134169000D02*
X110445500Y-134169000D01*
X110623500Y-132569000D02*
X109626500Y-131572000D01*
X111955000Y-132569000D02*
X110623500Y-132569000D01*
X118777000Y-134969000D02*
X118745000Y-135001000D01*
X120455000Y-134969000D02*
X118777000Y-134969000D01*
X113766500Y-151866500D02*
X113792000Y-151892000D01*
X112522000Y-151866500D02*
X113766500Y-151866500D01*
X105162500Y-159493000D02*
X107129000Y-159493000D01*
X104800500Y-159131000D02*
X105162500Y-159493000D01*
X105111500Y-161093000D02*
X107129000Y-161093000D01*
X104800500Y-160782000D02*
X105111500Y-161093000D01*
X117671500Y-161893000D02*
X115629000Y-161893000D01*
X117957500Y-162179000D02*
X117671500Y-161893000D01*
X113951000Y-161893000D02*
X113792000Y-162052000D01*
X115629000Y-161893000D02*
X113951000Y-161893000D01*
X132334000Y-155278000D02*
X133985000Y-155278000D01*
X124333000Y-155278000D02*
X125984000Y-155278000D01*
X127635000Y-155278000D02*
X125984000Y-155278000D01*
D43*
X127315000Y-123177500D02*
X127302500Y-123190000D01*
X127315000Y-121115000D02*
X127315000Y-123177500D01*
X127302500Y-124945000D02*
X127152500Y-125095000D01*
X127302500Y-123190000D02*
X127302500Y-124945000D01*
X127302500Y-123190000D02*
X128524000Y-123190000D01*
X129336801Y-126746000D02*
X128905000Y-126314199D01*
X129985000Y-126746000D02*
X129336801Y-126746000D01*
D40*
X145872000Y-138684000D02*
X147307000Y-138684000D01*
X145567500Y-138912500D02*
X145542000Y-138938000D01*
X145643500Y-138912500D02*
X145567500Y-138912500D01*
X145066000Y-139490000D02*
X145643500Y-138912500D01*
X145643500Y-138912500D02*
X145872000Y-138684000D01*
X134907000Y-143490000D02*
X136366000Y-143490000D01*
X134125000Y-144272000D02*
X134907000Y-143490000D01*
X144018000Y-149035000D02*
X144018000Y-147955000D01*
X143466000Y-147403000D02*
X144018000Y-147955000D01*
X143466000Y-146590000D02*
X143466000Y-147403000D01*
X146037000Y-149098000D02*
X146037000Y-149085000D01*
X144907000Y-147955000D02*
X144018000Y-147955000D01*
X146037000Y-149085000D02*
X144907000Y-147955000D01*
X137966000Y-137445000D02*
X136665000Y-136144000D01*
X137966000Y-137890000D02*
X137966000Y-137445000D01*
X137966000Y-134893000D02*
X138176000Y-134683000D01*
X137966000Y-136188000D02*
X137922000Y-136144000D01*
X137966000Y-137890000D02*
X137966000Y-136188000D01*
X137966000Y-136188000D02*
X137966000Y-134893000D01*
X144589000Y-100584000D02*
X145796000Y-100584000D01*
D42*
X135636000Y-155003000D02*
X133985000Y-155003000D01*
X131488000Y-154262000D02*
X131572000Y-154178000D01*
X131488000Y-155278000D02*
X131488000Y-154262000D01*
D40*
X130683000Y-155278000D02*
X131488000Y-155278000D01*
X131488000Y-155278000D02*
X132334000Y-155278000D01*
D42*
X129159000Y-152527000D02*
X129032000Y-152400000D01*
X129159000Y-153530000D02*
X129159000Y-152527000D01*
X123381000Y-155003000D02*
X123190000Y-155194000D01*
X124333000Y-155003000D02*
X123381000Y-155003000D01*
D40*
X109963000Y-159493000D02*
X109982000Y-159512000D01*
X107129000Y-159493000D02*
X109963000Y-159493000D01*
X109925000Y-161093000D02*
X109982000Y-161036000D01*
X107129000Y-161093000D02*
X109925000Y-161093000D01*
X130442001Y-168769999D02*
X130556000Y-168656000D01*
X130442001Y-170195001D02*
X130442001Y-168769999D01*
X114789000Y-132569000D02*
X114808000Y-132588000D01*
X111955000Y-132569000D02*
X114789000Y-132569000D01*
X114751000Y-134169000D02*
X114808000Y-134112000D01*
X111955000Y-134169000D02*
X114751000Y-134169000D01*
D42*
X134125000Y-145529000D02*
X134112000Y-145542000D01*
X134125000Y-144272000D02*
X134125000Y-145529000D01*
D44*
X92964000Y-104902000D02*
X92456000Y-104394000D01*
X93663000Y-104902000D02*
X92964000Y-104902000D01*
D42*
X137541000Y-153988000D02*
X139446000Y-153988000D01*
X139446000Y-153035000D02*
X139573000Y-152908000D01*
X139446000Y-153988000D02*
X139446000Y-153035000D01*
X150431000Y-153988000D02*
X150495000Y-153924000D01*
X149352000Y-153988000D02*
X150431000Y-153988000D01*
X135339000Y-104013000D02*
X134239000Y-104013000D01*
X135189000Y-105807000D02*
X135189000Y-104163000D01*
X135189000Y-104163000D02*
X135339000Y-104013000D01*
D40*
X125483001Y-114114001D02*
X125476000Y-114107000D01*
X127150000Y-114114001D02*
X125483001Y-114114001D01*
D41*
X125177002Y-102697000D02*
X125987001Y-101887001D01*
X124694599Y-103179403D02*
X125177002Y-102697000D01*
X125476000Y-114107000D02*
X125476000Y-113882000D01*
D40*
X125433000Y-101333000D02*
X125987001Y-101887001D01*
X122936000Y-101333000D02*
X125433000Y-101333000D01*
X124484198Y-106489000D02*
X124694599Y-106699401D01*
X122936000Y-106489000D02*
X124484198Y-106489000D01*
D41*
X124694599Y-106699401D02*
X124694599Y-103179403D01*
X124694599Y-110216599D02*
X124694599Y-106699401D01*
D40*
X136334000Y-110807000D02*
X135235600Y-109708600D01*
X136779000Y-110807000D02*
X136334000Y-110807000D01*
D45*
X143042000Y-124079000D02*
X139763000Y-124079000D01*
X144185000Y-125222000D02*
X143042000Y-124079000D01*
X144185000Y-125222000D02*
X144185000Y-121960000D01*
X135235600Y-113010600D02*
X135235600Y-109708600D01*
X144185000Y-121960000D02*
X135235600Y-113010600D01*
X143640000Y-121415000D02*
X144185000Y-121960000D01*
X131927600Y-121415000D02*
X143640000Y-121415000D01*
D41*
X125476000Y-113932000D02*
X124092000Y-113932000D01*
X124092000Y-113932000D02*
X123952000Y-113792000D01*
X123952000Y-110959198D02*
X124694599Y-110216599D01*
X123952000Y-113792000D02*
X123952000Y-110959198D01*
D45*
X153670000Y-125222000D02*
X154432000Y-124460000D01*
X149185000Y-125222000D02*
X153670000Y-125222000D01*
D42*
X145066000Y-140490000D02*
X150086000Y-140490000D01*
X150086000Y-140490000D02*
X150622000Y-139954000D01*
X150622000Y-131318000D02*
X150622000Y-139954000D01*
X143466000Y-129838000D02*
X143764000Y-129540000D01*
X143466000Y-137890000D02*
X143466000Y-129838000D01*
X142466000Y-136542400D02*
X142448600Y-136525000D01*
X142466000Y-137890000D02*
X142466000Y-136542400D01*
X141966000Y-135830500D02*
X142009750Y-135786750D01*
X141966000Y-137890000D02*
X141966000Y-135830500D01*
X152273000Y-135255000D02*
X152273000Y-133477000D01*
X152400000Y-133350000D02*
X154432000Y-133350000D01*
X152273000Y-133477000D02*
X152400000Y-133350000D01*
X141466000Y-136283000D02*
X141478000Y-136271000D01*
X141466000Y-137890000D02*
X141466000Y-136283000D01*
X151840387Y-134944677D02*
X151840387Y-131115613D01*
X151586388Y-135198676D02*
X151840387Y-134944677D01*
X152146000Y-130810000D02*
X154432000Y-130810000D01*
X151840387Y-131115613D02*
X152146000Y-130810000D01*
X140966000Y-137890000D02*
X140966000Y-135772078D01*
X140966000Y-135772078D02*
X140995400Y-135742678D01*
X151638000Y-128270000D02*
X154432000Y-128270000D01*
X151104600Y-128803400D02*
X151638000Y-128270000D01*
X151104600Y-134747000D02*
X151104600Y-128803400D01*
X133742001Y-168540001D02*
X133604000Y-168402000D01*
X133742001Y-170195001D02*
X133742001Y-168540001D01*
X134112000Y-153226000D02*
X133985000Y-153353000D01*
X134112000Y-152146000D02*
X134112000Y-153226000D01*
D40*
X139966000Y-134695000D02*
X139954000Y-134683000D01*
X139966000Y-137890000D02*
X139966000Y-134695000D01*
X140966000Y-147761000D02*
X142240000Y-149035000D01*
X140966000Y-146590000D02*
X140966000Y-147761000D01*
X138113000Y-125718000D02*
X138129001Y-125734001D01*
X138113000Y-124079000D02*
X138113000Y-125718000D01*
D42*
X140466000Y-145038000D02*
X140462000Y-145034000D01*
X140466000Y-146590000D02*
X140466000Y-145038000D01*
X137922000Y-123888000D02*
X138113000Y-124079000D01*
X137922000Y-122682000D02*
X137922000Y-123888000D01*
X133289000Y-104163000D02*
X133139000Y-104013000D01*
X133289000Y-105807000D02*
X133289000Y-104163000D01*
X125000000Y-146590000D02*
X124968000Y-146558000D01*
X137966000Y-146590000D02*
X125000000Y-146590000D01*
X133287000Y-103886000D02*
X133414000Y-104013000D01*
X132080000Y-103886000D02*
X133287000Y-103886000D01*
D40*
X110576000Y-114511000D02*
X110914000Y-114173000D01*
X107874000Y-114511000D02*
X110576000Y-114511000D01*
D42*
X138196000Y-140990000D02*
X138176000Y-140970000D01*
X145066000Y-140990000D02*
X138196000Y-140990000D01*
X129794000Y-138176000D02*
X127254000Y-138176000D01*
X125730000Y-115062000D02*
X127254000Y-115062000D01*
X111857000Y-115316000D02*
X125476000Y-115316000D01*
X111189000Y-114648000D02*
X111857000Y-115316000D01*
X111189000Y-114173000D02*
X111189000Y-114648000D01*
X125476000Y-115316000D02*
X125730000Y-115062000D01*
X145066000Y-141990000D02*
X144022000Y-141990000D01*
X143662403Y-141630403D02*
X138176000Y-141630403D01*
X144022000Y-141990000D02*
X143662403Y-141630403D01*
X129286000Y-138684000D02*
X126746000Y-138684000D01*
D40*
X123823000Y-116711000D02*
X123952000Y-116840000D01*
X107874000Y-116711000D02*
X123823000Y-116711000D01*
D42*
X124206000Y-127508000D02*
X123952000Y-127762000D01*
X126746000Y-127508000D02*
X124206000Y-127508000D01*
X138375194Y-142490000D02*
X138176000Y-142290806D01*
X145066000Y-142490000D02*
X138375194Y-142490000D01*
X129133600Y-140462000D02*
X126238000Y-140462000D01*
D40*
X110602775Y-115874801D02*
X123901199Y-115874801D01*
X110338974Y-115611000D02*
X110602775Y-115874801D01*
X107874000Y-115611000D02*
X110338974Y-115611000D01*
X123901199Y-115874801D02*
X123926600Y-115874801D01*
X110001500Y-130169000D02*
X109626500Y-129794000D01*
X111955000Y-130169000D02*
X110001500Y-130169000D01*
X113405000Y-137219000D02*
X113405000Y-137928000D01*
X112077000Y-139256000D02*
X111379000Y-139256000D01*
X113405000Y-137928000D02*
X112077000Y-139256000D01*
X114205000Y-138843000D02*
X113792000Y-139256000D01*
X114205000Y-137219000D02*
X114205000Y-138843000D01*
X110179000Y-154006500D02*
X110744000Y-153441500D01*
X110179000Y-155643000D02*
X110179000Y-154006500D01*
X133286000Y-114046000D02*
X133286000Y-112395000D01*
X133286000Y-108760000D02*
X134239000Y-107807000D01*
X133286000Y-112395000D02*
X133286000Y-108760000D01*
X135429000Y-107807000D02*
X134239000Y-107807000D01*
X136779000Y-109157000D02*
X135429000Y-107807000D01*
X122510500Y-133369000D02*
X122529500Y-133350000D01*
X120455000Y-133369000D02*
X122510500Y-133369000D01*
X115737000Y-160401000D02*
X115629000Y-160293000D01*
X117957500Y-160401000D02*
X115737000Y-160401000D01*
D44*
X98372000Y-110109000D02*
X98374000Y-110111000D01*
X95311000Y-110109000D02*
X98372000Y-110109000D01*
X95461000Y-106957000D02*
X95311000Y-106807000D01*
X95461000Y-108458000D02*
X95461000Y-106957000D01*
X95136000Y-105079000D02*
X95313000Y-104902000D01*
X95136000Y-106807000D02*
X95136000Y-105079000D01*
D45*
X131465100Y-119077500D02*
X131927600Y-118615000D01*
X129463800Y-119077500D02*
X131465100Y-119077500D01*
D43*
X129301300Y-118915000D02*
X129463800Y-119077500D01*
X127315000Y-118915000D02*
X129301300Y-118915000D01*
X127315000Y-116240500D02*
X127315000Y-118915000D01*
X127152500Y-116078000D02*
X127315000Y-116240500D01*
X128626399Y-119914901D02*
X129463800Y-119077500D01*
X97689199Y-119914901D02*
X128626399Y-119914901D01*
X97028000Y-120576100D02*
X97689199Y-119914901D01*
X92434427Y-121061627D02*
X90906000Y-119533200D01*
X96542473Y-121061627D02*
X92434427Y-121061627D01*
X97028000Y-120576100D02*
X96542473Y-121061627D01*
D40*
X137097000Y-148844000D02*
X135890000Y-148844000D01*
X153385171Y-139603829D02*
X153924000Y-139065000D01*
X151511000Y-139603829D02*
X153385171Y-139603829D01*
X150243819Y-140871010D02*
X151511000Y-139603829D01*
X149577990Y-140871010D02*
X150243819Y-140871010D01*
X148971000Y-141478000D02*
X149577990Y-140871010D01*
X148971000Y-148844000D02*
X148971000Y-141478000D01*
X137097000Y-150622000D02*
X135890000Y-150622000D01*
X149225000Y-150622000D02*
X149529801Y-150317199D01*
X153924000Y-144145000D02*
X149987000Y-144145000D01*
X149529801Y-144602199D02*
X149529801Y-147497801D01*
X149987000Y-144145000D02*
X149529801Y-144602199D01*
X149529801Y-147497801D02*
X149529801Y-146354801D01*
X149529801Y-150317199D02*
X149529801Y-147497801D01*
X141478000Y-100584000D02*
X142939000Y-100584000D01*
X138938000Y-98044000D02*
X141478000Y-100584000D01*
X115939408Y-147701000D02*
X134493000Y-147701000D01*
X111379000Y-143140592D02*
X115939408Y-147701000D01*
X111379000Y-140906000D02*
X111379000Y-143140592D01*
X150876000Y-151257000D02*
X153924000Y-154305000D01*
X149860000Y-151257000D02*
X150876000Y-151257000D01*
X113792000Y-140906000D02*
X113792000Y-141409106D01*
X113792000Y-141409106D02*
X113792000Y-144907000D01*
X134829799Y-147116801D02*
X134874000Y-147072600D01*
X116001801Y-147116801D02*
X134829799Y-147116801D01*
X113792000Y-144907000D02*
X116001801Y-147116801D01*
X152273000Y-149225000D02*
X153924000Y-149225000D01*
X150241000Y-147193000D02*
X152273000Y-149225000D01*
X101600000Y-157480000D02*
X101536500Y-157543500D01*
X103188000Y-157480000D02*
X101600000Y-157480000D01*
X106490000Y-166370000D02*
X106490000Y-168085000D01*
X106490000Y-168085000D02*
X110236000Y-171831000D01*
X110236000Y-171831000D02*
X141859000Y-171831000D01*
X141859000Y-171831000D02*
X149352000Y-164338000D01*
X149352000Y-164338000D02*
X149352000Y-160147000D01*
X150114000Y-159385000D02*
X153924000Y-159385000D01*
X149352000Y-160147000D02*
X150114000Y-159385000D01*
X112623500Y-124968000D02*
X112776000Y-124815500D01*
X105664000Y-124968000D02*
X112623500Y-124968000D01*
X97972000Y-146922000D02*
X101456000Y-146922000D01*
X102870000Y-148336000D02*
X102870000Y-148844000D01*
X101456000Y-146922000D02*
X102870000Y-148336000D01*
X104140000Y-129794000D02*
X108051500Y-129794000D01*
X101488000Y-144922000D02*
X102870000Y-146304000D01*
X97972000Y-144922000D02*
X101488000Y-144922000D01*
X102870000Y-143764000D02*
X100330000Y-143764000D01*
X76320000Y-140970000D02*
X76272000Y-140922000D01*
X78740000Y-140970000D02*
X76320000Y-140970000D01*
X102870000Y-136420000D02*
X102870000Y-141224000D01*
X99372000Y-132922000D02*
X102870000Y-136420000D01*
X97972000Y-132922000D02*
X99372000Y-132922000D01*
D42*
X119005000Y-137219000D02*
X119005000Y-138551000D01*
X119005000Y-138551000D02*
X119265000Y-138811000D01*
X119265000Y-138811000D02*
X122174000Y-138811000D01*
X122555000Y-139192000D02*
X122555000Y-140843000D01*
X122174000Y-138811000D02*
X122555000Y-139192000D01*
X120455000Y-137863000D02*
X120455000Y-135769000D01*
X120142000Y-138176000D02*
X120455000Y-137863000D01*
D40*
X115805000Y-126917500D02*
X116332000Y-126390500D01*
X115805000Y-128719000D02*
X115805000Y-126917500D01*
D42*
X116433500Y-126492000D02*
X116332000Y-126390500D01*
X117602000Y-126492000D02*
X116433500Y-126492000D01*
X120015000Y-143383000D02*
X118745000Y-142113000D01*
X118745000Y-142113000D02*
X118745000Y-139319000D01*
X118205000Y-138779000D02*
X118205000Y-137219000D01*
X118745000Y-139319000D02*
X118205000Y-138779000D01*
X126042001Y-168714001D02*
X125984000Y-168656000D01*
X126042001Y-170195001D02*
X126042001Y-168714001D01*
X124206000Y-153226000D02*
X124333000Y-153353000D01*
X124206000Y-152146000D02*
X124206000Y-153226000D01*
X127142001Y-169052001D02*
X126746000Y-168656000D01*
X127142001Y-170195001D02*
X127142001Y-169052001D01*
X125984000Y-152146000D02*
X125984000Y-153353000D01*
X114179000Y-164143000D02*
X114179000Y-165360000D01*
X114179000Y-165360000D02*
X114554000Y-165735000D01*
X114554000Y-165735000D02*
X117348000Y-165735000D01*
X117602000Y-165989000D02*
X117602000Y-167767000D01*
X117348000Y-165735000D02*
X117602000Y-165989000D01*
X125857000Y-167767000D02*
X126746000Y-168656000D01*
X117602000Y-167767000D02*
X125857000Y-167767000D01*
X129286000Y-170139000D02*
X129342001Y-170195001D01*
X129286000Y-168656000D02*
X129286000Y-170139000D01*
X115629000Y-162693000D02*
X116512000Y-163576000D01*
X116512000Y-163576000D02*
X127508000Y-163576000D01*
X127508000Y-153226000D02*
X127635000Y-153353000D01*
X127508000Y-152146000D02*
X127508000Y-153226000D01*
X115570000Y-162752000D02*
X115629000Y-162693000D01*
X115570000Y-164846000D02*
X115570000Y-162752000D01*
X131542001Y-168431999D02*
X131572000Y-168402000D01*
X131542001Y-170195001D02*
X131542001Y-168431999D01*
X130556000Y-153226000D02*
X130683000Y-153353000D01*
X130556000Y-152146000D02*
X130556000Y-153226000D01*
X115062000Y-170307000D02*
X113792000Y-169037000D01*
X113792000Y-169037000D02*
X113792000Y-166116000D01*
X113379000Y-165703000D02*
X113379000Y-164143000D01*
X113792000Y-166116000D02*
X113379000Y-165703000D01*
X131572000Y-168402000D02*
X130429000Y-167259000D01*
X130429000Y-167259000D02*
X119888000Y-167259000D01*
X116523399Y-168845601D02*
X115062000Y-170307000D01*
X119291999Y-168845601D02*
X116523399Y-168845601D01*
X119888000Y-168249600D02*
X119291999Y-168845601D01*
X132642001Y-168456001D02*
X132588000Y-168402000D01*
X132642001Y-170195001D02*
X132642001Y-168456001D01*
X132334000Y-152146000D02*
X132334000Y-153353000D01*
X110979000Y-162579000D02*
X110998000Y-162560000D01*
X110979000Y-164143000D02*
X110979000Y-162579000D01*
X128270000Y-164084000D02*
X132588000Y-168402000D01*
X120650000Y-164084000D02*
X128270000Y-164084000D01*
X132342001Y-157495001D02*
X133627002Y-156210000D01*
X136339610Y-154056610D02*
X135636000Y-153353000D01*
X136339610Y-155380538D02*
X136339610Y-154056610D01*
X135510148Y-156210000D02*
X136339610Y-155380538D01*
X133627002Y-156210000D02*
X135510148Y-156210000D01*
X111779000Y-162579000D02*
X111760000Y-162560000D01*
X111779000Y-164143000D02*
X111779000Y-162579000D01*
X130833002Y-159004000D02*
X132342001Y-157495001D01*
X118110000Y-159004000D02*
X130833002Y-159004000D01*
D40*
X112075700Y-153441500D02*
X112522000Y-153441500D01*
X110979000Y-154538200D02*
X112075700Y-153441500D01*
X110979000Y-155643000D02*
X110979000Y-154538200D01*
D42*
X112522000Y-153441500D02*
X121437500Y-153441500D01*
X121920000Y-153924000D02*
X122174000Y-153924000D01*
X121437500Y-153441500D02*
X121920000Y-153924000D01*
X122174000Y-168910000D02*
X121412000Y-169672000D01*
X122174000Y-168402000D02*
X122174000Y-168910000D01*
D45*
X154432000Y-116840000D02*
X154432000Y-121920000D01*
D40*
X136398000Y-133033000D02*
X138176000Y-133033000D01*
X139954000Y-133033000D02*
X138176000Y-133033000D01*
X140462000Y-150685000D02*
X142240000Y-150685000D01*
X144018000Y-150685000D02*
X142240000Y-150685000D01*
X133737000Y-139770000D02*
X134112000Y-140145000D01*
X131064000Y-139770000D02*
X133737000Y-139770000D01*
X135457000Y-141490000D02*
X134112000Y-140145000D01*
X136366000Y-141490000D02*
X135457000Y-141490000D01*
X133737000Y-142170000D02*
X134112000Y-141795000D01*
X131064000Y-142170000D02*
X133737000Y-142170000D01*
X134307000Y-141990000D02*
X134112000Y-141795000D01*
X136366000Y-141990000D02*
X134307000Y-141990000D01*
X138966000Y-148625000D02*
X138747000Y-148844000D01*
X138966000Y-146590000D02*
X138966000Y-148625000D01*
X139466000Y-149903000D02*
X139466000Y-146590000D01*
X138747000Y-150622000D02*
X139466000Y-149903000D01*
D42*
X131597500Y-134137500D02*
X133350000Y-135890000D01*
X131597500Y-133858000D02*
X131597500Y-134137500D01*
X141966000Y-145054000D02*
X141986000Y-145034000D01*
X141966000Y-146590000D02*
X141966000Y-145054000D01*
X141986000Y-140462000D02*
X138684000Y-140462000D01*
D40*
X112242500Y-150368000D02*
X128016000Y-150368000D01*
X110744000Y-151866500D02*
X112242500Y-150368000D01*
X128016000Y-133858000D02*
X130022500Y-133858000D01*
D42*
X117090554Y-125798610D02*
X127246411Y-125798610D01*
X116773554Y-125481610D02*
X117090554Y-125798610D01*
X115220110Y-125481610D02*
X116773554Y-125481610D01*
X127246411Y-125798610D02*
X127762000Y-126314199D01*
X114554000Y-124815500D02*
X115220110Y-125481610D01*
X131597500Y-135636000D02*
X134730101Y-138768601D01*
X142494000Y-146562000D02*
X142494000Y-144272000D01*
X142466000Y-146590000D02*
X142494000Y-146562000D01*
X136567399Y-138768601D02*
X137117601Y-138768601D01*
X134730101Y-138768601D02*
X136567399Y-138768601D01*
X138049000Y-139700000D02*
X142748000Y-139700000D01*
X137117601Y-138768601D02*
X138049000Y-139700000D01*
D40*
X111226500Y-149606000D02*
X128574800Y-149606000D01*
X108966000Y-151866500D02*
X111226500Y-149606000D01*
X128778000Y-135636000D02*
X130022500Y-135636000D01*
D42*
X149293000Y-155697000D02*
X149352000Y-155638000D01*
X146812000Y-155697000D02*
X149293000Y-155697000D01*
X119005000Y-126498000D02*
X118999000Y-126492000D01*
X119005000Y-128719000D02*
X119005000Y-126498000D01*
X120777000Y-159512000D02*
X145542000Y-159512000D01*
X146812000Y-158242000D02*
X146812000Y-155697000D01*
X145542000Y-159512000D02*
X146812000Y-158242000D01*
D40*
X115005000Y-126841500D02*
X114554000Y-126390500D01*
X115005000Y-128719000D02*
X115005000Y-126841500D01*
X113405000Y-127019500D02*
X112776000Y-126390500D01*
X113405000Y-128719000D02*
X113405000Y-127019500D01*
X109379000Y-153854500D02*
X108966000Y-153441500D01*
X109379000Y-155643000D02*
X109379000Y-153854500D01*
X105251000Y-157893000D02*
X104838000Y-157480000D01*
X107129000Y-157893000D02*
X105251000Y-157893000D01*
X108140000Y-164582000D02*
X108579000Y-164143000D01*
X108140000Y-166370000D02*
X108140000Y-164582000D01*
X130591999Y-113164001D02*
X131361000Y-112395000D01*
X129550000Y-113164001D02*
X130591999Y-113164001D01*
D41*
X131361000Y-105356000D02*
X127892001Y-101887001D01*
X131361000Y-112395000D02*
X131361000Y-105356000D01*
D40*
X123888000Y-104839000D02*
X123952000Y-104775000D01*
X122936000Y-104839000D02*
X123888000Y-104839000D01*
X131361000Y-114046000D02*
X131211000Y-114046000D01*
X130606200Y-114800800D02*
X131361000Y-114046000D01*
X129013157Y-114800800D02*
X130606200Y-114800800D01*
X127150000Y-112214001D02*
X127150000Y-112937643D01*
X127150000Y-112937643D02*
X129013157Y-114800800D01*
D43*
X125415000Y-116240500D02*
X125577500Y-116078000D01*
X125415000Y-118915000D02*
X125415000Y-116240500D01*
D40*
X104792000Y-165030000D02*
X104013000Y-165030000D01*
X107129000Y-162693000D02*
X104792000Y-165030000D01*
X105568358Y-162630000D02*
X104013000Y-162630000D01*
X106305358Y-161893000D02*
X105568358Y-162630000D01*
X107129000Y-161893000D02*
X106305358Y-161893000D01*
D43*
X99998000Y-148922000D02*
X100076000Y-148844000D01*
X97972000Y-148922000D02*
X99998000Y-148922000D01*
X100076000Y-148844000D02*
X100076000Y-149860000D01*
X101219000Y-150643790D02*
X101219000Y-151752000D01*
X100435210Y-149860000D02*
X101219000Y-150643790D01*
X100076000Y-149860000D02*
X100435210Y-149860000D01*
X103124000Y-151752000D02*
X101219000Y-151752000D01*
X80746700Y-112270400D02*
X80896700Y-112420400D01*
X80746700Y-110540800D02*
X80746700Y-112270400D01*
X80896700Y-119382500D02*
X80746000Y-119533200D01*
X80896700Y-112420400D02*
X80896700Y-119382500D01*
X96572000Y-148922000D02*
X88416800Y-140766800D01*
X97972000Y-148922000D02*
X96572000Y-148922000D01*
X88416800Y-140766800D02*
X81330800Y-140766800D01*
X81330800Y-140766800D02*
X80010000Y-139446000D01*
X80010000Y-139446000D02*
X80010000Y-127914400D01*
X80010000Y-127914400D02*
X78435200Y-126339600D01*
X78435200Y-121844000D02*
X80746000Y-119533200D01*
X78435200Y-126339600D02*
X78435200Y-121844000D01*
D44*
X87503000Y-108458000D02*
X93261000Y-108458000D01*
X93261000Y-109959000D02*
X93411000Y-110109000D01*
X93261000Y-108458000D02*
X93261000Y-109959000D01*
D42*
X140365601Y-154718399D02*
X140556601Y-154718399D01*
X139446000Y-155638000D02*
X140365601Y-154718399D01*
X140556601Y-154718399D02*
X140970000Y-154305000D01*
X142880000Y-154305000D02*
X144272000Y-155697000D01*
X140970000Y-154305000D02*
X142880000Y-154305000D01*
X122803000Y-130169000D02*
X122809000Y-130175000D01*
X120455000Y-130169000D02*
X122803000Y-130169000D01*
X144272000Y-161417000D02*
X144399000Y-161290000D01*
X121539000Y-161417000D02*
X144272000Y-161417000D01*
X144272000Y-157480000D02*
X144272000Y-155697000D01*
X141162390Y-156266610D02*
X141732000Y-155697000D01*
X138169610Y-156266610D02*
X141162390Y-156266610D01*
X137541000Y-155638000D02*
X138169610Y-156266610D01*
X122079000Y-130969000D02*
X122555000Y-131445000D01*
X120455000Y-130969000D02*
X122079000Y-130969000D01*
X141732000Y-162560000D02*
X141859000Y-162687000D01*
X122809000Y-162560000D02*
X141732000Y-162560000D01*
X141859000Y-155824000D02*
X141732000Y-155697000D01*
X141859000Y-157607000D02*
X141859000Y-155824000D01*
D40*
X109068000Y-134969000D02*
X111955000Y-134969000D01*
X108839000Y-135198000D02*
X109068000Y-134969000D01*
X111955000Y-135887026D02*
X111955000Y-135769000D01*
X110244026Y-137598000D02*
X111955000Y-135887026D01*
X108839000Y-137598000D02*
X110244026Y-137598000D01*
M02*
