G04 #@! TF.GenerationSoftware,KiCad,Pcbnew,(5.1.7)-1*
G04 #@! TF.CreationDate,2021-11-22T15:07:37-06:00*
G04 #@! TF.ProjectId,control_pcb,636f6e74-726f-46c5-9f70-63622e6b6963,3.1*
G04 #@! TF.SameCoordinates,Original*
G04 #@! TF.FileFunction,Copper,L4,Bot*
G04 #@! TF.FilePolarity,Positive*
%FSLAX46Y46*%
G04 Gerber Fmt 4.6, Leading zero omitted, Abs format (unit mm)*
G04 Created by KiCad (PCBNEW (5.1.7)-1) date 2021-11-22 15:07:37*
%MOMM*%
%LPD*%
G01*
G04 APERTURE LIST*
G04 #@! TA.AperFunction,ComponentPad*
%ADD10O,1.700000X1.700000*%
G04 #@! TD*
G04 #@! TA.AperFunction,ComponentPad*
%ADD11R,1.700000X1.700000*%
G04 #@! TD*
G04 #@! TA.AperFunction,ComponentPad*
%ADD12C,2.300000*%
G04 #@! TD*
G04 #@! TA.AperFunction,SMDPad,CuDef*
%ADD13R,2.300000X4.500000*%
G04 #@! TD*
G04 #@! TA.AperFunction,ComponentPad*
%ADD14C,1.500000*%
G04 #@! TD*
G04 #@! TA.AperFunction,ComponentPad*
%ADD15C,1.620000*%
G04 #@! TD*
G04 #@! TA.AperFunction,ComponentPad*
%ADD16C,5.700000*%
G04 #@! TD*
G04 #@! TA.AperFunction,ComponentPad*
%ADD17R,1.800000X1.800000*%
G04 #@! TD*
G04 #@! TA.AperFunction,ComponentPad*
%ADD18C,1.800000*%
G04 #@! TD*
G04 #@! TA.AperFunction,ComponentPad*
%ADD19C,1.509000*%
G04 #@! TD*
G04 #@! TA.AperFunction,ViaPad*
%ADD20C,0.508000*%
G04 #@! TD*
G04 #@! TA.AperFunction,ViaPad*
%ADD21C,1.016000*%
G04 #@! TD*
G04 #@! TA.AperFunction,Conductor*
%ADD22C,0.635000*%
G04 #@! TD*
G04 #@! TA.AperFunction,Conductor*
%ADD23C,0.304800*%
G04 #@! TD*
G04 #@! TA.AperFunction,Conductor*
%ADD24C,0.152400*%
G04 #@! TD*
G04 #@! TA.AperFunction,Conductor*
%ADD25C,0.508000*%
G04 #@! TD*
G04 APERTURE END LIST*
D10*
X154432000Y-135890000D03*
X154432000Y-133350000D03*
X154432000Y-130810000D03*
D11*
X154432000Y-128270000D03*
D12*
X84963000Y-105918000D03*
X90043000Y-105918000D03*
X84963000Y-110998000D03*
X90043000Y-110998000D03*
X87503000Y-108458000D03*
D13*
X86868000Y-132995000D03*
X86868000Y-149395000D03*
D14*
X144185000Y-125222000D03*
X149185000Y-125222000D03*
D10*
X133604000Y-129413000D03*
D11*
X131064000Y-129413000D03*
X138684000Y-129540000D03*
D10*
X141224000Y-129540000D03*
X143764000Y-129540000D03*
X146304000Y-129540000D03*
D15*
X129797001Y-101887001D03*
X127892001Y-101887001D03*
X125987001Y-101887001D03*
D16*
X77470000Y-168910000D03*
D11*
X122555000Y-140843000D03*
D10*
X122555000Y-143383000D03*
X120015000Y-140843000D03*
X120015000Y-143383000D03*
X117475000Y-140843000D03*
X117475000Y-143383000D03*
X112522000Y-170307000D03*
X112522000Y-167767000D03*
X115062000Y-170307000D03*
X115062000Y-167767000D03*
X117602000Y-170307000D03*
D11*
X117602000Y-167767000D03*
X154432000Y-124460000D03*
D10*
X154432000Y-121920000D03*
X154432000Y-114300000D03*
D11*
X154432000Y-116840000D03*
X105410000Y-148844000D03*
D10*
X102870000Y-148844000D03*
X105410000Y-146304000D03*
X102870000Y-146304000D03*
X105410000Y-143764000D03*
X102870000Y-143764000D03*
X105410000Y-141224000D03*
X102870000Y-141224000D03*
D17*
X153924000Y-141605000D03*
D18*
X153924000Y-139065000D03*
X153924000Y-144145000D03*
D17*
X153924000Y-146685000D03*
X141478000Y-98044000D03*
D18*
X138938000Y-98044000D03*
D17*
X153924000Y-156845000D03*
D18*
X153924000Y-154305000D03*
X153924000Y-149225000D03*
D17*
X153924000Y-151765000D03*
X153924000Y-167005000D03*
D18*
X153924000Y-164465000D03*
X153924000Y-159385000D03*
D17*
X153924000Y-161925000D03*
D19*
X93446000Y-119533200D03*
X90906000Y-119533200D03*
X88366000Y-119533200D03*
X83286000Y-119533200D03*
X80746000Y-119533200D03*
X78206000Y-119533200D03*
X75666000Y-119533200D03*
D20*
X129540000Y-111125000D03*
D21*
X110490000Y-117856000D03*
X95758000Y-111760000D03*
X99822000Y-107315000D03*
X92202000Y-105537000D03*
D20*
X128143000Y-168656000D03*
X129413000Y-157480000D03*
X136652000Y-157353000D03*
X122555000Y-169672000D03*
X138684000Y-169672000D03*
X146558000Y-139954000D03*
X137668000Y-143002000D03*
X140462000Y-164592000D03*
X127127000Y-110998000D03*
X125222000Y-133350000D03*
X125222000Y-135255000D03*
X110617000Y-136398000D03*
X113665000Y-133477000D03*
X113665000Y-131826000D03*
X118745000Y-132588000D03*
X106807000Y-131572000D03*
X106807000Y-133350000D03*
X108712000Y-158750000D03*
X108712000Y-160274000D03*
X102108000Y-160782000D03*
X102108000Y-159004000D03*
X105813868Y-163217868D03*
X120904000Y-160528000D03*
X120904000Y-162052000D03*
X113792000Y-159512000D03*
X121666000Y-102870000D03*
X126365000Y-117475000D03*
X129540000Y-122174000D03*
X124460000Y-125095000D03*
X128905000Y-124968000D03*
X148844000Y-139954000D03*
X131318000Y-144272000D03*
X140335000Y-147955000D03*
X147320000Y-147828000D03*
X100076000Y-150876000D03*
X91186000Y-148844000D03*
X91877000Y-147957000D03*
X84836000Y-149352000D03*
X78486000Y-152908000D03*
X135128000Y-134620000D03*
X133096000Y-140970000D03*
X140970000Y-126263400D03*
X75438000Y-125476000D03*
X99060000Y-125476000D03*
X100076000Y-130810000D03*
X143002000Y-145034000D03*
X138938000Y-136144000D03*
X100076000Y-153416000D03*
X98602800Y-122478800D03*
X79146400Y-109321600D03*
X78384400Y-109321600D03*
X98602800Y-121666000D03*
X110490000Y-112522000D03*
X125476000Y-142748000D03*
X124714000Y-129540000D03*
D21*
X110490000Y-111379000D03*
X110490000Y-109855000D03*
D20*
X112014000Y-114173000D03*
X134239000Y-104013000D03*
X117602000Y-124714000D03*
X118745000Y-135001000D03*
X113792000Y-151892000D03*
X113792000Y-162052000D03*
X128524000Y-123190000D03*
X128905000Y-126314199D03*
X145542000Y-138938000D03*
X144018000Y-147955000D03*
X137922000Y-136144000D03*
X145796000Y-100584000D03*
X131572000Y-154178000D03*
X129032000Y-152400000D03*
X123190000Y-155194000D03*
X109982000Y-159512000D03*
X109982000Y-161036000D03*
X130556000Y-168656000D03*
X114808000Y-132588000D03*
X114808000Y-134112000D03*
X134112000Y-145542000D03*
X92456000Y-104394000D03*
X139573000Y-152908000D03*
X150495000Y-153924000D03*
D21*
X124694599Y-110216599D03*
X135235600Y-109708600D03*
D20*
X150622000Y-131318000D03*
X142448600Y-136525000D03*
X142009750Y-135786750D03*
X152273000Y-135255000D03*
X141478000Y-136271000D03*
X151586388Y-135198676D03*
X140995400Y-135742678D03*
X151104600Y-134747000D03*
X133604000Y-168402000D03*
X134112000Y-152146000D03*
X140462000Y-145034000D03*
X137922000Y-122682000D03*
X124968000Y-146558000D03*
X132080000Y-103886000D03*
X138176000Y-140970000D03*
X129794000Y-138176000D03*
X127254000Y-138176000D03*
X127254000Y-115062000D03*
X138176000Y-141630403D03*
X129286000Y-138684000D03*
X126746000Y-138684000D03*
X123952000Y-116840000D03*
X126746000Y-127508000D03*
X123952000Y-127762000D03*
X138176000Y-142290806D03*
X129133600Y-140462000D03*
X126238000Y-140462000D03*
X123926600Y-115874801D03*
X135890000Y-148844000D03*
X148971000Y-148844000D03*
X135890000Y-150622000D03*
X149225000Y-150622000D03*
X134493000Y-147701000D03*
X149860000Y-151257000D03*
X134874000Y-147072600D03*
X150241000Y-147193000D03*
X101536500Y-157543500D03*
X105664000Y-124968000D03*
X104140000Y-129794000D03*
X100330000Y-143764000D03*
X78740000Y-140970000D03*
X120142000Y-138176000D03*
X117602000Y-126492000D03*
X125984000Y-168656000D03*
X124206000Y-152146000D03*
X126746000Y-168656000D03*
X125984000Y-152146000D03*
X129286000Y-168656000D03*
X127508000Y-163576000D03*
X127508000Y-152146000D03*
X115570000Y-164846000D03*
X131572000Y-168402000D03*
X130556000Y-152146000D03*
X119888000Y-167259000D03*
X119888000Y-168249600D03*
X132588000Y-168402000D03*
X132334000Y-152146000D03*
X110998000Y-162560000D03*
X120650000Y-164084000D03*
X111760000Y-162560000D03*
X118110000Y-159004000D03*
X122174000Y-153924000D03*
X122174000Y-168402000D03*
X121412000Y-169672000D03*
X133350000Y-135890000D03*
X141986000Y-145034000D03*
X141986000Y-140462000D03*
X138684000Y-140462000D03*
X128016000Y-150368000D03*
X128016000Y-133858000D03*
X127762000Y-126314199D03*
X142494000Y-144272000D03*
X142748000Y-139700000D03*
X128574800Y-149606000D03*
X128778000Y-135636000D03*
X118999000Y-126492000D03*
X120777000Y-159512000D03*
X123952000Y-104775000D03*
X100076000Y-148844000D03*
X100076000Y-149860000D03*
X122809000Y-130175000D03*
X121539000Y-161417000D03*
X144399000Y-161290000D03*
X144272000Y-157480000D03*
X122555000Y-131445000D03*
X122809000Y-162560000D03*
X141859000Y-162687000D03*
X141859000Y-157607000D03*
D22*
X91186000Y-148648000D02*
X91877000Y-147957000D01*
X91186000Y-148844000D02*
X91186000Y-148648000D01*
X84879000Y-149395000D02*
X84836000Y-149352000D01*
X86868000Y-149395000D02*
X84879000Y-149395000D01*
X79146400Y-109321600D02*
X78384400Y-109321600D01*
X98602800Y-122478800D02*
X98602800Y-121666000D01*
D23*
X90017000Y-132995000D02*
X110490000Y-112522000D01*
X86868000Y-132995000D02*
X90017000Y-132995000D01*
D24*
X125476000Y-142748000D02*
X125476000Y-137668000D01*
X124714000Y-136906000D02*
X124714000Y-129540000D01*
X125476000Y-137668000D02*
X124714000Y-136906000D01*
D25*
X125202598Y-109708600D02*
X135235600Y-109708600D01*
X124694599Y-110216599D02*
X125202598Y-109708600D01*
D24*
X143002000Y-131318000D02*
X150622000Y-131318000D01*
X141224000Y-129540000D02*
X143002000Y-131318000D01*
X142448600Y-136525000D02*
X142987513Y-135986087D01*
X154335913Y-135986087D02*
X154432000Y-135890000D01*
X142987513Y-135986087D02*
X154335913Y-135986087D01*
X151846723Y-135681277D02*
X152273000Y-135255000D01*
X142433804Y-135786750D02*
X142539277Y-135681277D01*
X142009750Y-135786750D02*
X142433804Y-135786750D01*
X142539277Y-135681277D02*
X151846723Y-135681277D01*
X151555463Y-135229601D02*
X151586388Y-135198676D01*
X141478000Y-135636000D02*
X141884399Y-135229601D01*
X141884399Y-135229601D02*
X151555463Y-135229601D01*
X141478000Y-136271000D02*
X141478000Y-135636000D01*
X140995400Y-135383468D02*
X140995400Y-135742678D01*
X141606468Y-134772400D02*
X140995400Y-135383468D01*
X151079200Y-134772400D02*
X151104600Y-134747000D01*
X141606468Y-134772400D02*
X151079200Y-134772400D01*
X134112000Y-167894000D02*
X134112000Y-152146000D01*
X133604000Y-168402000D02*
X134112000Y-167894000D01*
X137605399Y-122998601D02*
X137922000Y-122682000D01*
X137605399Y-130572881D02*
X137605399Y-122998601D01*
X140462000Y-133429482D02*
X137605399Y-130572881D01*
X140462000Y-145034000D02*
X140462000Y-133429482D01*
X127508000Y-103886000D02*
X132080000Y-103886000D01*
X123444000Y-107950000D02*
X127508000Y-103886000D01*
X123444000Y-128397000D02*
X123444000Y-107950000D01*
X124206000Y-129159000D02*
X123444000Y-128397000D01*
X124206000Y-137160000D02*
X124206000Y-129159000D01*
X124968000Y-137922000D02*
X124206000Y-137160000D01*
X124968000Y-146558000D02*
X124968000Y-137922000D01*
X137693399Y-140487399D02*
X132105399Y-140487399D01*
X138176000Y-140970000D02*
X137693399Y-140487399D01*
X132105399Y-140487399D02*
X129794000Y-138176000D01*
X127254000Y-138176000D02*
X127254000Y-115062000D01*
X132232403Y-141630403D02*
X129286000Y-138684000D01*
X138176000Y-141630403D02*
X132232403Y-141630403D01*
X126746000Y-138684000D02*
X126746000Y-127508000D01*
X123952000Y-127762000D02*
X123952000Y-116840000D01*
X130962406Y-142290806D02*
X129133600Y-140462000D01*
X138176000Y-142290806D02*
X130962406Y-142290806D01*
X126238000Y-140462000D02*
X125882399Y-140106399D01*
X125882399Y-140106399D02*
X125882399Y-121056399D01*
X125882399Y-117830600D02*
X123926600Y-115874801D01*
X125882399Y-121056399D02*
X125882399Y-117830600D01*
D23*
X135890000Y-148844000D02*
X148971000Y-148844000D01*
X135890000Y-150622000D02*
X149225000Y-150622000D01*
X135697974Y-151257000D02*
X149860000Y-151257000D01*
X134493000Y-150052026D02*
X135697974Y-151257000D01*
X134493000Y-147701000D02*
X134493000Y-150052026D01*
X150120600Y-147072600D02*
X150241000Y-147193000D01*
X134874000Y-147072600D02*
X150120600Y-147072600D01*
X101536500Y-157543500D02*
X101536500Y-171069000D01*
X101929301Y-171461801D02*
X141847199Y-171461801D01*
X101536500Y-171069000D02*
X101929301Y-171461801D01*
X148844000Y-164465000D02*
X153924000Y-164465000D01*
X141847199Y-171461801D02*
X148844000Y-164465000D01*
X105664000Y-139768894D02*
X105664000Y-124968000D01*
X106564801Y-140669695D02*
X105664000Y-139768894D01*
X106564801Y-147689199D02*
X106564801Y-140669695D01*
X105410000Y-148844000D02*
X106564801Y-147689199D01*
X104255199Y-129909199D02*
X104140000Y-129794000D01*
X104255199Y-145149199D02*
X104255199Y-129909199D01*
X105410000Y-146304000D02*
X104255199Y-145149199D01*
X81534000Y-143764000D02*
X78740000Y-140970000D01*
X100330000Y-143764000D02*
X81534000Y-143764000D01*
D24*
X120015000Y-138303000D02*
X120142000Y-138176000D01*
X120015000Y-140843000D02*
X120015000Y-138303000D01*
X117475000Y-126619000D02*
X117602000Y-126492000D01*
X117475000Y-140843000D02*
X117475000Y-126619000D01*
X124206000Y-166878000D02*
X124206000Y-152146000D01*
X125984000Y-168656000D02*
X124206000Y-166878000D01*
X125984000Y-167894000D02*
X125984000Y-152146000D01*
X126746000Y-168656000D02*
X125984000Y-167894000D01*
X127508000Y-163576000D02*
X127508000Y-152146000D01*
X115062000Y-165354000D02*
X115570000Y-164846000D01*
X115062000Y-167767000D02*
X115062000Y-165354000D01*
X129286000Y-165354000D02*
X127508000Y-163576000D01*
X129286000Y-168656000D02*
X129286000Y-165354000D01*
X130556000Y-167386000D02*
X130556000Y-152146000D01*
X131572000Y-168402000D02*
X130556000Y-167386000D01*
X119888000Y-167259000D02*
X119888000Y-168249600D01*
X132334000Y-168148000D02*
X132334000Y-152146000D01*
X132588000Y-168402000D02*
X132334000Y-168148000D01*
X112522000Y-164084000D02*
X120650000Y-164084000D01*
X110998000Y-162560000D02*
X112522000Y-164084000D01*
X115316000Y-159004000D02*
X118110000Y-159004000D01*
X111760000Y-162560000D02*
X115316000Y-159004000D01*
X122174000Y-153924000D02*
X122174000Y-168402000D01*
X121412000Y-169672000D02*
X119075934Y-169672000D01*
X113983399Y-169228399D02*
X118632333Y-169228399D01*
X118632333Y-169228399D02*
X118783467Y-169379533D01*
X112522000Y-167767000D02*
X113983399Y-169228399D01*
X119075934Y-169672000D02*
X118783467Y-169379533D01*
X133350000Y-135890000D02*
X136652000Y-139192000D01*
X141986000Y-145034000D02*
X141986000Y-140462000D01*
X138684000Y-140462000D02*
X138176000Y-139954000D01*
X137414000Y-139954000D02*
X133350000Y-135890000D01*
X138176000Y-139954000D02*
X137414000Y-139954000D01*
D23*
X128016000Y-150368000D02*
X128016000Y-133858000D01*
D24*
X128016000Y-126568199D02*
X128016000Y-133858000D01*
X127762000Y-126314199D02*
X128016000Y-126568199D01*
X142494000Y-140462000D02*
X142494000Y-144272000D01*
X142748000Y-140208000D02*
X142494000Y-140462000D01*
X142748000Y-139700000D02*
X142748000Y-140208000D01*
D23*
X128574800Y-135839200D02*
X128778000Y-135636000D01*
X128574800Y-149606000D02*
X128574800Y-135839200D01*
D24*
X121093601Y-159195399D02*
X120777000Y-159512000D01*
X121093601Y-128586601D02*
X121093601Y-159195399D01*
X118999000Y-126492000D02*
X121093601Y-128586601D01*
D23*
X127892001Y-102212999D02*
X127892001Y-101887001D01*
X125004002Y-104775000D02*
X127892001Y-101887001D01*
X123952000Y-104775000D02*
X125004002Y-104775000D01*
D24*
X121476399Y-161354399D02*
X121539000Y-161417000D01*
X121476399Y-131507601D02*
X121476399Y-161354399D01*
X122809000Y-130175000D02*
X121476399Y-131507601D01*
X144399000Y-157607000D02*
X144272000Y-157480000D01*
X144399000Y-161290000D02*
X144399000Y-157607000D01*
X123633601Y-132523601D02*
X123633601Y-138619601D01*
X122555000Y-131445000D02*
X123633601Y-132523601D01*
X123633601Y-138619601D02*
X124079000Y-139065000D01*
X123723399Y-139420601D02*
X123723399Y-161645601D01*
X123723399Y-161645601D02*
X122809000Y-162560000D01*
X124079000Y-139065000D02*
X123723399Y-139420601D01*
X141859000Y-162687000D02*
X141859000Y-157607000D01*
M02*
