G04 #@! TF.GenerationSoftware,KiCad,Pcbnew,(5.1.7)-1*
G04 #@! TF.CreationDate,2021-11-22T15:07:37-06:00*
G04 #@! TF.ProjectId,control_pcb,636f6e74-726f-46c5-9f70-63622e6b6963,3.1*
G04 #@! TF.SameCoordinates,Original*
G04 #@! TF.FileFunction,Soldermask,Bot*
G04 #@! TF.FilePolarity,Negative*
%FSLAX46Y46*%
G04 Gerber Fmt 4.6, Leading zero omitted, Abs format (unit mm)*
G04 Created by KiCad (PCBNEW (5.1.7)-1) date 2021-11-22 15:07:37*
%MOMM*%
%LPD*%
G01*
G04 APERTURE LIST*
%ADD10O,1.700000X1.700000*%
%ADD11R,1.700000X1.700000*%
%ADD12C,2.300000*%
%ADD13R,2.300000X4.500000*%
%ADD14C,1.050000*%
%ADD15C,1.300000*%
%ADD16C,1.500000*%
%ADD17C,1.620000*%
%ADD18C,1.830000*%
%ADD19C,3.300000*%
%ADD20C,3.200000*%
%ADD21C,5.700000*%
%ADD22R,1.800000X1.800000*%
%ADD23C,1.800000*%
%ADD24C,1.509000*%
G04 APERTURE END LIST*
D10*
X154432000Y-135890000D03*
X154432000Y-133350000D03*
X154432000Y-130810000D03*
D11*
X154432000Y-128270000D03*
D12*
X84963000Y-105918000D03*
X90043000Y-105918000D03*
X84963000Y-110998000D03*
X90043000Y-110998000D03*
X87503000Y-108458000D03*
D13*
X86868000Y-132995000D03*
X86868000Y-149395000D03*
D14*
X86868000Y-144695000D03*
D15*
X86868000Y-137245000D03*
D16*
X144185000Y-125222000D03*
X149185000Y-125222000D03*
D10*
X133604000Y-129413000D03*
D11*
X131064000Y-129413000D03*
X138684000Y-129540000D03*
D10*
X141224000Y-129540000D03*
X143764000Y-129540000D03*
X146304000Y-129540000D03*
D17*
X129797001Y-101887001D03*
X127892001Y-101887001D03*
X125987001Y-101887001D03*
D18*
X125352001Y-99347001D03*
X130432001Y-99347001D03*
D19*
X127892001Y-106967001D03*
D20*
X77470000Y-100330000D03*
X152400000Y-100330000D03*
X149479000Y-168910000D03*
D21*
X77470000Y-168910000D03*
D11*
X122555000Y-140843000D03*
D10*
X122555000Y-143383000D03*
X120015000Y-140843000D03*
X120015000Y-143383000D03*
X117475000Y-140843000D03*
X117475000Y-143383000D03*
X112522000Y-170307000D03*
X112522000Y-167767000D03*
X115062000Y-170307000D03*
X115062000Y-167767000D03*
X117602000Y-170307000D03*
D11*
X117602000Y-167767000D03*
X154432000Y-124460000D03*
D10*
X154432000Y-121920000D03*
X154432000Y-114300000D03*
D11*
X154432000Y-116840000D03*
X105410000Y-148844000D03*
D10*
X102870000Y-148844000D03*
X105410000Y-146304000D03*
X102870000Y-146304000D03*
X105410000Y-143764000D03*
X102870000Y-143764000D03*
X105410000Y-141224000D03*
X102870000Y-141224000D03*
D22*
X153924000Y-141605000D03*
D23*
X153924000Y-139065000D03*
X153924000Y-144145000D03*
D22*
X153924000Y-146685000D03*
X141478000Y-98044000D03*
D23*
X138938000Y-98044000D03*
D22*
X153924000Y-156845000D03*
D23*
X153924000Y-154305000D03*
X153924000Y-149225000D03*
D22*
X153924000Y-151765000D03*
X153924000Y-167005000D03*
D23*
X153924000Y-164465000D03*
X153924000Y-159385000D03*
D22*
X153924000Y-161925000D03*
D24*
X93446000Y-119533200D03*
X90906000Y-119533200D03*
X88366000Y-119533200D03*
X83286000Y-119533200D03*
X80746000Y-119533200D03*
X78206000Y-119533200D03*
X75666000Y-119533200D03*
M02*
