M48
; DRILL file {KiCad (5.1.7)-1} date 02/10/21 10:40:23
; FORMAT={-:-/ absolute / inch / decimal}
; #@! TF.CreationDate,2021-02-10T10:40:23-06:00
; #@! TF.GenerationSoftware,Kicad,Pcbnew,(5.1.7)-1
; #@! TF.FileFunction,Plated,1,4,PTH
FMAT,2
INCH
T1C0.0100
T2C0.0200
T3C0.0299
T4C0.0394
T5C0.0421
T6C0.0591
T7C0.1260
%
G90
G05
T1
X2.97Y-4.94
X3.09Y-6.02
X3.1Y-5.55
X3.34Y-5.88
X3.59Y-5.86
X3.6172Y-5.8251
X3.64Y-4.11
X3.9Y-4.94
X3.94Y-5.15
X3.94Y-5.86
X3.94Y-5.9
X3.94Y-5.94
X3.94Y-6.04
X3.95Y-5.66
X4.02Y-6.26
X4.02Y-6.33
X4.1Y-5.11
X4.16Y-4.92
X4.16Y-5.97
X4.1659Y-6.4259
X4.18Y-6.12
X4.205Y-5.18
X4.205Y-5.25
X4.28Y-6.25
X4.28Y-6.31
X4.3Y-6.57
X4.33Y-6.28
X4.33Y-6.34
X4.35Y-4.43
X4.355Y-5.37
X4.37Y-6.4
X4.385Y-5.75
X4.4Y-6.4
X4.41Y-4.495
X4.475Y-5.19
X4.475Y-5.255
X4.48Y-5.98
X4.48Y-6.28
X4.48Y-6.38
X4.485Y-5.75
X4.52Y-5.22
X4.52Y-5.28
X4.55Y-6.49
X4.63Y-4.91
X4.63Y-4.98
X4.65Y-6.26
X4.675Y-5.22
X4.675Y-5.315
X4.685Y-4.98
X4.73Y-5.44
X4.75Y-6.46
X4.755Y-6.28
X4.76Y-6.32
X4.76Y-6.38
X4.78Y-6.68
X4.785Y-6.355
X4.79Y-4.05
X4.81Y-6.06
X4.81Y-6.63
X4.825Y-5.175
X4.825Y-6.68
X4.835Y-5.125
X4.835Y-6.4
X4.85Y-6.11
X4.879Y-4.562
X4.88Y-4.125
X4.88Y-4.6
X4.88Y-5.03
X4.89Y-5.99
X4.9Y-4.925
X4.91Y-5.1
X4.92Y-5.77
X4.93Y-5.25
X4.93Y-5.325
X4.94Y-5.62
X4.96Y-5.99
X4.96Y-6.64
X4.97Y-5.53
X4.975Y-4.625
X4.99Y-5.02
X4.99Y-5.46
X4.99Y-6.64
X5.005Y-4.37
X5.01Y-4.53
X5.01Y-5.44
X5.02Y-5.99
X5.02Y-6.44
X5.03Y-4.973
X5.04Y-5.27
X5.04Y-5.92
X5.045Y-6.64
X5.06Y-4.85
X5.062Y-5.89
X5.07Y-5.34
X5.075Y-4.92
X5.075Y-4.973
X5.08Y-6.0
X5.084Y-5.53
X5.09Y-5.46
X5.09Y-6.64
X5.095Y-6.2
X5.1Y-4.375
X5.1Y-4.81
X5.11Y-5.44
X5.14Y-5.99
X5.14Y-6.64
X5.17Y-5.68
X5.18Y-6.07
X5.18Y-6.63
X5.195Y-5.85
X5.195Y-5.935
X5.2Y-4.09
X5.21Y-5.99
X5.22Y-6.63
X5.24Y-5.55
X5.25Y-5.35
X5.26Y-6.63
X5.28Y-5.73
X5.28Y-5.99
X5.285Y-4.095
X5.32Y-5.3
X5.36Y-4.61
X5.38Y-4.59
X5.38Y-6.195
X5.42Y-5.63
X5.43Y-3.96
X5.43Y-4.83
X5.43Y-5.36
X5.44Y-5.55
X5.44Y-5.576
X5.44Y-5.602
X5.46Y-5.53
X5.46Y-6.68
X5.47Y-4.19
X5.47Y-4.19
X5.47Y-4.23
X5.47Y-5.36
X5.495Y-6.02
X5.525Y-5.825
X5.53Y-5.71
X5.53Y-6.48
X5.55Y-4.971
X5.551Y-5.3442
X5.56Y-4.03
X5.57Y-5.365
X5.585Y-6.205
X5.585Y-6.405
X5.59Y-4.23
X5.59Y-5.345
X5.59Y-5.53
X5.59Y-5.71
X5.61Y-5.365
X5.61Y-5.68
X5.62Y-5.5
X5.63Y-5.71
X5.66Y-4.31
X5.67Y-5.825
X5.68Y-6.2
X5.685Y-6.35
X5.69Y-4.31
X5.73Y-5.47
X5.74Y-3.96
X5.77Y-4.11
X5.77Y-5.51
X5.8Y-5.82
X5.86Y-5.51
X5.925Y-6.06
X5.93Y-5.17
X5.955Y-5.325
X5.955Y-5.365
X5.975Y-5.345
T2
X3.63Y-4.155
X3.77Y-4.4
X3.93Y-4.225
X4.35Y-4.325
X4.35Y-4.385
X4.35Y-4.64
X4.9092Y-4.3392
X5.3242Y-4.3192
T3
X5.6766Y-4.93
X5.8734Y-4.93
T4
X6.08Y-5.3
X6.08Y-5.4
X6.08Y-5.5
X6.08Y-5.6
X6.08Y-4.8
X6.08Y-4.9
X5.46Y-5.1
X5.56Y-5.1
X5.66Y-5.1
X5.76Y-5.1
X4.43Y-6.605
X4.43Y-6.705
X4.53Y-6.605
X4.53Y-6.705
X4.63Y-6.605
X4.63Y-6.705
X6.08Y-4.5
X6.08Y-4.6
X5.16Y-5.095
X5.26Y-5.095
X4.05Y-5.56
X4.05Y-5.66
X4.05Y-5.76
X4.05Y-5.86
X4.15Y-5.56
X4.15Y-5.66
X4.15Y-5.76
X4.15Y-5.86
X4.625Y-5.545
X4.625Y-5.645
X4.725Y-5.545
X4.725Y-5.645
X4.825Y-5.545
X4.825Y-5.645
T5
X4.9601Y-4.0113
X5.0351Y-4.0113
X5.1101Y-4.0113
T6
X3.345Y-4.17
X3.345Y-4.37
X3.445Y-4.27
X3.545Y-4.17
X3.545Y-4.37
T7
X3.05Y-6.65
T0
M30
