M48
; DRILL file {KiCad (5.1.4)-1} date 12/6/2019 1:38:38 PM
; FORMAT={-:-/ absolute / inch / decimal}
; #@! TF.CreationDate,2019-12-06T13:38:38-06:00
; #@! TF.GenerationSoftware,Kicad,Pcbnew,(5.1.4)-1
; #@! TF.FileFunction,Plated,1,4,PTH
FMAT,2
INCH
T1C0.0100
T2C0.0200
T3C0.0299
T4C0.0394
T5C0.0421
T6C0.0591
T7C0.1260
%
G90
G05
T1
X4.175Y-5.56
X4.22Y-5.605
X4.4Y-5.73
X4.43Y-5.71
X4.715Y-5.85
X4.745Y-5.98
X4.764Y-5.9592
X4.805Y-4.685
X4.805Y-4.715
X4.825Y-6.68
X4.835Y-5.205
X4.835Y-6.505
X4.85Y-4.14
X4.87Y-4.805
X4.87Y-5.145
X4.8808Y-4.745
X4.91Y-5.54
X4.91Y-5.625
X4.94Y-4.365
X4.945Y-6.55
X4.95Y-4.94
X4.985Y-4.6192
X5.01Y-4.685
X5.01Y-6.55
X5.02Y-5.31
X5.02Y-5.855
X5.04Y-4.575
X5.045Y-6.64
X5.075Y-6.55
X5.095Y-6.2
X5.095Y-6.27
X5.1Y-4.375
X5.135Y-6.46
X5.135Y-6.635
X5.16Y-5.5177
X5.17Y-4.875
X5.17Y-5.055
X5.195Y-6.55
X5.215Y-5.875
X5.22Y-4.575
X5.22Y-4.62
X5.22Y-4.715
X5.26Y-6.55
X5.27Y-5.46
X5.28Y-5.7122
X5.285Y-4.095
X5.29Y-6.045
X5.29Y-6.27
X5.31Y-5.57
X5.31Y-5.615
X5.315Y-5.65
X5.32Y-5.976
X5.325Y-6.55
X5.33Y-4.275
X5.36Y-4.971
X5.365Y-5.455
X5.38Y-6.195
X5.393Y-5.945
X5.42Y-5.63
X5.43Y-5.56
X5.43Y-5.88
X5.431Y-5.945
X5.46Y-6.505
X5.46Y-6.68
X5.465Y-5.315
X5.465Y-5.38
X5.475Y-5.91
X5.485Y-5.995
X5.4979Y-5.9479
X5.51Y-5.495
X5.53Y-5.715
X5.53Y-6.48
X5.54Y-5.91
X5.55Y-5.815
X5.551Y-5.3442
X5.57Y-5.365
X5.58Y-6.2
X5.59Y-5.345
X5.605Y-4.885
X5.61Y-5.365
X5.6317Y-6.3483
X5.645Y-5.82
X5.675Y-5.785
X5.68Y-6.2
X5.725Y-5.465
X5.77Y-5.51
X5.77Y-5.55
X5.785Y-6.2
X5.8Y-5.455
X5.8Y-5.83
X5.835Y-5.61
X5.855Y-5.57
X5.855Y-5.73
X5.865Y-5.95
X5.885Y-5.63
X5.885Y-5.7273
X5.885Y-6.03
X5.905Y-5.59
X5.955Y-5.325
X5.955Y-5.365
X5.975Y-5.345
T2
X3.8Y-6.04
X3.835Y-6.34
X3.88Y-4.665
X3.905Y-6.04
X4.005Y-5.62
X4.065Y-5.62
X4.08Y-6.2
X4.32Y-5.62
X4.9092Y-4.3392
X5.3242Y-4.3192
X5.325Y-4.795
X5.67Y-4.545
X5.725Y-4.545
T3
X5.6766Y-4.93
X5.8734Y-4.93
T4
X6.08Y-5.3
X6.08Y-5.4
X6.08Y-5.5
X6.08Y-5.6
X5.16Y-5.215
X5.26Y-5.215
X5.46Y-5.215
X5.56Y-5.215
X5.66Y-5.215
X5.76Y-5.215
X6.08Y-4.8
X6.08Y-4.9
X6.08Y-4.5
X6.08Y-4.6
X3.3254Y-5.9242
X3.3254Y-6.0242
X3.3254Y-6.1242
X3.525Y-4.0258
X3.625Y-4.0258
X3.725Y-4.0258
X3.825Y-4.0258
X3.925Y-4.0258
X4.025Y-4.0258
X4.125Y-4.0258
X4.225Y-4.0258
X4.325Y-4.0258
X4.425Y-4.0258
X4.6246Y-6.0242
X4.6246Y-6.1242
T5
X4.9601Y-4.0113
X5.0351Y-4.0113
X5.1101Y-4.0113
T6
X3.85Y-6.425
X3.85Y-6.625
X3.95Y-6.525
X4.05Y-6.425
X4.05Y-6.625
X3.36Y-6.425
X3.36Y-6.625
X3.46Y-6.525
X3.56Y-6.425
X3.56Y-6.625
T7
X3.05Y-6.65
T0
M30
