G04 #@! TF.GenerationSoftware,KiCad,Pcbnew,(5.1.5)-3*
G04 #@! TF.CreationDate,2020-03-31T13:56:33-05:00*
G04 #@! TF.ProjectId,control_pcb,636f6e74-726f-46c5-9f70-63622e6b6963,rev?*
G04 #@! TF.SameCoordinates,Original*
G04 #@! TF.FileFunction,Soldermask,Bot*
G04 #@! TF.FilePolarity,Negative*
%FSLAX46Y46*%
G04 Gerber Fmt 4.6, Leading zero omitted, Abs format (unit mm)*
G04 Created by KiCad (PCBNEW (5.1.5)-3) date 2020-03-31 13:56:33*
%MOMM*%
%LPD*%
G04 APERTURE LIST*
%ADD10C,1.801600*%
%ADD11C,2.401600*%
%ADD12C,1.151600*%
%ADD13C,1.401600*%
%ADD14R,1.301600X0.851600*%
%ADD15R,0.851600X1.301600*%
%ADD16C,1.601600*%
%ADD17O,1.801600X1.801600*%
%ADD18R,1.801600X1.801600*%
%ADD19R,1.301600X1.001600*%
%ADD20R,1.001600X1.301600*%
%ADD21C,1.721600*%
%ADD22C,1.931600*%
%ADD23C,3.401600*%
%ADD24R,2.101600X1.601600*%
%ADD25R,2.101600X3.901600*%
%ADD26C,3.301600*%
%ADD27C,5.801600*%
%ADD28C,0.100000*%
G04 APERTURE END LIST*
D10*
X90815000Y-102255000D03*
X84465000Y-153015000D03*
X85735000Y-102255000D03*
X88275000Y-102255000D03*
X98435000Y-102255000D03*
X84465000Y-155555000D03*
X84465000Y-150475000D03*
X117465000Y-155555000D03*
X93355000Y-102255000D03*
X106055000Y-102255000D03*
X108595000Y-102255000D03*
X95895000Y-102255000D03*
X100975000Y-102255000D03*
X103515000Y-102255000D03*
X117465000Y-153015000D03*
D11*
X87884000Y-165735000D03*
X85344000Y-163195000D03*
X90424000Y-163195000D03*
X85344000Y-168275000D03*
X90424000Y-168275000D03*
X97790000Y-168275000D03*
X97790000Y-163195000D03*
X102870000Y-168275000D03*
X102870000Y-163195000D03*
X100330000Y-165735000D03*
D12*
X100965000Y-123275000D03*
D13*
X100965000Y-130725000D03*
D14*
X125034000Y-130683000D03*
X126934000Y-130683000D03*
D15*
X125984000Y-134940000D03*
X125984000Y-136840000D03*
X125984000Y-146751000D03*
X125984000Y-148651000D03*
D14*
X147254000Y-137541000D03*
X145354000Y-137541000D03*
X145354000Y-146939000D03*
X147254000Y-146939000D03*
X133924000Y-137668000D03*
X135824000Y-137668000D03*
D15*
X134112000Y-144084000D03*
X134112000Y-145984000D03*
X130429000Y-167193000D03*
X130429000Y-165293000D03*
X123190000Y-101920000D03*
X123190000Y-103820000D03*
X137541000Y-119954000D03*
X137541000Y-121854000D03*
X139192000Y-121854000D03*
X139192000Y-119954000D03*
X140843000Y-119954000D03*
X140843000Y-121854000D03*
X140843000Y-117663000D03*
X140843000Y-115763000D03*
X139192000Y-115763000D03*
X139192000Y-117663000D03*
X137541000Y-117663000D03*
X137541000Y-115763000D03*
D16*
X144185000Y-125222000D03*
X149185000Y-125222000D03*
D17*
X133604000Y-132461000D03*
D18*
X131064000Y-132461000D03*
X138684000Y-132461000D03*
D17*
X141224000Y-132461000D03*
X143764000Y-132461000D03*
X146304000Y-132461000D03*
X154432000Y-142240000D03*
X154432000Y-139700000D03*
X154432000Y-137160000D03*
D18*
X154432000Y-134620000D03*
D17*
X154432000Y-114300000D03*
D18*
X154432000Y-116840000D03*
X154432000Y-124460000D03*
D17*
X154432000Y-121920000D03*
D19*
X139911000Y-138303000D03*
X137711000Y-138303000D03*
D20*
X142367000Y-148801000D03*
X142367000Y-146601000D03*
D19*
X138092000Y-125603000D03*
X140292000Y-125603000D03*
X140308001Y-123947999D03*
X138108001Y-123947999D03*
X139911000Y-135001000D03*
X137711000Y-135001000D03*
X139911000Y-136652000D03*
X137711000Y-136652000D03*
D20*
X139065000Y-146601000D03*
X139065000Y-148801000D03*
X140716000Y-146601000D03*
X140716000Y-148801000D03*
D19*
X124884000Y-132207000D03*
X127084000Y-132207000D03*
D20*
X125984000Y-140632000D03*
X125984000Y-142832000D03*
D19*
X130726000Y-159258000D03*
X132926000Y-159258000D03*
D20*
X125603000Y-167470000D03*
X125603000Y-165270000D03*
X127254000Y-165270000D03*
X127254000Y-167470000D03*
X128905000Y-167470000D03*
X128905000Y-165270000D03*
X131953000Y-167470000D03*
X131953000Y-165270000D03*
X133604000Y-165270000D03*
X133604000Y-167470000D03*
X135255000Y-167470000D03*
X135255000Y-165270000D03*
D21*
X129797001Y-101887001D03*
X127892001Y-101887001D03*
X125987001Y-101887001D03*
D22*
X125352001Y-99347001D03*
X130432001Y-99347001D03*
D23*
X127892001Y-106967001D03*
D24*
X143535000Y-122061000D03*
X143535000Y-117461000D03*
X143535000Y-119761000D03*
D25*
X149835000Y-119761000D03*
D26*
X77470000Y-100330000D03*
X152400000Y-100330000D03*
X152400000Y-168910000D03*
D27*
X77470000Y-168910000D03*
D14*
X131252000Y-116205000D03*
X129352000Y-116205000D03*
D15*
X123190000Y-120584000D03*
X123190000Y-118684000D03*
D14*
X125288000Y-118110000D03*
X127188000Y-118110000D03*
X127188000Y-120523000D03*
X125288000Y-120523000D03*
D19*
X131275000Y-119761000D03*
X129075000Y-119761000D03*
X127338000Y-122174000D03*
X125138000Y-122174000D03*
D20*
X141732000Y-161247000D03*
X141732000Y-159047000D03*
X144272000Y-159047000D03*
X144272000Y-161247000D03*
X146939000Y-159047000D03*
X146939000Y-161247000D03*
X136779000Y-108882000D03*
X136779000Y-111082000D03*
D28*
G36*
X123097669Y-107996466D02*
G01*
X123123189Y-108000252D01*
X123148216Y-108006520D01*
X123172507Y-108015212D01*
X123195830Y-108026243D01*
X123217959Y-108039507D01*
X123238682Y-108054876D01*
X123257798Y-108072202D01*
X123275124Y-108091318D01*
X123290493Y-108112041D01*
X123303757Y-108134170D01*
X123314788Y-108157493D01*
X123323480Y-108181784D01*
X123329748Y-108206811D01*
X123333534Y-108232331D01*
X123334800Y-108258100D01*
X123334800Y-108883900D01*
X123333534Y-108909669D01*
X123329748Y-108935189D01*
X123323480Y-108960216D01*
X123314788Y-108984507D01*
X123303757Y-109007830D01*
X123290493Y-109029959D01*
X123275124Y-109050682D01*
X123257798Y-109069798D01*
X123238682Y-109087124D01*
X123217959Y-109102493D01*
X123195830Y-109115757D01*
X123172507Y-109126788D01*
X123148216Y-109135480D01*
X123123189Y-109141748D01*
X123097669Y-109145534D01*
X123071900Y-109146800D01*
X122546100Y-109146800D01*
X122520331Y-109145534D01*
X122494811Y-109141748D01*
X122469784Y-109135480D01*
X122445493Y-109126788D01*
X122422170Y-109115757D01*
X122400041Y-109102493D01*
X122379318Y-109087124D01*
X122360202Y-109069798D01*
X122342876Y-109050682D01*
X122327507Y-109029959D01*
X122314243Y-109007830D01*
X122303212Y-108984507D01*
X122294520Y-108960216D01*
X122288252Y-108935189D01*
X122284466Y-108909669D01*
X122283200Y-108883900D01*
X122283200Y-108258100D01*
X122284466Y-108232331D01*
X122288252Y-108206811D01*
X122294520Y-108181784D01*
X122303212Y-108157493D01*
X122314243Y-108134170D01*
X122327507Y-108112041D01*
X122342876Y-108091318D01*
X122360202Y-108072202D01*
X122379318Y-108054876D01*
X122400041Y-108039507D01*
X122422170Y-108026243D01*
X122445493Y-108015212D01*
X122469784Y-108006520D01*
X122494811Y-108000252D01*
X122520331Y-107996466D01*
X122546100Y-107995200D01*
X123071900Y-107995200D01*
X123097669Y-107996466D01*
G37*
G36*
X123097669Y-106246466D02*
G01*
X123123189Y-106250252D01*
X123148216Y-106256520D01*
X123172507Y-106265212D01*
X123195830Y-106276243D01*
X123217959Y-106289507D01*
X123238682Y-106304876D01*
X123257798Y-106322202D01*
X123275124Y-106341318D01*
X123290493Y-106362041D01*
X123303757Y-106384170D01*
X123314788Y-106407493D01*
X123323480Y-106431784D01*
X123329748Y-106456811D01*
X123333534Y-106482331D01*
X123334800Y-106508100D01*
X123334800Y-107133900D01*
X123333534Y-107159669D01*
X123329748Y-107185189D01*
X123323480Y-107210216D01*
X123314788Y-107234507D01*
X123303757Y-107257830D01*
X123290493Y-107279959D01*
X123275124Y-107300682D01*
X123257798Y-107319798D01*
X123238682Y-107337124D01*
X123217959Y-107352493D01*
X123195830Y-107365757D01*
X123172507Y-107376788D01*
X123148216Y-107385480D01*
X123123189Y-107391748D01*
X123097669Y-107395534D01*
X123071900Y-107396800D01*
X122546100Y-107396800D01*
X122520331Y-107395534D01*
X122494811Y-107391748D01*
X122469784Y-107385480D01*
X122445493Y-107376788D01*
X122422170Y-107365757D01*
X122400041Y-107352493D01*
X122379318Y-107337124D01*
X122360202Y-107319798D01*
X122342876Y-107300682D01*
X122327507Y-107279959D01*
X122314243Y-107257830D01*
X122303212Y-107234507D01*
X122294520Y-107210216D01*
X122288252Y-107185189D01*
X122284466Y-107159669D01*
X122283200Y-107133900D01*
X122283200Y-106508100D01*
X122284466Y-106482331D01*
X122288252Y-106456811D01*
X122294520Y-106431784D01*
X122303212Y-106407493D01*
X122314243Y-106384170D01*
X122327507Y-106362041D01*
X122342876Y-106341318D01*
X122360202Y-106322202D01*
X122379318Y-106304876D01*
X122400041Y-106289507D01*
X122422170Y-106276243D01*
X122445493Y-106265212D01*
X122469784Y-106256520D01*
X122494811Y-106250252D01*
X122520331Y-106246466D01*
X122546100Y-106245200D01*
X123071900Y-106245200D01*
X123097669Y-106246466D01*
G37*
M02*
