G04 #@! TF.GenerationSoftware,KiCad,Pcbnew,(5.1.5)-3*
G04 #@! TF.CreationDate,2020-03-31T13:56:33-05:00*
G04 #@! TF.ProjectId,control_pcb,636f6e74-726f-46c5-9f70-63622e6b6963,rev?*
G04 #@! TF.SameCoordinates,Original*
G04 #@! TF.FileFunction,Paste,Bot*
G04 #@! TF.FilePolarity,Positive*
%FSLAX46Y46*%
G04 Gerber Fmt 4.6, Leading zero omitted, Abs format (unit mm)*
G04 Created by KiCad (PCBNEW (5.1.5)-3) date 2020-03-31 13:56:33*
%MOMM*%
%LPD*%
G04 APERTURE LIST*
%ADD10R,1.200000X0.750000*%
%ADD11R,0.750000X1.200000*%
%ADD12R,1.200000X0.900000*%
%ADD13R,0.900000X1.200000*%
%ADD14R,2.000000X1.500000*%
%ADD15R,2.000000X3.800000*%
%ADD16C,0.100000*%
G04 APERTURE END LIST*
D10*
X125034000Y-130683000D03*
X126934000Y-130683000D03*
D11*
X125984000Y-134940000D03*
X125984000Y-136840000D03*
X125984000Y-146751000D03*
X125984000Y-148651000D03*
D10*
X147254000Y-137541000D03*
X145354000Y-137541000D03*
X145354000Y-146939000D03*
X147254000Y-146939000D03*
X133924000Y-137668000D03*
X135824000Y-137668000D03*
D11*
X134112000Y-144084000D03*
X134112000Y-145984000D03*
X130429000Y-167193000D03*
X130429000Y-165293000D03*
X123190000Y-101920000D03*
X123190000Y-103820000D03*
X137541000Y-119954000D03*
X137541000Y-121854000D03*
X139192000Y-121854000D03*
X139192000Y-119954000D03*
X140843000Y-119954000D03*
X140843000Y-121854000D03*
X140843000Y-117663000D03*
X140843000Y-115763000D03*
X139192000Y-115763000D03*
X139192000Y-117663000D03*
X137541000Y-117663000D03*
X137541000Y-115763000D03*
D12*
X139911000Y-138303000D03*
X137711000Y-138303000D03*
D13*
X142367000Y-148801000D03*
X142367000Y-146601000D03*
D12*
X138092000Y-125603000D03*
X140292000Y-125603000D03*
X140308001Y-123947999D03*
X138108001Y-123947999D03*
X139911000Y-135001000D03*
X137711000Y-135001000D03*
X139911000Y-136652000D03*
X137711000Y-136652000D03*
D13*
X139065000Y-146601000D03*
X139065000Y-148801000D03*
X140716000Y-146601000D03*
X140716000Y-148801000D03*
D12*
X124884000Y-132207000D03*
X127084000Y-132207000D03*
D13*
X125984000Y-140632000D03*
X125984000Y-142832000D03*
D12*
X130726000Y-159258000D03*
X132926000Y-159258000D03*
D13*
X125603000Y-167470000D03*
X125603000Y-165270000D03*
X127254000Y-165270000D03*
X127254000Y-167470000D03*
X128905000Y-167470000D03*
X128905000Y-165270000D03*
X131953000Y-167470000D03*
X131953000Y-165270000D03*
X133604000Y-165270000D03*
X133604000Y-167470000D03*
X135255000Y-167470000D03*
X135255000Y-165270000D03*
D14*
X143535000Y-122061000D03*
X143535000Y-117461000D03*
X143535000Y-119761000D03*
D15*
X149835000Y-119761000D03*
D10*
X131252000Y-116205000D03*
X129352000Y-116205000D03*
D11*
X123190000Y-120584000D03*
X123190000Y-118684000D03*
D10*
X125288000Y-118110000D03*
X127188000Y-118110000D03*
X127188000Y-120523000D03*
X125288000Y-120523000D03*
D12*
X131275000Y-119761000D03*
X129075000Y-119761000D03*
X127338000Y-122174000D03*
X125138000Y-122174000D03*
D13*
X141732000Y-161247000D03*
X141732000Y-159047000D03*
X144272000Y-159047000D03*
X144272000Y-161247000D03*
X146939000Y-159047000D03*
X146939000Y-161247000D03*
X136779000Y-108882000D03*
X136779000Y-111082000D03*
D16*
G36*
X123069779Y-108047144D02*
G01*
X123092834Y-108050563D01*
X123115443Y-108056227D01*
X123137387Y-108064079D01*
X123158457Y-108074044D01*
X123178448Y-108086026D01*
X123197168Y-108099910D01*
X123214438Y-108115562D01*
X123230090Y-108132832D01*
X123243974Y-108151552D01*
X123255956Y-108171543D01*
X123265921Y-108192613D01*
X123273773Y-108214557D01*
X123279437Y-108237166D01*
X123282856Y-108260221D01*
X123284000Y-108283500D01*
X123284000Y-108858500D01*
X123282856Y-108881779D01*
X123279437Y-108904834D01*
X123273773Y-108927443D01*
X123265921Y-108949387D01*
X123255956Y-108970457D01*
X123243974Y-108990448D01*
X123230090Y-109009168D01*
X123214438Y-109026438D01*
X123197168Y-109042090D01*
X123178448Y-109055974D01*
X123158457Y-109067956D01*
X123137387Y-109077921D01*
X123115443Y-109085773D01*
X123092834Y-109091437D01*
X123069779Y-109094856D01*
X123046500Y-109096000D01*
X122571500Y-109096000D01*
X122548221Y-109094856D01*
X122525166Y-109091437D01*
X122502557Y-109085773D01*
X122480613Y-109077921D01*
X122459543Y-109067956D01*
X122439552Y-109055974D01*
X122420832Y-109042090D01*
X122403562Y-109026438D01*
X122387910Y-109009168D01*
X122374026Y-108990448D01*
X122362044Y-108970457D01*
X122352079Y-108949387D01*
X122344227Y-108927443D01*
X122338563Y-108904834D01*
X122335144Y-108881779D01*
X122334000Y-108858500D01*
X122334000Y-108283500D01*
X122335144Y-108260221D01*
X122338563Y-108237166D01*
X122344227Y-108214557D01*
X122352079Y-108192613D01*
X122362044Y-108171543D01*
X122374026Y-108151552D01*
X122387910Y-108132832D01*
X122403562Y-108115562D01*
X122420832Y-108099910D01*
X122439552Y-108086026D01*
X122459543Y-108074044D01*
X122480613Y-108064079D01*
X122502557Y-108056227D01*
X122525166Y-108050563D01*
X122548221Y-108047144D01*
X122571500Y-108046000D01*
X123046500Y-108046000D01*
X123069779Y-108047144D01*
G37*
G36*
X123069779Y-106297144D02*
G01*
X123092834Y-106300563D01*
X123115443Y-106306227D01*
X123137387Y-106314079D01*
X123158457Y-106324044D01*
X123178448Y-106336026D01*
X123197168Y-106349910D01*
X123214438Y-106365562D01*
X123230090Y-106382832D01*
X123243974Y-106401552D01*
X123255956Y-106421543D01*
X123265921Y-106442613D01*
X123273773Y-106464557D01*
X123279437Y-106487166D01*
X123282856Y-106510221D01*
X123284000Y-106533500D01*
X123284000Y-107108500D01*
X123282856Y-107131779D01*
X123279437Y-107154834D01*
X123273773Y-107177443D01*
X123265921Y-107199387D01*
X123255956Y-107220457D01*
X123243974Y-107240448D01*
X123230090Y-107259168D01*
X123214438Y-107276438D01*
X123197168Y-107292090D01*
X123178448Y-107305974D01*
X123158457Y-107317956D01*
X123137387Y-107327921D01*
X123115443Y-107335773D01*
X123092834Y-107341437D01*
X123069779Y-107344856D01*
X123046500Y-107346000D01*
X122571500Y-107346000D01*
X122548221Y-107344856D01*
X122525166Y-107341437D01*
X122502557Y-107335773D01*
X122480613Y-107327921D01*
X122459543Y-107317956D01*
X122439552Y-107305974D01*
X122420832Y-107292090D01*
X122403562Y-107276438D01*
X122387910Y-107259168D01*
X122374026Y-107240448D01*
X122362044Y-107220457D01*
X122352079Y-107199387D01*
X122344227Y-107177443D01*
X122338563Y-107154834D01*
X122335144Y-107131779D01*
X122334000Y-107108500D01*
X122334000Y-106533500D01*
X122335144Y-106510221D01*
X122338563Y-106487166D01*
X122344227Y-106464557D01*
X122352079Y-106442613D01*
X122362044Y-106421543D01*
X122374026Y-106401552D01*
X122387910Y-106382832D01*
X122403562Y-106365562D01*
X122420832Y-106349910D01*
X122439552Y-106336026D01*
X122459543Y-106324044D01*
X122480613Y-106314079D01*
X122502557Y-106306227D01*
X122525166Y-106300563D01*
X122548221Y-106297144D01*
X122571500Y-106296000D01*
X123046500Y-106296000D01*
X123069779Y-106297144D01*
G37*
M02*
