G04 #@! TF.GenerationSoftware,KiCad,Pcbnew,(5.1.5)-3*
G04 #@! TF.CreationDate,2020-03-31T13:56:33-05:00*
G04 #@! TF.ProjectId,control_pcb,636f6e74-726f-46c5-9f70-63622e6b6963,rev?*
G04 #@! TF.SameCoordinates,Original*
G04 #@! TF.FileFunction,Legend,Bot*
G04 #@! TF.FilePolarity,Positive*
%FSLAX46Y46*%
G04 Gerber Fmt 4.6, Leading zero omitted, Abs format (unit mm)*
G04 Created by KiCad (PCBNEW (5.1.5)-3) date 2020-03-31 13:56:33*
%MOMM*%
%LPD*%
G04 APERTURE LIST*
%ADD10C,0.247650*%
%ADD11C,0.100000*%
%ADD12C,0.120000*%
%ADD13C,0.150000*%
G04 APERTURE END LIST*
D10*
X149335671Y-104251578D02*
X149335671Y-103260978D01*
X149099814Y-103260978D01*
X148958300Y-103308150D01*
X148863957Y-103402492D01*
X148816785Y-103496835D01*
X148769614Y-103685521D01*
X148769614Y-103827035D01*
X148816785Y-104015721D01*
X148863957Y-104110064D01*
X148958300Y-104204407D01*
X149099814Y-104251578D01*
X149335671Y-104251578D01*
X147920528Y-104251578D02*
X147920528Y-103732692D01*
X147967700Y-103638350D01*
X148062042Y-103591178D01*
X148250728Y-103591178D01*
X148345071Y-103638350D01*
X147920528Y-104204407D02*
X148014871Y-104251578D01*
X148250728Y-104251578D01*
X148345071Y-104204407D01*
X148392242Y-104110064D01*
X148392242Y-104015721D01*
X148345071Y-103921378D01*
X148250728Y-103874207D01*
X148014871Y-103874207D01*
X147920528Y-103827035D01*
X147590328Y-103591178D02*
X147212957Y-103591178D01*
X147448814Y-103260978D02*
X147448814Y-104110064D01*
X147401642Y-104204407D01*
X147307300Y-104251578D01*
X147212957Y-104251578D01*
X146458214Y-104251578D02*
X146458214Y-103732692D01*
X146505385Y-103638350D01*
X146599728Y-103591178D01*
X146788414Y-103591178D01*
X146882757Y-103638350D01*
X146458214Y-104204407D02*
X146552557Y-104251578D01*
X146788414Y-104251578D01*
X146882757Y-104204407D01*
X146929928Y-104110064D01*
X146929928Y-104015721D01*
X146882757Y-103921378D01*
X146788414Y-103874207D01*
X146552557Y-103874207D01*
X146458214Y-103827035D01*
X144665700Y-104157235D02*
X144712871Y-104204407D01*
X144854385Y-104251578D01*
X144948728Y-104251578D01*
X145090242Y-104204407D01*
X145184585Y-104110064D01*
X145231757Y-104015721D01*
X145278928Y-103827035D01*
X145278928Y-103685521D01*
X145231757Y-103496835D01*
X145184585Y-103402492D01*
X145090242Y-103308150D01*
X144948728Y-103260978D01*
X144854385Y-103260978D01*
X144712871Y-103308150D01*
X144665700Y-103355321D01*
X144099642Y-104251578D02*
X144193985Y-104204407D01*
X144241157Y-104157235D01*
X144288328Y-104062892D01*
X144288328Y-103779864D01*
X144241157Y-103685521D01*
X144193985Y-103638350D01*
X144099642Y-103591178D01*
X143958128Y-103591178D01*
X143863785Y-103638350D01*
X143816614Y-103685521D01*
X143769442Y-103779864D01*
X143769442Y-104062892D01*
X143816614Y-104157235D01*
X143863785Y-104204407D01*
X143958128Y-104251578D01*
X144099642Y-104251578D01*
X143344900Y-103591178D02*
X143344900Y-104251578D01*
X143344900Y-103685521D02*
X143297728Y-103638350D01*
X143203385Y-103591178D01*
X143061871Y-103591178D01*
X142967528Y-103638350D01*
X142920357Y-103732692D01*
X142920357Y-104251578D01*
X142590157Y-103591178D02*
X142212785Y-103591178D01*
X142448642Y-103260978D02*
X142448642Y-104110064D01*
X142401471Y-104204407D01*
X142307128Y-104251578D01*
X142212785Y-104251578D01*
X141882585Y-104251578D02*
X141882585Y-103591178D01*
X141882585Y-103779864D02*
X141835414Y-103685521D01*
X141788242Y-103638350D01*
X141693900Y-103591178D01*
X141599557Y-103591178D01*
X141127842Y-104251578D02*
X141222185Y-104204407D01*
X141269357Y-104157235D01*
X141316528Y-104062892D01*
X141316528Y-103779864D01*
X141269357Y-103685521D01*
X141222185Y-103638350D01*
X141127842Y-103591178D01*
X140986328Y-103591178D01*
X140891985Y-103638350D01*
X140844814Y-103685521D01*
X140797642Y-103779864D01*
X140797642Y-104062892D01*
X140844814Y-104157235D01*
X140891985Y-104204407D01*
X140986328Y-104251578D01*
X141127842Y-104251578D01*
X140231585Y-104251578D02*
X140325928Y-104204407D01*
X140373100Y-104110064D01*
X140373100Y-103260978D01*
X139099471Y-104251578D02*
X139099471Y-103260978D01*
X138769271Y-103968550D01*
X138439071Y-103260978D01*
X138439071Y-104251578D01*
X137825842Y-104251578D02*
X137920185Y-104204407D01*
X137967357Y-104157235D01*
X138014528Y-104062892D01*
X138014528Y-103779864D01*
X137967357Y-103685521D01*
X137920185Y-103638350D01*
X137825842Y-103591178D01*
X137684328Y-103591178D01*
X137589985Y-103638350D01*
X137542814Y-103685521D01*
X137495642Y-103779864D01*
X137495642Y-104062892D01*
X137542814Y-104157235D01*
X137589985Y-104204407D01*
X137684328Y-104251578D01*
X137825842Y-104251578D01*
X136646557Y-104251578D02*
X136646557Y-103260978D01*
X136646557Y-104204407D02*
X136740900Y-104251578D01*
X136929585Y-104251578D01*
X137023928Y-104204407D01*
X137071100Y-104157235D01*
X137118271Y-104062892D01*
X137118271Y-103779864D01*
X137071100Y-103685521D01*
X137023928Y-103638350D01*
X136929585Y-103591178D01*
X136740900Y-103591178D01*
X136646557Y-103638350D01*
X135750300Y-103591178D02*
X135750300Y-104251578D01*
X136174842Y-103591178D02*
X136174842Y-104110064D01*
X136127671Y-104204407D01*
X136033328Y-104251578D01*
X135891814Y-104251578D01*
X135797471Y-104204407D01*
X135750300Y-104157235D01*
X135137071Y-104251578D02*
X135231414Y-104204407D01*
X135278585Y-104110064D01*
X135278585Y-103260978D01*
X134382328Y-104204407D02*
X134476671Y-104251578D01*
X134665357Y-104251578D01*
X134759700Y-104204407D01*
X134806871Y-104110064D01*
X134806871Y-103732692D01*
X134759700Y-103638350D01*
X134665357Y-103591178D01*
X134476671Y-103591178D01*
X134382328Y-103638350D01*
X134335157Y-103732692D01*
X134335157Y-103827035D01*
X134806871Y-103921378D01*
X148227142Y-105985128D02*
X148557342Y-105513414D01*
X148793200Y-105985128D02*
X148793200Y-104994528D01*
X148415828Y-104994528D01*
X148321485Y-105041700D01*
X148274314Y-105088871D01*
X148227142Y-105183214D01*
X148227142Y-105324728D01*
X148274314Y-105419071D01*
X148321485Y-105466242D01*
X148415828Y-105513414D01*
X148793200Y-105513414D01*
X147425228Y-105937957D02*
X147519571Y-105985128D01*
X147708257Y-105985128D01*
X147802600Y-105937957D01*
X147849771Y-105843614D01*
X147849771Y-105466242D01*
X147802600Y-105371900D01*
X147708257Y-105324728D01*
X147519571Y-105324728D01*
X147425228Y-105371900D01*
X147378057Y-105466242D01*
X147378057Y-105560585D01*
X147849771Y-105654928D01*
X147047857Y-105324728D02*
X146812000Y-105985128D01*
X146576142Y-105324728D01*
X145491200Y-105088871D02*
X145444028Y-105041700D01*
X145349685Y-104994528D01*
X145113828Y-104994528D01*
X145019485Y-105041700D01*
X144972314Y-105088871D01*
X144925142Y-105183214D01*
X144925142Y-105277557D01*
X144972314Y-105419071D01*
X145538371Y-105985128D01*
X144925142Y-105985128D01*
X144500600Y-105890785D02*
X144453428Y-105937957D01*
X144500600Y-105985128D01*
X144547771Y-105937957D01*
X144500600Y-105890785D01*
X144500600Y-105985128D01*
X143840200Y-104994528D02*
X143745857Y-104994528D01*
X143651514Y-105041700D01*
X143604342Y-105088871D01*
X143557171Y-105183214D01*
X143510000Y-105371900D01*
X143510000Y-105607757D01*
X143557171Y-105796442D01*
X143604342Y-105890785D01*
X143651514Y-105937957D01*
X143745857Y-105985128D01*
X143840200Y-105985128D01*
X143934542Y-105937957D01*
X143981714Y-105890785D01*
X144028885Y-105796442D01*
X144076057Y-105607757D01*
X144076057Y-105371900D01*
X144028885Y-105183214D01*
X143981714Y-105088871D01*
X143934542Y-105041700D01*
X143840200Y-104994528D01*
X142377885Y-105702100D02*
X141906171Y-105702100D01*
X142472228Y-105985128D02*
X142142028Y-104994528D01*
X141811828Y-105985128D01*
X141481628Y-105324728D02*
X141481628Y-106315328D01*
X141481628Y-105371900D02*
X141387285Y-105324728D01*
X141198600Y-105324728D01*
X141104257Y-105371900D01*
X141057085Y-105419071D01*
X141009914Y-105513414D01*
X141009914Y-105796442D01*
X141057085Y-105890785D01*
X141104257Y-105937957D01*
X141198600Y-105985128D01*
X141387285Y-105985128D01*
X141481628Y-105937957D01*
X140585371Y-105985128D02*
X140585371Y-105324728D01*
X140585371Y-105513414D02*
X140538200Y-105419071D01*
X140491028Y-105371900D01*
X140396685Y-105324728D01*
X140302342Y-105324728D01*
X139972142Y-105985128D02*
X139972142Y-105324728D01*
X139972142Y-104994528D02*
X140019314Y-105041700D01*
X139972142Y-105088871D01*
X139924971Y-105041700D01*
X139972142Y-104994528D01*
X139972142Y-105088871D01*
X139358914Y-105985128D02*
X139453257Y-105937957D01*
X139500428Y-105843614D01*
X139500428Y-104994528D01*
X138273971Y-105088871D02*
X138226800Y-105041700D01*
X138132457Y-104994528D01*
X137896600Y-104994528D01*
X137802257Y-105041700D01*
X137755085Y-105088871D01*
X137707914Y-105183214D01*
X137707914Y-105277557D01*
X137755085Y-105419071D01*
X138321142Y-105985128D01*
X137707914Y-105985128D01*
X137094685Y-104994528D02*
X137000342Y-104994528D01*
X136906000Y-105041700D01*
X136858828Y-105088871D01*
X136811657Y-105183214D01*
X136764485Y-105371900D01*
X136764485Y-105607757D01*
X136811657Y-105796442D01*
X136858828Y-105890785D01*
X136906000Y-105937957D01*
X137000342Y-105985128D01*
X137094685Y-105985128D01*
X137189028Y-105937957D01*
X137236200Y-105890785D01*
X137283371Y-105796442D01*
X137330542Y-105607757D01*
X137330542Y-105371900D01*
X137283371Y-105183214D01*
X137236200Y-105088871D01*
X137189028Y-105041700D01*
X137094685Y-104994528D01*
X136387114Y-105088871D02*
X136339942Y-105041700D01*
X136245600Y-104994528D01*
X136009742Y-104994528D01*
X135915400Y-105041700D01*
X135868228Y-105088871D01*
X135821057Y-105183214D01*
X135821057Y-105277557D01*
X135868228Y-105419071D01*
X136434285Y-105985128D01*
X135821057Y-105985128D01*
X135207828Y-104994528D02*
X135113485Y-104994528D01*
X135019142Y-105041700D01*
X134971971Y-105088871D01*
X134924800Y-105183214D01*
X134877628Y-105371900D01*
X134877628Y-105607757D01*
X134924800Y-105796442D01*
X134971971Y-105890785D01*
X135019142Y-105937957D01*
X135113485Y-105985128D01*
X135207828Y-105985128D01*
X135302171Y-105937957D01*
X135349342Y-105890785D01*
X135396514Y-105796442D01*
X135443685Y-105607757D01*
X135443685Y-105371900D01*
X135396514Y-105183214D01*
X135349342Y-105088871D01*
X135302171Y-105041700D01*
X135207828Y-104994528D01*
X147920528Y-107718678D02*
X147920528Y-106728078D01*
X147543157Y-106728078D01*
X147448814Y-106775250D01*
X147401642Y-106822421D01*
X147354471Y-106916764D01*
X147354471Y-107058278D01*
X147401642Y-107152621D01*
X147448814Y-107199792D01*
X147543157Y-107246964D01*
X147920528Y-107246964D01*
X146222357Y-106680907D02*
X147071442Y-107954535D01*
X145892157Y-107718678D02*
X145892157Y-106728078D01*
X145326100Y-107718678D01*
X145326100Y-106728078D01*
X144193985Y-106728078D02*
X143580757Y-106728078D01*
X143910957Y-107105450D01*
X143769442Y-107105450D01*
X143675100Y-107152621D01*
X143627928Y-107199792D01*
X143580757Y-107294135D01*
X143580757Y-107529992D01*
X143627928Y-107624335D01*
X143675100Y-107671507D01*
X143769442Y-107718678D01*
X144052471Y-107718678D01*
X144146814Y-107671507D01*
X144193985Y-107624335D01*
X143156214Y-107341307D02*
X142401471Y-107341307D01*
X141741071Y-106728078D02*
X141646728Y-106728078D01*
X141552385Y-106775250D01*
X141505214Y-106822421D01*
X141458042Y-106916764D01*
X141410871Y-107105450D01*
X141410871Y-107341307D01*
X141458042Y-107529992D01*
X141505214Y-107624335D01*
X141552385Y-107671507D01*
X141646728Y-107718678D01*
X141741071Y-107718678D01*
X141835414Y-107671507D01*
X141882585Y-107624335D01*
X141929757Y-107529992D01*
X141976928Y-107341307D01*
X141976928Y-107105450D01*
X141929757Y-106916764D01*
X141882585Y-106822421D01*
X141835414Y-106775250D01*
X141741071Y-106728078D01*
X140797642Y-106728078D02*
X140703300Y-106728078D01*
X140608957Y-106775250D01*
X140561785Y-106822421D01*
X140514614Y-106916764D01*
X140467442Y-107105450D01*
X140467442Y-107341307D01*
X140514614Y-107529992D01*
X140561785Y-107624335D01*
X140608957Y-107671507D01*
X140703300Y-107718678D01*
X140797642Y-107718678D01*
X140891985Y-107671507D01*
X140939157Y-107624335D01*
X140986328Y-107529992D01*
X141033500Y-107341307D01*
X141033500Y-107105450D01*
X140986328Y-106916764D01*
X140939157Y-106822421D01*
X140891985Y-106775250D01*
X140797642Y-106728078D01*
X139854214Y-106728078D02*
X139759871Y-106728078D01*
X139665528Y-106775250D01*
X139618357Y-106822421D01*
X139571185Y-106916764D01*
X139524014Y-107105450D01*
X139524014Y-107341307D01*
X139571185Y-107529992D01*
X139618357Y-107624335D01*
X139665528Y-107671507D01*
X139759871Y-107718678D01*
X139854214Y-107718678D01*
X139948557Y-107671507D01*
X139995728Y-107624335D01*
X140042900Y-107529992D01*
X140090071Y-107341307D01*
X140090071Y-107105450D01*
X140042900Y-106916764D01*
X139995728Y-106822421D01*
X139948557Y-106775250D01*
X139854214Y-106728078D01*
X138910785Y-106728078D02*
X138816442Y-106728078D01*
X138722100Y-106775250D01*
X138674928Y-106822421D01*
X138627757Y-106916764D01*
X138580585Y-107105450D01*
X138580585Y-107341307D01*
X138627757Y-107529992D01*
X138674928Y-107624335D01*
X138722100Y-107671507D01*
X138816442Y-107718678D01*
X138910785Y-107718678D01*
X139005128Y-107671507D01*
X139052300Y-107624335D01*
X139099471Y-107529992D01*
X139146642Y-107341307D01*
X139146642Y-107105450D01*
X139099471Y-106916764D01*
X139052300Y-106822421D01*
X139005128Y-106775250D01*
X138910785Y-106728078D01*
X137967357Y-106728078D02*
X137873014Y-106728078D01*
X137778671Y-106775250D01*
X137731500Y-106822421D01*
X137684328Y-106916764D01*
X137637157Y-107105450D01*
X137637157Y-107341307D01*
X137684328Y-107529992D01*
X137731500Y-107624335D01*
X137778671Y-107671507D01*
X137873014Y-107718678D01*
X137967357Y-107718678D01*
X138061700Y-107671507D01*
X138108871Y-107624335D01*
X138156042Y-107529992D01*
X138203214Y-107341307D01*
X138203214Y-107105450D01*
X138156042Y-106916764D01*
X138108871Y-106822421D01*
X138061700Y-106775250D01*
X137967357Y-106728078D01*
X137306957Y-106728078D02*
X136693728Y-106728078D01*
X137023928Y-107105450D01*
X136882414Y-107105450D01*
X136788071Y-107152621D01*
X136740900Y-107199792D01*
X136693728Y-107294135D01*
X136693728Y-107529992D01*
X136740900Y-107624335D01*
X136788071Y-107671507D01*
X136882414Y-107718678D01*
X137165442Y-107718678D01*
X137259785Y-107671507D01*
X137306957Y-107624335D01*
X136316357Y-106822421D02*
X136269185Y-106775250D01*
X136174842Y-106728078D01*
X135938985Y-106728078D01*
X135844642Y-106775250D01*
X135797471Y-106822421D01*
X135750300Y-106916764D01*
X135750300Y-107011107D01*
X135797471Y-107152621D01*
X136363528Y-107718678D01*
X135750300Y-107718678D01*
D11*
X81465000Y-158905000D02*
X120465000Y-158905000D01*
X81465000Y-98905000D02*
X81465000Y-158905000D01*
X120465000Y-98905000D02*
X81465000Y-98905000D01*
X120465000Y-158905000D02*
X120465000Y-98905000D01*
D12*
X125634000Y-131283000D02*
X126334000Y-131283000D01*
X126334000Y-130083000D02*
X125634000Y-130083000D01*
X125384000Y-135540000D02*
X125384000Y-136240000D01*
X126584000Y-136240000D02*
X126584000Y-135540000D01*
X125384000Y-147351000D02*
X125384000Y-148051000D01*
X126584000Y-148051000D02*
X126584000Y-147351000D01*
X146654000Y-136941000D02*
X145954000Y-136941000D01*
X145954000Y-138141000D02*
X146654000Y-138141000D01*
X145954000Y-147539000D02*
X146654000Y-147539000D01*
X146654000Y-146339000D02*
X145954000Y-146339000D01*
X134524000Y-138268000D02*
X135224000Y-138268000D01*
X135224000Y-137068000D02*
X134524000Y-137068000D01*
X133512000Y-144684000D02*
X133512000Y-145384000D01*
X134712000Y-145384000D02*
X134712000Y-144684000D01*
X131029000Y-166593000D02*
X131029000Y-165893000D01*
X129829000Y-165893000D02*
X129829000Y-166593000D01*
X122590000Y-102520000D02*
X122590000Y-103220000D01*
X123790000Y-103220000D02*
X123790000Y-102520000D01*
X136941000Y-120554000D02*
X136941000Y-121254000D01*
X138141000Y-121254000D02*
X138141000Y-120554000D01*
X139792000Y-121254000D02*
X139792000Y-120554000D01*
X138592000Y-120554000D02*
X138592000Y-121254000D01*
X140243000Y-120554000D02*
X140243000Y-121254000D01*
X141443000Y-121254000D02*
X141443000Y-120554000D01*
X141443000Y-117063000D02*
X141443000Y-116363000D01*
X140243000Y-116363000D02*
X140243000Y-117063000D01*
X138592000Y-116363000D02*
X138592000Y-117063000D01*
X139792000Y-117063000D02*
X139792000Y-116363000D01*
X138141000Y-117063000D02*
X138141000Y-116363000D01*
X136941000Y-116363000D02*
X136941000Y-117063000D01*
X138311000Y-138983000D02*
X139311000Y-138983000D01*
X139311000Y-137623000D02*
X138311000Y-137623000D01*
X141687000Y-147201000D02*
X141687000Y-148201000D01*
X143047000Y-148201000D02*
X143047000Y-147201000D01*
X139692000Y-124923000D02*
X138692000Y-124923000D01*
X138692000Y-126283000D02*
X139692000Y-126283000D01*
X138708001Y-124627999D02*
X139708001Y-124627999D01*
X139708001Y-123267999D02*
X138708001Y-123267999D01*
X138311000Y-135681000D02*
X139311000Y-135681000D01*
X139311000Y-134321000D02*
X138311000Y-134321000D01*
X138311000Y-137332000D02*
X139311000Y-137332000D01*
X139311000Y-135972000D02*
X138311000Y-135972000D01*
X139745000Y-148201000D02*
X139745000Y-147201000D01*
X138385000Y-147201000D02*
X138385000Y-148201000D01*
X141396000Y-148201000D02*
X141396000Y-147201000D01*
X140036000Y-147201000D02*
X140036000Y-148201000D01*
X126484000Y-131527000D02*
X125484000Y-131527000D01*
X125484000Y-132887000D02*
X126484000Y-132887000D01*
X126664000Y-142232000D02*
X126664000Y-141232000D01*
X125304000Y-141232000D02*
X125304000Y-142232000D01*
X132326000Y-158578000D02*
X131326000Y-158578000D01*
X131326000Y-159938000D02*
X132326000Y-159938000D01*
X124923000Y-165870000D02*
X124923000Y-166870000D01*
X126283000Y-166870000D02*
X126283000Y-165870000D01*
X127934000Y-166870000D02*
X127934000Y-165870000D01*
X126574000Y-165870000D02*
X126574000Y-166870000D01*
X128225000Y-165870000D02*
X128225000Y-166870000D01*
X129585000Y-166870000D02*
X129585000Y-165870000D01*
X131273000Y-165870000D02*
X131273000Y-166870000D01*
X132633000Y-166870000D02*
X132633000Y-165870000D01*
X134284000Y-166870000D02*
X134284000Y-165870000D01*
X132924000Y-165870000D02*
X132924000Y-166870000D01*
X134575000Y-165870000D02*
X134575000Y-166870000D01*
X135935000Y-166870000D02*
X135935000Y-165870000D01*
X142585000Y-123171000D02*
X148595000Y-123171000D01*
X144835000Y-116351000D02*
X148595000Y-116351000D01*
X148595000Y-123171000D02*
X148595000Y-121911000D01*
X148595000Y-116351000D02*
X148595000Y-117611000D01*
X130652000Y-115605000D02*
X129952000Y-115605000D01*
X129952000Y-116805000D02*
X130652000Y-116805000D01*
X123790000Y-119984000D02*
X123790000Y-119284000D01*
X122590000Y-119284000D02*
X122590000Y-119984000D01*
X125888000Y-118710000D02*
X126588000Y-118710000D01*
X126588000Y-117510000D02*
X125888000Y-117510000D01*
X126588000Y-119923000D02*
X125888000Y-119923000D01*
X125888000Y-121123000D02*
X126588000Y-121123000D01*
X129675000Y-120441000D02*
X130675000Y-120441000D01*
X130675000Y-119081000D02*
X129675000Y-119081000D01*
X125738000Y-122854000D02*
X126738000Y-122854000D01*
X126738000Y-121494000D02*
X125738000Y-121494000D01*
X141052000Y-159647000D02*
X141052000Y-160647000D01*
X142412000Y-160647000D02*
X142412000Y-159647000D01*
X144952000Y-160647000D02*
X144952000Y-159647000D01*
X143592000Y-159647000D02*
X143592000Y-160647000D01*
X147619000Y-160647000D02*
X147619000Y-159647000D01*
X146259000Y-159647000D02*
X146259000Y-160647000D01*
X137459000Y-110482000D02*
X137459000Y-109482000D01*
X136099000Y-109482000D02*
X136099000Y-110482000D01*
X123319000Y-107867267D02*
X123319000Y-107524733D01*
X122299000Y-107867267D02*
X122299000Y-107524733D01*
D13*
X80097380Y-103886095D02*
X80906904Y-103886095D01*
X81002142Y-103933714D01*
X81049761Y-103981333D01*
X81097380Y-104076571D01*
X81097380Y-104267047D01*
X81049761Y-104362285D01*
X81002142Y-104409904D01*
X80906904Y-104457523D01*
X80097380Y-104457523D01*
X80097380Y-104838476D02*
X80097380Y-105457523D01*
X80478333Y-105124190D01*
X80478333Y-105267047D01*
X80525952Y-105362285D01*
X80573571Y-105409904D01*
X80668809Y-105457523D01*
X80906904Y-105457523D01*
X81002142Y-105409904D01*
X81049761Y-105362285D01*
X81097380Y-105267047D01*
X81097380Y-104981333D01*
X81049761Y-104886095D01*
X81002142Y-104838476D01*
X123102666Y-131040142D02*
X123150285Y-131087761D01*
X123293142Y-131135380D01*
X123388380Y-131135380D01*
X123531238Y-131087761D01*
X123626476Y-130992523D01*
X123674095Y-130897285D01*
X123721714Y-130706809D01*
X123721714Y-130563952D01*
X123674095Y-130373476D01*
X123626476Y-130278238D01*
X123531238Y-130183000D01*
X123388380Y-130135380D01*
X123293142Y-130135380D01*
X123150285Y-130183000D01*
X123102666Y-130230619D01*
X122150285Y-131135380D02*
X122721714Y-131135380D01*
X122436000Y-131135380D02*
X122436000Y-130135380D01*
X122531238Y-130278238D01*
X122626476Y-130373476D01*
X122721714Y-130421095D01*
X124880642Y-135723333D02*
X124928261Y-135675714D01*
X124975880Y-135532857D01*
X124975880Y-135437619D01*
X124928261Y-135294761D01*
X124833023Y-135199523D01*
X124737785Y-135151904D01*
X124547309Y-135104285D01*
X124404452Y-135104285D01*
X124213976Y-135151904D01*
X124118738Y-135199523D01*
X124023500Y-135294761D01*
X123975880Y-135437619D01*
X123975880Y-135532857D01*
X124023500Y-135675714D01*
X124071119Y-135723333D01*
X124071119Y-136104285D02*
X124023500Y-136151904D01*
X123975880Y-136247142D01*
X123975880Y-136485238D01*
X124023500Y-136580476D01*
X124071119Y-136628095D01*
X124166357Y-136675714D01*
X124261595Y-136675714D01*
X124404452Y-136628095D01*
X124975880Y-136056666D01*
X124975880Y-136675714D01*
X125091142Y-147534333D02*
X125138761Y-147486714D01*
X125186380Y-147343857D01*
X125186380Y-147248619D01*
X125138761Y-147105761D01*
X125043523Y-147010523D01*
X124948285Y-146962904D01*
X124757809Y-146915285D01*
X124614952Y-146915285D01*
X124424476Y-146962904D01*
X124329238Y-147010523D01*
X124234000Y-147105761D01*
X124186380Y-147248619D01*
X124186380Y-147343857D01*
X124234000Y-147486714D01*
X124281619Y-147534333D01*
X124186380Y-147867666D02*
X124186380Y-148486714D01*
X124567333Y-148153380D01*
X124567333Y-148296238D01*
X124614952Y-148391476D01*
X124662571Y-148439095D01*
X124757809Y-148486714D01*
X124995904Y-148486714D01*
X125091142Y-148439095D01*
X125138761Y-148391476D01*
X125186380Y-148296238D01*
X125186380Y-148010523D01*
X125138761Y-147915285D01*
X125091142Y-147867666D01*
X146470666Y-136564642D02*
X146518285Y-136612261D01*
X146661142Y-136659880D01*
X146756380Y-136659880D01*
X146899238Y-136612261D01*
X146994476Y-136517023D01*
X147042095Y-136421785D01*
X147089714Y-136231309D01*
X147089714Y-136088452D01*
X147042095Y-135897976D01*
X146994476Y-135802738D01*
X146899238Y-135707500D01*
X146756380Y-135659880D01*
X146661142Y-135659880D01*
X146518285Y-135707500D01*
X146470666Y-135755119D01*
X145613523Y-135993214D02*
X145613523Y-136659880D01*
X145851619Y-135612261D02*
X146089714Y-136326547D01*
X145470666Y-136326547D01*
X146470666Y-146046142D02*
X146518285Y-146093761D01*
X146661142Y-146141380D01*
X146756380Y-146141380D01*
X146899238Y-146093761D01*
X146994476Y-145998523D01*
X147042095Y-145903285D01*
X147089714Y-145712809D01*
X147089714Y-145569952D01*
X147042095Y-145379476D01*
X146994476Y-145284238D01*
X146899238Y-145189000D01*
X146756380Y-145141380D01*
X146661142Y-145141380D01*
X146518285Y-145189000D01*
X146470666Y-145236619D01*
X145565904Y-145141380D02*
X146042095Y-145141380D01*
X146089714Y-145617571D01*
X146042095Y-145569952D01*
X145946857Y-145522333D01*
X145708761Y-145522333D01*
X145613523Y-145569952D01*
X145565904Y-145617571D01*
X145518285Y-145712809D01*
X145518285Y-145950904D01*
X145565904Y-146046142D01*
X145613523Y-146093761D01*
X145708761Y-146141380D01*
X145946857Y-146141380D01*
X146042095Y-146093761D01*
X146089714Y-146046142D01*
X135040666Y-136691642D02*
X135088285Y-136739261D01*
X135231142Y-136786880D01*
X135326380Y-136786880D01*
X135469238Y-136739261D01*
X135564476Y-136644023D01*
X135612095Y-136548785D01*
X135659714Y-136358309D01*
X135659714Y-136215452D01*
X135612095Y-136024976D01*
X135564476Y-135929738D01*
X135469238Y-135834500D01*
X135326380Y-135786880D01*
X135231142Y-135786880D01*
X135088285Y-135834500D01*
X135040666Y-135882119D01*
X134183523Y-135786880D02*
X134374000Y-135786880D01*
X134469238Y-135834500D01*
X134516857Y-135882119D01*
X134612095Y-136024976D01*
X134659714Y-136215452D01*
X134659714Y-136596404D01*
X134612095Y-136691642D01*
X134564476Y-136739261D01*
X134469238Y-136786880D01*
X134278761Y-136786880D01*
X134183523Y-136739261D01*
X134135904Y-136691642D01*
X134088285Y-136596404D01*
X134088285Y-136358309D01*
X134135904Y-136263071D01*
X134183523Y-136215452D01*
X134278761Y-136167833D01*
X134469238Y-136167833D01*
X134564476Y-136215452D01*
X134612095Y-136263071D01*
X134659714Y-136358309D01*
X133072142Y-144867333D02*
X133119761Y-144819714D01*
X133167380Y-144676857D01*
X133167380Y-144581619D01*
X133119761Y-144438761D01*
X133024523Y-144343523D01*
X132929285Y-144295904D01*
X132738809Y-144248285D01*
X132595952Y-144248285D01*
X132405476Y-144295904D01*
X132310238Y-144343523D01*
X132215000Y-144438761D01*
X132167380Y-144581619D01*
X132167380Y-144676857D01*
X132215000Y-144819714D01*
X132262619Y-144867333D01*
X132167380Y-145200666D02*
X132167380Y-145867333D01*
X133167380Y-145438761D01*
X130786142Y-162171142D02*
X130833761Y-162123523D01*
X130881380Y-161980666D01*
X130881380Y-161885428D01*
X130833761Y-161742571D01*
X130738523Y-161647333D01*
X130643285Y-161599714D01*
X130452809Y-161552095D01*
X130309952Y-161552095D01*
X130119476Y-161599714D01*
X130024238Y-161647333D01*
X129929000Y-161742571D01*
X129881380Y-161885428D01*
X129881380Y-161980666D01*
X129929000Y-162123523D01*
X129976619Y-162171142D01*
X130881380Y-163123523D02*
X130881380Y-162552095D01*
X130881380Y-162837809D02*
X129881380Y-162837809D01*
X130024238Y-162742571D01*
X130119476Y-162647333D01*
X130167095Y-162552095D01*
X130881380Y-164075904D02*
X130881380Y-163504476D01*
X130881380Y-163790190D02*
X129881380Y-163790190D01*
X130024238Y-163694952D01*
X130119476Y-163599714D01*
X130167095Y-163504476D01*
X122297142Y-102227142D02*
X122344761Y-102179523D01*
X122392380Y-102036666D01*
X122392380Y-101941428D01*
X122344761Y-101798571D01*
X122249523Y-101703333D01*
X122154285Y-101655714D01*
X121963809Y-101608095D01*
X121820952Y-101608095D01*
X121630476Y-101655714D01*
X121535238Y-101703333D01*
X121440000Y-101798571D01*
X121392380Y-101941428D01*
X121392380Y-102036666D01*
X121440000Y-102179523D01*
X121487619Y-102227142D01*
X122392380Y-103179523D02*
X122392380Y-102608095D01*
X122392380Y-102893809D02*
X121392380Y-102893809D01*
X121535238Y-102798571D01*
X121630476Y-102703333D01*
X121678095Y-102608095D01*
X121487619Y-103560476D02*
X121440000Y-103608095D01*
X121392380Y-103703333D01*
X121392380Y-103941428D01*
X121440000Y-104036666D01*
X121487619Y-104084285D01*
X121582857Y-104131904D01*
X121678095Y-104131904D01*
X121820952Y-104084285D01*
X122392380Y-103512857D01*
X122392380Y-104131904D01*
X133961142Y-120261142D02*
X134008761Y-120213523D01*
X134056380Y-120070666D01*
X134056380Y-119975428D01*
X134008761Y-119832571D01*
X133913523Y-119737333D01*
X133818285Y-119689714D01*
X133627809Y-119642095D01*
X133484952Y-119642095D01*
X133294476Y-119689714D01*
X133199238Y-119737333D01*
X133104000Y-119832571D01*
X133056380Y-119975428D01*
X133056380Y-120070666D01*
X133104000Y-120213523D01*
X133151619Y-120261142D01*
X134056380Y-121213523D02*
X134056380Y-120642095D01*
X134056380Y-120927809D02*
X133056380Y-120927809D01*
X133199238Y-120832571D01*
X133294476Y-120737333D01*
X133342095Y-120642095D01*
X133056380Y-122070666D02*
X133056380Y-121880190D01*
X133104000Y-121784952D01*
X133151619Y-121737333D01*
X133294476Y-121642095D01*
X133484952Y-121594476D01*
X133865904Y-121594476D01*
X133961142Y-121642095D01*
X134008761Y-121689714D01*
X134056380Y-121784952D01*
X134056380Y-121975428D01*
X134008761Y-122070666D01*
X133961142Y-122118285D01*
X133865904Y-122165904D01*
X133627809Y-122165904D01*
X133532571Y-122118285D01*
X133484952Y-122070666D01*
X133437333Y-121975428D01*
X133437333Y-121784952D01*
X133484952Y-121689714D01*
X133532571Y-121642095D01*
X133627809Y-121594476D01*
X135231142Y-120261142D02*
X135278761Y-120213523D01*
X135326380Y-120070666D01*
X135326380Y-119975428D01*
X135278761Y-119832571D01*
X135183523Y-119737333D01*
X135088285Y-119689714D01*
X134897809Y-119642095D01*
X134754952Y-119642095D01*
X134564476Y-119689714D01*
X134469238Y-119737333D01*
X134374000Y-119832571D01*
X134326380Y-119975428D01*
X134326380Y-120070666D01*
X134374000Y-120213523D01*
X134421619Y-120261142D01*
X135326380Y-121213523D02*
X135326380Y-120642095D01*
X135326380Y-120927809D02*
X134326380Y-120927809D01*
X134469238Y-120832571D01*
X134564476Y-120737333D01*
X134612095Y-120642095D01*
X134326380Y-121546857D02*
X134326380Y-122213523D01*
X135326380Y-121784952D01*
X136501142Y-120261142D02*
X136548761Y-120213523D01*
X136596380Y-120070666D01*
X136596380Y-119975428D01*
X136548761Y-119832571D01*
X136453523Y-119737333D01*
X136358285Y-119689714D01*
X136167809Y-119642095D01*
X136024952Y-119642095D01*
X135834476Y-119689714D01*
X135739238Y-119737333D01*
X135644000Y-119832571D01*
X135596380Y-119975428D01*
X135596380Y-120070666D01*
X135644000Y-120213523D01*
X135691619Y-120261142D01*
X136596380Y-121213523D02*
X136596380Y-120642095D01*
X136596380Y-120927809D02*
X135596380Y-120927809D01*
X135739238Y-120832571D01*
X135834476Y-120737333D01*
X135882095Y-120642095D01*
X136024952Y-121784952D02*
X135977333Y-121689714D01*
X135929714Y-121642095D01*
X135834476Y-121594476D01*
X135786857Y-121594476D01*
X135691619Y-121642095D01*
X135644000Y-121689714D01*
X135596380Y-121784952D01*
X135596380Y-121975428D01*
X135644000Y-122070666D01*
X135691619Y-122118285D01*
X135786857Y-122165904D01*
X135834476Y-122165904D01*
X135929714Y-122118285D01*
X135977333Y-122070666D01*
X136024952Y-121975428D01*
X136024952Y-121784952D01*
X136072571Y-121689714D01*
X136120190Y-121642095D01*
X136215428Y-121594476D01*
X136405904Y-121594476D01*
X136501142Y-121642095D01*
X136548761Y-121689714D01*
X136596380Y-121784952D01*
X136596380Y-121975428D01*
X136548761Y-122070666D01*
X136501142Y-122118285D01*
X136405904Y-122165904D01*
X136215428Y-122165904D01*
X136120190Y-122118285D01*
X136072571Y-122070666D01*
X136024952Y-121975428D01*
X136501142Y-116070142D02*
X136548761Y-116022523D01*
X136596380Y-115879666D01*
X136596380Y-115784428D01*
X136548761Y-115641571D01*
X136453523Y-115546333D01*
X136358285Y-115498714D01*
X136167809Y-115451095D01*
X136024952Y-115451095D01*
X135834476Y-115498714D01*
X135739238Y-115546333D01*
X135644000Y-115641571D01*
X135596380Y-115784428D01*
X135596380Y-115879666D01*
X135644000Y-116022523D01*
X135691619Y-116070142D01*
X136596380Y-117022523D02*
X136596380Y-116451095D01*
X136596380Y-116736809D02*
X135596380Y-116736809D01*
X135739238Y-116641571D01*
X135834476Y-116546333D01*
X135882095Y-116451095D01*
X136596380Y-117498714D02*
X136596380Y-117689190D01*
X136548761Y-117784428D01*
X136501142Y-117832047D01*
X136358285Y-117927285D01*
X136167809Y-117974904D01*
X135786857Y-117974904D01*
X135691619Y-117927285D01*
X135644000Y-117879666D01*
X135596380Y-117784428D01*
X135596380Y-117593952D01*
X135644000Y-117498714D01*
X135691619Y-117451095D01*
X135786857Y-117403476D01*
X136024952Y-117403476D01*
X136120190Y-117451095D01*
X136167809Y-117498714D01*
X136215428Y-117593952D01*
X136215428Y-117784428D01*
X136167809Y-117879666D01*
X136120190Y-117927285D01*
X136024952Y-117974904D01*
X135231142Y-116070142D02*
X135278761Y-116022523D01*
X135326380Y-115879666D01*
X135326380Y-115784428D01*
X135278761Y-115641571D01*
X135183523Y-115546333D01*
X135088285Y-115498714D01*
X134897809Y-115451095D01*
X134754952Y-115451095D01*
X134564476Y-115498714D01*
X134469238Y-115546333D01*
X134374000Y-115641571D01*
X134326380Y-115784428D01*
X134326380Y-115879666D01*
X134374000Y-116022523D01*
X134421619Y-116070142D01*
X134421619Y-116451095D02*
X134374000Y-116498714D01*
X134326380Y-116593952D01*
X134326380Y-116832047D01*
X134374000Y-116927285D01*
X134421619Y-116974904D01*
X134516857Y-117022523D01*
X134612095Y-117022523D01*
X134754952Y-116974904D01*
X135326380Y-116403476D01*
X135326380Y-117022523D01*
X134326380Y-117641571D02*
X134326380Y-117736809D01*
X134374000Y-117832047D01*
X134421619Y-117879666D01*
X134516857Y-117927285D01*
X134707333Y-117974904D01*
X134945428Y-117974904D01*
X135135904Y-117927285D01*
X135231142Y-117879666D01*
X135278761Y-117832047D01*
X135326380Y-117736809D01*
X135326380Y-117641571D01*
X135278761Y-117546333D01*
X135231142Y-117498714D01*
X135135904Y-117451095D01*
X134945428Y-117403476D01*
X134707333Y-117403476D01*
X134516857Y-117451095D01*
X134421619Y-117498714D01*
X134374000Y-117546333D01*
X134326380Y-117641571D01*
X133961142Y-116070142D02*
X134008761Y-116022523D01*
X134056380Y-115879666D01*
X134056380Y-115784428D01*
X134008761Y-115641571D01*
X133913523Y-115546333D01*
X133818285Y-115498714D01*
X133627809Y-115451095D01*
X133484952Y-115451095D01*
X133294476Y-115498714D01*
X133199238Y-115546333D01*
X133104000Y-115641571D01*
X133056380Y-115784428D01*
X133056380Y-115879666D01*
X133104000Y-116022523D01*
X133151619Y-116070142D01*
X133151619Y-116451095D02*
X133104000Y-116498714D01*
X133056380Y-116593952D01*
X133056380Y-116832047D01*
X133104000Y-116927285D01*
X133151619Y-116974904D01*
X133246857Y-117022523D01*
X133342095Y-117022523D01*
X133484952Y-116974904D01*
X134056380Y-116403476D01*
X134056380Y-117022523D01*
X134056380Y-117974904D02*
X134056380Y-117403476D01*
X134056380Y-117689190D02*
X133056380Y-117689190D01*
X133199238Y-117593952D01*
X133294476Y-117498714D01*
X133342095Y-117403476D01*
X142025666Y-138755380D02*
X142359000Y-138279190D01*
X142597095Y-138755380D02*
X142597095Y-137755380D01*
X142216142Y-137755380D01*
X142120904Y-137803000D01*
X142073285Y-137850619D01*
X142025666Y-137945857D01*
X142025666Y-138088714D01*
X142073285Y-138183952D01*
X142120904Y-138231571D01*
X142216142Y-138279190D01*
X142597095Y-138279190D01*
X141073285Y-138755380D02*
X141644714Y-138755380D01*
X141359000Y-138755380D02*
X141359000Y-137755380D01*
X141454238Y-137898238D01*
X141549476Y-137993476D01*
X141644714Y-138041095D01*
X142819380Y-150518833D02*
X142343190Y-150185500D01*
X142819380Y-149947404D02*
X141819380Y-149947404D01*
X141819380Y-150328357D01*
X141867000Y-150423595D01*
X141914619Y-150471214D01*
X142009857Y-150518833D01*
X142152714Y-150518833D01*
X142247952Y-150471214D01*
X142295571Y-150423595D01*
X142343190Y-150328357D01*
X142343190Y-149947404D01*
X141914619Y-150899785D02*
X141867000Y-150947404D01*
X141819380Y-151042642D01*
X141819380Y-151280738D01*
X141867000Y-151375976D01*
X141914619Y-151423595D01*
X142009857Y-151471214D01*
X142105095Y-151471214D01*
X142247952Y-151423595D01*
X142819380Y-150852166D01*
X142819380Y-151471214D01*
X136437666Y-126055380D02*
X136771000Y-125579190D01*
X137009095Y-126055380D02*
X137009095Y-125055380D01*
X136628142Y-125055380D01*
X136532904Y-125103000D01*
X136485285Y-125150619D01*
X136437666Y-125245857D01*
X136437666Y-125388714D01*
X136485285Y-125483952D01*
X136532904Y-125531571D01*
X136628142Y-125579190D01*
X137009095Y-125579190D01*
X136104333Y-125055380D02*
X135485285Y-125055380D01*
X135818619Y-125436333D01*
X135675761Y-125436333D01*
X135580523Y-125483952D01*
X135532904Y-125531571D01*
X135485285Y-125626809D01*
X135485285Y-125864904D01*
X135532904Y-125960142D01*
X135580523Y-126007761D01*
X135675761Y-126055380D01*
X135961476Y-126055380D01*
X136056714Y-126007761D01*
X136104333Y-125960142D01*
X136437666Y-124404380D02*
X136771000Y-123928190D01*
X137009095Y-124404380D02*
X137009095Y-123404380D01*
X136628142Y-123404380D01*
X136532904Y-123452000D01*
X136485285Y-123499619D01*
X136437666Y-123594857D01*
X136437666Y-123737714D01*
X136485285Y-123832952D01*
X136532904Y-123880571D01*
X136628142Y-123928190D01*
X137009095Y-123928190D01*
X135580523Y-123737714D02*
X135580523Y-124404380D01*
X135818619Y-123356761D02*
X136056714Y-124071047D01*
X135437666Y-124071047D01*
X142025666Y-135453380D02*
X142359000Y-134977190D01*
X142597095Y-135453380D02*
X142597095Y-134453380D01*
X142216142Y-134453380D01*
X142120904Y-134501000D01*
X142073285Y-134548619D01*
X142025666Y-134643857D01*
X142025666Y-134786714D01*
X142073285Y-134881952D01*
X142120904Y-134929571D01*
X142216142Y-134977190D01*
X142597095Y-134977190D01*
X141120904Y-134453380D02*
X141597095Y-134453380D01*
X141644714Y-134929571D01*
X141597095Y-134881952D01*
X141501857Y-134834333D01*
X141263761Y-134834333D01*
X141168523Y-134881952D01*
X141120904Y-134929571D01*
X141073285Y-135024809D01*
X141073285Y-135262904D01*
X141120904Y-135358142D01*
X141168523Y-135405761D01*
X141263761Y-135453380D01*
X141501857Y-135453380D01*
X141597095Y-135405761D01*
X141644714Y-135358142D01*
X142025666Y-137104380D02*
X142359000Y-136628190D01*
X142597095Y-137104380D02*
X142597095Y-136104380D01*
X142216142Y-136104380D01*
X142120904Y-136152000D01*
X142073285Y-136199619D01*
X142025666Y-136294857D01*
X142025666Y-136437714D01*
X142073285Y-136532952D01*
X142120904Y-136580571D01*
X142216142Y-136628190D01*
X142597095Y-136628190D01*
X141168523Y-136104380D02*
X141359000Y-136104380D01*
X141454238Y-136152000D01*
X141501857Y-136199619D01*
X141597095Y-136342476D01*
X141644714Y-136532952D01*
X141644714Y-136913904D01*
X141597095Y-137009142D01*
X141549476Y-137056761D01*
X141454238Y-137104380D01*
X141263761Y-137104380D01*
X141168523Y-137056761D01*
X141120904Y-137009142D01*
X141073285Y-136913904D01*
X141073285Y-136675809D01*
X141120904Y-136580571D01*
X141168523Y-136532952D01*
X141263761Y-136485333D01*
X141454238Y-136485333D01*
X141549476Y-136532952D01*
X141597095Y-136580571D01*
X141644714Y-136675809D01*
X139517380Y-150518833D02*
X139041190Y-150185500D01*
X139517380Y-149947404D02*
X138517380Y-149947404D01*
X138517380Y-150328357D01*
X138565000Y-150423595D01*
X138612619Y-150471214D01*
X138707857Y-150518833D01*
X138850714Y-150518833D01*
X138945952Y-150471214D01*
X138993571Y-150423595D01*
X139041190Y-150328357D01*
X139041190Y-149947404D01*
X138517380Y-150852166D02*
X138517380Y-151518833D01*
X139517380Y-151090261D01*
X141168380Y-150518833D02*
X140692190Y-150185500D01*
X141168380Y-149947404D02*
X140168380Y-149947404D01*
X140168380Y-150328357D01*
X140216000Y-150423595D01*
X140263619Y-150471214D01*
X140358857Y-150518833D01*
X140501714Y-150518833D01*
X140596952Y-150471214D01*
X140644571Y-150423595D01*
X140692190Y-150328357D01*
X140692190Y-149947404D01*
X140596952Y-151090261D02*
X140549333Y-150995023D01*
X140501714Y-150947404D01*
X140406476Y-150899785D01*
X140358857Y-150899785D01*
X140263619Y-150947404D01*
X140216000Y-150995023D01*
X140168380Y-151090261D01*
X140168380Y-151280738D01*
X140216000Y-151375976D01*
X140263619Y-151423595D01*
X140358857Y-151471214D01*
X140406476Y-151471214D01*
X140501714Y-151423595D01*
X140549333Y-151375976D01*
X140596952Y-151280738D01*
X140596952Y-151090261D01*
X140644571Y-150995023D01*
X140692190Y-150947404D01*
X140787428Y-150899785D01*
X140977904Y-150899785D01*
X141073142Y-150947404D01*
X141120761Y-150995023D01*
X141168380Y-151090261D01*
X141168380Y-151280738D01*
X141120761Y-151375976D01*
X141073142Y-151423595D01*
X140977904Y-151471214D01*
X140787428Y-151471214D01*
X140692190Y-151423595D01*
X140644571Y-151375976D01*
X140596952Y-151280738D01*
X123102666Y-132786380D02*
X123436000Y-132310190D01*
X123674095Y-132786380D02*
X123674095Y-131786380D01*
X123293142Y-131786380D01*
X123197904Y-131834000D01*
X123150285Y-131881619D01*
X123102666Y-131976857D01*
X123102666Y-132119714D01*
X123150285Y-132214952D01*
X123197904Y-132262571D01*
X123293142Y-132310190D01*
X123674095Y-132310190D01*
X122626476Y-132786380D02*
X122436000Y-132786380D01*
X122340761Y-132738761D01*
X122293142Y-132691142D01*
X122197904Y-132548285D01*
X122150285Y-132357809D01*
X122150285Y-131976857D01*
X122197904Y-131881619D01*
X122245523Y-131834000D01*
X122340761Y-131786380D01*
X122531238Y-131786380D01*
X122626476Y-131834000D01*
X122674095Y-131881619D01*
X122721714Y-131976857D01*
X122721714Y-132214952D01*
X122674095Y-132310190D01*
X122626476Y-132357809D01*
X122531238Y-132405428D01*
X122340761Y-132405428D01*
X122245523Y-132357809D01*
X122197904Y-132310190D01*
X122150285Y-132214952D01*
X124986380Y-141089142D02*
X124510190Y-140755809D01*
X124986380Y-140517714D02*
X123986380Y-140517714D01*
X123986380Y-140898666D01*
X124034000Y-140993904D01*
X124081619Y-141041523D01*
X124176857Y-141089142D01*
X124319714Y-141089142D01*
X124414952Y-141041523D01*
X124462571Y-140993904D01*
X124510190Y-140898666D01*
X124510190Y-140517714D01*
X124986380Y-142041523D02*
X124986380Y-141470095D01*
X124986380Y-141755809D02*
X123986380Y-141755809D01*
X124129238Y-141660571D01*
X124224476Y-141565333D01*
X124272095Y-141470095D01*
X123986380Y-142660571D02*
X123986380Y-142755809D01*
X124034000Y-142851047D01*
X124081619Y-142898666D01*
X124176857Y-142946285D01*
X124367333Y-142993904D01*
X124605428Y-142993904D01*
X124795904Y-142946285D01*
X124891142Y-142898666D01*
X124938761Y-142851047D01*
X124986380Y-142755809D01*
X124986380Y-142660571D01*
X124938761Y-142565333D01*
X124891142Y-142517714D01*
X124795904Y-142470095D01*
X124605428Y-142422476D01*
X124367333Y-142422476D01*
X124176857Y-142470095D01*
X124081619Y-142517714D01*
X124034000Y-142565333D01*
X123986380Y-142660571D01*
X132468857Y-158313380D02*
X132802190Y-157837190D01*
X133040285Y-158313380D02*
X133040285Y-157313380D01*
X132659333Y-157313380D01*
X132564095Y-157361000D01*
X132516476Y-157408619D01*
X132468857Y-157503857D01*
X132468857Y-157646714D01*
X132516476Y-157741952D01*
X132564095Y-157789571D01*
X132659333Y-157837190D01*
X133040285Y-157837190D01*
X131516476Y-158313380D02*
X132087904Y-158313380D01*
X131802190Y-158313380D02*
X131802190Y-157313380D01*
X131897428Y-157456238D01*
X131992666Y-157551476D01*
X132087904Y-157599095D01*
X130564095Y-158313380D02*
X131135523Y-158313380D01*
X130849809Y-158313380D02*
X130849809Y-157313380D01*
X130945047Y-157456238D01*
X131040285Y-157551476D01*
X131135523Y-157599095D01*
X126055380Y-162171142D02*
X125579190Y-161837809D01*
X126055380Y-161599714D02*
X125055380Y-161599714D01*
X125055380Y-161980666D01*
X125103000Y-162075904D01*
X125150619Y-162123523D01*
X125245857Y-162171142D01*
X125388714Y-162171142D01*
X125483952Y-162123523D01*
X125531571Y-162075904D01*
X125579190Y-161980666D01*
X125579190Y-161599714D01*
X126055380Y-163123523D02*
X126055380Y-162552095D01*
X126055380Y-162837809D02*
X125055380Y-162837809D01*
X125198238Y-162742571D01*
X125293476Y-162647333D01*
X125341095Y-162552095D01*
X125150619Y-163504476D02*
X125103000Y-163552095D01*
X125055380Y-163647333D01*
X125055380Y-163885428D01*
X125103000Y-163980666D01*
X125150619Y-164028285D01*
X125245857Y-164075904D01*
X125341095Y-164075904D01*
X125483952Y-164028285D01*
X126055380Y-163456857D01*
X126055380Y-164075904D01*
X127706380Y-162171142D02*
X127230190Y-161837809D01*
X127706380Y-161599714D02*
X126706380Y-161599714D01*
X126706380Y-161980666D01*
X126754000Y-162075904D01*
X126801619Y-162123523D01*
X126896857Y-162171142D01*
X127039714Y-162171142D01*
X127134952Y-162123523D01*
X127182571Y-162075904D01*
X127230190Y-161980666D01*
X127230190Y-161599714D01*
X127706380Y-163123523D02*
X127706380Y-162552095D01*
X127706380Y-162837809D02*
X126706380Y-162837809D01*
X126849238Y-162742571D01*
X126944476Y-162647333D01*
X126992095Y-162552095D01*
X126706380Y-163456857D02*
X126706380Y-164075904D01*
X127087333Y-163742571D01*
X127087333Y-163885428D01*
X127134952Y-163980666D01*
X127182571Y-164028285D01*
X127277809Y-164075904D01*
X127515904Y-164075904D01*
X127611142Y-164028285D01*
X127658761Y-163980666D01*
X127706380Y-163885428D01*
X127706380Y-163599714D01*
X127658761Y-163504476D01*
X127611142Y-163456857D01*
X129357380Y-162171142D02*
X128881190Y-161837809D01*
X129357380Y-161599714D02*
X128357380Y-161599714D01*
X128357380Y-161980666D01*
X128405000Y-162075904D01*
X128452619Y-162123523D01*
X128547857Y-162171142D01*
X128690714Y-162171142D01*
X128785952Y-162123523D01*
X128833571Y-162075904D01*
X128881190Y-161980666D01*
X128881190Y-161599714D01*
X129357380Y-163123523D02*
X129357380Y-162552095D01*
X129357380Y-162837809D02*
X128357380Y-162837809D01*
X128500238Y-162742571D01*
X128595476Y-162647333D01*
X128643095Y-162552095D01*
X128690714Y-163980666D02*
X129357380Y-163980666D01*
X128309761Y-163742571D02*
X129024047Y-163504476D01*
X129024047Y-164123523D01*
X132405380Y-162171142D02*
X131929190Y-161837809D01*
X132405380Y-161599714D02*
X131405380Y-161599714D01*
X131405380Y-161980666D01*
X131453000Y-162075904D01*
X131500619Y-162123523D01*
X131595857Y-162171142D01*
X131738714Y-162171142D01*
X131833952Y-162123523D01*
X131881571Y-162075904D01*
X131929190Y-161980666D01*
X131929190Y-161599714D01*
X132405380Y-163123523D02*
X132405380Y-162552095D01*
X132405380Y-162837809D02*
X131405380Y-162837809D01*
X131548238Y-162742571D01*
X131643476Y-162647333D01*
X131691095Y-162552095D01*
X131405380Y-164028285D02*
X131405380Y-163552095D01*
X131881571Y-163504476D01*
X131833952Y-163552095D01*
X131786333Y-163647333D01*
X131786333Y-163885428D01*
X131833952Y-163980666D01*
X131881571Y-164028285D01*
X131976809Y-164075904D01*
X132214904Y-164075904D01*
X132310142Y-164028285D01*
X132357761Y-163980666D01*
X132405380Y-163885428D01*
X132405380Y-163647333D01*
X132357761Y-163552095D01*
X132310142Y-163504476D01*
X134056380Y-162171142D02*
X133580190Y-161837809D01*
X134056380Y-161599714D02*
X133056380Y-161599714D01*
X133056380Y-161980666D01*
X133104000Y-162075904D01*
X133151619Y-162123523D01*
X133246857Y-162171142D01*
X133389714Y-162171142D01*
X133484952Y-162123523D01*
X133532571Y-162075904D01*
X133580190Y-161980666D01*
X133580190Y-161599714D01*
X134056380Y-163123523D02*
X134056380Y-162552095D01*
X134056380Y-162837809D02*
X133056380Y-162837809D01*
X133199238Y-162742571D01*
X133294476Y-162647333D01*
X133342095Y-162552095D01*
X133056380Y-163980666D02*
X133056380Y-163790190D01*
X133104000Y-163694952D01*
X133151619Y-163647333D01*
X133294476Y-163552095D01*
X133484952Y-163504476D01*
X133865904Y-163504476D01*
X133961142Y-163552095D01*
X134008761Y-163599714D01*
X134056380Y-163694952D01*
X134056380Y-163885428D01*
X134008761Y-163980666D01*
X133961142Y-164028285D01*
X133865904Y-164075904D01*
X133627809Y-164075904D01*
X133532571Y-164028285D01*
X133484952Y-163980666D01*
X133437333Y-163885428D01*
X133437333Y-163694952D01*
X133484952Y-163599714D01*
X133532571Y-163552095D01*
X133627809Y-163504476D01*
X135707380Y-162171142D02*
X135231190Y-161837809D01*
X135707380Y-161599714D02*
X134707380Y-161599714D01*
X134707380Y-161980666D01*
X134755000Y-162075904D01*
X134802619Y-162123523D01*
X134897857Y-162171142D01*
X135040714Y-162171142D01*
X135135952Y-162123523D01*
X135183571Y-162075904D01*
X135231190Y-161980666D01*
X135231190Y-161599714D01*
X135707380Y-163123523D02*
X135707380Y-162552095D01*
X135707380Y-162837809D02*
X134707380Y-162837809D01*
X134850238Y-162742571D01*
X134945476Y-162647333D01*
X134993095Y-162552095D01*
X134707380Y-163456857D02*
X134707380Y-164123523D01*
X135707380Y-163694952D01*
X147446904Y-123713380D02*
X147446904Y-124522904D01*
X147399285Y-124618142D01*
X147351666Y-124665761D01*
X147256428Y-124713380D01*
X147065952Y-124713380D01*
X146970714Y-124665761D01*
X146923095Y-124618142D01*
X146875476Y-124522904D01*
X146875476Y-123713380D01*
X146494523Y-123713380D02*
X145827857Y-123713380D01*
X146256428Y-124713380D01*
X130944857Y-117812142D02*
X130992476Y-117859761D01*
X131135333Y-117907380D01*
X131230571Y-117907380D01*
X131373428Y-117859761D01*
X131468666Y-117764523D01*
X131516285Y-117669285D01*
X131563904Y-117478809D01*
X131563904Y-117335952D01*
X131516285Y-117145476D01*
X131468666Y-117050238D01*
X131373428Y-116955000D01*
X131230571Y-116907380D01*
X131135333Y-116907380D01*
X130992476Y-116955000D01*
X130944857Y-117002619D01*
X130563904Y-117002619D02*
X130516285Y-116955000D01*
X130421047Y-116907380D01*
X130182952Y-116907380D01*
X130087714Y-116955000D01*
X130040095Y-117002619D01*
X129992476Y-117097857D01*
X129992476Y-117193095D01*
X130040095Y-117335952D01*
X130611523Y-117907380D01*
X129992476Y-117907380D01*
X129659142Y-116907380D02*
X129040095Y-116907380D01*
X129373428Y-117288333D01*
X129230571Y-117288333D01*
X129135333Y-117335952D01*
X129087714Y-117383571D01*
X129040095Y-117478809D01*
X129040095Y-117716904D01*
X129087714Y-117812142D01*
X129135333Y-117859761D01*
X129230571Y-117907380D01*
X129516285Y-117907380D01*
X129611523Y-117859761D01*
X129659142Y-117812142D01*
X122297142Y-118991142D02*
X122344761Y-118943523D01*
X122392380Y-118800666D01*
X122392380Y-118705428D01*
X122344761Y-118562571D01*
X122249523Y-118467333D01*
X122154285Y-118419714D01*
X121963809Y-118372095D01*
X121820952Y-118372095D01*
X121630476Y-118419714D01*
X121535238Y-118467333D01*
X121440000Y-118562571D01*
X121392380Y-118705428D01*
X121392380Y-118800666D01*
X121440000Y-118943523D01*
X121487619Y-118991142D01*
X121487619Y-119372095D02*
X121440000Y-119419714D01*
X121392380Y-119514952D01*
X121392380Y-119753047D01*
X121440000Y-119848285D01*
X121487619Y-119895904D01*
X121582857Y-119943523D01*
X121678095Y-119943523D01*
X121820952Y-119895904D01*
X122392380Y-119324476D01*
X122392380Y-119943523D01*
X121725714Y-120800666D02*
X122392380Y-120800666D01*
X121344761Y-120562571D02*
X122059047Y-120324476D01*
X122059047Y-120943523D01*
X126880857Y-117217142D02*
X126928476Y-117264761D01*
X127071333Y-117312380D01*
X127166571Y-117312380D01*
X127309428Y-117264761D01*
X127404666Y-117169523D01*
X127452285Y-117074285D01*
X127499904Y-116883809D01*
X127499904Y-116740952D01*
X127452285Y-116550476D01*
X127404666Y-116455238D01*
X127309428Y-116360000D01*
X127166571Y-116312380D01*
X127071333Y-116312380D01*
X126928476Y-116360000D01*
X126880857Y-116407619D01*
X126499904Y-116407619D02*
X126452285Y-116360000D01*
X126357047Y-116312380D01*
X126118952Y-116312380D01*
X126023714Y-116360000D01*
X125976095Y-116407619D01*
X125928476Y-116502857D01*
X125928476Y-116598095D01*
X125976095Y-116740952D01*
X126547523Y-117312380D01*
X125928476Y-117312380D01*
X125023714Y-116312380D02*
X125499904Y-116312380D01*
X125547523Y-116788571D01*
X125499904Y-116740952D01*
X125404666Y-116693333D01*
X125166571Y-116693333D01*
X125071333Y-116740952D01*
X125023714Y-116788571D01*
X124976095Y-116883809D01*
X124976095Y-117121904D01*
X125023714Y-117217142D01*
X125071333Y-117264761D01*
X125166571Y-117312380D01*
X125404666Y-117312380D01*
X125499904Y-117264761D01*
X125547523Y-117217142D01*
X126880857Y-124055142D02*
X126928476Y-124102761D01*
X127071333Y-124150380D01*
X127166571Y-124150380D01*
X127309428Y-124102761D01*
X127404666Y-124007523D01*
X127452285Y-123912285D01*
X127499904Y-123721809D01*
X127499904Y-123578952D01*
X127452285Y-123388476D01*
X127404666Y-123293238D01*
X127309428Y-123198000D01*
X127166571Y-123150380D01*
X127071333Y-123150380D01*
X126928476Y-123198000D01*
X126880857Y-123245619D01*
X126499904Y-123245619D02*
X126452285Y-123198000D01*
X126357047Y-123150380D01*
X126118952Y-123150380D01*
X126023714Y-123198000D01*
X125976095Y-123245619D01*
X125928476Y-123340857D01*
X125928476Y-123436095D01*
X125976095Y-123578952D01*
X126547523Y-124150380D01*
X125928476Y-124150380D01*
X125071333Y-123150380D02*
X125261809Y-123150380D01*
X125357047Y-123198000D01*
X125404666Y-123245619D01*
X125499904Y-123388476D01*
X125547523Y-123578952D01*
X125547523Y-123959904D01*
X125499904Y-124055142D01*
X125452285Y-124102761D01*
X125357047Y-124150380D01*
X125166571Y-124150380D01*
X125071333Y-124102761D01*
X125023714Y-124055142D01*
X124976095Y-123959904D01*
X124976095Y-123721809D01*
X125023714Y-123626571D01*
X125071333Y-123578952D01*
X125166571Y-123531333D01*
X125357047Y-123531333D01*
X125452285Y-123578952D01*
X125499904Y-123626571D01*
X125547523Y-123721809D01*
X130817857Y-121663380D02*
X131151190Y-121187190D01*
X131389285Y-121663380D02*
X131389285Y-120663380D01*
X131008333Y-120663380D01*
X130913095Y-120711000D01*
X130865476Y-120758619D01*
X130817857Y-120853857D01*
X130817857Y-120996714D01*
X130865476Y-121091952D01*
X130913095Y-121139571D01*
X131008333Y-121187190D01*
X131389285Y-121187190D01*
X130436904Y-120758619D02*
X130389285Y-120711000D01*
X130294047Y-120663380D01*
X130055952Y-120663380D01*
X129960714Y-120711000D01*
X129913095Y-120758619D01*
X129865476Y-120853857D01*
X129865476Y-120949095D01*
X129913095Y-121091952D01*
X130484523Y-121663380D01*
X129865476Y-121663380D01*
X129484523Y-120758619D02*
X129436904Y-120711000D01*
X129341666Y-120663380D01*
X129103571Y-120663380D01*
X129008333Y-120711000D01*
X128960714Y-120758619D01*
X128913095Y-120853857D01*
X128913095Y-120949095D01*
X128960714Y-121091952D01*
X129532142Y-121663380D01*
X128913095Y-121663380D01*
X126880857Y-125547380D02*
X127214190Y-125071190D01*
X127452285Y-125547380D02*
X127452285Y-124547380D01*
X127071333Y-124547380D01*
X126976095Y-124595000D01*
X126928476Y-124642619D01*
X126880857Y-124737857D01*
X126880857Y-124880714D01*
X126928476Y-124975952D01*
X126976095Y-125023571D01*
X127071333Y-125071190D01*
X127452285Y-125071190D01*
X126499904Y-124642619D02*
X126452285Y-124595000D01*
X126357047Y-124547380D01*
X126118952Y-124547380D01*
X126023714Y-124595000D01*
X125976095Y-124642619D01*
X125928476Y-124737857D01*
X125928476Y-124833095D01*
X125976095Y-124975952D01*
X126547523Y-125547380D01*
X125928476Y-125547380D01*
X125595142Y-124547380D02*
X124976095Y-124547380D01*
X125309428Y-124928333D01*
X125166571Y-124928333D01*
X125071333Y-124975952D01*
X125023714Y-125023571D01*
X124976095Y-125118809D01*
X124976095Y-125356904D01*
X125023714Y-125452142D01*
X125071333Y-125499761D01*
X125166571Y-125547380D01*
X125452285Y-125547380D01*
X125547523Y-125499761D01*
X125595142Y-125452142D01*
X142184380Y-162933142D02*
X141708190Y-162599809D01*
X142184380Y-162361714D02*
X141184380Y-162361714D01*
X141184380Y-162742666D01*
X141232000Y-162837904D01*
X141279619Y-162885523D01*
X141374857Y-162933142D01*
X141517714Y-162933142D01*
X141612952Y-162885523D01*
X141660571Y-162837904D01*
X141708190Y-162742666D01*
X141708190Y-162361714D01*
X141279619Y-163314095D02*
X141232000Y-163361714D01*
X141184380Y-163456952D01*
X141184380Y-163695047D01*
X141232000Y-163790285D01*
X141279619Y-163837904D01*
X141374857Y-163885523D01*
X141470095Y-163885523D01*
X141612952Y-163837904D01*
X142184380Y-163266476D01*
X142184380Y-163885523D01*
X141517714Y-164742666D02*
X142184380Y-164742666D01*
X141136761Y-164504571D02*
X141851047Y-164266476D01*
X141851047Y-164885523D01*
X144724380Y-162933142D02*
X144248190Y-162599809D01*
X144724380Y-162361714D02*
X143724380Y-162361714D01*
X143724380Y-162742666D01*
X143772000Y-162837904D01*
X143819619Y-162885523D01*
X143914857Y-162933142D01*
X144057714Y-162933142D01*
X144152952Y-162885523D01*
X144200571Y-162837904D01*
X144248190Y-162742666D01*
X144248190Y-162361714D01*
X143819619Y-163314095D02*
X143772000Y-163361714D01*
X143724380Y-163456952D01*
X143724380Y-163695047D01*
X143772000Y-163790285D01*
X143819619Y-163837904D01*
X143914857Y-163885523D01*
X144010095Y-163885523D01*
X144152952Y-163837904D01*
X144724380Y-163266476D01*
X144724380Y-163885523D01*
X143724380Y-164790285D02*
X143724380Y-164314095D01*
X144200571Y-164266476D01*
X144152952Y-164314095D01*
X144105333Y-164409333D01*
X144105333Y-164647428D01*
X144152952Y-164742666D01*
X144200571Y-164790285D01*
X144295809Y-164837904D01*
X144533904Y-164837904D01*
X144629142Y-164790285D01*
X144676761Y-164742666D01*
X144724380Y-164647428D01*
X144724380Y-164409333D01*
X144676761Y-164314095D01*
X144629142Y-164266476D01*
X147391380Y-162933142D02*
X146915190Y-162599809D01*
X147391380Y-162361714D02*
X146391380Y-162361714D01*
X146391380Y-162742666D01*
X146439000Y-162837904D01*
X146486619Y-162885523D01*
X146581857Y-162933142D01*
X146724714Y-162933142D01*
X146819952Y-162885523D01*
X146867571Y-162837904D01*
X146915190Y-162742666D01*
X146915190Y-162361714D01*
X146486619Y-163314095D02*
X146439000Y-163361714D01*
X146391380Y-163456952D01*
X146391380Y-163695047D01*
X146439000Y-163790285D01*
X146486619Y-163837904D01*
X146581857Y-163885523D01*
X146677095Y-163885523D01*
X146819952Y-163837904D01*
X147391380Y-163266476D01*
X147391380Y-163885523D01*
X146391380Y-164742666D02*
X146391380Y-164552190D01*
X146439000Y-164456952D01*
X146486619Y-164409333D01*
X146629476Y-164314095D01*
X146819952Y-164266476D01*
X147200904Y-164266476D01*
X147296142Y-164314095D01*
X147343761Y-164361714D01*
X147391380Y-164456952D01*
X147391380Y-164647428D01*
X147343761Y-164742666D01*
X147296142Y-164790285D01*
X147200904Y-164837904D01*
X146962809Y-164837904D01*
X146867571Y-164790285D01*
X146819952Y-164742666D01*
X146772333Y-164647428D01*
X146772333Y-164456952D01*
X146819952Y-164361714D01*
X146867571Y-164314095D01*
X146962809Y-164266476D01*
X138681380Y-109339142D02*
X138205190Y-109005809D01*
X138681380Y-108767714D02*
X137681380Y-108767714D01*
X137681380Y-109148666D01*
X137729000Y-109243904D01*
X137776619Y-109291523D01*
X137871857Y-109339142D01*
X138014714Y-109339142D01*
X138109952Y-109291523D01*
X138157571Y-109243904D01*
X138205190Y-109148666D01*
X138205190Y-108767714D01*
X137776619Y-109720095D02*
X137729000Y-109767714D01*
X137681380Y-109862952D01*
X137681380Y-110101047D01*
X137729000Y-110196285D01*
X137776619Y-110243904D01*
X137871857Y-110291523D01*
X137967095Y-110291523D01*
X138109952Y-110243904D01*
X138681380Y-109672476D01*
X138681380Y-110291523D01*
X137681380Y-110624857D02*
X137681380Y-111291523D01*
X138681380Y-110862952D01*
X121864380Y-107053142D02*
X121388190Y-106719809D01*
X121864380Y-106481714D02*
X120864380Y-106481714D01*
X120864380Y-106862666D01*
X120912000Y-106957904D01*
X120959619Y-107005523D01*
X121054857Y-107053142D01*
X121197714Y-107053142D01*
X121292952Y-107005523D01*
X121340571Y-106957904D01*
X121388190Y-106862666D01*
X121388190Y-106481714D01*
X120959619Y-107434095D02*
X120912000Y-107481714D01*
X120864380Y-107576952D01*
X120864380Y-107815047D01*
X120912000Y-107910285D01*
X120959619Y-107957904D01*
X121054857Y-108005523D01*
X121150095Y-108005523D01*
X121292952Y-107957904D01*
X121864380Y-107386476D01*
X121864380Y-108005523D01*
X121864380Y-108481714D02*
X121864380Y-108672190D01*
X121816761Y-108767428D01*
X121769142Y-108815047D01*
X121626285Y-108910285D01*
X121435809Y-108957904D01*
X121054857Y-108957904D01*
X120959619Y-108910285D01*
X120912000Y-108862666D01*
X120864380Y-108767428D01*
X120864380Y-108576952D01*
X120912000Y-108481714D01*
X120959619Y-108434095D01*
X121054857Y-108386476D01*
X121292952Y-108386476D01*
X121388190Y-108434095D01*
X121435809Y-108481714D01*
X121483428Y-108576952D01*
X121483428Y-108767428D01*
X121435809Y-108862666D01*
X121388190Y-108910285D01*
X121292952Y-108957904D01*
M02*
