G04 #@! TF.GenerationSoftware,KiCad,Pcbnew,(5.1.4)-1*
G04 #@! TF.CreationDate,2019-12-31T17:22:25-06:00*
G04 #@! TF.ProjectId,cutdown_power,63757464-6f77-46e5-9f70-6f7765722e6b,rev?*
G04 #@! TF.SameCoordinates,Original*
G04 #@! TF.FileFunction,Legend,Bot*
G04 #@! TF.FilePolarity,Positive*
%FSLAX46Y46*%
G04 Gerber Fmt 4.6, Leading zero omitted, Abs format (unit mm)*
G04 Created by KiCad (PCBNEW (5.1.4)-1) date 2019-12-31 17:22:25*
%MOMM*%
%LPD*%
G04 APERTURE LIST*
%ADD10C,0.150000*%
G04 APERTURE END LIST*
D10*
X181300380Y-115030666D02*
X180300380Y-115030666D01*
X180776571Y-115030666D02*
X180776571Y-115602095D01*
X181300380Y-115602095D02*
X180300380Y-115602095D01*
X180300380Y-116268761D02*
X180300380Y-116459238D01*
X180348000Y-116554476D01*
X180443238Y-116649714D01*
X180633714Y-116697333D01*
X180967047Y-116697333D01*
X181157523Y-116649714D01*
X181252761Y-116554476D01*
X181300380Y-116459238D01*
X181300380Y-116268761D01*
X181252761Y-116173523D01*
X181157523Y-116078285D01*
X180967047Y-116030666D01*
X180633714Y-116030666D01*
X180443238Y-116078285D01*
X180348000Y-116173523D01*
X180300380Y-116268761D01*
X180300380Y-116983047D02*
X180300380Y-117554476D01*
X181300380Y-117268761D02*
X180300380Y-117268761D01*
X180300380Y-118554476D02*
X181300380Y-118792571D01*
X180586095Y-118983047D01*
X181300380Y-119173523D01*
X180300380Y-119411619D01*
X181300380Y-119792571D02*
X180300380Y-119792571D01*
X181300380Y-120840190D02*
X180824190Y-120506857D01*
X181300380Y-120268761D02*
X180300380Y-120268761D01*
X180300380Y-120649714D01*
X180348000Y-120744952D01*
X180395619Y-120792571D01*
X180490857Y-120840190D01*
X180633714Y-120840190D01*
X180728952Y-120792571D01*
X180776571Y-120744952D01*
X180824190Y-120649714D01*
X180824190Y-120268761D01*
X180776571Y-121268761D02*
X180776571Y-121602095D01*
X181300380Y-121744952D02*
X181300380Y-121268761D01*
X180300380Y-121268761D01*
X180300380Y-121744952D01*
X181967047Y-97972571D02*
X181824190Y-98020190D01*
X181776571Y-98067809D01*
X181728952Y-98163047D01*
X181728952Y-98305904D01*
X181776571Y-98401142D01*
X181824190Y-98448761D01*
X181919428Y-98496380D01*
X182300380Y-98496380D01*
X182300380Y-97496380D01*
X181967047Y-97496380D01*
X181871809Y-97544000D01*
X181824190Y-97591619D01*
X181776571Y-97686857D01*
X181776571Y-97782095D01*
X181824190Y-97877333D01*
X181871809Y-97924952D01*
X181967047Y-97972571D01*
X182300380Y-97972571D01*
X181348000Y-98210666D02*
X180871809Y-98210666D01*
X181443238Y-98496380D02*
X181109904Y-97496380D01*
X180776571Y-98496380D01*
X180586095Y-97496380D02*
X180014666Y-97496380D01*
X180300380Y-98496380D02*
X180300380Y-97496380D01*
X179824190Y-97496380D02*
X179252761Y-97496380D01*
X179538476Y-98496380D02*
X179538476Y-97496380D01*
X181736904Y-102497000D02*
X181832142Y-102449380D01*
X181975000Y-102449380D01*
X182117857Y-102497000D01*
X182213095Y-102592238D01*
X182260714Y-102687476D01*
X182308333Y-102877952D01*
X182308333Y-103020809D01*
X182260714Y-103211285D01*
X182213095Y-103306523D01*
X182117857Y-103401761D01*
X181975000Y-103449380D01*
X181879761Y-103449380D01*
X181736904Y-103401761D01*
X181689285Y-103354142D01*
X181689285Y-103020809D01*
X181879761Y-103020809D01*
X181260714Y-103449380D02*
X181260714Y-102449380D01*
X180689285Y-103449380D01*
X180689285Y-102449380D01*
X180213095Y-103449380D02*
X180213095Y-102449380D01*
X179975000Y-102449380D01*
X179832142Y-102497000D01*
X179736904Y-102592238D01*
X179689285Y-102687476D01*
X179641666Y-102877952D01*
X179641666Y-103020809D01*
X179689285Y-103211285D01*
X179736904Y-103306523D01*
X179832142Y-103401761D01*
X179975000Y-103449380D01*
X180213095Y-103449380D01*
X175033214Y-90073511D02*
X175335595Y-90073511D01*
X175335595Y-89438511D01*
X174579642Y-90043273D02*
X174640119Y-90073511D01*
X174761071Y-90073511D01*
X174821547Y-90043273D01*
X174851785Y-89982797D01*
X174851785Y-89740892D01*
X174821547Y-89680416D01*
X174761071Y-89650178D01*
X174640119Y-89650178D01*
X174579642Y-89680416D01*
X174549404Y-89740892D01*
X174549404Y-89801369D01*
X174851785Y-89861845D01*
X174035357Y-90043273D02*
X174095833Y-90073511D01*
X174216785Y-90073511D01*
X174277261Y-90043273D01*
X174307500Y-89982797D01*
X174307500Y-89740892D01*
X174277261Y-89680416D01*
X174216785Y-89650178D01*
X174095833Y-89650178D01*
X174035357Y-89680416D01*
X174005119Y-89740892D01*
X174005119Y-89801369D01*
X174307500Y-89861845D01*
X173732976Y-90073511D02*
X173732976Y-89650178D01*
X173732976Y-89710654D02*
X173702738Y-89680416D01*
X173642261Y-89650178D01*
X173551547Y-89650178D01*
X173491071Y-89680416D01*
X173460833Y-89740892D01*
X173460833Y-90073511D01*
X173460833Y-89740892D02*
X173430595Y-89680416D01*
X173370119Y-89650178D01*
X173279404Y-89650178D01*
X173218928Y-89680416D01*
X173188690Y-89740892D01*
X173188690Y-90073511D01*
X172614166Y-90073511D02*
X172614166Y-89740892D01*
X172644404Y-89680416D01*
X172704880Y-89650178D01*
X172825833Y-89650178D01*
X172886309Y-89680416D01*
X172614166Y-90043273D02*
X172674642Y-90073511D01*
X172825833Y-90073511D01*
X172886309Y-90043273D01*
X172916547Y-89982797D01*
X172916547Y-89922321D01*
X172886309Y-89861845D01*
X172825833Y-89831607D01*
X172674642Y-89831607D01*
X172614166Y-89801369D01*
X172311785Y-89650178D02*
X172311785Y-90073511D01*
X172311785Y-89710654D02*
X172281547Y-89680416D01*
X172221071Y-89650178D01*
X172130357Y-89650178D01*
X172069880Y-89680416D01*
X172039642Y-89740892D01*
X172039642Y-90073511D01*
X170920833Y-89468750D02*
X170981309Y-89438511D01*
X171072023Y-89438511D01*
X171162738Y-89468750D01*
X171223214Y-89529226D01*
X171253452Y-89589702D01*
X171283690Y-89710654D01*
X171283690Y-89801369D01*
X171253452Y-89922321D01*
X171223214Y-89982797D01*
X171162738Y-90043273D01*
X171072023Y-90073511D01*
X171011547Y-90073511D01*
X170920833Y-90043273D01*
X170890595Y-90013035D01*
X170890595Y-89801369D01*
X171011547Y-89801369D01*
X170376547Y-90043273D02*
X170437023Y-90073511D01*
X170557976Y-90073511D01*
X170618452Y-90043273D01*
X170648690Y-89982797D01*
X170648690Y-89740892D01*
X170618452Y-89680416D01*
X170557976Y-89650178D01*
X170437023Y-89650178D01*
X170376547Y-89680416D01*
X170346309Y-89740892D01*
X170346309Y-89801369D01*
X170648690Y-89861845D01*
X169983452Y-90073511D02*
X170043928Y-90043273D01*
X170074166Y-90013035D01*
X170104404Y-89952559D01*
X170104404Y-89771130D01*
X170074166Y-89710654D01*
X170043928Y-89680416D01*
X169983452Y-89650178D01*
X169892738Y-89650178D01*
X169832261Y-89680416D01*
X169802023Y-89710654D01*
X169771785Y-89771130D01*
X169771785Y-89952559D01*
X169802023Y-90013035D01*
X169832261Y-90043273D01*
X169892738Y-90073511D01*
X169983452Y-90073511D01*
X169499642Y-89650178D02*
X169499642Y-90285178D01*
X169499642Y-89680416D02*
X169439166Y-89650178D01*
X169318214Y-89650178D01*
X169257738Y-89680416D01*
X169227500Y-89710654D01*
X169197261Y-89771130D01*
X169197261Y-89952559D01*
X169227500Y-90013035D01*
X169257738Y-90043273D01*
X169318214Y-90073511D01*
X169439166Y-90073511D01*
X169499642Y-90043273D01*
X168925119Y-90073511D02*
X168925119Y-89438511D01*
X168652976Y-90073511D02*
X168652976Y-89740892D01*
X168683214Y-89680416D01*
X168743690Y-89650178D01*
X168834404Y-89650178D01*
X168894880Y-89680416D01*
X168925119Y-89710654D01*
X168411071Y-89650178D02*
X168259880Y-90073511D01*
X168108690Y-89650178D02*
X168259880Y-90073511D01*
X168320357Y-90224702D01*
X168350595Y-90254940D01*
X168411071Y-90285178D01*
X167897023Y-90043273D02*
X167836547Y-90073511D01*
X167715595Y-90073511D01*
X167655119Y-90043273D01*
X167624880Y-89982797D01*
X167624880Y-89952559D01*
X167655119Y-89892083D01*
X167715595Y-89861845D01*
X167806309Y-89861845D01*
X167866785Y-89831607D01*
X167897023Y-89771130D01*
X167897023Y-89740892D01*
X167866785Y-89680416D01*
X167806309Y-89650178D01*
X167715595Y-89650178D01*
X167655119Y-89680416D01*
X167352738Y-90073511D02*
X167352738Y-89650178D01*
X167352738Y-89438511D02*
X167382976Y-89468750D01*
X167352738Y-89498988D01*
X167322500Y-89468750D01*
X167352738Y-89438511D01*
X167352738Y-89498988D01*
X166778214Y-90043273D02*
X166838690Y-90073511D01*
X166959642Y-90073511D01*
X167020119Y-90043273D01*
X167050357Y-90013035D01*
X167080595Y-89952559D01*
X167080595Y-89771130D01*
X167050357Y-89710654D01*
X167020119Y-89680416D01*
X166959642Y-89650178D01*
X166838690Y-89650178D01*
X166778214Y-89680416D01*
X166233928Y-90073511D02*
X166233928Y-89740892D01*
X166264166Y-89680416D01*
X166324642Y-89650178D01*
X166445595Y-89650178D01*
X166506071Y-89680416D01*
X166233928Y-90043273D02*
X166294404Y-90073511D01*
X166445595Y-90073511D01*
X166506071Y-90043273D01*
X166536309Y-89982797D01*
X166536309Y-89922321D01*
X166506071Y-89861845D01*
X166445595Y-89831607D01*
X166294404Y-89831607D01*
X166233928Y-89801369D01*
X165840833Y-90073511D02*
X165901309Y-90043273D01*
X165931547Y-89982797D01*
X165931547Y-89438511D01*
X164812738Y-90073511D02*
X165115119Y-90073511D01*
X165115119Y-89438511D01*
X164298690Y-90073511D02*
X164601071Y-90073511D01*
X164601071Y-89438511D01*
X163724166Y-90013035D02*
X163754404Y-90043273D01*
X163845119Y-90073511D01*
X163905595Y-90073511D01*
X163996309Y-90043273D01*
X164056785Y-89982797D01*
X164087023Y-89922321D01*
X164117261Y-89801369D01*
X164117261Y-89710654D01*
X164087023Y-89589702D01*
X164056785Y-89529226D01*
X163996309Y-89468750D01*
X163905595Y-89438511D01*
X163845119Y-89438511D01*
X163754404Y-89468750D01*
X163724166Y-89498988D01*
X174564523Y-91115535D02*
X174594761Y-91145773D01*
X174685476Y-91176011D01*
X174745952Y-91176011D01*
X174836666Y-91145773D01*
X174897142Y-91085297D01*
X174927380Y-91024821D01*
X174957619Y-90903869D01*
X174957619Y-90813154D01*
X174927380Y-90692202D01*
X174897142Y-90631726D01*
X174836666Y-90571250D01*
X174745952Y-90541011D01*
X174685476Y-90541011D01*
X174594761Y-90571250D01*
X174564523Y-90601488D01*
X174020238Y-90752678D02*
X174020238Y-91176011D01*
X174292380Y-90752678D02*
X174292380Y-91085297D01*
X174262142Y-91145773D01*
X174201666Y-91176011D01*
X174110952Y-91176011D01*
X174050476Y-91145773D01*
X174020238Y-91115535D01*
X173808571Y-90752678D02*
X173566666Y-90752678D01*
X173717857Y-90541011D02*
X173717857Y-91085297D01*
X173687619Y-91145773D01*
X173627142Y-91176011D01*
X173566666Y-91176011D01*
X173082857Y-91176011D02*
X173082857Y-90541011D01*
X173082857Y-91145773D02*
X173143333Y-91176011D01*
X173264285Y-91176011D01*
X173324761Y-91145773D01*
X173355000Y-91115535D01*
X173385238Y-91055059D01*
X173385238Y-90873630D01*
X173355000Y-90813154D01*
X173324761Y-90782916D01*
X173264285Y-90752678D01*
X173143333Y-90752678D01*
X173082857Y-90782916D01*
X172689761Y-91176011D02*
X172750238Y-91145773D01*
X172780476Y-91115535D01*
X172810714Y-91055059D01*
X172810714Y-90873630D01*
X172780476Y-90813154D01*
X172750238Y-90782916D01*
X172689761Y-90752678D01*
X172599047Y-90752678D01*
X172538571Y-90782916D01*
X172508333Y-90813154D01*
X172478095Y-90873630D01*
X172478095Y-91055059D01*
X172508333Y-91115535D01*
X172538571Y-91145773D01*
X172599047Y-91176011D01*
X172689761Y-91176011D01*
X172266428Y-90752678D02*
X172145476Y-91176011D01*
X172024523Y-90873630D01*
X171903571Y-91176011D01*
X171782619Y-90752678D01*
X171540714Y-90752678D02*
X171540714Y-91176011D01*
X171540714Y-90813154D02*
X171510476Y-90782916D01*
X171450000Y-90752678D01*
X171359285Y-90752678D01*
X171298809Y-90782916D01*
X171268571Y-90843392D01*
X171268571Y-91176011D01*
X170482380Y-91176011D02*
X170482380Y-90541011D01*
X170240476Y-90541011D01*
X170180000Y-90571250D01*
X170149761Y-90601488D01*
X170119523Y-90661964D01*
X170119523Y-90752678D01*
X170149761Y-90813154D01*
X170180000Y-90843392D01*
X170240476Y-90873630D01*
X170482380Y-90873630D01*
X169756666Y-91176011D02*
X169817142Y-91145773D01*
X169847380Y-91115535D01*
X169877619Y-91055059D01*
X169877619Y-90873630D01*
X169847380Y-90813154D01*
X169817142Y-90782916D01*
X169756666Y-90752678D01*
X169665952Y-90752678D01*
X169605476Y-90782916D01*
X169575238Y-90813154D01*
X169545000Y-90873630D01*
X169545000Y-91055059D01*
X169575238Y-91115535D01*
X169605476Y-91145773D01*
X169665952Y-91176011D01*
X169756666Y-91176011D01*
X169333333Y-90752678D02*
X169212380Y-91176011D01*
X169091428Y-90873630D01*
X168970476Y-91176011D01*
X168849523Y-90752678D01*
X168365714Y-91145773D02*
X168426190Y-91176011D01*
X168547142Y-91176011D01*
X168607619Y-91145773D01*
X168637857Y-91085297D01*
X168637857Y-90843392D01*
X168607619Y-90782916D01*
X168547142Y-90752678D01*
X168426190Y-90752678D01*
X168365714Y-90782916D01*
X168335476Y-90843392D01*
X168335476Y-90903869D01*
X168637857Y-90964345D01*
X168063333Y-91176011D02*
X168063333Y-90752678D01*
X168063333Y-90873630D02*
X168033095Y-90813154D01*
X168002857Y-90782916D01*
X167942380Y-90752678D01*
X167881904Y-90752678D01*
X167186428Y-91176011D02*
X167186428Y-90541011D01*
X166974761Y-90994583D01*
X166763095Y-90541011D01*
X166763095Y-91176011D01*
X166370000Y-91176011D02*
X166430476Y-91145773D01*
X166460714Y-91115535D01*
X166490952Y-91055059D01*
X166490952Y-90873630D01*
X166460714Y-90813154D01*
X166430476Y-90782916D01*
X166370000Y-90752678D01*
X166279285Y-90752678D01*
X166218809Y-90782916D01*
X166188571Y-90813154D01*
X166158333Y-90873630D01*
X166158333Y-91055059D01*
X166188571Y-91115535D01*
X166218809Y-91145773D01*
X166279285Y-91176011D01*
X166370000Y-91176011D01*
X165614047Y-91176011D02*
X165614047Y-90541011D01*
X165614047Y-91145773D02*
X165674523Y-91176011D01*
X165795476Y-91176011D01*
X165855952Y-91145773D01*
X165886190Y-91115535D01*
X165916428Y-91055059D01*
X165916428Y-90873630D01*
X165886190Y-90813154D01*
X165855952Y-90782916D01*
X165795476Y-90752678D01*
X165674523Y-90752678D01*
X165614047Y-90782916D01*
X165039523Y-90752678D02*
X165039523Y-91176011D01*
X165311666Y-90752678D02*
X165311666Y-91085297D01*
X165281428Y-91145773D01*
X165220952Y-91176011D01*
X165130238Y-91176011D01*
X165069761Y-91145773D01*
X165039523Y-91115535D01*
X164646428Y-91176011D02*
X164706904Y-91145773D01*
X164737142Y-91085297D01*
X164737142Y-90541011D01*
X164162619Y-91145773D02*
X164223095Y-91176011D01*
X164344047Y-91176011D01*
X164404523Y-91145773D01*
X164434761Y-91085297D01*
X164434761Y-90843392D01*
X164404523Y-90782916D01*
X164344047Y-90752678D01*
X164223095Y-90752678D01*
X164162619Y-90782916D01*
X164132380Y-90843392D01*
X164132380Y-90903869D01*
X164434761Y-90964345D01*
X174866904Y-92278511D02*
X175078571Y-91976130D01*
X175229761Y-92278511D02*
X175229761Y-91643511D01*
X174987857Y-91643511D01*
X174927380Y-91673750D01*
X174897142Y-91703988D01*
X174866904Y-91764464D01*
X174866904Y-91855178D01*
X174897142Y-91915654D01*
X174927380Y-91945892D01*
X174987857Y-91976130D01*
X175229761Y-91976130D01*
X174352857Y-92248273D02*
X174413333Y-92278511D01*
X174534285Y-92278511D01*
X174594761Y-92248273D01*
X174625000Y-92187797D01*
X174625000Y-91945892D01*
X174594761Y-91885416D01*
X174534285Y-91855178D01*
X174413333Y-91855178D01*
X174352857Y-91885416D01*
X174322619Y-91945892D01*
X174322619Y-92006369D01*
X174625000Y-92066845D01*
X174110952Y-91855178D02*
X173959761Y-92278511D01*
X173808571Y-91855178D01*
X172750238Y-92278511D02*
X173113095Y-92278511D01*
X172931666Y-92278511D02*
X172931666Y-91643511D01*
X172992142Y-91734226D01*
X173052619Y-91794702D01*
X173113095Y-91824940D01*
X172478095Y-92218035D02*
X172447857Y-92248273D01*
X172478095Y-92278511D01*
X172508333Y-92248273D01*
X172478095Y-92218035D01*
X172478095Y-92278511D01*
X171843095Y-92278511D02*
X172205952Y-92278511D01*
X172024523Y-92278511D02*
X172024523Y-91643511D01*
X172085000Y-91734226D01*
X172145476Y-91794702D01*
X172205952Y-91824940D01*
X171087142Y-92278511D02*
X171087142Y-91643511D01*
X170935952Y-91643511D01*
X170845238Y-91673750D01*
X170784761Y-91734226D01*
X170754523Y-91794702D01*
X170724285Y-91915654D01*
X170724285Y-92006369D01*
X170754523Y-92127321D01*
X170784761Y-92187797D01*
X170845238Y-92248273D01*
X170935952Y-92278511D01*
X171087142Y-92278511D01*
X170210238Y-92248273D02*
X170270714Y-92278511D01*
X170391666Y-92278511D01*
X170452142Y-92248273D01*
X170482380Y-92187797D01*
X170482380Y-91945892D01*
X170452142Y-91885416D01*
X170391666Y-91855178D01*
X170270714Y-91855178D01*
X170210238Y-91885416D01*
X170180000Y-91945892D01*
X170180000Y-92006369D01*
X170482380Y-92066845D01*
X169635714Y-92248273D02*
X169696190Y-92278511D01*
X169817142Y-92278511D01*
X169877619Y-92248273D01*
X169907857Y-92218035D01*
X169938095Y-92157559D01*
X169938095Y-91976130D01*
X169907857Y-91915654D01*
X169877619Y-91885416D01*
X169817142Y-91855178D01*
X169696190Y-91855178D01*
X169635714Y-91885416D01*
X169121666Y-92248273D02*
X169182142Y-92278511D01*
X169303095Y-92278511D01*
X169363571Y-92248273D01*
X169393809Y-92187797D01*
X169393809Y-91945892D01*
X169363571Y-91885416D01*
X169303095Y-91855178D01*
X169182142Y-91855178D01*
X169121666Y-91885416D01*
X169091428Y-91945892D01*
X169091428Y-92006369D01*
X169393809Y-92066845D01*
X168819285Y-92278511D02*
X168819285Y-91855178D01*
X168819285Y-91915654D02*
X168789047Y-91885416D01*
X168728571Y-91855178D01*
X168637857Y-91855178D01*
X168577380Y-91885416D01*
X168547142Y-91945892D01*
X168547142Y-92278511D01*
X168547142Y-91945892D02*
X168516904Y-91885416D01*
X168456428Y-91855178D01*
X168365714Y-91855178D01*
X168305238Y-91885416D01*
X168275000Y-91945892D01*
X168275000Y-92278511D01*
X167972619Y-92278511D02*
X167972619Y-91643511D01*
X167972619Y-91885416D02*
X167912142Y-91855178D01*
X167791190Y-91855178D01*
X167730714Y-91885416D01*
X167700476Y-91915654D01*
X167670238Y-91976130D01*
X167670238Y-92157559D01*
X167700476Y-92218035D01*
X167730714Y-92248273D01*
X167791190Y-92278511D01*
X167912142Y-92278511D01*
X167972619Y-92248273D01*
X167156190Y-92248273D02*
X167216666Y-92278511D01*
X167337619Y-92278511D01*
X167398095Y-92248273D01*
X167428333Y-92187797D01*
X167428333Y-91945892D01*
X167398095Y-91885416D01*
X167337619Y-91855178D01*
X167216666Y-91855178D01*
X167156190Y-91885416D01*
X167125952Y-91945892D01*
X167125952Y-92006369D01*
X167428333Y-92066845D01*
X166853809Y-92278511D02*
X166853809Y-91855178D01*
X166853809Y-91976130D02*
X166823571Y-91915654D01*
X166793333Y-91885416D01*
X166732857Y-91855178D01*
X166672380Y-91855178D01*
X166007142Y-91703988D02*
X165976904Y-91673750D01*
X165916428Y-91643511D01*
X165765238Y-91643511D01*
X165704761Y-91673750D01*
X165674523Y-91703988D01*
X165644285Y-91764464D01*
X165644285Y-91824940D01*
X165674523Y-91915654D01*
X166037380Y-92278511D01*
X165644285Y-92278511D01*
X165251190Y-91643511D02*
X165190714Y-91643511D01*
X165130238Y-91673750D01*
X165100000Y-91703988D01*
X165069761Y-91764464D01*
X165039523Y-91885416D01*
X165039523Y-92036607D01*
X165069761Y-92157559D01*
X165100000Y-92218035D01*
X165130238Y-92248273D01*
X165190714Y-92278511D01*
X165251190Y-92278511D01*
X165311666Y-92248273D01*
X165341904Y-92218035D01*
X165372142Y-92157559D01*
X165402380Y-92036607D01*
X165402380Y-91885416D01*
X165372142Y-91764464D01*
X165341904Y-91703988D01*
X165311666Y-91673750D01*
X165251190Y-91643511D01*
X164434761Y-92278511D02*
X164797619Y-92278511D01*
X164616190Y-92278511D02*
X164616190Y-91643511D01*
X164676666Y-91734226D01*
X164737142Y-91794702D01*
X164797619Y-91824940D01*
X164132380Y-92278511D02*
X164011428Y-92278511D01*
X163950952Y-92248273D01*
X163920714Y-92218035D01*
X163860238Y-92127321D01*
X163830000Y-92006369D01*
X163830000Y-91764464D01*
X163860238Y-91703988D01*
X163890476Y-91673750D01*
X163950952Y-91643511D01*
X164071904Y-91643511D01*
X164132380Y-91673750D01*
X164162619Y-91703988D01*
X164192857Y-91764464D01*
X164192857Y-91915654D01*
X164162619Y-91976130D01*
X164132380Y-92006369D01*
X164071904Y-92036607D01*
X163950952Y-92036607D01*
X163890476Y-92006369D01*
X163860238Y-91976130D01*
X163830000Y-91915654D01*
X173430595Y-93381011D02*
X173430595Y-92746011D01*
X173188690Y-92746011D01*
X173128214Y-92776250D01*
X173097976Y-92806488D01*
X173067738Y-92866964D01*
X173067738Y-92957678D01*
X173097976Y-93018154D01*
X173128214Y-93048392D01*
X173188690Y-93078630D01*
X173430595Y-93078630D01*
X172342023Y-92715773D02*
X172886309Y-93532202D01*
X172130357Y-93381011D02*
X172130357Y-92746011D01*
X171767500Y-93381011D01*
X171767500Y-92746011D01*
X171041785Y-92746011D02*
X170648690Y-92746011D01*
X170860357Y-92987916D01*
X170769642Y-92987916D01*
X170709166Y-93018154D01*
X170678928Y-93048392D01*
X170648690Y-93108869D01*
X170648690Y-93260059D01*
X170678928Y-93320535D01*
X170709166Y-93350773D01*
X170769642Y-93381011D01*
X170951071Y-93381011D01*
X171011547Y-93350773D01*
X171041785Y-93320535D01*
X170376547Y-93139107D02*
X169892738Y-93139107D01*
X169469404Y-92746011D02*
X169408928Y-92746011D01*
X169348452Y-92776250D01*
X169318214Y-92806488D01*
X169287976Y-92866964D01*
X169257738Y-92987916D01*
X169257738Y-93139107D01*
X169287976Y-93260059D01*
X169318214Y-93320535D01*
X169348452Y-93350773D01*
X169408928Y-93381011D01*
X169469404Y-93381011D01*
X169529880Y-93350773D01*
X169560119Y-93320535D01*
X169590357Y-93260059D01*
X169620595Y-93139107D01*
X169620595Y-92987916D01*
X169590357Y-92866964D01*
X169560119Y-92806488D01*
X169529880Y-92776250D01*
X169469404Y-92746011D01*
X168864642Y-92746011D02*
X168804166Y-92746011D01*
X168743690Y-92776250D01*
X168713452Y-92806488D01*
X168683214Y-92866964D01*
X168652976Y-92987916D01*
X168652976Y-93139107D01*
X168683214Y-93260059D01*
X168713452Y-93320535D01*
X168743690Y-93350773D01*
X168804166Y-93381011D01*
X168864642Y-93381011D01*
X168925119Y-93350773D01*
X168955357Y-93320535D01*
X168985595Y-93260059D01*
X169015833Y-93139107D01*
X169015833Y-92987916D01*
X168985595Y-92866964D01*
X168955357Y-92806488D01*
X168925119Y-92776250D01*
X168864642Y-92746011D01*
X168259880Y-92746011D02*
X168199404Y-92746011D01*
X168138928Y-92776250D01*
X168108690Y-92806488D01*
X168078452Y-92866964D01*
X168048214Y-92987916D01*
X168048214Y-93139107D01*
X168078452Y-93260059D01*
X168108690Y-93320535D01*
X168138928Y-93350773D01*
X168199404Y-93381011D01*
X168259880Y-93381011D01*
X168320357Y-93350773D01*
X168350595Y-93320535D01*
X168380833Y-93260059D01*
X168411071Y-93139107D01*
X168411071Y-92987916D01*
X168380833Y-92866964D01*
X168350595Y-92806488D01*
X168320357Y-92776250D01*
X168259880Y-92746011D01*
X167655119Y-92746011D02*
X167594642Y-92746011D01*
X167534166Y-92776250D01*
X167503928Y-92806488D01*
X167473690Y-92866964D01*
X167443452Y-92987916D01*
X167443452Y-93139107D01*
X167473690Y-93260059D01*
X167503928Y-93320535D01*
X167534166Y-93350773D01*
X167594642Y-93381011D01*
X167655119Y-93381011D01*
X167715595Y-93350773D01*
X167745833Y-93320535D01*
X167776071Y-93260059D01*
X167806309Y-93139107D01*
X167806309Y-92987916D01*
X167776071Y-92866964D01*
X167745833Y-92806488D01*
X167715595Y-92776250D01*
X167655119Y-92746011D01*
X167050357Y-92746011D02*
X166989880Y-92746011D01*
X166929404Y-92776250D01*
X166899166Y-92806488D01*
X166868928Y-92866964D01*
X166838690Y-92987916D01*
X166838690Y-93139107D01*
X166868928Y-93260059D01*
X166899166Y-93320535D01*
X166929404Y-93350773D01*
X166989880Y-93381011D01*
X167050357Y-93381011D01*
X167110833Y-93350773D01*
X167141071Y-93320535D01*
X167171309Y-93260059D01*
X167201547Y-93139107D01*
X167201547Y-92987916D01*
X167171309Y-92866964D01*
X167141071Y-92806488D01*
X167110833Y-92776250D01*
X167050357Y-92746011D01*
X166596785Y-92806488D02*
X166566547Y-92776250D01*
X166506071Y-92746011D01*
X166354880Y-92746011D01*
X166294404Y-92776250D01*
X166264166Y-92806488D01*
X166233928Y-92866964D01*
X166233928Y-92927440D01*
X166264166Y-93018154D01*
X166627023Y-93381011D01*
X166233928Y-93381011D01*
X165689642Y-92746011D02*
X165810595Y-92746011D01*
X165871071Y-92776250D01*
X165901309Y-92806488D01*
X165961785Y-92897202D01*
X165992023Y-93018154D01*
X165992023Y-93260059D01*
X165961785Y-93320535D01*
X165931547Y-93350773D01*
X165871071Y-93381011D01*
X165750119Y-93381011D01*
X165689642Y-93350773D01*
X165659404Y-93320535D01*
X165629166Y-93260059D01*
X165629166Y-93108869D01*
X165659404Y-93048392D01*
X165689642Y-93018154D01*
X165750119Y-92987916D01*
X165871071Y-92987916D01*
X165931547Y-93018154D01*
X165961785Y-93048392D01*
X165992023Y-93108869D01*
X163163190Y-118721142D02*
X163210809Y-118768761D01*
X163353666Y-118816380D01*
X163448904Y-118816380D01*
X163591761Y-118768761D01*
X163687000Y-118673523D01*
X163734619Y-118578285D01*
X163782238Y-118387809D01*
X163782238Y-118244952D01*
X163734619Y-118054476D01*
X163687000Y-117959238D01*
X163591761Y-117864000D01*
X163448904Y-117816380D01*
X163353666Y-117816380D01*
X163210809Y-117864000D01*
X163163190Y-117911619D01*
X162877476Y-117816380D02*
X162306047Y-117816380D01*
X162591761Y-118816380D02*
X162591761Y-117816380D01*
X161496523Y-118816380D02*
X161972714Y-118816380D01*
X161972714Y-117816380D01*
X163575904Y-120404000D02*
X163671142Y-120356380D01*
X163814000Y-120356380D01*
X163956857Y-120404000D01*
X164052095Y-120499238D01*
X164099714Y-120594476D01*
X164147333Y-120784952D01*
X164147333Y-120927809D01*
X164099714Y-121118285D01*
X164052095Y-121213523D01*
X163956857Y-121308761D01*
X163814000Y-121356380D01*
X163718761Y-121356380D01*
X163575904Y-121308761D01*
X163528285Y-121261142D01*
X163528285Y-120927809D01*
X163718761Y-120927809D01*
X163099714Y-121356380D02*
X163099714Y-120356380D01*
X162528285Y-121356380D01*
X162528285Y-120356380D01*
X162052095Y-121356380D02*
X162052095Y-120356380D01*
X161814000Y-120356380D01*
X161671142Y-120404000D01*
X161575904Y-120499238D01*
X161528285Y-120594476D01*
X161480666Y-120784952D01*
X161480666Y-120927809D01*
X161528285Y-121118285D01*
X161575904Y-121213523D01*
X161671142Y-121308761D01*
X161814000Y-121356380D01*
X162052095Y-121356380D01*
M02*
