G04 #@! TF.GenerationSoftware,KiCad,Pcbnew,(5.1.4)-1*
G04 #@! TF.CreationDate,2019-12-03T13:15:03-06:00*
G04 #@! TF.ProjectId,cutdown_power,63757464-6f77-46e5-9f70-6f7765722e6b,rev?*
G04 #@! TF.SameCoordinates,Original*
G04 #@! TF.FileFunction,Copper,L1,Top*
G04 #@! TF.FilePolarity,Positive*
%FSLAX46Y46*%
G04 Gerber Fmt 4.6, Leading zero omitted, Abs format (unit mm)*
G04 Created by KiCad (PCBNEW (5.1.4)-1) date 2019-12-03 13:15:03*
%MOMM*%
%LPD*%
G04 APERTURE LIST*
%ADD10O,1.700000X1.700000*%
%ADD11R,1.700000X1.700000*%
%ADD12C,1.800000*%
%ADD13O,1.800000X1.800000*%
%ADD14R,1.800000X1.800000*%
%ADD15R,0.900000X1.200000*%
%ADD16C,1.270000*%
%ADD17C,2.540000*%
%ADD18C,0.254000*%
G04 APERTURE END LIST*
D10*
X159258000Y-120904000D03*
D11*
X159258000Y-118364000D03*
D12*
X175347000Y-120864000D03*
X170347000Y-118364000D03*
X175347000Y-115864000D03*
X170347000Y-113364000D03*
D13*
X162478999Y-104013000D03*
X162478999Y-101473000D03*
D14*
X162478999Y-98933000D03*
D15*
X157226000Y-103843000D03*
X157226000Y-101643000D03*
X159004000Y-101643000D03*
X159004000Y-103843000D03*
D12*
X175347000Y-104227000D03*
X170347000Y-101727000D03*
X175347000Y-99227000D03*
X170347000Y-96727000D03*
D16*
X157226000Y-116332000D02*
X159258000Y-118364000D01*
X157226000Y-103843000D02*
X157226000Y-116332000D01*
D17*
X170347000Y-112091208D02*
X170347000Y-113364000D01*
X170347000Y-105903847D02*
X170347000Y-112091208D01*
X163376153Y-98933000D02*
X170347000Y-105903847D01*
X162478999Y-98933000D02*
X163376153Y-98933000D01*
X172847000Y-115864000D02*
X170347000Y-113364000D01*
X175347000Y-115864000D02*
X172847000Y-115864000D01*
D16*
X157226000Y-101643000D02*
X159004000Y-101643000D01*
X162308999Y-101643000D02*
X162478999Y-101473000D01*
X159004000Y-101643000D02*
X162308999Y-101643000D01*
D18*
G36*
X182220001Y-132690000D02*
G01*
X156870000Y-132690000D01*
X156870000Y-129319872D01*
X157785000Y-129319872D01*
X157785000Y-129760128D01*
X157870890Y-130191925D01*
X158039369Y-130598669D01*
X158283962Y-130964729D01*
X158595271Y-131276038D01*
X158961331Y-131520631D01*
X159368075Y-131689110D01*
X159799872Y-131775000D01*
X160240128Y-131775000D01*
X160671925Y-131689110D01*
X161078669Y-131520631D01*
X161444729Y-131276038D01*
X161756038Y-130964729D01*
X162000631Y-130598669D01*
X162169110Y-130191925D01*
X162255000Y-129760128D01*
X162255000Y-129319872D01*
X176835000Y-129319872D01*
X176835000Y-129760128D01*
X176920890Y-130191925D01*
X177089369Y-130598669D01*
X177333962Y-130964729D01*
X177645271Y-131276038D01*
X178011331Y-131520631D01*
X178418075Y-131689110D01*
X178849872Y-131775000D01*
X179290128Y-131775000D01*
X179721925Y-131689110D01*
X180128669Y-131520631D01*
X180494729Y-131276038D01*
X180806038Y-130964729D01*
X181050631Y-130598669D01*
X181219110Y-130191925D01*
X181305000Y-129760128D01*
X181305000Y-129319872D01*
X181219110Y-128888075D01*
X181050631Y-128481331D01*
X180806038Y-128115271D01*
X180494729Y-127803962D01*
X180128669Y-127559369D01*
X179721925Y-127390890D01*
X179290128Y-127305000D01*
X178849872Y-127305000D01*
X178418075Y-127390890D01*
X178011331Y-127559369D01*
X177645271Y-127803962D01*
X177333962Y-128115271D01*
X177089369Y-128481331D01*
X176920890Y-128888075D01*
X176835000Y-129319872D01*
X162255000Y-129319872D01*
X162169110Y-128888075D01*
X162000631Y-128481331D01*
X161756038Y-128115271D01*
X161444729Y-127803962D01*
X161078669Y-127559369D01*
X160671925Y-127390890D01*
X160240128Y-127305000D01*
X159799872Y-127305000D01*
X159368075Y-127390890D01*
X158961331Y-127559369D01*
X158595271Y-127803962D01*
X158283962Y-128115271D01*
X158039369Y-128481331D01*
X157870890Y-128888075D01*
X157785000Y-129319872D01*
X156870000Y-129319872D01*
X156870000Y-121260890D01*
X157816524Y-121260890D01*
X157861175Y-121408099D01*
X157986359Y-121670920D01*
X158160412Y-121904269D01*
X158376645Y-122099178D01*
X158626748Y-122248157D01*
X158901109Y-122345481D01*
X159131000Y-122224814D01*
X159131000Y-121031000D01*
X159385000Y-121031000D01*
X159385000Y-122224814D01*
X159614891Y-122345481D01*
X159889252Y-122248157D01*
X160139355Y-122099178D01*
X160355588Y-121904269D01*
X160529641Y-121670920D01*
X160654825Y-121408099D01*
X160699476Y-121260890D01*
X160578155Y-121031000D01*
X159385000Y-121031000D01*
X159131000Y-121031000D01*
X157937845Y-121031000D01*
X157816524Y-121260890D01*
X156870000Y-121260890D01*
X156870000Y-117772050D01*
X157769928Y-118671979D01*
X157769928Y-119214000D01*
X157782188Y-119338482D01*
X157818498Y-119458180D01*
X157877463Y-119568494D01*
X157956815Y-119665185D01*
X158053506Y-119744537D01*
X158163820Y-119803502D01*
X158244466Y-119827966D01*
X158160412Y-119903731D01*
X157986359Y-120137080D01*
X157861175Y-120399901D01*
X157816524Y-120547110D01*
X157937845Y-120777000D01*
X159131000Y-120777000D01*
X159131000Y-120757000D01*
X159385000Y-120757000D01*
X159385000Y-120777000D01*
X160578155Y-120777000D01*
X160612027Y-120712816D01*
X173812000Y-120712816D01*
X173812000Y-121015184D01*
X173870989Y-121311743D01*
X173986701Y-121591095D01*
X174154688Y-121842505D01*
X174368495Y-122056312D01*
X174619905Y-122224299D01*
X174899257Y-122340011D01*
X175195816Y-122399000D01*
X175498184Y-122399000D01*
X175794743Y-122340011D01*
X176074095Y-122224299D01*
X176325505Y-122056312D01*
X176539312Y-121842505D01*
X176707299Y-121591095D01*
X176823011Y-121311743D01*
X176882000Y-121015184D01*
X176882000Y-120712816D01*
X176823011Y-120416257D01*
X176707299Y-120136905D01*
X176539312Y-119885495D01*
X176325505Y-119671688D01*
X176074095Y-119503701D01*
X175794743Y-119387989D01*
X175498184Y-119329000D01*
X175195816Y-119329000D01*
X174899257Y-119387989D01*
X174619905Y-119503701D01*
X174368495Y-119671688D01*
X174154688Y-119885495D01*
X173986701Y-120136905D01*
X173870989Y-120416257D01*
X173812000Y-120712816D01*
X160612027Y-120712816D01*
X160699476Y-120547110D01*
X160654825Y-120399901D01*
X160529641Y-120137080D01*
X160355588Y-119903731D01*
X160271534Y-119827966D01*
X160352180Y-119803502D01*
X160462494Y-119744537D01*
X160559185Y-119665185D01*
X160638537Y-119568494D01*
X160697502Y-119458180D01*
X160733812Y-119338482D01*
X160746072Y-119214000D01*
X160746072Y-118212816D01*
X168812000Y-118212816D01*
X168812000Y-118515184D01*
X168870989Y-118811743D01*
X168986701Y-119091095D01*
X169154688Y-119342505D01*
X169368495Y-119556312D01*
X169619905Y-119724299D01*
X169899257Y-119840011D01*
X170195816Y-119899000D01*
X170498184Y-119899000D01*
X170794743Y-119840011D01*
X171074095Y-119724299D01*
X171325505Y-119556312D01*
X171539312Y-119342505D01*
X171707299Y-119091095D01*
X171823011Y-118811743D01*
X171882000Y-118515184D01*
X171882000Y-118212816D01*
X171823011Y-117916257D01*
X171707299Y-117636905D01*
X171539312Y-117385495D01*
X171325505Y-117171688D01*
X171074095Y-117003701D01*
X170794743Y-116887989D01*
X170498184Y-116829000D01*
X170195816Y-116829000D01*
X169899257Y-116887989D01*
X169619905Y-117003701D01*
X169368495Y-117171688D01*
X169154688Y-117385495D01*
X168986701Y-117636905D01*
X168870989Y-117916257D01*
X168812000Y-118212816D01*
X160746072Y-118212816D01*
X160746072Y-117514000D01*
X160733812Y-117389518D01*
X160697502Y-117269820D01*
X160638537Y-117159506D01*
X160559185Y-117062815D01*
X160462494Y-116983463D01*
X160352180Y-116924498D01*
X160232482Y-116888188D01*
X160108000Y-116875928D01*
X159565979Y-116875928D01*
X158496000Y-115805950D01*
X158496000Y-105075360D01*
X158554000Y-105081072D01*
X158718250Y-105078000D01*
X158877000Y-104919250D01*
X158877000Y-103970000D01*
X159131000Y-103970000D01*
X159131000Y-104919250D01*
X159289750Y-105078000D01*
X159454000Y-105081072D01*
X159578482Y-105068812D01*
X159698180Y-105032502D01*
X159808494Y-104973537D01*
X159905185Y-104894185D01*
X159984537Y-104797494D01*
X160043502Y-104687180D01*
X160079812Y-104567482D01*
X160092072Y-104443000D01*
X160091435Y-104377741D01*
X160987958Y-104377741D01*
X161087765Y-104661620D01*
X161241037Y-104920573D01*
X161441883Y-105144649D01*
X161682585Y-105325236D01*
X161953892Y-105455394D01*
X162114259Y-105504036D01*
X162351999Y-105383378D01*
X162351999Y-104140000D01*
X162605999Y-104140000D01*
X162605999Y-105383378D01*
X162843739Y-105504036D01*
X163004106Y-105455394D01*
X163275413Y-105325236D01*
X163516115Y-105144649D01*
X163716961Y-104920573D01*
X163870233Y-104661620D01*
X163970040Y-104377741D01*
X163849991Y-104140000D01*
X162605999Y-104140000D01*
X162351999Y-104140000D01*
X161108007Y-104140000D01*
X160987958Y-104377741D01*
X160091435Y-104377741D01*
X160089000Y-104128750D01*
X159930250Y-103970000D01*
X159131000Y-103970000D01*
X158877000Y-103970000D01*
X158857000Y-103970000D01*
X158857000Y-103716000D01*
X158877000Y-103716000D01*
X158877000Y-103696000D01*
X159131000Y-103696000D01*
X159131000Y-103716000D01*
X159930250Y-103716000D01*
X160089000Y-103557250D01*
X160092072Y-103243000D01*
X160079812Y-103118518D01*
X160043502Y-102998820D01*
X159997630Y-102913000D01*
X161413515Y-102913000D01*
X161241037Y-103105427D01*
X161087765Y-103364380D01*
X160987958Y-103648259D01*
X161108007Y-103886000D01*
X162351999Y-103886000D01*
X162351999Y-103866000D01*
X162605999Y-103866000D01*
X162605999Y-103886000D01*
X163849991Y-103886000D01*
X163970040Y-103648259D01*
X163870233Y-103364380D01*
X163716961Y-103105427D01*
X163516115Y-102881351D01*
X163341857Y-102750614D01*
X163569660Y-102563661D01*
X163761480Y-102329927D01*
X163872082Y-102123005D01*
X168442000Y-106692924D01*
X168442001Y-111997617D01*
X168442000Y-111997627D01*
X168442000Y-113270420D01*
X168432783Y-113364000D01*
X168442000Y-113457580D01*
X168442000Y-113457582D01*
X168469564Y-113737445D01*
X168536773Y-113959000D01*
X168578495Y-114096539D01*
X168755387Y-114427482D01*
X168817939Y-114503701D01*
X168993445Y-114717556D01*
X169066140Y-114777215D01*
X171433784Y-117144860D01*
X171493444Y-117217556D01*
X171685319Y-117375023D01*
X171783517Y-117455613D01*
X171885424Y-117510083D01*
X172114461Y-117632506D01*
X172473555Y-117741436D01*
X172753418Y-117769000D01*
X172753420Y-117769000D01*
X172847000Y-117778217D01*
X172940580Y-117769000D01*
X175440582Y-117769000D01*
X175720445Y-117741436D01*
X176079539Y-117632506D01*
X176410482Y-117455613D01*
X176700556Y-117217556D01*
X176938613Y-116927482D01*
X177115506Y-116596539D01*
X177224436Y-116237445D01*
X177261217Y-115864000D01*
X177224436Y-115490555D01*
X177115506Y-115131461D01*
X176938613Y-114800518D01*
X176700556Y-114510444D01*
X176410482Y-114272387D01*
X176079539Y-114095494D01*
X175720445Y-113986564D01*
X175440582Y-113959000D01*
X173636076Y-113959000D01*
X172252000Y-112574925D01*
X172252000Y-105997418D01*
X172261216Y-105903846D01*
X172252000Y-105810274D01*
X172252000Y-105810265D01*
X172224436Y-105530402D01*
X172151839Y-105291080D01*
X174462525Y-105291080D01*
X174546208Y-105545261D01*
X174818775Y-105676158D01*
X175111642Y-105751365D01*
X175413553Y-105767991D01*
X175712907Y-105725397D01*
X175998199Y-105625222D01*
X176147792Y-105545261D01*
X176231475Y-105291080D01*
X175347000Y-104406605D01*
X174462525Y-105291080D01*
X172151839Y-105291080D01*
X172115506Y-105171308D01*
X171938613Y-104840365D01*
X171700556Y-104550291D01*
X171627866Y-104490636D01*
X171430783Y-104293553D01*
X173806009Y-104293553D01*
X173848603Y-104592907D01*
X173948778Y-104878199D01*
X174028739Y-105027792D01*
X174282920Y-105111475D01*
X175167395Y-104227000D01*
X175526605Y-104227000D01*
X176411080Y-105111475D01*
X176665261Y-105027792D01*
X176796158Y-104755225D01*
X176871365Y-104462358D01*
X176887991Y-104160447D01*
X176845397Y-103861093D01*
X176745222Y-103575801D01*
X176665261Y-103426208D01*
X176411080Y-103342525D01*
X175526605Y-104227000D01*
X175167395Y-104227000D01*
X174282920Y-103342525D01*
X174028739Y-103426208D01*
X173897842Y-103698775D01*
X173822635Y-103991642D01*
X173806009Y-104293553D01*
X171430783Y-104293553D01*
X170404735Y-103267505D01*
X170413553Y-103267991D01*
X170712907Y-103225397D01*
X170890837Y-103162920D01*
X174462525Y-103162920D01*
X175347000Y-104047395D01*
X176231475Y-103162920D01*
X176147792Y-102908739D01*
X175875225Y-102777842D01*
X175582358Y-102702635D01*
X175280447Y-102686009D01*
X174981093Y-102728603D01*
X174695801Y-102828778D01*
X174546208Y-102908739D01*
X174462525Y-103162920D01*
X170890837Y-103162920D01*
X170998199Y-103125222D01*
X171147792Y-103045261D01*
X171231475Y-102791080D01*
X170347000Y-101906605D01*
X170332858Y-101920748D01*
X170153253Y-101741143D01*
X170167395Y-101727000D01*
X170526605Y-101727000D01*
X171411080Y-102611475D01*
X171665261Y-102527792D01*
X171796158Y-102255225D01*
X171871365Y-101962358D01*
X171887991Y-101660447D01*
X171845397Y-101361093D01*
X171745222Y-101075801D01*
X171665261Y-100926208D01*
X171411080Y-100842525D01*
X170526605Y-101727000D01*
X170167395Y-101727000D01*
X169282920Y-100842525D01*
X169028739Y-100926208D01*
X168897842Y-101198775D01*
X168822635Y-101491642D01*
X168812522Y-101675292D01*
X167800150Y-100662920D01*
X169462525Y-100662920D01*
X170347000Y-101547395D01*
X171231475Y-100662920D01*
X171147792Y-100408739D01*
X170875225Y-100277842D01*
X170582358Y-100202635D01*
X170280447Y-100186009D01*
X169981093Y-100228603D01*
X169695801Y-100328778D01*
X169546208Y-100408739D01*
X169462525Y-100662920D01*
X167800150Y-100662920D01*
X166213045Y-99075816D01*
X173812000Y-99075816D01*
X173812000Y-99378184D01*
X173870989Y-99674743D01*
X173986701Y-99954095D01*
X174154688Y-100205505D01*
X174368495Y-100419312D01*
X174619905Y-100587299D01*
X174899257Y-100703011D01*
X175195816Y-100762000D01*
X175498184Y-100762000D01*
X175794743Y-100703011D01*
X176074095Y-100587299D01*
X176325505Y-100419312D01*
X176539312Y-100205505D01*
X176707299Y-99954095D01*
X176823011Y-99674743D01*
X176882000Y-99378184D01*
X176882000Y-99075816D01*
X176823011Y-98779257D01*
X176707299Y-98499905D01*
X176539312Y-98248495D01*
X176325505Y-98034688D01*
X176074095Y-97866701D01*
X175794743Y-97750989D01*
X175498184Y-97692000D01*
X175195816Y-97692000D01*
X174899257Y-97750989D01*
X174619905Y-97866701D01*
X174368495Y-98034688D01*
X174154688Y-98248495D01*
X173986701Y-98499905D01*
X173870989Y-98779257D01*
X173812000Y-99075816D01*
X166213045Y-99075816D01*
X164789373Y-97652145D01*
X164729709Y-97579444D01*
X164439635Y-97341387D01*
X164108692Y-97164494D01*
X163749598Y-97055564D01*
X163469735Y-97028000D01*
X163469733Y-97028000D01*
X163376153Y-97018783D01*
X163282573Y-97028000D01*
X162385417Y-97028000D01*
X162105554Y-97055564D01*
X161746460Y-97164494D01*
X161415517Y-97341387D01*
X161125443Y-97579444D01*
X160887386Y-97869518D01*
X160710493Y-98200461D01*
X160601563Y-98559555D01*
X160564782Y-98933000D01*
X160601563Y-99306445D01*
X160710493Y-99665539D01*
X160887386Y-99996482D01*
X161125443Y-100286556D01*
X161230776Y-100373000D01*
X157163620Y-100373000D01*
X156977037Y-100391377D01*
X156932365Y-100404928D01*
X156870000Y-100404928D01*
X156870000Y-96575816D01*
X168812000Y-96575816D01*
X168812000Y-96878184D01*
X168870989Y-97174743D01*
X168986701Y-97454095D01*
X169154688Y-97705505D01*
X169368495Y-97919312D01*
X169619905Y-98087299D01*
X169899257Y-98203011D01*
X170195816Y-98262000D01*
X170498184Y-98262000D01*
X170794743Y-98203011D01*
X171074095Y-98087299D01*
X171325505Y-97919312D01*
X171539312Y-97705505D01*
X171707299Y-97454095D01*
X171823011Y-97174743D01*
X171882000Y-96878184D01*
X171882000Y-96575816D01*
X171823011Y-96279257D01*
X171707299Y-95999905D01*
X171539312Y-95748495D01*
X171325505Y-95534688D01*
X171074095Y-95366701D01*
X170794743Y-95250989D01*
X170498184Y-95192000D01*
X170195816Y-95192000D01*
X169899257Y-95250989D01*
X169619905Y-95366701D01*
X169368495Y-95534688D01*
X169154688Y-95748495D01*
X168986701Y-95999905D01*
X168870989Y-96279257D01*
X168812000Y-96575816D01*
X156870000Y-96575816D01*
X156870000Y-91219872D01*
X157785000Y-91219872D01*
X157785000Y-91660128D01*
X157870890Y-92091925D01*
X158039369Y-92498669D01*
X158283962Y-92864729D01*
X158595271Y-93176038D01*
X158961331Y-93420631D01*
X159368075Y-93589110D01*
X159799872Y-93675000D01*
X160240128Y-93675000D01*
X160671925Y-93589110D01*
X161078669Y-93420631D01*
X161444729Y-93176038D01*
X161756038Y-92864729D01*
X162000631Y-92498669D01*
X162169110Y-92091925D01*
X162255000Y-91660128D01*
X162255000Y-91219872D01*
X176835000Y-91219872D01*
X176835000Y-91660128D01*
X176920890Y-92091925D01*
X177089369Y-92498669D01*
X177333962Y-92864729D01*
X177645271Y-93176038D01*
X178011331Y-93420631D01*
X178418075Y-93589110D01*
X178849872Y-93675000D01*
X179290128Y-93675000D01*
X179721925Y-93589110D01*
X180128669Y-93420631D01*
X180494729Y-93176038D01*
X180806038Y-92864729D01*
X181050631Y-92498669D01*
X181219110Y-92091925D01*
X181305000Y-91660128D01*
X181305000Y-91219872D01*
X181219110Y-90788075D01*
X181050631Y-90381331D01*
X180806038Y-90015271D01*
X180494729Y-89703962D01*
X180128669Y-89459369D01*
X179721925Y-89290890D01*
X179290128Y-89205000D01*
X178849872Y-89205000D01*
X178418075Y-89290890D01*
X178011331Y-89459369D01*
X177645271Y-89703962D01*
X177333962Y-90015271D01*
X177089369Y-90381331D01*
X176920890Y-90788075D01*
X176835000Y-91219872D01*
X162255000Y-91219872D01*
X162169110Y-90788075D01*
X162000631Y-90381331D01*
X161756038Y-90015271D01*
X161444729Y-89703962D01*
X161078669Y-89459369D01*
X160671925Y-89290890D01*
X160240128Y-89205000D01*
X159799872Y-89205000D01*
X159368075Y-89290890D01*
X158961331Y-89459369D01*
X158595271Y-89703962D01*
X158283962Y-90015271D01*
X158039369Y-90381331D01*
X157870890Y-90788075D01*
X157785000Y-91219872D01*
X156870000Y-91219872D01*
X156870000Y-88290000D01*
X182220000Y-88290000D01*
X182220001Y-132690000D01*
X182220001Y-132690000D01*
G37*
X182220001Y-132690000D02*
X156870000Y-132690000D01*
X156870000Y-129319872D01*
X157785000Y-129319872D01*
X157785000Y-129760128D01*
X157870890Y-130191925D01*
X158039369Y-130598669D01*
X158283962Y-130964729D01*
X158595271Y-131276038D01*
X158961331Y-131520631D01*
X159368075Y-131689110D01*
X159799872Y-131775000D01*
X160240128Y-131775000D01*
X160671925Y-131689110D01*
X161078669Y-131520631D01*
X161444729Y-131276038D01*
X161756038Y-130964729D01*
X162000631Y-130598669D01*
X162169110Y-130191925D01*
X162255000Y-129760128D01*
X162255000Y-129319872D01*
X176835000Y-129319872D01*
X176835000Y-129760128D01*
X176920890Y-130191925D01*
X177089369Y-130598669D01*
X177333962Y-130964729D01*
X177645271Y-131276038D01*
X178011331Y-131520631D01*
X178418075Y-131689110D01*
X178849872Y-131775000D01*
X179290128Y-131775000D01*
X179721925Y-131689110D01*
X180128669Y-131520631D01*
X180494729Y-131276038D01*
X180806038Y-130964729D01*
X181050631Y-130598669D01*
X181219110Y-130191925D01*
X181305000Y-129760128D01*
X181305000Y-129319872D01*
X181219110Y-128888075D01*
X181050631Y-128481331D01*
X180806038Y-128115271D01*
X180494729Y-127803962D01*
X180128669Y-127559369D01*
X179721925Y-127390890D01*
X179290128Y-127305000D01*
X178849872Y-127305000D01*
X178418075Y-127390890D01*
X178011331Y-127559369D01*
X177645271Y-127803962D01*
X177333962Y-128115271D01*
X177089369Y-128481331D01*
X176920890Y-128888075D01*
X176835000Y-129319872D01*
X162255000Y-129319872D01*
X162169110Y-128888075D01*
X162000631Y-128481331D01*
X161756038Y-128115271D01*
X161444729Y-127803962D01*
X161078669Y-127559369D01*
X160671925Y-127390890D01*
X160240128Y-127305000D01*
X159799872Y-127305000D01*
X159368075Y-127390890D01*
X158961331Y-127559369D01*
X158595271Y-127803962D01*
X158283962Y-128115271D01*
X158039369Y-128481331D01*
X157870890Y-128888075D01*
X157785000Y-129319872D01*
X156870000Y-129319872D01*
X156870000Y-121260890D01*
X157816524Y-121260890D01*
X157861175Y-121408099D01*
X157986359Y-121670920D01*
X158160412Y-121904269D01*
X158376645Y-122099178D01*
X158626748Y-122248157D01*
X158901109Y-122345481D01*
X159131000Y-122224814D01*
X159131000Y-121031000D01*
X159385000Y-121031000D01*
X159385000Y-122224814D01*
X159614891Y-122345481D01*
X159889252Y-122248157D01*
X160139355Y-122099178D01*
X160355588Y-121904269D01*
X160529641Y-121670920D01*
X160654825Y-121408099D01*
X160699476Y-121260890D01*
X160578155Y-121031000D01*
X159385000Y-121031000D01*
X159131000Y-121031000D01*
X157937845Y-121031000D01*
X157816524Y-121260890D01*
X156870000Y-121260890D01*
X156870000Y-117772050D01*
X157769928Y-118671979D01*
X157769928Y-119214000D01*
X157782188Y-119338482D01*
X157818498Y-119458180D01*
X157877463Y-119568494D01*
X157956815Y-119665185D01*
X158053506Y-119744537D01*
X158163820Y-119803502D01*
X158244466Y-119827966D01*
X158160412Y-119903731D01*
X157986359Y-120137080D01*
X157861175Y-120399901D01*
X157816524Y-120547110D01*
X157937845Y-120777000D01*
X159131000Y-120777000D01*
X159131000Y-120757000D01*
X159385000Y-120757000D01*
X159385000Y-120777000D01*
X160578155Y-120777000D01*
X160612027Y-120712816D01*
X173812000Y-120712816D01*
X173812000Y-121015184D01*
X173870989Y-121311743D01*
X173986701Y-121591095D01*
X174154688Y-121842505D01*
X174368495Y-122056312D01*
X174619905Y-122224299D01*
X174899257Y-122340011D01*
X175195816Y-122399000D01*
X175498184Y-122399000D01*
X175794743Y-122340011D01*
X176074095Y-122224299D01*
X176325505Y-122056312D01*
X176539312Y-121842505D01*
X176707299Y-121591095D01*
X176823011Y-121311743D01*
X176882000Y-121015184D01*
X176882000Y-120712816D01*
X176823011Y-120416257D01*
X176707299Y-120136905D01*
X176539312Y-119885495D01*
X176325505Y-119671688D01*
X176074095Y-119503701D01*
X175794743Y-119387989D01*
X175498184Y-119329000D01*
X175195816Y-119329000D01*
X174899257Y-119387989D01*
X174619905Y-119503701D01*
X174368495Y-119671688D01*
X174154688Y-119885495D01*
X173986701Y-120136905D01*
X173870989Y-120416257D01*
X173812000Y-120712816D01*
X160612027Y-120712816D01*
X160699476Y-120547110D01*
X160654825Y-120399901D01*
X160529641Y-120137080D01*
X160355588Y-119903731D01*
X160271534Y-119827966D01*
X160352180Y-119803502D01*
X160462494Y-119744537D01*
X160559185Y-119665185D01*
X160638537Y-119568494D01*
X160697502Y-119458180D01*
X160733812Y-119338482D01*
X160746072Y-119214000D01*
X160746072Y-118212816D01*
X168812000Y-118212816D01*
X168812000Y-118515184D01*
X168870989Y-118811743D01*
X168986701Y-119091095D01*
X169154688Y-119342505D01*
X169368495Y-119556312D01*
X169619905Y-119724299D01*
X169899257Y-119840011D01*
X170195816Y-119899000D01*
X170498184Y-119899000D01*
X170794743Y-119840011D01*
X171074095Y-119724299D01*
X171325505Y-119556312D01*
X171539312Y-119342505D01*
X171707299Y-119091095D01*
X171823011Y-118811743D01*
X171882000Y-118515184D01*
X171882000Y-118212816D01*
X171823011Y-117916257D01*
X171707299Y-117636905D01*
X171539312Y-117385495D01*
X171325505Y-117171688D01*
X171074095Y-117003701D01*
X170794743Y-116887989D01*
X170498184Y-116829000D01*
X170195816Y-116829000D01*
X169899257Y-116887989D01*
X169619905Y-117003701D01*
X169368495Y-117171688D01*
X169154688Y-117385495D01*
X168986701Y-117636905D01*
X168870989Y-117916257D01*
X168812000Y-118212816D01*
X160746072Y-118212816D01*
X160746072Y-117514000D01*
X160733812Y-117389518D01*
X160697502Y-117269820D01*
X160638537Y-117159506D01*
X160559185Y-117062815D01*
X160462494Y-116983463D01*
X160352180Y-116924498D01*
X160232482Y-116888188D01*
X160108000Y-116875928D01*
X159565979Y-116875928D01*
X158496000Y-115805950D01*
X158496000Y-105075360D01*
X158554000Y-105081072D01*
X158718250Y-105078000D01*
X158877000Y-104919250D01*
X158877000Y-103970000D01*
X159131000Y-103970000D01*
X159131000Y-104919250D01*
X159289750Y-105078000D01*
X159454000Y-105081072D01*
X159578482Y-105068812D01*
X159698180Y-105032502D01*
X159808494Y-104973537D01*
X159905185Y-104894185D01*
X159984537Y-104797494D01*
X160043502Y-104687180D01*
X160079812Y-104567482D01*
X160092072Y-104443000D01*
X160091435Y-104377741D01*
X160987958Y-104377741D01*
X161087765Y-104661620D01*
X161241037Y-104920573D01*
X161441883Y-105144649D01*
X161682585Y-105325236D01*
X161953892Y-105455394D01*
X162114259Y-105504036D01*
X162351999Y-105383378D01*
X162351999Y-104140000D01*
X162605999Y-104140000D01*
X162605999Y-105383378D01*
X162843739Y-105504036D01*
X163004106Y-105455394D01*
X163275413Y-105325236D01*
X163516115Y-105144649D01*
X163716961Y-104920573D01*
X163870233Y-104661620D01*
X163970040Y-104377741D01*
X163849991Y-104140000D01*
X162605999Y-104140000D01*
X162351999Y-104140000D01*
X161108007Y-104140000D01*
X160987958Y-104377741D01*
X160091435Y-104377741D01*
X160089000Y-104128750D01*
X159930250Y-103970000D01*
X159131000Y-103970000D01*
X158877000Y-103970000D01*
X158857000Y-103970000D01*
X158857000Y-103716000D01*
X158877000Y-103716000D01*
X158877000Y-103696000D01*
X159131000Y-103696000D01*
X159131000Y-103716000D01*
X159930250Y-103716000D01*
X160089000Y-103557250D01*
X160092072Y-103243000D01*
X160079812Y-103118518D01*
X160043502Y-102998820D01*
X159997630Y-102913000D01*
X161413515Y-102913000D01*
X161241037Y-103105427D01*
X161087765Y-103364380D01*
X160987958Y-103648259D01*
X161108007Y-103886000D01*
X162351999Y-103886000D01*
X162351999Y-103866000D01*
X162605999Y-103866000D01*
X162605999Y-103886000D01*
X163849991Y-103886000D01*
X163970040Y-103648259D01*
X163870233Y-103364380D01*
X163716961Y-103105427D01*
X163516115Y-102881351D01*
X163341857Y-102750614D01*
X163569660Y-102563661D01*
X163761480Y-102329927D01*
X163872082Y-102123005D01*
X168442000Y-106692924D01*
X168442001Y-111997617D01*
X168442000Y-111997627D01*
X168442000Y-113270420D01*
X168432783Y-113364000D01*
X168442000Y-113457580D01*
X168442000Y-113457582D01*
X168469564Y-113737445D01*
X168536773Y-113959000D01*
X168578495Y-114096539D01*
X168755387Y-114427482D01*
X168817939Y-114503701D01*
X168993445Y-114717556D01*
X169066140Y-114777215D01*
X171433784Y-117144860D01*
X171493444Y-117217556D01*
X171685319Y-117375023D01*
X171783517Y-117455613D01*
X171885424Y-117510083D01*
X172114461Y-117632506D01*
X172473555Y-117741436D01*
X172753418Y-117769000D01*
X172753420Y-117769000D01*
X172847000Y-117778217D01*
X172940580Y-117769000D01*
X175440582Y-117769000D01*
X175720445Y-117741436D01*
X176079539Y-117632506D01*
X176410482Y-117455613D01*
X176700556Y-117217556D01*
X176938613Y-116927482D01*
X177115506Y-116596539D01*
X177224436Y-116237445D01*
X177261217Y-115864000D01*
X177224436Y-115490555D01*
X177115506Y-115131461D01*
X176938613Y-114800518D01*
X176700556Y-114510444D01*
X176410482Y-114272387D01*
X176079539Y-114095494D01*
X175720445Y-113986564D01*
X175440582Y-113959000D01*
X173636076Y-113959000D01*
X172252000Y-112574925D01*
X172252000Y-105997418D01*
X172261216Y-105903846D01*
X172252000Y-105810274D01*
X172252000Y-105810265D01*
X172224436Y-105530402D01*
X172151839Y-105291080D01*
X174462525Y-105291080D01*
X174546208Y-105545261D01*
X174818775Y-105676158D01*
X175111642Y-105751365D01*
X175413553Y-105767991D01*
X175712907Y-105725397D01*
X175998199Y-105625222D01*
X176147792Y-105545261D01*
X176231475Y-105291080D01*
X175347000Y-104406605D01*
X174462525Y-105291080D01*
X172151839Y-105291080D01*
X172115506Y-105171308D01*
X171938613Y-104840365D01*
X171700556Y-104550291D01*
X171627866Y-104490636D01*
X171430783Y-104293553D01*
X173806009Y-104293553D01*
X173848603Y-104592907D01*
X173948778Y-104878199D01*
X174028739Y-105027792D01*
X174282920Y-105111475D01*
X175167395Y-104227000D01*
X175526605Y-104227000D01*
X176411080Y-105111475D01*
X176665261Y-105027792D01*
X176796158Y-104755225D01*
X176871365Y-104462358D01*
X176887991Y-104160447D01*
X176845397Y-103861093D01*
X176745222Y-103575801D01*
X176665261Y-103426208D01*
X176411080Y-103342525D01*
X175526605Y-104227000D01*
X175167395Y-104227000D01*
X174282920Y-103342525D01*
X174028739Y-103426208D01*
X173897842Y-103698775D01*
X173822635Y-103991642D01*
X173806009Y-104293553D01*
X171430783Y-104293553D01*
X170404735Y-103267505D01*
X170413553Y-103267991D01*
X170712907Y-103225397D01*
X170890837Y-103162920D01*
X174462525Y-103162920D01*
X175347000Y-104047395D01*
X176231475Y-103162920D01*
X176147792Y-102908739D01*
X175875225Y-102777842D01*
X175582358Y-102702635D01*
X175280447Y-102686009D01*
X174981093Y-102728603D01*
X174695801Y-102828778D01*
X174546208Y-102908739D01*
X174462525Y-103162920D01*
X170890837Y-103162920D01*
X170998199Y-103125222D01*
X171147792Y-103045261D01*
X171231475Y-102791080D01*
X170347000Y-101906605D01*
X170332858Y-101920748D01*
X170153253Y-101741143D01*
X170167395Y-101727000D01*
X170526605Y-101727000D01*
X171411080Y-102611475D01*
X171665261Y-102527792D01*
X171796158Y-102255225D01*
X171871365Y-101962358D01*
X171887991Y-101660447D01*
X171845397Y-101361093D01*
X171745222Y-101075801D01*
X171665261Y-100926208D01*
X171411080Y-100842525D01*
X170526605Y-101727000D01*
X170167395Y-101727000D01*
X169282920Y-100842525D01*
X169028739Y-100926208D01*
X168897842Y-101198775D01*
X168822635Y-101491642D01*
X168812522Y-101675292D01*
X167800150Y-100662920D01*
X169462525Y-100662920D01*
X170347000Y-101547395D01*
X171231475Y-100662920D01*
X171147792Y-100408739D01*
X170875225Y-100277842D01*
X170582358Y-100202635D01*
X170280447Y-100186009D01*
X169981093Y-100228603D01*
X169695801Y-100328778D01*
X169546208Y-100408739D01*
X169462525Y-100662920D01*
X167800150Y-100662920D01*
X166213045Y-99075816D01*
X173812000Y-99075816D01*
X173812000Y-99378184D01*
X173870989Y-99674743D01*
X173986701Y-99954095D01*
X174154688Y-100205505D01*
X174368495Y-100419312D01*
X174619905Y-100587299D01*
X174899257Y-100703011D01*
X175195816Y-100762000D01*
X175498184Y-100762000D01*
X175794743Y-100703011D01*
X176074095Y-100587299D01*
X176325505Y-100419312D01*
X176539312Y-100205505D01*
X176707299Y-99954095D01*
X176823011Y-99674743D01*
X176882000Y-99378184D01*
X176882000Y-99075816D01*
X176823011Y-98779257D01*
X176707299Y-98499905D01*
X176539312Y-98248495D01*
X176325505Y-98034688D01*
X176074095Y-97866701D01*
X175794743Y-97750989D01*
X175498184Y-97692000D01*
X175195816Y-97692000D01*
X174899257Y-97750989D01*
X174619905Y-97866701D01*
X174368495Y-98034688D01*
X174154688Y-98248495D01*
X173986701Y-98499905D01*
X173870989Y-98779257D01*
X173812000Y-99075816D01*
X166213045Y-99075816D01*
X164789373Y-97652145D01*
X164729709Y-97579444D01*
X164439635Y-97341387D01*
X164108692Y-97164494D01*
X163749598Y-97055564D01*
X163469735Y-97028000D01*
X163469733Y-97028000D01*
X163376153Y-97018783D01*
X163282573Y-97028000D01*
X162385417Y-97028000D01*
X162105554Y-97055564D01*
X161746460Y-97164494D01*
X161415517Y-97341387D01*
X161125443Y-97579444D01*
X160887386Y-97869518D01*
X160710493Y-98200461D01*
X160601563Y-98559555D01*
X160564782Y-98933000D01*
X160601563Y-99306445D01*
X160710493Y-99665539D01*
X160887386Y-99996482D01*
X161125443Y-100286556D01*
X161230776Y-100373000D01*
X157163620Y-100373000D01*
X156977037Y-100391377D01*
X156932365Y-100404928D01*
X156870000Y-100404928D01*
X156870000Y-96575816D01*
X168812000Y-96575816D01*
X168812000Y-96878184D01*
X168870989Y-97174743D01*
X168986701Y-97454095D01*
X169154688Y-97705505D01*
X169368495Y-97919312D01*
X169619905Y-98087299D01*
X169899257Y-98203011D01*
X170195816Y-98262000D01*
X170498184Y-98262000D01*
X170794743Y-98203011D01*
X171074095Y-98087299D01*
X171325505Y-97919312D01*
X171539312Y-97705505D01*
X171707299Y-97454095D01*
X171823011Y-97174743D01*
X171882000Y-96878184D01*
X171882000Y-96575816D01*
X171823011Y-96279257D01*
X171707299Y-95999905D01*
X171539312Y-95748495D01*
X171325505Y-95534688D01*
X171074095Y-95366701D01*
X170794743Y-95250989D01*
X170498184Y-95192000D01*
X170195816Y-95192000D01*
X169899257Y-95250989D01*
X169619905Y-95366701D01*
X169368495Y-95534688D01*
X169154688Y-95748495D01*
X168986701Y-95999905D01*
X168870989Y-96279257D01*
X168812000Y-96575816D01*
X156870000Y-96575816D01*
X156870000Y-91219872D01*
X157785000Y-91219872D01*
X157785000Y-91660128D01*
X157870890Y-92091925D01*
X158039369Y-92498669D01*
X158283962Y-92864729D01*
X158595271Y-93176038D01*
X158961331Y-93420631D01*
X159368075Y-93589110D01*
X159799872Y-93675000D01*
X160240128Y-93675000D01*
X160671925Y-93589110D01*
X161078669Y-93420631D01*
X161444729Y-93176038D01*
X161756038Y-92864729D01*
X162000631Y-92498669D01*
X162169110Y-92091925D01*
X162255000Y-91660128D01*
X162255000Y-91219872D01*
X176835000Y-91219872D01*
X176835000Y-91660128D01*
X176920890Y-92091925D01*
X177089369Y-92498669D01*
X177333962Y-92864729D01*
X177645271Y-93176038D01*
X178011331Y-93420631D01*
X178418075Y-93589110D01*
X178849872Y-93675000D01*
X179290128Y-93675000D01*
X179721925Y-93589110D01*
X180128669Y-93420631D01*
X180494729Y-93176038D01*
X180806038Y-92864729D01*
X181050631Y-92498669D01*
X181219110Y-92091925D01*
X181305000Y-91660128D01*
X181305000Y-91219872D01*
X181219110Y-90788075D01*
X181050631Y-90381331D01*
X180806038Y-90015271D01*
X180494729Y-89703962D01*
X180128669Y-89459369D01*
X179721925Y-89290890D01*
X179290128Y-89205000D01*
X178849872Y-89205000D01*
X178418075Y-89290890D01*
X178011331Y-89459369D01*
X177645271Y-89703962D01*
X177333962Y-90015271D01*
X177089369Y-90381331D01*
X176920890Y-90788075D01*
X176835000Y-91219872D01*
X162255000Y-91219872D01*
X162169110Y-90788075D01*
X162000631Y-90381331D01*
X161756038Y-90015271D01*
X161444729Y-89703962D01*
X161078669Y-89459369D01*
X160671925Y-89290890D01*
X160240128Y-89205000D01*
X159799872Y-89205000D01*
X159368075Y-89290890D01*
X158961331Y-89459369D01*
X158595271Y-89703962D01*
X158283962Y-90015271D01*
X158039369Y-90381331D01*
X157870890Y-90788075D01*
X157785000Y-91219872D01*
X156870000Y-91219872D01*
X156870000Y-88290000D01*
X182220000Y-88290000D01*
X182220001Y-132690000D01*
M02*
