G04 #@! TF.GenerationSoftware,KiCad,Pcbnew,(5.1.4)-1*
G04 #@! TF.CreationDate,2019-12-31T17:22:25-06:00*
G04 #@! TF.ProjectId,cutdown_power,63757464-6f77-46e5-9f70-6f7765722e6b,rev?*
G04 #@! TF.SameCoordinates,Original*
G04 #@! TF.FileFunction,Copper,L2,Bot*
G04 #@! TF.FilePolarity,Positive*
%FSLAX46Y46*%
G04 Gerber Fmt 4.6, Leading zero omitted, Abs format (unit mm)*
G04 Created by KiCad (PCBNEW (5.1.4)-1) date 2019-12-31 17:22:25*
%MOMM*%
%LPD*%
G04 APERTURE LIST*
%ADD10O,1.700000X1.700000*%
%ADD11R,1.700000X1.700000*%
%ADD12C,1.800000*%
%ADD13O,1.800000X1.800000*%
%ADD14R,1.800000X1.800000*%
%ADD15C,2.540000*%
%ADD16C,0.254000*%
G04 APERTURE END LIST*
D10*
X159258000Y-120904000D03*
D11*
X159258000Y-118364000D03*
D12*
X175347000Y-120864000D03*
X170347000Y-118364000D03*
X175347000Y-115864000D03*
X170347000Y-113364000D03*
D13*
X162478999Y-104013000D03*
X162478999Y-101473000D03*
D14*
X162478999Y-98933000D03*
D12*
X175347000Y-104227000D03*
X170347000Y-101727000D03*
X175347000Y-99227000D03*
X170347000Y-96727000D03*
D15*
X172847000Y-115864000D02*
X170347000Y-113364000D01*
X175347000Y-115864000D02*
X172847000Y-115864000D01*
X165916153Y-101473000D02*
X162478999Y-101473000D01*
X170347000Y-113364000D02*
X170347000Y-105903847D01*
X170347000Y-105903847D02*
X165916153Y-101473000D01*
D16*
G36*
X182220001Y-132690000D02*
G01*
X156870000Y-132690000D01*
X156870000Y-129319872D01*
X157785000Y-129319872D01*
X157785000Y-129760128D01*
X157870890Y-130191925D01*
X158039369Y-130598669D01*
X158283962Y-130964729D01*
X158595271Y-131276038D01*
X158961331Y-131520631D01*
X159368075Y-131689110D01*
X159799872Y-131775000D01*
X160240128Y-131775000D01*
X160671925Y-131689110D01*
X161078669Y-131520631D01*
X161444729Y-131276038D01*
X161756038Y-130964729D01*
X162000631Y-130598669D01*
X162169110Y-130191925D01*
X162255000Y-129760128D01*
X162255000Y-129319872D01*
X176835000Y-129319872D01*
X176835000Y-129760128D01*
X176920890Y-130191925D01*
X177089369Y-130598669D01*
X177333962Y-130964729D01*
X177645271Y-131276038D01*
X178011331Y-131520631D01*
X178418075Y-131689110D01*
X178849872Y-131775000D01*
X179290128Y-131775000D01*
X179721925Y-131689110D01*
X180128669Y-131520631D01*
X180494729Y-131276038D01*
X180806038Y-130964729D01*
X181050631Y-130598669D01*
X181219110Y-130191925D01*
X181305000Y-129760128D01*
X181305000Y-129319872D01*
X181219110Y-128888075D01*
X181050631Y-128481331D01*
X180806038Y-128115271D01*
X180494729Y-127803962D01*
X180128669Y-127559369D01*
X179721925Y-127390890D01*
X179290128Y-127305000D01*
X178849872Y-127305000D01*
X178418075Y-127390890D01*
X178011331Y-127559369D01*
X177645271Y-127803962D01*
X177333962Y-128115271D01*
X177089369Y-128481331D01*
X176920890Y-128888075D01*
X176835000Y-129319872D01*
X162255000Y-129319872D01*
X162169110Y-128888075D01*
X162000631Y-128481331D01*
X161756038Y-128115271D01*
X161444729Y-127803962D01*
X161078669Y-127559369D01*
X160671925Y-127390890D01*
X160240128Y-127305000D01*
X159799872Y-127305000D01*
X159368075Y-127390890D01*
X158961331Y-127559369D01*
X158595271Y-127803962D01*
X158283962Y-128115271D01*
X158039369Y-128481331D01*
X157870890Y-128888075D01*
X157785000Y-129319872D01*
X156870000Y-129319872D01*
X156870000Y-120904000D01*
X157765815Y-120904000D01*
X157794487Y-121195111D01*
X157879401Y-121475034D01*
X158017294Y-121733014D01*
X158202866Y-121959134D01*
X158428986Y-122144706D01*
X158686966Y-122282599D01*
X158966889Y-122367513D01*
X159185050Y-122389000D01*
X159330950Y-122389000D01*
X159549111Y-122367513D01*
X159829034Y-122282599D01*
X160087014Y-122144706D01*
X160313134Y-121959134D01*
X160338619Y-121928080D01*
X174462525Y-121928080D01*
X174546208Y-122182261D01*
X174818775Y-122313158D01*
X175111642Y-122388365D01*
X175413553Y-122404991D01*
X175712907Y-122362397D01*
X175998199Y-122262222D01*
X176147792Y-122182261D01*
X176231475Y-121928080D01*
X175347000Y-121043605D01*
X174462525Y-121928080D01*
X160338619Y-121928080D01*
X160498706Y-121733014D01*
X160636599Y-121475034D01*
X160721513Y-121195111D01*
X160747569Y-120930553D01*
X173806009Y-120930553D01*
X173848603Y-121229907D01*
X173948778Y-121515199D01*
X174028739Y-121664792D01*
X174282920Y-121748475D01*
X175167395Y-120864000D01*
X175526605Y-120864000D01*
X176411080Y-121748475D01*
X176665261Y-121664792D01*
X176796158Y-121392225D01*
X176871365Y-121099358D01*
X176887991Y-120797447D01*
X176845397Y-120498093D01*
X176745222Y-120212801D01*
X176665261Y-120063208D01*
X176411080Y-119979525D01*
X175526605Y-120864000D01*
X175167395Y-120864000D01*
X174282920Y-119979525D01*
X174028739Y-120063208D01*
X173897842Y-120335775D01*
X173822635Y-120628642D01*
X173806009Y-120930553D01*
X160747569Y-120930553D01*
X160750185Y-120904000D01*
X160721513Y-120612889D01*
X160636599Y-120332966D01*
X160498706Y-120074986D01*
X160313134Y-119848866D01*
X160283313Y-119824393D01*
X160352180Y-119803502D01*
X160462494Y-119744537D01*
X160559185Y-119665185D01*
X160638537Y-119568494D01*
X160697502Y-119458180D01*
X160706632Y-119428080D01*
X169462525Y-119428080D01*
X169546208Y-119682261D01*
X169818775Y-119813158D01*
X170111642Y-119888365D01*
X170413553Y-119904991D01*
X170712907Y-119862397D01*
X170890837Y-119799920D01*
X174462525Y-119799920D01*
X175347000Y-120684395D01*
X176231475Y-119799920D01*
X176147792Y-119545739D01*
X175875225Y-119414842D01*
X175582358Y-119339635D01*
X175280447Y-119323009D01*
X174981093Y-119365603D01*
X174695801Y-119465778D01*
X174546208Y-119545739D01*
X174462525Y-119799920D01*
X170890837Y-119799920D01*
X170998199Y-119762222D01*
X171147792Y-119682261D01*
X171231475Y-119428080D01*
X170347000Y-118543605D01*
X169462525Y-119428080D01*
X160706632Y-119428080D01*
X160733812Y-119338482D01*
X160746072Y-119214000D01*
X160746072Y-118430553D01*
X168806009Y-118430553D01*
X168848603Y-118729907D01*
X168948778Y-119015199D01*
X169028739Y-119164792D01*
X169282920Y-119248475D01*
X170167395Y-118364000D01*
X170526605Y-118364000D01*
X171411080Y-119248475D01*
X171665261Y-119164792D01*
X171796158Y-118892225D01*
X171871365Y-118599358D01*
X171887991Y-118297447D01*
X171845397Y-117998093D01*
X171745222Y-117712801D01*
X171665261Y-117563208D01*
X171411080Y-117479525D01*
X170526605Y-118364000D01*
X170167395Y-118364000D01*
X169282920Y-117479525D01*
X169028739Y-117563208D01*
X168897842Y-117835775D01*
X168822635Y-118128642D01*
X168806009Y-118430553D01*
X160746072Y-118430553D01*
X160746072Y-117514000D01*
X160733812Y-117389518D01*
X160706633Y-117299920D01*
X169462525Y-117299920D01*
X170347000Y-118184395D01*
X171231475Y-117299920D01*
X171147792Y-117045739D01*
X170875225Y-116914842D01*
X170582358Y-116839635D01*
X170280447Y-116823009D01*
X169981093Y-116865603D01*
X169695801Y-116965778D01*
X169546208Y-117045739D01*
X169462525Y-117299920D01*
X160706633Y-117299920D01*
X160697502Y-117269820D01*
X160638537Y-117159506D01*
X160559185Y-117062815D01*
X160462494Y-116983463D01*
X160352180Y-116924498D01*
X160232482Y-116888188D01*
X160108000Y-116875928D01*
X158408000Y-116875928D01*
X158283518Y-116888188D01*
X158163820Y-116924498D01*
X158053506Y-116983463D01*
X157956815Y-117062815D01*
X157877463Y-117159506D01*
X157818498Y-117269820D01*
X157782188Y-117389518D01*
X157769928Y-117514000D01*
X157769928Y-119214000D01*
X157782188Y-119338482D01*
X157818498Y-119458180D01*
X157877463Y-119568494D01*
X157956815Y-119665185D01*
X158053506Y-119744537D01*
X158163820Y-119803502D01*
X158232687Y-119824393D01*
X158202866Y-119848866D01*
X158017294Y-120074986D01*
X157879401Y-120332966D01*
X157794487Y-120612889D01*
X157765815Y-120904000D01*
X156870000Y-120904000D01*
X156870000Y-101473000D01*
X160564782Y-101473000D01*
X160601563Y-101846445D01*
X160710493Y-102205539D01*
X160887386Y-102536482D01*
X161125443Y-102826556D01*
X161329506Y-102994026D01*
X161196518Y-103156073D01*
X161053982Y-103422739D01*
X160966209Y-103712087D01*
X160936572Y-104013000D01*
X160966209Y-104313913D01*
X161053982Y-104603261D01*
X161196518Y-104869927D01*
X161388338Y-105103661D01*
X161622072Y-105295481D01*
X161888738Y-105438017D01*
X162178086Y-105525790D01*
X162403591Y-105548000D01*
X162554407Y-105548000D01*
X162779912Y-105525790D01*
X163069260Y-105438017D01*
X163335926Y-105295481D01*
X163569660Y-105103661D01*
X163761480Y-104869927D01*
X163904016Y-104603261D01*
X163991789Y-104313913D01*
X164021426Y-104013000D01*
X163991789Y-103712087D01*
X163904016Y-103422739D01*
X163880102Y-103378000D01*
X165127078Y-103378000D01*
X168442001Y-106692924D01*
X168442000Y-113270420D01*
X168432783Y-113364000D01*
X168442000Y-113457580D01*
X168442000Y-113457581D01*
X168469564Y-113737444D01*
X168578494Y-114096538D01*
X168755387Y-114427482D01*
X168993444Y-114717556D01*
X169066145Y-114777220D01*
X171433784Y-117144860D01*
X171493444Y-117217556D01*
X171685319Y-117375023D01*
X171783517Y-117455613D01*
X171892752Y-117514000D01*
X172114461Y-117632506D01*
X172473555Y-117741436D01*
X172753418Y-117769000D01*
X172753420Y-117769000D01*
X172847000Y-117778217D01*
X172940580Y-117769000D01*
X175440582Y-117769000D01*
X175720445Y-117741436D01*
X176079539Y-117632506D01*
X176410482Y-117455613D01*
X176700556Y-117217556D01*
X176938613Y-116927482D01*
X177115506Y-116596539D01*
X177224436Y-116237445D01*
X177261217Y-115864000D01*
X177224436Y-115490555D01*
X177115506Y-115131461D01*
X176938613Y-114800518D01*
X176700556Y-114510444D01*
X176410482Y-114272387D01*
X176079539Y-114095494D01*
X175720445Y-113986564D01*
X175440582Y-113959000D01*
X173636076Y-113959000D01*
X172252000Y-112574925D01*
X172252000Y-105997427D01*
X172261217Y-105903847D01*
X172241436Y-105703011D01*
X172224436Y-105530402D01*
X172115506Y-105171308D01*
X171999403Y-104954095D01*
X171938613Y-104840364D01*
X171858023Y-104742166D01*
X171700556Y-104550291D01*
X171627860Y-104490631D01*
X171213045Y-104075816D01*
X173812000Y-104075816D01*
X173812000Y-104378184D01*
X173870989Y-104674743D01*
X173986701Y-104954095D01*
X174154688Y-105205505D01*
X174368495Y-105419312D01*
X174619905Y-105587299D01*
X174899257Y-105703011D01*
X175195816Y-105762000D01*
X175498184Y-105762000D01*
X175794743Y-105703011D01*
X176074095Y-105587299D01*
X176325505Y-105419312D01*
X176539312Y-105205505D01*
X176707299Y-104954095D01*
X176823011Y-104674743D01*
X176882000Y-104378184D01*
X176882000Y-104075816D01*
X176823011Y-103779257D01*
X176707299Y-103499905D01*
X176539312Y-103248495D01*
X176325505Y-103034688D01*
X176074095Y-102866701D01*
X175794743Y-102750989D01*
X175498184Y-102692000D01*
X175195816Y-102692000D01*
X174899257Y-102750989D01*
X174619905Y-102866701D01*
X174368495Y-103034688D01*
X174154688Y-103248495D01*
X173986701Y-103499905D01*
X173870989Y-103779257D01*
X173812000Y-104075816D01*
X171213045Y-104075816D01*
X170399229Y-103262000D01*
X170498184Y-103262000D01*
X170794743Y-103203011D01*
X171074095Y-103087299D01*
X171325505Y-102919312D01*
X171539312Y-102705505D01*
X171707299Y-102454095D01*
X171823011Y-102174743D01*
X171882000Y-101878184D01*
X171882000Y-101575816D01*
X171823011Y-101279257D01*
X171707299Y-100999905D01*
X171539312Y-100748495D01*
X171325505Y-100534688D01*
X171074095Y-100366701D01*
X170891531Y-100291080D01*
X174462525Y-100291080D01*
X174546208Y-100545261D01*
X174818775Y-100676158D01*
X175111642Y-100751365D01*
X175413553Y-100767991D01*
X175712907Y-100725397D01*
X175998199Y-100625222D01*
X176147792Y-100545261D01*
X176231475Y-100291080D01*
X175347000Y-99406605D01*
X174462525Y-100291080D01*
X170891531Y-100291080D01*
X170794743Y-100250989D01*
X170498184Y-100192000D01*
X170195816Y-100192000D01*
X169899257Y-100250989D01*
X169619905Y-100366701D01*
X169368495Y-100534688D01*
X169154688Y-100748495D01*
X168986701Y-100999905D01*
X168870989Y-101279257D01*
X168812000Y-101575816D01*
X168812000Y-101674772D01*
X167329373Y-100192145D01*
X167269709Y-100119444D01*
X166979635Y-99881387D01*
X166648692Y-99704494D01*
X166289598Y-99595564D01*
X166009735Y-99568000D01*
X166009733Y-99568000D01*
X165916153Y-99558783D01*
X165822573Y-99568000D01*
X164017071Y-99568000D01*
X164017071Y-99293553D01*
X173806009Y-99293553D01*
X173848603Y-99592907D01*
X173948778Y-99878199D01*
X174028739Y-100027792D01*
X174282920Y-100111475D01*
X175167395Y-99227000D01*
X175526605Y-99227000D01*
X176411080Y-100111475D01*
X176665261Y-100027792D01*
X176796158Y-99755225D01*
X176871365Y-99462358D01*
X176887991Y-99160447D01*
X176845397Y-98861093D01*
X176745222Y-98575801D01*
X176665261Y-98426208D01*
X176411080Y-98342525D01*
X175526605Y-99227000D01*
X175167395Y-99227000D01*
X174282920Y-98342525D01*
X174028739Y-98426208D01*
X173897842Y-98698775D01*
X173822635Y-98991642D01*
X173806009Y-99293553D01*
X164017071Y-99293553D01*
X164017071Y-98033000D01*
X164004811Y-97908518D01*
X163969187Y-97791080D01*
X169462525Y-97791080D01*
X169546208Y-98045261D01*
X169818775Y-98176158D01*
X170111642Y-98251365D01*
X170413553Y-98267991D01*
X170712907Y-98225397D01*
X170890837Y-98162920D01*
X174462525Y-98162920D01*
X175347000Y-99047395D01*
X176231475Y-98162920D01*
X176147792Y-97908739D01*
X175875225Y-97777842D01*
X175582358Y-97702635D01*
X175280447Y-97686009D01*
X174981093Y-97728603D01*
X174695801Y-97828778D01*
X174546208Y-97908739D01*
X174462525Y-98162920D01*
X170890837Y-98162920D01*
X170998199Y-98125222D01*
X171147792Y-98045261D01*
X171231475Y-97791080D01*
X170347000Y-96906605D01*
X169462525Y-97791080D01*
X163969187Y-97791080D01*
X163968501Y-97788820D01*
X163909536Y-97678506D01*
X163830184Y-97581815D01*
X163733493Y-97502463D01*
X163623179Y-97443498D01*
X163503481Y-97407188D01*
X163378999Y-97394928D01*
X161578999Y-97394928D01*
X161454517Y-97407188D01*
X161334819Y-97443498D01*
X161224505Y-97502463D01*
X161127814Y-97581815D01*
X161048462Y-97678506D01*
X160989497Y-97788820D01*
X160953187Y-97908518D01*
X160940927Y-98033000D01*
X160940927Y-99833000D01*
X160953187Y-99957482D01*
X160989497Y-100077180D01*
X161048462Y-100187494D01*
X161059029Y-100200370D01*
X160887386Y-100409518D01*
X160710493Y-100740461D01*
X160601563Y-101099555D01*
X160564782Y-101473000D01*
X156870000Y-101473000D01*
X156870000Y-96793553D01*
X168806009Y-96793553D01*
X168848603Y-97092907D01*
X168948778Y-97378199D01*
X169028739Y-97527792D01*
X169282920Y-97611475D01*
X170167395Y-96727000D01*
X170526605Y-96727000D01*
X171411080Y-97611475D01*
X171665261Y-97527792D01*
X171796158Y-97255225D01*
X171871365Y-96962358D01*
X171887991Y-96660447D01*
X171845397Y-96361093D01*
X171745222Y-96075801D01*
X171665261Y-95926208D01*
X171411080Y-95842525D01*
X170526605Y-96727000D01*
X170167395Y-96727000D01*
X169282920Y-95842525D01*
X169028739Y-95926208D01*
X168897842Y-96198775D01*
X168822635Y-96491642D01*
X168806009Y-96793553D01*
X156870000Y-96793553D01*
X156870000Y-95662920D01*
X169462525Y-95662920D01*
X170347000Y-96547395D01*
X171231475Y-95662920D01*
X171147792Y-95408739D01*
X170875225Y-95277842D01*
X170582358Y-95202635D01*
X170280447Y-95186009D01*
X169981093Y-95228603D01*
X169695801Y-95328778D01*
X169546208Y-95408739D01*
X169462525Y-95662920D01*
X156870000Y-95662920D01*
X156870000Y-91219872D01*
X157785000Y-91219872D01*
X157785000Y-91660128D01*
X157870890Y-92091925D01*
X158039369Y-92498669D01*
X158283962Y-92864729D01*
X158595271Y-93176038D01*
X158961331Y-93420631D01*
X159368075Y-93589110D01*
X159799872Y-93675000D01*
X160240128Y-93675000D01*
X160671925Y-93589110D01*
X161078669Y-93420631D01*
X161444729Y-93176038D01*
X161756038Y-92864729D01*
X162000631Y-92498669D01*
X162169110Y-92091925D01*
X162255000Y-91660128D01*
X162255000Y-91219872D01*
X176835000Y-91219872D01*
X176835000Y-91660128D01*
X176920890Y-92091925D01*
X177089369Y-92498669D01*
X177333962Y-92864729D01*
X177645271Y-93176038D01*
X178011331Y-93420631D01*
X178418075Y-93589110D01*
X178849872Y-93675000D01*
X179290128Y-93675000D01*
X179721925Y-93589110D01*
X180128669Y-93420631D01*
X180494729Y-93176038D01*
X180806038Y-92864729D01*
X181050631Y-92498669D01*
X181219110Y-92091925D01*
X181305000Y-91660128D01*
X181305000Y-91219872D01*
X181219110Y-90788075D01*
X181050631Y-90381331D01*
X180806038Y-90015271D01*
X180494729Y-89703962D01*
X180128669Y-89459369D01*
X179721925Y-89290890D01*
X179290128Y-89205000D01*
X178849872Y-89205000D01*
X178418075Y-89290890D01*
X178011331Y-89459369D01*
X177645271Y-89703962D01*
X177333962Y-90015271D01*
X177089369Y-90381331D01*
X176920890Y-90788075D01*
X176835000Y-91219872D01*
X162255000Y-91219872D01*
X162169110Y-90788075D01*
X162000631Y-90381331D01*
X161756038Y-90015271D01*
X161444729Y-89703962D01*
X161078669Y-89459369D01*
X160671925Y-89290890D01*
X160240128Y-89205000D01*
X159799872Y-89205000D01*
X159368075Y-89290890D01*
X158961331Y-89459369D01*
X158595271Y-89703962D01*
X158283962Y-90015271D01*
X158039369Y-90381331D01*
X157870890Y-90788075D01*
X157785000Y-91219872D01*
X156870000Y-91219872D01*
X156870000Y-88290000D01*
X182220000Y-88290000D01*
X182220001Y-132690000D01*
X182220001Y-132690000D01*
G37*
X182220001Y-132690000D02*
X156870000Y-132690000D01*
X156870000Y-129319872D01*
X157785000Y-129319872D01*
X157785000Y-129760128D01*
X157870890Y-130191925D01*
X158039369Y-130598669D01*
X158283962Y-130964729D01*
X158595271Y-131276038D01*
X158961331Y-131520631D01*
X159368075Y-131689110D01*
X159799872Y-131775000D01*
X160240128Y-131775000D01*
X160671925Y-131689110D01*
X161078669Y-131520631D01*
X161444729Y-131276038D01*
X161756038Y-130964729D01*
X162000631Y-130598669D01*
X162169110Y-130191925D01*
X162255000Y-129760128D01*
X162255000Y-129319872D01*
X176835000Y-129319872D01*
X176835000Y-129760128D01*
X176920890Y-130191925D01*
X177089369Y-130598669D01*
X177333962Y-130964729D01*
X177645271Y-131276038D01*
X178011331Y-131520631D01*
X178418075Y-131689110D01*
X178849872Y-131775000D01*
X179290128Y-131775000D01*
X179721925Y-131689110D01*
X180128669Y-131520631D01*
X180494729Y-131276038D01*
X180806038Y-130964729D01*
X181050631Y-130598669D01*
X181219110Y-130191925D01*
X181305000Y-129760128D01*
X181305000Y-129319872D01*
X181219110Y-128888075D01*
X181050631Y-128481331D01*
X180806038Y-128115271D01*
X180494729Y-127803962D01*
X180128669Y-127559369D01*
X179721925Y-127390890D01*
X179290128Y-127305000D01*
X178849872Y-127305000D01*
X178418075Y-127390890D01*
X178011331Y-127559369D01*
X177645271Y-127803962D01*
X177333962Y-128115271D01*
X177089369Y-128481331D01*
X176920890Y-128888075D01*
X176835000Y-129319872D01*
X162255000Y-129319872D01*
X162169110Y-128888075D01*
X162000631Y-128481331D01*
X161756038Y-128115271D01*
X161444729Y-127803962D01*
X161078669Y-127559369D01*
X160671925Y-127390890D01*
X160240128Y-127305000D01*
X159799872Y-127305000D01*
X159368075Y-127390890D01*
X158961331Y-127559369D01*
X158595271Y-127803962D01*
X158283962Y-128115271D01*
X158039369Y-128481331D01*
X157870890Y-128888075D01*
X157785000Y-129319872D01*
X156870000Y-129319872D01*
X156870000Y-120904000D01*
X157765815Y-120904000D01*
X157794487Y-121195111D01*
X157879401Y-121475034D01*
X158017294Y-121733014D01*
X158202866Y-121959134D01*
X158428986Y-122144706D01*
X158686966Y-122282599D01*
X158966889Y-122367513D01*
X159185050Y-122389000D01*
X159330950Y-122389000D01*
X159549111Y-122367513D01*
X159829034Y-122282599D01*
X160087014Y-122144706D01*
X160313134Y-121959134D01*
X160338619Y-121928080D01*
X174462525Y-121928080D01*
X174546208Y-122182261D01*
X174818775Y-122313158D01*
X175111642Y-122388365D01*
X175413553Y-122404991D01*
X175712907Y-122362397D01*
X175998199Y-122262222D01*
X176147792Y-122182261D01*
X176231475Y-121928080D01*
X175347000Y-121043605D01*
X174462525Y-121928080D01*
X160338619Y-121928080D01*
X160498706Y-121733014D01*
X160636599Y-121475034D01*
X160721513Y-121195111D01*
X160747569Y-120930553D01*
X173806009Y-120930553D01*
X173848603Y-121229907D01*
X173948778Y-121515199D01*
X174028739Y-121664792D01*
X174282920Y-121748475D01*
X175167395Y-120864000D01*
X175526605Y-120864000D01*
X176411080Y-121748475D01*
X176665261Y-121664792D01*
X176796158Y-121392225D01*
X176871365Y-121099358D01*
X176887991Y-120797447D01*
X176845397Y-120498093D01*
X176745222Y-120212801D01*
X176665261Y-120063208D01*
X176411080Y-119979525D01*
X175526605Y-120864000D01*
X175167395Y-120864000D01*
X174282920Y-119979525D01*
X174028739Y-120063208D01*
X173897842Y-120335775D01*
X173822635Y-120628642D01*
X173806009Y-120930553D01*
X160747569Y-120930553D01*
X160750185Y-120904000D01*
X160721513Y-120612889D01*
X160636599Y-120332966D01*
X160498706Y-120074986D01*
X160313134Y-119848866D01*
X160283313Y-119824393D01*
X160352180Y-119803502D01*
X160462494Y-119744537D01*
X160559185Y-119665185D01*
X160638537Y-119568494D01*
X160697502Y-119458180D01*
X160706632Y-119428080D01*
X169462525Y-119428080D01*
X169546208Y-119682261D01*
X169818775Y-119813158D01*
X170111642Y-119888365D01*
X170413553Y-119904991D01*
X170712907Y-119862397D01*
X170890837Y-119799920D01*
X174462525Y-119799920D01*
X175347000Y-120684395D01*
X176231475Y-119799920D01*
X176147792Y-119545739D01*
X175875225Y-119414842D01*
X175582358Y-119339635D01*
X175280447Y-119323009D01*
X174981093Y-119365603D01*
X174695801Y-119465778D01*
X174546208Y-119545739D01*
X174462525Y-119799920D01*
X170890837Y-119799920D01*
X170998199Y-119762222D01*
X171147792Y-119682261D01*
X171231475Y-119428080D01*
X170347000Y-118543605D01*
X169462525Y-119428080D01*
X160706632Y-119428080D01*
X160733812Y-119338482D01*
X160746072Y-119214000D01*
X160746072Y-118430553D01*
X168806009Y-118430553D01*
X168848603Y-118729907D01*
X168948778Y-119015199D01*
X169028739Y-119164792D01*
X169282920Y-119248475D01*
X170167395Y-118364000D01*
X170526605Y-118364000D01*
X171411080Y-119248475D01*
X171665261Y-119164792D01*
X171796158Y-118892225D01*
X171871365Y-118599358D01*
X171887991Y-118297447D01*
X171845397Y-117998093D01*
X171745222Y-117712801D01*
X171665261Y-117563208D01*
X171411080Y-117479525D01*
X170526605Y-118364000D01*
X170167395Y-118364000D01*
X169282920Y-117479525D01*
X169028739Y-117563208D01*
X168897842Y-117835775D01*
X168822635Y-118128642D01*
X168806009Y-118430553D01*
X160746072Y-118430553D01*
X160746072Y-117514000D01*
X160733812Y-117389518D01*
X160706633Y-117299920D01*
X169462525Y-117299920D01*
X170347000Y-118184395D01*
X171231475Y-117299920D01*
X171147792Y-117045739D01*
X170875225Y-116914842D01*
X170582358Y-116839635D01*
X170280447Y-116823009D01*
X169981093Y-116865603D01*
X169695801Y-116965778D01*
X169546208Y-117045739D01*
X169462525Y-117299920D01*
X160706633Y-117299920D01*
X160697502Y-117269820D01*
X160638537Y-117159506D01*
X160559185Y-117062815D01*
X160462494Y-116983463D01*
X160352180Y-116924498D01*
X160232482Y-116888188D01*
X160108000Y-116875928D01*
X158408000Y-116875928D01*
X158283518Y-116888188D01*
X158163820Y-116924498D01*
X158053506Y-116983463D01*
X157956815Y-117062815D01*
X157877463Y-117159506D01*
X157818498Y-117269820D01*
X157782188Y-117389518D01*
X157769928Y-117514000D01*
X157769928Y-119214000D01*
X157782188Y-119338482D01*
X157818498Y-119458180D01*
X157877463Y-119568494D01*
X157956815Y-119665185D01*
X158053506Y-119744537D01*
X158163820Y-119803502D01*
X158232687Y-119824393D01*
X158202866Y-119848866D01*
X158017294Y-120074986D01*
X157879401Y-120332966D01*
X157794487Y-120612889D01*
X157765815Y-120904000D01*
X156870000Y-120904000D01*
X156870000Y-101473000D01*
X160564782Y-101473000D01*
X160601563Y-101846445D01*
X160710493Y-102205539D01*
X160887386Y-102536482D01*
X161125443Y-102826556D01*
X161329506Y-102994026D01*
X161196518Y-103156073D01*
X161053982Y-103422739D01*
X160966209Y-103712087D01*
X160936572Y-104013000D01*
X160966209Y-104313913D01*
X161053982Y-104603261D01*
X161196518Y-104869927D01*
X161388338Y-105103661D01*
X161622072Y-105295481D01*
X161888738Y-105438017D01*
X162178086Y-105525790D01*
X162403591Y-105548000D01*
X162554407Y-105548000D01*
X162779912Y-105525790D01*
X163069260Y-105438017D01*
X163335926Y-105295481D01*
X163569660Y-105103661D01*
X163761480Y-104869927D01*
X163904016Y-104603261D01*
X163991789Y-104313913D01*
X164021426Y-104013000D01*
X163991789Y-103712087D01*
X163904016Y-103422739D01*
X163880102Y-103378000D01*
X165127078Y-103378000D01*
X168442001Y-106692924D01*
X168442000Y-113270420D01*
X168432783Y-113364000D01*
X168442000Y-113457580D01*
X168442000Y-113457581D01*
X168469564Y-113737444D01*
X168578494Y-114096538D01*
X168755387Y-114427482D01*
X168993444Y-114717556D01*
X169066145Y-114777220D01*
X171433784Y-117144860D01*
X171493444Y-117217556D01*
X171685319Y-117375023D01*
X171783517Y-117455613D01*
X171892752Y-117514000D01*
X172114461Y-117632506D01*
X172473555Y-117741436D01*
X172753418Y-117769000D01*
X172753420Y-117769000D01*
X172847000Y-117778217D01*
X172940580Y-117769000D01*
X175440582Y-117769000D01*
X175720445Y-117741436D01*
X176079539Y-117632506D01*
X176410482Y-117455613D01*
X176700556Y-117217556D01*
X176938613Y-116927482D01*
X177115506Y-116596539D01*
X177224436Y-116237445D01*
X177261217Y-115864000D01*
X177224436Y-115490555D01*
X177115506Y-115131461D01*
X176938613Y-114800518D01*
X176700556Y-114510444D01*
X176410482Y-114272387D01*
X176079539Y-114095494D01*
X175720445Y-113986564D01*
X175440582Y-113959000D01*
X173636076Y-113959000D01*
X172252000Y-112574925D01*
X172252000Y-105997427D01*
X172261217Y-105903847D01*
X172241436Y-105703011D01*
X172224436Y-105530402D01*
X172115506Y-105171308D01*
X171999403Y-104954095D01*
X171938613Y-104840364D01*
X171858023Y-104742166D01*
X171700556Y-104550291D01*
X171627860Y-104490631D01*
X171213045Y-104075816D01*
X173812000Y-104075816D01*
X173812000Y-104378184D01*
X173870989Y-104674743D01*
X173986701Y-104954095D01*
X174154688Y-105205505D01*
X174368495Y-105419312D01*
X174619905Y-105587299D01*
X174899257Y-105703011D01*
X175195816Y-105762000D01*
X175498184Y-105762000D01*
X175794743Y-105703011D01*
X176074095Y-105587299D01*
X176325505Y-105419312D01*
X176539312Y-105205505D01*
X176707299Y-104954095D01*
X176823011Y-104674743D01*
X176882000Y-104378184D01*
X176882000Y-104075816D01*
X176823011Y-103779257D01*
X176707299Y-103499905D01*
X176539312Y-103248495D01*
X176325505Y-103034688D01*
X176074095Y-102866701D01*
X175794743Y-102750989D01*
X175498184Y-102692000D01*
X175195816Y-102692000D01*
X174899257Y-102750989D01*
X174619905Y-102866701D01*
X174368495Y-103034688D01*
X174154688Y-103248495D01*
X173986701Y-103499905D01*
X173870989Y-103779257D01*
X173812000Y-104075816D01*
X171213045Y-104075816D01*
X170399229Y-103262000D01*
X170498184Y-103262000D01*
X170794743Y-103203011D01*
X171074095Y-103087299D01*
X171325505Y-102919312D01*
X171539312Y-102705505D01*
X171707299Y-102454095D01*
X171823011Y-102174743D01*
X171882000Y-101878184D01*
X171882000Y-101575816D01*
X171823011Y-101279257D01*
X171707299Y-100999905D01*
X171539312Y-100748495D01*
X171325505Y-100534688D01*
X171074095Y-100366701D01*
X170891531Y-100291080D01*
X174462525Y-100291080D01*
X174546208Y-100545261D01*
X174818775Y-100676158D01*
X175111642Y-100751365D01*
X175413553Y-100767991D01*
X175712907Y-100725397D01*
X175998199Y-100625222D01*
X176147792Y-100545261D01*
X176231475Y-100291080D01*
X175347000Y-99406605D01*
X174462525Y-100291080D01*
X170891531Y-100291080D01*
X170794743Y-100250989D01*
X170498184Y-100192000D01*
X170195816Y-100192000D01*
X169899257Y-100250989D01*
X169619905Y-100366701D01*
X169368495Y-100534688D01*
X169154688Y-100748495D01*
X168986701Y-100999905D01*
X168870989Y-101279257D01*
X168812000Y-101575816D01*
X168812000Y-101674772D01*
X167329373Y-100192145D01*
X167269709Y-100119444D01*
X166979635Y-99881387D01*
X166648692Y-99704494D01*
X166289598Y-99595564D01*
X166009735Y-99568000D01*
X166009733Y-99568000D01*
X165916153Y-99558783D01*
X165822573Y-99568000D01*
X164017071Y-99568000D01*
X164017071Y-99293553D01*
X173806009Y-99293553D01*
X173848603Y-99592907D01*
X173948778Y-99878199D01*
X174028739Y-100027792D01*
X174282920Y-100111475D01*
X175167395Y-99227000D01*
X175526605Y-99227000D01*
X176411080Y-100111475D01*
X176665261Y-100027792D01*
X176796158Y-99755225D01*
X176871365Y-99462358D01*
X176887991Y-99160447D01*
X176845397Y-98861093D01*
X176745222Y-98575801D01*
X176665261Y-98426208D01*
X176411080Y-98342525D01*
X175526605Y-99227000D01*
X175167395Y-99227000D01*
X174282920Y-98342525D01*
X174028739Y-98426208D01*
X173897842Y-98698775D01*
X173822635Y-98991642D01*
X173806009Y-99293553D01*
X164017071Y-99293553D01*
X164017071Y-98033000D01*
X164004811Y-97908518D01*
X163969187Y-97791080D01*
X169462525Y-97791080D01*
X169546208Y-98045261D01*
X169818775Y-98176158D01*
X170111642Y-98251365D01*
X170413553Y-98267991D01*
X170712907Y-98225397D01*
X170890837Y-98162920D01*
X174462525Y-98162920D01*
X175347000Y-99047395D01*
X176231475Y-98162920D01*
X176147792Y-97908739D01*
X175875225Y-97777842D01*
X175582358Y-97702635D01*
X175280447Y-97686009D01*
X174981093Y-97728603D01*
X174695801Y-97828778D01*
X174546208Y-97908739D01*
X174462525Y-98162920D01*
X170890837Y-98162920D01*
X170998199Y-98125222D01*
X171147792Y-98045261D01*
X171231475Y-97791080D01*
X170347000Y-96906605D01*
X169462525Y-97791080D01*
X163969187Y-97791080D01*
X163968501Y-97788820D01*
X163909536Y-97678506D01*
X163830184Y-97581815D01*
X163733493Y-97502463D01*
X163623179Y-97443498D01*
X163503481Y-97407188D01*
X163378999Y-97394928D01*
X161578999Y-97394928D01*
X161454517Y-97407188D01*
X161334819Y-97443498D01*
X161224505Y-97502463D01*
X161127814Y-97581815D01*
X161048462Y-97678506D01*
X160989497Y-97788820D01*
X160953187Y-97908518D01*
X160940927Y-98033000D01*
X160940927Y-99833000D01*
X160953187Y-99957482D01*
X160989497Y-100077180D01*
X161048462Y-100187494D01*
X161059029Y-100200370D01*
X160887386Y-100409518D01*
X160710493Y-100740461D01*
X160601563Y-101099555D01*
X160564782Y-101473000D01*
X156870000Y-101473000D01*
X156870000Y-96793553D01*
X168806009Y-96793553D01*
X168848603Y-97092907D01*
X168948778Y-97378199D01*
X169028739Y-97527792D01*
X169282920Y-97611475D01*
X170167395Y-96727000D01*
X170526605Y-96727000D01*
X171411080Y-97611475D01*
X171665261Y-97527792D01*
X171796158Y-97255225D01*
X171871365Y-96962358D01*
X171887991Y-96660447D01*
X171845397Y-96361093D01*
X171745222Y-96075801D01*
X171665261Y-95926208D01*
X171411080Y-95842525D01*
X170526605Y-96727000D01*
X170167395Y-96727000D01*
X169282920Y-95842525D01*
X169028739Y-95926208D01*
X168897842Y-96198775D01*
X168822635Y-96491642D01*
X168806009Y-96793553D01*
X156870000Y-96793553D01*
X156870000Y-95662920D01*
X169462525Y-95662920D01*
X170347000Y-96547395D01*
X171231475Y-95662920D01*
X171147792Y-95408739D01*
X170875225Y-95277842D01*
X170582358Y-95202635D01*
X170280447Y-95186009D01*
X169981093Y-95228603D01*
X169695801Y-95328778D01*
X169546208Y-95408739D01*
X169462525Y-95662920D01*
X156870000Y-95662920D01*
X156870000Y-91219872D01*
X157785000Y-91219872D01*
X157785000Y-91660128D01*
X157870890Y-92091925D01*
X158039369Y-92498669D01*
X158283962Y-92864729D01*
X158595271Y-93176038D01*
X158961331Y-93420631D01*
X159368075Y-93589110D01*
X159799872Y-93675000D01*
X160240128Y-93675000D01*
X160671925Y-93589110D01*
X161078669Y-93420631D01*
X161444729Y-93176038D01*
X161756038Y-92864729D01*
X162000631Y-92498669D01*
X162169110Y-92091925D01*
X162255000Y-91660128D01*
X162255000Y-91219872D01*
X176835000Y-91219872D01*
X176835000Y-91660128D01*
X176920890Y-92091925D01*
X177089369Y-92498669D01*
X177333962Y-92864729D01*
X177645271Y-93176038D01*
X178011331Y-93420631D01*
X178418075Y-93589110D01*
X178849872Y-93675000D01*
X179290128Y-93675000D01*
X179721925Y-93589110D01*
X180128669Y-93420631D01*
X180494729Y-93176038D01*
X180806038Y-92864729D01*
X181050631Y-92498669D01*
X181219110Y-92091925D01*
X181305000Y-91660128D01*
X181305000Y-91219872D01*
X181219110Y-90788075D01*
X181050631Y-90381331D01*
X180806038Y-90015271D01*
X180494729Y-89703962D01*
X180128669Y-89459369D01*
X179721925Y-89290890D01*
X179290128Y-89205000D01*
X178849872Y-89205000D01*
X178418075Y-89290890D01*
X178011331Y-89459369D01*
X177645271Y-89703962D01*
X177333962Y-90015271D01*
X177089369Y-90381331D01*
X176920890Y-90788075D01*
X176835000Y-91219872D01*
X162255000Y-91219872D01*
X162169110Y-90788075D01*
X162000631Y-90381331D01*
X161756038Y-90015271D01*
X161444729Y-89703962D01*
X161078669Y-89459369D01*
X160671925Y-89290890D01*
X160240128Y-89205000D01*
X159799872Y-89205000D01*
X159368075Y-89290890D01*
X158961331Y-89459369D01*
X158595271Y-89703962D01*
X158283962Y-90015271D01*
X158039369Y-90381331D01*
X157870890Y-90788075D01*
X157785000Y-91219872D01*
X156870000Y-91219872D01*
X156870000Y-88290000D01*
X182220000Y-88290000D01*
X182220001Y-132690000D01*
M02*
