G04 #@! TF.GenerationSoftware,KiCad,Pcbnew,(5.1.4)-1*
G04 #@! TF.CreationDate,2019-12-03T13:15:03-06:00*
G04 #@! TF.ProjectId,cutdown_power,63757464-6f77-46e5-9f70-6f7765722e6b,rev?*
G04 #@! TF.SameCoordinates,Original*
G04 #@! TF.FileFunction,Legend,Top*
G04 #@! TF.FilePolarity,Positive*
%FSLAX46Y46*%
G04 Gerber Fmt 4.6, Leading zero omitted, Abs format (unit mm)*
G04 Created by KiCad (PCBNEW (5.1.4)-1) date 2019-12-03 13:15:03*
%MOMM*%
%LPD*%
G04 APERTURE LIST*
%ADD10C,0.120000*%
%ADD11C,0.150000*%
G04 APERTURE END LIST*
D10*
X157928000Y-117034000D02*
X159258000Y-117034000D01*
X157928000Y-118364000D02*
X157928000Y-117034000D01*
X157928000Y-119634000D02*
X160588000Y-119634000D01*
X160588000Y-119634000D02*
X160588000Y-122234000D01*
X157928000Y-119634000D02*
X157928000Y-122234000D01*
X157928000Y-122234000D02*
X160588000Y-122234000D01*
D11*
X167047000Y-124114000D02*
X181847000Y-124114000D01*
X181847000Y-124114000D02*
X181847000Y-112614000D01*
X181847000Y-112614000D02*
X171647000Y-112614000D01*
X167047000Y-112614000D02*
X167047000Y-124114000D01*
X167047000Y-112614000D02*
X169097000Y-112614000D01*
D10*
X165098999Y-103324000D02*
X163588999Y-103324000D01*
X165098999Y-99623000D02*
X163588999Y-99623000D01*
X163588999Y-96353000D02*
X163588999Y-106593000D01*
X165098999Y-106593000D02*
X160457999Y-106593000D01*
X165098999Y-96353000D02*
X160457999Y-96353000D01*
X160457999Y-96353000D02*
X160457999Y-106593000D01*
X165098999Y-96353000D02*
X165098999Y-106593000D01*
X157906000Y-102243000D02*
X157906000Y-103243000D01*
X156546000Y-103243000D02*
X156546000Y-102243000D01*
X158324000Y-103243000D02*
X158324000Y-102243000D01*
X159684000Y-102243000D02*
X159684000Y-103243000D01*
D11*
X167047000Y-107477000D02*
X181847000Y-107477000D01*
X181847000Y-107477000D02*
X181847000Y-95977000D01*
X181847000Y-95977000D02*
X171647000Y-95977000D01*
X167047000Y-95977000D02*
X167047000Y-107477000D01*
X167047000Y-95977000D02*
X169097000Y-95977000D01*
X158251380Y-124253333D02*
X158965666Y-124253333D01*
X159108523Y-124300952D01*
X159203761Y-124396190D01*
X159251380Y-124539047D01*
X159251380Y-124634285D01*
X159251380Y-123253333D02*
X159251380Y-123824761D01*
X159251380Y-123539047D02*
X158251380Y-123539047D01*
X158394238Y-123634285D01*
X158489476Y-123729523D01*
X158537095Y-123824761D01*
X181283380Y-125984333D02*
X181997666Y-125984333D01*
X182140523Y-126031952D01*
X182235761Y-126127190D01*
X182283380Y-126270047D01*
X182283380Y-126365285D01*
X181378619Y-125555761D02*
X181331000Y-125508142D01*
X181283380Y-125412904D01*
X181283380Y-125174809D01*
X181331000Y-125079571D01*
X181378619Y-125031952D01*
X181473857Y-124984333D01*
X181569095Y-124984333D01*
X181711952Y-125031952D01*
X182283380Y-125603380D01*
X182283380Y-124984333D01*
X163107619Y-95218238D02*
X163060000Y-95313476D01*
X162964761Y-95408714D01*
X162821904Y-95551571D01*
X162774285Y-95646809D01*
X162774285Y-95742047D01*
X163012380Y-95694428D02*
X162964761Y-95789666D01*
X162869523Y-95884904D01*
X162679047Y-95932523D01*
X162345714Y-95932523D01*
X162155238Y-95884904D01*
X162060000Y-95789666D01*
X162012380Y-95694428D01*
X162012380Y-95503952D01*
X162060000Y-95408714D01*
X162155238Y-95313476D01*
X162345714Y-95265857D01*
X162679047Y-95265857D01*
X162869523Y-95313476D01*
X162964761Y-95408714D01*
X163012380Y-95503952D01*
X163012380Y-95694428D01*
X163012380Y-94313476D02*
X163012380Y-94884904D01*
X163012380Y-94599190D02*
X162012380Y-94599190D01*
X162155238Y-94694428D01*
X162250476Y-94789666D01*
X162298095Y-94884904D01*
X157805380Y-105957666D02*
X157329190Y-106291000D01*
X157805380Y-106529095D02*
X156805380Y-106529095D01*
X156805380Y-106148142D01*
X156853000Y-106052904D01*
X156900619Y-106005285D01*
X156995857Y-105957666D01*
X157138714Y-105957666D01*
X157233952Y-106005285D01*
X157281571Y-106052904D01*
X157329190Y-106148142D01*
X157329190Y-106529095D01*
X157805380Y-105005285D02*
X157805380Y-105576714D01*
X157805380Y-105291000D02*
X156805380Y-105291000D01*
X156948238Y-105386238D01*
X157043476Y-105481476D01*
X157091095Y-105576714D01*
X159456380Y-105957666D02*
X158980190Y-106291000D01*
X159456380Y-106529095D02*
X158456380Y-106529095D01*
X158456380Y-106148142D01*
X158504000Y-106052904D01*
X158551619Y-106005285D01*
X158646857Y-105957666D01*
X158789714Y-105957666D01*
X158884952Y-106005285D01*
X158932571Y-106052904D01*
X158980190Y-106148142D01*
X158980190Y-106529095D01*
X158551619Y-105576714D02*
X158504000Y-105529095D01*
X158456380Y-105433857D01*
X158456380Y-105195761D01*
X158504000Y-105100523D01*
X158551619Y-105052904D01*
X158646857Y-105005285D01*
X158742095Y-105005285D01*
X158884952Y-105052904D01*
X159456380Y-105624333D01*
X159456380Y-105005285D01*
X181316380Y-109426333D02*
X182030666Y-109426333D01*
X182173523Y-109473952D01*
X182268761Y-109569190D01*
X182316380Y-109712047D01*
X182316380Y-109807285D01*
X181316380Y-109045380D02*
X181316380Y-108426333D01*
X181697333Y-108759666D01*
X181697333Y-108616809D01*
X181744952Y-108521571D01*
X181792571Y-108473952D01*
X181887809Y-108426333D01*
X182125904Y-108426333D01*
X182221142Y-108473952D01*
X182268761Y-108521571D01*
X182316380Y-108616809D01*
X182316380Y-108902523D01*
X182268761Y-108997761D01*
X182221142Y-109045380D01*
M02*
